M48
;GenerationSoftware,Autodesk,EAGLE,9.6.2*%
;CreationDate,2025-01-08T22:16:46Z*%
FMAT,2
ICI,OFF
METRIC,TZ,000.00000
T5C0.35000
T4C0.90000
T3C1.01600
T2C1.02000
T1C3.00000
%
G90
M71
T1
X300000Y3200000
X3200000Y300000
T2
X600000Y1017500
X600000Y382500
T3
X2950000Y2898000
X1136000Y525000
X1390000Y525000
X1644000Y525000
X1898000Y525000
X2152000Y525000
X2406000Y525000
X2660000Y525000
X2914000Y525000
X2950000Y861000
X2950000Y1115000
X2950000Y1369000
X2950000Y1623000
X2950000Y1877000
X2950000Y2131000
X2950000Y2385000
X2950000Y2639000
X2950000Y3152000
T4
X584200Y2998000
X1193800Y2998000
X762000Y2998000
X1016000Y2998000
X1616000Y3172000
X1870000Y3172000
X2603500Y3175000
X2349500Y3175000
T5
X381000Y2895600
X706000Y2770600
X1550000Y2875000
X2025000Y2375000
X373000Y960000
X889000Y2184400
X2025000Y2250000
X1300000Y1575000
X1300000Y1425000
X2250000Y100000
X1650000Y1475000
X1850000Y1475000
X800000Y450000
X1290000Y1125000
X1642000Y1375000
X775000Y2475000
X381000Y2590800
X1397000Y2590800
X375000Y450000
X375000Y825000
X3400000Y1750000
X100000Y1750000
X100000Y1250000
X100000Y750000
X100000Y2250000
X100000Y2750000
X1750000Y100000
X2750000Y100000
X1250000Y100000
X750000Y100000
X3400000Y1250000
X3400000Y750000
X3400000Y2250000
X3400000Y2750000
X1750000Y3400000
X2250000Y3400000
X2750000Y3400000
X1250000Y3400000
X2125000Y1525000
X750000Y3400000
X1650000Y1575000
X1775000Y2750000
X886400Y2019400
X875000Y2475000
X2275000Y1525000
X1150000Y1575000
X1150000Y1425000
X1150000Y1125000
M30