M48
;GenerationSoftware,Autodesk,EAGLE,9.6.2*%
;CreationDate,2023-04-17T12:22:28Z*%
FMAT,2
ICI,OFF
METRIC,TZ,000.00000
T5C0.35000
T4C0.45000
T3C0.99060
T2C1.01600
T1C2.50000
%
G90
M71
T1
X300000Y3200000
X3200000Y3200000
X300000Y300000
X3200000Y300000
T2
X2950000Y1369000
X2950000Y861000
X2950000Y1623000
X2950000Y1877000
X2950000Y2131000
X2950000Y2385000
X2950000Y2639000
X2627000Y2975000
X2373000Y2975000
X1016000Y3111500
X762000Y3111500
X1873250Y3111500
X1619250Y3111500
X861000Y550000
X1115000Y550000
X1369000Y550000
X1623000Y550000
X1877000Y550000
X2131000Y550000
X2385000Y550000
X2639000Y550000
X2950000Y1115000
T3
X450000Y2000000
X348400Y1492000
X551600Y1492000
T4
X386000Y1619000
X386000Y1873250
X514000Y1873000
X386000Y1746000
X514000Y1746000
T5
X887500Y2487500
X1875000Y2748000
X1875000Y2498000
X100000Y1750000
X2075000Y2000000
X1275000Y2025000
X1750000Y2498000
X912500Y2037500
X1775000Y1950000
X1450000Y2025000
X1642000Y1850000
X700000Y2200000
X1675000Y2375000
X1575000Y2375000
X1475000Y2375000
X3400000Y1750000
X100000Y1250000
X100000Y750000
X100000Y2250000
X100000Y2750000
X1750000Y100000
X2250000Y100000
X2750000Y100000
X1250000Y100000
X750000Y100000
X3400000Y1250000
X3400000Y750000
X3400000Y2250000
X3400000Y2750000
X1750000Y3400000
X912500Y2250000
X2250000Y3400000
X2750000Y3400000
X1250000Y3400000
X750000Y3400000
X1450000Y2100000
X1750000Y2748000
X1775000Y2050000
X1062500Y2037500
X712500Y1912500
M30