M48
;GenerationSoftware,Autodesk,EAGLE,9.6.2*%
;CreationDate,2024-11-29T09:57:28Z*%
FMAT,2
ICI,OFF
METRIC,TZ,000.00000
T4C0.35000
T3C1.01600
T2C1.02000
T1C2.50000
%
G90
M71
T1
X300000Y3200000
X3200000Y300000
T2
X600000Y1017500
X600000Y382500
T3
X2950000Y1369000
X1016000Y3111500
X762000Y3111500
X1873250Y3111500
X1619250Y3111500
X1136000Y525000
X1390000Y525000
X1644000Y525000
X1898000Y525000
X2152000Y525000
X2406000Y525000
X2660000Y525000
X2914000Y525000
X2950000Y861000
X2950000Y1115000
X2950000Y1623000
X2950000Y1877000
X2950000Y2131000
X2950000Y2385000
X2950000Y2639000
X2950000Y2898000
X2950000Y3152000
X2602000Y3100000
X2348000Y3100000
T4
X2212500Y1412500
X1362500Y1162500
X875000Y2475000
X1875000Y2748000
X1875000Y2498000
X912500Y2250000
X1750000Y2000000
X1275000Y2025000
X100000Y2750000
X2150000Y1975000
X800000Y450000
X1642000Y1850000
X625000Y2475000
X1675000Y2375000
X1575000Y2375000
X1475000Y2375000
X375000Y700000
X375000Y450000
X375000Y825000
X1750000Y2498000
X1450000Y2025000
X3400000Y1750000
X100000Y1750000
X100000Y1250000
X100000Y750000
X100000Y2250000
X1750000Y100000
X2250000Y100000
X2750000Y100000
X1250000Y100000
X750000Y100000
X3400000Y1250000
X3400000Y750000
X3400000Y2250000
X3400000Y2750000
X373000Y960000
X1750000Y3400000
X2250000Y3400000
X2750000Y3400000
X1250000Y3400000
X750000Y3400000
X1450000Y2100000
X1750000Y2748000
X1650000Y2050000
X2462500Y1912500
M30