G04 EAGLE Gerber RS-274X export*
G75*
%MOMM*%
%FSLAX35Y35*%
%LPD*%
%INcopper_top*%
%IPPOS*%
%AMOC8*
5,1,8,0,0,1.08239X$1,22.5*%
G01*
%ADD10C,0.000000*%
%ADD11R,0.600000X1.200000*%
%ADD12R,0.550000X0.300000*%
%ADD13R,0.750000X0.300000*%
%ADD14R,0.300000X0.550000*%
%ADD15R,0.300000X0.750000*%
%ADD16R,0.450000X1.100000*%
%ADD17C,1.524000*%
%ADD18R,2.790000X0.740000*%
%ADD19C,3.516000*%
%ADD20C,0.650000*%
%ADD21C,0.250000*%
%ADD22C,0.500000*%

G36*
X700628Y49916D02*
X700628Y49916D01*
X701345Y49934D01*
X701836Y50114D01*
X702350Y50198D01*
X702983Y50533D01*
X703656Y50779D01*
X704063Y51104D01*
X704525Y51348D01*
X705019Y51868D01*
X705578Y52315D01*
X705860Y52753D01*
X706220Y53132D01*
X706523Y53783D01*
X706910Y54385D01*
X707038Y54890D01*
X707258Y55363D01*
X707337Y56076D01*
X707513Y56771D01*
X707473Y57290D01*
X707531Y57809D01*
X707379Y58510D01*
X707324Y59224D01*
X707120Y59704D01*
X707010Y60214D01*
X706643Y60829D01*
X706363Y61489D01*
X705916Y62048D01*
X705749Y62328D01*
X705568Y62483D01*
X705308Y62808D01*
X705026Y63091D01*
X698689Y72573D01*
X694325Y83110D01*
X692706Y91250D01*
X748868Y91250D01*
X749062Y91282D01*
X749257Y91260D01*
X749864Y91392D01*
X751132Y91250D01*
X807294Y91250D01*
X805675Y83110D01*
X801311Y72573D01*
X794974Y63091D01*
X794692Y62808D01*
X794274Y62228D01*
X793780Y61707D01*
X793559Y61233D01*
X793255Y60811D01*
X793044Y60126D01*
X792742Y59476D01*
X792684Y58958D01*
X792530Y58459D01*
X792548Y57743D01*
X792469Y57030D01*
X792580Y56520D01*
X792593Y55999D01*
X792838Y55326D01*
X792990Y54625D01*
X793257Y54177D01*
X793436Y53687D01*
X793884Y53126D01*
X794250Y52512D01*
X794647Y52172D01*
X794972Y51765D01*
X795574Y51377D01*
X796118Y50910D01*
X796602Y50714D01*
X797041Y50432D01*
X797737Y50256D01*
X798400Y49988D01*
X799109Y49908D01*
X799426Y49828D01*
X799665Y49847D01*
X800078Y49800D01*
X1199921Y49800D01*
X1200628Y49916D01*
X1201345Y49934D01*
X1201836Y50114D01*
X1202350Y50198D01*
X1202983Y50533D01*
X1203656Y50779D01*
X1204063Y51104D01*
X1204525Y51348D01*
X1205019Y51868D01*
X1205578Y52315D01*
X1205860Y52753D01*
X1206220Y53132D01*
X1206523Y53783D01*
X1206910Y54385D01*
X1207038Y54890D01*
X1207258Y55363D01*
X1207337Y56076D01*
X1207513Y56771D01*
X1207473Y57290D01*
X1207531Y57809D01*
X1207379Y58510D01*
X1207324Y59224D01*
X1207120Y59704D01*
X1207010Y60214D01*
X1206643Y60829D01*
X1206363Y61489D01*
X1205916Y62048D01*
X1205749Y62328D01*
X1205568Y62483D01*
X1205308Y62808D01*
X1205026Y63091D01*
X1198689Y72573D01*
X1194325Y83110D01*
X1192706Y91250D01*
X1248868Y91250D01*
X1249062Y91282D01*
X1249257Y91260D01*
X1249864Y91392D01*
X1251132Y91250D01*
X1307294Y91250D01*
X1305675Y83110D01*
X1301311Y72573D01*
X1294974Y63091D01*
X1294692Y62808D01*
X1294274Y62228D01*
X1293780Y61707D01*
X1293559Y61233D01*
X1293255Y60811D01*
X1293044Y60126D01*
X1292742Y59476D01*
X1292684Y58958D01*
X1292530Y58459D01*
X1292548Y57743D01*
X1292469Y57030D01*
X1292580Y56520D01*
X1292593Y55999D01*
X1292838Y55326D01*
X1292990Y54625D01*
X1293257Y54177D01*
X1293436Y53687D01*
X1293884Y53126D01*
X1294250Y52512D01*
X1294647Y52172D01*
X1294972Y51765D01*
X1295574Y51377D01*
X1296118Y50910D01*
X1296602Y50714D01*
X1297041Y50432D01*
X1297737Y50256D01*
X1298400Y49988D01*
X1299109Y49908D01*
X1299426Y49828D01*
X1299665Y49847D01*
X1300078Y49800D01*
X1699921Y49800D01*
X1700628Y49916D01*
X1701345Y49934D01*
X1701836Y50114D01*
X1702350Y50198D01*
X1702983Y50533D01*
X1703656Y50779D01*
X1704063Y51104D01*
X1704525Y51348D01*
X1705019Y51868D01*
X1705578Y52315D01*
X1705860Y52753D01*
X1706220Y53132D01*
X1706523Y53783D01*
X1706910Y54385D01*
X1707038Y54890D01*
X1707258Y55363D01*
X1707337Y56076D01*
X1707513Y56771D01*
X1707473Y57290D01*
X1707531Y57809D01*
X1707379Y58510D01*
X1707324Y59224D01*
X1707120Y59704D01*
X1707010Y60214D01*
X1706643Y60829D01*
X1706363Y61489D01*
X1705916Y62048D01*
X1705749Y62328D01*
X1705568Y62483D01*
X1705308Y62808D01*
X1705026Y63091D01*
X1698689Y72573D01*
X1694325Y83110D01*
X1692706Y91250D01*
X1748868Y91250D01*
X1749062Y91282D01*
X1749257Y91260D01*
X1749864Y91392D01*
X1751132Y91250D01*
X1807294Y91250D01*
X1805675Y83110D01*
X1801311Y72573D01*
X1794974Y63091D01*
X1794692Y62808D01*
X1794274Y62228D01*
X1793780Y61707D01*
X1793559Y61233D01*
X1793255Y60811D01*
X1793044Y60126D01*
X1792742Y59476D01*
X1792684Y58958D01*
X1792530Y58459D01*
X1792548Y57743D01*
X1792469Y57030D01*
X1792580Y56520D01*
X1792593Y55999D01*
X1792838Y55326D01*
X1792990Y54625D01*
X1793257Y54177D01*
X1793436Y53687D01*
X1793884Y53126D01*
X1794250Y52512D01*
X1794647Y52172D01*
X1794972Y51765D01*
X1795574Y51377D01*
X1796118Y50910D01*
X1796602Y50714D01*
X1797041Y50432D01*
X1797737Y50256D01*
X1798400Y49988D01*
X1799109Y49908D01*
X1799426Y49828D01*
X1799665Y49847D01*
X1800078Y49800D01*
X2199921Y49800D01*
X2200628Y49916D01*
X2201345Y49934D01*
X2201836Y50114D01*
X2202350Y50198D01*
X2202983Y50533D01*
X2203656Y50779D01*
X2204063Y51104D01*
X2204525Y51348D01*
X2205019Y51868D01*
X2205578Y52315D01*
X2205860Y52753D01*
X2206220Y53132D01*
X2206523Y53783D01*
X2206910Y54385D01*
X2207038Y54890D01*
X2207258Y55363D01*
X2207337Y56076D01*
X2207513Y56771D01*
X2207473Y57290D01*
X2207531Y57809D01*
X2207379Y58510D01*
X2207324Y59224D01*
X2207120Y59704D01*
X2207010Y60214D01*
X2206643Y60829D01*
X2206363Y61489D01*
X2205916Y62048D01*
X2205749Y62328D01*
X2205568Y62483D01*
X2205308Y62808D01*
X2205026Y63091D01*
X2198689Y72573D01*
X2194325Y83110D01*
X2192706Y91250D01*
X2248868Y91250D01*
X2249062Y91282D01*
X2249257Y91260D01*
X2249864Y91392D01*
X2251132Y91250D01*
X2307294Y91250D01*
X2305675Y83110D01*
X2301311Y72573D01*
X2294974Y63091D01*
X2294692Y62808D01*
X2294274Y62228D01*
X2293780Y61707D01*
X2293559Y61233D01*
X2293255Y60811D01*
X2293044Y60126D01*
X2292742Y59476D01*
X2292684Y58958D01*
X2292530Y58459D01*
X2292548Y57743D01*
X2292469Y57030D01*
X2292580Y56520D01*
X2292593Y55999D01*
X2292838Y55326D01*
X2292990Y54625D01*
X2293257Y54177D01*
X2293436Y53687D01*
X2293884Y53126D01*
X2294250Y52512D01*
X2294647Y52172D01*
X2294972Y51765D01*
X2295574Y51377D01*
X2296118Y50910D01*
X2296602Y50714D01*
X2297041Y50432D01*
X2297737Y50256D01*
X2298400Y49988D01*
X2299109Y49908D01*
X2299426Y49828D01*
X2299665Y49847D01*
X2300078Y49800D01*
X2699921Y49800D01*
X2700628Y49916D01*
X2701345Y49934D01*
X2701836Y50114D01*
X2702350Y50198D01*
X2702983Y50533D01*
X2703656Y50779D01*
X2704063Y51104D01*
X2704525Y51348D01*
X2705019Y51868D01*
X2705578Y52315D01*
X2705860Y52753D01*
X2706220Y53132D01*
X2706523Y53783D01*
X2706910Y54385D01*
X2707038Y54890D01*
X2707258Y55363D01*
X2707337Y56076D01*
X2707513Y56771D01*
X2707473Y57290D01*
X2707531Y57809D01*
X2707379Y58510D01*
X2707324Y59224D01*
X2707120Y59704D01*
X2707010Y60214D01*
X2706643Y60829D01*
X2706363Y61489D01*
X2705916Y62048D01*
X2705749Y62328D01*
X2705568Y62483D01*
X2705308Y62808D01*
X2705026Y63091D01*
X2698689Y72573D01*
X2694325Y83110D01*
X2692706Y91250D01*
X2748868Y91250D01*
X2749062Y91282D01*
X2749257Y91260D01*
X2749864Y91392D01*
X2751132Y91250D01*
X2807294Y91250D01*
X2805675Y83110D01*
X2801311Y72573D01*
X2794974Y63091D01*
X2794692Y62808D01*
X2794274Y62228D01*
X2793780Y61707D01*
X2793559Y61233D01*
X2793255Y60811D01*
X2793044Y60126D01*
X2792742Y59476D01*
X2792684Y58958D01*
X2792530Y58459D01*
X2792548Y57743D01*
X2792469Y57030D01*
X2792580Y56520D01*
X2792593Y55999D01*
X2792838Y55326D01*
X2792990Y54625D01*
X2793257Y54177D01*
X2793436Y53687D01*
X2793884Y53126D01*
X2794250Y52512D01*
X2794647Y52172D01*
X2794972Y51765D01*
X2795574Y51377D01*
X2796118Y50910D01*
X2796602Y50714D01*
X2797041Y50432D01*
X2797737Y50256D01*
X2798400Y49988D01*
X2799109Y49908D01*
X2799426Y49828D01*
X2799665Y49847D01*
X2800078Y49800D01*
X3200100Y49800D01*
X3200319Y49836D01*
X3200698Y49824D01*
X3238614Y52808D01*
X3238665Y52820D01*
X3238717Y52817D01*
X3240371Y53157D01*
X3312493Y76591D01*
X3312806Y76753D01*
X3313149Y76838D01*
X3314617Y77673D01*
X3375967Y122247D01*
X3376214Y122497D01*
X3376515Y122685D01*
X3377653Y123933D01*
X3422226Y185283D01*
X3422385Y185598D01*
X3422612Y185868D01*
X3423309Y187407D01*
X3446743Y259529D01*
X3446750Y259581D01*
X3446773Y259627D01*
X3447092Y261286D01*
X3450076Y299202D01*
X3450058Y299423D01*
X3450099Y299800D01*
X3450099Y699821D01*
X3449983Y700529D01*
X3449965Y701245D01*
X3449786Y701735D01*
X3449702Y702250D01*
X3449367Y702883D01*
X3449121Y703557D01*
X3448795Y703964D01*
X3448551Y704425D01*
X3448032Y704919D01*
X3447584Y705478D01*
X3447146Y705761D01*
X3446768Y706120D01*
X3446118Y706422D01*
X3445515Y706810D01*
X3445008Y706938D01*
X3444536Y707158D01*
X3443824Y707237D01*
X3443129Y707413D01*
X3442609Y707373D01*
X3442091Y707431D01*
X3441390Y707279D01*
X3440675Y707224D01*
X3440196Y707020D01*
X3439686Y706910D01*
X3439069Y706542D01*
X3438410Y706263D01*
X3437853Y705817D01*
X3437572Y705649D01*
X3437417Y705468D01*
X3437091Y705208D01*
X3436909Y705025D01*
X3427426Y698689D01*
X3416889Y694325D01*
X3408749Y692706D01*
X3408749Y748868D01*
X3408718Y749062D01*
X3408739Y749257D01*
X3408608Y749864D01*
X3408749Y751132D01*
X3408749Y807294D01*
X3416889Y805675D01*
X3427426Y801311D01*
X3436909Y794974D01*
X3437091Y794792D01*
X3437672Y794374D01*
X3438193Y793880D01*
X3438666Y793659D01*
X3439089Y793355D01*
X3439774Y793144D01*
X3440424Y792842D01*
X3440942Y792784D01*
X3441441Y792630D01*
X3442157Y792648D01*
X3442869Y792569D01*
X3443380Y792680D01*
X3443901Y792693D01*
X3444573Y792938D01*
X3445274Y793090D01*
X3445723Y793357D01*
X3446213Y793536D01*
X3446773Y793983D01*
X3447388Y794350D01*
X3447727Y794746D01*
X3448135Y795072D01*
X3448523Y795674D01*
X3448990Y796218D01*
X3449186Y796703D01*
X3449468Y797141D01*
X3449643Y797834D01*
X3449912Y798500D01*
X3449992Y799211D01*
X3450071Y799526D01*
X3450053Y799763D01*
X3450099Y800178D01*
X3450099Y1199821D01*
X3449983Y1200529D01*
X3449965Y1201245D01*
X3449786Y1201735D01*
X3449702Y1202250D01*
X3449367Y1202883D01*
X3449121Y1203557D01*
X3448795Y1203964D01*
X3448551Y1204425D01*
X3448032Y1204919D01*
X3447584Y1205478D01*
X3447146Y1205761D01*
X3446768Y1206120D01*
X3446118Y1206422D01*
X3445515Y1206810D01*
X3445008Y1206938D01*
X3444536Y1207158D01*
X3443824Y1207237D01*
X3443129Y1207413D01*
X3442609Y1207373D01*
X3442091Y1207431D01*
X3441390Y1207279D01*
X3440675Y1207224D01*
X3440196Y1207020D01*
X3439686Y1206910D01*
X3439069Y1206542D01*
X3438410Y1206263D01*
X3437853Y1205817D01*
X3437572Y1205649D01*
X3437417Y1205468D01*
X3437091Y1205208D01*
X3436909Y1205025D01*
X3427426Y1198689D01*
X3416889Y1194325D01*
X3408749Y1192706D01*
X3408749Y1248868D01*
X3408718Y1249062D01*
X3408739Y1249257D01*
X3408608Y1249864D01*
X3408749Y1251132D01*
X3408749Y1307294D01*
X3416889Y1305675D01*
X3427426Y1301311D01*
X3436909Y1294974D01*
X3437091Y1294792D01*
X3437672Y1294374D01*
X3438193Y1293880D01*
X3438666Y1293659D01*
X3439089Y1293355D01*
X3439774Y1293144D01*
X3440424Y1292842D01*
X3440942Y1292784D01*
X3441441Y1292630D01*
X3442157Y1292648D01*
X3442869Y1292569D01*
X3443380Y1292680D01*
X3443901Y1292693D01*
X3444573Y1292938D01*
X3445274Y1293090D01*
X3445723Y1293357D01*
X3446213Y1293536D01*
X3446773Y1293983D01*
X3447388Y1294350D01*
X3447727Y1294746D01*
X3448135Y1295072D01*
X3448523Y1295674D01*
X3448990Y1296218D01*
X3449186Y1296703D01*
X3449468Y1297141D01*
X3449643Y1297834D01*
X3449912Y1298500D01*
X3449992Y1299211D01*
X3450071Y1299526D01*
X3450053Y1299763D01*
X3450099Y1300178D01*
X3450099Y1699821D01*
X3449983Y1700529D01*
X3449965Y1701245D01*
X3449786Y1701735D01*
X3449702Y1702250D01*
X3449367Y1702883D01*
X3449121Y1703557D01*
X3448795Y1703964D01*
X3448551Y1704425D01*
X3448032Y1704919D01*
X3447584Y1705478D01*
X3447146Y1705761D01*
X3446768Y1706120D01*
X3446118Y1706422D01*
X3445515Y1706810D01*
X3445008Y1706938D01*
X3444536Y1707158D01*
X3443824Y1707237D01*
X3443129Y1707413D01*
X3442609Y1707373D01*
X3442091Y1707431D01*
X3441390Y1707279D01*
X3440675Y1707224D01*
X3440196Y1707020D01*
X3439686Y1706910D01*
X3439069Y1706542D01*
X3438410Y1706263D01*
X3437853Y1705817D01*
X3437572Y1705649D01*
X3437417Y1705468D01*
X3437091Y1705208D01*
X3436909Y1705025D01*
X3427426Y1698689D01*
X3416889Y1694325D01*
X3408749Y1692706D01*
X3408749Y1748868D01*
X3408718Y1749062D01*
X3408739Y1749257D01*
X3408608Y1749864D01*
X3408749Y1751132D01*
X3408749Y1807294D01*
X3416889Y1805675D01*
X3427426Y1801311D01*
X3436909Y1794974D01*
X3437091Y1794792D01*
X3437672Y1794374D01*
X3438193Y1793880D01*
X3438666Y1793659D01*
X3439089Y1793355D01*
X3439774Y1793144D01*
X3440424Y1792842D01*
X3440942Y1792784D01*
X3441441Y1792630D01*
X3442157Y1792648D01*
X3442869Y1792569D01*
X3443380Y1792680D01*
X3443901Y1792693D01*
X3444573Y1792938D01*
X3445274Y1793090D01*
X3445723Y1793357D01*
X3446213Y1793536D01*
X3446773Y1793983D01*
X3447388Y1794350D01*
X3447727Y1794746D01*
X3448135Y1795072D01*
X3448523Y1795674D01*
X3448990Y1796218D01*
X3449186Y1796703D01*
X3449468Y1797141D01*
X3449643Y1797834D01*
X3449912Y1798500D01*
X3449992Y1799211D01*
X3450071Y1799526D01*
X3450053Y1799763D01*
X3450099Y1800178D01*
X3450099Y2199821D01*
X3449983Y2200529D01*
X3449965Y2201245D01*
X3449786Y2201735D01*
X3449702Y2202250D01*
X3449367Y2202883D01*
X3449121Y2203557D01*
X3448795Y2203964D01*
X3448551Y2204425D01*
X3448032Y2204919D01*
X3447584Y2205478D01*
X3447146Y2205761D01*
X3446768Y2206120D01*
X3446118Y2206422D01*
X3445515Y2206810D01*
X3445008Y2206938D01*
X3444536Y2207158D01*
X3443824Y2207237D01*
X3443129Y2207413D01*
X3442609Y2207373D01*
X3442091Y2207431D01*
X3441390Y2207279D01*
X3440675Y2207224D01*
X3440196Y2207020D01*
X3439686Y2206910D01*
X3439069Y2206542D01*
X3438410Y2206263D01*
X3437853Y2205817D01*
X3437572Y2205649D01*
X3437417Y2205468D01*
X3437091Y2205208D01*
X3436909Y2205025D01*
X3427426Y2198689D01*
X3416889Y2194325D01*
X3408749Y2192706D01*
X3408749Y2248868D01*
X3408718Y2249062D01*
X3408739Y2249257D01*
X3408608Y2249864D01*
X3408749Y2251132D01*
X3408749Y2307294D01*
X3416889Y2305675D01*
X3427426Y2301311D01*
X3436909Y2294974D01*
X3437091Y2294792D01*
X3437672Y2294374D01*
X3438193Y2293880D01*
X3438666Y2293659D01*
X3439089Y2293355D01*
X3439774Y2293144D01*
X3440424Y2292842D01*
X3440942Y2292784D01*
X3441441Y2292630D01*
X3442157Y2292648D01*
X3442869Y2292569D01*
X3443380Y2292680D01*
X3443901Y2292693D01*
X3444573Y2292938D01*
X3445274Y2293090D01*
X3445723Y2293357D01*
X3446213Y2293536D01*
X3446773Y2293983D01*
X3447388Y2294350D01*
X3447727Y2294746D01*
X3448135Y2295072D01*
X3448523Y2295674D01*
X3448990Y2296218D01*
X3449186Y2296703D01*
X3449468Y2297141D01*
X3449643Y2297834D01*
X3449912Y2298500D01*
X3449992Y2299211D01*
X3450071Y2299526D01*
X3450053Y2299763D01*
X3450099Y2300178D01*
X3450099Y2699821D01*
X3449983Y2700529D01*
X3449965Y2701245D01*
X3449786Y2701735D01*
X3449702Y2702250D01*
X3449367Y2702883D01*
X3449121Y2703557D01*
X3448795Y2703964D01*
X3448551Y2704425D01*
X3448032Y2704919D01*
X3447584Y2705478D01*
X3447146Y2705761D01*
X3446768Y2706120D01*
X3446118Y2706422D01*
X3445515Y2706810D01*
X3445008Y2706938D01*
X3444536Y2707158D01*
X3443824Y2707237D01*
X3443129Y2707413D01*
X3442609Y2707373D01*
X3442091Y2707431D01*
X3441390Y2707279D01*
X3440675Y2707224D01*
X3440196Y2707020D01*
X3439686Y2706910D01*
X3439069Y2706542D01*
X3438410Y2706263D01*
X3437853Y2705817D01*
X3437572Y2705649D01*
X3437417Y2705468D01*
X3437091Y2705208D01*
X3436909Y2705025D01*
X3427426Y2698689D01*
X3416889Y2694325D01*
X3408749Y2692706D01*
X3408749Y2748868D01*
X3408718Y2749062D01*
X3408739Y2749257D01*
X3408608Y2749864D01*
X3408749Y2751132D01*
X3408749Y2807294D01*
X3416889Y2805675D01*
X3427426Y2801311D01*
X3436909Y2794974D01*
X3437091Y2794792D01*
X3437672Y2794374D01*
X3438193Y2793880D01*
X3438666Y2793659D01*
X3439089Y2793355D01*
X3439774Y2793144D01*
X3440424Y2792842D01*
X3440942Y2792784D01*
X3441441Y2792630D01*
X3442157Y2792648D01*
X3442869Y2792569D01*
X3443380Y2792680D01*
X3443901Y2792693D01*
X3444573Y2792938D01*
X3445274Y2793090D01*
X3445723Y2793357D01*
X3446213Y2793536D01*
X3446773Y2793983D01*
X3447388Y2794350D01*
X3447727Y2794746D01*
X3448135Y2795072D01*
X3448523Y2795674D01*
X3448990Y2796218D01*
X3449186Y2796703D01*
X3449468Y2797141D01*
X3449643Y2797834D01*
X3449912Y2798500D01*
X3449992Y2799211D01*
X3450071Y2799526D01*
X3450053Y2799763D01*
X3450099Y2800178D01*
X3450099Y3199800D01*
X3450063Y3200019D01*
X3450076Y3200398D01*
X3447092Y3238314D01*
X3447079Y3238365D01*
X3447083Y3238417D01*
X3446743Y3240071D01*
X3423309Y3312193D01*
X3423147Y3312506D01*
X3423062Y3312849D01*
X3422226Y3314317D01*
X3377653Y3375667D01*
X3377403Y3375914D01*
X3377215Y3376215D01*
X3375967Y3377353D01*
X3314617Y3421926D01*
X3314302Y3422085D01*
X3314031Y3422312D01*
X3312493Y3423009D01*
X3240371Y3446443D01*
X3240319Y3446450D01*
X3240273Y3446473D01*
X3238614Y3446792D01*
X3200698Y3449776D01*
X3200477Y3449758D01*
X3200100Y3449799D01*
X2800478Y3449799D01*
X2799771Y3449684D01*
X2799053Y3449665D01*
X2798563Y3449486D01*
X2798050Y3449402D01*
X2797416Y3449067D01*
X2796742Y3448820D01*
X2796336Y3448495D01*
X2795875Y3448251D01*
X2795380Y3447730D01*
X2794821Y3447283D01*
X2794539Y3446846D01*
X2794180Y3446468D01*
X2793877Y3445816D01*
X2793489Y3445214D01*
X2793362Y3444708D01*
X2793142Y3444236D01*
X2793063Y3443524D01*
X2792887Y3442828D01*
X2792927Y3442308D01*
X2792869Y3441791D01*
X2793021Y3441089D01*
X2793076Y3440374D01*
X2793280Y3439895D01*
X2793390Y3439386D01*
X2793758Y3438769D01*
X2794038Y3438109D01*
X2794483Y3437552D01*
X2794650Y3437272D01*
X2794832Y3437117D01*
X2794854Y3437088D01*
X2801311Y3427426D01*
X2805675Y3416889D01*
X2807294Y3408749D01*
X2751132Y3408749D01*
X2750938Y3408718D01*
X2750743Y3408739D01*
X2750136Y3408608D01*
X2748868Y3408749D01*
X2692706Y3408749D01*
X2694325Y3416889D01*
X2698689Y3427426D01*
X2705357Y3437406D01*
X2705820Y3437893D01*
X2706040Y3438366D01*
X2706344Y3438788D01*
X2706555Y3439473D01*
X2706858Y3440124D01*
X2706915Y3440641D01*
X2707069Y3441139D01*
X2707051Y3441858D01*
X2707131Y3442569D01*
X2707020Y3443078D01*
X2707007Y3443599D01*
X2706762Y3444273D01*
X2706610Y3444974D01*
X2706343Y3445422D01*
X2706164Y3445911D01*
X2705717Y3446472D01*
X2705349Y3447088D01*
X2704954Y3447427D01*
X2704629Y3447834D01*
X2704026Y3448223D01*
X2703481Y3448690D01*
X2702998Y3448885D01*
X2702560Y3449167D01*
X2701865Y3449343D01*
X2701200Y3449612D01*
X2700491Y3449691D01*
X2700175Y3449771D01*
X2699937Y3449753D01*
X2699521Y3449799D01*
X2300478Y3449799D01*
X2299771Y3449684D01*
X2299053Y3449665D01*
X2298563Y3449486D01*
X2298050Y3449402D01*
X2297416Y3449067D01*
X2296742Y3448820D01*
X2296336Y3448495D01*
X2295875Y3448251D01*
X2295380Y3447730D01*
X2294821Y3447283D01*
X2294539Y3446846D01*
X2294180Y3446468D01*
X2293877Y3445816D01*
X2293489Y3445214D01*
X2293362Y3444708D01*
X2293142Y3444236D01*
X2293063Y3443524D01*
X2292887Y3442828D01*
X2292927Y3442308D01*
X2292869Y3441791D01*
X2293021Y3441089D01*
X2293076Y3440374D01*
X2293280Y3439895D01*
X2293390Y3439386D01*
X2293758Y3438769D01*
X2294038Y3438109D01*
X2294483Y3437552D01*
X2294650Y3437272D01*
X2294832Y3437117D01*
X2294854Y3437088D01*
X2301311Y3427426D01*
X2305675Y3416889D01*
X2307294Y3408749D01*
X2251132Y3408749D01*
X2250938Y3408718D01*
X2250743Y3408739D01*
X2250136Y3408608D01*
X2248868Y3408749D01*
X2192706Y3408749D01*
X2194325Y3416889D01*
X2198689Y3427426D01*
X2205357Y3437406D01*
X2205820Y3437893D01*
X2206040Y3438366D01*
X2206344Y3438788D01*
X2206555Y3439473D01*
X2206858Y3440124D01*
X2206915Y3440641D01*
X2207069Y3441139D01*
X2207051Y3441858D01*
X2207131Y3442569D01*
X2207020Y3443078D01*
X2207007Y3443599D01*
X2206762Y3444273D01*
X2206610Y3444974D01*
X2206343Y3445422D01*
X2206164Y3445911D01*
X2205717Y3446472D01*
X2205349Y3447088D01*
X2204954Y3447427D01*
X2204629Y3447834D01*
X2204026Y3448223D01*
X2203481Y3448690D01*
X2202998Y3448885D01*
X2202560Y3449167D01*
X2201865Y3449343D01*
X2201200Y3449612D01*
X2200491Y3449691D01*
X2200175Y3449771D01*
X2199937Y3449753D01*
X2199521Y3449799D01*
X1800478Y3449799D01*
X1799771Y3449684D01*
X1799053Y3449665D01*
X1798563Y3449486D01*
X1798050Y3449402D01*
X1797416Y3449067D01*
X1796742Y3448820D01*
X1796336Y3448495D01*
X1795875Y3448251D01*
X1795380Y3447730D01*
X1794821Y3447283D01*
X1794539Y3446846D01*
X1794180Y3446468D01*
X1793877Y3445816D01*
X1793489Y3445214D01*
X1793362Y3444708D01*
X1793142Y3444236D01*
X1793063Y3443524D01*
X1792887Y3442828D01*
X1792927Y3442308D01*
X1792869Y3441791D01*
X1793021Y3441089D01*
X1793076Y3440374D01*
X1793280Y3439895D01*
X1793390Y3439386D01*
X1793758Y3438769D01*
X1794038Y3438109D01*
X1794483Y3437552D01*
X1794650Y3437272D01*
X1794832Y3437117D01*
X1794854Y3437088D01*
X1801311Y3427426D01*
X1805675Y3416889D01*
X1807294Y3408749D01*
X1751132Y3408749D01*
X1750938Y3408718D01*
X1750743Y3408739D01*
X1750136Y3408608D01*
X1748868Y3408749D01*
X1692706Y3408749D01*
X1694325Y3416889D01*
X1698689Y3427426D01*
X1705357Y3437406D01*
X1705820Y3437893D01*
X1706040Y3438366D01*
X1706344Y3438788D01*
X1706555Y3439473D01*
X1706858Y3440124D01*
X1706915Y3440641D01*
X1707069Y3441139D01*
X1707051Y3441858D01*
X1707131Y3442569D01*
X1707020Y3443078D01*
X1707007Y3443599D01*
X1706762Y3444273D01*
X1706610Y3444974D01*
X1706343Y3445422D01*
X1706164Y3445911D01*
X1705717Y3446472D01*
X1705349Y3447088D01*
X1704954Y3447427D01*
X1704629Y3447834D01*
X1704026Y3448223D01*
X1703481Y3448690D01*
X1702998Y3448885D01*
X1702560Y3449167D01*
X1701865Y3449343D01*
X1701200Y3449612D01*
X1700491Y3449691D01*
X1700175Y3449771D01*
X1699937Y3449753D01*
X1699521Y3449799D01*
X1300478Y3449799D01*
X1299771Y3449684D01*
X1299053Y3449665D01*
X1298563Y3449486D01*
X1298050Y3449402D01*
X1297416Y3449067D01*
X1296742Y3448820D01*
X1296336Y3448495D01*
X1295875Y3448251D01*
X1295380Y3447730D01*
X1294821Y3447283D01*
X1294539Y3446846D01*
X1294180Y3446468D01*
X1293877Y3445816D01*
X1293489Y3445214D01*
X1293362Y3444708D01*
X1293142Y3444236D01*
X1293063Y3443524D01*
X1292887Y3442828D01*
X1292927Y3442308D01*
X1292869Y3441791D01*
X1293021Y3441089D01*
X1293076Y3440374D01*
X1293280Y3439895D01*
X1293390Y3439386D01*
X1293758Y3438769D01*
X1294038Y3438109D01*
X1294483Y3437552D01*
X1294650Y3437272D01*
X1294832Y3437117D01*
X1294854Y3437088D01*
X1301311Y3427426D01*
X1305675Y3416889D01*
X1307294Y3408749D01*
X1251132Y3408749D01*
X1250938Y3408718D01*
X1250743Y3408739D01*
X1250136Y3408608D01*
X1248868Y3408749D01*
X1192706Y3408749D01*
X1194325Y3416889D01*
X1198689Y3427426D01*
X1205357Y3437406D01*
X1205820Y3437893D01*
X1206040Y3438366D01*
X1206344Y3438788D01*
X1206555Y3439473D01*
X1206858Y3440124D01*
X1206915Y3440641D01*
X1207069Y3441139D01*
X1207051Y3441858D01*
X1207131Y3442569D01*
X1207020Y3443078D01*
X1207007Y3443599D01*
X1206762Y3444273D01*
X1206610Y3444974D01*
X1206343Y3445422D01*
X1206164Y3445911D01*
X1205717Y3446472D01*
X1205349Y3447088D01*
X1204954Y3447427D01*
X1204629Y3447834D01*
X1204026Y3448223D01*
X1203481Y3448690D01*
X1202998Y3448885D01*
X1202560Y3449167D01*
X1201865Y3449343D01*
X1201200Y3449612D01*
X1200491Y3449691D01*
X1200175Y3449771D01*
X1199937Y3449753D01*
X1199521Y3449799D01*
X800478Y3449799D01*
X799771Y3449684D01*
X799053Y3449665D01*
X798563Y3449486D01*
X798050Y3449402D01*
X797416Y3449067D01*
X796742Y3448820D01*
X796336Y3448495D01*
X795875Y3448251D01*
X795380Y3447730D01*
X794821Y3447283D01*
X794539Y3446846D01*
X794180Y3446468D01*
X793877Y3445816D01*
X793489Y3445214D01*
X793362Y3444708D01*
X793142Y3444236D01*
X793063Y3443524D01*
X792887Y3442828D01*
X792927Y3442308D01*
X792869Y3441791D01*
X793021Y3441089D01*
X793076Y3440374D01*
X793280Y3439895D01*
X793390Y3439386D01*
X793758Y3438769D01*
X794038Y3438109D01*
X794483Y3437552D01*
X794650Y3437272D01*
X794832Y3437117D01*
X794854Y3437088D01*
X801311Y3427426D01*
X805675Y3416889D01*
X807294Y3408749D01*
X751132Y3408749D01*
X750938Y3408718D01*
X750743Y3408739D01*
X750136Y3408608D01*
X748868Y3408749D01*
X692706Y3408749D01*
X694325Y3416889D01*
X698689Y3427426D01*
X705357Y3437406D01*
X705820Y3437893D01*
X706040Y3438366D01*
X706344Y3438788D01*
X706555Y3439473D01*
X706858Y3440124D01*
X706915Y3440641D01*
X707069Y3441139D01*
X707051Y3441858D01*
X707131Y3442569D01*
X707020Y3443078D01*
X707007Y3443599D01*
X706762Y3444273D01*
X706610Y3444974D01*
X706343Y3445422D01*
X706164Y3445911D01*
X705717Y3446472D01*
X705349Y3447088D01*
X704954Y3447427D01*
X704629Y3447834D01*
X704026Y3448223D01*
X703481Y3448690D01*
X702998Y3448885D01*
X702560Y3449167D01*
X701865Y3449343D01*
X701200Y3449612D01*
X700491Y3449691D01*
X700175Y3449771D01*
X699937Y3449753D01*
X699521Y3449799D01*
X300100Y3449799D01*
X299881Y3449763D01*
X299502Y3449776D01*
X261586Y3446792D01*
X261535Y3446779D01*
X261483Y3446783D01*
X259829Y3446443D01*
X187707Y3423009D01*
X187393Y3422847D01*
X187051Y3422762D01*
X185583Y3421926D01*
X124233Y3377353D01*
X123985Y3377103D01*
X123685Y3376915D01*
X122547Y3375667D01*
X77973Y3314317D01*
X77815Y3314002D01*
X77588Y3313731D01*
X76891Y3312193D01*
X53457Y3240071D01*
X53449Y3240019D01*
X53426Y3239973D01*
X53108Y3238314D01*
X50124Y3200398D01*
X50142Y3200177D01*
X50100Y3199800D01*
X50100Y2800378D01*
X50131Y2800191D01*
X50110Y2800005D01*
X50221Y2799496D01*
X50235Y2798954D01*
X50414Y2798464D01*
X50498Y2797950D01*
X50596Y2797765D01*
X50631Y2797600D01*
X50884Y2797177D01*
X51079Y2796643D01*
X51405Y2796235D01*
X51648Y2795775D01*
X51813Y2795618D01*
X51892Y2795487D01*
X52248Y2795181D01*
X52616Y2794721D01*
X53053Y2794440D01*
X53432Y2794080D01*
X53652Y2793978D01*
X53760Y2793885D01*
X54179Y2793716D01*
X54686Y2793389D01*
X55191Y2793262D01*
X55663Y2793042D01*
X55914Y2793014D01*
X56041Y2792963D01*
X56639Y2792896D01*
X57071Y2792787D01*
X57395Y2792812D01*
X57720Y2792775D01*
X57736Y2792775D01*
X57864Y2792796D01*
X58109Y2792769D01*
X58809Y2792921D01*
X59525Y2792976D01*
X59878Y2793126D01*
X60164Y2793173D01*
X60297Y2793243D01*
X60514Y2793290D01*
X61130Y2793657D01*
X61790Y2793938D01*
X62141Y2794218D01*
X62340Y2794323D01*
X62461Y2794451D01*
X62628Y2794550D01*
X62783Y2794732D01*
X63063Y2794956D01*
X72573Y2801311D01*
X83110Y2805675D01*
X91250Y2807294D01*
X91250Y2751132D01*
X91282Y2750938D01*
X91260Y2750743D01*
X91392Y2750136D01*
X91250Y2748868D01*
X91250Y2692706D01*
X83110Y2694325D01*
X72573Y2698689D01*
X62992Y2705092D01*
X62528Y2705425D01*
X62007Y2705920D01*
X61534Y2706140D01*
X61111Y2706444D01*
X60426Y2706655D01*
X59776Y2706958D01*
X59258Y2707016D01*
X58760Y2707169D01*
X58042Y2707151D01*
X57330Y2707231D01*
X56821Y2707120D01*
X56300Y2707107D01*
X55626Y2706861D01*
X54925Y2706710D01*
X54478Y2706443D01*
X53988Y2706264D01*
X53428Y2705817D01*
X52812Y2705449D01*
X52472Y2705053D01*
X52065Y2704728D01*
X51678Y2704127D01*
X51210Y2703581D01*
X51014Y2703097D01*
X50733Y2702660D01*
X50557Y2701966D01*
X50288Y2701300D01*
X50208Y2700589D01*
X50128Y2700274D01*
X50147Y2700037D01*
X50100Y2699621D01*
X50100Y2300378D01*
X50216Y2299671D01*
X50235Y2298954D01*
X50414Y2298464D01*
X50498Y2297950D01*
X50833Y2297317D01*
X51079Y2296643D01*
X51405Y2296235D01*
X51648Y2295775D01*
X52169Y2295280D01*
X52616Y2294721D01*
X53053Y2294440D01*
X53432Y2294080D01*
X54084Y2293777D01*
X54686Y2293389D01*
X55191Y2293262D01*
X55663Y2293042D01*
X56375Y2292963D01*
X57071Y2292787D01*
X57592Y2292827D01*
X58109Y2292769D01*
X58809Y2292921D01*
X59525Y2292976D01*
X60005Y2293180D01*
X60514Y2293290D01*
X61130Y2293657D01*
X61790Y2293938D01*
X62347Y2294383D01*
X62628Y2294550D01*
X62783Y2294732D01*
X63063Y2294956D01*
X72573Y2301311D01*
X83110Y2305675D01*
X91250Y2307294D01*
X91250Y2251132D01*
X91282Y2250938D01*
X91260Y2250743D01*
X91392Y2250136D01*
X91250Y2248868D01*
X91250Y2192706D01*
X83110Y2194325D01*
X72573Y2198689D01*
X62992Y2205092D01*
X62528Y2205425D01*
X62007Y2205920D01*
X61534Y2206140D01*
X61111Y2206444D01*
X60426Y2206655D01*
X59776Y2206958D01*
X59258Y2207016D01*
X58760Y2207169D01*
X58042Y2207151D01*
X57330Y2207231D01*
X56821Y2207120D01*
X56300Y2207107D01*
X55626Y2206861D01*
X54925Y2206710D01*
X54478Y2206443D01*
X53988Y2206264D01*
X53428Y2205817D01*
X52812Y2205449D01*
X52472Y2205053D01*
X52065Y2204728D01*
X51678Y2204127D01*
X51210Y2203581D01*
X51014Y2203097D01*
X50733Y2202660D01*
X50557Y2201966D01*
X50288Y2201300D01*
X50208Y2200589D01*
X50128Y2200274D01*
X50147Y2200037D01*
X50100Y2199621D01*
X50100Y1800378D01*
X50216Y1799671D01*
X50235Y1798954D01*
X50414Y1798464D01*
X50498Y1797950D01*
X50833Y1797317D01*
X51079Y1796643D01*
X51405Y1796235D01*
X51648Y1795775D01*
X52169Y1795280D01*
X52616Y1794721D01*
X53053Y1794440D01*
X53432Y1794080D01*
X54084Y1793777D01*
X54686Y1793389D01*
X55191Y1793262D01*
X55663Y1793042D01*
X56375Y1792963D01*
X57071Y1792787D01*
X57592Y1792827D01*
X58109Y1792769D01*
X58809Y1792921D01*
X59525Y1792976D01*
X60005Y1793180D01*
X60514Y1793290D01*
X61130Y1793657D01*
X61790Y1793938D01*
X62347Y1794383D01*
X62628Y1794550D01*
X62783Y1794732D01*
X63063Y1794956D01*
X72573Y1801311D01*
X83110Y1805675D01*
X91250Y1807294D01*
X91250Y1751132D01*
X91282Y1750938D01*
X91260Y1750743D01*
X91392Y1750136D01*
X91250Y1748868D01*
X91250Y1692706D01*
X83110Y1694325D01*
X72573Y1698689D01*
X62992Y1705092D01*
X62528Y1705425D01*
X62007Y1705920D01*
X61534Y1706140D01*
X61111Y1706444D01*
X60426Y1706655D01*
X59776Y1706958D01*
X59258Y1707016D01*
X58760Y1707169D01*
X58042Y1707151D01*
X57330Y1707231D01*
X56821Y1707120D01*
X56300Y1707107D01*
X55626Y1706861D01*
X54925Y1706710D01*
X54478Y1706443D01*
X53988Y1706264D01*
X53428Y1705817D01*
X52812Y1705449D01*
X52472Y1705053D01*
X52065Y1704728D01*
X51678Y1704127D01*
X51210Y1703581D01*
X51014Y1703097D01*
X50733Y1702660D01*
X50557Y1701966D01*
X50288Y1701300D01*
X50208Y1700589D01*
X50128Y1700274D01*
X50147Y1700037D01*
X50100Y1699621D01*
X50100Y1300378D01*
X50216Y1299671D01*
X50235Y1298954D01*
X50414Y1298464D01*
X50498Y1297950D01*
X50833Y1297317D01*
X51079Y1296643D01*
X51405Y1296235D01*
X51648Y1295775D01*
X52169Y1295280D01*
X52616Y1294721D01*
X53053Y1294440D01*
X53432Y1294080D01*
X54084Y1293777D01*
X54686Y1293389D01*
X55191Y1293262D01*
X55663Y1293042D01*
X56375Y1292963D01*
X57071Y1292787D01*
X57592Y1292827D01*
X58109Y1292769D01*
X58809Y1292921D01*
X59525Y1292976D01*
X60005Y1293180D01*
X60514Y1293290D01*
X61130Y1293657D01*
X61790Y1293938D01*
X62347Y1294383D01*
X62628Y1294550D01*
X62783Y1294732D01*
X63063Y1294956D01*
X72573Y1301311D01*
X83110Y1305675D01*
X91250Y1307294D01*
X91250Y1251132D01*
X91282Y1250938D01*
X91260Y1250743D01*
X91392Y1250136D01*
X91250Y1248868D01*
X91250Y1192706D01*
X83110Y1194325D01*
X72573Y1198689D01*
X62992Y1205092D01*
X62528Y1205425D01*
X62007Y1205920D01*
X61534Y1206140D01*
X61111Y1206444D01*
X60426Y1206655D01*
X59776Y1206958D01*
X59258Y1207016D01*
X58760Y1207169D01*
X58042Y1207151D01*
X57330Y1207231D01*
X56821Y1207120D01*
X56300Y1207107D01*
X55626Y1206861D01*
X54925Y1206710D01*
X54478Y1206443D01*
X53988Y1206264D01*
X53428Y1205817D01*
X52812Y1205449D01*
X52472Y1205053D01*
X52065Y1204728D01*
X51678Y1204127D01*
X51210Y1203581D01*
X51014Y1203097D01*
X50733Y1202660D01*
X50557Y1201966D01*
X50288Y1201300D01*
X50208Y1200589D01*
X50128Y1200274D01*
X50147Y1200037D01*
X50100Y1199621D01*
X50100Y800378D01*
X50216Y799671D01*
X50235Y798954D01*
X50414Y798464D01*
X50498Y797950D01*
X50833Y797317D01*
X51079Y796643D01*
X51405Y796235D01*
X51648Y795775D01*
X52169Y795280D01*
X52616Y794721D01*
X53053Y794440D01*
X53432Y794080D01*
X54084Y793777D01*
X54686Y793389D01*
X55191Y793262D01*
X55663Y793042D01*
X56375Y792963D01*
X57071Y792787D01*
X57592Y792827D01*
X58109Y792769D01*
X58809Y792921D01*
X59525Y792976D01*
X60005Y793180D01*
X60514Y793290D01*
X61130Y793657D01*
X61790Y793938D01*
X62347Y794383D01*
X62628Y794550D01*
X62783Y794732D01*
X63063Y794956D01*
X72573Y801311D01*
X83110Y805675D01*
X91250Y807294D01*
X91250Y751132D01*
X91282Y750938D01*
X91260Y750743D01*
X91392Y750136D01*
X91250Y748868D01*
X91250Y692706D01*
X83110Y694325D01*
X72573Y698689D01*
X62992Y705092D01*
X62528Y705425D01*
X62007Y705920D01*
X61534Y706140D01*
X61111Y706444D01*
X60426Y706655D01*
X59776Y706958D01*
X59258Y707016D01*
X58760Y707169D01*
X58042Y707151D01*
X57330Y707231D01*
X56821Y707120D01*
X56300Y707107D01*
X55626Y706861D01*
X54925Y706710D01*
X54478Y706443D01*
X53988Y706264D01*
X53428Y705817D01*
X52812Y705449D01*
X52472Y705053D01*
X52065Y704728D01*
X51678Y704127D01*
X51210Y703581D01*
X51014Y703097D01*
X50733Y702660D01*
X50557Y701966D01*
X50288Y701300D01*
X50208Y700589D01*
X50128Y700274D01*
X50147Y700037D01*
X50100Y699621D01*
X50100Y299800D01*
X50136Y299581D01*
X50124Y299202D01*
X53108Y261286D01*
X53120Y261235D01*
X53117Y261183D01*
X53457Y259529D01*
X76891Y187407D01*
X77053Y187093D01*
X77138Y186751D01*
X77973Y185283D01*
X122547Y123933D01*
X122797Y123685D01*
X122985Y123385D01*
X124233Y122247D01*
X185583Y77673D01*
X185898Y77515D01*
X186168Y77288D01*
X187707Y76591D01*
X259829Y53157D01*
X259880Y53149D01*
X259927Y53126D01*
X261585Y52808D01*
X299502Y49824D01*
X299723Y49842D01*
X300100Y49800D01*
X699921Y49800D01*
X700628Y49916D01*
G37*
%LPC*%
G36*
X248716Y261999D02*
X248716Y261999D01*
X236999Y273716D01*
X236999Y364284D01*
X247053Y374338D01*
X247741Y375295D01*
X248450Y376258D01*
X248463Y376300D01*
X248489Y376336D01*
X248839Y377470D01*
X249201Y378601D01*
X249201Y378645D01*
X249214Y378688D01*
X249183Y379887D01*
X249167Y381062D01*
X249152Y381103D01*
X249151Y381148D01*
X248745Y382258D01*
X248349Y383383D01*
X248323Y383417D01*
X248307Y383459D01*
X247571Y384380D01*
X246835Y385323D01*
X246793Y385354D01*
X246771Y385381D01*
X246648Y385460D01*
X245475Y386324D01*
X241403Y388675D01*
X236675Y393403D01*
X233330Y399196D01*
X231599Y405656D01*
X231599Y430761D01*
X314880Y430761D01*
X315074Y430793D01*
X315269Y430771D01*
X316285Y430991D01*
X317308Y431158D01*
X317482Y431250D01*
X317674Y431292D01*
X318567Y431824D01*
X319484Y432309D01*
X319619Y432452D01*
X319788Y432552D01*
X320463Y433339D01*
X321179Y434093D01*
X321262Y434271D01*
X321390Y434420D01*
X321779Y435384D01*
X322217Y436324D01*
X322238Y436519D01*
X322312Y436702D01*
X322499Y438380D01*
X322499Y453619D01*
X322468Y453813D01*
X322489Y454008D01*
X322269Y455024D01*
X322102Y456048D01*
X322010Y456221D01*
X321968Y456413D01*
X321436Y457306D01*
X320951Y458223D01*
X320809Y458358D01*
X320708Y458527D01*
X319921Y459202D01*
X319168Y459918D01*
X318989Y460001D01*
X318840Y460129D01*
X317876Y460518D01*
X316936Y460956D01*
X316741Y460978D01*
X316558Y461051D01*
X314880Y461238D01*
X231599Y461238D01*
X231599Y486344D01*
X233330Y492803D01*
X236675Y498596D01*
X241403Y503325D01*
X245475Y505676D01*
X246389Y506423D01*
X247322Y507169D01*
X247346Y507207D01*
X247379Y507234D01*
X248004Y508230D01*
X248654Y509238D01*
X248665Y509281D01*
X248688Y509318D01*
X248963Y510463D01*
X249257Y511624D01*
X249253Y511668D01*
X249264Y511711D01*
X249160Y512883D01*
X249068Y514078D01*
X249051Y514118D01*
X249047Y514162D01*
X248573Y515245D01*
X248108Y516343D01*
X248075Y516383D01*
X248061Y516416D01*
X247961Y516526D01*
X247053Y517662D01*
X236999Y527715D01*
X236999Y618284D01*
X247053Y628338D01*
X247741Y629295D01*
X248450Y630258D01*
X248463Y630300D01*
X248489Y630336D01*
X248839Y631470D01*
X249201Y632601D01*
X249201Y632645D01*
X249214Y632688D01*
X249183Y633887D01*
X249167Y635062D01*
X249152Y635103D01*
X249151Y635148D01*
X248741Y636272D01*
X248349Y637383D01*
X248323Y637417D01*
X248307Y637459D01*
X247571Y638380D01*
X246835Y639323D01*
X246793Y639354D01*
X246771Y639381D01*
X246648Y639460D01*
X245475Y640324D01*
X241403Y642675D01*
X236675Y647403D01*
X233330Y653196D01*
X231599Y659656D01*
X231599Y684761D01*
X314880Y684761D01*
X315074Y684793D01*
X315269Y684771D01*
X316285Y684991D01*
X317308Y685158D01*
X317482Y685250D01*
X317674Y685292D01*
X318567Y685824D01*
X319484Y686309D01*
X319619Y686452D01*
X319788Y686552D01*
X320463Y687339D01*
X321179Y688093D01*
X321262Y688271D01*
X321390Y688420D01*
X321779Y689384D01*
X322217Y690324D01*
X322238Y690519D01*
X322312Y690702D01*
X322499Y692380D01*
X322499Y707619D01*
X322468Y707813D01*
X322489Y708008D01*
X322269Y709024D01*
X322102Y710048D01*
X322010Y710221D01*
X321968Y710413D01*
X321436Y711306D01*
X320951Y712223D01*
X320809Y712358D01*
X320708Y712527D01*
X319921Y713202D01*
X319168Y713918D01*
X318989Y714001D01*
X318840Y714129D01*
X317876Y714518D01*
X316936Y714956D01*
X316741Y714978D01*
X316558Y715051D01*
X314880Y715238D01*
X231599Y715238D01*
X231599Y740344D01*
X233330Y746803D01*
X236675Y752596D01*
X242004Y757926D01*
X242193Y758059D01*
X242358Y758284D01*
X242575Y758462D01*
X243084Y759273D01*
X243649Y760043D01*
X243734Y760309D01*
X243883Y760546D01*
X244107Y761478D01*
X244397Y762387D01*
X244393Y762666D01*
X244458Y762938D01*
X244374Y763892D01*
X244359Y764847D01*
X244266Y765111D01*
X244241Y765390D01*
X243858Y766265D01*
X243538Y767167D01*
X243366Y767387D01*
X243254Y767644D01*
X242610Y768353D01*
X242021Y769105D01*
X241842Y769237D01*
X236675Y774403D01*
X233330Y780196D01*
X231599Y786656D01*
X231599Y811761D01*
X314880Y811761D01*
X315074Y811793D01*
X315269Y811771D01*
X316285Y811991D01*
X317308Y812158D01*
X317482Y812250D01*
X317674Y812292D01*
X318567Y812824D01*
X319484Y813309D01*
X319619Y813452D01*
X319788Y813552D01*
X320463Y814339D01*
X321179Y815093D01*
X321262Y815271D01*
X321390Y815420D01*
X321779Y816384D01*
X322217Y817324D01*
X322238Y817519D01*
X322312Y817702D01*
X322499Y819380D01*
X322499Y834619D01*
X322469Y834804D01*
X322489Y834985D01*
X322488Y834993D01*
X322489Y835008D01*
X322269Y836024D01*
X322102Y837048D01*
X322010Y837221D01*
X321968Y837413D01*
X321436Y838306D01*
X320951Y839223D01*
X320809Y839358D01*
X320708Y839527D01*
X319921Y840202D01*
X319168Y840918D01*
X318989Y841001D01*
X318840Y841129D01*
X317876Y841518D01*
X316936Y841956D01*
X316741Y841978D01*
X316558Y842051D01*
X314880Y842238D01*
X231599Y842238D01*
X231599Y867344D01*
X233330Y873803D01*
X236675Y879596D01*
X241403Y884325D01*
X245475Y886676D01*
X246389Y887423D01*
X247322Y888169D01*
X247346Y888207D01*
X247379Y888234D01*
X248004Y889230D01*
X248654Y890238D01*
X248665Y890281D01*
X248688Y890318D01*
X248963Y891463D01*
X249257Y892624D01*
X249253Y892668D01*
X249264Y892711D01*
X249160Y893883D01*
X249068Y895078D01*
X249051Y895118D01*
X249047Y895162D01*
X248573Y896245D01*
X248108Y897343D01*
X248075Y897383D01*
X248061Y897416D01*
X247961Y897526D01*
X247053Y898662D01*
X236999Y908715D01*
X236999Y999284D01*
X249828Y1012112D01*
X249943Y1012273D01*
X250096Y1012395D01*
X250382Y1012839D01*
X250699Y1013173D01*
X250900Y1013604D01*
X251264Y1014111D01*
X251322Y1014299D01*
X251428Y1014464D01*
X251581Y1015068D01*
X251737Y1015405D01*
X251780Y1015785D01*
X251988Y1016462D01*
X251983Y1016659D01*
X252031Y1016849D01*
X251977Y1017555D01*
X252010Y1017850D01*
X251945Y1018152D01*
X251925Y1018922D01*
X251858Y1019106D01*
X251843Y1019303D01*
X251541Y1020014D01*
X251489Y1020255D01*
X251359Y1020473D01*
X251082Y1021234D01*
X250959Y1021388D01*
X250882Y1021568D01*
X249827Y1022888D01*
X236999Y1035715D01*
X236999Y1126284D01*
X248716Y1138000D01*
X544284Y1138000D01*
X556000Y1126284D01*
X556000Y1120000D01*
X556074Y1119548D01*
X556055Y1119092D01*
X556272Y1118342D01*
X556398Y1117571D01*
X556612Y1117167D01*
X556739Y1116728D01*
X557183Y1116087D01*
X557548Y1115396D01*
X557880Y1115081D01*
X558140Y1114705D01*
X558765Y1114239D01*
X559332Y1113701D01*
X559747Y1113508D01*
X560113Y1113235D01*
X560856Y1112993D01*
X561563Y1112663D01*
X562018Y1112613D01*
X562453Y1112470D01*
X563233Y1112477D01*
X564009Y1112390D01*
X564456Y1112487D01*
X564913Y1112491D01*
X566223Y1112870D01*
X566414Y1112911D01*
X566459Y1112938D01*
X566536Y1112960D01*
X579909Y1118500D01*
X620090Y1118500D01*
X633464Y1112960D01*
X633910Y1112856D01*
X634324Y1112663D01*
X635099Y1112577D01*
X635860Y1112398D01*
X636315Y1112441D01*
X636769Y1112390D01*
X637533Y1112556D01*
X638310Y1112629D01*
X638728Y1112814D01*
X639174Y1112911D01*
X639844Y1113311D01*
X640558Y1113628D01*
X640896Y1113938D01*
X641288Y1114172D01*
X641796Y1114764D01*
X642371Y1115292D01*
X642592Y1115692D01*
X642890Y1116040D01*
X643183Y1116764D01*
X643559Y1117447D01*
X643641Y1117897D01*
X643812Y1118321D01*
X643963Y1119678D01*
X643998Y1119869D01*
X643991Y1119921D01*
X643999Y1120000D01*
X643999Y1126284D01*
X655716Y1138000D01*
X951284Y1138000D01*
X963000Y1126284D01*
X963000Y1035715D01*
X950173Y1022888D01*
X950058Y1022728D01*
X949904Y1022605D01*
X949462Y1021918D01*
X949300Y1021748D01*
X949203Y1021539D01*
X948736Y1020890D01*
X948678Y1020702D01*
X948572Y1020536D01*
X948376Y1019760D01*
X948263Y1019517D01*
X948234Y1019258D01*
X948012Y1018538D01*
X948017Y1018341D01*
X947968Y1018151D01*
X948026Y1017399D01*
X947990Y1017072D01*
X948057Y1016761D01*
X948074Y1016078D01*
X948142Y1015893D01*
X948157Y1015697D01*
X948424Y1015068D01*
X948511Y1014667D01*
X948714Y1014326D01*
X948918Y1013766D01*
X949041Y1013613D01*
X949118Y1013432D01*
X949627Y1012794D01*
X949771Y1012553D01*
X949926Y1012420D01*
X950172Y1012112D01*
X963000Y999284D01*
X963000Y990120D01*
X963032Y989926D01*
X963010Y989730D01*
X963230Y988715D01*
X963398Y987691D01*
X963490Y987518D01*
X963531Y987325D01*
X964063Y986433D01*
X964548Y985516D01*
X964691Y985380D01*
X964792Y985212D01*
X965579Y984537D01*
X966332Y983821D01*
X966510Y983738D01*
X966660Y983610D01*
X967624Y983220D01*
X968563Y982783D01*
X968758Y982761D01*
X968941Y982688D01*
X970620Y982500D01*
X1458382Y982500D01*
X1459277Y982647D01*
X1460184Y982717D01*
X1460487Y982845D01*
X1460810Y982898D01*
X1461613Y983322D01*
X1462450Y983678D01*
X1462775Y983937D01*
X1462985Y984048D01*
X1463210Y984285D01*
X1463769Y984732D01*
X1515268Y1036230D01*
X1515798Y1036968D01*
X1516390Y1037658D01*
X1516513Y1037963D01*
X1516704Y1038229D01*
X1516972Y1039098D01*
X1517312Y1039940D01*
X1517358Y1040352D01*
X1517428Y1040580D01*
X1517420Y1040907D01*
X1517499Y1041618D01*
X1517499Y1757380D01*
X1517468Y1757574D01*
X1517489Y1757769D01*
X1517269Y1758785D01*
X1517102Y1759808D01*
X1517010Y1759982D01*
X1516968Y1760174D01*
X1516436Y1761067D01*
X1515951Y1761984D01*
X1515809Y1762119D01*
X1515708Y1762288D01*
X1514922Y1762962D01*
X1514168Y1763679D01*
X1513989Y1763762D01*
X1513840Y1763890D01*
X1512876Y1764279D01*
X1511936Y1764717D01*
X1511741Y1764738D01*
X1511558Y1764812D01*
X1509880Y1764999D01*
X1506216Y1764999D01*
X1494499Y1776716D01*
X1494499Y1809880D01*
X1494468Y1810073D01*
X1494489Y1810265D01*
X1494489Y1810267D01*
X1494489Y1810269D01*
X1494269Y1811285D01*
X1494102Y1812308D01*
X1494010Y1812482D01*
X1493968Y1812674D01*
X1493436Y1813567D01*
X1492951Y1814484D01*
X1492809Y1814619D01*
X1492708Y1814788D01*
X1491921Y1815463D01*
X1491168Y1816179D01*
X1490989Y1816262D01*
X1490840Y1816390D01*
X1489876Y1816779D01*
X1488936Y1817217D01*
X1488741Y1817238D01*
X1488558Y1817312D01*
X1486880Y1817499D01*
X986538Y1817499D01*
X765999Y2038038D01*
X765999Y2273880D01*
X765968Y2274074D01*
X765989Y2274269D01*
X765769Y2275285D01*
X765602Y2276308D01*
X765510Y2276482D01*
X765468Y2276674D01*
X764936Y2277567D01*
X764451Y2278484D01*
X764309Y2278619D01*
X764208Y2278788D01*
X763421Y2279463D01*
X762668Y2280179D01*
X762489Y2280262D01*
X762340Y2280390D01*
X761376Y2280779D01*
X760436Y2281217D01*
X760241Y2281238D01*
X760058Y2281312D01*
X758380Y2281499D01*
X757716Y2281499D01*
X745999Y2293216D01*
X745999Y2419784D01*
X757716Y2431500D01*
X812799Y2431500D01*
X813927Y2431685D01*
X815062Y2431844D01*
X815158Y2431887D01*
X815228Y2431898D01*
X815435Y2432008D01*
X816609Y2432521D01*
X821931Y2435593D01*
X822277Y2435877D01*
X822673Y2436082D01*
X823222Y2436650D01*
X823835Y2437152D01*
X824073Y2437531D01*
X824383Y2437852D01*
X824723Y2438565D01*
X825144Y2439236D01*
X825248Y2439670D01*
X825440Y2440074D01*
X825535Y2440860D01*
X825720Y2441628D01*
X825680Y2442073D01*
X825734Y2442517D01*
X825573Y2443292D01*
X825503Y2444080D01*
X825324Y2444489D01*
X825233Y2444926D01*
X824586Y2446176D01*
X824517Y2446334D01*
X824487Y2446367D01*
X824456Y2446426D01*
X823689Y2447574D01*
X819325Y2458110D01*
X817706Y2466250D01*
X873868Y2466250D01*
X874062Y2466282D01*
X874257Y2466260D01*
X874864Y2466392D01*
X876132Y2466250D01*
X932294Y2466250D01*
X930675Y2458110D01*
X926311Y2447573D01*
X923490Y2443353D01*
X922994Y2442263D01*
X922489Y2441176D01*
X922485Y2441144D01*
X922471Y2441113D01*
X922347Y2439901D01*
X922216Y2438730D01*
X922223Y2438699D01*
X922219Y2438665D01*
X922486Y2437485D01*
X922737Y2436325D01*
X922754Y2436297D01*
X922761Y2436265D01*
X923383Y2435242D01*
X923997Y2434212D01*
X924022Y2434190D01*
X924039Y2434162D01*
X924946Y2433398D01*
X925865Y2432610D01*
X925897Y2432598D01*
X925921Y2432577D01*
X927027Y2432140D01*
X928147Y2431688D01*
X928186Y2431683D01*
X928210Y2431673D01*
X928327Y2431668D01*
X929825Y2431500D01*
X1014284Y2431500D01*
X1026000Y2419784D01*
X1026000Y2293215D01*
X1018232Y2285448D01*
X1017703Y2284711D01*
X1017110Y2284020D01*
X1016987Y2283715D01*
X1016796Y2283449D01*
X1016528Y2282582D01*
X1016188Y2281738D01*
X1016142Y2281325D01*
X1016071Y2281098D01*
X1016080Y2280771D01*
X1016000Y2280060D01*
X1016000Y2008118D01*
X1016147Y2007223D01*
X1016217Y2006315D01*
X1016345Y2006013D01*
X1016398Y2005690D01*
X1016822Y2004887D01*
X1017178Y2004050D01*
X1017437Y2003725D01*
X1017548Y2003514D01*
X1017785Y2003290D01*
X1017845Y2003214D01*
X1017930Y2003072D01*
X1018022Y2002993D01*
X1018232Y2002730D01*
X1086230Y1934732D01*
X1086968Y1934202D01*
X1087658Y1933610D01*
X1087963Y1933487D01*
X1088229Y1933296D01*
X1089098Y1933028D01*
X1089940Y1932688D01*
X1090352Y1932642D01*
X1090580Y1932571D01*
X1090907Y1932580D01*
X1091618Y1932500D01*
X1303142Y1932500D01*
X1303849Y1932616D01*
X1304564Y1932634D01*
X1305055Y1932813D01*
X1305571Y1932898D01*
X1306203Y1933232D01*
X1306876Y1933478D01*
X1307284Y1933804D01*
X1307746Y1934048D01*
X1308239Y1934568D01*
X1308798Y1935014D01*
X1309080Y1935453D01*
X1309441Y1935832D01*
X1309743Y1936483D01*
X1310130Y1937083D01*
X1310258Y1937590D01*
X1310479Y1938063D01*
X1310558Y1938775D01*
X1310734Y1939469D01*
X1310694Y1939990D01*
X1310752Y1940509D01*
X1310600Y1941208D01*
X1310545Y1941923D01*
X1310341Y1942404D01*
X1310231Y1942914D01*
X1309864Y1943529D01*
X1309584Y1944188D01*
X1309137Y1944748D01*
X1308970Y1945028D01*
X1308790Y1945182D01*
X1308530Y1945508D01*
X1283769Y1970268D01*
X1283032Y1970798D01*
X1282342Y1971390D01*
X1282037Y1971513D01*
X1281771Y1971704D01*
X1280902Y1971972D01*
X1280060Y1972312D01*
X1279648Y1972358D01*
X1279419Y1972428D01*
X1279093Y1972420D01*
X1278382Y1972499D01*
X1253253Y1972499D01*
X1222499Y2003253D01*
X1222499Y2046746D01*
X1253253Y2077500D01*
X1296746Y2077500D01*
X1327500Y2046746D01*
X1327500Y2021618D01*
X1327647Y2020723D01*
X1327717Y2019815D01*
X1327845Y2019513D01*
X1327898Y2019190D01*
X1328322Y2018387D01*
X1328678Y2017550D01*
X1328937Y2017225D01*
X1329048Y2017014D01*
X1329285Y2016790D01*
X1329732Y2016230D01*
X1361230Y1984732D01*
X1361968Y1984202D01*
X1362658Y1983610D01*
X1362963Y1983487D01*
X1363229Y1983296D01*
X1364098Y1983028D01*
X1364940Y1982688D01*
X1365352Y1982642D01*
X1365580Y1982571D01*
X1365907Y1982580D01*
X1366618Y1982500D01*
X1394506Y1982500D01*
X1395685Y1982693D01*
X1396873Y1982877D01*
X1396902Y1982893D01*
X1396934Y1982898D01*
X1397980Y1983451D01*
X1399058Y1984009D01*
X1399081Y1984033D01*
X1399110Y1984048D01*
X1399939Y1984921D01*
X1400768Y1985778D01*
X1400782Y1985808D01*
X1400805Y1985832D01*
X1401314Y1986927D01*
X1401825Y1988001D01*
X1401829Y1988034D01*
X1401843Y1988063D01*
X1401974Y1989245D01*
X1402118Y1990444D01*
X1402112Y1990476D01*
X1402115Y1990509D01*
X1401863Y1991675D01*
X1401618Y1992853D01*
X1401600Y1992888D01*
X1401594Y1992914D01*
X1401535Y1993014D01*
X1400841Y1994353D01*
X1398689Y1997574D01*
X1394325Y2008110D01*
X1392706Y2016250D01*
X1448868Y2016250D01*
X1449062Y2016282D01*
X1449257Y2016260D01*
X1449864Y2016392D01*
X1451132Y2016250D01*
X1483298Y2016250D01*
X1484473Y2016442D01*
X1485644Y2016620D01*
X1485683Y2016640D01*
X1485726Y2016648D01*
X1486777Y2017203D01*
X1487832Y2017746D01*
X1487863Y2017778D01*
X1487902Y2017798D01*
X1488729Y2018669D01*
X1489547Y2019511D01*
X1489566Y2019550D01*
X1489597Y2019582D01*
X1490102Y2020668D01*
X1490611Y2021730D01*
X1490616Y2021774D01*
X1490634Y2021813D01*
X1490765Y2022984D01*
X1490911Y2024172D01*
X1490903Y2024224D01*
X1490907Y2024259D01*
X1490877Y2024399D01*
X1490658Y2025842D01*
X1490052Y2028103D01*
X1489872Y2028500D01*
X1489780Y2028924D01*
X1489369Y2029613D01*
X1489039Y2030346D01*
X1488743Y2030664D01*
X1488520Y2031038D01*
X1487910Y2031561D01*
X1487364Y2032148D01*
X1486983Y2032356D01*
X1486652Y2032640D01*
X1485907Y2032941D01*
X1485202Y2033324D01*
X1484773Y2033399D01*
X1484370Y2033562D01*
X1482920Y2033724D01*
X1482778Y2033749D01*
X1482744Y2033743D01*
X1482692Y2033749D01*
X1458749Y2033749D01*
X1458749Y2098868D01*
X1458718Y2099062D01*
X1458739Y2099257D01*
X1458608Y2099864D01*
X1458749Y2101132D01*
X1458749Y2157294D01*
X1466889Y2155675D01*
X1477426Y2151311D01*
X1486909Y2144974D01*
X1494974Y2136909D01*
X1495082Y2136747D01*
X1495725Y2136059D01*
X1496313Y2135323D01*
X1496560Y2135163D01*
X1496762Y2134948D01*
X1497592Y2134499D01*
X1498382Y2133991D01*
X1498667Y2133919D01*
X1498926Y2133778D01*
X1499855Y2133618D01*
X1500768Y2133387D01*
X1501062Y2133410D01*
X1501351Y2133360D01*
X1502281Y2133503D01*
X1503221Y2133576D01*
X1503493Y2133691D01*
X1503783Y2133736D01*
X1504619Y2134168D01*
X1505487Y2134537D01*
X1505776Y2134768D01*
X1505968Y2134867D01*
X1506199Y2135106D01*
X1506806Y2135591D01*
X1507268Y2136053D01*
X1507798Y2136791D01*
X1508390Y2137480D01*
X1508513Y2137785D01*
X1508704Y2138051D01*
X1508972Y2138920D01*
X1509312Y2139762D01*
X1509358Y2140174D01*
X1509428Y2140403D01*
X1509420Y2140729D01*
X1509499Y2141440D01*
X1509499Y2291382D01*
X1509353Y2292277D01*
X1509283Y2293184D01*
X1509155Y2293487D01*
X1509102Y2293810D01*
X1508678Y2294613D01*
X1508322Y2295450D01*
X1508063Y2295775D01*
X1507951Y2295985D01*
X1507715Y2296210D01*
X1507268Y2296769D01*
X1483769Y2320268D01*
X1483031Y2320798D01*
X1482342Y2321390D01*
X1482037Y2321513D01*
X1481771Y2321704D01*
X1480902Y2321972D01*
X1480060Y2322312D01*
X1479648Y2322358D01*
X1479419Y2322428D01*
X1479093Y2322420D01*
X1478382Y2322499D01*
X1453253Y2322499D01*
X1422499Y2353253D01*
X1422499Y2396746D01*
X1453253Y2427500D01*
X1496746Y2427500D01*
X1519612Y2404634D01*
X1519773Y2404519D01*
X1519895Y2404366D01*
X1520765Y2403806D01*
X1521611Y2403198D01*
X1521799Y2403140D01*
X1521964Y2403034D01*
X1522967Y2402780D01*
X1523962Y2402474D01*
X1524159Y2402479D01*
X1524349Y2402431D01*
X1525387Y2402510D01*
X1526422Y2402537D01*
X1526606Y2402604D01*
X1526803Y2402619D01*
X1527761Y2403025D01*
X1528734Y2403380D01*
X1528888Y2403503D01*
X1529068Y2403580D01*
X1530388Y2404634D01*
X1553253Y2427500D01*
X1598820Y2427500D01*
X1599527Y2427616D01*
X1600243Y2427634D01*
X1600734Y2427814D01*
X1601248Y2427898D01*
X1601881Y2428233D01*
X1602555Y2428478D01*
X1602963Y2428804D01*
X1603424Y2429048D01*
X1603918Y2429568D01*
X1604477Y2430015D01*
X1604759Y2430453D01*
X1605119Y2430832D01*
X1605421Y2431483D01*
X1605808Y2432084D01*
X1605936Y2432590D01*
X1606157Y2433063D01*
X1606236Y2433775D01*
X1606412Y2434470D01*
X1606372Y2434990D01*
X1606429Y2435509D01*
X1606278Y2436209D01*
X1606223Y2436923D01*
X1606019Y2437404D01*
X1605908Y2437914D01*
X1605542Y2438529D01*
X1605262Y2439189D01*
X1604999Y2439517D01*
X1604999Y2576284D01*
X1616716Y2588000D01*
X1693284Y2588000D01*
X1705000Y2576284D01*
X1705000Y2551823D01*
X1705193Y2550644D01*
X1705377Y2549457D01*
X1705393Y2549427D01*
X1705398Y2549395D01*
X1705951Y2548349D01*
X1706509Y2547272D01*
X1706533Y2547248D01*
X1706548Y2547219D01*
X1707411Y2546400D01*
X1708278Y2545561D01*
X1708308Y2545547D01*
X1708332Y2545524D01*
X1709412Y2545022D01*
X1710501Y2544504D01*
X1710534Y2544500D01*
X1710563Y2544487D01*
X1711747Y2544354D01*
X1712944Y2544211D01*
X1712977Y2544218D01*
X1713009Y2544214D01*
X1714168Y2544465D01*
X1715353Y2544711D01*
X1715389Y2544729D01*
X1715414Y2544735D01*
X1715512Y2544793D01*
X1716853Y2545488D01*
X1722573Y2549310D01*
X1733110Y2553675D01*
X1741250Y2555294D01*
X1741250Y2499132D01*
X1741282Y2498938D01*
X1741260Y2498743D01*
X1741392Y2498136D01*
X1741250Y2496868D01*
X1741250Y2440706D01*
X1733110Y2442325D01*
X1722573Y2446689D01*
X1716853Y2450512D01*
X1715763Y2451008D01*
X1714676Y2451513D01*
X1714644Y2451517D01*
X1714613Y2451531D01*
X1713401Y2451655D01*
X1712230Y2451786D01*
X1712199Y2451779D01*
X1712165Y2451783D01*
X1710981Y2451515D01*
X1709825Y2451265D01*
X1709797Y2451248D01*
X1709765Y2451241D01*
X1708725Y2450609D01*
X1707712Y2450005D01*
X1707691Y2449980D01*
X1707662Y2449963D01*
X1706889Y2449045D01*
X1706110Y2448137D01*
X1706098Y2448105D01*
X1706077Y2448081D01*
X1705640Y2446975D01*
X1705188Y2445855D01*
X1705183Y2445816D01*
X1705173Y2445792D01*
X1705168Y2445675D01*
X1705000Y2444177D01*
X1705000Y2439715D01*
X1700153Y2434869D01*
X1700039Y2434709D01*
X1699885Y2434586D01*
X1699323Y2433713D01*
X1698717Y2432871D01*
X1698659Y2432683D01*
X1698553Y2432517D01*
X1698298Y2431512D01*
X1697993Y2430519D01*
X1697998Y2430322D01*
X1697949Y2430132D01*
X1698029Y2429098D01*
X1698055Y2428059D01*
X1698123Y2427874D01*
X1698138Y2427678D01*
X1698543Y2426724D01*
X1698899Y2425747D01*
X1699022Y2425593D01*
X1699099Y2425413D01*
X1700153Y2424093D01*
X1727500Y2396746D01*
X1727500Y2366858D01*
X1727616Y2366151D01*
X1727634Y2365435D01*
X1727813Y2364945D01*
X1727898Y2364429D01*
X1728232Y2363797D01*
X1728478Y2363124D01*
X1728804Y2362715D01*
X1729048Y2362254D01*
X1729568Y2361760D01*
X1730014Y2361202D01*
X1730453Y2360919D01*
X1730832Y2360559D01*
X1731483Y2360256D01*
X1732083Y2359869D01*
X1732590Y2359741D01*
X1733063Y2359521D01*
X1733775Y2359442D01*
X1734469Y2359266D01*
X1734990Y2359306D01*
X1735509Y2359248D01*
X1736208Y2359399D01*
X1736923Y2359454D01*
X1737404Y2359659D01*
X1737914Y2359769D01*
X1738529Y2360136D01*
X1739188Y2360415D01*
X1739748Y2360863D01*
X1740028Y2361029D01*
X1740182Y2361210D01*
X1740508Y2361470D01*
X1765268Y2386230D01*
X1786538Y2407500D01*
X2773902Y2407500D01*
X2775057Y2407689D01*
X2776206Y2407857D01*
X2776265Y2407887D01*
X2776331Y2407898D01*
X2777363Y2408444D01*
X2778401Y2408970D01*
X2778447Y2409018D01*
X2778506Y2409048D01*
X2779313Y2409897D01*
X2780126Y2410725D01*
X2780164Y2410793D01*
X2780201Y2410832D01*
X2780284Y2411011D01*
X2780942Y2412204D01*
X2792245Y2439493D01*
X2819307Y2466555D01*
X2854664Y2481200D01*
X3045335Y2481200D01*
X3080693Y2466555D01*
X3107755Y2439493D01*
X3122400Y2404135D01*
X3122400Y2365864D01*
X3107755Y2330507D01*
X3080693Y2303445D01*
X3045335Y2288799D01*
X2854664Y2288799D01*
X2819307Y2303445D01*
X2792245Y2330507D01*
X2789226Y2337796D01*
X2788611Y2338788D01*
X2788015Y2339788D01*
X2787965Y2339831D01*
X2787930Y2339887D01*
X2787034Y2340628D01*
X2786147Y2341390D01*
X2786085Y2341415D01*
X2786034Y2341457D01*
X2784948Y2341874D01*
X2783865Y2342312D01*
X2783787Y2342321D01*
X2783737Y2342340D01*
X2783540Y2342348D01*
X2782187Y2342499D01*
X2646858Y2342499D01*
X2646151Y2342384D01*
X2645435Y2342365D01*
X2644945Y2342186D01*
X2644429Y2342102D01*
X2643797Y2341768D01*
X2643124Y2341522D01*
X2642715Y2341195D01*
X2642254Y2340951D01*
X2641760Y2340432D01*
X2641202Y2339985D01*
X2640919Y2339547D01*
X2640559Y2339168D01*
X2640256Y2338517D01*
X2639869Y2337916D01*
X2639741Y2337410D01*
X2639521Y2336936D01*
X2639442Y2336225D01*
X2639266Y2335531D01*
X2639306Y2335009D01*
X2639248Y2334491D01*
X2639399Y2333792D01*
X2639454Y2333077D01*
X2639658Y2332596D01*
X2639769Y2332086D01*
X2640136Y2331471D01*
X2640415Y2330812D01*
X2640863Y2330252D01*
X2641029Y2329972D01*
X2641210Y2329818D01*
X2641470Y2329492D01*
X2783469Y2187493D01*
X2783630Y2187378D01*
X2783752Y2187224D01*
X2784622Y2186664D01*
X2785468Y2186056D01*
X2785656Y2185998D01*
X2785821Y2185892D01*
X2786824Y2185638D01*
X2787819Y2185332D01*
X2788016Y2185337D01*
X2788207Y2185289D01*
X2789244Y2185368D01*
X2790279Y2185395D01*
X2790463Y2185462D01*
X2790660Y2185477D01*
X2791618Y2185883D01*
X2792591Y2186238D01*
X2792745Y2186361D01*
X2792926Y2186438D01*
X2794245Y2187493D01*
X2819307Y2212555D01*
X2854664Y2227200D01*
X3045335Y2227200D01*
X3080693Y2212555D01*
X3107755Y2185493D01*
X3122400Y2150135D01*
X3122400Y2111864D01*
X3107755Y2076507D01*
X3080693Y2049445D01*
X3045335Y2034799D01*
X2854664Y2034799D01*
X2818036Y2049972D01*
X2817590Y2050077D01*
X2817176Y2050269D01*
X2816401Y2050356D01*
X2815640Y2050534D01*
X2815185Y2050491D01*
X2814730Y2050542D01*
X2813967Y2050377D01*
X2813190Y2050303D01*
X2812772Y2050118D01*
X2812325Y2050021D01*
X2811655Y2049622D01*
X2810941Y2049304D01*
X2810604Y2048994D01*
X2810212Y2048761D01*
X2809704Y2048168D01*
X2809128Y2047640D01*
X2808908Y2047240D01*
X2808610Y2046893D01*
X2808317Y2046167D01*
X2807941Y2045485D01*
X2807859Y2045036D01*
X2807688Y2044611D01*
X2807536Y2043255D01*
X2807502Y2043063D01*
X2807509Y2043012D01*
X2807500Y2042933D01*
X2807500Y1993618D01*
X2807647Y1992723D01*
X2807717Y1991815D01*
X2807845Y1991513D01*
X2807898Y1991190D01*
X2808323Y1990386D01*
X2808678Y1989550D01*
X2808937Y1989225D01*
X2809048Y1989014D01*
X2809285Y1988790D01*
X2809732Y1988230D01*
X2829920Y1968042D01*
X2830872Y1967358D01*
X2831802Y1966665D01*
X2831865Y1966644D01*
X2831919Y1966606D01*
X2833040Y1966260D01*
X2834141Y1965900D01*
X2834207Y1965901D01*
X2834270Y1965881D01*
X2835436Y1965911D01*
X2836602Y1965921D01*
X2836678Y1965943D01*
X2836730Y1965944D01*
X2836913Y1966011D01*
X2838224Y1966390D01*
X2854664Y1973200D01*
X3045335Y1973200D01*
X3080693Y1958555D01*
X3107755Y1931493D01*
X3122400Y1896135D01*
X3122400Y1857864D01*
X3107755Y1822507D01*
X3080693Y1795445D01*
X3045335Y1780799D01*
X2854664Y1780799D01*
X2819307Y1795445D01*
X2792245Y1822507D01*
X2777599Y1857864D01*
X2777599Y1896135D01*
X2785113Y1914273D01*
X2785380Y1915412D01*
X2785665Y1916538D01*
X2785660Y1916604D01*
X2785675Y1916668D01*
X2785566Y1917823D01*
X2785476Y1918992D01*
X2785450Y1919053D01*
X2785444Y1919118D01*
X2784970Y1920185D01*
X2784515Y1921257D01*
X2784466Y1921318D01*
X2784445Y1921367D01*
X2784311Y1921513D01*
X2783461Y1922577D01*
X2770508Y1935530D01*
X2769926Y1935948D01*
X2769407Y1936441D01*
X2768933Y1936661D01*
X2768509Y1936966D01*
X2767824Y1937177D01*
X2767176Y1937479D01*
X2766658Y1937537D01*
X2766158Y1937691D01*
X2765441Y1937672D01*
X2764730Y1937752D01*
X2764219Y1937641D01*
X2763698Y1937628D01*
X2763025Y1937382D01*
X2762325Y1937231D01*
X2761877Y1936963D01*
X2761386Y1936784D01*
X2760826Y1936337D01*
X2760212Y1935970D01*
X2759872Y1935574D01*
X2759464Y1935248D01*
X2759077Y1934647D01*
X2758610Y1934102D01*
X2758414Y1933617D01*
X2758132Y1933178D01*
X2757956Y1932485D01*
X2757688Y1931821D01*
X2757608Y1931109D01*
X2757528Y1930793D01*
X2757546Y1930555D01*
X2757500Y1930142D01*
X2757500Y1789618D01*
X2757647Y1788723D01*
X2757717Y1787815D01*
X2757845Y1787513D01*
X2757898Y1787190D01*
X2758322Y1786387D01*
X2758678Y1785550D01*
X2758937Y1785225D01*
X2759048Y1785014D01*
X2759285Y1784790D01*
X2759732Y1784230D01*
X2829920Y1714042D01*
X2830876Y1713355D01*
X2831802Y1712665D01*
X2831864Y1712645D01*
X2831918Y1712606D01*
X2833042Y1712259D01*
X2834141Y1711900D01*
X2834206Y1711901D01*
X2834270Y1711881D01*
X2835436Y1711911D01*
X2836601Y1711921D01*
X2836678Y1711943D01*
X2836730Y1711944D01*
X2836913Y1712011D01*
X2838224Y1712390D01*
X2854664Y1719200D01*
X3045335Y1719200D01*
X3080693Y1704555D01*
X3107755Y1677493D01*
X3122400Y1642135D01*
X3122400Y1603864D01*
X3107755Y1568507D01*
X3080693Y1541445D01*
X3045335Y1526799D01*
X2854664Y1526799D01*
X2819307Y1541445D01*
X2792245Y1568507D01*
X2777599Y1603864D01*
X2777599Y1642135D01*
X2785112Y1660273D01*
X2785379Y1661410D01*
X2785664Y1662538D01*
X2785659Y1662604D01*
X2785674Y1662669D01*
X2785566Y1663825D01*
X2785476Y1664992D01*
X2785450Y1665053D01*
X2785444Y1665119D01*
X2784968Y1666188D01*
X2784515Y1667257D01*
X2784466Y1667318D01*
X2784444Y1667367D01*
X2784311Y1667513D01*
X2783461Y1668577D01*
X2720508Y1731530D01*
X2719926Y1731948D01*
X2719407Y1732441D01*
X2719200Y1732538D01*
X2719159Y1732573D01*
X2718927Y1732666D01*
X2718509Y1732966D01*
X2717824Y1733178D01*
X2717176Y1733479D01*
X2716658Y1733537D01*
X2716158Y1733691D01*
X2715441Y1733672D01*
X2714730Y1733752D01*
X2714221Y1733641D01*
X2713698Y1733628D01*
X2713024Y1733382D01*
X2712325Y1733231D01*
X2711877Y1732963D01*
X2711386Y1732784D01*
X2710826Y1732337D01*
X2710212Y1731970D01*
X2709872Y1731574D01*
X2709464Y1731248D01*
X2709077Y1730647D01*
X2708840Y1730370D01*
X2708821Y1730350D01*
X2708819Y1730346D01*
X2708610Y1730102D01*
X2708414Y1729617D01*
X2708132Y1729178D01*
X2707959Y1728498D01*
X2707783Y1728119D01*
X2707773Y1728033D01*
X2707688Y1727821D01*
X2707608Y1727109D01*
X2707528Y1726793D01*
X2707546Y1726555D01*
X2707500Y1726142D01*
X2707500Y1591618D01*
X2707647Y1590723D01*
X2707717Y1589815D01*
X2707845Y1589513D01*
X2707898Y1589190D01*
X2708322Y1588387D01*
X2708678Y1587550D01*
X2708937Y1587225D01*
X2709048Y1587014D01*
X2709285Y1586790D01*
X2709732Y1586230D01*
X2834163Y1461799D01*
X2835115Y1461115D01*
X2836044Y1460423D01*
X2836107Y1460402D01*
X2836161Y1460363D01*
X2837282Y1460018D01*
X2838383Y1459658D01*
X2838449Y1459658D01*
X2838513Y1459639D01*
X2839679Y1459669D01*
X2840844Y1459678D01*
X2840920Y1459701D01*
X2840973Y1459702D01*
X2841156Y1459768D01*
X2842467Y1460148D01*
X2854664Y1465200D01*
X3045335Y1465200D01*
X3080693Y1450555D01*
X3107755Y1423493D01*
X3122400Y1388135D01*
X3122400Y1349864D01*
X3107755Y1314507D01*
X3080693Y1287445D01*
X3045335Y1272799D01*
X2854664Y1272799D01*
X2819307Y1287445D01*
X2792245Y1314507D01*
X2777599Y1349864D01*
X2777599Y1388135D01*
X2786870Y1410516D01*
X2787137Y1411653D01*
X2787422Y1412781D01*
X2787417Y1412847D01*
X2787432Y1412912D01*
X2787323Y1414066D01*
X2787233Y1415234D01*
X2787208Y1415296D01*
X2787201Y1415361D01*
X2786729Y1416424D01*
X2786273Y1417500D01*
X2786223Y1417561D01*
X2786202Y1417610D01*
X2786068Y1417755D01*
X2785448Y1418531D01*
X2785422Y1418576D01*
X2785393Y1418601D01*
X2785218Y1418819D01*
X2670508Y1533530D01*
X2669926Y1533948D01*
X2669407Y1534441D01*
X2668933Y1534661D01*
X2668509Y1534966D01*
X2667824Y1535177D01*
X2667176Y1535479D01*
X2666658Y1535537D01*
X2666158Y1535691D01*
X2665441Y1535672D01*
X2664730Y1535752D01*
X2664219Y1535641D01*
X2663698Y1535628D01*
X2663025Y1535382D01*
X2662325Y1535231D01*
X2661877Y1534963D01*
X2661386Y1534784D01*
X2660826Y1534337D01*
X2660212Y1533970D01*
X2659872Y1533574D01*
X2659464Y1533248D01*
X2659077Y1532647D01*
X2658610Y1532102D01*
X2658414Y1531617D01*
X2658132Y1531178D01*
X2657956Y1530485D01*
X2657688Y1529821D01*
X2657608Y1529109D01*
X2657528Y1528793D01*
X2657546Y1528555D01*
X2657500Y1528142D01*
X2657500Y1366618D01*
X2657647Y1365723D01*
X2657717Y1364815D01*
X2657845Y1364513D01*
X2657898Y1364190D01*
X2658322Y1363387D01*
X2658678Y1362550D01*
X2658937Y1362225D01*
X2659048Y1362014D01*
X2659285Y1361790D01*
X2659732Y1361230D01*
X2819313Y1201648D01*
X2820265Y1200964D01*
X2821195Y1200272D01*
X2821258Y1200251D01*
X2821312Y1200212D01*
X2822433Y1199867D01*
X2823534Y1199507D01*
X2823600Y1199508D01*
X2823663Y1199488D01*
X2824829Y1199518D01*
X2825995Y1199528D01*
X2826071Y1199550D01*
X2826123Y1199551D01*
X2826306Y1199618D01*
X2827617Y1199997D01*
X2854664Y1211200D01*
X3045335Y1211200D01*
X3080693Y1196555D01*
X3107755Y1169493D01*
X3122400Y1134135D01*
X3122400Y1095864D01*
X3107755Y1060507D01*
X3080693Y1033445D01*
X3045335Y1018799D01*
X2854664Y1018799D01*
X2819307Y1033445D01*
X2792245Y1060507D01*
X2777599Y1095864D01*
X2777599Y1134135D01*
X2780719Y1141666D01*
X2780986Y1142805D01*
X2781271Y1143932D01*
X2781266Y1143998D01*
X2781281Y1144062D01*
X2781173Y1145217D01*
X2781083Y1146385D01*
X2781057Y1146446D01*
X2781051Y1146512D01*
X2780577Y1147578D01*
X2780122Y1148651D01*
X2780073Y1148712D01*
X2780051Y1148761D01*
X2779918Y1148906D01*
X2779068Y1149970D01*
X2620508Y1308530D01*
X2619926Y1308948D01*
X2619407Y1309441D01*
X2618933Y1309661D01*
X2618509Y1309966D01*
X2617824Y1310177D01*
X2617176Y1310479D01*
X2616658Y1310537D01*
X2616158Y1310691D01*
X2615441Y1310672D01*
X2614730Y1310752D01*
X2614219Y1310641D01*
X2613698Y1310628D01*
X2613025Y1310382D01*
X2612325Y1310231D01*
X2611877Y1309963D01*
X2611386Y1309784D01*
X2610826Y1309337D01*
X2610212Y1308970D01*
X2609872Y1308574D01*
X2609464Y1308248D01*
X2609077Y1307647D01*
X2608610Y1307102D01*
X2608414Y1306617D01*
X2608132Y1306178D01*
X2607956Y1305485D01*
X2607688Y1304821D01*
X2607608Y1304109D01*
X2607528Y1303793D01*
X2607546Y1303555D01*
X2607500Y1303142D01*
X2607500Y1191618D01*
X2607647Y1190723D01*
X2607717Y1189815D01*
X2607845Y1189513D01*
X2607898Y1189190D01*
X2608322Y1188387D01*
X2608678Y1187550D01*
X2608937Y1187225D01*
X2609048Y1187014D01*
X2609285Y1186790D01*
X2609732Y1186230D01*
X2839820Y956143D01*
X2840772Y955458D01*
X2841701Y954766D01*
X2841764Y954745D01*
X2841818Y954706D01*
X2842939Y954361D01*
X2844040Y954001D01*
X2844106Y954002D01*
X2844170Y953982D01*
X2845336Y954012D01*
X2846501Y954022D01*
X2846577Y954044D01*
X2846630Y954045D01*
X2846813Y954112D01*
X2848123Y954491D01*
X2854664Y957200D01*
X3045335Y957200D01*
X3080693Y942555D01*
X3107755Y915493D01*
X3122400Y880135D01*
X3122400Y841864D01*
X3107755Y806507D01*
X3080693Y779445D01*
X3045335Y764799D01*
X2854664Y764799D01*
X2819307Y779445D01*
X2792245Y806507D01*
X2777599Y841864D01*
X2777599Y880135D01*
X2789213Y908173D01*
X2789302Y908551D01*
X2789387Y908733D01*
X2789425Y909076D01*
X2789480Y909310D01*
X2789765Y910438D01*
X2789760Y910504D01*
X2789775Y910568D01*
X2789666Y911725D01*
X2789577Y912891D01*
X2789551Y912953D01*
X2789544Y913018D01*
X2789069Y914088D01*
X2788616Y915157D01*
X2788567Y915218D01*
X2788545Y915267D01*
X2788412Y915412D01*
X2787561Y916476D01*
X2570508Y1133530D01*
X2569926Y1133948D01*
X2569407Y1134441D01*
X2568933Y1134661D01*
X2568509Y1134966D01*
X2567824Y1135177D01*
X2567176Y1135479D01*
X2566658Y1135537D01*
X2566158Y1135691D01*
X2565441Y1135672D01*
X2564730Y1135752D01*
X2564219Y1135641D01*
X2563698Y1135628D01*
X2563025Y1135382D01*
X2562325Y1135231D01*
X2561877Y1134963D01*
X2561386Y1134784D01*
X2560826Y1134337D01*
X2560212Y1133970D01*
X2559872Y1133574D01*
X2559464Y1133248D01*
X2559077Y1132647D01*
X2558610Y1132102D01*
X2558414Y1131617D01*
X2558132Y1131178D01*
X2557956Y1130485D01*
X2557688Y1129821D01*
X2557608Y1129109D01*
X2557528Y1128793D01*
X2557546Y1128555D01*
X2557500Y1128142D01*
X2557500Y980618D01*
X2557647Y979723D01*
X2557717Y978815D01*
X2557845Y978513D01*
X2557898Y978190D01*
X2558322Y977387D01*
X2558678Y976550D01*
X2558937Y976225D01*
X2559048Y976014D01*
X2559285Y975790D01*
X2559732Y975230D01*
X2850745Y684217D01*
X2851697Y683533D01*
X2851719Y683516D01*
X2851950Y683318D01*
X2852026Y683287D01*
X2852627Y682840D01*
X2852690Y682819D01*
X2852744Y682780D01*
X2853865Y682435D01*
X2854966Y682075D01*
X2855032Y682076D01*
X2855095Y682056D01*
X2856261Y682086D01*
X2857427Y682096D01*
X2857503Y682118D01*
X2857555Y682119D01*
X2857738Y682186D01*
X2859049Y682565D01*
X2894864Y697400D01*
X2933135Y697400D01*
X2968493Y682755D01*
X2995555Y655693D01*
X3010200Y620335D01*
X3010200Y429664D01*
X2995555Y394307D01*
X2968493Y367245D01*
X2933135Y352599D01*
X2894864Y352599D01*
X2859507Y367245D01*
X2832445Y394307D01*
X2817799Y429664D01*
X2817799Y621205D01*
X2817839Y621363D01*
X2817835Y621425D01*
X2817849Y621484D01*
X2817741Y622647D01*
X2817651Y623817D01*
X2817627Y623873D01*
X2817621Y623934D01*
X2817146Y625007D01*
X2816690Y626083D01*
X2816645Y626139D01*
X2816625Y626184D01*
X2816498Y626323D01*
X2815636Y627402D01*
X2705508Y737530D01*
X2704926Y737948D01*
X2704407Y738441D01*
X2703933Y738661D01*
X2703509Y738966D01*
X2702824Y739177D01*
X2702176Y739479D01*
X2701658Y739537D01*
X2701158Y739691D01*
X2700441Y739672D01*
X2699730Y739752D01*
X2699219Y739641D01*
X2698698Y739628D01*
X2698025Y739382D01*
X2697325Y739231D01*
X2696877Y738963D01*
X2696386Y738784D01*
X2695826Y738337D01*
X2695212Y737970D01*
X2694872Y737574D01*
X2694464Y737248D01*
X2694077Y736647D01*
X2693610Y736102D01*
X2693414Y735617D01*
X2693132Y735178D01*
X2692956Y734485D01*
X2692688Y733821D01*
X2692608Y733109D01*
X2692528Y732793D01*
X2692546Y732555D01*
X2692500Y732142D01*
X2692500Y696955D01*
X2692689Y695800D01*
X2692857Y694651D01*
X2692887Y694592D01*
X2692898Y694527D01*
X2693444Y693495D01*
X2693970Y692457D01*
X2694018Y692410D01*
X2694048Y692352D01*
X2694897Y691545D01*
X2695725Y690731D01*
X2695793Y690693D01*
X2695832Y690657D01*
X2696012Y690573D01*
X2697204Y689916D01*
X2714493Y682755D01*
X2741555Y655693D01*
X2756200Y620335D01*
X2756200Y429664D01*
X2741555Y394307D01*
X2714493Y367245D01*
X2679135Y352599D01*
X2640864Y352599D01*
X2605507Y367245D01*
X2578445Y394307D01*
X2563799Y429664D01*
X2563799Y620335D01*
X2578445Y655693D01*
X2605507Y682755D01*
X2622796Y689916D01*
X2623782Y690527D01*
X2624788Y691127D01*
X2624831Y691178D01*
X2624887Y691213D01*
X2625622Y692099D01*
X2626390Y692995D01*
X2626415Y693057D01*
X2626457Y693108D01*
X2626874Y694193D01*
X2627312Y695277D01*
X2627321Y695355D01*
X2627340Y695405D01*
X2627348Y695602D01*
X2627499Y696955D01*
X2627499Y733382D01*
X2627353Y734277D01*
X2627283Y735184D01*
X2627155Y735487D01*
X2627102Y735810D01*
X2626678Y736613D01*
X2626322Y737450D01*
X2626063Y737775D01*
X2625951Y737985D01*
X2625715Y738210D01*
X2625268Y738769D01*
X2442499Y921538D01*
X2442499Y1631382D01*
X2442353Y1632277D01*
X2442283Y1633185D01*
X2442155Y1633488D01*
X2442102Y1633810D01*
X2441678Y1634613D01*
X2441322Y1635450D01*
X2441063Y1635775D01*
X2440951Y1635986D01*
X2440715Y1636210D01*
X2440268Y1636770D01*
X2261769Y1815268D01*
X2261031Y1815798D01*
X2260342Y1816390D01*
X2260037Y1816513D01*
X2259771Y1816704D01*
X2258902Y1816972D01*
X2258060Y1817312D01*
X2257648Y1817358D01*
X2257419Y1817428D01*
X2257093Y1817420D01*
X2256382Y1817499D01*
X2013120Y1817499D01*
X2012926Y1817468D01*
X2012730Y1817489D01*
X2011715Y1817269D01*
X2010691Y1817102D01*
X2010518Y1817010D01*
X2010325Y1816968D01*
X2009433Y1816436D01*
X2008516Y1815951D01*
X2008380Y1815809D01*
X2008212Y1815708D01*
X2007537Y1814921D01*
X2006821Y1814168D01*
X2006738Y1813989D01*
X2006610Y1813840D01*
X2006220Y1812876D01*
X2005783Y1811936D01*
X2005761Y1811741D01*
X2005688Y1811558D01*
X2005500Y1809880D01*
X2005500Y1776716D01*
X1993784Y1764999D01*
X1990120Y1764999D01*
X1989926Y1764968D01*
X1989730Y1764989D01*
X1988715Y1764769D01*
X1987691Y1764602D01*
X1987518Y1764510D01*
X1987325Y1764468D01*
X1986433Y1763936D01*
X1985516Y1763451D01*
X1985380Y1763309D01*
X1985212Y1763208D01*
X1984537Y1762421D01*
X1983821Y1761668D01*
X1983738Y1761489D01*
X1983610Y1761340D01*
X1983220Y1760376D01*
X1982783Y1759436D01*
X1982761Y1759241D01*
X1982688Y1759058D01*
X1982500Y1757380D01*
X1982500Y1016618D01*
X1982647Y1015723D01*
X1982717Y1014815D01*
X1982845Y1014513D01*
X1982898Y1014190D01*
X1983322Y1013387D01*
X1983678Y1012550D01*
X1983937Y1012225D01*
X1984048Y1012014D01*
X1984285Y1011790D01*
X1984732Y1011230D01*
X2186230Y809732D01*
X2186968Y809202D01*
X2187658Y808610D01*
X2187963Y808487D01*
X2188229Y808296D01*
X2189098Y808028D01*
X2189940Y807688D01*
X2190352Y807642D01*
X2190580Y807571D01*
X2190907Y807580D01*
X2191618Y807500D01*
X2338462Y807500D01*
X2417230Y728732D01*
X2417231Y728731D01*
X2438500Y707462D01*
X2438500Y696955D01*
X2438689Y695800D01*
X2438857Y694651D01*
X2438887Y694592D01*
X2438898Y694527D01*
X2439444Y693495D01*
X2439970Y692457D01*
X2440018Y692410D01*
X2440048Y692352D01*
X2440897Y691545D01*
X2441725Y690731D01*
X2441793Y690693D01*
X2441832Y690657D01*
X2442012Y690573D01*
X2443204Y689916D01*
X2460493Y682755D01*
X2487555Y655693D01*
X2502200Y620335D01*
X2502200Y429664D01*
X2487555Y394307D01*
X2460493Y367245D01*
X2425135Y352599D01*
X2386864Y352599D01*
X2351507Y367245D01*
X2324445Y394307D01*
X2309799Y429664D01*
X2309799Y620335D01*
X2324445Y655693D01*
X2351507Y682755D01*
X2354955Y684183D01*
X2355344Y684424D01*
X2355773Y684581D01*
X2356383Y685068D01*
X2357047Y685480D01*
X2357338Y685832D01*
X2357695Y686117D01*
X2358118Y686773D01*
X2358616Y687375D01*
X2358780Y687802D01*
X2359028Y688186D01*
X2359219Y688942D01*
X2359499Y689672D01*
X2359519Y690129D01*
X2359631Y690572D01*
X2359571Y691351D01*
X2359604Y692130D01*
X2359478Y692569D01*
X2359443Y693025D01*
X2359138Y693744D01*
X2358921Y694494D01*
X2358660Y694871D01*
X2358482Y695291D01*
X2357629Y696358D01*
X2357519Y696517D01*
X2357477Y696548D01*
X2357427Y696610D01*
X2313769Y740268D01*
X2313031Y740798D01*
X2312342Y741390D01*
X2312037Y741513D01*
X2311771Y741704D01*
X2310902Y741972D01*
X2310060Y742312D01*
X2309648Y742358D01*
X2309419Y742428D01*
X2309093Y742420D01*
X2308382Y742499D01*
X2192120Y742499D01*
X2191926Y742468D01*
X2191730Y742489D01*
X2190715Y742269D01*
X2189691Y742102D01*
X2189518Y742010D01*
X2189325Y741968D01*
X2188433Y741436D01*
X2187516Y740951D01*
X2187380Y740809D01*
X2187212Y740708D01*
X2186537Y739921D01*
X2185821Y739168D01*
X2185738Y738989D01*
X2185610Y738840D01*
X2185220Y737876D01*
X2184783Y736936D01*
X2184761Y736741D01*
X2184688Y736558D01*
X2184500Y734880D01*
X2184500Y696955D01*
X2184689Y695800D01*
X2184857Y694651D01*
X2184887Y694592D01*
X2184898Y694527D01*
X2185444Y693495D01*
X2185970Y692457D01*
X2186018Y692410D01*
X2186048Y692352D01*
X2186897Y691545D01*
X2187725Y690731D01*
X2187793Y690693D01*
X2187832Y690657D01*
X2188012Y690573D01*
X2189204Y689916D01*
X2206493Y682755D01*
X2233555Y655693D01*
X2248200Y620335D01*
X2248200Y429664D01*
X2233555Y394307D01*
X2206493Y367245D01*
X2171135Y352599D01*
X2132864Y352599D01*
X2097507Y367245D01*
X2070445Y394307D01*
X2055799Y429664D01*
X2055799Y620335D01*
X2070445Y655693D01*
X2097507Y682755D01*
X2114796Y689916D01*
X2115782Y690527D01*
X2116788Y691127D01*
X2116831Y691178D01*
X2116887Y691213D01*
X2117622Y692099D01*
X2118390Y692995D01*
X2118415Y693057D01*
X2118457Y693108D01*
X2118874Y694193D01*
X2119312Y695277D01*
X2119321Y695355D01*
X2119340Y695405D01*
X2119348Y695602D01*
X2119499Y696955D01*
X2119499Y706382D01*
X2119353Y707277D01*
X2119283Y708184D01*
X2119155Y708487D01*
X2119102Y708810D01*
X2118678Y709613D01*
X2118322Y710450D01*
X2118063Y710775D01*
X2117951Y710985D01*
X2117715Y711210D01*
X2117268Y711769D01*
X1895508Y933530D01*
X1894926Y933948D01*
X1894407Y934441D01*
X1893933Y934661D01*
X1893509Y934966D01*
X1892824Y935177D01*
X1892176Y935479D01*
X1891658Y935537D01*
X1891158Y935691D01*
X1890441Y935672D01*
X1889730Y935752D01*
X1889219Y935641D01*
X1888698Y935628D01*
X1888025Y935382D01*
X1887325Y935231D01*
X1886877Y934963D01*
X1886386Y934784D01*
X1885826Y934337D01*
X1885212Y933970D01*
X1884872Y933574D01*
X1884464Y933248D01*
X1884077Y932647D01*
X1883610Y932102D01*
X1883414Y931617D01*
X1883132Y931178D01*
X1882956Y930485D01*
X1882688Y929821D01*
X1882608Y929109D01*
X1882528Y928793D01*
X1882546Y928555D01*
X1882500Y928142D01*
X1882500Y705020D01*
X1882529Y704844D01*
X1882510Y704677D01*
X1882514Y704661D01*
X1882510Y704630D01*
X1882730Y703615D01*
X1882898Y702591D01*
X1882990Y702418D01*
X1883031Y702225D01*
X1883563Y701333D01*
X1884048Y700416D01*
X1884191Y700280D01*
X1884292Y700112D01*
X1885079Y699437D01*
X1885832Y698721D01*
X1886010Y698638D01*
X1886160Y698510D01*
X1887124Y698120D01*
X1888063Y697683D01*
X1888258Y697661D01*
X1888441Y697588D01*
X1890120Y697400D01*
X1917135Y697400D01*
X1952493Y682755D01*
X1979555Y655693D01*
X1994200Y620335D01*
X1994200Y429664D01*
X1979555Y394307D01*
X1952493Y367245D01*
X1917135Y352599D01*
X1878864Y352599D01*
X1843507Y367245D01*
X1816445Y394307D01*
X1801799Y429664D01*
X1801799Y620335D01*
X1816919Y656838D01*
X1817003Y657194D01*
X1817049Y657294D01*
X1817070Y657476D01*
X1817312Y658076D01*
X1817405Y658908D01*
X1817482Y659234D01*
X1817463Y659429D01*
X1817499Y659754D01*
X1817499Y928142D01*
X1817384Y928849D01*
X1817365Y929564D01*
X1817186Y930055D01*
X1817102Y930571D01*
X1816768Y931203D01*
X1816522Y931876D01*
X1816195Y932284D01*
X1815951Y932746D01*
X1815432Y933239D01*
X1814985Y933798D01*
X1814547Y934080D01*
X1814168Y934441D01*
X1813517Y934743D01*
X1812916Y935130D01*
X1812410Y935258D01*
X1811936Y935479D01*
X1811225Y935558D01*
X1810531Y935734D01*
X1810009Y935694D01*
X1809491Y935752D01*
X1808792Y935600D01*
X1808077Y935545D01*
X1807596Y935341D01*
X1807086Y935231D01*
X1806471Y934864D01*
X1805812Y934584D01*
X1805252Y934137D01*
X1804972Y933970D01*
X1804818Y933790D01*
X1804492Y933530D01*
X1678732Y807769D01*
X1678202Y807031D01*
X1677610Y806342D01*
X1677487Y806037D01*
X1677296Y805771D01*
X1677028Y804902D01*
X1676688Y804060D01*
X1676642Y803648D01*
X1676571Y803419D01*
X1676580Y803093D01*
X1676500Y802382D01*
X1676500Y696955D01*
X1676689Y695800D01*
X1676857Y694651D01*
X1676887Y694592D01*
X1676898Y694527D01*
X1677444Y693495D01*
X1677970Y692457D01*
X1678018Y692410D01*
X1678048Y692352D01*
X1678897Y691545D01*
X1679725Y690731D01*
X1679793Y690693D01*
X1679832Y690657D01*
X1680012Y690573D01*
X1681204Y689916D01*
X1698493Y682755D01*
X1725555Y655693D01*
X1740200Y620335D01*
X1740200Y429664D01*
X1725555Y394307D01*
X1698493Y367245D01*
X1663135Y352599D01*
X1624864Y352599D01*
X1589507Y367245D01*
X1562445Y394307D01*
X1547799Y429664D01*
X1547799Y620335D01*
X1562445Y655693D01*
X1589507Y682755D01*
X1606796Y689916D01*
X1607782Y690527D01*
X1608788Y691127D01*
X1608831Y691178D01*
X1608887Y691213D01*
X1609622Y692099D01*
X1610390Y692995D01*
X1610415Y693057D01*
X1610457Y693108D01*
X1610874Y694193D01*
X1611312Y695277D01*
X1611321Y695355D01*
X1611340Y695405D01*
X1611348Y695602D01*
X1611499Y696955D01*
X1611499Y797142D01*
X1611384Y797849D01*
X1611365Y798564D01*
X1611186Y799055D01*
X1611102Y799571D01*
X1610768Y800203D01*
X1610522Y800876D01*
X1610195Y801284D01*
X1609951Y801746D01*
X1609432Y802239D01*
X1608985Y802798D01*
X1608547Y803080D01*
X1608168Y803441D01*
X1607517Y803743D01*
X1606916Y804130D01*
X1606410Y804258D01*
X1605936Y804479D01*
X1605225Y804558D01*
X1604531Y804734D01*
X1604009Y804694D01*
X1603491Y804752D01*
X1602792Y804600D01*
X1602077Y804545D01*
X1601596Y804341D01*
X1601086Y804231D01*
X1600471Y803864D01*
X1599812Y803584D01*
X1599252Y803137D01*
X1598972Y802970D01*
X1598818Y802790D01*
X1598492Y802530D01*
X1466993Y671030D01*
X1466877Y670870D01*
X1466724Y670748D01*
X1466163Y669875D01*
X1465556Y669032D01*
X1465498Y668844D01*
X1465392Y668679D01*
X1465138Y667673D01*
X1464832Y666680D01*
X1464837Y666483D01*
X1464789Y666293D01*
X1464868Y665258D01*
X1464895Y664220D01*
X1464963Y664036D01*
X1464978Y663839D01*
X1465383Y662884D01*
X1465738Y661909D01*
X1465861Y661755D01*
X1465938Y661574D01*
X1466993Y660255D01*
X1471555Y655693D01*
X1486200Y620335D01*
X1486200Y429664D01*
X1471555Y394307D01*
X1444493Y367245D01*
X1409135Y352599D01*
X1370864Y352599D01*
X1335507Y367245D01*
X1308445Y394307D01*
X1293799Y429664D01*
X1293799Y620335D01*
X1308445Y655693D01*
X1335507Y682755D01*
X1370864Y697400D01*
X1398282Y697400D01*
X1399177Y697547D01*
X1400084Y697617D01*
X1400387Y697745D01*
X1400710Y697798D01*
X1401513Y698222D01*
X1402350Y698578D01*
X1402675Y698837D01*
X1402885Y698948D01*
X1402927Y698993D01*
X1402933Y698995D01*
X1403121Y699193D01*
X1403669Y699632D01*
X1433530Y729492D01*
X1433948Y730074D01*
X1434441Y730593D01*
X1434661Y731066D01*
X1434966Y731490D01*
X1435178Y732176D01*
X1435479Y732824D01*
X1435537Y733342D01*
X1435691Y733842D01*
X1435672Y734559D01*
X1435752Y735269D01*
X1435641Y735779D01*
X1435628Y736302D01*
X1435382Y736976D01*
X1435231Y737674D01*
X1434963Y738123D01*
X1434784Y738614D01*
X1434337Y739173D01*
X1433970Y739788D01*
X1433574Y740128D01*
X1433248Y740536D01*
X1432647Y740923D01*
X1432102Y741390D01*
X1431617Y741586D01*
X1431178Y741868D01*
X1430485Y742043D01*
X1429821Y742312D01*
X1429109Y742392D01*
X1428793Y742472D01*
X1428555Y742453D01*
X1428142Y742499D01*
X1227618Y742499D01*
X1226723Y742353D01*
X1225815Y742283D01*
X1225513Y742155D01*
X1225190Y742102D01*
X1224387Y741678D01*
X1223550Y741322D01*
X1223225Y741063D01*
X1223014Y740951D01*
X1222790Y740715D01*
X1222230Y740268D01*
X1180330Y698368D01*
X1180063Y697996D01*
X1179726Y697687D01*
X1179349Y697004D01*
X1178893Y696369D01*
X1178759Y695932D01*
X1178538Y695532D01*
X1178399Y694764D01*
X1178169Y694018D01*
X1178181Y693559D01*
X1178099Y693110D01*
X1178212Y692340D01*
X1178232Y691558D01*
X1178389Y691127D01*
X1178455Y690676D01*
X1178808Y689981D01*
X1179076Y689246D01*
X1179362Y688888D01*
X1179568Y688481D01*
X1180124Y687934D01*
X1180612Y687324D01*
X1180997Y687076D01*
X1181323Y686756D01*
X1182517Y686098D01*
X1182681Y685992D01*
X1182733Y685979D01*
X1182802Y685940D01*
X1190493Y682755D01*
X1217555Y655693D01*
X1232200Y620335D01*
X1232200Y429664D01*
X1217555Y394307D01*
X1190493Y367245D01*
X1155135Y352599D01*
X1116864Y352599D01*
X1081507Y367245D01*
X1054445Y394307D01*
X1039799Y429664D01*
X1039799Y620335D01*
X1054445Y655693D01*
X1081507Y682755D01*
X1098796Y689916D01*
X1099782Y690527D01*
X1100788Y691127D01*
X1100831Y691178D01*
X1100887Y691213D01*
X1101622Y692099D01*
X1102390Y692995D01*
X1102415Y693057D01*
X1102457Y693108D01*
X1102874Y694193D01*
X1103312Y695277D01*
X1103321Y695355D01*
X1103340Y695405D01*
X1103348Y695602D01*
X1103499Y696955D01*
X1103499Y713462D01*
X1124769Y734732D01*
X1169530Y779492D01*
X1169948Y780074D01*
X1170441Y780593D01*
X1170661Y781066D01*
X1170966Y781490D01*
X1171178Y782176D01*
X1171479Y782824D01*
X1171537Y783342D01*
X1171691Y783842D01*
X1171672Y784559D01*
X1171752Y785269D01*
X1171641Y785779D01*
X1171628Y786302D01*
X1171382Y786976D01*
X1171231Y787674D01*
X1170963Y788123D01*
X1170784Y788614D01*
X1170337Y789173D01*
X1169970Y789788D01*
X1169574Y790128D01*
X1169248Y790536D01*
X1168647Y790923D01*
X1168102Y791390D01*
X1167617Y791586D01*
X1167178Y791868D01*
X1166485Y792043D01*
X1165821Y792312D01*
X1165109Y792392D01*
X1164793Y792472D01*
X1164555Y792453D01*
X1164142Y792499D01*
X970620Y792499D01*
X970426Y792468D01*
X970230Y792489D01*
X969215Y792269D01*
X968191Y792102D01*
X968018Y792010D01*
X967825Y791968D01*
X966933Y791436D01*
X966016Y790951D01*
X965880Y790809D01*
X965712Y790708D01*
X965037Y789921D01*
X964321Y789168D01*
X964238Y788989D01*
X964110Y788840D01*
X963720Y787876D01*
X963283Y786936D01*
X963261Y786741D01*
X963188Y786558D01*
X963000Y784880D01*
X963000Y781715D01*
X950173Y768888D01*
X950058Y768728D01*
X949904Y768605D01*
X949343Y767733D01*
X948736Y766890D01*
X948678Y766702D01*
X948572Y766536D01*
X948318Y765531D01*
X948012Y764538D01*
X948017Y764341D01*
X947968Y764151D01*
X948048Y763117D01*
X948074Y762078D01*
X948142Y761893D01*
X948157Y761697D01*
X948562Y760743D01*
X948918Y759766D01*
X949041Y759613D01*
X949118Y759432D01*
X950172Y758112D01*
X963000Y745284D01*
X963000Y654715D01*
X950173Y641888D01*
X950058Y641728D01*
X949904Y641605D01*
X949590Y641117D01*
X949269Y640780D01*
X949073Y640358D01*
X948736Y639890D01*
X948678Y639702D01*
X948572Y639536D01*
X948430Y638976D01*
X948231Y638548D01*
X948179Y638082D01*
X948012Y637538D01*
X948017Y637341D01*
X947968Y637151D01*
X948012Y636583D01*
X947958Y636103D01*
X948060Y635633D01*
X948074Y635078D01*
X948142Y634893D01*
X948157Y634697D01*
X948373Y634186D01*
X948479Y633698D01*
X948734Y633271D01*
X948918Y632766D01*
X949041Y632613D01*
X949118Y632432D01*
X949578Y631856D01*
X949740Y631584D01*
X949915Y631434D01*
X950172Y631112D01*
X963000Y618284D01*
X963000Y527715D01*
X950173Y514888D01*
X950058Y514728D01*
X949904Y514605D01*
X949343Y513733D01*
X948736Y512890D01*
X948678Y512702D01*
X948572Y512536D01*
X948318Y511531D01*
X948012Y510538D01*
X948017Y510341D01*
X947968Y510151D01*
X948048Y509117D01*
X948074Y508078D01*
X948142Y507893D01*
X948157Y507697D01*
X948562Y506743D01*
X948918Y505766D01*
X949041Y505613D01*
X949118Y505432D01*
X950172Y504112D01*
X963000Y491284D01*
X963000Y400716D01*
X950172Y387888D01*
X950057Y387727D01*
X949904Y387605D01*
X949344Y386735D01*
X948736Y385889D01*
X948678Y385701D01*
X948572Y385536D01*
X948318Y384533D01*
X948012Y383538D01*
X948017Y383341D01*
X947968Y383150D01*
X948048Y382113D01*
X948075Y381078D01*
X948142Y380894D01*
X948157Y380697D01*
X948563Y379739D01*
X948918Y378766D01*
X949041Y378612D01*
X949118Y378431D01*
X950173Y377112D01*
X963000Y364284D01*
X963000Y273716D01*
X951284Y261999D01*
X655716Y261999D01*
X643999Y273716D01*
X643999Y280000D01*
X643926Y280451D01*
X643945Y280908D01*
X643728Y281658D01*
X643602Y282428D01*
X643388Y282833D01*
X643261Y283272D01*
X642817Y283913D01*
X642451Y284604D01*
X642119Y284919D01*
X641859Y285294D01*
X641234Y285760D01*
X640668Y286299D01*
X640253Y286492D01*
X639886Y286765D01*
X639144Y287007D01*
X638436Y287337D01*
X637982Y287387D01*
X637547Y287529D01*
X636767Y287523D01*
X635991Y287609D01*
X635544Y287513D01*
X635087Y287509D01*
X633777Y287130D01*
X633586Y287088D01*
X633540Y287062D01*
X633464Y287039D01*
X620090Y281499D01*
X579910Y281499D01*
X566536Y287039D01*
X566090Y287144D01*
X565676Y287337D01*
X564901Y287423D01*
X564140Y287602D01*
X563685Y287559D01*
X563230Y287609D01*
X562467Y287444D01*
X561690Y287371D01*
X561272Y287185D01*
X560825Y287088D01*
X560155Y286689D01*
X559441Y286372D01*
X559104Y286062D01*
X558712Y285828D01*
X558204Y285236D01*
X557628Y284708D01*
X557408Y284308D01*
X557110Y283960D01*
X556817Y283235D01*
X556441Y282553D01*
X556359Y282103D01*
X556188Y281678D01*
X556036Y280322D01*
X556002Y280131D01*
X556009Y280079D01*
X556000Y280000D01*
X556000Y273716D01*
X544284Y261999D01*
X248716Y261999D01*
G37*
%LPD*%
%LPC*%
G36*
X603253Y2422499D02*
X603253Y2422499D01*
X572499Y2453253D01*
X572499Y2496746D01*
X590268Y2514515D01*
X590798Y2515253D01*
X591390Y2515943D01*
X591513Y2516247D01*
X591704Y2516513D01*
X591972Y2517382D01*
X592312Y2518224D01*
X592358Y2518637D01*
X592428Y2518865D01*
X592420Y2519191D01*
X592499Y2519903D01*
X592499Y2538462D01*
X698038Y2644000D01*
X738380Y2644000D01*
X738574Y2644032D01*
X738769Y2644010D01*
X739785Y2644230D01*
X740808Y2644398D01*
X740982Y2644490D01*
X741174Y2644531D01*
X742067Y2645063D01*
X742984Y2645548D01*
X743119Y2645691D01*
X743288Y2645792D01*
X743963Y2646579D01*
X744679Y2647332D01*
X744762Y2647510D01*
X744890Y2647660D01*
X745278Y2648621D01*
X745717Y2649563D01*
X745738Y2649758D01*
X745812Y2649941D01*
X745999Y2651620D01*
X745999Y2674784D01*
X757716Y2686500D01*
X813380Y2686500D01*
X813574Y2686532D01*
X813769Y2686510D01*
X814785Y2686730D01*
X815808Y2686898D01*
X815982Y2686990D01*
X816174Y2687031D01*
X817067Y2687563D01*
X817984Y2688048D01*
X818119Y2688191D01*
X818288Y2688292D01*
X818963Y2689079D01*
X819679Y2689832D01*
X819762Y2690010D01*
X819890Y2690160D01*
X820279Y2691124D01*
X820717Y2692063D01*
X820738Y2692258D01*
X820812Y2692441D01*
X820999Y2694120D01*
X820999Y2944209D01*
X820926Y2944660D01*
X820945Y2945117D01*
X820728Y2945868D01*
X820602Y2946637D01*
X820388Y2947040D01*
X820261Y2947481D01*
X819816Y2948123D01*
X819451Y2948813D01*
X819120Y2949128D01*
X818859Y2949503D01*
X818234Y2949969D01*
X817668Y2950508D01*
X817253Y2950701D01*
X816886Y2950973D01*
X816144Y2951216D01*
X815436Y2951545D01*
X814982Y2951596D01*
X814547Y2951738D01*
X813767Y2951732D01*
X812991Y2951818D01*
X812544Y2951721D01*
X812087Y2951718D01*
X810777Y2951339D01*
X810586Y2951297D01*
X810540Y2951270D01*
X810464Y2951248D01*
X781135Y2939099D01*
X742864Y2939099D01*
X707507Y2953745D01*
X680445Y2980807D01*
X665799Y3016164D01*
X665799Y3206835D01*
X680445Y3242193D01*
X707507Y3269255D01*
X742864Y3283900D01*
X781135Y3283900D01*
X816493Y3269255D01*
X843555Y3242193D01*
X858200Y3206835D01*
X858200Y3064418D01*
X858347Y3063523D01*
X858417Y3062615D01*
X858545Y3062313D01*
X858598Y3061990D01*
X859022Y3061187D01*
X859378Y3060350D01*
X859637Y3060025D01*
X859748Y3059814D01*
X859985Y3059590D01*
X860432Y3059030D01*
X883612Y3035850D01*
X883772Y3035735D01*
X883894Y3035582D01*
X884763Y3035023D01*
X885610Y3034414D01*
X885799Y3034356D01*
X885963Y3034250D01*
X886966Y3033996D01*
X887962Y3033689D01*
X888159Y3033694D01*
X888349Y3033646D01*
X889383Y3033726D01*
X890422Y3033752D01*
X890607Y3033820D01*
X890803Y3033835D01*
X891757Y3034239D01*
X892733Y3034596D01*
X892887Y3034719D01*
X893068Y3034796D01*
X894388Y3035850D01*
X917568Y3059030D01*
X918098Y3059768D01*
X918690Y3060458D01*
X918813Y3060763D01*
X919004Y3061029D01*
X919272Y3061898D01*
X919612Y3062740D01*
X919658Y3063152D01*
X919728Y3063380D01*
X919720Y3063707D01*
X919799Y3064418D01*
X919799Y3206835D01*
X934445Y3242193D01*
X961507Y3269255D01*
X996864Y3283900D01*
X1035135Y3283900D01*
X1070493Y3269255D01*
X1097555Y3242193D01*
X1112200Y3206835D01*
X1112200Y3016164D01*
X1097555Y2980807D01*
X1070493Y2953745D01*
X1035135Y2939099D01*
X996864Y2939099D01*
X961536Y2953733D01*
X961090Y2953838D01*
X960676Y2954030D01*
X959900Y2954117D01*
X959140Y2954295D01*
X958684Y2954253D01*
X958230Y2954303D01*
X957468Y2954138D01*
X956690Y2954065D01*
X956272Y2953879D01*
X955825Y2953782D01*
X955155Y2953383D01*
X954441Y2953065D01*
X954104Y2952756D01*
X953712Y2952522D01*
X953203Y2951928D01*
X952628Y2951401D01*
X952408Y2951002D01*
X952110Y2950654D01*
X951817Y2949928D01*
X951441Y2949246D01*
X951359Y2948797D01*
X951188Y2948372D01*
X951036Y2947016D01*
X951002Y2946825D01*
X951009Y2946773D01*
X951000Y2946694D01*
X951000Y2694120D01*
X951032Y2693926D01*
X951010Y2693730D01*
X951230Y2692715D01*
X951398Y2691691D01*
X951490Y2691518D01*
X951531Y2691325D01*
X952063Y2690433D01*
X952548Y2689516D01*
X952691Y2689380D01*
X952792Y2689212D01*
X953579Y2688537D01*
X954332Y2687821D01*
X954510Y2687738D01*
X954660Y2687610D01*
X955624Y2687220D01*
X956563Y2686783D01*
X956758Y2686761D01*
X956941Y2686688D01*
X958620Y2686500D01*
X1014284Y2686500D01*
X1026000Y2674784D01*
X1026000Y2548216D01*
X1014284Y2536499D01*
X912295Y2536499D01*
X912068Y2536462D01*
X911840Y2536486D01*
X910859Y2536264D01*
X909866Y2536102D01*
X909664Y2535995D01*
X909439Y2535944D01*
X908578Y2535420D01*
X907691Y2534951D01*
X907533Y2534785D01*
X907337Y2534666D01*
X906689Y2533897D01*
X905996Y2533168D01*
X905899Y2532958D01*
X905751Y2532783D01*
X905383Y2531849D01*
X904958Y2530936D01*
X904933Y2530708D01*
X904848Y2530494D01*
X904797Y2529491D01*
X904685Y2528491D01*
X904734Y2528266D01*
X904722Y2528037D01*
X904993Y2527070D01*
X905206Y2526086D01*
X905324Y2525888D01*
X905386Y2525667D01*
X905951Y2524837D01*
X906467Y2523972D01*
X906641Y2523822D01*
X906770Y2523633D01*
X908062Y2522544D01*
X911909Y2519974D01*
X919974Y2511909D01*
X926311Y2502426D01*
X930675Y2491889D01*
X932294Y2483749D01*
X876132Y2483749D01*
X875938Y2483718D01*
X875743Y2483739D01*
X875136Y2483608D01*
X873868Y2483749D01*
X817706Y2483749D01*
X819325Y2491889D01*
X823689Y2502426D01*
X830025Y2511909D01*
X838091Y2519974D01*
X841938Y2522544D01*
X842106Y2522702D01*
X842309Y2522809D01*
X843002Y2523538D01*
X843736Y2524224D01*
X843845Y2524426D01*
X844004Y2524593D01*
X844428Y2525506D01*
X844906Y2526389D01*
X844945Y2526616D01*
X845042Y2526824D01*
X845153Y2527823D01*
X845324Y2528814D01*
X845289Y2529041D01*
X845314Y2529269D01*
X845102Y2530251D01*
X844948Y2531246D01*
X844842Y2531450D01*
X844793Y2531674D01*
X844279Y2532537D01*
X843816Y2533431D01*
X843651Y2533591D01*
X843533Y2533788D01*
X842770Y2534443D01*
X842047Y2535142D01*
X841839Y2535240D01*
X841665Y2535390D01*
X840733Y2535767D01*
X839824Y2536199D01*
X839596Y2536226D01*
X839383Y2536312D01*
X837705Y2536499D01*
X757716Y2536499D01*
X745999Y2548216D01*
X745999Y2571380D01*
X745968Y2571574D01*
X745989Y2571769D01*
X745769Y2572785D01*
X745602Y2573808D01*
X745510Y2573982D01*
X745468Y2574174D01*
X744936Y2575067D01*
X744451Y2575984D01*
X744309Y2576119D01*
X744208Y2576288D01*
X743421Y2576963D01*
X742668Y2577679D01*
X742489Y2577762D01*
X742340Y2577890D01*
X741376Y2578279D01*
X740436Y2578717D01*
X740241Y2578738D01*
X740058Y2578812D01*
X738380Y2578999D01*
X728118Y2578999D01*
X727223Y2578853D01*
X726315Y2578783D01*
X726013Y2578655D01*
X725690Y2578602D01*
X724887Y2578178D01*
X724050Y2577822D01*
X723725Y2577563D01*
X723514Y2577451D01*
X723290Y2577215D01*
X722730Y2576768D01*
X665492Y2519530D01*
X665377Y2519369D01*
X665224Y2519247D01*
X664664Y2518377D01*
X664056Y2517531D01*
X663998Y2517343D01*
X663892Y2517178D01*
X663638Y2516175D01*
X663332Y2515180D01*
X663337Y2514983D01*
X663288Y2514793D01*
X663368Y2513755D01*
X663395Y2512720D01*
X663462Y2512536D01*
X663477Y2512339D01*
X663883Y2511381D01*
X664238Y2510408D01*
X664361Y2510254D01*
X664438Y2510073D01*
X665493Y2508754D01*
X677500Y2496747D01*
X677500Y2453253D01*
X646746Y2422499D01*
X603253Y2422499D01*
G37*
%LPD*%
%LPC*%
G36*
X1806716Y2427999D02*
X1806716Y2427999D01*
X1794999Y2439716D01*
X1794999Y2444177D01*
X1794806Y2445356D01*
X1794623Y2446543D01*
X1794607Y2446573D01*
X1794602Y2446605D01*
X1794049Y2447651D01*
X1793491Y2448728D01*
X1793467Y2448751D01*
X1793451Y2448780D01*
X1792588Y2449600D01*
X1791721Y2450438D01*
X1791691Y2450453D01*
X1791668Y2450475D01*
X1790588Y2450978D01*
X1789499Y2451495D01*
X1789466Y2451499D01*
X1789436Y2451513D01*
X1788253Y2451645D01*
X1787056Y2451789D01*
X1787023Y2451782D01*
X1786991Y2451786D01*
X1785832Y2451535D01*
X1784646Y2451289D01*
X1784611Y2451271D01*
X1784586Y2451265D01*
X1784488Y2451207D01*
X1783147Y2450512D01*
X1777427Y2446689D01*
X1766889Y2442325D01*
X1758749Y2440706D01*
X1758749Y2496868D01*
X1758718Y2497062D01*
X1758739Y2497257D01*
X1758608Y2497864D01*
X1758749Y2499132D01*
X1758749Y2555294D01*
X1766889Y2553675D01*
X1777427Y2549310D01*
X1783147Y2545488D01*
X1784237Y2544992D01*
X1785324Y2544487D01*
X1785356Y2544483D01*
X1785387Y2544469D01*
X1786599Y2544344D01*
X1787769Y2544214D01*
X1787801Y2544221D01*
X1787834Y2544217D01*
X1789019Y2544484D01*
X1790174Y2544735D01*
X1790203Y2544751D01*
X1790235Y2544759D01*
X1791274Y2545391D01*
X1792288Y2545995D01*
X1792309Y2546020D01*
X1792338Y2546037D01*
X1793111Y2546955D01*
X1793890Y2547863D01*
X1793902Y2547894D01*
X1793923Y2547919D01*
X1794359Y2549023D01*
X1794812Y2550145D01*
X1794817Y2550183D01*
X1794826Y2550208D01*
X1794832Y2550324D01*
X1794999Y2551823D01*
X1794999Y2576284D01*
X1806716Y2588000D01*
X1883284Y2588000D01*
X1895000Y2576284D01*
X1895000Y2555403D01*
X1895147Y2554507D01*
X1895217Y2553600D01*
X1895345Y2553297D01*
X1895398Y2552974D01*
X1895822Y2552172D01*
X1896178Y2551334D01*
X1896437Y2551009D01*
X1896548Y2550799D01*
X1896785Y2550574D01*
X1897232Y2550015D01*
X1904515Y2542732D01*
X1905253Y2542202D01*
X1905943Y2541610D01*
X1906247Y2541487D01*
X1906513Y2541296D01*
X1907382Y2541028D01*
X1908224Y2540688D01*
X1908637Y2540642D01*
X1908865Y2540571D01*
X1909191Y2540580D01*
X1909903Y2540500D01*
X1991382Y2540500D01*
X1992277Y2540647D01*
X1993184Y2540717D01*
X1993487Y2540845D01*
X1993810Y2540898D01*
X1994613Y2541322D01*
X1995450Y2541678D01*
X1995775Y2541937D01*
X1995985Y2542048D01*
X1996210Y2542285D01*
X1996769Y2542732D01*
X2313268Y2859230D01*
X2313798Y2859968D01*
X2314390Y2860658D01*
X2314513Y2860963D01*
X2314704Y2861229D01*
X2314972Y2862098D01*
X2315312Y2862940D01*
X2315358Y2863352D01*
X2315428Y2863580D01*
X2315420Y2863907D01*
X2315499Y2864618D01*
X2315499Y2928044D01*
X2315310Y2929199D01*
X2315143Y2930348D01*
X2315113Y2930408D01*
X2315102Y2930473D01*
X2314556Y2931505D01*
X2314029Y2932543D01*
X2313982Y2932589D01*
X2313951Y2932648D01*
X2313103Y2933455D01*
X2312275Y2934268D01*
X2312206Y2934306D01*
X2312168Y2934343D01*
X2311988Y2934427D01*
X2310796Y2935084D01*
X2293507Y2942245D01*
X2266445Y2969307D01*
X2251799Y3004664D01*
X2251799Y3195335D01*
X2266445Y3230693D01*
X2293507Y3257755D01*
X2328864Y3272400D01*
X2367135Y3272400D01*
X2402493Y3257755D01*
X2429555Y3230693D01*
X2444200Y3195335D01*
X2444200Y3004664D01*
X2429555Y2969307D01*
X2402493Y2942245D01*
X2385204Y2935084D01*
X2384218Y2934473D01*
X2383212Y2933873D01*
X2383168Y2933822D01*
X2383113Y2933787D01*
X2382375Y2932897D01*
X2381610Y2932004D01*
X2381585Y2931943D01*
X2381543Y2931892D01*
X2381126Y2930806D01*
X2380688Y2929723D01*
X2380679Y2929645D01*
X2380660Y2929595D01*
X2380651Y2929398D01*
X2380500Y2928044D01*
X2380500Y2834538D01*
X2021462Y2475499D01*
X1929903Y2475499D01*
X1929007Y2475353D01*
X1928100Y2475283D01*
X1927797Y2475155D01*
X1927474Y2475102D01*
X1926672Y2474678D01*
X1925834Y2474322D01*
X1925509Y2474063D01*
X1925299Y2473951D01*
X1925074Y2473715D01*
X1924515Y2473268D01*
X1897232Y2445985D01*
X1896702Y2445247D01*
X1896110Y2444557D01*
X1895987Y2444253D01*
X1895796Y2443987D01*
X1895528Y2443118D01*
X1895188Y2442276D01*
X1895142Y2441863D01*
X1895071Y2441635D01*
X1895080Y2441308D01*
X1895000Y2440597D01*
X1895000Y2439716D01*
X1883284Y2427999D01*
X1806716Y2427999D01*
G37*
%LPD*%
%LPC*%
G36*
X1716656Y2652599D02*
X1716656Y2652599D01*
X1710196Y2654330D01*
X1704403Y2657675D01*
X1704070Y2658008D01*
X1703910Y2658123D01*
X1703787Y2658277D01*
X1702916Y2658838D01*
X1702072Y2659445D01*
X1701883Y2659503D01*
X1701718Y2659609D01*
X1700713Y2659863D01*
X1699721Y2660169D01*
X1699524Y2660164D01*
X1699332Y2660213D01*
X1698295Y2660133D01*
X1697261Y2660107D01*
X1697076Y2660039D01*
X1696879Y2660024D01*
X1695921Y2659618D01*
X1694949Y2659263D01*
X1694795Y2659141D01*
X1694613Y2659063D01*
X1693294Y2658009D01*
X1693284Y2657999D01*
X1616716Y2657999D01*
X1604999Y2669716D01*
X1604999Y2806284D01*
X1607768Y2809052D01*
X1608297Y2809789D01*
X1608890Y2810480D01*
X1609013Y2810785D01*
X1609204Y2811050D01*
X1609471Y2811918D01*
X1609812Y2812762D01*
X1609858Y2813174D01*
X1609928Y2813402D01*
X1609920Y2813729D01*
X1609999Y2814440D01*
X1609999Y2885640D01*
X1636360Y2912000D01*
X1863640Y2912000D01*
X1890000Y2885640D01*
X1890000Y2814440D01*
X1890147Y2813543D01*
X1890217Y2812637D01*
X1890345Y2812335D01*
X1890398Y2812012D01*
X1890822Y2811209D01*
X1891178Y2810371D01*
X1891438Y2810046D01*
X1891548Y2809836D01*
X1891785Y2809612D01*
X1892232Y2809052D01*
X1895000Y2806284D01*
X1895000Y2805403D01*
X1895147Y2804507D01*
X1895217Y2803600D01*
X1895345Y2803297D01*
X1895398Y2802974D01*
X1895822Y2802172D01*
X1896178Y2801334D01*
X1896437Y2801009D01*
X1896548Y2800799D01*
X1896785Y2800574D01*
X1897232Y2800015D01*
X1927500Y2769746D01*
X1927500Y2726253D01*
X1897232Y2695985D01*
X1896702Y2695247D01*
X1896110Y2694557D01*
X1895987Y2694253D01*
X1895796Y2693987D01*
X1895528Y2693118D01*
X1895188Y2692276D01*
X1895142Y2691863D01*
X1895071Y2691635D01*
X1895080Y2691308D01*
X1895000Y2690597D01*
X1895000Y2669716D01*
X1883284Y2657999D01*
X1806716Y2657999D01*
X1806707Y2658008D01*
X1806547Y2658123D01*
X1806424Y2658277D01*
X1805553Y2658838D01*
X1804708Y2659445D01*
X1804520Y2659503D01*
X1804355Y2659609D01*
X1803352Y2659863D01*
X1802357Y2660170D01*
X1802159Y2660165D01*
X1801969Y2660213D01*
X1800935Y2660133D01*
X1799897Y2660107D01*
X1799712Y2660039D01*
X1799516Y2660024D01*
X1798562Y2659620D01*
X1797585Y2659263D01*
X1797431Y2659140D01*
X1797250Y2659063D01*
X1795931Y2658009D01*
X1795596Y2657675D01*
X1789803Y2654330D01*
X1783344Y2652599D01*
X1764999Y2652599D01*
X1764999Y2682664D01*
X1764848Y2683593D01*
X1764767Y2684531D01*
X1764649Y2684802D01*
X1764602Y2685093D01*
X1764163Y2685923D01*
X1763787Y2686788D01*
X1763589Y2687008D01*
X1763451Y2687268D01*
X1762768Y2687917D01*
X1762138Y2688615D01*
X1761882Y2688759D01*
X1761668Y2688963D01*
X1760814Y2689360D01*
X1759994Y2689822D01*
X1759703Y2689877D01*
X1759436Y2690001D01*
X1758749Y2690078D01*
X1758749Y2730618D01*
X1758718Y2730812D01*
X1758739Y2731007D01*
X1758519Y2732023D01*
X1758352Y2733046D01*
X1758260Y2733220D01*
X1758218Y2733412D01*
X1757686Y2734304D01*
X1757201Y2735222D01*
X1757059Y2735357D01*
X1756958Y2735526D01*
X1756171Y2736201D01*
X1755418Y2736917D01*
X1755239Y2736999D01*
X1755090Y2737128D01*
X1754126Y2737517D01*
X1753186Y2737954D01*
X1752991Y2737976D01*
X1752831Y2738041D01*
X1753558Y2738160D01*
X1753732Y2738252D01*
X1753924Y2738293D01*
X1754817Y2738826D01*
X1755734Y2739311D01*
X1755869Y2739453D01*
X1756038Y2739554D01*
X1756713Y2740341D01*
X1757429Y2741094D01*
X1757512Y2741273D01*
X1757640Y2741422D01*
X1758029Y2742386D01*
X1758467Y2743326D01*
X1758488Y2743521D01*
X1758562Y2743703D01*
X1758749Y2745382D01*
X1758749Y2746868D01*
X1758718Y2747062D01*
X1758739Y2747257D01*
X1758608Y2747864D01*
X1758749Y2749132D01*
X1758749Y2805897D01*
X1759254Y2806048D01*
X1760174Y2806247D01*
X1760428Y2806398D01*
X1760711Y2806483D01*
X1761480Y2807025D01*
X1762288Y2807507D01*
X1762480Y2807731D01*
X1762721Y2807902D01*
X1763276Y2808660D01*
X1763890Y2809375D01*
X1764001Y2809650D01*
X1764174Y2809887D01*
X1764458Y2810782D01*
X1764812Y2811657D01*
X1764853Y2812026D01*
X1764919Y2812233D01*
X1764913Y2812565D01*
X1764999Y2813335D01*
X1764999Y2814380D01*
X1764968Y2814574D01*
X1764989Y2814769D01*
X1764769Y2815785D01*
X1764602Y2816808D01*
X1764510Y2816982D01*
X1764468Y2817174D01*
X1763936Y2818067D01*
X1763451Y2818984D01*
X1763309Y2819119D01*
X1763208Y2819288D01*
X1762421Y2819963D01*
X1761668Y2820679D01*
X1761489Y2820762D01*
X1761340Y2820890D01*
X1760376Y2821279D01*
X1759436Y2821717D01*
X1759241Y2821738D01*
X1759058Y2821812D01*
X1757380Y2821999D01*
X1742619Y2821999D01*
X1742425Y2821968D01*
X1742230Y2821989D01*
X1741215Y2821769D01*
X1740191Y2821602D01*
X1740018Y2821510D01*
X1739825Y2821468D01*
X1738933Y2820936D01*
X1738016Y2820451D01*
X1737880Y2820309D01*
X1737712Y2820208D01*
X1737037Y2819421D01*
X1736321Y2818668D01*
X1736238Y2818489D01*
X1736110Y2818340D01*
X1735720Y2817376D01*
X1735283Y2816436D01*
X1735261Y2816241D01*
X1735187Y2816058D01*
X1735000Y2814380D01*
X1735000Y2813335D01*
X1735152Y2812406D01*
X1735233Y2811467D01*
X1735350Y2811196D01*
X1735398Y2810907D01*
X1735837Y2810075D01*
X1736213Y2809210D01*
X1736411Y2808991D01*
X1736548Y2808731D01*
X1737233Y2808081D01*
X1737863Y2807383D01*
X1738118Y2807239D01*
X1738332Y2807036D01*
X1739187Y2806639D01*
X1740008Y2806177D01*
X1740297Y2806122D01*
X1740563Y2805998D01*
X1741250Y2805922D01*
X1741250Y2749132D01*
X1741282Y2748938D01*
X1741260Y2748743D01*
X1741392Y2748136D01*
X1741250Y2746868D01*
X1741250Y2745382D01*
X1741282Y2745188D01*
X1741260Y2744993D01*
X1741480Y2743977D01*
X1741648Y2742953D01*
X1741739Y2742780D01*
X1741781Y2742588D01*
X1742313Y2741695D01*
X1742798Y2740778D01*
X1742941Y2740643D01*
X1743041Y2740474D01*
X1743828Y2739799D01*
X1744582Y2739083D01*
X1744760Y2739000D01*
X1744909Y2738872D01*
X1745873Y2738483D01*
X1746813Y2738045D01*
X1747008Y2738023D01*
X1747168Y2737959D01*
X1746441Y2737840D01*
X1746268Y2737748D01*
X1746075Y2737706D01*
X1745183Y2737174D01*
X1744266Y2736689D01*
X1744130Y2736547D01*
X1743962Y2736446D01*
X1743287Y2735659D01*
X1742571Y2734905D01*
X1742488Y2734727D01*
X1742360Y2734578D01*
X1741970Y2733614D01*
X1741533Y2732674D01*
X1741511Y2732479D01*
X1741437Y2732296D01*
X1741250Y2730618D01*
X1741250Y2690103D01*
X1740745Y2689953D01*
X1739825Y2689753D01*
X1739573Y2689603D01*
X1739290Y2689518D01*
X1738519Y2688974D01*
X1737712Y2688493D01*
X1737520Y2688270D01*
X1737280Y2688100D01*
X1736724Y2687341D01*
X1736110Y2686625D01*
X1735999Y2686351D01*
X1735826Y2686114D01*
X1735541Y2685217D01*
X1735187Y2684343D01*
X1735146Y2683976D01*
X1735081Y2683769D01*
X1735086Y2683437D01*
X1735000Y2682665D01*
X1735000Y2652599D01*
X1716656Y2652599D01*
G37*
%LPD*%
%LPC*%
G36*
X2854664Y3055799D02*
X2854664Y3055799D01*
X2819307Y3070445D01*
X2792245Y3097507D01*
X2777599Y3132864D01*
X2777599Y3171135D01*
X2792245Y3206493D01*
X2819307Y3233555D01*
X2854664Y3248200D01*
X3045335Y3248200D01*
X3080693Y3233555D01*
X3107755Y3206493D01*
X3122400Y3171135D01*
X3122400Y3132864D01*
X3107755Y3097507D01*
X3080693Y3070445D01*
X3045335Y3055799D01*
X2854664Y3055799D01*
G37*
%LPD*%
%LPC*%
G36*
X2854664Y2542799D02*
X2854664Y2542799D01*
X2819307Y2557445D01*
X2792245Y2584507D01*
X2777599Y2619864D01*
X2777599Y2658135D01*
X2792245Y2693493D01*
X2819307Y2720555D01*
X2854664Y2735200D01*
X3045335Y2735200D01*
X3080693Y2720555D01*
X3107755Y2693493D01*
X3122400Y2658135D01*
X3122400Y2619864D01*
X3107755Y2584507D01*
X3080693Y2557445D01*
X3045335Y2542799D01*
X2854664Y2542799D01*
G37*
%LPD*%
%LPC*%
G36*
X2854664Y2801799D02*
X2854664Y2801799D01*
X2819307Y2816445D01*
X2792245Y2843507D01*
X2777599Y2878864D01*
X2777599Y2917135D01*
X2792245Y2952493D01*
X2819307Y2979555D01*
X2854664Y2994200D01*
X3045335Y2994200D01*
X3080693Y2979555D01*
X3107755Y2952493D01*
X3122400Y2917135D01*
X3122400Y2878864D01*
X3107755Y2843507D01*
X3080693Y2816445D01*
X3045335Y2801799D01*
X2854664Y2801799D01*
G37*
%LPD*%
%LPC*%
G36*
X1854114Y2939099D02*
X1854114Y2939099D01*
X1818757Y2953745D01*
X1791695Y2980807D01*
X1777049Y3016164D01*
X1777049Y3206835D01*
X1791695Y3242193D01*
X1818757Y3269255D01*
X1854114Y3283900D01*
X1892385Y3283900D01*
X1927743Y3269255D01*
X1954805Y3242193D01*
X1969450Y3206835D01*
X1969450Y3016164D01*
X1954805Y2980807D01*
X1927743Y2953745D01*
X1892385Y2939099D01*
X1854114Y2939099D01*
G37*
%LPD*%
G36*
X2535780Y1716639D02*
X2535780Y1716639D01*
X2536302Y1716652D01*
X2536974Y1716898D01*
X2537674Y1717049D01*
X2538123Y1717317D01*
X2538614Y1717496D01*
X2539173Y1717943D01*
X2539788Y1718309D01*
X2540128Y1718706D01*
X2540536Y1719032D01*
X2540923Y1719633D01*
X2541390Y1720178D01*
X2541586Y1720663D01*
X2541868Y1721101D01*
X2542043Y1721794D01*
X2542312Y1722459D01*
X2542392Y1723170D01*
X2542472Y1723487D01*
X2542453Y1723724D01*
X2542499Y1724138D01*
X2542499Y1958382D01*
X2542353Y1959277D01*
X2542283Y1960184D01*
X2542155Y1960487D01*
X2542102Y1960810D01*
X2541678Y1961613D01*
X2541322Y1962450D01*
X2541063Y1962775D01*
X2540951Y1962985D01*
X2540715Y1963210D01*
X2540268Y1963769D01*
X2488769Y2015268D01*
X2488031Y2015798D01*
X2487342Y2016390D01*
X2487037Y2016513D01*
X2486771Y2016704D01*
X2485902Y2016972D01*
X2485060Y2017312D01*
X2484648Y2017358D01*
X2484419Y2017428D01*
X2484093Y2017420D01*
X2483382Y2017499D01*
X2200142Y2017499D01*
X2199435Y2017384D01*
X2198720Y2017365D01*
X2198229Y2017186D01*
X2197713Y2017102D01*
X2197082Y2016768D01*
X2196408Y2016522D01*
X2195999Y2016195D01*
X2195538Y2015951D01*
X2195046Y2015433D01*
X2194486Y2014985D01*
X2194203Y2014546D01*
X2193843Y2014168D01*
X2193541Y2013519D01*
X2193153Y2012916D01*
X2193025Y2012409D01*
X2192805Y2011936D01*
X2192726Y2011226D01*
X2192550Y2010531D01*
X2192590Y2010010D01*
X2192533Y2009491D01*
X2192684Y2008790D01*
X2192739Y2008077D01*
X2192943Y2007597D01*
X2193053Y2007086D01*
X2193420Y2006471D01*
X2193700Y2005812D01*
X2194147Y2005253D01*
X2194314Y2004972D01*
X2194495Y2004817D01*
X2194754Y2004492D01*
X2202500Y1996747D01*
X2202500Y1953253D01*
X2192254Y1943008D01*
X2191837Y1942427D01*
X2191343Y1941907D01*
X2191123Y1941433D01*
X2190818Y1941009D01*
X2190607Y1940325D01*
X2190305Y1939676D01*
X2190248Y1939158D01*
X2190093Y1938658D01*
X2190112Y1937941D01*
X2190033Y1937230D01*
X2190143Y1936721D01*
X2190156Y1936198D01*
X2190402Y1935524D01*
X2190553Y1934825D01*
X2190821Y1934377D01*
X2191000Y1933886D01*
X2191447Y1933326D01*
X2191814Y1932712D01*
X2192210Y1932372D01*
X2192537Y1931964D01*
X2193138Y1931577D01*
X2193682Y1931110D01*
X2194167Y1930914D01*
X2194605Y1930632D01*
X2195299Y1930456D01*
X2195963Y1930188D01*
X2196675Y1930108D01*
X2196991Y1930028D01*
X2197229Y1930046D01*
X2197642Y1930000D01*
X2318242Y1930000D01*
X2529492Y1718750D01*
X2530073Y1718332D01*
X2530593Y1717839D01*
X2531066Y1717618D01*
X2531491Y1717313D01*
X2532175Y1717103D01*
X2532824Y1716801D01*
X2533342Y1716743D01*
X2533842Y1716589D01*
X2534558Y1716608D01*
X2535269Y1716528D01*
X2535780Y1716639D01*
G37*
G36*
X1903074Y1789532D02*
X1903074Y1789532D01*
X1903269Y1789510D01*
X1904285Y1789730D01*
X1905308Y1789898D01*
X1905482Y1789990D01*
X1905674Y1790031D01*
X1906567Y1790563D01*
X1907484Y1791048D01*
X1907619Y1791191D01*
X1907788Y1791292D01*
X1908463Y1792079D01*
X1909179Y1792832D01*
X1909262Y1793010D01*
X1909390Y1793160D01*
X1909779Y1794124D01*
X1910217Y1795063D01*
X1910238Y1795258D01*
X1910312Y1795441D01*
X1910499Y1797120D01*
X1910499Y1807380D01*
X1910468Y1807574D01*
X1910489Y1807769D01*
X1910269Y1808785D01*
X1910102Y1809808D01*
X1910010Y1809982D01*
X1909968Y1810174D01*
X1909436Y1811067D01*
X1908951Y1811984D01*
X1908809Y1812119D01*
X1908708Y1812288D01*
X1907921Y1812963D01*
X1907168Y1813679D01*
X1906989Y1813762D01*
X1906840Y1813890D01*
X1905876Y1814279D01*
X1904936Y1814717D01*
X1904741Y1814738D01*
X1904558Y1814812D01*
X1902880Y1814999D01*
X1902216Y1814999D01*
X1890499Y1826716D01*
X1890499Y1959880D01*
X1890468Y1960074D01*
X1890489Y1960269D01*
X1890269Y1961285D01*
X1890102Y1962308D01*
X1890010Y1962482D01*
X1889968Y1962674D01*
X1889436Y1963567D01*
X1888951Y1964484D01*
X1888809Y1964619D01*
X1888708Y1964788D01*
X1887921Y1965463D01*
X1887168Y1966179D01*
X1886989Y1966262D01*
X1886840Y1966390D01*
X1885876Y1966779D01*
X1884936Y1967217D01*
X1884741Y1967238D01*
X1884558Y1967312D01*
X1882880Y1967499D01*
X1794903Y1967499D01*
X1794007Y1967353D01*
X1793100Y1967283D01*
X1792797Y1967155D01*
X1792474Y1967102D01*
X1791672Y1966678D01*
X1790834Y1966322D01*
X1790509Y1966063D01*
X1790299Y1965951D01*
X1790074Y1965715D01*
X1789515Y1965268D01*
X1771746Y1947499D01*
X1728253Y1947499D01*
X1697499Y1978253D01*
X1697499Y1997847D01*
X1697306Y1999026D01*
X1697123Y2000213D01*
X1697107Y2000243D01*
X1697102Y2000275D01*
X1696549Y2001321D01*
X1695991Y2002398D01*
X1695967Y2002422D01*
X1695951Y2002451D01*
X1695084Y2003275D01*
X1694221Y2004108D01*
X1694192Y2004123D01*
X1694168Y2004146D01*
X1693073Y2004655D01*
X1691999Y2005166D01*
X1691966Y2005170D01*
X1691936Y2005183D01*
X1690755Y2005315D01*
X1689556Y2005459D01*
X1689523Y2005453D01*
X1689491Y2005456D01*
X1688325Y2005204D01*
X1687147Y2004959D01*
X1687112Y2004941D01*
X1687086Y2004935D01*
X1686986Y2004876D01*
X1685647Y2004182D01*
X1677426Y1998689D01*
X1666889Y1994325D01*
X1658749Y1992706D01*
X1658749Y2041250D01*
X1713847Y2041250D01*
X1714742Y2041397D01*
X1715650Y2041466D01*
X1715953Y2041595D01*
X1716275Y2041648D01*
X1717078Y2042072D01*
X1717915Y2042427D01*
X1718240Y2042687D01*
X1718451Y2042798D01*
X1718675Y2043034D01*
X1719235Y2043482D01*
X1728253Y2052500D01*
X1771746Y2052500D01*
X1789515Y2034732D01*
X1790253Y2034202D01*
X1790943Y2033610D01*
X1791247Y2033487D01*
X1791513Y2033296D01*
X1792382Y2033028D01*
X1793224Y2032688D01*
X1793637Y2032642D01*
X1793865Y2032571D01*
X1794191Y2032580D01*
X1794903Y2032500D01*
X1882880Y2032500D01*
X1883074Y2032532D01*
X1883269Y2032510D01*
X1884285Y2032730D01*
X1885308Y2032898D01*
X1885482Y2032990D01*
X1885674Y2033031D01*
X1886567Y2033563D01*
X1887484Y2034048D01*
X1887619Y2034191D01*
X1887788Y2034292D01*
X1888463Y2035079D01*
X1889179Y2035832D01*
X1889262Y2036010D01*
X1889390Y2036160D01*
X1889779Y2037124D01*
X1890217Y2038063D01*
X1890238Y2038258D01*
X1890312Y2038441D01*
X1890499Y2040120D01*
X1890499Y2073284D01*
X1902216Y2085000D01*
X1902880Y2085000D01*
X1903074Y2085032D01*
X1903269Y2085010D01*
X1904285Y2085230D01*
X1905308Y2085398D01*
X1905482Y2085490D01*
X1905674Y2085531D01*
X1906567Y2086063D01*
X1907484Y2086548D01*
X1907619Y2086691D01*
X1907788Y2086792D01*
X1908463Y2087579D01*
X1909179Y2088332D01*
X1909262Y2088510D01*
X1909390Y2088660D01*
X1909779Y2089624D01*
X1910217Y2090563D01*
X1910238Y2090758D01*
X1910312Y2090941D01*
X1910499Y2092620D01*
X1910499Y2102880D01*
X1910468Y2103074D01*
X1910489Y2103269D01*
X1910269Y2104285D01*
X1910102Y2105308D01*
X1910010Y2105482D01*
X1909968Y2105674D01*
X1909436Y2106567D01*
X1908951Y2107484D01*
X1908809Y2107619D01*
X1908708Y2107788D01*
X1907921Y2108463D01*
X1907168Y2109179D01*
X1906989Y2109262D01*
X1906840Y2109390D01*
X1905876Y2109779D01*
X1904936Y2110217D01*
X1904741Y2110238D01*
X1904558Y2110312D01*
X1902880Y2110499D01*
X1892620Y2110499D01*
X1892426Y2110468D01*
X1892230Y2110489D01*
X1891215Y2110269D01*
X1890191Y2110102D01*
X1890018Y2110010D01*
X1889825Y2109968D01*
X1888933Y2109436D01*
X1888016Y2108951D01*
X1887880Y2108809D01*
X1887712Y2108708D01*
X1887036Y2107920D01*
X1886321Y2107168D01*
X1886238Y2106989D01*
X1886110Y2106840D01*
X1885720Y2105876D01*
X1885283Y2104936D01*
X1885261Y2104741D01*
X1885188Y2104558D01*
X1885000Y2102880D01*
X1885000Y2102216D01*
X1873284Y2090499D01*
X1706830Y2090499D01*
X1705659Y2090308D01*
X1704463Y2090123D01*
X1704433Y2090107D01*
X1704402Y2090102D01*
X1703356Y2089549D01*
X1702278Y2088990D01*
X1702255Y2088967D01*
X1702226Y2088951D01*
X1701388Y2088070D01*
X1700568Y2087221D01*
X1700554Y2087192D01*
X1700531Y2087168D01*
X1700023Y2086075D01*
X1699511Y2084998D01*
X1699507Y2084965D01*
X1699493Y2084936D01*
X1699363Y2083764D01*
X1699218Y2082555D01*
X1699224Y2082523D01*
X1699221Y2082491D01*
X1699474Y2081322D01*
X1699718Y2080146D01*
X1699736Y2080112D01*
X1699742Y2080086D01*
X1699801Y2079986D01*
X1700495Y2078646D01*
X1701311Y2077425D01*
X1705675Y2066889D01*
X1707294Y2058749D01*
X1651132Y2058749D01*
X1650938Y2058718D01*
X1650743Y2058739D01*
X1650136Y2058608D01*
X1648868Y2058749D01*
X1622520Y2058749D01*
X1622326Y2058718D01*
X1622130Y2058739D01*
X1621115Y2058519D01*
X1620091Y2058352D01*
X1619918Y2058260D01*
X1619725Y2058218D01*
X1618833Y2057686D01*
X1618709Y2057621D01*
X1552003Y2057621D01*
X1551809Y2057589D01*
X1551614Y2057611D01*
X1550598Y2057391D01*
X1549575Y2057223D01*
X1549401Y2057131D01*
X1549209Y2057090D01*
X1548317Y2056558D01*
X1547399Y2056073D01*
X1547264Y2055930D01*
X1547095Y2055829D01*
X1546420Y2055042D01*
X1545704Y2054289D01*
X1545622Y2054111D01*
X1545493Y2053961D01*
X1545104Y2052997D01*
X1544667Y2052058D01*
X1544645Y2051863D01*
X1544571Y2051680D01*
X1544384Y2050001D01*
X1544384Y2049998D01*
X1544415Y2049805D01*
X1544394Y2049612D01*
X1544394Y2049611D01*
X1544394Y2049609D01*
X1544614Y2048593D01*
X1544781Y2047570D01*
X1544873Y2047396D01*
X1544915Y2047204D01*
X1545447Y2046312D01*
X1545932Y2045394D01*
X1546074Y2045259D01*
X1546175Y2045090D01*
X1546962Y2044415D01*
X1547716Y2043699D01*
X1547894Y2043617D01*
X1548043Y2043488D01*
X1549007Y2043099D01*
X1549947Y2042662D01*
X1550142Y2042640D01*
X1550325Y2042566D01*
X1552003Y2042379D01*
X1618538Y2042379D01*
X1618560Y2042360D01*
X1619524Y2041970D01*
X1620463Y2041533D01*
X1620658Y2041511D01*
X1620841Y2041437D01*
X1622520Y2041250D01*
X1641250Y2041250D01*
X1641250Y1992706D01*
X1633110Y1994325D01*
X1622574Y1998689D01*
X1621353Y1999505D01*
X1620264Y2000000D01*
X1619176Y2000506D01*
X1619143Y2000510D01*
X1619113Y2000523D01*
X1617915Y2000647D01*
X1616730Y2000779D01*
X1616699Y2000772D01*
X1616666Y2000776D01*
X1615483Y2000509D01*
X1614325Y2000258D01*
X1614297Y2000241D01*
X1614265Y2000234D01*
X1613228Y1999604D01*
X1612212Y1998998D01*
X1612191Y1998973D01*
X1612162Y1998956D01*
X1611383Y1998031D01*
X1610610Y1997130D01*
X1610598Y1997099D01*
X1610577Y1997074D01*
X1610135Y1995956D01*
X1609688Y1994848D01*
X1609683Y1994810D01*
X1609673Y1994785D01*
X1609668Y1994668D01*
X1609500Y1993170D01*
X1609500Y1910120D01*
X1609532Y1909926D01*
X1609510Y1909730D01*
X1609730Y1908715D01*
X1609898Y1907691D01*
X1609990Y1907518D01*
X1610031Y1907325D01*
X1610563Y1906433D01*
X1611048Y1905516D01*
X1611191Y1905380D01*
X1611292Y1905212D01*
X1612079Y1904537D01*
X1612832Y1903821D01*
X1613010Y1903738D01*
X1613160Y1903610D01*
X1614124Y1903220D01*
X1615063Y1902783D01*
X1615258Y1902761D01*
X1615441Y1902688D01*
X1617120Y1902500D01*
X1663746Y1902500D01*
X1694500Y1871746D01*
X1694500Y1828253D01*
X1688754Y1822508D01*
X1688337Y1821927D01*
X1687843Y1821407D01*
X1687623Y1820933D01*
X1687318Y1820509D01*
X1687107Y1819825D01*
X1686805Y1819176D01*
X1686748Y1818658D01*
X1686593Y1818158D01*
X1686612Y1817441D01*
X1686533Y1816730D01*
X1686643Y1816221D01*
X1686656Y1815698D01*
X1686902Y1815024D01*
X1687053Y1814325D01*
X1687321Y1813877D01*
X1687500Y1813386D01*
X1687947Y1812826D01*
X1688314Y1812212D01*
X1688710Y1811872D01*
X1689037Y1811464D01*
X1689638Y1811077D01*
X1690182Y1810610D01*
X1690667Y1810414D01*
X1691105Y1810132D01*
X1691799Y1809956D01*
X1692463Y1809688D01*
X1693175Y1809608D01*
X1693491Y1809528D01*
X1693729Y1809546D01*
X1694142Y1809500D01*
X1873284Y1809500D01*
X1885000Y1797784D01*
X1885000Y1797120D01*
X1885032Y1796926D01*
X1885010Y1796730D01*
X1885230Y1795715D01*
X1885398Y1794691D01*
X1885490Y1794518D01*
X1885531Y1794325D01*
X1886063Y1793433D01*
X1886548Y1792516D01*
X1886691Y1792380D01*
X1886792Y1792212D01*
X1887579Y1791537D01*
X1888332Y1790821D01*
X1888510Y1790738D01*
X1888660Y1790610D01*
X1889624Y1790220D01*
X1890563Y1789783D01*
X1890758Y1789761D01*
X1890941Y1789688D01*
X1892620Y1789500D01*
X1902880Y1789500D01*
X1903074Y1789532D01*
G37*
G36*
X637532Y477556D02*
X637532Y477556D01*
X638310Y477629D01*
X638728Y477815D01*
X639174Y477912D01*
X639844Y478311D01*
X640558Y478628D01*
X640896Y478938D01*
X641288Y479172D01*
X641797Y479765D01*
X642371Y480293D01*
X642591Y480692D01*
X642890Y481040D01*
X643183Y481766D01*
X643559Y482448D01*
X643641Y482897D01*
X643812Y483322D01*
X643963Y484678D01*
X643998Y484869D01*
X643991Y484921D01*
X643999Y485000D01*
X643999Y491284D01*
X656828Y504112D01*
X656943Y504273D01*
X657096Y504395D01*
X657656Y505265D01*
X658264Y506111D01*
X658322Y506299D01*
X658428Y506464D01*
X658682Y507467D01*
X658988Y508462D01*
X658983Y508659D01*
X659031Y508849D01*
X658952Y509887D01*
X658925Y510922D01*
X658858Y511106D01*
X658843Y511303D01*
X658437Y512261D01*
X658082Y513234D01*
X657959Y513388D01*
X657882Y513568D01*
X656827Y514888D01*
X643999Y527715D01*
X643999Y618284D01*
X656828Y631112D01*
X656943Y631273D01*
X657096Y631395D01*
X657379Y631834D01*
X657731Y632205D01*
X657947Y632670D01*
X658264Y633111D01*
X658322Y633299D01*
X658428Y633464D01*
X658561Y633990D01*
X658768Y634436D01*
X658823Y634927D01*
X658988Y635462D01*
X658983Y635659D01*
X659031Y635849D01*
X658988Y636408D01*
X659041Y636882D01*
X658940Y637351D01*
X658925Y637922D01*
X658858Y638106D01*
X658843Y638303D01*
X658619Y638831D01*
X658520Y639287D01*
X658280Y639689D01*
X658082Y640234D01*
X657959Y640388D01*
X657882Y640568D01*
X657386Y641189D01*
X657260Y641400D01*
X657124Y641517D01*
X656827Y641888D01*
X643999Y654715D01*
X643999Y745284D01*
X656828Y758112D01*
X656943Y758273D01*
X657096Y758395D01*
X657656Y759265D01*
X658264Y760111D01*
X658322Y760299D01*
X658428Y760464D01*
X658682Y761467D01*
X658988Y762462D01*
X658983Y762659D01*
X659031Y762849D01*
X658952Y763887D01*
X658925Y764922D01*
X658858Y765106D01*
X658843Y765303D01*
X658437Y766261D01*
X658082Y767234D01*
X657959Y767388D01*
X657882Y767568D01*
X656827Y768888D01*
X643999Y781715D01*
X643999Y872284D01*
X656828Y885112D01*
X656943Y885273D01*
X657096Y885395D01*
X657656Y886265D01*
X658264Y887111D01*
X658322Y887299D01*
X658428Y887464D01*
X658682Y888467D01*
X658988Y889462D01*
X658983Y889659D01*
X659031Y889849D01*
X658952Y890887D01*
X658925Y891922D01*
X658858Y892106D01*
X658843Y892303D01*
X658437Y893261D01*
X658082Y894234D01*
X657959Y894388D01*
X657882Y894568D01*
X656827Y895888D01*
X643999Y908715D01*
X643999Y915000D01*
X643926Y915451D01*
X643945Y915908D01*
X643728Y916658D01*
X643602Y917428D01*
X643388Y917833D01*
X643261Y918272D01*
X642817Y918913D01*
X642451Y919604D01*
X642119Y919919D01*
X641859Y920294D01*
X641234Y920760D01*
X640668Y921299D01*
X640253Y921492D01*
X639886Y921765D01*
X639144Y922007D01*
X638436Y922337D01*
X637982Y922387D01*
X637547Y922529D01*
X636767Y922523D01*
X635991Y922609D01*
X635544Y922513D01*
X635087Y922509D01*
X633777Y922130D01*
X633586Y922088D01*
X633540Y922062D01*
X633464Y922039D01*
X620090Y916499D01*
X579910Y916499D01*
X566536Y922039D01*
X566090Y922144D01*
X565676Y922337D01*
X564901Y922423D01*
X564140Y922602D01*
X563685Y922559D01*
X563230Y922609D01*
X562467Y922444D01*
X561690Y922371D01*
X561272Y922185D01*
X560825Y922088D01*
X560155Y921689D01*
X559441Y921372D01*
X559104Y921062D01*
X558712Y920828D01*
X558204Y920236D01*
X557628Y919708D01*
X557408Y919308D01*
X557110Y918960D01*
X556817Y918235D01*
X556441Y917553D01*
X556359Y917103D01*
X556188Y916678D01*
X556036Y915322D01*
X556002Y915131D01*
X556009Y915079D01*
X556000Y915000D01*
X556000Y908715D01*
X545947Y898662D01*
X545259Y897705D01*
X544550Y896742D01*
X544536Y896699D01*
X544511Y896664D01*
X544160Y895528D01*
X543798Y894398D01*
X543799Y894355D01*
X543786Y894312D01*
X543817Y893113D01*
X543833Y891938D01*
X543848Y891897D01*
X543849Y891852D01*
X544259Y890728D01*
X544650Y889617D01*
X544677Y889583D01*
X544693Y889541D01*
X545436Y888611D01*
X546165Y887677D01*
X546207Y887646D01*
X546229Y887618D01*
X546352Y887539D01*
X547525Y886676D01*
X551596Y884325D01*
X556325Y879596D01*
X559669Y873803D01*
X561400Y867344D01*
X561400Y842238D01*
X435120Y842238D01*
X434926Y842207D01*
X434730Y842228D01*
X433715Y842008D01*
X432691Y841841D01*
X432518Y841749D01*
X432325Y841708D01*
X431433Y841175D01*
X430516Y840690D01*
X430380Y840548D01*
X430212Y840447D01*
X429537Y839660D01*
X428821Y838907D01*
X428738Y838728D01*
X428610Y838579D01*
X428220Y837615D01*
X427783Y836675D01*
X427761Y836480D01*
X427688Y836298D01*
X427500Y834619D01*
X427500Y819380D01*
X427532Y819186D01*
X427510Y818991D01*
X427730Y817976D01*
X427898Y816952D01*
X427990Y816778D01*
X428031Y816586D01*
X428563Y815694D01*
X429048Y814777D01*
X429191Y814641D01*
X429292Y814473D01*
X430079Y813798D01*
X430832Y813082D01*
X431010Y812999D01*
X431160Y812871D01*
X432124Y812481D01*
X433063Y812044D01*
X433258Y812022D01*
X433441Y811948D01*
X435120Y811761D01*
X561400Y811761D01*
X561400Y786656D01*
X559669Y780196D01*
X556325Y774403D01*
X551004Y769083D01*
X550816Y768951D01*
X550650Y768725D01*
X550433Y768548D01*
X549924Y767740D01*
X549356Y766969D01*
X549271Y766703D01*
X549122Y766466D01*
X548897Y765537D01*
X548604Y764626D01*
X548608Y764347D01*
X548542Y764075D01*
X548625Y763119D01*
X548638Y762166D01*
X548731Y761903D01*
X548755Y761623D01*
X549138Y760745D01*
X549455Y759844D01*
X549627Y759624D01*
X549739Y759368D01*
X550382Y758657D01*
X550969Y757904D01*
X551152Y757770D01*
X556325Y752596D01*
X559669Y746803D01*
X561400Y740344D01*
X561400Y715238D01*
X435120Y715238D01*
X434926Y715207D01*
X434730Y715228D01*
X433715Y715008D01*
X432691Y714841D01*
X432518Y714749D01*
X432325Y714708D01*
X431433Y714175D01*
X430516Y713690D01*
X430380Y713548D01*
X430212Y713447D01*
X429537Y712660D01*
X428821Y711907D01*
X428738Y711728D01*
X428610Y711579D01*
X428220Y710615D01*
X427783Y709675D01*
X427761Y709480D01*
X427688Y709298D01*
X427500Y707619D01*
X427500Y692380D01*
X427532Y692186D01*
X427510Y691991D01*
X427730Y690976D01*
X427898Y689952D01*
X427990Y689778D01*
X428031Y689586D01*
X428563Y688694D01*
X429048Y687777D01*
X429191Y687641D01*
X429292Y687473D01*
X430079Y686798D01*
X430832Y686082D01*
X431010Y685999D01*
X431160Y685871D01*
X432124Y685481D01*
X433063Y685044D01*
X433258Y685022D01*
X433441Y684948D01*
X435120Y684761D01*
X561400Y684761D01*
X561400Y659656D01*
X559669Y653196D01*
X556325Y647403D01*
X551596Y642675D01*
X547525Y640324D01*
X546611Y639576D01*
X545678Y638831D01*
X545654Y638793D01*
X545620Y638766D01*
X544995Y637770D01*
X544346Y636762D01*
X544335Y636718D01*
X544312Y636682D01*
X544036Y635537D01*
X543743Y634376D01*
X543746Y634332D01*
X543736Y634289D01*
X543840Y633111D01*
X543931Y631922D01*
X543949Y631881D01*
X543953Y631838D01*
X544427Y630755D01*
X544892Y629657D01*
X544925Y629616D01*
X544939Y629583D01*
X545038Y629474D01*
X545947Y628338D01*
X556000Y618284D01*
X556000Y527715D01*
X545947Y517662D01*
X545259Y516705D01*
X544550Y515742D01*
X544536Y515699D01*
X544511Y515664D01*
X544160Y514528D01*
X543798Y513398D01*
X543799Y513355D01*
X543786Y513312D01*
X543817Y512113D01*
X543833Y510938D01*
X543848Y510897D01*
X543849Y510852D01*
X544259Y509728D01*
X544650Y508617D01*
X544677Y508583D01*
X544693Y508541D01*
X545436Y507611D01*
X546165Y506677D01*
X546207Y506646D01*
X546229Y506618D01*
X546352Y506539D01*
X547525Y505676D01*
X551596Y503325D01*
X556325Y498596D01*
X559669Y492803D01*
X561660Y485375D01*
X561731Y485218D01*
X561798Y484808D01*
X562012Y484404D01*
X562139Y483965D01*
X562583Y483323D01*
X562604Y483284D01*
X562673Y483132D01*
X562700Y483103D01*
X562948Y482633D01*
X563280Y482318D01*
X563540Y481942D01*
X564165Y481476D01*
X564732Y480938D01*
X565147Y480745D01*
X565513Y480472D01*
X566256Y480229D01*
X566963Y479900D01*
X567418Y479849D01*
X567853Y479707D01*
X568633Y479714D01*
X569409Y479627D01*
X569856Y479724D01*
X570313Y479728D01*
X571623Y480107D01*
X571814Y480148D01*
X571859Y480175D01*
X571936Y480197D01*
X579910Y483500D01*
X620090Y483500D01*
X633464Y477961D01*
X633910Y477856D01*
X634324Y477663D01*
X635099Y477577D01*
X635860Y477398D01*
X636315Y477441D01*
X636769Y477391D01*
X637532Y477556D01*
G37*
G36*
X1028849Y1882616D02*
X1028849Y1882616D01*
X1029564Y1882634D01*
X1030055Y1882813D01*
X1030571Y1882898D01*
X1031203Y1883232D01*
X1031876Y1883478D01*
X1032284Y1883804D01*
X1032746Y1884048D01*
X1033239Y1884568D01*
X1033798Y1885014D01*
X1034080Y1885453D01*
X1034441Y1885832D01*
X1034743Y1886483D01*
X1035130Y1887083D01*
X1035258Y1887590D01*
X1035479Y1888063D01*
X1035558Y1888775D01*
X1035734Y1889469D01*
X1035694Y1889990D01*
X1035752Y1890509D01*
X1035600Y1891208D01*
X1035545Y1891923D01*
X1035341Y1892404D01*
X1035231Y1892914D01*
X1034864Y1893529D01*
X1034584Y1894188D01*
X1034137Y1894748D01*
X1033970Y1895028D01*
X1033790Y1895182D01*
X1033530Y1895508D01*
X950999Y1978038D01*
X950999Y2195858D01*
X950884Y2196565D01*
X950865Y2197280D01*
X950686Y2197771D01*
X950602Y2198286D01*
X950267Y2198919D01*
X950022Y2199592D01*
X949695Y2200000D01*
X949451Y2200462D01*
X948933Y2200954D01*
X948485Y2201514D01*
X948046Y2201797D01*
X947668Y2202157D01*
X947019Y2202458D01*
X946416Y2202846D01*
X945909Y2202974D01*
X945436Y2203194D01*
X944725Y2203274D01*
X944030Y2203449D01*
X943509Y2203409D01*
X942991Y2203467D01*
X942290Y2203316D01*
X941577Y2203261D01*
X941096Y2203057D01*
X940586Y2202946D01*
X939971Y2202580D01*
X939311Y2202300D01*
X938752Y2201853D01*
X938472Y2201686D01*
X938317Y2201505D01*
X937992Y2201245D01*
X934247Y2197499D01*
X890753Y2197499D01*
X859999Y2228253D01*
X859999Y2271746D01*
X862518Y2274265D01*
X863048Y2275003D01*
X863640Y2275693D01*
X863763Y2275997D01*
X863954Y2276263D01*
X864222Y2277132D01*
X864562Y2277974D01*
X864608Y2278387D01*
X864678Y2278615D01*
X864670Y2278941D01*
X864749Y2279653D01*
X864749Y2352868D01*
X864718Y2353062D01*
X864739Y2353257D01*
X864519Y2354273D01*
X864352Y2355296D01*
X864260Y2355470D01*
X864218Y2355662D01*
X863686Y2356554D01*
X863201Y2357472D01*
X863059Y2357607D01*
X862958Y2357776D01*
X862171Y2358451D01*
X861418Y2359167D01*
X861239Y2359249D01*
X861090Y2359378D01*
X860126Y2359767D01*
X859186Y2360204D01*
X858991Y2360226D01*
X858808Y2360300D01*
X857130Y2360487D01*
X849869Y2360487D01*
X849675Y2360455D01*
X849480Y2360477D01*
X848465Y2360257D01*
X847441Y2360090D01*
X847268Y2359998D01*
X847075Y2359956D01*
X846183Y2359424D01*
X845266Y2358939D01*
X845130Y2358797D01*
X844962Y2358696D01*
X844287Y2357909D01*
X843571Y2357155D01*
X843488Y2356977D01*
X843360Y2356828D01*
X842970Y2355864D01*
X842533Y2354924D01*
X842511Y2354729D01*
X842437Y2354546D01*
X842250Y2352868D01*
X842250Y2276099D01*
X838620Y2276099D01*
X838426Y2276068D01*
X838230Y2276089D01*
X837215Y2275869D01*
X836191Y2275702D01*
X836018Y2275610D01*
X835825Y2275568D01*
X834933Y2275036D01*
X834016Y2274551D01*
X833880Y2274409D01*
X833712Y2274308D01*
X833037Y2273521D01*
X832321Y2272768D01*
X832238Y2272589D01*
X832110Y2272440D01*
X831720Y2271476D01*
X831283Y2270536D01*
X831261Y2270341D01*
X831188Y2270158D01*
X831000Y2268480D01*
X831000Y2068118D01*
X831147Y2067223D01*
X831217Y2066315D01*
X831345Y2066013D01*
X831398Y2065690D01*
X831822Y2064887D01*
X832178Y2064050D01*
X832437Y2063725D01*
X832548Y2063514D01*
X832785Y2063290D01*
X833232Y2062730D01*
X1011230Y1884732D01*
X1011968Y1884202D01*
X1012658Y1883610D01*
X1012963Y1883487D01*
X1013229Y1883296D01*
X1014098Y1883028D01*
X1014940Y1882688D01*
X1015352Y1882642D01*
X1015580Y1882571D01*
X1015907Y1882580D01*
X1016618Y1882500D01*
X1028142Y1882500D01*
X1028849Y1882616D01*
G37*
%LPC*%
G36*
X315239Y3215239D02*
X315239Y3215239D01*
X315239Y3400930D01*
X339336Y3397758D01*
X364813Y3390931D01*
X389180Y3380838D01*
X412019Y3367652D01*
X432945Y3351595D01*
X451595Y3332945D01*
X467652Y3312019D01*
X480838Y3289180D01*
X490931Y3264813D01*
X497758Y3239336D01*
X500930Y3215239D01*
X315239Y3215239D01*
G37*
%LPD*%
%LPC*%
G36*
X3215239Y315239D02*
X3215239Y315239D01*
X3215239Y500930D01*
X3239336Y497758D01*
X3264813Y490931D01*
X3289180Y480838D01*
X3312019Y467652D01*
X3332945Y451595D01*
X3351595Y432945D01*
X3367652Y412019D01*
X3380838Y389180D01*
X3390931Y364813D01*
X3397758Y339336D01*
X3400930Y315239D01*
X3215239Y315239D01*
G37*
%LPD*%
%LPC*%
G36*
X99069Y3215239D02*
X99069Y3215239D01*
X102242Y3239336D01*
X109068Y3264813D01*
X119162Y3289180D01*
X132348Y3312019D01*
X148405Y3332945D01*
X167055Y3351595D01*
X187981Y3367652D01*
X210820Y3380838D01*
X235187Y3390931D01*
X260664Y3397758D01*
X284761Y3400930D01*
X284761Y3215239D01*
X99069Y3215239D01*
G37*
%LPD*%
%LPC*%
G36*
X3215239Y284761D02*
X3215239Y284761D01*
X3400930Y284761D01*
X3397758Y260664D01*
X3390931Y235187D01*
X3380838Y210820D01*
X3367652Y187981D01*
X3351595Y167055D01*
X3332945Y148405D01*
X3312019Y132348D01*
X3289180Y119162D01*
X3264813Y109068D01*
X3239336Y102242D01*
X3215239Y99069D01*
X3215239Y284761D01*
G37*
%LPD*%
%LPC*%
G36*
X315239Y3184761D02*
X315239Y3184761D01*
X500930Y3184761D01*
X497758Y3160664D01*
X490931Y3135187D01*
X480838Y3110820D01*
X467652Y3087981D01*
X451595Y3067055D01*
X432945Y3048405D01*
X412019Y3032348D01*
X389180Y3019162D01*
X364813Y3009068D01*
X339336Y3002242D01*
X315239Y2999069D01*
X315239Y3184761D01*
G37*
%LPD*%
%LPC*%
G36*
X2999069Y315239D02*
X2999069Y315239D01*
X3002242Y339336D01*
X3009068Y364813D01*
X3019162Y389180D01*
X3032348Y412019D01*
X3048405Y432945D01*
X3067055Y451595D01*
X3087981Y467652D01*
X3110820Y480838D01*
X3135187Y490931D01*
X3160664Y497758D01*
X3184761Y500930D01*
X3184761Y315239D01*
X2999069Y315239D01*
G37*
%LPD*%
%LPC*%
G36*
X3160664Y102242D02*
X3160664Y102242D01*
X3135187Y109068D01*
X3110820Y119162D01*
X3087981Y132348D01*
X3067055Y148405D01*
X3048405Y167055D01*
X3032348Y187981D01*
X3019162Y210820D01*
X3009068Y235187D01*
X3002242Y260664D01*
X2999069Y284761D01*
X3184761Y284761D01*
X3184761Y99069D01*
X3160664Y102242D01*
G37*
%LPD*%
%LPC*%
G36*
X260664Y3002242D02*
X260664Y3002242D01*
X235187Y3009068D01*
X210820Y3019162D01*
X187981Y3032348D01*
X167055Y3048405D01*
X148405Y3067055D01*
X132348Y3087981D01*
X119162Y3110820D01*
X109068Y3135187D01*
X102242Y3160664D01*
X99069Y3184761D01*
X284761Y3184761D01*
X284761Y2999069D01*
X260664Y3002242D01*
G37*
%LPD*%
%LPC*%
G36*
X1634489Y3126739D02*
X1634489Y3126739D01*
X1634489Y3288153D01*
X1643041Y3286798D01*
X1658251Y3281857D01*
X1672500Y3274596D01*
X1685438Y3265197D01*
X1696747Y3253888D01*
X1706146Y3240950D01*
X1713407Y3226701D01*
X1718348Y3211491D01*
X1720850Y3195696D01*
X1720850Y3126739D01*
X1634489Y3126739D01*
G37*
%LPD*%
%LPC*%
G36*
X2617239Y3115239D02*
X2617239Y3115239D01*
X2617239Y3276653D01*
X2625791Y3275298D01*
X2641001Y3270357D01*
X2655250Y3263096D01*
X2668188Y3253697D01*
X2679497Y3242388D01*
X2688896Y3229450D01*
X2696157Y3215201D01*
X2701098Y3199991D01*
X2703600Y3184196D01*
X2703600Y3115239D01*
X2617239Y3115239D01*
G37*
%LPD*%
%LPC*%
G36*
X1634489Y3096261D02*
X1634489Y3096261D01*
X1720850Y3096261D01*
X1720850Y3027304D01*
X1718348Y3011508D01*
X1713407Y2996299D01*
X1706146Y2982049D01*
X1696747Y2969112D01*
X1685438Y2957803D01*
X1672500Y2948403D01*
X1658251Y2941143D01*
X1643041Y2936201D01*
X1634489Y2934847D01*
X1634489Y3096261D01*
G37*
%LPD*%
%LPC*%
G36*
X2617239Y3084761D02*
X2617239Y3084761D01*
X2703600Y3084761D01*
X2703600Y3015804D01*
X2701098Y3000008D01*
X2696157Y2984799D01*
X2688896Y2970549D01*
X2679497Y2957612D01*
X2668188Y2946303D01*
X2655250Y2936903D01*
X2641001Y2929643D01*
X2625791Y2924701D01*
X2617239Y2923347D01*
X2617239Y3084761D01*
G37*
%LPD*%
%LPC*%
G36*
X1517649Y3126739D02*
X1517649Y3126739D01*
X1517649Y3195696D01*
X1520151Y3211491D01*
X1525093Y3226701D01*
X1532353Y3240950D01*
X1541753Y3253888D01*
X1553062Y3265197D01*
X1565999Y3274596D01*
X1580249Y3281857D01*
X1595458Y3286798D01*
X1604011Y3288153D01*
X1604011Y3126739D01*
X1517649Y3126739D01*
G37*
%LPD*%
%LPC*%
G36*
X2500399Y3115239D02*
X2500399Y3115239D01*
X2500399Y3184196D01*
X2502901Y3199991D01*
X2507843Y3215201D01*
X2515103Y3229450D01*
X2524503Y3242388D01*
X2535812Y3253697D01*
X2548749Y3263096D01*
X2562999Y3270357D01*
X2578208Y3275298D01*
X2586761Y3276653D01*
X2586761Y3115239D01*
X2500399Y3115239D01*
G37*
%LPD*%
%LPC*%
G36*
X1595458Y2936201D02*
X1595458Y2936201D01*
X1580249Y2941143D01*
X1565999Y2948403D01*
X1553062Y2957803D01*
X1541753Y2969112D01*
X1532353Y2982049D01*
X1525093Y2996299D01*
X1520151Y3011508D01*
X1517649Y3027304D01*
X1517649Y3096261D01*
X1604011Y3096261D01*
X1604011Y2934847D01*
X1595458Y2936201D01*
G37*
%LPD*%
%LPC*%
G36*
X2578208Y2924701D02*
X2578208Y2924701D01*
X2562999Y2929643D01*
X2548749Y2936903D01*
X2535812Y2946303D01*
X2524503Y2957612D01*
X2515103Y2970549D01*
X2507843Y2984799D01*
X2502901Y3000008D01*
X2500399Y3015804D01*
X2500399Y3084761D01*
X2586761Y3084761D01*
X2586761Y2923347D01*
X2578208Y2924701D01*
G37*
%LPD*%
%LPC*%
G36*
X1392706Y2033749D02*
X1392706Y2033749D01*
X1394325Y2041889D01*
X1398689Y2052426D01*
X1402592Y2058267D01*
X1403073Y2059325D01*
X1403575Y2060381D01*
X1403583Y2060447D01*
X1403611Y2060507D01*
X1403730Y2061672D01*
X1403869Y2062824D01*
X1403856Y2062889D01*
X1403863Y2062955D01*
X1403607Y2064087D01*
X1403369Y2065234D01*
X1403332Y2065305D01*
X1403321Y2065355D01*
X1403221Y2065519D01*
X1402592Y2066733D01*
X1398689Y2072573D01*
X1394325Y2083110D01*
X1392706Y2091250D01*
X1441250Y2091250D01*
X1441250Y2033749D01*
X1392706Y2033749D01*
G37*
%LPD*%
%LPC*%
G36*
X108749Y1758749D02*
X108749Y1758749D01*
X108749Y1807294D01*
X116889Y1805675D01*
X127426Y1801311D01*
X136909Y1794974D01*
X144974Y1786909D01*
X151311Y1777426D01*
X155675Y1766889D01*
X157294Y1758749D01*
X108749Y1758749D01*
G37*
%LPD*%
%LPC*%
G36*
X2221249Y1421249D02*
X2221249Y1421249D01*
X2221249Y1469794D01*
X2229389Y1468175D01*
X2239926Y1463811D01*
X2249409Y1457474D01*
X2257474Y1449409D01*
X2263811Y1439926D01*
X2268175Y1429389D01*
X2269794Y1421249D01*
X2221249Y1421249D01*
G37*
%LPD*%
%LPC*%
G36*
X108749Y1258749D02*
X108749Y1258749D01*
X108749Y1307294D01*
X116889Y1305675D01*
X127426Y1301311D01*
X136909Y1294974D01*
X144974Y1286909D01*
X151311Y1277426D01*
X155675Y1266889D01*
X157294Y1258749D01*
X108749Y1258749D01*
G37*
%LPD*%
%LPC*%
G36*
X108749Y2258749D02*
X108749Y2258749D01*
X108749Y2307294D01*
X116889Y2305675D01*
X127426Y2301311D01*
X136909Y2294974D01*
X144974Y2286909D01*
X151311Y2277426D01*
X155675Y2266889D01*
X157294Y2258749D01*
X108749Y2258749D01*
G37*
%LPD*%
%LPC*%
G36*
X1371249Y1171249D02*
X1371249Y1171249D01*
X1371249Y1219794D01*
X1379389Y1218175D01*
X1389926Y1213811D01*
X1399409Y1207474D01*
X1407474Y1199409D01*
X1413811Y1189926D01*
X1418175Y1179389D01*
X1419794Y1171249D01*
X1371249Y1171249D01*
G37*
%LPD*%
%LPC*%
G36*
X108749Y758749D02*
X108749Y758749D01*
X108749Y807294D01*
X116889Y805675D01*
X127426Y801311D01*
X136909Y794974D01*
X144974Y786909D01*
X151311Y777426D01*
X155675Y766889D01*
X157294Y758749D01*
X108749Y758749D01*
G37*
%LPD*%
%LPC*%
G36*
X2471249Y1921249D02*
X2471249Y1921249D01*
X2471249Y1969794D01*
X2479389Y1968175D01*
X2489926Y1963811D01*
X2499409Y1957474D01*
X2507474Y1949409D01*
X2513811Y1939926D01*
X2518175Y1929389D01*
X2519794Y1921249D01*
X2471249Y1921249D01*
G37*
%LPD*%
%LPC*%
G36*
X108749Y2758749D02*
X108749Y2758749D01*
X108749Y2807294D01*
X116889Y2805675D01*
X127426Y2801311D01*
X136909Y2794974D01*
X144974Y2786909D01*
X151311Y2777426D01*
X155675Y2766889D01*
X157294Y2758749D01*
X108749Y2758749D01*
G37*
%LPD*%
%LPC*%
G36*
X1758749Y108749D02*
X1758749Y108749D01*
X1758749Y157294D01*
X1766889Y155675D01*
X1777426Y151311D01*
X1786909Y144974D01*
X1794974Y136909D01*
X1801311Y127426D01*
X1805675Y116889D01*
X1807294Y108749D01*
X1758749Y108749D01*
G37*
%LPD*%
%LPC*%
G36*
X758749Y108749D02*
X758749Y108749D01*
X758749Y157294D01*
X766889Y155675D01*
X777426Y151311D01*
X786909Y144974D01*
X794974Y136909D01*
X801311Y127426D01*
X805675Y116889D01*
X807294Y108749D01*
X758749Y108749D01*
G37*
%LPD*%
%LPC*%
G36*
X2258749Y108749D02*
X2258749Y108749D01*
X2258749Y157294D01*
X2266889Y155675D01*
X2277426Y151311D01*
X2286909Y144974D01*
X2294974Y136909D01*
X2301311Y127426D01*
X2305675Y116889D01*
X2307294Y108749D01*
X2258749Y108749D01*
G37*
%LPD*%
%LPC*%
G36*
X1258749Y108749D02*
X1258749Y108749D01*
X1258749Y157294D01*
X1266889Y155675D01*
X1277426Y151311D01*
X1286909Y144974D01*
X1294974Y136909D01*
X1301311Y127426D01*
X1305675Y116889D01*
X1307294Y108749D01*
X1258749Y108749D01*
G37*
%LPD*%
%LPC*%
G36*
X2758749Y108749D02*
X2758749Y108749D01*
X2758749Y157294D01*
X2766889Y155675D01*
X2777426Y151311D01*
X2786909Y144974D01*
X2794974Y136909D01*
X2801311Y127426D01*
X2805675Y116889D01*
X2807294Y108749D01*
X2758749Y108749D01*
G37*
%LPD*%
%LPC*%
G36*
X1392706Y2108749D02*
X1392706Y2108749D01*
X1394325Y2116889D01*
X1398689Y2127426D01*
X1405025Y2136909D01*
X1413091Y2144974D01*
X1422573Y2151311D01*
X1433110Y2155675D01*
X1441250Y2157294D01*
X1441250Y2108749D01*
X1392706Y2108749D01*
G37*
%LPD*%
%LPC*%
G36*
X2405206Y1921249D02*
X2405206Y1921249D01*
X2406825Y1929389D01*
X2411189Y1939926D01*
X2417525Y1949409D01*
X2425591Y1957474D01*
X2435073Y1963811D01*
X2445610Y1968175D01*
X2453750Y1969794D01*
X2453750Y1921249D01*
X2405206Y1921249D01*
G37*
%LPD*%
%LPC*%
G36*
X2471249Y1903750D02*
X2471249Y1903750D01*
X2519794Y1903750D01*
X2518175Y1895610D01*
X2513811Y1885073D01*
X2507474Y1875591D01*
X2499409Y1867525D01*
X2489926Y1861189D01*
X2479389Y1856825D01*
X2471249Y1855206D01*
X2471249Y1903750D01*
G37*
%LPD*%
%LPC*%
G36*
X3342706Y1758749D02*
X3342706Y1758749D01*
X3344325Y1766889D01*
X3348689Y1777426D01*
X3355025Y1786909D01*
X3363091Y1794974D01*
X3372573Y1801311D01*
X3383110Y1805675D01*
X3391250Y1807294D01*
X3391250Y1758749D01*
X3342706Y1758749D01*
G37*
%LPD*%
%LPC*%
G36*
X108749Y1741250D02*
X108749Y1741250D01*
X157294Y1741250D01*
X155675Y1733110D01*
X151311Y1722573D01*
X144974Y1713091D01*
X136909Y1705025D01*
X127426Y1698689D01*
X116889Y1694325D01*
X108749Y1692706D01*
X108749Y1741250D01*
G37*
%LPD*%
%LPC*%
G36*
X2155206Y1421249D02*
X2155206Y1421249D01*
X2156825Y1429389D01*
X2161189Y1439926D01*
X2167525Y1449409D01*
X2175591Y1457474D01*
X2185073Y1463811D01*
X2195610Y1468175D01*
X2203750Y1469794D01*
X2203750Y1421249D01*
X2155206Y1421249D01*
G37*
%LPD*%
%LPC*%
G36*
X2221249Y1403750D02*
X2221249Y1403750D01*
X2269794Y1403750D01*
X2268175Y1395610D01*
X2263811Y1385073D01*
X2257474Y1375591D01*
X2249409Y1367525D01*
X2239926Y1361189D01*
X2229389Y1356825D01*
X2221249Y1355206D01*
X2221249Y1403750D01*
G37*
%LPD*%
%LPC*%
G36*
X3342706Y1258749D02*
X3342706Y1258749D01*
X3344325Y1266889D01*
X3348689Y1277426D01*
X3355025Y1286909D01*
X3363091Y1294974D01*
X3372573Y1301311D01*
X3383110Y1305675D01*
X3391250Y1307294D01*
X3391250Y1258749D01*
X3342706Y1258749D01*
G37*
%LPD*%
%LPC*%
G36*
X108749Y1241250D02*
X108749Y1241250D01*
X157294Y1241250D01*
X155675Y1233110D01*
X151311Y1222573D01*
X144974Y1213091D01*
X136909Y1205025D01*
X127426Y1198689D01*
X116889Y1194325D01*
X108749Y1192706D01*
X108749Y1241250D01*
G37*
%LPD*%
%LPC*%
G36*
X1305206Y1171249D02*
X1305206Y1171249D01*
X1306825Y1179389D01*
X1311189Y1189926D01*
X1317525Y1199409D01*
X1325591Y1207474D01*
X1335073Y1213811D01*
X1345610Y1218175D01*
X1353750Y1219794D01*
X1353750Y1171249D01*
X1305206Y1171249D01*
G37*
%LPD*%
%LPC*%
G36*
X2758749Y3391250D02*
X2758749Y3391250D01*
X2807294Y3391250D01*
X2805675Y3383110D01*
X2801311Y3372573D01*
X2794974Y3363091D01*
X2786909Y3355025D01*
X2777426Y3348689D01*
X2766889Y3344325D01*
X2758749Y3342706D01*
X2758749Y3391250D01*
G37*
%LPD*%
%LPC*%
G36*
X3342706Y758749D02*
X3342706Y758749D01*
X3344325Y766889D01*
X3348689Y777426D01*
X3355025Y786909D01*
X3363091Y794974D01*
X3372573Y801311D01*
X3383110Y805675D01*
X3391250Y807294D01*
X3391250Y758749D01*
X3342706Y758749D01*
G37*
%LPD*%
%LPC*%
G36*
X108749Y741250D02*
X108749Y741250D01*
X157294Y741250D01*
X155675Y733110D01*
X151311Y722573D01*
X144974Y713091D01*
X136909Y705025D01*
X127426Y698689D01*
X116889Y694325D01*
X108749Y692706D01*
X108749Y741250D01*
G37*
%LPD*%
%LPC*%
G36*
X2258749Y3391250D02*
X2258749Y3391250D01*
X2307294Y3391250D01*
X2305675Y3383110D01*
X2301311Y3372573D01*
X2294974Y3363091D01*
X2286909Y3355025D01*
X2277426Y3348689D01*
X2266889Y3344325D01*
X2258749Y3342706D01*
X2258749Y3391250D01*
G37*
%LPD*%
%LPC*%
G36*
X1758749Y3391250D02*
X1758749Y3391250D01*
X1807294Y3391250D01*
X1805675Y3383110D01*
X1801311Y3372573D01*
X1794974Y3363091D01*
X1786909Y3355025D01*
X1777426Y3348689D01*
X1766889Y3344325D01*
X1758749Y3342706D01*
X1758749Y3391250D01*
G37*
%LPD*%
%LPC*%
G36*
X1258749Y3391250D02*
X1258749Y3391250D01*
X1307294Y3391250D01*
X1305675Y3383110D01*
X1301311Y3372573D01*
X1294974Y3363091D01*
X1286909Y3355025D01*
X1277426Y3348689D01*
X1266889Y3344325D01*
X1258749Y3342706D01*
X1258749Y3391250D01*
G37*
%LPD*%
%LPC*%
G36*
X1371249Y1153750D02*
X1371249Y1153750D01*
X1419794Y1153750D01*
X1418175Y1145610D01*
X1413811Y1135073D01*
X1407474Y1125591D01*
X1399409Y1117525D01*
X1389926Y1111189D01*
X1379389Y1106825D01*
X1371249Y1105206D01*
X1371249Y1153750D01*
G37*
%LPD*%
%LPC*%
G36*
X758749Y3391250D02*
X758749Y3391250D01*
X807294Y3391250D01*
X805675Y3383110D01*
X801311Y3372573D01*
X794974Y3363091D01*
X786909Y3355025D01*
X777426Y3348689D01*
X766889Y3344325D01*
X758749Y3342706D01*
X758749Y3391250D01*
G37*
%LPD*%
%LPC*%
G36*
X3342706Y2758749D02*
X3342706Y2758749D01*
X3344325Y2766889D01*
X3348689Y2777426D01*
X3355025Y2786909D01*
X3363091Y2794974D01*
X3372573Y2801311D01*
X3383110Y2805675D01*
X3391250Y2807294D01*
X3391250Y2758749D01*
X3342706Y2758749D01*
G37*
%LPD*%
%LPC*%
G36*
X108749Y2741250D02*
X108749Y2741250D01*
X157294Y2741250D01*
X155675Y2733110D01*
X151311Y2722573D01*
X144974Y2713091D01*
X136909Y2705025D01*
X127426Y2698689D01*
X116889Y2694325D01*
X108749Y2692706D01*
X108749Y2741250D01*
G37*
%LPD*%
%LPC*%
G36*
X3342706Y2258749D02*
X3342706Y2258749D01*
X3344325Y2266889D01*
X3348689Y2277426D01*
X3355025Y2286909D01*
X3363091Y2294974D01*
X3372573Y2301311D01*
X3383110Y2305675D01*
X3391250Y2307294D01*
X3391250Y2258749D01*
X3342706Y2258749D01*
G37*
%LPD*%
%LPC*%
G36*
X108749Y2241250D02*
X108749Y2241250D01*
X157294Y2241250D01*
X155675Y2233110D01*
X151311Y2222573D01*
X144974Y2213091D01*
X136909Y2205025D01*
X127426Y2198689D01*
X116889Y2194325D01*
X108749Y2192706D01*
X108749Y2241250D01*
G37*
%LPD*%
%LPC*%
G36*
X692706Y108749D02*
X692706Y108749D01*
X694325Y116889D01*
X698689Y127426D01*
X705025Y136909D01*
X713091Y144974D01*
X722573Y151311D01*
X733110Y155675D01*
X741250Y157294D01*
X741250Y108749D01*
X692706Y108749D01*
G37*
%LPD*%
%LPC*%
G36*
X1192706Y108749D02*
X1192706Y108749D01*
X1194325Y116889D01*
X1198689Y127426D01*
X1205025Y136909D01*
X1213091Y144974D01*
X1222573Y151311D01*
X1233110Y155675D01*
X1241250Y157294D01*
X1241250Y108749D01*
X1192706Y108749D01*
G37*
%LPD*%
%LPC*%
G36*
X1692706Y108749D02*
X1692706Y108749D01*
X1694325Y116889D01*
X1698689Y127426D01*
X1705025Y136909D01*
X1713091Y144974D01*
X1722573Y151311D01*
X1733110Y155675D01*
X1741250Y157294D01*
X1741250Y108749D01*
X1692706Y108749D01*
G37*
%LPD*%
%LPC*%
G36*
X2192706Y108749D02*
X2192706Y108749D01*
X2194325Y116889D01*
X2198689Y127426D01*
X2205025Y136909D01*
X2213091Y144974D01*
X2222573Y151311D01*
X2233110Y155675D01*
X2241250Y157294D01*
X2241250Y108749D01*
X2192706Y108749D01*
G37*
%LPD*%
%LPC*%
G36*
X2692706Y108749D02*
X2692706Y108749D01*
X2694325Y116889D01*
X2698689Y127426D01*
X2705025Y136909D01*
X2713091Y144974D01*
X2722573Y151311D01*
X2733110Y155675D01*
X2741250Y157294D01*
X2741250Y108749D01*
X2692706Y108749D01*
G37*
%LPD*%
%LPC*%
G36*
X3383110Y694325D02*
X3383110Y694325D01*
X3372573Y698689D01*
X3363091Y705025D01*
X3355025Y713091D01*
X3348689Y722573D01*
X3344325Y733110D01*
X3342706Y741250D01*
X3391250Y741250D01*
X3391250Y692706D01*
X3383110Y694325D01*
G37*
%LPD*%
%LPC*%
G36*
X1233110Y3344325D02*
X1233110Y3344325D01*
X1222573Y3348689D01*
X1213091Y3355025D01*
X1205025Y3363091D01*
X1198689Y3372573D01*
X1194325Y3383110D01*
X1192706Y3391250D01*
X1241250Y3391250D01*
X1241250Y3342706D01*
X1233110Y3344325D01*
G37*
%LPD*%
%LPC*%
G36*
X3383110Y2694325D02*
X3383110Y2694325D01*
X3372573Y2698689D01*
X3363091Y2705025D01*
X3355025Y2713091D01*
X3348689Y2722573D01*
X3344325Y2733110D01*
X3342706Y2741250D01*
X3391250Y2741250D01*
X3391250Y2692706D01*
X3383110Y2694325D01*
G37*
%LPD*%
%LPC*%
G36*
X2195610Y1356825D02*
X2195610Y1356825D01*
X2185073Y1361189D01*
X2175591Y1367525D01*
X2167525Y1375591D01*
X2161189Y1385073D01*
X2156825Y1395610D01*
X2155206Y1403750D01*
X2203750Y1403750D01*
X2203750Y1355206D01*
X2195610Y1356825D01*
G37*
%LPD*%
%LPC*%
G36*
X2445610Y1856825D02*
X2445610Y1856825D01*
X2435073Y1861189D01*
X2425591Y1867525D01*
X2417525Y1875591D01*
X2411189Y1885073D01*
X2406825Y1895610D01*
X2405206Y1903750D01*
X2453750Y1903750D01*
X2453750Y1855206D01*
X2445610Y1856825D01*
G37*
%LPD*%
%LPC*%
G36*
X733110Y3344325D02*
X733110Y3344325D01*
X722573Y3348689D01*
X713091Y3355025D01*
X705025Y3363091D01*
X698689Y3372573D01*
X694325Y3383110D01*
X692706Y3391250D01*
X741250Y3391250D01*
X741250Y3342706D01*
X733110Y3344325D01*
G37*
%LPD*%
%LPC*%
G36*
X3383110Y1194325D02*
X3383110Y1194325D01*
X3372573Y1198689D01*
X3363091Y1205025D01*
X3355025Y1213091D01*
X3348689Y1222573D01*
X3344325Y1233110D01*
X3342706Y1241250D01*
X3391250Y1241250D01*
X3391250Y1192706D01*
X3383110Y1194325D01*
G37*
%LPD*%
%LPC*%
G36*
X1733110Y3344325D02*
X1733110Y3344325D01*
X1722573Y3348689D01*
X1713091Y3355025D01*
X1705025Y3363091D01*
X1698689Y3372573D01*
X1694325Y3383110D01*
X1692706Y3391250D01*
X1741250Y3391250D01*
X1741250Y3342706D01*
X1733110Y3344325D01*
G37*
%LPD*%
%LPC*%
G36*
X1345610Y1106825D02*
X1345610Y1106825D01*
X1335073Y1111189D01*
X1325591Y1117525D01*
X1317525Y1125591D01*
X1311189Y1135073D01*
X1306825Y1145610D01*
X1305206Y1153750D01*
X1353750Y1153750D01*
X1353750Y1105206D01*
X1345610Y1106825D01*
G37*
%LPD*%
%LPC*%
G36*
X2233110Y3344325D02*
X2233110Y3344325D01*
X2222573Y3348689D01*
X2213091Y3355025D01*
X2205025Y3363091D01*
X2198689Y3372573D01*
X2194325Y3383110D01*
X2192706Y3391250D01*
X2241250Y3391250D01*
X2241250Y3342706D01*
X2233110Y3344325D01*
G37*
%LPD*%
%LPC*%
G36*
X2733110Y3344325D02*
X2733110Y3344325D01*
X2722573Y3348689D01*
X2713091Y3355025D01*
X2705025Y3363091D01*
X2698689Y3372573D01*
X2694325Y3383110D01*
X2692706Y3391250D01*
X2741250Y3391250D01*
X2741250Y3342706D01*
X2733110Y3344325D01*
G37*
%LPD*%
%LPC*%
G36*
X3383110Y1694325D02*
X3383110Y1694325D01*
X3372573Y1698689D01*
X3363091Y1705025D01*
X3355025Y1713091D01*
X3348689Y1722573D01*
X3344325Y1733110D01*
X3342706Y1741250D01*
X3391250Y1741250D01*
X3391250Y1692706D01*
X3383110Y1694325D01*
G37*
%LPD*%
%LPC*%
G36*
X3383110Y2194325D02*
X3383110Y2194325D01*
X3372573Y2198689D01*
X3363091Y2205025D01*
X3355025Y2213091D01*
X3348689Y2222573D01*
X3344325Y2233110D01*
X3342706Y2241250D01*
X3391250Y2241250D01*
X3391250Y2192706D01*
X3383110Y2194325D01*
G37*
%LPD*%
%LPC*%
G36*
X1619248Y3111498D02*
X1619248Y3111498D01*
X1619248Y3111502D01*
X1619252Y3111502D01*
X1619252Y3111498D01*
X1619248Y3111498D01*
G37*
%LPD*%
%LPC*%
G36*
X3199998Y299998D02*
X3199998Y299998D01*
X3199998Y300002D01*
X3200002Y300002D01*
X3200002Y299998D01*
X3199998Y299998D01*
G37*
%LPD*%
%LPC*%
G36*
X299998Y3199998D02*
X299998Y3199998D01*
X299998Y3200002D01*
X300002Y3200002D01*
X300002Y3199998D01*
X299998Y3199998D01*
G37*
%LPD*%
%LPC*%
G36*
X2601998Y3099998D02*
X2601998Y3099998D01*
X2601998Y3100002D01*
X2602002Y3100002D01*
X2602002Y3099998D01*
X2601998Y3099998D01*
G37*
%LPD*%
D10*
X100Y3199800D02*
X100Y299800D01*
X188Y292551D01*
X450Y285306D01*
X888Y278070D01*
X1501Y270846D01*
X2287Y263639D01*
X3248Y256453D01*
X4382Y249293D01*
X5689Y242162D01*
X7168Y235065D01*
X8817Y228005D01*
X10637Y220988D01*
X12626Y214016D01*
X14783Y207095D01*
X17106Y200228D01*
X19595Y193419D01*
X22248Y186672D01*
X25062Y179991D01*
X28038Y173380D01*
X31172Y166843D01*
X34463Y160383D01*
X37910Y154005D01*
X41509Y147712D01*
X45260Y141508D01*
X49159Y135396D01*
X53205Y129381D01*
X57395Y123464D01*
X61727Y117651D01*
X66198Y111944D01*
X70805Y106347D01*
X75547Y100863D01*
X80419Y95495D01*
X85420Y90247D01*
X90547Y85120D01*
X95795Y80119D01*
X101163Y75247D01*
X106647Y70505D01*
X112244Y65898D01*
X117951Y61427D01*
X123764Y57095D01*
X129681Y52905D01*
X135696Y48859D01*
X141808Y44960D01*
X148012Y41209D01*
X154305Y37610D01*
X160683Y34163D01*
X167143Y30872D01*
X173680Y27738D01*
X180291Y24762D01*
X186972Y21948D01*
X193719Y19295D01*
X200528Y16806D01*
X207395Y14483D01*
X214316Y12326D01*
X221288Y10337D01*
X228305Y8517D01*
X235365Y6868D01*
X242462Y5389D01*
X249593Y4082D01*
X256753Y2948D01*
X263939Y1987D01*
X271146Y1201D01*
X278370Y588D01*
X285606Y150D01*
X292851Y-112D01*
X300100Y-200D01*
X3200100Y-200D01*
X3207349Y-112D01*
X3214594Y150D01*
X3221830Y588D01*
X3229054Y1201D01*
X3236261Y1987D01*
X3243447Y2948D01*
X3250607Y4082D01*
X3257738Y5389D01*
X3264835Y6868D01*
X3271895Y8517D01*
X3278912Y10337D01*
X3285884Y12326D01*
X3292805Y14483D01*
X3299672Y16806D01*
X3306481Y19295D01*
X3313228Y21948D01*
X3319909Y24762D01*
X3326520Y27738D01*
X3333057Y30872D01*
X3339517Y34163D01*
X3345895Y37610D01*
X3352188Y41209D01*
X3358392Y44960D01*
X3364504Y48859D01*
X3370519Y52905D01*
X3376436Y57095D01*
X3382249Y61427D01*
X3387956Y65898D01*
X3393553Y70505D01*
X3399037Y75247D01*
X3404405Y80119D01*
X3409653Y85120D01*
X3414780Y90247D01*
X3419781Y95495D01*
X3424653Y100863D01*
X3429395Y106347D01*
X3434002Y111944D01*
X3438473Y117651D01*
X3442805Y123464D01*
X3446995Y129381D01*
X3451041Y135396D01*
X3454940Y141508D01*
X3458691Y147712D01*
X3462290Y154005D01*
X3465737Y160383D01*
X3469028Y166843D01*
X3472162Y173380D01*
X3475138Y179991D01*
X3477952Y186672D01*
X3480605Y193419D01*
X3483094Y200228D01*
X3485417Y207095D01*
X3487574Y214016D01*
X3489563Y220988D01*
X3491383Y228005D01*
X3493032Y235065D01*
X3494511Y242162D01*
X3495818Y249293D01*
X3496952Y256453D01*
X3497913Y263639D01*
X3498699Y270846D01*
X3499312Y278070D01*
X3499750Y285306D01*
X3500012Y292551D01*
X3500100Y299800D01*
X3500100Y3199800D01*
X3500012Y3207049D01*
X3499750Y3214294D01*
X3499312Y3221530D01*
X3498699Y3228754D01*
X3497913Y3235961D01*
X3496952Y3243147D01*
X3495818Y3250307D01*
X3494511Y3257438D01*
X3493032Y3264535D01*
X3491383Y3271595D01*
X3489563Y3278612D01*
X3487574Y3285584D01*
X3485417Y3292505D01*
X3483094Y3299372D01*
X3480605Y3306181D01*
X3477952Y3312928D01*
X3475138Y3319609D01*
X3472162Y3326220D01*
X3469028Y3332757D01*
X3465737Y3339217D01*
X3462290Y3345595D01*
X3458691Y3351888D01*
X3454940Y3358092D01*
X3451041Y3364204D01*
X3446995Y3370219D01*
X3442805Y3376136D01*
X3438473Y3381949D01*
X3434002Y3387656D01*
X3429395Y3393253D01*
X3424653Y3398737D01*
X3419781Y3404105D01*
X3414780Y3409353D01*
X3409653Y3414480D01*
X3404405Y3419481D01*
X3399037Y3424353D01*
X3393553Y3429095D01*
X3387956Y3433702D01*
X3382249Y3438173D01*
X3376436Y3442505D01*
X3370519Y3446695D01*
X3364504Y3450741D01*
X3358392Y3454640D01*
X3352188Y3458391D01*
X3345895Y3461990D01*
X3339517Y3465437D01*
X3333057Y3468728D01*
X3326520Y3471862D01*
X3319909Y3474838D01*
X3313228Y3477652D01*
X3306481Y3480305D01*
X3299672Y3482794D01*
X3292805Y3485117D01*
X3285884Y3487274D01*
X3278912Y3489263D01*
X3271895Y3491083D01*
X3264835Y3492732D01*
X3257738Y3494211D01*
X3250607Y3495518D01*
X3243447Y3496652D01*
X3236261Y3497613D01*
X3229054Y3498399D01*
X3221830Y3499012D01*
X3214594Y3499450D01*
X3207349Y3499712D01*
X3200100Y3499800D01*
X300100Y3499800D01*
X292851Y3499712D01*
X285606Y3499450D01*
X278370Y3499012D01*
X271146Y3498399D01*
X263939Y3497613D01*
X256753Y3496652D01*
X249593Y3495518D01*
X242462Y3494211D01*
X235365Y3492732D01*
X228305Y3491083D01*
X221288Y3489263D01*
X214316Y3487274D01*
X207395Y3485117D01*
X200528Y3482794D01*
X193719Y3480305D01*
X186972Y3477652D01*
X180291Y3474838D01*
X173680Y3471862D01*
X167143Y3468728D01*
X160683Y3465437D01*
X154305Y3461990D01*
X148012Y3458391D01*
X141808Y3454640D01*
X135696Y3450741D01*
X129681Y3446695D01*
X123764Y3442505D01*
X117951Y3438173D01*
X112244Y3433702D01*
X106647Y3429095D01*
X101163Y3424353D01*
X95795Y3419481D01*
X90547Y3414480D01*
X85420Y3409353D01*
X80419Y3404105D01*
X75547Y3398737D01*
X70805Y3393253D01*
X66198Y3387656D01*
X61727Y3381949D01*
X57395Y3376136D01*
X53205Y3370219D01*
X49159Y3364204D01*
X45260Y3358092D01*
X41509Y3351888D01*
X37910Y3345595D01*
X34463Y3339217D01*
X31172Y3332757D01*
X28038Y3326220D01*
X25062Y3319609D01*
X22248Y3312928D01*
X19595Y3306181D01*
X17106Y3299372D01*
X14783Y3292505D01*
X12626Y3285584D01*
X10637Y3278612D01*
X8817Y3271595D01*
X7168Y3264535D01*
X5689Y3257438D01*
X4382Y3250307D01*
X3248Y3243147D01*
X2287Y3235961D01*
X1501Y3228754D01*
X888Y3221530D01*
X450Y3214294D01*
X188Y3207049D01*
X100Y3199800D01*
D11*
X1750000Y2738000D03*
X1845000Y2738000D03*
X1655000Y2738000D03*
X1655000Y2508000D03*
X1845000Y2508000D03*
D12*
X1958000Y1800000D03*
D13*
X1948000Y1850000D03*
X1948000Y1900000D03*
X1948000Y1950000D03*
X1948000Y2000000D03*
X1948000Y2050000D03*
D12*
X1958000Y2100000D03*
D14*
X1900000Y2158000D03*
D15*
X1850000Y2148000D03*
X1800000Y2148000D03*
X1750000Y2148000D03*
X1700000Y2148000D03*
X1650000Y2148000D03*
D14*
X1600000Y2158000D03*
D12*
X1542000Y2100000D03*
D13*
X1552000Y2050000D03*
X1552000Y2000000D03*
X1552000Y1950000D03*
X1552000Y1900000D03*
X1552000Y1850000D03*
D12*
X1542000Y1800000D03*
D14*
X1600000Y1742000D03*
D15*
X1650000Y1752000D03*
X1700000Y1752000D03*
X1750000Y1752000D03*
X1800000Y1752000D03*
X1850000Y1752000D03*
D14*
X1900000Y1742000D03*
D16*
X788500Y2356500D03*
X853500Y2356500D03*
X918500Y2356500D03*
X983500Y2356500D03*
X983500Y2611500D03*
X918500Y2611500D03*
X853500Y2611500D03*
X788500Y2611500D03*
D17*
X1016000Y3035300D02*
X1016000Y3187700D01*
X762000Y3187700D02*
X762000Y3035300D01*
X1873250Y3035300D02*
X1873250Y3187700D01*
X1619250Y3187700D02*
X1619250Y3035300D01*
X1136000Y601200D02*
X1136000Y448800D01*
X1390000Y448800D02*
X1390000Y601200D01*
X1644000Y601200D02*
X1644000Y448800D01*
X1898000Y448800D02*
X1898000Y601200D01*
X2152000Y601200D02*
X2152000Y448800D01*
X2406000Y448800D02*
X2406000Y601200D01*
X2660000Y601200D02*
X2660000Y448800D01*
X2914000Y448800D02*
X2914000Y601200D01*
X2873800Y861000D02*
X3026200Y861000D01*
X3026200Y1115000D02*
X2873800Y1115000D01*
X2873800Y1369000D02*
X3026200Y1369000D01*
X3026200Y1623000D02*
X2873800Y1623000D01*
X2873800Y1877000D02*
X3026200Y1877000D01*
X3026200Y2131000D02*
X2873800Y2131000D01*
X2873800Y2385000D02*
X3026200Y2385000D01*
X3026200Y2639000D02*
X2873800Y2639000D01*
X2873800Y2898000D02*
X3026200Y2898000D01*
X3026200Y3152000D02*
X2873800Y3152000D01*
X2602000Y3176200D02*
X2602000Y3023800D01*
X2348000Y3023800D02*
X2348000Y3176200D01*
D18*
X396500Y1081000D03*
X803500Y1081000D03*
X396500Y954000D03*
X803500Y954000D03*
X396500Y827000D03*
X803500Y827000D03*
X396500Y700000D03*
X803500Y700000D03*
X396500Y573000D03*
X803500Y573000D03*
X396500Y446000D03*
X803500Y446000D03*
X396500Y319000D03*
X803500Y319000D03*
D10*
X549000Y1017500D02*
X549015Y1018752D01*
X549061Y1020002D01*
X549138Y1021252D01*
X549246Y1022499D01*
X549384Y1023743D01*
X549552Y1024983D01*
X549751Y1026219D01*
X549980Y1027450D01*
X550239Y1028674D01*
X550528Y1029892D01*
X550847Y1031102D01*
X551196Y1032305D01*
X551574Y1033498D01*
X551981Y1034681D01*
X552417Y1035855D01*
X552882Y1037017D01*
X553375Y1038167D01*
X553897Y1039305D01*
X554446Y1040430D01*
X555022Y1041541D01*
X555626Y1042638D01*
X556256Y1043719D01*
X556912Y1044785D01*
X557595Y1045834D01*
X558303Y1046866D01*
X559036Y1047881D01*
X559794Y1048877D01*
X560576Y1049854D01*
X561382Y1050812D01*
X562211Y1051750D01*
X563063Y1052667D01*
X563938Y1053562D01*
X564833Y1054437D01*
X565750Y1055289D01*
X566688Y1056118D01*
X567646Y1056924D01*
X568623Y1057706D01*
X569619Y1058464D01*
X570634Y1059197D01*
X571666Y1059905D01*
X572715Y1060588D01*
X573781Y1061244D01*
X574862Y1061874D01*
X575959Y1062478D01*
X577070Y1063054D01*
X578195Y1063603D01*
X579333Y1064125D01*
X580483Y1064618D01*
X581645Y1065083D01*
X582819Y1065519D01*
X584002Y1065926D01*
X585195Y1066304D01*
X586398Y1066653D01*
X587608Y1066972D01*
X588826Y1067261D01*
X590050Y1067520D01*
X591281Y1067749D01*
X592517Y1067948D01*
X593757Y1068116D01*
X595001Y1068254D01*
X596248Y1068362D01*
X597498Y1068439D01*
X598748Y1068485D01*
X600000Y1068500D01*
X601252Y1068485D01*
X602502Y1068439D01*
X603752Y1068362D01*
X604999Y1068254D01*
X606243Y1068116D01*
X607483Y1067948D01*
X608719Y1067749D01*
X609950Y1067520D01*
X611174Y1067261D01*
X612392Y1066972D01*
X613602Y1066653D01*
X614805Y1066304D01*
X615998Y1065926D01*
X617181Y1065519D01*
X618355Y1065083D01*
X619517Y1064618D01*
X620667Y1064125D01*
X621805Y1063603D01*
X622930Y1063054D01*
X624041Y1062478D01*
X625138Y1061874D01*
X626219Y1061244D01*
X627285Y1060588D01*
X628334Y1059905D01*
X629366Y1059197D01*
X630381Y1058464D01*
X631377Y1057706D01*
X632354Y1056924D01*
X633312Y1056118D01*
X634250Y1055289D01*
X635167Y1054437D01*
X636062Y1053562D01*
X636937Y1052667D01*
X637789Y1051750D01*
X638618Y1050812D01*
X639424Y1049854D01*
X640206Y1048877D01*
X640964Y1047881D01*
X641697Y1046866D01*
X642405Y1045834D01*
X643088Y1044785D01*
X643744Y1043719D01*
X644374Y1042638D01*
X644978Y1041541D01*
X645554Y1040430D01*
X646103Y1039305D01*
X646625Y1038167D01*
X647118Y1037017D01*
X647583Y1035855D01*
X648019Y1034681D01*
X648426Y1033498D01*
X648804Y1032305D01*
X649153Y1031102D01*
X649472Y1029892D01*
X649761Y1028674D01*
X650020Y1027450D01*
X650249Y1026219D01*
X650448Y1024983D01*
X650616Y1023743D01*
X650754Y1022499D01*
X650862Y1021252D01*
X650939Y1020002D01*
X650985Y1018752D01*
X651000Y1017500D01*
X650985Y1016248D01*
X650939Y1014998D01*
X650862Y1013748D01*
X650754Y1012501D01*
X650616Y1011257D01*
X650448Y1010017D01*
X650249Y1008781D01*
X650020Y1007550D01*
X649761Y1006326D01*
X649472Y1005108D01*
X649153Y1003898D01*
X648804Y1002695D01*
X648426Y1001502D01*
X648019Y1000319D01*
X647583Y999145D01*
X647118Y997983D01*
X646625Y996833D01*
X646103Y995695D01*
X645554Y994570D01*
X644978Y993459D01*
X644374Y992362D01*
X643744Y991281D01*
X643088Y990215D01*
X642405Y989166D01*
X641697Y988134D01*
X640964Y987119D01*
X640206Y986123D01*
X639424Y985146D01*
X638618Y984188D01*
X637789Y983250D01*
X636937Y982333D01*
X636062Y981438D01*
X635167Y980563D01*
X634250Y979711D01*
X633312Y978882D01*
X632354Y978076D01*
X631377Y977294D01*
X630381Y976536D01*
X629366Y975803D01*
X628334Y975095D01*
X627285Y974412D01*
X626219Y973756D01*
X625138Y973126D01*
X624041Y972522D01*
X622930Y971946D01*
X621805Y971397D01*
X620667Y970875D01*
X619517Y970382D01*
X618355Y969917D01*
X617181Y969481D01*
X615998Y969074D01*
X614805Y968696D01*
X613602Y968347D01*
X612392Y968028D01*
X611174Y967739D01*
X609950Y967480D01*
X608719Y967251D01*
X607483Y967052D01*
X606243Y966884D01*
X604999Y966746D01*
X603752Y966638D01*
X602502Y966561D01*
X601252Y966515D01*
X600000Y966500D01*
X598748Y966515D01*
X597498Y966561D01*
X596248Y966638D01*
X595001Y966746D01*
X593757Y966884D01*
X592517Y967052D01*
X591281Y967251D01*
X590050Y967480D01*
X588826Y967739D01*
X587608Y968028D01*
X586398Y968347D01*
X585195Y968696D01*
X584002Y969074D01*
X582819Y969481D01*
X581645Y969917D01*
X580483Y970382D01*
X579333Y970875D01*
X578195Y971397D01*
X577070Y971946D01*
X575959Y972522D01*
X574862Y973126D01*
X573781Y973756D01*
X572715Y974412D01*
X571666Y975095D01*
X570634Y975803D01*
X569619Y976536D01*
X568623Y977294D01*
X567646Y978076D01*
X566688Y978882D01*
X565750Y979711D01*
X564833Y980563D01*
X563938Y981438D01*
X563063Y982333D01*
X562211Y983250D01*
X561382Y984188D01*
X560576Y985146D01*
X559794Y986123D01*
X559036Y987119D01*
X558303Y988134D01*
X557595Y989166D01*
X556912Y990215D01*
X556256Y991281D01*
X555626Y992362D01*
X555022Y993459D01*
X554446Y994570D01*
X553897Y995695D01*
X553375Y996833D01*
X552882Y997983D01*
X552417Y999145D01*
X551981Y1000319D01*
X551574Y1001502D01*
X551196Y1002695D01*
X550847Y1003898D01*
X550528Y1005108D01*
X550239Y1006326D01*
X549980Y1007550D01*
X549751Y1008781D01*
X549552Y1010017D01*
X549384Y1011257D01*
X549246Y1012501D01*
X549138Y1013748D01*
X549061Y1014998D01*
X549015Y1016248D01*
X549000Y1017500D01*
X549000Y382500D02*
X549015Y383752D01*
X549061Y385002D01*
X549138Y386252D01*
X549246Y387499D01*
X549384Y388743D01*
X549552Y389983D01*
X549751Y391219D01*
X549980Y392450D01*
X550239Y393674D01*
X550528Y394892D01*
X550847Y396102D01*
X551196Y397305D01*
X551574Y398498D01*
X551981Y399681D01*
X552417Y400855D01*
X552882Y402017D01*
X553375Y403167D01*
X553897Y404305D01*
X554446Y405430D01*
X555022Y406541D01*
X555626Y407638D01*
X556256Y408719D01*
X556912Y409785D01*
X557595Y410834D01*
X558303Y411866D01*
X559036Y412881D01*
X559794Y413877D01*
X560576Y414854D01*
X561382Y415812D01*
X562211Y416750D01*
X563063Y417667D01*
X563938Y418562D01*
X564833Y419437D01*
X565750Y420289D01*
X566688Y421118D01*
X567646Y421924D01*
X568623Y422706D01*
X569619Y423464D01*
X570634Y424197D01*
X571666Y424905D01*
X572715Y425588D01*
X573781Y426244D01*
X574862Y426874D01*
X575959Y427478D01*
X577070Y428054D01*
X578195Y428603D01*
X579333Y429125D01*
X580483Y429618D01*
X581645Y430083D01*
X582819Y430519D01*
X584002Y430926D01*
X585195Y431304D01*
X586398Y431653D01*
X587608Y431972D01*
X588826Y432261D01*
X590050Y432520D01*
X591281Y432749D01*
X592517Y432948D01*
X593757Y433116D01*
X595001Y433254D01*
X596248Y433362D01*
X597498Y433439D01*
X598748Y433485D01*
X600000Y433500D01*
X601252Y433485D01*
X602502Y433439D01*
X603752Y433362D01*
X604999Y433254D01*
X606243Y433116D01*
X607483Y432948D01*
X608719Y432749D01*
X609950Y432520D01*
X611174Y432261D01*
X612392Y431972D01*
X613602Y431653D01*
X614805Y431304D01*
X615998Y430926D01*
X617181Y430519D01*
X618355Y430083D01*
X619517Y429618D01*
X620667Y429125D01*
X621805Y428603D01*
X622930Y428054D01*
X624041Y427478D01*
X625138Y426874D01*
X626219Y426244D01*
X627285Y425588D01*
X628334Y424905D01*
X629366Y424197D01*
X630381Y423464D01*
X631377Y422706D01*
X632354Y421924D01*
X633312Y421118D01*
X634250Y420289D01*
X635167Y419437D01*
X636062Y418562D01*
X636937Y417667D01*
X637789Y416750D01*
X638618Y415812D01*
X639424Y414854D01*
X640206Y413877D01*
X640964Y412881D01*
X641697Y411866D01*
X642405Y410834D01*
X643088Y409785D01*
X643744Y408719D01*
X644374Y407638D01*
X644978Y406541D01*
X645554Y405430D01*
X646103Y404305D01*
X646625Y403167D01*
X647118Y402017D01*
X647583Y400855D01*
X648019Y399681D01*
X648426Y398498D01*
X648804Y397305D01*
X649153Y396102D01*
X649472Y394892D01*
X649761Y393674D01*
X650020Y392450D01*
X650249Y391219D01*
X650448Y389983D01*
X650616Y388743D01*
X650754Y387499D01*
X650862Y386252D01*
X650939Y385002D01*
X650985Y383752D01*
X651000Y382500D01*
X650985Y381248D01*
X650939Y379998D01*
X650862Y378748D01*
X650754Y377501D01*
X650616Y376257D01*
X650448Y375017D01*
X650249Y373781D01*
X650020Y372550D01*
X649761Y371326D01*
X649472Y370108D01*
X649153Y368898D01*
X648804Y367695D01*
X648426Y366502D01*
X648019Y365319D01*
X647583Y364145D01*
X647118Y362983D01*
X646625Y361833D01*
X646103Y360695D01*
X645554Y359570D01*
X644978Y358459D01*
X644374Y357362D01*
X643744Y356281D01*
X643088Y355215D01*
X642405Y354166D01*
X641697Y353134D01*
X640964Y352119D01*
X640206Y351123D01*
X639424Y350146D01*
X638618Y349188D01*
X637789Y348250D01*
X636937Y347333D01*
X636062Y346438D01*
X635167Y345563D01*
X634250Y344711D01*
X633312Y343882D01*
X632354Y343076D01*
X631377Y342294D01*
X630381Y341536D01*
X629366Y340803D01*
X628334Y340095D01*
X627285Y339412D01*
X626219Y338756D01*
X625138Y338126D01*
X624041Y337522D01*
X622930Y336946D01*
X621805Y336397D01*
X620667Y335875D01*
X619517Y335382D01*
X618355Y334917D01*
X617181Y334481D01*
X615998Y334074D01*
X614805Y333696D01*
X613602Y333347D01*
X612392Y333028D01*
X611174Y332739D01*
X609950Y332480D01*
X608719Y332251D01*
X607483Y332052D01*
X606243Y331884D01*
X604999Y331746D01*
X603752Y331638D01*
X602502Y331561D01*
X601252Y331515D01*
X600000Y331500D01*
X598748Y331515D01*
X597498Y331561D01*
X596248Y331638D01*
X595001Y331746D01*
X593757Y331884D01*
X592517Y332052D01*
X591281Y332251D01*
X590050Y332480D01*
X588826Y332739D01*
X587608Y333028D01*
X586398Y333347D01*
X585195Y333696D01*
X584002Y334074D01*
X582819Y334481D01*
X581645Y334917D01*
X580483Y335382D01*
X579333Y335875D01*
X578195Y336397D01*
X577070Y336946D01*
X575959Y337522D01*
X574862Y338126D01*
X573781Y338756D01*
X572715Y339412D01*
X571666Y340095D01*
X570634Y340803D01*
X569619Y341536D01*
X568623Y342294D01*
X567646Y343076D01*
X566688Y343882D01*
X565750Y344711D01*
X564833Y345563D01*
X563938Y346438D01*
X563063Y347333D01*
X562211Y348250D01*
X561382Y349188D01*
X560576Y350146D01*
X559794Y351123D01*
X559036Y352119D01*
X558303Y353134D01*
X557595Y354166D01*
X556912Y355215D01*
X556256Y356281D01*
X555626Y357362D01*
X555022Y358459D01*
X554446Y359570D01*
X553897Y360695D01*
X553375Y361833D01*
X552882Y362983D01*
X552417Y364145D01*
X551981Y365319D01*
X551574Y366502D01*
X551196Y367695D01*
X550847Y368898D01*
X550528Y370108D01*
X550239Y371326D01*
X549980Y372550D01*
X549751Y373781D01*
X549552Y375017D01*
X549384Y376257D01*
X549246Y377501D01*
X549138Y378748D01*
X549061Y379998D01*
X549015Y381248D01*
X549000Y382500D01*
D19*
X300000Y3200000D03*
X3200000Y300000D03*
D20*
X1750000Y2498000D03*
X1450000Y2025000D03*
D21*
X1549500Y2047500D02*
X1552000Y2050000D01*
X1549500Y2047500D02*
X1501038Y2047500D01*
X1478538Y2025000D02*
X1450000Y2025000D01*
X1478538Y2025000D02*
X1501038Y2047500D01*
D20*
X3400000Y1750000D03*
X100000Y1750000D03*
X100000Y1250000D03*
X100000Y750000D03*
X100000Y2250000D03*
X100000Y2750000D03*
X1750000Y100000D03*
X2250000Y100000D03*
X2750000Y100000D03*
X1250000Y100000D03*
X750000Y100000D03*
X3400000Y1250000D03*
X3400000Y750000D03*
X3400000Y2250000D03*
X3400000Y2750000D03*
X1750000Y3400000D03*
X2250000Y3400000D03*
X2750000Y3400000D03*
X1250000Y3400000D03*
X750000Y3400000D03*
X1450000Y2100000D03*
X1750000Y2748000D03*
X1650000Y2050000D03*
X2462500Y1912500D03*
X2212500Y1412500D03*
X1362500Y1162500D03*
D21*
X1552000Y2050000D02*
X1650000Y2050000D01*
D20*
X875000Y2475000D03*
D21*
X853500Y2453500D02*
X853500Y2356500D01*
X853500Y2453500D02*
X875000Y2475000D01*
D22*
X1655000Y2738000D02*
X1655000Y2867000D01*
X1845000Y2867000D02*
X1845000Y2738000D01*
X1845000Y2867000D02*
X1655000Y2867000D01*
D20*
X1875000Y2748000D03*
D22*
X1855000Y2748000D02*
X1845000Y2738000D01*
X1855000Y2748000D02*
X1875000Y2748000D01*
D21*
X853500Y2611500D02*
X853500Y3020000D01*
X762000Y3111500D01*
X918500Y3014000D02*
X918500Y2611500D01*
X918500Y3014000D02*
X1016000Y3111500D01*
D20*
X1875000Y2498000D03*
X912500Y2250000D03*
D21*
X918500Y2256000D02*
X918500Y2356500D01*
X918500Y2256000D02*
X912500Y2250000D01*
D20*
X1750000Y2000000D03*
D21*
X1948000Y2000000D01*
D20*
X1275000Y2025000D03*
D21*
X1350000Y1950000D02*
X1552000Y1950000D01*
X1350000Y1950000D02*
X1275000Y2025000D01*
X1552000Y2000000D02*
X1552000Y1950000D01*
X1845000Y2508000D02*
X1865000Y2508000D01*
X1875000Y2498000D01*
D20*
X373000Y960000D03*
D21*
X1845000Y2508000D02*
X2008000Y2508000D01*
X2348000Y2848000D02*
X2348000Y3100000D01*
X2348000Y2848000D02*
X2008000Y2508000D01*
X396500Y954000D02*
X379000Y954000D01*
X373000Y960000D01*
X1542000Y1800000D02*
X1550000Y1792000D01*
X1475000Y950000D02*
X807500Y950000D01*
X803500Y954000D01*
X1475000Y950000D02*
X1550000Y1025000D01*
X1550000Y1792000D01*
D20*
X2150000Y1975000D03*
D21*
X2123000Y1975000D01*
X2098000Y1950000D02*
X1948000Y1950000D01*
X2098000Y1950000D02*
X2123000Y1975000D01*
D20*
X800000Y450000D03*
D21*
X800000Y449500D02*
X803500Y446000D01*
X800000Y449500D02*
X800000Y450000D01*
X1600000Y1000000D02*
X1600000Y1742000D01*
X803500Y827000D02*
X805500Y825000D01*
X1425000Y825000D02*
X1600000Y1000000D01*
X1425000Y825000D02*
X805500Y825000D01*
X1075000Y1900000D02*
X1552000Y1900000D01*
X983500Y1991500D02*
X983500Y2356500D01*
X983500Y1991500D02*
X1075000Y1900000D01*
X798500Y2346500D02*
X788500Y2356500D01*
X798500Y2346500D02*
X798500Y2051500D01*
X1000000Y1850000D01*
X1552000Y1850000D01*
D20*
X1642000Y1850000D03*
D21*
X1650000Y1842000D02*
X1650000Y1752000D01*
X1650000Y1842000D02*
X1642000Y1850000D01*
D20*
X625000Y2475000D03*
D21*
X625000Y2525000D02*
X711500Y2611500D01*
X625000Y2525000D02*
X625000Y2475000D01*
X711500Y2611500D02*
X788500Y2611500D01*
X1948000Y2050000D02*
X2500000Y2050000D01*
X2575000Y1975000D01*
X2575000Y1175000D01*
X2939000Y850000D02*
X2950000Y861000D01*
X2939000Y850000D02*
X2900000Y850000D01*
X2575000Y1175000D01*
X2525000Y2100000D02*
X1958000Y2100000D01*
X2525000Y2100000D02*
X2625000Y2000000D01*
X2625000Y1350000D01*
X2860000Y1115000D02*
X2950000Y1115000D01*
X2860000Y1115000D02*
X2625000Y1350000D01*
X1908000Y2150000D02*
X1900000Y2158000D01*
X1908000Y2150000D02*
X2550000Y2150000D01*
X2675000Y2025000D01*
X2675000Y1575000D01*
X2881000Y1369000D02*
X2950000Y1369000D01*
X2881000Y1369000D02*
X2675000Y1575000D01*
X2725000Y1773000D02*
X2725000Y2050000D01*
X2875000Y1623000D02*
X2950000Y1623000D01*
X2875000Y1623000D02*
X2725000Y1773000D01*
X2725000Y2050000D02*
X2550000Y2225000D01*
X1850000Y2200000D02*
X1850000Y2148000D01*
X1850000Y2200000D02*
X1875000Y2225000D01*
X2550000Y2225000D01*
X1800000Y2225000D02*
X1800000Y2148000D01*
X1800000Y2225000D02*
X1850000Y2275000D01*
X2575000Y2275000D01*
X2775000Y2075000D02*
X2775000Y1977000D01*
X2875000Y1877000D02*
X2950000Y1877000D01*
X2875000Y1877000D02*
X2775000Y1977000D01*
X2775000Y2075000D02*
X2575000Y2275000D01*
X1752500Y2150500D02*
X1750000Y2148000D01*
X1752500Y2150500D02*
X1752500Y2252500D01*
X1825000Y2325000D01*
X2600000Y2325000D02*
X2800000Y2125000D01*
X2944000Y2125000D01*
X2950000Y2131000D01*
X2600000Y2325000D02*
X1825000Y2325000D01*
X1700000Y2275000D02*
X1700000Y2148000D01*
X1700000Y2275000D02*
X1800000Y2375000D01*
X2940000Y2375000D01*
X2950000Y2385000D01*
X1650000Y2350000D02*
X1650000Y2148000D01*
X1650000Y2350000D02*
X1675000Y2375000D01*
D20*
X1675000Y2375000D03*
D21*
X1600000Y2350000D02*
X1600000Y2158000D01*
X1600000Y2350000D02*
X1575000Y2375000D01*
D20*
X1575000Y2375000D03*
D21*
X1542000Y2308000D02*
X1542000Y2100000D01*
X1542000Y2308000D02*
X1475000Y2375000D01*
D20*
X1475000Y2375000D03*
D21*
X1700000Y1752000D02*
X1700000Y1025000D01*
X1450000Y775000D01*
X1211000Y775000D01*
X1136000Y700000D01*
X1136000Y525000D01*
X1750000Y1000000D02*
X1750000Y1752000D01*
X1750000Y1000000D02*
X1390000Y640000D01*
X1390000Y525000D01*
X1800000Y975000D02*
X1800000Y1752000D01*
X1800000Y975000D02*
X1644000Y819000D01*
X1644000Y525000D01*
X1850000Y573000D02*
X1898000Y525000D01*
X1850000Y573000D02*
X1850000Y1752000D01*
X2152000Y723000D02*
X2152000Y525000D01*
X2152000Y723000D02*
X1900000Y975000D01*
X1900000Y1742000D01*
X1950000Y1792000D02*
X1958000Y1800000D01*
X1950000Y1792000D02*
X1950000Y1000000D01*
X2175000Y775000D01*
X2406000Y694000D02*
X2406000Y525000D01*
X2325000Y775000D02*
X2175000Y775000D01*
X2325000Y775000D02*
X2406000Y694000D01*
X2475000Y1648000D02*
X2273000Y1850000D01*
X1948000Y1850000D01*
X2475000Y1648000D02*
X2475000Y935000D01*
X2660000Y750000D02*
X2660000Y525000D01*
X2660000Y750000D02*
X2475000Y935000D01*
X1950500Y1897500D02*
X1948000Y1900000D01*
X1950500Y1897500D02*
X2304780Y1897500D01*
X2525000Y1677280D01*
X2525000Y964000D01*
X2914000Y575000D02*
X2914000Y525000D01*
X2914000Y575000D02*
X2525000Y964000D01*
D20*
X375000Y700000D03*
X375000Y450000D03*
X375000Y825000D03*
M02*
