M48
;GenerationSoftware,Autodesk,EAGLE,9.4.0*%
;CreationDate,2019-06-09T18:19:37Z*%
FMAT,2
ICI,OFF
METRIC,TZ,000.00000
T2C0.35000
T1C0.60000
%
G90
M71
T1
X-1235000Y-215000
X300000Y1575000
X-1434000Y746000
X1275000Y-1050000
X-975000Y1300000
X-1075000Y-650000
X-1375000Y-800000
X-1275000Y-925000
X1581000Y-456000
X475000Y1475000
X402000Y-1132000
T2
X1218800Y400
X-870000Y-1258000
X625000Y-1450000
X-1210200Y1050400
X-1535200Y400400
X-1260200Y400
X-485200Y1075400
X1225000Y850000
X1050000Y1175000
X425000Y1100000
X-524200Y1418400
X-1485200Y-824600
X1700000Y-175000
X1400000Y-900000
X-1300000Y-1100000
X750000Y-1450000
X913000Y-1440000
X-1091000Y-1332000
X-781000Y-1360900
X-275000Y-1537000
X675000Y1070000
X477000Y-1260000
X405000Y-1490000
X1002000Y-770000
X1425000Y-375000
X-175000Y1700000
X175000Y1700000
X-1700000Y175000
X-1700000Y-175000
X1700000Y175000
X1325000Y-654000
X0Y-1250000
X925000Y-1150000
X25000Y-1541000
X250000Y-1150000
X-1350000Y-1025000
M30