G04 EAGLE Gerber RS-274X export*
G75*
%MOMM*%
%FSLAX35Y35*%
%LPD*%
%INsolder_mask_top*%
%IPPOS*%
%AMOC8*
5,1,8,0,0,1.08239X$1,22.5*%
G01*
%ADD10C,0.000000*%
%ADD11C,0.127000*%
%ADD12C,2.000000*%
%ADD13R,1.603200X1.603200*%
%ADD14R,1.203200X0.903200*%
%ADD15R,0.803200X1.403200*%
%ADD16R,0.753200X0.503200*%
%ADD17R,0.953200X0.503200*%
%ADD18R,0.503200X0.753200*%
%ADD19R,0.503200X0.953200*%
%ADD20R,0.653200X1.303200*%
%ADD21R,2.503200X1.703200*%
%ADD22R,0.663200X0.913200*%
%ADD23R,1.703200X1.153200*%
%ADD24R,0.653200X0.503200*%
%ADD25R,1.073200X0.433200*%
%ADD26R,1.703200X2.503200*%
%ADD27R,0.913200X0.663200*%
%ADD28R,3.203200X1.903200*%
%ADD29C,0.990600*%
%ADD30C,1.193800*%
%ADD31C,1.727200*%
%ADD32C,3.719200*%
%ADD33C,0.953200*%


D10*
X3200117Y3499817D02*
X300026Y3499983D01*
X300025Y3499983D02*
X292739Y3499885D01*
X285456Y3499610D01*
X278183Y3499159D01*
X270922Y3498531D01*
X263679Y3497728D01*
X256457Y3496749D01*
X249262Y3495595D01*
X242096Y3494267D01*
X234965Y3492766D01*
X227872Y3491092D01*
X220822Y3489247D01*
X213819Y3487231D01*
X206867Y3485046D01*
X199969Y3482693D01*
X193131Y3480173D01*
X186356Y3477489D01*
X179648Y3474640D01*
X173011Y3471630D01*
X166449Y3468460D01*
X159966Y3465132D01*
X153566Y3461647D01*
X147252Y3458008D01*
X141028Y3454218D01*
X134898Y3450277D01*
X128865Y3446189D01*
X122933Y3441955D01*
X117105Y3437579D01*
X111386Y3433063D01*
X105777Y3428410D01*
X100284Y3423622D01*
X94907Y3418702D01*
X89652Y3413653D01*
X84521Y3408478D01*
X79517Y3403180D01*
X74642Y3397763D01*
X69901Y3392229D01*
X65295Y3386581D01*
X60827Y3380824D01*
X56501Y3374959D01*
X52318Y3368992D01*
X48281Y3362925D01*
X44392Y3356761D01*
X40654Y3350506D01*
X37068Y3344161D01*
X33638Y3337731D01*
X30364Y3331220D01*
X27250Y3324632D01*
X24296Y3317970D01*
X21504Y3311238D01*
X18877Y3304441D01*
X16415Y3297581D01*
X14121Y3290665D01*
X11994Y3283694D01*
X10038Y3276674D01*
X8252Y3269609D01*
X6638Y3262502D01*
X5197Y3255358D01*
X3930Y3248182D01*
X2837Y3240977D01*
X1919Y3233747D01*
X1177Y3226497D01*
X611Y3219232D01*
X221Y3211955D01*
X8Y3204670D01*
X8Y3204671D02*
X92Y295129D01*
X91Y295129D02*
X238Y287825D01*
X565Y280527D01*
X1070Y273238D01*
X1754Y265965D01*
X2616Y258710D01*
X3656Y251478D01*
X4873Y244275D01*
X6267Y237103D01*
X7836Y229968D01*
X9580Y222873D01*
X11498Y215824D01*
X13587Y208823D01*
X15848Y201876D01*
X18279Y194986D01*
X20878Y188159D01*
X23644Y181397D01*
X26575Y174705D01*
X29670Y168086D01*
X32926Y161546D01*
X36341Y155088D01*
X39914Y148715D01*
X43642Y142432D01*
X47523Y136243D01*
X51555Y130150D01*
X55736Y124159D01*
X60062Y118271D01*
X64531Y112492D01*
X69141Y106824D01*
X73888Y101271D01*
X78770Y95836D01*
X83785Y90523D01*
X88928Y85334D01*
X94197Y80273D01*
X99588Y75343D01*
X105099Y70546D01*
X110726Y65887D01*
X116465Y61366D01*
X122314Y56988D01*
X128268Y52755D01*
X134325Y48670D01*
X140480Y44734D01*
X146730Y40950D01*
X153070Y37321D01*
X159498Y33848D01*
X166009Y30535D01*
X172600Y27382D01*
X179265Y24392D01*
X186003Y21566D01*
X192807Y18906D01*
X199675Y16415D01*
X206602Y14092D01*
X213584Y11941D01*
X220616Y9961D01*
X227695Y8154D01*
X234816Y6522D01*
X241975Y5065D01*
X249168Y3784D01*
X256390Y2680D01*
X263636Y1753D01*
X270904Y1005D01*
X278187Y435D01*
X285483Y44D01*
X292785Y-167D01*
X300091Y-200D01*
X300092Y-200D02*
X3200100Y-200D01*
X3207349Y-112D01*
X3214594Y150D01*
X3221830Y588D01*
X3229054Y1201D01*
X3236261Y1987D01*
X3243447Y2948D01*
X3250607Y4082D01*
X3257738Y5389D01*
X3264835Y6868D01*
X3271895Y8517D01*
X3278912Y10337D01*
X3285884Y12326D01*
X3292805Y14483D01*
X3299672Y16806D01*
X3306481Y19295D01*
X3313228Y21948D01*
X3319909Y24762D01*
X3326520Y27738D01*
X3333057Y30872D01*
X3339517Y34163D01*
X3345895Y37610D01*
X3352188Y41209D01*
X3358392Y44960D01*
X3364504Y48859D01*
X3370519Y52905D01*
X3376436Y57095D01*
X3382249Y61427D01*
X3387956Y65898D01*
X3393553Y70505D01*
X3399037Y75247D01*
X3404405Y80119D01*
X3409653Y85120D01*
X3414780Y90247D01*
X3419781Y95495D01*
X3424653Y100863D01*
X3429395Y106347D01*
X3434002Y111944D01*
X3438473Y117651D01*
X3442805Y123464D01*
X3446995Y129381D01*
X3451041Y135396D01*
X3454940Y141508D01*
X3458691Y147712D01*
X3462290Y154005D01*
X3465737Y160383D01*
X3469028Y166843D01*
X3472162Y173380D01*
X3475138Y179991D01*
X3477952Y186672D01*
X3480605Y193419D01*
X3483094Y200228D01*
X3485417Y207095D01*
X3487574Y214016D01*
X3489563Y220988D01*
X3491383Y228005D01*
X3493032Y235065D01*
X3494511Y242162D01*
X3495818Y249293D01*
X3496952Y256453D01*
X3497913Y263639D01*
X3498699Y270846D01*
X3499312Y278070D01*
X3499750Y285306D01*
X3500012Y292551D01*
X3500100Y299800D01*
X3500100Y3199817D01*
X3500010Y3207179D01*
X3499739Y3214537D01*
X3499287Y3221886D01*
X3498656Y3229221D01*
X3497844Y3236539D01*
X3496853Y3243835D01*
X3495684Y3251104D01*
X3494336Y3258342D01*
X3492811Y3265545D01*
X3491110Y3272708D01*
X3489234Y3279828D01*
X3487183Y3286899D01*
X3484960Y3293918D01*
X3482564Y3300880D01*
X3479999Y3307782D01*
X3477266Y3314618D01*
X3474365Y3321385D01*
X3471299Y3328079D01*
X3468070Y3334696D01*
X3464679Y3341231D01*
X3461129Y3347682D01*
X3457422Y3354043D01*
X3453559Y3360311D01*
X3449544Y3366483D01*
X3445379Y3372554D01*
X3441066Y3378521D01*
X3436608Y3384381D01*
X3432008Y3390129D01*
X3427268Y3395763D01*
X3422391Y3401279D01*
X3417380Y3406673D01*
X3412238Y3411943D01*
X3406969Y3417085D01*
X3401574Y3422096D01*
X3396059Y3426974D01*
X3390425Y3431714D01*
X3384677Y3436315D01*
X3378818Y3440773D01*
X3372851Y3445086D01*
X3366780Y3449252D01*
X3360609Y3453267D01*
X3354340Y3457130D01*
X3347980Y3460837D01*
X3341529Y3464388D01*
X3334994Y3467779D01*
X3328378Y3471009D01*
X3321684Y3474075D01*
X3314917Y3476976D01*
X3308081Y3479710D01*
X3301180Y3482276D01*
X3294218Y3484671D01*
X3287199Y3486895D01*
X3280128Y3488946D01*
X3273008Y3490823D01*
X3265845Y3492524D01*
X3258642Y3494050D01*
X3251404Y3495398D01*
X3244135Y3496568D01*
X3236839Y3497559D01*
X3229521Y3498371D01*
X3222186Y3499003D01*
X3214837Y3499455D01*
X3207479Y3499726D01*
X3200117Y3499817D01*
D11*
X368650Y598344D02*
X281350Y598344D01*
X329850Y627444D01*
X281350Y656544D01*
X368650Y656544D01*
X349250Y721168D02*
X281350Y721168D01*
X349250Y721168D02*
X349719Y721162D01*
X350187Y721145D01*
X350655Y721117D01*
X351122Y721077D01*
X351588Y721027D01*
X352053Y720964D01*
X352516Y720891D01*
X352977Y720807D01*
X353436Y720711D01*
X353893Y720604D01*
X354347Y720487D01*
X354797Y720358D01*
X355245Y720218D01*
X355689Y720068D01*
X356129Y719907D01*
X356566Y719736D01*
X356998Y719554D01*
X357425Y719361D01*
X357848Y719159D01*
X358266Y718946D01*
X358678Y718723D01*
X359085Y718490D01*
X359486Y718248D01*
X359881Y717996D01*
X360270Y717734D01*
X360653Y717463D01*
X361029Y717183D01*
X361398Y716894D01*
X361760Y716596D01*
X362115Y716289D01*
X362462Y715974D01*
X362801Y715651D01*
X363133Y715319D01*
X363456Y714980D01*
X363771Y714633D01*
X364078Y714278D01*
X364376Y713916D01*
X364665Y713547D01*
X364945Y713171D01*
X365216Y712788D01*
X365478Y712399D01*
X365730Y712004D01*
X365972Y711603D01*
X366205Y711196D01*
X366428Y710784D01*
X366641Y710366D01*
X366843Y709943D01*
X367036Y709516D01*
X367218Y709084D01*
X367389Y708647D01*
X367550Y708207D01*
X367700Y707763D01*
X367840Y707315D01*
X367969Y706865D01*
X368086Y706411D01*
X368193Y705954D01*
X368289Y705495D01*
X368373Y705034D01*
X368446Y704571D01*
X368509Y704106D01*
X368559Y703640D01*
X368599Y703173D01*
X368627Y702705D01*
X368644Y702237D01*
X368650Y701768D01*
X368650Y692068D01*
X344400Y765194D02*
X343809Y765201D01*
X343219Y765223D01*
X342630Y765259D01*
X342041Y765309D01*
X341454Y765374D01*
X340869Y765452D01*
X340286Y765546D01*
X339705Y765653D01*
X339127Y765774D01*
X338552Y765910D01*
X337981Y766059D01*
X337414Y766222D01*
X336850Y766399D01*
X336291Y766590D01*
X335737Y766794D01*
X335188Y767012D01*
X334645Y767243D01*
X334107Y767487D01*
X333575Y767744D01*
X333050Y768014D01*
X332532Y768297D01*
X332020Y768592D01*
X331516Y768900D01*
X331020Y769220D01*
X330531Y769551D01*
X330051Y769895D01*
X329579Y770250D01*
X329116Y770617D01*
X328662Y770995D01*
X328218Y771383D01*
X327783Y771783D01*
X327357Y772193D01*
X326942Y772613D01*
X326538Y773043D01*
X326144Y773483D01*
X325760Y773932D01*
X325388Y774390D01*
X325027Y774858D01*
X324678Y775334D01*
X324340Y775818D01*
X324014Y776311D01*
X323700Y776811D01*
X323399Y777319D01*
X323110Y777834D01*
X322833Y778356D01*
X322570Y778884D01*
X322319Y779419D01*
X322082Y779960D01*
X321857Y780506D01*
X321646Y781058D01*
X321449Y781614D01*
X321265Y782175D01*
X321095Y782741D01*
X320939Y783310D01*
X320796Y783883D01*
X320668Y784460D01*
X320553Y785039D01*
X320453Y785621D01*
X320367Y786206D01*
X320295Y786792D01*
X320238Y787380D01*
X320195Y787968D01*
X320166Y788558D01*
X320152Y789149D01*
X320152Y789739D01*
X320166Y790330D01*
X320195Y790920D01*
X320238Y791508D01*
X320295Y792096D01*
X320367Y792682D01*
X320453Y793267D01*
X320553Y793849D01*
X320668Y794428D01*
X320796Y795005D01*
X320939Y795578D01*
X321095Y796147D01*
X321265Y796713D01*
X321449Y797274D01*
X321646Y797830D01*
X321857Y798382D01*
X322082Y798928D01*
X322319Y799469D01*
X322570Y800004D01*
X322833Y800532D01*
X323110Y801054D01*
X323399Y801569D01*
X323700Y802077D01*
X324014Y802577D01*
X324340Y803070D01*
X324678Y803554D01*
X325027Y804030D01*
X325388Y804498D01*
X325760Y804956D01*
X326144Y805405D01*
X326538Y805845D01*
X326942Y806275D01*
X327357Y806695D01*
X327783Y807105D01*
X328218Y807505D01*
X328662Y807893D01*
X329116Y808271D01*
X329579Y808638D01*
X330051Y808993D01*
X330531Y809337D01*
X331020Y809668D01*
X331516Y809988D01*
X332020Y810296D01*
X332532Y810591D01*
X333050Y810874D01*
X333575Y811144D01*
X334107Y811401D01*
X334645Y811645D01*
X335188Y811876D01*
X335737Y812094D01*
X336291Y812298D01*
X336850Y812489D01*
X337414Y812666D01*
X337981Y812829D01*
X338552Y812978D01*
X339127Y813114D01*
X339705Y813235D01*
X340286Y813342D01*
X340869Y813436D01*
X341454Y813514D01*
X342041Y813579D01*
X342630Y813629D01*
X343219Y813665D01*
X343809Y813687D01*
X344400Y813694D01*
X344991Y813687D01*
X345581Y813665D01*
X346170Y813629D01*
X346759Y813579D01*
X347346Y813514D01*
X347931Y813436D01*
X348514Y813342D01*
X349095Y813235D01*
X349673Y813114D01*
X350248Y812978D01*
X350819Y812829D01*
X351386Y812666D01*
X351950Y812489D01*
X352509Y812298D01*
X353063Y812094D01*
X353612Y811876D01*
X354155Y811645D01*
X354693Y811401D01*
X355225Y811144D01*
X355750Y810874D01*
X356268Y810591D01*
X356780Y810296D01*
X357284Y809988D01*
X357780Y809668D01*
X358269Y809337D01*
X358749Y808993D01*
X359221Y808638D01*
X359684Y808271D01*
X360138Y807893D01*
X360582Y807505D01*
X361017Y807105D01*
X361443Y806695D01*
X361858Y806275D01*
X362262Y805845D01*
X362656Y805405D01*
X363040Y804956D01*
X363412Y804498D01*
X363773Y804030D01*
X364122Y803554D01*
X364460Y803070D01*
X364786Y802577D01*
X365100Y802077D01*
X365401Y801569D01*
X365690Y801054D01*
X365967Y800532D01*
X366230Y800004D01*
X366481Y799469D01*
X366718Y798928D01*
X366943Y798382D01*
X367154Y797830D01*
X367351Y797274D01*
X367535Y796713D01*
X367705Y796147D01*
X367861Y795578D01*
X368004Y795005D01*
X368132Y794428D01*
X368247Y793849D01*
X368347Y793267D01*
X368433Y792682D01*
X368505Y792096D01*
X368562Y791508D01*
X368605Y790920D01*
X368634Y790330D01*
X368648Y789739D01*
X368648Y789149D01*
X368634Y788558D01*
X368605Y787968D01*
X368562Y787380D01*
X368505Y786792D01*
X368433Y786206D01*
X368347Y785621D01*
X368247Y785039D01*
X368132Y784460D01*
X368004Y783883D01*
X367861Y783310D01*
X367705Y782741D01*
X367535Y782175D01*
X367351Y781614D01*
X367154Y781058D01*
X366943Y780506D01*
X366718Y779960D01*
X366481Y779419D01*
X366230Y778884D01*
X365967Y778356D01*
X365690Y777834D01*
X365401Y777319D01*
X365100Y776811D01*
X364786Y776311D01*
X364460Y775818D01*
X364122Y775334D01*
X363773Y774858D01*
X363412Y774390D01*
X363040Y773932D01*
X362656Y773483D01*
X362262Y773043D01*
X361858Y772613D01*
X361443Y772193D01*
X361017Y771783D01*
X360582Y771383D01*
X360138Y770995D01*
X359684Y770617D01*
X359221Y770250D01*
X358749Y769895D01*
X358269Y769551D01*
X357780Y769220D01*
X357284Y768900D01*
X356780Y768592D01*
X356268Y768297D01*
X355750Y768014D01*
X355225Y767744D01*
X354693Y767487D01*
X354155Y767243D01*
X353612Y767012D01*
X353063Y766794D01*
X352509Y766590D01*
X351950Y766399D01*
X351386Y766222D01*
X350819Y766059D01*
X350248Y765910D01*
X349673Y765774D01*
X349095Y765653D01*
X348514Y765546D01*
X347931Y765452D01*
X347346Y765374D01*
X346759Y765309D01*
X346170Y765259D01*
X345581Y765223D01*
X344991Y765201D01*
X344400Y765194D01*
X300750Y770044D02*
X300278Y770050D01*
X299805Y770067D01*
X299334Y770096D01*
X298863Y770136D01*
X298394Y770188D01*
X297925Y770251D01*
X297459Y770325D01*
X296994Y770411D01*
X296532Y770508D01*
X296072Y770616D01*
X295615Y770736D01*
X295161Y770867D01*
X294710Y771008D01*
X294263Y771161D01*
X293820Y771324D01*
X293381Y771498D01*
X292946Y771683D01*
X292516Y771878D01*
X292090Y772084D01*
X291670Y772300D01*
X291255Y772526D01*
X290846Y772762D01*
X290443Y773009D01*
X290046Y773264D01*
X289655Y773530D01*
X289271Y773805D01*
X288893Y774089D01*
X288523Y774382D01*
X288160Y774684D01*
X287804Y774995D01*
X287456Y775315D01*
X287116Y775643D01*
X286784Y775979D01*
X286460Y776323D01*
X286145Y776675D01*
X285838Y777034D01*
X285540Y777401D01*
X285252Y777775D01*
X284972Y778156D01*
X284702Y778543D01*
X284441Y778938D01*
X284190Y779338D01*
X283949Y779744D01*
X283718Y780156D01*
X283497Y780573D01*
X283286Y780996D01*
X283085Y781424D01*
X282895Y781857D01*
X282716Y782294D01*
X282547Y782735D01*
X282389Y783180D01*
X282242Y783629D01*
X282106Y784081D01*
X281981Y784537D01*
X281867Y784996D01*
X281764Y785457D01*
X281673Y785920D01*
X281593Y786386D01*
X281524Y786853D01*
X281466Y787322D01*
X281420Y787792D01*
X281386Y788264D01*
X281363Y788735D01*
X281351Y789208D01*
X281351Y789680D01*
X281363Y790153D01*
X281386Y790624D01*
X281420Y791096D01*
X281466Y791566D01*
X281524Y792035D01*
X281593Y792502D01*
X281673Y792968D01*
X281764Y793431D01*
X281867Y793892D01*
X281981Y794351D01*
X282106Y794807D01*
X282242Y795259D01*
X282389Y795708D01*
X282547Y796153D01*
X282716Y796594D01*
X282895Y797031D01*
X283085Y797464D01*
X283286Y797892D01*
X283497Y798315D01*
X283718Y798732D01*
X283949Y799144D01*
X284190Y799550D01*
X284441Y799950D01*
X284702Y800345D01*
X284972Y800732D01*
X285252Y801113D01*
X285540Y801487D01*
X285838Y801854D01*
X286145Y802213D01*
X286460Y802565D01*
X286784Y802909D01*
X287116Y803245D01*
X287456Y803573D01*
X287804Y803893D01*
X288160Y804204D01*
X288523Y804506D01*
X288893Y804799D01*
X289271Y805083D01*
X289655Y805358D01*
X290046Y805624D01*
X290443Y805879D01*
X290846Y806126D01*
X291255Y806362D01*
X291670Y806588D01*
X292090Y806804D01*
X292516Y807010D01*
X292946Y807205D01*
X293381Y807390D01*
X293820Y807564D01*
X294263Y807727D01*
X294710Y807880D01*
X295161Y808021D01*
X295615Y808152D01*
X296072Y808272D01*
X296532Y808380D01*
X296994Y808477D01*
X297459Y808563D01*
X297925Y808637D01*
X298394Y808700D01*
X298863Y808752D01*
X299334Y808792D01*
X299805Y808821D01*
X300278Y808838D01*
X300750Y808844D01*
X301222Y808838D01*
X301695Y808821D01*
X302166Y808792D01*
X302637Y808752D01*
X303106Y808700D01*
X303575Y808637D01*
X304041Y808563D01*
X304506Y808477D01*
X304968Y808380D01*
X305428Y808272D01*
X305885Y808152D01*
X306339Y808021D01*
X306790Y807880D01*
X307237Y807727D01*
X307680Y807564D01*
X308119Y807390D01*
X308554Y807205D01*
X308984Y807010D01*
X309410Y806804D01*
X309830Y806588D01*
X310245Y806362D01*
X310654Y806126D01*
X311057Y805879D01*
X311454Y805624D01*
X311845Y805358D01*
X312229Y805083D01*
X312607Y804799D01*
X312977Y804506D01*
X313340Y804204D01*
X313696Y803893D01*
X314044Y803573D01*
X314384Y803245D01*
X314716Y802909D01*
X315040Y802565D01*
X315355Y802213D01*
X315662Y801854D01*
X315960Y801487D01*
X316248Y801113D01*
X316528Y800732D01*
X316798Y800345D01*
X317059Y799950D01*
X317310Y799550D01*
X317551Y799144D01*
X317782Y798732D01*
X318003Y798315D01*
X318214Y797892D01*
X318415Y797464D01*
X318605Y797031D01*
X318784Y796594D01*
X318953Y796153D01*
X319111Y795708D01*
X319258Y795259D01*
X319394Y794807D01*
X319519Y794351D01*
X319633Y793892D01*
X319736Y793431D01*
X319827Y792968D01*
X319907Y792502D01*
X319976Y792035D01*
X320034Y791566D01*
X320080Y791096D01*
X320114Y790624D01*
X320137Y790153D01*
X320149Y789680D01*
X320149Y789208D01*
X320137Y788735D01*
X320114Y788264D01*
X320080Y787792D01*
X320034Y787322D01*
X319976Y786853D01*
X319907Y786386D01*
X319827Y785920D01*
X319736Y785457D01*
X319633Y784996D01*
X319519Y784537D01*
X319394Y784081D01*
X319258Y783629D01*
X319111Y783180D01*
X318953Y782735D01*
X318784Y782294D01*
X318605Y781857D01*
X318415Y781424D01*
X318214Y780996D01*
X318003Y780573D01*
X317782Y780156D01*
X317551Y779744D01*
X317310Y779338D01*
X317059Y778938D01*
X316798Y778543D01*
X316528Y778156D01*
X316248Y777775D01*
X315960Y777401D01*
X315662Y777034D01*
X315355Y776675D01*
X315040Y776323D01*
X314716Y775979D01*
X314384Y775643D01*
X314044Y775315D01*
X313696Y774995D01*
X313340Y774684D01*
X312977Y774382D01*
X312607Y774089D01*
X312229Y773805D01*
X311845Y773530D01*
X311454Y773264D01*
X311057Y773009D01*
X310654Y772762D01*
X310245Y772526D01*
X309830Y772300D01*
X309410Y772084D01*
X308984Y771878D01*
X308554Y771683D01*
X308119Y771498D01*
X307680Y771324D01*
X307237Y771161D01*
X306790Y771008D01*
X306339Y770867D01*
X305885Y770736D01*
X305428Y770616D01*
X304968Y770508D01*
X304506Y770411D01*
X304041Y770325D01*
X303575Y770251D01*
X303106Y770188D01*
X302637Y770136D01*
X302166Y770096D01*
X301695Y770067D01*
X301222Y770050D01*
X300750Y770044D01*
X300750Y855194D02*
X281350Y879444D01*
X368650Y879444D01*
X368650Y855194D02*
X368650Y903694D01*
X344400Y945194D02*
X343809Y945201D01*
X343219Y945223D01*
X342630Y945259D01*
X342041Y945309D01*
X341454Y945374D01*
X340869Y945452D01*
X340286Y945546D01*
X339705Y945653D01*
X339127Y945774D01*
X338552Y945910D01*
X337981Y946059D01*
X337414Y946222D01*
X336850Y946399D01*
X336291Y946590D01*
X335737Y946794D01*
X335188Y947012D01*
X334645Y947243D01*
X334107Y947487D01*
X333575Y947744D01*
X333050Y948014D01*
X332532Y948297D01*
X332020Y948592D01*
X331516Y948900D01*
X331020Y949220D01*
X330531Y949551D01*
X330051Y949895D01*
X329579Y950250D01*
X329116Y950617D01*
X328662Y950995D01*
X328218Y951383D01*
X327783Y951783D01*
X327357Y952193D01*
X326942Y952613D01*
X326538Y953043D01*
X326144Y953483D01*
X325760Y953932D01*
X325388Y954390D01*
X325027Y954858D01*
X324678Y955334D01*
X324340Y955818D01*
X324014Y956311D01*
X323700Y956811D01*
X323399Y957319D01*
X323110Y957834D01*
X322833Y958356D01*
X322570Y958884D01*
X322319Y959419D01*
X322082Y959960D01*
X321857Y960506D01*
X321646Y961058D01*
X321449Y961614D01*
X321265Y962175D01*
X321095Y962741D01*
X320939Y963310D01*
X320796Y963883D01*
X320668Y964460D01*
X320553Y965039D01*
X320453Y965621D01*
X320367Y966206D01*
X320295Y966792D01*
X320238Y967380D01*
X320195Y967968D01*
X320166Y968558D01*
X320152Y969149D01*
X320152Y969739D01*
X320166Y970330D01*
X320195Y970920D01*
X320238Y971508D01*
X320295Y972096D01*
X320367Y972682D01*
X320453Y973267D01*
X320553Y973849D01*
X320668Y974428D01*
X320796Y975005D01*
X320939Y975578D01*
X321095Y976147D01*
X321265Y976713D01*
X321449Y977274D01*
X321646Y977830D01*
X321857Y978382D01*
X322082Y978928D01*
X322319Y979469D01*
X322570Y980004D01*
X322833Y980532D01*
X323110Y981054D01*
X323399Y981569D01*
X323700Y982077D01*
X324014Y982577D01*
X324340Y983070D01*
X324678Y983554D01*
X325027Y984030D01*
X325388Y984498D01*
X325760Y984956D01*
X326144Y985405D01*
X326538Y985845D01*
X326942Y986275D01*
X327357Y986695D01*
X327783Y987105D01*
X328218Y987505D01*
X328662Y987893D01*
X329116Y988271D01*
X329579Y988638D01*
X330051Y988993D01*
X330531Y989337D01*
X331020Y989668D01*
X331516Y989988D01*
X332020Y990296D01*
X332532Y990591D01*
X333050Y990874D01*
X333575Y991144D01*
X334107Y991401D01*
X334645Y991645D01*
X335188Y991876D01*
X335737Y992094D01*
X336291Y992298D01*
X336850Y992489D01*
X337414Y992666D01*
X337981Y992829D01*
X338552Y992978D01*
X339127Y993114D01*
X339705Y993235D01*
X340286Y993342D01*
X340869Y993436D01*
X341454Y993514D01*
X342041Y993579D01*
X342630Y993629D01*
X343219Y993665D01*
X343809Y993687D01*
X344400Y993694D01*
X344991Y993687D01*
X345581Y993665D01*
X346170Y993629D01*
X346759Y993579D01*
X347346Y993514D01*
X347931Y993436D01*
X348514Y993342D01*
X349095Y993235D01*
X349673Y993114D01*
X350248Y992978D01*
X350819Y992829D01*
X351386Y992666D01*
X351950Y992489D01*
X352509Y992298D01*
X353063Y992094D01*
X353612Y991876D01*
X354155Y991645D01*
X354693Y991401D01*
X355225Y991144D01*
X355750Y990874D01*
X356268Y990591D01*
X356780Y990296D01*
X357284Y989988D01*
X357780Y989668D01*
X358269Y989337D01*
X358749Y988993D01*
X359221Y988638D01*
X359684Y988271D01*
X360138Y987893D01*
X360582Y987505D01*
X361017Y987105D01*
X361443Y986695D01*
X361858Y986275D01*
X362262Y985845D01*
X362656Y985405D01*
X363040Y984956D01*
X363412Y984498D01*
X363773Y984030D01*
X364122Y983554D01*
X364460Y983070D01*
X364786Y982577D01*
X365100Y982077D01*
X365401Y981569D01*
X365690Y981054D01*
X365967Y980532D01*
X366230Y980004D01*
X366481Y979469D01*
X366718Y978928D01*
X366943Y978382D01*
X367154Y977830D01*
X367351Y977274D01*
X367535Y976713D01*
X367705Y976147D01*
X367861Y975578D01*
X368004Y975005D01*
X368132Y974428D01*
X368247Y973849D01*
X368347Y973267D01*
X368433Y972682D01*
X368505Y972096D01*
X368562Y971508D01*
X368605Y970920D01*
X368634Y970330D01*
X368648Y969739D01*
X368648Y969149D01*
X368634Y968558D01*
X368605Y967968D01*
X368562Y967380D01*
X368505Y966792D01*
X368433Y966206D01*
X368347Y965621D01*
X368247Y965039D01*
X368132Y964460D01*
X368004Y963883D01*
X367861Y963310D01*
X367705Y962741D01*
X367535Y962175D01*
X367351Y961614D01*
X367154Y961058D01*
X366943Y960506D01*
X366718Y959960D01*
X366481Y959419D01*
X366230Y958884D01*
X365967Y958356D01*
X365690Y957834D01*
X365401Y957319D01*
X365100Y956811D01*
X364786Y956311D01*
X364460Y955818D01*
X364122Y955334D01*
X363773Y954858D01*
X363412Y954390D01*
X363040Y953932D01*
X362656Y953483D01*
X362262Y953043D01*
X361858Y952613D01*
X361443Y952193D01*
X361017Y951783D01*
X360582Y951383D01*
X360138Y950995D01*
X359684Y950617D01*
X359221Y950250D01*
X358749Y949895D01*
X358269Y949551D01*
X357780Y949220D01*
X357284Y948900D01*
X356780Y948592D01*
X356268Y948297D01*
X355750Y948014D01*
X355225Y947744D01*
X354693Y947487D01*
X354155Y947243D01*
X353612Y947012D01*
X353063Y946794D01*
X352509Y946590D01*
X351950Y946399D01*
X351386Y946222D01*
X350819Y946059D01*
X350248Y945910D01*
X349673Y945774D01*
X349095Y945653D01*
X348514Y945546D01*
X347931Y945452D01*
X347346Y945374D01*
X346759Y945309D01*
X346170Y945259D01*
X345581Y945223D01*
X344991Y945201D01*
X344400Y945194D01*
X300750Y950044D02*
X300278Y950050D01*
X299805Y950067D01*
X299334Y950096D01*
X298863Y950136D01*
X298394Y950188D01*
X297925Y950251D01*
X297459Y950325D01*
X296994Y950411D01*
X296532Y950508D01*
X296072Y950616D01*
X295615Y950736D01*
X295161Y950867D01*
X294710Y951008D01*
X294263Y951161D01*
X293820Y951324D01*
X293381Y951498D01*
X292946Y951683D01*
X292516Y951878D01*
X292090Y952084D01*
X291670Y952300D01*
X291255Y952526D01*
X290846Y952762D01*
X290443Y953009D01*
X290046Y953264D01*
X289655Y953530D01*
X289271Y953805D01*
X288893Y954089D01*
X288523Y954382D01*
X288160Y954684D01*
X287804Y954995D01*
X287456Y955315D01*
X287116Y955643D01*
X286784Y955979D01*
X286460Y956323D01*
X286145Y956675D01*
X285838Y957034D01*
X285540Y957401D01*
X285252Y957775D01*
X284972Y958156D01*
X284702Y958543D01*
X284441Y958938D01*
X284190Y959338D01*
X283949Y959744D01*
X283718Y960156D01*
X283497Y960573D01*
X283286Y960996D01*
X283085Y961424D01*
X282895Y961857D01*
X282716Y962294D01*
X282547Y962735D01*
X282389Y963180D01*
X282242Y963629D01*
X282106Y964081D01*
X281981Y964537D01*
X281867Y964996D01*
X281764Y965457D01*
X281673Y965920D01*
X281593Y966386D01*
X281524Y966853D01*
X281466Y967322D01*
X281420Y967792D01*
X281386Y968264D01*
X281363Y968735D01*
X281351Y969208D01*
X281351Y969680D01*
X281363Y970153D01*
X281386Y970624D01*
X281420Y971096D01*
X281466Y971566D01*
X281524Y972035D01*
X281593Y972502D01*
X281673Y972968D01*
X281764Y973431D01*
X281867Y973892D01*
X281981Y974351D01*
X282106Y974807D01*
X282242Y975259D01*
X282389Y975708D01*
X282547Y976153D01*
X282716Y976594D01*
X282895Y977031D01*
X283085Y977464D01*
X283286Y977892D01*
X283497Y978315D01*
X283718Y978732D01*
X283949Y979144D01*
X284190Y979550D01*
X284441Y979950D01*
X284702Y980345D01*
X284972Y980732D01*
X285252Y981113D01*
X285540Y981487D01*
X285838Y981854D01*
X286145Y982213D01*
X286460Y982565D01*
X286784Y982909D01*
X287116Y983245D01*
X287456Y983573D01*
X287804Y983893D01*
X288160Y984204D01*
X288523Y984506D01*
X288893Y984799D01*
X289271Y985083D01*
X289655Y985358D01*
X290046Y985624D01*
X290443Y985879D01*
X290846Y986126D01*
X291255Y986362D01*
X291670Y986588D01*
X292090Y986804D01*
X292516Y987010D01*
X292946Y987205D01*
X293381Y987390D01*
X293820Y987564D01*
X294263Y987727D01*
X294710Y987880D01*
X295161Y988021D01*
X295615Y988152D01*
X296072Y988272D01*
X296532Y988380D01*
X296994Y988477D01*
X297459Y988563D01*
X297925Y988637D01*
X298394Y988700D01*
X298863Y988752D01*
X299334Y988792D01*
X299805Y988821D01*
X300278Y988838D01*
X300750Y988844D01*
X301222Y988838D01*
X301695Y988821D01*
X302166Y988792D01*
X302637Y988752D01*
X303106Y988700D01*
X303575Y988637D01*
X304041Y988563D01*
X304506Y988477D01*
X304968Y988380D01*
X305428Y988272D01*
X305885Y988152D01*
X306339Y988021D01*
X306790Y987880D01*
X307237Y987727D01*
X307680Y987564D01*
X308119Y987390D01*
X308554Y987205D01*
X308984Y987010D01*
X309410Y986804D01*
X309830Y986588D01*
X310245Y986362D01*
X310654Y986126D01*
X311057Y985879D01*
X311454Y985624D01*
X311845Y985358D01*
X312229Y985083D01*
X312607Y984799D01*
X312977Y984506D01*
X313340Y984204D01*
X313696Y983893D01*
X314044Y983573D01*
X314384Y983245D01*
X314716Y982909D01*
X315040Y982565D01*
X315355Y982213D01*
X315662Y981854D01*
X315960Y981487D01*
X316248Y981113D01*
X316528Y980732D01*
X316798Y980345D01*
X317059Y979950D01*
X317310Y979550D01*
X317551Y979144D01*
X317782Y978732D01*
X318003Y978315D01*
X318214Y977892D01*
X318415Y977464D01*
X318605Y977031D01*
X318784Y976594D01*
X318953Y976153D01*
X319111Y975708D01*
X319258Y975259D01*
X319394Y974807D01*
X319519Y974351D01*
X319633Y973892D01*
X319736Y973431D01*
X319827Y972968D01*
X319907Y972502D01*
X319976Y972035D01*
X320034Y971566D01*
X320080Y971096D01*
X320114Y970624D01*
X320137Y970153D01*
X320149Y969680D01*
X320149Y969208D01*
X320137Y968735D01*
X320114Y968264D01*
X320080Y967792D01*
X320034Y967322D01*
X319976Y966853D01*
X319907Y966386D01*
X319827Y965920D01*
X319736Y965457D01*
X319633Y964996D01*
X319519Y964537D01*
X319394Y964081D01*
X319258Y963629D01*
X319111Y963180D01*
X318953Y962735D01*
X318784Y962294D01*
X318605Y961857D01*
X318415Y961424D01*
X318214Y960996D01*
X318003Y960573D01*
X317782Y960156D01*
X317551Y959744D01*
X317310Y959338D01*
X317059Y958938D01*
X316798Y958543D01*
X316528Y958156D01*
X316248Y957775D01*
X315960Y957401D01*
X315662Y957034D01*
X315355Y956675D01*
X315040Y956323D01*
X314716Y955979D01*
X314384Y955643D01*
X314044Y955315D01*
X313696Y954995D01*
X313340Y954684D01*
X312977Y954382D01*
X312607Y954089D01*
X312229Y953805D01*
X311845Y953530D01*
X311454Y953264D01*
X311057Y953009D01*
X310654Y952762D01*
X310245Y952526D01*
X309830Y952300D01*
X309410Y952084D01*
X308984Y951878D01*
X308554Y951683D01*
X308119Y951498D01*
X307680Y951324D01*
X307237Y951161D01*
X306790Y951008D01*
X306339Y950867D01*
X305885Y950736D01*
X305428Y950616D01*
X304968Y950508D01*
X304506Y950411D01*
X304041Y950325D01*
X303575Y950251D01*
X303106Y950188D01*
X302637Y950136D01*
X302166Y950096D01*
X301695Y950067D01*
X301222Y950050D01*
X300750Y950044D01*
X281350Y1087919D02*
X368650Y1087919D01*
X281350Y1087919D02*
X281350Y1112169D01*
X281357Y1112760D01*
X281379Y1113350D01*
X281415Y1113939D01*
X281465Y1114528D01*
X281530Y1115115D01*
X281608Y1115700D01*
X281702Y1116283D01*
X281809Y1116864D01*
X281930Y1117442D01*
X282066Y1118017D01*
X282215Y1118588D01*
X282378Y1119155D01*
X282555Y1119719D01*
X282746Y1120278D01*
X282950Y1120832D01*
X283168Y1121381D01*
X283399Y1121924D01*
X283643Y1122462D01*
X283900Y1122994D01*
X284170Y1123519D01*
X284453Y1124037D01*
X284748Y1124549D01*
X285056Y1125053D01*
X285376Y1125549D01*
X285707Y1126038D01*
X286051Y1126518D01*
X286406Y1126990D01*
X286773Y1127453D01*
X287151Y1127907D01*
X287539Y1128351D01*
X287939Y1128786D01*
X288349Y1129212D01*
X288769Y1129627D01*
X289199Y1130031D01*
X289639Y1130425D01*
X290088Y1130809D01*
X290546Y1131181D01*
X291014Y1131542D01*
X291490Y1131891D01*
X291974Y1132229D01*
X292467Y1132555D01*
X292967Y1132869D01*
X293475Y1133170D01*
X293990Y1133459D01*
X294512Y1133736D01*
X295040Y1133999D01*
X295575Y1134250D01*
X296116Y1134487D01*
X296662Y1134712D01*
X297214Y1134923D01*
X297770Y1135120D01*
X298331Y1135304D01*
X298897Y1135474D01*
X299466Y1135630D01*
X300039Y1135773D01*
X300616Y1135901D01*
X301195Y1136016D01*
X301777Y1136116D01*
X302362Y1136202D01*
X302948Y1136274D01*
X303536Y1136331D01*
X304124Y1136374D01*
X304714Y1136403D01*
X305305Y1136417D01*
X305895Y1136417D01*
X306486Y1136403D01*
X307076Y1136374D01*
X307664Y1136331D01*
X308252Y1136274D01*
X308838Y1136202D01*
X309423Y1136116D01*
X310005Y1136016D01*
X310584Y1135901D01*
X311161Y1135773D01*
X311734Y1135630D01*
X312303Y1135474D01*
X312869Y1135304D01*
X313430Y1135120D01*
X313986Y1134923D01*
X314538Y1134712D01*
X315084Y1134487D01*
X315625Y1134250D01*
X316160Y1133999D01*
X316688Y1133736D01*
X317210Y1133459D01*
X317725Y1133170D01*
X318233Y1132869D01*
X318733Y1132555D01*
X319226Y1132229D01*
X319710Y1131891D01*
X320186Y1131542D01*
X320654Y1131181D01*
X321112Y1130809D01*
X321561Y1130425D01*
X322001Y1130031D01*
X322431Y1129627D01*
X322851Y1129212D01*
X323261Y1128786D01*
X323661Y1128351D01*
X324049Y1127907D01*
X324427Y1127453D01*
X324794Y1126990D01*
X325149Y1126518D01*
X325493Y1126038D01*
X325824Y1125549D01*
X326144Y1125053D01*
X326452Y1124549D01*
X326747Y1124037D01*
X327030Y1123519D01*
X327300Y1122994D01*
X327557Y1122462D01*
X327801Y1121924D01*
X328032Y1121381D01*
X328250Y1120832D01*
X328454Y1120278D01*
X328645Y1119719D01*
X328822Y1119155D01*
X328985Y1118588D01*
X329134Y1118017D01*
X329270Y1117442D01*
X329391Y1116864D01*
X329498Y1116283D01*
X329592Y1115700D01*
X329670Y1115115D01*
X329735Y1114528D01*
X329785Y1113939D01*
X329821Y1113350D01*
X329843Y1112760D01*
X329850Y1112169D01*
X329850Y1087919D01*
X344400Y1173194D02*
X305600Y1173194D01*
X305009Y1173201D01*
X304419Y1173223D01*
X303830Y1173259D01*
X303241Y1173309D01*
X302654Y1173374D01*
X302069Y1173452D01*
X301486Y1173546D01*
X300905Y1173653D01*
X300327Y1173774D01*
X299752Y1173910D01*
X299181Y1174059D01*
X298614Y1174222D01*
X298050Y1174399D01*
X297491Y1174590D01*
X296937Y1174794D01*
X296388Y1175012D01*
X295845Y1175243D01*
X295307Y1175487D01*
X294775Y1175744D01*
X294250Y1176014D01*
X293732Y1176297D01*
X293220Y1176592D01*
X292716Y1176900D01*
X292220Y1177220D01*
X291731Y1177551D01*
X291251Y1177895D01*
X290779Y1178250D01*
X290316Y1178617D01*
X289862Y1178995D01*
X289418Y1179383D01*
X288983Y1179783D01*
X288557Y1180193D01*
X288142Y1180613D01*
X287738Y1181043D01*
X287344Y1181483D01*
X286960Y1181932D01*
X286588Y1182390D01*
X286227Y1182858D01*
X285878Y1183334D01*
X285540Y1183818D01*
X285214Y1184311D01*
X284900Y1184811D01*
X284599Y1185319D01*
X284310Y1185834D01*
X284033Y1186356D01*
X283770Y1186884D01*
X283519Y1187419D01*
X283282Y1187960D01*
X283057Y1188506D01*
X282846Y1189058D01*
X282649Y1189614D01*
X282465Y1190175D01*
X282295Y1190741D01*
X282139Y1191310D01*
X281996Y1191883D01*
X281868Y1192460D01*
X281753Y1193039D01*
X281653Y1193621D01*
X281567Y1194206D01*
X281495Y1194792D01*
X281438Y1195380D01*
X281395Y1195968D01*
X281366Y1196558D01*
X281352Y1197149D01*
X281352Y1197739D01*
X281366Y1198330D01*
X281395Y1198920D01*
X281438Y1199508D01*
X281495Y1200096D01*
X281567Y1200682D01*
X281653Y1201267D01*
X281753Y1201849D01*
X281868Y1202428D01*
X281996Y1203005D01*
X282139Y1203578D01*
X282295Y1204147D01*
X282465Y1204713D01*
X282649Y1205274D01*
X282846Y1205830D01*
X283057Y1206382D01*
X283282Y1206928D01*
X283519Y1207469D01*
X283770Y1208004D01*
X284033Y1208532D01*
X284310Y1209054D01*
X284599Y1209569D01*
X284900Y1210077D01*
X285214Y1210577D01*
X285540Y1211070D01*
X285878Y1211554D01*
X286227Y1212030D01*
X286588Y1212498D01*
X286960Y1212956D01*
X287344Y1213405D01*
X287738Y1213845D01*
X288142Y1214275D01*
X288557Y1214695D01*
X288983Y1215105D01*
X289418Y1215505D01*
X289862Y1215893D01*
X290316Y1216271D01*
X290779Y1216638D01*
X291251Y1216993D01*
X291731Y1217337D01*
X292220Y1217668D01*
X292716Y1217988D01*
X293220Y1218296D01*
X293732Y1218591D01*
X294250Y1218874D01*
X294775Y1219144D01*
X295307Y1219401D01*
X295845Y1219645D01*
X296388Y1219876D01*
X296937Y1220094D01*
X297491Y1220298D01*
X298050Y1220489D01*
X298614Y1220666D01*
X299181Y1220829D01*
X299752Y1220978D01*
X300327Y1221114D01*
X300905Y1221235D01*
X301486Y1221342D01*
X302069Y1221436D01*
X302654Y1221514D01*
X303241Y1221579D01*
X303830Y1221629D01*
X304419Y1221665D01*
X305009Y1221687D01*
X305600Y1221694D01*
X344400Y1221694D01*
X344991Y1221687D01*
X345581Y1221665D01*
X346170Y1221629D01*
X346759Y1221579D01*
X347346Y1221514D01*
X347931Y1221436D01*
X348514Y1221342D01*
X349095Y1221235D01*
X349673Y1221114D01*
X350248Y1220978D01*
X350819Y1220829D01*
X351386Y1220666D01*
X351950Y1220489D01*
X352509Y1220298D01*
X353063Y1220094D01*
X353612Y1219876D01*
X354155Y1219645D01*
X354693Y1219401D01*
X355225Y1219144D01*
X355750Y1218874D01*
X356268Y1218591D01*
X356780Y1218296D01*
X357284Y1217988D01*
X357780Y1217668D01*
X358269Y1217337D01*
X358749Y1216993D01*
X359221Y1216638D01*
X359684Y1216271D01*
X360138Y1215893D01*
X360582Y1215505D01*
X361017Y1215105D01*
X361443Y1214695D01*
X361858Y1214275D01*
X362262Y1213845D01*
X362656Y1213405D01*
X363040Y1212956D01*
X363412Y1212498D01*
X363773Y1212030D01*
X364122Y1211554D01*
X364460Y1211070D01*
X364786Y1210577D01*
X365100Y1210077D01*
X365401Y1209569D01*
X365690Y1209054D01*
X365967Y1208532D01*
X366230Y1208004D01*
X366481Y1207469D01*
X366718Y1206928D01*
X366943Y1206382D01*
X367154Y1205830D01*
X367351Y1205274D01*
X367535Y1204713D01*
X367705Y1204147D01*
X367861Y1203578D01*
X368004Y1203005D01*
X368132Y1202428D01*
X368247Y1201849D01*
X368347Y1201267D01*
X368433Y1200682D01*
X368505Y1200096D01*
X368562Y1199508D01*
X368605Y1198920D01*
X368634Y1198330D01*
X368648Y1197739D01*
X368648Y1197149D01*
X368634Y1196558D01*
X368605Y1195968D01*
X368562Y1195380D01*
X368505Y1194792D01*
X368433Y1194206D01*
X368347Y1193621D01*
X368247Y1193039D01*
X368132Y1192460D01*
X368004Y1191883D01*
X367861Y1191310D01*
X367705Y1190741D01*
X367535Y1190175D01*
X367351Y1189614D01*
X367154Y1189058D01*
X366943Y1188506D01*
X366718Y1187960D01*
X366481Y1187419D01*
X366230Y1186884D01*
X365967Y1186356D01*
X365690Y1185834D01*
X365401Y1185319D01*
X365100Y1184811D01*
X364786Y1184311D01*
X364460Y1183818D01*
X364122Y1183334D01*
X363773Y1182858D01*
X363412Y1182390D01*
X363040Y1181932D01*
X362656Y1181483D01*
X362262Y1181043D01*
X361858Y1180613D01*
X361443Y1180193D01*
X361017Y1179783D01*
X360582Y1179383D01*
X360138Y1178995D01*
X359684Y1178617D01*
X359221Y1178250D01*
X358749Y1177895D01*
X358269Y1177551D01*
X357780Y1177220D01*
X357284Y1176900D01*
X356780Y1176592D01*
X356268Y1176297D01*
X355750Y1176014D01*
X355225Y1175744D01*
X354693Y1175487D01*
X354155Y1175243D01*
X353612Y1175012D01*
X353063Y1174794D01*
X352509Y1174590D01*
X351950Y1174399D01*
X351386Y1174222D01*
X350819Y1174059D01*
X350248Y1173910D01*
X349673Y1173774D01*
X349095Y1173653D01*
X348514Y1173546D01*
X347931Y1173452D01*
X347346Y1173374D01*
X346759Y1173309D01*
X346170Y1173259D01*
X345581Y1173223D01*
X344991Y1173201D01*
X344400Y1173194D01*
X368650Y1282256D02*
X368650Y1301656D01*
X368650Y1282256D02*
X368644Y1281787D01*
X368627Y1281319D01*
X368599Y1280851D01*
X368559Y1280384D01*
X368509Y1279918D01*
X368446Y1279453D01*
X368373Y1278990D01*
X368289Y1278529D01*
X368193Y1278070D01*
X368086Y1277613D01*
X367969Y1277159D01*
X367840Y1276709D01*
X367700Y1276261D01*
X367550Y1275817D01*
X367389Y1275377D01*
X367218Y1274940D01*
X367036Y1274508D01*
X366843Y1274081D01*
X366641Y1273658D01*
X366428Y1273240D01*
X366205Y1272828D01*
X365972Y1272421D01*
X365730Y1272020D01*
X365478Y1271625D01*
X365216Y1271236D01*
X364945Y1270853D01*
X364665Y1270477D01*
X364376Y1270108D01*
X364078Y1269746D01*
X363771Y1269391D01*
X363456Y1269044D01*
X363133Y1268705D01*
X362801Y1268373D01*
X362462Y1268050D01*
X362115Y1267735D01*
X361760Y1267428D01*
X361398Y1267130D01*
X361029Y1266841D01*
X360653Y1266561D01*
X360270Y1266290D01*
X359881Y1266028D01*
X359486Y1265776D01*
X359085Y1265534D01*
X358678Y1265301D01*
X358266Y1265078D01*
X357848Y1264865D01*
X357425Y1264663D01*
X356998Y1264470D01*
X356566Y1264288D01*
X356129Y1264117D01*
X355689Y1263956D01*
X355245Y1263806D01*
X354797Y1263666D01*
X354347Y1263537D01*
X353893Y1263420D01*
X353436Y1263313D01*
X352977Y1263217D01*
X352516Y1263133D01*
X352053Y1263060D01*
X351588Y1262997D01*
X351122Y1262947D01*
X350655Y1262907D01*
X350187Y1262879D01*
X349719Y1262862D01*
X349250Y1262856D01*
X300750Y1262856D01*
X300281Y1262862D01*
X299813Y1262879D01*
X299345Y1262907D01*
X298878Y1262947D01*
X298412Y1262997D01*
X297947Y1263060D01*
X297484Y1263133D01*
X297023Y1263217D01*
X296564Y1263313D01*
X296107Y1263420D01*
X295653Y1263537D01*
X295203Y1263666D01*
X294755Y1263806D01*
X294311Y1263956D01*
X293871Y1264117D01*
X293434Y1264288D01*
X293002Y1264470D01*
X292575Y1264663D01*
X292152Y1264865D01*
X291734Y1265078D01*
X291322Y1265301D01*
X290915Y1265534D01*
X290514Y1265776D01*
X290119Y1266028D01*
X289730Y1266290D01*
X289347Y1266561D01*
X288971Y1266841D01*
X288602Y1267130D01*
X288240Y1267428D01*
X287885Y1267735D01*
X287538Y1268050D01*
X287199Y1268373D01*
X286867Y1268705D01*
X286544Y1269044D01*
X286229Y1269391D01*
X285922Y1269746D01*
X285624Y1270108D01*
X285335Y1270477D01*
X285055Y1270853D01*
X284784Y1271236D01*
X284522Y1271625D01*
X284270Y1272020D01*
X284028Y1272421D01*
X283795Y1272828D01*
X283572Y1273240D01*
X283359Y1273658D01*
X283157Y1274081D01*
X282964Y1274508D01*
X282782Y1274940D01*
X282611Y1275377D01*
X282450Y1275817D01*
X282300Y1276261D01*
X282160Y1276709D01*
X282031Y1277159D01*
X281914Y1277613D01*
X281807Y1278070D01*
X281711Y1278529D01*
X281627Y1278990D01*
X281554Y1279453D01*
X281491Y1279918D01*
X281441Y1280384D01*
X281401Y1280851D01*
X281373Y1281319D01*
X281356Y1281787D01*
X281350Y1282256D01*
X281350Y1301656D01*
X518650Y570700D02*
X518650Y546450D01*
X518646Y546098D01*
X518633Y545747D01*
X518612Y545396D01*
X518582Y545046D01*
X518544Y544696D01*
X518497Y544348D01*
X518442Y544000D01*
X518379Y543655D01*
X518307Y543310D01*
X518227Y542968D01*
X518139Y542628D01*
X518042Y542289D01*
X517938Y541954D01*
X517825Y541621D01*
X517704Y541290D01*
X517576Y540963D01*
X517439Y540639D01*
X517295Y540319D01*
X517143Y540002D01*
X516983Y539688D01*
X516816Y539379D01*
X516642Y539074D01*
X516460Y538773D01*
X516271Y538476D01*
X516074Y538185D01*
X515871Y537898D01*
X515661Y537616D01*
X515444Y537339D01*
X515221Y537068D01*
X514991Y536802D01*
X514755Y536541D01*
X514512Y536287D01*
X514263Y536038D01*
X514009Y535795D01*
X513748Y535559D01*
X513482Y535329D01*
X513211Y535106D01*
X512934Y534889D01*
X512652Y534679D01*
X512365Y534476D01*
X512074Y534279D01*
X511777Y534090D01*
X511476Y533908D01*
X511171Y533734D01*
X510862Y533567D01*
X510548Y533407D01*
X510231Y533255D01*
X509911Y533111D01*
X509587Y532974D01*
X509260Y532846D01*
X508929Y532725D01*
X508596Y532612D01*
X508261Y532508D01*
X507922Y532411D01*
X507582Y532323D01*
X507240Y532243D01*
X506895Y532171D01*
X506550Y532108D01*
X506202Y532053D01*
X505854Y532006D01*
X505504Y531968D01*
X505154Y531938D01*
X504803Y531917D01*
X504452Y531904D01*
X504100Y531900D01*
X479850Y531900D01*
X479378Y531906D01*
X478905Y531923D01*
X478434Y531952D01*
X477963Y531992D01*
X477494Y532044D01*
X477025Y532107D01*
X476559Y532181D01*
X476094Y532267D01*
X475632Y532364D01*
X475172Y532472D01*
X474715Y532592D01*
X474261Y532723D01*
X473810Y532864D01*
X473363Y533017D01*
X472920Y533180D01*
X472481Y533354D01*
X472046Y533539D01*
X471616Y533734D01*
X471190Y533940D01*
X470770Y534156D01*
X470355Y534382D01*
X469946Y534618D01*
X469543Y534865D01*
X469146Y535120D01*
X468755Y535386D01*
X468371Y535661D01*
X467993Y535945D01*
X467623Y536238D01*
X467260Y536540D01*
X466904Y536851D01*
X466556Y537171D01*
X466216Y537499D01*
X465884Y537835D01*
X465560Y538179D01*
X465245Y538531D01*
X464938Y538890D01*
X464640Y539257D01*
X464352Y539631D01*
X464072Y540012D01*
X463802Y540399D01*
X463541Y540794D01*
X463290Y541194D01*
X463049Y541600D01*
X462818Y542012D01*
X462597Y542429D01*
X462386Y542852D01*
X462185Y543280D01*
X461995Y543713D01*
X461816Y544150D01*
X461647Y544591D01*
X461489Y545036D01*
X461342Y545485D01*
X461206Y545937D01*
X461081Y546393D01*
X460967Y546852D01*
X460864Y547313D01*
X460773Y547776D01*
X460693Y548242D01*
X460624Y548709D01*
X460566Y549178D01*
X460520Y549648D01*
X460486Y550120D01*
X460463Y550591D01*
X460451Y551064D01*
X460451Y551536D01*
X460463Y552009D01*
X460486Y552480D01*
X460520Y552952D01*
X460566Y553422D01*
X460624Y553891D01*
X460693Y554358D01*
X460773Y554824D01*
X460864Y555287D01*
X460967Y555748D01*
X461081Y556207D01*
X461206Y556663D01*
X461342Y557115D01*
X461489Y557564D01*
X461647Y558009D01*
X461816Y558450D01*
X461995Y558887D01*
X462185Y559320D01*
X462386Y559748D01*
X462597Y560171D01*
X462818Y560588D01*
X463049Y561000D01*
X463290Y561406D01*
X463541Y561806D01*
X463802Y562201D01*
X464072Y562588D01*
X464352Y562969D01*
X464640Y563343D01*
X464938Y563710D01*
X465245Y564069D01*
X465560Y564421D01*
X465884Y564765D01*
X466216Y565101D01*
X466556Y565429D01*
X466904Y565749D01*
X467260Y566060D01*
X467623Y566362D01*
X467993Y566655D01*
X468371Y566939D01*
X468755Y567214D01*
X469146Y567480D01*
X469543Y567735D01*
X469946Y567982D01*
X470355Y568218D01*
X470770Y568444D01*
X471190Y568660D01*
X471616Y568866D01*
X472046Y569061D01*
X472481Y569246D01*
X472920Y569420D01*
X473363Y569583D01*
X473810Y569736D01*
X474261Y569877D01*
X474715Y570008D01*
X475172Y570128D01*
X475632Y570236D01*
X476094Y570333D01*
X476559Y570419D01*
X477025Y570493D01*
X477494Y570556D01*
X477963Y570608D01*
X478434Y570648D01*
X478905Y570677D01*
X479378Y570694D01*
X479850Y570700D01*
X489550Y570700D01*
X489550Y531900D01*
X460450Y606288D02*
X533200Y606288D01*
X533552Y606284D01*
X533903Y606271D01*
X534254Y606250D01*
X534604Y606220D01*
X534954Y606182D01*
X535302Y606135D01*
X535650Y606080D01*
X535995Y606017D01*
X536340Y605945D01*
X536682Y605865D01*
X537022Y605777D01*
X537361Y605680D01*
X537696Y605576D01*
X538029Y605463D01*
X538360Y605342D01*
X538687Y605214D01*
X539011Y605077D01*
X539331Y604933D01*
X539648Y604781D01*
X539962Y604621D01*
X540271Y604454D01*
X540576Y604280D01*
X540877Y604098D01*
X541174Y603909D01*
X541465Y603712D01*
X541752Y603509D01*
X542034Y603299D01*
X542311Y603082D01*
X542582Y602859D01*
X542848Y602629D01*
X543109Y602393D01*
X543363Y602150D01*
X543612Y601901D01*
X543855Y601647D01*
X544091Y601386D01*
X544321Y601120D01*
X544544Y600849D01*
X544761Y600572D01*
X544971Y600290D01*
X545174Y600003D01*
X545371Y599712D01*
X545560Y599415D01*
X545742Y599114D01*
X545916Y598809D01*
X546083Y598500D01*
X546243Y598186D01*
X546395Y597869D01*
X546539Y597549D01*
X546676Y597225D01*
X546804Y596898D01*
X546925Y596567D01*
X547038Y596234D01*
X547142Y595899D01*
X547239Y595560D01*
X547327Y595220D01*
X547407Y594878D01*
X547479Y594533D01*
X547542Y594188D01*
X547597Y593840D01*
X547644Y593492D01*
X547682Y593142D01*
X547712Y592792D01*
X547733Y592441D01*
X547746Y592090D01*
X547750Y591738D01*
X547750Y586888D01*
X436200Y603863D02*
X431350Y603863D01*
X431350Y608713D01*
X436200Y608713D01*
X436200Y603863D01*
X479850Y645900D02*
X499250Y645900D01*
X479850Y645900D02*
X479378Y645906D01*
X478905Y645923D01*
X478434Y645952D01*
X477963Y645992D01*
X477494Y646044D01*
X477025Y646107D01*
X476559Y646181D01*
X476094Y646267D01*
X475632Y646364D01*
X475172Y646472D01*
X474715Y646592D01*
X474261Y646723D01*
X473810Y646864D01*
X473363Y647017D01*
X472920Y647180D01*
X472481Y647354D01*
X472046Y647539D01*
X471616Y647734D01*
X471190Y647940D01*
X470770Y648156D01*
X470355Y648382D01*
X469946Y648618D01*
X469543Y648865D01*
X469146Y649120D01*
X468755Y649386D01*
X468371Y649661D01*
X467993Y649945D01*
X467623Y650238D01*
X467260Y650540D01*
X466904Y650851D01*
X466556Y651171D01*
X466216Y651499D01*
X465884Y651835D01*
X465560Y652179D01*
X465245Y652531D01*
X464938Y652890D01*
X464640Y653257D01*
X464352Y653631D01*
X464072Y654012D01*
X463802Y654399D01*
X463541Y654794D01*
X463290Y655194D01*
X463049Y655600D01*
X462818Y656012D01*
X462597Y656429D01*
X462386Y656852D01*
X462185Y657280D01*
X461995Y657713D01*
X461816Y658150D01*
X461647Y658591D01*
X461489Y659036D01*
X461342Y659485D01*
X461206Y659937D01*
X461081Y660393D01*
X460967Y660852D01*
X460864Y661313D01*
X460773Y661776D01*
X460693Y662242D01*
X460624Y662709D01*
X460566Y663178D01*
X460520Y663648D01*
X460486Y664120D01*
X460463Y664591D01*
X460451Y665064D01*
X460451Y665536D01*
X460463Y666009D01*
X460486Y666480D01*
X460520Y666952D01*
X460566Y667422D01*
X460624Y667891D01*
X460693Y668358D01*
X460773Y668824D01*
X460864Y669287D01*
X460967Y669748D01*
X461081Y670207D01*
X461206Y670663D01*
X461342Y671115D01*
X461489Y671564D01*
X461647Y672009D01*
X461816Y672450D01*
X461995Y672887D01*
X462185Y673320D01*
X462386Y673748D01*
X462597Y674171D01*
X462818Y674588D01*
X463049Y675000D01*
X463290Y675406D01*
X463541Y675806D01*
X463802Y676201D01*
X464072Y676588D01*
X464352Y676969D01*
X464640Y677343D01*
X464938Y677710D01*
X465245Y678069D01*
X465560Y678421D01*
X465884Y678765D01*
X466216Y679101D01*
X466556Y679429D01*
X466904Y679749D01*
X467260Y680060D01*
X467623Y680362D01*
X467993Y680655D01*
X468371Y680939D01*
X468755Y681214D01*
X469146Y681480D01*
X469543Y681735D01*
X469946Y681982D01*
X470355Y682218D01*
X470770Y682444D01*
X471190Y682660D01*
X471616Y682866D01*
X472046Y683061D01*
X472481Y683246D01*
X472920Y683420D01*
X473363Y683583D01*
X473810Y683736D01*
X474261Y683877D01*
X474715Y684008D01*
X475172Y684128D01*
X475632Y684236D01*
X476094Y684333D01*
X476559Y684419D01*
X477025Y684493D01*
X477494Y684556D01*
X477963Y684608D01*
X478434Y684648D01*
X478905Y684677D01*
X479378Y684694D01*
X479850Y684700D01*
X499250Y684700D01*
X499722Y684694D01*
X500195Y684677D01*
X500666Y684648D01*
X501137Y684608D01*
X501606Y684556D01*
X502075Y684493D01*
X502541Y684419D01*
X503006Y684333D01*
X503468Y684236D01*
X503928Y684128D01*
X504385Y684008D01*
X504839Y683877D01*
X505290Y683736D01*
X505737Y683583D01*
X506180Y683420D01*
X506619Y683246D01*
X507054Y683061D01*
X507484Y682866D01*
X507910Y682660D01*
X508330Y682444D01*
X508745Y682218D01*
X509154Y681982D01*
X509557Y681735D01*
X509954Y681480D01*
X510345Y681214D01*
X510729Y680939D01*
X511107Y680655D01*
X511477Y680362D01*
X511840Y680060D01*
X512196Y679749D01*
X512544Y679429D01*
X512884Y679101D01*
X513216Y678765D01*
X513540Y678421D01*
X513855Y678069D01*
X514162Y677710D01*
X514460Y677343D01*
X514748Y676969D01*
X515028Y676588D01*
X515298Y676201D01*
X515559Y675806D01*
X515810Y675406D01*
X516051Y675000D01*
X516282Y674588D01*
X516503Y674171D01*
X516714Y673748D01*
X516915Y673320D01*
X517105Y672887D01*
X517284Y672450D01*
X517453Y672009D01*
X517611Y671564D01*
X517758Y671115D01*
X517894Y670663D01*
X518019Y670207D01*
X518133Y669748D01*
X518236Y669287D01*
X518327Y668824D01*
X518407Y668358D01*
X518476Y667891D01*
X518534Y667422D01*
X518580Y666952D01*
X518614Y666480D01*
X518637Y666009D01*
X518649Y665536D01*
X518649Y665064D01*
X518637Y664591D01*
X518614Y664120D01*
X518580Y663648D01*
X518534Y663178D01*
X518476Y662709D01*
X518407Y662242D01*
X518327Y661776D01*
X518236Y661313D01*
X518133Y660852D01*
X518019Y660393D01*
X517894Y659937D01*
X517758Y659485D01*
X517611Y659036D01*
X517453Y658591D01*
X517284Y658150D01*
X517105Y657713D01*
X516915Y657280D01*
X516714Y656852D01*
X516503Y656429D01*
X516282Y656012D01*
X516051Y655600D01*
X515810Y655194D01*
X515559Y654794D01*
X515298Y654399D01*
X515028Y654012D01*
X514748Y653631D01*
X514460Y653257D01*
X514162Y652890D01*
X513855Y652531D01*
X513540Y652179D01*
X513216Y651835D01*
X512884Y651499D01*
X512544Y651171D01*
X512196Y650851D01*
X511840Y650540D01*
X511477Y650238D01*
X511107Y649945D01*
X510729Y649661D01*
X510345Y649386D01*
X509954Y649120D01*
X509557Y648865D01*
X509154Y648618D01*
X508745Y648382D01*
X508330Y648156D01*
X507910Y647940D01*
X507484Y647734D01*
X507054Y647539D01*
X506619Y647354D01*
X506180Y647180D01*
X505737Y647017D01*
X505290Y646864D01*
X504839Y646723D01*
X504385Y646592D01*
X503928Y646472D01*
X503468Y646364D01*
X503006Y646267D01*
X502541Y646181D01*
X502075Y646107D01*
X501606Y646044D01*
X501137Y645992D01*
X500666Y645952D01*
X500195Y645923D01*
X499722Y645906D01*
X499250Y645900D01*
X460450Y720900D02*
X518650Y740300D01*
X460450Y759700D01*
X460450Y799577D02*
X518650Y799577D01*
X460450Y799577D02*
X460450Y828677D01*
X470150Y828677D01*
X431350Y861900D02*
X518650Y861900D01*
X460450Y861900D02*
X460450Y886150D01*
X460454Y886502D01*
X460467Y886853D01*
X460488Y887204D01*
X460518Y887554D01*
X460556Y887904D01*
X460603Y888252D01*
X460658Y888600D01*
X460721Y888945D01*
X460793Y889290D01*
X460873Y889632D01*
X460961Y889972D01*
X461058Y890311D01*
X461162Y890646D01*
X461275Y890979D01*
X461396Y891310D01*
X461524Y891637D01*
X461661Y891961D01*
X461805Y892281D01*
X461957Y892598D01*
X462117Y892912D01*
X462284Y893221D01*
X462458Y893526D01*
X462640Y893827D01*
X462829Y894124D01*
X463026Y894415D01*
X463229Y894702D01*
X463439Y894984D01*
X463656Y895261D01*
X463879Y895532D01*
X464109Y895798D01*
X464345Y896059D01*
X464588Y896313D01*
X464837Y896562D01*
X465091Y896805D01*
X465352Y897041D01*
X465618Y897271D01*
X465889Y897494D01*
X466166Y897711D01*
X466448Y897921D01*
X466735Y898124D01*
X467026Y898321D01*
X467323Y898510D01*
X467624Y898692D01*
X467929Y898866D01*
X468238Y899033D01*
X468552Y899193D01*
X468869Y899345D01*
X469189Y899489D01*
X469513Y899626D01*
X469840Y899754D01*
X470171Y899875D01*
X470504Y899988D01*
X470839Y900092D01*
X471178Y900189D01*
X471518Y900277D01*
X471860Y900357D01*
X472205Y900429D01*
X472550Y900492D01*
X472898Y900547D01*
X473246Y900594D01*
X473596Y900632D01*
X473946Y900662D01*
X474297Y900683D01*
X474648Y900696D01*
X475000Y900700D01*
X518650Y900700D01*
X518650Y994576D02*
X460450Y994576D01*
X460450Y1023676D01*
X470150Y1023676D01*
X518650Y1068450D02*
X518650Y1092700D01*
X518650Y1068450D02*
X518646Y1068098D01*
X518633Y1067747D01*
X518612Y1067396D01*
X518582Y1067046D01*
X518544Y1066696D01*
X518497Y1066348D01*
X518442Y1066000D01*
X518379Y1065655D01*
X518307Y1065310D01*
X518227Y1064968D01*
X518139Y1064628D01*
X518042Y1064289D01*
X517938Y1063954D01*
X517825Y1063621D01*
X517704Y1063290D01*
X517576Y1062963D01*
X517439Y1062639D01*
X517295Y1062319D01*
X517143Y1062002D01*
X516983Y1061688D01*
X516816Y1061379D01*
X516642Y1061074D01*
X516460Y1060773D01*
X516271Y1060476D01*
X516074Y1060185D01*
X515871Y1059898D01*
X515661Y1059616D01*
X515444Y1059339D01*
X515221Y1059068D01*
X514991Y1058802D01*
X514755Y1058541D01*
X514512Y1058287D01*
X514263Y1058038D01*
X514009Y1057795D01*
X513748Y1057559D01*
X513482Y1057329D01*
X513211Y1057106D01*
X512934Y1056889D01*
X512652Y1056679D01*
X512365Y1056476D01*
X512074Y1056279D01*
X511777Y1056090D01*
X511476Y1055908D01*
X511171Y1055734D01*
X510862Y1055567D01*
X510548Y1055407D01*
X510231Y1055255D01*
X509911Y1055111D01*
X509587Y1054974D01*
X509260Y1054846D01*
X508929Y1054725D01*
X508596Y1054612D01*
X508261Y1054508D01*
X507922Y1054411D01*
X507582Y1054323D01*
X507240Y1054243D01*
X506895Y1054171D01*
X506550Y1054108D01*
X506202Y1054053D01*
X505854Y1054006D01*
X505504Y1053968D01*
X505154Y1053938D01*
X504803Y1053917D01*
X504452Y1053904D01*
X504100Y1053900D01*
X479850Y1053900D01*
X479378Y1053906D01*
X478905Y1053923D01*
X478434Y1053952D01*
X477963Y1053992D01*
X477494Y1054044D01*
X477025Y1054107D01*
X476559Y1054181D01*
X476094Y1054267D01*
X475632Y1054364D01*
X475172Y1054472D01*
X474715Y1054592D01*
X474261Y1054723D01*
X473810Y1054864D01*
X473363Y1055017D01*
X472920Y1055180D01*
X472481Y1055354D01*
X472046Y1055539D01*
X471616Y1055734D01*
X471190Y1055940D01*
X470770Y1056156D01*
X470355Y1056382D01*
X469946Y1056618D01*
X469543Y1056865D01*
X469146Y1057120D01*
X468755Y1057386D01*
X468371Y1057661D01*
X467993Y1057945D01*
X467623Y1058238D01*
X467260Y1058540D01*
X466904Y1058851D01*
X466556Y1059171D01*
X466216Y1059499D01*
X465884Y1059835D01*
X465560Y1060179D01*
X465245Y1060531D01*
X464938Y1060890D01*
X464640Y1061257D01*
X464352Y1061631D01*
X464072Y1062012D01*
X463802Y1062399D01*
X463541Y1062794D01*
X463290Y1063194D01*
X463049Y1063600D01*
X462818Y1064012D01*
X462597Y1064429D01*
X462386Y1064852D01*
X462185Y1065280D01*
X461995Y1065713D01*
X461816Y1066150D01*
X461647Y1066591D01*
X461489Y1067036D01*
X461342Y1067485D01*
X461206Y1067937D01*
X461081Y1068393D01*
X460967Y1068852D01*
X460864Y1069313D01*
X460773Y1069776D01*
X460693Y1070242D01*
X460624Y1070709D01*
X460566Y1071178D01*
X460520Y1071648D01*
X460486Y1072120D01*
X460463Y1072591D01*
X460451Y1073064D01*
X460451Y1073536D01*
X460463Y1074009D01*
X460486Y1074480D01*
X460520Y1074952D01*
X460566Y1075422D01*
X460624Y1075891D01*
X460693Y1076358D01*
X460773Y1076824D01*
X460864Y1077287D01*
X460967Y1077748D01*
X461081Y1078207D01*
X461206Y1078663D01*
X461342Y1079115D01*
X461489Y1079564D01*
X461647Y1080009D01*
X461816Y1080450D01*
X461995Y1080887D01*
X462185Y1081320D01*
X462386Y1081748D01*
X462597Y1082171D01*
X462818Y1082588D01*
X463049Y1083000D01*
X463290Y1083406D01*
X463541Y1083806D01*
X463802Y1084201D01*
X464072Y1084588D01*
X464352Y1084969D01*
X464640Y1085343D01*
X464938Y1085710D01*
X465245Y1086069D01*
X465560Y1086421D01*
X465884Y1086765D01*
X466216Y1087101D01*
X466556Y1087429D01*
X466904Y1087749D01*
X467260Y1088060D01*
X467623Y1088362D01*
X467993Y1088655D01*
X468371Y1088939D01*
X468755Y1089214D01*
X469146Y1089480D01*
X469543Y1089735D01*
X469946Y1089982D01*
X470355Y1090218D01*
X470770Y1090444D01*
X471190Y1090660D01*
X471616Y1090866D01*
X472046Y1091061D01*
X472481Y1091246D01*
X472920Y1091420D01*
X473363Y1091583D01*
X473810Y1091736D01*
X474261Y1091877D01*
X474715Y1092008D01*
X475172Y1092128D01*
X475632Y1092236D01*
X476094Y1092333D01*
X476559Y1092419D01*
X477025Y1092493D01*
X477494Y1092556D01*
X477963Y1092608D01*
X478434Y1092648D01*
X478905Y1092677D01*
X479378Y1092694D01*
X479850Y1092700D01*
X489550Y1092700D01*
X489550Y1053900D01*
X460450Y1128900D02*
X518650Y1148300D01*
X460450Y1167700D01*
X513800Y1199875D02*
X518650Y1199875D01*
X513800Y1199875D02*
X513800Y1204725D01*
X518650Y1204725D01*
X518650Y1199875D01*
X518650Y1241050D02*
X518650Y1270150D01*
X518644Y1270619D01*
X518627Y1271087D01*
X518599Y1271555D01*
X518559Y1272022D01*
X518509Y1272488D01*
X518446Y1272953D01*
X518373Y1273416D01*
X518289Y1273877D01*
X518193Y1274336D01*
X518086Y1274793D01*
X517969Y1275247D01*
X517840Y1275697D01*
X517700Y1276145D01*
X517550Y1276589D01*
X517389Y1277029D01*
X517218Y1277466D01*
X517036Y1277898D01*
X516843Y1278325D01*
X516641Y1278748D01*
X516428Y1279166D01*
X516205Y1279578D01*
X515972Y1279985D01*
X515730Y1280386D01*
X515478Y1280781D01*
X515216Y1281170D01*
X514945Y1281553D01*
X514665Y1281929D01*
X514376Y1282298D01*
X514078Y1282660D01*
X513771Y1283015D01*
X513456Y1283362D01*
X513133Y1283701D01*
X512801Y1284033D01*
X512462Y1284356D01*
X512115Y1284671D01*
X511760Y1284978D01*
X511398Y1285276D01*
X511029Y1285565D01*
X510653Y1285845D01*
X510270Y1286116D01*
X509881Y1286378D01*
X509486Y1286630D01*
X509085Y1286872D01*
X508678Y1287105D01*
X508266Y1287328D01*
X507848Y1287541D01*
X507425Y1287743D01*
X506998Y1287936D01*
X506566Y1288118D01*
X506129Y1288289D01*
X505689Y1288450D01*
X505245Y1288600D01*
X504797Y1288740D01*
X504347Y1288869D01*
X503893Y1288986D01*
X503436Y1289093D01*
X502977Y1289189D01*
X502516Y1289273D01*
X502053Y1289346D01*
X501588Y1289409D01*
X501122Y1289459D01*
X500655Y1289499D01*
X500187Y1289527D01*
X499719Y1289544D01*
X499250Y1289550D01*
X489550Y1289550D01*
X489081Y1289544D01*
X488613Y1289527D01*
X488145Y1289499D01*
X487678Y1289459D01*
X487212Y1289409D01*
X486747Y1289346D01*
X486284Y1289273D01*
X485823Y1289189D01*
X485364Y1289093D01*
X484907Y1288986D01*
X484453Y1288869D01*
X484003Y1288740D01*
X483555Y1288600D01*
X483111Y1288450D01*
X482671Y1288289D01*
X482234Y1288118D01*
X481802Y1287936D01*
X481375Y1287743D01*
X480952Y1287541D01*
X480534Y1287328D01*
X480122Y1287105D01*
X479715Y1286872D01*
X479314Y1286630D01*
X478919Y1286378D01*
X478530Y1286116D01*
X478147Y1285845D01*
X477771Y1285565D01*
X477402Y1285276D01*
X477040Y1284978D01*
X476685Y1284671D01*
X476338Y1284356D01*
X475999Y1284033D01*
X475667Y1283701D01*
X475344Y1283362D01*
X475029Y1283015D01*
X474722Y1282660D01*
X474424Y1282298D01*
X474135Y1281929D01*
X473855Y1281553D01*
X473584Y1281170D01*
X473322Y1280781D01*
X473070Y1280386D01*
X472828Y1279985D01*
X472595Y1279578D01*
X472372Y1279166D01*
X472159Y1278748D01*
X471957Y1278325D01*
X471764Y1277898D01*
X471582Y1277466D01*
X471411Y1277029D01*
X471250Y1276589D01*
X471100Y1276145D01*
X470960Y1275697D01*
X470831Y1275247D01*
X470714Y1274793D01*
X470607Y1274336D01*
X470511Y1273877D01*
X470427Y1273416D01*
X470354Y1272953D01*
X470291Y1272488D01*
X470241Y1272022D01*
X470201Y1271555D01*
X470173Y1271087D01*
X470156Y1270619D01*
X470150Y1270150D01*
X470150Y1241050D01*
X431350Y1241050D01*
X431350Y1289550D01*
X484700Y1346275D02*
X484700Y1368100D01*
X484700Y1346275D02*
X484705Y1345862D01*
X484720Y1345449D01*
X484745Y1345036D01*
X484780Y1344624D01*
X484826Y1344213D01*
X484881Y1343803D01*
X484946Y1343395D01*
X485021Y1342989D01*
X485106Y1342584D01*
X485201Y1342182D01*
X485305Y1341782D01*
X485420Y1341385D01*
X485544Y1340990D01*
X485677Y1340599D01*
X485820Y1340211D01*
X485972Y1339827D01*
X486134Y1339446D01*
X486305Y1339070D01*
X486485Y1338698D01*
X486674Y1338330D01*
X486872Y1337967D01*
X487079Y1337609D01*
X487294Y1337256D01*
X487518Y1336909D01*
X487750Y1336567D01*
X487991Y1336231D01*
X488239Y1335900D01*
X488496Y1335576D01*
X488760Y1335258D01*
X489032Y1334947D01*
X489312Y1334643D01*
X489599Y1334345D01*
X489893Y1334055D01*
X490194Y1333771D01*
X490502Y1333495D01*
X490817Y1333227D01*
X491137Y1332967D01*
X491465Y1332714D01*
X491798Y1332469D01*
X492137Y1332233D01*
X492482Y1332005D01*
X492832Y1331785D01*
X493188Y1331574D01*
X493548Y1331372D01*
X493913Y1331178D01*
X494283Y1330994D01*
X494658Y1330818D01*
X495036Y1330652D01*
X495418Y1330495D01*
X495805Y1330347D01*
X496194Y1330209D01*
X496587Y1330080D01*
X496983Y1329961D01*
X497381Y1329852D01*
X497783Y1329752D01*
X498186Y1329662D01*
X498592Y1329582D01*
X498999Y1329512D01*
X499408Y1329452D01*
X499818Y1329402D01*
X500230Y1329362D01*
X500642Y1329331D01*
X501055Y1329311D01*
X501468Y1329301D01*
X501882Y1329301D01*
X502295Y1329311D01*
X502708Y1329331D01*
X503120Y1329362D01*
X503532Y1329402D01*
X503942Y1329452D01*
X504351Y1329512D01*
X504758Y1329582D01*
X505164Y1329662D01*
X505567Y1329752D01*
X505969Y1329852D01*
X506367Y1329961D01*
X506763Y1330080D01*
X507156Y1330209D01*
X507545Y1330347D01*
X507932Y1330495D01*
X508314Y1330652D01*
X508692Y1330818D01*
X509067Y1330994D01*
X509437Y1331178D01*
X509802Y1331372D01*
X510163Y1331574D01*
X510518Y1331785D01*
X510868Y1332005D01*
X511213Y1332233D01*
X511552Y1332469D01*
X511885Y1332714D01*
X512213Y1332967D01*
X512533Y1333227D01*
X512848Y1333495D01*
X513156Y1333771D01*
X513457Y1334055D01*
X513751Y1334345D01*
X514038Y1334643D01*
X514318Y1334947D01*
X514590Y1335258D01*
X514854Y1335576D01*
X515111Y1335900D01*
X515359Y1336231D01*
X515600Y1336567D01*
X515832Y1336909D01*
X516056Y1337256D01*
X516271Y1337609D01*
X516478Y1337967D01*
X516676Y1338330D01*
X516865Y1338698D01*
X517045Y1339070D01*
X517216Y1339446D01*
X517378Y1339827D01*
X517530Y1340211D01*
X517673Y1340599D01*
X517806Y1340990D01*
X517930Y1341385D01*
X518045Y1341782D01*
X518149Y1342182D01*
X518244Y1342584D01*
X518329Y1342989D01*
X518404Y1343395D01*
X518469Y1343803D01*
X518524Y1344213D01*
X518570Y1344624D01*
X518605Y1345036D01*
X518630Y1345449D01*
X518645Y1345862D01*
X518650Y1346275D01*
X518650Y1368100D01*
X475000Y1368100D01*
X474648Y1368096D01*
X474297Y1368083D01*
X473946Y1368062D01*
X473596Y1368032D01*
X473246Y1367994D01*
X472898Y1367947D01*
X472550Y1367892D01*
X472205Y1367829D01*
X471860Y1367757D01*
X471518Y1367677D01*
X471178Y1367589D01*
X470839Y1367492D01*
X470504Y1367388D01*
X470171Y1367275D01*
X469840Y1367154D01*
X469513Y1367026D01*
X469189Y1366889D01*
X468869Y1366745D01*
X468552Y1366593D01*
X468238Y1366433D01*
X467929Y1366266D01*
X467624Y1366092D01*
X467323Y1365910D01*
X467026Y1365721D01*
X466735Y1365524D01*
X466448Y1365321D01*
X466166Y1365111D01*
X465889Y1364894D01*
X465618Y1364671D01*
X465352Y1364441D01*
X465091Y1364205D01*
X464837Y1363962D01*
X464588Y1363713D01*
X464345Y1363459D01*
X464109Y1363198D01*
X463879Y1362932D01*
X463656Y1362661D01*
X463439Y1362384D01*
X463229Y1362102D01*
X463026Y1361815D01*
X462829Y1361524D01*
X462640Y1361227D01*
X462458Y1360926D01*
X462284Y1360621D01*
X462117Y1360312D01*
X461957Y1359998D01*
X461805Y1359681D01*
X461661Y1359361D01*
X461524Y1359037D01*
X461396Y1358710D01*
X461275Y1358379D01*
X461162Y1358046D01*
X461058Y1357711D01*
X460961Y1357372D01*
X460873Y1357032D01*
X460793Y1356690D01*
X460721Y1356345D01*
X460658Y1356000D01*
X460603Y1355652D01*
X460556Y1355304D01*
X460518Y1354954D01*
X460488Y1354604D01*
X460467Y1354253D01*
X460454Y1353902D01*
X460450Y1353550D01*
X460450Y1334150D01*
D12*
X3400000Y300000D02*
X3400000Y3200000D01*
X3400000Y300000D02*
X3399942Y295167D01*
X3399766Y290337D01*
X3399475Y285513D01*
X3399066Y280697D01*
X3398542Y275893D01*
X3397901Y271102D01*
X3397145Y266329D01*
X3396274Y261575D01*
X3395288Y256843D01*
X3394188Y252137D01*
X3392975Y247459D01*
X3391649Y242811D01*
X3390211Y238197D01*
X3388662Y233618D01*
X3387003Y229079D01*
X3385235Y224581D01*
X3383358Y220127D01*
X3381375Y215720D01*
X3379285Y211362D01*
X3377091Y207055D01*
X3374794Y202803D01*
X3372394Y198608D01*
X3369894Y194472D01*
X3367294Y190397D01*
X3364597Y186387D01*
X3361803Y182443D01*
X3358916Y178567D01*
X3355935Y174763D01*
X3352863Y171032D01*
X3349702Y167375D01*
X3346454Y163797D01*
X3343120Y160298D01*
X3339702Y156880D01*
X3336203Y153546D01*
X3332625Y150298D01*
X3328968Y147137D01*
X3325237Y144065D01*
X3321433Y141084D01*
X3317557Y138197D01*
X3313613Y135403D01*
X3309603Y132706D01*
X3305528Y130106D01*
X3301392Y127606D01*
X3297197Y125206D01*
X3292945Y122909D01*
X3288638Y120715D01*
X3284280Y118625D01*
X3279873Y116642D01*
X3275419Y114765D01*
X3270921Y112997D01*
X3266382Y111338D01*
X3261803Y109789D01*
X3257189Y108351D01*
X3252541Y107025D01*
X3247863Y105812D01*
X3243157Y104712D01*
X3238425Y103726D01*
X3233671Y102855D01*
X3228898Y102099D01*
X3224107Y101458D01*
X3219303Y100934D01*
X3214487Y100525D01*
X3209663Y100234D01*
X3204833Y100058D01*
X3200000Y100000D01*
X300000Y100000D01*
X295167Y100058D01*
X290337Y100234D01*
X285513Y100525D01*
X280697Y100934D01*
X275893Y101458D01*
X271102Y102099D01*
X266329Y102855D01*
X261575Y103726D01*
X256843Y104712D01*
X252137Y105812D01*
X247459Y107025D01*
X242811Y108351D01*
X238197Y109789D01*
X233618Y111338D01*
X229079Y112997D01*
X224581Y114765D01*
X220127Y116642D01*
X215720Y118625D01*
X211362Y120715D01*
X207055Y122909D01*
X202803Y125206D01*
X198608Y127606D01*
X194472Y130106D01*
X190397Y132706D01*
X186387Y135403D01*
X182443Y138197D01*
X178567Y141084D01*
X174763Y144065D01*
X171032Y147137D01*
X167375Y150298D01*
X163797Y153546D01*
X160298Y156880D01*
X156880Y160298D01*
X153546Y163797D01*
X150298Y167375D01*
X147137Y171032D01*
X144065Y174763D01*
X141084Y178567D01*
X138197Y182443D01*
X135403Y186387D01*
X132706Y190397D01*
X130106Y194472D01*
X127606Y198608D01*
X125206Y202803D01*
X122909Y207055D01*
X120715Y211362D01*
X118625Y215720D01*
X116642Y220127D01*
X114765Y224581D01*
X112997Y229079D01*
X111338Y233618D01*
X109789Y238197D01*
X108351Y242811D01*
X107025Y247459D01*
X105812Y252137D01*
X104712Y256843D01*
X103726Y261575D01*
X102855Y266329D01*
X102099Y271102D01*
X101458Y275893D01*
X100934Y280697D01*
X100525Y285513D01*
X100234Y290337D01*
X100058Y295167D01*
X100000Y300000D01*
X100000Y3200000D01*
X100058Y3204833D01*
X100234Y3209663D01*
X100525Y3214487D01*
X100934Y3219303D01*
X101458Y3224107D01*
X102099Y3228898D01*
X102855Y3233671D01*
X103726Y3238425D01*
X104712Y3243157D01*
X105812Y3247863D01*
X107025Y3252541D01*
X108351Y3257189D01*
X109789Y3261803D01*
X111338Y3266382D01*
X112997Y3270921D01*
X114765Y3275419D01*
X116642Y3279873D01*
X118625Y3284280D01*
X120715Y3288638D01*
X122909Y3292945D01*
X125206Y3297197D01*
X127606Y3301392D01*
X130106Y3305528D01*
X132706Y3309603D01*
X135403Y3313613D01*
X138197Y3317557D01*
X141084Y3321433D01*
X144065Y3325237D01*
X147137Y3328968D01*
X150298Y3332625D01*
X153546Y3336203D01*
X156880Y3339702D01*
X160298Y3343120D01*
X163797Y3346454D01*
X167375Y3349702D01*
X171032Y3352863D01*
X174763Y3355935D01*
X178567Y3358916D01*
X182443Y3361803D01*
X186387Y3364597D01*
X190397Y3367294D01*
X194472Y3369894D01*
X198608Y3372394D01*
X202803Y3374794D01*
X207055Y3377091D01*
X211362Y3379285D01*
X215720Y3381375D01*
X220127Y3383358D01*
X224581Y3385235D01*
X229079Y3387003D01*
X233618Y3388662D01*
X238197Y3390211D01*
X242811Y3391649D01*
X247459Y3392975D01*
X252137Y3394188D01*
X256843Y3395288D01*
X261575Y3396274D01*
X266329Y3397145D01*
X271102Y3397901D01*
X275893Y3398542D01*
X280697Y3399066D01*
X285513Y3399475D01*
X290337Y3399766D01*
X295167Y3399942D01*
X300000Y3400000D01*
X3200000Y3400000D01*
X3204833Y3399942D01*
X3209663Y3399766D01*
X3214487Y3399475D01*
X3219303Y3399066D01*
X3224107Y3398542D01*
X3228898Y3397901D01*
X3233671Y3397145D01*
X3238425Y3396274D01*
X3243157Y3395288D01*
X3247863Y3394188D01*
X3252541Y3392975D01*
X3257189Y3391649D01*
X3261803Y3390211D01*
X3266382Y3388662D01*
X3270921Y3387003D01*
X3275419Y3385235D01*
X3279873Y3383358D01*
X3284280Y3381375D01*
X3288638Y3379285D01*
X3292945Y3377091D01*
X3297197Y3374794D01*
X3301392Y3372394D01*
X3305528Y3369894D01*
X3309603Y3367294D01*
X3313613Y3364597D01*
X3317557Y3361803D01*
X3321433Y3358916D01*
X3325237Y3355935D01*
X3328968Y3352863D01*
X3332625Y3349702D01*
X3336203Y3346454D01*
X3339702Y3343120D01*
X3343120Y3339702D01*
X3346454Y3336203D01*
X3349702Y3332625D01*
X3352863Y3328968D01*
X3355935Y3325237D01*
X3358916Y3321433D01*
X3361803Y3317557D01*
X3364597Y3313613D01*
X3367294Y3309603D01*
X3369894Y3305528D01*
X3372394Y3301392D01*
X3374794Y3297197D01*
X3377091Y3292945D01*
X3379285Y3288638D01*
X3381375Y3284280D01*
X3383358Y3279873D01*
X3385235Y3275419D01*
X3387003Y3270921D01*
X3388662Y3266382D01*
X3390211Y3261803D01*
X3391649Y3257189D01*
X3392975Y3252541D01*
X3394188Y3247863D01*
X3395288Y3243157D01*
X3396274Y3238425D01*
X3397145Y3233671D01*
X3397901Y3228898D01*
X3398542Y3224107D01*
X3399066Y3219303D01*
X3399475Y3214487D01*
X3399766Y3209663D01*
X3399942Y3204833D01*
X3400000Y3200000D01*
D13*
X2425000Y1835000D03*
X2425000Y2215000D03*
D14*
X1100000Y1325000D03*
X1100000Y1175000D03*
X1400000Y1325000D03*
X1400000Y1175000D03*
X1600000Y1325000D03*
X1600000Y1175000D03*
X1900000Y1325000D03*
X1900000Y1175000D03*
X2100000Y1325000D03*
X2100000Y1175000D03*
X2400000Y1325000D03*
X2400000Y1175000D03*
X1100000Y925000D03*
X1100000Y775000D03*
X1400000Y925000D03*
X1400000Y775000D03*
X1600000Y925000D03*
X1600000Y775000D03*
X1900000Y925000D03*
X1900000Y775000D03*
X2100000Y925000D03*
X2100000Y775000D03*
X2400000Y925000D03*
X2400000Y775000D03*
X1100000Y525000D03*
X1100000Y375000D03*
X1400000Y525000D03*
X1400000Y375000D03*
X1600000Y525000D03*
X1600000Y375000D03*
X1900000Y525000D03*
X1900000Y375000D03*
X2100000Y525000D03*
X2100000Y375000D03*
X2400000Y525000D03*
X2400000Y375000D03*
D15*
X1750000Y2740000D03*
X1845000Y2740000D03*
X1655000Y2740000D03*
X1655000Y2510000D03*
X1845000Y2510000D03*
D16*
X1958000Y1800000D03*
D17*
X1948000Y1850000D03*
X1948000Y1900000D03*
X1948000Y1950000D03*
X1948000Y2000000D03*
X1948000Y2050000D03*
D16*
X1958000Y2100000D03*
D18*
X1900000Y2158000D03*
D19*
X1850000Y2148000D03*
X1800000Y2148000D03*
X1750000Y2148000D03*
X1700000Y2148000D03*
X1650000Y2148000D03*
D18*
X1600000Y2158000D03*
D16*
X1542000Y2100000D03*
D17*
X1552000Y2050000D03*
X1552000Y2000000D03*
X1552000Y1950000D03*
X1552000Y1900000D03*
X1552000Y1850000D03*
D16*
X1542000Y1800000D03*
D18*
X1600000Y1742000D03*
D19*
X1650000Y1752000D03*
X1700000Y1752000D03*
X1750000Y1752000D03*
X1800000Y1752000D03*
X1850000Y1752000D03*
D18*
X1900000Y1742000D03*
D20*
X800500Y2331000D03*
X865500Y2331000D03*
X930500Y2331000D03*
X995500Y2331000D03*
X995500Y2586000D03*
X930500Y2586000D03*
X865500Y2586000D03*
X800500Y2586000D03*
D21*
X2725000Y1700000D03*
D22*
X2631000Y1552000D03*
X2725000Y1552000D03*
X2819000Y1552000D03*
X2725000Y1848000D03*
X2820000Y1848000D03*
X2630000Y1848000D03*
D23*
X2825000Y2140000D03*
D24*
X2922500Y2172500D03*
X2922500Y2107500D03*
X2727500Y2172500D03*
X2727500Y2107500D03*
X2922500Y2012000D03*
X2727500Y2012000D03*
D25*
X2825000Y2008500D03*
D26*
X2875000Y850000D03*
D27*
X3023000Y756000D03*
X3023000Y850000D03*
X3023000Y944000D03*
X2727000Y850000D03*
X2727000Y945000D03*
X2727000Y755000D03*
D28*
X2725000Y2770000D03*
X2725000Y2330000D03*
D29*
X513500Y1873000D03*
X513500Y1746000D03*
X513500Y1619000D03*
X386500Y1619000D03*
X386500Y1746000D03*
X386500Y1873000D03*
D10*
X400470Y2000000D02*
X400485Y2001216D01*
X400530Y2002430D01*
X400604Y2003644D01*
X400709Y2004855D01*
X400842Y2006063D01*
X401006Y2007268D01*
X401199Y2008468D01*
X401422Y2009663D01*
X401673Y2010852D01*
X401954Y2012035D01*
X402264Y2013210D01*
X402603Y2014378D01*
X402970Y2015537D01*
X403365Y2016686D01*
X403789Y2017826D01*
X404240Y2018954D01*
X404719Y2020072D01*
X405225Y2021177D01*
X405759Y2022269D01*
X406318Y2023348D01*
X406905Y2024413D01*
X407517Y2025464D01*
X408154Y2026498D01*
X408817Y2027517D01*
X409505Y2028520D01*
X410217Y2029505D01*
X410953Y2030472D01*
X411713Y2031421D01*
X412495Y2032352D01*
X413301Y2033262D01*
X414128Y2034153D01*
X414977Y2035023D01*
X415847Y2035872D01*
X416738Y2036699D01*
X417648Y2037505D01*
X418579Y2038287D01*
X419528Y2039047D01*
X420495Y2039783D01*
X421480Y2040495D01*
X422483Y2041183D01*
X423502Y2041846D01*
X424536Y2042483D01*
X425587Y2043095D01*
X426652Y2043682D01*
X427731Y2044241D01*
X428823Y2044775D01*
X429928Y2045281D01*
X431046Y2045760D01*
X432174Y2046211D01*
X433314Y2046635D01*
X434463Y2047030D01*
X435622Y2047397D01*
X436790Y2047736D01*
X437965Y2048046D01*
X439148Y2048327D01*
X440337Y2048578D01*
X441532Y2048801D01*
X442732Y2048994D01*
X443937Y2049158D01*
X445145Y2049291D01*
X446356Y2049396D01*
X447570Y2049470D01*
X448784Y2049515D01*
X450000Y2049530D01*
X451216Y2049515D01*
X452430Y2049470D01*
X453644Y2049396D01*
X454855Y2049291D01*
X456063Y2049158D01*
X457268Y2048994D01*
X458468Y2048801D01*
X459663Y2048578D01*
X460852Y2048327D01*
X462035Y2048046D01*
X463210Y2047736D01*
X464378Y2047397D01*
X465537Y2047030D01*
X466686Y2046635D01*
X467826Y2046211D01*
X468954Y2045760D01*
X470072Y2045281D01*
X471177Y2044775D01*
X472269Y2044241D01*
X473348Y2043682D01*
X474413Y2043095D01*
X475464Y2042483D01*
X476498Y2041846D01*
X477517Y2041183D01*
X478520Y2040495D01*
X479505Y2039783D01*
X480472Y2039047D01*
X481421Y2038287D01*
X482352Y2037505D01*
X483262Y2036699D01*
X484153Y2035872D01*
X485023Y2035023D01*
X485872Y2034153D01*
X486699Y2033262D01*
X487505Y2032352D01*
X488287Y2031421D01*
X489047Y2030472D01*
X489783Y2029505D01*
X490495Y2028520D01*
X491183Y2027517D01*
X491846Y2026498D01*
X492483Y2025464D01*
X493095Y2024413D01*
X493682Y2023348D01*
X494241Y2022269D01*
X494775Y2021177D01*
X495281Y2020072D01*
X495760Y2018954D01*
X496211Y2017826D01*
X496635Y2016686D01*
X497030Y2015537D01*
X497397Y2014378D01*
X497736Y2013210D01*
X498046Y2012035D01*
X498327Y2010852D01*
X498578Y2009663D01*
X498801Y2008468D01*
X498994Y2007268D01*
X499158Y2006063D01*
X499291Y2004855D01*
X499396Y2003644D01*
X499470Y2002430D01*
X499515Y2001216D01*
X499530Y2000000D01*
X499515Y1998784D01*
X499470Y1997570D01*
X499396Y1996356D01*
X499291Y1995145D01*
X499158Y1993937D01*
X498994Y1992732D01*
X498801Y1991532D01*
X498578Y1990337D01*
X498327Y1989148D01*
X498046Y1987965D01*
X497736Y1986790D01*
X497397Y1985622D01*
X497030Y1984463D01*
X496635Y1983314D01*
X496211Y1982174D01*
X495760Y1981046D01*
X495281Y1979928D01*
X494775Y1978823D01*
X494241Y1977731D01*
X493682Y1976652D01*
X493095Y1975587D01*
X492483Y1974536D01*
X491846Y1973502D01*
X491183Y1972483D01*
X490495Y1971480D01*
X489783Y1970495D01*
X489047Y1969528D01*
X488287Y1968579D01*
X487505Y1967648D01*
X486699Y1966738D01*
X485872Y1965847D01*
X485023Y1964977D01*
X484153Y1964128D01*
X483262Y1963301D01*
X482352Y1962495D01*
X481421Y1961713D01*
X480472Y1960953D01*
X479505Y1960217D01*
X478520Y1959505D01*
X477517Y1958817D01*
X476498Y1958154D01*
X475464Y1957517D01*
X474413Y1956905D01*
X473348Y1956318D01*
X472269Y1955759D01*
X471177Y1955225D01*
X470072Y1954719D01*
X468954Y1954240D01*
X467826Y1953789D01*
X466686Y1953365D01*
X465537Y1952970D01*
X464378Y1952603D01*
X463210Y1952264D01*
X462035Y1951954D01*
X460852Y1951673D01*
X459663Y1951422D01*
X458468Y1951199D01*
X457268Y1951006D01*
X456063Y1950842D01*
X454855Y1950709D01*
X453644Y1950604D01*
X452430Y1950530D01*
X451216Y1950485D01*
X450000Y1950470D01*
X448784Y1950485D01*
X447570Y1950530D01*
X446356Y1950604D01*
X445145Y1950709D01*
X443937Y1950842D01*
X442732Y1951006D01*
X441532Y1951199D01*
X440337Y1951422D01*
X439148Y1951673D01*
X437965Y1951954D01*
X436790Y1952264D01*
X435622Y1952603D01*
X434463Y1952970D01*
X433314Y1953365D01*
X432174Y1953789D01*
X431046Y1954240D01*
X429928Y1954719D01*
X428823Y1955225D01*
X427731Y1955759D01*
X426652Y1956318D01*
X425587Y1956905D01*
X424536Y1957517D01*
X423502Y1958154D01*
X422483Y1958817D01*
X421480Y1959505D01*
X420495Y1960217D01*
X419528Y1960953D01*
X418579Y1961713D01*
X417648Y1962495D01*
X416738Y1963301D01*
X415847Y1964128D01*
X414977Y1964977D01*
X414128Y1965847D01*
X413301Y1966738D01*
X412495Y1967648D01*
X411713Y1968579D01*
X410953Y1969528D01*
X410217Y1970495D01*
X409505Y1971480D01*
X408817Y1972483D01*
X408154Y1973502D01*
X407517Y1974536D01*
X406905Y1975587D01*
X406318Y1976652D01*
X405759Y1977731D01*
X405225Y1978823D01*
X404719Y1979928D01*
X404240Y1981046D01*
X403789Y1982174D01*
X403365Y1983314D01*
X402970Y1984463D01*
X402603Y1985622D01*
X402264Y1986790D01*
X401954Y1987965D01*
X401673Y1989148D01*
X401422Y1990337D01*
X401199Y1991532D01*
X401006Y1992732D01*
X400842Y1993937D01*
X400709Y1995145D01*
X400604Y1996356D01*
X400530Y1997570D01*
X400485Y1998784D01*
X400470Y2000000D01*
D30*
X450000Y2000000D03*
D10*
X298870Y1492000D02*
X298885Y1493216D01*
X298930Y1494430D01*
X299004Y1495644D01*
X299109Y1496855D01*
X299242Y1498063D01*
X299406Y1499268D01*
X299599Y1500468D01*
X299822Y1501663D01*
X300073Y1502852D01*
X300354Y1504035D01*
X300664Y1505210D01*
X301003Y1506378D01*
X301370Y1507537D01*
X301765Y1508686D01*
X302189Y1509826D01*
X302640Y1510954D01*
X303119Y1512072D01*
X303625Y1513177D01*
X304159Y1514269D01*
X304718Y1515348D01*
X305305Y1516413D01*
X305917Y1517464D01*
X306554Y1518498D01*
X307217Y1519517D01*
X307905Y1520520D01*
X308617Y1521505D01*
X309353Y1522472D01*
X310113Y1523421D01*
X310895Y1524352D01*
X311701Y1525262D01*
X312528Y1526153D01*
X313377Y1527023D01*
X314247Y1527872D01*
X315138Y1528699D01*
X316048Y1529505D01*
X316979Y1530287D01*
X317928Y1531047D01*
X318895Y1531783D01*
X319880Y1532495D01*
X320883Y1533183D01*
X321902Y1533846D01*
X322936Y1534483D01*
X323987Y1535095D01*
X325052Y1535682D01*
X326131Y1536241D01*
X327223Y1536775D01*
X328328Y1537281D01*
X329446Y1537760D01*
X330574Y1538211D01*
X331714Y1538635D01*
X332863Y1539030D01*
X334022Y1539397D01*
X335190Y1539736D01*
X336365Y1540046D01*
X337548Y1540327D01*
X338737Y1540578D01*
X339932Y1540801D01*
X341132Y1540994D01*
X342337Y1541158D01*
X343545Y1541291D01*
X344756Y1541396D01*
X345970Y1541470D01*
X347184Y1541515D01*
X348400Y1541530D01*
X349616Y1541515D01*
X350830Y1541470D01*
X352044Y1541396D01*
X353255Y1541291D01*
X354463Y1541158D01*
X355668Y1540994D01*
X356868Y1540801D01*
X358063Y1540578D01*
X359252Y1540327D01*
X360435Y1540046D01*
X361610Y1539736D01*
X362778Y1539397D01*
X363937Y1539030D01*
X365086Y1538635D01*
X366226Y1538211D01*
X367354Y1537760D01*
X368472Y1537281D01*
X369577Y1536775D01*
X370669Y1536241D01*
X371748Y1535682D01*
X372813Y1535095D01*
X373864Y1534483D01*
X374898Y1533846D01*
X375917Y1533183D01*
X376920Y1532495D01*
X377905Y1531783D01*
X378872Y1531047D01*
X379821Y1530287D01*
X380752Y1529505D01*
X381662Y1528699D01*
X382553Y1527872D01*
X383423Y1527023D01*
X384272Y1526153D01*
X385099Y1525262D01*
X385905Y1524352D01*
X386687Y1523421D01*
X387447Y1522472D01*
X388183Y1521505D01*
X388895Y1520520D01*
X389583Y1519517D01*
X390246Y1518498D01*
X390883Y1517464D01*
X391495Y1516413D01*
X392082Y1515348D01*
X392641Y1514269D01*
X393175Y1513177D01*
X393681Y1512072D01*
X394160Y1510954D01*
X394611Y1509826D01*
X395035Y1508686D01*
X395430Y1507537D01*
X395797Y1506378D01*
X396136Y1505210D01*
X396446Y1504035D01*
X396727Y1502852D01*
X396978Y1501663D01*
X397201Y1500468D01*
X397394Y1499268D01*
X397558Y1498063D01*
X397691Y1496855D01*
X397796Y1495644D01*
X397870Y1494430D01*
X397915Y1493216D01*
X397930Y1492000D01*
X397915Y1490784D01*
X397870Y1489570D01*
X397796Y1488356D01*
X397691Y1487145D01*
X397558Y1485937D01*
X397394Y1484732D01*
X397201Y1483532D01*
X396978Y1482337D01*
X396727Y1481148D01*
X396446Y1479965D01*
X396136Y1478790D01*
X395797Y1477622D01*
X395430Y1476463D01*
X395035Y1475314D01*
X394611Y1474174D01*
X394160Y1473046D01*
X393681Y1471928D01*
X393175Y1470823D01*
X392641Y1469731D01*
X392082Y1468652D01*
X391495Y1467587D01*
X390883Y1466536D01*
X390246Y1465502D01*
X389583Y1464483D01*
X388895Y1463480D01*
X388183Y1462495D01*
X387447Y1461528D01*
X386687Y1460579D01*
X385905Y1459648D01*
X385099Y1458738D01*
X384272Y1457847D01*
X383423Y1456977D01*
X382553Y1456128D01*
X381662Y1455301D01*
X380752Y1454495D01*
X379821Y1453713D01*
X378872Y1452953D01*
X377905Y1452217D01*
X376920Y1451505D01*
X375917Y1450817D01*
X374898Y1450154D01*
X373864Y1449517D01*
X372813Y1448905D01*
X371748Y1448318D01*
X370669Y1447759D01*
X369577Y1447225D01*
X368472Y1446719D01*
X367354Y1446240D01*
X366226Y1445789D01*
X365086Y1445365D01*
X363937Y1444970D01*
X362778Y1444603D01*
X361610Y1444264D01*
X360435Y1443954D01*
X359252Y1443673D01*
X358063Y1443422D01*
X356868Y1443199D01*
X355668Y1443006D01*
X354463Y1442842D01*
X353255Y1442709D01*
X352044Y1442604D01*
X350830Y1442530D01*
X349616Y1442485D01*
X348400Y1442470D01*
X347184Y1442485D01*
X345970Y1442530D01*
X344756Y1442604D01*
X343545Y1442709D01*
X342337Y1442842D01*
X341132Y1443006D01*
X339932Y1443199D01*
X338737Y1443422D01*
X337548Y1443673D01*
X336365Y1443954D01*
X335190Y1444264D01*
X334022Y1444603D01*
X332863Y1444970D01*
X331714Y1445365D01*
X330574Y1445789D01*
X329446Y1446240D01*
X328328Y1446719D01*
X327223Y1447225D01*
X326131Y1447759D01*
X325052Y1448318D01*
X323987Y1448905D01*
X322936Y1449517D01*
X321902Y1450154D01*
X320883Y1450817D01*
X319880Y1451505D01*
X318895Y1452217D01*
X317928Y1452953D01*
X316979Y1453713D01*
X316048Y1454495D01*
X315138Y1455301D01*
X314247Y1456128D01*
X313377Y1456977D01*
X312528Y1457847D01*
X311701Y1458738D01*
X310895Y1459648D01*
X310113Y1460579D01*
X309353Y1461528D01*
X308617Y1462495D01*
X307905Y1463480D01*
X307217Y1464483D01*
X306554Y1465502D01*
X305917Y1466536D01*
X305305Y1467587D01*
X304718Y1468652D01*
X304159Y1469731D01*
X303625Y1470823D01*
X303119Y1471928D01*
X302640Y1473046D01*
X302189Y1474174D01*
X301765Y1475314D01*
X301370Y1476463D01*
X301003Y1477622D01*
X300664Y1478790D01*
X300354Y1479965D01*
X300073Y1481148D01*
X299822Y1482337D01*
X299599Y1483532D01*
X299406Y1484732D01*
X299242Y1485937D01*
X299109Y1487145D01*
X299004Y1488356D01*
X298930Y1489570D01*
X298885Y1490784D01*
X298870Y1492000D01*
D30*
X348400Y1492000D03*
D10*
X502070Y1492000D02*
X502085Y1493216D01*
X502130Y1494430D01*
X502204Y1495644D01*
X502309Y1496855D01*
X502442Y1498063D01*
X502606Y1499268D01*
X502799Y1500468D01*
X503022Y1501663D01*
X503273Y1502852D01*
X503554Y1504035D01*
X503864Y1505210D01*
X504203Y1506378D01*
X504570Y1507537D01*
X504965Y1508686D01*
X505389Y1509826D01*
X505840Y1510954D01*
X506319Y1512072D01*
X506825Y1513177D01*
X507359Y1514269D01*
X507918Y1515348D01*
X508505Y1516413D01*
X509117Y1517464D01*
X509754Y1518498D01*
X510417Y1519517D01*
X511105Y1520520D01*
X511817Y1521505D01*
X512553Y1522472D01*
X513313Y1523421D01*
X514095Y1524352D01*
X514901Y1525262D01*
X515728Y1526153D01*
X516577Y1527023D01*
X517447Y1527872D01*
X518338Y1528699D01*
X519248Y1529505D01*
X520179Y1530287D01*
X521128Y1531047D01*
X522095Y1531783D01*
X523080Y1532495D01*
X524083Y1533183D01*
X525102Y1533846D01*
X526136Y1534483D01*
X527187Y1535095D01*
X528252Y1535682D01*
X529331Y1536241D01*
X530423Y1536775D01*
X531528Y1537281D01*
X532646Y1537760D01*
X533774Y1538211D01*
X534914Y1538635D01*
X536063Y1539030D01*
X537222Y1539397D01*
X538390Y1539736D01*
X539565Y1540046D01*
X540748Y1540327D01*
X541937Y1540578D01*
X543132Y1540801D01*
X544332Y1540994D01*
X545537Y1541158D01*
X546745Y1541291D01*
X547956Y1541396D01*
X549170Y1541470D01*
X550384Y1541515D01*
X551600Y1541530D01*
X552816Y1541515D01*
X554030Y1541470D01*
X555244Y1541396D01*
X556455Y1541291D01*
X557663Y1541158D01*
X558868Y1540994D01*
X560068Y1540801D01*
X561263Y1540578D01*
X562452Y1540327D01*
X563635Y1540046D01*
X564810Y1539736D01*
X565978Y1539397D01*
X567137Y1539030D01*
X568286Y1538635D01*
X569426Y1538211D01*
X570554Y1537760D01*
X571672Y1537281D01*
X572777Y1536775D01*
X573869Y1536241D01*
X574948Y1535682D01*
X576013Y1535095D01*
X577064Y1534483D01*
X578098Y1533846D01*
X579117Y1533183D01*
X580120Y1532495D01*
X581105Y1531783D01*
X582072Y1531047D01*
X583021Y1530287D01*
X583952Y1529505D01*
X584862Y1528699D01*
X585753Y1527872D01*
X586623Y1527023D01*
X587472Y1526153D01*
X588299Y1525262D01*
X589105Y1524352D01*
X589887Y1523421D01*
X590647Y1522472D01*
X591383Y1521505D01*
X592095Y1520520D01*
X592783Y1519517D01*
X593446Y1518498D01*
X594083Y1517464D01*
X594695Y1516413D01*
X595282Y1515348D01*
X595841Y1514269D01*
X596375Y1513177D01*
X596881Y1512072D01*
X597360Y1510954D01*
X597811Y1509826D01*
X598235Y1508686D01*
X598630Y1507537D01*
X598997Y1506378D01*
X599336Y1505210D01*
X599646Y1504035D01*
X599927Y1502852D01*
X600178Y1501663D01*
X600401Y1500468D01*
X600594Y1499268D01*
X600758Y1498063D01*
X600891Y1496855D01*
X600996Y1495644D01*
X601070Y1494430D01*
X601115Y1493216D01*
X601130Y1492000D01*
X601115Y1490784D01*
X601070Y1489570D01*
X600996Y1488356D01*
X600891Y1487145D01*
X600758Y1485937D01*
X600594Y1484732D01*
X600401Y1483532D01*
X600178Y1482337D01*
X599927Y1481148D01*
X599646Y1479965D01*
X599336Y1478790D01*
X598997Y1477622D01*
X598630Y1476463D01*
X598235Y1475314D01*
X597811Y1474174D01*
X597360Y1473046D01*
X596881Y1471928D01*
X596375Y1470823D01*
X595841Y1469731D01*
X595282Y1468652D01*
X594695Y1467587D01*
X594083Y1466536D01*
X593446Y1465502D01*
X592783Y1464483D01*
X592095Y1463480D01*
X591383Y1462495D01*
X590647Y1461528D01*
X589887Y1460579D01*
X589105Y1459648D01*
X588299Y1458738D01*
X587472Y1457847D01*
X586623Y1456977D01*
X585753Y1456128D01*
X584862Y1455301D01*
X583952Y1454495D01*
X583021Y1453713D01*
X582072Y1452953D01*
X581105Y1452217D01*
X580120Y1451505D01*
X579117Y1450817D01*
X578098Y1450154D01*
X577064Y1449517D01*
X576013Y1448905D01*
X574948Y1448318D01*
X573869Y1447759D01*
X572777Y1447225D01*
X571672Y1446719D01*
X570554Y1446240D01*
X569426Y1445789D01*
X568286Y1445365D01*
X567137Y1444970D01*
X565978Y1444603D01*
X564810Y1444264D01*
X563635Y1443954D01*
X562452Y1443673D01*
X561263Y1443422D01*
X560068Y1443199D01*
X558868Y1443006D01*
X557663Y1442842D01*
X556455Y1442709D01*
X555244Y1442604D01*
X554030Y1442530D01*
X552816Y1442485D01*
X551600Y1442470D01*
X550384Y1442485D01*
X549170Y1442530D01*
X547956Y1442604D01*
X546745Y1442709D01*
X545537Y1442842D01*
X544332Y1443006D01*
X543132Y1443199D01*
X541937Y1443422D01*
X540748Y1443673D01*
X539565Y1443954D01*
X538390Y1444264D01*
X537222Y1444603D01*
X536063Y1444970D01*
X534914Y1445365D01*
X533774Y1445789D01*
X532646Y1446240D01*
X531528Y1446719D01*
X530423Y1447225D01*
X529331Y1447759D01*
X528252Y1448318D01*
X527187Y1448905D01*
X526136Y1449517D01*
X525102Y1450154D01*
X524083Y1450817D01*
X523080Y1451505D01*
X522095Y1452217D01*
X521128Y1452953D01*
X520179Y1453713D01*
X519248Y1454495D01*
X518338Y1455301D01*
X517447Y1456128D01*
X516577Y1456977D01*
X515728Y1457847D01*
X514901Y1458738D01*
X514095Y1459648D01*
X513313Y1460579D01*
X512553Y1461528D01*
X511817Y1462495D01*
X511105Y1463480D01*
X510417Y1464483D01*
X509754Y1465502D01*
X509117Y1466536D01*
X508505Y1467587D01*
X507918Y1468652D01*
X507359Y1469731D01*
X506825Y1470823D01*
X506319Y1471928D01*
X505840Y1473046D01*
X505389Y1474174D01*
X504965Y1475314D01*
X504570Y1476463D01*
X504203Y1477622D01*
X503864Y1478790D01*
X503554Y1479965D01*
X503273Y1481148D01*
X503022Y1482337D01*
X502799Y1483532D01*
X502606Y1484732D01*
X502442Y1485937D01*
X502309Y1487145D01*
X502204Y1488356D01*
X502130Y1489570D01*
X502085Y1490784D01*
X502070Y1492000D01*
D30*
X551600Y1492000D03*
D31*
X1877000Y3023800D02*
X1877000Y3176200D01*
X1623000Y3176200D02*
X1623000Y3023800D01*
X1027000Y3023800D02*
X1027000Y3176200D01*
X773000Y3176200D02*
X773000Y3023800D01*
X2727000Y3023800D02*
X2727000Y3176200D01*
X2473000Y3176200D02*
X2473000Y3023800D01*
D32*
X300000Y3200000D03*
X3200000Y3200000D03*
X3200000Y300000D03*
X300000Y300000D03*
D33*
X386000Y1619000D03*
X386000Y1873000D03*
X514000Y1873000D03*
X386000Y1746000D03*
X514000Y1746000D03*
M02*
