M48
;GenerationSoftware,Autodesk,EAGLE,9.6.2*%
;CreationDate,2023-11-05T15:49:24Z*%
FMAT,2
ICI,OFF
METRIC,TZ,000.00000
T4C0.35000
T3C1.01600
T2C1.02000
T1C2.50000
%
G90
M71
T1
X300000Y3200000
X3200000Y300000
T2
X600000Y1017500
X600000Y382500
T3
X2473000Y3100000
X1877000Y3100000
X1623000Y3100000
X1027000Y3100000
X773000Y3100000
X2727000Y3100000
T4
X3025000Y2000000
X1450000Y2025000
X925000Y2000000
X3400000Y1750000
X100000Y1750000
X100000Y1250000
X100000Y750000
X100000Y2250000
X100000Y2750000
X1750000Y100000
X2250000Y100000
X2750000Y100000
X1250000Y100000
X750000Y100000
X3400000Y1250000
X3400000Y750000
X1750000Y3400000
X2250000Y3400000
X2750000Y3400000
X1250000Y3400000
X750000Y3400000
X1450000Y2100000
X1750000Y2750000
X1300800Y1250000
X1300800Y850000
X1750000Y1250000
X1750000Y850000
X2250000Y850000
X2250000Y1250000
X2250000Y450000
X1750000Y450000
X1300800Y450000
X2675000Y1375000
X2725000Y2550000
X1075000Y2225000
X2925000Y1600000
X1550000Y2250000
X1650000Y1600000
X3050000Y850000
X2975000Y650000
X2425000Y1600000
X2550000Y1425000
X2550000Y1325000
X1875000Y2750000
X2800000Y1425000
X2800000Y1325000
X1875000Y2500000
X925000Y2225000
X1275000Y2025000
X2075000Y2000000
X1750000Y2500000
X825000Y950000
X1016000Y1727200
X1800000Y1950000
X825000Y450000
X1117600Y1676400
X825000Y825000
X2700000Y850000
X400000Y825000
X400000Y950000
X400000Y450000
X2875000Y850000
X2775000Y650000
X2725000Y1700000
X2800000Y1925000
X2875000Y1925000
X2950000Y1925000
X3025000Y1925000
X400000Y700000
M30