G04 EAGLE Gerber RS-274X export*
G75*
%MOMM*%
%FSLAX35Y35*%
%LPD*%
%INsolder_mask_top*%
%IPPOS*%
%AMOC8*
5,1,8,0,0,1.08239X$1,22.5*%
G01*
%ADD10C,0.000000*%
%ADD11C,2.540000*%
%ADD12R,0.903200X1.203200*%
%ADD13R,1.853200X1.853200*%
%ADD14C,1.853200*%
%ADD15C,0.853200*%
%ADD16C,3.203200*%


D10*
X1778000Y2240000D02*
X1778000Y1062000D01*
X1778088Y1054751D01*
X1778350Y1047506D01*
X1778788Y1040270D01*
X1779401Y1033046D01*
X1780187Y1025839D01*
X1781148Y1018653D01*
X1782282Y1011493D01*
X1783589Y1004362D01*
X1785068Y997265D01*
X1786717Y990205D01*
X1788537Y983188D01*
X1790526Y976216D01*
X1792683Y969295D01*
X1795006Y962428D01*
X1797495Y955619D01*
X1800148Y948872D01*
X1802962Y942191D01*
X1805938Y935580D01*
X1809072Y929043D01*
X1812363Y922583D01*
X1815810Y916205D01*
X1819409Y909912D01*
X1823160Y903708D01*
X1827059Y897596D01*
X1831105Y891581D01*
X1835295Y885664D01*
X1839627Y879851D01*
X1844098Y874144D01*
X1848705Y868547D01*
X1853447Y863063D01*
X1858319Y857695D01*
X1863320Y852447D01*
X1868447Y847320D01*
X1873695Y842319D01*
X1879063Y837447D01*
X1884547Y832705D01*
X1890144Y828098D01*
X1895851Y823627D01*
X1901664Y819295D01*
X1907581Y815105D01*
X1913596Y811059D01*
X1919708Y807160D01*
X1925912Y803409D01*
X1932205Y799810D01*
X1938583Y796363D01*
X1945043Y793072D01*
X1951580Y789938D01*
X1958191Y786962D01*
X1964872Y784148D01*
X1971619Y781495D01*
X1978428Y779006D01*
X1985295Y776683D01*
X1992216Y774526D01*
X1999188Y772537D01*
X2006205Y770717D01*
X2013265Y769068D01*
X2020362Y767589D01*
X2027493Y766282D01*
X2034653Y765148D01*
X2041839Y764187D01*
X2049046Y763401D01*
X2056270Y762788D01*
X2063506Y762350D01*
X2070751Y762088D01*
X2078000Y762000D01*
X3762337Y762000D01*
X3769696Y762090D01*
X3777050Y762361D01*
X3784395Y762812D01*
X3791727Y763443D01*
X3799042Y764254D01*
X3806334Y765244D01*
X3813600Y766412D01*
X3820835Y767759D01*
X3828034Y769282D01*
X3835195Y770981D01*
X3842311Y772856D01*
X3849379Y774905D01*
X3856395Y777126D01*
X3863354Y779519D01*
X3870253Y782082D01*
X3877086Y784813D01*
X3883851Y787711D01*
X3890542Y790774D01*
X3897157Y794001D01*
X3903690Y797388D01*
X3910138Y800935D01*
X3916497Y804639D01*
X3922763Y808498D01*
X3928933Y812509D01*
X3935003Y816670D01*
X3940968Y820980D01*
X3946827Y825434D01*
X3952574Y830030D01*
X3958206Y834766D01*
X3963721Y839639D01*
X3969115Y844646D01*
X3974384Y849783D01*
X3979526Y855048D01*
X3984537Y860438D01*
X3989414Y865949D01*
X3994154Y871578D01*
X3998755Y877321D01*
X4003214Y883176D01*
X4007528Y889138D01*
X4011694Y895204D01*
X4015711Y901371D01*
X4019574Y907634D01*
X4023283Y913990D01*
X4026835Y920435D01*
X4030228Y926966D01*
X4033460Y933577D01*
X4036528Y940266D01*
X4039432Y947028D01*
X4042169Y953860D01*
X4044737Y960756D01*
X4047135Y967714D01*
X4049362Y974728D01*
X4051417Y981794D01*
X4053297Y988909D01*
X4055002Y996068D01*
X4056531Y1003267D01*
X4057884Y1010501D01*
X4059058Y1017765D01*
X4060054Y1025057D01*
X4060870Y1032371D01*
X4061507Y1039702D01*
X4061964Y1047047D01*
X4062241Y1054401D01*
X4062337Y1061760D01*
X4063662Y2239685D01*
X4063582Y2246939D01*
X4063327Y2254189D01*
X4062896Y2261431D01*
X4062291Y2268660D01*
X4061511Y2275872D01*
X4060557Y2283064D01*
X4059429Y2290230D01*
X4058128Y2297367D01*
X4056655Y2304471D01*
X4055010Y2311536D01*
X4053196Y2318560D01*
X4051212Y2325538D01*
X4049059Y2332466D01*
X4046740Y2339340D01*
X4044256Y2346156D01*
X4041607Y2352910D01*
X4038796Y2359598D01*
X4035823Y2366215D01*
X4032692Y2372759D01*
X4029403Y2379226D01*
X4025959Y2385611D01*
X4022362Y2391910D01*
X4018613Y2398121D01*
X4014715Y2404240D01*
X4010671Y2410262D01*
X4006482Y2416185D01*
X4002151Y2422005D01*
X3997680Y2427718D01*
X3993073Y2433322D01*
X3988331Y2438813D01*
X3983458Y2444187D01*
X3978457Y2449442D01*
X3973330Y2454574D01*
X3968080Y2459581D01*
X3962711Y2464460D01*
X3957225Y2469207D01*
X3951626Y2473821D01*
X3945918Y2478297D01*
X3940102Y2482634D01*
X3934184Y2486830D01*
X3928166Y2490881D01*
X3922051Y2494785D01*
X3915844Y2498540D01*
X3909548Y2502144D01*
X3903167Y2505595D01*
X3896704Y2508890D01*
X3890163Y2512029D01*
X3883549Y2515008D01*
X3876864Y2517826D01*
X3870113Y2520482D01*
X3863300Y2522974D01*
X3856428Y2525300D01*
X3849503Y2527460D01*
X3842527Y2529451D01*
X3835505Y2531273D01*
X3828441Y2532925D01*
X3821339Y2534405D01*
X3814203Y2535714D01*
X3807038Y2536849D01*
X3799848Y2537811D01*
X3792636Y2538599D01*
X3785407Y2539212D01*
X3778166Y2539650D01*
X3770916Y2539913D01*
X3763662Y2540000D01*
X3763663Y2540000D02*
X2078000Y2540000D01*
X2070751Y2539912D01*
X2063506Y2539650D01*
X2056270Y2539212D01*
X2049046Y2538599D01*
X2041839Y2537813D01*
X2034653Y2536852D01*
X2027493Y2535718D01*
X2020362Y2534411D01*
X2013265Y2532932D01*
X2006205Y2531283D01*
X1999188Y2529463D01*
X1992216Y2527474D01*
X1985295Y2525317D01*
X1978428Y2522994D01*
X1971619Y2520505D01*
X1964872Y2517852D01*
X1958191Y2515038D01*
X1951580Y2512062D01*
X1945043Y2508928D01*
X1938583Y2505637D01*
X1932205Y2502190D01*
X1925912Y2498591D01*
X1919708Y2494840D01*
X1913596Y2490941D01*
X1907581Y2486895D01*
X1901664Y2482705D01*
X1895851Y2478373D01*
X1890144Y2473902D01*
X1884547Y2469295D01*
X1879063Y2464553D01*
X1873695Y2459681D01*
X1868447Y2454680D01*
X1863320Y2449553D01*
X1858319Y2444305D01*
X1853447Y2438937D01*
X1848705Y2433453D01*
X1844098Y2427856D01*
X1839627Y2422149D01*
X1835295Y2416336D01*
X1831105Y2410419D01*
X1827059Y2404404D01*
X1823160Y2398292D01*
X1819409Y2392088D01*
X1815810Y2385795D01*
X1812363Y2379417D01*
X1809072Y2372957D01*
X1805938Y2366420D01*
X1802962Y2359809D01*
X1800148Y2353128D01*
X1797495Y2346381D01*
X1795006Y2339572D01*
X1792683Y2332705D01*
X1790526Y2325784D01*
X1788537Y2318812D01*
X1786717Y2311795D01*
X1785068Y2304735D01*
X1783589Y2297638D01*
X1782282Y2290507D01*
X1781148Y2283347D01*
X1780187Y2276161D01*
X1779401Y2268954D01*
X1778788Y2261730D01*
X1778350Y2254494D01*
X1778088Y2247249D01*
X1778000Y2240000D01*
D11*
X2095500Y889000D02*
X3746500Y889000D01*
X2095500Y889000D02*
X2090897Y889056D01*
X2086296Y889222D01*
X2081701Y889500D01*
X2077114Y889889D01*
X2072538Y890389D01*
X2067975Y890999D01*
X2063428Y891719D01*
X2058900Y892549D01*
X2054393Y893488D01*
X2049910Y894536D01*
X2045454Y895691D01*
X2041027Y896954D01*
X2036632Y898324D01*
X2032272Y899799D01*
X2027948Y901379D01*
X2023663Y903064D01*
X2019421Y904851D01*
X2015223Y906740D01*
X2011072Y908731D01*
X2006970Y910821D01*
X2002920Y913009D01*
X1998924Y915295D01*
X1994985Y917676D01*
X1991104Y920152D01*
X1987284Y922722D01*
X1983527Y925382D01*
X1979836Y928133D01*
X1976212Y930972D01*
X1972658Y933898D01*
X1969175Y936909D01*
X1965766Y940003D01*
X1962434Y943178D01*
X1959178Y946434D01*
X1956003Y949766D01*
X1952909Y953175D01*
X1949898Y956658D01*
X1946972Y960212D01*
X1944133Y963836D01*
X1941382Y967527D01*
X1938722Y971284D01*
X1936152Y975104D01*
X1933676Y978985D01*
X1931295Y982924D01*
X1929009Y986920D01*
X1926821Y990970D01*
X1924731Y995072D01*
X1922740Y999223D01*
X1920851Y1003421D01*
X1919064Y1007663D01*
X1917379Y1011948D01*
X1915799Y1016272D01*
X1914324Y1020632D01*
X1912954Y1025027D01*
X1911691Y1029454D01*
X1910536Y1033910D01*
X1909488Y1038393D01*
X1908549Y1042900D01*
X1907719Y1047428D01*
X1906999Y1051975D01*
X1906389Y1056538D01*
X1905889Y1061114D01*
X1905500Y1065701D01*
X1905222Y1070296D01*
X1905056Y1074897D01*
X1905000Y1079500D01*
X1905000Y2222500D01*
X1905056Y2227103D01*
X1905222Y2231704D01*
X1905500Y2236299D01*
X1905889Y2240886D01*
X1906389Y2245462D01*
X1906999Y2250025D01*
X1907719Y2254572D01*
X1908549Y2259100D01*
X1909488Y2263607D01*
X1910536Y2268090D01*
X1911691Y2272546D01*
X1912954Y2276973D01*
X1914324Y2281368D01*
X1915799Y2285728D01*
X1917379Y2290052D01*
X1919064Y2294337D01*
X1920851Y2298579D01*
X1922740Y2302777D01*
X1924731Y2306928D01*
X1926821Y2311030D01*
X1929009Y2315080D01*
X1931295Y2319076D01*
X1933676Y2323015D01*
X1936152Y2326896D01*
X1938722Y2330716D01*
X1941382Y2334473D01*
X1944133Y2338164D01*
X1946972Y2341788D01*
X1949898Y2345342D01*
X1952909Y2348825D01*
X1956003Y2352234D01*
X1959178Y2355566D01*
X1962434Y2358822D01*
X1965766Y2361997D01*
X1969175Y2365091D01*
X1972658Y2368102D01*
X1976212Y2371028D01*
X1979836Y2373867D01*
X1983527Y2376618D01*
X1987284Y2379278D01*
X1991104Y2381848D01*
X1994985Y2384324D01*
X1998924Y2386705D01*
X2002920Y2388991D01*
X2006970Y2391179D01*
X2011072Y2393269D01*
X2015223Y2395260D01*
X2019421Y2397149D01*
X2023663Y2398936D01*
X2027948Y2400621D01*
X2032272Y2402201D01*
X2036632Y2403676D01*
X2041027Y2405046D01*
X2045454Y2406309D01*
X2049910Y2407464D01*
X2054393Y2408512D01*
X2058900Y2409451D01*
X2063428Y2410281D01*
X2067975Y2411001D01*
X2072538Y2411611D01*
X2077114Y2412111D01*
X2081701Y2412500D01*
X2086296Y2412778D01*
X2090897Y2412944D01*
X2095500Y2413000D01*
X3746500Y2413000D01*
X3751103Y2412944D01*
X3755704Y2412778D01*
X3760299Y2412500D01*
X3764886Y2412111D01*
X3769462Y2411611D01*
X3774025Y2411001D01*
X3778572Y2410281D01*
X3783100Y2409451D01*
X3787607Y2408512D01*
X3792090Y2407464D01*
X3796546Y2406309D01*
X3800973Y2405046D01*
X3805368Y2403676D01*
X3809728Y2402201D01*
X3814052Y2400621D01*
X3818337Y2398936D01*
X3822579Y2397149D01*
X3826777Y2395260D01*
X3830928Y2393269D01*
X3835030Y2391179D01*
X3839080Y2388991D01*
X3843076Y2386705D01*
X3847015Y2384324D01*
X3850896Y2381848D01*
X3854716Y2379278D01*
X3858473Y2376618D01*
X3862164Y2373867D01*
X3865788Y2371028D01*
X3869342Y2368102D01*
X3872825Y2365091D01*
X3876234Y2361997D01*
X3879566Y2358822D01*
X3882822Y2355566D01*
X3885997Y2352234D01*
X3889091Y2348825D01*
X3892102Y2345342D01*
X3895028Y2341788D01*
X3897867Y2338164D01*
X3900618Y2334473D01*
X3903278Y2330716D01*
X3905848Y2326896D01*
X3908324Y2323015D01*
X3910705Y2319076D01*
X3912991Y2315080D01*
X3915179Y2311030D01*
X3917269Y2306928D01*
X3919260Y2302777D01*
X3921149Y2298579D01*
X3922936Y2294337D01*
X3924621Y2290052D01*
X3926201Y2285728D01*
X3927676Y2281368D01*
X3929046Y2276973D01*
X3930309Y2272546D01*
X3931464Y2268090D01*
X3932512Y2263607D01*
X3933451Y2259100D01*
X3934281Y2254572D01*
X3935001Y2250025D01*
X3935611Y2245462D01*
X3936111Y2240886D01*
X3936500Y2236299D01*
X3936778Y2231704D01*
X3936944Y2227103D01*
X3937000Y2222500D01*
X3937000Y1079500D01*
X3936944Y1074897D01*
X3936778Y1070296D01*
X3936500Y1065701D01*
X3936111Y1061114D01*
X3935611Y1056538D01*
X3935001Y1051975D01*
X3934281Y1047428D01*
X3933451Y1042900D01*
X3932512Y1038393D01*
X3931464Y1033910D01*
X3930309Y1029454D01*
X3929046Y1025027D01*
X3927676Y1020632D01*
X3926201Y1016272D01*
X3924621Y1011948D01*
X3922936Y1007663D01*
X3921149Y1003421D01*
X3919260Y999223D01*
X3917269Y995072D01*
X3915179Y990970D01*
X3912991Y986920D01*
X3910705Y982924D01*
X3908324Y978985D01*
X3905848Y975104D01*
X3903278Y971284D01*
X3900618Y967527D01*
X3897867Y963836D01*
X3895028Y960212D01*
X3892102Y956658D01*
X3889091Y953175D01*
X3885997Y949766D01*
X3882822Y946434D01*
X3879566Y943178D01*
X3876234Y940003D01*
X3872825Y936909D01*
X3869342Y933898D01*
X3865788Y930972D01*
X3862164Y928133D01*
X3858473Y925382D01*
X3854716Y922722D01*
X3850896Y920152D01*
X3847015Y917676D01*
X3843076Y915295D01*
X3839080Y913009D01*
X3835030Y910821D01*
X3830928Y908731D01*
X3826777Y906740D01*
X3822579Y904851D01*
X3818337Y903064D01*
X3814052Y901379D01*
X3809728Y899799D01*
X3805368Y898324D01*
X3800973Y896954D01*
X3796546Y895691D01*
X3792090Y894536D01*
X3787607Y893488D01*
X3783100Y892549D01*
X3778572Y891719D01*
X3774025Y890999D01*
X3769462Y890389D01*
X3764886Y889889D01*
X3760299Y889500D01*
X3755704Y889222D01*
X3751103Y889056D01*
X3746500Y889000D01*
D12*
X2826000Y1658000D03*
X2921000Y1658000D03*
X3016000Y1658000D03*
X2826000Y1898000D03*
X2921000Y1898000D03*
X3016000Y1898000D03*
D13*
X3683000Y1397000D03*
D14*
X3683000Y1651000D03*
X3683000Y1905000D03*
D13*
X2159000Y1397000D03*
D14*
X2159000Y1651000D03*
X2159000Y1905000D03*
D15*
X2572000Y2095500D03*
D16*
X2032000Y2286000D03*
X3810000Y2286000D03*
X2032000Y1016000D03*
X3810000Y1016000D03*
D15*
X2921000Y2095500D03*
M02*
