G04 EAGLE Gerber RS-274X export*
G75*
%MOMM*%
%FSLAX35Y35*%
%LPD*%
%INcopper_layer15*%
%IPPOS*%
%AMOC8*
5,1,8,0,0,1.08239X$1,22.5*%
G01*
%ADD10C,0.010000*%
%ADD11C,0.050000*%
%ADD12C,1.800000*%
%ADD13C,0.553200*%
%ADD14C,0.900000*%
%ADD15C,0.406400*%
%ADD16C,0.304800*%
%ADD17C,0.400000*%
%ADD18C,0.508000*%
%ADD19C,0.500000*%

G36*
X185248Y-1741510D02*
X185248Y-1741510D01*
X185575Y-1741444D01*
X186353Y-1741388D01*
X437843Y-1694936D01*
X438157Y-1694823D01*
X438919Y-1694655D01*
X680965Y-1612080D01*
X681258Y-1611923D01*
X681988Y-1611645D01*
X909432Y-1494708D01*
X909699Y-1494511D01*
X910382Y-1494129D01*
X1118375Y-1345323D01*
X1118611Y-1345087D01*
X1119230Y-1344611D01*
X1303340Y-1167106D01*
X1303540Y-1166838D01*
X1304083Y-1166278D01*
X1460386Y-963858D01*
X1460545Y-963564D01*
X1461000Y-962930D01*
X1586165Y-739909D01*
X1586279Y-739596D01*
X1586638Y-738902D01*
X1677997Y-500033D01*
X1678064Y-499707D01*
X1678318Y-498968D01*
X1733924Y-249343D01*
X1733943Y-249009D01*
X1734086Y-248242D01*
X1752754Y6818D01*
X1752724Y7150D01*
X1752754Y7931D01*
X1734086Y262993D01*
X1734008Y263316D01*
X1733924Y264093D01*
X1678318Y513718D01*
X1678194Y514028D01*
X1677997Y514783D01*
X1586638Y753652D01*
X1586470Y753939D01*
X1586165Y754659D01*
X1461000Y977680D01*
X1460793Y977940D01*
X1460386Y978608D01*
X1304083Y1181028D01*
X1303839Y1181255D01*
X1303340Y1181856D01*
X1119230Y1359361D01*
X1118957Y1359549D01*
X1118375Y1360073D01*
X910382Y1508879D01*
X910160Y1508988D01*
X909998Y1509127D01*
X909826Y1509197D01*
X909432Y1509458D01*
X681988Y1626395D01*
X681671Y1626498D01*
X680964Y1626830D01*
X438918Y1709405D01*
X438590Y1709460D01*
X437843Y1709686D01*
X186353Y1756138D01*
X186021Y1756145D01*
X185247Y1756260D01*
X-70325Y1765601D01*
X-70656Y1765559D01*
X-71437Y1765560D01*
X-325646Y1737589D01*
X-325968Y1737499D01*
X-326740Y1737387D01*
X-574168Y1672701D01*
X-574472Y1672566D01*
X-575220Y1672342D01*
X-810593Y1572319D01*
X-810875Y1572141D01*
X-811582Y1571811D01*
X-1029883Y1438583D01*
X-1030135Y1438367D01*
X-1030788Y1437936D01*
X-1227364Y1274344D01*
X-1227583Y1274092D01*
X-1228165Y1273572D01*
X-1398827Y1083102D01*
X-1399007Y1082820D01*
X-1399507Y1082221D01*
X-1540618Y868931D01*
X-1540755Y868627D01*
X-1541163Y867961D01*
X-1649715Y636399D01*
X-1649806Y636077D01*
X-1650112Y635360D01*
X-1723792Y390460D01*
X-1723835Y390129D01*
X-1724033Y389374D01*
X-1761270Y136356D01*
X-1761265Y136023D01*
X-1761351Y135247D01*
X-1761351Y-120497D01*
X-1761332Y-120615D01*
X-1761341Y-120699D01*
X-1761294Y-120916D01*
X-1761270Y-121606D01*
X-1724033Y-374624D01*
X-1723932Y-374942D01*
X-1723792Y-375710D01*
X-1650112Y-620610D01*
X-1649966Y-620908D01*
X-1649715Y-621649D01*
X-1541163Y-853211D01*
X-1540974Y-853486D01*
X-1540618Y-854181D01*
X-1399507Y-1067471D01*
X-1399280Y-1067716D01*
X-1398827Y-1068352D01*
X-1228165Y-1258822D01*
X-1227905Y-1259031D01*
X-1227364Y-1259594D01*
X-1145154Y-1328011D01*
X-1144835Y-1328198D01*
X-1144567Y-1328453D01*
X-1143781Y-1328819D01*
X-1143033Y-1329259D01*
X-1142671Y-1329335D01*
X-1142336Y-1329491D01*
X-1141475Y-1329587D01*
X-1140625Y-1329766D01*
X-1140257Y-1329723D01*
X-1139890Y-1329763D01*
X-1139044Y-1329580D01*
X-1138181Y-1329479D01*
X-1137846Y-1329321D01*
X-1137485Y-1329243D01*
X-1136740Y-1328798D01*
X-1135956Y-1328428D01*
X-1135689Y-1328172D01*
X-1135372Y-1327982D01*
X-1134807Y-1327323D01*
X-1134182Y-1326722D01*
X-1134011Y-1326395D01*
X-1133770Y-1326114D01*
X-1133444Y-1325308D01*
X-1133044Y-1324540D01*
X-1132986Y-1324176D01*
X-1132848Y-1323833D01*
X-1132660Y-1322154D01*
X-1132660Y-1304258D01*
X-1106729Y-1278328D01*
X-1106311Y-1277746D01*
X-1105818Y-1277227D01*
X-1105598Y-1276754D01*
X-1105293Y-1276329D01*
X-1105082Y-1275644D01*
X-1104780Y-1274996D01*
X-1104723Y-1274478D01*
X-1104568Y-1273978D01*
X-1104587Y-1273261D01*
X-1104508Y-1272550D01*
X-1104618Y-1272041D01*
X-1104631Y-1271518D01*
X-1104877Y-1270844D01*
X-1105028Y-1270145D01*
X-1105296Y-1269697D01*
X-1105475Y-1269206D01*
X-1105922Y-1268646D01*
X-1106289Y-1268032D01*
X-1106685Y-1267692D01*
X-1107012Y-1267284D01*
X-1107612Y-1266897D01*
X-1108157Y-1266430D01*
X-1108643Y-1266234D01*
X-1109081Y-1265952D01*
X-1109774Y-1265776D01*
X-1110438Y-1265508D01*
X-1111150Y-1265428D01*
X-1111466Y-1265348D01*
X-1111704Y-1265366D01*
X-1112117Y-1265320D01*
X-1141701Y-1265320D01*
X-1282129Y-1124892D01*
X-1282868Y-1124362D01*
X-1283557Y-1123770D01*
X-1283862Y-1123647D01*
X-1284128Y-1123456D01*
X-1284997Y-1123188D01*
X-1285839Y-1122848D01*
X-1286251Y-1122802D01*
X-1286479Y-1122731D01*
X-1286806Y-1122740D01*
X-1287517Y-1122660D01*
X-1294741Y-1122660D01*
X-1322660Y-1094741D01*
X-1322660Y-1055258D01*
X-1294741Y-1027339D01*
X-1255258Y-1027339D01*
X-1227339Y-1055258D01*
X-1227339Y-1062483D01*
X-1227193Y-1063378D01*
X-1227123Y-1064285D01*
X-1226995Y-1064588D01*
X-1226942Y-1064911D01*
X-1226518Y-1065713D01*
X-1226162Y-1066551D01*
X-1225903Y-1066876D01*
X-1225791Y-1067086D01*
X-1225555Y-1067311D01*
X-1225108Y-1067870D01*
X-1110530Y-1182448D01*
X-1109792Y-1182978D01*
X-1109103Y-1183570D01*
X-1108798Y-1183693D01*
X-1108532Y-1183884D01*
X-1107663Y-1184152D01*
X-1106821Y-1184492D01*
X-1106408Y-1184538D01*
X-1106180Y-1184608D01*
X-1105854Y-1184600D01*
X-1105143Y-1184679D01*
X-633299Y-1184679D01*
X-435530Y-1382448D01*
X-434792Y-1382978D01*
X-434103Y-1383570D01*
X-433798Y-1383693D01*
X-433532Y-1383884D01*
X-432663Y-1384152D01*
X-431821Y-1384492D01*
X-431408Y-1384538D01*
X-431180Y-1384608D01*
X-430854Y-1384600D01*
X-430143Y-1384679D01*
X669763Y-1384679D01*
X670660Y-1384533D01*
X671566Y-1384463D01*
X671868Y-1384335D01*
X672191Y-1384282D01*
X672994Y-1383857D01*
X673831Y-1383502D01*
X674156Y-1383243D01*
X674366Y-1383131D01*
X674592Y-1382894D01*
X675150Y-1382448D01*
X680258Y-1377339D01*
X719741Y-1377339D01*
X747660Y-1405258D01*
X747660Y-1434107D01*
X747776Y-1434814D01*
X747794Y-1435529D01*
X747973Y-1436020D01*
X748058Y-1436536D01*
X748392Y-1437168D01*
X748638Y-1437841D01*
X748964Y-1438249D01*
X749208Y-1438711D01*
X749728Y-1439204D01*
X750174Y-1439763D01*
X750613Y-1440045D01*
X750992Y-1440406D01*
X751643Y-1440708D01*
X752243Y-1441095D01*
X752750Y-1441223D01*
X753223Y-1441444D01*
X753935Y-1441523D01*
X754629Y-1441699D01*
X755150Y-1441659D01*
X755669Y-1441717D01*
X756368Y-1441565D01*
X757083Y-1441510D01*
X757564Y-1441306D01*
X758074Y-1441196D01*
X758689Y-1440829D01*
X759348Y-1440549D01*
X759908Y-1440102D01*
X760188Y-1439935D01*
X760342Y-1439755D01*
X760668Y-1439495D01*
X810403Y-1389759D01*
X814683Y-1389759D01*
X815578Y-1389613D01*
X816486Y-1389543D01*
X816788Y-1389415D01*
X817111Y-1389362D01*
X817913Y-1388938D01*
X818751Y-1388582D01*
X819076Y-1388323D01*
X819286Y-1388211D01*
X819512Y-1387974D01*
X820070Y-1387528D01*
X830258Y-1377339D01*
X869741Y-1377339D01*
X897660Y-1405258D01*
X897660Y-1444741D01*
X869741Y-1472660D01*
X830333Y-1472660D01*
X829438Y-1472807D01*
X828530Y-1472877D01*
X828228Y-1473005D01*
X827905Y-1473058D01*
X827102Y-1473482D01*
X826265Y-1473838D01*
X825940Y-1474097D01*
X825729Y-1474208D01*
X825505Y-1474445D01*
X824945Y-1474892D01*
X774597Y-1525240D01*
X479861Y-1525240D01*
X478966Y-1525387D01*
X478058Y-1525457D01*
X477756Y-1525585D01*
X477433Y-1525638D01*
X476630Y-1526062D01*
X475793Y-1526418D01*
X475468Y-1526677D01*
X475258Y-1526788D01*
X475033Y-1527025D01*
X474473Y-1527472D01*
X341705Y-1660240D01*
X-506143Y-1660240D01*
X-506403Y-1660283D01*
X-506666Y-1660258D01*
X-507615Y-1660481D01*
X-508572Y-1660638D01*
X-508804Y-1660761D01*
X-509062Y-1660821D01*
X-509890Y-1661335D01*
X-510747Y-1661788D01*
X-510928Y-1661979D01*
X-511153Y-1662118D01*
X-511772Y-1662867D01*
X-512442Y-1663572D01*
X-512553Y-1663812D01*
X-512721Y-1664015D01*
X-513070Y-1664923D01*
X-513480Y-1665803D01*
X-513509Y-1666065D01*
X-513604Y-1666312D01*
X-513645Y-1667285D01*
X-513753Y-1668249D01*
X-513697Y-1668507D01*
X-513708Y-1668770D01*
X-513437Y-1669704D01*
X-513232Y-1670654D01*
X-513097Y-1670880D01*
X-513023Y-1671134D01*
X-512469Y-1671933D01*
X-511971Y-1672768D01*
X-511771Y-1672939D01*
X-511621Y-1673156D01*
X-510843Y-1673735D01*
X-510103Y-1674369D01*
X-509858Y-1674468D01*
X-509647Y-1674626D01*
X-508070Y-1675231D01*
X-326740Y-1722637D01*
X-326409Y-1722668D01*
X-325646Y-1722839D01*
X-71437Y-1750810D01*
X-71103Y-1750793D01*
X-70325Y-1750851D01*
X185248Y-1741510D01*
G37*
%LPC*%
G36*
X-494741Y-1147660D02*
X-494741Y-1147660D01*
X-522660Y-1119741D01*
X-522660Y-1080258D01*
X-494741Y-1052339D01*
X-468243Y-1052339D01*
X-467198Y-1052168D01*
X-466143Y-1052044D01*
X-465986Y-1051970D01*
X-465815Y-1051942D01*
X-464879Y-1051447D01*
X-463918Y-1050993D01*
X-463793Y-1050873D01*
X-463639Y-1050791D01*
X-462909Y-1050023D01*
X-462145Y-1049288D01*
X-462064Y-1049134D01*
X-461944Y-1049008D01*
X-461497Y-1048045D01*
X-461007Y-1047106D01*
X-460980Y-1046934D01*
X-460907Y-1046776D01*
X-460789Y-1045726D01*
X-460624Y-1044675D01*
X-460653Y-1044503D01*
X-460634Y-1044331D01*
X-460858Y-1043298D01*
X-461036Y-1042249D01*
X-461118Y-1042095D01*
X-461155Y-1041926D01*
X-461696Y-1041018D01*
X-462199Y-1040080D01*
X-462326Y-1039961D01*
X-462415Y-1039812D01*
X-463218Y-1039123D01*
X-463993Y-1038396D01*
X-464181Y-1038298D01*
X-464283Y-1038210D01*
X-464577Y-1038092D01*
X-465491Y-1037615D01*
X-508397Y-1020993D01*
X-687345Y-910193D01*
X-842891Y-768394D01*
X-969729Y-600433D01*
X-1063548Y-412020D01*
X-1121147Y-209579D01*
X-1140568Y0D01*
X-1121147Y209579D01*
X-1120207Y212886D01*
X-1120206Y212887D01*
X-1120206Y212888D01*
X-1111535Y243363D01*
X-1111534Y243364D01*
X-1111534Y243366D01*
X-1102863Y273841D01*
X-1102863Y273842D01*
X-1102863Y273843D01*
X-1096360Y296699D01*
X-1096359Y296700D01*
X-1096359Y296702D01*
X-1094192Y304318D01*
X-1094191Y304319D01*
X-1094191Y304320D01*
X-1087688Y327176D01*
X-1087688Y327178D01*
X-1087688Y327179D01*
X-1079017Y357654D01*
X-1079016Y357655D01*
X-1079016Y357656D01*
X-1070345Y388132D01*
X-1070344Y388133D01*
X-1063841Y410989D01*
X-1063841Y410991D01*
X-1063840Y410992D01*
X-1063548Y412020D01*
X-979244Y581324D01*
X-979032Y582012D01*
X-978728Y582664D01*
X-978671Y583179D01*
X-978518Y583675D01*
X-978535Y584394D01*
X-978456Y585109D01*
X-978565Y585616D01*
X-978578Y586135D01*
X-978824Y586811D01*
X-978977Y587514D01*
X-979243Y587960D01*
X-979420Y588447D01*
X-979868Y589009D01*
X-980237Y589628D01*
X-980631Y589966D01*
X-980954Y590371D01*
X-981558Y590761D01*
X-982105Y591230D01*
X-982587Y591424D01*
X-983022Y591705D01*
X-983719Y591883D01*
X-984387Y592152D01*
X-985091Y592231D01*
X-985407Y592311D01*
X-985647Y592293D01*
X-986065Y592339D01*
X-1004741Y592339D01*
X-1032660Y620258D01*
X-1032660Y659741D01*
X-1032632Y659770D01*
X-1032102Y660508D01*
X-1031510Y661198D01*
X-1031387Y661502D01*
X-1031196Y661768D01*
X-1030928Y662637D01*
X-1030588Y663479D01*
X-1030542Y663892D01*
X-1030471Y664120D01*
X-1030480Y664446D01*
X-1030400Y665158D01*
X-1030400Y668604D01*
X-1030547Y669499D01*
X-1030617Y670407D01*
X-1030745Y670709D01*
X-1030798Y671032D01*
X-1031222Y671835D01*
X-1031578Y672672D01*
X-1031837Y672997D01*
X-1031948Y673208D01*
X-1032185Y673432D01*
X-1032632Y673992D01*
X-1070000Y711360D01*
X-1070000Y844720D01*
X-1070032Y844914D01*
X-1070010Y845109D01*
X-1070230Y846125D01*
X-1070398Y847148D01*
X-1070490Y847322D01*
X-1070531Y847514D01*
X-1071063Y848407D01*
X-1071548Y849324D01*
X-1071691Y849459D01*
X-1071792Y849628D01*
X-1072579Y850303D01*
X-1073332Y851019D01*
X-1073510Y851102D01*
X-1073660Y851230D01*
X-1074624Y851619D01*
X-1075563Y852057D01*
X-1075758Y852078D01*
X-1075941Y852152D01*
X-1077620Y852339D01*
X-1119741Y852339D01*
X-1147660Y880258D01*
X-1147660Y911923D01*
X-1147776Y912630D01*
X-1147794Y913345D01*
X-1147973Y913836D01*
X-1148058Y914352D01*
X-1148392Y914984D01*
X-1148638Y915657D01*
X-1148964Y916065D01*
X-1149208Y916527D01*
X-1149728Y917020D01*
X-1150174Y917579D01*
X-1150613Y917861D01*
X-1150992Y918222D01*
X-1151643Y918524D01*
X-1152243Y918911D01*
X-1152750Y919039D01*
X-1153223Y919260D01*
X-1153935Y919339D01*
X-1154629Y919515D01*
X-1155150Y919475D01*
X-1155669Y919533D01*
X-1156368Y919381D01*
X-1157083Y919326D01*
X-1157564Y919122D01*
X-1158074Y919012D01*
X-1158689Y918645D01*
X-1159348Y918365D01*
X-1159908Y917918D01*
X-1160188Y917751D01*
X-1160342Y917571D01*
X-1160668Y917311D01*
X-1296348Y781630D01*
X-1296878Y780892D01*
X-1297470Y780203D01*
X-1297593Y779898D01*
X-1297784Y779632D01*
X-1298052Y778763D01*
X-1298392Y777921D01*
X-1298438Y777508D01*
X-1298508Y777280D01*
X-1298500Y776954D01*
X-1298579Y776243D01*
X-1298579Y286637D01*
X-1298506Y286185D01*
X-1298525Y285728D01*
X-1298308Y284978D01*
X-1298182Y284208D01*
X-1297968Y283805D01*
X-1297841Y283365D01*
X-1297396Y282722D01*
X-1297031Y282033D01*
X-1296700Y281718D01*
X-1296439Y281342D01*
X-1295814Y280876D01*
X-1295248Y280338D01*
X-1294833Y280145D01*
X-1294466Y279872D01*
X-1293724Y279629D01*
X-1293016Y279300D01*
X-1292562Y279249D01*
X-1292127Y279107D01*
X-1291347Y279114D01*
X-1290571Y279027D01*
X-1290124Y279124D01*
X-1289667Y279128D01*
X-1288357Y279507D01*
X-1288166Y279548D01*
X-1288120Y279575D01*
X-1288044Y279597D01*
X-1262929Y290000D01*
X-1237070Y290000D01*
X-1213180Y280105D01*
X-1194895Y261819D01*
X-1184999Y237929D01*
X-1184999Y212070D01*
X-1194895Y188180D01*
X-1213180Y169895D01*
X-1237070Y159999D01*
X-1262929Y159999D01*
X-1288044Y170403D01*
X-1288490Y170507D01*
X-1288904Y170700D01*
X-1289679Y170786D01*
X-1290440Y170965D01*
X-1290895Y170922D01*
X-1291349Y170973D01*
X-1292113Y170807D01*
X-1292890Y170734D01*
X-1293308Y170548D01*
X-1293754Y170452D01*
X-1294424Y170052D01*
X-1295138Y169735D01*
X-1295476Y169425D01*
X-1295868Y169191D01*
X-1296376Y168599D01*
X-1296951Y168071D01*
X-1297172Y167671D01*
X-1297470Y167323D01*
X-1297763Y166598D01*
X-1298139Y165915D01*
X-1298221Y165466D01*
X-1298392Y165042D01*
X-1298543Y163685D01*
X-1298578Y163494D01*
X-1298571Y163442D01*
X-1298579Y163363D01*
X-1298579Y-455595D01*
X-1298550Y-455776D01*
X-1298569Y-455951D01*
X-1298422Y-456632D01*
X-1298363Y-457398D01*
X-1298235Y-457701D01*
X-1298182Y-458024D01*
X-1298078Y-458220D01*
X-1298048Y-458356D01*
X-1297731Y-458888D01*
X-1297402Y-459664D01*
X-1297143Y-459988D01*
X-1297031Y-460199D01*
X-1296843Y-460378D01*
X-1296788Y-460470D01*
X-1296692Y-460552D01*
X-1296348Y-460983D01*
X-1284999Y-472331D01*
X-1284999Y-794442D01*
X-1284853Y-795338D01*
X-1284783Y-796245D01*
X-1284655Y-796548D01*
X-1284602Y-796871D01*
X-1284178Y-797673D01*
X-1283822Y-798511D01*
X-1283563Y-798836D01*
X-1283451Y-799046D01*
X-1283215Y-799271D01*
X-1282768Y-799830D01*
X-1277339Y-805258D01*
X-1277339Y-844741D01*
X-1305258Y-872660D01*
X-1344741Y-872660D01*
X-1372660Y-844741D01*
X-1372660Y-805258D01*
X-1367232Y-799830D01*
X-1366702Y-799092D01*
X-1366110Y-798402D01*
X-1365987Y-798098D01*
X-1365796Y-797832D01*
X-1365528Y-796963D01*
X-1365188Y-796121D01*
X-1365142Y-795708D01*
X-1365071Y-795480D01*
X-1365080Y-795153D01*
X-1365000Y-794442D01*
X-1365000Y-509077D01*
X-1365147Y-508182D01*
X-1365217Y-507274D01*
X-1365345Y-506972D01*
X-1365398Y-506649D01*
X-1365822Y-505846D01*
X-1366178Y-505009D01*
X-1366437Y-504684D01*
X-1366548Y-504473D01*
X-1366785Y-504249D01*
X-1366911Y-504092D01*
X-1366971Y-503990D01*
X-1367037Y-503933D01*
X-1367232Y-503689D01*
X-1379220Y-491701D01*
X-1379220Y539983D01*
X-1379336Y540691D01*
X-1379355Y541409D01*
X-1379534Y541899D01*
X-1379618Y542411D01*
X-1379953Y543045D01*
X-1380200Y543721D01*
X-1380526Y544127D01*
X-1380768Y544587D01*
X-1381289Y545082D01*
X-1381738Y545642D01*
X-1382175Y545923D01*
X-1382552Y546282D01*
X-1383204Y546585D01*
X-1383808Y546973D01*
X-1384312Y547100D01*
X-1384783Y547319D01*
X-1385497Y547399D01*
X-1386193Y547575D01*
X-1386712Y547534D01*
X-1387229Y547592D01*
X-1387931Y547440D01*
X-1388647Y547385D01*
X-1388753Y547339D01*
X-1429741Y547339D01*
X-1457660Y575258D01*
X-1457660Y614741D01*
X-1450289Y622112D01*
X-1450175Y622272D01*
X-1450021Y622395D01*
X-1449458Y623269D01*
X-1448853Y624111D01*
X-1448795Y624298D01*
X-1448689Y624464D01*
X-1448434Y625471D01*
X-1448129Y626462D01*
X-1448134Y626659D01*
X-1448086Y626849D01*
X-1448165Y627884D01*
X-1448192Y628922D01*
X-1448259Y629107D01*
X-1448274Y629303D01*
X-1448679Y630258D01*
X-1449035Y631234D01*
X-1449158Y631388D01*
X-1449235Y631568D01*
X-1450290Y632888D01*
X-1457660Y640258D01*
X-1457660Y679742D01*
X-1450290Y687112D01*
X-1450175Y687272D01*
X-1450021Y687394D01*
X-1449460Y688267D01*
X-1448853Y689110D01*
X-1448795Y689298D01*
X-1448689Y689463D01*
X-1448435Y690469D01*
X-1448129Y691462D01*
X-1448134Y691659D01*
X-1448086Y691849D01*
X-1448165Y692883D01*
X-1448192Y693922D01*
X-1448259Y694107D01*
X-1448274Y694303D01*
X-1448679Y695257D01*
X-1449035Y696233D01*
X-1449158Y696387D01*
X-1449235Y696568D01*
X-1450289Y697888D01*
X-1457660Y705258D01*
X-1457660Y744741D01*
X-1429741Y772660D01*
X-1388717Y772660D01*
X-1388379Y772623D01*
X-1387882Y772469D01*
X-1387163Y772487D01*
X-1386450Y772408D01*
X-1385942Y772518D01*
X-1385422Y772531D01*
X-1384747Y772777D01*
X-1384045Y772928D01*
X-1383599Y773195D01*
X-1383110Y773373D01*
X-1382548Y773822D01*
X-1381932Y774189D01*
X-1381594Y774583D01*
X-1381187Y774908D01*
X-1380797Y775512D01*
X-1380330Y776057D01*
X-1380135Y776539D01*
X-1379853Y776976D01*
X-1379677Y777673D01*
X-1379408Y778338D01*
X-1379329Y779045D01*
X-1379248Y779362D01*
X-1379267Y779601D01*
X-1379220Y780017D01*
X-1379220Y812801D01*
X-1177689Y1014332D01*
X-1177271Y1014913D01*
X-1176778Y1015433D01*
X-1176558Y1015906D01*
X-1176253Y1016331D01*
X-1176042Y1017015D01*
X-1175740Y1017664D01*
X-1175682Y1018182D01*
X-1175528Y1018682D01*
X-1175547Y1019398D01*
X-1175467Y1020109D01*
X-1175578Y1020620D01*
X-1175591Y1021142D01*
X-1175837Y1021814D01*
X-1175988Y1022514D01*
X-1176256Y1022963D01*
X-1176435Y1023454D01*
X-1176882Y1024013D01*
X-1177248Y1024628D01*
X-1177645Y1024968D01*
X-1177971Y1025376D01*
X-1178572Y1025763D01*
X-1179117Y1026230D01*
X-1179602Y1026426D01*
X-1180040Y1026708D01*
X-1180733Y1026883D01*
X-1181398Y1027152D01*
X-1182109Y1027232D01*
X-1182426Y1027312D01*
X-1182663Y1027293D01*
X-1183077Y1027339D01*
X-1219741Y1027339D01*
X-1247660Y1055258D01*
X-1247660Y1094741D01*
X-1219741Y1122660D01*
X-1180258Y1122660D01*
X-1152339Y1094741D01*
X-1152339Y1058077D01*
X-1152224Y1057370D01*
X-1152205Y1056654D01*
X-1152026Y1056164D01*
X-1151942Y1055648D01*
X-1151608Y1055016D01*
X-1151362Y1054343D01*
X-1151035Y1053934D01*
X-1150791Y1053473D01*
X-1150272Y1052979D01*
X-1149825Y1052421D01*
X-1149387Y1052138D01*
X-1149008Y1051778D01*
X-1148357Y1051475D01*
X-1147756Y1051088D01*
X-1147250Y1050960D01*
X-1146776Y1050740D01*
X-1146065Y1050661D01*
X-1145371Y1050485D01*
X-1144849Y1050525D01*
X-1144331Y1050467D01*
X-1143632Y1050618D01*
X-1142917Y1050673D01*
X-1142436Y1050878D01*
X-1141926Y1050988D01*
X-1141311Y1051355D01*
X-1140652Y1051634D01*
X-1140092Y1052082D01*
X-1139812Y1052248D01*
X-1139658Y1052429D01*
X-1139332Y1052689D01*
X-877689Y1314332D01*
X-877271Y1314913D01*
X-876778Y1315433D01*
X-876558Y1315906D01*
X-876253Y1316331D01*
X-876042Y1317015D01*
X-875740Y1317664D01*
X-875682Y1318182D01*
X-875528Y1318682D01*
X-875547Y1319398D01*
X-875467Y1320109D01*
X-875578Y1320620D01*
X-875591Y1321142D01*
X-875837Y1321814D01*
X-875988Y1322514D01*
X-876256Y1322963D01*
X-876435Y1323454D01*
X-876882Y1324013D01*
X-877248Y1324628D01*
X-877645Y1324968D01*
X-877971Y1325376D01*
X-878572Y1325763D01*
X-879117Y1326230D01*
X-879602Y1326426D01*
X-880040Y1326708D01*
X-880733Y1326883D01*
X-881398Y1327152D01*
X-882109Y1327232D01*
X-882426Y1327312D01*
X-882663Y1327293D01*
X-883077Y1327339D01*
X-894741Y1327339D01*
X-922660Y1355258D01*
X-922660Y1394741D01*
X-894741Y1422660D01*
X-855258Y1422660D01*
X-827339Y1394741D01*
X-827339Y1355258D01*
X-829270Y1353328D01*
X-829688Y1352747D01*
X-830182Y1352227D01*
X-830402Y1351753D01*
X-830707Y1351329D01*
X-830918Y1350645D01*
X-831219Y1349996D01*
X-831277Y1349478D01*
X-831431Y1348978D01*
X-831413Y1348261D01*
X-831492Y1347550D01*
X-831382Y1347041D01*
X-831368Y1346518D01*
X-831123Y1345844D01*
X-830971Y1345145D01*
X-830704Y1344697D01*
X-830525Y1344206D01*
X-830077Y1343646D01*
X-829711Y1343032D01*
X-829315Y1342693D01*
X-828988Y1342284D01*
X-828387Y1341896D01*
X-827843Y1341430D01*
X-827358Y1341234D01*
X-826919Y1340952D01*
X-826225Y1340776D01*
X-825561Y1340508D01*
X-824850Y1340428D01*
X-824534Y1340348D01*
X-824296Y1340366D01*
X-823883Y1340320D01*
X-816829Y1340320D01*
X-816501Y1340188D01*
X-816088Y1340142D01*
X-815860Y1340071D01*
X-815534Y1340080D01*
X-814823Y1340000D01*
X-635876Y1340000D01*
X-634981Y1340147D01*
X-634073Y1340217D01*
X-633771Y1340345D01*
X-633448Y1340398D01*
X-632645Y1340822D01*
X-631808Y1341178D01*
X-631483Y1341437D01*
X-631273Y1341548D01*
X-631048Y1341785D01*
X-630488Y1342232D01*
X-620728Y1351992D01*
X-620310Y1352573D01*
X-619817Y1353093D01*
X-619597Y1353566D01*
X-619292Y1353991D01*
X-619081Y1354675D01*
X-618779Y1355324D01*
X-618722Y1355842D01*
X-618568Y1356342D01*
X-618586Y1357058D01*
X-618507Y1357769D01*
X-618617Y1358280D01*
X-618631Y1358802D01*
X-618876Y1359474D01*
X-619028Y1360174D01*
X-619295Y1360623D01*
X-619474Y1361114D01*
X-619921Y1361673D01*
X-620288Y1362288D01*
X-620684Y1362628D01*
X-621011Y1363036D01*
X-621611Y1363423D01*
X-622156Y1363890D01*
X-622642Y1364086D01*
X-623080Y1364368D01*
X-623773Y1364543D01*
X-624438Y1364812D01*
X-625149Y1364892D01*
X-625465Y1364972D01*
X-625703Y1364953D01*
X-626116Y1364999D01*
X-646880Y1364999D01*
X-687310Y1381746D01*
X-718254Y1412690D01*
X-735000Y1453119D01*
X-735000Y1496880D01*
X-718254Y1537310D01*
X-687310Y1568254D01*
X-646880Y1585000D01*
X-603119Y1585000D01*
X-562690Y1568254D01*
X-531746Y1537310D01*
X-514999Y1496880D01*
X-514999Y1476116D01*
X-514884Y1475409D01*
X-514865Y1474694D01*
X-514686Y1474203D01*
X-514602Y1473688D01*
X-514268Y1473055D01*
X-514022Y1472382D01*
X-513695Y1471974D01*
X-513451Y1471512D01*
X-512932Y1471019D01*
X-512485Y1470460D01*
X-512047Y1470178D01*
X-511668Y1469817D01*
X-511017Y1469515D01*
X-510416Y1469128D01*
X-509910Y1469000D01*
X-509436Y1468779D01*
X-508725Y1468700D01*
X-508031Y1468524D01*
X-507509Y1468564D01*
X-506991Y1468507D01*
X-506292Y1468658D01*
X-505577Y1468713D01*
X-505096Y1468917D01*
X-504586Y1469028D01*
X-503971Y1469394D01*
X-503312Y1469674D01*
X-502752Y1470121D01*
X-502472Y1470288D01*
X-502318Y1470468D01*
X-501992Y1470728D01*
X-465724Y1506997D01*
X-465723Y1506998D01*
X-440060Y1532660D01*
X723908Y1532660D01*
X856677Y1399892D01*
X857415Y1399362D01*
X858104Y1398770D01*
X858409Y1398647D01*
X858675Y1398456D01*
X859544Y1398188D01*
X860386Y1397848D01*
X860798Y1397802D01*
X861027Y1397731D01*
X861353Y1397740D01*
X862064Y1397660D01*
X869741Y1397660D01*
X897660Y1369741D01*
X897660Y1330258D01*
X869741Y1302339D01*
X830258Y1302339D01*
X802339Y1330258D01*
X802339Y1337935D01*
X802193Y1338831D01*
X802123Y1339738D01*
X801995Y1340041D01*
X801942Y1340364D01*
X801518Y1341166D01*
X801162Y1342004D01*
X800903Y1342329D01*
X800791Y1342539D01*
X800555Y1342764D01*
X800108Y1343323D01*
X693003Y1450428D01*
X692265Y1450958D01*
X691575Y1451550D01*
X691271Y1451673D01*
X691004Y1451864D01*
X690136Y1452132D01*
X689293Y1452472D01*
X688881Y1452518D01*
X688653Y1452588D01*
X688326Y1452580D01*
X687615Y1452659D01*
X-403767Y1452659D01*
X-404663Y1452513D01*
X-405570Y1452443D01*
X-405873Y1452315D01*
X-406196Y1452262D01*
X-406998Y1451838D01*
X-407836Y1451482D01*
X-408161Y1451223D01*
X-408371Y1451111D01*
X-408596Y1450875D01*
X-409155Y1450428D01*
X-484209Y1375374D01*
X-484264Y1375297D01*
X-484304Y1375267D01*
X-484636Y1374785D01*
X-485109Y1374290D01*
X-485335Y1373808D01*
X-485645Y1373375D01*
X-485677Y1373272D01*
X-485699Y1373240D01*
X-485853Y1372700D01*
X-486153Y1372062D01*
X-486213Y1371533D01*
X-486370Y1371024D01*
X-486367Y1370904D01*
X-486375Y1370874D01*
X-486354Y1370411D01*
X-486352Y1370318D01*
X-486432Y1369617D01*
X-486320Y1369096D01*
X-486307Y1368564D01*
X-486263Y1368445D01*
X-486262Y1368416D01*
X-486107Y1368016D01*
X-486065Y1367902D01*
X-485917Y1367210D01*
X-485646Y1366752D01*
X-485463Y1366252D01*
X-485383Y1366152D01*
X-485371Y1366122D01*
X-485068Y1365758D01*
X-485022Y1365700D01*
X-484662Y1365093D01*
X-484259Y1364746D01*
X-483927Y1364330D01*
X-483822Y1364263D01*
X-483796Y1364231D01*
X-483327Y1363943D01*
X-482798Y1363487D01*
X-482305Y1363286D01*
X-481858Y1362998D01*
X-481744Y1362969D01*
X-481700Y1362942D01*
X-481148Y1362814D01*
X-480519Y1362558D01*
X-479988Y1362525D01*
X-479472Y1362394D01*
X-479367Y1362403D01*
X-479303Y1362388D01*
X-478433Y1362428D01*
X-478063Y1362404D01*
X-477825Y1362455D01*
X-477615Y1362465D01*
X-465239Y1364425D01*
X-465239Y1265239D01*
X-564425Y1265239D01*
X-562465Y1277615D01*
X-562465Y1277693D01*
X-562438Y1277783D01*
X-562451Y1278316D01*
X-562367Y1278841D01*
X-562474Y1279490D01*
X-562478Y1280076D01*
X-562498Y1280135D01*
X-562501Y1280243D01*
X-562683Y1280743D01*
X-562770Y1281269D01*
X-563092Y1281873D01*
X-563274Y1282404D01*
X-563303Y1282443D01*
X-563344Y1282555D01*
X-563677Y1282971D01*
X-563927Y1283441D01*
X-564439Y1283925D01*
X-564771Y1284358D01*
X-564802Y1284378D01*
X-564881Y1284477D01*
X-565328Y1284765D01*
X-565715Y1285131D01*
X-566357Y1285428D01*
X-566436Y1285479D01*
X-566812Y1285732D01*
X-566842Y1285740D01*
X-566950Y1285809D01*
X-567465Y1285940D01*
X-567949Y1286163D01*
X-568652Y1286240D01*
X-568774Y1286271D01*
X-569185Y1286384D01*
X-569214Y1286382D01*
X-569335Y1286413D01*
X-569866Y1286372D01*
X-570395Y1286430D01*
X-571084Y1286278D01*
X-571158Y1286273D01*
X-571642Y1286246D01*
X-571673Y1286233D01*
X-571789Y1286224D01*
X-572280Y1286016D01*
X-572799Y1285902D01*
X-573398Y1285543D01*
X-573927Y1285331D01*
X-573958Y1285304D01*
X-574054Y1285263D01*
X-574628Y1284805D01*
X-574909Y1284636D01*
X-575060Y1284460D01*
X-575374Y1284209D01*
X-599583Y1259999D01*
X-814823Y1259999D01*
X-815718Y1259853D01*
X-816625Y1259783D01*
X-816928Y1259655D01*
X-817251Y1259602D01*
X-818053Y1259178D01*
X-818891Y1258822D01*
X-819216Y1258563D01*
X-819426Y1258451D01*
X-819651Y1258215D01*
X-820210Y1257768D01*
X-1117311Y960668D01*
X-1117729Y960086D01*
X-1118222Y959567D01*
X-1118442Y959093D01*
X-1118747Y958669D01*
X-1118958Y957984D01*
X-1119260Y957336D01*
X-1119318Y956818D01*
X-1119472Y956318D01*
X-1119453Y955601D01*
X-1119533Y954890D01*
X-1119422Y954379D01*
X-1119408Y953858D01*
X-1119163Y953185D01*
X-1119012Y952485D01*
X-1118744Y952037D01*
X-1118565Y951546D01*
X-1118118Y950986D01*
X-1117751Y950372D01*
X-1117355Y950032D01*
X-1117028Y949624D01*
X-1116428Y949237D01*
X-1115883Y948770D01*
X-1115398Y948574D01*
X-1114959Y948292D01*
X-1114266Y948116D01*
X-1113602Y947848D01*
X-1112890Y947768D01*
X-1112574Y947688D01*
X-1112336Y947706D01*
X-1111923Y947660D01*
X-1080258Y947660D01*
X-1052339Y919741D01*
X-1052339Y879695D01*
X-1052224Y878988D01*
X-1052205Y878273D01*
X-1052026Y877783D01*
X-1051942Y877267D01*
X-1051608Y876635D01*
X-1051362Y875962D01*
X-1051035Y875553D01*
X-1050791Y875092D01*
X-1050272Y874598D01*
X-1049825Y874039D01*
X-1049387Y873757D01*
X-1049008Y873397D01*
X-1048357Y873094D01*
X-1047756Y872707D01*
X-1047250Y872579D01*
X-1046776Y872359D01*
X-1046065Y872279D01*
X-1045371Y872104D01*
X-1044849Y872144D01*
X-1044331Y872086D01*
X-1043632Y872237D01*
X-1042917Y872292D01*
X-1042435Y872497D01*
X-1041926Y872607D01*
X-1041311Y872973D01*
X-1040652Y873253D01*
X-1040092Y873700D01*
X-1039812Y873867D01*
X-1039658Y874048D01*
X-1039332Y874308D01*
X-1012992Y900648D01*
X-984400Y929240D01*
X-894557Y929240D01*
X-893662Y929387D01*
X-892754Y929457D01*
X-892452Y929585D01*
X-892129Y929638D01*
X-891326Y930062D01*
X-890489Y930418D01*
X-890164Y930677D01*
X-889953Y930788D01*
X-889729Y931025D01*
X-889169Y931472D01*
X-667849Y1152793D01*
X-534388Y1152793D01*
X-533681Y1152908D01*
X-532966Y1152927D01*
X-532475Y1153106D01*
X-531959Y1153190D01*
X-531326Y1153525D01*
X-530654Y1153770D01*
X-530246Y1154097D01*
X-529784Y1154341D01*
X-529291Y1154859D01*
X-528732Y1155307D01*
X-528449Y1155746D01*
X-528089Y1156124D01*
X-527787Y1156773D01*
X-527399Y1157376D01*
X-527271Y1157883D01*
X-527051Y1158356D01*
X-526972Y1159066D01*
X-526796Y1159761D01*
X-526836Y1160282D01*
X-526778Y1160801D01*
X-526930Y1161502D01*
X-526985Y1162215D01*
X-527189Y1162695D01*
X-527299Y1163206D01*
X-527666Y1163821D01*
X-527946Y1164480D01*
X-528393Y1165039D01*
X-528560Y1165320D01*
X-528741Y1165475D01*
X-529000Y1165800D01*
X-538023Y1174822D01*
X-548698Y1189515D01*
X-556946Y1205701D01*
X-562559Y1222978D01*
X-564425Y1234761D01*
X-457621Y1234761D01*
X-457427Y1234793D01*
X-457232Y1234771D01*
X-456217Y1234991D01*
X-455193Y1235158D01*
X-455019Y1235250D01*
X-454827Y1235292D01*
X-453935Y1235824D01*
X-453018Y1236309D01*
X-452882Y1236451D01*
X-452713Y1236552D01*
X-452038Y1237339D01*
X-451323Y1238093D01*
X-451240Y1238271D01*
X-451112Y1238420D01*
X-450722Y1239384D01*
X-450285Y1240324D01*
X-450263Y1240519D01*
X-450189Y1240702D01*
X-450002Y1242380D01*
X-450002Y1250002D01*
X-449998Y1250002D01*
X-449998Y1242380D01*
X-449966Y1242186D01*
X-449988Y1241991D01*
X-449768Y1240975D01*
X-449600Y1239952D01*
X-449508Y1239778D01*
X-449467Y1239586D01*
X-448935Y1238693D01*
X-448450Y1237776D01*
X-448307Y1237641D01*
X-448207Y1237472D01*
X-447419Y1236797D01*
X-446666Y1236081D01*
X-446488Y1235998D01*
X-446338Y1235870D01*
X-445374Y1235481D01*
X-444435Y1235043D01*
X-444240Y1235022D01*
X-444057Y1234948D01*
X-442378Y1234761D01*
X-335575Y1234761D01*
X-337441Y1222976D01*
X-338115Y1220901D01*
X-338218Y1220232D01*
X-338418Y1219584D01*
X-338403Y1219023D01*
X-338488Y1218469D01*
X-338372Y1217800D01*
X-338354Y1217124D01*
X-338162Y1216598D01*
X-338066Y1216044D01*
X-337743Y1215449D01*
X-337511Y1214813D01*
X-337160Y1214373D01*
X-336893Y1213881D01*
X-336398Y1213420D01*
X-335974Y1212890D01*
X-335503Y1212587D01*
X-335092Y1212204D01*
X-334474Y1211925D01*
X-333905Y1211558D01*
X-333362Y1211421D01*
X-332851Y1211189D01*
X-332177Y1211121D01*
X-331520Y1210955D01*
X-330960Y1210998D01*
X-330402Y1210941D01*
X-329743Y1211091D01*
X-329066Y1211143D01*
X-328549Y1211362D01*
X-328003Y1211487D01*
X-327425Y1211839D01*
X-326801Y1212104D01*
X-326186Y1212595D01*
X-325902Y1212768D01*
X-325765Y1212932D01*
X-325481Y1213158D01*
X-293640Y1245000D01*
X538640Y1245000D01*
X763748Y1019892D01*
X764486Y1019362D01*
X765176Y1018770D01*
X765480Y1018647D01*
X765747Y1018456D01*
X766615Y1018188D01*
X767458Y1017848D01*
X767870Y1017802D01*
X768098Y1017731D01*
X768425Y1017740D01*
X769136Y1017660D01*
X769741Y1017660D01*
X797660Y989741D01*
X797660Y950258D01*
X769741Y922339D01*
X730258Y922339D01*
X702339Y950258D01*
X702339Y950864D01*
X702193Y951759D01*
X702123Y952667D01*
X701995Y952969D01*
X701942Y953292D01*
X701518Y954095D01*
X701162Y954932D01*
X700903Y955257D01*
X700791Y955468D01*
X700555Y955692D01*
X700108Y956252D01*
X503592Y1152768D01*
X502853Y1153298D01*
X502164Y1153890D01*
X501859Y1154013D01*
X501593Y1154204D01*
X500724Y1154472D01*
X499882Y1154812D01*
X499470Y1154858D01*
X499242Y1154928D01*
X498915Y1154920D01*
X498204Y1154999D01*
X-253204Y1154999D01*
X-254099Y1154853D01*
X-255007Y1154783D01*
X-255309Y1154655D01*
X-255632Y1154602D01*
X-256435Y1154178D01*
X-257272Y1153822D01*
X-257597Y1153563D01*
X-257808Y1153451D01*
X-258032Y1153215D01*
X-258592Y1152768D01*
X-297440Y1113920D01*
X-297548Y1113768D01*
X-297693Y1113654D01*
X-298263Y1112775D01*
X-298876Y1111921D01*
X-298930Y1111744D01*
X-299031Y1111589D01*
X-299292Y1110572D01*
X-299600Y1109570D01*
X-299596Y1109385D01*
X-299642Y1109205D01*
X-299564Y1108155D01*
X-299537Y1107110D01*
X-299474Y1106937D01*
X-299460Y1106751D01*
X-299053Y1105781D01*
X-298694Y1104798D01*
X-298578Y1104653D01*
X-298506Y1104483D01*
X-297812Y1103695D01*
X-297157Y1102876D01*
X-297001Y1102776D01*
X-296879Y1102637D01*
X-295970Y1102112D01*
X-295088Y1101544D01*
X-294909Y1101498D01*
X-294748Y1101406D01*
X-293720Y1101198D01*
X-292703Y1100940D01*
X-292518Y1100954D01*
X-292336Y1100918D01*
X-290652Y1101042D01*
X-105238Y1135702D01*
X105238Y1135702D01*
X312131Y1097027D01*
X508397Y1020993D01*
X687344Y910194D01*
X842891Y768394D01*
X969730Y600431D01*
X1063548Y412020D01*
X1121147Y209579D01*
X1140568Y0D01*
X1121147Y-209579D01*
X1114614Y-232543D01*
X1114613Y-232544D01*
X1114613Y-232545D01*
X1108110Y-255401D01*
X1108109Y-255402D01*
X1108109Y-255403D01*
X1105942Y-263020D01*
X1105942Y-263021D01*
X1105942Y-263022D01*
X1099438Y-285878D01*
X1099438Y-285879D01*
X1099438Y-285881D01*
X1090767Y-316356D01*
X1090766Y-316357D01*
X1090766Y-316358D01*
X1082095Y-346833D01*
X1082095Y-346834D01*
X1082095Y-346835D01*
X1075592Y-369691D01*
X1075591Y-369693D01*
X1075591Y-369694D01*
X1073423Y-377311D01*
X1073423Y-377312D01*
X1073423Y-377313D01*
X1066920Y-400169D01*
X1066919Y-400170D01*
X1066919Y-400171D01*
X1063548Y-412020D01*
X969729Y-600433D01*
X842890Y-768395D01*
X687345Y-910193D01*
X508397Y-1020993D01*
X312131Y-1097027D01*
X105238Y-1135702D01*
X-105238Y-1135702D01*
X-312131Y-1097027D01*
X-439143Y-1047823D01*
X-440010Y-1047640D01*
X-440857Y-1047379D01*
X-441208Y-1047388D01*
X-441551Y-1047316D01*
X-442432Y-1047419D01*
X-443317Y-1047442D01*
X-443646Y-1047562D01*
X-443995Y-1047603D01*
X-444797Y-1047982D01*
X-445629Y-1048286D01*
X-445903Y-1048505D01*
X-446220Y-1048654D01*
X-446859Y-1049269D01*
X-447551Y-1049822D01*
X-447740Y-1050116D01*
X-447993Y-1050360D01*
X-448404Y-1051147D01*
X-448883Y-1051891D01*
X-448969Y-1052231D01*
X-449131Y-1052542D01*
X-449269Y-1053418D01*
X-449487Y-1054277D01*
X-449460Y-1054626D01*
X-449514Y-1054973D01*
X-449366Y-1055846D01*
X-449298Y-1056731D01*
X-449161Y-1057054D01*
X-449103Y-1057399D01*
X-448683Y-1058180D01*
X-448337Y-1058996D01*
X-448058Y-1059345D01*
X-447939Y-1059567D01*
X-447706Y-1059786D01*
X-447283Y-1060315D01*
X-427339Y-1080258D01*
X-427339Y-1119741D01*
X-455258Y-1147660D01*
X-494741Y-1147660D01*
G37*
%LPD*%
%LPC*%
G36*
X-422301Y-1359720D02*
X-422301Y-1359720D01*
X-789469Y-992552D01*
X-790208Y-992022D01*
X-790897Y-991430D01*
X-791202Y-991307D01*
X-791468Y-991116D01*
X-792337Y-990848D01*
X-793179Y-990508D01*
X-793591Y-990462D01*
X-793819Y-990391D01*
X-794146Y-990400D01*
X-794857Y-990320D01*
X-1219762Y-990320D01*
X-1220658Y-990467D01*
X-1221565Y-990537D01*
X-1221868Y-990665D01*
X-1222191Y-990718D01*
X-1222993Y-991142D01*
X-1223831Y-991498D01*
X-1224156Y-991757D01*
X-1224366Y-991868D01*
X-1224591Y-992105D01*
X-1225150Y-992552D01*
X-1230258Y-997660D01*
X-1269741Y-997660D01*
X-1297660Y-969741D01*
X-1297660Y-930258D01*
X-1269741Y-902339D01*
X-1230258Y-902339D01*
X-1225150Y-907448D01*
X-1224412Y-907978D01*
X-1223722Y-908570D01*
X-1223418Y-908693D01*
X-1223152Y-908884D01*
X-1222283Y-909152D01*
X-1221441Y-909492D01*
X-1221028Y-909538D01*
X-1220800Y-909608D01*
X-1220473Y-909600D01*
X-1219762Y-909679D01*
X-758299Y-909679D01*
X-391130Y-1276848D01*
X-390392Y-1277378D01*
X-389703Y-1277970D01*
X-389398Y-1278093D01*
X-389132Y-1278284D01*
X-388263Y-1278552D01*
X-387421Y-1278892D01*
X-387008Y-1278938D01*
X-386780Y-1279008D01*
X-386454Y-1279000D01*
X-385743Y-1279079D01*
X443283Y-1279079D01*
X443990Y-1278964D01*
X444705Y-1278945D01*
X445196Y-1278766D01*
X445711Y-1278682D01*
X446343Y-1278348D01*
X447017Y-1278102D01*
X447425Y-1277775D01*
X447887Y-1277531D01*
X448380Y-1277012D01*
X448939Y-1276565D01*
X449221Y-1276127D01*
X449582Y-1275748D01*
X449884Y-1275097D01*
X450271Y-1274496D01*
X450399Y-1273990D01*
X450619Y-1273516D01*
X450699Y-1272805D01*
X450874Y-1272111D01*
X450834Y-1271589D01*
X450892Y-1271071D01*
X450741Y-1270372D01*
X450686Y-1269657D01*
X450482Y-1269175D01*
X450371Y-1268666D01*
X450005Y-1268051D01*
X449725Y-1267392D01*
X449278Y-1266832D01*
X449111Y-1266552D01*
X448931Y-1266398D01*
X448671Y-1266072D01*
X427339Y-1244741D01*
X427339Y-1205258D01*
X455258Y-1177339D01*
X494741Y-1177339D01*
X522660Y-1205258D01*
X522660Y-1241323D01*
X522776Y-1242030D01*
X522794Y-1242745D01*
X522973Y-1243236D01*
X523058Y-1243752D01*
X523392Y-1244384D01*
X523638Y-1245057D01*
X523964Y-1245465D01*
X524208Y-1245927D01*
X524728Y-1246420D01*
X525174Y-1246979D01*
X525613Y-1247261D01*
X525992Y-1247622D01*
X526643Y-1247924D01*
X527243Y-1248311D01*
X527750Y-1248439D01*
X528223Y-1248660D01*
X528935Y-1248739D01*
X529629Y-1248915D01*
X530150Y-1248875D01*
X530669Y-1248933D01*
X531368Y-1248781D01*
X532083Y-1248726D01*
X532564Y-1248522D01*
X533074Y-1248412D01*
X533689Y-1248045D01*
X534348Y-1247765D01*
X534908Y-1247318D01*
X535188Y-1247151D01*
X535342Y-1246971D01*
X535668Y-1246711D01*
X797699Y-984679D01*
X1253883Y-984679D01*
X1254590Y-984564D01*
X1255305Y-984545D01*
X1255796Y-984366D01*
X1256311Y-984282D01*
X1256943Y-983948D01*
X1257617Y-983702D01*
X1258025Y-983375D01*
X1258487Y-983131D01*
X1258980Y-982612D01*
X1259539Y-982165D01*
X1259821Y-981727D01*
X1260182Y-981348D01*
X1260484Y-980697D01*
X1260871Y-980096D01*
X1260999Y-979590D01*
X1261219Y-979116D01*
X1261299Y-978405D01*
X1261474Y-977711D01*
X1261434Y-977189D01*
X1261492Y-976671D01*
X1261341Y-975972D01*
X1261286Y-975257D01*
X1261082Y-974776D01*
X1260971Y-974266D01*
X1260605Y-973651D01*
X1260325Y-972992D01*
X1259878Y-972432D01*
X1259711Y-972152D01*
X1259531Y-971998D01*
X1259271Y-971672D01*
X1233339Y-945741D01*
X1233339Y-938517D01*
X1233193Y-937622D01*
X1233123Y-936714D01*
X1232995Y-936412D01*
X1232942Y-936089D01*
X1232518Y-935286D01*
X1232162Y-934449D01*
X1231903Y-934124D01*
X1231791Y-933913D01*
X1231555Y-933689D01*
X1231108Y-933129D01*
X1209679Y-911701D01*
X1209679Y-776117D01*
X1209564Y-775410D01*
X1209545Y-774694D01*
X1209366Y-774204D01*
X1209282Y-773688D01*
X1208947Y-773056D01*
X1208702Y-772383D01*
X1208376Y-771975D01*
X1208131Y-771513D01*
X1207612Y-771019D01*
X1207165Y-770461D01*
X1206727Y-770178D01*
X1206348Y-769818D01*
X1205698Y-769516D01*
X1205096Y-769128D01*
X1204589Y-769000D01*
X1204116Y-768780D01*
X1203405Y-768701D01*
X1202710Y-768525D01*
X1202189Y-768565D01*
X1201671Y-768508D01*
X1200970Y-768659D01*
X1200257Y-768714D01*
X1199776Y-768918D01*
X1199266Y-769028D01*
X1198651Y-769395D01*
X1197991Y-769675D01*
X1197432Y-770122D01*
X1197152Y-770289D01*
X1196997Y-770469D01*
X1196672Y-770729D01*
X1194741Y-772660D01*
X1155258Y-772660D01*
X1127339Y-744741D01*
X1127339Y-705258D01*
X1155258Y-677339D01*
X1194741Y-677339D01*
X1196672Y-679270D01*
X1197253Y-679688D01*
X1197773Y-680182D01*
X1198247Y-680402D01*
X1198670Y-680707D01*
X1199355Y-680918D01*
X1200004Y-681219D01*
X1200522Y-681277D01*
X1201022Y-681431D01*
X1201739Y-681413D01*
X1202449Y-681492D01*
X1202959Y-681382D01*
X1203482Y-681368D01*
X1204155Y-681123D01*
X1204854Y-680971D01*
X1205303Y-680704D01*
X1205794Y-680525D01*
X1206354Y-680077D01*
X1206968Y-679711D01*
X1207307Y-679315D01*
X1207716Y-678988D01*
X1208103Y-678387D01*
X1208570Y-677843D01*
X1208766Y-677358D01*
X1209048Y-676919D01*
X1209224Y-676225D01*
X1209492Y-675561D01*
X1209572Y-674850D01*
X1209652Y-674534D01*
X1209633Y-674296D01*
X1209679Y-673883D01*
X1209679Y-280238D01*
X1209653Y-280075D01*
X1209669Y-279927D01*
X1209528Y-279271D01*
X1209463Y-278435D01*
X1209335Y-278132D01*
X1209282Y-277809D01*
X1209161Y-277581D01*
X1209148Y-277522D01*
X1208985Y-277248D01*
X1208858Y-277007D01*
X1208502Y-276169D01*
X1208243Y-275844D01*
X1208131Y-275634D01*
X1207895Y-275409D01*
X1207448Y-274850D01*
X1202339Y-269741D01*
X1202339Y-230258D01*
X1230258Y-202339D01*
X1269741Y-202339D01*
X1297660Y-230258D01*
X1297660Y-269741D01*
X1292552Y-274850D01*
X1292022Y-275588D01*
X1291665Y-276003D01*
X1291641Y-276029D01*
X1291638Y-276035D01*
X1291430Y-276278D01*
X1291307Y-276582D01*
X1291116Y-276848D01*
X1290848Y-277717D01*
X1290797Y-277844D01*
X1290603Y-278260D01*
X1290593Y-278346D01*
X1290508Y-278559D01*
X1290462Y-278972D01*
X1290391Y-279200D01*
X1290400Y-279526D01*
X1290320Y-280238D01*
X1290320Y-870720D01*
X1290352Y-870914D01*
X1290330Y-871109D01*
X1290550Y-872125D01*
X1290718Y-873148D01*
X1290810Y-873322D01*
X1290851Y-873514D01*
X1291383Y-874407D01*
X1291868Y-875324D01*
X1292011Y-875459D01*
X1292112Y-875628D01*
X1292899Y-876303D01*
X1293652Y-877019D01*
X1293830Y-877102D01*
X1293980Y-877230D01*
X1294944Y-877619D01*
X1295883Y-878057D01*
X1296078Y-878078D01*
X1296261Y-878152D01*
X1297940Y-878339D01*
X1300741Y-878339D01*
X1321672Y-899271D01*
X1322254Y-899689D01*
X1322773Y-900182D01*
X1323246Y-900402D01*
X1323670Y-900707D01*
X1324356Y-900918D01*
X1325004Y-901219D01*
X1325522Y-901277D01*
X1326022Y-901431D01*
X1326739Y-901413D01*
X1327449Y-901492D01*
X1327959Y-901382D01*
X1328482Y-901368D01*
X1329156Y-901123D01*
X1329854Y-900971D01*
X1330303Y-900704D01*
X1330794Y-900525D01*
X1331353Y-900078D01*
X1331968Y-899711D01*
X1332308Y-899314D01*
X1332716Y-898988D01*
X1333103Y-898388D01*
X1333570Y-897843D01*
X1333766Y-897357D01*
X1334048Y-896919D01*
X1334223Y-896226D01*
X1334492Y-895561D01*
X1334572Y-894850D01*
X1334652Y-894533D01*
X1334633Y-894296D01*
X1334679Y-893883D01*
X1334679Y-658299D01*
X1457448Y-535530D01*
X1457978Y-534792D01*
X1458570Y-534103D01*
X1458693Y-533798D01*
X1458884Y-533532D01*
X1459152Y-532663D01*
X1459492Y-531821D01*
X1459538Y-531408D01*
X1459608Y-531180D01*
X1459600Y-530854D01*
X1459679Y-530143D01*
X1459679Y-33299D01*
X1485530Y-7448D01*
X1600108Y107129D01*
X1600638Y107868D01*
X1601230Y108557D01*
X1601353Y108862D01*
X1601544Y109128D01*
X1601812Y109997D01*
X1602152Y110839D01*
X1602198Y111251D01*
X1602268Y111479D01*
X1602260Y111806D01*
X1602339Y112517D01*
X1602339Y119741D01*
X1630258Y147660D01*
X1669741Y147660D01*
X1697660Y119741D01*
X1697660Y80258D01*
X1669741Y52339D01*
X1662517Y52339D01*
X1661622Y52193D01*
X1660714Y52123D01*
X1660412Y51995D01*
X1660089Y51942D01*
X1659286Y51518D01*
X1658449Y51162D01*
X1658124Y50903D01*
X1657913Y50791D01*
X1657689Y50555D01*
X1657129Y50108D01*
X1542552Y-64469D01*
X1542022Y-65208D01*
X1541430Y-65897D01*
X1541307Y-66202D01*
X1541116Y-66468D01*
X1540848Y-67337D01*
X1540508Y-68179D01*
X1540462Y-68591D01*
X1540391Y-68819D01*
X1540400Y-69146D01*
X1540320Y-69857D01*
X1540320Y-566701D01*
X1417552Y-689469D01*
X1417022Y-690208D01*
X1416430Y-690897D01*
X1416307Y-691202D01*
X1416116Y-691468D01*
X1415848Y-692337D01*
X1415508Y-693179D01*
X1415462Y-693591D01*
X1415391Y-693819D01*
X1415400Y-694146D01*
X1415320Y-694857D01*
X1415320Y-991701D01*
X1341701Y-1065320D01*
X834257Y-1065320D01*
X833362Y-1065467D01*
X832454Y-1065537D01*
X832152Y-1065665D01*
X831829Y-1065718D01*
X831026Y-1066142D01*
X830189Y-1066498D01*
X829864Y-1066757D01*
X829653Y-1066868D01*
X829429Y-1067105D01*
X828869Y-1067552D01*
X536701Y-1359720D01*
X-422301Y-1359720D01*
G37*
%LPD*%
G36*
X-307330Y-1589644D02*
X-307330Y-1589644D01*
X-306615Y-1589625D01*
X-306124Y-1589446D01*
X-305608Y-1589362D01*
X-304976Y-1589028D01*
X-304303Y-1588782D01*
X-303895Y-1588455D01*
X-303433Y-1588211D01*
X-302940Y-1587692D01*
X-302381Y-1587245D01*
X-302099Y-1586807D01*
X-301738Y-1586428D01*
X-301436Y-1585777D01*
X-301049Y-1585176D01*
X-300921Y-1584670D01*
X-300700Y-1584196D01*
X-300621Y-1583485D01*
X-300445Y-1582791D01*
X-300485Y-1582269D01*
X-300428Y-1581751D01*
X-300579Y-1581052D01*
X-300634Y-1580337D01*
X-300838Y-1579855D01*
X-300948Y-1579346D01*
X-301315Y-1578731D01*
X-301595Y-1578072D01*
X-302042Y-1577512D01*
X-302209Y-1577232D01*
X-302389Y-1577078D01*
X-302649Y-1576752D01*
X-322660Y-1556741D01*
X-322660Y-1517258D01*
X-294741Y-1489339D01*
X-255258Y-1489339D01*
X-227339Y-1517258D01*
X-227339Y-1556741D01*
X-247351Y-1576752D01*
X-247769Y-1577334D01*
X-248262Y-1577853D01*
X-248482Y-1578326D01*
X-248787Y-1578750D01*
X-248998Y-1579436D01*
X-249299Y-1580084D01*
X-249357Y-1580602D01*
X-249511Y-1581102D01*
X-249493Y-1581819D01*
X-249572Y-1582529D01*
X-249462Y-1583039D01*
X-249448Y-1583562D01*
X-249203Y-1584236D01*
X-249051Y-1584934D01*
X-248784Y-1585383D01*
X-248605Y-1585874D01*
X-248158Y-1586433D01*
X-247791Y-1587048D01*
X-247394Y-1587388D01*
X-247068Y-1587796D01*
X-246468Y-1588183D01*
X-245923Y-1588650D01*
X-245437Y-1588846D01*
X-244999Y-1589128D01*
X-244306Y-1589303D01*
X-243641Y-1589572D01*
X-242930Y-1589652D01*
X-242613Y-1589732D01*
X-242376Y-1589713D01*
X-241963Y-1589759D01*
X228963Y-1589759D01*
X229670Y-1589644D01*
X230385Y-1589625D01*
X230876Y-1589446D01*
X231391Y-1589362D01*
X232024Y-1589027D01*
X232697Y-1588782D01*
X233105Y-1588455D01*
X233567Y-1588211D01*
X234059Y-1587693D01*
X234619Y-1587245D01*
X234902Y-1586806D01*
X235262Y-1586428D01*
X235563Y-1585779D01*
X235951Y-1585176D01*
X236079Y-1584669D01*
X236299Y-1584196D01*
X236379Y-1583486D01*
X236554Y-1582791D01*
X236514Y-1582270D01*
X236572Y-1581751D01*
X236421Y-1581050D01*
X236366Y-1580337D01*
X236162Y-1579857D01*
X236051Y-1579346D01*
X235684Y-1578731D01*
X235405Y-1578072D01*
X234958Y-1577513D01*
X234791Y-1577232D01*
X234610Y-1577077D01*
X234350Y-1576752D01*
X227339Y-1569742D01*
X227339Y-1530258D01*
X255258Y-1502339D01*
X294741Y-1502339D01*
X322660Y-1530258D01*
X322660Y-1561215D01*
X322776Y-1561922D01*
X322794Y-1562638D01*
X322973Y-1563128D01*
X323058Y-1563644D01*
X323392Y-1564276D01*
X323638Y-1564949D01*
X323964Y-1565358D01*
X324208Y-1565819D01*
X324728Y-1566313D01*
X325174Y-1566871D01*
X325613Y-1567153D01*
X325992Y-1567514D01*
X326643Y-1567817D01*
X327243Y-1568203D01*
X327750Y-1568332D01*
X328223Y-1568552D01*
X328935Y-1568631D01*
X329629Y-1568807D01*
X330150Y-1568767D01*
X330669Y-1568825D01*
X331368Y-1568673D01*
X332083Y-1568618D01*
X332564Y-1568414D01*
X333074Y-1568304D01*
X333689Y-1567937D01*
X334348Y-1567658D01*
X334908Y-1567210D01*
X335188Y-1567043D01*
X335342Y-1566863D01*
X335668Y-1566603D01*
X423943Y-1478328D01*
X424361Y-1477746D01*
X424854Y-1477227D01*
X425074Y-1476753D01*
X425379Y-1476329D01*
X425590Y-1475644D01*
X425892Y-1474996D01*
X425950Y-1474478D01*
X426104Y-1473978D01*
X426085Y-1473261D01*
X426165Y-1472550D01*
X426054Y-1472039D01*
X426041Y-1471518D01*
X425795Y-1470845D01*
X425644Y-1470145D01*
X425376Y-1469697D01*
X425197Y-1469206D01*
X424750Y-1468646D01*
X424383Y-1468032D01*
X423987Y-1467692D01*
X423661Y-1467284D01*
X423060Y-1466897D01*
X422515Y-1466430D01*
X422030Y-1466234D01*
X421592Y-1465952D01*
X420898Y-1465776D01*
X420234Y-1465508D01*
X419523Y-1465428D01*
X419206Y-1465348D01*
X418968Y-1465366D01*
X418555Y-1465320D01*
X-466701Y-1465320D01*
X-664469Y-1267552D01*
X-665208Y-1267022D01*
X-665897Y-1266430D01*
X-666202Y-1266307D01*
X-666468Y-1266116D01*
X-667337Y-1265848D01*
X-668179Y-1265508D01*
X-668591Y-1265462D01*
X-668819Y-1265391D01*
X-669146Y-1265400D01*
X-669857Y-1265320D01*
X-1057883Y-1265320D01*
X-1058590Y-1265436D01*
X-1059305Y-1265454D01*
X-1059796Y-1265633D01*
X-1060311Y-1265718D01*
X-1060943Y-1266052D01*
X-1061617Y-1266298D01*
X-1062025Y-1266624D01*
X-1062487Y-1266868D01*
X-1062980Y-1267388D01*
X-1063539Y-1267834D01*
X-1063821Y-1268273D01*
X-1064182Y-1268652D01*
X-1064484Y-1269303D01*
X-1064871Y-1269903D01*
X-1064999Y-1270410D01*
X-1065219Y-1270883D01*
X-1065299Y-1271595D01*
X-1065474Y-1272289D01*
X-1065434Y-1272810D01*
X-1065492Y-1273329D01*
X-1065341Y-1274028D01*
X-1065286Y-1274743D01*
X-1065082Y-1275224D01*
X-1064971Y-1275734D01*
X-1064605Y-1276349D01*
X-1064325Y-1277008D01*
X-1063878Y-1277568D01*
X-1063711Y-1277848D01*
X-1063531Y-1278002D01*
X-1063271Y-1278328D01*
X-1055070Y-1286528D01*
X-1054332Y-1287058D01*
X-1053643Y-1287650D01*
X-1053338Y-1287773D01*
X-1053072Y-1287964D01*
X-1052203Y-1288232D01*
X-1051361Y-1288572D01*
X-1050948Y-1288618D01*
X-1050720Y-1288688D01*
X-1050394Y-1288680D01*
X-1049683Y-1288759D01*
X-952298Y-1288759D01*
X-760582Y-1480476D01*
X-759844Y-1481006D01*
X-759154Y-1481598D01*
X-758850Y-1481721D01*
X-758584Y-1481912D01*
X-757715Y-1482179D01*
X-756873Y-1482520D01*
X-756460Y-1482566D01*
X-756232Y-1482636D01*
X-755906Y-1482628D01*
X-755194Y-1482707D01*
X-592455Y-1482707D01*
X-487634Y-1587528D01*
X-486896Y-1588058D01*
X-486207Y-1588650D01*
X-485902Y-1588773D01*
X-485636Y-1588964D01*
X-484767Y-1589232D01*
X-483925Y-1589572D01*
X-483513Y-1589618D01*
X-483284Y-1589688D01*
X-482958Y-1589680D01*
X-482247Y-1589759D01*
X-308037Y-1589759D01*
X-307330Y-1589644D01*
G37*
G36*
X-930172Y656758D02*
X-930172Y656758D01*
X-929658Y656771D01*
X-928978Y657019D01*
X-928271Y657174D01*
X-927830Y657438D01*
X-927347Y657614D01*
X-926781Y658067D01*
X-926160Y658438D01*
X-925678Y658948D01*
X-925424Y659150D01*
X-925293Y659355D01*
X-924999Y659665D01*
X-842890Y768395D01*
X-687345Y910193D01*
X-508397Y1020993D01*
X-438511Y1048067D01*
X-437592Y1048608D01*
X-436659Y1049101D01*
X-436540Y1049227D01*
X-436390Y1049315D01*
X-435695Y1050116D01*
X-434964Y1050885D01*
X-434891Y1051043D01*
X-434777Y1051174D01*
X-434374Y1052155D01*
X-433927Y1053116D01*
X-433907Y1053288D01*
X-433841Y1053450D01*
X-433771Y1054510D01*
X-433654Y1055562D01*
X-433691Y1055731D01*
X-433679Y1055905D01*
X-433951Y1056932D01*
X-434175Y1057967D01*
X-434264Y1058116D01*
X-434308Y1058284D01*
X-434893Y1059170D01*
X-435435Y1060080D01*
X-435567Y1060193D01*
X-435663Y1060338D01*
X-436496Y1060990D01*
X-437303Y1061682D01*
X-437465Y1061748D01*
X-437602Y1061854D01*
X-438599Y1062206D01*
X-439585Y1062604D01*
X-439796Y1062628D01*
X-439922Y1062673D01*
X-440237Y1062677D01*
X-441263Y1062792D01*
X-627413Y1062792D01*
X-628308Y1062645D01*
X-629216Y1062575D01*
X-629518Y1062447D01*
X-629841Y1062394D01*
X-630644Y1061970D01*
X-631481Y1061614D01*
X-631806Y1061355D01*
X-632017Y1061243D01*
X-632241Y1061007D01*
X-632801Y1060560D01*
X-854121Y839239D01*
X-943964Y839239D01*
X-944860Y839093D01*
X-945766Y839023D01*
X-946068Y838895D01*
X-946392Y838842D01*
X-947193Y838418D01*
X-948032Y838063D01*
X-948358Y837802D01*
X-948568Y837691D01*
X-948792Y837456D01*
X-949351Y837008D01*
X-950692Y835668D01*
X-951110Y835087D01*
X-951603Y834567D01*
X-951823Y834093D01*
X-952128Y833670D01*
X-952339Y832986D01*
X-952641Y832336D01*
X-952699Y831817D01*
X-952853Y831318D01*
X-952834Y830603D01*
X-952914Y829890D01*
X-952803Y829380D01*
X-952790Y828858D01*
X-952544Y828185D01*
X-952393Y827485D01*
X-952126Y827037D01*
X-951947Y826547D01*
X-951499Y825987D01*
X-951133Y825372D01*
X-950736Y825032D01*
X-950410Y824624D01*
X-949809Y824237D01*
X-949264Y823770D01*
X-948779Y823574D01*
X-948342Y823292D01*
X-947647Y823116D01*
X-946983Y822848D01*
X-946273Y822768D01*
X-945956Y822688D01*
X-945718Y822707D01*
X-945304Y822660D01*
X-905258Y822660D01*
X-877339Y794741D01*
X-877339Y755258D01*
X-905258Y727339D01*
X-939739Y727339D01*
X-940446Y727224D01*
X-941161Y727205D01*
X-941652Y727026D01*
X-942167Y726942D01*
X-942800Y726607D01*
X-943473Y726362D01*
X-943881Y726035D01*
X-944343Y725791D01*
X-944835Y725273D01*
X-945395Y724825D01*
X-945678Y724386D01*
X-946038Y724008D01*
X-946339Y723359D01*
X-946727Y722756D01*
X-946855Y722249D01*
X-947075Y721776D01*
X-947155Y721066D01*
X-947330Y720371D01*
X-947290Y719850D01*
X-947348Y719331D01*
X-947197Y718630D01*
X-947142Y717917D01*
X-946938Y717437D01*
X-946827Y716926D01*
X-946460Y716311D01*
X-946181Y715652D01*
X-945734Y715093D01*
X-945567Y714812D01*
X-945386Y714657D01*
X-945126Y714332D01*
X-939599Y708806D01*
X-939599Y665158D01*
X-939453Y664263D01*
X-939383Y663356D01*
X-939255Y663053D01*
X-939202Y662729D01*
X-938778Y661928D01*
X-938423Y661090D01*
X-938163Y660764D01*
X-938051Y660554D01*
X-937815Y660330D01*
X-937369Y659771D01*
X-936468Y658870D01*
X-935880Y658447D01*
X-935354Y657949D01*
X-934888Y657733D01*
X-934470Y657433D01*
X-933778Y657220D01*
X-933121Y656916D01*
X-932610Y656860D01*
X-932118Y656708D01*
X-931396Y656727D01*
X-930675Y656648D01*
X-930172Y656758D01*
G37*
%LPC*%
G36*
X1378119Y514999D02*
X1378119Y514999D01*
X1337690Y531746D01*
X1306746Y562690D01*
X1289999Y603119D01*
X1289999Y646880D01*
X1306746Y687310D01*
X1337690Y718254D01*
X1378119Y735000D01*
X1421880Y735000D01*
X1462310Y718254D01*
X1493254Y687310D01*
X1510000Y646880D01*
X1510000Y603119D01*
X1493254Y562690D01*
X1462310Y531746D01*
X1421880Y514999D01*
X1378119Y514999D01*
G37*
%LPD*%
%LPC*%
G36*
X1103119Y514999D02*
X1103119Y514999D01*
X1062690Y531746D01*
X1031746Y562690D01*
X1014999Y603119D01*
X1014999Y646880D01*
X1031746Y687310D01*
X1062690Y718254D01*
X1103119Y735000D01*
X1146880Y735000D01*
X1187310Y718254D01*
X1218254Y687310D01*
X1235000Y646880D01*
X1235000Y603119D01*
X1218254Y562690D01*
X1187310Y531746D01*
X1146880Y514999D01*
X1103119Y514999D01*
G37*
%LPD*%
%LPC*%
G36*
X-1190741Y-440660D02*
X-1190741Y-440660D01*
X-1218660Y-412741D01*
X-1218660Y-373258D01*
X-1214289Y-368888D01*
X-1214174Y-368727D01*
X-1214021Y-368605D01*
X-1213461Y-367735D01*
X-1212853Y-366889D01*
X-1212795Y-366701D01*
X-1212689Y-366536D01*
X-1212435Y-365533D01*
X-1212129Y-364538D01*
X-1212134Y-364341D01*
X-1212086Y-364150D01*
X-1212165Y-363113D01*
X-1212192Y-362078D01*
X-1212259Y-361894D01*
X-1212274Y-361697D01*
X-1212680Y-360739D01*
X-1213035Y-359766D01*
X-1213158Y-359612D01*
X-1213235Y-359431D01*
X-1214289Y-358112D01*
X-1238660Y-333741D01*
X-1238660Y-294259D01*
X-1237790Y-293388D01*
X-1237674Y-293228D01*
X-1237521Y-293105D01*
X-1236975Y-292257D01*
X-1236943Y-292223D01*
X-1236925Y-292186D01*
X-1236353Y-291390D01*
X-1236295Y-291201D01*
X-1236189Y-291036D01*
X-1235949Y-290086D01*
X-1235905Y-289992D01*
X-1235895Y-289902D01*
X-1235629Y-289038D01*
X-1235634Y-288841D01*
X-1235586Y-288651D01*
X-1235655Y-287749D01*
X-1235632Y-287546D01*
X-1235672Y-287365D01*
X-1235692Y-286578D01*
X-1235759Y-286393D01*
X-1235774Y-286197D01*
X-1236081Y-285473D01*
X-1236153Y-285141D01*
X-1236315Y-284869D01*
X-1236535Y-284267D01*
X-1236658Y-284113D01*
X-1236735Y-283932D01*
X-1237285Y-283244D01*
X-1237413Y-283028D01*
X-1237553Y-282908D01*
X-1237789Y-282612D01*
X-1262660Y-257741D01*
X-1262660Y-218258D01*
X-1234741Y-190339D01*
X-1195258Y-190339D01*
X-1167339Y-218258D01*
X-1167339Y-257741D01*
X-1168210Y-258612D01*
X-1168325Y-258773D01*
X-1168478Y-258895D01*
X-1169038Y-259765D01*
X-1169647Y-260611D01*
X-1169705Y-260799D01*
X-1169811Y-260964D01*
X-1170064Y-261967D01*
X-1170371Y-262962D01*
X-1170366Y-263159D01*
X-1170414Y-263349D01*
X-1170334Y-264387D01*
X-1170308Y-265422D01*
X-1170241Y-265606D01*
X-1170226Y-265803D01*
X-1169819Y-266761D01*
X-1169464Y-267734D01*
X-1169342Y-267888D01*
X-1169265Y-268068D01*
X-1168210Y-269388D01*
X-1143339Y-294258D01*
X-1143339Y-333742D01*
X-1147710Y-338112D01*
X-1147825Y-338272D01*
X-1147978Y-338394D01*
X-1148540Y-339267D01*
X-1149146Y-340110D01*
X-1149204Y-340298D01*
X-1149311Y-340463D01*
X-1149565Y-341469D01*
X-1149871Y-342462D01*
X-1149866Y-342659D01*
X-1149914Y-342849D01*
X-1149835Y-343883D01*
X-1149808Y-344922D01*
X-1149741Y-345107D01*
X-1149726Y-345303D01*
X-1149321Y-346257D01*
X-1148964Y-347233D01*
X-1148841Y-347387D01*
X-1148765Y-347568D01*
X-1147710Y-348888D01*
X-1123339Y-373258D01*
X-1123339Y-412741D01*
X-1151258Y-440660D01*
X-1190741Y-440660D01*
G37*
%LPD*%
%LPC*%
G36*
X-1590741Y-542660D02*
X-1590741Y-542660D01*
X-1618660Y-514741D01*
X-1618660Y-475258D01*
X-1616289Y-472888D01*
X-1616174Y-472727D01*
X-1616021Y-472605D01*
X-1615461Y-471735D01*
X-1614853Y-470889D01*
X-1614795Y-470701D01*
X-1614689Y-470536D01*
X-1614435Y-469533D01*
X-1614129Y-468538D01*
X-1614134Y-468341D01*
X-1614086Y-468150D01*
X-1614165Y-467113D01*
X-1614192Y-466078D01*
X-1614259Y-465894D01*
X-1614274Y-465697D01*
X-1614680Y-464739D01*
X-1615035Y-463766D01*
X-1615158Y-463612D01*
X-1615235Y-463431D01*
X-1616289Y-462112D01*
X-1640660Y-437741D01*
X-1640660Y-398258D01*
X-1637290Y-394888D01*
X-1637175Y-394728D01*
X-1637021Y-394605D01*
X-1636460Y-393733D01*
X-1635853Y-392890D01*
X-1635795Y-392702D01*
X-1635689Y-392536D01*
X-1635435Y-391532D01*
X-1635129Y-390538D01*
X-1635134Y-390341D01*
X-1635086Y-390151D01*
X-1635165Y-389117D01*
X-1635192Y-388078D01*
X-1635259Y-387893D01*
X-1635274Y-387697D01*
X-1635679Y-386742D01*
X-1636035Y-385766D01*
X-1636158Y-385613D01*
X-1636235Y-385432D01*
X-1637289Y-384112D01*
X-1660660Y-360741D01*
X-1660660Y-321258D01*
X-1632741Y-293339D01*
X-1593258Y-293339D01*
X-1565339Y-321258D01*
X-1565339Y-360741D01*
X-1568710Y-364112D01*
X-1568825Y-364273D01*
X-1568978Y-364395D01*
X-1569538Y-365265D01*
X-1570147Y-366111D01*
X-1570205Y-366299D01*
X-1570311Y-366464D01*
X-1570564Y-367467D01*
X-1570871Y-368462D01*
X-1570866Y-368659D01*
X-1570914Y-368849D01*
X-1570834Y-369887D01*
X-1570808Y-370922D01*
X-1570741Y-371106D01*
X-1570726Y-371303D01*
X-1570319Y-372261D01*
X-1569964Y-373234D01*
X-1569842Y-373388D01*
X-1569765Y-373568D01*
X-1568710Y-374888D01*
X-1545339Y-398258D01*
X-1545339Y-437742D01*
X-1547710Y-440112D01*
X-1547825Y-440272D01*
X-1547978Y-440394D01*
X-1548540Y-441267D01*
X-1549146Y-442110D01*
X-1549204Y-442298D01*
X-1549311Y-442463D01*
X-1549565Y-443468D01*
X-1549871Y-444462D01*
X-1549866Y-444659D01*
X-1549914Y-444849D01*
X-1549835Y-445883D01*
X-1549808Y-446922D01*
X-1549741Y-447106D01*
X-1549726Y-447303D01*
X-1549320Y-448258D01*
X-1548964Y-449233D01*
X-1548841Y-449388D01*
X-1548765Y-449568D01*
X-1547710Y-450888D01*
X-1523339Y-475258D01*
X-1523339Y-514741D01*
X-1551258Y-542660D01*
X-1590741Y-542660D01*
G37*
%LPD*%
%LPC*%
G36*
X280258Y1552339D02*
X280258Y1552339D01*
X252339Y1580258D01*
X252339Y1619741D01*
X280258Y1647660D01*
X319741Y1647660D01*
X347660Y1619741D01*
X347660Y1580258D01*
X319741Y1552339D01*
X280258Y1552339D01*
G37*
%LPD*%
%LPC*%
G36*
X-944741Y952339D02*
X-944741Y952339D01*
X-972660Y980258D01*
X-972660Y1019741D01*
X-944741Y1047660D01*
X-905258Y1047660D01*
X-877339Y1019741D01*
X-877339Y980258D01*
X-905258Y952339D01*
X-944741Y952339D01*
G37*
%LPD*%
%LPC*%
G36*
X1630258Y-147660D02*
X1630258Y-147660D01*
X1602339Y-119741D01*
X1602339Y-80258D01*
X1630258Y-52339D01*
X1669741Y-52339D01*
X1697660Y-80258D01*
X1697660Y-119741D01*
X1669741Y-147660D01*
X1630258Y-147660D01*
G37*
%LPD*%
%LPC*%
G36*
X-1619741Y-197660D02*
X-1619741Y-197660D01*
X-1647660Y-169741D01*
X-1647660Y-130258D01*
X-1619741Y-102339D01*
X-1580258Y-102339D01*
X-1552339Y-130258D01*
X-1552339Y-169741D01*
X-1580258Y-197660D01*
X-1619741Y-197660D01*
G37*
%LPD*%
%LPC*%
G36*
X-1494741Y-647660D02*
X-1494741Y-647660D01*
X-1522660Y-619741D01*
X-1522660Y-580258D01*
X-1494741Y-552339D01*
X-1455258Y-552339D01*
X-1427339Y-580258D01*
X-1427339Y-619741D01*
X-1455258Y-647660D01*
X-1494741Y-647660D01*
G37*
%LPD*%
%LPC*%
G36*
X-1194741Y-797660D02*
X-1194741Y-797660D01*
X-1222660Y-769741D01*
X-1222660Y-730258D01*
X-1194741Y-702339D01*
X-1155258Y-702339D01*
X-1127339Y-730258D01*
X-1127339Y-769741D01*
X-1155258Y-797660D01*
X-1194741Y-797660D01*
G37*
%LPD*%
%LPC*%
G36*
X-794741Y-1397660D02*
X-794741Y-1397660D01*
X-822660Y-1369741D01*
X-822660Y-1330258D01*
X-794741Y-1302339D01*
X-755258Y-1302339D01*
X-727339Y-1330258D01*
X-727339Y-1369741D01*
X-755258Y-1397660D01*
X-794741Y-1397660D01*
G37*
%LPD*%
%LPC*%
G36*
X-434761Y1265239D02*
X-434761Y1265239D01*
X-434761Y1364425D01*
X-422978Y1362559D01*
X-405701Y1356946D01*
X-389515Y1348698D01*
X-374823Y1338024D01*
X-361976Y1325177D01*
X-351301Y1310484D01*
X-343054Y1294298D01*
X-337441Y1277022D01*
X-335574Y1265239D01*
X-434761Y1265239D01*
G37*
%LPD*%
D10*
X1793375Y-42625D02*
X1793375Y57375D01*
D11*
X-1806625Y7375D02*
X-1806083Y51549D01*
X-1804457Y95697D01*
X-1801748Y139791D01*
X-1797958Y183806D01*
X-1793088Y227714D01*
X-1787143Y271490D01*
X-1780125Y315106D01*
X-1772039Y358538D01*
X-1762889Y401757D01*
X-1752681Y444739D01*
X-1741422Y487458D01*
X-1729118Y529887D01*
X-1715776Y572002D01*
X-1701404Y613777D01*
X-1686012Y655186D01*
X-1669608Y696205D01*
X-1652203Y736809D01*
X-1633806Y776974D01*
X-1614429Y816675D01*
X-1594083Y855889D01*
X-1572782Y894592D01*
X-1550536Y932760D01*
X-1527361Y970371D01*
X-1503270Y1007401D01*
X-1478278Y1043830D01*
X-1452399Y1079634D01*
X-1425649Y1114792D01*
X-1398044Y1149283D01*
X-1369601Y1183086D01*
X-1340337Y1216181D01*
X-1310270Y1248548D01*
X-1279417Y1280167D01*
X-1247798Y1311020D01*
X-1215431Y1341087D01*
X-1182336Y1370351D01*
X-1148533Y1398794D01*
X-1114042Y1426399D01*
X-1078884Y1453149D01*
X-1043080Y1479028D01*
X-1006651Y1504020D01*
X-969621Y1528111D01*
X-932010Y1551286D01*
X-893842Y1573532D01*
X-855139Y1594833D01*
X-815925Y1615179D01*
X-776224Y1634556D01*
X-736059Y1652953D01*
X-695455Y1670358D01*
X-654436Y1686762D01*
X-613027Y1702154D01*
X-571252Y1716526D01*
X-529137Y1729868D01*
X-486708Y1742172D01*
X-443989Y1753431D01*
X-401007Y1763639D01*
X-357788Y1772789D01*
X-314356Y1780875D01*
X-270740Y1787893D01*
X-226964Y1793838D01*
X-183056Y1798708D01*
X-139041Y1802498D01*
X-94947Y1805207D01*
X-50799Y1806833D01*
X-6625Y1807375D01*
X37549Y1806833D01*
X81697Y1805207D01*
X125791Y1802498D01*
X169806Y1798708D01*
X213714Y1793838D01*
X257490Y1787893D01*
X301106Y1780875D01*
X344538Y1772789D01*
X387757Y1763639D01*
X430739Y1753431D01*
X473458Y1742172D01*
X515887Y1729868D01*
X558002Y1716526D01*
X599777Y1702154D01*
X641186Y1686762D01*
X682205Y1670358D01*
X722809Y1652953D01*
X762974Y1634556D01*
X802675Y1615179D01*
X841889Y1594833D01*
X880592Y1573532D01*
X918760Y1551286D01*
X956371Y1528111D01*
X993401Y1504020D01*
X1029830Y1479028D01*
X1065634Y1453149D01*
X1100792Y1426399D01*
X1135283Y1398794D01*
X1169086Y1370351D01*
X1202181Y1341087D01*
X1234548Y1311020D01*
X1266167Y1280167D01*
X1297020Y1248548D01*
X1327087Y1216181D01*
X1356351Y1183086D01*
X1384794Y1149283D01*
X1412399Y1114792D01*
X1439149Y1079634D01*
X1465028Y1043830D01*
X1490020Y1007401D01*
X1514111Y970371D01*
X1537286Y932760D01*
X1559532Y894592D01*
X1580833Y855889D01*
X1601179Y816675D01*
X1620556Y776974D01*
X1638953Y736809D01*
X1656358Y696205D01*
X1672762Y655186D01*
X1688154Y613777D01*
X1702526Y572002D01*
X1715868Y529887D01*
X1728172Y487458D01*
X1739431Y444739D01*
X1749639Y401757D01*
X1758789Y358538D01*
X1766875Y315106D01*
X1773893Y271490D01*
X1779838Y227714D01*
X1784708Y183806D01*
X1788498Y139791D01*
X1791207Y95697D01*
X1792833Y51549D01*
X1793375Y7375D01*
X1792833Y-36799D01*
X1791207Y-80947D01*
X1788498Y-125041D01*
X1784708Y-169056D01*
X1779838Y-212964D01*
X1773893Y-256740D01*
X1766875Y-300356D01*
X1758789Y-343788D01*
X1749639Y-387007D01*
X1739431Y-429989D01*
X1728172Y-472708D01*
X1715868Y-515137D01*
X1702526Y-557252D01*
X1688154Y-599027D01*
X1672762Y-640436D01*
X1656358Y-681455D01*
X1638953Y-722059D01*
X1620556Y-762224D01*
X1601179Y-801925D01*
X1580833Y-841139D01*
X1559532Y-879842D01*
X1537286Y-918010D01*
X1514111Y-955621D01*
X1490020Y-992651D01*
X1465028Y-1029080D01*
X1439149Y-1064884D01*
X1412399Y-1100042D01*
X1384794Y-1134533D01*
X1356351Y-1168336D01*
X1327087Y-1201431D01*
X1297020Y-1233798D01*
X1266167Y-1265417D01*
X1234548Y-1296270D01*
X1202181Y-1326337D01*
X1169086Y-1355601D01*
X1135283Y-1384044D01*
X1100792Y-1411649D01*
X1065634Y-1438399D01*
X1029830Y-1464278D01*
X993401Y-1489270D01*
X956371Y-1513361D01*
X918760Y-1536536D01*
X880592Y-1558782D01*
X841889Y-1580083D01*
X802675Y-1600429D01*
X762974Y-1619806D01*
X722809Y-1638203D01*
X682205Y-1655608D01*
X641186Y-1672012D01*
X599777Y-1687404D01*
X558002Y-1701776D01*
X515887Y-1715118D01*
X473458Y-1727422D01*
X430739Y-1738681D01*
X387757Y-1748889D01*
X344538Y-1758039D01*
X301106Y-1766125D01*
X257490Y-1773143D01*
X213714Y-1779088D01*
X169806Y-1783958D01*
X125791Y-1787748D01*
X81697Y-1790457D01*
X37549Y-1792083D01*
X-6625Y-1792625D01*
X-50799Y-1792083D01*
X-94947Y-1790457D01*
X-139041Y-1787748D01*
X-183056Y-1783958D01*
X-226964Y-1779088D01*
X-270740Y-1773143D01*
X-314356Y-1766125D01*
X-357788Y-1758039D01*
X-401007Y-1748889D01*
X-443989Y-1738681D01*
X-486708Y-1727422D01*
X-529137Y-1715118D01*
X-571252Y-1701776D01*
X-613027Y-1687404D01*
X-654436Y-1672012D01*
X-695455Y-1655608D01*
X-736059Y-1638203D01*
X-776224Y-1619806D01*
X-815925Y-1600429D01*
X-855139Y-1580083D01*
X-893842Y-1558782D01*
X-932010Y-1536536D01*
X-969621Y-1513361D01*
X-1006651Y-1489270D01*
X-1043080Y-1464278D01*
X-1078884Y-1438399D01*
X-1114042Y-1411649D01*
X-1148533Y-1384044D01*
X-1182336Y-1355601D01*
X-1215431Y-1326337D01*
X-1247798Y-1296270D01*
X-1279417Y-1265417D01*
X-1310270Y-1233798D01*
X-1340337Y-1201431D01*
X-1369601Y-1168336D01*
X-1398044Y-1134533D01*
X-1425649Y-1100042D01*
X-1452399Y-1064884D01*
X-1478278Y-1029080D01*
X-1503270Y-992651D01*
X-1527361Y-955621D01*
X-1550536Y-918010D01*
X-1572782Y-879842D01*
X-1594083Y-841139D01*
X-1614429Y-801925D01*
X-1633806Y-762224D01*
X-1652203Y-722059D01*
X-1669608Y-681455D01*
X-1686012Y-640436D01*
X-1701404Y-599027D01*
X-1715776Y-557252D01*
X-1729118Y-515137D01*
X-1741422Y-472708D01*
X-1752681Y-429989D01*
X-1762889Y-387007D01*
X-1772039Y-343788D01*
X-1780125Y-300356D01*
X-1787143Y-256740D01*
X-1793088Y-212964D01*
X-1797958Y-169056D01*
X-1801748Y-125041D01*
X-1804457Y-80947D01*
X-1806083Y-36799D01*
X-1806625Y7375D01*
X-1100000Y0D02*
X-1099669Y26995D01*
X-1098675Y53974D01*
X-1097020Y80921D01*
X-1094703Y107819D01*
X-1091727Y134652D01*
X-1088094Y161404D01*
X-1083805Y188058D01*
X-1078864Y214599D01*
X-1073272Y241011D01*
X-1067034Y267278D01*
X-1060154Y293384D01*
X-1052634Y319313D01*
X-1044481Y345050D01*
X-1035698Y370579D01*
X-1026292Y395885D01*
X-1016267Y420952D01*
X-1005631Y445765D01*
X-994388Y470311D01*
X-982547Y494572D01*
X-970113Y518536D01*
X-957096Y542188D01*
X-943501Y565513D01*
X-929339Y588497D01*
X-914617Y611127D01*
X-899343Y633389D01*
X-883528Y655269D01*
X-867181Y676755D01*
X-850311Y697833D01*
X-832930Y718490D01*
X-815046Y738715D01*
X-796672Y758495D01*
X-777817Y777817D01*
X-758495Y796672D01*
X-738715Y815046D01*
X-718490Y832930D01*
X-697833Y850311D01*
X-676755Y867181D01*
X-655269Y883528D01*
X-633389Y899343D01*
X-611127Y914617D01*
X-588497Y929339D01*
X-565513Y943501D01*
X-542188Y957096D01*
X-518536Y970113D01*
X-494572Y982547D01*
X-470311Y994388D01*
X-445765Y1005631D01*
X-420952Y1016267D01*
X-395885Y1026292D01*
X-370579Y1035698D01*
X-345050Y1044481D01*
X-319313Y1052634D01*
X-293384Y1060154D01*
X-267278Y1067034D01*
X-241011Y1073272D01*
X-214599Y1078864D01*
X-188058Y1083805D01*
X-161404Y1088094D01*
X-134652Y1091727D01*
X-107819Y1094703D01*
X-80921Y1097020D01*
X-53974Y1098675D01*
X-26995Y1099669D01*
X0Y1100000D01*
X26995Y1099669D01*
X53974Y1098675D01*
X80921Y1097020D01*
X107819Y1094703D01*
X134652Y1091727D01*
X161404Y1088094D01*
X188058Y1083805D01*
X214599Y1078864D01*
X241011Y1073272D01*
X267278Y1067034D01*
X293384Y1060154D01*
X319313Y1052634D01*
X345050Y1044481D01*
X370579Y1035698D01*
X395885Y1026292D01*
X420952Y1016267D01*
X445765Y1005631D01*
X470311Y994388D01*
X494572Y982547D01*
X518536Y970113D01*
X542188Y957096D01*
X565513Y943501D01*
X588497Y929339D01*
X611127Y914617D01*
X633389Y899343D01*
X655269Y883528D01*
X676755Y867181D01*
X697833Y850311D01*
X718490Y832930D01*
X738715Y815046D01*
X758495Y796672D01*
X777817Y777817D01*
X796672Y758495D01*
X815046Y738715D01*
X832930Y718490D01*
X850311Y697833D01*
X867181Y676755D01*
X883528Y655269D01*
X899343Y633389D01*
X914617Y611127D01*
X929339Y588497D01*
X943501Y565513D01*
X957096Y542188D01*
X970113Y518536D01*
X982547Y494572D01*
X994388Y470311D01*
X1005631Y445765D01*
X1016267Y420952D01*
X1026292Y395885D01*
X1035698Y370579D01*
X1044481Y345050D01*
X1052634Y319313D01*
X1060154Y293384D01*
X1067034Y267278D01*
X1073272Y241011D01*
X1078864Y214599D01*
X1083805Y188058D01*
X1088094Y161404D01*
X1091727Y134652D01*
X1094703Y107819D01*
X1097020Y80921D01*
X1098675Y53974D01*
X1099669Y26995D01*
X1100000Y0D01*
X1099669Y-26995D01*
X1098675Y-53974D01*
X1097020Y-80921D01*
X1094703Y-107819D01*
X1091727Y-134652D01*
X1088094Y-161404D01*
X1083805Y-188058D01*
X1078864Y-214599D01*
X1073272Y-241011D01*
X1067034Y-267278D01*
X1060154Y-293384D01*
X1052634Y-319313D01*
X1044481Y-345050D01*
X1035698Y-370579D01*
X1026292Y-395885D01*
X1016267Y-420952D01*
X1005631Y-445765D01*
X994388Y-470311D01*
X982547Y-494572D01*
X970113Y-518536D01*
X957096Y-542188D01*
X943501Y-565513D01*
X929339Y-588497D01*
X914617Y-611127D01*
X899343Y-633389D01*
X883528Y-655269D01*
X867181Y-676755D01*
X850311Y-697833D01*
X832930Y-718490D01*
X815046Y-738715D01*
X796672Y-758495D01*
X777817Y-777817D01*
X758495Y-796672D01*
X738715Y-815046D01*
X718490Y-832930D01*
X697833Y-850311D01*
X676755Y-867181D01*
X655269Y-883528D01*
X633389Y-899343D01*
X611127Y-914617D01*
X588497Y-929339D01*
X565513Y-943501D01*
X542188Y-957096D01*
X518536Y-970113D01*
X494572Y-982547D01*
X470311Y-994388D01*
X445765Y-1005631D01*
X420952Y-1016267D01*
X395885Y-1026292D01*
X370579Y-1035698D01*
X345050Y-1044481D01*
X319313Y-1052634D01*
X293384Y-1060154D01*
X267278Y-1067034D01*
X241011Y-1073272D01*
X214599Y-1078864D01*
X188058Y-1083805D01*
X161404Y-1088094D01*
X134652Y-1091727D01*
X107819Y-1094703D01*
X80921Y-1097020D01*
X53974Y-1098675D01*
X26995Y-1099669D01*
X0Y-1100000D01*
X-26995Y-1099669D01*
X-53974Y-1098675D01*
X-80921Y-1097020D01*
X-107819Y-1094703D01*
X-134652Y-1091727D01*
X-161404Y-1088094D01*
X-188058Y-1083805D01*
X-214599Y-1078864D01*
X-241011Y-1073272D01*
X-267278Y-1067034D01*
X-293384Y-1060154D01*
X-319313Y-1052634D01*
X-345050Y-1044481D01*
X-370579Y-1035698D01*
X-395885Y-1026292D01*
X-420952Y-1016267D01*
X-445765Y-1005631D01*
X-470311Y-994388D01*
X-494572Y-982547D01*
X-518536Y-970113D01*
X-542188Y-957096D01*
X-565513Y-943501D01*
X-588497Y-929339D01*
X-611127Y-914617D01*
X-633389Y-899343D01*
X-655269Y-883528D01*
X-676755Y-867181D01*
X-697833Y-850311D01*
X-718490Y-832930D01*
X-738715Y-815046D01*
X-758495Y-796672D01*
X-777817Y-777817D01*
X-796672Y-758495D01*
X-815046Y-738715D01*
X-832930Y-718490D01*
X-850311Y-697833D01*
X-867181Y-676755D01*
X-883528Y-655269D01*
X-899343Y-633389D01*
X-914617Y-611127D01*
X-929339Y-588497D01*
X-943501Y-565513D01*
X-957096Y-542188D01*
X-970113Y-518536D01*
X-982547Y-494572D01*
X-994388Y-470311D01*
X-1005631Y-445765D01*
X-1016267Y-420952D01*
X-1026292Y-395885D01*
X-1035698Y-370579D01*
X-1044481Y-345050D01*
X-1052634Y-319313D01*
X-1060154Y-293384D01*
X-1067034Y-267278D01*
X-1073272Y-241011D01*
X-1078864Y-214599D01*
X-1083805Y-188058D01*
X-1088094Y-161404D01*
X-1091727Y-134652D01*
X-1094703Y-107819D01*
X-1097020Y-80921D01*
X-1098675Y-53974D01*
X-1099669Y-26995D01*
X-1100000Y0D01*
D12*
X-625000Y1475000D03*
X-450000Y1250000D03*
X1125000Y625000D03*
X1400000Y625000D03*
D13*
X-475000Y-1100000D03*
X-925000Y1000000D03*
D14*
X-1250000Y225000D03*
D13*
X-1191000Y-314000D03*
X-1215000Y-238000D03*
X-1171000Y-393000D03*
X975000Y1175000D03*
X1375000Y-450000D03*
X0Y-1700000D03*
X900000Y-1125000D03*
X250000Y-1200000D03*
X-725000Y-1450000D03*
X-1375000Y-950000D03*
X0Y-1250000D03*
X1239800Y400D03*
X-1700000Y150000D03*
X1300000Y975000D03*
X50000Y1425000D03*
X-1025000Y-1100000D03*
X-475000Y-1525000D03*
X1625000Y-400000D03*
X-1400000Y-675000D03*
X0Y1650000D03*
X-1500000Y850000D03*
X-1050000Y-600000D03*
X1075000Y1300000D03*
X-1000000Y1275000D03*
X-700000Y950000D03*
X-1175000Y125000D03*
X-1175000Y-750000D03*
X-1600000Y-150000D03*
X-1593000Y-418000D03*
X-1613000Y-341000D03*
X-1571000Y-495000D03*
X1250000Y-250000D03*
X1281000Y-926000D03*
D15*
X1250000Y-895000D01*
X1250000Y-250000D01*
D13*
X-1410000Y660000D03*
X-1410000Y595000D03*
X-1410000Y725000D03*
X-1200000Y1075000D03*
X-1100000Y900000D03*
X-925000Y775000D03*
X-1475000Y-600000D03*
X-875000Y1375000D03*
X-1275000Y-1075000D03*
X700000Y-1425000D03*
D15*
X-650000Y-1225000D02*
X-1125000Y-1225000D01*
X-1275000Y-1075000D01*
X-650000Y-1225000D02*
X-450000Y-1425000D01*
X700000Y-1425000D01*
D13*
X850000Y-1425000D03*
X-1085000Y-1324000D03*
D16*
X825000Y-1425000D02*
X850000Y-1425000D01*
X825000Y-1425000D02*
X760000Y-1490000D01*
X462108Y-1490000D01*
X327108Y-1625000D01*
X-772948Y-1517948D02*
X-966896Y-1324000D01*
X-1085000Y-1324000D01*
X-500000Y-1625000D02*
X327108Y-1625000D01*
X-607052Y-1517948D02*
X-772948Y-1517948D01*
X-607052Y-1517948D02*
X-500000Y-1625000D01*
D13*
X-775000Y-1350000D03*
X-275000Y-1537000D03*
X-1250000Y-950000D03*
D15*
X-775000Y-950000D01*
D13*
X1650000Y100000D03*
D15*
X1500000Y-50000D01*
X-405600Y-1319400D02*
X-775000Y-950000D01*
X-405600Y-1319400D02*
X520000Y-1319400D01*
X1500000Y-550000D02*
X1500000Y-50000D01*
X1325000Y-1025000D02*
X814400Y-1025000D01*
X1325000Y-1025000D02*
X1375000Y-975000D01*
X814400Y-1025000D02*
X520000Y-1319400D01*
X1375000Y-975000D02*
X1375000Y-675000D01*
X1500000Y-550000D01*
D13*
X-1325000Y-825000D03*
D15*
X-1338900Y-475000D02*
X-1338900Y796100D01*
X-835000Y1300000D01*
D13*
X850000Y1350000D03*
D17*
X-616152Y1300000D02*
X-835000Y1300000D01*
X-616152Y1300000D02*
X-423492Y1492660D01*
X707340Y1492660D01*
X850000Y1350000D01*
X-1325000Y-488900D02*
X-1325000Y-825000D01*
X-1325000Y-488900D02*
X-1338900Y-475000D01*
D13*
X750000Y970000D03*
X-985000Y640000D03*
D18*
X-985000Y690000D01*
D19*
X-1025000Y730000D01*
X-1025000Y825000D01*
X-965760Y884240D01*
X-872761Y884240D01*
X-275000Y1200000D02*
X520000Y1200000D01*
X750000Y970000D01*
X-275000Y1200000D02*
X-367208Y1107792D01*
X-649209Y1107792D02*
X-872761Y884240D01*
X-649209Y1107792D02*
X-367208Y1107792D01*
D13*
X475000Y-1225000D03*
X275000Y-1550000D03*
X1175000Y-725000D03*
X1650000Y-100000D03*
X300000Y1600000D03*
M02*
