G04 EAGLE Gerber RS-274X export*
G75*
%MOMM*%
%FSLAX35Y35*%
%LPD*%
%INsolder_paste_bottom*%
%IPPOS*%
%AMOC8*
5,1,8,0,0,1.08239X$1,22.5*%
G01*
%ADD10C,0.010000*%
%ADD11C,0.050000*%
%ADD12R,0.700000X0.900000*%
%ADD13R,1.400000X1.400000*%
%ADD14R,2.500000X2.500000*%
%ADD15R,0.300000X0.750000*%
%ADD16R,0.750000X0.300000*%
%ADD17R,2.400000X1.500000*%
%ADD18R,0.350000X0.650000*%
%ADD19R,1.300000X1.500000*%
%ADD20R,1.500000X1.500000*%
%ADD21R,0.250000X0.800000*%
%ADD22R,0.800000X0.250000*%
%ADD23R,0.550000X0.250000*%
%ADD24R,0.250000X0.550000*%
%ADD25R,0.400000X2.000000*%
%ADD26R,0.700000X0.600000*%
%ADD27R,0.700000X0.300000*%
%ADD28R,1.000000X0.600000*%
%ADD29R,3.000000X1.700000*%
%ADD30R,2.300000X1.500000*%
%ADD31R,0.460000X0.710000*%
%ADD32R,1.000000X1.100000*%
%ADD33R,0.900000X0.700000*%
%ADD34R,0.600000X0.700000*%
%ADD35R,1.200000X0.600000*%
%ADD36R,0.650000X0.300000*%
%ADD37R,0.950000X1.500000*%
%ADD38R,0.300000X0.450000*%
%ADD39R,0.230000X0.870000*%
%ADD40R,1.800000X2.700000*%
%ADD41R,1.600000X1.800000*%


D10*
X1793375Y-42625D02*
X1793375Y57375D01*
D11*
X-1806625Y7375D02*
X-1806083Y51549D01*
X-1804457Y95697D01*
X-1801748Y139791D01*
X-1797958Y183806D01*
X-1793088Y227714D01*
X-1787143Y271490D01*
X-1780125Y315106D01*
X-1772039Y358538D01*
X-1762889Y401757D01*
X-1752681Y444739D01*
X-1741422Y487458D01*
X-1729118Y529887D01*
X-1715776Y572002D01*
X-1701404Y613777D01*
X-1686012Y655186D01*
X-1669608Y696205D01*
X-1652203Y736809D01*
X-1633806Y776974D01*
X-1614429Y816675D01*
X-1594083Y855889D01*
X-1572782Y894592D01*
X-1550536Y932760D01*
X-1527361Y970371D01*
X-1503270Y1007401D01*
X-1478278Y1043830D01*
X-1452399Y1079634D01*
X-1425649Y1114792D01*
X-1398044Y1149283D01*
X-1369601Y1183086D01*
X-1340337Y1216181D01*
X-1310270Y1248548D01*
X-1279417Y1280167D01*
X-1247798Y1311020D01*
X-1215431Y1341087D01*
X-1182336Y1370351D01*
X-1148533Y1398794D01*
X-1114042Y1426399D01*
X-1078884Y1453149D01*
X-1043080Y1479028D01*
X-1006651Y1504020D01*
X-969621Y1528111D01*
X-932010Y1551286D01*
X-893842Y1573532D01*
X-855139Y1594833D01*
X-815925Y1615179D01*
X-776224Y1634556D01*
X-736059Y1652953D01*
X-695455Y1670358D01*
X-654436Y1686762D01*
X-613027Y1702154D01*
X-571252Y1716526D01*
X-529137Y1729868D01*
X-486708Y1742172D01*
X-443989Y1753431D01*
X-401007Y1763639D01*
X-357788Y1772789D01*
X-314356Y1780875D01*
X-270740Y1787893D01*
X-226964Y1793838D01*
X-183056Y1798708D01*
X-139041Y1802498D01*
X-94947Y1805207D01*
X-50799Y1806833D01*
X-6625Y1807375D01*
X37549Y1806833D01*
X81697Y1805207D01*
X125791Y1802498D01*
X169806Y1798708D01*
X213714Y1793838D01*
X257490Y1787893D01*
X301106Y1780875D01*
X344538Y1772789D01*
X387757Y1763639D01*
X430739Y1753431D01*
X473458Y1742172D01*
X515887Y1729868D01*
X558002Y1716526D01*
X599777Y1702154D01*
X641186Y1686762D01*
X682205Y1670358D01*
X722809Y1652953D01*
X762974Y1634556D01*
X802675Y1615179D01*
X841889Y1594833D01*
X880592Y1573532D01*
X918760Y1551286D01*
X956371Y1528111D01*
X993401Y1504020D01*
X1029830Y1479028D01*
X1065634Y1453149D01*
X1100792Y1426399D01*
X1135283Y1398794D01*
X1169086Y1370351D01*
X1202181Y1341087D01*
X1234548Y1311020D01*
X1266167Y1280167D01*
X1297020Y1248548D01*
X1327087Y1216181D01*
X1356351Y1183086D01*
X1384794Y1149283D01*
X1412399Y1114792D01*
X1439149Y1079634D01*
X1465028Y1043830D01*
X1490020Y1007401D01*
X1514111Y970371D01*
X1537286Y932760D01*
X1559532Y894592D01*
X1580833Y855889D01*
X1601179Y816675D01*
X1620556Y776974D01*
X1638953Y736809D01*
X1656358Y696205D01*
X1672762Y655186D01*
X1688154Y613777D01*
X1702526Y572002D01*
X1715868Y529887D01*
X1728172Y487458D01*
X1739431Y444739D01*
X1749639Y401757D01*
X1758789Y358538D01*
X1766875Y315106D01*
X1773893Y271490D01*
X1779838Y227714D01*
X1784708Y183806D01*
X1788498Y139791D01*
X1791207Y95697D01*
X1792833Y51549D01*
X1793375Y7375D01*
X1792833Y-36799D01*
X1791207Y-80947D01*
X1788498Y-125041D01*
X1784708Y-169056D01*
X1779838Y-212964D01*
X1773893Y-256740D01*
X1766875Y-300356D01*
X1758789Y-343788D01*
X1749639Y-387007D01*
X1739431Y-429989D01*
X1728172Y-472708D01*
X1715868Y-515137D01*
X1702526Y-557252D01*
X1688154Y-599027D01*
X1672762Y-640436D01*
X1656358Y-681455D01*
X1638953Y-722059D01*
X1620556Y-762224D01*
X1601179Y-801925D01*
X1580833Y-841139D01*
X1559532Y-879842D01*
X1537286Y-918010D01*
X1514111Y-955621D01*
X1490020Y-992651D01*
X1465028Y-1029080D01*
X1439149Y-1064884D01*
X1412399Y-1100042D01*
X1384794Y-1134533D01*
X1356351Y-1168336D01*
X1327087Y-1201431D01*
X1297020Y-1233798D01*
X1266167Y-1265417D01*
X1234548Y-1296270D01*
X1202181Y-1326337D01*
X1169086Y-1355601D01*
X1135283Y-1384044D01*
X1100792Y-1411649D01*
X1065634Y-1438399D01*
X1029830Y-1464278D01*
X993401Y-1489270D01*
X956371Y-1513361D01*
X918760Y-1536536D01*
X880592Y-1558782D01*
X841889Y-1580083D01*
X802675Y-1600429D01*
X762974Y-1619806D01*
X722809Y-1638203D01*
X682205Y-1655608D01*
X641186Y-1672012D01*
X599777Y-1687404D01*
X558002Y-1701776D01*
X515887Y-1715118D01*
X473458Y-1727422D01*
X430739Y-1738681D01*
X387757Y-1748889D01*
X344538Y-1758039D01*
X301106Y-1766125D01*
X257490Y-1773143D01*
X213714Y-1779088D01*
X169806Y-1783958D01*
X125791Y-1787748D01*
X81697Y-1790457D01*
X37549Y-1792083D01*
X-6625Y-1792625D01*
X-50799Y-1792083D01*
X-94947Y-1790457D01*
X-139041Y-1787748D01*
X-183056Y-1783958D01*
X-226964Y-1779088D01*
X-270740Y-1773143D01*
X-314356Y-1766125D01*
X-357788Y-1758039D01*
X-401007Y-1748889D01*
X-443989Y-1738681D01*
X-486708Y-1727422D01*
X-529137Y-1715118D01*
X-571252Y-1701776D01*
X-613027Y-1687404D01*
X-654436Y-1672012D01*
X-695455Y-1655608D01*
X-736059Y-1638203D01*
X-776224Y-1619806D01*
X-815925Y-1600429D01*
X-855139Y-1580083D01*
X-893842Y-1558782D01*
X-932010Y-1536536D01*
X-969621Y-1513361D01*
X-1006651Y-1489270D01*
X-1043080Y-1464278D01*
X-1078884Y-1438399D01*
X-1114042Y-1411649D01*
X-1148533Y-1384044D01*
X-1182336Y-1355601D01*
X-1215431Y-1326337D01*
X-1247798Y-1296270D01*
X-1279417Y-1265417D01*
X-1310270Y-1233798D01*
X-1340337Y-1201431D01*
X-1369601Y-1168336D01*
X-1398044Y-1134533D01*
X-1425649Y-1100042D01*
X-1452399Y-1064884D01*
X-1478278Y-1029080D01*
X-1503270Y-992651D01*
X-1527361Y-955621D01*
X-1550536Y-918010D01*
X-1572782Y-879842D01*
X-1594083Y-841139D01*
X-1614429Y-801925D01*
X-1633806Y-762224D01*
X-1652203Y-722059D01*
X-1669608Y-681455D01*
X-1686012Y-640436D01*
X-1701404Y-599027D01*
X-1715776Y-557252D01*
X-1729118Y-515137D01*
X-1741422Y-472708D01*
X-1752681Y-429989D01*
X-1762889Y-387007D01*
X-1772039Y-343788D01*
X-1780125Y-300356D01*
X-1787143Y-256740D01*
X-1793088Y-212964D01*
X-1797958Y-169056D01*
X-1801748Y-125041D01*
X-1804457Y-80947D01*
X-1806083Y-36799D01*
X-1806625Y7375D01*
X-1100000Y0D02*
X-1099669Y26995D01*
X-1098675Y53974D01*
X-1097020Y80921D01*
X-1094703Y107819D01*
X-1091727Y134652D01*
X-1088094Y161404D01*
X-1083805Y188058D01*
X-1078864Y214599D01*
X-1073272Y241011D01*
X-1067034Y267278D01*
X-1060154Y293384D01*
X-1052634Y319313D01*
X-1044481Y345050D01*
X-1035698Y370579D01*
X-1026292Y395885D01*
X-1016267Y420952D01*
X-1005631Y445765D01*
X-994388Y470311D01*
X-982547Y494572D01*
X-970113Y518536D01*
X-957096Y542188D01*
X-943501Y565513D01*
X-929339Y588497D01*
X-914617Y611127D01*
X-899343Y633389D01*
X-883528Y655269D01*
X-867181Y676755D01*
X-850311Y697833D01*
X-832930Y718490D01*
X-815046Y738715D01*
X-796672Y758495D01*
X-777817Y777817D01*
X-758495Y796672D01*
X-738715Y815046D01*
X-718490Y832930D01*
X-697833Y850311D01*
X-676755Y867181D01*
X-655269Y883528D01*
X-633389Y899343D01*
X-611127Y914617D01*
X-588497Y929339D01*
X-565513Y943501D01*
X-542188Y957096D01*
X-518536Y970113D01*
X-494572Y982547D01*
X-470311Y994388D01*
X-445765Y1005631D01*
X-420952Y1016267D01*
X-395885Y1026292D01*
X-370579Y1035698D01*
X-345050Y1044481D01*
X-319313Y1052634D01*
X-293384Y1060154D01*
X-267278Y1067034D01*
X-241011Y1073272D01*
X-214599Y1078864D01*
X-188058Y1083805D01*
X-161404Y1088094D01*
X-134652Y1091727D01*
X-107819Y1094703D01*
X-80921Y1097020D01*
X-53974Y1098675D01*
X-26995Y1099669D01*
X0Y1100000D01*
X26995Y1099669D01*
X53974Y1098675D01*
X80921Y1097020D01*
X107819Y1094703D01*
X134652Y1091727D01*
X161404Y1088094D01*
X188058Y1083805D01*
X214599Y1078864D01*
X241011Y1073272D01*
X267278Y1067034D01*
X293384Y1060154D01*
X319313Y1052634D01*
X345050Y1044481D01*
X370579Y1035698D01*
X395885Y1026292D01*
X420952Y1016267D01*
X445765Y1005631D01*
X470311Y994388D01*
X494572Y982547D01*
X518536Y970113D01*
X542188Y957096D01*
X565513Y943501D01*
X588497Y929339D01*
X611127Y914617D01*
X633389Y899343D01*
X655269Y883528D01*
X676755Y867181D01*
X697833Y850311D01*
X718490Y832930D01*
X738715Y815046D01*
X758495Y796672D01*
X777817Y777817D01*
X796672Y758495D01*
X815046Y738715D01*
X832930Y718490D01*
X850311Y697833D01*
X867181Y676755D01*
X883528Y655269D01*
X899343Y633389D01*
X914617Y611127D01*
X929339Y588497D01*
X943501Y565513D01*
X957096Y542188D01*
X970113Y518536D01*
X982547Y494572D01*
X994388Y470311D01*
X1005631Y445765D01*
X1016267Y420952D01*
X1026292Y395885D01*
X1035698Y370579D01*
X1044481Y345050D01*
X1052634Y319313D01*
X1060154Y293384D01*
X1067034Y267278D01*
X1073272Y241011D01*
X1078864Y214599D01*
X1083805Y188058D01*
X1088094Y161404D01*
X1091727Y134652D01*
X1094703Y107819D01*
X1097020Y80921D01*
X1098675Y53974D01*
X1099669Y26995D01*
X1100000Y0D01*
X1099669Y-26995D01*
X1098675Y-53974D01*
X1097020Y-80921D01*
X1094703Y-107819D01*
X1091727Y-134652D01*
X1088094Y-161404D01*
X1083805Y-188058D01*
X1078864Y-214599D01*
X1073272Y-241011D01*
X1067034Y-267278D01*
X1060154Y-293384D01*
X1052634Y-319313D01*
X1044481Y-345050D01*
X1035698Y-370579D01*
X1026292Y-395885D01*
X1016267Y-420952D01*
X1005631Y-445765D01*
X994388Y-470311D01*
X982547Y-494572D01*
X970113Y-518536D01*
X957096Y-542188D01*
X943501Y-565513D01*
X929339Y-588497D01*
X914617Y-611127D01*
X899343Y-633389D01*
X883528Y-655269D01*
X867181Y-676755D01*
X850311Y-697833D01*
X832930Y-718490D01*
X815046Y-738715D01*
X796672Y-758495D01*
X777817Y-777817D01*
X758495Y-796672D01*
X738715Y-815046D01*
X718490Y-832930D01*
X697833Y-850311D01*
X676755Y-867181D01*
X655269Y-883528D01*
X633389Y-899343D01*
X611127Y-914617D01*
X588497Y-929339D01*
X565513Y-943501D01*
X542188Y-957096D01*
X518536Y-970113D01*
X494572Y-982547D01*
X470311Y-994388D01*
X445765Y-1005631D01*
X420952Y-1016267D01*
X395885Y-1026292D01*
X370579Y-1035698D01*
X345050Y-1044481D01*
X319313Y-1052634D01*
X293384Y-1060154D01*
X267278Y-1067034D01*
X241011Y-1073272D01*
X214599Y-1078864D01*
X188058Y-1083805D01*
X161404Y-1088094D01*
X134652Y-1091727D01*
X107819Y-1094703D01*
X80921Y-1097020D01*
X53974Y-1098675D01*
X26995Y-1099669D01*
X0Y-1100000D01*
X-26995Y-1099669D01*
X-53974Y-1098675D01*
X-80921Y-1097020D01*
X-107819Y-1094703D01*
X-134652Y-1091727D01*
X-161404Y-1088094D01*
X-188058Y-1083805D01*
X-214599Y-1078864D01*
X-241011Y-1073272D01*
X-267278Y-1067034D01*
X-293384Y-1060154D01*
X-319313Y-1052634D01*
X-345050Y-1044481D01*
X-370579Y-1035698D01*
X-395885Y-1026292D01*
X-420952Y-1016267D01*
X-445765Y-1005631D01*
X-470311Y-994388D01*
X-494572Y-982547D01*
X-518536Y-970113D01*
X-542188Y-957096D01*
X-565513Y-943501D01*
X-588497Y-929339D01*
X-611127Y-914617D01*
X-633389Y-899343D01*
X-655269Y-883528D01*
X-676755Y-867181D01*
X-697833Y-850311D01*
X-718490Y-832930D01*
X-738715Y-815046D01*
X-758495Y-796672D01*
X-777817Y-777817D01*
X-796672Y-758495D01*
X-815046Y-738715D01*
X-832930Y-718490D01*
X-850311Y-697833D01*
X-867181Y-676755D01*
X-883528Y-655269D01*
X-899343Y-633389D01*
X-914617Y-611127D01*
X-929339Y-588497D01*
X-943501Y-565513D01*
X-957096Y-542188D01*
X-970113Y-518536D01*
X-982547Y-494572D01*
X-994388Y-470311D01*
X-1005631Y-445765D01*
X-1016267Y-420952D01*
X-1026292Y-395885D01*
X-1035698Y-370579D01*
X-1044481Y-345050D01*
X-1052634Y-319313D01*
X-1060154Y-293384D01*
X-1067034Y-267278D01*
X-1073272Y-241011D01*
X-1078864Y-214599D01*
X-1083805Y-188058D01*
X-1088094Y-161404D01*
X-1091727Y-134652D01*
X-1094703Y-107819D01*
X-1097020Y-80921D01*
X-1098675Y-53974D01*
X-1099669Y-26995D01*
X-1100000Y0D01*
D12*
X1240000Y-500000D03*
X1110000Y-500000D03*
X285000Y-1550000D03*
X415000Y-1550000D03*
X1240000Y-625000D03*
X1110000Y-625000D03*
D13*
X-1175000Y340000D03*
X-1175000Y720000D03*
D14*
X900000Y-1125000D03*
D15*
X1000000Y-925000D03*
X950000Y-925000D03*
X900000Y-925000D03*
X850000Y-925000D03*
X800000Y-925000D03*
X800000Y-1325000D03*
X850000Y-1325000D03*
X900000Y-1325000D03*
X950000Y-1325000D03*
X1000000Y-1325000D03*
D16*
X700000Y-1225000D03*
X700000Y-1175000D03*
X700000Y-1125000D03*
X700000Y-1075000D03*
X700000Y-1025000D03*
X1100000Y-1025000D03*
X1100000Y-1075000D03*
X1100000Y-1125000D03*
X1100000Y-1175000D03*
X1100000Y-1225000D03*
D17*
X1400000Y0D03*
D18*
X1497500Y-155000D03*
X1432500Y-155000D03*
X1367500Y-155000D03*
X1302500Y-155000D03*
X1497500Y155000D03*
X1432500Y155000D03*
X1367500Y155000D03*
X1302500Y155000D03*
D19*
X1205000Y425000D03*
X1395000Y425000D03*
D20*
X-1025000Y-1100000D03*
D21*
X-980000Y-960000D03*
X-1025000Y-960000D03*
X-1070000Y-960000D03*
X-980000Y-1240000D03*
X-1025000Y-1240000D03*
X-1070000Y-1240000D03*
D22*
X-1160000Y-1145000D03*
X-1160000Y-1100000D03*
X-1160000Y-1055000D03*
X-885000Y-1145000D03*
X-885000Y-1100000D03*
X-885000Y-1055000D03*
D23*
X-873000Y-1190000D03*
D24*
X-935000Y-1252000D03*
X-935000Y-948000D03*
D23*
X-873000Y-1010000D03*
D24*
X-1115000Y-948000D03*
X-1115000Y-1252000D03*
D23*
X-1173000Y-1190000D03*
X-1173000Y-1010000D03*
D25*
X-595000Y-1525000D03*
X-475000Y-1525000D03*
X-355000Y-1525000D03*
D26*
X1650000Y-50000D03*
X1650000Y50000D03*
D27*
X-127000Y-1425000D03*
X-127000Y-1375000D03*
X-127000Y-1325000D03*
X-127000Y-1475000D03*
X-127000Y-1525000D03*
X-127000Y-1275000D03*
D28*
X173000Y-1150000D03*
X173000Y-1650000D03*
D29*
G36*
X-699663Y1050712D02*
X-896875Y1276780D01*
X-768769Y1388534D01*
X-571557Y1162466D01*
X-699663Y1050712D01*
G37*
G36*
X-1031231Y761466D02*
X-1228443Y987534D01*
X-1100337Y1099288D01*
X-903125Y873220D01*
X-1031231Y761466D01*
G37*
D30*
X850000Y1175000D03*
D31*
X756000Y1323000D03*
X850000Y1323000D03*
X944000Y1323000D03*
X850000Y1027000D03*
X945000Y1027000D03*
X755000Y1027000D03*
D32*
X940000Y850000D03*
X1110000Y850000D03*
D33*
X600000Y1110000D03*
X600000Y1240000D03*
D34*
X775000Y1450000D03*
X675000Y1450000D03*
D33*
X-300000Y1490000D03*
X-300000Y1360000D03*
X200000Y1490000D03*
X200000Y1360000D03*
D35*
X-165000Y1425000D03*
X-165000Y1330000D03*
X-165000Y1520000D03*
X65000Y1520000D03*
X65000Y1330000D03*
D36*
X400000Y-1275000D03*
X400000Y-1325000D03*
X400000Y-1375000D03*
X400000Y-1425000D03*
X300000Y-1425000D03*
X300000Y-1375000D03*
X300000Y-1325000D03*
X300000Y-1275000D03*
D37*
X-1410000Y660000D03*
D38*
X-1377500Y757500D03*
X-1442500Y757500D03*
X-1377500Y562500D03*
X-1442500Y562500D03*
X-1538000Y757500D03*
X-1538000Y562500D03*
D39*
X-1541500Y660000D03*
D40*
G36*
X-1481917Y-534887D02*
X-1655863Y-581171D01*
X-1725289Y-320251D01*
X-1551343Y-273967D01*
X-1481917Y-534887D01*
G37*
G36*
X-1056712Y-421749D02*
X-1230658Y-468033D01*
X-1300084Y-207113D01*
X-1126138Y-160829D01*
X-1056712Y-421749D01*
G37*
D41*
X-1310000Y350000D03*
X-1590000Y350000D03*
D30*
X-1475000Y0D03*
D31*
X-1381000Y-148000D03*
X-1475000Y-148000D03*
X-1569000Y-148000D03*
X-1475000Y148000D03*
X-1570000Y148000D03*
X-1380000Y148000D03*
D26*
X-1700000Y-50000D03*
X-1700000Y50000D03*
D34*
X1075000Y-725000D03*
X975000Y-725000D03*
M02*
