G04 EAGLE Gerber RS-274X export*
G75*
%MOMM*%
%FSLAX35Y35*%
%LPD*%
%INcopper_bottom*%
%IPPOS*%
%AMOC8*
5,1,8,0,0,1.08239X$1,22.5*%
G01*
%ADD10C,0.010000*%
%ADD11C,0.050000*%
%ADD12R,0.700000X0.900000*%
%ADD13R,1.400000X1.400000*%
%ADD14R,2.500000X2.500000*%
%ADD15R,0.300000X0.750000*%
%ADD16R,0.750000X0.300000*%
%ADD17R,2.400000X1.500000*%
%ADD18R,0.350000X0.650000*%
%ADD19R,1.300000X1.500000*%
%ADD20R,1.500000X1.500000*%
%ADD21R,0.250000X0.800000*%
%ADD22R,0.800000X0.250000*%
%ADD23R,0.550000X0.250000*%
%ADD24R,0.250000X0.550000*%
%ADD25R,0.400000X2.000000*%
%ADD26R,1.000000X1.100000*%
%ADD27R,0.700000X0.300000*%
%ADD28R,1.000000X0.600000*%
%ADD29R,3.000000X1.700000*%
%ADD30R,2.300000X1.500000*%
%ADD31R,0.460000X0.710000*%
%ADD32R,0.900000X0.700000*%
%ADD33R,0.700000X0.600000*%
%ADD34C,2.540000*%
%ADD35R,1.200000X0.600000*%
%ADD36R,0.650000X0.300000*%
%ADD37R,0.950000X2.500000*%
%ADD38R,0.300000X1.770000*%
%ADD39R,0.300000X0.650000*%
%ADD40R,1.600000X2.700000*%
%ADD41C,1.016000*%
%ADD42C,1.800000*%
%ADD43C,1.500000*%
%ADD44R,0.600000X0.700000*%
%ADD45C,0.508000*%
%ADD46C,0.406400*%
%ADD47C,0.900000*%
%ADD48C,0.600000*%
%ADD49C,0.650000*%
%ADD50C,0.254000*%
%ADD51C,0.250000*%
%ADD52C,0.200000*%

G36*
X1309239Y-737225D02*
X1309239Y-737225D01*
X1309659Y-737244D01*
X1310336Y-737028D01*
X1311034Y-736903D01*
X1311396Y-736689D01*
X1311798Y-736561D01*
X1312527Y-736022D01*
X1312968Y-735762D01*
X1313101Y-735598D01*
X1313315Y-735440D01*
X1331415Y-717339D01*
X1331923Y-716609D01*
X1332484Y-715919D01*
X1332561Y-715692D01*
X1332697Y-715496D01*
X1332919Y-714635D01*
X1333204Y-713793D01*
X1333198Y-713554D01*
X1333257Y-713323D01*
X1333166Y-712437D01*
X1333140Y-711549D01*
X1333051Y-711328D01*
X1333026Y-711090D01*
X1332631Y-710290D01*
X1332299Y-709468D01*
X1332138Y-709292D01*
X1332032Y-709077D01*
X1331383Y-708463D01*
X1330786Y-707809D01*
X1330574Y-707700D01*
X1330400Y-707535D01*
X1329579Y-707187D01*
X1328791Y-706781D01*
X1328529Y-706741D01*
X1328333Y-706658D01*
X1327821Y-706635D01*
X1326925Y-706500D01*
X1303253Y-706500D01*
X1272499Y-675746D01*
X1272499Y-650092D01*
X1272425Y-649678D01*
X1272444Y-649258D01*
X1272228Y-648581D01*
X1272103Y-647883D01*
X1271889Y-647521D01*
X1271761Y-647120D01*
X1271222Y-646390D01*
X1270962Y-645949D01*
X1270798Y-645816D01*
X1270640Y-645603D01*
X1269999Y-644962D01*
X1269999Y-203414D01*
X1269925Y-203001D01*
X1269944Y-202580D01*
X1269728Y-201903D01*
X1269603Y-201205D01*
X1269389Y-200843D01*
X1269261Y-200442D01*
X1268722Y-199713D01*
X1268462Y-199272D01*
X1268298Y-199138D01*
X1268140Y-198925D01*
X1264999Y-195784D01*
X1264999Y-114215D01*
X1270906Y-108309D01*
X1271112Y-108013D01*
X1271383Y-107775D01*
X1271749Y-107097D01*
X1272188Y-106466D01*
X1272278Y-106118D01*
X1272449Y-105800D01*
X1272556Y-105038D01*
X1272748Y-104292D01*
X1272711Y-103933D01*
X1272761Y-103577D01*
X1272597Y-102826D01*
X1272517Y-102059D01*
X1272358Y-101735D01*
X1272280Y-101384D01*
X1271865Y-100737D01*
X1271523Y-100046D01*
X1271261Y-99799D01*
X1271067Y-99496D01*
X1270261Y-98854D01*
X1269891Y-98505D01*
X1269745Y-98443D01*
X1269591Y-98320D01*
X1264403Y-95325D01*
X1259675Y-90596D01*
X1256331Y-84804D01*
X1254599Y-78344D01*
X1254599Y-56944D01*
X1254463Y-56184D01*
X1254412Y-55413D01*
X1254266Y-55086D01*
X1254203Y-54735D01*
X1253810Y-54071D01*
X1253494Y-53364D01*
X1253243Y-53109D01*
X1253062Y-52802D01*
X1252462Y-52314D01*
X1251920Y-51763D01*
X1251597Y-51612D01*
X1251319Y-51386D01*
X1250587Y-51138D01*
X1249888Y-50810D01*
X1249532Y-50780D01*
X1249193Y-50665D01*
X1248420Y-50688D01*
X1247651Y-50623D01*
X1247259Y-50721D01*
X1246949Y-50730D01*
X1246512Y-50907D01*
X1245820Y-51078D01*
X1235690Y-55275D01*
X1227549Y-56894D01*
X1227549Y-8349D01*
X1277034Y-8349D01*
X1277115Y-8551D01*
X1277436Y-9469D01*
X1277534Y-9588D01*
X1277592Y-9731D01*
X1278246Y-10448D01*
X1278868Y-11199D01*
X1279002Y-11276D01*
X1279105Y-11390D01*
X1279966Y-11833D01*
X1280811Y-12322D01*
X1280964Y-12348D01*
X1281100Y-12418D01*
X1282966Y-12698D01*
X1393649Y-12698D01*
X1394294Y-12583D01*
X1394950Y-12564D01*
X1395391Y-12386D01*
X1395858Y-12302D01*
X1396423Y-11968D01*
X1397031Y-11723D01*
X1397382Y-11403D01*
X1397792Y-11161D01*
X1398205Y-10651D01*
X1398689Y-10210D01*
X1398907Y-9788D01*
X1399207Y-9418D01*
X1399418Y-8796D01*
X1399718Y-8214D01*
X1399799Y-7671D01*
X1399928Y-7292D01*
X1399916Y-6893D01*
X1399998Y-6349D01*
X1399998Y6349D01*
X1399882Y6994D01*
X1399863Y7650D01*
X1399685Y8091D01*
X1399601Y8558D01*
X1399268Y9123D01*
X1399022Y9731D01*
X1398702Y10082D01*
X1398460Y10492D01*
X1397951Y10906D01*
X1397509Y11390D01*
X1397088Y11607D01*
X1396718Y11908D01*
X1396095Y12118D01*
X1395514Y12418D01*
X1394970Y12500D01*
X1394592Y12628D01*
X1394193Y12617D01*
X1393649Y12698D01*
X1283050Y12698D01*
X1282405Y12583D01*
X1281749Y12564D01*
X1281308Y12386D01*
X1280840Y12302D01*
X1280276Y11968D01*
X1279668Y11723D01*
X1279317Y11403D01*
X1278907Y11161D01*
X1278493Y10651D01*
X1278009Y10210D01*
X1277792Y9788D01*
X1277491Y9418D01*
X1277400Y9149D01*
X1227549Y9149D01*
X1227549Y57694D01*
X1235690Y56075D01*
X1245820Y51878D01*
X1246574Y51714D01*
X1247307Y51465D01*
X1247664Y51476D01*
X1248013Y51399D01*
X1248779Y51508D01*
X1249551Y51530D01*
X1249882Y51663D01*
X1250236Y51713D01*
X1250917Y52082D01*
X1251632Y52371D01*
X1251895Y52611D01*
X1252211Y52782D01*
X1252721Y53364D01*
X1253291Y53884D01*
X1253454Y54201D01*
X1253690Y54470D01*
X1253966Y55193D01*
X1254319Y55879D01*
X1254379Y56278D01*
X1254489Y56568D01*
X1254493Y57039D01*
X1254599Y57744D01*
X1254599Y78344D01*
X1256331Y84804D01*
X1259675Y90596D01*
X1264403Y95325D01*
X1269591Y98320D01*
X1269867Y98553D01*
X1270190Y98713D01*
X1270718Y99272D01*
X1271306Y99769D01*
X1271483Y100083D01*
X1271731Y100345D01*
X1272032Y101053D01*
X1272410Y101724D01*
X1272467Y102080D01*
X1272608Y102411D01*
X1272643Y103180D01*
X1272765Y103940D01*
X1272694Y104293D01*
X1272711Y104654D01*
X1272476Y105388D01*
X1272326Y106142D01*
X1272137Y106448D01*
X1272027Y106792D01*
X1271414Y107622D01*
X1271148Y108053D01*
X1271023Y108151D01*
X1270906Y108309D01*
X1264999Y114215D01*
X1264999Y195784D01*
X1276715Y207500D01*
X1328450Y207500D01*
X1329095Y207616D01*
X1329751Y207635D01*
X1330192Y207813D01*
X1330659Y207897D01*
X1331224Y208231D01*
X1331832Y208476D01*
X1332183Y208796D01*
X1332593Y209038D01*
X1333007Y209548D01*
X1333491Y209989D01*
X1333708Y210411D01*
X1334008Y210781D01*
X1334219Y211403D01*
X1334519Y211984D01*
X1334601Y212528D01*
X1334729Y212907D01*
X1334718Y213306D01*
X1334799Y213850D01*
X1334799Y266325D01*
X1334726Y266735D01*
X1334745Y267152D01*
X1334529Y267832D01*
X1334403Y268534D01*
X1334191Y268893D01*
X1334064Y269291D01*
X1333637Y269870D01*
X1333563Y270036D01*
X1333446Y270155D01*
X1333262Y270468D01*
X1333100Y270599D01*
X1332945Y270809D01*
X1332814Y270941D01*
X1332369Y271251D01*
X1331989Y271638D01*
X1331593Y271823D01*
X1331519Y271883D01*
X1331408Y271921D01*
X1330972Y272225D01*
X1330447Y272361D01*
X1329957Y272591D01*
X1329371Y272639D01*
X1328799Y272788D01*
X1328259Y272732D01*
X1327719Y272777D01*
X1327033Y272607D01*
X1326566Y272559D01*
X1326286Y272421D01*
X1325889Y272322D01*
X1279241Y252999D01*
X1220759Y252999D01*
X1166731Y275379D01*
X1125379Y316731D01*
X1102999Y370759D01*
X1102999Y429241D01*
X1125379Y483269D01*
X1166731Y524621D01*
X1200680Y538683D01*
X1201133Y538973D01*
X1201632Y539175D01*
X1202070Y539575D01*
X1202569Y539895D01*
X1202893Y540326D01*
X1203291Y540688D01*
X1203562Y541214D01*
X1203919Y541689D01*
X1204073Y542205D01*
X1204319Y542683D01*
X1204425Y543388D01*
X1204560Y543840D01*
X1204539Y544149D01*
X1204599Y544549D01*
X1204599Y643805D01*
X1218140Y657346D01*
X1218380Y657692D01*
X1218691Y657975D01*
X1219015Y658605D01*
X1219422Y659189D01*
X1219527Y659597D01*
X1219719Y659970D01*
X1219853Y660864D01*
X1219982Y661363D01*
X1219960Y661573D01*
X1219999Y661835D01*
X1219999Y708284D01*
X1231715Y720000D01*
X1378284Y720000D01*
X1390000Y708284D01*
X1390000Y541715D01*
X1378284Y529999D01*
X1343219Y529999D01*
X1342345Y529843D01*
X1341459Y529751D01*
X1341244Y529645D01*
X1341009Y529603D01*
X1340245Y529152D01*
X1339446Y528757D01*
X1339281Y528583D01*
X1339076Y528462D01*
X1338516Y527773D01*
X1337904Y527125D01*
X1337811Y526904D01*
X1337660Y526719D01*
X1337375Y525876D01*
X1337028Y525058D01*
X1337017Y524820D01*
X1336940Y524593D01*
X1336965Y523703D01*
X1336924Y522816D01*
X1336997Y522588D01*
X1337004Y522349D01*
X1337337Y521526D01*
X1337608Y520678D01*
X1337766Y520463D01*
X1337845Y520268D01*
X1338190Y519890D01*
X1338729Y519160D01*
X1374621Y483269D01*
X1394134Y436160D01*
X1394614Y435412D01*
X1395037Y434629D01*
X1395217Y434472D01*
X1395346Y434271D01*
X1396058Y433735D01*
X1396726Y433150D01*
X1396948Y433065D01*
X1397140Y432921D01*
X1397992Y432667D01*
X1398823Y432351D01*
X1399062Y432348D01*
X1399291Y432280D01*
X1400179Y432339D01*
X1401068Y432331D01*
X1401293Y432413D01*
X1401531Y432428D01*
X1402342Y432792D01*
X1403179Y433094D01*
X1403362Y433249D01*
X1403580Y433346D01*
X1404213Y433969D01*
X1404893Y434544D01*
X1405030Y434771D01*
X1405181Y434920D01*
X1405399Y435385D01*
X1405866Y436160D01*
X1425379Y483269D01*
X1461271Y519160D01*
X1461779Y519891D01*
X1462339Y520581D01*
X1462416Y520807D01*
X1462553Y521003D01*
X1462775Y521865D01*
X1463060Y522707D01*
X1463053Y522946D01*
X1463113Y523177D01*
X1463021Y524063D01*
X1462996Y524951D01*
X1462906Y525172D01*
X1462882Y525410D01*
X1462487Y526209D01*
X1462154Y527032D01*
X1461994Y527208D01*
X1461888Y527423D01*
X1461238Y528037D01*
X1460642Y528691D01*
X1460430Y528800D01*
X1460256Y528964D01*
X1459434Y529313D01*
X1458646Y529719D01*
X1458384Y529758D01*
X1458189Y529841D01*
X1457676Y529865D01*
X1456781Y529999D01*
X1421715Y529999D01*
X1409999Y541715D01*
X1409999Y708284D01*
X1421715Y720000D01*
X1568284Y720000D01*
X1580664Y707621D01*
X1581420Y707095D01*
X1582139Y706522D01*
X1582336Y706458D01*
X1582507Y706339D01*
X1583401Y706108D01*
X1584273Y705823D01*
X1584479Y705830D01*
X1584681Y705778D01*
X1585598Y705873D01*
X1586516Y705909D01*
X1586707Y705988D01*
X1586913Y706010D01*
X1587738Y706417D01*
X1588588Y706770D01*
X1588740Y706912D01*
X1588926Y707003D01*
X1589559Y707673D01*
X1590232Y708300D01*
X1590325Y708485D01*
X1590468Y708636D01*
X1590828Y709484D01*
X1591241Y710305D01*
X1591263Y710511D01*
X1591345Y710702D01*
X1591387Y711623D01*
X1591488Y712536D01*
X1591439Y712760D01*
X1591448Y712945D01*
X1591291Y713435D01*
X1591084Y714378D01*
X1577638Y749535D01*
X1577435Y749870D01*
X1577244Y750374D01*
X1452695Y972297D01*
X1452447Y972598D01*
X1452184Y973070D01*
X1296650Y1174493D01*
X1296359Y1174756D01*
X1296032Y1175183D01*
X1112828Y1351813D01*
X1112503Y1352030D01*
X1112115Y1352406D01*
X905147Y1500479D01*
X904793Y1500647D01*
X904355Y1500963D01*
X678032Y1617323D01*
X677658Y1617438D01*
X677179Y1617686D01*
X667220Y1621083D01*
X666948Y1621125D01*
X666696Y1621238D01*
X665844Y1621293D01*
X665001Y1621421D01*
X664731Y1621365D01*
X664456Y1621383D01*
X663640Y1621139D01*
X662803Y1620966D01*
X662568Y1620819D01*
X662305Y1620740D01*
X661624Y1620227D01*
X660900Y1619773D01*
X660732Y1619555D01*
X660512Y1619389D01*
X660052Y1618670D01*
X659532Y1617994D01*
X659450Y1617730D01*
X659302Y1617498D01*
X659120Y1616664D01*
X658868Y1615849D01*
X658883Y1615574D01*
X658825Y1615305D01*
X658968Y1614036D01*
X658992Y1613608D01*
X659026Y1613531D01*
X659037Y1613430D01*
X660400Y1608344D01*
X660400Y1587698D01*
X612698Y1587698D01*
X612698Y1635141D01*
X612568Y1635868D01*
X612527Y1636607D01*
X612371Y1636966D01*
X612302Y1637350D01*
X611926Y1637986D01*
X611631Y1638665D01*
X611359Y1638948D01*
X611161Y1639284D01*
X610587Y1639750D01*
X610074Y1640283D01*
X609679Y1640488D01*
X609418Y1640699D01*
X608989Y1640845D01*
X608399Y1641150D01*
X436326Y1699853D01*
X435938Y1699913D01*
X435429Y1700088D01*
X185178Y1746312D01*
X184786Y1746313D01*
X184257Y1746413D01*
X-70057Y1755707D01*
X-70444Y1755652D01*
X-70983Y1755673D01*
X-257387Y1735163D01*
X-258022Y1734975D01*
X-258678Y1734883D01*
X-259091Y1734659D01*
X-259539Y1734527D01*
X-260070Y1734130D01*
X-260653Y1733814D01*
X-260961Y1733463D01*
X-261337Y1733182D01*
X-261697Y1732623D01*
X-262132Y1732126D01*
X-262299Y1731689D01*
X-262553Y1731295D01*
X-262696Y1730647D01*
X-262932Y1730028D01*
X-262936Y1729560D01*
X-263037Y1729103D01*
X-262945Y1728446D01*
X-262951Y1727783D01*
X-262792Y1727343D01*
X-262727Y1726879D01*
X-262413Y1726296D01*
X-262188Y1725672D01*
X-261886Y1725315D01*
X-261664Y1724902D01*
X-261166Y1724464D01*
X-260738Y1723958D01*
X-260274Y1723679D01*
X-259978Y1723419D01*
X-259601Y1723274D01*
X-259122Y1722986D01*
X-239895Y1715022D01*
X-219978Y1695105D01*
X-209199Y1669083D01*
X-209199Y1640916D01*
X-219978Y1614895D01*
X-232740Y1602133D01*
X-232980Y1601787D01*
X-233291Y1601504D01*
X-233615Y1600874D01*
X-234022Y1600290D01*
X-234127Y1599882D01*
X-234319Y1599508D01*
X-234453Y1598614D01*
X-234582Y1598116D01*
X-234560Y1597905D01*
X-234599Y1597643D01*
X-234599Y1576350D01*
X-234483Y1575705D01*
X-234465Y1575049D01*
X-234287Y1574608D01*
X-234203Y1574140D01*
X-233869Y1573576D01*
X-233623Y1572968D01*
X-233303Y1572617D01*
X-233062Y1572207D01*
X-232552Y1571793D01*
X-232111Y1571309D01*
X-231689Y1571092D01*
X-231319Y1570791D01*
X-230697Y1570580D01*
X-230115Y1570281D01*
X-229572Y1570199D01*
X-229193Y1570071D01*
X-228794Y1570082D01*
X-228250Y1570000D01*
X-196715Y1570000D01*
X-193975Y1567260D01*
X-193629Y1567019D01*
X-193346Y1566709D01*
X-192716Y1566384D01*
X-192132Y1565978D01*
X-191724Y1565873D01*
X-191351Y1565681D01*
X-190456Y1565546D01*
X-189958Y1565418D01*
X-189747Y1565440D01*
X-189485Y1565400D01*
X-131194Y1565400D01*
X-124029Y1558235D01*
X-123491Y1557861D01*
X-123014Y1557410D01*
X-122576Y1557224D01*
X-122186Y1556953D01*
X-121552Y1556789D01*
X-120948Y1556533D01*
X-120473Y1556511D01*
X-120013Y1556393D01*
X-119360Y1556460D01*
X-118705Y1556430D01*
X-118252Y1556575D01*
X-117779Y1556624D01*
X-117192Y1556914D01*
X-116567Y1557114D01*
X-116123Y1557442D01*
X-115767Y1557618D01*
X-115493Y1557907D01*
X-115050Y1558235D01*
X-103284Y1570000D01*
X33284Y1570000D01*
X45000Y1558284D01*
X45000Y1481715D01*
X33284Y1469999D01*
X-98250Y1469999D01*
X-98895Y1469883D01*
X-99551Y1469865D01*
X-99992Y1469687D01*
X-100459Y1469603D01*
X-101024Y1469269D01*
X-101632Y1469023D01*
X-101983Y1468703D01*
X-102393Y1468462D01*
X-102807Y1467952D01*
X-103291Y1467511D01*
X-103508Y1467089D01*
X-103808Y1466719D01*
X-104019Y1466097D01*
X-104319Y1465515D01*
X-104401Y1464972D01*
X-104529Y1464593D01*
X-104518Y1464194D01*
X-104599Y1463650D01*
X-104599Y1386350D01*
X-104483Y1385705D01*
X-104465Y1385049D01*
X-104287Y1384608D01*
X-104203Y1384140D01*
X-103869Y1383576D01*
X-103623Y1382968D01*
X-103303Y1382617D01*
X-103062Y1382207D01*
X-102552Y1381793D01*
X-102111Y1381309D01*
X-101689Y1381092D01*
X-101319Y1380791D01*
X-100697Y1380580D01*
X-100115Y1380281D01*
X-99572Y1380199D01*
X-99193Y1380071D01*
X-98794Y1380082D01*
X-98250Y1380000D01*
X33284Y1380000D01*
X36024Y1377260D01*
X36370Y1377019D01*
X36653Y1376709D01*
X37284Y1376384D01*
X37867Y1375978D01*
X38275Y1375873D01*
X38649Y1375681D01*
X39543Y1375546D01*
X40041Y1375418D01*
X40252Y1375440D01*
X40514Y1375400D01*
X78650Y1375400D01*
X79295Y1375516D01*
X79951Y1375535D01*
X80392Y1375713D01*
X80859Y1375797D01*
X81424Y1376131D01*
X82032Y1376376D01*
X82383Y1376696D01*
X82793Y1376938D01*
X83207Y1377448D01*
X83691Y1377889D01*
X83908Y1378311D01*
X84208Y1378681D01*
X84419Y1379303D01*
X84719Y1379884D01*
X84801Y1380428D01*
X84929Y1380807D01*
X84918Y1381206D01*
X84999Y1381750D01*
X84999Y1403284D01*
X96715Y1415000D01*
X203284Y1415000D01*
X211025Y1407260D01*
X211371Y1407019D01*
X211654Y1406709D01*
X212284Y1406384D01*
X212868Y1405978D01*
X213276Y1405873D01*
X213649Y1405681D01*
X214543Y1405546D01*
X215042Y1405418D01*
X215253Y1405440D01*
X215514Y1405400D01*
X248250Y1405400D01*
X248895Y1405516D01*
X249551Y1405535D01*
X249992Y1405713D01*
X250459Y1405797D01*
X251024Y1406131D01*
X251632Y1406376D01*
X251983Y1406696D01*
X252393Y1406938D01*
X252807Y1407448D01*
X253291Y1407889D01*
X253508Y1408311D01*
X253808Y1408681D01*
X254019Y1409303D01*
X254319Y1409884D01*
X254401Y1410428D01*
X254529Y1410807D01*
X254518Y1411206D01*
X254599Y1411750D01*
X254599Y1517643D01*
X254525Y1518057D01*
X254544Y1518478D01*
X254328Y1519154D01*
X254203Y1519853D01*
X253989Y1520214D01*
X253861Y1520616D01*
X253322Y1521345D01*
X253062Y1521786D01*
X252898Y1521919D01*
X252740Y1522133D01*
X239978Y1534895D01*
X229199Y1560916D01*
X229199Y1589083D01*
X239978Y1615105D01*
X259895Y1635022D01*
X285916Y1645800D01*
X314083Y1645800D01*
X340105Y1635022D01*
X360022Y1615105D01*
X370800Y1589083D01*
X370800Y1560916D01*
X360022Y1534895D01*
X347260Y1522133D01*
X347019Y1521787D01*
X346709Y1521504D01*
X346384Y1520874D01*
X345978Y1520290D01*
X345873Y1519882D01*
X345681Y1519508D01*
X345546Y1518614D01*
X345418Y1518116D01*
X345440Y1517905D01*
X345400Y1517643D01*
X345400Y1341194D01*
X318805Y1314599D01*
X215514Y1314599D01*
X215101Y1314525D01*
X214680Y1314544D01*
X214003Y1314328D01*
X213305Y1314203D01*
X212943Y1313989D01*
X212542Y1313861D01*
X211813Y1313322D01*
X211372Y1313062D01*
X211238Y1312898D01*
X211025Y1312740D01*
X203284Y1304999D01*
X191835Y1304999D01*
X191421Y1304925D01*
X191001Y1304944D01*
X190324Y1304728D01*
X189626Y1304603D01*
X189264Y1304389D01*
X188863Y1304261D01*
X188133Y1303722D01*
X187692Y1303462D01*
X187559Y1303298D01*
X187345Y1303140D01*
X180445Y1296239D01*
X179937Y1295509D01*
X179376Y1294819D01*
X179299Y1294592D01*
X179163Y1294396D01*
X178941Y1293535D01*
X178656Y1292693D01*
X178663Y1292454D01*
X178603Y1292223D01*
X178694Y1291337D01*
X178720Y1290449D01*
X178809Y1290228D01*
X178834Y1289990D01*
X179229Y1289190D01*
X179561Y1288368D01*
X179722Y1288192D01*
X179828Y1287977D01*
X180478Y1287363D01*
X181074Y1286709D01*
X181286Y1286600D01*
X181460Y1286435D01*
X182281Y1286087D01*
X183069Y1285681D01*
X183331Y1285641D01*
X183527Y1285558D01*
X184039Y1285535D01*
X184935Y1285400D01*
X484486Y1285400D01*
X484899Y1285475D01*
X485320Y1285455D01*
X485997Y1285672D01*
X486695Y1285797D01*
X487057Y1286011D01*
X487458Y1286139D01*
X488188Y1286678D01*
X488628Y1286938D01*
X488762Y1287102D01*
X488975Y1287260D01*
X496715Y1295000D01*
X603284Y1295000D01*
X605049Y1293235D01*
X605587Y1292861D01*
X606065Y1292410D01*
X606503Y1292224D01*
X606893Y1291953D01*
X607527Y1291789D01*
X608131Y1291533D01*
X608606Y1291511D01*
X609066Y1291393D01*
X609719Y1291460D01*
X610374Y1291430D01*
X610827Y1291575D01*
X611299Y1291624D01*
X611887Y1291914D01*
X612512Y1292114D01*
X612955Y1292441D01*
X613312Y1292618D01*
X613586Y1292907D01*
X614029Y1293235D01*
X627911Y1307117D01*
X628133Y1307436D01*
X628423Y1307696D01*
X628770Y1308351D01*
X629193Y1308960D01*
X629290Y1309337D01*
X629472Y1309681D01*
X629568Y1310414D01*
X629753Y1311133D01*
X629713Y1311522D01*
X629763Y1311907D01*
X629598Y1312628D01*
X629522Y1313366D01*
X629349Y1313716D01*
X629263Y1314095D01*
X628857Y1314713D01*
X628528Y1315379D01*
X628245Y1315647D01*
X628032Y1315972D01*
X627435Y1316412D01*
X626896Y1316921D01*
X626537Y1317073D01*
X626224Y1317303D01*
X625512Y1317508D01*
X624829Y1317798D01*
X624441Y1317815D01*
X624066Y1317923D01*
X623549Y1317898D01*
X623549Y1366650D01*
X672324Y1366650D01*
X672338Y1366514D01*
X672324Y1365773D01*
X672453Y1365406D01*
X672493Y1365019D01*
X672821Y1364353D01*
X673066Y1363655D01*
X673314Y1363356D01*
X673487Y1363006D01*
X674026Y1362496D01*
X674498Y1361926D01*
X674835Y1361732D01*
X675119Y1361464D01*
X675802Y1361174D01*
X676443Y1360805D01*
X676827Y1360740D01*
X677185Y1360588D01*
X677926Y1360553D01*
X678656Y1360430D01*
X679038Y1360502D01*
X679428Y1360484D01*
X680134Y1360710D01*
X680862Y1360848D01*
X681195Y1361049D01*
X681566Y1361168D01*
X682344Y1361743D01*
X682784Y1362008D01*
X682899Y1362153D01*
X683083Y1362289D01*
X689194Y1368400D01*
X711986Y1368400D01*
X712399Y1368475D01*
X712820Y1368455D01*
X713497Y1368672D01*
X714195Y1368797D01*
X714557Y1369011D01*
X714958Y1369139D01*
X715688Y1369678D01*
X716128Y1369938D01*
X716262Y1370102D01*
X716475Y1370260D01*
X724715Y1378500D01*
X787284Y1378500D01*
X798510Y1367274D01*
X799048Y1366900D01*
X799525Y1366450D01*
X799962Y1366264D01*
X800353Y1365993D01*
X800989Y1365829D01*
X801592Y1365573D01*
X802066Y1365551D01*
X802527Y1365432D01*
X803180Y1365500D01*
X803834Y1365470D01*
X804287Y1365614D01*
X804760Y1365663D01*
X805348Y1365954D01*
X805972Y1366153D01*
X806415Y1366481D01*
X806773Y1366657D01*
X807046Y1366947D01*
X807489Y1367274D01*
X815440Y1375224D01*
X815680Y1375570D01*
X815991Y1375853D01*
X816316Y1376484D01*
X816721Y1377067D01*
X816827Y1377475D01*
X817019Y1377849D01*
X817153Y1378743D01*
X817282Y1379241D01*
X817260Y1379452D01*
X817299Y1379714D01*
X817299Y1408825D01*
X817225Y1409238D01*
X817244Y1409659D01*
X817028Y1410336D01*
X816903Y1411034D01*
X816689Y1411396D01*
X816561Y1411797D01*
X816022Y1412527D01*
X815762Y1412968D01*
X815598Y1413101D01*
X815440Y1413314D01*
X788314Y1440440D01*
X787968Y1440680D01*
X787685Y1440991D01*
X787055Y1441315D01*
X786471Y1441722D01*
X786063Y1441827D01*
X785690Y1442019D01*
X784796Y1442153D01*
X784298Y1442282D01*
X784087Y1442260D01*
X783825Y1442299D01*
X661350Y1442299D01*
X660705Y1442183D01*
X660049Y1442165D01*
X659608Y1441987D01*
X659140Y1441903D01*
X658576Y1441569D01*
X657968Y1441323D01*
X657617Y1441003D01*
X657207Y1440762D01*
X656793Y1440252D01*
X656309Y1439811D01*
X656092Y1439389D01*
X655791Y1439019D01*
X655580Y1438397D01*
X655281Y1437815D01*
X655199Y1437272D01*
X655071Y1436893D01*
X655074Y1436789D01*
X649357Y1431072D01*
X649270Y1430947D01*
X649149Y1430854D01*
X648630Y1430028D01*
X648075Y1429229D01*
X648037Y1429082D01*
X647956Y1428953D01*
X647758Y1427999D01*
X647514Y1427055D01*
X647530Y1426904D01*
X647499Y1426754D01*
X647645Y1425791D01*
X647746Y1424822D01*
X647813Y1424686D01*
X647836Y1424535D01*
X648309Y1423681D01*
X648739Y1422809D01*
X648850Y1422705D01*
X648924Y1422572D01*
X650319Y1421303D01*
X651709Y1420374D01*
X659774Y1412309D01*
X666111Y1402826D01*
X670475Y1392290D01*
X672094Y1384149D01*
X617202Y1384149D01*
X616557Y1384033D01*
X615901Y1384015D01*
X615460Y1383837D01*
X614993Y1383753D01*
X614758Y1383614D01*
X614263Y1383869D01*
X613719Y1383951D01*
X613341Y1384079D01*
X612942Y1384068D01*
X612398Y1384149D01*
X557506Y1384149D01*
X559125Y1392290D01*
X563489Y1402826D01*
X569826Y1412309D01*
X571677Y1414160D01*
X572185Y1414891D01*
X572746Y1415581D01*
X572822Y1415807D01*
X572958Y1416003D01*
X573180Y1416863D01*
X573466Y1417707D01*
X573459Y1417946D01*
X573519Y1418177D01*
X573428Y1419059D01*
X573402Y1419951D01*
X573313Y1420173D01*
X573288Y1420410D01*
X572894Y1421208D01*
X572561Y1422032D01*
X572400Y1422208D01*
X572294Y1422423D01*
X571646Y1423035D01*
X571048Y1423691D01*
X570836Y1423800D01*
X570662Y1423964D01*
X569841Y1424313D01*
X569053Y1424719D01*
X568791Y1424758D01*
X568596Y1424841D01*
X568083Y1424865D01*
X567187Y1424999D01*
X556715Y1424999D01*
X545197Y1436518D01*
X544560Y1436961D01*
X543979Y1437470D01*
X543647Y1437596D01*
X543354Y1437800D01*
X542602Y1437994D01*
X541881Y1438268D01*
X541526Y1438271D01*
X541180Y1438361D01*
X540408Y1438281D01*
X539637Y1438287D01*
X539302Y1438166D01*
X538947Y1438129D01*
X538253Y1437787D01*
X537526Y1437524D01*
X537253Y1437293D01*
X536934Y1437136D01*
X536403Y1436573D01*
X535812Y1436073D01*
X535605Y1435728D01*
X535393Y1435503D01*
X535217Y1435090D01*
X515105Y1414978D01*
X489083Y1404199D01*
X460916Y1404199D01*
X434895Y1414978D01*
X414978Y1434895D01*
X404199Y1460916D01*
X404199Y1489083D01*
X414978Y1515105D01*
X434895Y1535022D01*
X460916Y1545800D01*
X489083Y1545800D01*
X515105Y1535022D01*
X535279Y1514848D01*
X535600Y1514198D01*
X535859Y1513953D01*
X536052Y1513653D01*
X536669Y1513189D01*
X537232Y1512657D01*
X537561Y1512517D01*
X537845Y1512303D01*
X538585Y1512083D01*
X539299Y1511780D01*
X539656Y1511763D01*
X539997Y1511662D01*
X540768Y1511712D01*
X541541Y1511677D01*
X541881Y1511785D01*
X542237Y1511808D01*
X542943Y1512125D01*
X543679Y1512360D01*
X544003Y1512600D01*
X544285Y1512726D01*
X544623Y1513057D01*
X545197Y1513481D01*
X548407Y1516692D01*
X548782Y1517231D01*
X549232Y1517707D01*
X549418Y1518144D01*
X549689Y1518535D01*
X549853Y1519171D01*
X550109Y1519774D01*
X550131Y1520248D01*
X550249Y1520709D01*
X550182Y1521362D01*
X550212Y1522016D01*
X550067Y1522469D01*
X550018Y1522942D01*
X549728Y1523530D01*
X549528Y1524154D01*
X549201Y1524596D01*
X549024Y1524955D01*
X548734Y1525229D01*
X548407Y1525672D01*
X544674Y1529404D01*
X541331Y1535195D01*
X539599Y1541656D01*
X539599Y1562301D01*
X593649Y1562301D01*
X594294Y1562417D01*
X594950Y1562436D01*
X595391Y1562614D01*
X595858Y1562698D01*
X596423Y1563031D01*
X597031Y1563277D01*
X597382Y1563597D01*
X597792Y1563839D01*
X598206Y1564348D01*
X598689Y1564790D01*
X598907Y1565212D01*
X599207Y1565581D01*
X599418Y1566204D01*
X599718Y1566785D01*
X599799Y1567329D01*
X599928Y1567707D01*
X599916Y1568106D01*
X599998Y1568650D01*
X599998Y1575002D01*
X600002Y1575002D01*
X600002Y1568650D01*
X600118Y1568005D01*
X600136Y1567349D01*
X600314Y1566908D01*
X600398Y1566441D01*
X600732Y1565876D01*
X600978Y1565268D01*
X601298Y1564917D01*
X601539Y1564508D01*
X602049Y1564093D01*
X602490Y1563610D01*
X602912Y1563392D01*
X603282Y1563092D01*
X603904Y1562881D01*
X604486Y1562581D01*
X605029Y1562500D01*
X605408Y1562371D01*
X605807Y1562383D01*
X606351Y1562301D01*
X660400Y1562301D01*
X660400Y1541656D01*
X658669Y1535195D01*
X655325Y1529404D01*
X651593Y1525672D01*
X651218Y1525133D01*
X650768Y1524656D01*
X650582Y1524218D01*
X650311Y1523828D01*
X650147Y1523192D01*
X649891Y1522589D01*
X649869Y1522115D01*
X649750Y1521655D01*
X649818Y1521002D01*
X649788Y1520347D01*
X649933Y1519894D01*
X649982Y1519422D01*
X650272Y1518833D01*
X650472Y1518209D01*
X650799Y1517766D01*
X650975Y1517409D01*
X651265Y1517135D01*
X651593Y1516692D01*
X655123Y1513162D01*
X655135Y1512749D01*
X655313Y1512308D01*
X655397Y1511840D01*
X655731Y1511276D01*
X655976Y1510668D01*
X656296Y1510317D01*
X656538Y1509907D01*
X657048Y1509493D01*
X657489Y1509009D01*
X657911Y1508792D01*
X658281Y1508491D01*
X658903Y1508280D01*
X659484Y1507981D01*
X660028Y1507899D01*
X660407Y1507771D01*
X660806Y1507782D01*
X661350Y1507700D01*
X813545Y1507700D01*
X882700Y1438545D01*
X882700Y1379714D01*
X882775Y1379300D01*
X882755Y1378880D01*
X882972Y1378203D01*
X883097Y1377505D01*
X883311Y1377143D01*
X883439Y1376742D01*
X883978Y1376012D01*
X884238Y1375571D01*
X884402Y1375438D01*
X884560Y1375224D01*
X889338Y1370446D01*
X889634Y1370241D01*
X889872Y1369970D01*
X890549Y1369604D01*
X891181Y1369164D01*
X891531Y1369074D01*
X891847Y1368903D01*
X892608Y1368797D01*
X893355Y1368604D01*
X893714Y1368641D01*
X894070Y1368591D01*
X894821Y1368756D01*
X895588Y1368835D01*
X895912Y1368995D01*
X896263Y1369072D01*
X896909Y1369488D01*
X897601Y1369829D01*
X897849Y1370092D01*
X898151Y1370286D01*
X898793Y1371091D01*
X899142Y1371461D01*
X899204Y1371608D01*
X899327Y1371761D01*
X900675Y1374096D01*
X905403Y1378825D01*
X911195Y1382169D01*
X917656Y1383900D01*
X932500Y1383900D01*
X932500Y1328152D01*
X932616Y1327507D01*
X932635Y1326851D01*
X932813Y1326410D01*
X932897Y1325943D01*
X933230Y1325378D01*
X933476Y1324770D01*
X933796Y1324419D01*
X934038Y1324009D01*
X934548Y1323595D01*
X934989Y1323111D01*
X935411Y1322894D01*
X935780Y1322593D01*
X936403Y1322383D01*
X936984Y1322083D01*
X937528Y1322001D01*
X937906Y1321873D01*
X938305Y1321884D01*
X938849Y1321803D01*
X942803Y1321803D01*
X942803Y1317849D01*
X942918Y1317204D01*
X942937Y1316548D01*
X943115Y1316108D01*
X943199Y1315640D01*
X943533Y1315075D01*
X943778Y1314467D01*
X944098Y1314116D01*
X944340Y1313707D01*
X944850Y1313293D01*
X945291Y1312809D01*
X945713Y1312591D01*
X946083Y1312291D01*
X946705Y1312080D01*
X947287Y1311780D01*
X947830Y1311699D01*
X948209Y1311570D01*
X948608Y1311582D01*
X949152Y1311500D01*
X992400Y1311500D01*
X992400Y1284156D01*
X990669Y1277695D01*
X987326Y1271904D01*
X987194Y1271773D01*
X986653Y1270994D01*
X986067Y1270245D01*
X986013Y1270076D01*
X985912Y1269930D01*
X985675Y1269012D01*
X985387Y1268105D01*
X985396Y1267928D01*
X985352Y1267757D01*
X985449Y1266814D01*
X985494Y1265863D01*
X985566Y1265681D01*
X985582Y1265524D01*
X985806Y1265070D01*
X986184Y1264108D01*
X988669Y1259804D01*
X990400Y1253344D01*
X990400Y1210952D01*
X990469Y1210568D01*
X990448Y1210180D01*
X990666Y1209472D01*
X990797Y1208742D01*
X990995Y1208407D01*
X991110Y1208035D01*
X991561Y1207448D01*
X991938Y1206809D01*
X992241Y1206563D01*
X992478Y1206255D01*
X993104Y1205861D01*
X993681Y1205393D01*
X994049Y1205268D01*
X994379Y1205061D01*
X995104Y1204911D01*
X995807Y1204673D01*
X996197Y1204684D01*
X996577Y1204605D01*
X997309Y1204716D01*
X998051Y1204737D01*
X998411Y1204883D01*
X998796Y1204941D01*
X999446Y1205301D01*
X1000132Y1205578D01*
X1000419Y1205840D01*
X1000760Y1206029D01*
X1001412Y1206745D01*
X1001790Y1207091D01*
X1001875Y1207255D01*
X1002029Y1207424D01*
X1005025Y1211909D01*
X1013090Y1219974D01*
X1022574Y1226311D01*
X1033110Y1230675D01*
X1041250Y1232294D01*
X1041250Y1183749D01*
X991578Y1183749D01*
X991488Y1183902D01*
X991312Y1184420D01*
X991196Y1184563D01*
X991128Y1184731D01*
X990760Y1185134D01*
X990562Y1185471D01*
X990255Y1185720D01*
X989896Y1186162D01*
X989738Y1186256D01*
X989615Y1186390D01*
X989111Y1186650D01*
X988819Y1186887D01*
X988462Y1187008D01*
X987962Y1187303D01*
X987781Y1187335D01*
X987620Y1187418D01*
X986957Y1187518D01*
X986693Y1187607D01*
X986415Y1187599D01*
X985754Y1187698D01*
X856351Y1187698D01*
X855706Y1187583D01*
X855050Y1187564D01*
X854609Y1187386D01*
X854142Y1187302D01*
X853577Y1186968D01*
X852969Y1186723D01*
X852618Y1186403D01*
X852208Y1186161D01*
X851794Y1185651D01*
X851310Y1185210D01*
X851093Y1184788D01*
X850793Y1184418D01*
X850582Y1183796D01*
X850282Y1183214D01*
X850200Y1182671D01*
X850072Y1182292D01*
X850083Y1181893D01*
X850002Y1181349D01*
X850002Y1168650D01*
X850118Y1168005D01*
X850136Y1167349D01*
X850314Y1166908D01*
X850398Y1166441D01*
X850732Y1165876D01*
X850978Y1165268D01*
X851298Y1164917D01*
X851539Y1164508D01*
X852049Y1164093D01*
X852490Y1163610D01*
X852912Y1163392D01*
X853282Y1163092D01*
X853904Y1162881D01*
X854486Y1162581D01*
X855029Y1162500D01*
X855408Y1162371D01*
X855807Y1162383D01*
X856351Y1162301D01*
X985754Y1162301D01*
X985925Y1162332D01*
X986097Y1162310D01*
X986672Y1162446D01*
X987051Y1162457D01*
X987394Y1162595D01*
X987964Y1162698D01*
X988113Y1162786D01*
X988282Y1162826D01*
X988775Y1163154D01*
X989132Y1163298D01*
X989409Y1163551D01*
X989897Y1163839D01*
X990006Y1163973D01*
X990151Y1164069D01*
X990491Y1164538D01*
X990791Y1164811D01*
X990970Y1165160D01*
X991313Y1165581D01*
X991368Y1165746D01*
X991470Y1165885D01*
X991572Y1166250D01*
X1041250Y1166250D01*
X1041250Y1117706D01*
X1033110Y1119325D01*
X1022574Y1123689D01*
X1013090Y1130026D01*
X1005025Y1138091D01*
X1002029Y1142575D01*
X1001759Y1142856D01*
X1001561Y1143191D01*
X1000986Y1143658D01*
X1000472Y1144192D01*
X1000121Y1144361D01*
X999819Y1144607D01*
X999117Y1144844D01*
X998449Y1145166D01*
X998062Y1145202D01*
X997693Y1145327D01*
X996952Y1145306D01*
X996214Y1145375D01*
X995838Y1145274D01*
X995449Y1145263D01*
X994763Y1144986D01*
X994046Y1144793D01*
X993728Y1144567D01*
X993368Y1144422D01*
X992821Y1143923D01*
X992216Y1143493D01*
X991997Y1143171D01*
X991709Y1142909D01*
X991370Y1142251D01*
X990952Y1141637D01*
X990859Y1141259D01*
X990681Y1140913D01*
X990537Y1139958D01*
X990413Y1139458D01*
X990434Y1139274D01*
X990400Y1139048D01*
X990400Y1096656D01*
X988669Y1090195D01*
X986551Y1086526D01*
X986230Y1085636D01*
X985858Y1084759D01*
X985849Y1084581D01*
X985789Y1084414D01*
X985798Y1083465D01*
X985755Y1082516D01*
X985809Y1082348D01*
X985811Y1082170D01*
X986149Y1081283D01*
X986439Y1080378D01*
X986555Y1080220D01*
X986612Y1080073D01*
X986946Y1079692D01*
X987560Y1078861D01*
X988325Y1078096D01*
X991669Y1072304D01*
X993400Y1065844D01*
X993400Y1038499D01*
X950152Y1038499D01*
X949507Y1038383D01*
X948851Y1038365D01*
X948410Y1038187D01*
X947943Y1038103D01*
X947378Y1037769D01*
X946770Y1037523D01*
X946419Y1037203D01*
X946009Y1036962D01*
X945595Y1036452D01*
X945111Y1036011D01*
X944894Y1035589D01*
X944593Y1035219D01*
X944383Y1034597D01*
X944083Y1034015D01*
X944001Y1033472D01*
X943873Y1033093D01*
X943884Y1032694D01*
X943803Y1032150D01*
X943803Y1028197D01*
X939849Y1028197D01*
X939204Y1028081D01*
X938548Y1028063D01*
X938108Y1027884D01*
X937640Y1027800D01*
X937075Y1027467D01*
X936467Y1027221D01*
X936116Y1026901D01*
X935707Y1026659D01*
X935293Y1026150D01*
X934809Y1025708D01*
X934591Y1025287D01*
X934291Y1024917D01*
X934080Y1024294D01*
X933780Y1023713D01*
X933699Y1023169D01*
X933570Y1022791D01*
X933582Y1022392D01*
X933500Y1021848D01*
X933500Y966099D01*
X918656Y966099D01*
X912195Y967831D01*
X906404Y971174D01*
X901159Y976419D01*
X900429Y976927D01*
X899739Y977488D01*
X899512Y977565D01*
X899317Y977701D01*
X898457Y977923D01*
X897613Y978208D01*
X897374Y978202D01*
X897143Y978261D01*
X896257Y978170D01*
X895369Y978144D01*
X895148Y978055D01*
X894910Y978030D01*
X894111Y977636D01*
X893288Y977303D01*
X893111Y977142D01*
X892897Y977036D01*
X892285Y976389D01*
X891629Y975790D01*
X891520Y975578D01*
X891356Y975404D01*
X891008Y974585D01*
X890601Y973795D01*
X890561Y973533D01*
X890478Y973338D01*
X890455Y972825D01*
X890320Y971929D01*
X890320Y959331D01*
X890395Y958918D01*
X890375Y958497D01*
X890592Y957820D01*
X890717Y957122D01*
X890931Y956760D01*
X891059Y956359D01*
X891598Y955629D01*
X891858Y955188D01*
X892022Y955055D01*
X892180Y954842D01*
X920161Y926860D01*
X920508Y926619D01*
X920790Y926309D01*
X921419Y925985D01*
X922004Y925578D01*
X922413Y925473D01*
X922786Y925281D01*
X923680Y925146D01*
X924178Y925018D01*
X924389Y925040D01*
X924651Y925000D01*
X998284Y925000D01*
X1010000Y913284D01*
X1010000Y786715D01*
X998284Y774999D01*
X881715Y774999D01*
X869999Y786715D01*
X869999Y860349D01*
X869925Y860763D01*
X869944Y861183D01*
X869728Y861860D01*
X869603Y862558D01*
X869389Y862920D01*
X869261Y863321D01*
X868722Y864051D01*
X868462Y864492D01*
X868298Y864625D01*
X868140Y864838D01*
X809679Y923298D01*
X809679Y977905D01*
X809605Y978319D01*
X809624Y978738D01*
X809408Y979415D01*
X809283Y980115D01*
X809069Y980477D01*
X808941Y980877D01*
X808402Y981607D01*
X808142Y982048D01*
X807978Y982181D01*
X807821Y982394D01*
X806991Y983224D01*
X806453Y983599D01*
X805975Y984050D01*
X805537Y984236D01*
X805148Y984507D01*
X804513Y984670D01*
X803908Y984927D01*
X803433Y984949D01*
X802974Y985067D01*
X802322Y985000D01*
X801666Y985030D01*
X801213Y984885D01*
X800741Y984837D01*
X800152Y984546D01*
X799528Y984346D01*
X799085Y984020D01*
X798728Y983843D01*
X798453Y983553D01*
X798010Y983225D01*
X786284Y971499D01*
X723715Y971499D01*
X710395Y984820D01*
X710049Y985060D01*
X709766Y985371D01*
X709136Y985695D01*
X708552Y986102D01*
X708144Y986207D01*
X707771Y986399D01*
X706876Y986533D01*
X706378Y986662D01*
X706167Y986640D01*
X705905Y986679D01*
X701298Y986679D01*
X672338Y1015640D01*
X671992Y1015880D01*
X671709Y1016191D01*
X671079Y1016515D01*
X670495Y1016922D01*
X670087Y1017027D01*
X669714Y1017219D01*
X668819Y1017353D01*
X668321Y1017482D01*
X668110Y1017460D01*
X667848Y1017499D01*
X653253Y1017499D01*
X622499Y1048253D01*
X622499Y1051249D01*
X622342Y1052125D01*
X622250Y1053010D01*
X622145Y1053224D01*
X622103Y1053459D01*
X621650Y1054226D01*
X621256Y1055023D01*
X621083Y1055187D01*
X620962Y1055392D01*
X620271Y1055953D01*
X619624Y1056564D01*
X619404Y1056657D01*
X619219Y1056808D01*
X618374Y1057094D01*
X617558Y1057441D01*
X617320Y1057452D01*
X617093Y1057528D01*
X616203Y1057503D01*
X615315Y1057544D01*
X615087Y1057471D01*
X614849Y1057464D01*
X614026Y1057131D01*
X613177Y1056860D01*
X612963Y1056702D01*
X612768Y1056623D01*
X612390Y1056278D01*
X611660Y1055739D01*
X610596Y1054674D01*
X604804Y1051331D01*
X598343Y1049599D01*
X562698Y1049599D01*
X562698Y1097301D01*
X625424Y1097301D01*
X625838Y1097375D01*
X626258Y1097356D01*
X626935Y1097573D01*
X627633Y1097698D01*
X627995Y1097911D01*
X628397Y1098040D01*
X629126Y1098578D01*
X629567Y1098839D01*
X629700Y1099003D01*
X629914Y1099161D01*
X653253Y1122500D01*
X696746Y1122500D01*
X698760Y1120486D01*
X699490Y1119979D01*
X700181Y1119417D01*
X700408Y1119340D01*
X700603Y1119204D01*
X701463Y1118983D01*
X702307Y1118697D01*
X702546Y1118703D01*
X702777Y1118644D01*
X703662Y1118735D01*
X704551Y1118761D01*
X704772Y1118850D01*
X705010Y1118875D01*
X705808Y1119269D01*
X706632Y1119602D01*
X706808Y1119763D01*
X707023Y1119869D01*
X707634Y1120516D01*
X708291Y1121115D01*
X708400Y1121327D01*
X708564Y1121501D01*
X708912Y1122321D01*
X709319Y1123110D01*
X709358Y1123372D01*
X709441Y1123567D01*
X709465Y1124080D01*
X709599Y1124976D01*
X709599Y1162301D01*
X843649Y1162301D01*
X844294Y1162417D01*
X844950Y1162436D01*
X845391Y1162614D01*
X845858Y1162698D01*
X846423Y1163031D01*
X847031Y1163277D01*
X847382Y1163597D01*
X847792Y1163839D01*
X848206Y1164348D01*
X848689Y1164790D01*
X848907Y1165212D01*
X849207Y1165581D01*
X849418Y1166204D01*
X849718Y1166785D01*
X849799Y1167329D01*
X849928Y1167707D01*
X849916Y1168106D01*
X849998Y1168650D01*
X849998Y1181349D01*
X849882Y1181994D01*
X849863Y1182650D01*
X849685Y1183091D01*
X849601Y1183558D01*
X849268Y1184123D01*
X849022Y1184731D01*
X848702Y1185082D01*
X848460Y1185492D01*
X847951Y1185906D01*
X847509Y1186390D01*
X847088Y1186607D01*
X846718Y1186908D01*
X846095Y1187118D01*
X845514Y1187418D01*
X844970Y1187500D01*
X844592Y1187628D01*
X844193Y1187617D01*
X843649Y1187698D01*
X709599Y1187698D01*
X709599Y1245065D01*
X709443Y1245939D01*
X709351Y1246825D01*
X709245Y1247040D01*
X709203Y1247274D01*
X708752Y1248038D01*
X708357Y1248838D01*
X708183Y1249003D01*
X708062Y1249208D01*
X707373Y1249768D01*
X706725Y1250379D01*
X706504Y1250473D01*
X706319Y1250623D01*
X705476Y1250909D01*
X704658Y1251256D01*
X704420Y1251267D01*
X704193Y1251344D01*
X703303Y1251318D01*
X702416Y1251359D01*
X702188Y1251287D01*
X701949Y1251280D01*
X701126Y1250947D01*
X700277Y1250676D01*
X700063Y1250517D01*
X699868Y1250438D01*
X699491Y1250094D01*
X698760Y1249555D01*
X672260Y1223054D01*
X643805Y1194599D01*
X615514Y1194599D01*
X615100Y1194525D01*
X614680Y1194544D01*
X614003Y1194328D01*
X613305Y1194203D01*
X612943Y1193989D01*
X612541Y1193861D01*
X611812Y1193321D01*
X611371Y1193062D01*
X611238Y1192898D01*
X611024Y1192740D01*
X603284Y1184999D01*
X496715Y1184999D01*
X488975Y1192740D01*
X488629Y1192980D01*
X488346Y1193291D01*
X487716Y1193616D01*
X487133Y1194021D01*
X486725Y1194126D01*
X486351Y1194319D01*
X485456Y1194453D01*
X484958Y1194582D01*
X484748Y1194560D01*
X484486Y1194599D01*
X-233218Y1194599D01*
X-233485Y1194552D01*
X-233754Y1194577D01*
X-234583Y1194354D01*
X-235428Y1194203D01*
X-235661Y1194065D01*
X-235923Y1193995D01*
X-236622Y1193498D01*
X-237361Y1193062D01*
X-237532Y1192851D01*
X-237753Y1192694D01*
X-238235Y1191985D01*
X-238777Y1191319D01*
X-238863Y1191063D01*
X-239016Y1190839D01*
X-239222Y1190006D01*
X-239497Y1189193D01*
X-239489Y1188922D01*
X-239554Y1188659D01*
X-239458Y1187807D01*
X-239433Y1186949D01*
X-239331Y1186698D01*
X-239301Y1186429D01*
X-238748Y1185254D01*
X-238592Y1184868D01*
X-238538Y1184810D01*
X-238498Y1184723D01*
X-233889Y1177826D01*
X-229525Y1167290D01*
X-227906Y1159149D01*
X-282798Y1159149D01*
X-283443Y1159033D01*
X-284099Y1159015D01*
X-284540Y1158837D01*
X-285007Y1158753D01*
X-285242Y1158614D01*
X-285737Y1158869D01*
X-286280Y1158951D01*
X-286659Y1159079D01*
X-287058Y1159068D01*
X-287602Y1159149D01*
X-342494Y1159149D01*
X-340875Y1167290D01*
X-336511Y1177826D01*
X-330174Y1187309D01*
X-322109Y1195374D01*
X-312625Y1201711D01*
X-306054Y1204433D01*
X-305404Y1204850D01*
X-304711Y1205192D01*
X-304465Y1205452D01*
X-304164Y1205645D01*
X-303699Y1206263D01*
X-303169Y1206824D01*
X-303030Y1207153D01*
X-302815Y1207439D01*
X-302594Y1208179D01*
X-302293Y1208891D01*
X-302276Y1209248D01*
X-302174Y1209590D01*
X-302225Y1210361D01*
X-302189Y1211133D01*
X-302298Y1211474D01*
X-302322Y1211830D01*
X-302637Y1212534D01*
X-302873Y1213272D01*
X-303114Y1213598D01*
X-303240Y1213879D01*
X-303570Y1214215D01*
X-303994Y1214788D01*
X-310400Y1221194D01*
X-310400Y1273650D01*
X-310516Y1274295D01*
X-310535Y1274951D01*
X-310713Y1275392D01*
X-310797Y1275859D01*
X-311131Y1276424D01*
X-311376Y1277032D01*
X-311696Y1277383D01*
X-311938Y1277793D01*
X-312448Y1278207D01*
X-312889Y1278691D01*
X-313311Y1278908D01*
X-313681Y1279208D01*
X-314303Y1279419D01*
X-314884Y1279719D01*
X-315428Y1279801D01*
X-315807Y1279929D01*
X-316206Y1279918D01*
X-316750Y1279999D01*
X-333284Y1279999D01*
X-345000Y1291715D01*
X-345000Y1368284D01*
X-344093Y1369192D01*
X-343718Y1369730D01*
X-343268Y1370208D01*
X-343082Y1370645D01*
X-342811Y1371035D01*
X-342647Y1371670D01*
X-342391Y1372274D01*
X-342369Y1372749D01*
X-342251Y1373208D01*
X-342318Y1373860D01*
X-342288Y1374517D01*
X-342433Y1374970D01*
X-342482Y1375441D01*
X-342772Y1376029D01*
X-342972Y1376655D01*
X-343299Y1377098D01*
X-343475Y1377454D01*
X-343765Y1377728D01*
X-344093Y1378172D01*
X-345325Y1379404D01*
X-348669Y1385195D01*
X-350400Y1391656D01*
X-350400Y1412301D01*
X-271351Y1412301D01*
X-270706Y1412417D01*
X-270050Y1412436D01*
X-269609Y1412614D01*
X-269142Y1412698D01*
X-268577Y1413031D01*
X-267969Y1413277D01*
X-267618Y1413597D01*
X-267208Y1413839D01*
X-266794Y1414348D01*
X-266310Y1414790D01*
X-266093Y1415212D01*
X-265793Y1415581D01*
X-265582Y1416204D01*
X-265282Y1416785D01*
X-265200Y1417329D01*
X-265072Y1417707D01*
X-265083Y1418106D01*
X-265002Y1418650D01*
X-265002Y1431349D01*
X-265118Y1431994D01*
X-265136Y1432650D01*
X-265314Y1433091D01*
X-265398Y1433558D01*
X-265732Y1434123D01*
X-265978Y1434731D01*
X-266298Y1435082D01*
X-266539Y1435492D01*
X-267049Y1435906D01*
X-267490Y1436390D01*
X-267912Y1436607D01*
X-268282Y1436908D01*
X-268904Y1437118D01*
X-269486Y1437418D01*
X-270029Y1437500D01*
X-270408Y1437628D01*
X-270807Y1437617D01*
X-271351Y1437698D01*
X-350400Y1437698D01*
X-350400Y1458344D01*
X-348669Y1464804D01*
X-348513Y1465074D01*
X-348492Y1465133D01*
X-348453Y1465181D01*
X-348110Y1466192D01*
X-347752Y1467186D01*
X-347752Y1467248D01*
X-347732Y1467307D01*
X-347763Y1468374D01*
X-347773Y1469431D01*
X-347795Y1469488D01*
X-347797Y1469551D01*
X-348194Y1470534D01*
X-348573Y1471528D01*
X-348615Y1471575D01*
X-348638Y1471632D01*
X-349344Y1472406D01*
X-350054Y1473216D01*
X-350109Y1473246D01*
X-350151Y1473291D01*
X-351083Y1473771D01*
X-352029Y1474282D01*
X-352091Y1474291D01*
X-352146Y1474319D01*
X-354011Y1474599D01*
X-378650Y1474599D01*
X-379295Y1474483D01*
X-379951Y1474465D01*
X-380392Y1474287D01*
X-380859Y1474203D01*
X-381424Y1473869D01*
X-382032Y1473623D01*
X-382383Y1473303D01*
X-382793Y1473062D01*
X-383207Y1472552D01*
X-383691Y1472111D01*
X-383908Y1471689D01*
X-384208Y1471319D01*
X-384419Y1470697D01*
X-384719Y1470115D01*
X-384801Y1469572D01*
X-384929Y1469193D01*
X-384918Y1468794D01*
X-384999Y1468250D01*
X-384999Y1446715D01*
X-396715Y1434999D01*
X-503284Y1434999D01*
X-515000Y1446715D01*
X-515000Y1533284D01*
X-514466Y1533818D01*
X-514024Y1534454D01*
X-513516Y1535034D01*
X-513389Y1535367D01*
X-513184Y1535661D01*
X-512992Y1536409D01*
X-512716Y1537132D01*
X-512713Y1537489D01*
X-512624Y1537835D01*
X-512703Y1538603D01*
X-512697Y1539377D01*
X-512818Y1539713D01*
X-512855Y1540068D01*
X-513197Y1540760D01*
X-513460Y1541488D01*
X-513691Y1541761D01*
X-513849Y1542081D01*
X-514410Y1542611D01*
X-514910Y1543202D01*
X-515256Y1543410D01*
X-515481Y1543622D01*
X-515916Y1543807D01*
X-516526Y1544174D01*
X-527425Y1548689D01*
X-536909Y1555026D01*
X-544974Y1563090D01*
X-551311Y1572574D01*
X-555675Y1583110D01*
X-557294Y1591250D01*
X-502402Y1591250D01*
X-501757Y1591366D01*
X-501101Y1591385D01*
X-500660Y1591563D01*
X-500193Y1591647D01*
X-499958Y1591785D01*
X-499463Y1591530D01*
X-498919Y1591449D01*
X-498541Y1591320D01*
X-498142Y1591332D01*
X-497598Y1591250D01*
X-442706Y1591250D01*
X-444325Y1583110D01*
X-448535Y1572945D01*
X-448749Y1571965D01*
X-449001Y1570988D01*
X-448989Y1570868D01*
X-449014Y1570752D01*
X-448874Y1569757D01*
X-448770Y1568754D01*
X-448717Y1568647D01*
X-448700Y1568529D01*
X-448222Y1567646D01*
X-447776Y1566742D01*
X-447689Y1566660D01*
X-447632Y1566555D01*
X-446874Y1565891D01*
X-446143Y1565201D01*
X-446033Y1565154D01*
X-445944Y1565075D01*
X-445004Y1564717D01*
X-444077Y1564324D01*
X-443957Y1564318D01*
X-443846Y1564276D01*
X-442841Y1564267D01*
X-441834Y1564221D01*
X-441721Y1564258D01*
X-441601Y1564257D01*
X-440654Y1564599D01*
X-439696Y1564905D01*
X-439591Y1564983D01*
X-439490Y1565019D01*
X-439134Y1565321D01*
X-439026Y1565400D01*
X-340514Y1565400D01*
X-340101Y1565475D01*
X-339680Y1565455D01*
X-339003Y1565672D01*
X-338305Y1565797D01*
X-337943Y1566011D01*
X-337542Y1566139D01*
X-336813Y1566678D01*
X-336372Y1566938D01*
X-336238Y1567102D01*
X-336025Y1567260D01*
X-333284Y1570000D01*
X-331750Y1570000D01*
X-331105Y1570116D01*
X-330449Y1570135D01*
X-330008Y1570313D01*
X-329540Y1570397D01*
X-328976Y1570731D01*
X-328368Y1570976D01*
X-328017Y1571296D01*
X-327607Y1571538D01*
X-327193Y1572048D01*
X-326709Y1572489D01*
X-326492Y1572911D01*
X-326191Y1573281D01*
X-325980Y1573903D01*
X-325681Y1574484D01*
X-325599Y1575028D01*
X-325471Y1575407D01*
X-325482Y1575806D01*
X-325400Y1576350D01*
X-325400Y1597643D01*
X-325475Y1598057D01*
X-325455Y1598478D01*
X-325672Y1599154D01*
X-325797Y1599853D01*
X-326011Y1600214D01*
X-326139Y1600616D01*
X-326678Y1601345D01*
X-326938Y1601786D01*
X-327102Y1601919D01*
X-327260Y1602133D01*
X-340022Y1614895D01*
X-350800Y1640916D01*
X-350800Y1669083D01*
X-340022Y1695105D01*
X-320105Y1715022D01*
X-317740Y1716001D01*
X-317545Y1716127D01*
X-317322Y1716192D01*
X-316604Y1716730D01*
X-315851Y1717213D01*
X-315711Y1717398D01*
X-315525Y1717538D01*
X-315040Y1718291D01*
X-314501Y1719007D01*
X-314435Y1719230D01*
X-314309Y1719424D01*
X-314116Y1720298D01*
X-313860Y1721158D01*
X-313875Y1721390D01*
X-313825Y1721617D01*
X-313949Y1722504D01*
X-314008Y1723398D01*
X-314103Y1723610D01*
X-314135Y1723840D01*
X-314559Y1724628D01*
X-314926Y1725447D01*
X-315088Y1725613D01*
X-315198Y1725817D01*
X-315870Y1726408D01*
X-316499Y1727048D01*
X-316709Y1727147D01*
X-316883Y1727300D01*
X-317721Y1727621D01*
X-318532Y1728002D01*
X-318763Y1728021D01*
X-318979Y1728104D01*
X-320462Y1728163D01*
X-320768Y1728188D01*
X-320815Y1728177D01*
X-320864Y1728178D01*
X-323940Y1727840D01*
X-324315Y1727729D01*
X-324851Y1727672D01*
X-571060Y1663304D01*
X-571414Y1663140D01*
X-571937Y1663005D01*
X-806150Y1563476D01*
X-806479Y1563260D01*
X-806974Y1563052D01*
X-1024200Y1430481D01*
X-1024493Y1430221D01*
X-1024954Y1429941D01*
X-1220562Y1267155D01*
X-1220588Y1267124D01*
X-1220622Y1267104D01*
X-1220844Y1266830D01*
X-1221229Y1266512D01*
X-1391051Y1076979D01*
X-1391257Y1076646D01*
X-1391618Y1076246D01*
X-1532033Y864007D01*
X-1532188Y863648D01*
X-1532487Y863198D01*
X-1640504Y632777D01*
X-1640605Y632399D01*
X-1640836Y631911D01*
X-1714152Y388218D01*
X-1714197Y387827D01*
X-1714353Y387313D01*
X-1714396Y387024D01*
X-1714396Y387022D01*
X-1714396Y387020D01*
X-1715330Y380675D01*
X-1715331Y380673D01*
X-1715331Y380671D01*
X-1716264Y374325D01*
X-1716265Y374323D01*
X-1716265Y374322D01*
X-1717199Y367977D01*
X-1717200Y367974D01*
X-1717200Y367971D01*
X-1718133Y361627D01*
X-1718134Y361625D01*
X-1718134Y361622D01*
X-1719068Y355278D01*
X-1719068Y355275D01*
X-1719068Y355273D01*
X-1720002Y348928D01*
X-1720003Y348926D01*
X-1720003Y348924D01*
X-1720937Y342578D01*
X-1720937Y342577D01*
X-1720937Y342575D01*
X-1721871Y336230D01*
X-1721872Y336227D01*
X-1721872Y336224D01*
X-1722805Y329880D01*
X-1722806Y329878D01*
X-1722806Y329875D01*
X-1723740Y323531D01*
X-1723741Y323528D01*
X-1723741Y323526D01*
X-1724674Y317181D01*
X-1724675Y317179D01*
X-1724675Y317177D01*
X-1725609Y310831D01*
X-1725609Y310830D01*
X-1725609Y310828D01*
X-1726543Y304483D01*
X-1726544Y304480D01*
X-1726544Y304477D01*
X-1727478Y298133D01*
X-1727478Y298131D01*
X-1727478Y298128D01*
X-1728412Y291784D01*
X-1728413Y291782D01*
X-1728413Y291779D01*
X-1729347Y285434D01*
X-1729347Y285432D01*
X-1729347Y285430D01*
X-1730281Y279084D01*
X-1730282Y279083D01*
X-1730282Y279081D01*
X-1731215Y272736D01*
X-1731216Y272733D01*
X-1731216Y272730D01*
X-1732150Y266387D01*
X-1732151Y266384D01*
X-1732151Y266381D01*
X-1733084Y260037D01*
X-1733085Y260035D01*
X-1733085Y260031D01*
X-1734019Y253687D01*
X-1734019Y253685D01*
X-1734019Y253683D01*
X-1734953Y247338D01*
X-1734954Y247336D01*
X-1734954Y247334D01*
X-1735888Y240988D01*
X-1735888Y240987D01*
X-1735888Y240985D01*
X-1736822Y234640D01*
X-1736823Y234637D01*
X-1736823Y234634D01*
X-1737756Y228290D01*
X-1737757Y228288D01*
X-1737757Y228285D01*
X-1738691Y221941D01*
X-1738692Y221938D01*
X-1738692Y221936D01*
X-1739625Y215591D01*
X-1739626Y215589D01*
X-1739626Y215587D01*
X-1740560Y209241D01*
X-1740560Y209240D01*
X-1740560Y209238D01*
X-1741494Y202893D01*
X-1741495Y202890D01*
X-1741495Y202887D01*
X-1742428Y196543D01*
X-1742429Y196541D01*
X-1742429Y196538D01*
X-1743363Y190194D01*
X-1743364Y190192D01*
X-1743364Y190189D01*
X-1744298Y183844D01*
X-1744298Y183842D01*
X-1744298Y183840D01*
X-1745232Y177494D01*
X-1745233Y177493D01*
X-1745233Y177491D01*
X-1746166Y171146D01*
X-1746167Y171143D01*
X-1746167Y171140D01*
X-1747101Y164797D01*
X-1747102Y164794D01*
X-1747102Y164791D01*
X-1748035Y158447D01*
X-1748036Y158445D01*
X-1748036Y158442D01*
X-1748970Y152097D01*
X-1748970Y152095D01*
X-1748970Y152093D01*
X-1749904Y145748D01*
X-1749905Y145746D01*
X-1749905Y145744D01*
X-1750838Y139399D01*
X-1750839Y139397D01*
X-1750839Y139393D01*
X-1751406Y135541D01*
X-1751394Y135150D01*
X-1751474Y134617D01*
X-1751474Y120157D01*
X-1751410Y119802D01*
X-1751434Y119442D01*
X-1751213Y118704D01*
X-1751077Y117947D01*
X-1750894Y117638D01*
X-1750791Y117291D01*
X-1750327Y116675D01*
X-1749936Y116014D01*
X-1749657Y115787D01*
X-1749440Y115499D01*
X-1748791Y115083D01*
X-1748194Y114598D01*
X-1747853Y114483D01*
X-1747549Y114288D01*
X-1746797Y114125D01*
X-1746068Y113878D01*
X-1745708Y113888D01*
X-1745355Y113811D01*
X-1744332Y113927D01*
X-1743824Y113942D01*
X-1743676Y114002D01*
X-1743481Y114024D01*
X-1738345Y115400D01*
X-1712698Y115400D01*
X-1712698Y66351D01*
X-1712583Y65706D01*
X-1712564Y65050D01*
X-1712386Y64609D01*
X-1712302Y64142D01*
X-1711968Y63577D01*
X-1711723Y62969D01*
X-1711403Y62618D01*
X-1711161Y62208D01*
X-1710651Y61794D01*
X-1710210Y61310D01*
X-1709788Y61093D01*
X-1709418Y60793D01*
X-1708796Y60582D01*
X-1708214Y60282D01*
X-1707671Y60200D01*
X-1707292Y60072D01*
X-1706893Y60083D01*
X-1706349Y60002D01*
X-1699998Y60002D01*
X-1699998Y53650D01*
X-1699882Y53005D01*
X-1699863Y52349D01*
X-1699685Y51908D01*
X-1699601Y51441D01*
X-1699268Y50876D01*
X-1699022Y50268D01*
X-1698702Y49917D01*
X-1698460Y49508D01*
X-1697951Y49093D01*
X-1697509Y48610D01*
X-1697088Y48392D01*
X-1696718Y48092D01*
X-1696095Y47881D01*
X-1695514Y47581D01*
X-1694970Y47500D01*
X-1694592Y47371D01*
X-1694193Y47383D01*
X-1693649Y47301D01*
X-1639599Y47301D01*
X-1639599Y26656D01*
X-1641331Y20195D01*
X-1644675Y14403D01*
X-1648407Y10671D01*
X-1648781Y10134D01*
X-1649232Y9656D01*
X-1649418Y9218D01*
X-1649689Y8828D01*
X-1649853Y8193D01*
X-1650108Y7590D01*
X-1650130Y7115D01*
X-1650249Y6654D01*
X-1650182Y6002D01*
X-1650212Y5347D01*
X-1650067Y4894D01*
X-1650018Y4422D01*
X-1649728Y3833D01*
X-1649528Y3209D01*
X-1649201Y2767D01*
X-1649024Y2408D01*
X-1648734Y2134D01*
X-1648407Y1692D01*
X-1644999Y-1716D01*
X-1644999Y-78284D01*
X-1655745Y-89030D01*
X-1656119Y-89568D01*
X-1656570Y-90045D01*
X-1656756Y-90483D01*
X-1657027Y-90873D01*
X-1657191Y-91508D01*
X-1657447Y-92112D01*
X-1657468Y-92586D01*
X-1657587Y-93047D01*
X-1657520Y-93700D01*
X-1657550Y-94354D01*
X-1657405Y-94807D01*
X-1657356Y-95280D01*
X-1657066Y-95868D01*
X-1656866Y-96493D01*
X-1656538Y-96936D01*
X-1656362Y-97293D01*
X-1656072Y-97567D01*
X-1655745Y-98009D01*
X-1640314Y-113440D01*
X-1639968Y-113680D01*
X-1639685Y-113991D01*
X-1639055Y-114315D01*
X-1638471Y-114722D01*
X-1638063Y-114827D01*
X-1637690Y-115019D01*
X-1636796Y-115153D01*
X-1636298Y-115282D01*
X-1636087Y-115260D01*
X-1635825Y-115299D01*
X-1618350Y-115299D01*
X-1617705Y-115183D01*
X-1617049Y-115165D01*
X-1616608Y-114987D01*
X-1616140Y-114903D01*
X-1615576Y-114569D01*
X-1614968Y-114323D01*
X-1614617Y-114003D01*
X-1614207Y-113762D01*
X-1613793Y-113252D01*
X-1613309Y-112811D01*
X-1613092Y-112389D01*
X-1612791Y-112019D01*
X-1612580Y-111397D01*
X-1612281Y-110815D01*
X-1612199Y-110272D01*
X-1612071Y-109893D01*
X-1612082Y-109494D01*
X-1612000Y-108950D01*
X-1612000Y-104215D01*
X-1608843Y-101058D01*
X-1608468Y-100519D01*
X-1608018Y-100042D01*
X-1607832Y-99605D01*
X-1607561Y-99215D01*
X-1607397Y-98579D01*
X-1607141Y-97976D01*
X-1607119Y-97502D01*
X-1607000Y-97041D01*
X-1607068Y-96388D01*
X-1607038Y-95733D01*
X-1607183Y-95280D01*
X-1607232Y-94808D01*
X-1607522Y-94220D01*
X-1607722Y-93595D01*
X-1608005Y-93212D01*
X-1608054Y-93091D01*
X-1608109Y-93030D01*
X-1608225Y-92795D01*
X-1608515Y-92522D01*
X-1608843Y-92078D01*
X-1610325Y-90596D01*
X-1613669Y-84804D01*
X-1615400Y-78344D01*
X-1615400Y-12698D01*
X-1481351Y-12698D01*
X-1480706Y-12583D01*
X-1480050Y-12564D01*
X-1479609Y-12386D01*
X-1479142Y-12302D01*
X-1478577Y-11968D01*
X-1477969Y-11723D01*
X-1477618Y-11403D01*
X-1477208Y-11161D01*
X-1476794Y-10651D01*
X-1476310Y-10210D01*
X-1476093Y-9788D01*
X-1475793Y-9418D01*
X-1475582Y-8796D01*
X-1475282Y-8214D01*
X-1475200Y-7671D01*
X-1475072Y-7292D01*
X-1475083Y-6893D01*
X-1475002Y-6349D01*
X-1475002Y6349D01*
X-1475118Y6994D01*
X-1475136Y7650D01*
X-1475314Y8091D01*
X-1475398Y8558D01*
X-1475732Y9123D01*
X-1475978Y9731D01*
X-1476298Y10082D01*
X-1476539Y10492D01*
X-1477049Y10906D01*
X-1477490Y11390D01*
X-1477912Y11607D01*
X-1478282Y11908D01*
X-1478904Y12118D01*
X-1479486Y12418D01*
X-1480029Y12500D01*
X-1480408Y12628D01*
X-1480807Y12617D01*
X-1481351Y12698D01*
X-1615400Y12698D01*
X-1615400Y78344D01*
X-1613669Y84805D01*
X-1611551Y88473D01*
X-1611230Y89364D01*
X-1610858Y90241D01*
X-1610849Y90419D01*
X-1610789Y90585D01*
X-1610798Y91535D01*
X-1610755Y92483D01*
X-1610809Y92652D01*
X-1610811Y92830D01*
X-1611149Y93717D01*
X-1611439Y94622D01*
X-1611555Y94779D01*
X-1611612Y94927D01*
X-1611946Y95308D01*
X-1612560Y96139D01*
X-1613325Y96904D01*
X-1616669Y102695D01*
X-1618400Y109156D01*
X-1618400Y136500D01*
X-1575152Y136500D01*
X-1574507Y136616D01*
X-1573851Y136635D01*
X-1573410Y136813D01*
X-1572943Y136897D01*
X-1572378Y137230D01*
X-1571770Y137476D01*
X-1571419Y137796D01*
X-1571009Y138038D01*
X-1570595Y138548D01*
X-1570111Y138989D01*
X-1569894Y139411D01*
X-1569593Y139780D01*
X-1569383Y140403D01*
X-1569083Y140984D01*
X-1569001Y141528D01*
X-1568873Y141906D01*
X-1568884Y142305D01*
X-1568803Y142849D01*
X-1568803Y146803D01*
X-1564849Y146803D01*
X-1564204Y146918D01*
X-1563548Y146937D01*
X-1563108Y147115D01*
X-1562640Y147199D01*
X-1562075Y147533D01*
X-1561467Y147778D01*
X-1561116Y148098D01*
X-1560707Y148340D01*
X-1560293Y148850D01*
X-1559809Y149291D01*
X-1559591Y149713D01*
X-1559291Y150083D01*
X-1559080Y150705D01*
X-1558780Y151287D01*
X-1558699Y151830D01*
X-1558570Y152209D01*
X-1558582Y152608D01*
X-1558500Y153152D01*
X-1558500Y208900D01*
X-1543230Y208900D01*
X-1543190Y208890D01*
X-1543090Y208900D01*
X-1542820Y208900D01*
X-1542603Y208939D01*
X-1542138Y208899D01*
X-1541558Y209059D01*
X-1540957Y209121D01*
X-1540483Y209355D01*
X-1539974Y209495D01*
X-1539485Y209848D01*
X-1538944Y210115D01*
X-1538581Y210499D01*
X-1538153Y210808D01*
X-1537817Y211308D01*
X-1537403Y211747D01*
X-1537196Y212234D01*
X-1536902Y212672D01*
X-1536762Y213258D01*
X-1536526Y213814D01*
X-1536501Y214341D01*
X-1536378Y214855D01*
X-1536450Y215453D01*
X-1536423Y216056D01*
X-1536583Y216560D01*
X-1536647Y217083D01*
X-1536923Y217620D01*
X-1537106Y218194D01*
X-1537475Y218693D01*
X-1537674Y219080D01*
X-1537940Y219323D01*
X-1538227Y219712D01*
X-1542360Y223845D01*
X-1542360Y266675D01*
X-1542435Y267089D01*
X-1542415Y267510D01*
X-1542632Y268187D01*
X-1542757Y268885D01*
X-1542971Y269247D01*
X-1543099Y269648D01*
X-1543638Y270377D01*
X-1543898Y270818D01*
X-1544062Y270952D01*
X-1544220Y271165D01*
X-1544660Y271605D01*
X-1544660Y353174D01*
X-1542478Y355357D01*
X-1542103Y355895D01*
X-1541653Y356372D01*
X-1541467Y356810D01*
X-1541196Y357200D01*
X-1541032Y357835D01*
X-1540776Y358439D01*
X-1540754Y358913D01*
X-1540635Y359373D01*
X-1540703Y360026D01*
X-1540673Y360681D01*
X-1540818Y361134D01*
X-1540867Y361607D01*
X-1541157Y362195D01*
X-1541357Y362819D01*
X-1541684Y363262D01*
X-1541860Y363619D01*
X-1542150Y363893D01*
X-1542478Y364337D01*
X-1545325Y367184D01*
X-1548669Y372975D01*
X-1550400Y379436D01*
X-1550400Y463780D01*
X-1511152Y463780D01*
X-1510507Y463896D01*
X-1509851Y463915D01*
X-1509410Y464093D01*
X-1508943Y464177D01*
X-1508378Y464510D01*
X-1507770Y464756D01*
X-1507419Y465076D01*
X-1507009Y465318D01*
X-1506595Y465828D01*
X-1506111Y466269D01*
X-1505894Y466691D01*
X-1505658Y466982D01*
X-1505467Y467058D01*
X-1505116Y467378D01*
X-1504707Y467620D01*
X-1504293Y468130D01*
X-1503809Y468571D01*
X-1503591Y468993D01*
X-1503291Y469363D01*
X-1503080Y469985D01*
X-1502780Y470567D01*
X-1502699Y471110D01*
X-1502570Y471489D01*
X-1502582Y471888D01*
X-1502500Y472432D01*
X-1502500Y585180D01*
X-1491656Y585180D01*
X-1485195Y583449D01*
X-1479403Y580105D01*
X-1474675Y575376D01*
X-1473170Y572770D01*
X-1473091Y572676D01*
X-1473045Y572563D01*
X-1472371Y571824D01*
X-1471722Y571055D01*
X-1471614Y570994D01*
X-1471532Y570904D01*
X-1470642Y570445D01*
X-1469767Y569951D01*
X-1469646Y569932D01*
X-1469537Y569876D01*
X-1467671Y569595D01*
X-1361655Y569595D01*
X-1349939Y557879D01*
X-1349939Y495945D01*
X-1349823Y495300D01*
X-1349805Y494644D01*
X-1349627Y494203D01*
X-1349543Y493735D01*
X-1349209Y493171D01*
X-1348963Y492563D01*
X-1348643Y492212D01*
X-1348402Y491802D01*
X-1347892Y491388D01*
X-1347451Y490904D01*
X-1347029Y490687D01*
X-1346659Y490386D01*
X-1346037Y490175D01*
X-1345455Y489876D01*
X-1344912Y489794D01*
X-1344533Y489666D01*
X-1344134Y489677D01*
X-1343590Y489595D01*
X-1321350Y489595D01*
X-1320705Y489711D01*
X-1320049Y489730D01*
X-1319608Y489908D01*
X-1319140Y489992D01*
X-1318576Y490326D01*
X-1317968Y490571D01*
X-1317617Y490891D01*
X-1317207Y491133D01*
X-1316793Y491643D01*
X-1316309Y492084D01*
X-1316092Y492506D01*
X-1315791Y492876D01*
X-1315580Y493498D01*
X-1315281Y494079D01*
X-1315199Y494623D01*
X-1315071Y495002D01*
X-1315082Y495401D01*
X-1315000Y495945D01*
X-1315000Y593284D01*
X-1303284Y605000D01*
X-1296350Y605000D01*
X-1295705Y605116D01*
X-1295049Y605135D01*
X-1294608Y605313D01*
X-1294140Y605397D01*
X-1293576Y605731D01*
X-1292968Y605976D01*
X-1292617Y606296D01*
X-1292207Y606538D01*
X-1291793Y607048D01*
X-1291309Y607489D01*
X-1291092Y607911D01*
X-1290791Y608281D01*
X-1290580Y608903D01*
X-1290281Y609484D01*
X-1290199Y610028D01*
X-1290071Y610407D01*
X-1290082Y610806D01*
X-1290000Y611350D01*
X-1290000Y784091D01*
X-1280105Y807981D01*
X-1187226Y900860D01*
X-1186974Y901222D01*
X-1186650Y901522D01*
X-1186338Y902137D01*
X-1185944Y902703D01*
X-1185834Y903130D01*
X-1185634Y903524D01*
X-1185556Y904209D01*
X-1185383Y904877D01*
X-1185429Y905316D01*
X-1185379Y905754D01*
X-1185544Y906423D01*
X-1185615Y907110D01*
X-1185810Y907506D01*
X-1185916Y907934D01*
X-1186383Y908665D01*
X-1186608Y909123D01*
X-1186775Y909280D01*
X-1186931Y909524D01*
X-1248961Y980630D01*
X-1247833Y997160D01*
X-1107242Y1119806D01*
X-1090712Y1118679D01*
X-882607Y880124D01*
X-883734Y863594D01*
X-1024326Y740948D01*
X-1040857Y742075D01*
X-1092906Y801741D01*
X-1093582Y802283D01*
X-1094216Y802881D01*
X-1094455Y802983D01*
X-1094657Y803145D01*
X-1095483Y803419D01*
X-1096282Y803758D01*
X-1096541Y803770D01*
X-1096788Y803852D01*
X-1097657Y803821D01*
X-1098525Y803861D01*
X-1098772Y803782D01*
X-1099031Y803773D01*
X-1099835Y803442D01*
X-1100663Y803178D01*
X-1100896Y803006D01*
X-1101107Y802918D01*
X-1101481Y802573D01*
X-1102180Y802057D01*
X-1158140Y746097D01*
X-1158380Y745751D01*
X-1158691Y745468D01*
X-1158920Y745023D01*
X-1159172Y744713D01*
X-1159238Y744518D01*
X-1159422Y744253D01*
X-1159527Y743845D01*
X-1159719Y743472D01*
X-1159820Y742800D01*
X-1159892Y742587D01*
X-1159888Y742444D01*
X-1159982Y742080D01*
X-1159960Y741869D01*
X-1159999Y741607D01*
X-1159999Y611350D01*
X-1159883Y610705D01*
X-1159865Y610049D01*
X-1159687Y609608D01*
X-1159603Y609140D01*
X-1159269Y608576D01*
X-1159023Y607968D01*
X-1158703Y607617D01*
X-1158462Y607207D01*
X-1157952Y606793D01*
X-1157511Y606309D01*
X-1157089Y606092D01*
X-1156719Y605791D01*
X-1156097Y605580D01*
X-1155515Y605281D01*
X-1154972Y605199D01*
X-1154593Y605071D01*
X-1154194Y605082D01*
X-1153650Y605000D01*
X-1146715Y605000D01*
X-1134999Y593284D01*
X-1134999Y436715D01*
X-1146715Y424999D01*
X-1153650Y424999D01*
X-1154295Y424883D01*
X-1154951Y424865D01*
X-1155392Y424687D01*
X-1155859Y424603D01*
X-1156424Y424269D01*
X-1157032Y424023D01*
X-1157383Y423703D01*
X-1157793Y423462D01*
X-1158207Y422952D01*
X-1158691Y422511D01*
X-1158908Y422089D01*
X-1159208Y421719D01*
X-1159419Y421097D01*
X-1159719Y420515D01*
X-1159801Y419972D01*
X-1159929Y419593D01*
X-1159918Y419194D01*
X-1159999Y418650D01*
X-1159999Y411665D01*
X-1169895Y387775D01*
X-1188180Y369490D01*
X-1212070Y359594D01*
X-1343590Y359594D01*
X-1344235Y359478D01*
X-1344891Y359460D01*
X-1345332Y359282D01*
X-1345799Y359198D01*
X-1346364Y358864D01*
X-1346972Y358618D01*
X-1347323Y358298D01*
X-1347733Y358057D01*
X-1348147Y357547D01*
X-1348631Y357106D01*
X-1348848Y356684D01*
X-1349148Y356314D01*
X-1349359Y355692D01*
X-1349659Y355110D01*
X-1349741Y354567D01*
X-1349869Y354188D01*
X-1349858Y353789D01*
X-1349939Y353245D01*
X-1349939Y291310D01*
X-1361655Y279594D01*
X-1468310Y279594D01*
X-1468955Y279478D01*
X-1469611Y279460D01*
X-1470052Y279282D01*
X-1470519Y279198D01*
X-1471084Y278864D01*
X-1471692Y278618D01*
X-1472043Y278298D01*
X-1472453Y278057D01*
X-1472867Y277547D01*
X-1473351Y277106D01*
X-1473568Y276684D01*
X-1473868Y276314D01*
X-1474079Y275692D01*
X-1474379Y275110D01*
X-1474461Y274567D01*
X-1474589Y274188D01*
X-1474578Y273789D01*
X-1474659Y273245D01*
X-1474659Y271605D01*
X-1475100Y271165D01*
X-1475340Y270819D01*
X-1475651Y270536D01*
X-1475975Y269906D01*
X-1476382Y269322D01*
X-1476487Y268914D01*
X-1476679Y268541D01*
X-1476813Y267646D01*
X-1476942Y267148D01*
X-1476920Y266937D01*
X-1476959Y266675D01*
X-1476959Y253565D01*
X-1476885Y253151D01*
X-1476904Y252731D01*
X-1476688Y252054D01*
X-1476563Y251356D01*
X-1476349Y250994D01*
X-1476221Y250593D01*
X-1475682Y249863D01*
X-1475422Y249422D01*
X-1475258Y249289D01*
X-1475100Y249075D01*
X-1442299Y216275D01*
X-1442299Y204714D01*
X-1442225Y204301D01*
X-1442244Y203880D01*
X-1442028Y203203D01*
X-1441903Y202505D01*
X-1441689Y202143D01*
X-1441561Y201742D01*
X-1441022Y201013D01*
X-1440762Y200572D01*
X-1440598Y200438D01*
X-1440440Y200225D01*
X-1431990Y191774D01*
X-1431452Y191401D01*
X-1430975Y190950D01*
X-1430537Y190764D01*
X-1430147Y190493D01*
X-1429512Y190329D01*
X-1428908Y190073D01*
X-1428434Y190051D01*
X-1427973Y189932D01*
X-1427320Y190000D01*
X-1426666Y189970D01*
X-1426213Y190114D01*
X-1425740Y190163D01*
X-1425152Y190454D01*
X-1424528Y190653D01*
X-1424085Y190981D01*
X-1423727Y191157D01*
X-1423453Y191447D01*
X-1423010Y191774D01*
X-1411284Y203500D01*
X-1348715Y203500D01*
X-1336999Y191784D01*
X-1336999Y104215D01*
X-1340657Y100558D01*
X-1341032Y100019D01*
X-1341482Y99542D01*
X-1341668Y99104D01*
X-1341939Y98715D01*
X-1342103Y98081D01*
X-1342359Y97476D01*
X-1342381Y97001D01*
X-1342499Y96541D01*
X-1342432Y95889D01*
X-1342462Y95233D01*
X-1342317Y94780D01*
X-1342268Y94308D01*
X-1341978Y93720D01*
X-1341778Y93095D01*
X-1341451Y92652D01*
X-1341274Y92295D01*
X-1340985Y92022D01*
X-1340657Y91578D01*
X-1339674Y90596D01*
X-1336331Y84804D01*
X-1334599Y78344D01*
X-1334599Y66293D01*
X-1334443Y65419D01*
X-1334351Y64533D01*
X-1334245Y64318D01*
X-1334203Y64084D01*
X-1333752Y63320D01*
X-1333357Y62520D01*
X-1333183Y62355D01*
X-1333062Y62150D01*
X-1332373Y61591D01*
X-1331725Y60979D01*
X-1331504Y60885D01*
X-1331319Y60735D01*
X-1330476Y60449D01*
X-1329658Y60102D01*
X-1329420Y60091D01*
X-1329193Y60014D01*
X-1328303Y60040D01*
X-1327416Y59999D01*
X-1327188Y60072D01*
X-1326949Y60078D01*
X-1326126Y60411D01*
X-1325278Y60683D01*
X-1325063Y60841D01*
X-1324868Y60920D01*
X-1324490Y61264D01*
X-1323760Y61803D01*
X-1316860Y68704D01*
X-1316619Y69050D01*
X-1316309Y69333D01*
X-1315984Y69963D01*
X-1315578Y70547D01*
X-1315473Y70955D01*
X-1315281Y71328D01*
X-1315146Y72223D01*
X-1315018Y72721D01*
X-1315040Y72932D01*
X-1315000Y73193D01*
X-1315000Y213284D01*
X-1303284Y225000D01*
X-1146715Y225000D01*
X-1140666Y218951D01*
X-1140657Y218944D01*
X-1140650Y218934D01*
X-1139715Y218289D01*
X-1138823Y217669D01*
X-1138812Y217667D01*
X-1138802Y217659D01*
X-1137729Y217387D01*
X-1136650Y217109D01*
X-1136637Y217110D01*
X-1136626Y217107D01*
X-1135538Y217224D01*
X-1134417Y217340D01*
X-1134406Y217345D01*
X-1134394Y217347D01*
X-1133401Y217842D01*
X-1132404Y218334D01*
X-1132396Y218343D01*
X-1132385Y218348D01*
X-1131617Y219167D01*
X-1130862Y219966D01*
X-1130858Y219977D01*
X-1130849Y219986D01*
X-1130070Y221703D01*
X-1074692Y416337D01*
X-979890Y606724D01*
X-851721Y776447D01*
X-694549Y919728D01*
X-513722Y1031692D01*
X-331554Y1102264D01*
X-330833Y1102703D01*
X-330075Y1103078D01*
X-329879Y1103285D01*
X-329637Y1103432D01*
X-329114Y1104095D01*
X-328533Y1104710D01*
X-328422Y1104972D01*
X-328247Y1105195D01*
X-327987Y1105998D01*
X-327657Y1106777D01*
X-327643Y1107061D01*
X-327556Y1107331D01*
X-327592Y1108174D01*
X-327553Y1109019D01*
X-327640Y1109290D01*
X-327652Y1109573D01*
X-327980Y1110352D01*
X-328237Y1111157D01*
X-328426Y1111413D01*
X-328523Y1111643D01*
X-328867Y1112010D01*
X-329358Y1112674D01*
X-330174Y1113490D01*
X-336511Y1122974D01*
X-340875Y1133510D01*
X-342494Y1141650D01*
X-287602Y1141650D01*
X-286957Y1141766D01*
X-286301Y1141785D01*
X-285860Y1141963D01*
X-285393Y1142047D01*
X-285158Y1142185D01*
X-284663Y1141930D01*
X-284119Y1141849D01*
X-283741Y1141720D01*
X-283342Y1141732D01*
X-282798Y1141650D01*
X-227906Y1141650D01*
X-229540Y1133434D01*
X-229554Y1132697D01*
X-229658Y1131969D01*
X-229574Y1131585D01*
X-229582Y1131190D01*
X-229338Y1130493D01*
X-229182Y1129775D01*
X-228970Y1129444D01*
X-228840Y1129071D01*
X-228369Y1128503D01*
X-227973Y1127884D01*
X-227659Y1127647D01*
X-227407Y1127343D01*
X-226768Y1126974D01*
X-226181Y1126531D01*
X-225804Y1126418D01*
X-225463Y1126221D01*
X-224737Y1126098D01*
X-224031Y1125887D01*
X-223582Y1125903D01*
X-223249Y1125847D01*
X-222806Y1125931D01*
X-222146Y1125954D01*
X-106341Y1147602D01*
X106341Y1147602D01*
X315401Y1108522D01*
X358878Y1091679D01*
X359104Y1091635D01*
X359307Y1091530D01*
X360789Y1091308D01*
X361082Y1091251D01*
X361123Y1091258D01*
X361172Y1091250D01*
X422598Y1091250D01*
X423243Y1091366D01*
X423899Y1091385D01*
X424340Y1091563D01*
X424807Y1091647D01*
X425372Y1091980D01*
X425980Y1092226D01*
X426331Y1092546D01*
X426741Y1092788D01*
X427155Y1093298D01*
X427638Y1093739D01*
X427856Y1094161D01*
X428156Y1094530D01*
X428367Y1095153D01*
X428667Y1095734D01*
X428737Y1096202D01*
X429142Y1096365D01*
X429609Y1096449D01*
X430174Y1096783D01*
X430782Y1097028D01*
X431133Y1097348D01*
X431543Y1097590D01*
X431957Y1098100D01*
X432441Y1098541D01*
X432658Y1098963D01*
X432958Y1099333D01*
X433169Y1099955D01*
X433469Y1100537D01*
X433551Y1101080D01*
X433679Y1101459D01*
X433668Y1101858D01*
X433749Y1102402D01*
X433749Y1157294D01*
X441890Y1155675D01*
X452426Y1151311D01*
X461909Y1144974D01*
X468760Y1138123D01*
X469490Y1137615D01*
X470181Y1137054D01*
X470408Y1136977D01*
X470603Y1136841D01*
X471463Y1136619D01*
X472307Y1136333D01*
X472546Y1136340D01*
X472777Y1136281D01*
X473663Y1136372D01*
X474551Y1136398D01*
X474772Y1136487D01*
X475010Y1136512D01*
X475809Y1136906D01*
X476632Y1137239D01*
X476808Y1137400D01*
X477023Y1137506D01*
X477635Y1138154D01*
X478291Y1138752D01*
X478400Y1138963D01*
X478564Y1139138D01*
X478913Y1139959D01*
X479319Y1140747D01*
X479358Y1141009D01*
X479441Y1141204D01*
X479465Y1141717D01*
X479599Y1142613D01*
X479599Y1148344D01*
X481331Y1154804D01*
X484675Y1160596D01*
X489403Y1165325D01*
X495195Y1168669D01*
X501656Y1170400D01*
X537301Y1170400D01*
X537301Y1116351D01*
X537417Y1115706D01*
X537436Y1115050D01*
X537614Y1114609D01*
X537698Y1114142D01*
X538031Y1113577D01*
X538277Y1112969D01*
X538597Y1112618D01*
X538839Y1112208D01*
X539348Y1111794D01*
X539790Y1111310D01*
X540212Y1111093D01*
X540581Y1110793D01*
X541204Y1110582D01*
X541785Y1110282D01*
X542329Y1110200D01*
X542707Y1110072D01*
X543106Y1110083D01*
X543650Y1110002D01*
X550002Y1110002D01*
X550002Y1109998D01*
X543650Y1109998D01*
X543005Y1109882D01*
X542349Y1109863D01*
X541908Y1109685D01*
X541441Y1109601D01*
X540876Y1109268D01*
X540268Y1109022D01*
X539917Y1108702D01*
X539508Y1108460D01*
X539093Y1107951D01*
X538610Y1107509D01*
X538392Y1107088D01*
X538092Y1106718D01*
X537881Y1106095D01*
X537581Y1105514D01*
X537500Y1104970D01*
X537371Y1104592D01*
X537374Y1104509D01*
X537371Y1104502D01*
X537381Y1104178D01*
X537301Y1103649D01*
X537301Y1049599D01*
X501463Y1049599D01*
X500401Y1049408D01*
X499338Y1049233D01*
X499299Y1049211D01*
X499254Y1049203D01*
X498326Y1048655D01*
X497389Y1048120D01*
X497360Y1048085D01*
X497321Y1048062D01*
X496642Y1047226D01*
X495949Y1046398D01*
X495934Y1046355D01*
X495905Y1046319D01*
X495557Y1045293D01*
X495198Y1044282D01*
X495199Y1044237D01*
X495184Y1044193D01*
X495216Y1043105D01*
X495231Y1042037D01*
X495248Y1041995D01*
X495249Y1041949D01*
X495650Y1040956D01*
X496043Y1039944D01*
X496073Y1039909D01*
X496090Y1039868D01*
X496810Y1039079D01*
X497532Y1038264D01*
X497575Y1038240D01*
X497603Y1038209D01*
X497865Y1038074D01*
X499170Y1037329D01*
X513722Y1031692D01*
X694547Y919730D01*
X851722Y776446D01*
X950534Y645598D01*
X951144Y645033D01*
X951700Y644414D01*
X951964Y644275D01*
X952182Y644073D01*
X952949Y643757D01*
X953688Y643369D01*
X953983Y643331D01*
X954258Y643218D01*
X955089Y643189D01*
X955914Y643082D01*
X956203Y643149D01*
X956501Y643138D01*
X957292Y643401D01*
X958101Y643588D01*
X958349Y643751D01*
X958632Y643845D01*
X959282Y644365D01*
X959976Y644822D01*
X960152Y645062D01*
X960384Y645248D01*
X960813Y645964D01*
X961304Y646633D01*
X961404Y646949D01*
X961538Y647174D01*
X961630Y647665D01*
X961872Y648431D01*
X962441Y652022D01*
X968055Y669300D01*
X976299Y685481D01*
X986978Y700179D01*
X999821Y713022D01*
X1014519Y723700D01*
X1030699Y731945D01*
X1047978Y737559D01*
X1062301Y739828D01*
X1062301Y631351D01*
X1062417Y630706D01*
X1062435Y630050D01*
X1062613Y629609D01*
X1062698Y629142D01*
X1063031Y628577D01*
X1063277Y627969D01*
X1063597Y627618D01*
X1063838Y627208D01*
X1064348Y626794D01*
X1064789Y626311D01*
X1065211Y626093D01*
X1065581Y625793D01*
X1066203Y625582D01*
X1066785Y625282D01*
X1067328Y625201D01*
X1067707Y625072D01*
X1068106Y625084D01*
X1068650Y625002D01*
X1075002Y625002D01*
X1075002Y624998D01*
X1068650Y624998D01*
X1068005Y624882D01*
X1067349Y624863D01*
X1066908Y624685D01*
X1066441Y624601D01*
X1065876Y624268D01*
X1065268Y624022D01*
X1064917Y623702D01*
X1064507Y623460D01*
X1064093Y622950D01*
X1063609Y622509D01*
X1063392Y622087D01*
X1063092Y621718D01*
X1062881Y621095D01*
X1062581Y620514D01*
X1062499Y619970D01*
X1062371Y619592D01*
X1062383Y619193D01*
X1062301Y618648D01*
X1062301Y510172D01*
X1047978Y512441D01*
X1037148Y515960D01*
X1036293Y516077D01*
X1035455Y516265D01*
X1035189Y516228D01*
X1034923Y516265D01*
X1034083Y516078D01*
X1033231Y515962D01*
X1032994Y515835D01*
X1032732Y515777D01*
X1032011Y515311D01*
X1031251Y514904D01*
X1031073Y514703D01*
X1030848Y514558D01*
X1030333Y513868D01*
X1029763Y513223D01*
X1029666Y512974D01*
X1029505Y512758D01*
X1029262Y511931D01*
X1028952Y511130D01*
X1028948Y510862D01*
X1028873Y510604D01*
X1028933Y509746D01*
X1028921Y508885D01*
X1029013Y508600D01*
X1029030Y508365D01*
X1029238Y507904D01*
X1029502Y507091D01*
X1074692Y416337D01*
X1132895Y211775D01*
X1150780Y18756D01*
X1150972Y18066D01*
X1151072Y17356D01*
X1151269Y16991D01*
X1151379Y16593D01*
X1151799Y16012D01*
X1152140Y15381D01*
X1152451Y15108D01*
X1152694Y14773D01*
X1153290Y14374D01*
X1153828Y13902D01*
X1154215Y13755D01*
X1154559Y13524D01*
X1155257Y13358D01*
X1155926Y13103D01*
X1156340Y13099D01*
X1156743Y13003D01*
X1157454Y13089D01*
X1158171Y13083D01*
X1158560Y13224D01*
X1158971Y13274D01*
X1159607Y13602D01*
X1160282Y13846D01*
X1160599Y14114D01*
X1160966Y14303D01*
X1161448Y14832D01*
X1161996Y15296D01*
X1162240Y15702D01*
X1162478Y15963D01*
X1162643Y16371D01*
X1162968Y16912D01*
X1167489Y27825D01*
X1173826Y37309D01*
X1181890Y45374D01*
X1191374Y51711D01*
X1201910Y56075D01*
X1210050Y57694D01*
X1210050Y2802D01*
X1210166Y2157D01*
X1210185Y1501D01*
X1210363Y1060D01*
X1210447Y593D01*
X1210585Y358D01*
X1210330Y-137D01*
X1210249Y-680D01*
X1210120Y-1059D01*
X1210132Y-1458D01*
X1210050Y-2002D01*
X1210050Y-56894D01*
X1201910Y-55275D01*
X1191374Y-50911D01*
X1181890Y-44574D01*
X1173826Y-36509D01*
X1167489Y-27025D01*
X1163029Y-16258D01*
X1162643Y-15656D01*
X1162337Y-15007D01*
X1162041Y-14717D01*
X1161817Y-14369D01*
X1161245Y-13938D01*
X1160732Y-13437D01*
X1160353Y-13268D01*
X1160023Y-13019D01*
X1159336Y-12815D01*
X1158682Y-12523D01*
X1158269Y-12497D01*
X1157872Y-12378D01*
X1157156Y-12426D01*
X1156441Y-12380D01*
X1156045Y-12499D01*
X1155632Y-12526D01*
X1154978Y-12819D01*
X1154291Y-13025D01*
X1153960Y-13275D01*
X1153583Y-13444D01*
X1153072Y-13946D01*
X1152500Y-14379D01*
X1152278Y-14728D01*
X1151982Y-15018D01*
X1151678Y-15667D01*
X1151292Y-16271D01*
X1151179Y-16731D01*
X1151029Y-17050D01*
X1150992Y-17488D01*
X1150841Y-18102D01*
X1132894Y-211775D01*
X1074692Y-416337D01*
X979890Y-606724D01*
X941830Y-657124D01*
X941625Y-657528D01*
X941338Y-657881D01*
X941121Y-658522D01*
X940815Y-659126D01*
X940763Y-659577D01*
X940618Y-660007D01*
X940637Y-660684D01*
X940560Y-661356D01*
X940669Y-661796D01*
X940682Y-662251D01*
X940936Y-662879D01*
X941098Y-663536D01*
X941353Y-663911D01*
X941523Y-664332D01*
X941979Y-664832D01*
X942360Y-665392D01*
X942730Y-665656D01*
X943036Y-665991D01*
X943637Y-666300D01*
X944189Y-666693D01*
X944629Y-666812D01*
X945031Y-667019D01*
X945867Y-667145D01*
X946357Y-667277D01*
X946597Y-667254D01*
X946897Y-667299D01*
X1043650Y-667299D01*
X1044295Y-667183D01*
X1044951Y-667165D01*
X1045392Y-666987D01*
X1045859Y-666903D01*
X1046424Y-666569D01*
X1047032Y-666323D01*
X1047383Y-666003D01*
X1047793Y-665762D01*
X1048207Y-665252D01*
X1048691Y-664811D01*
X1048908Y-664389D01*
X1049208Y-664019D01*
X1049419Y-663397D01*
X1049719Y-662815D01*
X1049801Y-662272D01*
X1049929Y-661893D01*
X1049918Y-661494D01*
X1049999Y-660950D01*
X1049999Y-656715D01*
X1061715Y-644999D01*
X1138284Y-644999D01*
X1145510Y-652225D01*
X1146049Y-652600D01*
X1146526Y-653050D01*
X1146963Y-653236D01*
X1147353Y-653507D01*
X1147989Y-653671D01*
X1148592Y-653927D01*
X1149066Y-653949D01*
X1149527Y-654068D01*
X1150180Y-654000D01*
X1150834Y-654030D01*
X1151287Y-653885D01*
X1151760Y-653836D01*
X1152348Y-653546D01*
X1152973Y-653346D01*
X1153416Y-653019D01*
X1153773Y-652843D01*
X1154047Y-652553D01*
X1154490Y-652225D01*
X1161715Y-644999D01*
X1238284Y-644999D01*
X1250000Y-656715D01*
X1250000Y-730950D01*
X1250116Y-731595D01*
X1250135Y-732251D01*
X1250313Y-732692D01*
X1250397Y-733159D01*
X1250731Y-733724D01*
X1250976Y-734332D01*
X1251296Y-734683D01*
X1251538Y-735093D01*
X1252048Y-735507D01*
X1252489Y-735991D01*
X1252911Y-736208D01*
X1253281Y-736508D01*
X1253903Y-736719D01*
X1254484Y-737019D01*
X1255028Y-737101D01*
X1255407Y-737229D01*
X1255806Y-737218D01*
X1256350Y-737299D01*
X1308825Y-737299D01*
X1309239Y-737225D01*
G37*
G36*
X184257Y-1731663D02*
X184257Y-1731663D01*
X184639Y-1731580D01*
X185179Y-1731562D01*
X435429Y-1685338D01*
X435796Y-1685200D01*
X436326Y-1685103D01*
X545792Y-1647759D01*
X545868Y-1647717D01*
X545952Y-1647702D01*
X546844Y-1647176D01*
X547755Y-1646670D01*
X547811Y-1646605D01*
X547885Y-1646561D01*
X548541Y-1645753D01*
X549217Y-1644966D01*
X549246Y-1644886D01*
X549301Y-1644819D01*
X549637Y-1643828D01*
X549994Y-1642860D01*
X549993Y-1642774D01*
X550021Y-1642693D01*
X549991Y-1641652D01*
X549989Y-1640615D01*
X549959Y-1640535D01*
X549957Y-1640449D01*
X549569Y-1639488D01*
X549204Y-1638512D01*
X549148Y-1638447D01*
X549116Y-1638368D01*
X548419Y-1637604D01*
X547736Y-1636814D01*
X547698Y-1636793D01*
X547698Y-1577698D01*
X595400Y-1577698D01*
X595400Y-1613344D01*
X593561Y-1620209D01*
X593395Y-1620668D01*
X593015Y-1621697D01*
X593015Y-1621720D01*
X593008Y-1621742D01*
X593018Y-1622840D01*
X593020Y-1623942D01*
X593028Y-1623964D01*
X593028Y-1623987D01*
X593419Y-1625011D01*
X593805Y-1626045D01*
X593821Y-1626063D01*
X593829Y-1626084D01*
X594542Y-1626897D01*
X595273Y-1627743D01*
X595294Y-1627754D01*
X595309Y-1627772D01*
X596287Y-1628300D01*
X597241Y-1628824D01*
X597263Y-1628828D01*
X597284Y-1628839D01*
X598391Y-1628995D01*
X599461Y-1629153D01*
X599486Y-1629149D01*
X599507Y-1629152D01*
X599687Y-1629113D01*
X601317Y-1628817D01*
X677179Y-1602936D01*
X677522Y-1602746D01*
X678033Y-1602573D01*
X868793Y-1504497D01*
X869388Y-1504042D01*
X870033Y-1503661D01*
X870273Y-1503365D01*
X870577Y-1503133D01*
X870976Y-1502500D01*
X871448Y-1501919D01*
X871571Y-1501557D01*
X871774Y-1501235D01*
X871928Y-1500503D01*
X872169Y-1499793D01*
X872158Y-1499411D01*
X872236Y-1499038D01*
X872126Y-1498298D01*
X872104Y-1497549D01*
X871961Y-1497195D01*
X871905Y-1496818D01*
X871544Y-1496162D01*
X871263Y-1495468D01*
X871006Y-1495186D01*
X870822Y-1494851D01*
X870254Y-1494361D01*
X869750Y-1493809D01*
X869412Y-1493635D01*
X869122Y-1493385D01*
X868419Y-1493123D01*
X867755Y-1492781D01*
X867327Y-1492716D01*
X867018Y-1492602D01*
X866560Y-1492601D01*
X865890Y-1492500D01*
X841253Y-1492500D01*
X813339Y-1464586D01*
X812608Y-1464078D01*
X811919Y-1463517D01*
X811693Y-1463441D01*
X811497Y-1463304D01*
X810635Y-1463082D01*
X809793Y-1462797D01*
X809554Y-1462803D01*
X809323Y-1462744D01*
X808437Y-1462835D01*
X807549Y-1462861D01*
X807328Y-1462950D01*
X807090Y-1462975D01*
X806290Y-1463370D01*
X805468Y-1463702D01*
X805292Y-1463863D01*
X805077Y-1463969D01*
X804463Y-1464618D01*
X803809Y-1465215D01*
X803700Y-1465427D01*
X803535Y-1465601D01*
X803187Y-1466422D01*
X802781Y-1467210D01*
X802741Y-1467472D01*
X802658Y-1467668D01*
X802635Y-1468180D01*
X802500Y-1469076D01*
X802500Y-1471746D01*
X771746Y-1502500D01*
X728253Y-1502500D01*
X710313Y-1484560D01*
X709967Y-1484319D01*
X709684Y-1484009D01*
X709054Y-1483684D01*
X708470Y-1483278D01*
X708062Y-1483173D01*
X707689Y-1482981D01*
X706794Y-1482846D01*
X706296Y-1482718D01*
X706085Y-1482740D01*
X705823Y-1482700D01*
X686455Y-1482700D01*
X683732Y-1479977D01*
X683607Y-1479891D01*
X683515Y-1479770D01*
X682689Y-1479252D01*
X681889Y-1478696D01*
X681742Y-1478658D01*
X681613Y-1478577D01*
X680662Y-1478379D01*
X679715Y-1478135D01*
X679563Y-1478151D01*
X679415Y-1478120D01*
X678454Y-1478266D01*
X677482Y-1478366D01*
X677346Y-1478433D01*
X677196Y-1478456D01*
X676341Y-1478930D01*
X675469Y-1479360D01*
X675365Y-1479470D01*
X675232Y-1479544D01*
X673963Y-1480939D01*
X669974Y-1486910D01*
X661909Y-1494974D01*
X652426Y-1501311D01*
X641890Y-1505675D01*
X633749Y-1507294D01*
X633749Y-1452402D01*
X633633Y-1451757D01*
X633615Y-1451101D01*
X633437Y-1450660D01*
X633353Y-1450193D01*
X633214Y-1449958D01*
X633469Y-1449463D01*
X633551Y-1448919D01*
X633679Y-1448541D01*
X633668Y-1448142D01*
X633749Y-1447598D01*
X633749Y-1392706D01*
X641890Y-1394325D01*
X652426Y-1398689D01*
X657423Y-1402028D01*
X657671Y-1402136D01*
X657881Y-1402307D01*
X658694Y-1402583D01*
X659480Y-1402925D01*
X659750Y-1402940D01*
X660007Y-1403028D01*
X660867Y-1403003D01*
X661722Y-1403051D01*
X661980Y-1402971D01*
X662251Y-1402963D01*
X663047Y-1402642D01*
X663866Y-1402388D01*
X664081Y-1402223D01*
X664332Y-1402122D01*
X664965Y-1401544D01*
X665647Y-1401021D01*
X665791Y-1400791D01*
X665991Y-1400609D01*
X666383Y-1399848D01*
X666840Y-1399120D01*
X666895Y-1398854D01*
X667019Y-1398614D01*
X667212Y-1397330D01*
X667297Y-1396922D01*
X667285Y-1396844D01*
X667299Y-1396748D01*
X667299Y-1342220D01*
X667143Y-1341346D01*
X667051Y-1340460D01*
X666945Y-1340245D01*
X666903Y-1340010D01*
X666452Y-1339246D01*
X666057Y-1338447D01*
X665883Y-1338282D01*
X665762Y-1338077D01*
X665073Y-1337517D01*
X664425Y-1336905D01*
X664204Y-1336812D01*
X664019Y-1336661D01*
X663176Y-1336376D01*
X662358Y-1336028D01*
X662120Y-1336018D01*
X661893Y-1335941D01*
X661003Y-1335966D01*
X660116Y-1335925D01*
X659888Y-1335998D01*
X659649Y-1336005D01*
X658826Y-1336338D01*
X657978Y-1336609D01*
X657763Y-1336767D01*
X657568Y-1336846D01*
X657190Y-1337191D01*
X656460Y-1337730D01*
X612619Y-1381571D01*
X612397Y-1381891D01*
X612107Y-1382150D01*
X611760Y-1382806D01*
X611337Y-1383414D01*
X611240Y-1383792D01*
X611058Y-1384135D01*
X610962Y-1384869D01*
X610777Y-1385588D01*
X610817Y-1385976D01*
X610767Y-1386361D01*
X610932Y-1387082D01*
X611008Y-1387821D01*
X611181Y-1388171D01*
X611268Y-1388549D01*
X611673Y-1389168D01*
X612002Y-1389834D01*
X612286Y-1390102D01*
X612498Y-1390427D01*
X613094Y-1390865D01*
X613634Y-1391375D01*
X613993Y-1391528D01*
X614306Y-1391758D01*
X615018Y-1391963D01*
X615701Y-1392252D01*
X616089Y-1392270D01*
X616250Y-1392316D01*
X616250Y-1441250D01*
X567328Y-1441250D01*
X567330Y-1441103D01*
X567202Y-1440736D01*
X567162Y-1440349D01*
X566833Y-1439684D01*
X566588Y-1438984D01*
X566340Y-1438685D01*
X566168Y-1438336D01*
X565628Y-1437826D01*
X565156Y-1437256D01*
X564819Y-1437062D01*
X564536Y-1436794D01*
X563852Y-1436504D01*
X563211Y-1436135D01*
X562828Y-1436070D01*
X562469Y-1435918D01*
X561728Y-1435883D01*
X560998Y-1435760D01*
X560616Y-1435832D01*
X560227Y-1435814D01*
X559520Y-1436040D01*
X558792Y-1436178D01*
X558459Y-1436379D01*
X558088Y-1436498D01*
X557309Y-1437074D01*
X556870Y-1437339D01*
X556756Y-1437483D01*
X556571Y-1437619D01*
X539190Y-1455000D01*
X459576Y-1455000D01*
X458702Y-1455157D01*
X457815Y-1455249D01*
X457601Y-1455355D01*
X457366Y-1455397D01*
X456601Y-1455849D01*
X455803Y-1456243D01*
X455639Y-1456417D01*
X455433Y-1456538D01*
X454872Y-1457229D01*
X454261Y-1457875D01*
X454168Y-1458095D01*
X454017Y-1458281D01*
X453731Y-1459125D01*
X453384Y-1459942D01*
X453373Y-1460180D01*
X453297Y-1460407D01*
X453322Y-1461296D01*
X453281Y-1462184D01*
X453354Y-1462412D01*
X453361Y-1462651D01*
X453694Y-1463475D01*
X453965Y-1464323D01*
X454123Y-1464536D01*
X454202Y-1464732D01*
X454547Y-1465110D01*
X455086Y-1465840D01*
X457500Y-1468253D01*
X457500Y-1506586D01*
X457575Y-1506999D01*
X457555Y-1507420D01*
X457772Y-1508097D01*
X457897Y-1508795D01*
X458111Y-1509157D01*
X458239Y-1509559D01*
X458778Y-1510288D01*
X459038Y-1510728D01*
X459202Y-1510862D01*
X459360Y-1511076D01*
X460000Y-1511716D01*
X460000Y-1618284D01*
X448284Y-1630000D01*
X361715Y-1630000D01*
X349999Y-1618284D01*
X349999Y-1604050D01*
X349883Y-1603405D01*
X349865Y-1602749D01*
X349687Y-1602308D01*
X349603Y-1601840D01*
X349269Y-1601276D01*
X349023Y-1600668D01*
X348703Y-1600317D01*
X348462Y-1599907D01*
X347952Y-1599493D01*
X347511Y-1599009D01*
X347089Y-1598792D01*
X346719Y-1598491D01*
X346097Y-1598280D01*
X345515Y-1597981D01*
X344972Y-1597899D01*
X344593Y-1597771D01*
X344194Y-1597782D01*
X343650Y-1597700D01*
X276455Y-1597700D01*
X188314Y-1509560D01*
X187968Y-1509319D01*
X187685Y-1509009D01*
X187055Y-1508684D01*
X186471Y-1508278D01*
X186063Y-1508173D01*
X185690Y-1507981D01*
X184796Y-1507846D01*
X184298Y-1507718D01*
X184087Y-1507740D01*
X183825Y-1507700D01*
X83380Y-1507700D01*
X82620Y-1507837D01*
X81848Y-1507888D01*
X81522Y-1508034D01*
X81171Y-1508097D01*
X80506Y-1508489D01*
X79800Y-1508806D01*
X79545Y-1509057D01*
X79237Y-1509238D01*
X78750Y-1509838D01*
X78199Y-1510380D01*
X78047Y-1510703D01*
X77822Y-1510981D01*
X77573Y-1511713D01*
X77245Y-1512412D01*
X77216Y-1512768D01*
X77101Y-1513107D01*
X77123Y-1513880D01*
X77059Y-1514649D01*
X77157Y-1515041D01*
X77165Y-1515351D01*
X77342Y-1515788D01*
X77514Y-1516480D01*
X80675Y-1524110D01*
X82294Y-1532250D01*
X27402Y-1532250D01*
X26757Y-1532366D01*
X26101Y-1532385D01*
X25660Y-1532563D01*
X25193Y-1532647D01*
X24958Y-1532785D01*
X24463Y-1532530D01*
X23919Y-1532449D01*
X23541Y-1532320D01*
X23142Y-1532332D01*
X22598Y-1532250D01*
X-32294Y-1532250D01*
X-30675Y-1524110D01*
X-27514Y-1516480D01*
X-27349Y-1515726D01*
X-27101Y-1514993D01*
X-27111Y-1514635D01*
X-27035Y-1514287D01*
X-27143Y-1513521D01*
X-27165Y-1512749D01*
X-27299Y-1512418D01*
X-27349Y-1512064D01*
X-27718Y-1511383D01*
X-28007Y-1510668D01*
X-28247Y-1510404D01*
X-28417Y-1510089D01*
X-29000Y-1509578D01*
X-29519Y-1509009D01*
X-29836Y-1508846D01*
X-30106Y-1508610D01*
X-30829Y-1508334D01*
X-31515Y-1507981D01*
X-31914Y-1507921D01*
X-32203Y-1507810D01*
X-32675Y-1507806D01*
X-33380Y-1507700D01*
X-65650Y-1507700D01*
X-66295Y-1507816D01*
X-66951Y-1507835D01*
X-67392Y-1508013D01*
X-67859Y-1508097D01*
X-68424Y-1508431D01*
X-69032Y-1508676D01*
X-69383Y-1508996D01*
X-69793Y-1509238D01*
X-70207Y-1509748D01*
X-70691Y-1510189D01*
X-70908Y-1510611D01*
X-71208Y-1510981D01*
X-71419Y-1511603D01*
X-71719Y-1512184D01*
X-71801Y-1512728D01*
X-71929Y-1513107D01*
X-71918Y-1513506D01*
X-71999Y-1514050D01*
X-71999Y-1548284D01*
X-83715Y-1560000D01*
X-170284Y-1560000D01*
X-173425Y-1556860D01*
X-173771Y-1556619D01*
X-174054Y-1556309D01*
X-174684Y-1555984D01*
X-175268Y-1555578D01*
X-175676Y-1555473D01*
X-176049Y-1555281D01*
X-176943Y-1555146D01*
X-177442Y-1555018D01*
X-177653Y-1555040D01*
X-177914Y-1555000D01*
X-204093Y-1555000D01*
X-211660Y-1547433D01*
X-212390Y-1546926D01*
X-213081Y-1546364D01*
X-213308Y-1546288D01*
X-213503Y-1546152D01*
X-214363Y-1545930D01*
X-215207Y-1545644D01*
X-215446Y-1545651D01*
X-215677Y-1545591D01*
X-216563Y-1545683D01*
X-217451Y-1545708D01*
X-217672Y-1545798D01*
X-217910Y-1545822D01*
X-218709Y-1546217D01*
X-219532Y-1546549D01*
X-219708Y-1546710D01*
X-219923Y-1546816D01*
X-220535Y-1547464D01*
X-221191Y-1548062D01*
X-221300Y-1548274D01*
X-221464Y-1548448D01*
X-221813Y-1549269D01*
X-222219Y-1550058D01*
X-222258Y-1550319D01*
X-222341Y-1550515D01*
X-222365Y-1551028D01*
X-222499Y-1551923D01*
X-222499Y-1558746D01*
X-253253Y-1589500D01*
X-296746Y-1589500D01*
X-304160Y-1582086D01*
X-304890Y-1581578D01*
X-305581Y-1581017D01*
X-305808Y-1580940D01*
X-306003Y-1580804D01*
X-306863Y-1580583D01*
X-307707Y-1580297D01*
X-307946Y-1580303D01*
X-308177Y-1580244D01*
X-309063Y-1580335D01*
X-309951Y-1580361D01*
X-310172Y-1580450D01*
X-310410Y-1580475D01*
X-311209Y-1580869D01*
X-312032Y-1581202D01*
X-312208Y-1581363D01*
X-312423Y-1581469D01*
X-313035Y-1582117D01*
X-313691Y-1582715D01*
X-313800Y-1582927D01*
X-313964Y-1583101D01*
X-314313Y-1583922D01*
X-314719Y-1584710D01*
X-314758Y-1584972D01*
X-314841Y-1585168D01*
X-314865Y-1585680D01*
X-314999Y-1586576D01*
X-314999Y-1633284D01*
X-326715Y-1645000D01*
X-383284Y-1645000D01*
X-395000Y-1633284D01*
X-395000Y-1419889D01*
X-395116Y-1419244D01*
X-395135Y-1418588D01*
X-395313Y-1418147D01*
X-395397Y-1417680D01*
X-395731Y-1417115D01*
X-395976Y-1416507D01*
X-396296Y-1416156D01*
X-396538Y-1415746D01*
X-397048Y-1415332D01*
X-397489Y-1414848D01*
X-397911Y-1414631D01*
X-398281Y-1414331D01*
X-398903Y-1414120D01*
X-399484Y-1413820D01*
X-400028Y-1413738D01*
X-400407Y-1413610D01*
X-400806Y-1413622D01*
X-401350Y-1413540D01*
X-423499Y-1413540D01*
X-423854Y-1413603D01*
X-424214Y-1413580D01*
X-424952Y-1413801D01*
X-425709Y-1413937D01*
X-426019Y-1414119D01*
X-426364Y-1414223D01*
X-426980Y-1414687D01*
X-427642Y-1415078D01*
X-427869Y-1415357D01*
X-428157Y-1415574D01*
X-428572Y-1416222D01*
X-429058Y-1416820D01*
X-429174Y-1417162D01*
X-429368Y-1417465D01*
X-429531Y-1418216D01*
X-429778Y-1418946D01*
X-429768Y-1419306D01*
X-429845Y-1419658D01*
X-429728Y-1420684D01*
X-429714Y-1421190D01*
X-429655Y-1421337D01*
X-429633Y-1421533D01*
X-429599Y-1421656D01*
X-429599Y-1515000D01*
X-471348Y-1515000D01*
X-471993Y-1515116D01*
X-472649Y-1515135D01*
X-473090Y-1515313D01*
X-473557Y-1515397D01*
X-474122Y-1515730D01*
X-474730Y-1515976D01*
X-474985Y-1516209D01*
X-475213Y-1516091D01*
X-475583Y-1515791D01*
X-476205Y-1515580D01*
X-476787Y-1515280D01*
X-477330Y-1515199D01*
X-477709Y-1515070D01*
X-478108Y-1515082D01*
X-478652Y-1515000D01*
X-520400Y-1515000D01*
X-520400Y-1421656D01*
X-520367Y-1421533D01*
X-520337Y-1421173D01*
X-520221Y-1420832D01*
X-520243Y-1420062D01*
X-520179Y-1419296D01*
X-520275Y-1418948D01*
X-520286Y-1418588D01*
X-520574Y-1417875D01*
X-520780Y-1417133D01*
X-520992Y-1416841D01*
X-521127Y-1416507D01*
X-521645Y-1415938D01*
X-522097Y-1415315D01*
X-522397Y-1415114D01*
X-522640Y-1414848D01*
X-523323Y-1414497D01*
X-523964Y-1414068D01*
X-524316Y-1413985D01*
X-524635Y-1413820D01*
X-525653Y-1413667D01*
X-526148Y-1413549D01*
X-526307Y-1413569D01*
X-526500Y-1413540D01*
X-548650Y-1413540D01*
X-549295Y-1413656D01*
X-549951Y-1413674D01*
X-550392Y-1413853D01*
X-550859Y-1413937D01*
X-551424Y-1414270D01*
X-552032Y-1414516D01*
X-552383Y-1414836D01*
X-552793Y-1415078D01*
X-553207Y-1415587D01*
X-553691Y-1416028D01*
X-553908Y-1416450D01*
X-554208Y-1416820D01*
X-554419Y-1417443D01*
X-554719Y-1418024D01*
X-554801Y-1418568D01*
X-554929Y-1418946D01*
X-554918Y-1419345D01*
X-554999Y-1419889D01*
X-554999Y-1633284D01*
X-562602Y-1640887D01*
X-562648Y-1640953D01*
X-562714Y-1641001D01*
X-563289Y-1641875D01*
X-563884Y-1642730D01*
X-563904Y-1642808D01*
X-563949Y-1642876D01*
X-564184Y-1643893D01*
X-564444Y-1644904D01*
X-564436Y-1644985D01*
X-564454Y-1645063D01*
X-564321Y-1646094D01*
X-564213Y-1647137D01*
X-564177Y-1647209D01*
X-564167Y-1647290D01*
X-563680Y-1648216D01*
X-563219Y-1649149D01*
X-563161Y-1649205D01*
X-563123Y-1649277D01*
X-562347Y-1649973D01*
X-561587Y-1650691D01*
X-561512Y-1650723D01*
X-561452Y-1650777D01*
X-559718Y-1651519D01*
X-324851Y-1712922D01*
X-324461Y-1712952D01*
X-323939Y-1713090D01*
X-70983Y-1740923D01*
X-70592Y-1740897D01*
X-70056Y-1740957D01*
X184257Y-1731663D01*
G37*
%LPC*%
G36*
X-709288Y1031321D02*
X-709288Y1031321D01*
X-917393Y1269875D01*
X-916266Y1286405D01*
X-775674Y1409051D01*
X-759143Y1407924D01*
X-707094Y1348259D01*
X-706416Y1347715D01*
X-705784Y1347118D01*
X-705546Y1347017D01*
X-705343Y1346854D01*
X-704516Y1346580D01*
X-703718Y1346241D01*
X-703459Y1346229D01*
X-703212Y1346148D01*
X-702343Y1346178D01*
X-701475Y1346138D01*
X-701228Y1346217D01*
X-700969Y1346226D01*
X-700164Y1346558D01*
X-699337Y1346822D01*
X-699105Y1346994D01*
X-698893Y1347081D01*
X-698519Y1347427D01*
X-697820Y1347943D01*
X-691860Y1353903D01*
X-691619Y1354249D01*
X-691309Y1354532D01*
X-690984Y1355162D01*
X-690578Y1355746D01*
X-690473Y1356154D01*
X-690281Y1356528D01*
X-690146Y1357422D01*
X-690018Y1357920D01*
X-690040Y1358131D01*
X-690000Y1358393D01*
X-690000Y1378020D01*
X-690075Y1378433D01*
X-690055Y1378854D01*
X-690272Y1379531D01*
X-690397Y1380229D01*
X-690611Y1380591D01*
X-690739Y1380993D01*
X-691278Y1381722D01*
X-691538Y1382163D01*
X-691702Y1382296D01*
X-691860Y1382509D01*
X-705538Y1396187D01*
X-720000Y1431103D01*
X-720000Y1468897D01*
X-705538Y1503813D01*
X-678813Y1530538D01*
X-643897Y1545000D01*
X-606103Y1545000D01*
X-571187Y1530538D01*
X-544462Y1503813D01*
X-529999Y1468897D01*
X-529999Y1431103D01*
X-544462Y1396187D01*
X-558140Y1382509D01*
X-558380Y1382163D01*
X-558691Y1381880D01*
X-559015Y1381251D01*
X-559422Y1380667D01*
X-559527Y1380258D01*
X-559719Y1379885D01*
X-559853Y1378991D01*
X-559982Y1378493D01*
X-559960Y1378282D01*
X-559999Y1378020D01*
X-559999Y1315909D01*
X-569895Y1292019D01*
X-612774Y1249139D01*
X-613026Y1248777D01*
X-613350Y1248478D01*
X-613663Y1247863D01*
X-614056Y1247296D01*
X-614166Y1246869D01*
X-614366Y1246476D01*
X-614444Y1245791D01*
X-614617Y1245123D01*
X-614571Y1244683D01*
X-614621Y1244245D01*
X-614456Y1243576D01*
X-614385Y1242890D01*
X-614190Y1242494D01*
X-614084Y1242066D01*
X-613618Y1241334D01*
X-613392Y1240877D01*
X-613225Y1240719D01*
X-613069Y1240476D01*
X-551039Y1169370D01*
X-552167Y1152839D01*
X-692758Y1030193D01*
X-709288Y1031321D01*
G37*
%LPD*%
G36*
X989592Y-1424132D02*
X989592Y-1424132D01*
X990351Y-1424110D01*
X990696Y-1423970D01*
X991064Y-1423916D01*
X991958Y-1423460D01*
X992432Y-1423268D01*
X992557Y-1423154D01*
X992744Y-1423059D01*
X1112116Y-1337656D01*
X1112389Y-1337375D01*
X1112828Y-1337063D01*
X1296032Y-1160433D01*
X1296261Y-1160116D01*
X1296650Y-1159742D01*
X1452184Y-958319D01*
X1452365Y-957971D01*
X1452695Y-957546D01*
X1453165Y-956709D01*
X1453166Y-956708D01*
X1453166Y-956707D01*
X1456728Y-950360D01*
X1456729Y-950359D01*
X1456729Y-950358D01*
X1460292Y-944010D01*
X1460293Y-944009D01*
X1460293Y-944008D01*
X1463855Y-937661D01*
X1463856Y-937660D01*
X1463856Y-937659D01*
X1467419Y-931311D01*
X1467420Y-931310D01*
X1470982Y-924962D01*
X1470983Y-924961D01*
X1470983Y-924960D01*
X1474546Y-918613D01*
X1474546Y-918612D01*
X1474547Y-918611D01*
X1524434Y-829722D01*
X1524435Y-829721D01*
X1524435Y-829719D01*
X1527997Y-823373D01*
X1527998Y-823371D01*
X1527998Y-823370D01*
X1531561Y-817023D01*
X1531562Y-817022D01*
X1531562Y-817021D01*
X1535124Y-810673D01*
X1535125Y-810673D01*
X1535125Y-810671D01*
X1538688Y-804324D01*
X1538688Y-804323D01*
X1538689Y-804322D01*
X1542251Y-797975D01*
X1542252Y-797974D01*
X1542252Y-797973D01*
X1545815Y-791625D01*
X1545815Y-791624D01*
X1545816Y-791623D01*
X1549378Y-785276D01*
X1549379Y-785275D01*
X1549379Y-785274D01*
X1552942Y-778927D01*
X1552942Y-778926D01*
X1552943Y-778925D01*
X1556505Y-772577D01*
X1556506Y-772576D01*
X1556506Y-772575D01*
X1560068Y-766228D01*
X1560069Y-766227D01*
X1560069Y-766226D01*
X1563632Y-759878D01*
X1563633Y-759878D01*
X1563633Y-759877D01*
X1577244Y-735624D01*
X1577373Y-735254D01*
X1577638Y-734785D01*
X1621303Y-620618D01*
X1621431Y-619944D01*
X1621652Y-619293D01*
X1621639Y-618848D01*
X1621722Y-618413D01*
X1621607Y-617736D01*
X1621587Y-617049D01*
X1621421Y-616637D01*
X1621347Y-616199D01*
X1621003Y-615604D01*
X1620746Y-614968D01*
X1620447Y-614639D01*
X1620225Y-614255D01*
X1619695Y-613816D01*
X1619233Y-613309D01*
X1618839Y-613106D01*
X1618497Y-612822D01*
X1617847Y-612594D01*
X1617238Y-612281D01*
X1616733Y-612205D01*
X1616378Y-612080D01*
X1615958Y-612088D01*
X1615373Y-612000D01*
X1536550Y-612000D01*
X1535905Y-612116D01*
X1535249Y-612135D01*
X1534808Y-612313D01*
X1534340Y-612397D01*
X1533776Y-612731D01*
X1533168Y-612976D01*
X1532817Y-613296D01*
X1532407Y-613538D01*
X1531993Y-614048D01*
X1531509Y-614489D01*
X1531292Y-614911D01*
X1530991Y-615281D01*
X1530780Y-615903D01*
X1530481Y-616484D01*
X1530399Y-617028D01*
X1530271Y-617407D01*
X1530282Y-617806D01*
X1530200Y-618350D01*
X1530200Y-682874D01*
X1376414Y-836660D01*
X1375906Y-837391D01*
X1375345Y-838081D01*
X1375268Y-838308D01*
X1375132Y-838503D01*
X1374910Y-839364D01*
X1374625Y-840207D01*
X1374632Y-840446D01*
X1374572Y-840677D01*
X1374663Y-841563D01*
X1374689Y-842451D01*
X1374778Y-842672D01*
X1374803Y-842910D01*
X1375198Y-843709D01*
X1375530Y-844532D01*
X1375691Y-844708D01*
X1375797Y-844923D01*
X1376447Y-845537D01*
X1377043Y-846191D01*
X1377255Y-846300D01*
X1377429Y-846464D01*
X1378250Y-846813D01*
X1379038Y-847219D01*
X1379300Y-847258D01*
X1379496Y-847341D01*
X1380008Y-847365D01*
X1380904Y-847499D01*
X1396746Y-847499D01*
X1427500Y-878253D01*
X1427500Y-921746D01*
X1396746Y-952500D01*
X1371375Y-952500D01*
X1370961Y-952575D01*
X1370541Y-952555D01*
X1369864Y-952772D01*
X1369166Y-952897D01*
X1368804Y-953111D01*
X1368403Y-953239D01*
X1367673Y-953778D01*
X1367232Y-954038D01*
X1367099Y-954202D01*
X1366885Y-954360D01*
X1363545Y-957700D01*
X1041350Y-957700D01*
X1040705Y-957816D01*
X1040049Y-957835D01*
X1039608Y-958013D01*
X1039140Y-958097D01*
X1038576Y-958431D01*
X1037968Y-958676D01*
X1037617Y-958996D01*
X1037207Y-959238D01*
X1036793Y-959748D01*
X1036309Y-960189D01*
X1036092Y-960611D01*
X1035791Y-960981D01*
X1035580Y-961603D01*
X1035281Y-962184D01*
X1035199Y-962728D01*
X1035071Y-963107D01*
X1035082Y-963506D01*
X1035000Y-964050D01*
X1035000Y-972778D01*
X1035022Y-972899D01*
X1035005Y-973021D01*
X1035123Y-973557D01*
X1035135Y-973988D01*
X1035284Y-974356D01*
X1035397Y-974988D01*
X1035460Y-975093D01*
X1035486Y-975213D01*
X1035875Y-975818D01*
X1035976Y-976069D01*
X1036144Y-976254D01*
X1036538Y-976921D01*
X1036633Y-976998D01*
X1036700Y-977102D01*
X1038175Y-978277D01*
X1040596Y-979674D01*
X1045325Y-984404D01*
X1046723Y-986824D01*
X1046802Y-986918D01*
X1046848Y-987032D01*
X1047523Y-987773D01*
X1048171Y-988540D01*
X1048278Y-988600D01*
X1048361Y-988691D01*
X1049251Y-989149D01*
X1050126Y-989643D01*
X1050247Y-989663D01*
X1050356Y-989719D01*
X1052222Y-989999D01*
X1145784Y-989999D01*
X1157500Y-1001715D01*
X1157500Y-1029737D01*
X1157678Y-1030727D01*
X1157819Y-1031723D01*
X1157876Y-1031828D01*
X1157897Y-1031946D01*
X1158409Y-1032813D01*
X1158887Y-1033698D01*
X1158977Y-1033776D01*
X1159038Y-1033880D01*
X1159821Y-1034516D01*
X1160576Y-1035177D01*
X1160687Y-1035219D01*
X1160781Y-1035295D01*
X1161739Y-1035620D01*
X1162673Y-1035976D01*
X1162793Y-1035977D01*
X1162907Y-1036016D01*
X1163916Y-1035987D01*
X1164918Y-1035996D01*
X1165031Y-1035955D01*
X1165151Y-1035952D01*
X1166082Y-1035575D01*
X1167029Y-1035233D01*
X1167121Y-1035155D01*
X1167232Y-1035110D01*
X1167971Y-1034436D01*
X1168743Y-1033783D01*
X1168811Y-1033670D01*
X1168890Y-1033598D01*
X1169103Y-1033184D01*
X1169716Y-1032167D01*
X1173689Y-1022574D01*
X1180026Y-1013090D01*
X1188090Y-1005026D01*
X1197574Y-998689D01*
X1208110Y-994325D01*
X1216250Y-992706D01*
X1216250Y-1047598D01*
X1216366Y-1048244D01*
X1216385Y-1048899D01*
X1216563Y-1049340D01*
X1216647Y-1049807D01*
X1216785Y-1050042D01*
X1216530Y-1050537D01*
X1216449Y-1051080D01*
X1216320Y-1051459D01*
X1216332Y-1051858D01*
X1216250Y-1052402D01*
X1216250Y-1107294D01*
X1208110Y-1105675D01*
X1197574Y-1101311D01*
X1188090Y-1094974D01*
X1180026Y-1086909D01*
X1173689Y-1077425D01*
X1169716Y-1067833D01*
X1169172Y-1066985D01*
X1168661Y-1066120D01*
X1168569Y-1066045D01*
X1168504Y-1065943D01*
X1167698Y-1065337D01*
X1166919Y-1064704D01*
X1166805Y-1064666D01*
X1166710Y-1064594D01*
X1165749Y-1064308D01*
X1164793Y-1063984D01*
X1164673Y-1063987D01*
X1164558Y-1063953D01*
X1163557Y-1064019D01*
X1162549Y-1064048D01*
X1162438Y-1064093D01*
X1162318Y-1064101D01*
X1161400Y-1064513D01*
X1160468Y-1064889D01*
X1160379Y-1064970D01*
X1160270Y-1065019D01*
X1159551Y-1065725D01*
X1158809Y-1066402D01*
X1158754Y-1066508D01*
X1158669Y-1066593D01*
X1158241Y-1067504D01*
X1157781Y-1068398D01*
X1157761Y-1068528D01*
X1157715Y-1068625D01*
X1157677Y-1069090D01*
X1157500Y-1070263D01*
X1157500Y-1248284D01*
X1145784Y-1260000D01*
X1052222Y-1260000D01*
X1052101Y-1260022D01*
X1051979Y-1260005D01*
X1051000Y-1260220D01*
X1050012Y-1260397D01*
X1049907Y-1260460D01*
X1049786Y-1260486D01*
X1048942Y-1261029D01*
X1048079Y-1261538D01*
X1048001Y-1261633D01*
X1047898Y-1261700D01*
X1046723Y-1263175D01*
X1045325Y-1265596D01*
X1040596Y-1270325D01*
X1038175Y-1271723D01*
X1038082Y-1271802D01*
X1037968Y-1271848D01*
X1037227Y-1272523D01*
X1036460Y-1273171D01*
X1036399Y-1273278D01*
X1036309Y-1273361D01*
X1035850Y-1274251D01*
X1035356Y-1275126D01*
X1035337Y-1275247D01*
X1035281Y-1275356D01*
X1035135Y-1276323D01*
X1035071Y-1276514D01*
X1035076Y-1276715D01*
X1035000Y-1277222D01*
X1035000Y-1370784D01*
X1023284Y-1382500D01*
X989050Y-1382500D01*
X988405Y-1382616D01*
X987749Y-1382635D01*
X987308Y-1382813D01*
X986840Y-1382897D01*
X986276Y-1383231D01*
X985668Y-1383476D01*
X985317Y-1383796D01*
X984907Y-1384038D01*
X984493Y-1384548D01*
X984009Y-1384989D01*
X983792Y-1385411D01*
X983491Y-1385781D01*
X983280Y-1386403D01*
X982981Y-1386984D01*
X982899Y-1387528D01*
X982771Y-1387907D01*
X982782Y-1388306D01*
X982700Y-1388850D01*
X982700Y-1417895D01*
X982766Y-1418262D01*
X982743Y-1418633D01*
X982963Y-1419358D01*
X983097Y-1420104D01*
X983286Y-1420425D01*
X983394Y-1420782D01*
X983853Y-1421386D01*
X984238Y-1422038D01*
X984527Y-1422272D01*
X984752Y-1422569D01*
X985393Y-1422976D01*
X985981Y-1423453D01*
X986333Y-1423573D01*
X986648Y-1423773D01*
X987388Y-1423931D01*
X988107Y-1424174D01*
X988479Y-1424163D01*
X988843Y-1424241D01*
X989592Y-1424132D01*
G37*
G36*
X1657503Y-514844D02*
X1657503Y-514844D01*
X1658589Y-514823D01*
X1658619Y-514812D01*
X1658651Y-514811D01*
X1659661Y-514403D01*
X1660679Y-514003D01*
X1660703Y-513982D01*
X1660732Y-513970D01*
X1661527Y-513244D01*
X1662352Y-512507D01*
X1662370Y-512476D01*
X1662390Y-512457D01*
X1662495Y-512254D01*
X1663280Y-510864D01*
X1668547Y-497093D01*
X1668620Y-496709D01*
X1668814Y-496205D01*
X1724146Y-247810D01*
X1724163Y-247418D01*
X1724281Y-246893D01*
X1742858Y6911D01*
X1742817Y7301D01*
X1742858Y7838D01*
X1724281Y261643D01*
X1724184Y262023D01*
X1724146Y262560D01*
X1703350Y355917D01*
X1703228Y356210D01*
X1703183Y356523D01*
X1702797Y357237D01*
X1702483Y357988D01*
X1702266Y358219D01*
X1702115Y358497D01*
X1701505Y359032D01*
X1700948Y359627D01*
X1700665Y359768D01*
X1700427Y359977D01*
X1699668Y360266D01*
X1698940Y360629D01*
X1698625Y360663D01*
X1698329Y360776D01*
X1697516Y360783D01*
X1696708Y360870D01*
X1696401Y360793D01*
X1696084Y360795D01*
X1695320Y360519D01*
X1694532Y360320D01*
X1694271Y360140D01*
X1693973Y360033D01*
X1693352Y359507D01*
X1692683Y359046D01*
X1692501Y358787D01*
X1692259Y358583D01*
X1691672Y357606D01*
X1691645Y357568D01*
X1691510Y357401D01*
X1691493Y357351D01*
X1691393Y357209D01*
X1691362Y357092D01*
X1691287Y356966D01*
X1674621Y316731D01*
X1633269Y275379D01*
X1579241Y252999D01*
X1520759Y252999D01*
X1474111Y272322D01*
X1473581Y272438D01*
X1473082Y272649D01*
X1472493Y272675D01*
X1471918Y272801D01*
X1471381Y272725D01*
X1470839Y272750D01*
X1470278Y272569D01*
X1469695Y272487D01*
X1469218Y272229D01*
X1468702Y272063D01*
X1468258Y271735D01*
X1468168Y271698D01*
X1468067Y271606D01*
X1467720Y271419D01*
X1467515Y271184D01*
X1467186Y270941D01*
X1467055Y270809D01*
X1466817Y270466D01*
X1466509Y270185D01*
X1466323Y269823D01*
X1466241Y269730D01*
X1466161Y269521D01*
X1465775Y268964D01*
X1465671Y268560D01*
X1465481Y268190D01*
X1465345Y267287D01*
X1465218Y266790D01*
X1465239Y266583D01*
X1465200Y266325D01*
X1465200Y213850D01*
X1465316Y213205D01*
X1465335Y212549D01*
X1465513Y212108D01*
X1465597Y211640D01*
X1465931Y211076D01*
X1466176Y210468D01*
X1466496Y210117D01*
X1466738Y209707D01*
X1467248Y209293D01*
X1467689Y208809D01*
X1468111Y208592D01*
X1468481Y208291D01*
X1469103Y208080D01*
X1469684Y207781D01*
X1470228Y207699D01*
X1470607Y207571D01*
X1471006Y207582D01*
X1471550Y207500D01*
X1523284Y207500D01*
X1535000Y195784D01*
X1535000Y194050D01*
X1535116Y193405D01*
X1535135Y192749D01*
X1535313Y192308D01*
X1535397Y191840D01*
X1535731Y191276D01*
X1535976Y190668D01*
X1536296Y190317D01*
X1536538Y189907D01*
X1537048Y189493D01*
X1537489Y189009D01*
X1537911Y188792D01*
X1538281Y188491D01*
X1538903Y188280D01*
X1539484Y187981D01*
X1540028Y187899D01*
X1540407Y187771D01*
X1540806Y187782D01*
X1541350Y187700D01*
X1594545Y187700D01*
X1613700Y168545D01*
X1613700Y57137D01*
X1613837Y56377D01*
X1613888Y55605D01*
X1614034Y55279D01*
X1614097Y54928D01*
X1614489Y54263D01*
X1614806Y53557D01*
X1615057Y53302D01*
X1615238Y52994D01*
X1615838Y52507D01*
X1616380Y51956D01*
X1616703Y51804D01*
X1616981Y51579D01*
X1617713Y51331D01*
X1618412Y51003D01*
X1618768Y50973D01*
X1619107Y50858D01*
X1619880Y50880D01*
X1620649Y50816D01*
X1621041Y50914D01*
X1621351Y50923D01*
X1621788Y51099D01*
X1622480Y51271D01*
X1633110Y55675D01*
X1641250Y57294D01*
X1641250Y2402D01*
X1641366Y1757D01*
X1641385Y1101D01*
X1641563Y660D01*
X1641647Y193D01*
X1641785Y-42D01*
X1641530Y-537D01*
X1641449Y-1080D01*
X1641320Y-1459D01*
X1641332Y-1858D01*
X1641250Y-2402D01*
X1641250Y-57294D01*
X1633110Y-55675D01*
X1622480Y-51271D01*
X1621726Y-51107D01*
X1620993Y-50858D01*
X1620635Y-50868D01*
X1620287Y-50792D01*
X1619521Y-50900D01*
X1618749Y-50923D01*
X1618418Y-51056D01*
X1618064Y-51106D01*
X1617383Y-51475D01*
X1616668Y-51764D01*
X1616404Y-52004D01*
X1616089Y-52174D01*
X1615578Y-52757D01*
X1615009Y-53277D01*
X1614846Y-53593D01*
X1614610Y-53863D01*
X1614334Y-54586D01*
X1613981Y-55272D01*
X1613921Y-55671D01*
X1613810Y-55961D01*
X1613806Y-56432D01*
X1613700Y-57137D01*
X1613700Y-388668D01*
X1613796Y-389199D01*
X1613791Y-389737D01*
X1613993Y-390294D01*
X1614097Y-390878D01*
X1614371Y-391341D01*
X1614554Y-391848D01*
X1614937Y-392301D01*
X1615238Y-392811D01*
X1615656Y-393151D01*
X1616004Y-393562D01*
X1616614Y-393929D01*
X1616981Y-394227D01*
X1617274Y-394326D01*
X1617620Y-394535D01*
X1621106Y-395978D01*
X1641022Y-415895D01*
X1651800Y-441916D01*
X1651800Y-470083D01*
X1651484Y-470847D01*
X1651419Y-471143D01*
X1651281Y-471412D01*
X1651105Y-472582D01*
X1651005Y-473040D01*
X1651020Y-473147D01*
X1651000Y-473277D01*
X1651000Y-508596D01*
X1651193Y-509666D01*
X1651376Y-510747D01*
X1651392Y-510775D01*
X1651397Y-510806D01*
X1651948Y-511738D01*
X1652498Y-512692D01*
X1652522Y-512712D01*
X1652538Y-512739D01*
X1653383Y-513425D01*
X1654226Y-514124D01*
X1654256Y-514134D01*
X1654281Y-514155D01*
X1655322Y-514508D01*
X1656345Y-514866D01*
X1656376Y-514865D01*
X1656407Y-514875D01*
X1657503Y-514844D01*
G37*
G36*
X-1226437Y-1174166D02*
X-1226437Y-1174166D01*
X-1225549Y-1174140D01*
X-1225328Y-1174051D01*
X-1225090Y-1174026D01*
X-1224290Y-1173631D01*
X-1223468Y-1173299D01*
X-1223292Y-1173138D01*
X-1223077Y-1173032D01*
X-1222463Y-1172383D01*
X-1221809Y-1171786D01*
X-1221700Y-1171574D01*
X-1221535Y-1171400D01*
X-1221187Y-1170579D01*
X-1220781Y-1169791D01*
X-1220741Y-1169529D01*
X-1220658Y-1169333D01*
X-1220635Y-1168821D01*
X-1220633Y-1168812D01*
X-1220578Y-1168732D01*
X-1220473Y-1168324D01*
X-1220281Y-1167951D01*
X-1220146Y-1167056D01*
X-1220018Y-1166558D01*
X-1220040Y-1166347D01*
X-1220000Y-1166085D01*
X-1220000Y-1130360D01*
X-1220127Y-1129656D01*
X-1220161Y-1128941D01*
X-1220335Y-1128499D01*
X-1220397Y-1128151D01*
X-1220620Y-1127773D01*
X-1220851Y-1127185D01*
X-1223669Y-1122304D01*
X-1225400Y-1115844D01*
X-1225400Y-1106351D01*
X-1160003Y-1106351D01*
X-1160000Y-1106350D01*
X-1159997Y-1106351D01*
X-1094599Y-1106351D01*
X-1094483Y-1106994D01*
X-1094465Y-1107650D01*
X-1094287Y-1108091D01*
X-1094203Y-1108558D01*
X-1093869Y-1109123D01*
X-1093623Y-1109731D01*
X-1093303Y-1110082D01*
X-1093062Y-1110492D01*
X-1092552Y-1110906D01*
X-1092111Y-1111390D01*
X-1091689Y-1111607D01*
X-1091319Y-1111908D01*
X-1090697Y-1112118D01*
X-1090115Y-1112418D01*
X-1089572Y-1112500D01*
X-1089193Y-1112628D01*
X-1088794Y-1112617D01*
X-1088250Y-1112698D01*
X-1031351Y-1112698D01*
X-1030706Y-1112583D01*
X-1030050Y-1112564D01*
X-1029609Y-1112386D01*
X-1029142Y-1112302D01*
X-1028577Y-1111968D01*
X-1027969Y-1111723D01*
X-1027618Y-1111403D01*
X-1027208Y-1111161D01*
X-1026794Y-1110651D01*
X-1026310Y-1110210D01*
X-1026093Y-1109788D01*
X-1025793Y-1109418D01*
X-1025582Y-1108796D01*
X-1025282Y-1108214D01*
X-1025200Y-1107671D01*
X-1025072Y-1107292D01*
X-1025081Y-1106993D01*
X-1025072Y-1106967D01*
X-1025076Y-1106841D01*
X-1025002Y-1106349D01*
X-1025002Y-1093650D01*
X-1025118Y-1093005D01*
X-1025136Y-1092349D01*
X-1025314Y-1091908D01*
X-1025398Y-1091441D01*
X-1025732Y-1090876D01*
X-1025978Y-1090268D01*
X-1026298Y-1089917D01*
X-1026539Y-1089508D01*
X-1027049Y-1089093D01*
X-1027490Y-1088610D01*
X-1027912Y-1088392D01*
X-1028282Y-1088092D01*
X-1028904Y-1087881D01*
X-1029486Y-1087581D01*
X-1030029Y-1087500D01*
X-1030408Y-1087371D01*
X-1030807Y-1087383D01*
X-1031351Y-1087301D01*
X-1088250Y-1087301D01*
X-1088895Y-1087417D01*
X-1089551Y-1087436D01*
X-1089992Y-1087614D01*
X-1090459Y-1087698D01*
X-1091024Y-1088031D01*
X-1091632Y-1088277D01*
X-1091983Y-1088597D01*
X-1092393Y-1088839D01*
X-1092807Y-1089348D01*
X-1093291Y-1089790D01*
X-1093508Y-1090212D01*
X-1093808Y-1090581D01*
X-1094019Y-1091204D01*
X-1094319Y-1091785D01*
X-1094401Y-1092329D01*
X-1094529Y-1092707D01*
X-1094518Y-1093106D01*
X-1094599Y-1093649D01*
X-1159997Y-1093649D01*
X-1160000Y-1093649D01*
X-1160003Y-1093649D01*
X-1225400Y-1093649D01*
X-1225400Y-1084156D01*
X-1223669Y-1077695D01*
X-1220851Y-1072814D01*
X-1220608Y-1072140D01*
X-1220281Y-1071505D01*
X-1220210Y-1071037D01*
X-1220090Y-1070703D01*
X-1220094Y-1070264D01*
X-1220000Y-1069640D01*
X-1220000Y-1033914D01*
X-1220075Y-1033501D01*
X-1220055Y-1033080D01*
X-1220272Y-1032403D01*
X-1220397Y-1031705D01*
X-1220500Y-1031530D01*
X-1220500Y-987050D01*
X-1220616Y-986405D01*
X-1220635Y-985749D01*
X-1220813Y-985308D01*
X-1220897Y-984840D01*
X-1221231Y-984276D01*
X-1221476Y-983668D01*
X-1221796Y-983317D01*
X-1222038Y-982907D01*
X-1222548Y-982493D01*
X-1222989Y-982009D01*
X-1223411Y-981792D01*
X-1223781Y-981491D01*
X-1224403Y-981280D01*
X-1224984Y-980981D01*
X-1225528Y-980899D01*
X-1225907Y-980771D01*
X-1226306Y-980782D01*
X-1226850Y-980700D01*
X-1227943Y-980700D01*
X-1228357Y-980775D01*
X-1228778Y-980755D01*
X-1229454Y-980972D01*
X-1230153Y-981097D01*
X-1230514Y-981311D01*
X-1230916Y-981439D01*
X-1231645Y-981978D01*
X-1232086Y-982238D01*
X-1232219Y-982402D01*
X-1232433Y-982560D01*
X-1234895Y-985022D01*
X-1260916Y-995800D01*
X-1289921Y-995800D01*
X-1290682Y-995937D01*
X-1291453Y-995988D01*
X-1291780Y-996134D01*
X-1292131Y-996197D01*
X-1292795Y-996589D01*
X-1293502Y-996906D01*
X-1293757Y-997157D01*
X-1294064Y-997338D01*
X-1294551Y-997938D01*
X-1295103Y-998480D01*
X-1295254Y-998803D01*
X-1295480Y-999081D01*
X-1295728Y-999813D01*
X-1296056Y-1000512D01*
X-1296086Y-1000868D01*
X-1296200Y-1001207D01*
X-1296178Y-1001980D01*
X-1296242Y-1002749D01*
X-1296145Y-1003141D01*
X-1296136Y-1003451D01*
X-1295959Y-1003888D01*
X-1295787Y-1004580D01*
X-1294325Y-1008110D01*
X-1292706Y-1016250D01*
X-1341250Y-1016250D01*
X-1341250Y-966562D01*
X-1340823Y-966310D01*
X-1340118Y-965994D01*
X-1339863Y-965743D01*
X-1339555Y-965562D01*
X-1339068Y-964963D01*
X-1338517Y-964420D01*
X-1338365Y-964096D01*
X-1338139Y-963819D01*
X-1337891Y-963086D01*
X-1337563Y-962388D01*
X-1337534Y-962033D01*
X-1337419Y-961693D01*
X-1337441Y-960919D01*
X-1337377Y-960151D01*
X-1337474Y-959759D01*
X-1337483Y-959449D01*
X-1337660Y-959012D01*
X-1337832Y-958320D01*
X-1345800Y-939083D01*
X-1345800Y-910916D01*
X-1335022Y-884895D01*
X-1315105Y-864978D01*
X-1289083Y-854199D01*
X-1282092Y-854199D01*
X-1281218Y-854043D01*
X-1280332Y-853951D01*
X-1280117Y-853845D01*
X-1279882Y-853803D01*
X-1279118Y-853352D01*
X-1278318Y-852957D01*
X-1278154Y-852783D01*
X-1277949Y-852662D01*
X-1277389Y-851973D01*
X-1276777Y-851325D01*
X-1276684Y-851104D01*
X-1276533Y-850919D01*
X-1276248Y-850076D01*
X-1275900Y-849258D01*
X-1275889Y-849020D01*
X-1275813Y-848793D01*
X-1275838Y-847903D01*
X-1275797Y-847016D01*
X-1275870Y-846788D01*
X-1275877Y-846549D01*
X-1276210Y-845726D01*
X-1276481Y-844878D01*
X-1276639Y-844663D01*
X-1276718Y-844468D01*
X-1277063Y-844090D01*
X-1277602Y-843360D01*
X-1286402Y-834560D01*
X-1286676Y-834370D01*
X-1286731Y-834310D01*
X-1286780Y-834284D01*
X-1287031Y-834009D01*
X-1287661Y-833684D01*
X-1288245Y-833278D01*
X-1288653Y-833173D01*
X-1289027Y-832981D01*
X-1289921Y-832846D01*
X-1290419Y-832718D01*
X-1290630Y-832740D01*
X-1290892Y-832700D01*
X-1307668Y-832700D01*
X-1308199Y-832796D01*
X-1308737Y-832791D01*
X-1309294Y-832993D01*
X-1309878Y-833097D01*
X-1310341Y-833371D01*
X-1310848Y-833554D01*
X-1311301Y-833937D01*
X-1311811Y-834238D01*
X-1312151Y-834656D01*
X-1312562Y-835004D01*
X-1312929Y-835614D01*
X-1313227Y-835981D01*
X-1313313Y-836233D01*
X-1313352Y-836281D01*
X-1313378Y-836360D01*
X-1313535Y-836620D01*
X-1314978Y-840106D01*
X-1334895Y-860022D01*
X-1360916Y-870800D01*
X-1389083Y-870800D01*
X-1415105Y-860022D01*
X-1424097Y-851029D01*
X-1424222Y-850943D01*
X-1424314Y-850822D01*
X-1425140Y-850304D01*
X-1425940Y-849748D01*
X-1426087Y-849710D01*
X-1426216Y-849629D01*
X-1427168Y-849431D01*
X-1428114Y-849187D01*
X-1428266Y-849203D01*
X-1428414Y-849172D01*
X-1429375Y-849318D01*
X-1430347Y-849418D01*
X-1430483Y-849486D01*
X-1430633Y-849508D01*
X-1431487Y-849981D01*
X-1432360Y-850412D01*
X-1432464Y-850523D01*
X-1432597Y-850596D01*
X-1433866Y-851992D01*
X-1440226Y-861510D01*
X-1448290Y-869574D01*
X-1457774Y-875911D01*
X-1468310Y-880275D01*
X-1476450Y-881894D01*
X-1476450Y-827002D01*
X-1476566Y-826357D01*
X-1476585Y-825701D01*
X-1476763Y-825260D01*
X-1476847Y-824793D01*
X-1476985Y-824558D01*
X-1476730Y-824063D01*
X-1476649Y-823519D01*
X-1476520Y-823141D01*
X-1476532Y-822742D01*
X-1476450Y-822198D01*
X-1476450Y-767306D01*
X-1468310Y-768925D01*
X-1457774Y-773289D01*
X-1450732Y-777994D01*
X-1450592Y-778055D01*
X-1450478Y-778155D01*
X-1449571Y-778501D01*
X-1448674Y-778892D01*
X-1448522Y-778900D01*
X-1448381Y-778954D01*
X-1447406Y-778963D01*
X-1446433Y-779017D01*
X-1446288Y-778973D01*
X-1446136Y-778974D01*
X-1445219Y-778643D01*
X-1444288Y-778355D01*
X-1444168Y-778263D01*
X-1444025Y-778211D01*
X-1443280Y-777581D01*
X-1442508Y-776988D01*
X-1442427Y-776859D01*
X-1442311Y-776761D01*
X-1441338Y-775145D01*
X-1435022Y-759895D01*
X-1422008Y-746881D01*
X-1421499Y-746150D01*
X-1420939Y-745460D01*
X-1420863Y-745234D01*
X-1420726Y-745038D01*
X-1420504Y-744176D01*
X-1420218Y-743334D01*
X-1420225Y-743096D01*
X-1420166Y-742864D01*
X-1420257Y-741979D01*
X-1420283Y-741090D01*
X-1420372Y-740869D01*
X-1420397Y-740631D01*
X-1420791Y-739833D01*
X-1421124Y-739009D01*
X-1421285Y-738833D01*
X-1421391Y-738618D01*
X-1422039Y-738006D01*
X-1422637Y-737351D01*
X-1422848Y-737242D01*
X-1423023Y-737077D01*
X-1423844Y-736728D01*
X-1424632Y-736322D01*
X-1424894Y-736283D01*
X-1425089Y-736200D01*
X-1425602Y-736177D01*
X-1426498Y-736042D01*
X-1519545Y-736042D01*
X-1539759Y-715828D01*
X-1539978Y-715532D01*
X-1540238Y-715091D01*
X-1540402Y-714957D01*
X-1540560Y-714744D01*
X-1617738Y-637565D01*
X-1617761Y-637550D01*
X-1617776Y-637528D01*
X-1618678Y-636912D01*
X-1619582Y-636283D01*
X-1619608Y-636277D01*
X-1619630Y-636262D01*
X-1620688Y-635998D01*
X-1621755Y-635723D01*
X-1621782Y-635726D01*
X-1621808Y-635719D01*
X-1622898Y-635842D01*
X-1623988Y-635954D01*
X-1624013Y-635966D01*
X-1624039Y-635969D01*
X-1625013Y-636460D01*
X-1626001Y-636948D01*
X-1626020Y-636968D01*
X-1626044Y-636980D01*
X-1626777Y-637769D01*
X-1627543Y-638580D01*
X-1627553Y-638606D01*
X-1627571Y-638625D01*
X-1627984Y-639622D01*
X-1628419Y-640647D01*
X-1628421Y-640674D01*
X-1628431Y-640699D01*
X-1628472Y-641793D01*
X-1628523Y-642889D01*
X-1628514Y-642915D01*
X-1628515Y-642942D01*
X-1627977Y-644750D01*
X-1552007Y-806809D01*
X-1551575Y-807419D01*
X-1551220Y-808075D01*
X-1550932Y-808328D01*
X-1550710Y-808641D01*
X-1550093Y-809063D01*
X-1549532Y-809554D01*
X-1549173Y-809691D01*
X-1548856Y-809908D01*
X-1548131Y-810088D01*
X-1547434Y-810353D01*
X-1547051Y-810357D01*
X-1546678Y-810450D01*
X-1545934Y-810366D01*
X-1545189Y-810373D01*
X-1544829Y-810243D01*
X-1544447Y-810200D01*
X-1543780Y-809863D01*
X-1543078Y-809610D01*
X-1542785Y-809362D01*
X-1542442Y-809189D01*
X-1541935Y-808643D01*
X-1541364Y-808160D01*
X-1541139Y-807786D01*
X-1540915Y-807544D01*
X-1540740Y-807122D01*
X-1540392Y-806544D01*
X-1536511Y-797174D01*
X-1530174Y-787690D01*
X-1522109Y-779626D01*
X-1512626Y-773289D01*
X-1502090Y-768925D01*
X-1493949Y-767306D01*
X-1493949Y-822198D01*
X-1493833Y-822843D01*
X-1493815Y-823499D01*
X-1493637Y-823940D01*
X-1493553Y-824407D01*
X-1493414Y-824642D01*
X-1493669Y-825137D01*
X-1493751Y-825680D01*
X-1493879Y-826059D01*
X-1493868Y-826458D01*
X-1493949Y-827002D01*
X-1493949Y-881894D01*
X-1498002Y-881088D01*
X-1498877Y-881072D01*
X-1499748Y-880986D01*
X-1499993Y-881051D01*
X-1500247Y-881046D01*
X-1501075Y-881336D01*
X-1501919Y-881558D01*
X-1502125Y-881704D01*
X-1502365Y-881788D01*
X-1503039Y-882347D01*
X-1503755Y-882850D01*
X-1503899Y-883059D01*
X-1504093Y-883221D01*
X-1504531Y-883978D01*
X-1505027Y-884700D01*
X-1505088Y-884945D01*
X-1505215Y-885165D01*
X-1505362Y-886031D01*
X-1505575Y-886877D01*
X-1505548Y-887128D01*
X-1505590Y-887379D01*
X-1505427Y-888240D01*
X-1505332Y-889108D01*
X-1505213Y-889364D01*
X-1505171Y-889584D01*
X-1504907Y-890022D01*
X-1504536Y-890819D01*
X-1419103Y-1019952D01*
X-1418480Y-1020604D01*
X-1417902Y-1021301D01*
X-1417708Y-1021413D01*
X-1417553Y-1021576D01*
X-1416741Y-1021971D01*
X-1415958Y-1022423D01*
X-1415736Y-1022460D01*
X-1415534Y-1022558D01*
X-1414636Y-1022647D01*
X-1413744Y-1022798D01*
X-1413524Y-1022756D01*
X-1413300Y-1022778D01*
X-1412426Y-1022547D01*
X-1411539Y-1022378D01*
X-1411347Y-1022263D01*
X-1411130Y-1022205D01*
X-1410390Y-1021685D01*
X-1409617Y-1021218D01*
X-1409477Y-1021043D01*
X-1409293Y-1020914D01*
X-1408781Y-1020169D01*
X-1408219Y-1019462D01*
X-1408134Y-1019228D01*
X-1408022Y-1019064D01*
X-1407897Y-1018568D01*
X-1407580Y-1017687D01*
X-1405675Y-1008110D01*
X-1401311Y-997574D01*
X-1394974Y-988090D01*
X-1386909Y-980026D01*
X-1377426Y-973689D01*
X-1366890Y-969325D01*
X-1358749Y-967706D01*
X-1358749Y-1022598D01*
X-1358633Y-1023243D01*
X-1358615Y-1023899D01*
X-1358437Y-1024340D01*
X-1358353Y-1024807D01*
X-1358019Y-1025372D01*
X-1357773Y-1025980D01*
X-1357453Y-1026331D01*
X-1357212Y-1026741D01*
X-1356702Y-1027155D01*
X-1356261Y-1027638D01*
X-1355839Y-1027856D01*
X-1355469Y-1028156D01*
X-1354847Y-1028367D01*
X-1354265Y-1028667D01*
X-1353798Y-1028737D01*
X-1353634Y-1029142D01*
X-1353550Y-1029609D01*
X-1353217Y-1030174D01*
X-1352971Y-1030782D01*
X-1352651Y-1031133D01*
X-1352409Y-1031543D01*
X-1351900Y-1031957D01*
X-1351458Y-1032441D01*
X-1351037Y-1032658D01*
X-1350667Y-1032958D01*
X-1350044Y-1033169D01*
X-1349463Y-1033469D01*
X-1348919Y-1033551D01*
X-1348541Y-1033679D01*
X-1348142Y-1033668D01*
X-1347598Y-1033749D01*
X-1292706Y-1033749D01*
X-1293931Y-1039911D01*
X-1293934Y-1040063D01*
X-1293983Y-1040207D01*
X-1293955Y-1041183D01*
X-1293973Y-1042156D01*
X-1293923Y-1042298D01*
X-1293918Y-1042451D01*
X-1293553Y-1043355D01*
X-1293231Y-1044274D01*
X-1293134Y-1044392D01*
X-1293077Y-1044532D01*
X-1292423Y-1045249D01*
X-1291798Y-1046003D01*
X-1291666Y-1046079D01*
X-1291564Y-1046191D01*
X-1290703Y-1046635D01*
X-1289854Y-1047124D01*
X-1289703Y-1047150D01*
X-1289569Y-1047219D01*
X-1287704Y-1047499D01*
X-1278253Y-1047499D01*
X-1247499Y-1078253D01*
X-1247499Y-1121746D01*
X-1260264Y-1134511D01*
X-1260638Y-1135048D01*
X-1261089Y-1135526D01*
X-1261274Y-1135963D01*
X-1261546Y-1136353D01*
X-1261710Y-1136989D01*
X-1261966Y-1137592D01*
X-1261988Y-1138067D01*
X-1262106Y-1138528D01*
X-1262039Y-1139180D01*
X-1262069Y-1139835D01*
X-1261924Y-1140288D01*
X-1261875Y-1140760D01*
X-1261585Y-1141348D01*
X-1261385Y-1141973D01*
X-1261058Y-1142416D01*
X-1260881Y-1142773D01*
X-1260592Y-1143047D01*
X-1260264Y-1143490D01*
X-1231339Y-1172415D01*
X-1230608Y-1172923D01*
X-1229919Y-1173484D01*
X-1229693Y-1173560D01*
X-1229497Y-1173697D01*
X-1228635Y-1173919D01*
X-1227793Y-1174204D01*
X-1227554Y-1174198D01*
X-1227323Y-1174257D01*
X-1226437Y-1174166D01*
G37*
G36*
X-997861Y-862999D02*
X-997861Y-862999D01*
X-997206Y-863029D01*
X-996753Y-862884D01*
X-996281Y-862835D01*
X-995692Y-862544D01*
X-995068Y-862345D01*
X-994626Y-862018D01*
X-994268Y-861841D01*
X-993993Y-861551D01*
X-993551Y-861224D01*
X-992426Y-860099D01*
X-907634Y-860099D01*
X-906874Y-859963D01*
X-906103Y-859912D01*
X-905776Y-859766D01*
X-905425Y-859703D01*
X-904761Y-859310D01*
X-904054Y-858994D01*
X-903799Y-858743D01*
X-903492Y-858562D01*
X-903004Y-857962D01*
X-902453Y-857420D01*
X-902302Y-857097D01*
X-902076Y-856819D01*
X-901828Y-856087D01*
X-901500Y-855388D01*
X-901470Y-855032D01*
X-901355Y-854693D01*
X-901378Y-853920D01*
X-901313Y-853151D01*
X-901411Y-852759D01*
X-901420Y-852449D01*
X-901597Y-852012D01*
X-901768Y-851320D01*
X-905675Y-841890D01*
X-907294Y-833749D01*
X-852402Y-833749D01*
X-851757Y-833633D01*
X-851101Y-833615D01*
X-850660Y-833437D01*
X-850193Y-833353D01*
X-849628Y-833019D01*
X-849020Y-832773D01*
X-848669Y-832453D01*
X-848259Y-832212D01*
X-847845Y-831702D01*
X-847361Y-831261D01*
X-847144Y-830839D01*
X-846843Y-830469D01*
X-846633Y-829847D01*
X-846333Y-829265D01*
X-846251Y-828722D01*
X-846123Y-828343D01*
X-846134Y-827945D01*
X-846053Y-827400D01*
X-846053Y-822599D01*
X-846168Y-821954D01*
X-846187Y-821298D01*
X-846365Y-820858D01*
X-846449Y-820390D01*
X-846783Y-819825D01*
X-847028Y-819217D01*
X-847348Y-818866D01*
X-847590Y-818457D01*
X-848100Y-818043D01*
X-848541Y-817559D01*
X-848963Y-817341D01*
X-849333Y-817041D01*
X-849955Y-816830D01*
X-850537Y-816530D01*
X-851080Y-816449D01*
X-851459Y-816320D01*
X-851858Y-816332D01*
X-852402Y-816250D01*
X-907294Y-816250D01*
X-905675Y-808110D01*
X-901311Y-797574D01*
X-894974Y-788090D01*
X-886909Y-780026D01*
X-877425Y-773689D01*
X-867016Y-769377D01*
X-866734Y-769196D01*
X-866415Y-769090D01*
X-865794Y-768593D01*
X-865127Y-768165D01*
X-864925Y-767897D01*
X-864663Y-767687D01*
X-864253Y-767004D01*
X-863777Y-766371D01*
X-863682Y-766050D01*
X-863508Y-765761D01*
X-863363Y-764979D01*
X-863136Y-764220D01*
X-863158Y-763885D01*
X-863097Y-763554D01*
X-863232Y-762771D01*
X-863284Y-761980D01*
X-863421Y-761674D01*
X-863478Y-761342D01*
X-864000Y-760383D01*
X-864202Y-759931D01*
X-864298Y-759833D01*
X-864379Y-759685D01*
X-945583Y-652153D01*
X-945734Y-652014D01*
X-945838Y-651837D01*
X-946555Y-651255D01*
X-947231Y-650629D01*
X-947421Y-650551D01*
X-947581Y-650421D01*
X-948457Y-650124D01*
X-949307Y-649774D01*
X-949512Y-649767D01*
X-949707Y-649701D01*
X-950629Y-649727D01*
X-951550Y-649694D01*
X-951746Y-649759D01*
X-951951Y-649765D01*
X-952805Y-650110D01*
X-953681Y-650401D01*
X-953842Y-650529D01*
X-954032Y-650606D01*
X-954711Y-651225D01*
X-955433Y-651804D01*
X-955540Y-651982D01*
X-955691Y-652119D01*
X-956111Y-652934D01*
X-956588Y-653730D01*
X-956625Y-653933D01*
X-956719Y-654114D01*
X-956966Y-655758D01*
X-956999Y-655937D01*
X-956996Y-655957D01*
X-956999Y-655980D01*
X-956999Y-660897D01*
X-971462Y-695813D01*
X-998187Y-722538D01*
X-1033103Y-737000D01*
X-1070897Y-737000D01*
X-1105813Y-722538D01*
X-1132538Y-695813D01*
X-1136503Y-686240D01*
X-1136793Y-685787D01*
X-1136995Y-685288D01*
X-1137395Y-684850D01*
X-1137715Y-684350D01*
X-1138146Y-684026D01*
X-1138508Y-683629D01*
X-1139034Y-683358D01*
X-1139509Y-683001D01*
X-1140025Y-682847D01*
X-1140503Y-682601D01*
X-1141208Y-682495D01*
X-1141660Y-682360D01*
X-1141969Y-682380D01*
X-1142369Y-682320D01*
X-1256105Y-682320D01*
X-1256979Y-682477D01*
X-1257865Y-682569D01*
X-1258080Y-682675D01*
X-1258315Y-682717D01*
X-1259079Y-683168D01*
X-1259878Y-683563D01*
X-1260043Y-683737D01*
X-1260248Y-683858D01*
X-1260808Y-684547D01*
X-1261420Y-685195D01*
X-1261513Y-685415D01*
X-1261664Y-685601D01*
X-1261949Y-686444D01*
X-1262297Y-687262D01*
X-1262308Y-687500D01*
X-1262384Y-687727D01*
X-1262359Y-688616D01*
X-1262400Y-689504D01*
X-1262327Y-689732D01*
X-1262320Y-689971D01*
X-1261987Y-690794D01*
X-1261716Y-691642D01*
X-1261558Y-691856D01*
X-1261479Y-692052D01*
X-1261134Y-692430D01*
X-1260595Y-693159D01*
X-1156573Y-797181D01*
X-1156228Y-797421D01*
X-1155944Y-797732D01*
X-1155314Y-798056D01*
X-1154730Y-798463D01*
X-1154322Y-798568D01*
X-1153949Y-798760D01*
X-1153055Y-798894D01*
X-1152557Y-799023D01*
X-1152346Y-799001D01*
X-1152084Y-799040D01*
X-1064714Y-799040D01*
X-1002530Y-861224D01*
X-1001992Y-861599D01*
X-1001515Y-862049D01*
X-1001078Y-862234D01*
X-1000687Y-862506D01*
X-1000051Y-862670D01*
X-999448Y-862926D01*
X-998974Y-862948D01*
X-998513Y-863066D01*
X-997861Y-862999D01*
G37*
G36*
X-640705Y-1492183D02*
X-640705Y-1492183D01*
X-640049Y-1492165D01*
X-639608Y-1491987D01*
X-639140Y-1491903D01*
X-638576Y-1491569D01*
X-637968Y-1491323D01*
X-637617Y-1491003D01*
X-637207Y-1490762D01*
X-636793Y-1490252D01*
X-636309Y-1489811D01*
X-636092Y-1489389D01*
X-635791Y-1489019D01*
X-635580Y-1488397D01*
X-635281Y-1487815D01*
X-635199Y-1487272D01*
X-635071Y-1486893D01*
X-635082Y-1486494D01*
X-635000Y-1485950D01*
X-635000Y-1416715D01*
X-624109Y-1405824D01*
X-623735Y-1405287D01*
X-623284Y-1404809D01*
X-623099Y-1404372D01*
X-622827Y-1403982D01*
X-622663Y-1403346D01*
X-622408Y-1402743D01*
X-622386Y-1402268D01*
X-622267Y-1401808D01*
X-622334Y-1401155D01*
X-622304Y-1400500D01*
X-622449Y-1400048D01*
X-622498Y-1399575D01*
X-622788Y-1398987D01*
X-622988Y-1398362D01*
X-623316Y-1397919D01*
X-623492Y-1397562D01*
X-623782Y-1397288D01*
X-624109Y-1396845D01*
X-814660Y-1206294D01*
X-815391Y-1205786D01*
X-816081Y-1205225D01*
X-816308Y-1205148D01*
X-816503Y-1205012D01*
X-817364Y-1204790D01*
X-818207Y-1204504D01*
X-818446Y-1204511D01*
X-818677Y-1204452D01*
X-819563Y-1204543D01*
X-820451Y-1204569D01*
X-820672Y-1204658D01*
X-820910Y-1204683D01*
X-821709Y-1205078D01*
X-822532Y-1205410D01*
X-822708Y-1205570D01*
X-822923Y-1205677D01*
X-823537Y-1206326D01*
X-824191Y-1206923D01*
X-824300Y-1207134D01*
X-824464Y-1207309D01*
X-824813Y-1208130D01*
X-825219Y-1208918D01*
X-825258Y-1209180D01*
X-825341Y-1209375D01*
X-825365Y-1209888D01*
X-825499Y-1210783D01*
X-825499Y-1210784D01*
X-825926Y-1211210D01*
X-826300Y-1211748D01*
X-826751Y-1212226D01*
X-826936Y-1212663D01*
X-827208Y-1213053D01*
X-827371Y-1213688D01*
X-827628Y-1214292D01*
X-827649Y-1214767D01*
X-827768Y-1215227D01*
X-827700Y-1215878D01*
X-827731Y-1216535D01*
X-827586Y-1216988D01*
X-827537Y-1217460D01*
X-827247Y-1218048D01*
X-827047Y-1218673D01*
X-826719Y-1219116D01*
X-826543Y-1219473D01*
X-826253Y-1219747D01*
X-825926Y-1220190D01*
X-825026Y-1221090D01*
X-818689Y-1230574D01*
X-814325Y-1241110D01*
X-812706Y-1249250D01*
X-867598Y-1249250D01*
X-868243Y-1249366D01*
X-868899Y-1249385D01*
X-869340Y-1249563D01*
X-869807Y-1249647D01*
X-870372Y-1249980D01*
X-870980Y-1250226D01*
X-871331Y-1250546D01*
X-871741Y-1250788D01*
X-872155Y-1251298D01*
X-872638Y-1251739D01*
X-872856Y-1252161D01*
X-873156Y-1252530D01*
X-873367Y-1253153D01*
X-873667Y-1253734D01*
X-873748Y-1254278D01*
X-873877Y-1254656D01*
X-873865Y-1255055D01*
X-873947Y-1255599D01*
X-873947Y-1260400D01*
X-873831Y-1261045D01*
X-873813Y-1261701D01*
X-873634Y-1262142D01*
X-873550Y-1262609D01*
X-873217Y-1263174D01*
X-872971Y-1263782D01*
X-872651Y-1264133D01*
X-872409Y-1264543D01*
X-871900Y-1264957D01*
X-871458Y-1265441D01*
X-871037Y-1265658D01*
X-870667Y-1265958D01*
X-870044Y-1266169D01*
X-869463Y-1266469D01*
X-868919Y-1266551D01*
X-868541Y-1266679D01*
X-868142Y-1266668D01*
X-867598Y-1266749D01*
X-812706Y-1266749D01*
X-814325Y-1274890D01*
X-818689Y-1285426D01*
X-825026Y-1294909D01*
X-833090Y-1302974D01*
X-842574Y-1309311D01*
X-853110Y-1313675D01*
X-862902Y-1315623D01*
X-863374Y-1315808D01*
X-863873Y-1315898D01*
X-864410Y-1316215D01*
X-864992Y-1316443D01*
X-865370Y-1316781D01*
X-865806Y-1317038D01*
X-866200Y-1317523D01*
X-866665Y-1317939D01*
X-866902Y-1318387D01*
X-867222Y-1318781D01*
X-867422Y-1319372D01*
X-867714Y-1319924D01*
X-867780Y-1320426D01*
X-867943Y-1320907D01*
X-867925Y-1321532D01*
X-868006Y-1322150D01*
X-867893Y-1322643D01*
X-867878Y-1323151D01*
X-867644Y-1323730D01*
X-867505Y-1324338D01*
X-867227Y-1324763D01*
X-867037Y-1325232D01*
X-866617Y-1325693D01*
X-866274Y-1326215D01*
X-865865Y-1326517D01*
X-865524Y-1326891D01*
X-864970Y-1327176D01*
X-864467Y-1327547D01*
X-863978Y-1327688D01*
X-863529Y-1327919D01*
X-862778Y-1328032D01*
X-862309Y-1328167D01*
X-861984Y-1328151D01*
X-861663Y-1328199D01*
X-825176Y-1328199D01*
X-824762Y-1328125D01*
X-824342Y-1328144D01*
X-823664Y-1327928D01*
X-822967Y-1327803D01*
X-822605Y-1327589D01*
X-822203Y-1327461D01*
X-821473Y-1326921D01*
X-821033Y-1326662D01*
X-820900Y-1326498D01*
X-820686Y-1326340D01*
X-802746Y-1308399D01*
X-759253Y-1308399D01*
X-728499Y-1339153D01*
X-728499Y-1382646D01*
X-759253Y-1413400D01*
X-802746Y-1413400D01*
X-820686Y-1395460D01*
X-821033Y-1395219D01*
X-821315Y-1394909D01*
X-821944Y-1394585D01*
X-822529Y-1394178D01*
X-822938Y-1394073D01*
X-823311Y-1393881D01*
X-824205Y-1393746D01*
X-824703Y-1393618D01*
X-824914Y-1393640D01*
X-825176Y-1393600D01*
X-927388Y-1393600D01*
X-948402Y-1372586D01*
X-948403Y-1372585D01*
X-981460Y-1339528D01*
X-982191Y-1339020D01*
X-982881Y-1338459D01*
X-983108Y-1338382D01*
X-983303Y-1338246D01*
X-984164Y-1338024D01*
X-985007Y-1337738D01*
X-985246Y-1337745D01*
X-985477Y-1337685D01*
X-986363Y-1337777D01*
X-987251Y-1337803D01*
X-987472Y-1337892D01*
X-987710Y-1337917D01*
X-988509Y-1338311D01*
X-989332Y-1338644D01*
X-989508Y-1338804D01*
X-989723Y-1338910D01*
X-990337Y-1339560D01*
X-990991Y-1340157D01*
X-991100Y-1340368D01*
X-991264Y-1340543D01*
X-991613Y-1341364D01*
X-992019Y-1342152D01*
X-992058Y-1342414D01*
X-992141Y-1342609D01*
X-992165Y-1343122D01*
X-992299Y-1344017D01*
X-992299Y-1354450D01*
X-992225Y-1354864D01*
X-992244Y-1355284D01*
X-992028Y-1355961D01*
X-991903Y-1356659D01*
X-991689Y-1357021D01*
X-991561Y-1357423D01*
X-991022Y-1358152D01*
X-990762Y-1358593D01*
X-990598Y-1358726D01*
X-990440Y-1358940D01*
X-927940Y-1421440D01*
X-927594Y-1421680D01*
X-927311Y-1421991D01*
X-926681Y-1422315D01*
X-926097Y-1422722D01*
X-925688Y-1422827D01*
X-925315Y-1423019D01*
X-924421Y-1423153D01*
X-923923Y-1423282D01*
X-923712Y-1423260D01*
X-923450Y-1423299D01*
X-830455Y-1423299D01*
X-763314Y-1490440D01*
X-762968Y-1490680D01*
X-762685Y-1490991D01*
X-762055Y-1491315D01*
X-761471Y-1491722D01*
X-761063Y-1491827D01*
X-760690Y-1492019D01*
X-759796Y-1492153D01*
X-759298Y-1492282D01*
X-759087Y-1492260D01*
X-758825Y-1492299D01*
X-641350Y-1492299D01*
X-640705Y-1492183D01*
G37*
G36*
X-145241Y-1152943D02*
X-145241Y-1152943D01*
X-144698Y-1152947D01*
X-144145Y-1152746D01*
X-143566Y-1152642D01*
X-143099Y-1152366D01*
X-142588Y-1152180D01*
X-142139Y-1151800D01*
X-141633Y-1151501D01*
X-141290Y-1151079D01*
X-140876Y-1150728D01*
X-140588Y-1150215D01*
X-140217Y-1149758D01*
X-140043Y-1149244D01*
X-139777Y-1148770D01*
X-139686Y-1148190D01*
X-139497Y-1147633D01*
X-139512Y-1147088D01*
X-139428Y-1146553D01*
X-139544Y-1145977D01*
X-139561Y-1145388D01*
X-139765Y-1144884D01*
X-139872Y-1144352D01*
X-140182Y-1143852D01*
X-140402Y-1143307D01*
X-140768Y-1142906D01*
X-141054Y-1142444D01*
X-141520Y-1142082D01*
X-141915Y-1141649D01*
X-142397Y-1141400D01*
X-142827Y-1141066D01*
X-143494Y-1140835D01*
X-143910Y-1140620D01*
X-144267Y-1140567D01*
X-144609Y-1140448D01*
X-315402Y-1108522D01*
X-412812Y-1070785D01*
X-413614Y-1070629D01*
X-414397Y-1070396D01*
X-414708Y-1070417D01*
X-415015Y-1070357D01*
X-415821Y-1070490D01*
X-416637Y-1070544D01*
X-416923Y-1070672D01*
X-417230Y-1070723D01*
X-417938Y-1071127D01*
X-418686Y-1071462D01*
X-418909Y-1071681D01*
X-419180Y-1071836D01*
X-419704Y-1072463D01*
X-420287Y-1073036D01*
X-420419Y-1073318D01*
X-420620Y-1073558D01*
X-420893Y-1074328D01*
X-421240Y-1075068D01*
X-421266Y-1075380D01*
X-421370Y-1075674D01*
X-421358Y-1076491D01*
X-421426Y-1077305D01*
X-421342Y-1077645D01*
X-421338Y-1077918D01*
X-421160Y-1078378D01*
X-420971Y-1079136D01*
X-419325Y-1083110D01*
X-417706Y-1091250D01*
X-472598Y-1091250D01*
X-473243Y-1091366D01*
X-473899Y-1091385D01*
X-474340Y-1091563D01*
X-474807Y-1091647D01*
X-475042Y-1091785D01*
X-475537Y-1091530D01*
X-476080Y-1091449D01*
X-476459Y-1091320D01*
X-476858Y-1091332D01*
X-477402Y-1091250D01*
X-532294Y-1091250D01*
X-530675Y-1083110D01*
X-526311Y-1072574D01*
X-519974Y-1063090D01*
X-511909Y-1055026D01*
X-502425Y-1048689D01*
X-501319Y-1048231D01*
X-500511Y-1047712D01*
X-499675Y-1047234D01*
X-499569Y-1047108D01*
X-499430Y-1047018D01*
X-498852Y-1046250D01*
X-498235Y-1045512D01*
X-498179Y-1045357D01*
X-498080Y-1045225D01*
X-497806Y-1044304D01*
X-497484Y-1043397D01*
X-497487Y-1043231D01*
X-497439Y-1043073D01*
X-497503Y-1042115D01*
X-497517Y-1041152D01*
X-497576Y-1040998D01*
X-497587Y-1040833D01*
X-497980Y-1039956D01*
X-498328Y-1039059D01*
X-498438Y-1038935D01*
X-498505Y-1038785D01*
X-499179Y-1038099D01*
X-499817Y-1037379D01*
X-499975Y-1037289D01*
X-500079Y-1037183D01*
X-500534Y-1036970D01*
X-501455Y-1036444D01*
X-513722Y-1031692D01*
X-694549Y-919728D01*
X-783805Y-838361D01*
X-783908Y-838295D01*
X-783988Y-838200D01*
X-784860Y-837697D01*
X-785705Y-837165D01*
X-785825Y-837140D01*
X-785932Y-837078D01*
X-786922Y-836911D01*
X-787902Y-836706D01*
X-788024Y-836724D01*
X-788146Y-836704D01*
X-789128Y-836890D01*
X-790122Y-837040D01*
X-790231Y-837100D01*
X-790351Y-837123D01*
X-791208Y-837640D01*
X-792087Y-838126D01*
X-792168Y-838219D01*
X-792273Y-838283D01*
X-792897Y-839066D01*
X-793551Y-839827D01*
X-793594Y-839943D01*
X-793671Y-840039D01*
X-794310Y-841814D01*
X-794325Y-841890D01*
X-798231Y-851320D01*
X-798396Y-852074D01*
X-798644Y-852807D01*
X-798634Y-853164D01*
X-798710Y-853513D01*
X-798602Y-854279D01*
X-798580Y-855051D01*
X-798446Y-855382D01*
X-798396Y-855736D01*
X-798028Y-856417D01*
X-797739Y-857132D01*
X-797499Y-857395D01*
X-797328Y-857711D01*
X-796745Y-858221D01*
X-796226Y-858791D01*
X-795909Y-858954D01*
X-795640Y-859190D01*
X-794916Y-859466D01*
X-794231Y-859819D01*
X-793831Y-859879D01*
X-793542Y-859989D01*
X-793070Y-859993D01*
X-792365Y-860099D01*
X-787573Y-860099D01*
X-540783Y-1106890D01*
X-540437Y-1107130D01*
X-540154Y-1107441D01*
X-539524Y-1107765D01*
X-538940Y-1108172D01*
X-538532Y-1108277D01*
X-538159Y-1108469D01*
X-537264Y-1108603D01*
X-536766Y-1108732D01*
X-536555Y-1108710D01*
X-536293Y-1108749D01*
X-477402Y-1108749D01*
X-476757Y-1108633D01*
X-476101Y-1108615D01*
X-475660Y-1108437D01*
X-475193Y-1108353D01*
X-474958Y-1108214D01*
X-474463Y-1108469D01*
X-473919Y-1108551D01*
X-473541Y-1108679D01*
X-473142Y-1108668D01*
X-472598Y-1108749D01*
X-417706Y-1108749D01*
X-419325Y-1116890D01*
X-423689Y-1127426D01*
X-430026Y-1136909D01*
X-435316Y-1142200D01*
X-435824Y-1142930D01*
X-436385Y-1143620D01*
X-436462Y-1143847D01*
X-436598Y-1144043D01*
X-436820Y-1144903D01*
X-437106Y-1145746D01*
X-437099Y-1145985D01*
X-437158Y-1146216D01*
X-437067Y-1147102D01*
X-437041Y-1147990D01*
X-436952Y-1148212D01*
X-436927Y-1148449D01*
X-436533Y-1149248D01*
X-436200Y-1150072D01*
X-436039Y-1150248D01*
X-435933Y-1150462D01*
X-435286Y-1151074D01*
X-434687Y-1151730D01*
X-434475Y-1151839D01*
X-434301Y-1152003D01*
X-433482Y-1152351D01*
X-432692Y-1152758D01*
X-432430Y-1152798D01*
X-432235Y-1152881D01*
X-431722Y-1152904D01*
X-430827Y-1153039D01*
X-145776Y-1153039D01*
X-145241Y-1152943D01*
G37*
G36*
X251999Y-1244925D02*
X251999Y-1244925D01*
X252420Y-1244944D01*
X253097Y-1244728D01*
X253795Y-1244603D01*
X254157Y-1244389D01*
X254558Y-1244261D01*
X255287Y-1243722D01*
X255728Y-1243462D01*
X255862Y-1243298D01*
X256075Y-1243140D01*
X259215Y-1239999D01*
X289943Y-1239999D01*
X290357Y-1239925D01*
X290778Y-1239944D01*
X291454Y-1239728D01*
X292153Y-1239603D01*
X292514Y-1239389D01*
X292916Y-1239261D01*
X293645Y-1238722D01*
X294086Y-1238462D01*
X294219Y-1238298D01*
X294433Y-1238140D01*
X346733Y-1185839D01*
X347108Y-1185301D01*
X347558Y-1184824D01*
X347743Y-1184387D01*
X348015Y-1183996D01*
X348179Y-1183360D01*
X348435Y-1182758D01*
X348457Y-1182283D01*
X348575Y-1181823D01*
X348508Y-1181170D01*
X348538Y-1180515D01*
X348393Y-1180063D01*
X348344Y-1179590D01*
X348053Y-1179001D01*
X347854Y-1178377D01*
X347527Y-1177935D01*
X347350Y-1177577D01*
X347060Y-1177303D01*
X346733Y-1176860D01*
X341978Y-1172105D01*
X331199Y-1146083D01*
X331199Y-1117916D01*
X333175Y-1113148D01*
X333349Y-1112349D01*
X333600Y-1111572D01*
X333587Y-1111260D01*
X333654Y-1110954D01*
X333539Y-1110145D01*
X333504Y-1109329D01*
X333383Y-1109040D01*
X333339Y-1108732D01*
X332951Y-1108014D01*
X332634Y-1107260D01*
X332420Y-1107032D01*
X332271Y-1106757D01*
X331657Y-1106219D01*
X331098Y-1105623D01*
X330818Y-1105483D01*
X330583Y-1105278D01*
X329820Y-1104987D01*
X329088Y-1104623D01*
X328777Y-1104590D01*
X328485Y-1104478D01*
X327668Y-1104471D01*
X326855Y-1104385D01*
X326513Y-1104462D01*
X326240Y-1104459D01*
X325778Y-1104626D01*
X325015Y-1104797D01*
X315401Y-1108522D01*
X303987Y-1110656D01*
X303229Y-1110943D01*
X302449Y-1111153D01*
X302188Y-1111338D01*
X301888Y-1111452D01*
X301277Y-1111985D01*
X300619Y-1112453D01*
X300439Y-1112717D01*
X300197Y-1112928D01*
X299811Y-1113640D01*
X299356Y-1114308D01*
X299279Y-1114620D01*
X299126Y-1114901D01*
X299012Y-1115701D01*
X298817Y-1116488D01*
X298853Y-1116807D01*
X298808Y-1117124D01*
X298980Y-1117915D01*
X299071Y-1118718D01*
X299225Y-1119045D01*
X299284Y-1119318D01*
X299546Y-1119728D01*
X299874Y-1120425D01*
X301311Y-1122574D01*
X305675Y-1133110D01*
X307294Y-1141250D01*
X252402Y-1141250D01*
X251757Y-1141366D01*
X251101Y-1141385D01*
X250660Y-1141563D01*
X250193Y-1141647D01*
X249958Y-1141785D01*
X249463Y-1141530D01*
X248919Y-1141449D01*
X248541Y-1141320D01*
X248142Y-1141332D01*
X247598Y-1141250D01*
X191577Y-1141250D01*
X191483Y-1141091D01*
X191303Y-1140563D01*
X191193Y-1140428D01*
X191128Y-1140268D01*
X190760Y-1139865D01*
X190562Y-1139529D01*
X190249Y-1139275D01*
X189881Y-1138825D01*
X189731Y-1138737D01*
X189615Y-1138610D01*
X189110Y-1138349D01*
X188819Y-1138113D01*
X188455Y-1137990D01*
X187944Y-1137691D01*
X187773Y-1137661D01*
X187620Y-1137581D01*
X186956Y-1137482D01*
X186693Y-1137393D01*
X186417Y-1137400D01*
X185754Y-1137301D01*
X179351Y-1137301D01*
X178706Y-1137417D01*
X178050Y-1137436D01*
X177609Y-1137614D01*
X177142Y-1137698D01*
X176577Y-1138031D01*
X175969Y-1138277D01*
X175618Y-1138597D01*
X175208Y-1138839D01*
X174794Y-1139348D01*
X174310Y-1139790D01*
X174093Y-1140212D01*
X173793Y-1140581D01*
X173582Y-1141204D01*
X173282Y-1141785D01*
X173200Y-1142329D01*
X173072Y-1142707D01*
X173083Y-1143106D01*
X173073Y-1143173D01*
X173072Y-1143177D01*
X173072Y-1143182D01*
X173002Y-1143650D01*
X173002Y-1150002D01*
X172998Y-1150002D01*
X172998Y-1143650D01*
X172882Y-1143005D01*
X172863Y-1142349D01*
X172685Y-1141908D01*
X172601Y-1141441D01*
X172268Y-1140876D01*
X172022Y-1140268D01*
X171702Y-1139917D01*
X171460Y-1139508D01*
X170951Y-1139093D01*
X170509Y-1138610D01*
X170088Y-1138392D01*
X169718Y-1138092D01*
X169095Y-1137881D01*
X168514Y-1137581D01*
X167970Y-1137500D01*
X167592Y-1137371D01*
X167193Y-1137383D01*
X166649Y-1137301D01*
X162035Y-1137301D01*
X161573Y-1137384D01*
X160868Y-1137409D01*
X106341Y-1147602D01*
X64279Y-1147602D01*
X63405Y-1147759D01*
X62519Y-1147851D01*
X62304Y-1147957D01*
X62069Y-1147999D01*
X61303Y-1148451D01*
X60506Y-1148845D01*
X60342Y-1149018D01*
X60136Y-1149140D01*
X59576Y-1149829D01*
X58964Y-1150477D01*
X58871Y-1150697D01*
X58720Y-1150882D01*
X58435Y-1151725D01*
X58088Y-1152543D01*
X58077Y-1152781D01*
X58000Y-1153008D01*
X58025Y-1153898D01*
X57984Y-1154786D01*
X58057Y-1155013D01*
X58064Y-1155252D01*
X58397Y-1156075D01*
X58668Y-1156924D01*
X58827Y-1157138D01*
X58905Y-1157333D01*
X59249Y-1157711D01*
X59789Y-1158441D01*
X73821Y-1172472D01*
X86760Y-1185412D01*
X87491Y-1185921D01*
X88181Y-1186481D01*
X88407Y-1186558D01*
X88603Y-1186694D01*
X89465Y-1186916D01*
X90307Y-1187202D01*
X90546Y-1187195D01*
X90777Y-1187254D01*
X91663Y-1187163D01*
X92551Y-1187137D01*
X92772Y-1187048D01*
X93010Y-1187023D01*
X93809Y-1186629D01*
X94632Y-1186296D01*
X94808Y-1186135D01*
X95023Y-1186029D01*
X95635Y-1185381D01*
X96291Y-1184783D01*
X96400Y-1184572D01*
X96564Y-1184397D01*
X96913Y-1183576D01*
X97319Y-1182788D01*
X97358Y-1182526D01*
X97441Y-1182331D01*
X97465Y-1181820D01*
X97599Y-1180923D01*
X97599Y-1162698D01*
X160301Y-1162698D01*
X160301Y-1205400D01*
X122077Y-1205400D01*
X121203Y-1205557D01*
X120317Y-1205649D01*
X120103Y-1205755D01*
X119868Y-1205797D01*
X119104Y-1206248D01*
X118304Y-1206643D01*
X118139Y-1206817D01*
X117934Y-1206938D01*
X117375Y-1207627D01*
X116763Y-1208275D01*
X116669Y-1208495D01*
X116519Y-1208680D01*
X116233Y-1209523D01*
X115886Y-1210341D01*
X115875Y-1210579D01*
X115798Y-1210806D01*
X115824Y-1211696D01*
X115783Y-1212584D01*
X115856Y-1212812D01*
X115863Y-1213050D01*
X116195Y-1213874D01*
X116467Y-1214722D01*
X116625Y-1214936D01*
X116704Y-1215132D01*
X117048Y-1215509D01*
X117588Y-1216239D01*
X144488Y-1243140D01*
X144834Y-1243380D01*
X145117Y-1243691D01*
X145747Y-1244015D01*
X146331Y-1244422D01*
X146739Y-1244527D01*
X147113Y-1244719D01*
X148007Y-1244853D01*
X148505Y-1244982D01*
X148716Y-1244960D01*
X148978Y-1244999D01*
X251585Y-1244999D01*
X251999Y-1244925D01*
G37*
G36*
X1458863Y-331464D02*
X1458863Y-331464D01*
X1459751Y-331439D01*
X1459972Y-331349D01*
X1460210Y-331325D01*
X1461009Y-330930D01*
X1461832Y-330598D01*
X1462008Y-330437D01*
X1462223Y-330331D01*
X1462835Y-329683D01*
X1463491Y-329085D01*
X1463600Y-328873D01*
X1463764Y-328699D01*
X1464113Y-327878D01*
X1464519Y-327089D01*
X1464558Y-326828D01*
X1464641Y-326632D01*
X1464662Y-326194D01*
X1464729Y-325994D01*
X1464722Y-325740D01*
X1464799Y-325224D01*
X1464799Y-218105D01*
X1464736Y-217751D01*
X1464759Y-217391D01*
X1464539Y-216654D01*
X1464403Y-215896D01*
X1464219Y-215585D01*
X1464116Y-215240D01*
X1463653Y-214625D01*
X1463262Y-213963D01*
X1462982Y-213735D01*
X1462765Y-213448D01*
X1462117Y-213032D01*
X1461519Y-212547D01*
X1461178Y-212431D01*
X1460874Y-212237D01*
X1460122Y-212073D01*
X1459393Y-211826D01*
X1459033Y-211837D01*
X1458681Y-211760D01*
X1457657Y-211876D01*
X1457149Y-211891D01*
X1457001Y-211950D01*
X1456806Y-211973D01*
X1453344Y-212900D01*
X1441249Y-212900D01*
X1441249Y-157402D01*
X1441133Y-156757D01*
X1441115Y-156101D01*
X1440937Y-155660D01*
X1440853Y-155193D01*
X1440519Y-154628D01*
X1440273Y-154020D01*
X1439953Y-153669D01*
X1439712Y-153259D01*
X1439202Y-152845D01*
X1438761Y-152361D01*
X1438339Y-152144D01*
X1437969Y-151843D01*
X1437347Y-151633D01*
X1436765Y-151333D01*
X1436222Y-151251D01*
X1435843Y-151123D01*
X1435444Y-151134D01*
X1434900Y-151053D01*
X1430099Y-151053D01*
X1429454Y-151168D01*
X1428798Y-151187D01*
X1428358Y-151365D01*
X1427890Y-151449D01*
X1427325Y-151783D01*
X1426717Y-152028D01*
X1426366Y-152348D01*
X1425957Y-152590D01*
X1425543Y-153100D01*
X1425059Y-153541D01*
X1424841Y-153963D01*
X1424541Y-154333D01*
X1424330Y-154955D01*
X1424030Y-155537D01*
X1423949Y-156080D01*
X1423820Y-156459D01*
X1423832Y-156858D01*
X1423750Y-157402D01*
X1423750Y-212900D01*
X1411655Y-212900D01*
X1408193Y-211973D01*
X1407835Y-211942D01*
X1407493Y-211826D01*
X1406722Y-211848D01*
X1405956Y-211784D01*
X1405609Y-211880D01*
X1405249Y-211891D01*
X1404535Y-212179D01*
X1403794Y-212385D01*
X1403502Y-212597D01*
X1403168Y-212732D01*
X1402600Y-213250D01*
X1401975Y-213702D01*
X1401775Y-214002D01*
X1401509Y-214245D01*
X1401157Y-214928D01*
X1400729Y-215569D01*
X1400646Y-215920D01*
X1400481Y-216240D01*
X1400328Y-217258D01*
X1400210Y-217753D01*
X1400229Y-217912D01*
X1400200Y-218105D01*
X1400200Y-301325D01*
X1400275Y-301738D01*
X1400255Y-302159D01*
X1400472Y-302836D01*
X1400597Y-303534D01*
X1400811Y-303896D01*
X1400939Y-304297D01*
X1401478Y-305027D01*
X1401738Y-305468D01*
X1401902Y-305601D01*
X1402060Y-305814D01*
X1416885Y-320640D01*
X1417231Y-320880D01*
X1417514Y-321191D01*
X1418144Y-321515D01*
X1418728Y-321922D01*
X1419137Y-322027D01*
X1419510Y-322219D01*
X1420404Y-322353D01*
X1420902Y-322482D01*
X1421113Y-322460D01*
X1421375Y-322499D01*
X1446746Y-322499D01*
X1453960Y-329714D01*
X1454266Y-329926D01*
X1454417Y-330092D01*
X1454728Y-330252D01*
X1455381Y-330783D01*
X1455608Y-330859D01*
X1455803Y-330995D01*
X1456663Y-331217D01*
X1457507Y-331503D01*
X1457746Y-331496D01*
X1457977Y-331556D01*
X1458863Y-331464D01*
G37*
%LPC*%
G36*
X1087699Y637699D02*
X1087699Y637699D01*
X1087699Y739828D01*
X1102022Y737559D01*
X1119300Y731945D01*
X1135481Y723700D01*
X1150179Y713022D01*
X1163022Y700179D01*
X1173700Y685481D01*
X1181945Y669300D01*
X1187559Y652022D01*
X1189828Y637699D01*
X1087699Y637699D01*
G37*
%LPD*%
%LPC*%
G36*
X1087699Y612301D02*
X1087699Y612301D01*
X1189828Y612301D01*
X1187559Y597978D01*
X1181945Y580699D01*
X1173700Y564519D01*
X1163022Y549821D01*
X1150179Y536978D01*
X1135481Y526299D01*
X1119300Y518055D01*
X1102022Y512441D01*
X1087699Y510172D01*
X1087699Y612301D01*
G37*
%LPD*%
G36*
X-52984Y-1292252D02*
X-52984Y-1292252D01*
X-52715Y-1292277D01*
X-51887Y-1292054D01*
X-51042Y-1291903D01*
X-50809Y-1291765D01*
X-50547Y-1291695D01*
X-49846Y-1291197D01*
X-49108Y-1290762D01*
X-48938Y-1290552D01*
X-48717Y-1290395D01*
X-48234Y-1289685D01*
X-47693Y-1289019D01*
X-47606Y-1288762D01*
X-47454Y-1288539D01*
X-47248Y-1287708D01*
X-46972Y-1286893D01*
X-46980Y-1286622D01*
X-46915Y-1286359D01*
X-47012Y-1285507D01*
X-47037Y-1284649D01*
X-47138Y-1284398D01*
X-47169Y-1284129D01*
X-47722Y-1282954D01*
X-47878Y-1282568D01*
X-47931Y-1282510D01*
X-47972Y-1282423D01*
X-51311Y-1277425D01*
X-54384Y-1270006D01*
X-54927Y-1269159D01*
X-55438Y-1268293D01*
X-55531Y-1268218D01*
X-55596Y-1268117D01*
X-56399Y-1267512D01*
X-57181Y-1266877D01*
X-57295Y-1266839D01*
X-57390Y-1266767D01*
X-58350Y-1266481D01*
X-59307Y-1266157D01*
X-59427Y-1266160D01*
X-59542Y-1266126D01*
X-60543Y-1266192D01*
X-61551Y-1266221D01*
X-61662Y-1266266D01*
X-61782Y-1266274D01*
X-62700Y-1266685D01*
X-63632Y-1267062D01*
X-63721Y-1267143D01*
X-63830Y-1267192D01*
X-64143Y-1267500D01*
X-119500Y-1267500D01*
X-119500Y-1234599D01*
X-88656Y-1234599D01*
X-82195Y-1236331D01*
X-76403Y-1239675D01*
X-71674Y-1244404D01*
X-69748Y-1247740D01*
X-69364Y-1248195D01*
X-69061Y-1248708D01*
X-68645Y-1249046D01*
X-68300Y-1249455D01*
X-67782Y-1249748D01*
X-67319Y-1250124D01*
X-66811Y-1250296D01*
X-66345Y-1250559D01*
X-65758Y-1250653D01*
X-65193Y-1250844D01*
X-64657Y-1250829D01*
X-64129Y-1250913D01*
X-63545Y-1250797D01*
X-62949Y-1250780D01*
X-62452Y-1250579D01*
X-61927Y-1250475D01*
X-61419Y-1250162D01*
X-60868Y-1249939D01*
X-60473Y-1249578D01*
X-60016Y-1249297D01*
X-59648Y-1248827D01*
X-59209Y-1248426D01*
X-58964Y-1247951D01*
X-58634Y-1247528D01*
X-58453Y-1246960D01*
X-58181Y-1246431D01*
X-58087Y-1245807D01*
X-57954Y-1245389D01*
X-57971Y-1245035D01*
X-57900Y-1244565D01*
X-57900Y-1244298D01*
X-55675Y-1233110D01*
X-51265Y-1222464D01*
X-51260Y-1222458D01*
X-51250Y-1222427D01*
X-51071Y-1221996D01*
X-51013Y-1221727D01*
X-50985Y-1221647D01*
X-50643Y-1220865D01*
X-50628Y-1220593D01*
X-50540Y-1220332D01*
X-50564Y-1219476D01*
X-50516Y-1218624D01*
X-50596Y-1218362D01*
X-50604Y-1218088D01*
X-50924Y-1217296D01*
X-51176Y-1216478D01*
X-51343Y-1216260D01*
X-51445Y-1216007D01*
X-52021Y-1215376D01*
X-52542Y-1214697D01*
X-52774Y-1214550D01*
X-52958Y-1214348D01*
X-53716Y-1213958D01*
X-54442Y-1213501D01*
X-54711Y-1213445D01*
X-54953Y-1213320D01*
X-56222Y-1213129D01*
X-56639Y-1213042D01*
X-56721Y-1213054D01*
X-56819Y-1213040D01*
X-217344Y-1213040D01*
X-218218Y-1213197D01*
X-219104Y-1213288D01*
X-219318Y-1213394D01*
X-219553Y-1213437D01*
X-220318Y-1213888D01*
X-221117Y-1214282D01*
X-221282Y-1214457D01*
X-221487Y-1214578D01*
X-222046Y-1215266D01*
X-222658Y-1215914D01*
X-222752Y-1216135D01*
X-222902Y-1216320D01*
X-223188Y-1217163D01*
X-223535Y-1217981D01*
X-223546Y-1218219D01*
X-223623Y-1218446D01*
X-223597Y-1219336D01*
X-223638Y-1220223D01*
X-223565Y-1220451D01*
X-223558Y-1220690D01*
X-223226Y-1221513D01*
X-222954Y-1222362D01*
X-222796Y-1222576D01*
X-222717Y-1222771D01*
X-222373Y-1223149D01*
X-221833Y-1223879D01*
X-195125Y-1250588D01*
X-194829Y-1250793D01*
X-194591Y-1251064D01*
X-193913Y-1251430D01*
X-193282Y-1251869D01*
X-192933Y-1251959D01*
X-192616Y-1252130D01*
X-191854Y-1252237D01*
X-191108Y-1252430D01*
X-190749Y-1252393D01*
X-190393Y-1252443D01*
X-189643Y-1252278D01*
X-188875Y-1252198D01*
X-188551Y-1252038D01*
X-188200Y-1251962D01*
X-187554Y-1251546D01*
X-186862Y-1251205D01*
X-186614Y-1250942D01*
X-186312Y-1250748D01*
X-185670Y-1249943D01*
X-185321Y-1249573D01*
X-185258Y-1249426D01*
X-185136Y-1249273D01*
X-182325Y-1244403D01*
X-177596Y-1239675D01*
X-171804Y-1236331D01*
X-165344Y-1234599D01*
X-134499Y-1234599D01*
X-134499Y-1273848D01*
X-134383Y-1274493D01*
X-134365Y-1275149D01*
X-134187Y-1275590D01*
X-134103Y-1276057D01*
X-133769Y-1276622D01*
X-133523Y-1277230D01*
X-133203Y-1277581D01*
X-132962Y-1277991D01*
X-132452Y-1278405D01*
X-132011Y-1278888D01*
X-131589Y-1279106D01*
X-131298Y-1279342D01*
X-131221Y-1279532D01*
X-130901Y-1279883D01*
X-130659Y-1280293D01*
X-130150Y-1280707D01*
X-129708Y-1281191D01*
X-129287Y-1281408D01*
X-128917Y-1281708D01*
X-128294Y-1281919D01*
X-127713Y-1282219D01*
X-127169Y-1282301D01*
X-126791Y-1282429D01*
X-126392Y-1282418D01*
X-125848Y-1282499D01*
X-66599Y-1282499D01*
X-66599Y-1285950D01*
X-66483Y-1286596D01*
X-66465Y-1287251D01*
X-66287Y-1287692D01*
X-66203Y-1288159D01*
X-65869Y-1288724D01*
X-65623Y-1289332D01*
X-65303Y-1289683D01*
X-65062Y-1290093D01*
X-64552Y-1290507D01*
X-64111Y-1290991D01*
X-63689Y-1291208D01*
X-63319Y-1291508D01*
X-62697Y-1291719D01*
X-62115Y-1292019D01*
X-61572Y-1292101D01*
X-61193Y-1292229D01*
X-60794Y-1292218D01*
X-60250Y-1292299D01*
X-53251Y-1292299D01*
X-52984Y-1292252D01*
G37*
%LPC*%
G36*
X1166578Y858749D02*
X1166578Y858749D01*
X1166488Y858902D01*
X1166312Y859420D01*
X1166196Y859563D01*
X1166128Y859731D01*
X1165760Y860134D01*
X1165562Y860471D01*
X1165255Y860720D01*
X1164896Y861162D01*
X1164738Y861256D01*
X1164615Y861390D01*
X1164111Y861650D01*
X1163819Y861887D01*
X1163462Y862008D01*
X1162962Y862303D01*
X1162781Y862335D01*
X1162620Y862418D01*
X1161957Y862518D01*
X1161693Y862607D01*
X1161415Y862599D01*
X1160754Y862698D01*
X1122698Y862698D01*
X1122698Y930400D01*
X1163344Y930400D01*
X1169804Y928669D01*
X1175596Y925325D01*
X1180325Y920596D01*
X1183669Y914804D01*
X1185400Y908344D01*
X1185400Y905055D01*
X1185448Y904788D01*
X1185423Y904518D01*
X1185646Y903690D01*
X1185797Y902846D01*
X1185935Y902612D01*
X1186005Y902350D01*
X1186502Y901652D01*
X1186938Y900912D01*
X1187149Y900741D01*
X1187306Y900520D01*
X1188014Y900038D01*
X1188681Y899497D01*
X1188938Y899409D01*
X1189161Y899257D01*
X1189993Y899052D01*
X1190807Y898776D01*
X1191078Y898784D01*
X1191341Y898719D01*
X1192193Y898816D01*
X1193051Y898840D01*
X1193302Y898942D01*
X1193571Y898973D01*
X1194746Y899526D01*
X1195132Y899682D01*
X1195190Y899735D01*
X1195278Y899776D01*
X1197575Y901311D01*
X1208110Y905675D01*
X1216250Y907294D01*
X1216250Y858749D01*
X1166578Y858749D01*
G37*
%LPD*%
%LPC*%
G36*
X1122698Y769599D02*
X1122698Y769599D01*
X1122698Y837301D01*
X1160754Y837301D01*
X1160925Y837332D01*
X1161097Y837310D01*
X1161672Y837446D01*
X1162051Y837457D01*
X1162394Y837595D01*
X1162964Y837698D01*
X1163113Y837786D01*
X1163282Y837826D01*
X1163775Y838154D01*
X1164132Y838298D01*
X1164409Y838551D01*
X1164897Y838839D01*
X1165006Y838973D01*
X1165151Y839069D01*
X1165491Y839538D01*
X1165791Y839811D01*
X1165970Y840160D01*
X1166313Y840581D01*
X1166368Y840746D01*
X1166470Y840885D01*
X1166572Y841250D01*
X1216250Y841250D01*
X1216250Y792706D01*
X1208110Y794325D01*
X1197573Y798689D01*
X1195278Y800223D01*
X1195029Y800332D01*
X1194819Y800503D01*
X1194005Y800779D01*
X1193220Y801121D01*
X1192950Y801136D01*
X1192693Y801223D01*
X1191835Y801199D01*
X1190978Y801247D01*
X1190719Y801167D01*
X1190449Y801159D01*
X1189654Y800838D01*
X1188833Y800584D01*
X1188618Y800419D01*
X1188368Y800318D01*
X1187735Y799741D01*
X1187053Y799217D01*
X1186909Y798987D01*
X1186709Y798805D01*
X1186317Y798044D01*
X1185860Y797316D01*
X1185804Y797050D01*
X1185681Y796810D01*
X1185488Y795527D01*
X1185403Y795118D01*
X1185415Y795040D01*
X1185400Y794944D01*
X1185400Y791656D01*
X1183669Y785195D01*
X1180325Y779403D01*
X1175596Y774675D01*
X1169804Y771331D01*
X1163344Y769599D01*
X1122698Y769599D01*
G37*
%LPD*%
%LPC*%
G36*
X258749Y-1192577D02*
X258749Y-1192577D01*
X258644Y-1191990D01*
X258638Y-1191394D01*
X258447Y-1190893D01*
X258353Y-1190367D01*
X258050Y-1189855D01*
X257837Y-1189298D01*
X257483Y-1188894D01*
X257212Y-1188434D01*
X256750Y-1188058D01*
X256356Y-1187610D01*
X255885Y-1187356D01*
X255469Y-1187018D01*
X254904Y-1186827D01*
X254381Y-1186544D01*
X253851Y-1186470D01*
X253343Y-1186298D01*
X252747Y-1186315D01*
X252158Y-1186232D01*
X251635Y-1186347D01*
X251099Y-1186362D01*
X250546Y-1186585D01*
X249965Y-1186713D01*
X249514Y-1187003D01*
X249018Y-1187203D01*
X248578Y-1187604D01*
X248077Y-1187927D01*
X247683Y-1188421D01*
X247359Y-1188716D01*
X247198Y-1189030D01*
X246901Y-1189402D01*
X243325Y-1195596D01*
X243111Y-1195810D01*
X242870Y-1196157D01*
X242559Y-1196440D01*
X242234Y-1197070D01*
X241828Y-1197653D01*
X241723Y-1198062D01*
X241530Y-1198436D01*
X241396Y-1199331D01*
X241268Y-1199827D01*
X241290Y-1200038D01*
X241250Y-1200301D01*
X241250Y-1207294D01*
X233110Y-1205675D01*
X232041Y-1205232D01*
X232039Y-1205232D01*
X232036Y-1205230D01*
X230836Y-1204969D01*
X229848Y-1204753D01*
X229845Y-1204753D01*
X229842Y-1204753D01*
X227968Y-1204965D01*
X226344Y-1205400D01*
X185698Y-1205400D01*
X185698Y-1162698D01*
X185754Y-1162698D01*
X185934Y-1162666D01*
X186116Y-1162688D01*
X186679Y-1162553D01*
X187051Y-1162543D01*
X187395Y-1162404D01*
X187964Y-1162302D01*
X188121Y-1162209D01*
X188299Y-1162166D01*
X188780Y-1161844D01*
X189132Y-1161702D01*
X189410Y-1161448D01*
X189897Y-1161161D01*
X190013Y-1161019D01*
X190164Y-1160917D01*
X190496Y-1160458D01*
X190791Y-1160189D01*
X190971Y-1159839D01*
X191313Y-1159418D01*
X191372Y-1159245D01*
X191478Y-1159097D01*
X191574Y-1158749D01*
X247598Y-1158749D01*
X248243Y-1158633D01*
X248899Y-1158615D01*
X249340Y-1158437D01*
X249807Y-1158353D01*
X250042Y-1158214D01*
X250537Y-1158469D01*
X251080Y-1158551D01*
X251459Y-1158679D01*
X251858Y-1158668D01*
X252402Y-1158749D01*
X307294Y-1158749D01*
X305675Y-1166890D01*
X301311Y-1177426D01*
X294974Y-1186909D01*
X286909Y-1194974D01*
X277426Y-1201311D01*
X266890Y-1205675D01*
X258749Y-1207294D01*
X258749Y-1192577D01*
G37*
%LPD*%
%LPC*%
G36*
X547698Y-1552301D02*
X547698Y-1552301D01*
X547698Y-1494599D01*
X573285Y-1494599D01*
X573552Y-1494552D01*
X573822Y-1494577D01*
X574650Y-1494354D01*
X575495Y-1494203D01*
X575728Y-1494065D01*
X575990Y-1493995D01*
X576691Y-1493497D01*
X577428Y-1493062D01*
X577598Y-1492852D01*
X577820Y-1492695D01*
X578303Y-1491985D01*
X578843Y-1491319D01*
X578931Y-1491063D01*
X579083Y-1490839D01*
X579288Y-1490007D01*
X579564Y-1489193D01*
X579557Y-1488922D01*
X579622Y-1488659D01*
X579525Y-1487807D01*
X579500Y-1486949D01*
X579398Y-1486698D01*
X579368Y-1486429D01*
X578817Y-1485258D01*
X578659Y-1484868D01*
X578605Y-1484809D01*
X578565Y-1484723D01*
X573689Y-1477426D01*
X569325Y-1466890D01*
X567706Y-1458749D01*
X616250Y-1458749D01*
X616250Y-1507294D01*
X608110Y-1505675D01*
X602399Y-1503309D01*
X601933Y-1503207D01*
X601495Y-1503012D01*
X600843Y-1502969D01*
X600206Y-1502830D01*
X599732Y-1502897D01*
X599255Y-1502866D01*
X598630Y-1503053D01*
X597983Y-1503144D01*
X597563Y-1503372D01*
X597104Y-1503509D01*
X596582Y-1503902D01*
X596009Y-1504212D01*
X595694Y-1504572D01*
X595311Y-1504860D01*
X594959Y-1505410D01*
X594529Y-1505901D01*
X594359Y-1506348D01*
X594101Y-1506751D01*
X593962Y-1507389D01*
X593730Y-1507998D01*
X593726Y-1508476D01*
X593624Y-1508944D01*
X593715Y-1509747D01*
X593710Y-1510243D01*
X593798Y-1510487D01*
X593836Y-1510818D01*
X595400Y-1516656D01*
X595400Y-1552301D01*
X547698Y-1552301D01*
G37*
%LPD*%
%LPC*%
G36*
X1034599Y862698D02*
X1034599Y862698D01*
X1034599Y908344D01*
X1036331Y914804D01*
X1039675Y920596D01*
X1044403Y925325D01*
X1050195Y928669D01*
X1056656Y930400D01*
X1097301Y930400D01*
X1097301Y862698D01*
X1034599Y862698D01*
G37*
%LPD*%
%LPC*%
G36*
X1056656Y769599D02*
X1056656Y769599D01*
X1050195Y771331D01*
X1044403Y774675D01*
X1039675Y779403D01*
X1036331Y785195D01*
X1034599Y791656D01*
X1034599Y837301D01*
X1097301Y837301D01*
X1097301Y769599D01*
X1056656Y769599D01*
G37*
%LPD*%
%LPC*%
G36*
X-498344Y-1650400D02*
X-498344Y-1650400D01*
X-504804Y-1648669D01*
X-510596Y-1645325D01*
X-515325Y-1640596D01*
X-518669Y-1634804D01*
X-520400Y-1628344D01*
X-520400Y-1534999D01*
X-484999Y-1534999D01*
X-484999Y-1650400D01*
X-498344Y-1650400D01*
G37*
%LPD*%
%LPC*%
G36*
X-465000Y-1650400D02*
X-465000Y-1650400D01*
X-465000Y-1534999D01*
X-429599Y-1534999D01*
X-429599Y-1628344D01*
X-431331Y-1634804D01*
X-434675Y-1640596D01*
X-439403Y-1645325D01*
X-445195Y-1648669D01*
X-451656Y-1650400D01*
X-465000Y-1650400D01*
G37*
%LPD*%
G36*
X1542595Y-12583D02*
X1542595Y-12583D01*
X1543251Y-12564D01*
X1543692Y-12386D01*
X1544159Y-12302D01*
X1544724Y-11968D01*
X1545332Y-11723D01*
X1545683Y-11403D01*
X1546093Y-11161D01*
X1546507Y-10651D01*
X1546991Y-10210D01*
X1547208Y-9788D01*
X1547508Y-9418D01*
X1547719Y-8796D01*
X1548019Y-8214D01*
X1548101Y-7671D01*
X1548229Y-7292D01*
X1548218Y-6893D01*
X1548299Y-6349D01*
X1548299Y6349D01*
X1548183Y6994D01*
X1548165Y7650D01*
X1547987Y8091D01*
X1547903Y8558D01*
X1547569Y9123D01*
X1547323Y9731D01*
X1547003Y10082D01*
X1546762Y10492D01*
X1546252Y10906D01*
X1545811Y11390D01*
X1545389Y11607D01*
X1545019Y11908D01*
X1544397Y12118D01*
X1543815Y12418D01*
X1543272Y12500D01*
X1542893Y12628D01*
X1542494Y12617D01*
X1541950Y12698D01*
X1406351Y12698D01*
X1405706Y12583D01*
X1405050Y12564D01*
X1404609Y12386D01*
X1404142Y12302D01*
X1403577Y11968D01*
X1402969Y11723D01*
X1402618Y11403D01*
X1402208Y11161D01*
X1401794Y10651D01*
X1401310Y10210D01*
X1401093Y9788D01*
X1400793Y9418D01*
X1400582Y8796D01*
X1400282Y8214D01*
X1400200Y7671D01*
X1400072Y7292D01*
X1400083Y6893D01*
X1400002Y6349D01*
X1400002Y-6349D01*
X1400118Y-6994D01*
X1400136Y-7650D01*
X1400314Y-8091D01*
X1400398Y-8558D01*
X1400732Y-9123D01*
X1400978Y-9731D01*
X1401298Y-10082D01*
X1401539Y-10492D01*
X1402049Y-10906D01*
X1402490Y-11390D01*
X1402912Y-11607D01*
X1403282Y-11908D01*
X1403904Y-12118D01*
X1404486Y-12418D01*
X1405029Y-12500D01*
X1405408Y-12628D01*
X1405807Y-12617D01*
X1406351Y-12698D01*
X1541950Y-12698D01*
X1542595Y-12583D01*
G37*
G36*
X902180Y-1402039D02*
X902180Y-1402039D01*
X902834Y-1402069D01*
X903287Y-1401924D01*
X903760Y-1401875D01*
X904347Y-1401585D01*
X904973Y-1401385D01*
X905417Y-1401057D01*
X905773Y-1400881D01*
X906047Y-1400592D01*
X906490Y-1400264D01*
X908015Y-1398740D01*
X908523Y-1398009D01*
X909084Y-1397319D01*
X909160Y-1397093D01*
X909297Y-1396897D01*
X909518Y-1396037D01*
X909804Y-1395193D01*
X909798Y-1394953D01*
X909857Y-1394723D01*
X909766Y-1393840D01*
X909740Y-1392949D01*
X909650Y-1392727D01*
X909626Y-1392490D01*
X909232Y-1391692D01*
X908899Y-1390868D01*
X908738Y-1390692D01*
X908633Y-1390477D01*
X907984Y-1389865D01*
X907499Y-1389333D01*
X907499Y-1326152D01*
X907383Y-1325507D01*
X907368Y-1324971D01*
X907429Y-1324791D01*
X907418Y-1324392D01*
X907499Y-1323848D01*
X907499Y-1261969D01*
X907650Y-1261965D01*
X908091Y-1261787D01*
X908558Y-1261703D01*
X909123Y-1261369D01*
X909731Y-1261123D01*
X910082Y-1260803D01*
X910492Y-1260562D01*
X910906Y-1260052D01*
X911390Y-1259611D01*
X911607Y-1259189D01*
X911908Y-1258819D01*
X912118Y-1258197D01*
X912418Y-1257615D01*
X912500Y-1257072D01*
X912628Y-1256693D01*
X912617Y-1256294D01*
X912698Y-1255750D01*
X912698Y-1211798D01*
X912692Y-1211762D01*
X912698Y-1211725D01*
X912517Y-1210779D01*
X912518Y-1210712D01*
X912489Y-1210634D01*
X912302Y-1209589D01*
X912283Y-1209557D01*
X912276Y-1209520D01*
X911808Y-1208748D01*
X911755Y-1208601D01*
X911635Y-1208459D01*
X911161Y-1207656D01*
X911132Y-1207632D01*
X911112Y-1207600D01*
X910491Y-1207107D01*
X910305Y-1206887D01*
X909958Y-1206678D01*
X909418Y-1206240D01*
X909382Y-1206228D01*
X909353Y-1206205D01*
X908903Y-1206044D01*
X908689Y-1205915D01*
X897575Y-1201311D01*
X897179Y-1201047D01*
X896930Y-1200938D01*
X896719Y-1200767D01*
X895908Y-1200491D01*
X895122Y-1200148D01*
X894851Y-1200133D01*
X894593Y-1200046D01*
X893736Y-1200071D01*
X892881Y-1200023D01*
X892621Y-1200103D01*
X892349Y-1200110D01*
X891556Y-1200431D01*
X890736Y-1200684D01*
X890519Y-1200850D01*
X890268Y-1200952D01*
X889637Y-1201527D01*
X888955Y-1202051D01*
X888810Y-1202282D01*
X888610Y-1202464D01*
X888218Y-1203224D01*
X887761Y-1203952D01*
X887705Y-1204219D01*
X887581Y-1204460D01*
X887389Y-1205739D01*
X887303Y-1206150D01*
X887315Y-1206229D01*
X887301Y-1206325D01*
X887301Y-1255750D01*
X887417Y-1256395D01*
X887436Y-1257051D01*
X887614Y-1257492D01*
X887698Y-1257959D01*
X888031Y-1258524D01*
X888277Y-1259132D01*
X888597Y-1259483D01*
X888839Y-1259893D01*
X889348Y-1260307D01*
X889790Y-1260791D01*
X890212Y-1261008D01*
X890581Y-1261308D01*
X891204Y-1261519D01*
X891785Y-1261819D01*
X892329Y-1261901D01*
X892500Y-1261959D01*
X892500Y-1323848D01*
X892616Y-1324493D01*
X892631Y-1325029D01*
X892570Y-1325209D01*
X892582Y-1325608D01*
X892500Y-1326152D01*
X892500Y-1392623D01*
X892574Y-1393037D01*
X892555Y-1393457D01*
X892771Y-1394134D01*
X892897Y-1394833D01*
X893111Y-1395194D01*
X893239Y-1395596D01*
X893778Y-1396325D01*
X894038Y-1396766D01*
X894202Y-1396899D01*
X894359Y-1397113D01*
X897510Y-1400264D01*
X898048Y-1400638D01*
X898525Y-1401088D01*
X898964Y-1401274D01*
X899353Y-1401546D01*
X899987Y-1401709D01*
X900592Y-1401966D01*
X901067Y-1401988D01*
X901527Y-1402106D01*
X902180Y-1402039D01*
G37*
%LPC*%
G36*
X-1550400Y478779D02*
X-1550400Y478779D01*
X-1550400Y563124D01*
X-1548669Y569584D01*
X-1545325Y575376D01*
X-1540596Y580105D01*
X-1534804Y583449D01*
X-1528344Y585180D01*
X-1517499Y585180D01*
X-1517499Y478779D01*
X-1550400Y478779D01*
G37*
%LPD*%
%LPC*%
G36*
X-520400Y1372698D02*
X-520400Y1372698D01*
X-520400Y1398344D01*
X-518669Y1404804D01*
X-515325Y1410596D01*
X-510596Y1415325D01*
X-504804Y1418669D01*
X-498344Y1420400D01*
X-462698Y1420400D01*
X-462698Y1372698D01*
X-520400Y1372698D01*
G37*
%LPD*%
%LPC*%
G36*
X562698Y1122698D02*
X562698Y1122698D01*
X562698Y1170400D01*
X598344Y1170400D01*
X604804Y1168669D01*
X610596Y1165325D01*
X615325Y1160596D01*
X618669Y1154804D01*
X620400Y1148344D01*
X620400Y1122698D01*
X562698Y1122698D01*
G37*
%LPD*%
%LPC*%
G36*
X162698Y1502698D02*
X162698Y1502698D01*
X162698Y1550400D01*
X198344Y1550400D01*
X204804Y1548669D01*
X210596Y1545325D01*
X215325Y1540596D01*
X218669Y1534804D01*
X220400Y1528344D01*
X220400Y1502698D01*
X162698Y1502698D01*
G37*
%LPD*%
%LPC*%
G36*
X79599Y1502698D02*
X79599Y1502698D01*
X79599Y1528343D01*
X81331Y1534804D01*
X84675Y1540596D01*
X89403Y1545325D01*
X95195Y1548669D01*
X101656Y1550400D01*
X137301Y1550400D01*
X137301Y1502698D01*
X79599Y1502698D01*
G37*
%LPD*%
%LPC*%
G36*
X496656Y-1635400D02*
X496656Y-1635400D01*
X490195Y-1633669D01*
X484403Y-1630325D01*
X479675Y-1625596D01*
X476331Y-1619804D01*
X474599Y-1613343D01*
X474599Y-1577698D01*
X522301Y-1577698D01*
X522301Y-1635400D01*
X496656Y-1635400D01*
G37*
%LPD*%
%LPC*%
G36*
X162698Y1477301D02*
X162698Y1477301D01*
X220400Y1477301D01*
X220400Y1451656D01*
X218669Y1445195D01*
X215325Y1439403D01*
X210596Y1434675D01*
X204804Y1431331D01*
X198343Y1429599D01*
X162698Y1429599D01*
X162698Y1477301D01*
G37*
%LPD*%
%LPC*%
G36*
X-498344Y1299599D02*
X-498344Y1299599D01*
X-504804Y1301331D01*
X-510596Y1304675D01*
X-515325Y1309403D01*
X-518669Y1315195D01*
X-520400Y1321656D01*
X-520400Y1347301D01*
X-462698Y1347301D01*
X-462698Y1299599D01*
X-498344Y1299599D01*
G37*
%LPD*%
%LPC*%
G36*
X-437301Y1372698D02*
X-437301Y1372698D01*
X-437301Y1420400D01*
X-401656Y1420400D01*
X-395195Y1418669D01*
X-389403Y1415325D01*
X-384675Y1410596D01*
X-381331Y1404804D01*
X-379599Y1398344D01*
X-379599Y1372698D01*
X-437301Y1372698D01*
G37*
%LPD*%
%LPC*%
G36*
X-437301Y1347301D02*
X-437301Y1347301D01*
X-379599Y1347301D01*
X-379599Y1321656D01*
X-381331Y1315195D01*
X-384675Y1309403D01*
X-389403Y1304675D01*
X-395195Y1301331D01*
X-401656Y1299599D01*
X-437301Y1299599D01*
X-437301Y1347301D01*
G37*
%LPD*%
%LPC*%
G36*
X101656Y1429599D02*
X101656Y1429599D01*
X95195Y1431331D01*
X89403Y1434675D01*
X84675Y1439403D01*
X81331Y1445195D01*
X79599Y1451656D01*
X79599Y1477301D01*
X137301Y1477301D01*
X137301Y1429599D01*
X101656Y1429599D01*
G37*
%LPD*%
%LPC*%
G36*
X474599Y-1552301D02*
X474599Y-1552301D01*
X474599Y-1516656D01*
X476331Y-1510195D01*
X479675Y-1504403D01*
X484403Y-1499675D01*
X490195Y-1496331D01*
X496656Y-1494599D01*
X522301Y-1494599D01*
X522301Y-1552301D01*
X474599Y-1552301D01*
G37*
%LPD*%
%LPC*%
G36*
X185698Y-1705400D02*
X185698Y-1705400D01*
X185698Y-1662698D01*
X248400Y-1662698D01*
X248400Y-1683344D01*
X246669Y-1689804D01*
X243325Y-1695596D01*
X238596Y-1700325D01*
X232804Y-1703669D01*
X226344Y-1705400D01*
X185698Y-1705400D01*
G37*
%LPD*%
%LPC*%
G36*
X185698Y-1637301D02*
X185698Y-1637301D01*
X185698Y-1594599D01*
X226344Y-1594599D01*
X232804Y-1596331D01*
X238596Y-1599675D01*
X243325Y-1604403D01*
X246669Y-1610195D01*
X248400Y-1616656D01*
X248400Y-1637301D01*
X185698Y-1637301D01*
G37*
%LPD*%
%LPC*%
G36*
X113195Y-1703669D02*
X113195Y-1703669D01*
X107403Y-1700325D01*
X102675Y-1695596D01*
X99331Y-1689804D01*
X97599Y-1683344D01*
X97599Y-1662698D01*
X160301Y-1662698D01*
X160301Y-1705400D01*
X119656Y-1705400D01*
X113195Y-1703669D01*
G37*
%LPD*%
%LPC*%
G36*
X97599Y-1637301D02*
X97599Y-1637301D01*
X97599Y-1616656D01*
X99331Y-1610195D01*
X102675Y-1604403D01*
X107403Y-1599675D01*
X113195Y-1596331D01*
X119656Y-1594599D01*
X160301Y-1594599D01*
X160301Y-1637301D01*
X97599Y-1637301D01*
G37*
%LPD*%
%LPC*%
G36*
X-1687301Y72698D02*
X-1687301Y72698D01*
X-1687301Y115400D01*
X-1661656Y115400D01*
X-1655195Y113669D01*
X-1649403Y110325D01*
X-1644675Y105596D01*
X-1641331Y99804D01*
X-1639599Y93344D01*
X-1639599Y72698D01*
X-1687301Y72698D01*
G37*
%LPD*%
%LPC*%
G36*
X539599Y1587698D02*
X539599Y1587698D01*
X539599Y1608344D01*
X541331Y1614804D01*
X544675Y1620596D01*
X549403Y1625325D01*
X555195Y1628669D01*
X561656Y1630400D01*
X587301Y1630400D01*
X587301Y1587698D01*
X539599Y1587698D01*
G37*
%LPD*%
%LPC*%
G36*
X-57294Y1658749D02*
X-57294Y1658749D01*
X-55675Y1666890D01*
X-51311Y1677426D01*
X-44974Y1686909D01*
X-36909Y1694974D01*
X-27426Y1701311D01*
X-16890Y1705675D01*
X-8749Y1707294D01*
X-8749Y1658749D01*
X-57294Y1658749D01*
G37*
%LPD*%
%LPC*%
G36*
X8749Y1658749D02*
X8749Y1658749D01*
X8749Y1707294D01*
X16890Y1705675D01*
X27426Y1701311D01*
X36909Y1694974D01*
X44974Y1686909D01*
X51311Y1677426D01*
X55675Y1666890D01*
X57294Y1658749D01*
X8749Y1658749D01*
G37*
%LPD*%
%LPC*%
G36*
X1658749Y-8749D02*
X1658749Y-8749D01*
X1707294Y-8749D01*
X1705675Y-16890D01*
X1701311Y-27426D01*
X1694974Y-36909D01*
X1686909Y-44974D01*
X1677426Y-51311D01*
X1666890Y-55675D01*
X1658749Y-57294D01*
X1658749Y-8749D01*
G37*
%LPD*%
%LPC*%
G36*
X1233749Y858749D02*
X1233749Y858749D01*
X1233749Y907294D01*
X1241890Y905675D01*
X1252426Y901311D01*
X1261909Y894974D01*
X1269974Y886909D01*
X1276311Y877426D01*
X1280675Y866890D01*
X1282294Y858749D01*
X1233749Y858749D01*
G37*
%LPD*%
%LPC*%
G36*
X-557294Y1608749D02*
X-557294Y1608749D01*
X-555675Y1616890D01*
X-551311Y1627426D01*
X-544974Y1636909D01*
X-536909Y1644974D01*
X-527426Y1651311D01*
X-516890Y1655675D01*
X-508749Y1657294D01*
X-508749Y1608749D01*
X-557294Y1608749D01*
G37*
%LPD*%
%LPC*%
G36*
X-1467494Y809149D02*
X-1467494Y809149D01*
X-1465875Y817290D01*
X-1461511Y827826D01*
X-1455174Y837309D01*
X-1447109Y845374D01*
X-1437626Y851711D01*
X-1427090Y856075D01*
X-1418949Y857694D01*
X-1418949Y809149D01*
X-1467494Y809149D01*
G37*
%LPD*%
%LPC*%
G36*
X1058749Y1183749D02*
X1058749Y1183749D01*
X1058749Y1232294D01*
X1066890Y1230675D01*
X1077426Y1226311D01*
X1086909Y1219974D01*
X1094974Y1211909D01*
X1101311Y1202426D01*
X1105675Y1191890D01*
X1107294Y1183749D01*
X1058749Y1183749D01*
G37*
%LPD*%
%LPC*%
G36*
X-1692494Y284149D02*
X-1692494Y284149D01*
X-1690875Y292290D01*
X-1686511Y302826D01*
X-1680174Y312309D01*
X-1672109Y320374D01*
X-1662626Y326711D01*
X-1652090Y331075D01*
X-1643949Y332694D01*
X-1643949Y284149D01*
X-1692494Y284149D01*
G37*
%LPD*%
%LPC*%
G36*
X-1017494Y1134149D02*
X-1017494Y1134149D01*
X-1015875Y1142290D01*
X-1011511Y1152826D01*
X-1005174Y1162309D01*
X-997109Y1170374D01*
X-987626Y1176711D01*
X-977090Y1181075D01*
X-968949Y1182694D01*
X-968949Y1134149D01*
X-1017494Y1134149D01*
G37*
%LPD*%
%LPC*%
G36*
X33749Y-1549749D02*
X33749Y-1549749D01*
X82294Y-1549749D01*
X80675Y-1557890D01*
X76311Y-1568426D01*
X69974Y-1577909D01*
X61909Y-1585974D01*
X52426Y-1592311D01*
X41890Y-1596675D01*
X33749Y-1598294D01*
X33749Y-1549749D01*
G37*
%LPD*%
%LPC*%
G36*
X1658749Y8749D02*
X1658749Y8749D01*
X1658749Y57294D01*
X1666890Y55675D01*
X1677426Y51311D01*
X1686909Y44974D01*
X1694974Y36909D01*
X1701311Y27426D01*
X1705675Y16890D01*
X1707294Y8749D01*
X1658749Y8749D01*
G37*
%LPD*%
%LPC*%
G36*
X1233749Y-1058749D02*
X1233749Y-1058749D01*
X1282294Y-1058749D01*
X1280675Y-1066890D01*
X1276311Y-1077426D01*
X1269974Y-1086909D01*
X1261909Y-1094974D01*
X1252426Y-1101311D01*
X1241890Y-1105675D01*
X1233749Y-1107294D01*
X1233749Y-1058749D01*
G37*
%LPD*%
%LPC*%
G36*
X1233749Y841250D02*
X1233749Y841250D01*
X1282294Y841250D01*
X1280675Y833110D01*
X1276311Y822574D01*
X1269974Y813090D01*
X1261909Y805026D01*
X1252426Y798689D01*
X1241890Y794325D01*
X1233749Y792706D01*
X1233749Y841250D01*
G37*
%LPD*%
%LPC*%
G36*
X-1626450Y284149D02*
X-1626450Y284149D01*
X-1626450Y332694D01*
X-1618310Y331075D01*
X-1607774Y326711D01*
X-1598290Y320374D01*
X-1590226Y312309D01*
X-1583889Y302826D01*
X-1579525Y292290D01*
X-1577906Y284149D01*
X-1626450Y284149D01*
G37*
%LPD*%
%LPC*%
G36*
X-1652090Y219725D02*
X-1652090Y219725D01*
X-1662626Y224089D01*
X-1672109Y230426D01*
X-1680174Y238490D01*
X-1686511Y247974D01*
X-1690875Y258510D01*
X-1692494Y266650D01*
X-1643949Y266650D01*
X-1643949Y218106D01*
X-1652090Y219725D01*
G37*
%LPD*%
%LPC*%
G36*
X-1401450Y809149D02*
X-1401450Y809149D01*
X-1401450Y857694D01*
X-1393310Y856075D01*
X-1382774Y851711D01*
X-1373290Y845374D01*
X-1365226Y837309D01*
X-1358889Y827826D01*
X-1354525Y817290D01*
X-1352906Y809149D01*
X-1401450Y809149D01*
G37*
%LPD*%
%LPC*%
G36*
X-977090Y1069725D02*
X-977090Y1069725D01*
X-987626Y1074089D01*
X-997109Y1080426D01*
X-1005174Y1088490D01*
X-1011511Y1097974D01*
X-1015875Y1108510D01*
X-1017494Y1116650D01*
X-968949Y1116650D01*
X-968949Y1068106D01*
X-977090Y1069725D01*
G37*
%LPD*%
%LPC*%
G36*
X1058749Y1166250D02*
X1058749Y1166250D01*
X1107294Y1166250D01*
X1105675Y1158110D01*
X1101311Y1147574D01*
X1094974Y1138090D01*
X1086909Y1130026D01*
X1077426Y1123689D01*
X1066890Y1119325D01*
X1058749Y1117706D01*
X1058749Y1166250D01*
G37*
%LPD*%
%LPC*%
G36*
X-951450Y1134149D02*
X-951450Y1134149D01*
X-951450Y1182694D01*
X-943310Y1181075D01*
X-932774Y1176711D01*
X-923290Y1170374D01*
X-915226Y1162309D01*
X-908889Y1152826D01*
X-904525Y1142290D01*
X-902906Y1134149D01*
X-951450Y1134149D01*
G37*
%LPD*%
%LPC*%
G36*
X8749Y1641250D02*
X8749Y1641250D01*
X57294Y1641250D01*
X55675Y1633110D01*
X51311Y1622574D01*
X44974Y1613090D01*
X36909Y1605026D01*
X27426Y1598689D01*
X16890Y1594325D01*
X8749Y1592706D01*
X8749Y1641250D01*
G37*
%LPD*%
%LPC*%
G36*
X-16890Y1594325D02*
X-16890Y1594325D01*
X-27426Y1598689D01*
X-36909Y1605026D01*
X-44974Y1613090D01*
X-51311Y1622574D01*
X-55675Y1633110D01*
X-57294Y1641250D01*
X-8749Y1641250D01*
X-8749Y1592706D01*
X-16890Y1594325D01*
G37*
%LPD*%
%LPC*%
G36*
X-1427090Y744725D02*
X-1427090Y744725D01*
X-1437626Y749089D01*
X-1447109Y755426D01*
X-1455174Y763490D01*
X-1461511Y772974D01*
X-1465875Y783510D01*
X-1467494Y791650D01*
X-1418949Y791650D01*
X-1418949Y743106D01*
X-1427090Y744725D01*
G37*
%LPD*%
%LPC*%
G36*
X-491250Y1608749D02*
X-491250Y1608749D01*
X-491250Y1657294D01*
X-483110Y1655675D01*
X-472574Y1651311D01*
X-463090Y1644974D01*
X-455026Y1636909D01*
X-448689Y1627426D01*
X-444325Y1616890D01*
X-442706Y1608749D01*
X-491250Y1608749D01*
G37*
%LPD*%
%LPC*%
G36*
X1233749Y-1041250D02*
X1233749Y-1041250D01*
X1233749Y-992706D01*
X1241890Y-994325D01*
X1252426Y-998689D01*
X1261909Y-1005026D01*
X1269974Y-1013090D01*
X1276311Y-1022574D01*
X1280675Y-1033110D01*
X1282294Y-1041250D01*
X1233749Y-1041250D01*
G37*
%LPD*%
%LPC*%
G36*
X367706Y1108749D02*
X367706Y1108749D01*
X369325Y1116890D01*
X373689Y1127426D01*
X380026Y1136909D01*
X388090Y1144974D01*
X397574Y1151311D01*
X408110Y1155675D01*
X416250Y1157294D01*
X416250Y1108749D01*
X367706Y1108749D01*
G37*
%LPD*%
%LPC*%
G36*
X8110Y-1596675D02*
X8110Y-1596675D01*
X-2426Y-1592311D01*
X-11909Y-1585974D01*
X-19974Y-1577909D01*
X-26311Y-1568426D01*
X-30675Y-1557890D01*
X-32294Y-1549749D01*
X16250Y-1549749D01*
X16250Y-1598294D01*
X8110Y-1596675D01*
G37*
%LPD*%
%LPC*%
G36*
X-1401450Y791650D02*
X-1401450Y791650D01*
X-1352906Y791650D01*
X-1354525Y783510D01*
X-1358889Y772974D01*
X-1365226Y763490D01*
X-1373290Y755426D01*
X-1382774Y749089D01*
X-1393310Y744725D01*
X-1401450Y743106D01*
X-1401450Y791650D01*
G37*
%LPD*%
%LPC*%
G36*
X-1626450Y266650D02*
X-1626450Y266650D01*
X-1577906Y266650D01*
X-1579525Y258510D01*
X-1583889Y247974D01*
X-1590226Y238490D01*
X-1598290Y230426D01*
X-1607774Y224089D01*
X-1618310Y219725D01*
X-1626450Y218106D01*
X-1626450Y266650D01*
G37*
%LPD*%
%LPC*%
G36*
X-951450Y1116650D02*
X-951450Y1116650D01*
X-902906Y1116650D01*
X-904525Y1108510D01*
X-908889Y1097974D01*
X-915226Y1088490D01*
X-923290Y1080426D01*
X-932774Y1074089D01*
X-943310Y1069725D01*
X-951450Y1068106D01*
X-951450Y1116650D01*
G37*
%LPD*%
%LPC*%
G36*
X597910Y1319725D02*
X597910Y1319725D01*
X587374Y1324089D01*
X577890Y1330426D01*
X569826Y1338490D01*
X563489Y1347974D01*
X559125Y1358510D01*
X557506Y1366650D01*
X606050Y1366650D01*
X606050Y1318106D01*
X597910Y1319725D01*
G37*
%LPD*%
%LPC*%
G36*
X-1618400Y159499D02*
X-1618400Y159499D01*
X-1618400Y186844D01*
X-1616669Y193304D01*
X-1613325Y199096D01*
X-1608596Y203825D01*
X-1602804Y207169D01*
X-1596344Y208900D01*
X-1581499Y208900D01*
X-1581499Y159499D01*
X-1618400Y159499D01*
G37*
%LPD*%
%LPC*%
G36*
X955499Y1334499D02*
X955499Y1334499D01*
X955499Y1383900D01*
X970344Y1383900D01*
X976804Y1382169D01*
X982596Y1378825D01*
X987325Y1374096D01*
X990669Y1368304D01*
X992400Y1361844D01*
X992400Y1334499D01*
X955499Y1334499D01*
G37*
%LPD*%
%LPC*%
G36*
X956499Y966099D02*
X956499Y966099D01*
X956499Y1015500D01*
X993400Y1015500D01*
X993400Y988156D01*
X991669Y981695D01*
X988325Y975903D01*
X983596Y971175D01*
X977804Y967831D01*
X971344Y966099D01*
X956499Y966099D01*
G37*
%LPD*%
%LPC*%
G36*
X149998Y1489998D02*
X149998Y1489998D01*
X149998Y1490002D01*
X150002Y1490002D01*
X150002Y1489998D01*
X149998Y1489998D01*
G37*
%LPD*%
%LPC*%
G36*
X534998Y-1565002D02*
X534998Y-1565002D01*
X534998Y-1564998D01*
X535002Y-1564998D01*
X535002Y-1565002D01*
X534998Y-1565002D01*
G37*
%LPD*%
%LPC*%
G36*
X1109998Y849998D02*
X1109998Y849998D01*
X1109998Y850002D01*
X1110002Y850002D01*
X1110002Y849998D01*
X1109998Y849998D01*
G37*
%LPD*%
%LPC*%
G36*
X172998Y-1650002D02*
X172998Y-1650002D01*
X172998Y-1649998D01*
X173002Y-1649998D01*
X173002Y-1650002D01*
X172998Y-1650002D01*
G37*
%LPD*%
%LPC*%
G36*
X-450002Y1359998D02*
X-450002Y1359998D01*
X-450002Y1360002D01*
X-449998Y1360002D01*
X-449998Y1359998D01*
X-450002Y1359998D01*
G37*
%LPD*%
D10*
X1793375Y-42625D02*
X1793375Y57375D01*
X-1806625Y7375D02*
X-1806083Y51549D01*
X-1804457Y95697D01*
X-1801748Y139791D01*
X-1797958Y183806D01*
X-1793088Y227714D01*
X-1787143Y271490D01*
X-1780125Y315106D01*
X-1772039Y358538D01*
X-1762889Y401757D01*
X-1752681Y444739D01*
X-1741422Y487458D01*
X-1729118Y529887D01*
X-1715776Y572002D01*
X-1701404Y613777D01*
X-1686012Y655186D01*
X-1669608Y696205D01*
X-1652203Y736809D01*
X-1633806Y776974D01*
X-1614429Y816675D01*
X-1594083Y855889D01*
X-1572782Y894592D01*
X-1550536Y932760D01*
X-1527361Y970371D01*
X-1503270Y1007401D01*
X-1478278Y1043830D01*
X-1452399Y1079634D01*
X-1425649Y1114792D01*
X-1398044Y1149283D01*
X-1369601Y1183086D01*
X-1340337Y1216181D01*
X-1310270Y1248548D01*
X-1279417Y1280167D01*
X-1247798Y1311020D01*
X-1215431Y1341087D01*
X-1182336Y1370351D01*
X-1148533Y1398794D01*
X-1114042Y1426399D01*
X-1078884Y1453149D01*
X-1043080Y1479028D01*
X-1006651Y1504020D01*
X-969621Y1528111D01*
X-932010Y1551286D01*
X-893842Y1573532D01*
X-855139Y1594833D01*
X-815925Y1615179D01*
X-776224Y1634556D01*
X-736059Y1652953D01*
X-695455Y1670358D01*
X-654436Y1686762D01*
X-613027Y1702154D01*
X-571252Y1716526D01*
X-529137Y1729868D01*
X-486708Y1742172D01*
X-443989Y1753431D01*
X-401007Y1763639D01*
X-357788Y1772789D01*
X-314356Y1780875D01*
X-270740Y1787893D01*
X-226964Y1793838D01*
X-183056Y1798708D01*
X-139041Y1802498D01*
X-94947Y1805207D01*
X-50799Y1806833D01*
X-6625Y1807375D01*
X37549Y1806833D01*
X81697Y1805207D01*
X125791Y1802498D01*
X169806Y1798708D01*
X213714Y1793838D01*
X257490Y1787893D01*
X301106Y1780875D01*
X344538Y1772789D01*
X387757Y1763639D01*
X430739Y1753431D01*
X473458Y1742172D01*
X515887Y1729868D01*
X558002Y1716526D01*
X599777Y1702154D01*
X641186Y1686762D01*
X682205Y1670358D01*
X722809Y1652953D01*
X762974Y1634556D01*
X802675Y1615179D01*
X841889Y1594833D01*
X880592Y1573532D01*
X918760Y1551286D01*
X956371Y1528111D01*
X993401Y1504020D01*
X1029830Y1479028D01*
X1065634Y1453149D01*
X1100792Y1426399D01*
X1135283Y1398794D01*
X1169086Y1370351D01*
X1202181Y1341087D01*
X1234548Y1311020D01*
X1266167Y1280167D01*
X1297020Y1248548D01*
X1327087Y1216181D01*
X1356351Y1183086D01*
X1384794Y1149283D01*
X1412399Y1114792D01*
X1439149Y1079634D01*
X1465028Y1043830D01*
X1490020Y1007401D01*
X1514111Y970371D01*
X1537286Y932760D01*
X1559532Y894592D01*
X1580833Y855889D01*
X1601179Y816675D01*
X1620556Y776974D01*
X1638953Y736809D01*
X1656358Y696205D01*
X1672762Y655186D01*
X1688154Y613777D01*
X1702526Y572002D01*
X1715868Y529887D01*
X1728172Y487458D01*
X1739431Y444739D01*
X1749639Y401757D01*
X1758789Y358538D01*
X1766875Y315106D01*
X1773893Y271490D01*
X1779838Y227714D01*
X1784708Y183806D01*
X1788498Y139791D01*
X1791207Y95697D01*
X1792833Y51549D01*
X1793375Y7375D01*
X1792833Y-36799D01*
X1791207Y-80947D01*
X1788498Y-125041D01*
X1784708Y-169056D01*
X1779838Y-212964D01*
X1773893Y-256740D01*
X1766875Y-300356D01*
X1758789Y-343788D01*
X1749639Y-387007D01*
X1739431Y-429989D01*
X1728172Y-472708D01*
X1715868Y-515137D01*
X1702526Y-557252D01*
X1688154Y-599027D01*
X1672762Y-640436D01*
X1656358Y-681455D01*
X1638953Y-722059D01*
X1620556Y-762224D01*
X1601179Y-801925D01*
X1580833Y-841139D01*
X1559532Y-879842D01*
X1537286Y-918010D01*
X1514111Y-955621D01*
X1490020Y-992651D01*
X1465028Y-1029080D01*
X1439149Y-1064884D01*
X1412399Y-1100042D01*
X1384794Y-1134533D01*
X1356351Y-1168336D01*
X1327087Y-1201431D01*
X1297020Y-1233798D01*
X1266167Y-1265417D01*
X1234548Y-1296270D01*
X1202181Y-1326337D01*
X1169086Y-1355601D01*
X1135283Y-1384044D01*
X1100792Y-1411649D01*
X1065634Y-1438399D01*
X1029830Y-1464278D01*
X993401Y-1489270D01*
X956371Y-1513361D01*
X918760Y-1536536D01*
X880592Y-1558782D01*
X841889Y-1580083D01*
X802675Y-1600429D01*
X762974Y-1619806D01*
X722809Y-1638203D01*
X682205Y-1655608D01*
X641186Y-1672012D01*
X599777Y-1687404D01*
X558002Y-1701776D01*
X515887Y-1715118D01*
X473458Y-1727422D01*
X430739Y-1738681D01*
X387757Y-1748889D01*
X344538Y-1758039D01*
X301106Y-1766125D01*
X257490Y-1773143D01*
X213714Y-1779088D01*
X169806Y-1783958D01*
X125791Y-1787748D01*
X81697Y-1790457D01*
X37549Y-1792083D01*
X-6625Y-1792625D01*
X-50799Y-1792083D01*
X-94947Y-1790457D01*
X-139041Y-1787748D01*
X-183056Y-1783958D01*
X-226964Y-1779088D01*
X-270740Y-1773143D01*
X-314356Y-1766125D01*
X-357788Y-1758039D01*
X-401007Y-1748889D01*
X-443989Y-1738681D01*
X-486708Y-1727422D01*
X-529137Y-1715118D01*
X-571252Y-1701776D01*
X-613027Y-1687404D01*
X-654436Y-1672012D01*
X-695455Y-1655608D01*
X-736059Y-1638203D01*
X-776224Y-1619806D01*
X-815925Y-1600429D01*
X-855139Y-1580083D01*
X-893842Y-1558782D01*
X-932010Y-1536536D01*
X-969621Y-1513361D01*
X-1006651Y-1489270D01*
X-1043080Y-1464278D01*
X-1078884Y-1438399D01*
X-1114042Y-1411649D01*
X-1148533Y-1384044D01*
X-1182336Y-1355601D01*
X-1215431Y-1326337D01*
X-1247798Y-1296270D01*
X-1279417Y-1265417D01*
X-1310270Y-1233798D01*
X-1340337Y-1201431D01*
X-1369601Y-1168336D01*
X-1398044Y-1134533D01*
X-1425649Y-1100042D01*
X-1452399Y-1064884D01*
X-1478278Y-1029080D01*
X-1503270Y-992651D01*
X-1527361Y-955621D01*
X-1550536Y-918010D01*
X-1572782Y-879842D01*
X-1594083Y-841139D01*
X-1614429Y-801925D01*
X-1633806Y-762224D01*
X-1652203Y-722059D01*
X-1669608Y-681455D01*
X-1686012Y-640436D01*
X-1701404Y-599027D01*
X-1715776Y-557252D01*
X-1729118Y-515137D01*
X-1741422Y-472708D01*
X-1752681Y-429989D01*
X-1762889Y-387007D01*
X-1772039Y-343788D01*
X-1780125Y-300356D01*
X-1787143Y-256740D01*
X-1793088Y-212964D01*
X-1797958Y-169056D01*
X-1801748Y-125041D01*
X-1804457Y-80947D01*
X-1806083Y-36799D01*
X-1806625Y7375D01*
D11*
X-1100045Y0D02*
X-1099714Y26996D01*
X-1098720Y53977D01*
X-1097064Y80924D01*
X-1094748Y107823D01*
X-1091772Y134657D01*
X-1088139Y161410D01*
X-1083850Y188066D01*
X-1078908Y214608D01*
X-1073316Y241021D01*
X-1067078Y267289D01*
X-1060197Y293396D01*
X-1052677Y319326D01*
X-1044524Y345064D01*
X-1035741Y370594D01*
X-1026334Y395901D01*
X-1016309Y420969D01*
X-1005672Y445784D01*
X-994429Y470330D01*
X-982587Y494593D01*
X-970153Y518558D01*
X-957135Y542210D01*
X-943540Y565536D01*
X-929377Y588521D01*
X-914654Y611152D01*
X-899380Y633415D01*
X-883564Y655296D01*
X-867217Y676782D01*
X-850346Y697861D01*
X-832964Y718520D01*
X-815080Y738745D01*
X-796704Y758526D01*
X-777849Y777849D01*
X-758526Y796704D01*
X-738745Y815080D01*
X-718520Y832964D01*
X-697861Y850346D01*
X-676782Y867217D01*
X-655296Y883564D01*
X-633415Y899380D01*
X-611152Y914654D01*
X-588521Y929377D01*
X-565536Y943540D01*
X-542210Y957135D01*
X-518558Y970153D01*
X-494593Y982587D01*
X-470330Y994429D01*
X-445784Y1005672D01*
X-420969Y1016309D01*
X-395901Y1026334D01*
X-370594Y1035741D01*
X-345064Y1044524D01*
X-319326Y1052677D01*
X-293396Y1060197D01*
X-267289Y1067078D01*
X-241021Y1073316D01*
X-214608Y1078908D01*
X-188066Y1083850D01*
X-161410Y1088139D01*
X-134657Y1091772D01*
X-107823Y1094748D01*
X-80924Y1097064D01*
X-53977Y1098720D01*
X-26996Y1099714D01*
X0Y1100045D01*
X26996Y1099714D01*
X53977Y1098720D01*
X80924Y1097064D01*
X107823Y1094748D01*
X134657Y1091772D01*
X161410Y1088139D01*
X188066Y1083850D01*
X214608Y1078908D01*
X241021Y1073316D01*
X267289Y1067078D01*
X293396Y1060197D01*
X319326Y1052677D01*
X345064Y1044524D01*
X370594Y1035741D01*
X395901Y1026334D01*
X420969Y1016309D01*
X445784Y1005672D01*
X470330Y994429D01*
X494593Y982587D01*
X518558Y970153D01*
X542210Y957135D01*
X565536Y943540D01*
X588521Y929377D01*
X611152Y914654D01*
X633415Y899380D01*
X655296Y883564D01*
X676782Y867217D01*
X697861Y850346D01*
X718520Y832964D01*
X738745Y815080D01*
X758526Y796704D01*
X777849Y777849D01*
X796704Y758526D01*
X815080Y738745D01*
X832964Y718520D01*
X850346Y697861D01*
X867217Y676782D01*
X883564Y655296D01*
X899380Y633415D01*
X914654Y611152D01*
X929377Y588521D01*
X943540Y565536D01*
X957135Y542210D01*
X970153Y518558D01*
X982587Y494593D01*
X994429Y470330D01*
X1005672Y445784D01*
X1016309Y420969D01*
X1026334Y395901D01*
X1035741Y370594D01*
X1044524Y345064D01*
X1052677Y319326D01*
X1060197Y293396D01*
X1067078Y267289D01*
X1073316Y241021D01*
X1078908Y214608D01*
X1083850Y188066D01*
X1088139Y161410D01*
X1091772Y134657D01*
X1094748Y107823D01*
X1097064Y80924D01*
X1098720Y53977D01*
X1099714Y26996D01*
X1100045Y0D01*
X1099714Y-26996D01*
X1098720Y-53977D01*
X1097064Y-80924D01*
X1094748Y-107823D01*
X1091772Y-134657D01*
X1088139Y-161410D01*
X1083850Y-188066D01*
X1078908Y-214608D01*
X1073316Y-241021D01*
X1067078Y-267289D01*
X1060197Y-293396D01*
X1052677Y-319326D01*
X1044524Y-345064D01*
X1035741Y-370594D01*
X1026334Y-395901D01*
X1016309Y-420969D01*
X1005672Y-445784D01*
X994429Y-470330D01*
X982587Y-494593D01*
X970153Y-518558D01*
X957135Y-542210D01*
X943540Y-565536D01*
X929377Y-588521D01*
X914654Y-611152D01*
X899380Y-633415D01*
X883564Y-655296D01*
X867217Y-676782D01*
X850346Y-697861D01*
X832964Y-718520D01*
X815080Y-738745D01*
X796704Y-758526D01*
X777849Y-777849D01*
X758526Y-796704D01*
X738745Y-815080D01*
X718520Y-832964D01*
X697861Y-850346D01*
X676782Y-867217D01*
X655296Y-883564D01*
X633415Y-899380D01*
X611152Y-914654D01*
X588521Y-929377D01*
X565536Y-943540D01*
X542210Y-957135D01*
X518558Y-970153D01*
X494593Y-982587D01*
X470330Y-994429D01*
X445784Y-1005672D01*
X420969Y-1016309D01*
X395901Y-1026334D01*
X370594Y-1035741D01*
X345064Y-1044524D01*
X319326Y-1052677D01*
X293396Y-1060197D01*
X267289Y-1067078D01*
X241021Y-1073316D01*
X214608Y-1078908D01*
X188066Y-1083850D01*
X161410Y-1088139D01*
X134657Y-1091772D01*
X107823Y-1094748D01*
X80924Y-1097064D01*
X53977Y-1098720D01*
X26996Y-1099714D01*
X0Y-1100045D01*
X-26996Y-1099714D01*
X-53977Y-1098720D01*
X-80924Y-1097064D01*
X-107823Y-1094748D01*
X-134657Y-1091772D01*
X-161410Y-1088139D01*
X-188066Y-1083850D01*
X-214608Y-1078908D01*
X-241021Y-1073316D01*
X-267289Y-1067078D01*
X-293396Y-1060197D01*
X-319326Y-1052677D01*
X-345064Y-1044524D01*
X-370594Y-1035741D01*
X-395901Y-1026334D01*
X-420969Y-1016309D01*
X-445784Y-1005672D01*
X-470330Y-994429D01*
X-494593Y-982587D01*
X-518558Y-970153D01*
X-542210Y-957135D01*
X-565536Y-943540D01*
X-588521Y-929377D01*
X-611152Y-914654D01*
X-633415Y-899380D01*
X-655296Y-883564D01*
X-676782Y-867217D01*
X-697861Y-850346D01*
X-718520Y-832964D01*
X-738745Y-815080D01*
X-758526Y-796704D01*
X-777849Y-777849D01*
X-796704Y-758526D01*
X-815080Y-738745D01*
X-832964Y-718520D01*
X-850346Y-697861D01*
X-867217Y-676782D01*
X-883564Y-655296D01*
X-899380Y-633415D01*
X-914654Y-611152D01*
X-929377Y-588521D01*
X-943540Y-565536D01*
X-957135Y-542210D01*
X-970153Y-518558D01*
X-982587Y-494593D01*
X-994429Y-470330D01*
X-1005672Y-445784D01*
X-1016309Y-420969D01*
X-1026334Y-395901D01*
X-1035741Y-370594D01*
X-1044524Y-345064D01*
X-1052677Y-319326D01*
X-1060197Y-293396D01*
X-1067078Y-267289D01*
X-1073316Y-241021D01*
X-1078908Y-214608D01*
X-1083850Y-188066D01*
X-1088139Y-161410D01*
X-1091772Y-134657D01*
X-1094748Y-107823D01*
X-1097064Y-80924D01*
X-1098720Y-53977D01*
X-1099714Y-26996D01*
X-1100045Y0D01*
D12*
X405000Y-1565000D03*
X535000Y-1565000D03*
D13*
X-1225000Y135000D03*
X-1225000Y515000D03*
D14*
X900000Y-1125000D03*
D15*
X1000000Y-925000D03*
X950000Y-925000D03*
X900000Y-925000D03*
X850000Y-925000D03*
X800000Y-925000D03*
X800000Y-1325000D03*
X850000Y-1325000D03*
X900000Y-1325000D03*
X950000Y-1325000D03*
X1000000Y-1325000D03*
D16*
X700000Y-1225000D03*
X700000Y-1175000D03*
X700000Y-1125000D03*
X700000Y-1075000D03*
X700000Y-1025000D03*
X1100000Y-1025000D03*
X1100000Y-1075000D03*
X1100000Y-1125000D03*
X1100000Y-1175000D03*
X1100000Y-1225000D03*
D17*
X1400000Y0D03*
D18*
X1497500Y-155000D03*
X1432500Y-155000D03*
X1367500Y-155000D03*
X1302500Y-155000D03*
X1497500Y155000D03*
X1432500Y155000D03*
X1367500Y155000D03*
X1302500Y155000D03*
D19*
X1305000Y625000D03*
X1495000Y625000D03*
D20*
X-1025000Y-1100000D03*
D21*
X-980000Y-960000D03*
X-1025000Y-960000D03*
X-1070000Y-960000D03*
X-980000Y-1240000D03*
X-1025000Y-1240000D03*
X-1070000Y-1240000D03*
D22*
X-1160000Y-1145000D03*
X-1160000Y-1100000D03*
X-1160000Y-1055000D03*
X-885000Y-1145000D03*
X-885000Y-1100000D03*
X-885000Y-1055000D03*
D23*
X-873000Y-1190000D03*
D24*
X-935000Y-1252000D03*
X-935000Y-948000D03*
D23*
X-873000Y-1010000D03*
D24*
X-1115000Y-948000D03*
X-1115000Y-1252000D03*
D23*
X-1173000Y-1190000D03*
X-1173000Y-1010000D03*
D25*
X-595000Y-1525000D03*
X-475000Y-1525000D03*
X-355000Y-1525000D03*
D26*
X1411000Y-537000D03*
X1581000Y-537000D03*
D27*
X-127000Y-1425000D03*
X-127000Y-1375000D03*
X-127000Y-1325000D03*
X-127000Y-1475000D03*
X-127000Y-1525000D03*
X-127000Y-1275000D03*
D28*
X173000Y-1150000D03*
X173000Y-1650000D03*
D29*
G36*
X-699663Y1050712D02*
X-896875Y1276780D01*
X-768769Y1388534D01*
X-571557Y1162466D01*
X-699663Y1050712D01*
G37*
G36*
X-1031231Y761466D02*
X-1228443Y987534D01*
X-1100337Y1099288D01*
X-903125Y873220D01*
X-1031231Y761466D01*
G37*
D30*
X850000Y1175000D03*
D31*
X756000Y1323000D03*
X850000Y1323000D03*
X944000Y1323000D03*
X850000Y1027000D03*
X945000Y1027000D03*
X755000Y1027000D03*
D26*
X940000Y850000D03*
X1110000Y850000D03*
D32*
X550000Y1110000D03*
X550000Y1240000D03*
D33*
X600000Y1475000D03*
X600000Y1575000D03*
D34*
X1250000Y400000D03*
X1550000Y400000D03*
D32*
X-450000Y1490000D03*
X-450000Y1360000D03*
X150000Y1490000D03*
X150000Y1360000D03*
D35*
X-265000Y1425000D03*
X-265000Y1330000D03*
X-265000Y1520000D03*
X-35000Y1520000D03*
X-35000Y1330000D03*
D36*
X400000Y-1275000D03*
X400000Y-1325000D03*
X400000Y-1375000D03*
X400000Y-1425000D03*
X300000Y-1425000D03*
X300000Y-1375000D03*
X300000Y-1325000D03*
X300000Y-1275000D03*
D37*
X-1417440Y424595D03*
D38*
X-1510000Y471280D03*
D39*
X-1509660Y312390D03*
D40*
X-1515000Y-425000D03*
X-1235000Y-425000D03*
D30*
X-1475000Y0D03*
D31*
X-1381000Y-148000D03*
X-1475000Y-148000D03*
X-1569000Y-148000D03*
X-1475000Y148000D03*
X-1570000Y148000D03*
X-1380000Y148000D03*
D33*
X-1700000Y-40000D03*
X-1700000Y60000D03*
D41*
X300000Y1575000D03*
D42*
X-1234000Y-4000D03*
D43*
X-625000Y1450000D03*
D44*
X1200000Y-700000D03*
X1100000Y-700000D03*
D43*
X-1052000Y-642000D03*
D41*
X-280000Y1655000D03*
X-1375000Y-800000D03*
X-1275000Y-925000D03*
X1581000Y-456000D03*
X475000Y1475000D03*
X402000Y-1132000D03*
D42*
X1075000Y625000D03*
D45*
X-150000Y1330000D02*
X-265000Y1330000D01*
X-265000Y1520000D02*
X-150000Y1520000D01*
X-150000Y1330000D01*
X-265000Y1330000D02*
X-265000Y1240000D01*
X550000Y1240000D01*
X625000Y1240000D02*
X708000Y1323000D01*
X625000Y1240000D02*
X550000Y1240000D01*
X708000Y1323000D02*
X756000Y1323000D01*
D46*
X-1205481Y-342200D02*
X-1243800Y-342200D01*
X-1379000Y-150000D02*
X-1381000Y-148000D01*
D45*
X-420000Y1520000D02*
X-265000Y1520000D01*
X-420000Y1520000D02*
X-450000Y1490000D01*
D47*
X-1235000Y-148000D02*
X-1235000Y-425000D01*
X-1235000Y-148000D02*
X-1235000Y-4000D01*
X-1234000Y-4000D01*
X-1234000Y135000D01*
X-1225000Y135000D01*
D48*
X-1235000Y-148000D02*
X-1381000Y-148000D01*
D45*
X-265000Y1520000D02*
X-280000Y1535000D01*
X-280000Y1655000D01*
D49*
X0Y1650000D03*
X1650000Y0D03*
X0Y-1250000D03*
X925000Y-1150000D03*
X25000Y-1541000D03*
X250000Y-1150000D03*
X-1350000Y-1025000D03*
D50*
X1432500Y-155000D02*
X1432500Y0D01*
X1400000Y0D01*
D49*
X1218800Y400D03*
D50*
X1399600Y400D01*
X1400000Y0D01*
D49*
X-870000Y-1258000D03*
X625000Y-1450000D03*
X614800Y1375400D03*
X-1635200Y275400D03*
X-1410200Y800400D03*
X-285200Y1150400D03*
D50*
X-1475000Y0D02*
X-1570000Y0D01*
X-127000Y-1275000D02*
X-25000Y-1275000D01*
X0Y-1250000D01*
D49*
X1225000Y850000D03*
X1050000Y1175000D03*
X425000Y1100000D03*
X-1485200Y-824600D03*
X1225000Y-1050000D03*
X-850000Y-825000D03*
D50*
X-900000Y-775000D01*
D49*
X-475000Y-1100000D03*
X-960200Y1125400D03*
X-500000Y1600000D03*
D50*
X900000Y-1125000D02*
X925000Y-1150000D01*
D51*
X-1506000Y-703342D02*
X-1631000Y-578342D01*
X-1631000Y-277000D01*
X-1569000Y-215000D02*
X-1569000Y-148000D01*
X-1569000Y-215000D02*
X-1631000Y-277000D01*
D50*
X-1700000Y-100000D02*
X-1700000Y-40000D01*
X-1025000Y-885000D02*
X-1025000Y-960000D01*
X-1168259Y-831741D02*
X-1296658Y-703342D01*
X-1168259Y-831741D02*
X-1078259Y-831741D01*
X-1025000Y-885000D01*
X-1296658Y-703342D02*
X-1506000Y-703342D01*
X-1569000Y-148000D02*
X-1652000Y-148000D01*
X-1700000Y-100000D01*
D46*
X-1515000Y-425000D02*
X-1475000Y-425000D01*
X-1475000Y-600000D01*
X-1475000Y-425000D02*
X-1475000Y-148000D01*
X-1433000Y-642000D02*
X-1052000Y-642000D01*
X-1433000Y-642000D02*
X-1475000Y-600000D01*
D52*
X-873000Y-1010000D02*
X-795882Y-1010000D01*
D50*
X-127000Y-1375000D02*
X300000Y-1375000D01*
D52*
X-280782Y-1264239D02*
X-541643Y-1264239D01*
X-795882Y-1010000D01*
X-170021Y-1375000D02*
X-127000Y-1375000D01*
X-170021Y-1375000D02*
X-280782Y-1264239D01*
D50*
X-127000Y-1325000D02*
X300000Y-1325000D01*
D52*
X-799000Y-948000D02*
X-935000Y-948000D01*
X-264000Y-1224139D02*
X-163139Y-1325000D01*
X-264000Y-1224139D02*
X-522861Y-1224139D01*
X-799000Y-948000D01*
X-163139Y-1325000D02*
X-127000Y-1325000D01*
X-806764Y-1055000D02*
X-885000Y-1055000D01*
D50*
X-127000Y-1425000D02*
X300000Y-1425000D01*
D52*
X-299564Y-1303339D02*
X-558424Y-1303339D01*
X-806764Y-1055000D01*
X-177903Y-1425000D02*
X-127000Y-1425000D01*
X-177903Y-1425000D02*
X-299564Y-1303339D01*
X133921Y-1275000D02*
X300000Y-1275000D01*
X-800000Y-890100D02*
X-980000Y-890100D01*
X-980000Y-960000D01*
X41961Y-1183039D02*
X133921Y-1275000D01*
X41961Y-1183039D02*
X-507061Y-1183039D01*
X-800000Y-890100D01*
X300000Y-1275000D02*
X360800Y-1214200D01*
X434563Y-1214200D01*
X499800Y-1148963D01*
X499800Y-1106200D01*
X750000Y-925000D02*
X800000Y-925000D01*
X750000Y-925000D02*
X709500Y-965500D01*
X640500Y-965500D01*
X499800Y-1106200D01*
D45*
X1550000Y400000D02*
X1550000Y625000D01*
X1495000Y625000D01*
D50*
X1432500Y282500D02*
X1432500Y155000D01*
X1432500Y282500D02*
X1550000Y400000D01*
D45*
X1250000Y400000D02*
X1250000Y625000D01*
X1305000Y625000D01*
D50*
X1367500Y282500D02*
X1367500Y155000D01*
X1367500Y282500D02*
X1250000Y400000D01*
X950000Y-853000D02*
X950000Y-925000D01*
X1497500Y-669329D02*
X1497500Y-155000D01*
X1313829Y-853000D02*
X950000Y-853000D01*
X1313829Y-853000D02*
X1497500Y-669329D01*
D49*
X1325000Y-654000D03*
X1375000Y-900000D03*
D50*
X1350000Y-925000D02*
X1000000Y-925000D01*
X1350000Y-925000D02*
X1375000Y-900000D01*
D51*
X1302500Y-631500D02*
X1302500Y-155000D01*
X1302500Y-631500D02*
X1325000Y-654000D01*
D47*
X-1225000Y424595D02*
X-1417440Y424595D01*
X-1225000Y424595D02*
X-1225000Y515000D01*
X-1225000Y771161D01*
X-1065784Y930377D01*
D50*
X-1509660Y237390D02*
X-1475000Y202730D01*
X-1509660Y237390D02*
X-1509660Y312390D01*
X-1475000Y202730D02*
X-1475000Y148000D01*
D47*
X-734216Y1219623D02*
X-625000Y1328839D01*
X-625000Y1450000D01*
D52*
X-833528Y-1145000D02*
X-885000Y-1145000D01*
X-594988Y-1383539D02*
X-333128Y-1383539D01*
X-594988Y-1383539D02*
X-833528Y-1145000D01*
X-191667Y-1525000D02*
X-127000Y-1525000D01*
X-191667Y-1525000D02*
X-333128Y-1383539D01*
D49*
X-1300000Y-1100000D03*
D50*
X700000Y-1450000D02*
X750000Y-1450000D01*
D49*
X750000Y-1450000D03*
D50*
X700000Y-1450000D02*
X700000Y-1225000D01*
X-1115000Y-1252000D02*
X-1198000Y-1252000D01*
X-1300000Y-1150000D01*
X-1300000Y-1100000D01*
D49*
X863000Y-1440000D03*
X-1091000Y-1332000D03*
D50*
X-1070000Y-1311000D02*
X-1070000Y-1240000D01*
X-1070000Y-1311000D02*
X-1091000Y-1332000D01*
X950000Y-1325000D02*
X950000Y-1403000D01*
X913000Y-1440000D01*
X863000Y-1440000D01*
X-844000Y-1456000D02*
X-939625Y-1456000D01*
X-844000Y-1456000D02*
X-775000Y-1525000D01*
X-595000Y-1525000D01*
X-939625Y-1456000D02*
X-1025000Y-1370625D01*
X-1025000Y-1240000D01*
X-980000Y-1240000D02*
X-980000Y-1294743D01*
X-913843Y-1360900D01*
D49*
X-781000Y-1360900D03*
X-275000Y-1537000D03*
D50*
X-343000Y-1537000D01*
X-355000Y-1525000D01*
X-781000Y-1360900D02*
X-913843Y-1360900D01*
X1497500Y155000D02*
X1550000Y155000D01*
X1581000Y155000D02*
X1497500Y155000D01*
X1581000Y155000D02*
X1581000Y-537000D01*
X1581000Y-456000D01*
X-1265000Y-948000D02*
X-1275000Y-938000D01*
X-1275000Y-925000D01*
X-1265000Y-948000D02*
X-1115000Y-948000D01*
D52*
X400000Y-1325000D02*
X513000Y-1325000D01*
X643697Y-1025000D02*
X700000Y-1025000D01*
X643697Y-1025000D02*
X540900Y-1127797D01*
X540900Y-1297100D02*
X513000Y-1325000D01*
X540900Y-1297100D02*
X540900Y-1127797D01*
X651579Y-1075000D02*
X700000Y-1075000D01*
X651579Y-1075000D02*
X583000Y-1143579D01*
X583000Y-1311882D01*
X519882Y-1375000D02*
X400000Y-1375000D01*
X519882Y-1375000D02*
X583000Y-1311882D01*
X652579Y-1175000D02*
X700000Y-1175000D01*
X652579Y-1175000D02*
X626100Y-1201479D01*
X626100Y-1325664D01*
X526764Y-1425000D02*
X400000Y-1425000D01*
X526764Y-1425000D02*
X626100Y-1325664D01*
D50*
X850000Y1323000D02*
X850000Y1425000D01*
X800000Y1475000D02*
X600000Y1475000D01*
X800000Y1475000D02*
X850000Y1425000D01*
X-1275000Y-800000D02*
X-1375000Y-800000D01*
X475000Y1475000D02*
X564600Y1475000D01*
X600000Y1475000D02*
X475000Y1475000D01*
D51*
X-1275000Y-800000D02*
X-1198059Y-876941D01*
X-1070000Y-903923D02*
X-1070000Y-960000D01*
X-1070000Y-903923D02*
X-1096982Y-876941D01*
X-1198059Y-876941D01*
D49*
X675000Y1070000D03*
D46*
X718000Y1027000D02*
X755000Y1027000D01*
X718000Y1027000D02*
X675000Y1070000D01*
X850000Y1027000D02*
X850000Y940000D01*
X940000Y850000D01*
D50*
X-80039Y-1475000D02*
X-127000Y-1475000D01*
D52*
X-818646Y-1100000D02*
X-885000Y-1100000D01*
D49*
X477000Y-1260000D03*
D52*
X462000Y-1275000D01*
X400000Y-1275000D01*
X-316346Y-1343439D02*
X-575206Y-1343439D01*
X-818646Y-1100000D01*
X-184785Y-1475000D02*
X-127000Y-1475000D01*
X-184785Y-1475000D02*
X-316346Y-1343439D01*
D50*
X955000Y-770000D02*
X1002000Y-770000D01*
X955000Y-770000D02*
X900000Y-825000D01*
X900000Y-925000D01*
D49*
X405000Y-1490000D03*
D50*
X200000Y-1475000D02*
X-127000Y-1475000D01*
X1367472Y-155028D02*
X1367500Y-155000D01*
X405000Y-1565000D02*
X290000Y-1565000D01*
X200000Y-1475000D01*
X405000Y-1490000D02*
X405000Y-1565000D01*
D49*
X1002000Y-770000D03*
X1425000Y-375000D03*
D50*
X1325000Y-770000D02*
X1200000Y-770000D01*
X1002000Y-770000D01*
X1367500Y-317500D02*
X1367500Y-155000D01*
X1367500Y-317500D02*
X1425000Y-375000D01*
X1411000Y-537000D02*
X1411000Y-684000D01*
X1325000Y-770000D01*
D45*
X150000Y1330000D02*
X-35000Y1330000D01*
X150000Y1330000D02*
X150000Y1360000D01*
X300000Y1360000D01*
X300000Y1575000D01*
D50*
X1200000Y-700000D02*
X1200000Y-770000D01*
X1411000Y-537000D02*
X1425000Y-523000D01*
X1425000Y-375000D01*
X850000Y-802961D02*
X850000Y-925000D01*
X952961Y-700000D02*
X1100000Y-700000D01*
X952961Y-700000D02*
X850000Y-802961D01*
M02*
