G04 EAGLE Gerber RS-274X export*
G75*
%MOMM*%
%FSLAX35Y35*%
%LPD*%
%INsolder_mask_top*%
%IPPOS*%
%AMOC8*
5,1,8,0,0,1.08239X$1,22.5*%
G01*
%ADD10C,0.152400*%
%ADD11C,2.000000*%
%ADD12C,0.010000*%
%ADD13R,1.750000X2.500000*%
%ADD14R,2.500000X2.000000*%
%ADD15R,1.750000X2.250000*%
%ADD16R,2.500000X1.500000*%
%ADD17C,0.101600*%
%ADD18R,2.627000X2.627000*%
%ADD19R,0.877000X0.427000*%
%ADD20R,0.427000X0.877000*%
%ADD21R,0.727000X0.827000*%
%ADD22R,1.627000X1.627000*%
%ADD23R,0.927000X0.377000*%
%ADD24R,0.377000X0.927000*%
%ADD25R,0.377000X0.677000*%
%ADD26R,0.677000X0.377000*%
%ADD27R,0.427000X0.827000*%
%ADD28R,0.727000X1.127000*%
%ADD29C,1.327000*%
%ADD30R,0.427000X0.927000*%
%ADD31R,0.927000X0.427000*%
%ADD32R,1.727000X5.827000*%
%ADD33P,1.457113X8X202.500000*%
%ADD34R,0.377000X0.727000*%
%ADD35R,4.127000X2.727000*%
%ADD36R,1.727000X1.930000*%
%ADD37R,1.930000X1.727000*%
%ADD38R,1.577000X0.577000*%
%ADD39P,1.402128X8X22.500000*%
%ADD40C,1.295400*%
%ADD41R,1.127000X0.607000*%
%ADD42P,1.402128X8X202.500000*%
%ADD43R,0.377000X2.027000*%
%ADD44R,0.377000X1.677000*%
%ADD45R,1.127000X3.527000*%
%ADD46R,1.127000X1.127000*%
%ADD47P,2.474344X8X22.500000*%
%ADD48R,2.927000X2.927000*%
%ADD49R,0.537000X0.947000*%
%ADD50R,0.737000X0.722000*%
%ADD51R,1.627000X3.757000*%
%ADD52R,2.127000X0.637000*%
%ADD53R,0.777000X0.527000*%
%ADD54R,2.627000X1.907000*%
%ADD55R,1.127000X2.357000*%
%ADD56R,0.577000X1.577000*%
%ADD57R,1.327000X0.727000*%
%ADD58C,2.377000*%
%ADD59C,0.630200*%
%ADD60C,1.627000*%
%ADD61C,0.730200*%
%ADD62C,0.680200*%
%ADD63C,0.584200*%

G36*
X1726248Y487659D02*
X1726248Y487659D01*
X1727499Y487753D01*
X1727808Y487858D01*
X1728131Y487899D01*
X1729298Y488365D01*
X1730487Y488769D01*
X1730759Y488948D01*
X1731062Y489069D01*
X1732075Y489812D01*
X1733125Y490502D01*
X1733344Y490743D01*
X1733606Y490935D01*
X1734400Y491908D01*
X1735245Y492839D01*
X1735397Y493128D01*
X1735602Y493380D01*
X1736127Y494519D01*
X1736712Y495633D01*
X1736758Y495890D01*
X1736923Y496247D01*
X1737483Y499352D01*
X1737453Y499744D01*
X1737499Y500000D01*
X1737499Y750000D01*
X1737341Y751248D01*
X1737247Y752499D01*
X1737142Y752808D01*
X1737101Y753131D01*
X1736635Y754298D01*
X1736231Y755487D01*
X1736052Y755759D01*
X1735931Y756062D01*
X1735188Y757075D01*
X1734498Y758125D01*
X1734257Y758344D01*
X1734065Y758606D01*
X1733092Y759400D01*
X1732161Y760245D01*
X1731872Y760397D01*
X1731620Y760602D01*
X1730481Y761127D01*
X1729367Y761712D01*
X1729110Y761758D01*
X1728753Y761923D01*
X1725648Y762483D01*
X1725256Y762453D01*
X1725000Y762499D01*
X1625000Y762499D01*
X1623753Y762341D01*
X1622501Y762247D01*
X1622193Y762142D01*
X1621869Y762101D01*
X1620702Y761635D01*
X1619513Y761231D01*
X1619241Y761052D01*
X1618938Y760931D01*
X1617925Y760188D01*
X1616875Y759498D01*
X1616656Y759257D01*
X1616394Y759065D01*
X1615600Y758092D01*
X1614755Y757161D01*
X1614603Y756872D01*
X1614398Y756620D01*
X1613873Y755481D01*
X1613288Y754367D01*
X1613242Y754110D01*
X1613078Y753753D01*
X1612518Y750648D01*
X1612518Y750639D01*
X1612518Y750635D01*
X1612546Y750253D01*
X1612501Y750000D01*
X1612501Y500000D01*
X1612659Y498753D01*
X1612753Y497501D01*
X1612858Y497193D01*
X1612899Y496869D01*
X1613365Y495702D01*
X1613769Y494513D01*
X1613948Y494241D01*
X1614069Y493938D01*
X1614812Y492925D01*
X1615502Y491875D01*
X1615743Y491656D01*
X1615935Y491394D01*
X1616908Y490600D01*
X1617839Y489755D01*
X1618128Y489603D01*
X1618380Y489398D01*
X1619519Y488873D01*
X1620633Y488288D01*
X1620890Y488242D01*
X1621247Y488078D01*
X1624352Y487518D01*
X1624744Y487547D01*
X1625000Y487501D01*
X1725000Y487501D01*
X1726248Y487659D01*
G37*
G36*
X3099443Y4216771D02*
X3099443Y4216771D01*
X3099511Y4216823D01*
X3099557Y4216785D01*
X3102917Y4217595D01*
X3102955Y4217640D01*
X3102991Y4217618D01*
X3106181Y4218938D01*
X3106211Y4218990D01*
X3106251Y4218974D01*
X3109191Y4220774D01*
X3109213Y4220829D01*
X3109254Y4220820D01*
X3111884Y4223060D01*
X3111897Y4223119D01*
X3111940Y4223116D01*
X3114180Y4225746D01*
X3114184Y4225805D01*
X3114226Y4225809D01*
X3116026Y4228749D01*
X3116020Y4228808D01*
X3116062Y4228819D01*
X3117382Y4232009D01*
X3117367Y4232066D01*
X3117405Y4232083D01*
X3118215Y4235443D01*
X3118192Y4235498D01*
X3118228Y4235521D01*
X3118498Y4238961D01*
X3118482Y4238987D01*
X3118499Y4239000D01*
X3118499Y4297000D01*
X3118481Y4297024D01*
X3118498Y4297039D01*
X3118228Y4300479D01*
X3118188Y4300524D01*
X3118215Y4300557D01*
X3117405Y4303917D01*
X3117360Y4303955D01*
X3117382Y4303991D01*
X3116062Y4307181D01*
X3116010Y4307211D01*
X3116026Y4307251D01*
X3114226Y4310191D01*
X3114171Y4310213D01*
X3114180Y4310254D01*
X3111940Y4312884D01*
X3111881Y4312897D01*
X3111884Y4312940D01*
X3109254Y4315180D01*
X3109195Y4315184D01*
X3109191Y4315226D01*
X3106251Y4317026D01*
X3106192Y4317020D01*
X3106181Y4317062D01*
X3102991Y4318382D01*
X3102934Y4318367D01*
X3102917Y4318405D01*
X3099557Y4319215D01*
X3099502Y4319192D01*
X3099479Y4319228D01*
X3096039Y4319498D01*
X3096012Y4319480D01*
X3095997Y4319499D01*
X3050557Y4319229D01*
X3050489Y4319178D01*
X3050443Y4319215D01*
X3047083Y4318405D01*
X3047045Y4318360D01*
X3047009Y4318382D01*
X3043819Y4317062D01*
X3043789Y4317010D01*
X3043749Y4317026D01*
X3040809Y4315226D01*
X3040788Y4315171D01*
X3040746Y4315180D01*
X3038116Y4312940D01*
X3038103Y4312881D01*
X3038060Y4312884D01*
X3035820Y4310254D01*
X3035816Y4310195D01*
X3035774Y4310191D01*
X3033974Y4307251D01*
X3033980Y4307192D01*
X3033938Y4307181D01*
X3032618Y4303991D01*
X3032633Y4303934D01*
X3032595Y4303917D01*
X3031785Y4300557D01*
X3031793Y4300539D01*
X3031787Y4300535D01*
X3031804Y4300512D01*
X3031808Y4300502D01*
X3031772Y4300479D01*
X3031502Y4297039D01*
X3031518Y4297013D01*
X3031501Y4297000D01*
X3031501Y4239000D01*
X3031519Y4238976D01*
X3031502Y4238961D01*
X3031772Y4235521D01*
X3031812Y4235476D01*
X3031785Y4235443D01*
X3032595Y4232083D01*
X3032640Y4232045D01*
X3032618Y4232009D01*
X3033938Y4228819D01*
X3033990Y4228789D01*
X3033974Y4228749D01*
X3035774Y4225809D01*
X3035829Y4225788D01*
X3035820Y4225746D01*
X3038060Y4223116D01*
X3038119Y4223103D01*
X3038116Y4223060D01*
X3040746Y4220820D01*
X3040805Y4220816D01*
X3040809Y4220774D01*
X3043749Y4218974D01*
X3043808Y4218980D01*
X3043819Y4218938D01*
X3047009Y4217618D01*
X3047066Y4217633D01*
X3047083Y4217595D01*
X3050443Y4216785D01*
X3050498Y4216808D01*
X3050521Y4216772D01*
X3053961Y4216502D01*
X3053988Y4216520D01*
X3054003Y4216501D01*
X3099443Y4216771D01*
G37*
G36*
X3099443Y3880771D02*
X3099443Y3880771D01*
X3099511Y3880823D01*
X3099557Y3880785D01*
X3102917Y3881595D01*
X3102955Y3881640D01*
X3102991Y3881618D01*
X3106181Y3882938D01*
X3106211Y3882990D01*
X3106251Y3882974D01*
X3109191Y3884774D01*
X3109213Y3884829D01*
X3109254Y3884820D01*
X3111884Y3887060D01*
X3111897Y3887119D01*
X3111940Y3887116D01*
X3114180Y3889746D01*
X3114184Y3889805D01*
X3114226Y3889809D01*
X3116026Y3892749D01*
X3116020Y3892808D01*
X3116062Y3892819D01*
X3117382Y3896009D01*
X3117367Y3896066D01*
X3117405Y3896083D01*
X3118215Y3899443D01*
X3118192Y3899498D01*
X3118228Y3899521D01*
X3118498Y3902961D01*
X3118482Y3902987D01*
X3118499Y3903000D01*
X3118499Y3961000D01*
X3118481Y3961024D01*
X3118498Y3961039D01*
X3118228Y3964479D01*
X3118188Y3964524D01*
X3118215Y3964557D01*
X3117405Y3967917D01*
X3117360Y3967955D01*
X3117382Y3967991D01*
X3116062Y3971181D01*
X3116010Y3971211D01*
X3116026Y3971251D01*
X3114226Y3974191D01*
X3114171Y3974213D01*
X3114180Y3974254D01*
X3111940Y3976884D01*
X3111881Y3976897D01*
X3111884Y3976940D01*
X3109254Y3979180D01*
X3109195Y3979184D01*
X3109191Y3979226D01*
X3106251Y3981026D01*
X3106192Y3981020D01*
X3106181Y3981062D01*
X3102991Y3982382D01*
X3102934Y3982367D01*
X3102917Y3982405D01*
X3099557Y3983215D01*
X3099502Y3983192D01*
X3099479Y3983228D01*
X3096039Y3983498D01*
X3096012Y3983480D01*
X3095997Y3983499D01*
X3050557Y3983229D01*
X3050489Y3983178D01*
X3050443Y3983215D01*
X3047083Y3982405D01*
X3047045Y3982360D01*
X3047009Y3982382D01*
X3043819Y3981062D01*
X3043789Y3981010D01*
X3043749Y3981026D01*
X3040809Y3979226D01*
X3040788Y3979171D01*
X3040746Y3979180D01*
X3038116Y3976940D01*
X3038103Y3976881D01*
X3038060Y3976884D01*
X3035820Y3974254D01*
X3035816Y3974195D01*
X3035774Y3974191D01*
X3033974Y3971251D01*
X3033980Y3971192D01*
X3033938Y3971181D01*
X3032618Y3967991D01*
X3032633Y3967934D01*
X3032595Y3967917D01*
X3031785Y3964557D01*
X3031793Y3964539D01*
X3031787Y3964535D01*
X3031804Y3964512D01*
X3031808Y3964502D01*
X3031772Y3964479D01*
X3031502Y3961039D01*
X3031518Y3961013D01*
X3031501Y3961000D01*
X3031501Y3903000D01*
X3031519Y3902976D01*
X3031502Y3902961D01*
X3031772Y3899521D01*
X3031812Y3899476D01*
X3031785Y3899443D01*
X3032595Y3896083D01*
X3032640Y3896045D01*
X3032618Y3896009D01*
X3033938Y3892819D01*
X3033990Y3892789D01*
X3033974Y3892749D01*
X3035774Y3889809D01*
X3035829Y3889788D01*
X3035820Y3889746D01*
X3038060Y3887116D01*
X3038119Y3887103D01*
X3038116Y3887060D01*
X3040746Y3884820D01*
X3040805Y3884816D01*
X3040809Y3884774D01*
X3043749Y3882974D01*
X3043808Y3882980D01*
X3043819Y3882938D01*
X3047009Y3881618D01*
X3047066Y3881633D01*
X3047083Y3881595D01*
X3050443Y3880785D01*
X3050498Y3880808D01*
X3050521Y3880772D01*
X3053961Y3880502D01*
X3053988Y3880520D01*
X3054003Y3880501D01*
X3099443Y3880771D01*
G37*
D10*
X1854880Y1285697D02*
X1854880Y1255750D01*
X1854871Y1255015D01*
X1854844Y1254281D01*
X1854799Y1253547D01*
X1854736Y1252815D01*
X1854655Y1252084D01*
X1854556Y1251356D01*
X1854439Y1250630D01*
X1854305Y1249908D01*
X1854152Y1249189D01*
X1853983Y1248474D01*
X1853795Y1247763D01*
X1853591Y1247057D01*
X1853369Y1246356D01*
X1853129Y1245661D01*
X1852873Y1244972D01*
X1852600Y1244290D01*
X1852311Y1243614D01*
X1852005Y1242946D01*
X1851682Y1242286D01*
X1851344Y1241633D01*
X1850990Y1240989D01*
X1850619Y1240354D01*
X1850234Y1239729D01*
X1849833Y1239112D01*
X1849417Y1238506D01*
X1848987Y1237911D01*
X1848542Y1237326D01*
X1848082Y1236752D01*
X1847609Y1236190D01*
X1847122Y1235639D01*
X1846622Y1235100D01*
X1846109Y1234574D01*
X1845583Y1234061D01*
X1845044Y1233561D01*
X1844494Y1233074D01*
X1843931Y1232601D01*
X1843357Y1232142D01*
X1842773Y1231696D01*
X1842177Y1231266D01*
X1841571Y1230850D01*
X1840955Y1230449D01*
X1840329Y1230064D01*
X1839694Y1229694D01*
X1839050Y1229339D01*
X1838398Y1229001D01*
X1837737Y1228678D01*
X1837069Y1228372D01*
X1836393Y1228083D01*
X1835711Y1227810D01*
X1835022Y1227554D01*
X1834327Y1227315D01*
X1833626Y1227093D01*
X1832920Y1226888D01*
X1832210Y1226701D01*
X1831495Y1226531D01*
X1830776Y1226378D01*
X1830053Y1226244D01*
X1829327Y1226127D01*
X1828599Y1226028D01*
X1827869Y1225947D01*
X1827136Y1225884D01*
X1826403Y1225839D01*
X1825668Y1225812D01*
X1824933Y1225803D01*
X1824933Y1225804D02*
X1750067Y1225804D01*
X1749332Y1225813D01*
X1748598Y1225840D01*
X1747864Y1225885D01*
X1747132Y1225948D01*
X1746401Y1226029D01*
X1745673Y1226128D01*
X1744947Y1226245D01*
X1744225Y1226379D01*
X1743506Y1226532D01*
X1742791Y1226701D01*
X1742080Y1226889D01*
X1741374Y1227093D01*
X1740673Y1227315D01*
X1739978Y1227555D01*
X1739289Y1227811D01*
X1738607Y1228084D01*
X1737931Y1228373D01*
X1737263Y1228679D01*
X1736603Y1229002D01*
X1735950Y1229340D01*
X1735306Y1229694D01*
X1734671Y1230065D01*
X1734046Y1230450D01*
X1733429Y1230851D01*
X1732823Y1231267D01*
X1732228Y1231697D01*
X1731643Y1232142D01*
X1731069Y1232602D01*
X1730507Y1233075D01*
X1729956Y1233562D01*
X1729417Y1234062D01*
X1728891Y1234575D01*
X1728378Y1235101D01*
X1727878Y1235640D01*
X1727391Y1236190D01*
X1726918Y1236753D01*
X1726459Y1237327D01*
X1726013Y1237911D01*
X1725583Y1238507D01*
X1725167Y1239113D01*
X1724766Y1239729D01*
X1724381Y1240355D01*
X1724011Y1240990D01*
X1723656Y1241634D01*
X1723318Y1242286D01*
X1722995Y1242947D01*
X1722689Y1243615D01*
X1722400Y1244291D01*
X1722127Y1244973D01*
X1721871Y1245662D01*
X1721632Y1246357D01*
X1721410Y1247058D01*
X1721205Y1247764D01*
X1721018Y1248474D01*
X1720848Y1249189D01*
X1720695Y1249908D01*
X1720561Y1250631D01*
X1720444Y1251357D01*
X1720345Y1252085D01*
X1720264Y1252815D01*
X1720201Y1253548D01*
X1720156Y1254281D01*
X1720129Y1255016D01*
X1720120Y1255751D01*
X1720120Y1255750D02*
X1720120Y1285697D01*
X1686430Y1259494D02*
X1663970Y1237034D01*
X1686430Y1259494D02*
X1663970Y1281954D01*
X1794987Y1337235D02*
X1824933Y1337235D01*
X1794987Y1337235D02*
X1794258Y1337244D01*
X1793529Y1337271D01*
X1792801Y1337315D01*
X1792074Y1337377D01*
X1791349Y1337457D01*
X1790627Y1337554D01*
X1789907Y1337669D01*
X1789189Y1337802D01*
X1788476Y1337951D01*
X1787766Y1338119D01*
X1787060Y1338303D01*
X1786359Y1338505D01*
X1785664Y1338723D01*
X1784973Y1338959D01*
X1784289Y1339211D01*
X1783611Y1339480D01*
X1782940Y1339765D01*
X1782276Y1340067D01*
X1781619Y1340384D01*
X1780971Y1340718D01*
X1780330Y1341067D01*
X1779699Y1341431D01*
X1779076Y1341811D01*
X1778463Y1342206D01*
X1777860Y1342616D01*
X1777267Y1343040D01*
X1776684Y1343479D01*
X1776112Y1343932D01*
X1775552Y1344398D01*
X1775003Y1344878D01*
X1774466Y1345372D01*
X1773941Y1345878D01*
X1773428Y1346397D01*
X1772928Y1346928D01*
X1772442Y1347471D01*
X1771968Y1348026D01*
X1771509Y1348592D01*
X1771063Y1349169D01*
X1770631Y1349757D01*
X1770214Y1350355D01*
X1769812Y1350964D01*
X1769424Y1351581D01*
X1769052Y1352208D01*
X1768695Y1352844D01*
X1768354Y1353489D01*
X1768028Y1354142D01*
X1767719Y1354802D01*
X1767425Y1355470D01*
X1767148Y1356144D01*
X1766888Y1356825D01*
X1766644Y1357513D01*
X1766417Y1358206D01*
X1766207Y1358904D01*
X1766014Y1359607D01*
X1765838Y1360315D01*
X1765679Y1361027D01*
X1765538Y1361743D01*
X1765414Y1362461D01*
X1765308Y1363183D01*
X1765220Y1363907D01*
X1765149Y1364632D01*
X1765095Y1365360D01*
X1765060Y1366088D01*
X1765042Y1366817D01*
X1765042Y1367547D01*
X1765060Y1368276D01*
X1765095Y1369004D01*
X1765149Y1369732D01*
X1765220Y1370457D01*
X1765308Y1371181D01*
X1765414Y1371903D01*
X1765538Y1372621D01*
X1765679Y1373337D01*
X1765838Y1374049D01*
X1766014Y1374757D01*
X1766207Y1375460D01*
X1766417Y1376158D01*
X1766644Y1376851D01*
X1766888Y1377539D01*
X1767148Y1378220D01*
X1767425Y1378894D01*
X1767719Y1379562D01*
X1768028Y1380222D01*
X1768354Y1380875D01*
X1768695Y1381520D01*
X1769052Y1382156D01*
X1769424Y1382783D01*
X1769812Y1383400D01*
X1770214Y1384009D01*
X1770631Y1384607D01*
X1771063Y1385195D01*
X1771509Y1385772D01*
X1771968Y1386338D01*
X1772442Y1386893D01*
X1772928Y1387436D01*
X1773428Y1387967D01*
X1773941Y1388486D01*
X1774466Y1388992D01*
X1775003Y1389486D01*
X1775552Y1389966D01*
X1776112Y1390432D01*
X1776684Y1390885D01*
X1777267Y1391324D01*
X1777860Y1391748D01*
X1778463Y1392158D01*
X1779076Y1392553D01*
X1779699Y1392933D01*
X1780330Y1393297D01*
X1780971Y1393646D01*
X1781619Y1393980D01*
X1782276Y1394297D01*
X1782940Y1394599D01*
X1783611Y1394884D01*
X1784289Y1395153D01*
X1784973Y1395405D01*
X1785664Y1395641D01*
X1786359Y1395859D01*
X1787060Y1396061D01*
X1787766Y1396245D01*
X1788476Y1396413D01*
X1789189Y1396562D01*
X1789907Y1396695D01*
X1790627Y1396810D01*
X1791349Y1396907D01*
X1792074Y1396987D01*
X1792801Y1397049D01*
X1793529Y1397093D01*
X1794258Y1397120D01*
X1794987Y1397129D01*
X1794987Y1397128D02*
X1824933Y1397128D01*
X1824933Y1397129D02*
X1825662Y1397120D01*
X1826391Y1397093D01*
X1827119Y1397049D01*
X1827846Y1396987D01*
X1828571Y1396907D01*
X1829293Y1396810D01*
X1830013Y1396695D01*
X1830731Y1396562D01*
X1831444Y1396413D01*
X1832154Y1396245D01*
X1832860Y1396061D01*
X1833561Y1395859D01*
X1834256Y1395641D01*
X1834947Y1395405D01*
X1835631Y1395153D01*
X1836309Y1394884D01*
X1836980Y1394599D01*
X1837644Y1394297D01*
X1838301Y1393980D01*
X1838949Y1393646D01*
X1839590Y1393297D01*
X1840221Y1392933D01*
X1840844Y1392553D01*
X1841457Y1392158D01*
X1842060Y1391748D01*
X1842653Y1391324D01*
X1843236Y1390885D01*
X1843808Y1390432D01*
X1844368Y1389966D01*
X1844917Y1389486D01*
X1845454Y1388992D01*
X1845979Y1388486D01*
X1846492Y1387967D01*
X1846992Y1387436D01*
X1847478Y1386893D01*
X1847952Y1386338D01*
X1848411Y1385772D01*
X1848857Y1385195D01*
X1849289Y1384607D01*
X1849706Y1384009D01*
X1850108Y1383400D01*
X1850496Y1382783D01*
X1850868Y1382156D01*
X1851225Y1381520D01*
X1851566Y1380875D01*
X1851892Y1380222D01*
X1852201Y1379562D01*
X1852495Y1378894D01*
X1852772Y1378220D01*
X1853032Y1377539D01*
X1853276Y1376851D01*
X1853503Y1376158D01*
X1853713Y1375460D01*
X1853906Y1374757D01*
X1854082Y1374049D01*
X1854241Y1373337D01*
X1854382Y1372621D01*
X1854506Y1371903D01*
X1854612Y1371181D01*
X1854700Y1370457D01*
X1854771Y1369732D01*
X1854825Y1369004D01*
X1854860Y1368276D01*
X1854878Y1367547D01*
X1854878Y1366817D01*
X1854860Y1366088D01*
X1854825Y1365360D01*
X1854771Y1364632D01*
X1854700Y1363907D01*
X1854612Y1363183D01*
X1854506Y1362461D01*
X1854382Y1361743D01*
X1854241Y1361027D01*
X1854082Y1360315D01*
X1853906Y1359607D01*
X1853713Y1358904D01*
X1853503Y1358206D01*
X1853276Y1357513D01*
X1853032Y1356825D01*
X1852772Y1356144D01*
X1852495Y1355470D01*
X1852201Y1354802D01*
X1851892Y1354142D01*
X1851566Y1353489D01*
X1851225Y1352844D01*
X1850868Y1352209D01*
X1850496Y1351581D01*
X1850108Y1350964D01*
X1849706Y1350355D01*
X1849289Y1349757D01*
X1848857Y1349169D01*
X1848411Y1348592D01*
X1847952Y1348026D01*
X1847478Y1347471D01*
X1846992Y1346928D01*
X1846492Y1346397D01*
X1845979Y1345878D01*
X1845454Y1345372D01*
X1844917Y1344878D01*
X1844368Y1344398D01*
X1843808Y1343932D01*
X1843236Y1343479D01*
X1842653Y1343040D01*
X1842060Y1342616D01*
X1841457Y1342206D01*
X1840844Y1341811D01*
X1840221Y1341431D01*
X1839590Y1341067D01*
X1838949Y1340718D01*
X1838301Y1340384D01*
X1837644Y1340067D01*
X1836980Y1339765D01*
X1836309Y1339480D01*
X1835631Y1339211D01*
X1834947Y1338959D01*
X1834256Y1338723D01*
X1833561Y1338505D01*
X1832860Y1338303D01*
X1832154Y1338119D01*
X1831444Y1337951D01*
X1830731Y1337802D01*
X1830013Y1337669D01*
X1829293Y1337554D01*
X1828571Y1337457D01*
X1827846Y1337377D01*
X1827119Y1337315D01*
X1826391Y1337271D01*
X1825662Y1337244D01*
X1824933Y1337235D01*
X1802473Y1465465D02*
X1817447Y1502898D01*
X1802474Y1465465D02*
X1802293Y1465028D01*
X1802101Y1464596D01*
X1801900Y1464169D01*
X1801687Y1463746D01*
X1801465Y1463329D01*
X1801232Y1462918D01*
X1800990Y1462512D01*
X1800738Y1462113D01*
X1800476Y1461719D01*
X1800204Y1461333D01*
X1799924Y1460952D01*
X1799634Y1460579D01*
X1799335Y1460213D01*
X1799027Y1459855D01*
X1798711Y1459503D01*
X1798386Y1459160D01*
X1798053Y1458825D01*
X1797711Y1458498D01*
X1797362Y1458179D01*
X1797006Y1457869D01*
X1796642Y1457568D01*
X1796270Y1457276D01*
X1795892Y1456993D01*
X1795507Y1456719D01*
X1795115Y1456454D01*
X1794717Y1456199D01*
X1794313Y1455954D01*
X1793903Y1455719D01*
X1793488Y1455494D01*
X1793067Y1455279D01*
X1792641Y1455075D01*
X1792210Y1454880D01*
X1791774Y1454697D01*
X1791335Y1454524D01*
X1790891Y1454362D01*
X1790443Y1454210D01*
X1789992Y1454070D01*
X1789537Y1453940D01*
X1789080Y1453822D01*
X1788619Y1453715D01*
X1788157Y1453619D01*
X1787692Y1453535D01*
X1787225Y1453461D01*
X1786756Y1453399D01*
X1786286Y1453349D01*
X1785816Y1453310D01*
X1785344Y1453283D01*
X1784871Y1453267D01*
X1784399Y1453262D01*
X1783926Y1453269D01*
X1783454Y1453288D01*
X1782982Y1453318D01*
X1782512Y1453359D01*
X1782042Y1453412D01*
X1781574Y1453476D01*
X1781107Y1453552D01*
X1780643Y1453639D01*
X1780181Y1453737D01*
X1779721Y1453847D01*
X1779264Y1453968D01*
X1778810Y1454099D01*
X1778360Y1454242D01*
X1777913Y1454396D01*
X1777470Y1454560D01*
X1777031Y1454736D01*
X1776597Y1454922D01*
X1776167Y1455118D01*
X1775742Y1455325D01*
X1775322Y1455542D01*
X1774908Y1455769D01*
X1774499Y1456007D01*
X1774096Y1456254D01*
X1773700Y1456511D01*
X1773309Y1456777D01*
X1772926Y1457053D01*
X1772549Y1457338D01*
X1772179Y1457632D01*
X1771816Y1457936D01*
X1771461Y1458248D01*
X1771114Y1458568D01*
X1770775Y1458897D01*
X1770443Y1459234D01*
X1770120Y1459579D01*
X1769806Y1459931D01*
X1769500Y1460292D01*
X1769203Y1460659D01*
X1768915Y1461034D01*
X1768636Y1461416D01*
X1768367Y1461804D01*
X1768107Y1462199D01*
X1767857Y1462600D01*
X1767616Y1463007D01*
X1767386Y1463419D01*
X1767166Y1463837D01*
X1766956Y1464261D01*
X1766756Y1464689D01*
X1766567Y1465122D01*
X1766389Y1465560D01*
X1766221Y1466002D01*
X1766064Y1466447D01*
X1765918Y1466897D01*
X1765783Y1467350D01*
X1765658Y1467806D01*
X1765545Y1468264D01*
X1765444Y1468726D01*
X1765353Y1469190D01*
X1765274Y1469656D01*
X1765206Y1470123D01*
X1765150Y1470593D01*
X1765105Y1471063D01*
X1765071Y1471534D01*
X1765049Y1472006D01*
X1765039Y1472479D01*
X1765040Y1472952D01*
X1765093Y1474996D01*
X1765196Y1477038D01*
X1765348Y1479076D01*
X1765549Y1481111D01*
X1765799Y1483139D01*
X1766098Y1485162D01*
X1766445Y1487176D01*
X1766840Y1489182D01*
X1767283Y1491178D01*
X1767775Y1493162D01*
X1768314Y1495134D01*
X1768900Y1497092D01*
X1769533Y1499036D01*
X1770212Y1500964D01*
X1770938Y1502875D01*
X1771710Y1504768D01*
X1772527Y1506642D01*
X1817446Y1502898D02*
X1817627Y1503335D01*
X1817819Y1503767D01*
X1818021Y1504194D01*
X1818233Y1504617D01*
X1818455Y1505034D01*
X1818688Y1505445D01*
X1818930Y1505851D01*
X1819182Y1506250D01*
X1819444Y1506644D01*
X1819716Y1507031D01*
X1819997Y1507411D01*
X1820286Y1507784D01*
X1820585Y1508150D01*
X1820893Y1508509D01*
X1821210Y1508860D01*
X1821534Y1509203D01*
X1821867Y1509538D01*
X1822209Y1509865D01*
X1822558Y1510184D01*
X1822914Y1510494D01*
X1823278Y1510795D01*
X1823650Y1511087D01*
X1824028Y1511370D01*
X1824413Y1511644D01*
X1824805Y1511909D01*
X1825203Y1512164D01*
X1825607Y1512409D01*
X1826017Y1512644D01*
X1826432Y1512869D01*
X1826853Y1513084D01*
X1827279Y1513288D01*
X1827710Y1513483D01*
X1828146Y1513666D01*
X1828585Y1513839D01*
X1829029Y1514001D01*
X1829477Y1514153D01*
X1829928Y1514293D01*
X1830383Y1514423D01*
X1830840Y1514541D01*
X1831300Y1514648D01*
X1831763Y1514744D01*
X1832228Y1514828D01*
X1832695Y1514902D01*
X1833164Y1514963D01*
X1833633Y1515014D01*
X1834104Y1515053D01*
X1834576Y1515080D01*
X1835049Y1515096D01*
X1835521Y1515101D01*
X1835994Y1515094D01*
X1836466Y1515075D01*
X1836937Y1515045D01*
X1837408Y1515004D01*
X1837878Y1514951D01*
X1838346Y1514887D01*
X1838812Y1514811D01*
X1839277Y1514724D01*
X1839739Y1514626D01*
X1840199Y1514516D01*
X1840656Y1514395D01*
X1841110Y1514264D01*
X1841560Y1514121D01*
X1842007Y1513967D01*
X1842450Y1513803D01*
X1842889Y1513627D01*
X1843323Y1513441D01*
X1843753Y1513245D01*
X1844178Y1513038D01*
X1844598Y1512821D01*
X1845012Y1512594D01*
X1845421Y1512357D01*
X1845824Y1512109D01*
X1846220Y1511852D01*
X1846611Y1511586D01*
X1846994Y1511310D01*
X1847371Y1511025D01*
X1847741Y1510731D01*
X1848103Y1510427D01*
X1848458Y1510116D01*
X1848806Y1509795D01*
X1849145Y1509466D01*
X1849477Y1509129D01*
X1849800Y1508784D01*
X1850114Y1508432D01*
X1850420Y1508071D01*
X1850717Y1507704D01*
X1851005Y1507329D01*
X1851284Y1506947D01*
X1851553Y1506559D01*
X1851813Y1506164D01*
X1852063Y1505764D01*
X1852303Y1505357D01*
X1852534Y1504944D01*
X1852754Y1504526D01*
X1852964Y1504102D01*
X1853164Y1503674D01*
X1853353Y1503241D01*
X1853531Y1502804D01*
X1853699Y1502362D01*
X1853856Y1501916D01*
X1854002Y1501467D01*
X1854137Y1501014D01*
X1854262Y1500558D01*
X1854374Y1500099D01*
X1854476Y1499637D01*
X1854567Y1499174D01*
X1854646Y1498708D01*
X1854714Y1498240D01*
X1854770Y1497771D01*
X1854815Y1497300D01*
X1854849Y1496829D01*
X1854871Y1496357D01*
X1854881Y1495884D01*
X1854880Y1495412D01*
X1854802Y1492410D01*
X1854652Y1489410D01*
X1854432Y1486416D01*
X1854141Y1483427D01*
X1853779Y1480445D01*
X1853347Y1477474D01*
X1852845Y1474513D01*
X1852273Y1471565D01*
X1851631Y1468631D01*
X1850920Y1465713D01*
X1850141Y1462813D01*
X1849293Y1459932D01*
X1848377Y1457072D01*
X1847393Y1454235D01*
X1854880Y1651518D02*
X1720120Y1651518D01*
X1720120Y1688952D01*
X1720131Y1689864D01*
X1720164Y1690775D01*
X1720220Y1691684D01*
X1720297Y1692593D01*
X1720397Y1693499D01*
X1720519Y1694402D01*
X1720663Y1695302D01*
X1720828Y1696199D01*
X1721016Y1697091D01*
X1721225Y1697978D01*
X1721455Y1698860D01*
X1721707Y1699736D01*
X1721980Y1700606D01*
X1722275Y1701469D01*
X1722590Y1702324D01*
X1722926Y1703172D01*
X1723283Y1704011D01*
X1723659Y1704841D01*
X1724056Y1705661D01*
X1724473Y1706472D01*
X1724910Y1707272D01*
X1725365Y1708062D01*
X1725840Y1708840D01*
X1726334Y1709606D01*
X1726846Y1710360D01*
X1727377Y1711102D01*
X1727925Y1711830D01*
X1728491Y1712545D01*
X1729074Y1713245D01*
X1729674Y1713932D01*
X1730290Y1714603D01*
X1730923Y1715259D01*
X1731572Y1715900D01*
X1732236Y1716525D01*
X1732915Y1717133D01*
X1733608Y1717725D01*
X1734316Y1718299D01*
X1735037Y1718856D01*
X1735772Y1719396D01*
X1736520Y1719917D01*
X1737280Y1720420D01*
X1738053Y1720905D01*
X1738837Y1721370D01*
X1739631Y1721816D01*
X1740437Y1722243D01*
X1741253Y1722650D01*
X1742078Y1723037D01*
X1742913Y1723403D01*
X1743756Y1723750D01*
X1744607Y1724075D01*
X1745467Y1724380D01*
X1746333Y1724664D01*
X1747206Y1724927D01*
X1748085Y1725168D01*
X1748970Y1725388D01*
X1749859Y1725586D01*
X1750754Y1725762D01*
X1751652Y1725917D01*
X1752554Y1726050D01*
X1753459Y1726160D01*
X1754366Y1726249D01*
X1755275Y1726316D01*
X1756186Y1726360D01*
X1757097Y1726382D01*
X1758009Y1726382D01*
X1758920Y1726360D01*
X1759831Y1726316D01*
X1760740Y1726249D01*
X1761647Y1726160D01*
X1762552Y1726050D01*
X1763454Y1725917D01*
X1764352Y1725762D01*
X1765247Y1725586D01*
X1766136Y1725388D01*
X1767021Y1725168D01*
X1767900Y1724927D01*
X1768773Y1724664D01*
X1769639Y1724380D01*
X1770499Y1724075D01*
X1771350Y1723750D01*
X1772193Y1723403D01*
X1773028Y1723037D01*
X1773853Y1722650D01*
X1774669Y1722243D01*
X1775475Y1721816D01*
X1776270Y1721370D01*
X1777053Y1720905D01*
X1777826Y1720420D01*
X1778586Y1719917D01*
X1779334Y1719396D01*
X1780069Y1718856D01*
X1780790Y1718299D01*
X1781498Y1717725D01*
X1782191Y1717133D01*
X1782870Y1716525D01*
X1783534Y1715900D01*
X1784183Y1715259D01*
X1784816Y1714603D01*
X1785432Y1713932D01*
X1786032Y1713245D01*
X1786615Y1712545D01*
X1787181Y1711830D01*
X1787729Y1711102D01*
X1788260Y1710360D01*
X1788772Y1709606D01*
X1789266Y1708840D01*
X1789741Y1708062D01*
X1790196Y1707272D01*
X1790633Y1706472D01*
X1791050Y1705661D01*
X1791447Y1704841D01*
X1791823Y1704011D01*
X1792180Y1703172D01*
X1792516Y1702324D01*
X1792831Y1701469D01*
X1793126Y1700606D01*
X1793399Y1699736D01*
X1793651Y1698860D01*
X1793881Y1697978D01*
X1794090Y1697091D01*
X1794278Y1696199D01*
X1794443Y1695302D01*
X1794587Y1694402D01*
X1794709Y1693499D01*
X1794809Y1692593D01*
X1794886Y1691684D01*
X1794942Y1690775D01*
X1794975Y1689864D01*
X1794986Y1688952D01*
X1794987Y1688952D02*
X1794987Y1651518D01*
X1817447Y1779748D02*
X1757553Y1779748D01*
X1756641Y1779759D01*
X1755730Y1779792D01*
X1754821Y1779848D01*
X1753912Y1779925D01*
X1753006Y1780025D01*
X1752103Y1780147D01*
X1751203Y1780291D01*
X1750306Y1780456D01*
X1749414Y1780644D01*
X1748527Y1780853D01*
X1747645Y1781083D01*
X1746769Y1781335D01*
X1745899Y1781608D01*
X1745036Y1781903D01*
X1744181Y1782218D01*
X1743333Y1782554D01*
X1742494Y1782911D01*
X1741664Y1783287D01*
X1740844Y1783684D01*
X1740033Y1784101D01*
X1739233Y1784538D01*
X1738443Y1784993D01*
X1737665Y1785468D01*
X1736899Y1785962D01*
X1736145Y1786474D01*
X1735403Y1787005D01*
X1734675Y1787553D01*
X1733960Y1788119D01*
X1733260Y1788702D01*
X1732573Y1789302D01*
X1731902Y1789918D01*
X1731246Y1790551D01*
X1730605Y1791200D01*
X1729980Y1791864D01*
X1729372Y1792543D01*
X1728780Y1793236D01*
X1728206Y1793944D01*
X1727649Y1794665D01*
X1727109Y1795400D01*
X1726588Y1796148D01*
X1726085Y1796908D01*
X1725600Y1797681D01*
X1725135Y1798464D01*
X1724689Y1799259D01*
X1724262Y1800065D01*
X1723855Y1800881D01*
X1723468Y1801706D01*
X1723102Y1802541D01*
X1722755Y1803384D01*
X1722430Y1804235D01*
X1722125Y1805095D01*
X1721841Y1805961D01*
X1721578Y1806834D01*
X1721337Y1807713D01*
X1721117Y1808598D01*
X1720919Y1809487D01*
X1720743Y1810382D01*
X1720588Y1811280D01*
X1720455Y1812182D01*
X1720345Y1813087D01*
X1720256Y1813994D01*
X1720189Y1814903D01*
X1720145Y1815814D01*
X1720123Y1816725D01*
X1720123Y1817637D01*
X1720145Y1818548D01*
X1720189Y1819459D01*
X1720256Y1820368D01*
X1720345Y1821275D01*
X1720455Y1822180D01*
X1720588Y1823082D01*
X1720743Y1823980D01*
X1720919Y1824875D01*
X1721117Y1825764D01*
X1721337Y1826649D01*
X1721578Y1827528D01*
X1721841Y1828401D01*
X1722125Y1829267D01*
X1722430Y1830127D01*
X1722755Y1830978D01*
X1723102Y1831821D01*
X1723468Y1832656D01*
X1723855Y1833481D01*
X1724262Y1834297D01*
X1724689Y1835103D01*
X1725135Y1835898D01*
X1725600Y1836681D01*
X1726085Y1837454D01*
X1726588Y1838214D01*
X1727109Y1838962D01*
X1727649Y1839697D01*
X1728206Y1840418D01*
X1728780Y1841126D01*
X1729372Y1841819D01*
X1729980Y1842498D01*
X1730605Y1843162D01*
X1731246Y1843811D01*
X1731902Y1844444D01*
X1732573Y1845060D01*
X1733260Y1845660D01*
X1733960Y1846243D01*
X1734675Y1846809D01*
X1735403Y1847357D01*
X1736145Y1847888D01*
X1736899Y1848400D01*
X1737665Y1848894D01*
X1738443Y1849369D01*
X1739233Y1849824D01*
X1740033Y1850261D01*
X1740844Y1850678D01*
X1741664Y1851075D01*
X1742494Y1851451D01*
X1743333Y1851808D01*
X1744181Y1852144D01*
X1745036Y1852459D01*
X1745899Y1852754D01*
X1746769Y1853027D01*
X1747645Y1853279D01*
X1748527Y1853509D01*
X1749414Y1853718D01*
X1750306Y1853906D01*
X1751203Y1854071D01*
X1752103Y1854215D01*
X1753006Y1854337D01*
X1753912Y1854437D01*
X1754821Y1854514D01*
X1755730Y1854570D01*
X1756641Y1854603D01*
X1757553Y1854614D01*
X1757553Y1854615D02*
X1817447Y1854615D01*
X1817447Y1854614D02*
X1818359Y1854603D01*
X1819270Y1854570D01*
X1820179Y1854514D01*
X1821088Y1854437D01*
X1821994Y1854337D01*
X1822897Y1854215D01*
X1823797Y1854071D01*
X1824694Y1853906D01*
X1825586Y1853718D01*
X1826473Y1853509D01*
X1827355Y1853279D01*
X1828231Y1853027D01*
X1829101Y1852754D01*
X1829964Y1852459D01*
X1830819Y1852144D01*
X1831667Y1851808D01*
X1832506Y1851451D01*
X1833336Y1851075D01*
X1834156Y1850678D01*
X1834967Y1850261D01*
X1835767Y1849824D01*
X1836557Y1849369D01*
X1837335Y1848894D01*
X1838101Y1848400D01*
X1838855Y1847888D01*
X1839597Y1847357D01*
X1840325Y1846809D01*
X1841040Y1846243D01*
X1841740Y1845660D01*
X1842427Y1845060D01*
X1843098Y1844444D01*
X1843754Y1843811D01*
X1844395Y1843162D01*
X1845020Y1842498D01*
X1845628Y1841819D01*
X1846220Y1841126D01*
X1846794Y1840418D01*
X1847351Y1839697D01*
X1847891Y1838962D01*
X1848412Y1838214D01*
X1848915Y1837454D01*
X1849400Y1836681D01*
X1849865Y1835898D01*
X1850311Y1835103D01*
X1850738Y1834297D01*
X1851145Y1833481D01*
X1851532Y1832656D01*
X1851898Y1831821D01*
X1852245Y1830978D01*
X1852570Y1830127D01*
X1852875Y1829267D01*
X1853159Y1828401D01*
X1853422Y1827528D01*
X1853663Y1826649D01*
X1853883Y1825764D01*
X1854081Y1824875D01*
X1854257Y1823980D01*
X1854412Y1823082D01*
X1854545Y1822180D01*
X1854655Y1821275D01*
X1854744Y1820368D01*
X1854811Y1819459D01*
X1854855Y1818548D01*
X1854877Y1817637D01*
X1854877Y1816725D01*
X1854855Y1815814D01*
X1854811Y1814903D01*
X1854744Y1813994D01*
X1854655Y1813087D01*
X1854545Y1812182D01*
X1854412Y1811280D01*
X1854257Y1810382D01*
X1854081Y1809487D01*
X1853883Y1808598D01*
X1853663Y1807713D01*
X1853422Y1806834D01*
X1853159Y1805961D01*
X1852875Y1805095D01*
X1852570Y1804235D01*
X1852245Y1803384D01*
X1851898Y1802541D01*
X1851532Y1801706D01*
X1851145Y1800881D01*
X1850738Y1800065D01*
X1850311Y1799259D01*
X1849865Y1798465D01*
X1849400Y1797681D01*
X1848915Y1796908D01*
X1848412Y1796148D01*
X1847891Y1795400D01*
X1847351Y1794665D01*
X1846794Y1793944D01*
X1846220Y1793236D01*
X1845628Y1792543D01*
X1845020Y1791864D01*
X1844395Y1791200D01*
X1843754Y1790551D01*
X1843098Y1789918D01*
X1842427Y1789302D01*
X1841740Y1788702D01*
X1841040Y1788119D01*
X1840325Y1787553D01*
X1839597Y1787005D01*
X1838855Y1786474D01*
X1838101Y1785962D01*
X1837335Y1785468D01*
X1836557Y1784993D01*
X1835767Y1784538D01*
X1834967Y1784101D01*
X1834156Y1783684D01*
X1833336Y1783287D01*
X1832506Y1782911D01*
X1831667Y1782554D01*
X1830819Y1782218D01*
X1829964Y1781903D01*
X1829101Y1781608D01*
X1828231Y1781335D01*
X1827355Y1781083D01*
X1826473Y1780853D01*
X1825586Y1780644D01*
X1824694Y1780456D01*
X1823797Y1780291D01*
X1822897Y1780147D01*
X1821994Y1780025D01*
X1821088Y1779925D01*
X1820179Y1779848D01*
X1819270Y1779792D01*
X1818359Y1779759D01*
X1817447Y1779748D01*
X1854880Y1944249D02*
X1854880Y1974196D01*
X1854880Y1944249D02*
X1854871Y1943514D01*
X1854844Y1942780D01*
X1854799Y1942046D01*
X1854736Y1941314D01*
X1854655Y1940583D01*
X1854556Y1939855D01*
X1854439Y1939129D01*
X1854305Y1938407D01*
X1854152Y1937688D01*
X1853983Y1936973D01*
X1853795Y1936262D01*
X1853591Y1935556D01*
X1853369Y1934855D01*
X1853129Y1934160D01*
X1852873Y1933471D01*
X1852600Y1932789D01*
X1852311Y1932113D01*
X1852005Y1931445D01*
X1851682Y1930785D01*
X1851344Y1930132D01*
X1850990Y1929488D01*
X1850619Y1928853D01*
X1850234Y1928228D01*
X1849833Y1927611D01*
X1849417Y1927005D01*
X1848987Y1926410D01*
X1848542Y1925825D01*
X1848082Y1925251D01*
X1847609Y1924689D01*
X1847122Y1924138D01*
X1846622Y1923599D01*
X1846109Y1923073D01*
X1845583Y1922560D01*
X1845044Y1922060D01*
X1844494Y1921573D01*
X1843931Y1921100D01*
X1843357Y1920641D01*
X1842773Y1920195D01*
X1842177Y1919765D01*
X1841571Y1919349D01*
X1840955Y1918948D01*
X1840329Y1918563D01*
X1839694Y1918193D01*
X1839050Y1917838D01*
X1838398Y1917500D01*
X1837737Y1917177D01*
X1837069Y1916871D01*
X1836393Y1916582D01*
X1835711Y1916309D01*
X1835022Y1916053D01*
X1834327Y1915814D01*
X1833626Y1915592D01*
X1832920Y1915387D01*
X1832210Y1915200D01*
X1831495Y1915030D01*
X1830776Y1914877D01*
X1830053Y1914743D01*
X1829327Y1914626D01*
X1828599Y1914527D01*
X1827869Y1914446D01*
X1827136Y1914383D01*
X1826403Y1914338D01*
X1825668Y1914311D01*
X1824933Y1914302D01*
X1824933Y1914303D02*
X1750067Y1914303D01*
X1749332Y1914312D01*
X1748598Y1914339D01*
X1747864Y1914384D01*
X1747132Y1914447D01*
X1746401Y1914528D01*
X1745673Y1914627D01*
X1744947Y1914744D01*
X1744225Y1914878D01*
X1743506Y1915031D01*
X1742791Y1915200D01*
X1742080Y1915388D01*
X1741374Y1915592D01*
X1740673Y1915814D01*
X1739978Y1916054D01*
X1739289Y1916310D01*
X1738607Y1916583D01*
X1737931Y1916872D01*
X1737263Y1917178D01*
X1736603Y1917501D01*
X1735950Y1917839D01*
X1735306Y1918193D01*
X1734671Y1918564D01*
X1734046Y1918949D01*
X1733429Y1919350D01*
X1732823Y1919766D01*
X1732228Y1920196D01*
X1731643Y1920641D01*
X1731069Y1921101D01*
X1730507Y1921574D01*
X1729956Y1922061D01*
X1729417Y1922561D01*
X1728891Y1923074D01*
X1728378Y1923600D01*
X1727878Y1924139D01*
X1727391Y1924689D01*
X1726918Y1925252D01*
X1726459Y1925826D01*
X1726013Y1926410D01*
X1725583Y1927006D01*
X1725167Y1927612D01*
X1724766Y1928228D01*
X1724381Y1928854D01*
X1724011Y1929489D01*
X1723656Y1930133D01*
X1723318Y1930785D01*
X1722995Y1931446D01*
X1722689Y1932114D01*
X1722400Y1932790D01*
X1722127Y1933472D01*
X1721871Y1934161D01*
X1721632Y1934856D01*
X1721410Y1935557D01*
X1721205Y1936263D01*
X1721018Y1936973D01*
X1720848Y1937688D01*
X1720695Y1938407D01*
X1720561Y1939130D01*
X1720444Y1939856D01*
X1720345Y1940584D01*
X1720264Y1941314D01*
X1720201Y1942047D01*
X1720156Y1942780D01*
X1720129Y1943515D01*
X1720120Y1944250D01*
X1720120Y1944249D02*
X1720120Y1974196D01*
X2079880Y1090704D02*
X2079880Y1053271D01*
X2079873Y1052728D01*
X2079854Y1052186D01*
X2079821Y1051644D01*
X2079775Y1051103D01*
X2079716Y1050564D01*
X2079644Y1050026D01*
X2079559Y1049490D01*
X2079462Y1048956D01*
X2079351Y1048424D01*
X2079227Y1047896D01*
X2079091Y1047371D01*
X2078942Y1046849D01*
X2078781Y1046330D01*
X2078607Y1045816D01*
X2078420Y1045307D01*
X2078222Y1044801D01*
X2078011Y1044301D01*
X2077788Y1043806D01*
X2077554Y1043317D01*
X2077307Y1042833D01*
X2077049Y1042356D01*
X2076780Y1041885D01*
X2076499Y1041420D01*
X2076207Y1040963D01*
X2075904Y1040512D01*
X2075591Y1040069D01*
X2075266Y1039634D01*
X2074931Y1039207D01*
X2074587Y1038788D01*
X2074232Y1038377D01*
X2073867Y1037975D01*
X2073492Y1037582D01*
X2073109Y1037199D01*
X2072716Y1036824D01*
X2072314Y1036459D01*
X2071903Y1036104D01*
X2071484Y1035760D01*
X2071057Y1035425D01*
X2070622Y1035100D01*
X2070179Y1034787D01*
X2069728Y1034484D01*
X2069271Y1034192D01*
X2068806Y1033911D01*
X2068335Y1033642D01*
X2067858Y1033384D01*
X2067374Y1033137D01*
X2066885Y1032903D01*
X2066390Y1032680D01*
X2065890Y1032469D01*
X2065384Y1032271D01*
X2064875Y1032084D01*
X2064361Y1031910D01*
X2063842Y1031749D01*
X2063320Y1031600D01*
X2062795Y1031464D01*
X2062267Y1031340D01*
X2061735Y1031229D01*
X2061201Y1031132D01*
X2060665Y1031047D01*
X2060127Y1030975D01*
X2059588Y1030916D01*
X2059047Y1030870D01*
X2058505Y1030837D01*
X2057963Y1030818D01*
X2057420Y1030811D01*
X2019987Y1030811D01*
X2019987Y1030810D02*
X2019258Y1030819D01*
X2018529Y1030846D01*
X2017801Y1030890D01*
X2017074Y1030952D01*
X2016349Y1031032D01*
X2015627Y1031129D01*
X2014907Y1031244D01*
X2014189Y1031377D01*
X2013476Y1031526D01*
X2012766Y1031694D01*
X2012060Y1031878D01*
X2011359Y1032080D01*
X2010664Y1032298D01*
X2009973Y1032534D01*
X2009289Y1032786D01*
X2008611Y1033055D01*
X2007940Y1033340D01*
X2007276Y1033642D01*
X2006619Y1033959D01*
X2005971Y1034293D01*
X2005330Y1034642D01*
X2004699Y1035006D01*
X2004076Y1035386D01*
X2003463Y1035781D01*
X2002860Y1036191D01*
X2002267Y1036615D01*
X2001684Y1037054D01*
X2001112Y1037507D01*
X2000552Y1037973D01*
X2000003Y1038453D01*
X1999466Y1038947D01*
X1998941Y1039453D01*
X1998428Y1039972D01*
X1997928Y1040503D01*
X1997442Y1041046D01*
X1996968Y1041601D01*
X1996509Y1042167D01*
X1996063Y1042744D01*
X1995631Y1043332D01*
X1995214Y1043930D01*
X1994812Y1044539D01*
X1994424Y1045156D01*
X1994052Y1045783D01*
X1993695Y1046419D01*
X1993354Y1047064D01*
X1993028Y1047717D01*
X1992719Y1048377D01*
X1992425Y1049045D01*
X1992148Y1049719D01*
X1991888Y1050400D01*
X1991644Y1051088D01*
X1991417Y1051781D01*
X1991207Y1052479D01*
X1991014Y1053182D01*
X1990838Y1053890D01*
X1990679Y1054602D01*
X1990538Y1055318D01*
X1990414Y1056036D01*
X1990308Y1056758D01*
X1990220Y1057482D01*
X1990149Y1058207D01*
X1990095Y1058935D01*
X1990060Y1059663D01*
X1990042Y1060392D01*
X1990042Y1061122D01*
X1990060Y1061851D01*
X1990095Y1062579D01*
X1990149Y1063307D01*
X1990220Y1064032D01*
X1990308Y1064756D01*
X1990414Y1065478D01*
X1990538Y1066196D01*
X1990679Y1066912D01*
X1990838Y1067624D01*
X1991014Y1068332D01*
X1991207Y1069035D01*
X1991417Y1069733D01*
X1991644Y1070426D01*
X1991888Y1071114D01*
X1992148Y1071795D01*
X1992425Y1072469D01*
X1992719Y1073137D01*
X1993028Y1073797D01*
X1993354Y1074450D01*
X1993695Y1075095D01*
X1994052Y1075731D01*
X1994424Y1076358D01*
X1994812Y1076975D01*
X1995214Y1077584D01*
X1995631Y1078182D01*
X1996063Y1078770D01*
X1996509Y1079347D01*
X1996968Y1079913D01*
X1997442Y1080468D01*
X1997928Y1081011D01*
X1998428Y1081542D01*
X1998941Y1082061D01*
X1999466Y1082567D01*
X2000003Y1083061D01*
X2000552Y1083541D01*
X2001112Y1084007D01*
X2001684Y1084460D01*
X2002267Y1084899D01*
X2002860Y1085323D01*
X2003463Y1085733D01*
X2004076Y1086128D01*
X2004699Y1086508D01*
X2005330Y1086872D01*
X2005971Y1087221D01*
X2006619Y1087555D01*
X2007276Y1087872D01*
X2007940Y1088174D01*
X2008611Y1088459D01*
X2009289Y1088728D01*
X2009973Y1088980D01*
X2010664Y1089216D01*
X2011359Y1089434D01*
X2012060Y1089636D01*
X2012766Y1089820D01*
X2013476Y1089988D01*
X2014189Y1090137D01*
X2014907Y1090270D01*
X2015627Y1090385D01*
X2016349Y1090482D01*
X2017074Y1090562D01*
X2017801Y1090624D01*
X2018529Y1090668D01*
X2019258Y1090695D01*
X2019987Y1090704D01*
X2034960Y1090704D01*
X2034960Y1030811D01*
X1990040Y1143609D02*
X2102340Y1143609D01*
X2102883Y1143602D01*
X2103425Y1143583D01*
X2103967Y1143550D01*
X2104508Y1143504D01*
X2105047Y1143445D01*
X2105585Y1143373D01*
X2106121Y1143288D01*
X2106655Y1143191D01*
X2107187Y1143080D01*
X2107715Y1142956D01*
X2108240Y1142820D01*
X2108762Y1142671D01*
X2109281Y1142510D01*
X2109795Y1142336D01*
X2110304Y1142149D01*
X2110810Y1141951D01*
X2111310Y1141740D01*
X2111805Y1141517D01*
X2112294Y1141283D01*
X2112778Y1141036D01*
X2113255Y1140778D01*
X2113726Y1140509D01*
X2114191Y1140228D01*
X2114648Y1139936D01*
X2115099Y1139633D01*
X2115542Y1139320D01*
X2115977Y1138995D01*
X2116404Y1138660D01*
X2116823Y1138316D01*
X2117234Y1137961D01*
X2117636Y1137596D01*
X2118029Y1137221D01*
X2118412Y1136838D01*
X2118787Y1136445D01*
X2119152Y1136043D01*
X2119507Y1135632D01*
X2119851Y1135213D01*
X2120186Y1134786D01*
X2120511Y1134351D01*
X2120824Y1133908D01*
X2121127Y1133457D01*
X2121419Y1133000D01*
X2121700Y1132535D01*
X2121969Y1132064D01*
X2122227Y1131587D01*
X2122474Y1131103D01*
X2122708Y1130614D01*
X2122931Y1130119D01*
X2123142Y1129619D01*
X2123340Y1129113D01*
X2123527Y1128604D01*
X2123701Y1128090D01*
X2123862Y1127571D01*
X2124011Y1127049D01*
X2124147Y1126524D01*
X2124271Y1125996D01*
X2124382Y1125464D01*
X2124479Y1124930D01*
X2124564Y1124394D01*
X2124636Y1123856D01*
X2124695Y1123317D01*
X2124741Y1122776D01*
X2124774Y1122234D01*
X2124793Y1121692D01*
X2124800Y1121149D01*
X2124800Y1113662D01*
X1952607Y1139865D02*
X1945120Y1139865D01*
X1945120Y1147352D01*
X1952607Y1147352D01*
X1952607Y1139865D01*
X2019987Y1201811D02*
X2049933Y1201811D01*
X2019987Y1201810D02*
X2019258Y1201819D01*
X2018529Y1201846D01*
X2017801Y1201890D01*
X2017074Y1201952D01*
X2016349Y1202032D01*
X2015627Y1202129D01*
X2014907Y1202244D01*
X2014189Y1202377D01*
X2013476Y1202526D01*
X2012766Y1202694D01*
X2012060Y1202878D01*
X2011359Y1203080D01*
X2010664Y1203298D01*
X2009973Y1203534D01*
X2009289Y1203786D01*
X2008611Y1204055D01*
X2007940Y1204340D01*
X2007276Y1204642D01*
X2006619Y1204959D01*
X2005971Y1205293D01*
X2005330Y1205642D01*
X2004699Y1206006D01*
X2004076Y1206386D01*
X2003463Y1206781D01*
X2002860Y1207191D01*
X2002267Y1207615D01*
X2001684Y1208054D01*
X2001112Y1208507D01*
X2000552Y1208973D01*
X2000003Y1209453D01*
X1999466Y1209947D01*
X1998941Y1210453D01*
X1998428Y1210972D01*
X1997928Y1211503D01*
X1997442Y1212046D01*
X1996968Y1212601D01*
X1996509Y1213167D01*
X1996063Y1213744D01*
X1995631Y1214332D01*
X1995214Y1214930D01*
X1994812Y1215539D01*
X1994424Y1216156D01*
X1994052Y1216783D01*
X1993695Y1217419D01*
X1993354Y1218064D01*
X1993028Y1218717D01*
X1992719Y1219377D01*
X1992425Y1220045D01*
X1992148Y1220719D01*
X1991888Y1221400D01*
X1991644Y1222088D01*
X1991417Y1222781D01*
X1991207Y1223479D01*
X1991014Y1224182D01*
X1990838Y1224890D01*
X1990679Y1225602D01*
X1990538Y1226318D01*
X1990414Y1227036D01*
X1990308Y1227758D01*
X1990220Y1228482D01*
X1990149Y1229207D01*
X1990095Y1229935D01*
X1990060Y1230663D01*
X1990042Y1231392D01*
X1990042Y1232122D01*
X1990060Y1232851D01*
X1990095Y1233579D01*
X1990149Y1234307D01*
X1990220Y1235032D01*
X1990308Y1235756D01*
X1990414Y1236478D01*
X1990538Y1237196D01*
X1990679Y1237912D01*
X1990838Y1238624D01*
X1991014Y1239332D01*
X1991207Y1240035D01*
X1991417Y1240733D01*
X1991644Y1241426D01*
X1991888Y1242114D01*
X1992148Y1242795D01*
X1992425Y1243469D01*
X1992719Y1244137D01*
X1993028Y1244797D01*
X1993354Y1245450D01*
X1993695Y1246095D01*
X1994052Y1246731D01*
X1994424Y1247358D01*
X1994812Y1247975D01*
X1995214Y1248584D01*
X1995631Y1249182D01*
X1996063Y1249770D01*
X1996509Y1250347D01*
X1996968Y1250913D01*
X1997442Y1251468D01*
X1997928Y1252011D01*
X1998428Y1252542D01*
X1998941Y1253061D01*
X1999466Y1253567D01*
X2000003Y1254061D01*
X2000552Y1254541D01*
X2001112Y1255007D01*
X2001684Y1255460D01*
X2002267Y1255899D01*
X2002860Y1256323D01*
X2003463Y1256733D01*
X2004076Y1257128D01*
X2004699Y1257508D01*
X2005330Y1257872D01*
X2005971Y1258221D01*
X2006619Y1258555D01*
X2007276Y1258872D01*
X2007940Y1259174D01*
X2008611Y1259459D01*
X2009289Y1259728D01*
X2009973Y1259980D01*
X2010664Y1260216D01*
X2011359Y1260434D01*
X2012060Y1260636D01*
X2012766Y1260820D01*
X2013476Y1260988D01*
X2014189Y1261137D01*
X2014907Y1261270D01*
X2015627Y1261385D01*
X2016349Y1261482D01*
X2017074Y1261562D01*
X2017801Y1261624D01*
X2018529Y1261668D01*
X2019258Y1261695D01*
X2019987Y1261704D01*
X2049933Y1261704D01*
X2050662Y1261695D01*
X2051391Y1261668D01*
X2052119Y1261624D01*
X2052846Y1261562D01*
X2053571Y1261482D01*
X2054293Y1261385D01*
X2055013Y1261270D01*
X2055731Y1261137D01*
X2056444Y1260988D01*
X2057154Y1260820D01*
X2057860Y1260636D01*
X2058561Y1260434D01*
X2059256Y1260216D01*
X2059947Y1259980D01*
X2060631Y1259728D01*
X2061309Y1259459D01*
X2061980Y1259174D01*
X2062644Y1258872D01*
X2063301Y1258555D01*
X2063949Y1258221D01*
X2064590Y1257872D01*
X2065221Y1257508D01*
X2065844Y1257128D01*
X2066457Y1256733D01*
X2067060Y1256323D01*
X2067653Y1255899D01*
X2068236Y1255460D01*
X2068808Y1255007D01*
X2069368Y1254541D01*
X2069917Y1254061D01*
X2070454Y1253567D01*
X2070979Y1253061D01*
X2071492Y1252542D01*
X2071992Y1252011D01*
X2072478Y1251468D01*
X2072952Y1250913D01*
X2073411Y1250347D01*
X2073857Y1249770D01*
X2074289Y1249182D01*
X2074706Y1248584D01*
X2075108Y1247975D01*
X2075496Y1247358D01*
X2075868Y1246731D01*
X2076225Y1246095D01*
X2076566Y1245450D01*
X2076892Y1244797D01*
X2077201Y1244137D01*
X2077495Y1243469D01*
X2077772Y1242795D01*
X2078032Y1242114D01*
X2078276Y1241426D01*
X2078503Y1240733D01*
X2078713Y1240035D01*
X2078906Y1239332D01*
X2079082Y1238624D01*
X2079241Y1237912D01*
X2079382Y1237196D01*
X2079506Y1236478D01*
X2079612Y1235756D01*
X2079700Y1235032D01*
X2079771Y1234307D01*
X2079825Y1233579D01*
X2079860Y1232851D01*
X2079878Y1232122D01*
X2079878Y1231392D01*
X2079860Y1230663D01*
X2079825Y1229935D01*
X2079771Y1229207D01*
X2079700Y1228482D01*
X2079612Y1227758D01*
X2079506Y1227036D01*
X2079382Y1226318D01*
X2079241Y1225602D01*
X2079082Y1224890D01*
X2078906Y1224182D01*
X2078713Y1223479D01*
X2078503Y1222781D01*
X2078276Y1222088D01*
X2078032Y1221400D01*
X2077772Y1220719D01*
X2077495Y1220045D01*
X2077201Y1219377D01*
X2076892Y1218717D01*
X2076566Y1218064D01*
X2076225Y1217419D01*
X2075868Y1216784D01*
X2075496Y1216156D01*
X2075108Y1215539D01*
X2074706Y1214930D01*
X2074289Y1214332D01*
X2073857Y1213744D01*
X2073411Y1213167D01*
X2072952Y1212601D01*
X2072478Y1212046D01*
X2071992Y1211503D01*
X2071492Y1210972D01*
X2070979Y1210453D01*
X2070454Y1209947D01*
X2069917Y1209453D01*
X2069368Y1208973D01*
X2068808Y1208507D01*
X2068236Y1208054D01*
X2067653Y1207615D01*
X2067060Y1207191D01*
X2066457Y1206781D01*
X2065844Y1206386D01*
X2065221Y1206006D01*
X2064590Y1205642D01*
X2063949Y1205293D01*
X2063301Y1204959D01*
X2062644Y1204642D01*
X2061980Y1204340D01*
X2061309Y1204055D01*
X2060631Y1203786D01*
X2059947Y1203534D01*
X2059256Y1203298D01*
X2058561Y1203080D01*
X2057860Y1202878D01*
X2057154Y1202694D01*
X2056444Y1202526D01*
X2055731Y1202377D01*
X2055013Y1202244D01*
X2054293Y1202129D01*
X2053571Y1202032D01*
X2052846Y1201952D01*
X2052119Y1201890D01*
X2051391Y1201846D01*
X2050662Y1201819D01*
X2049933Y1201810D01*
X1990040Y1314311D02*
X2079880Y1344257D01*
X1990040Y1374204D01*
X1990040Y1432201D02*
X2079880Y1432201D01*
X1990040Y1432201D02*
X1990040Y1477121D01*
X2005013Y1477121D01*
X1945120Y1525810D02*
X2079880Y1525810D01*
X1990040Y1525810D02*
X1990040Y1563243D01*
X1990047Y1563786D01*
X1990066Y1564328D01*
X1990099Y1564870D01*
X1990145Y1565411D01*
X1990204Y1565950D01*
X1990276Y1566488D01*
X1990361Y1567024D01*
X1990458Y1567558D01*
X1990569Y1568090D01*
X1990693Y1568618D01*
X1990829Y1569143D01*
X1990978Y1569665D01*
X1991139Y1570184D01*
X1991313Y1570698D01*
X1991500Y1571207D01*
X1991698Y1571713D01*
X1991909Y1572213D01*
X1992132Y1572708D01*
X1992366Y1573197D01*
X1992613Y1573681D01*
X1992871Y1574158D01*
X1993140Y1574629D01*
X1993421Y1575094D01*
X1993713Y1575551D01*
X1994016Y1576002D01*
X1994329Y1576445D01*
X1994654Y1576880D01*
X1994989Y1577307D01*
X1995333Y1577726D01*
X1995688Y1578137D01*
X1996053Y1578539D01*
X1996428Y1578932D01*
X1996811Y1579315D01*
X1997204Y1579690D01*
X1997606Y1580055D01*
X1998017Y1580410D01*
X1998436Y1580754D01*
X1998863Y1581089D01*
X1999298Y1581414D01*
X1999741Y1581727D01*
X2000192Y1582030D01*
X2000649Y1582322D01*
X2001114Y1582603D01*
X2001585Y1582872D01*
X2002062Y1583130D01*
X2002546Y1583377D01*
X2003035Y1583611D01*
X2003530Y1583834D01*
X2004030Y1584045D01*
X2004536Y1584243D01*
X2005045Y1584430D01*
X2005559Y1584604D01*
X2006078Y1584765D01*
X2006600Y1584914D01*
X2007125Y1585050D01*
X2007653Y1585174D01*
X2008185Y1585285D01*
X2008719Y1585382D01*
X2009255Y1585467D01*
X2009793Y1585539D01*
X2010332Y1585598D01*
X2010873Y1585644D01*
X2011415Y1585677D01*
X2011957Y1585696D01*
X2012500Y1585703D01*
X2079880Y1585703D01*
X2079880Y1724700D02*
X1990040Y1724700D01*
X1990040Y1769620D01*
X2005013Y1769620D01*
X2079880Y1836270D02*
X2079880Y1873703D01*
X2079880Y1836270D02*
X2079873Y1835727D01*
X2079854Y1835185D01*
X2079821Y1834643D01*
X2079775Y1834102D01*
X2079716Y1833563D01*
X2079644Y1833025D01*
X2079559Y1832489D01*
X2079462Y1831955D01*
X2079351Y1831423D01*
X2079227Y1830895D01*
X2079091Y1830370D01*
X2078942Y1829848D01*
X2078781Y1829329D01*
X2078607Y1828815D01*
X2078420Y1828306D01*
X2078222Y1827800D01*
X2078011Y1827300D01*
X2077788Y1826805D01*
X2077554Y1826316D01*
X2077307Y1825832D01*
X2077049Y1825355D01*
X2076780Y1824884D01*
X2076499Y1824419D01*
X2076207Y1823962D01*
X2075904Y1823511D01*
X2075591Y1823068D01*
X2075266Y1822633D01*
X2074931Y1822206D01*
X2074587Y1821787D01*
X2074232Y1821376D01*
X2073867Y1820974D01*
X2073492Y1820581D01*
X2073109Y1820198D01*
X2072716Y1819823D01*
X2072314Y1819458D01*
X2071903Y1819103D01*
X2071484Y1818759D01*
X2071057Y1818424D01*
X2070622Y1818099D01*
X2070179Y1817786D01*
X2069728Y1817483D01*
X2069271Y1817191D01*
X2068806Y1816910D01*
X2068335Y1816641D01*
X2067858Y1816383D01*
X2067374Y1816136D01*
X2066885Y1815902D01*
X2066390Y1815679D01*
X2065890Y1815468D01*
X2065384Y1815270D01*
X2064875Y1815083D01*
X2064361Y1814909D01*
X2063842Y1814748D01*
X2063320Y1814599D01*
X2062795Y1814463D01*
X2062267Y1814339D01*
X2061735Y1814228D01*
X2061201Y1814131D01*
X2060665Y1814046D01*
X2060127Y1813974D01*
X2059588Y1813915D01*
X2059047Y1813869D01*
X2058505Y1813836D01*
X2057963Y1813817D01*
X2057420Y1813810D01*
X2019987Y1813810D01*
X2019258Y1813819D01*
X2018529Y1813846D01*
X2017801Y1813890D01*
X2017074Y1813952D01*
X2016349Y1814032D01*
X2015627Y1814129D01*
X2014907Y1814244D01*
X2014189Y1814377D01*
X2013476Y1814526D01*
X2012766Y1814694D01*
X2012060Y1814878D01*
X2011359Y1815080D01*
X2010664Y1815298D01*
X2009973Y1815534D01*
X2009289Y1815786D01*
X2008611Y1816055D01*
X2007940Y1816340D01*
X2007276Y1816642D01*
X2006619Y1816959D01*
X2005971Y1817293D01*
X2005330Y1817642D01*
X2004699Y1818006D01*
X2004076Y1818386D01*
X2003463Y1818781D01*
X2002860Y1819191D01*
X2002267Y1819615D01*
X2001684Y1820054D01*
X2001112Y1820507D01*
X2000552Y1820973D01*
X2000003Y1821453D01*
X1999466Y1821947D01*
X1998941Y1822453D01*
X1998428Y1822972D01*
X1997928Y1823503D01*
X1997442Y1824046D01*
X1996968Y1824601D01*
X1996509Y1825167D01*
X1996063Y1825744D01*
X1995631Y1826332D01*
X1995214Y1826930D01*
X1994812Y1827539D01*
X1994424Y1828156D01*
X1994052Y1828783D01*
X1993695Y1829419D01*
X1993354Y1830064D01*
X1993028Y1830717D01*
X1992719Y1831377D01*
X1992425Y1832045D01*
X1992148Y1832719D01*
X1991888Y1833400D01*
X1991644Y1834088D01*
X1991417Y1834781D01*
X1991207Y1835479D01*
X1991014Y1836182D01*
X1990838Y1836890D01*
X1990679Y1837602D01*
X1990538Y1838318D01*
X1990414Y1839036D01*
X1990308Y1839758D01*
X1990220Y1840482D01*
X1990149Y1841207D01*
X1990095Y1841935D01*
X1990060Y1842663D01*
X1990042Y1843392D01*
X1990042Y1844122D01*
X1990060Y1844851D01*
X1990095Y1845579D01*
X1990149Y1846307D01*
X1990220Y1847032D01*
X1990308Y1847756D01*
X1990414Y1848478D01*
X1990538Y1849196D01*
X1990679Y1849912D01*
X1990838Y1850624D01*
X1991014Y1851332D01*
X1991207Y1852035D01*
X1991417Y1852733D01*
X1991644Y1853426D01*
X1991888Y1854114D01*
X1992148Y1854795D01*
X1992425Y1855469D01*
X1992719Y1856137D01*
X1993028Y1856797D01*
X1993354Y1857450D01*
X1993695Y1858095D01*
X1994052Y1858731D01*
X1994424Y1859358D01*
X1994812Y1859975D01*
X1995214Y1860584D01*
X1995631Y1861182D01*
X1996063Y1861770D01*
X1996509Y1862347D01*
X1996968Y1862913D01*
X1997442Y1863468D01*
X1997928Y1864011D01*
X1998428Y1864542D01*
X1998941Y1865061D01*
X1999466Y1865567D01*
X2000003Y1866061D01*
X2000552Y1866541D01*
X2001112Y1867007D01*
X2001684Y1867460D01*
X2002267Y1867899D01*
X2002860Y1868323D01*
X2003463Y1868733D01*
X2004076Y1869128D01*
X2004699Y1869508D01*
X2005330Y1869872D01*
X2005971Y1870221D01*
X2006619Y1870555D01*
X2007276Y1870872D01*
X2007940Y1871174D01*
X2008611Y1871459D01*
X2009289Y1871728D01*
X2009973Y1871980D01*
X2010664Y1872216D01*
X2011359Y1872434D01*
X2012060Y1872636D01*
X2012766Y1872820D01*
X2013476Y1872988D01*
X2014189Y1873137D01*
X2014907Y1873270D01*
X2015627Y1873385D01*
X2016349Y1873482D01*
X2017074Y1873562D01*
X2017801Y1873624D01*
X2018529Y1873668D01*
X2019258Y1873695D01*
X2019987Y1873704D01*
X2019987Y1873703D02*
X2034960Y1873703D01*
X2034960Y1813810D01*
X1990040Y1926310D02*
X2079880Y1956257D01*
X1990040Y1986203D01*
X2072393Y2033513D02*
X2079880Y2033513D01*
X2072393Y2033513D02*
X2072393Y2041000D01*
X2079880Y2041000D01*
X2079880Y2033513D01*
X1975067Y2094323D02*
X1945120Y2131756D01*
X2079880Y2131756D01*
X2079880Y2094323D02*
X2079880Y2169189D01*
D11*
X3212500Y6900000D02*
X300000Y6900000D01*
X300000Y100000D02*
X3200000Y100000D01*
X3400000Y290000D02*
X3400000Y6675000D01*
X3400000Y290000D02*
X3399822Y285290D01*
X3399531Y280585D01*
X3399125Y275888D01*
X3398607Y271203D01*
X3397975Y266532D01*
X3397231Y261877D01*
X3396375Y257242D01*
X3395406Y252628D01*
X3394327Y248040D01*
X3393137Y243479D01*
X3391837Y238948D01*
X3390428Y234449D01*
X3388911Y229986D01*
X3387286Y225561D01*
X3385555Y221177D01*
X3383718Y216836D01*
X3381778Y212540D01*
X3379733Y208292D01*
X3377587Y204096D01*
X3375340Y199952D01*
X3372994Y195863D01*
X3370549Y191833D01*
X3368008Y187863D01*
X3365372Y183955D01*
X3362641Y180113D01*
X3359819Y176337D01*
X3356907Y172630D01*
X3353906Y168996D01*
X3350817Y165434D01*
X3347644Y161949D01*
X3344387Y158541D01*
X3341049Y155212D01*
X3337632Y151966D01*
X3334137Y148803D01*
X3330566Y145725D01*
X3326923Y142734D01*
X3323208Y139833D01*
X3319424Y137022D01*
X3315573Y134303D01*
X3311658Y131678D01*
X3307680Y129148D01*
X3303642Y126716D01*
X3299547Y124381D01*
X3295397Y122146D01*
X3291194Y120013D01*
X3286940Y117981D01*
X3282639Y116053D01*
X3278292Y114229D01*
X3273903Y112511D01*
X3269473Y110899D01*
X3265005Y109395D01*
X3260503Y107999D01*
X3255968Y106712D01*
X3251404Y105536D01*
X3246812Y104470D01*
X3242196Y103515D01*
X3237558Y102672D01*
X3232901Y101942D01*
X3228228Y101324D01*
X3223541Y100819D01*
X3218844Y100428D01*
X3214138Y100150D01*
X3209427Y99986D01*
X3204713Y99936D01*
X3200000Y100000D01*
X3400000Y6675000D02*
X3400393Y6679989D01*
X3400666Y6684987D01*
X3400817Y6689989D01*
X3400847Y6694994D01*
X3400757Y6699997D01*
X3400545Y6704998D01*
X3400213Y6709991D01*
X3399760Y6714975D01*
X3399187Y6719947D01*
X3398494Y6724904D01*
X3397682Y6729842D01*
X3396750Y6734759D01*
X3395700Y6739653D01*
X3394532Y6744519D01*
X3393246Y6749356D01*
X3391845Y6754160D01*
X3390327Y6758929D01*
X3388695Y6763660D01*
X3386948Y6768350D01*
X3385089Y6772997D01*
X3383119Y6777597D01*
X3381037Y6782149D01*
X3378846Y6786648D01*
X3376548Y6791094D01*
X3374142Y6795483D01*
X3371631Y6799812D01*
X3369016Y6804079D01*
X3366299Y6808282D01*
X3363481Y6812418D01*
X3360564Y6816485D01*
X3357550Y6820480D01*
X3354440Y6824401D01*
X3351236Y6828246D01*
X3347940Y6832012D01*
X3344554Y6835697D01*
X3341080Y6839300D01*
X3337520Y6842817D01*
X3333876Y6846248D01*
X3330150Y6849589D01*
X3326345Y6852840D01*
X3322462Y6855997D01*
X3318504Y6859060D01*
X3314473Y6862026D01*
X3310371Y6864894D01*
X3306202Y6867662D01*
X3301967Y6870329D01*
X3297668Y6872892D01*
X3293309Y6875351D01*
X3288892Y6877703D01*
X3284419Y6879949D01*
X3279893Y6882085D01*
X3275317Y6884112D01*
X3270694Y6886027D01*
X3266025Y6887830D01*
X3261314Y6889520D01*
X3256564Y6891095D01*
X3251777Y6892556D01*
X3246956Y6893900D01*
X3242104Y6895127D01*
X3237224Y6896237D01*
X3232319Y6897228D01*
X3227391Y6898101D01*
X3222443Y6898854D01*
X3217478Y6899487D01*
X3212500Y6900000D01*
X100000Y287500D02*
X100212Y282747D01*
X100540Y278001D01*
X100985Y273264D01*
X101545Y268539D01*
X102222Y263830D01*
X103014Y259139D01*
X103921Y254468D01*
X104942Y249821D01*
X106077Y245201D01*
X107325Y240610D01*
X108685Y236051D01*
X110157Y231526D01*
X111739Y227040D01*
X113431Y222593D01*
X115232Y218189D01*
X117140Y213831D01*
X119154Y209521D01*
X121274Y205261D01*
X123498Y201055D01*
X125824Y196905D01*
X128251Y192813D01*
X130778Y188782D01*
X133403Y184814D01*
X136125Y180911D01*
X138942Y177077D01*
X141851Y173313D01*
X144853Y169622D01*
X147944Y166005D01*
X151123Y162465D01*
X154388Y159004D01*
X157737Y155625D01*
X161167Y152328D01*
X164678Y149117D01*
X168266Y145993D01*
X171930Y142958D01*
X175667Y140014D01*
X179476Y137163D01*
X183353Y134405D01*
X187297Y131744D01*
X191305Y129180D01*
X195374Y126716D01*
X199503Y124352D01*
X203689Y122090D01*
X207929Y119931D01*
X212220Y117878D01*
X216561Y115930D01*
X220948Y114089D01*
X225379Y112356D01*
X229851Y110733D01*
X234362Y109220D01*
X238909Y107818D01*
X243488Y106528D01*
X248098Y105351D01*
X252735Y104288D01*
X257397Y103338D01*
X262081Y102503D01*
X266784Y101784D01*
X271503Y101180D01*
X276236Y100692D01*
X280979Y100320D01*
X285730Y100065D01*
X290486Y99926D01*
X295243Y99905D01*
X300000Y100000D01*
X100000Y6700000D02*
X100058Y6704833D01*
X100234Y6709663D01*
X100525Y6714487D01*
X100934Y6719303D01*
X101458Y6724107D01*
X102099Y6728898D01*
X102855Y6733671D01*
X103726Y6738425D01*
X104712Y6743157D01*
X105812Y6747863D01*
X107025Y6752541D01*
X108351Y6757189D01*
X109789Y6761803D01*
X111338Y6766382D01*
X112997Y6770921D01*
X114765Y6775419D01*
X116642Y6779873D01*
X118625Y6784280D01*
X120715Y6788638D01*
X122909Y6792945D01*
X125206Y6797197D01*
X127606Y6801392D01*
X130106Y6805528D01*
X132706Y6809603D01*
X135403Y6813613D01*
X138197Y6817557D01*
X141084Y6821433D01*
X144065Y6825237D01*
X147137Y6828968D01*
X150298Y6832625D01*
X153546Y6836203D01*
X156880Y6839702D01*
X160298Y6843120D01*
X163797Y6846454D01*
X167375Y6849702D01*
X171032Y6852863D01*
X174763Y6855935D01*
X178567Y6858916D01*
X182443Y6861803D01*
X186387Y6864597D01*
X190397Y6867294D01*
X194472Y6869894D01*
X198608Y6872394D01*
X202803Y6874794D01*
X207055Y6877091D01*
X211362Y6879285D01*
X215720Y6881375D01*
X220127Y6883358D01*
X224581Y6885235D01*
X229079Y6887003D01*
X233618Y6888662D01*
X238197Y6890211D01*
X242811Y6891649D01*
X247459Y6892975D01*
X252137Y6894188D01*
X256843Y6895288D01*
X261575Y6896274D01*
X266329Y6897145D01*
X271102Y6897901D01*
X275893Y6898542D01*
X280697Y6899066D01*
X285513Y6899475D01*
X290337Y6899766D01*
X295167Y6899942D01*
X300000Y6900000D01*
X100000Y6700000D02*
X100000Y287500D01*
D12*
X3500000Y300000D02*
X3500000Y6700000D01*
X3500000Y300000D02*
X3499912Y292751D01*
X3499650Y285506D01*
X3499212Y278270D01*
X3498599Y271046D01*
X3497813Y263839D01*
X3496852Y256653D01*
X3495718Y249493D01*
X3494411Y242362D01*
X3492932Y235265D01*
X3491283Y228205D01*
X3489463Y221188D01*
X3487474Y214216D01*
X3485317Y207295D01*
X3482994Y200428D01*
X3480505Y193619D01*
X3477852Y186872D01*
X3475038Y180191D01*
X3472062Y173580D01*
X3468928Y167043D01*
X3465637Y160583D01*
X3462190Y154205D01*
X3458591Y147912D01*
X3454840Y141708D01*
X3450941Y135596D01*
X3446895Y129581D01*
X3442705Y123664D01*
X3438373Y117851D01*
X3433902Y112144D01*
X3429295Y106547D01*
X3424553Y101063D01*
X3419681Y95695D01*
X3414680Y90447D01*
X3409553Y85320D01*
X3404305Y80319D01*
X3398937Y75447D01*
X3393453Y70705D01*
X3387856Y66098D01*
X3382149Y61627D01*
X3376336Y57295D01*
X3370419Y53105D01*
X3364404Y49059D01*
X3358292Y45160D01*
X3352088Y41409D01*
X3345795Y37810D01*
X3339417Y34363D01*
X3332957Y31072D01*
X3326420Y27938D01*
X3319809Y24962D01*
X3313128Y22148D01*
X3306381Y19495D01*
X3299572Y17006D01*
X3292705Y14683D01*
X3285784Y12526D01*
X3278812Y10537D01*
X3271795Y8717D01*
X3264735Y7068D01*
X3257638Y5589D01*
X3250507Y4282D01*
X3243347Y3148D01*
X3236161Y2187D01*
X3228954Y1401D01*
X3221730Y788D01*
X3214494Y350D01*
X3207249Y88D01*
X3200000Y0D01*
X300000Y0D01*
X292751Y88D01*
X285506Y350D01*
X278270Y788D01*
X271046Y1401D01*
X263839Y2187D01*
X256653Y3148D01*
X249493Y4282D01*
X242362Y5589D01*
X235265Y7068D01*
X228205Y8717D01*
X221188Y10537D01*
X214216Y12526D01*
X207295Y14683D01*
X200428Y17006D01*
X193619Y19495D01*
X186872Y22148D01*
X180191Y24962D01*
X173580Y27938D01*
X167043Y31072D01*
X160583Y34363D01*
X154205Y37810D01*
X147912Y41409D01*
X141708Y45160D01*
X135596Y49059D01*
X129581Y53105D01*
X123664Y57295D01*
X117851Y61627D01*
X112144Y66098D01*
X106547Y70705D01*
X101063Y75447D01*
X95695Y80319D01*
X90447Y85320D01*
X85320Y90447D01*
X80319Y95695D01*
X75447Y101063D01*
X70705Y106547D01*
X66098Y112144D01*
X61627Y117851D01*
X57295Y123664D01*
X53105Y129581D01*
X49059Y135596D01*
X45160Y141708D01*
X41409Y147912D01*
X37810Y154205D01*
X34363Y160583D01*
X31072Y167043D01*
X27938Y173580D01*
X24962Y180191D01*
X22148Y186872D01*
X19495Y193619D01*
X17006Y200428D01*
X14683Y207295D01*
X12526Y214216D01*
X10537Y221188D01*
X8717Y228205D01*
X7068Y235265D01*
X5589Y242362D01*
X4282Y249493D01*
X3148Y256653D01*
X2187Y263839D01*
X1401Y271046D01*
X788Y278270D01*
X350Y285506D01*
X88Y292751D01*
X0Y300000D01*
X0Y6700000D01*
X88Y6707249D01*
X350Y6714494D01*
X788Y6721730D01*
X1401Y6728954D01*
X2187Y6736161D01*
X3148Y6743347D01*
X4282Y6750507D01*
X5589Y6757638D01*
X7068Y6764735D01*
X8717Y6771795D01*
X10537Y6778812D01*
X12526Y6785784D01*
X14683Y6792705D01*
X17006Y6799572D01*
X19495Y6806381D01*
X22148Y6813128D01*
X24962Y6819809D01*
X27938Y6826420D01*
X31072Y6832957D01*
X34363Y6839417D01*
X37810Y6845795D01*
X41409Y6852088D01*
X45160Y6858292D01*
X49059Y6864404D01*
X53105Y6870419D01*
X57295Y6876336D01*
X61627Y6882149D01*
X66098Y6887856D01*
X70705Y6893453D01*
X75447Y6898937D01*
X80319Y6904305D01*
X85320Y6909553D01*
X90447Y6914680D01*
X95695Y6919681D01*
X101063Y6924553D01*
X106547Y6929295D01*
X112144Y6933902D01*
X117851Y6938373D01*
X123664Y6942705D01*
X129581Y6946895D01*
X135596Y6950941D01*
X141708Y6954840D01*
X147912Y6958591D01*
X154205Y6962190D01*
X160583Y6965637D01*
X167043Y6968928D01*
X173580Y6972062D01*
X180191Y6975038D01*
X186872Y6977852D01*
X193619Y6980505D01*
X200428Y6982994D01*
X207295Y6985317D01*
X214216Y6987474D01*
X221188Y6989463D01*
X228205Y6991283D01*
X235265Y6992932D01*
X242362Y6994411D01*
X249493Y6995718D01*
X256653Y6996852D01*
X263839Y6997813D01*
X271046Y6998599D01*
X278270Y6999212D01*
X285506Y6999650D01*
X292751Y6999912D01*
X300000Y7000000D01*
X3200000Y7000000D01*
X3207249Y6999912D01*
X3214494Y6999650D01*
X3221730Y6999212D01*
X3228954Y6998599D01*
X3236161Y6997813D01*
X3243347Y6996852D01*
X3250507Y6995718D01*
X3257638Y6994411D01*
X3264735Y6992932D01*
X3271795Y6991283D01*
X3278812Y6989463D01*
X3285784Y6987474D01*
X3292705Y6985317D01*
X3299572Y6982994D01*
X3306381Y6980505D01*
X3313128Y6977852D01*
X3319809Y6975038D01*
X3326420Y6972062D01*
X3332957Y6968928D01*
X3339417Y6965637D01*
X3345795Y6962190D01*
X3352088Y6958591D01*
X3358292Y6954840D01*
X3364404Y6950941D01*
X3370419Y6946895D01*
X3376336Y6942705D01*
X3382149Y6938373D01*
X3387856Y6933902D01*
X3393453Y6929295D01*
X3398937Y6924553D01*
X3404305Y6919681D01*
X3409553Y6914680D01*
X3414680Y6909553D01*
X3419681Y6904305D01*
X3424553Y6898937D01*
X3429295Y6893453D01*
X3433902Y6887856D01*
X3438373Y6882149D01*
X3442705Y6876336D01*
X3446895Y6870419D01*
X3450941Y6864404D01*
X3454840Y6858292D01*
X3458591Y6852088D01*
X3462190Y6845795D01*
X3465637Y6839417D01*
X3468928Y6832957D01*
X3472062Y6826420D01*
X3475038Y6819809D01*
X3477852Y6813128D01*
X3480505Y6806381D01*
X3482994Y6799572D01*
X3485317Y6792705D01*
X3487474Y6785784D01*
X3489463Y6778812D01*
X3491283Y6771795D01*
X3492932Y6764735D01*
X3494411Y6757638D01*
X3495718Y6750507D01*
X3496852Y6743347D01*
X3497813Y6736161D01*
X3498599Y6728954D01*
X3499212Y6721730D01*
X3499650Y6714494D01*
X3499912Y6707249D01*
X3500000Y6700000D01*
D13*
X325500Y6821000D03*
D14*
X178000Y6687000D03*
D15*
X3168500Y6806500D03*
D16*
X3320000Y6656000D03*
D17*
X1519920Y393965D02*
X1460027Y374001D01*
X1460027Y413930D02*
X1519920Y393965D01*
X1470009Y487947D02*
X1470009Y502921D01*
X1519920Y502921D01*
X1519920Y472974D01*
X1519914Y472492D01*
X1519897Y472009D01*
X1519868Y471528D01*
X1519827Y471047D01*
X1519774Y470568D01*
X1519711Y470089D01*
X1519635Y469613D01*
X1519548Y469138D01*
X1519450Y468666D01*
X1519340Y468196D01*
X1519219Y467729D01*
X1519086Y467265D01*
X1518943Y466805D01*
X1518788Y466348D01*
X1518623Y465895D01*
X1518446Y465446D01*
X1518259Y465001D01*
X1518061Y464561D01*
X1517852Y464126D01*
X1517633Y463696D01*
X1517404Y463272D01*
X1517164Y462853D01*
X1516915Y462440D01*
X1516655Y462033D01*
X1516386Y461633D01*
X1516107Y461239D01*
X1515819Y460853D01*
X1515521Y460473D01*
X1515215Y460100D01*
X1514899Y459735D01*
X1514575Y459378D01*
X1514242Y459029D01*
X1513901Y458688D01*
X1513552Y458355D01*
X1513195Y458031D01*
X1512830Y457715D01*
X1512457Y457409D01*
X1512077Y457111D01*
X1511691Y456823D01*
X1511297Y456544D01*
X1510897Y456275D01*
X1510490Y456015D01*
X1510077Y455766D01*
X1509658Y455526D01*
X1509234Y455297D01*
X1508804Y455078D01*
X1508369Y454869D01*
X1507929Y454671D01*
X1507484Y454484D01*
X1507035Y454307D01*
X1506582Y454142D01*
X1506125Y453987D01*
X1505665Y453844D01*
X1505201Y453711D01*
X1504734Y453590D01*
X1504264Y453480D01*
X1503792Y453382D01*
X1503317Y453295D01*
X1502841Y453219D01*
X1502362Y453156D01*
X1501883Y453103D01*
X1501402Y453062D01*
X1500921Y453033D01*
X1500438Y453016D01*
X1499956Y453010D01*
X1450045Y453010D01*
X1449555Y453016D01*
X1449065Y453034D01*
X1448576Y453064D01*
X1448088Y453106D01*
X1447601Y453160D01*
X1447116Y453226D01*
X1446632Y453304D01*
X1446150Y453394D01*
X1445671Y453495D01*
X1445194Y453608D01*
X1444720Y453733D01*
X1444250Y453870D01*
X1443782Y454018D01*
X1443319Y454177D01*
X1442860Y454348D01*
X1442405Y454530D01*
X1441955Y454723D01*
X1441509Y454927D01*
X1441069Y455142D01*
X1440634Y455367D01*
X1440204Y455604D01*
X1439781Y455850D01*
X1439364Y456107D01*
X1438953Y456375D01*
X1438549Y456652D01*
X1438152Y456939D01*
X1437762Y457236D01*
X1437380Y457542D01*
X1437005Y457857D01*
X1436638Y458182D01*
X1436279Y458515D01*
X1435928Y458857D01*
X1435586Y459208D01*
X1435252Y459567D01*
X1434928Y459934D01*
X1434612Y460309D01*
X1434306Y460692D01*
X1434009Y461082D01*
X1433722Y461479D01*
X1433445Y461883D01*
X1433178Y462293D01*
X1432921Y462711D01*
X1432674Y463134D01*
X1432438Y463563D01*
X1432212Y463998D01*
X1431997Y464438D01*
X1431793Y464884D01*
X1431600Y465334D01*
X1431418Y465789D01*
X1431247Y466249D01*
X1431088Y466712D01*
X1430940Y467179D01*
X1430803Y467650D01*
X1430678Y468123D01*
X1430565Y468600D01*
X1430464Y469079D01*
X1430374Y469561D01*
X1430296Y470045D01*
X1430230Y470530D01*
X1430176Y471018D01*
X1430134Y471506D01*
X1430104Y471995D01*
X1430086Y472484D01*
X1430080Y472974D01*
X1430080Y502921D01*
X1430080Y549009D02*
X1519920Y549009D01*
X1519920Y598920D02*
X1430080Y549009D01*
X1430080Y598920D02*
X1519920Y598920D01*
X1519920Y645009D02*
X1430080Y645009D01*
X1430080Y669964D01*
X1430087Y670567D01*
X1430109Y671170D01*
X1430146Y671772D01*
X1430197Y672373D01*
X1430262Y672972D01*
X1430342Y673570D01*
X1430436Y674166D01*
X1430545Y674759D01*
X1430668Y675349D01*
X1430805Y675936D01*
X1430957Y676520D01*
X1431122Y677100D01*
X1431301Y677676D01*
X1431495Y678247D01*
X1431702Y678814D01*
X1431922Y679375D01*
X1432157Y679931D01*
X1432404Y680480D01*
X1432665Y681024D01*
X1432939Y681562D01*
X1433225Y682092D01*
X1433525Y682616D01*
X1433837Y683132D01*
X1434161Y683640D01*
X1434498Y684141D01*
X1434846Y684633D01*
X1435207Y685116D01*
X1435578Y685591D01*
X1435962Y686057D01*
X1436356Y686513D01*
X1436762Y686959D01*
X1437178Y687396D01*
X1437604Y687822D01*
X1438041Y688238D01*
X1438487Y688644D01*
X1438943Y689038D01*
X1439409Y689422D01*
X1439884Y689793D01*
X1440367Y690154D01*
X1440859Y690502D01*
X1441360Y690839D01*
X1441868Y691163D01*
X1442384Y691475D01*
X1442908Y691775D01*
X1443438Y692061D01*
X1443976Y692335D01*
X1444520Y692596D01*
X1445069Y692843D01*
X1445625Y693078D01*
X1446186Y693298D01*
X1446753Y693505D01*
X1447324Y693699D01*
X1447900Y693878D01*
X1448480Y694043D01*
X1449064Y694195D01*
X1449651Y694332D01*
X1450241Y694455D01*
X1450834Y694564D01*
X1451430Y694658D01*
X1452028Y694738D01*
X1452627Y694803D01*
X1453228Y694854D01*
X1453830Y694891D01*
X1454433Y694913D01*
X1455036Y694920D01*
X1494965Y694920D01*
X1495568Y694913D01*
X1496171Y694891D01*
X1496773Y694854D01*
X1497374Y694803D01*
X1497973Y694738D01*
X1498571Y694658D01*
X1499166Y694564D01*
X1499760Y694455D01*
X1500350Y694332D01*
X1500937Y694195D01*
X1501521Y694043D01*
X1502101Y693878D01*
X1502677Y693699D01*
X1503248Y693505D01*
X1503814Y693298D01*
X1504375Y693078D01*
X1504931Y692844D01*
X1505481Y692596D01*
X1506025Y692335D01*
X1506562Y692062D01*
X1507093Y691775D01*
X1507616Y691475D01*
X1508132Y691163D01*
X1508641Y690839D01*
X1509141Y690502D01*
X1509633Y690154D01*
X1510117Y689794D01*
X1510592Y689422D01*
X1511057Y689038D01*
X1511513Y688644D01*
X1511960Y688239D01*
X1512396Y687823D01*
X1512823Y687396D01*
X1513239Y686960D01*
X1513644Y686513D01*
X1514039Y686057D01*
X1514422Y685591D01*
X1514794Y685117D01*
X1515154Y684633D01*
X1515503Y684141D01*
X1515839Y683640D01*
X1516164Y683132D01*
X1516476Y682616D01*
X1516775Y682093D01*
X1517062Y681562D01*
X1517335Y681025D01*
X1517596Y680481D01*
X1517844Y679931D01*
X1518078Y679375D01*
X1518298Y678814D01*
X1518505Y678248D01*
X1518699Y677676D01*
X1518878Y677101D01*
X1519044Y676521D01*
X1519195Y675937D01*
X1519332Y675350D01*
X1519455Y674759D01*
X1519564Y674166D01*
X1519658Y673570D01*
X1519738Y672973D01*
X1519804Y672373D01*
X1519854Y671772D01*
X1519891Y671170D01*
X1519913Y670568D01*
X1519920Y669965D01*
X1519920Y669964D02*
X1519920Y645009D01*
X1821044Y6467491D02*
X1836018Y6467491D01*
X1821044Y6467491D02*
X1821044Y6417580D01*
X1850991Y6417580D01*
X1851473Y6417586D01*
X1851956Y6417603D01*
X1852437Y6417632D01*
X1852918Y6417673D01*
X1853397Y6417726D01*
X1853876Y6417789D01*
X1854352Y6417865D01*
X1854827Y6417952D01*
X1855299Y6418050D01*
X1855769Y6418160D01*
X1856236Y6418281D01*
X1856700Y6418414D01*
X1857160Y6418557D01*
X1857617Y6418712D01*
X1858070Y6418877D01*
X1858519Y6419054D01*
X1858964Y6419241D01*
X1859404Y6419439D01*
X1859839Y6419648D01*
X1860269Y6419867D01*
X1860693Y6420096D01*
X1861112Y6420336D01*
X1861525Y6420585D01*
X1861932Y6420845D01*
X1862332Y6421114D01*
X1862726Y6421393D01*
X1863112Y6421681D01*
X1863492Y6421979D01*
X1863865Y6422285D01*
X1864230Y6422601D01*
X1864587Y6422925D01*
X1864936Y6423258D01*
X1865277Y6423599D01*
X1865610Y6423948D01*
X1865934Y6424305D01*
X1866250Y6424670D01*
X1866556Y6425043D01*
X1866854Y6425423D01*
X1867142Y6425809D01*
X1867421Y6426203D01*
X1867690Y6426603D01*
X1867950Y6427010D01*
X1868199Y6427423D01*
X1868439Y6427842D01*
X1868668Y6428266D01*
X1868887Y6428696D01*
X1869096Y6429131D01*
X1869294Y6429571D01*
X1869481Y6430016D01*
X1869658Y6430465D01*
X1869823Y6430918D01*
X1869978Y6431375D01*
X1870121Y6431835D01*
X1870254Y6432299D01*
X1870375Y6432766D01*
X1870485Y6433236D01*
X1870583Y6433708D01*
X1870670Y6434183D01*
X1870746Y6434659D01*
X1870809Y6435138D01*
X1870862Y6435617D01*
X1870903Y6436098D01*
X1870932Y6436579D01*
X1870949Y6437062D01*
X1870955Y6437544D01*
X1870955Y6487455D01*
X1870949Y6487937D01*
X1870932Y6488420D01*
X1870903Y6488901D01*
X1870862Y6489382D01*
X1870809Y6489861D01*
X1870746Y6490340D01*
X1870670Y6490816D01*
X1870583Y6491291D01*
X1870485Y6491763D01*
X1870375Y6492233D01*
X1870254Y6492700D01*
X1870121Y6493164D01*
X1869978Y6493624D01*
X1869823Y6494081D01*
X1869658Y6494534D01*
X1869481Y6494983D01*
X1869294Y6495428D01*
X1869096Y6495868D01*
X1868887Y6496303D01*
X1868668Y6496733D01*
X1868439Y6497157D01*
X1868199Y6497576D01*
X1867950Y6497989D01*
X1867690Y6498396D01*
X1867421Y6498796D01*
X1867142Y6499190D01*
X1866854Y6499576D01*
X1866556Y6499956D01*
X1866250Y6500329D01*
X1865934Y6500694D01*
X1865610Y6501051D01*
X1865277Y6501400D01*
X1864936Y6501741D01*
X1864587Y6502074D01*
X1864230Y6502398D01*
X1863865Y6502714D01*
X1863492Y6503020D01*
X1863112Y6503318D01*
X1862726Y6503606D01*
X1862332Y6503885D01*
X1861932Y6504154D01*
X1861525Y6504414D01*
X1861112Y6504663D01*
X1860693Y6504903D01*
X1860269Y6505132D01*
X1859839Y6505351D01*
X1859404Y6505560D01*
X1858964Y6505758D01*
X1858519Y6505945D01*
X1858070Y6506122D01*
X1857617Y6506287D01*
X1857160Y6506442D01*
X1856700Y6506585D01*
X1856236Y6506718D01*
X1855769Y6506839D01*
X1855299Y6506949D01*
X1854827Y6507047D01*
X1854352Y6507134D01*
X1853876Y6507210D01*
X1853397Y6507273D01*
X1852918Y6507326D01*
X1852437Y6507367D01*
X1851956Y6507396D01*
X1851473Y6507413D01*
X1850991Y6507419D01*
X1850991Y6507420D02*
X1821044Y6507420D01*
X1774955Y6507420D02*
X1774955Y6417580D01*
X1725044Y6417580D02*
X1774955Y6507420D01*
X1725044Y6507420D02*
X1725044Y6417580D01*
X1678956Y6417580D02*
X1678956Y6507420D01*
X1654000Y6507420D01*
X1653397Y6507413D01*
X1652794Y6507391D01*
X1652192Y6507354D01*
X1651591Y6507303D01*
X1650992Y6507238D01*
X1650394Y6507158D01*
X1649798Y6507064D01*
X1649205Y6506955D01*
X1648615Y6506832D01*
X1648028Y6506695D01*
X1647444Y6506543D01*
X1646864Y6506378D01*
X1646288Y6506199D01*
X1645717Y6506005D01*
X1645150Y6505798D01*
X1644589Y6505578D01*
X1644033Y6505343D01*
X1643484Y6505096D01*
X1642940Y6504835D01*
X1642402Y6504561D01*
X1641872Y6504275D01*
X1641348Y6503975D01*
X1640832Y6503663D01*
X1640324Y6503339D01*
X1639823Y6503002D01*
X1639331Y6502654D01*
X1638848Y6502293D01*
X1638373Y6501922D01*
X1637907Y6501538D01*
X1637451Y6501144D01*
X1637005Y6500738D01*
X1636568Y6500322D01*
X1636142Y6499896D01*
X1635726Y6499459D01*
X1635320Y6499013D01*
X1634926Y6498557D01*
X1634542Y6498091D01*
X1634171Y6497616D01*
X1633810Y6497133D01*
X1633462Y6496641D01*
X1633125Y6496140D01*
X1632801Y6495632D01*
X1632489Y6495116D01*
X1632189Y6494592D01*
X1631903Y6494062D01*
X1631629Y6493524D01*
X1631368Y6492980D01*
X1631121Y6492431D01*
X1630886Y6491875D01*
X1630666Y6491314D01*
X1630459Y6490747D01*
X1630265Y6490176D01*
X1630086Y6489600D01*
X1629921Y6489020D01*
X1629769Y6488436D01*
X1629632Y6487849D01*
X1629509Y6487259D01*
X1629400Y6486666D01*
X1629306Y6486070D01*
X1629226Y6485472D01*
X1629161Y6484873D01*
X1629110Y6484272D01*
X1629073Y6483670D01*
X1629051Y6483067D01*
X1629044Y6482464D01*
X1629045Y6482464D02*
X1629045Y6442535D01*
X1629044Y6442535D02*
X1629051Y6441932D01*
X1629073Y6441329D01*
X1629110Y6440727D01*
X1629161Y6440126D01*
X1629226Y6439527D01*
X1629306Y6438929D01*
X1629400Y6438333D01*
X1629509Y6437740D01*
X1629632Y6437150D01*
X1629769Y6436563D01*
X1629921Y6435979D01*
X1630086Y6435399D01*
X1630265Y6434823D01*
X1630459Y6434252D01*
X1630666Y6433685D01*
X1630886Y6433124D01*
X1631121Y6432568D01*
X1631368Y6432019D01*
X1631629Y6431475D01*
X1631903Y6430937D01*
X1632189Y6430407D01*
X1632489Y6429883D01*
X1632801Y6429367D01*
X1633125Y6428859D01*
X1633462Y6428358D01*
X1633810Y6427866D01*
X1634171Y6427383D01*
X1634542Y6426908D01*
X1634926Y6426442D01*
X1635320Y6425986D01*
X1635726Y6425540D01*
X1636142Y6425103D01*
X1636568Y6424677D01*
X1637005Y6424261D01*
X1637451Y6423855D01*
X1637907Y6423461D01*
X1638373Y6423077D01*
X1638848Y6422706D01*
X1639331Y6422345D01*
X1639823Y6421997D01*
X1640324Y6421660D01*
X1640832Y6421336D01*
X1641348Y6421024D01*
X1641872Y6420724D01*
X1642402Y6420438D01*
X1642940Y6420164D01*
X1643484Y6419903D01*
X1644033Y6419656D01*
X1644589Y6419421D01*
X1645150Y6419201D01*
X1645717Y6418994D01*
X1646288Y6418800D01*
X1646864Y6418621D01*
X1647444Y6418456D01*
X1648028Y6418304D01*
X1648615Y6418167D01*
X1649205Y6418044D01*
X1649798Y6417935D01*
X1650394Y6417841D01*
X1650992Y6417761D01*
X1651591Y6417696D01*
X1652192Y6417645D01*
X1652794Y6417608D01*
X1653397Y6417586D01*
X1654000Y6417579D01*
X1654000Y6417580D02*
X1678956Y6417580D01*
D18*
X1275000Y950000D03*
D19*
X1075000Y850000D03*
X1075000Y900000D03*
X1075000Y950000D03*
X1075000Y1000000D03*
X1075000Y1050000D03*
X1475000Y1050000D03*
X1475000Y1000000D03*
X1475000Y950000D03*
X1475000Y900000D03*
X1475000Y850000D03*
D20*
X1375000Y1150000D03*
X1325000Y1150000D03*
X1275000Y1150000D03*
X1225000Y1150000D03*
X1175000Y1150000D03*
X1175000Y750000D03*
X1225000Y750000D03*
X1275000Y750000D03*
X1325000Y750000D03*
X1375000Y750000D03*
D21*
X775000Y725000D03*
X875000Y725000D03*
D22*
X1325000Y2000000D03*
D23*
X1185000Y1955000D03*
X1185000Y2000000D03*
X1185000Y2045000D03*
X1465000Y1955000D03*
X1465000Y2000000D03*
X1465000Y2045000D03*
D24*
X1370000Y2135000D03*
X1325000Y2135000D03*
X1280000Y2135000D03*
X1370000Y1860000D03*
X1325000Y1860000D03*
X1280000Y1860000D03*
D25*
X1415000Y1848000D03*
D26*
X1477000Y1910000D03*
X1173000Y1910000D03*
D25*
X1235000Y1848000D03*
D26*
X1173000Y2090000D03*
X1477000Y2090000D03*
D25*
X1415000Y2148000D03*
X1235000Y2148000D03*
D27*
X1275000Y1727000D03*
X1225000Y1727000D03*
X1175000Y1727000D03*
X1325000Y1727000D03*
X1375000Y1727000D03*
X1125000Y1727000D03*
D28*
X1000000Y1427000D03*
X1500000Y1427000D03*
D29*
X725000Y575000D03*
X925000Y575000D03*
D30*
X2849060Y2787960D03*
X2800800Y2787960D03*
X2750000Y2787960D03*
X2699200Y2787960D03*
X2650940Y2787960D03*
D31*
X2562040Y2699060D03*
X2562040Y2650800D03*
X2562040Y2600000D03*
X2562040Y2549200D03*
X2562040Y2500940D03*
D30*
X2650940Y2412040D03*
X2699200Y2412040D03*
X2750000Y2412040D03*
X2800800Y2412040D03*
X2849060Y2412040D03*
D31*
X2937960Y2500940D03*
X2937960Y2549200D03*
X2937960Y2600000D03*
X2937960Y2650800D03*
X2937960Y2699060D03*
D18*
X2750000Y2600000D03*
D32*
X2710000Y800000D03*
X2240000Y800000D03*
D33*
X2752000Y3225000D03*
X2498000Y3225000D03*
D34*
X975000Y2360000D03*
X925000Y2360000D03*
X875000Y2360000D03*
X825000Y2360000D03*
X775000Y2360000D03*
X725000Y2360000D03*
X675000Y2360000D03*
X625000Y2360000D03*
X975000Y2740000D03*
X925000Y2740000D03*
X875000Y2740000D03*
X825000Y2740000D03*
X775000Y2740000D03*
X725000Y2740000D03*
X675000Y2740000D03*
X625000Y2740000D03*
D35*
X800000Y2550000D03*
D36*
X992200Y3375000D03*
X707800Y3375000D03*
D37*
X1275000Y3192200D03*
X1275000Y2907800D03*
X1275000Y2667200D03*
X1275000Y2382800D03*
D38*
X2623000Y5603000D03*
X2623000Y5668000D03*
X2623000Y5733000D03*
X2623000Y5798000D03*
X2183000Y5603000D03*
X2183000Y5668000D03*
X2183000Y5733000D03*
X2183000Y5798000D03*
X2177000Y6122000D03*
X2177000Y6057000D03*
X2177000Y5992000D03*
X2177000Y5927000D03*
X2617000Y6122000D03*
X2617000Y6057000D03*
X2617000Y5992000D03*
X2617000Y5927000D03*
X877000Y6122000D03*
X877000Y6057000D03*
X877000Y5992000D03*
X877000Y5927000D03*
X1317000Y6122000D03*
X1317000Y6057000D03*
X1317000Y5992000D03*
X1317000Y5927000D03*
X1323000Y5603000D03*
X1323000Y5668000D03*
X1323000Y5733000D03*
X1323000Y5798000D03*
X883000Y5603000D03*
X883000Y5668000D03*
X883000Y5733000D03*
X883000Y5798000D03*
D39*
X963900Y5300000D03*
D40*
X786100Y5300000D03*
D41*
X2620000Y2172000D03*
X2620000Y2107000D03*
X2620000Y2042000D03*
X2620000Y1977000D03*
X2880000Y2173000D03*
X2880000Y2108000D03*
X2880000Y2043000D03*
X2880000Y1978000D03*
D42*
X1236100Y5300000D03*
D40*
X1413900Y5300000D03*
D42*
X1661100Y5300000D03*
D40*
X1838900Y5300000D03*
D42*
X2111100Y5300000D03*
D40*
X2288900Y5300000D03*
D39*
X2713900Y5300000D03*
D40*
X2536100Y5300000D03*
D24*
X2125000Y3565000D03*
X2175000Y3565000D03*
X2025000Y3565000D03*
X2075000Y3565000D03*
D23*
X1940000Y3625000D03*
X1940000Y3675000D03*
X1940000Y3725000D03*
X1940000Y3775000D03*
X2260000Y3625000D03*
X2260000Y3675000D03*
X2260000Y3725000D03*
X2260000Y3775000D03*
D43*
X2100000Y3781500D03*
D44*
X2050000Y3799000D03*
D34*
X1967500Y3750000D03*
D44*
X2150000Y3799000D03*
D34*
X2232500Y3750500D03*
D45*
X1981500Y4100000D03*
X2218500Y4100000D03*
D46*
X525000Y5300000D03*
X525000Y5150000D03*
X520000Y5608000D03*
X520000Y5758000D03*
X2550000Y4175000D03*
X2550000Y4025000D03*
D47*
X3050000Y3225000D03*
D31*
X2250000Y2450000D03*
X2250000Y2500000D03*
X2250000Y2550000D03*
X2250000Y2600000D03*
X2250000Y2650000D03*
D30*
X2150000Y2750000D03*
X2100000Y2750000D03*
X2050000Y2750000D03*
X2000000Y2750000D03*
X1950000Y2750000D03*
D31*
X1850000Y2650000D03*
X1850000Y2600000D03*
X1850000Y2550000D03*
X1850000Y2500000D03*
X1850000Y2450000D03*
D30*
X1950000Y2350000D03*
X2000000Y2350000D03*
X2050000Y2350000D03*
X2100000Y2350000D03*
X2150000Y2350000D03*
D48*
X2050000Y2550000D03*
D49*
X2110200Y4430000D03*
X2237200Y4430000D03*
X2364200Y4430000D03*
X2491200Y4430000D03*
D50*
X2067900Y4701600D03*
X2533500Y4701600D03*
D51*
X2427700Y4781200D03*
X2173700Y4782200D03*
D52*
X2452700Y4988400D03*
X2148700Y4988800D03*
D49*
X2660200Y4430000D03*
X2787200Y4430000D03*
X2914200Y4430000D03*
X3041200Y4430000D03*
D50*
X2617900Y4701600D03*
X3083500Y4701600D03*
D51*
X2977700Y4781200D03*
X2723700Y4782200D03*
D52*
X3002700Y4988400D03*
X2698700Y4988800D03*
D49*
X1560200Y4430000D03*
X1687200Y4430000D03*
X1814200Y4430000D03*
X1941200Y4430000D03*
D50*
X1517900Y4701600D03*
X1983500Y4701600D03*
D51*
X1877700Y4781200D03*
X1623700Y4782200D03*
D52*
X1902700Y4988400D03*
X1598700Y4988800D03*
D53*
X1957500Y5675000D03*
X1957500Y5755000D03*
X1957500Y5835000D03*
X1957500Y5915000D03*
X1957500Y5995000D03*
X1957500Y6075000D03*
X1542500Y6075000D03*
X1542500Y5995000D03*
X1542500Y5915000D03*
X1542500Y5835000D03*
X1542500Y5755000D03*
X1542500Y5675000D03*
D54*
X1750000Y5742000D03*
D55*
X1675000Y5988500D03*
X1825000Y5988500D03*
D47*
X2550000Y6425000D03*
X950000Y6425000D03*
D49*
X1010200Y4430000D03*
X1137200Y4430000D03*
X1264200Y4430000D03*
X1391200Y4430000D03*
D50*
X967900Y4701600D03*
X1433500Y4701600D03*
D51*
X1327700Y4781200D03*
X1073700Y4782200D03*
D52*
X1352700Y4988400D03*
X1048700Y4988800D03*
D56*
X903000Y3777000D03*
X968000Y3777000D03*
X1033000Y3777000D03*
X1098000Y3777000D03*
X903000Y4217000D03*
X968000Y4217000D03*
X1033000Y4217000D03*
X1098000Y4217000D03*
X1447000Y4223000D03*
X1382000Y4223000D03*
X1317000Y4223000D03*
X1252000Y4223000D03*
X1447000Y3783000D03*
X1382000Y3783000D03*
X1317000Y3783000D03*
X1252000Y3783000D03*
D46*
X1675000Y4025000D03*
X1675000Y4175000D03*
D49*
X460200Y4430000D03*
X587200Y4430000D03*
X714200Y4430000D03*
X841200Y4430000D03*
D50*
X417900Y4701600D03*
X883500Y4701600D03*
D51*
X777700Y4781200D03*
X523700Y4782200D03*
D52*
X802700Y4988400D03*
X498700Y4988800D03*
D56*
X747000Y4223000D03*
X682000Y4223000D03*
X617000Y4223000D03*
X552000Y4223000D03*
X747000Y3783000D03*
X682000Y3783000D03*
X617000Y3783000D03*
X552000Y3783000D03*
D46*
X350000Y4175000D03*
X350000Y4025000D03*
X1875000Y700000D03*
X1875000Y550000D03*
D57*
X2610000Y1180000D03*
X2610000Y1275000D03*
X2610000Y1370000D03*
X2345000Y1180000D03*
X2345000Y1275000D03*
X2345000Y1370000D03*
D58*
X300000Y6700000D03*
X300000Y300000D03*
X3200000Y300000D03*
X3200000Y6700000D03*
D59*
X1750000Y6800000D03*
X2750000Y6800000D03*
X750000Y6800000D03*
X200000Y6350000D03*
X3300000Y6350000D03*
X200000Y5350000D03*
X3300000Y5350000D03*
X3300000Y4350000D03*
X3300000Y3350000D03*
X200000Y2350000D03*
X200000Y1350000D03*
X3300000Y2350000D03*
X3300000Y1350000D03*
X750000Y200000D03*
X1750000Y200000D03*
X2750000Y200000D03*
X764000Y5928000D03*
X2288000Y5926000D03*
D60*
X350000Y3525000D03*
D59*
X2350000Y4050000D03*
X2800000Y4125000D03*
X2875000Y4125000D03*
X2950000Y4125000D03*
X2925000Y3750000D03*
X2850000Y3750000D03*
X2775000Y3750000D03*
X2775000Y3600000D03*
X2850000Y3600000D03*
X2925000Y3600000D03*
X200000Y3350000D03*
D61*
X500000Y2550000D03*
D59*
X200000Y4350000D03*
X1225000Y1575000D03*
X1150000Y1625000D03*
X1300000Y1550000D03*
X1075000Y1575000D03*
X375000Y875000D03*
X925000Y575000D03*
X375000Y775000D03*
X725000Y575000D03*
X950000Y875000D03*
X950000Y775000D03*
X1475000Y2225000D03*
X1375320Y1300000D03*
X1550000Y2225000D03*
X1575000Y900000D03*
X1625000Y2075000D03*
X1625000Y1875000D03*
X375000Y975000D03*
X775000Y1775000D03*
X575000Y2300000D03*
X575000Y2800000D03*
X2700000Y2100000D03*
X2725000Y2875000D03*
X2475000Y2500000D03*
X3075000Y2600000D03*
X850000Y825000D03*
X950000Y950000D03*
X1377424Y1589500D03*
X2950000Y4025000D03*
X2875000Y3150000D03*
X1700000Y2550000D03*
X2100000Y2250000D03*
X2875000Y4025000D03*
X2800000Y4025000D03*
X3150000Y2600000D03*
X3225000Y2600000D03*
X1275000Y3200000D03*
X775000Y1625000D03*
X1225000Y1250000D03*
X750000Y2225000D03*
X2800000Y1975000D03*
X1950000Y2250000D03*
X1150000Y1225000D03*
X675000Y2275000D03*
X1775000Y2400000D03*
X1300000Y1275000D03*
X850000Y2225000D03*
X2700000Y1975000D03*
X1725000Y2475000D03*
X2675000Y1825000D03*
X2675000Y2325000D03*
X2625000Y2875000D03*
X2925000Y2325000D03*
X3025000Y2750000D03*
X2300000Y1275000D03*
X2225000Y825000D03*
X1250000Y4350000D03*
X1675000Y4175000D03*
D61*
X1750000Y3450000D03*
D59*
X2425000Y2575000D03*
X2375000Y2650000D03*
X2225000Y2800000D03*
X2800000Y2875000D03*
X2475000Y1375000D03*
X2450000Y1050000D03*
D61*
X1875000Y700000D03*
D59*
X1850000Y3675000D03*
X2700000Y1050000D03*
X2650000Y1375000D03*
X925000Y2275000D03*
X1750000Y2650000D03*
X725000Y3525000D03*
D61*
X2100000Y3675000D03*
D59*
X2500000Y3775000D03*
X2600000Y3775000D03*
X2425000Y4325000D03*
X2500000Y4325000D03*
D62*
X800000Y2550000D03*
D59*
X2050000Y2550000D03*
D62*
X1114000Y1831000D03*
X600000Y825000D03*
D59*
X3175000Y2750000D03*
X3075000Y2450000D03*
X1325000Y2000000D03*
X525000Y3525000D03*
X925000Y3525000D03*
X1250000Y3525000D03*
X1650000Y3525000D03*
X1650000Y3925000D03*
X1525000Y4275000D03*
D63*
X1275000Y950000D03*
D59*
X1675000Y550000D03*
X1675000Y700000D03*
X350000Y1350000D03*
X350000Y2350000D03*
X350000Y3350000D03*
X750000Y350000D03*
X1750000Y350000D03*
X2750000Y350000D03*
X3150000Y1350000D03*
X3150000Y2350000D03*
X3150000Y3350000D03*
X850000Y1250000D03*
X725000Y2975000D03*
X1275000Y2925000D03*
X975000Y2800000D03*
X2725000Y4925000D03*
X2725000Y4800000D03*
X2725000Y4675000D03*
D60*
X3150000Y5300000D03*
D59*
X1825000Y6050000D03*
X1825000Y5950000D03*
X2034000Y5834000D03*
X2500000Y5800000D03*
X2725000Y6125000D03*
X1675000Y6050000D03*
X1675000Y5950000D03*
X1450000Y5800000D03*
X1428000Y6122000D03*
X2296000Y5668000D03*
X2510000Y5603000D03*
X2504000Y6057000D03*
X2290000Y6124000D03*
X1204000Y6057000D03*
X990000Y6122000D03*
X996000Y5668000D03*
X1210000Y5603000D03*
X1150000Y2150000D03*
X3225000Y3675000D03*
X2800000Y2050000D03*
X1000000Y1725000D03*
X1750000Y2750000D03*
X2975000Y4925000D03*
X2975000Y4800000D03*
X2975000Y4675000D03*
X2175000Y4925000D03*
X2175000Y4675000D03*
X2175000Y4800000D03*
X1875000Y4800000D03*
X1875000Y4925000D03*
X1875000Y4675000D03*
X1625000Y4925000D03*
X1625000Y4800000D03*
X1625000Y4675000D03*
X1050000Y1975000D03*
X2000000Y3425000D03*
X2200000Y3325000D03*
X2200000Y3425000D03*
X1675000Y5750000D03*
X1750000Y5750000D03*
X1825000Y5750000D03*
X525000Y5750000D03*
X2072000Y5603000D03*
X925000Y4350000D03*
X1850000Y3775000D03*
X1075000Y4800000D03*
X1325000Y4925000D03*
X1325000Y4800000D03*
X1325000Y4675000D03*
X1075000Y4675000D03*
X1075000Y4925000D03*
X1525000Y3725000D03*
X525000Y4675000D03*
X525000Y4925000D03*
X525000Y4800000D03*
X825000Y3725000D03*
X1850000Y3850000D03*
X1850000Y3925000D03*
X525000Y5600000D03*
X1100000Y3925000D03*
X1000000Y4525000D03*
X2350000Y3775000D03*
X2350000Y3575000D03*
X2550000Y4175000D03*
X2350000Y3850000D03*
X2625000Y4175000D03*
X2700000Y4175000D03*
X2350000Y3925000D03*
X2225000Y2325000D03*
X1625000Y1750000D03*
X2250000Y4525000D03*
X2050000Y3050000D03*
X2800000Y4525000D03*
X2125000Y3050000D03*
X1700000Y4525000D03*
X1775000Y2975000D03*
X2450000Y4925000D03*
X2450000Y4800000D03*
X2450000Y4675000D03*
X968000Y4098000D03*
X900000Y3900000D03*
X1382000Y3900000D03*
X1450000Y4100000D03*
X2300000Y1375000D03*
X1250000Y4100000D03*
X1675000Y4025000D03*
X675000Y3900000D03*
X750000Y4100000D03*
D60*
X350000Y3800000D03*
D61*
X2025000Y525000D03*
M02*
