M48
;GenerationSoftware,Autodesk,EAGLE,9.4.0*%
;CreationDate,2019-12-08T19:25:21Z*%
FMAT,2
ICI,OFF
METRIC,TZ,000.00000
T9C0.25400
T8C0.30000
T7C0.35000
T6C0.40000
T5C0.71120
T4C0.81280
T3C1.00000
T2C1.32080
T1C1.50000
%
G90
M71
T1
X300000Y6700000
X300000Y300000
X3200000Y300000
X3200000Y6700000
T2
X950000Y6425000
X3050000Y3225000
X2550000Y6425000
T3
X350000Y3525000
X3150000Y5300000
X350000Y3800000
T4
X2752000Y3225000
X2498000Y3225000
T5
X963900Y5300000
X786100Y5300000
X1236100Y5300000
X1413900Y5300000
X1661100Y5300000
X1838900Y5300000
X2111100Y5300000
X2288900Y5300000
X2713900Y5300000
X2536100Y5300000
T6
X2100000Y3675000
X500000Y2550000
X1750000Y3450000
X1875000Y700000
X2025000Y525000
T7
X600000Y825000
X800000Y2550000
X1114000Y1831000
T8
X2288000Y5926000
X2350000Y4050000
X2800000Y4125000
X2875000Y4125000
X2950000Y4125000
X2925000Y3750000
X2850000Y3750000
X2775000Y3750000
X2775000Y3600000
X2850000Y3600000
X2925000Y3600000
X200000Y3350000
X200000Y4350000
X1225000Y1575000
X1150000Y1625000
X1300000Y1550000
X1075000Y1575000
X375000Y875000
X925000Y575000
X375000Y775000
X725000Y575000
X950000Y875000
X950000Y775000
X1475000Y2225000
X1375320Y1300000
X1550000Y2225000
X1575000Y900000
X1625000Y2075000
X1625000Y1875000
X375000Y975000
X775000Y1775000
X575000Y2300000
X575000Y2800000
X2700000Y2100000
X2725000Y2875000
X2475000Y2500000
X3075000Y2600000
X850000Y825000
X950000Y950000
X1377424Y1589500
X2950000Y4025000
X2875000Y3150000
X1700000Y2550000
X2100000Y2250000
X2875000Y4025000
X2800000Y4025000
X3150000Y2600000
X3225000Y2600000
X1275000Y3200000
X775000Y1625000
X1225000Y1250000
X750000Y2225000
X2800000Y1975000
X1950000Y2250000
X1150000Y1225000
X675000Y2275000
X1775000Y2400000
X1300000Y1275000
X850000Y2225000
X2700000Y1975000
X1725000Y2475000
X2675000Y1825000
X2675000Y2325000
X2625000Y2875000
X2925000Y2325000
X3025000Y2750000
X2300000Y1275000
X2225000Y825000
X1250000Y4350000
X1675000Y4175000
X2425000Y2575000
X2375000Y2650000
X2225000Y2800000
X2800000Y2875000
X2475000Y1375000
X2450000Y1050000
X1850000Y3675000
X2700000Y1050000
X2650000Y1375000
X925000Y2275000
X1750000Y2650000
X725000Y3525000
X2500000Y3775000
X2600000Y3775000
X2425000Y4325000
X2500000Y4325000
X2050000Y2550000
X3175000Y2750000
X3075000Y2450000
X1325000Y2000000
X525000Y3525000
X925000Y3525000
X1250000Y3525000
X1650000Y3525000
X1650000Y3925000
X1525000Y4275000
X1675000Y550000
X1675000Y700000
X350000Y1350000
X350000Y2350000
X350000Y3350000
X750000Y350000
X1750000Y350000
X2750000Y350000
X3150000Y1350000
X3150000Y2350000
X3150000Y3350000
X850000Y1250000
X725000Y2975000
X1275000Y2925000
X975000Y2800000
X2725000Y4925000
X2725000Y4800000
X2725000Y4675000
X1825000Y6050000
X1825000Y5950000
X2034000Y5834000
X2500000Y5800000
X2725000Y6125000
X1675000Y6050000
X1675000Y5950000
X1450000Y5800000
X1428000Y6122000
X2296000Y5668000
X2510000Y5603000
X2504000Y6057000
X2290000Y6124000
X1204000Y6057000
X990000Y6122000
X996000Y5668000
X1210000Y5603000
X1150000Y2150000
X3225000Y3675000
X2800000Y2050000
X1000000Y1725000
X1750000Y2750000
X2975000Y4925000
X2975000Y4800000
X2975000Y4675000
X2175000Y4925000
X2175000Y4675000
X2175000Y4800000
X1875000Y4800000
X1875000Y4925000
X1875000Y4675000
X1625000Y4925000
X1625000Y4800000
X1625000Y4675000
X1050000Y1975000
X2000000Y3425000
X2200000Y3325000
X2200000Y3425000
X1675000Y5750000
X1750000Y5750000
X1825000Y5750000
X525000Y5750000
X2072000Y5603000
X925000Y4350000
X1850000Y3775000
X1075000Y4800000
X1750000Y6800000
X1325000Y4800000
X1325000Y4675000
X1075000Y4675000
X1075000Y4925000
X1525000Y3725000
X525000Y4675000
X525000Y4925000
X525000Y4800000
X825000Y3725000
X1850000Y3850000
X1850000Y3925000
X525000Y5600000
X1100000Y3925000
X1000000Y4525000
X2350000Y3775000
X2350000Y3575000
X2550000Y4175000
X2350000Y3850000
X2625000Y4175000
X2700000Y4175000
X2350000Y3925000
X2225000Y2325000
X1625000Y1750000
X2250000Y4525000
X2050000Y3050000
X2800000Y4525000
X2125000Y3050000
X1700000Y4525000
X1775000Y2975000
X2450000Y4925000
X1325000Y4925000
X2450000Y4675000
X968000Y4098000
X900000Y3900000
X1382000Y3900000
X1450000Y4100000
X2300000Y1375000
X1250000Y4100000
X1675000Y4025000
X675000Y3900000
X750000Y4100000
X2750000Y6800000
X750000Y6800000
X2800000Y2650000
X2800000Y2550000
X2700000Y2550000
X2700000Y2650000
X200000Y6350000
X3300000Y6350000
X200000Y5350000
X3300000Y5350000
X3300000Y4350000
X3300000Y3350000
X200000Y2350000
X200000Y1350000
X3300000Y2350000
X3300000Y1350000
X750000Y200000
X1750000Y200000
X2750000Y200000
X764000Y5928000
X2450000Y4800000
T9
X1275000Y950000
M30