G04 EAGLE Gerber RS-274X export*
G75*
%MOMM*%
%FSLAX35Y35*%
%LPD*%
%INsolder_mask_bottom*%
%IPPOS*%
%AMOC8*
5,1,8,0,0,1.08239X$1,22.5*%
G01*
%ADD10C,2.000000*%
%ADD11C,0.010000*%
%ADD12R,1.250000X2.000000*%
%ADD13R,2.250000X1.500000*%
%ADD14R,1.500000X2.000000*%
%ADD15C,0.101600*%
%ADD16R,1.027000X0.827000*%
%ADD17R,1.627000X2.527000*%
%ADD18R,0.777000X0.477000*%
%ADD19R,2.127000X0.527000*%
%ADD20R,0.427000X0.777000*%
%ADD21R,0.727000X0.827000*%
%ADD22R,0.827000X1.027000*%
%ADD23R,0.827000X0.727000*%
%ADD24P,1.457113X8X202.500000*%
%ADD25R,1.927000X2.327000*%
%ADD26P,1.402128X8X22.500000*%
%ADD27C,1.295400*%
%ADD28R,2.227000X1.627000*%
%ADD29P,1.402128X8X202.500000*%
%ADD30R,1.127000X1.227000*%
%ADD31R,1.227000X1.127000*%
%ADD32R,1.427000X1.627000*%
%ADD33R,1.627000X1.427000*%
%ADD34P,2.474344X8X22.500000*%
%ADD35R,1.127000X1.127000*%
%ADD36C,2.377000*%
%ADD37C,0.630200*%
%ADD38C,1.627000*%
%ADD39C,0.730200*%
%ADD40C,0.680200*%
%ADD41C,0.584200*%

G36*
X2723024Y1023519D02*
X2723024Y1023519D01*
X2723039Y1023502D01*
X2725069Y1023662D01*
X2725114Y1023702D01*
X2725147Y1023675D01*
X2727137Y1024155D01*
X2727175Y1024200D01*
X2727211Y1024179D01*
X2729091Y1024959D01*
X2729121Y1025009D01*
X2729160Y1024993D01*
X2730900Y1026053D01*
X2730923Y1026110D01*
X2730965Y1026101D01*
X2732515Y1027431D01*
X2732528Y1027488D01*
X2732569Y1027485D01*
X2733899Y1029035D01*
X2733903Y1029096D01*
X2733947Y1029100D01*
X2735007Y1030840D01*
X2735001Y1030898D01*
X2735041Y1030909D01*
X2735821Y1032789D01*
X2735812Y1032827D01*
X2735841Y1032849D01*
X2735835Y1032858D01*
X2735845Y1032863D01*
X2736325Y1034853D01*
X2736291Y1034932D01*
X2736339Y1034967D01*
X2736499Y1062997D01*
X2736480Y1063023D01*
X2736498Y1063039D01*
X2736338Y1065069D01*
X2736298Y1065114D01*
X2736325Y1065147D01*
X2735845Y1067137D01*
X2735800Y1067175D01*
X2735821Y1067211D01*
X2735041Y1069091D01*
X2734991Y1069121D01*
X2735007Y1069160D01*
X2733947Y1070900D01*
X2733890Y1070923D01*
X2733899Y1070965D01*
X2732569Y1072515D01*
X2732513Y1072528D01*
X2732515Y1072569D01*
X2730965Y1073899D01*
X2730904Y1073903D01*
X2730900Y1073947D01*
X2729160Y1075007D01*
X2729102Y1075001D01*
X2729091Y1075041D01*
X2727211Y1075821D01*
X2727154Y1075807D01*
X2727137Y1075845D01*
X2725147Y1076325D01*
X2725092Y1076302D01*
X2725069Y1076338D01*
X2723039Y1076498D01*
X2723013Y1076481D01*
X2723000Y1076499D01*
X2635000Y1076499D01*
X2634976Y1076481D01*
X2634961Y1076498D01*
X2632931Y1076338D01*
X2632886Y1076298D01*
X2632853Y1076325D01*
X2630863Y1075845D01*
X2630825Y1075800D01*
X2630789Y1075821D01*
X2628909Y1075041D01*
X2628879Y1074991D01*
X2628840Y1075007D01*
X2627100Y1073947D01*
X2627078Y1073890D01*
X2627035Y1073899D01*
X2625485Y1072569D01*
X2625472Y1072513D01*
X2625431Y1072515D01*
X2624101Y1070965D01*
X2624097Y1070904D01*
X2624053Y1070900D01*
X2622993Y1069160D01*
X2622999Y1069107D01*
X2622988Y1069099D01*
X2622959Y1069091D01*
X2622179Y1067211D01*
X2622193Y1067154D01*
X2622155Y1067137D01*
X2621675Y1065147D01*
X2621695Y1065099D01*
X2621680Y1065088D01*
X2621700Y1065062D01*
X2621661Y1065033D01*
X2621501Y1037003D01*
X2621520Y1036977D01*
X2621502Y1036961D01*
X2621662Y1034931D01*
X2621702Y1034886D01*
X2621675Y1034853D01*
X2622155Y1032863D01*
X2622200Y1032825D01*
X2622179Y1032789D01*
X2622959Y1030909D01*
X2623009Y1030879D01*
X2622993Y1030840D01*
X2624053Y1029100D01*
X2624110Y1029078D01*
X2624101Y1029035D01*
X2625431Y1027485D01*
X2625488Y1027472D01*
X2625485Y1027431D01*
X2627035Y1026101D01*
X2627096Y1026097D01*
X2627100Y1026053D01*
X2628840Y1024993D01*
X2628898Y1024999D01*
X2628909Y1024959D01*
X2630789Y1024179D01*
X2630846Y1024193D01*
X2630863Y1024155D01*
X2632853Y1023675D01*
X2632908Y1023698D01*
X2632931Y1023662D01*
X2634961Y1023502D01*
X2634987Y1023519D01*
X2635000Y1023501D01*
X2723000Y1023501D01*
X2723024Y1023519D01*
G37*
G36*
X2515024Y1023519D02*
X2515024Y1023519D01*
X2515039Y1023502D01*
X2517069Y1023662D01*
X2517114Y1023702D01*
X2517147Y1023675D01*
X2519137Y1024155D01*
X2519175Y1024200D01*
X2519211Y1024179D01*
X2521091Y1024959D01*
X2521121Y1025009D01*
X2521160Y1024993D01*
X2522900Y1026053D01*
X2522923Y1026110D01*
X2522965Y1026101D01*
X2524515Y1027431D01*
X2524528Y1027488D01*
X2524569Y1027485D01*
X2525899Y1029035D01*
X2525903Y1029096D01*
X2525947Y1029100D01*
X2527007Y1030840D01*
X2527001Y1030898D01*
X2527041Y1030909D01*
X2527821Y1032789D01*
X2527812Y1032827D01*
X2527841Y1032849D01*
X2527835Y1032858D01*
X2527845Y1032863D01*
X2528325Y1034853D01*
X2528291Y1034932D01*
X2528339Y1034967D01*
X2528499Y1062997D01*
X2528480Y1063023D01*
X2528498Y1063039D01*
X2528338Y1065069D01*
X2528298Y1065114D01*
X2528325Y1065147D01*
X2527845Y1067137D01*
X2527800Y1067175D01*
X2527821Y1067211D01*
X2527041Y1069091D01*
X2526991Y1069121D01*
X2527007Y1069160D01*
X2525947Y1070900D01*
X2525890Y1070923D01*
X2525899Y1070965D01*
X2524569Y1072515D01*
X2524513Y1072528D01*
X2524515Y1072569D01*
X2522965Y1073899D01*
X2522904Y1073903D01*
X2522900Y1073947D01*
X2521160Y1075007D01*
X2521102Y1075001D01*
X2521091Y1075041D01*
X2519211Y1075821D01*
X2519154Y1075807D01*
X2519137Y1075845D01*
X2517147Y1076325D01*
X2517092Y1076302D01*
X2517069Y1076338D01*
X2515039Y1076498D01*
X2515013Y1076481D01*
X2515000Y1076499D01*
X2427000Y1076499D01*
X2426976Y1076481D01*
X2426961Y1076498D01*
X2424931Y1076338D01*
X2424886Y1076298D01*
X2424853Y1076325D01*
X2422863Y1075845D01*
X2422825Y1075800D01*
X2422789Y1075821D01*
X2420909Y1075041D01*
X2420879Y1074991D01*
X2420840Y1075007D01*
X2419100Y1073947D01*
X2419078Y1073890D01*
X2419035Y1073899D01*
X2417485Y1072569D01*
X2417472Y1072513D01*
X2417431Y1072515D01*
X2416101Y1070965D01*
X2416097Y1070904D01*
X2416053Y1070900D01*
X2414993Y1069160D01*
X2414999Y1069107D01*
X2414988Y1069099D01*
X2414959Y1069091D01*
X2414179Y1067211D01*
X2414193Y1067154D01*
X2414155Y1067137D01*
X2413675Y1065147D01*
X2413695Y1065099D01*
X2413680Y1065088D01*
X2413700Y1065062D01*
X2413661Y1065033D01*
X2413501Y1037003D01*
X2413520Y1036977D01*
X2413502Y1036961D01*
X2413662Y1034931D01*
X2413702Y1034886D01*
X2413675Y1034853D01*
X2414155Y1032863D01*
X2414200Y1032825D01*
X2414179Y1032789D01*
X2414959Y1030909D01*
X2415009Y1030879D01*
X2414993Y1030840D01*
X2416053Y1029100D01*
X2416110Y1029078D01*
X2416101Y1029035D01*
X2417431Y1027485D01*
X2417488Y1027472D01*
X2417485Y1027431D01*
X2419035Y1026101D01*
X2419096Y1026097D01*
X2419100Y1026053D01*
X2420840Y1024993D01*
X2420898Y1024999D01*
X2420909Y1024959D01*
X2422789Y1024179D01*
X2422846Y1024193D01*
X2422863Y1024155D01*
X2424853Y1023675D01*
X2424908Y1023698D01*
X2424931Y1023662D01*
X2426961Y1023502D01*
X2426987Y1023519D01*
X2427000Y1023501D01*
X2515000Y1023501D01*
X2515024Y1023519D01*
G37*
D10*
X3200000Y6900000D02*
X300000Y6900000D01*
X3400000Y6685000D02*
X3400000Y300000D01*
X3200000Y100000D02*
X300000Y100000D01*
X100001Y6692500D02*
X99969Y6697424D01*
X100057Y6702348D01*
X100264Y6707268D01*
X100590Y6712182D01*
X101034Y6717087D01*
X101597Y6721979D01*
X102277Y6726856D01*
X103076Y6731716D01*
X103991Y6736554D01*
X105024Y6741369D01*
X106172Y6746158D01*
X107436Y6750918D01*
X108814Y6755646D01*
X110306Y6760339D01*
X111911Y6764994D01*
X113628Y6769610D01*
X115456Y6774182D01*
X117395Y6778709D01*
X119442Y6783188D01*
X121596Y6787617D01*
X123857Y6791992D01*
X126223Y6796310D01*
X128693Y6800571D01*
X131265Y6804771D01*
X133937Y6808907D01*
X136709Y6812977D01*
X139578Y6816979D01*
X142544Y6820911D01*
X145603Y6824770D01*
X148755Y6828554D01*
X151997Y6832261D01*
X155328Y6835888D01*
X158745Y6839434D01*
X162247Y6842896D01*
X165832Y6846272D01*
X169498Y6849561D01*
X173241Y6852760D01*
X177061Y6855868D01*
X180955Y6858883D01*
X184921Y6861802D01*
X188956Y6864625D01*
X193058Y6867350D01*
X197225Y6869975D01*
X201454Y6872498D01*
X205742Y6874919D01*
X210088Y6877235D01*
X214489Y6879445D01*
X218942Y6881548D01*
X223444Y6883544D01*
X227993Y6885429D01*
X232587Y6887205D01*
X237221Y6888868D01*
X241895Y6890420D01*
X246605Y6891858D01*
X251349Y6893181D01*
X256122Y6894390D01*
X260924Y6895483D01*
X265751Y6896460D01*
X270600Y6897320D01*
X275468Y6898062D01*
X280353Y6898686D01*
X285251Y6899193D01*
X290161Y6899580D01*
X295078Y6899849D01*
X300000Y6899999D01*
X3200000Y6900001D02*
X3205012Y6899759D01*
X3210016Y6899396D01*
X3215011Y6898912D01*
X3219992Y6898308D01*
X3224957Y6897584D01*
X3229903Y6896739D01*
X3234827Y6895776D01*
X3239727Y6894694D01*
X3244599Y6893494D01*
X3249440Y6892176D01*
X3254248Y6890742D01*
X3259021Y6889192D01*
X3263754Y6887527D01*
X3268446Y6885748D01*
X3273093Y6883857D01*
X3277694Y6881853D01*
X3282244Y6879740D01*
X3286743Y6877516D01*
X3291186Y6875185D01*
X3295571Y6872747D01*
X3299897Y6870204D01*
X3304159Y6867557D01*
X3308357Y6864808D01*
X3312486Y6861958D01*
X3316546Y6859009D01*
X3320533Y6855963D01*
X3324446Y6852822D01*
X3328281Y6849586D01*
X3332037Y6846260D01*
X3335712Y6842843D01*
X3339303Y6839338D01*
X3342808Y6835748D01*
X3346226Y6832074D01*
X3349554Y6828319D01*
X3352790Y6824484D01*
X3355932Y6820573D01*
X3358979Y6816586D01*
X3361929Y6812527D01*
X3364780Y6808398D01*
X3367530Y6804201D01*
X3370178Y6799939D01*
X3372722Y6795615D01*
X3375161Y6791230D01*
X3377494Y6786787D01*
X3379718Y6782289D01*
X3381833Y6777739D01*
X3383837Y6773139D01*
X3385730Y6768492D01*
X3387510Y6763801D01*
X3389176Y6759068D01*
X3390727Y6754296D01*
X3392162Y6749488D01*
X3393481Y6744647D01*
X3394682Y6739775D01*
X3395766Y6734876D01*
X3396730Y6729952D01*
X3397576Y6725006D01*
X3398301Y6720041D01*
X3398907Y6715060D01*
X3399392Y6710066D01*
X3399756Y6705062D01*
X3399999Y6700050D01*
X3400121Y6695034D01*
X3400121Y6690016D01*
X3400001Y6685000D01*
X3400000Y300000D02*
X3399942Y295167D01*
X3399766Y290337D01*
X3399475Y285513D01*
X3399066Y280697D01*
X3398542Y275893D01*
X3397901Y271102D01*
X3397145Y266329D01*
X3396274Y261575D01*
X3395288Y256843D01*
X3394188Y252137D01*
X3392975Y247459D01*
X3391649Y242811D01*
X3390211Y238197D01*
X3388662Y233618D01*
X3387003Y229079D01*
X3385235Y224581D01*
X3383358Y220127D01*
X3381375Y215720D01*
X3379285Y211362D01*
X3377091Y207055D01*
X3374794Y202803D01*
X3372394Y198608D01*
X3369894Y194472D01*
X3367294Y190397D01*
X3364597Y186387D01*
X3361803Y182443D01*
X3358916Y178567D01*
X3355935Y174763D01*
X3352863Y171032D01*
X3349702Y167375D01*
X3346454Y163797D01*
X3343120Y160298D01*
X3339702Y156880D01*
X3336203Y153546D01*
X3332625Y150298D01*
X3328968Y147137D01*
X3325237Y144065D01*
X3321433Y141084D01*
X3317557Y138197D01*
X3313613Y135403D01*
X3309603Y132706D01*
X3305528Y130106D01*
X3301392Y127606D01*
X3297197Y125206D01*
X3292945Y122909D01*
X3288638Y120715D01*
X3284280Y118625D01*
X3279873Y116642D01*
X3275419Y114765D01*
X3270921Y112997D01*
X3266382Y111338D01*
X3261803Y109789D01*
X3257189Y108351D01*
X3252541Y107025D01*
X3247863Y105812D01*
X3243157Y104712D01*
X3238425Y103726D01*
X3233671Y102855D01*
X3228898Y102099D01*
X3224107Y101458D01*
X3219303Y100934D01*
X3214487Y100525D01*
X3209663Y100234D01*
X3204833Y100058D01*
X3200000Y100000D01*
X300000Y100000D02*
X295167Y100058D01*
X290337Y100234D01*
X285513Y100525D01*
X280697Y100934D01*
X275893Y101458D01*
X271102Y102099D01*
X266329Y102855D01*
X261575Y103726D01*
X256843Y104712D01*
X252137Y105812D01*
X247459Y107025D01*
X242811Y108351D01*
X238197Y109789D01*
X233618Y111338D01*
X229079Y112997D01*
X224581Y114765D01*
X220127Y116642D01*
X215720Y118625D01*
X211362Y120715D01*
X207055Y122909D01*
X202803Y125206D01*
X198608Y127606D01*
X194472Y130106D01*
X190397Y132706D01*
X186387Y135403D01*
X182443Y138197D01*
X178567Y141084D01*
X174763Y144065D01*
X171032Y147137D01*
X167375Y150298D01*
X163797Y153546D01*
X160298Y156880D01*
X156880Y160298D01*
X153546Y163797D01*
X150298Y167375D01*
X147137Y171032D01*
X144065Y174763D01*
X141084Y178567D01*
X138197Y182443D01*
X135403Y186387D01*
X132706Y190397D01*
X130106Y194472D01*
X127606Y198608D01*
X125206Y202803D01*
X122909Y207055D01*
X120715Y211362D01*
X118625Y215720D01*
X116642Y220127D01*
X114765Y224581D01*
X112997Y229079D01*
X111338Y233618D01*
X109789Y238197D01*
X108351Y242811D01*
X107025Y247459D01*
X105812Y252137D01*
X104712Y256843D01*
X103726Y261575D01*
X102855Y266329D01*
X102099Y271102D01*
X101458Y275893D01*
X100934Y280697D01*
X100525Y285513D01*
X100234Y290337D01*
X100058Y295167D01*
X100000Y300000D01*
X100000Y6692500D01*
D11*
X3500000Y6700000D02*
X3500000Y300000D01*
X3499912Y292751D01*
X3499650Y285506D01*
X3499212Y278270D01*
X3498599Y271046D01*
X3497813Y263839D01*
X3496852Y256653D01*
X3495718Y249493D01*
X3494411Y242362D01*
X3492932Y235265D01*
X3491283Y228205D01*
X3489463Y221188D01*
X3487474Y214216D01*
X3485317Y207295D01*
X3482994Y200428D01*
X3480505Y193619D01*
X3477852Y186872D01*
X3475038Y180191D01*
X3472062Y173580D01*
X3468928Y167043D01*
X3465637Y160583D01*
X3462190Y154205D01*
X3458591Y147912D01*
X3454840Y141708D01*
X3450941Y135596D01*
X3446895Y129581D01*
X3442705Y123664D01*
X3438373Y117851D01*
X3433902Y112144D01*
X3429295Y106547D01*
X3424553Y101063D01*
X3419681Y95695D01*
X3414680Y90447D01*
X3409553Y85320D01*
X3404305Y80319D01*
X3398937Y75447D01*
X3393453Y70705D01*
X3387856Y66098D01*
X3382149Y61627D01*
X3376336Y57295D01*
X3370419Y53105D01*
X3364404Y49059D01*
X3358292Y45160D01*
X3352088Y41409D01*
X3345795Y37810D01*
X3339417Y34363D01*
X3332957Y31072D01*
X3326420Y27938D01*
X3319809Y24962D01*
X3313128Y22148D01*
X3306381Y19495D01*
X3299572Y17006D01*
X3292705Y14683D01*
X3285784Y12526D01*
X3278812Y10537D01*
X3271795Y8717D01*
X3264735Y7068D01*
X3257638Y5589D01*
X3250507Y4282D01*
X3243347Y3148D01*
X3236161Y2187D01*
X3228954Y1401D01*
X3221730Y788D01*
X3214494Y350D01*
X3207249Y88D01*
X3200000Y0D01*
X300000Y0D01*
X292751Y88D01*
X285506Y350D01*
X278270Y788D01*
X271046Y1401D01*
X263839Y2187D01*
X256653Y3148D01*
X249493Y4282D01*
X242362Y5589D01*
X235265Y7068D01*
X228205Y8717D01*
X221188Y10537D01*
X214216Y12526D01*
X207295Y14683D01*
X200428Y17006D01*
X193619Y19495D01*
X186872Y22148D01*
X180191Y24962D01*
X173580Y27938D01*
X167043Y31072D01*
X160583Y34363D01*
X154205Y37810D01*
X147912Y41409D01*
X141708Y45160D01*
X135596Y49059D01*
X129581Y53105D01*
X123664Y57295D01*
X117851Y61627D01*
X112144Y66098D01*
X106547Y70705D01*
X101063Y75447D01*
X95695Y80319D01*
X90447Y85320D01*
X85320Y90447D01*
X80319Y95695D01*
X75447Y101063D01*
X70705Y106547D01*
X66098Y112144D01*
X61627Y117851D01*
X57295Y123664D01*
X53105Y129581D01*
X49059Y135596D01*
X45160Y141708D01*
X41409Y147912D01*
X37810Y154205D01*
X34363Y160583D01*
X31072Y167043D01*
X27938Y173580D01*
X24962Y180191D01*
X22148Y186872D01*
X19495Y193619D01*
X17006Y200428D01*
X14683Y207295D01*
X12526Y214216D01*
X10537Y221188D01*
X8717Y228205D01*
X7068Y235265D01*
X5589Y242362D01*
X4282Y249493D01*
X3148Y256653D01*
X2187Y263839D01*
X1401Y271046D01*
X788Y278270D01*
X350Y285506D01*
X88Y292751D01*
X0Y300000D01*
X0Y6700000D01*
X88Y6707249D01*
X350Y6714494D01*
X788Y6721730D01*
X1401Y6728954D01*
X2187Y6736161D01*
X3148Y6743347D01*
X4282Y6750507D01*
X5589Y6757638D01*
X7068Y6764735D01*
X8717Y6771795D01*
X10537Y6778812D01*
X12526Y6785784D01*
X14683Y6792705D01*
X17006Y6799572D01*
X19495Y6806381D01*
X22148Y6813128D01*
X24962Y6819809D01*
X27938Y6826420D01*
X31072Y6832957D01*
X34363Y6839417D01*
X37810Y6845795D01*
X41409Y6852088D01*
X45160Y6858292D01*
X49059Y6864404D01*
X53105Y6870419D01*
X57295Y6876336D01*
X61627Y6882149D01*
X66098Y6887856D01*
X70705Y6893453D01*
X75447Y6898937D01*
X80319Y6904305D01*
X85320Y6909553D01*
X90447Y6914680D01*
X95695Y6919681D01*
X101063Y6924553D01*
X106547Y6929295D01*
X112144Y6933902D01*
X117851Y6938373D01*
X123664Y6942705D01*
X129581Y6946895D01*
X135596Y6950941D01*
X141708Y6954840D01*
X147912Y6958591D01*
X154205Y6962190D01*
X160583Y6965637D01*
X167043Y6968928D01*
X173580Y6972062D01*
X180191Y6975038D01*
X186872Y6977852D01*
X193619Y6980505D01*
X200428Y6982994D01*
X207295Y6985317D01*
X214216Y6987474D01*
X221188Y6989463D01*
X228205Y6991283D01*
X235265Y6992932D01*
X242362Y6994411D01*
X249493Y6995718D01*
X256653Y6996852D01*
X263839Y6997813D01*
X271046Y6998599D01*
X278270Y6999212D01*
X285506Y6999650D01*
X292751Y6999912D01*
X300000Y7000000D01*
X3200000Y7000000D01*
X3207249Y6999912D01*
X3214494Y6999650D01*
X3221730Y6999212D01*
X3228954Y6998599D01*
X3236161Y6997813D01*
X3243347Y6996852D01*
X3250507Y6995718D01*
X3257638Y6994411D01*
X3264735Y6992932D01*
X3271795Y6991283D01*
X3278812Y6989463D01*
X3285784Y6987474D01*
X3292705Y6985317D01*
X3299572Y6982994D01*
X3306381Y6980505D01*
X3313128Y6977852D01*
X3319809Y6975038D01*
X3326420Y6972062D01*
X3332957Y6968928D01*
X3339417Y6965637D01*
X3345795Y6962190D01*
X3352088Y6958591D01*
X3358292Y6954840D01*
X3364404Y6950941D01*
X3370419Y6946895D01*
X3376336Y6942705D01*
X3382149Y6938373D01*
X3387856Y6933902D01*
X3393453Y6929295D01*
X3398937Y6924553D01*
X3404305Y6919681D01*
X3409553Y6914680D01*
X3414680Y6909553D01*
X3419681Y6904305D01*
X3424553Y6898937D01*
X3429295Y6893453D01*
X3433902Y6887856D01*
X3438373Y6882149D01*
X3442705Y6876336D01*
X3446895Y6870419D01*
X3450941Y6864404D01*
X3454840Y6858292D01*
X3458591Y6852088D01*
X3462190Y6845795D01*
X3465637Y6839417D01*
X3468928Y6832957D01*
X3472062Y6826420D01*
X3475038Y6819809D01*
X3477852Y6813128D01*
X3480505Y6806381D01*
X3482994Y6799572D01*
X3485317Y6792705D01*
X3487474Y6785784D01*
X3489463Y6778812D01*
X3491283Y6771795D01*
X3492932Y6764735D01*
X3494411Y6757638D01*
X3495718Y6750507D01*
X3496852Y6743347D01*
X3497813Y6736161D01*
X3498599Y6728954D01*
X3499212Y6721730D01*
X3499650Y6714494D01*
X3499912Y6707249D01*
X3500000Y6700000D01*
D12*
X3149500Y6797000D03*
D13*
X3310500Y6662000D03*
D14*
X338000Y6796000D03*
D13*
X188500Y6662000D03*
D15*
X808544Y4854991D02*
X823518Y4854991D01*
X808544Y4854991D02*
X808544Y4805080D01*
X838491Y4805080D01*
X838973Y4805086D01*
X839456Y4805103D01*
X839937Y4805132D01*
X840418Y4805173D01*
X840897Y4805226D01*
X841376Y4805289D01*
X841852Y4805365D01*
X842327Y4805452D01*
X842799Y4805550D01*
X843269Y4805660D01*
X843736Y4805781D01*
X844200Y4805914D01*
X844660Y4806057D01*
X845117Y4806212D01*
X845570Y4806377D01*
X846019Y4806554D01*
X846464Y4806741D01*
X846904Y4806939D01*
X847339Y4807148D01*
X847769Y4807367D01*
X848193Y4807596D01*
X848612Y4807836D01*
X849025Y4808085D01*
X849432Y4808345D01*
X849832Y4808614D01*
X850226Y4808893D01*
X850612Y4809181D01*
X850992Y4809479D01*
X851365Y4809785D01*
X851730Y4810101D01*
X852087Y4810425D01*
X852436Y4810758D01*
X852777Y4811099D01*
X853110Y4811448D01*
X853434Y4811805D01*
X853750Y4812170D01*
X854056Y4812543D01*
X854354Y4812923D01*
X854642Y4813309D01*
X854921Y4813703D01*
X855190Y4814103D01*
X855450Y4814510D01*
X855699Y4814923D01*
X855939Y4815342D01*
X856168Y4815766D01*
X856387Y4816196D01*
X856596Y4816631D01*
X856794Y4817071D01*
X856981Y4817516D01*
X857158Y4817965D01*
X857323Y4818418D01*
X857478Y4818875D01*
X857621Y4819335D01*
X857754Y4819799D01*
X857875Y4820266D01*
X857985Y4820736D01*
X858083Y4821208D01*
X858170Y4821683D01*
X858246Y4822159D01*
X858309Y4822638D01*
X858362Y4823117D01*
X858403Y4823598D01*
X858432Y4824079D01*
X858449Y4824562D01*
X858455Y4825044D01*
X858455Y4874955D01*
X858449Y4875437D01*
X858432Y4875920D01*
X858403Y4876401D01*
X858362Y4876882D01*
X858309Y4877361D01*
X858246Y4877840D01*
X858170Y4878316D01*
X858083Y4878791D01*
X857985Y4879263D01*
X857875Y4879733D01*
X857754Y4880200D01*
X857621Y4880664D01*
X857478Y4881124D01*
X857323Y4881581D01*
X857158Y4882034D01*
X856981Y4882483D01*
X856794Y4882928D01*
X856596Y4883368D01*
X856387Y4883803D01*
X856168Y4884233D01*
X855939Y4884657D01*
X855699Y4885076D01*
X855450Y4885489D01*
X855190Y4885896D01*
X854921Y4886296D01*
X854642Y4886690D01*
X854354Y4887076D01*
X854056Y4887456D01*
X853750Y4887829D01*
X853434Y4888194D01*
X853110Y4888551D01*
X852777Y4888900D01*
X852436Y4889241D01*
X852087Y4889574D01*
X851730Y4889898D01*
X851365Y4890214D01*
X850992Y4890520D01*
X850612Y4890818D01*
X850226Y4891106D01*
X849832Y4891385D01*
X849432Y4891654D01*
X849025Y4891914D01*
X848612Y4892163D01*
X848193Y4892403D01*
X847769Y4892632D01*
X847339Y4892851D01*
X846904Y4893060D01*
X846464Y4893258D01*
X846019Y4893445D01*
X845570Y4893622D01*
X845117Y4893787D01*
X844660Y4893942D01*
X844200Y4894085D01*
X843736Y4894218D01*
X843269Y4894339D01*
X842799Y4894449D01*
X842327Y4894547D01*
X841852Y4894634D01*
X841376Y4894710D01*
X840897Y4894773D01*
X840418Y4894826D01*
X839937Y4894867D01*
X839456Y4894896D01*
X838973Y4894913D01*
X838491Y4894919D01*
X838491Y4894920D02*
X808544Y4894920D01*
X762455Y4894920D02*
X762455Y4805080D01*
X712544Y4805080D02*
X762455Y4894920D01*
X712544Y4894920D02*
X712544Y4805080D01*
X666456Y4805080D02*
X666456Y4894920D01*
X641500Y4894920D01*
X640897Y4894913D01*
X640294Y4894891D01*
X639692Y4894854D01*
X639091Y4894803D01*
X638492Y4894738D01*
X637894Y4894658D01*
X637298Y4894564D01*
X636705Y4894455D01*
X636115Y4894332D01*
X635528Y4894195D01*
X634944Y4894043D01*
X634364Y4893878D01*
X633788Y4893699D01*
X633217Y4893505D01*
X632650Y4893298D01*
X632089Y4893078D01*
X631533Y4892843D01*
X630984Y4892596D01*
X630440Y4892335D01*
X629902Y4892061D01*
X629372Y4891775D01*
X628848Y4891475D01*
X628332Y4891163D01*
X627824Y4890839D01*
X627323Y4890502D01*
X626831Y4890154D01*
X626348Y4889793D01*
X625873Y4889422D01*
X625407Y4889038D01*
X624951Y4888644D01*
X624505Y4888238D01*
X624068Y4887822D01*
X623642Y4887396D01*
X623226Y4886959D01*
X622820Y4886513D01*
X622426Y4886057D01*
X622042Y4885591D01*
X621671Y4885116D01*
X621310Y4884633D01*
X620962Y4884141D01*
X620625Y4883640D01*
X620301Y4883132D01*
X619989Y4882616D01*
X619689Y4882092D01*
X619403Y4881562D01*
X619129Y4881024D01*
X618868Y4880480D01*
X618621Y4879931D01*
X618386Y4879375D01*
X618166Y4878814D01*
X617959Y4878247D01*
X617765Y4877676D01*
X617586Y4877100D01*
X617421Y4876520D01*
X617269Y4875936D01*
X617132Y4875349D01*
X617009Y4874759D01*
X616900Y4874166D01*
X616806Y4873570D01*
X616726Y4872972D01*
X616661Y4872373D01*
X616610Y4871772D01*
X616573Y4871170D01*
X616551Y4870567D01*
X616544Y4869964D01*
X616545Y4869964D02*
X616545Y4830035D01*
X616544Y4830035D02*
X616551Y4829432D01*
X616573Y4828829D01*
X616610Y4828227D01*
X616661Y4827626D01*
X616726Y4827027D01*
X616806Y4826429D01*
X616900Y4825833D01*
X617009Y4825240D01*
X617132Y4824650D01*
X617269Y4824063D01*
X617421Y4823479D01*
X617586Y4822899D01*
X617765Y4822323D01*
X617959Y4821752D01*
X618166Y4821185D01*
X618386Y4820624D01*
X618621Y4820068D01*
X618868Y4819519D01*
X619129Y4818975D01*
X619403Y4818437D01*
X619689Y4817907D01*
X619989Y4817383D01*
X620301Y4816867D01*
X620625Y4816359D01*
X620962Y4815858D01*
X621310Y4815366D01*
X621671Y4814883D01*
X622042Y4814408D01*
X622426Y4813942D01*
X622820Y4813486D01*
X623226Y4813040D01*
X623642Y4812603D01*
X624068Y4812177D01*
X624505Y4811761D01*
X624951Y4811355D01*
X625407Y4810961D01*
X625873Y4810577D01*
X626348Y4810206D01*
X626831Y4809845D01*
X627323Y4809497D01*
X627824Y4809160D01*
X628332Y4808836D01*
X628848Y4808524D01*
X629372Y4808224D01*
X629902Y4807938D01*
X630440Y4807664D01*
X630984Y4807403D01*
X631533Y4807156D01*
X632089Y4806921D01*
X632650Y4806701D01*
X633217Y4806494D01*
X633788Y4806300D01*
X634364Y4806121D01*
X634944Y4805956D01*
X635528Y4805804D01*
X636115Y4805667D01*
X636705Y4805544D01*
X637298Y4805435D01*
X637894Y4805341D01*
X638492Y4805261D01*
X639091Y4805196D01*
X639692Y4805145D01*
X640294Y4805108D01*
X640897Y4805086D01*
X641500Y4805079D01*
X641500Y4805080D02*
X666456Y4805080D01*
X897959Y4264973D02*
X877995Y4205080D01*
X858031Y4264973D01*
X784013Y4254991D02*
X769040Y4254991D01*
X769040Y4205080D01*
X798986Y4205080D01*
X799468Y4205086D01*
X799951Y4205103D01*
X800432Y4205132D01*
X800913Y4205173D01*
X801392Y4205226D01*
X801871Y4205289D01*
X802347Y4205365D01*
X802822Y4205452D01*
X803294Y4205550D01*
X803764Y4205660D01*
X804231Y4205781D01*
X804695Y4205914D01*
X805155Y4206057D01*
X805612Y4206212D01*
X806065Y4206377D01*
X806514Y4206554D01*
X806959Y4206741D01*
X807399Y4206939D01*
X807834Y4207148D01*
X808264Y4207367D01*
X808688Y4207596D01*
X809107Y4207836D01*
X809520Y4208085D01*
X809927Y4208345D01*
X810327Y4208614D01*
X810721Y4208893D01*
X811107Y4209181D01*
X811487Y4209479D01*
X811860Y4209785D01*
X812225Y4210101D01*
X812582Y4210425D01*
X812931Y4210758D01*
X813272Y4211099D01*
X813605Y4211448D01*
X813929Y4211805D01*
X814245Y4212170D01*
X814551Y4212543D01*
X814849Y4212923D01*
X815137Y4213309D01*
X815416Y4213703D01*
X815685Y4214103D01*
X815945Y4214510D01*
X816194Y4214923D01*
X816434Y4215342D01*
X816663Y4215766D01*
X816882Y4216196D01*
X817091Y4216631D01*
X817289Y4217071D01*
X817476Y4217516D01*
X817653Y4217965D01*
X817818Y4218418D01*
X817973Y4218875D01*
X818116Y4219335D01*
X818249Y4219799D01*
X818370Y4220266D01*
X818480Y4220736D01*
X818578Y4221208D01*
X818665Y4221683D01*
X818741Y4222159D01*
X818804Y4222638D01*
X818857Y4223117D01*
X818898Y4223598D01*
X818927Y4224079D01*
X818944Y4224562D01*
X818950Y4225044D01*
X818951Y4225044D02*
X818951Y4274955D01*
X818950Y4274955D02*
X818944Y4275437D01*
X818927Y4275920D01*
X818898Y4276401D01*
X818857Y4276882D01*
X818804Y4277361D01*
X818741Y4277840D01*
X818665Y4278316D01*
X818578Y4278791D01*
X818480Y4279263D01*
X818370Y4279733D01*
X818249Y4280200D01*
X818116Y4280664D01*
X817973Y4281124D01*
X817818Y4281581D01*
X817653Y4282034D01*
X817476Y4282483D01*
X817289Y4282928D01*
X817091Y4283368D01*
X816882Y4283803D01*
X816663Y4284233D01*
X816434Y4284657D01*
X816194Y4285076D01*
X815945Y4285489D01*
X815685Y4285896D01*
X815416Y4286296D01*
X815137Y4286690D01*
X814849Y4287076D01*
X814551Y4287456D01*
X814245Y4287829D01*
X813929Y4288194D01*
X813605Y4288551D01*
X813272Y4288900D01*
X812931Y4289241D01*
X812582Y4289574D01*
X812225Y4289898D01*
X811860Y4290214D01*
X811487Y4290520D01*
X811107Y4290818D01*
X810721Y4291106D01*
X810327Y4291385D01*
X809927Y4291654D01*
X809520Y4291914D01*
X809107Y4292163D01*
X808688Y4292403D01*
X808264Y4292632D01*
X807834Y4292851D01*
X807399Y4293060D01*
X806959Y4293258D01*
X806514Y4293445D01*
X806065Y4293622D01*
X805612Y4293787D01*
X805155Y4293942D01*
X804695Y4294085D01*
X804231Y4294218D01*
X803764Y4294339D01*
X803294Y4294449D01*
X802822Y4294547D01*
X802347Y4294634D01*
X801871Y4294710D01*
X801392Y4294773D01*
X800913Y4294826D01*
X800432Y4294867D01*
X799951Y4294896D01*
X799468Y4294913D01*
X798986Y4294919D01*
X798986Y4294920D02*
X769040Y4294920D01*
X722951Y4294920D02*
X722951Y4205080D01*
X673040Y4205080D02*
X722951Y4294920D01*
X673040Y4294920D02*
X673040Y4205080D01*
X626951Y4205080D02*
X626951Y4294920D01*
X601996Y4294920D01*
X601393Y4294913D01*
X600790Y4294891D01*
X600188Y4294854D01*
X599587Y4294803D01*
X598988Y4294738D01*
X598390Y4294658D01*
X597794Y4294564D01*
X597201Y4294455D01*
X596611Y4294332D01*
X596024Y4294195D01*
X595440Y4294043D01*
X594860Y4293878D01*
X594284Y4293699D01*
X593713Y4293505D01*
X593146Y4293298D01*
X592585Y4293078D01*
X592029Y4292843D01*
X591480Y4292596D01*
X590936Y4292335D01*
X590398Y4292061D01*
X589868Y4291775D01*
X589344Y4291475D01*
X588828Y4291163D01*
X588320Y4290839D01*
X587819Y4290502D01*
X587327Y4290154D01*
X586844Y4289793D01*
X586369Y4289422D01*
X585903Y4289038D01*
X585447Y4288644D01*
X585001Y4288238D01*
X584564Y4287822D01*
X584138Y4287396D01*
X583722Y4286959D01*
X583316Y4286513D01*
X582922Y4286057D01*
X582538Y4285591D01*
X582167Y4285116D01*
X581806Y4284633D01*
X581458Y4284141D01*
X581121Y4283640D01*
X580797Y4283132D01*
X580485Y4282616D01*
X580185Y4282092D01*
X579899Y4281562D01*
X579625Y4281024D01*
X579364Y4280480D01*
X579117Y4279931D01*
X578882Y4279375D01*
X578662Y4278814D01*
X578455Y4278247D01*
X578261Y4277676D01*
X578082Y4277100D01*
X577917Y4276520D01*
X577765Y4275936D01*
X577628Y4275349D01*
X577505Y4274759D01*
X577396Y4274166D01*
X577302Y4273570D01*
X577222Y4272972D01*
X577157Y4272373D01*
X577106Y4271772D01*
X577069Y4271170D01*
X577047Y4270567D01*
X577040Y4269964D01*
X577040Y4230035D01*
X577047Y4229432D01*
X577069Y4228829D01*
X577106Y4228227D01*
X577157Y4227626D01*
X577222Y4227027D01*
X577302Y4226429D01*
X577396Y4225833D01*
X577505Y4225240D01*
X577628Y4224650D01*
X577765Y4224063D01*
X577917Y4223479D01*
X578082Y4222899D01*
X578261Y4222323D01*
X578455Y4221752D01*
X578662Y4221185D01*
X578882Y4220624D01*
X579117Y4220068D01*
X579364Y4219519D01*
X579625Y4218975D01*
X579899Y4218437D01*
X580185Y4217907D01*
X580485Y4217383D01*
X580797Y4216867D01*
X581121Y4216359D01*
X581458Y4215858D01*
X581806Y4215366D01*
X582167Y4214883D01*
X582538Y4214408D01*
X582922Y4213942D01*
X583316Y4213486D01*
X583722Y4213040D01*
X584138Y4212603D01*
X584564Y4212177D01*
X585001Y4211761D01*
X585447Y4211355D01*
X585903Y4210961D01*
X586369Y4210577D01*
X586844Y4210206D01*
X587327Y4209845D01*
X587819Y4209497D01*
X588320Y4209160D01*
X588828Y4208836D01*
X589344Y4208524D01*
X589868Y4208224D01*
X590398Y4207938D01*
X590936Y4207664D01*
X591480Y4207403D01*
X592029Y4207156D01*
X592585Y4206921D01*
X593146Y4206701D01*
X593713Y4206494D01*
X594284Y4206300D01*
X594860Y4206121D01*
X595440Y4205956D01*
X596024Y4205804D01*
X596611Y4205667D01*
X597201Y4205544D01*
X597794Y4205435D01*
X598390Y4205341D01*
X598988Y4205261D01*
X599587Y4205196D01*
X600188Y4205145D01*
X600790Y4205108D01*
X601393Y4205086D01*
X601996Y4205079D01*
X601996Y4205080D02*
X626951Y4205080D01*
X2208544Y6679991D02*
X2223518Y6679991D01*
X2208544Y6679991D02*
X2208544Y6630080D01*
X2238491Y6630080D01*
X2238973Y6630086D01*
X2239456Y6630103D01*
X2239937Y6630132D01*
X2240418Y6630173D01*
X2240897Y6630226D01*
X2241376Y6630289D01*
X2241852Y6630365D01*
X2242327Y6630452D01*
X2242799Y6630550D01*
X2243269Y6630660D01*
X2243736Y6630781D01*
X2244200Y6630914D01*
X2244660Y6631057D01*
X2245117Y6631212D01*
X2245570Y6631377D01*
X2246019Y6631554D01*
X2246464Y6631741D01*
X2246904Y6631939D01*
X2247339Y6632148D01*
X2247769Y6632367D01*
X2248193Y6632596D01*
X2248612Y6632836D01*
X2249025Y6633085D01*
X2249432Y6633345D01*
X2249832Y6633614D01*
X2250226Y6633893D01*
X2250612Y6634181D01*
X2250992Y6634479D01*
X2251365Y6634785D01*
X2251730Y6635101D01*
X2252087Y6635425D01*
X2252436Y6635758D01*
X2252777Y6636099D01*
X2253110Y6636448D01*
X2253434Y6636805D01*
X2253750Y6637170D01*
X2254056Y6637543D01*
X2254354Y6637923D01*
X2254642Y6638309D01*
X2254921Y6638703D01*
X2255190Y6639103D01*
X2255450Y6639510D01*
X2255699Y6639923D01*
X2255939Y6640342D01*
X2256168Y6640766D01*
X2256387Y6641196D01*
X2256596Y6641631D01*
X2256794Y6642071D01*
X2256981Y6642516D01*
X2257158Y6642965D01*
X2257323Y6643418D01*
X2257478Y6643875D01*
X2257621Y6644335D01*
X2257754Y6644799D01*
X2257875Y6645266D01*
X2257985Y6645736D01*
X2258083Y6646208D01*
X2258170Y6646683D01*
X2258246Y6647159D01*
X2258309Y6647638D01*
X2258362Y6648117D01*
X2258403Y6648598D01*
X2258432Y6649079D01*
X2258449Y6649562D01*
X2258455Y6650044D01*
X2258455Y6699955D01*
X2258449Y6700437D01*
X2258432Y6700920D01*
X2258403Y6701401D01*
X2258362Y6701882D01*
X2258309Y6702361D01*
X2258246Y6702840D01*
X2258170Y6703316D01*
X2258083Y6703791D01*
X2257985Y6704263D01*
X2257875Y6704733D01*
X2257754Y6705200D01*
X2257621Y6705664D01*
X2257478Y6706124D01*
X2257323Y6706581D01*
X2257158Y6707034D01*
X2256981Y6707483D01*
X2256794Y6707928D01*
X2256596Y6708368D01*
X2256387Y6708803D01*
X2256168Y6709233D01*
X2255939Y6709657D01*
X2255699Y6710076D01*
X2255450Y6710489D01*
X2255190Y6710896D01*
X2254921Y6711296D01*
X2254642Y6711690D01*
X2254354Y6712076D01*
X2254056Y6712456D01*
X2253750Y6712829D01*
X2253434Y6713194D01*
X2253110Y6713551D01*
X2252777Y6713900D01*
X2252436Y6714241D01*
X2252087Y6714574D01*
X2251730Y6714898D01*
X2251365Y6715214D01*
X2250992Y6715520D01*
X2250612Y6715818D01*
X2250226Y6716106D01*
X2249832Y6716385D01*
X2249432Y6716654D01*
X2249025Y6716914D01*
X2248612Y6717163D01*
X2248193Y6717403D01*
X2247769Y6717632D01*
X2247339Y6717851D01*
X2246904Y6718060D01*
X2246464Y6718258D01*
X2246019Y6718445D01*
X2245570Y6718622D01*
X2245117Y6718787D01*
X2244660Y6718942D01*
X2244200Y6719085D01*
X2243736Y6719218D01*
X2243269Y6719339D01*
X2242799Y6719449D01*
X2242327Y6719547D01*
X2241852Y6719634D01*
X2241376Y6719710D01*
X2240897Y6719773D01*
X2240418Y6719826D01*
X2239937Y6719867D01*
X2239456Y6719896D01*
X2238973Y6719913D01*
X2238491Y6719919D01*
X2238491Y6719920D02*
X2208544Y6719920D01*
X2162455Y6719920D02*
X2162455Y6630080D01*
X2112544Y6630080D02*
X2162455Y6719920D01*
X2112544Y6719920D02*
X2112544Y6630080D01*
X2066456Y6630080D02*
X2066456Y6719920D01*
X2041500Y6719920D01*
X2040897Y6719913D01*
X2040294Y6719891D01*
X2039692Y6719854D01*
X2039091Y6719803D01*
X2038492Y6719738D01*
X2037894Y6719658D01*
X2037298Y6719564D01*
X2036705Y6719455D01*
X2036115Y6719332D01*
X2035528Y6719195D01*
X2034944Y6719043D01*
X2034364Y6718878D01*
X2033788Y6718699D01*
X2033217Y6718505D01*
X2032650Y6718298D01*
X2032089Y6718078D01*
X2031533Y6717843D01*
X2030984Y6717596D01*
X2030440Y6717335D01*
X2029902Y6717061D01*
X2029372Y6716775D01*
X2028848Y6716475D01*
X2028332Y6716163D01*
X2027824Y6715839D01*
X2027323Y6715502D01*
X2026831Y6715154D01*
X2026348Y6714793D01*
X2025873Y6714422D01*
X2025407Y6714038D01*
X2024951Y6713644D01*
X2024505Y6713238D01*
X2024068Y6712822D01*
X2023642Y6712396D01*
X2023226Y6711959D01*
X2022820Y6711513D01*
X2022426Y6711057D01*
X2022042Y6710591D01*
X2021671Y6710116D01*
X2021310Y6709633D01*
X2020962Y6709141D01*
X2020625Y6708640D01*
X2020301Y6708132D01*
X2019989Y6707616D01*
X2019689Y6707092D01*
X2019403Y6706562D01*
X2019129Y6706024D01*
X2018868Y6705480D01*
X2018621Y6704931D01*
X2018386Y6704375D01*
X2018166Y6703814D01*
X2017959Y6703247D01*
X2017765Y6702676D01*
X2017586Y6702100D01*
X2017421Y6701520D01*
X2017269Y6700936D01*
X2017132Y6700349D01*
X2017009Y6699759D01*
X2016900Y6699166D01*
X2016806Y6698570D01*
X2016726Y6697972D01*
X2016661Y6697373D01*
X2016610Y6696772D01*
X2016573Y6696170D01*
X2016551Y6695567D01*
X2016544Y6694964D01*
X2016545Y6694964D02*
X2016545Y6655035D01*
X2016544Y6655035D02*
X2016551Y6654432D01*
X2016573Y6653829D01*
X2016610Y6653227D01*
X2016661Y6652626D01*
X2016726Y6652027D01*
X2016806Y6651429D01*
X2016900Y6650833D01*
X2017009Y6650240D01*
X2017132Y6649650D01*
X2017269Y6649063D01*
X2017421Y6648479D01*
X2017586Y6647899D01*
X2017765Y6647323D01*
X2017959Y6646752D01*
X2018166Y6646185D01*
X2018386Y6645624D01*
X2018621Y6645068D01*
X2018868Y6644519D01*
X2019129Y6643975D01*
X2019403Y6643437D01*
X2019689Y6642907D01*
X2019989Y6642383D01*
X2020301Y6641867D01*
X2020625Y6641359D01*
X2020962Y6640858D01*
X2021310Y6640366D01*
X2021671Y6639883D01*
X2022042Y6639408D01*
X2022426Y6638942D01*
X2022820Y6638486D01*
X2023226Y6638040D01*
X2023642Y6637603D01*
X2024068Y6637177D01*
X2024505Y6636761D01*
X2024951Y6636355D01*
X2025407Y6635961D01*
X2025873Y6635577D01*
X2026348Y6635206D01*
X2026831Y6634845D01*
X2027323Y6634497D01*
X2027824Y6634160D01*
X2028332Y6633836D01*
X2028848Y6633524D01*
X2029372Y6633224D01*
X2029902Y6632938D01*
X2030440Y6632664D01*
X2030984Y6632403D01*
X2031533Y6632156D01*
X2032089Y6631921D01*
X2032650Y6631701D01*
X2033217Y6631494D01*
X2033788Y6631300D01*
X2034364Y6631121D01*
X2034944Y6630956D01*
X2035528Y6630804D01*
X2036115Y6630667D01*
X2036705Y6630544D01*
X2037298Y6630435D01*
X2037894Y6630341D01*
X2038492Y6630261D01*
X2039091Y6630196D01*
X2039692Y6630145D01*
X2040294Y6630108D01*
X2040897Y6630086D01*
X2041500Y6630079D01*
X2041500Y6630080D02*
X2066456Y6630080D01*
D16*
X875000Y1010000D03*
X875000Y1140000D03*
X1375000Y1635000D03*
X1375000Y1765000D03*
X975000Y1010000D03*
X975000Y1140000D03*
D17*
X600000Y825000D03*
D18*
X755000Y922500D03*
X755000Y857500D03*
X755000Y792500D03*
X755000Y727500D03*
X445000Y922500D03*
X445000Y857500D03*
X445000Y792500D03*
X445000Y727500D03*
D19*
X1325000Y2120000D03*
X1325000Y2000000D03*
X1325000Y1880000D03*
D20*
X1250000Y1350000D03*
X1200000Y1350000D03*
X1150000Y1350000D03*
X1100000Y1350000D03*
X1100000Y1450000D03*
X1150000Y1450000D03*
X1200000Y1450000D03*
X1250000Y1450000D03*
X850000Y1450000D03*
X900000Y1450000D03*
X950000Y1450000D03*
X1000000Y1450000D03*
X1000000Y1350000D03*
X950000Y1350000D03*
X900000Y1350000D03*
X850000Y1350000D03*
D21*
X1975000Y2975000D03*
X1875000Y2975000D03*
D16*
X3075000Y2590000D03*
X3075000Y2460000D03*
D22*
X3190000Y2750000D03*
X3060000Y2750000D03*
X2910000Y2300000D03*
X3040000Y2300000D03*
D23*
X2625000Y2975000D03*
X2625000Y3075000D03*
X2500000Y2975000D03*
X2500000Y3075000D03*
D24*
X2752000Y3225000D03*
X2498000Y3225000D03*
D21*
X2525000Y2325000D03*
X2625000Y2325000D03*
D23*
X2875000Y2975000D03*
X2875000Y3075000D03*
X2750000Y3075000D03*
X2750000Y2975000D03*
D21*
X1975000Y2725000D03*
X1875000Y2725000D03*
X1975000Y2850000D03*
X1875000Y2850000D03*
D23*
X2250000Y1375000D03*
X2250000Y1275000D03*
D16*
X2125000Y1260000D03*
X2125000Y1390000D03*
D21*
X2625000Y1375000D03*
X2525000Y1375000D03*
X2525000Y1250000D03*
X2625000Y1250000D03*
D22*
X2510000Y875000D03*
X2640000Y875000D03*
D16*
X575000Y2335000D03*
X575000Y2465000D03*
X575000Y2765000D03*
X575000Y2635000D03*
X450000Y2335000D03*
X450000Y2465000D03*
X450000Y2765000D03*
X450000Y2635000D03*
D22*
X1060000Y2800000D03*
X1190000Y2800000D03*
D25*
X1655000Y6425000D03*
X1145000Y6425000D03*
X1845000Y6425000D03*
X2355000Y6425000D03*
D22*
X2465000Y5600000D03*
X2335000Y5600000D03*
X2335000Y6125000D03*
X2465000Y6125000D03*
X1035000Y6125000D03*
X1165000Y6125000D03*
X1165000Y5600000D03*
X1035000Y5600000D03*
D26*
X963900Y5300000D03*
D27*
X786100Y5300000D03*
D23*
X3075000Y3700000D03*
X3075000Y3800000D03*
X3225000Y3800000D03*
X3225000Y3700000D03*
D28*
X3150000Y4930000D03*
X3150000Y4570000D03*
X3150000Y4405000D03*
X3150000Y4045000D03*
D22*
X2640000Y2100000D03*
X2510000Y2100000D03*
D29*
X1236100Y5300000D03*
D27*
X1413900Y5300000D03*
D29*
X1661100Y5300000D03*
D27*
X1838900Y5300000D03*
D29*
X2111100Y5300000D03*
D27*
X2288900Y5300000D03*
D26*
X2713900Y5300000D03*
D27*
X2536100Y5300000D03*
D21*
X2200000Y5600000D03*
X2100000Y5600000D03*
D30*
X2250000Y4165000D03*
X2250000Y4335000D03*
D31*
X1865000Y3875000D03*
X2035000Y3875000D03*
D32*
X1830000Y4100000D03*
X2020000Y4100000D03*
X1830000Y4325000D03*
X2020000Y4325000D03*
D33*
X2450000Y4180000D03*
X2450000Y4370000D03*
X2650000Y4180000D03*
X2650000Y4370000D03*
X2550000Y3970000D03*
X2550000Y3780000D03*
D23*
X2250000Y3675000D03*
X2250000Y3775000D03*
D22*
X2215000Y3525000D03*
X2085000Y3525000D03*
D34*
X3050000Y3225000D03*
D22*
X1860000Y2550000D03*
X1990000Y2550000D03*
D21*
X1975000Y2425000D03*
X1875000Y2425000D03*
X1800000Y4525000D03*
X1700000Y4525000D03*
D23*
X2825000Y4325000D03*
X2825000Y4225000D03*
D21*
X2150000Y4525000D03*
X2250000Y4525000D03*
D34*
X2550000Y6425000D03*
X950000Y6425000D03*
D16*
X900000Y3935000D03*
X900000Y4065000D03*
X1450000Y4065000D03*
X1450000Y3935000D03*
D21*
X2200000Y3325000D03*
X2300000Y3325000D03*
D16*
X750000Y4065000D03*
X750000Y3935000D03*
D35*
X400000Y4300000D03*
X400000Y4575000D03*
D36*
X300000Y6700000D03*
X300000Y300000D03*
X3200000Y300000D03*
X3200000Y6700000D03*
D37*
X1750000Y6800000D03*
X2750000Y6800000D03*
X750000Y6800000D03*
X200000Y6350000D03*
X3300000Y6350000D03*
X200000Y5350000D03*
X3300000Y5350000D03*
X3300000Y4350000D03*
X3300000Y3350000D03*
X200000Y2350000D03*
X200000Y1350000D03*
X3300000Y2350000D03*
X3300000Y1350000D03*
X750000Y200000D03*
X1750000Y200000D03*
X2750000Y200000D03*
X764000Y5928000D03*
X2288000Y5926000D03*
D38*
X350000Y3525000D03*
D37*
X2350000Y4050000D03*
X2800000Y4125000D03*
X2875000Y4125000D03*
X2950000Y4125000D03*
X2925000Y3750000D03*
X2850000Y3750000D03*
X2775000Y3750000D03*
X2775000Y3600000D03*
X2850000Y3600000D03*
X2925000Y3600000D03*
X200000Y3350000D03*
D39*
X500000Y2550000D03*
D37*
X200000Y4350000D03*
X1225000Y1575000D03*
X1150000Y1625000D03*
X1300000Y1550000D03*
X1075000Y1575000D03*
X375000Y875000D03*
X925000Y575000D03*
X375000Y775000D03*
X725000Y575000D03*
X950000Y875000D03*
X950000Y775000D03*
X1475000Y2225000D03*
X1375320Y1300000D03*
X1550000Y2225000D03*
X1575000Y900000D03*
X1625000Y2075000D03*
X1625000Y1875000D03*
X375000Y975000D03*
X775000Y1775000D03*
X575000Y2300000D03*
X575000Y2800000D03*
X2700000Y2100000D03*
X2725000Y2875000D03*
X2475000Y2500000D03*
X3075000Y2600000D03*
X850000Y825000D03*
X950000Y950000D03*
X1377424Y1589500D03*
X2950000Y4025000D03*
X2875000Y3150000D03*
X1700000Y2550000D03*
X2100000Y2250000D03*
X2875000Y4025000D03*
X2800000Y4025000D03*
X3150000Y2600000D03*
X3225000Y2600000D03*
X1275000Y3200000D03*
X775000Y1625000D03*
X1225000Y1250000D03*
X750000Y2225000D03*
X2800000Y1975000D03*
X1950000Y2250000D03*
X1150000Y1225000D03*
X675000Y2275000D03*
X1775000Y2400000D03*
X1300000Y1275000D03*
X850000Y2225000D03*
X2700000Y1975000D03*
X1725000Y2475000D03*
X2675000Y1825000D03*
X2675000Y2325000D03*
X2625000Y2875000D03*
X2925000Y2325000D03*
X3025000Y2750000D03*
X2300000Y1275000D03*
X2225000Y825000D03*
X1250000Y4350000D03*
X1675000Y4175000D03*
D39*
X1750000Y3450000D03*
D37*
X2425000Y2575000D03*
X2375000Y2650000D03*
X2225000Y2800000D03*
X2800000Y2875000D03*
X2475000Y1375000D03*
X2450000Y1050000D03*
D39*
X1875000Y700000D03*
D37*
X1850000Y3675000D03*
X2700000Y1050000D03*
X2650000Y1375000D03*
X925000Y2275000D03*
X1750000Y2650000D03*
X725000Y3525000D03*
D39*
X2100000Y3675000D03*
D37*
X2500000Y3775000D03*
X2600000Y3775000D03*
X2425000Y4325000D03*
X2500000Y4325000D03*
D40*
X800000Y2550000D03*
D37*
X2050000Y2550000D03*
D40*
X1114000Y1831000D03*
X600000Y825000D03*
D37*
X3175000Y2750000D03*
X3075000Y2450000D03*
X1325000Y2000000D03*
X525000Y3525000D03*
X925000Y3525000D03*
X1250000Y3525000D03*
X1650000Y3525000D03*
X1650000Y3925000D03*
X1525000Y4275000D03*
D41*
X1275000Y950000D03*
D37*
X1675000Y550000D03*
X1675000Y700000D03*
X350000Y1350000D03*
X350000Y2350000D03*
X350000Y3350000D03*
X750000Y350000D03*
X1750000Y350000D03*
X2750000Y350000D03*
X3150000Y1350000D03*
X3150000Y2350000D03*
X3150000Y3350000D03*
X850000Y1250000D03*
X725000Y2975000D03*
X1275000Y2925000D03*
X975000Y2800000D03*
X2725000Y4925000D03*
X2725000Y4800000D03*
X2725000Y4675000D03*
D38*
X3150000Y5300000D03*
D37*
X1825000Y6050000D03*
X1825000Y5950000D03*
X2034000Y5834000D03*
X2500000Y5800000D03*
X2725000Y6125000D03*
X1675000Y6050000D03*
X1675000Y5950000D03*
X1450000Y5800000D03*
X1428000Y6122000D03*
X2296000Y5668000D03*
X2510000Y5603000D03*
X2504000Y6057000D03*
X2290000Y6124000D03*
X1204000Y6057000D03*
X990000Y6122000D03*
X996000Y5668000D03*
X1210000Y5603000D03*
X1150000Y2150000D03*
X3225000Y3675000D03*
X2800000Y2050000D03*
X1000000Y1725000D03*
X1750000Y2750000D03*
X2975000Y4925000D03*
X2975000Y4800000D03*
X2975000Y4675000D03*
X2175000Y4925000D03*
X2175000Y4675000D03*
X2175000Y4800000D03*
X1875000Y4800000D03*
X1875000Y4925000D03*
X1875000Y4675000D03*
X1625000Y4925000D03*
X1625000Y4800000D03*
X1625000Y4675000D03*
X1050000Y1975000D03*
X2000000Y3425000D03*
X2200000Y3325000D03*
X2200000Y3425000D03*
X1675000Y5750000D03*
X1750000Y5750000D03*
X1825000Y5750000D03*
X525000Y5750000D03*
X2072000Y5603000D03*
X925000Y4350000D03*
X1850000Y3775000D03*
X1075000Y4800000D03*
X1325000Y4925000D03*
X1325000Y4800000D03*
X1325000Y4675000D03*
X1075000Y4675000D03*
X1075000Y4925000D03*
X1525000Y3725000D03*
X525000Y4675000D03*
X525000Y4925000D03*
X525000Y4800000D03*
X825000Y3725000D03*
X1850000Y3850000D03*
X1850000Y3925000D03*
X525000Y5600000D03*
X1100000Y3925000D03*
X1000000Y4525000D03*
X2350000Y3775000D03*
X2350000Y3575000D03*
X2550000Y4175000D03*
X2350000Y3850000D03*
X2625000Y4175000D03*
X2700000Y4175000D03*
X2350000Y3925000D03*
X2225000Y2325000D03*
X1625000Y1750000D03*
X2250000Y4525000D03*
X2050000Y3050000D03*
X2800000Y4525000D03*
X2125000Y3050000D03*
X1700000Y4525000D03*
X1775000Y2975000D03*
X2450000Y4925000D03*
X2450000Y4800000D03*
X2450000Y4675000D03*
X968000Y4098000D03*
X900000Y3900000D03*
X1382000Y3900000D03*
X1450000Y4100000D03*
X2300000Y1375000D03*
X1250000Y4100000D03*
X1675000Y4025000D03*
X675000Y3900000D03*
X750000Y4100000D03*
D38*
X350000Y3800000D03*
D39*
X2025000Y525000D03*
M02*
