G04 EAGLE Gerber X2 export*
%TF.Part,Single*%
%TF.FileFunction,Copper,L3,Inr,Mixed*%
%TF.FilePolarity,Positive*%
%TF.GenerationSoftware,Autodesk,EAGLE,9.6.2*%
%TF.CreationDate,2025-01-22T21:39:34Z*%
G75*
%MOMM*%
%FSLAX36Y36*%
%LPD*%
%INInternal Plane 2*%
%AMOC8*
5,1,8,0,0,1.08239X$1,22.5*%
G01*
%ADD10C,0.152400*%
%ADD11C,1.524000*%
%ADD12C,1.500000*%
%ADD13C,1.350000*%
%ADD14C,0.553200*%
%ADD15C,4.016000*%
%ADD16C,0.250000*%
%ADD17C,0.500000*%
%ADD18C,0.750000*%

G36*
X74001728Y3381347D02*
X74001728Y3381347D01*
X74003922Y3381150D01*
X74405800Y3412778D01*
X74410113Y3414013D01*
X74417328Y3415072D01*
X75181750Y3663447D01*
X75184597Y3665056D01*
X75195691Y3670550D01*
X75845947Y4142991D01*
X75848141Y4145381D01*
X75848697Y4145925D01*
X75849109Y4146209D01*
X75849316Y4146531D01*
X75857006Y4154050D01*
X76329447Y4804303D01*
X76330794Y4807256D01*
X76336550Y4818244D01*
X76584925Y5582666D01*
X76585434Y5587113D01*
X76587219Y5594194D01*
X76618847Y5996075D01*
X76618631Y5997831D01*
X76619000Y5999997D01*
X76619000Y48999997D01*
X76618650Y49001725D01*
X76618847Y49003919D01*
X76587219Y49405800D01*
X76585984Y49410113D01*
X76584925Y49417328D01*
X76336550Y50181750D01*
X76334941Y50184597D01*
X76329447Y50195691D01*
X75857006Y50845947D01*
X75854616Y50848141D01*
X75845947Y50857006D01*
X75195691Y51329447D01*
X75192738Y51330794D01*
X75181750Y51336550D01*
X74417328Y51584925D01*
X74412881Y51585434D01*
X74405800Y51587219D01*
X74003922Y51618847D01*
X74002166Y51618631D01*
X74000000Y51619000D01*
X13000000Y51619000D01*
X12999206Y51618838D01*
X12998406Y51618975D01*
X12989509Y51616869D01*
X12980497Y51615041D01*
X12979825Y51614578D01*
X12979041Y51614394D01*
X12971678Y51608994D01*
X12964084Y51603788D01*
X12963647Y51603103D01*
X12962994Y51602625D01*
X12958291Y51594728D01*
X12953363Y51587025D01*
X12953228Y51586228D01*
X12952809Y51585528D01*
X12950000Y51569000D01*
X12949997Y41168984D01*
X12950078Y41168588D01*
X12950003Y41168188D01*
X12952044Y41158909D01*
X12953956Y41149481D01*
X12954188Y41149141D01*
X12954275Y41148750D01*
X12959756Y41141025D01*
X12965209Y41133069D01*
X12965553Y41132850D01*
X12965788Y41132519D01*
X12973888Y41127519D01*
X12981972Y41122347D01*
X12982375Y41122278D01*
X12982719Y41122066D01*
X12992166Y41120613D01*
X13001591Y41119009D01*
X13001984Y41119103D01*
X13002388Y41119041D01*
X13011750Y41121413D01*
X13020956Y41123591D01*
X13021278Y41123828D01*
X13021678Y41123928D01*
X13035353Y41133628D01*
X13060094Y41158369D01*
X13345519Y41276597D01*
X13654478Y41276597D01*
X13939903Y41158369D01*
X14158369Y40939903D01*
X14276597Y40654478D01*
X14276597Y40345519D01*
X14158369Y40060094D01*
X13939903Y39841628D01*
X13904681Y39827038D01*
X13904678Y39827038D01*
X13904675Y39827034D01*
X13663259Y39727038D01*
X13663256Y39727038D01*
X13663253Y39727034D01*
X13654478Y39723400D01*
X13345519Y39723400D01*
X13060094Y39841628D01*
X13035353Y39866369D01*
X13035013Y39866594D01*
X13034784Y39866928D01*
X13034109Y39867359D01*
X13033638Y39868003D01*
X13026156Y39872459D01*
X13018763Y39877356D01*
X13018366Y39877431D01*
X13018022Y39877650D01*
X13017213Y39877788D01*
X13016541Y39878188D01*
X13000013Y39880997D01*
X12999997Y39880997D01*
X12999641Y39880925D01*
X12999200Y39881006D01*
X12998803Y39880919D01*
X12998403Y39880988D01*
X12989091Y39878784D01*
X12988991Y39878763D01*
X12980494Y39877038D01*
X12980188Y39876828D01*
X12979763Y39876734D01*
X12979431Y39876500D01*
X12979038Y39876406D01*
X12971347Y39870766D01*
X12964081Y39865784D01*
X12963878Y39865469D01*
X12963531Y39865222D01*
X12963319Y39864878D01*
X12962991Y39864638D01*
X12958150Y39856513D01*
X12953359Y39849022D01*
X12953294Y39848641D01*
X12953078Y39848291D01*
X12953019Y39847894D01*
X12952806Y39847541D01*
X12949997Y39831013D01*
X12949997Y9050000D01*
X11250000Y9050000D01*
X11249206Y9049838D01*
X11248406Y9049975D01*
X11239509Y9047869D01*
X11230497Y9046041D01*
X11229825Y9045578D01*
X11229041Y9045394D01*
X11221678Y9039994D01*
X11214084Y9034788D01*
X11213647Y9034103D01*
X11212994Y9033625D01*
X11208291Y9025728D01*
X11203363Y9018025D01*
X11203228Y9017228D01*
X11202809Y9016528D01*
X11200000Y9000000D01*
X11200000Y5500000D01*
X11200163Y5499206D01*
X11200025Y5498406D01*
X11202131Y5489509D01*
X11203959Y5480497D01*
X11204422Y5479825D01*
X11204606Y5479041D01*
X11210006Y5471678D01*
X11215213Y5464084D01*
X11215897Y5463647D01*
X11216375Y5462994D01*
X11224272Y5458291D01*
X11231975Y5453363D01*
X11232772Y5453228D01*
X11233472Y5452809D01*
X11250000Y5450000D01*
X12949997Y5450000D01*
X12949997Y3430997D01*
X12950159Y3430203D01*
X12950022Y3429403D01*
X12952128Y3420506D01*
X12953956Y3411494D01*
X12954419Y3410822D01*
X12954603Y3410038D01*
X12960003Y3402675D01*
X12965209Y3395081D01*
X12965894Y3394644D01*
X12966372Y3393991D01*
X12974269Y3389288D01*
X12981972Y3384359D01*
X12982769Y3384225D01*
X12983469Y3383806D01*
X12999997Y3380997D01*
X74000000Y3380997D01*
X74001728Y3381347D01*
G37*
%LPC*%
G36*
X16208969Y18488000D02*
X16208969Y18488000D01*
X15745134Y18680128D01*
X15390128Y19035134D01*
X15198000Y19498969D01*
X15198000Y20001028D01*
X15390128Y20464863D01*
X15745134Y20819869D01*
X15781556Y20834956D01*
X15781559Y20834956D01*
X15781563Y20834959D01*
X16143688Y20984956D01*
X16143691Y20984956D01*
X16143694Y20984959D01*
X16208969Y21011997D01*
X16711028Y21011997D01*
X17174863Y20819869D01*
X17529869Y20464863D01*
X17683803Y20093225D01*
X17684028Y20092891D01*
X17684113Y20092491D01*
X17689638Y20084572D01*
X17694925Y20076725D01*
X17695263Y20076506D01*
X17695497Y20076169D01*
X17703631Y20071056D01*
X17711600Y20065866D01*
X17712000Y20065794D01*
X17712344Y20065578D01*
X17721800Y20064047D01*
X17731191Y20062375D01*
X17731584Y20062466D01*
X17731988Y20062400D01*
X17741288Y20064678D01*
X17750594Y20066800D01*
X17750922Y20067038D01*
X17751319Y20067134D01*
X17759003Y20072866D01*
X17766731Y20078441D01*
X17766941Y20078788D01*
X17767269Y20079031D01*
X17776191Y20093225D01*
X17930128Y20464863D01*
X18285134Y20819869D01*
X18321556Y20834956D01*
X18321559Y20834956D01*
X18321563Y20834959D01*
X18683688Y20984956D01*
X18683691Y20984956D01*
X18683694Y20984959D01*
X18748969Y21011997D01*
X19180628Y21011997D01*
X19181816Y21012238D01*
X19183019Y21012053D01*
X19191541Y21014213D01*
X19200131Y21015956D01*
X19201131Y21016644D01*
X19202309Y21016941D01*
X19215984Y21026641D01*
X20325159Y22135816D01*
X20600816Y22249997D01*
X21020003Y22249997D01*
X21020206Y22250038D01*
X21020403Y22250000D01*
X21029897Y22252006D01*
X21039506Y22253956D01*
X21039672Y22254072D01*
X21039872Y22254113D01*
X21047844Y22259672D01*
X21055919Y22265209D01*
X21056028Y22265381D01*
X21056194Y22265497D01*
X21061347Y22273697D01*
X21066641Y22281972D01*
X21066675Y22282172D01*
X21066784Y22282347D01*
X21068338Y22291947D01*
X21069978Y22301591D01*
X21069931Y22301794D01*
X21069963Y22301991D01*
X21067653Y22311416D01*
X21065397Y22320956D01*
X21065278Y22321119D01*
X21065228Y22321319D01*
X21059428Y22329094D01*
X21053628Y22337003D01*
X21053450Y22337109D01*
X21053331Y22337269D01*
X21039138Y22346191D01*
X20811931Y22440300D01*
X20460300Y22791931D01*
X20270000Y23251356D01*
X20270000Y23748641D01*
X20460300Y24208066D01*
X20811931Y24559697D01*
X20993622Y24634956D01*
X20993625Y24634956D01*
X20993628Y24634959D01*
X21271356Y24749997D01*
X21768641Y24749997D01*
X22228066Y24559697D01*
X22579697Y24208066D01*
X22769997Y23748641D01*
X22769997Y23251359D01*
X22745481Y23192178D01*
X22745441Y23191978D01*
X22745331Y23191809D01*
X22743484Y23181919D01*
X22741678Y23172647D01*
X22741719Y23172450D01*
X22741681Y23172247D01*
X22743775Y23162719D01*
X22745791Y23153178D01*
X22745909Y23153006D01*
X22745953Y23152809D01*
X22751584Y23144869D01*
X22757175Y23136853D01*
X22757347Y23136744D01*
X22757466Y23136578D01*
X22765669Y23131516D01*
X22774022Y23126263D01*
X22774228Y23126228D01*
X22774397Y23126125D01*
X22784013Y23124647D01*
X22793666Y23123084D01*
X22793859Y23123131D01*
X22794066Y23123100D01*
X22803663Y23125531D01*
X22812994Y23127816D01*
X22813156Y23127938D01*
X22813356Y23127988D01*
X22827031Y23137688D01*
X28485356Y28796013D01*
X28485441Y28796138D01*
X28485544Y28796209D01*
X28486100Y28797078D01*
X28487006Y28797744D01*
X28491509Y28805303D01*
X28496344Y28812603D01*
X28496566Y28813791D01*
X28497191Y28814841D01*
X28500000Y28831369D01*
X28500000Y33399181D01*
X28614181Y33674838D01*
X28832191Y33892847D01*
X29103991Y34164644D01*
X29104216Y34164984D01*
X29104550Y34165213D01*
X29109713Y34173284D01*
X29114978Y34181234D01*
X29115053Y34181631D01*
X29115272Y34181975D01*
X29116878Y34191425D01*
X29118628Y34200797D01*
X29118541Y34201194D01*
X29118609Y34201594D01*
X29116406Y34210906D01*
X29114356Y34220234D01*
X29114122Y34220566D01*
X29114028Y34220959D01*
X29108369Y34228675D01*
X29102844Y34236466D01*
X29102500Y34236678D01*
X29102259Y34237006D01*
X29093972Y34241944D01*
X29085913Y34246919D01*
X29085516Y34246978D01*
X29085163Y34247191D01*
X29068634Y34250000D01*
X26331369Y34250000D01*
X26330181Y34249759D01*
X26328978Y34249944D01*
X26320456Y34247784D01*
X26311866Y34246041D01*
X26310866Y34245353D01*
X26309688Y34245056D01*
X26296013Y34235356D01*
X25014641Y32953984D01*
X25013969Y32952972D01*
X25012991Y32952253D01*
X25008488Y32944694D01*
X25003653Y32937394D01*
X25003431Y32936206D01*
X25002806Y32935156D01*
X24999997Y32918628D01*
X24999997Y30310816D01*
X24885816Y30035159D01*
X22816641Y27965984D01*
X22816556Y27965856D01*
X22816450Y27965784D01*
X22815894Y27964916D01*
X22814991Y27964253D01*
X22810488Y27956694D01*
X22805653Y27949394D01*
X22805431Y27948206D01*
X22804806Y27947156D01*
X22801997Y27930628D01*
X22801997Y27498969D01*
X22609869Y27035134D01*
X22254863Y26680128D01*
X21791028Y26488000D01*
X21288969Y26488000D01*
X20825134Y26680128D01*
X20470128Y27035134D01*
X20316191Y27406769D01*
X20315966Y27407103D01*
X20315881Y27407503D01*
X20310391Y27415375D01*
X20305069Y27423272D01*
X20304728Y27423494D01*
X20304497Y27423825D01*
X20296381Y27428928D01*
X20288391Y27434128D01*
X20287994Y27434200D01*
X20287650Y27434416D01*
X20278175Y27435947D01*
X20268800Y27437619D01*
X20268406Y27437528D01*
X20268003Y27437594D01*
X20258703Y27435316D01*
X20249400Y27433194D01*
X20249072Y27432956D01*
X20248675Y27432859D01*
X20241038Y27427163D01*
X20233259Y27421553D01*
X20233047Y27421203D01*
X20232725Y27420963D01*
X20223803Y27406769D01*
X20069869Y27035134D01*
X19714863Y26680128D01*
X19251028Y26488000D01*
X18748969Y26488000D01*
X18285134Y26680128D01*
X17930128Y27035134D01*
X17776191Y27406772D01*
X17775966Y27407106D01*
X17775881Y27407506D01*
X17770391Y27415378D01*
X17765069Y27423275D01*
X17764728Y27423497D01*
X17764497Y27423828D01*
X17756469Y27428872D01*
X17748394Y27434131D01*
X17747991Y27434203D01*
X17747647Y27434419D01*
X17738206Y27435947D01*
X17728800Y27437622D01*
X17728406Y27437531D01*
X17728003Y27437597D01*
X17718703Y27435319D01*
X17709400Y27433197D01*
X17709072Y27432959D01*
X17708675Y27432863D01*
X17700991Y27427131D01*
X17693263Y27421556D01*
X17693053Y27421209D01*
X17692725Y27420966D01*
X17683803Y27406772D01*
X17529869Y27035134D01*
X17174863Y26680128D01*
X16711028Y26488000D01*
X16208969Y26488000D01*
X15745134Y26680128D01*
X15390128Y27035134D01*
X15198000Y27498969D01*
X15198000Y28001028D01*
X15390128Y28464863D01*
X15745134Y28819869D01*
X15781556Y28834956D01*
X15781559Y28834956D01*
X15781563Y28834959D01*
X16143688Y28984956D01*
X16143691Y28984956D01*
X16143694Y28984959D01*
X16208969Y29011997D01*
X16640631Y29011997D01*
X16641819Y29012238D01*
X16643022Y29012053D01*
X16651544Y29014213D01*
X16660134Y29015956D01*
X16661134Y29016644D01*
X16662313Y29016941D01*
X16675988Y29026641D01*
X17817150Y30167803D01*
X17817156Y30167813D01*
X18035159Y30385816D01*
X18310816Y30499997D01*
X18468650Y30499997D01*
X18468853Y30500038D01*
X18469050Y30500000D01*
X18478544Y30502006D01*
X18488153Y30503956D01*
X18488319Y30504072D01*
X18488519Y30504113D01*
X18496491Y30509672D01*
X18504566Y30515209D01*
X18504675Y30515381D01*
X18504841Y30515497D01*
X18509994Y30523697D01*
X18515288Y30531972D01*
X18515322Y30532172D01*
X18515431Y30532347D01*
X18516984Y30541947D01*
X18518625Y30551591D01*
X18518578Y30551794D01*
X18518609Y30551991D01*
X18516300Y30561416D01*
X18514044Y30570956D01*
X18513925Y30571119D01*
X18513875Y30571319D01*
X18508075Y30579094D01*
X18502275Y30587003D01*
X18502097Y30587109D01*
X18501978Y30587269D01*
X18487784Y30596191D01*
X18285134Y30680128D01*
X17930128Y31035134D01*
X17776191Y31406772D01*
X17775966Y31407106D01*
X17775881Y31407506D01*
X17770391Y31415378D01*
X17765069Y31423275D01*
X17764728Y31423497D01*
X17764497Y31423828D01*
X17756469Y31428872D01*
X17748394Y31434131D01*
X17747991Y31434203D01*
X17747647Y31434419D01*
X17738206Y31435947D01*
X17728800Y31437622D01*
X17728406Y31437531D01*
X17728003Y31437597D01*
X17718703Y31435319D01*
X17709400Y31433197D01*
X17709072Y31432959D01*
X17708675Y31432863D01*
X17700991Y31427131D01*
X17693263Y31421556D01*
X17693053Y31421209D01*
X17692725Y31420966D01*
X17683803Y31406772D01*
X17529869Y31035134D01*
X17174863Y30680128D01*
X16711028Y30488000D01*
X16208969Y30488000D01*
X15745134Y30680128D01*
X15390128Y31035134D01*
X15198000Y31498969D01*
X15198000Y32001028D01*
X15390128Y32464863D01*
X15745134Y32819869D01*
X15781556Y32834956D01*
X15781559Y32834956D01*
X15781563Y32834959D01*
X16143688Y32984956D01*
X16143691Y32984956D01*
X16143694Y32984959D01*
X16208969Y33011997D01*
X16640631Y33011997D01*
X16641819Y33012238D01*
X16643022Y33012053D01*
X16651544Y33014213D01*
X16660134Y33015956D01*
X16661134Y33016644D01*
X16662313Y33016941D01*
X16675988Y33026641D01*
X17817150Y34167803D01*
X17817156Y34167813D01*
X18035159Y34385816D01*
X18310816Y34499997D01*
X18468650Y34499997D01*
X18468853Y34500038D01*
X18469050Y34500000D01*
X18478544Y34502006D01*
X18488153Y34503956D01*
X18488319Y34504072D01*
X18488519Y34504113D01*
X18496491Y34509672D01*
X18504566Y34515209D01*
X18504675Y34515381D01*
X18504841Y34515497D01*
X18509994Y34523697D01*
X18515288Y34531972D01*
X18515322Y34532172D01*
X18515431Y34532347D01*
X18516984Y34541947D01*
X18518625Y34551591D01*
X18518578Y34551794D01*
X18518609Y34551991D01*
X18516300Y34561416D01*
X18514044Y34570956D01*
X18513925Y34571119D01*
X18513875Y34571319D01*
X18508075Y34579094D01*
X18502275Y34587003D01*
X18502097Y34587109D01*
X18501978Y34587269D01*
X18487784Y34596191D01*
X18285134Y34680128D01*
X17930128Y35035134D01*
X17776191Y35406772D01*
X17775966Y35407106D01*
X17775881Y35407506D01*
X17770391Y35415378D01*
X17765069Y35423275D01*
X17764728Y35423497D01*
X17764497Y35423828D01*
X17756469Y35428872D01*
X17748394Y35434131D01*
X17747991Y35434203D01*
X17747647Y35434419D01*
X17738206Y35435947D01*
X17728800Y35437622D01*
X17728406Y35437531D01*
X17728003Y35437597D01*
X17718703Y35435319D01*
X17709400Y35433197D01*
X17709072Y35432959D01*
X17708675Y35432863D01*
X17700991Y35427131D01*
X17693263Y35421556D01*
X17693053Y35421209D01*
X17692725Y35420966D01*
X17683803Y35406772D01*
X17529869Y35035134D01*
X17174863Y34680128D01*
X16711028Y34488000D01*
X16208969Y34488000D01*
X15745134Y34680128D01*
X15390128Y35035134D01*
X15198000Y35498969D01*
X15198000Y36001028D01*
X15390128Y36464863D01*
X15745134Y36819869D01*
X15781556Y36834956D01*
X15781559Y36834956D01*
X15781563Y36834959D01*
X16143688Y36984956D01*
X16143691Y36984956D01*
X16143694Y36984959D01*
X16208969Y37011997D01*
X16640628Y37011997D01*
X16641816Y37012238D01*
X16643019Y37012053D01*
X16651541Y37014213D01*
X16660131Y37015956D01*
X16661131Y37016644D01*
X16662309Y37016941D01*
X16675984Y37026641D01*
X18035159Y38385816D01*
X18310816Y38499997D01*
X21668628Y38499997D01*
X21669816Y38500238D01*
X21671019Y38500053D01*
X21679541Y38502213D01*
X21688131Y38503956D01*
X21689131Y38504644D01*
X21690309Y38504941D01*
X21703984Y38514641D01*
X23807997Y40618650D01*
X23808781Y40619834D01*
X23809913Y40620678D01*
X23818834Y40634872D01*
X23841628Y40689903D01*
X24066372Y40914644D01*
X24066597Y40914984D01*
X24066931Y40915213D01*
X24072094Y40923284D01*
X24077359Y40931234D01*
X24077434Y40931631D01*
X24077653Y40931975D01*
X24079259Y40941425D01*
X24081009Y40950797D01*
X24080922Y40951194D01*
X24080991Y40951594D01*
X24078794Y40960881D01*
X24076738Y40970234D01*
X24076503Y40970566D01*
X24076409Y40970959D01*
X24070750Y40978675D01*
X24065225Y40986466D01*
X24064881Y40986678D01*
X24064641Y40987006D01*
X24056353Y40991944D01*
X24048294Y40996919D01*
X24047897Y40996978D01*
X24047544Y40997191D01*
X24031016Y41000000D01*
X22518981Y41000000D01*
X22518584Y40999919D01*
X22518184Y40999994D01*
X22508906Y40997953D01*
X22499478Y40996041D01*
X22499138Y40995809D01*
X22498747Y40995722D01*
X22491022Y40990241D01*
X22483066Y40984788D01*
X22482847Y40984444D01*
X22482516Y40984209D01*
X22477516Y40976109D01*
X22472344Y40968025D01*
X22472275Y40967622D01*
X22472063Y40967278D01*
X22470609Y40957831D01*
X22469006Y40948406D01*
X22469100Y40948013D01*
X22469038Y40947609D01*
X22471409Y40938247D01*
X22473588Y40929041D01*
X22473825Y40928719D01*
X22473925Y40928319D01*
X22483625Y40914644D01*
X22708369Y40689903D01*
X22826597Y40404478D01*
X22826597Y40095519D01*
X22708369Y39810094D01*
X22489903Y39591628D01*
X22454681Y39577038D01*
X22454678Y39577038D01*
X22454675Y39577034D01*
X22213259Y39477038D01*
X22213256Y39477038D01*
X22213253Y39477034D01*
X22204478Y39473400D01*
X21895519Y39473400D01*
X21610094Y39591628D01*
X21391628Y39810094D01*
X21273400Y40095519D01*
X21273400Y40404478D01*
X21391628Y40689903D01*
X21616372Y40914644D01*
X21616597Y40914984D01*
X21616931Y40915213D01*
X21622094Y40923284D01*
X21627359Y40931234D01*
X21627434Y40931631D01*
X21627653Y40931975D01*
X21629259Y40941425D01*
X21631009Y40950797D01*
X21630922Y40951194D01*
X21630991Y40951594D01*
X21628794Y40960881D01*
X21626738Y40970234D01*
X21626503Y40970566D01*
X21626409Y40970959D01*
X21620750Y40978675D01*
X21615225Y40986466D01*
X21614881Y40986678D01*
X21614641Y40987006D01*
X21606353Y40991944D01*
X21598294Y40996919D01*
X21597897Y40996978D01*
X21597544Y40997191D01*
X21581016Y41000000D01*
X21331366Y41000000D01*
X21330178Y40999759D01*
X21328975Y40999944D01*
X21320453Y40997784D01*
X21311863Y40996041D01*
X21310863Y40995353D01*
X21309684Y40995056D01*
X21296009Y40985356D01*
X20192000Y39881347D01*
X20191216Y39880163D01*
X20190084Y39879319D01*
X20181163Y39865125D01*
X20158369Y39810094D01*
X19939903Y39591628D01*
X19904681Y39577038D01*
X19904678Y39577038D01*
X19904675Y39577034D01*
X19663259Y39477038D01*
X19663256Y39477038D01*
X19663253Y39477034D01*
X19654478Y39473400D01*
X19345519Y39473400D01*
X19060094Y39591628D01*
X18841628Y39810094D01*
X18723400Y40095519D01*
X18723400Y40404478D01*
X18841628Y40689903D01*
X19060094Y40908369D01*
X19115125Y40931163D01*
X19116294Y40931950D01*
X19117672Y40932300D01*
X19131347Y40942000D01*
X20357150Y42167803D01*
X20357156Y42167813D01*
X20575159Y42385816D01*
X20850816Y42499997D01*
X57649181Y42499997D01*
X57924838Y42385816D01*
X58142847Y42167806D01*
X59368650Y40942000D01*
X59369834Y40941216D01*
X59370678Y40940084D01*
X59384872Y40931163D01*
X59439903Y40908369D01*
X59658369Y40689903D01*
X59776597Y40404478D01*
X59776597Y40095519D01*
X59662113Y39819131D01*
X59661997Y39818534D01*
X59661669Y39818022D01*
X59660091Y39808753D01*
X59658309Y39799597D01*
X59658434Y39799006D01*
X59658331Y39798403D01*
X59660481Y39789313D01*
X59662422Y39780128D01*
X59662775Y39779625D01*
X59662913Y39779038D01*
X59668428Y39771516D01*
X59673806Y39763806D01*
X59674319Y39763484D01*
X59674681Y39762991D01*
X59682741Y39758191D01*
X59690653Y39753216D01*
X59691253Y39753119D01*
X59691778Y39752806D01*
X59708306Y39749997D01*
X59918628Y39749997D01*
X59919816Y39750238D01*
X59921019Y39750053D01*
X59929541Y39752213D01*
X59938131Y39753956D01*
X59939131Y39754644D01*
X59940309Y39754941D01*
X59953984Y39764641D01*
X60807997Y40618653D01*
X60808781Y40619838D01*
X60809913Y40620681D01*
X60818834Y40634875D01*
X60841628Y40689903D01*
X61060094Y40908369D01*
X61345519Y41026597D01*
X61654478Y41026597D01*
X61939903Y40908369D01*
X62158369Y40689903D01*
X62276597Y40404478D01*
X62276597Y40095519D01*
X62158369Y39810094D01*
X61939903Y39591628D01*
X61884875Y39568834D01*
X61883706Y39568047D01*
X61882328Y39567697D01*
X61868653Y39557997D01*
X60674838Y38364181D01*
X60399181Y38250000D01*
X56783206Y38250000D01*
X56782019Y38249759D01*
X56780816Y38249944D01*
X56772294Y38247784D01*
X56763703Y38246041D01*
X56762703Y38245353D01*
X56761525Y38245056D01*
X56747850Y38235356D01*
X55650756Y37138263D01*
X55623659Y37127038D01*
X55623656Y37127038D01*
X55623653Y37127034D01*
X55502950Y37077038D01*
X55502947Y37077038D01*
X55502944Y37077034D01*
X55375100Y37024081D01*
X46355450Y37024081D01*
X46354263Y37023841D01*
X46353059Y37024025D01*
X46344538Y37021866D01*
X46335947Y37020122D01*
X46334947Y37019434D01*
X46333769Y37019138D01*
X46320094Y37009438D01*
X44674838Y35364181D01*
X44399181Y35250000D01*
X37331369Y35250000D01*
X37330181Y35249759D01*
X37328978Y35249944D01*
X37320456Y35247784D01*
X37311866Y35246041D01*
X37310866Y35245353D01*
X37309688Y35245056D01*
X37296013Y35235356D01*
X35424838Y33364181D01*
X35149181Y33250000D01*
X30331369Y33250000D01*
X30330181Y33249759D01*
X30328978Y33249944D01*
X30320456Y33247784D01*
X30311866Y33246041D01*
X30310866Y33245353D01*
X30309688Y33245056D01*
X30296013Y33235356D01*
X30014641Y32953984D01*
X30013969Y32952972D01*
X30012991Y32952253D01*
X30008488Y32944694D01*
X30003653Y32937394D01*
X30003431Y32936206D01*
X30002806Y32935156D01*
X29999997Y32918628D01*
X29999997Y28350816D01*
X29885816Y28075159D01*
X22674838Y20864181D01*
X22399181Y20750000D01*
X22023572Y20750000D01*
X22015506Y20748363D01*
X22007363Y20747300D01*
X22005822Y20746397D01*
X22004069Y20746041D01*
X21997269Y20741378D01*
X21990200Y20737231D01*
X21989138Y20735803D01*
X21987656Y20734788D01*
X21983219Y20727850D01*
X21978319Y20721266D01*
X21977897Y20719528D01*
X21976934Y20718025D01*
X21975556Y20709925D01*
X21973609Y20701931D01*
X21973897Y20700169D01*
X21973597Y20698406D01*
X21975488Y20690413D01*
X21976813Y20682291D01*
X21977769Y20680775D01*
X21978178Y20679041D01*
X21983031Y20672425D01*
X21987422Y20665456D01*
X21989003Y20664278D01*
X21989947Y20662994D01*
X21993894Y20660644D01*
X22000875Y20655450D01*
X22072491Y20618963D01*
X22201872Y20524963D01*
X22314963Y20411872D01*
X22408959Y20282497D01*
X22481556Y20140013D01*
X22530981Y19987906D01*
X22552825Y19849994D01*
X21590013Y19849994D01*
X21589219Y19849831D01*
X21588419Y19849969D01*
X21579522Y19847863D01*
X21570509Y19846034D01*
X21569838Y19845572D01*
X21569053Y19845388D01*
X21561691Y19839988D01*
X21554097Y19834781D01*
X21553659Y19834097D01*
X21553006Y19833619D01*
X21548303Y19825722D01*
X21543375Y19818019D01*
X21543241Y19817222D01*
X21542822Y19816522D01*
X21540013Y19799994D01*
X21540013Y19749984D01*
X21539984Y19749984D01*
X21539984Y19799994D01*
X21539822Y19800788D01*
X21539959Y19801588D01*
X21537853Y19810484D01*
X21536025Y19819497D01*
X21535563Y19820169D01*
X21535378Y19820953D01*
X21529978Y19828316D01*
X21524772Y19835909D01*
X21524088Y19836347D01*
X21523609Y19837000D01*
X21515713Y19841703D01*
X21508009Y19846631D01*
X21507213Y19846766D01*
X21506513Y19847184D01*
X21489984Y19849994D01*
X20527172Y19849994D01*
X20549016Y19987906D01*
X20598441Y20140013D01*
X20608634Y20160019D01*
X20609153Y20161888D01*
X20609847Y20162972D01*
X20609872Y20163113D01*
X20610428Y20163953D01*
X20611863Y20171641D01*
X20613959Y20179191D01*
X20613675Y20181363D01*
X20614078Y20183516D01*
X20612397Y20191166D01*
X20611384Y20198925D01*
X20610275Y20200816D01*
X20609806Y20202953D01*
X20605281Y20209331D01*
X20601319Y20216091D01*
X20599559Y20217400D01*
X20598294Y20219184D01*
X20591634Y20223297D01*
X20585353Y20227969D01*
X20583225Y20228488D01*
X20581363Y20229638D01*
X20573622Y20230828D01*
X20566019Y20232681D01*
X20563859Y20232328D01*
X20561694Y20232663D01*
X20554088Y20230734D01*
X20546378Y20229478D01*
X20544531Y20228316D01*
X20542403Y20227775D01*
X20532266Y20220584D01*
X20529544Y20218869D01*
X20529203Y20218413D01*
X20528728Y20218075D01*
X20276641Y19965984D01*
X20276559Y19965863D01*
X20276447Y19965784D01*
X20275888Y19964913D01*
X20274991Y19964253D01*
X20270488Y19956694D01*
X20265653Y19949394D01*
X20265431Y19948206D01*
X20264806Y19947156D01*
X20261997Y19930628D01*
X20261997Y19498969D01*
X20069869Y19035134D01*
X19714863Y18680128D01*
X19251028Y18488000D01*
X18748969Y18488000D01*
X18285134Y18680128D01*
X17930128Y19035134D01*
X17776191Y19406772D01*
X17775966Y19407106D01*
X17775881Y19407506D01*
X17770391Y19415378D01*
X17765069Y19423275D01*
X17764728Y19423497D01*
X17764497Y19423828D01*
X17756469Y19428872D01*
X17748394Y19434131D01*
X17747991Y19434203D01*
X17747647Y19434419D01*
X17738206Y19435947D01*
X17728800Y19437622D01*
X17728406Y19437531D01*
X17728003Y19437597D01*
X17718703Y19435319D01*
X17709400Y19433197D01*
X17709072Y19432959D01*
X17708675Y19432863D01*
X17700991Y19427131D01*
X17693263Y19421556D01*
X17693053Y19421209D01*
X17692725Y19420966D01*
X17683803Y19406772D01*
X17529869Y19035134D01*
X17174863Y18680128D01*
X16711028Y18488000D01*
X16208969Y18488000D01*
G37*
%LPD*%
%LPC*%
G36*
X54869522Y17685000D02*
X54869522Y17685000D01*
X54670363Y17884159D01*
X54670356Y17884169D01*
X53535769Y19018756D01*
X53534756Y19019428D01*
X53534038Y19020406D01*
X53526478Y19024909D01*
X53519178Y19029744D01*
X53517991Y19029966D01*
X53516941Y19030591D01*
X53500413Y19033400D01*
X53306728Y19033400D01*
X53033400Y19306728D01*
X53033400Y19693269D01*
X53304775Y19964644D01*
X53305225Y19965322D01*
X53305884Y19965791D01*
X53310697Y19973584D01*
X53315763Y19981234D01*
X53315913Y19982031D01*
X53316338Y19982722D01*
X53317734Y19991794D01*
X53319413Y20000797D01*
X53319238Y20001588D01*
X53319363Y20002391D01*
X53317097Y20011331D01*
X53315141Y20020234D01*
X53314675Y20020891D01*
X53314475Y20021681D01*
X53304775Y20035356D01*
X53033400Y20306728D01*
X53033400Y20693269D01*
X53306728Y20966597D01*
X53500409Y20966597D01*
X53501597Y20966838D01*
X53502800Y20966653D01*
X53511322Y20968813D01*
X53519913Y20970556D01*
X53520913Y20971244D01*
X53522091Y20971541D01*
X53535766Y20981241D01*
X53619522Y21064997D01*
X62130475Y21064997D01*
X63115831Y20079641D01*
X63116844Y20078969D01*
X63117563Y20077991D01*
X63125122Y20073488D01*
X63132422Y20068653D01*
X63133609Y20068431D01*
X63134659Y20067806D01*
X63151188Y20064997D01*
X63634419Y20064997D01*
X63635606Y20065238D01*
X63636809Y20065053D01*
X63645331Y20067213D01*
X63653922Y20068956D01*
X63654922Y20069644D01*
X63656100Y20069941D01*
X63669775Y20079641D01*
X63670356Y20080222D01*
X63671028Y20081234D01*
X63672006Y20081953D01*
X63676509Y20089513D01*
X63681344Y20096813D01*
X63681566Y20098000D01*
X63682191Y20099050D01*
X63685000Y20115578D01*
X63685000Y22630475D01*
X65268756Y24214231D01*
X65269428Y24215244D01*
X65270406Y24215963D01*
X65274909Y24223522D01*
X65279744Y24230822D01*
X65279966Y24232009D01*
X65280591Y24233059D01*
X65283400Y24249588D01*
X65283400Y24443269D01*
X65420356Y24580222D01*
X65421028Y24581234D01*
X65422006Y24581953D01*
X65426509Y24589513D01*
X65431344Y24596813D01*
X65431566Y24598000D01*
X65432191Y24599050D01*
X65435000Y24615578D01*
X65435000Y24848809D01*
X65434759Y24849994D01*
X65434944Y24851200D01*
X65432784Y24859722D01*
X65431041Y24868313D01*
X65430353Y24869313D01*
X65430056Y24870491D01*
X65420356Y24884166D01*
X64434166Y25870356D01*
X64433153Y25871028D01*
X64432434Y25872006D01*
X64424875Y25876509D01*
X64417575Y25881344D01*
X64416388Y25881566D01*
X64415338Y25882191D01*
X64398809Y25885000D01*
X62831041Y25885000D01*
X60685000Y28031041D01*
X60685000Y28848809D01*
X60684759Y28849997D01*
X60684944Y28851200D01*
X60682784Y28859722D01*
X60681041Y28868313D01*
X60680353Y28869313D01*
X60680056Y28870491D01*
X60670356Y28884166D01*
X60517550Y29036972D01*
X60516869Y29037422D01*
X60516400Y29038084D01*
X60508581Y29042909D01*
X60500959Y29047959D01*
X60500166Y29048106D01*
X60499469Y29048538D01*
X60490363Y29049938D01*
X60481397Y29051609D01*
X60480606Y29051434D01*
X60479800Y29051559D01*
X60470881Y29049300D01*
X60461959Y29047338D01*
X60461300Y29046869D01*
X60460509Y29046669D01*
X60446834Y29036969D01*
X60443266Y29033400D01*
X60056728Y29033400D01*
X59919775Y29170356D01*
X59918763Y29171028D01*
X59918044Y29172006D01*
X59910484Y29176509D01*
X59903184Y29181344D01*
X59901997Y29181566D01*
X59900947Y29182191D01*
X59884419Y29185000D01*
X47119522Y29185000D01*
X46920359Y29384163D01*
X46900356Y29404169D01*
X46900016Y29404394D01*
X46899784Y29404731D01*
X46891738Y29409878D01*
X46883766Y29415159D01*
X46883363Y29415234D01*
X46883022Y29415453D01*
X46873609Y29417053D01*
X46864203Y29418809D01*
X46863806Y29418722D01*
X46863403Y29418791D01*
X46854125Y29416597D01*
X46844769Y29414541D01*
X46844434Y29414303D01*
X46844038Y29414209D01*
X46836316Y29408547D01*
X46828534Y29403028D01*
X46828322Y29402684D01*
X46827991Y29402441D01*
X46823066Y29394172D01*
X46818078Y29386097D01*
X46818016Y29385697D01*
X46817806Y29385344D01*
X46814997Y29368816D01*
X46814997Y26401184D01*
X46815238Y26399997D01*
X46815053Y26398794D01*
X46817213Y26390272D01*
X46818956Y26381681D01*
X46819644Y26380681D01*
X46819941Y26379503D01*
X46829641Y26365828D01*
X49365828Y23829641D01*
X49366841Y23828969D01*
X49367559Y23827991D01*
X49375119Y23823488D01*
X49382419Y23818653D01*
X49383606Y23818431D01*
X49384656Y23817806D01*
X49401184Y23814997D01*
X50384416Y23814997D01*
X50385603Y23815238D01*
X50386806Y23815053D01*
X50395328Y23817213D01*
X50403919Y23818956D01*
X50404919Y23819644D01*
X50406097Y23819941D01*
X50419772Y23829641D01*
X50556728Y23966597D01*
X50943269Y23966597D01*
X51216597Y23693269D01*
X51216597Y23306728D01*
X50943269Y23033400D01*
X50556728Y23033400D01*
X50419772Y23170356D01*
X50418759Y23171028D01*
X50418041Y23172006D01*
X50410481Y23176509D01*
X50403181Y23181344D01*
X50401994Y23181566D01*
X50400944Y23182191D01*
X50384416Y23185000D01*
X50345575Y23185000D01*
X50345178Y23184919D01*
X50344778Y23184994D01*
X50335500Y23182953D01*
X50326072Y23181041D01*
X50325731Y23180809D01*
X50325341Y23180722D01*
X50317616Y23175241D01*
X50309659Y23169788D01*
X50309441Y23169444D01*
X50309109Y23169209D01*
X50304109Y23161109D01*
X50298938Y23153025D01*
X50298869Y23152622D01*
X50298656Y23152278D01*
X50297203Y23142831D01*
X50295600Y23133406D01*
X50295694Y23133013D01*
X50295631Y23132609D01*
X50298003Y23123247D01*
X50300181Y23114041D01*
X50300419Y23113719D01*
X50300519Y23113319D01*
X50310219Y23099644D01*
X50466597Y22943269D01*
X50466597Y22556728D01*
X50193269Y22283400D01*
X49997175Y22283400D01*
X49996775Y22283319D01*
X49996375Y22283394D01*
X49987059Y22281347D01*
X49977672Y22279441D01*
X49977334Y22279209D01*
X49976938Y22279122D01*
X49969228Y22273650D01*
X49961259Y22268188D01*
X49961034Y22267838D01*
X49960709Y22267606D01*
X49955722Y22259528D01*
X49950538Y22251425D01*
X49950469Y22251025D01*
X49950253Y22250675D01*
X49948791Y22241163D01*
X49947200Y22231806D01*
X49947294Y22231413D01*
X49947231Y22231006D01*
X49949594Y22221688D01*
X49951781Y22212441D01*
X49952022Y22212113D01*
X49952122Y22211716D01*
X49961822Y22198041D01*
X49966597Y22193266D01*
X49966597Y21806728D01*
X49693269Y21533400D01*
X49306728Y21533400D01*
X49033400Y21806728D01*
X49033400Y22000409D01*
X49033159Y22001597D01*
X49033344Y22002800D01*
X49031184Y22011322D01*
X49029441Y22019913D01*
X49028753Y22020913D01*
X49028456Y22022091D01*
X49018756Y22035766D01*
X48134166Y22920356D01*
X48133153Y22921028D01*
X48132434Y22922006D01*
X48124875Y22926509D01*
X48117575Y22931344D01*
X48116388Y22931566D01*
X48115338Y22932191D01*
X48098809Y22935000D01*
X29651188Y22935000D01*
X29650000Y22934759D01*
X29648797Y22934944D01*
X29640275Y22932784D01*
X29631684Y22931041D01*
X29630684Y22930353D01*
X29629506Y22930056D01*
X29615831Y22920356D01*
X28531241Y21835766D01*
X28530569Y21834753D01*
X28529591Y21834034D01*
X28525088Y21826475D01*
X28520253Y21819175D01*
X28520031Y21817988D01*
X28519406Y21816938D01*
X28516597Y21800409D01*
X28516597Y21556728D01*
X28243269Y21283400D01*
X27856728Y21283400D01*
X27583400Y21556728D01*
X27583400Y21943269D01*
X27856728Y22216597D01*
X28000409Y22216597D01*
X28001597Y22216838D01*
X28002800Y22216653D01*
X28011322Y22218813D01*
X28019913Y22220556D01*
X28020913Y22221244D01*
X28022091Y22221541D01*
X28035766Y22231241D01*
X29369522Y23564997D01*
X48380475Y23564997D01*
X49464231Y22481241D01*
X49465244Y22480569D01*
X49465963Y22479591D01*
X49473522Y22475088D01*
X49480822Y22470253D01*
X49482009Y22470031D01*
X49483059Y22469406D01*
X49499588Y22466597D01*
X49502822Y22466597D01*
X49503222Y22466678D01*
X49503622Y22466603D01*
X49512938Y22468650D01*
X49522325Y22470556D01*
X49522663Y22470788D01*
X49523059Y22470875D01*
X49530769Y22476347D01*
X49538738Y22481809D01*
X49538963Y22482159D01*
X49539288Y22482391D01*
X49544275Y22490469D01*
X49549459Y22498572D01*
X49549528Y22498972D01*
X49549744Y22499322D01*
X49551206Y22508834D01*
X49552797Y22518191D01*
X49552703Y22518584D01*
X49552766Y22518991D01*
X49550403Y22528309D01*
X49548216Y22537556D01*
X49547975Y22537884D01*
X49547875Y22538281D01*
X49538175Y22551956D01*
X49533400Y22556731D01*
X49533400Y22943269D01*
X49689778Y23099644D01*
X49690003Y23099984D01*
X49690338Y23100213D01*
X49695500Y23108284D01*
X49700766Y23116234D01*
X49700841Y23116631D01*
X49701059Y23116975D01*
X49702666Y23126425D01*
X49704416Y23135797D01*
X49704328Y23136194D01*
X49704397Y23136594D01*
X49702213Y23145831D01*
X49700147Y23155231D01*
X49699909Y23155569D01*
X49699816Y23155959D01*
X49694169Y23163656D01*
X49688631Y23171466D01*
X49688288Y23171678D01*
X49688047Y23172006D01*
X49679759Y23176944D01*
X49671700Y23181919D01*
X49671303Y23181978D01*
X49670950Y23182191D01*
X49654422Y23185000D01*
X49119522Y23185000D01*
X48920363Y23384159D01*
X48920356Y23384169D01*
X46384169Y25920356D01*
X46384159Y25920363D01*
X46185000Y26119522D01*
X46185000Y29098809D01*
X46184759Y29099997D01*
X46184944Y29101200D01*
X46182784Y29109722D01*
X46181041Y29118313D01*
X46180353Y29119313D01*
X46180056Y29120491D01*
X46170356Y29134166D01*
X44935000Y30369522D01*
X44935000Y30384416D01*
X44934759Y30385603D01*
X44934944Y30386806D01*
X44932784Y30395328D01*
X44931041Y30403919D01*
X44930353Y30404919D01*
X44930056Y30406097D01*
X44920356Y30419772D01*
X44783400Y30556728D01*
X44783400Y30943269D01*
X45056728Y31216597D01*
X45443269Y31216597D01*
X45589644Y31070222D01*
X45590331Y31069769D01*
X45590797Y31069109D01*
X45598569Y31064313D01*
X45606234Y31059234D01*
X45607034Y31059084D01*
X45607728Y31058656D01*
X45616816Y31057259D01*
X45625797Y31055584D01*
X45626591Y31055759D01*
X45627397Y31055634D01*
X45636334Y31057900D01*
X45645234Y31059856D01*
X45645894Y31060325D01*
X45646688Y31060525D01*
X45660359Y31070228D01*
X45670359Y31080231D01*
X45671025Y31081238D01*
X45672006Y31081956D01*
X45676519Y31089531D01*
X45681347Y31096822D01*
X45681569Y31098006D01*
X45682191Y31099053D01*
X45685000Y31115581D01*
X45685000Y34630475D01*
X47768603Y36714078D01*
X59497891Y36714078D01*
X59499078Y36714319D01*
X59500281Y36714134D01*
X59508803Y36716294D01*
X59517394Y36718038D01*
X59518394Y36718725D01*
X59519572Y36719022D01*
X59533247Y36728722D01*
X61369522Y38564997D01*
X69098809Y38564997D01*
X69099997Y38565238D01*
X69101200Y38565053D01*
X69109722Y38567213D01*
X69118313Y38568956D01*
X69119313Y38569644D01*
X69120491Y38569941D01*
X69134166Y38579641D01*
X70183859Y39629331D01*
X70184419Y39630175D01*
X70185241Y39630769D01*
X70189903Y39638456D01*
X70194847Y39645922D01*
X70195031Y39646916D01*
X70195559Y39647784D01*
X70196853Y39656675D01*
X70198497Y39665484D01*
X70198278Y39666475D01*
X70198425Y39667475D01*
X70194697Y39683822D01*
X70135000Y39827941D01*
X70135000Y40172059D01*
X70266688Y40489978D01*
X70510019Y40733309D01*
X70827938Y40864997D01*
X71172059Y40864997D01*
X71489978Y40733309D01*
X71733309Y40489978D01*
X71864997Y40172059D01*
X71864997Y39827938D01*
X71733309Y39510019D01*
X71489978Y39266688D01*
X71273547Y39177038D01*
X71273544Y39177038D01*
X71273541Y39177034D01*
X71172059Y39135000D01*
X70827941Y39135000D01*
X70683822Y39194697D01*
X70682825Y39194891D01*
X70681966Y39195422D01*
X70673081Y39196788D01*
X70664291Y39198500D01*
X70663306Y39198291D01*
X70662297Y39198447D01*
X70653569Y39196234D01*
X70644819Y39194388D01*
X70643988Y39193809D01*
X70643006Y39193559D01*
X70629331Y39183859D01*
X69579641Y38134166D01*
X69380475Y37935000D01*
X61651188Y37935000D01*
X61650000Y37934759D01*
X61648797Y37934944D01*
X61640275Y37932784D01*
X61631684Y37931041D01*
X61630684Y37930353D01*
X61629506Y37930056D01*
X61615831Y37920356D01*
X59779556Y36084081D01*
X48050269Y36084081D01*
X48049081Y36083841D01*
X48047878Y36084025D01*
X48039356Y36081866D01*
X48030766Y36080122D01*
X48029766Y36079434D01*
X48028588Y36079138D01*
X48014913Y36069438D01*
X46329641Y34384166D01*
X46328969Y34383153D01*
X46327991Y34382434D01*
X46323488Y34374875D01*
X46318653Y34367575D01*
X46318431Y34366388D01*
X46317806Y34365338D01*
X46314997Y34348809D01*
X46314997Y31115581D01*
X46315238Y31114394D01*
X46315053Y31113191D01*
X46317213Y31104669D01*
X46318956Y31096078D01*
X46319644Y31095078D01*
X46319941Y31093900D01*
X46329641Y31080225D01*
X46466597Y30943269D01*
X46466597Y30749588D01*
X46466838Y30748400D01*
X46466653Y30747197D01*
X46468813Y30738675D01*
X46470556Y30730084D01*
X46471244Y30729084D01*
X46471541Y30727906D01*
X46481241Y30714231D01*
X47365831Y29829641D01*
X47366844Y29828969D01*
X47367563Y29827991D01*
X47375122Y29823488D01*
X47382422Y29818653D01*
X47383609Y29818431D01*
X47384659Y29817806D01*
X47401188Y29814997D01*
X59884419Y29814997D01*
X59885606Y29815238D01*
X59886809Y29815053D01*
X59895331Y29817213D01*
X59903922Y29818956D01*
X59904922Y29819644D01*
X59906100Y29819941D01*
X59919775Y29829641D01*
X60056728Y29966597D01*
X60443269Y29966597D01*
X60580222Y29829641D01*
X60581234Y29828969D01*
X60581953Y29827991D01*
X60589513Y29823488D01*
X60596813Y29818653D01*
X60598000Y29818431D01*
X60599050Y29817806D01*
X60615578Y29814997D01*
X60630475Y29814997D01*
X61314997Y29130475D01*
X61314997Y28312706D01*
X61315238Y28311519D01*
X61315053Y28310316D01*
X61317213Y28301794D01*
X61318956Y28293203D01*
X61319644Y28292203D01*
X61319941Y28291025D01*
X61329641Y28277350D01*
X63077350Y26529641D01*
X63078363Y26528969D01*
X63079081Y26527991D01*
X63086641Y26523488D01*
X63093941Y26518653D01*
X63095128Y26518431D01*
X63096178Y26517806D01*
X63112706Y26514997D01*
X63952591Y26514997D01*
X63952988Y26515078D01*
X63953388Y26515003D01*
X63962666Y26517044D01*
X63972094Y26518956D01*
X63972434Y26519188D01*
X63972825Y26519275D01*
X63980550Y26524756D01*
X63988506Y26530209D01*
X63988725Y26530553D01*
X63989056Y26530788D01*
X63994056Y26538888D01*
X63999228Y26546972D01*
X63999297Y26547375D01*
X63999509Y26547719D01*
X64000963Y26557166D01*
X64002566Y26566591D01*
X64002472Y26566984D01*
X64002534Y26567388D01*
X64000163Y26576750D01*
X63997984Y26585956D01*
X63997747Y26586278D01*
X63997647Y26586678D01*
X63987947Y26600353D01*
X63753881Y26834416D01*
X63575000Y27266275D01*
X63575000Y27733722D01*
X63753881Y28165581D01*
X64084416Y28496116D01*
X64516275Y28674997D01*
X64983722Y28674997D01*
X65415581Y28496116D01*
X65746116Y28165581D01*
X65924997Y27733722D01*
X65924997Y27266275D01*
X65746116Y26834416D01*
X65415581Y26503881D01*
X64988641Y26327038D01*
X64988638Y26327038D01*
X64988634Y26327034D01*
X64976550Y26322028D01*
X64971678Y26321041D01*
X64971338Y26320809D01*
X64970947Y26320722D01*
X64963222Y26315241D01*
X64955266Y26309788D01*
X64955047Y26309444D01*
X64954716Y26309209D01*
X64949716Y26301109D01*
X64944544Y26293025D01*
X64944475Y26292622D01*
X64944263Y26292278D01*
X64942809Y26282831D01*
X64941206Y26273406D01*
X64941300Y26273013D01*
X64941238Y26272609D01*
X64943609Y26263247D01*
X64945788Y26254041D01*
X64946025Y26253719D01*
X64946125Y26253319D01*
X64955825Y26239644D01*
X65865831Y25329641D01*
X66064997Y25130475D01*
X66064997Y24615578D01*
X66065238Y24614391D01*
X66065053Y24613188D01*
X66067213Y24604666D01*
X66068956Y24596075D01*
X66069644Y24595075D01*
X66069941Y24593897D01*
X66079641Y24580222D01*
X66216597Y24443269D01*
X66216597Y24056728D01*
X65943269Y23783400D01*
X65749588Y23783400D01*
X65748400Y23783159D01*
X65747197Y23783344D01*
X65738675Y23781184D01*
X65730084Y23779441D01*
X65729084Y23778753D01*
X65727906Y23778456D01*
X65714231Y23768756D01*
X64329641Y22384166D01*
X64328969Y22383153D01*
X64327991Y22382434D01*
X64323488Y22374875D01*
X64318653Y22367575D01*
X64318431Y22366388D01*
X64317806Y22365338D01*
X64314997Y22348809D01*
X64314997Y20115578D01*
X64315238Y20114391D01*
X64315053Y20113188D01*
X64317213Y20104666D01*
X64318956Y20096075D01*
X64319644Y20095075D01*
X64319941Y20093897D01*
X64329641Y20080222D01*
X64466597Y19943269D01*
X64466597Y19556728D01*
X64193269Y19283400D01*
X63806728Y19283400D01*
X63669775Y19420356D01*
X63668763Y19421028D01*
X63668044Y19422006D01*
X63660484Y19426509D01*
X63653184Y19431344D01*
X63651997Y19431566D01*
X63650947Y19432191D01*
X63634419Y19435000D01*
X62869522Y19435000D01*
X61884166Y20420356D01*
X61883153Y20421028D01*
X61882434Y20422006D01*
X61874875Y20426509D01*
X61867575Y20431344D01*
X61866388Y20431566D01*
X61865338Y20432191D01*
X61848809Y20435000D01*
X54016597Y20435000D01*
X54015803Y20434838D01*
X54015003Y20434975D01*
X54006106Y20432869D01*
X53997094Y20431041D01*
X53996422Y20430578D01*
X53995638Y20430394D01*
X53988275Y20424994D01*
X53980681Y20419788D01*
X53980244Y20419103D01*
X53979591Y20418625D01*
X53974888Y20410728D01*
X53969959Y20403025D01*
X53969825Y20402228D01*
X53969406Y20401528D01*
X53966597Y20385000D01*
X53966597Y20306728D01*
X53695222Y20035356D01*
X53694772Y20034678D01*
X53694113Y20034209D01*
X53689300Y20026416D01*
X53684234Y20018766D01*
X53684084Y20017969D01*
X53683659Y20017278D01*
X53682263Y20008206D01*
X53680584Y19999203D01*
X53680759Y19998413D01*
X53680634Y19997609D01*
X53682900Y19988669D01*
X53684856Y19979766D01*
X53685322Y19979109D01*
X53685522Y19978319D01*
X53695222Y19964644D01*
X53966597Y19693269D01*
X53966597Y19499584D01*
X53966838Y19498397D01*
X53966653Y19497194D01*
X53968813Y19488672D01*
X53970556Y19480081D01*
X53971244Y19479081D01*
X53971541Y19477903D01*
X53981241Y19464228D01*
X55115828Y18329641D01*
X55116841Y18328969D01*
X55117559Y18327991D01*
X55125119Y18323488D01*
X55132419Y18318653D01*
X55133606Y18318431D01*
X55134656Y18317806D01*
X55151184Y18314997D01*
X59598809Y18314997D01*
X59599997Y18315238D01*
X59601200Y18315053D01*
X59609722Y18317213D01*
X59618313Y18318956D01*
X59619313Y18319644D01*
X59620491Y18319941D01*
X59634166Y18329641D01*
X59992522Y18687997D01*
X62590416Y18687997D01*
X62591603Y18688238D01*
X62592806Y18688053D01*
X62601328Y18690213D01*
X62609919Y18691956D01*
X62610919Y18692644D01*
X62612097Y18692941D01*
X62625772Y18702641D01*
X62762728Y18839597D01*
X63149269Y18839597D01*
X63286225Y18702641D01*
X63287238Y18701969D01*
X63287956Y18700991D01*
X63295516Y18696488D01*
X63302816Y18691653D01*
X63304003Y18691431D01*
X63305053Y18690806D01*
X63321581Y18687997D01*
X63937809Y18687997D01*
X63938997Y18688238D01*
X63940200Y18688053D01*
X63948722Y18690213D01*
X63957313Y18691956D01*
X63958313Y18692644D01*
X63959491Y18692941D01*
X63973166Y18702641D01*
X64670356Y19399831D01*
X64671028Y19400844D01*
X64672006Y19401563D01*
X64676509Y19409122D01*
X64681344Y19416422D01*
X64681566Y19417609D01*
X64682191Y19418659D01*
X64685000Y19435188D01*
X64685000Y22130475D01*
X64884159Y22329634D01*
X64884169Y22329641D01*
X65268756Y22714228D01*
X65269428Y22715241D01*
X65270406Y22715959D01*
X65274909Y22723519D01*
X65279744Y22730819D01*
X65279966Y22732006D01*
X65280591Y22733056D01*
X65283400Y22749584D01*
X65283400Y22943269D01*
X65556728Y23216597D01*
X65943269Y23216597D01*
X66080225Y23079641D01*
X66081238Y23078969D01*
X66081956Y23077991D01*
X66089516Y23073488D01*
X66096816Y23068653D01*
X66098003Y23068431D01*
X66099053Y23067806D01*
X66115581Y23064997D01*
X67348809Y23064997D01*
X67349997Y23065238D01*
X67351200Y23065053D01*
X67359722Y23067213D01*
X67368313Y23068956D01*
X67369313Y23069644D01*
X67370491Y23069941D01*
X67384166Y23079641D01*
X67670356Y23365831D01*
X67671028Y23366844D01*
X67672006Y23367563D01*
X67676509Y23375122D01*
X67681344Y23382422D01*
X67681566Y23383609D01*
X67682191Y23384659D01*
X67685000Y23401188D01*
X67685000Y27848809D01*
X67684759Y27849997D01*
X67684944Y27851200D01*
X67682784Y27859722D01*
X67681041Y27868313D01*
X67680353Y27869313D01*
X67680056Y27870491D01*
X67670356Y27884166D01*
X66384166Y29170356D01*
X66383153Y29171028D01*
X66382434Y29172006D01*
X66374875Y29176509D01*
X66367575Y29181344D01*
X66366388Y29181566D01*
X66365338Y29182191D01*
X66348809Y29185000D01*
X62365581Y29185000D01*
X62364394Y29184759D01*
X62363191Y29184944D01*
X62354669Y29182784D01*
X62346078Y29181041D01*
X62345078Y29180353D01*
X62343900Y29180056D01*
X62330225Y29170356D01*
X62193269Y29033400D01*
X61806728Y29033400D01*
X61533400Y29306728D01*
X61533400Y29500413D01*
X61533159Y29501600D01*
X61533344Y29502803D01*
X61531184Y29511325D01*
X61529441Y29519916D01*
X61528753Y29520916D01*
X61528456Y29522094D01*
X61518756Y29535769D01*
X59884166Y31170356D01*
X59883153Y31171028D01*
X59882434Y31172006D01*
X59874875Y31176509D01*
X59867575Y31181344D01*
X59866388Y31181566D01*
X59865338Y31182191D01*
X59848809Y31185000D01*
X47615578Y31185000D01*
X47614391Y31184759D01*
X47613188Y31184944D01*
X47604666Y31182784D01*
X47596075Y31181041D01*
X47595075Y31180353D01*
X47593897Y31180056D01*
X47580222Y31170356D01*
X47443269Y31033400D01*
X47056728Y31033400D01*
X46783400Y31306728D01*
X46783400Y31693269D01*
X46920356Y31830222D01*
X46921028Y31831234D01*
X46922006Y31831953D01*
X46926509Y31839513D01*
X46931344Y31846813D01*
X46931566Y31848000D01*
X46932191Y31849050D01*
X46935000Y31865578D01*
X46935000Y34380475D01*
X48369522Y35814997D01*
X60348809Y35814997D01*
X60349997Y35815238D01*
X60351200Y35815053D01*
X60359722Y35817213D01*
X60368313Y35818956D01*
X60369313Y35819644D01*
X60370491Y35819941D01*
X60384166Y35829641D01*
X62119522Y37564997D01*
X70085000Y37564997D01*
X70085794Y37565159D01*
X70086594Y37565022D01*
X70095491Y37567128D01*
X70104503Y37568956D01*
X70105175Y37569419D01*
X70105959Y37569603D01*
X70113322Y37575003D01*
X70120916Y37580209D01*
X70121353Y37580894D01*
X70122006Y37581372D01*
X70126709Y37589269D01*
X70131638Y37596972D01*
X70131772Y37597769D01*
X70132191Y37598469D01*
X70135000Y37614997D01*
X70135000Y37922059D01*
X70266688Y38239978D01*
X70510019Y38483309D01*
X70827938Y38614997D01*
X71172059Y38614997D01*
X71489978Y38483309D01*
X71733309Y38239978D01*
X71864997Y37922059D01*
X71864997Y37577938D01*
X71733309Y37260019D01*
X71489978Y37016688D01*
X71273547Y36927038D01*
X71273544Y36927038D01*
X71273541Y36927034D01*
X71172059Y36885000D01*
X70827941Y36885000D01*
X70683822Y36944697D01*
X70682825Y36944891D01*
X70681959Y36945425D01*
X70673063Y36946791D01*
X70664291Y36948500D01*
X70663303Y36948291D01*
X70662291Y36948447D01*
X70653575Y36946238D01*
X70644819Y36944388D01*
X70643984Y36943806D01*
X70643003Y36943556D01*
X70630944Y36935000D01*
X62401188Y36935000D01*
X62400000Y36934759D01*
X62398797Y36934944D01*
X62390275Y36932784D01*
X62381684Y36931041D01*
X62380684Y36930353D01*
X62379506Y36930056D01*
X62365831Y36920356D01*
X60630475Y35185000D01*
X48651188Y35185000D01*
X48650000Y35184759D01*
X48648797Y35184944D01*
X48640275Y35182784D01*
X48631684Y35181041D01*
X48630684Y35180353D01*
X48629506Y35180056D01*
X48615831Y35170356D01*
X47579641Y34134166D01*
X47578969Y34133153D01*
X47577991Y34132434D01*
X47573488Y34124875D01*
X47568653Y34117575D01*
X47568431Y34116388D01*
X47567806Y34115338D01*
X47564997Y34098809D01*
X47564997Y33845575D01*
X47565078Y33845178D01*
X47565003Y33844778D01*
X47567044Y33835500D01*
X47568956Y33826072D01*
X47569188Y33825731D01*
X47569275Y33825341D01*
X47574756Y33817616D01*
X47580209Y33809659D01*
X47580553Y33809441D01*
X47580788Y33809109D01*
X47588888Y33804109D01*
X47596972Y33798938D01*
X47597375Y33798869D01*
X47597719Y33798656D01*
X47607166Y33797203D01*
X47616591Y33795600D01*
X47616984Y33795694D01*
X47617388Y33795631D01*
X47626750Y33798003D01*
X47635956Y33800181D01*
X47636278Y33800419D01*
X47636678Y33800519D01*
X47650353Y33810219D01*
X47806728Y33966597D01*
X48193269Y33966597D01*
X48466597Y33693269D01*
X48466597Y33306728D01*
X48193269Y33033400D01*
X47806728Y33033400D01*
X47650353Y33189778D01*
X47650013Y33190003D01*
X47649784Y33190338D01*
X47641713Y33195500D01*
X47633763Y33200766D01*
X47633366Y33200841D01*
X47633022Y33201059D01*
X47623572Y33202666D01*
X47614200Y33204416D01*
X47613803Y33204328D01*
X47613403Y33204397D01*
X47604166Y33202213D01*
X47594766Y33200147D01*
X47594428Y33199909D01*
X47594038Y33199816D01*
X47586341Y33194169D01*
X47578531Y33188631D01*
X47578319Y33188288D01*
X47577991Y33188047D01*
X47573053Y33179759D01*
X47568078Y33171700D01*
X47568019Y33171303D01*
X47567806Y33170950D01*
X47564997Y33154422D01*
X47564997Y31865578D01*
X47565238Y31864391D01*
X47565053Y31863188D01*
X47567213Y31854666D01*
X47568956Y31846075D01*
X47569644Y31845075D01*
X47569941Y31843897D01*
X47579641Y31830222D01*
X47580222Y31829641D01*
X47581234Y31828969D01*
X47581953Y31827991D01*
X47589513Y31823488D01*
X47596813Y31818653D01*
X47598000Y31818431D01*
X47599050Y31817806D01*
X47615578Y31814997D01*
X58654422Y31814997D01*
X58654819Y31815078D01*
X58655219Y31815003D01*
X58664497Y31817044D01*
X58673925Y31818956D01*
X58674266Y31819188D01*
X58674656Y31819275D01*
X58682381Y31824756D01*
X58690338Y31830209D01*
X58690556Y31830553D01*
X58690888Y31830788D01*
X58695888Y31838888D01*
X58701059Y31846972D01*
X58701128Y31847375D01*
X58701341Y31847719D01*
X58702794Y31857166D01*
X58704397Y31866591D01*
X58704303Y31866984D01*
X58704366Y31867388D01*
X58701994Y31876750D01*
X58699816Y31885956D01*
X58699578Y31886278D01*
X58699478Y31886678D01*
X58689778Y31900353D01*
X58533400Y32056728D01*
X58533400Y32443269D01*
X58806728Y32716597D01*
X59193269Y32716597D01*
X59466597Y32443269D01*
X59466597Y32056728D01*
X59310219Y31900353D01*
X59309994Y31900013D01*
X59309659Y31899784D01*
X59304497Y31891713D01*
X59299231Y31883763D01*
X59299156Y31883366D01*
X59298938Y31883022D01*
X59297331Y31873572D01*
X59295581Y31864200D01*
X59295669Y31863803D01*
X59295600Y31863403D01*
X59297784Y31854166D01*
X59299850Y31844766D01*
X59300088Y31844428D01*
X59300181Y31844038D01*
X59305828Y31836341D01*
X59311366Y31828531D01*
X59311709Y31828319D01*
X59311950Y31827991D01*
X59320238Y31823053D01*
X59328297Y31818078D01*
X59328694Y31818019D01*
X59329047Y31817806D01*
X59345575Y31814997D01*
X60130475Y31814997D01*
X61964228Y29981241D01*
X61965241Y29980569D01*
X61965959Y29979591D01*
X61973519Y29975088D01*
X61980819Y29970253D01*
X61982006Y29970031D01*
X61983056Y29969406D01*
X61999584Y29966597D01*
X62193269Y29966597D01*
X62330225Y29829641D01*
X62331238Y29828969D01*
X62331956Y29827991D01*
X62339516Y29823488D01*
X62346816Y29818653D01*
X62348003Y29818431D01*
X62349053Y29817806D01*
X62365581Y29814997D01*
X66630475Y29814997D01*
X68314997Y28130475D01*
X68314997Y23119522D01*
X67630475Y22435000D01*
X66115581Y22435000D01*
X66114394Y22434759D01*
X66113191Y22434944D01*
X66104669Y22432784D01*
X66096078Y22431041D01*
X66095078Y22430353D01*
X66093900Y22430056D01*
X66080225Y22420356D01*
X65943269Y22283400D01*
X65749584Y22283400D01*
X65748397Y22283159D01*
X65747194Y22283344D01*
X65738672Y22281184D01*
X65730081Y22279441D01*
X65729081Y22278753D01*
X65727903Y22278456D01*
X65714228Y22268756D01*
X65329641Y21884169D01*
X65328969Y21883156D01*
X65327991Y21882438D01*
X65323488Y21874878D01*
X65318653Y21867578D01*
X65318431Y21866391D01*
X65317806Y21865341D01*
X65314997Y21848813D01*
X65314997Y21595575D01*
X65315078Y21595178D01*
X65315003Y21594778D01*
X65317044Y21585500D01*
X65318956Y21576072D01*
X65319188Y21575731D01*
X65319275Y21575341D01*
X65324756Y21567616D01*
X65330209Y21559659D01*
X65330553Y21559441D01*
X65330788Y21559109D01*
X65338888Y21554109D01*
X65346972Y21548938D01*
X65347375Y21548869D01*
X65347719Y21548656D01*
X65357166Y21547203D01*
X65366591Y21545600D01*
X65366984Y21545694D01*
X65367388Y21545631D01*
X65376750Y21548003D01*
X65385956Y21550181D01*
X65386278Y21550419D01*
X65386678Y21550519D01*
X65400353Y21560219D01*
X65556728Y21716597D01*
X65943269Y21716597D01*
X66216597Y21443269D01*
X66216597Y21056728D01*
X65943269Y20783400D01*
X65556728Y20783400D01*
X65400353Y20939778D01*
X65400013Y20940003D01*
X65399784Y20940338D01*
X65391713Y20945500D01*
X65383763Y20950766D01*
X65383366Y20950841D01*
X65383022Y20951059D01*
X65373572Y20952666D01*
X65364200Y20954416D01*
X65363803Y20954328D01*
X65363403Y20954397D01*
X65354166Y20952213D01*
X65344766Y20950147D01*
X65344428Y20949909D01*
X65344038Y20949816D01*
X65336341Y20944169D01*
X65328531Y20938631D01*
X65328319Y20938288D01*
X65327991Y20938047D01*
X65323053Y20929759D01*
X65318078Y20921700D01*
X65318019Y20921303D01*
X65317806Y20920950D01*
X65314997Y20904422D01*
X65314997Y19153522D01*
X64219475Y18058000D01*
X63321581Y18058000D01*
X63320394Y18057759D01*
X63319191Y18057944D01*
X63310669Y18055784D01*
X63302078Y18054041D01*
X63301078Y18053353D01*
X63299900Y18053056D01*
X63286225Y18043356D01*
X63149269Y17906400D01*
X62762728Y17906400D01*
X62625772Y18043356D01*
X62624759Y18044028D01*
X62624041Y18045006D01*
X62616481Y18049509D01*
X62609181Y18054344D01*
X62607994Y18054566D01*
X62606944Y18055191D01*
X62590416Y18058000D01*
X60274188Y18058000D01*
X60273000Y18057759D01*
X60271797Y18057944D01*
X60263275Y18055784D01*
X60254684Y18054041D01*
X60253684Y18053353D01*
X60252506Y18053056D01*
X60238831Y18043356D01*
X59880475Y17685000D01*
X54869522Y17685000D01*
G37*
%LPD*%
%LPC*%
G36*
X49806728Y10783400D02*
X49806728Y10783400D01*
X49533400Y11056728D01*
X49533400Y11250409D01*
X49533159Y11251597D01*
X49533344Y11252800D01*
X49531184Y11261322D01*
X49529441Y11269913D01*
X49528753Y11270913D01*
X49528456Y11272091D01*
X49518756Y11285766D01*
X49435000Y11369522D01*
X49435000Y17884416D01*
X49434759Y17885603D01*
X49434944Y17886806D01*
X49432784Y17895328D01*
X49431041Y17903919D01*
X49430353Y17904919D01*
X49430056Y17906097D01*
X49420356Y17919772D01*
X49283400Y18056728D01*
X49283400Y18443269D01*
X49439778Y18599644D01*
X49440003Y18599984D01*
X49440338Y18600213D01*
X49445500Y18608284D01*
X49450766Y18616234D01*
X49450841Y18616631D01*
X49451059Y18616975D01*
X49452666Y18626425D01*
X49454416Y18635797D01*
X49454328Y18636194D01*
X49454397Y18636594D01*
X49452213Y18645831D01*
X49450147Y18655231D01*
X49449909Y18655569D01*
X49449816Y18655959D01*
X49444169Y18663656D01*
X49438631Y18671466D01*
X49438288Y18671678D01*
X49438047Y18672006D01*
X49429759Y18676944D01*
X49421700Y18681919D01*
X49421303Y18681978D01*
X49420950Y18682191D01*
X49404422Y18685000D01*
X48865581Y18685000D01*
X48864394Y18684759D01*
X48863191Y18684944D01*
X48854669Y18682784D01*
X48846078Y18681041D01*
X48845078Y18680353D01*
X48843900Y18680056D01*
X48830225Y18670356D01*
X48693269Y18533400D01*
X48306728Y18533400D01*
X48033400Y18806728D01*
X48033400Y19193269D01*
X48179775Y19339644D01*
X48180225Y19340322D01*
X48180884Y19340791D01*
X48185697Y19348584D01*
X48190763Y19356234D01*
X48190913Y19357031D01*
X48191338Y19357722D01*
X48192734Y19366794D01*
X48194413Y19375797D01*
X48194238Y19376588D01*
X48194363Y19377391D01*
X48192097Y19386331D01*
X48190141Y19395234D01*
X48189675Y19395891D01*
X48189475Y19396681D01*
X48179775Y19410356D01*
X48033400Y19556728D01*
X48033400Y19943269D01*
X48306728Y20216597D01*
X48693269Y20216597D01*
X48830225Y20079641D01*
X48831238Y20078969D01*
X48831956Y20077991D01*
X48839516Y20073488D01*
X48846816Y20068653D01*
X48848003Y20068431D01*
X48849053Y20067806D01*
X48865581Y20064997D01*
X50380475Y20064997D01*
X50948044Y19497425D01*
X50948384Y19497200D01*
X50948613Y19496866D01*
X50956684Y19491703D01*
X50964634Y19486438D01*
X50965031Y19486363D01*
X50965375Y19486144D01*
X50974825Y19484538D01*
X50984197Y19482788D01*
X50984594Y19482875D01*
X50984994Y19482806D01*
X50994306Y19485009D01*
X51003634Y19487059D01*
X51003966Y19487294D01*
X51004359Y19487388D01*
X51012075Y19493047D01*
X51019866Y19498572D01*
X51020078Y19498916D01*
X51020406Y19499156D01*
X51025344Y19507444D01*
X51030319Y19515503D01*
X51030378Y19515900D01*
X51030591Y19516253D01*
X51033400Y19532781D01*
X51033400Y19693269D01*
X51306728Y19966597D01*
X51693269Y19966597D01*
X51966597Y19693269D01*
X51966597Y19499588D01*
X51966838Y19498400D01*
X51966653Y19497197D01*
X51968813Y19488675D01*
X51970556Y19480084D01*
X51971244Y19479084D01*
X51971541Y19477906D01*
X51981241Y19464231D01*
X53865831Y17579641D01*
X53866844Y17578969D01*
X53867563Y17577991D01*
X53875122Y17573488D01*
X53882422Y17568653D01*
X53883609Y17568431D01*
X53884659Y17567806D01*
X53901188Y17564997D01*
X64860422Y17564997D01*
X64860819Y17565078D01*
X64861219Y17565003D01*
X64870497Y17567044D01*
X64879925Y17568956D01*
X64880266Y17569188D01*
X64880656Y17569275D01*
X64888381Y17574756D01*
X64896338Y17580209D01*
X64896556Y17580553D01*
X64896888Y17580788D01*
X64901888Y17588888D01*
X64907059Y17596972D01*
X64907128Y17597375D01*
X64907341Y17597719D01*
X64908794Y17607166D01*
X64910397Y17616591D01*
X64910303Y17616984D01*
X64910366Y17617388D01*
X64907994Y17626750D01*
X64905816Y17635956D01*
X64905578Y17636278D01*
X64905478Y17636678D01*
X64895778Y17650353D01*
X64739400Y17806728D01*
X64739400Y18193269D01*
X65012728Y18466597D01*
X65399269Y18466597D01*
X65536225Y18329641D01*
X65537238Y18328969D01*
X65537956Y18327991D01*
X65545516Y18323488D01*
X65552816Y18318653D01*
X65554003Y18318431D01*
X65555053Y18317806D01*
X65571581Y18314997D01*
X65598813Y18314997D01*
X65600000Y18315238D01*
X65601203Y18315053D01*
X65609725Y18317213D01*
X65618316Y18318956D01*
X65619316Y18319644D01*
X65620494Y18319941D01*
X65634169Y18329641D01*
X65670356Y18365828D01*
X65670363Y18365838D01*
X65869522Y18564997D01*
X67859475Y18564997D01*
X68564997Y17859475D01*
X68564997Y14869522D01*
X66288875Y12593400D01*
X63711122Y12593400D01*
X60634166Y15670356D01*
X60633153Y15671028D01*
X60632434Y15672006D01*
X60624875Y15676509D01*
X60617575Y15681344D01*
X60616388Y15681566D01*
X60615338Y15682191D01*
X60598809Y15685000D01*
X53119522Y15685000D01*
X52920356Y15884166D01*
X52640353Y16164172D01*
X52640013Y16164397D01*
X52639784Y16164731D01*
X52631713Y16169894D01*
X52623763Y16175159D01*
X52623366Y16175234D01*
X52623022Y16175453D01*
X52613572Y16177059D01*
X52604200Y16178809D01*
X52603803Y16178722D01*
X52603403Y16178791D01*
X52594091Y16176588D01*
X52584763Y16174538D01*
X52584431Y16174303D01*
X52584038Y16174209D01*
X52576322Y16168550D01*
X52568531Y16163025D01*
X52568319Y16162681D01*
X52567991Y16162441D01*
X52563053Y16154153D01*
X52558078Y16146094D01*
X52558019Y16145697D01*
X52557806Y16145344D01*
X52554997Y16128816D01*
X52554997Y12109522D01*
X51731241Y11285766D01*
X51730569Y11284753D01*
X51729591Y11284034D01*
X51725088Y11276475D01*
X51720253Y11269175D01*
X51720031Y11267988D01*
X51719406Y11266938D01*
X51716597Y11250409D01*
X51716597Y11056728D01*
X51443269Y10783400D01*
X51056728Y10783400D01*
X50783400Y11056728D01*
X50783400Y11443269D01*
X51056728Y11716597D01*
X51250409Y11716597D01*
X51251597Y11716838D01*
X51252800Y11716653D01*
X51261322Y11718813D01*
X51269913Y11720556D01*
X51270913Y11721244D01*
X51272091Y11721541D01*
X51285766Y11731241D01*
X51910356Y12355831D01*
X51911028Y12356844D01*
X51912006Y12357563D01*
X51916509Y12365122D01*
X51921344Y12372422D01*
X51921566Y12373609D01*
X51922191Y12374659D01*
X51925000Y12391188D01*
X51925000Y13721441D01*
X51924959Y13721644D01*
X51924997Y13721841D01*
X51922991Y13731334D01*
X51921041Y13740944D01*
X51920925Y13741109D01*
X51920884Y13741309D01*
X51915325Y13749281D01*
X51909788Y13757356D01*
X51909616Y13757466D01*
X51909500Y13757631D01*
X51901300Y13762784D01*
X51893025Y13768078D01*
X51892825Y13768113D01*
X51892650Y13768222D01*
X51883050Y13769775D01*
X51873406Y13771416D01*
X51873203Y13771369D01*
X51873006Y13771400D01*
X51863581Y13769091D01*
X51854041Y13766834D01*
X51853878Y13766716D01*
X51853678Y13766666D01*
X51845903Y13760866D01*
X51837994Y13755066D01*
X51837888Y13754888D01*
X51837728Y13754769D01*
X51828806Y13740575D01*
X51733309Y13510019D01*
X51489978Y13266688D01*
X51273547Y13177038D01*
X51273544Y13177038D01*
X51273541Y13177034D01*
X51172059Y13135000D01*
X50827938Y13135000D01*
X50510019Y13266688D01*
X50266688Y13510019D01*
X50161191Y13764719D01*
X50161078Y13764884D01*
X50161038Y13765088D01*
X50155391Y13773322D01*
X50150069Y13781219D01*
X50149903Y13781325D01*
X50149784Y13781500D01*
X50141506Y13786797D01*
X50133394Y13792078D01*
X50133191Y13792116D01*
X50133022Y13792222D01*
X50123409Y13793856D01*
X50113803Y13795569D01*
X50113609Y13795525D01*
X50113403Y13795559D01*
X50103784Y13793284D01*
X50094400Y13791144D01*
X50094234Y13791025D01*
X50094038Y13790978D01*
X50086088Y13785147D01*
X50078263Y13779503D01*
X50078159Y13779334D01*
X50077991Y13779209D01*
X50072881Y13770634D01*
X50067941Y13762488D01*
X50067913Y13762291D01*
X50067806Y13762113D01*
X50064997Y13745584D01*
X50064997Y11766597D01*
X50065159Y11765803D01*
X50065022Y11765003D01*
X50067128Y11756106D01*
X50068956Y11747094D01*
X50069419Y11746422D01*
X50069603Y11745638D01*
X50075003Y11738275D01*
X50080209Y11730681D01*
X50080894Y11730244D01*
X50081372Y11729591D01*
X50089269Y11724888D01*
X50096972Y11719959D01*
X50097769Y11719825D01*
X50098469Y11719406D01*
X50114997Y11716597D01*
X50193269Y11716597D01*
X50466597Y11443269D01*
X50466597Y11056728D01*
X50193269Y10783400D01*
X49806728Y10783400D01*
G37*
%LPD*%
%LPC*%
G36*
X69306728Y43533400D02*
X69306728Y43533400D01*
X69033400Y43806728D01*
X69033400Y44000409D01*
X69033159Y44001597D01*
X69033344Y44002800D01*
X69031184Y44011322D01*
X69029441Y44019913D01*
X69028753Y44020913D01*
X69028456Y44022091D01*
X69018756Y44035766D01*
X65134166Y47920356D01*
X65133153Y47921028D01*
X65132434Y47922006D01*
X65124875Y47926509D01*
X65117575Y47931344D01*
X65116388Y47931566D01*
X65115338Y47932191D01*
X65098809Y47935000D01*
X64365578Y47935000D01*
X64364391Y47934759D01*
X64363188Y47934944D01*
X64354666Y47932784D01*
X64346075Y47931041D01*
X64345075Y47930353D01*
X64343897Y47930056D01*
X64330222Y47920356D01*
X64193269Y47783400D01*
X63806728Y47783400D01*
X63669775Y47920356D01*
X63668763Y47921028D01*
X63668044Y47922006D01*
X63660484Y47926509D01*
X63653184Y47931344D01*
X63651997Y47931566D01*
X63650947Y47932191D01*
X63634419Y47935000D01*
X59265578Y47935000D01*
X59264391Y47934759D01*
X59263188Y47934944D01*
X59254666Y47932784D01*
X59246075Y47931041D01*
X59245075Y47930353D01*
X59243897Y47930056D01*
X59230222Y47920356D01*
X59093269Y47783400D01*
X58706728Y47783400D01*
X58569775Y47920356D01*
X58568763Y47921028D01*
X58568044Y47922006D01*
X58560484Y47926509D01*
X58553184Y47931344D01*
X58551997Y47931566D01*
X58550947Y47932191D01*
X58534419Y47935000D01*
X53865578Y47935000D01*
X53864391Y47934759D01*
X53863188Y47934944D01*
X53854666Y47932784D01*
X53846075Y47931041D01*
X53845075Y47930353D01*
X53843897Y47930056D01*
X53830222Y47920356D01*
X53693269Y47783400D01*
X53306728Y47783400D01*
X53169775Y47920356D01*
X53168763Y47921028D01*
X53168044Y47922006D01*
X53160484Y47926509D01*
X53153184Y47931344D01*
X53151997Y47931566D01*
X53150947Y47932191D01*
X53134419Y47935000D01*
X48765578Y47935000D01*
X48764391Y47934759D01*
X48763188Y47934944D01*
X48754666Y47932784D01*
X48746075Y47931041D01*
X48745075Y47930353D01*
X48743897Y47930056D01*
X48730222Y47920356D01*
X48593269Y47783400D01*
X48206728Y47783400D01*
X48069775Y47920356D01*
X48068763Y47921028D01*
X48068044Y47922006D01*
X48060484Y47926509D01*
X48053184Y47931344D01*
X48051997Y47931566D01*
X48050947Y47932191D01*
X48034419Y47935000D01*
X43365578Y47935000D01*
X43364391Y47934759D01*
X43363188Y47934944D01*
X43354666Y47932784D01*
X43346075Y47931041D01*
X43345075Y47930353D01*
X43343897Y47930056D01*
X43330222Y47920356D01*
X43193269Y47783400D01*
X42806728Y47783400D01*
X42669775Y47920356D01*
X42668763Y47921028D01*
X42668044Y47922006D01*
X42660484Y47926509D01*
X42653184Y47931344D01*
X42651997Y47931566D01*
X42650947Y47932191D01*
X42634419Y47935000D01*
X38265578Y47935000D01*
X38264391Y47934759D01*
X38263188Y47934944D01*
X38254666Y47932784D01*
X38246075Y47931041D01*
X38245075Y47930353D01*
X38243897Y47930056D01*
X38230222Y47920356D01*
X38093269Y47783400D01*
X37706728Y47783400D01*
X37569775Y47920356D01*
X37568763Y47921028D01*
X37568044Y47922006D01*
X37560484Y47926509D01*
X37553184Y47931344D01*
X37551997Y47931566D01*
X37550947Y47932191D01*
X37534419Y47935000D01*
X32865578Y47935000D01*
X32864391Y47934759D01*
X32863188Y47934944D01*
X32854666Y47932784D01*
X32846075Y47931041D01*
X32845075Y47930353D01*
X32843897Y47930056D01*
X32830222Y47920356D01*
X32693269Y47783400D01*
X32306728Y47783400D01*
X32169775Y47920356D01*
X32168763Y47921028D01*
X32168044Y47922006D01*
X32160484Y47926509D01*
X32153184Y47931344D01*
X32151997Y47931566D01*
X32150947Y47932191D01*
X32134419Y47935000D01*
X27765578Y47935000D01*
X27764391Y47934759D01*
X27763188Y47934944D01*
X27754666Y47932784D01*
X27746075Y47931041D01*
X27745075Y47930353D01*
X27743897Y47930056D01*
X27730222Y47920356D01*
X27593269Y47783400D01*
X27206728Y47783400D01*
X27069775Y47920356D01*
X27068763Y47921028D01*
X27068044Y47922006D01*
X27060484Y47926509D01*
X27053184Y47931344D01*
X27051997Y47931566D01*
X27050947Y47932191D01*
X27034419Y47935000D01*
X22365581Y47935000D01*
X22364394Y47934759D01*
X22363191Y47934944D01*
X22354669Y47932784D01*
X22346078Y47931041D01*
X22345078Y47930353D01*
X22343900Y47930056D01*
X22330225Y47920356D01*
X22193269Y47783400D01*
X21806728Y47783400D01*
X21669772Y47920356D01*
X21668759Y47921028D01*
X21668041Y47922006D01*
X21660481Y47926509D01*
X21653181Y47931344D01*
X21651994Y47931566D01*
X21650944Y47932191D01*
X21634416Y47935000D01*
X17240578Y47935000D01*
X17239391Y47934759D01*
X17238188Y47934944D01*
X17229666Y47932784D01*
X17221075Y47931041D01*
X17220075Y47930353D01*
X17218897Y47930056D01*
X17205222Y47920356D01*
X17068269Y47783400D01*
X16681728Y47783400D01*
X16408400Y48056728D01*
X16408400Y48443269D01*
X16681728Y48716597D01*
X17068269Y48716597D01*
X17205222Y48579641D01*
X17206234Y48578969D01*
X17206953Y48577991D01*
X17214513Y48573488D01*
X17221813Y48568653D01*
X17223000Y48568431D01*
X17224050Y48567806D01*
X17240578Y48564997D01*
X19154422Y48564997D01*
X19154819Y48565078D01*
X19155219Y48565003D01*
X19164497Y48567044D01*
X19173925Y48568956D01*
X19174266Y48569188D01*
X19174656Y48569275D01*
X19182381Y48574756D01*
X19190338Y48580209D01*
X19190556Y48580553D01*
X19190888Y48580788D01*
X19195888Y48588888D01*
X19201059Y48596972D01*
X19201128Y48597375D01*
X19201341Y48597719D01*
X19202794Y48607166D01*
X19204397Y48616591D01*
X19204303Y48616984D01*
X19204366Y48617388D01*
X19201994Y48626750D01*
X19199816Y48635956D01*
X19199578Y48636278D01*
X19199478Y48636678D01*
X19189778Y48650353D01*
X19033400Y48806728D01*
X19033400Y49193269D01*
X19306728Y49466597D01*
X19693269Y49466597D01*
X19966597Y49193269D01*
X19966597Y48806728D01*
X19810219Y48650353D01*
X19809994Y48650013D01*
X19809659Y48649784D01*
X19804497Y48641713D01*
X19799231Y48633763D01*
X19799156Y48633366D01*
X19798938Y48633022D01*
X19797331Y48623572D01*
X19795581Y48614200D01*
X19795669Y48613803D01*
X19795600Y48613403D01*
X19797784Y48604166D01*
X19799850Y48594766D01*
X19800088Y48594428D01*
X19800181Y48594038D01*
X19805828Y48586341D01*
X19811366Y48578531D01*
X19811709Y48578319D01*
X19811950Y48577991D01*
X19820238Y48573053D01*
X19828297Y48568078D01*
X19828694Y48568019D01*
X19829047Y48567806D01*
X19845575Y48564997D01*
X21634416Y48564997D01*
X21635603Y48565238D01*
X21636806Y48565053D01*
X21645328Y48567213D01*
X21653919Y48568956D01*
X21654919Y48569644D01*
X21656097Y48569941D01*
X21669772Y48579641D01*
X21806728Y48716597D01*
X22193269Y48716597D01*
X22330225Y48579641D01*
X22331238Y48578969D01*
X22331956Y48577991D01*
X22339516Y48573488D01*
X22346816Y48568653D01*
X22348003Y48568431D01*
X22349053Y48567806D01*
X22365581Y48564997D01*
X24154422Y48564997D01*
X24154819Y48565078D01*
X24155219Y48565003D01*
X24164497Y48567044D01*
X24173925Y48568956D01*
X24174266Y48569188D01*
X24174656Y48569275D01*
X24182381Y48574756D01*
X24190338Y48580209D01*
X24190556Y48580553D01*
X24190888Y48580788D01*
X24195888Y48588888D01*
X24201059Y48596972D01*
X24201128Y48597375D01*
X24201341Y48597719D01*
X24202794Y48607166D01*
X24204397Y48616591D01*
X24204303Y48616984D01*
X24204366Y48617388D01*
X24201994Y48626750D01*
X24199816Y48635956D01*
X24199578Y48636278D01*
X24199478Y48636678D01*
X24189778Y48650353D01*
X24033400Y48806728D01*
X24033400Y49193269D01*
X24306728Y49466597D01*
X24500409Y49466597D01*
X24501597Y49466838D01*
X24502800Y49466653D01*
X24511322Y49468813D01*
X24519913Y49470556D01*
X24520913Y49471244D01*
X24522091Y49471541D01*
X24535766Y49481241D01*
X25119522Y50064997D01*
X34380475Y50064997D01*
X34964231Y49481241D01*
X34965244Y49480569D01*
X34965963Y49479591D01*
X34973522Y49475088D01*
X34980822Y49470253D01*
X34982009Y49470031D01*
X34983059Y49469406D01*
X34999588Y49466597D01*
X35193269Y49466597D01*
X35466597Y49193269D01*
X35466597Y48806728D01*
X35310219Y48650353D01*
X35309994Y48650013D01*
X35309659Y48649784D01*
X35304497Y48641713D01*
X35299231Y48633763D01*
X35299156Y48633366D01*
X35298938Y48633022D01*
X35297331Y48623572D01*
X35295581Y48614200D01*
X35295669Y48613803D01*
X35295600Y48613403D01*
X35297784Y48604166D01*
X35299850Y48594766D01*
X35300088Y48594428D01*
X35300181Y48594038D01*
X35305828Y48586341D01*
X35311366Y48578531D01*
X35311709Y48578319D01*
X35311950Y48577991D01*
X35320238Y48573053D01*
X35328297Y48568078D01*
X35328694Y48568019D01*
X35329047Y48567806D01*
X35345575Y48564997D01*
X37534419Y48564997D01*
X37535606Y48565238D01*
X37536809Y48565053D01*
X37545331Y48567213D01*
X37553922Y48568956D01*
X37554922Y48569644D01*
X37556100Y48569941D01*
X37569775Y48579641D01*
X37706728Y48716597D01*
X38093269Y48716597D01*
X38230222Y48579641D01*
X38231234Y48578969D01*
X38231953Y48577991D01*
X38239513Y48573488D01*
X38246813Y48568653D01*
X38248000Y48568431D01*
X38249050Y48567806D01*
X38265578Y48564997D01*
X40154422Y48564997D01*
X40154819Y48565078D01*
X40155219Y48565003D01*
X40164497Y48567044D01*
X40173925Y48568956D01*
X40174266Y48569188D01*
X40174656Y48569275D01*
X40182381Y48574756D01*
X40190338Y48580209D01*
X40190556Y48580553D01*
X40190888Y48580788D01*
X40195888Y48588888D01*
X40201059Y48596972D01*
X40201128Y48597375D01*
X40201341Y48597719D01*
X40202794Y48607166D01*
X40204397Y48616591D01*
X40204303Y48616984D01*
X40204366Y48617388D01*
X40201994Y48626750D01*
X40199816Y48635956D01*
X40199578Y48636278D01*
X40199478Y48636678D01*
X40189778Y48650353D01*
X40033400Y48806728D01*
X40033400Y49193269D01*
X40306728Y49466597D01*
X40500409Y49466597D01*
X40501597Y49466838D01*
X40502800Y49466653D01*
X40511322Y49468813D01*
X40519913Y49470556D01*
X40520913Y49471244D01*
X40522091Y49471541D01*
X40535766Y49481241D01*
X41119522Y50064997D01*
X50380475Y50064997D01*
X50964231Y49481241D01*
X50965244Y49480569D01*
X50965963Y49479591D01*
X50973522Y49475088D01*
X50980822Y49470253D01*
X50982009Y49470031D01*
X50983059Y49469406D01*
X50999588Y49466597D01*
X51193269Y49466597D01*
X51466597Y49193269D01*
X51466597Y48806728D01*
X51310219Y48650353D01*
X51309994Y48650013D01*
X51309659Y48649784D01*
X51304497Y48641713D01*
X51299231Y48633763D01*
X51299156Y48633366D01*
X51298938Y48633022D01*
X51297331Y48623572D01*
X51295581Y48614200D01*
X51295669Y48613803D01*
X51295600Y48613403D01*
X51297784Y48604166D01*
X51299850Y48594766D01*
X51300088Y48594428D01*
X51300181Y48594038D01*
X51305828Y48586341D01*
X51311366Y48578531D01*
X51311709Y48578319D01*
X51311950Y48577991D01*
X51320238Y48573053D01*
X51328297Y48568078D01*
X51328694Y48568019D01*
X51329047Y48567806D01*
X51345575Y48564997D01*
X53134419Y48564997D01*
X53135606Y48565238D01*
X53136809Y48565053D01*
X53145331Y48567213D01*
X53153922Y48568956D01*
X53154922Y48569644D01*
X53156100Y48569941D01*
X53169775Y48579641D01*
X53306728Y48716597D01*
X53693269Y48716597D01*
X53830222Y48579641D01*
X53831234Y48578969D01*
X53831953Y48577991D01*
X53839513Y48573488D01*
X53846813Y48568653D01*
X53848000Y48568431D01*
X53849050Y48567806D01*
X53865578Y48564997D01*
X55654422Y48564997D01*
X55654819Y48565078D01*
X55655219Y48565003D01*
X55664497Y48567044D01*
X55673925Y48568956D01*
X55674266Y48569188D01*
X55674656Y48569275D01*
X55682381Y48574756D01*
X55690338Y48580209D01*
X55690556Y48580553D01*
X55690888Y48580788D01*
X55695888Y48588888D01*
X55701059Y48596972D01*
X55701128Y48597375D01*
X55701341Y48597719D01*
X55702794Y48607166D01*
X55704397Y48616591D01*
X55704303Y48616984D01*
X55704366Y48617388D01*
X55701994Y48626750D01*
X55699816Y48635956D01*
X55699578Y48636278D01*
X55699478Y48636678D01*
X55689778Y48650353D01*
X55533400Y48806728D01*
X55533400Y49193269D01*
X55806728Y49466597D01*
X56193269Y49466597D01*
X56466597Y49193269D01*
X56466597Y48806728D01*
X56310219Y48650353D01*
X56309994Y48650013D01*
X56309659Y48649784D01*
X56304497Y48641713D01*
X56299231Y48633763D01*
X56299156Y48633366D01*
X56298938Y48633022D01*
X56297331Y48623572D01*
X56295581Y48614200D01*
X56295669Y48613803D01*
X56295600Y48613403D01*
X56297784Y48604166D01*
X56299850Y48594766D01*
X56300088Y48594428D01*
X56300181Y48594038D01*
X56305828Y48586341D01*
X56311366Y48578531D01*
X56311709Y48578319D01*
X56311950Y48577991D01*
X56320238Y48573053D01*
X56328297Y48568078D01*
X56328694Y48568019D01*
X56329047Y48567806D01*
X56345575Y48564997D01*
X58534419Y48564997D01*
X58535606Y48565238D01*
X58536809Y48565053D01*
X58545331Y48567213D01*
X58553922Y48568956D01*
X58554922Y48569644D01*
X58556100Y48569941D01*
X58569775Y48579641D01*
X58706728Y48716597D01*
X59093269Y48716597D01*
X59230222Y48579641D01*
X59231234Y48578969D01*
X59231953Y48577991D01*
X59239513Y48573488D01*
X59246813Y48568653D01*
X59248000Y48568431D01*
X59249050Y48567806D01*
X59265578Y48564997D01*
X61154422Y48564997D01*
X61154819Y48565078D01*
X61155219Y48565003D01*
X61164497Y48567044D01*
X61173925Y48568956D01*
X61174266Y48569188D01*
X61174656Y48569275D01*
X61182381Y48574756D01*
X61190338Y48580209D01*
X61190556Y48580553D01*
X61190888Y48580788D01*
X61195888Y48588888D01*
X61201059Y48596972D01*
X61201128Y48597375D01*
X61201341Y48597719D01*
X61202794Y48607166D01*
X61204397Y48616591D01*
X61204303Y48616984D01*
X61204366Y48617388D01*
X61201994Y48626750D01*
X61199816Y48635956D01*
X61199578Y48636278D01*
X61199478Y48636678D01*
X61189778Y48650353D01*
X61033400Y48806728D01*
X61033400Y49193269D01*
X61306728Y49466597D01*
X61693269Y49466597D01*
X61966597Y49193269D01*
X61966597Y48806728D01*
X61810219Y48650353D01*
X61809994Y48650013D01*
X61809659Y48649784D01*
X61804497Y48641713D01*
X61799231Y48633763D01*
X61799156Y48633366D01*
X61798938Y48633022D01*
X61797331Y48623572D01*
X61795581Y48614200D01*
X61795669Y48613803D01*
X61795600Y48613403D01*
X61797784Y48604166D01*
X61799850Y48594766D01*
X61800088Y48594428D01*
X61800181Y48594038D01*
X61805828Y48586341D01*
X61811366Y48578531D01*
X61811709Y48578319D01*
X61811950Y48577991D01*
X61820238Y48573053D01*
X61828297Y48568078D01*
X61828694Y48568019D01*
X61829047Y48567806D01*
X61845575Y48564997D01*
X63634419Y48564997D01*
X63635606Y48565238D01*
X63636809Y48565053D01*
X63645331Y48567213D01*
X63653922Y48568956D01*
X63654922Y48569644D01*
X63656100Y48569941D01*
X63669775Y48579641D01*
X63806728Y48716597D01*
X64193269Y48716597D01*
X64330222Y48579641D01*
X64331234Y48578969D01*
X64331953Y48577991D01*
X64339513Y48573488D01*
X64346813Y48568653D01*
X64348000Y48568431D01*
X64349050Y48567806D01*
X64365578Y48564997D01*
X65380475Y48564997D01*
X69464231Y44481241D01*
X69465244Y44480569D01*
X69465963Y44479591D01*
X69473522Y44475088D01*
X69480822Y44470253D01*
X69482009Y44470031D01*
X69483059Y44469406D01*
X69499588Y44466597D01*
X69693269Y44466597D01*
X69966597Y44193269D01*
X69966597Y43806728D01*
X69693269Y43533400D01*
X69306728Y43533400D01*
G37*
%LPD*%
G36*
X66008397Y13223638D02*
X66008397Y13223638D01*
X66009600Y13223453D01*
X66018122Y13225613D01*
X66026713Y13227356D01*
X66027713Y13228044D01*
X66028891Y13228341D01*
X66042566Y13238041D01*
X67920356Y15115831D01*
X67921028Y15116844D01*
X67922006Y15117563D01*
X67926509Y15125122D01*
X67931344Y15132422D01*
X67931566Y15133609D01*
X67932191Y15134659D01*
X67935000Y15151188D01*
X67935000Y17198422D01*
X67934919Y17198819D01*
X67934994Y17199219D01*
X67932953Y17208497D01*
X67931041Y17217925D01*
X67930809Y17218266D01*
X67930722Y17218656D01*
X67925241Y17226381D01*
X67919788Y17234338D01*
X67919444Y17234556D01*
X67919209Y17234888D01*
X67911109Y17239888D01*
X67903025Y17245059D01*
X67902622Y17245128D01*
X67902278Y17245341D01*
X67892831Y17246794D01*
X67883406Y17248397D01*
X67883013Y17248303D01*
X67882609Y17248366D01*
X67873247Y17245994D01*
X67864041Y17243816D01*
X67863719Y17243578D01*
X67863319Y17243478D01*
X67849644Y17233778D01*
X67649269Y17033400D01*
X67262728Y17033400D01*
X67125772Y17170356D01*
X67124759Y17171028D01*
X67124041Y17172006D01*
X67116481Y17176509D01*
X67109181Y17181344D01*
X67107994Y17181566D01*
X67106944Y17182191D01*
X67090416Y17185000D01*
X66107188Y17185000D01*
X66106000Y17184759D01*
X66104797Y17184944D01*
X66096275Y17182784D01*
X66087684Y17181041D01*
X66086684Y17180353D01*
X66085506Y17180056D01*
X66071831Y17170356D01*
X65836475Y16935000D01*
X53631181Y16935000D01*
X53630781Y16934919D01*
X53630381Y16934994D01*
X53621066Y16932947D01*
X53611678Y16931041D01*
X53611341Y16930809D01*
X53610944Y16930722D01*
X53603234Y16925250D01*
X53595266Y16919788D01*
X53595041Y16919438D01*
X53594716Y16919206D01*
X53589728Y16911128D01*
X53584544Y16903025D01*
X53584475Y16902625D01*
X53584259Y16902275D01*
X53582797Y16892763D01*
X53581206Y16883406D01*
X53581300Y16883013D01*
X53581238Y16882606D01*
X53583600Y16873288D01*
X53585788Y16864041D01*
X53586028Y16863713D01*
X53586128Y16863316D01*
X53595828Y16849641D01*
X53615834Y16829638D01*
X53616847Y16828969D01*
X53617563Y16827991D01*
X53625106Y16823497D01*
X53632425Y16818650D01*
X53633616Y16818428D01*
X53634659Y16817806D01*
X53651188Y16814997D01*
X61380475Y16814997D01*
X61579641Y16615831D01*
X63084044Y15111425D01*
X63084384Y15111200D01*
X63084613Y15110866D01*
X63092684Y15105703D01*
X63100634Y15100438D01*
X63101031Y15100363D01*
X63101375Y15100144D01*
X63110825Y15098538D01*
X63120197Y15096788D01*
X63120594Y15096875D01*
X63120994Y15096806D01*
X63130306Y15099009D01*
X63139634Y15101059D01*
X63139966Y15101294D01*
X63140359Y15101388D01*
X63148075Y15107047D01*
X63155866Y15112572D01*
X63156078Y15112916D01*
X63156406Y15113156D01*
X63161344Y15121444D01*
X63166319Y15129503D01*
X63166378Y15129900D01*
X63166591Y15130253D01*
X63169400Y15146781D01*
X63169400Y15153269D01*
X63442728Y15426597D01*
X63829269Y15426597D01*
X64102597Y15153269D01*
X64102597Y14766728D01*
X63829269Y14493400D01*
X63822781Y14493400D01*
X63822384Y14493319D01*
X63821984Y14493394D01*
X63812706Y14491353D01*
X63803278Y14489441D01*
X63802938Y14489209D01*
X63802547Y14489122D01*
X63794822Y14483641D01*
X63786866Y14478188D01*
X63786647Y14477844D01*
X63786316Y14477609D01*
X63781316Y14469509D01*
X63776144Y14461425D01*
X63776075Y14461022D01*
X63775863Y14460678D01*
X63774409Y14451231D01*
X63772806Y14441806D01*
X63772900Y14441413D01*
X63772838Y14441009D01*
X63775209Y14431647D01*
X63777388Y14422441D01*
X63777625Y14422119D01*
X63777725Y14421719D01*
X63787425Y14408044D01*
X64335447Y13860025D01*
X64336125Y13859575D01*
X64336594Y13858916D01*
X64344388Y13854103D01*
X64352038Y13849038D01*
X64352834Y13848888D01*
X64353525Y13848463D01*
X64362597Y13847066D01*
X64371600Y13845388D01*
X64372391Y13845563D01*
X64373194Y13845438D01*
X64382134Y13847703D01*
X64391038Y13849659D01*
X64391694Y13850125D01*
X64392484Y13850325D01*
X64406159Y13860025D01*
X64512728Y13966597D01*
X64899269Y13966597D01*
X65172597Y13693269D01*
X65172597Y13305897D01*
X65168900Y13300119D01*
X65163631Y13292169D01*
X65163556Y13291763D01*
X65163338Y13291422D01*
X65161741Y13282044D01*
X65159981Y13272606D01*
X65160069Y13272206D01*
X65160000Y13271803D01*
X65162200Y13262503D01*
X65164250Y13253169D01*
X65164488Y13252834D01*
X65164581Y13252438D01*
X65170231Y13244734D01*
X65175759Y13236938D01*
X65176106Y13236722D01*
X65176350Y13236391D01*
X65184597Y13231478D01*
X65192691Y13226478D01*
X65193094Y13226416D01*
X65193447Y13226206D01*
X65209975Y13223397D01*
X66007209Y13223397D01*
X66008397Y13223638D01*
G37*
%LPC*%
G36*
X70766275Y31075000D02*
X70766275Y31075000D01*
X70334416Y31253881D01*
X70003881Y31584416D01*
X69825000Y32016275D01*
X69825000Y32483722D01*
X70003881Y32915581D01*
X70302944Y33214641D01*
X70303394Y33215319D01*
X70304053Y33215788D01*
X70308866Y33223581D01*
X70313931Y33231231D01*
X70314081Y33232028D01*
X70314506Y33232719D01*
X70315903Y33241791D01*
X70317581Y33250794D01*
X70317406Y33251584D01*
X70317531Y33252388D01*
X70315266Y33261328D01*
X70313309Y33270231D01*
X70312844Y33270888D01*
X70312644Y33271678D01*
X70302944Y33285353D01*
X70003881Y33584416D01*
X69825000Y34016275D01*
X69825000Y34483722D01*
X70003881Y34915581D01*
X70334416Y35246116D01*
X70766275Y35424997D01*
X71233722Y35424997D01*
X71665581Y35246116D01*
X71996116Y34915581D01*
X72174997Y34483722D01*
X72174997Y34016275D01*
X71996116Y33584416D01*
X71697053Y33285353D01*
X71696603Y33284675D01*
X71695944Y33284206D01*
X71691131Y33276413D01*
X71686066Y33268763D01*
X71685916Y33267966D01*
X71685491Y33267275D01*
X71684094Y33258203D01*
X71682416Y33249200D01*
X71682591Y33248409D01*
X71682466Y33247606D01*
X71684731Y33238666D01*
X71686688Y33229763D01*
X71687153Y33229106D01*
X71687353Y33228316D01*
X71697053Y33214641D01*
X71996116Y32915581D01*
X72174997Y32483722D01*
X72174997Y32016275D01*
X71996116Y31584416D01*
X71665581Y31253881D01*
X71238641Y31077038D01*
X71238638Y31077038D01*
X71238634Y31077034D01*
X71233722Y31075000D01*
X70766275Y31075000D01*
G37*
%LPD*%
%LPC*%
G36*
X70766275Y26575000D02*
X70766275Y26575000D01*
X70334416Y26753881D01*
X70003881Y27084416D01*
X69825000Y27516275D01*
X69825000Y27983722D01*
X70003881Y28415581D01*
X70302944Y28714644D01*
X70303394Y28715322D01*
X70304053Y28715791D01*
X70308866Y28723584D01*
X70313931Y28731234D01*
X70314081Y28732031D01*
X70314506Y28732722D01*
X70315903Y28741794D01*
X70317581Y28750797D01*
X70317406Y28751588D01*
X70317531Y28752391D01*
X70315266Y28761331D01*
X70313309Y28770234D01*
X70312844Y28770891D01*
X70312644Y28771681D01*
X70302944Y28785356D01*
X70003881Y29084416D01*
X69825000Y29516275D01*
X69825000Y29983722D01*
X70003881Y30415581D01*
X70334416Y30746116D01*
X70766275Y30924997D01*
X71233722Y30924997D01*
X71665581Y30746116D01*
X71996116Y30415581D01*
X72174997Y29983722D01*
X72174997Y29516275D01*
X71996116Y29084416D01*
X71697053Y28785356D01*
X71696603Y28784678D01*
X71695944Y28784209D01*
X71691131Y28776416D01*
X71686066Y28768766D01*
X71685916Y28767969D01*
X71685491Y28767278D01*
X71684094Y28758206D01*
X71682416Y28749203D01*
X71682591Y28748413D01*
X71682466Y28747609D01*
X71684731Y28738669D01*
X71686688Y28729766D01*
X71687153Y28729109D01*
X71687353Y28728319D01*
X71697053Y28714644D01*
X71996116Y28415581D01*
X72174997Y27983722D01*
X72174997Y27516275D01*
X71996116Y27084416D01*
X71665581Y26753881D01*
X71238641Y26577038D01*
X71238638Y26577038D01*
X71238634Y26577034D01*
X71233722Y26575000D01*
X70766275Y26575000D01*
G37*
%LPD*%
%LPC*%
G36*
X36729291Y9200000D02*
X36729291Y9200000D01*
X36700000Y9229291D01*
X36700000Y12270706D01*
X36729291Y12299997D01*
X39020706Y12299997D01*
X39049997Y12270706D01*
X39049997Y9229291D01*
X39020706Y9200000D01*
X36729291Y9200000D01*
G37*
%LPD*%
%LPC*%
G36*
X18266275Y14825000D02*
X18266275Y14825000D01*
X17834416Y15003881D01*
X17503881Y15334416D01*
X17325000Y15766275D01*
X17325000Y16233722D01*
X17503881Y16665581D01*
X17834416Y16996116D01*
X18266275Y17174997D01*
X18733722Y17174997D01*
X19165581Y16996116D01*
X19496116Y16665581D01*
X19674997Y16233722D01*
X19674997Y15766275D01*
X19496116Y15334416D01*
X19165581Y15003881D01*
X18738641Y14827038D01*
X18738638Y14827038D01*
X18738634Y14827034D01*
X18733722Y14825000D01*
X18266275Y14825000D01*
G37*
%LPD*%
%LPC*%
G36*
X64516275Y33575000D02*
X64516275Y33575000D01*
X64084416Y33753881D01*
X63753881Y34084416D01*
X63575000Y34516275D01*
X63575000Y34983722D01*
X63753881Y35415581D01*
X64084416Y35746116D01*
X64516275Y35924997D01*
X64983722Y35924997D01*
X65415581Y35746116D01*
X65746116Y35415581D01*
X65924997Y34983722D01*
X65924997Y34516275D01*
X65746116Y34084416D01*
X65415581Y33753881D01*
X64988641Y33577038D01*
X64988638Y33577038D01*
X64988634Y33577034D01*
X64983722Y33575000D01*
X64516275Y33575000D01*
G37*
%LPD*%
%LPC*%
G36*
X18266275Y12325000D02*
X18266275Y12325000D01*
X17834416Y12503881D01*
X17503881Y12834416D01*
X17325000Y13266275D01*
X17325000Y13733722D01*
X17503881Y14165581D01*
X17834416Y14496116D01*
X18266275Y14674997D01*
X18733722Y14674997D01*
X19165581Y14496116D01*
X19496116Y14165581D01*
X19674997Y13733722D01*
X19674997Y13266275D01*
X19496116Y12834416D01*
X19165581Y12503881D01*
X18738641Y12327038D01*
X18738638Y12327038D01*
X18738634Y12327034D01*
X18733722Y12325000D01*
X18266275Y12325000D01*
G37*
%LPD*%
%LPC*%
G36*
X49147769Y8109000D02*
X49147769Y8109000D01*
X48820291Y8244647D01*
X48569647Y8495291D01*
X48434000Y8822769D01*
X48434000Y9177228D01*
X48569647Y9504706D01*
X48820291Y9755350D01*
X49147769Y9890997D01*
X49502228Y9890997D01*
X49829706Y9755350D01*
X50080350Y9504706D01*
X50215997Y9177228D01*
X50215997Y8822769D01*
X50080350Y8495291D01*
X49829706Y8244647D01*
X49787197Y8227038D01*
X49787194Y8227038D01*
X49787191Y8227034D01*
X49502228Y8109000D01*
X49147769Y8109000D01*
G37*
%LPD*%
%LPC*%
G36*
X55497769Y8109000D02*
X55497769Y8109000D01*
X55170291Y8244647D01*
X54919647Y8495291D01*
X54784000Y8822769D01*
X54784000Y9177228D01*
X54919647Y9504706D01*
X55170291Y9755350D01*
X55497769Y9890997D01*
X55852228Y9890997D01*
X56179706Y9755350D01*
X56430350Y9504706D01*
X56565997Y9177228D01*
X56565997Y8822769D01*
X56430350Y8495291D01*
X56179706Y8244647D01*
X56137197Y8227038D01*
X56137194Y8227038D01*
X56137191Y8227034D01*
X55852228Y8109000D01*
X55497769Y8109000D01*
G37*
%LPD*%
%LPC*%
G36*
X29575947Y5875000D02*
X29575947Y5875000D01*
X29254353Y6008209D01*
X29008209Y6254353D01*
X28875000Y6575947D01*
X28875000Y6924050D01*
X29008209Y7245644D01*
X29254353Y7491788D01*
X29575947Y7624997D01*
X29924050Y7624997D01*
X30245644Y7491788D01*
X30491788Y7245644D01*
X30624997Y6924050D01*
X30624997Y6575947D01*
X30491788Y6254353D01*
X30245644Y6008209D01*
X30170391Y5977038D01*
X30170388Y5977038D01*
X30170384Y5977034D01*
X29928969Y5877038D01*
X29928966Y5877038D01*
X29928963Y5877034D01*
X29924050Y5875000D01*
X29575947Y5875000D01*
G37*
%LPD*%
%LPC*%
G36*
X28575947Y9375000D02*
X28575947Y9375000D01*
X28254353Y9508209D01*
X28008209Y9754353D01*
X27875000Y10075947D01*
X27875000Y10424050D01*
X28008209Y10745644D01*
X28254353Y10991788D01*
X28575947Y11124997D01*
X28924050Y11124997D01*
X29245644Y10991788D01*
X29491788Y10745644D01*
X29624997Y10424050D01*
X29624997Y10075947D01*
X29491788Y9754353D01*
X29245644Y9508209D01*
X29170391Y9477038D01*
X29170388Y9477038D01*
X29170384Y9477034D01*
X28928969Y9377038D01*
X28928966Y9377038D01*
X28928963Y9377034D01*
X28924050Y9375000D01*
X28575947Y9375000D01*
G37*
%LPD*%
%LPC*%
G36*
X34075947Y10625000D02*
X34075947Y10625000D01*
X33754353Y10758209D01*
X33508209Y11004353D01*
X33375000Y11325947D01*
X33375000Y11674050D01*
X33508209Y11995644D01*
X33754353Y12241788D01*
X34075947Y12374997D01*
X34424050Y12374997D01*
X34745644Y12241788D01*
X34991788Y11995644D01*
X35124997Y11674050D01*
X35124997Y11325947D01*
X34991788Y11004353D01*
X34745644Y10758209D01*
X34670391Y10727038D01*
X34670388Y10727038D01*
X34670384Y10727034D01*
X34428969Y10627038D01*
X34428966Y10627038D01*
X34428963Y10627034D01*
X34424050Y10625000D01*
X34075947Y10625000D01*
G37*
%LPD*%
%LPC*%
G36*
X47827938Y13135000D02*
X47827938Y13135000D01*
X47510019Y13266688D01*
X47266688Y13510019D01*
X47135000Y13827938D01*
X47135000Y14172059D01*
X47266688Y14489978D01*
X47510019Y14733309D01*
X47827938Y14864997D01*
X48172059Y14864997D01*
X48489978Y14733309D01*
X48733309Y14489978D01*
X48864997Y14172059D01*
X48864997Y13827938D01*
X48733309Y13510019D01*
X48489978Y13266688D01*
X48273547Y13177038D01*
X48273544Y13177038D01*
X48273541Y13177034D01*
X48172059Y13135000D01*
X47827938Y13135000D01*
G37*
%LPD*%
%LPC*%
G36*
X53827938Y26135000D02*
X53827938Y26135000D01*
X53510019Y26266688D01*
X53266688Y26510019D01*
X53135000Y26827938D01*
X53135000Y27172059D01*
X53266688Y27489978D01*
X53510019Y27733309D01*
X53827938Y27864997D01*
X54172059Y27864997D01*
X54489978Y27733309D01*
X54733309Y27489978D01*
X54864997Y27172059D01*
X54864997Y26827938D01*
X54733309Y26510019D01*
X54489978Y26266688D01*
X54273547Y26177038D01*
X54273544Y26177038D01*
X54273541Y26177034D01*
X54172059Y26135000D01*
X53827938Y26135000D01*
G37*
%LPD*%
%LPC*%
G36*
X44827938Y26135000D02*
X44827938Y26135000D01*
X44510019Y26266688D01*
X44266688Y26510019D01*
X44135000Y26827938D01*
X44135000Y27172059D01*
X44266688Y27489978D01*
X44510019Y27733309D01*
X44827938Y27864997D01*
X45172059Y27864997D01*
X45489978Y27733309D01*
X45733309Y27489978D01*
X45864997Y27172059D01*
X45864997Y26827938D01*
X45733309Y26510019D01*
X45489978Y26266688D01*
X45273547Y26177038D01*
X45273544Y26177038D01*
X45273541Y26177034D01*
X45172059Y26135000D01*
X44827938Y26135000D01*
G37*
%LPD*%
%LPC*%
G36*
X56827938Y26135000D02*
X56827938Y26135000D01*
X56510019Y26266688D01*
X56266688Y26510019D01*
X56135000Y26827938D01*
X56135000Y27172059D01*
X56266688Y27489978D01*
X56510019Y27733309D01*
X56827938Y27864997D01*
X57172059Y27864997D01*
X57489978Y27733309D01*
X57733309Y27489978D01*
X57864997Y27172059D01*
X57864997Y26827938D01*
X57733309Y26510019D01*
X57489978Y26266688D01*
X57273547Y26177038D01*
X57273544Y26177038D01*
X57273541Y26177034D01*
X57172059Y26135000D01*
X56827938Y26135000D01*
G37*
%LPD*%
%LPC*%
G36*
X59827938Y26135000D02*
X59827938Y26135000D01*
X59510019Y26266688D01*
X59266688Y26510019D01*
X59135000Y26827938D01*
X59135000Y27172059D01*
X59266688Y27489978D01*
X59510019Y27733309D01*
X59827938Y27864997D01*
X60172059Y27864997D01*
X60489978Y27733309D01*
X60733309Y27489978D01*
X60864997Y27172059D01*
X60864997Y26827938D01*
X60733309Y26510019D01*
X60489978Y26266688D01*
X60273547Y26177038D01*
X60273544Y26177038D01*
X60273541Y26177034D01*
X60172059Y26135000D01*
X59827938Y26135000D01*
G37*
%LPD*%
%LPC*%
G36*
X50827938Y26135000D02*
X50827938Y26135000D01*
X50510019Y26266688D01*
X50266688Y26510019D01*
X50135000Y26827938D01*
X50135000Y27172059D01*
X50266688Y27489978D01*
X50510019Y27733309D01*
X50827938Y27864997D01*
X51172059Y27864997D01*
X51489978Y27733309D01*
X51733309Y27489978D01*
X51864997Y27172059D01*
X51864997Y26827938D01*
X51733309Y26510019D01*
X51489978Y26266688D01*
X51273547Y26177038D01*
X51273544Y26177038D01*
X51273541Y26177034D01*
X51172059Y26135000D01*
X50827938Y26135000D01*
G37*
%LPD*%
%LPC*%
G36*
X47827938Y26135000D02*
X47827938Y26135000D01*
X47510019Y26266688D01*
X47266688Y26510019D01*
X47135000Y26827938D01*
X47135000Y27172059D01*
X47266688Y27489978D01*
X47510019Y27733309D01*
X47827938Y27864997D01*
X48172059Y27864997D01*
X48489978Y27733309D01*
X48733309Y27489978D01*
X48864997Y27172059D01*
X48864997Y26827938D01*
X48733309Y26510019D01*
X48489978Y26266688D01*
X48273547Y26177038D01*
X48273544Y26177038D01*
X48273541Y26177034D01*
X48172059Y26135000D01*
X47827938Y26135000D01*
G37*
%LPD*%
%LPC*%
G36*
X59827938Y13135000D02*
X59827938Y13135000D01*
X59510019Y13266688D01*
X59266688Y13510019D01*
X59135000Y13827938D01*
X59135000Y14172059D01*
X59266688Y14489978D01*
X59510019Y14733309D01*
X59827938Y14864997D01*
X60172059Y14864997D01*
X60489978Y14733309D01*
X60733309Y14489978D01*
X60864997Y14172059D01*
X60864997Y13827938D01*
X60733309Y13510019D01*
X60489978Y13266688D01*
X60273547Y13177038D01*
X60273544Y13177038D01*
X60273541Y13177034D01*
X60172059Y13135000D01*
X59827938Y13135000D01*
G37*
%LPD*%
%LPC*%
G36*
X56827938Y13135000D02*
X56827938Y13135000D01*
X56510019Y13266688D01*
X56266688Y13510019D01*
X56135000Y13827938D01*
X56135000Y14172059D01*
X56266688Y14489978D01*
X56510019Y14733309D01*
X56827938Y14864997D01*
X57172059Y14864997D01*
X57489978Y14733309D01*
X57733309Y14489978D01*
X57864997Y14172059D01*
X57864997Y13827938D01*
X57733309Y13510019D01*
X57489978Y13266688D01*
X57273547Y13177038D01*
X57273544Y13177038D01*
X57273541Y13177034D01*
X57172059Y13135000D01*
X56827938Y13135000D01*
G37*
%LPD*%
%LPC*%
G36*
X44827938Y13135000D02*
X44827938Y13135000D01*
X44510019Y13266688D01*
X44266688Y13510019D01*
X44135000Y13827938D01*
X44135000Y14172059D01*
X44266688Y14489978D01*
X44510019Y14733309D01*
X44827938Y14864997D01*
X45172059Y14864997D01*
X45489978Y14733309D01*
X45733309Y14489978D01*
X45864997Y14172059D01*
X45864997Y13827938D01*
X45733309Y13510019D01*
X45489978Y13266688D01*
X45273547Y13177038D01*
X45273544Y13177038D01*
X45273541Y13177034D01*
X45172059Y13135000D01*
X44827938Y13135000D01*
G37*
%LPD*%
%LPC*%
G36*
X53827938Y13135000D02*
X53827938Y13135000D01*
X53510019Y13266688D01*
X53266688Y13510019D01*
X53135000Y13827938D01*
X53135000Y14172059D01*
X53266688Y14489978D01*
X53510019Y14733309D01*
X53827938Y14864997D01*
X54172059Y14864997D01*
X54489978Y14733309D01*
X54733309Y14489978D01*
X54864997Y14172059D01*
X54864997Y13827938D01*
X54733309Y13510019D01*
X54489978Y13266688D01*
X54273547Y13177038D01*
X54273544Y13177038D01*
X54273541Y13177034D01*
X54172059Y13135000D01*
X53827938Y13135000D01*
G37*
%LPD*%
%LPC*%
G36*
X71757938Y17995000D02*
X71757938Y17995000D01*
X71440019Y18126688D01*
X71196688Y18370019D01*
X71065000Y18687938D01*
X71065000Y19032059D01*
X71196688Y19349978D01*
X71440019Y19593309D01*
X71757938Y19724997D01*
X72102059Y19724997D01*
X72419978Y19593309D01*
X72663309Y19349978D01*
X72794997Y19032059D01*
X72794997Y18687938D01*
X72663309Y18370019D01*
X72419978Y18126688D01*
X72102059Y17995000D01*
X71757938Y17995000D01*
G37*
%LPD*%
%LPC*%
G36*
X73757938Y17995000D02*
X73757938Y17995000D01*
X73440019Y18126688D01*
X73196688Y18370019D01*
X73065000Y18687938D01*
X73065000Y19032059D01*
X73196688Y19349978D01*
X73440019Y19593309D01*
X73757938Y19724997D01*
X74102059Y19724997D01*
X74419978Y19593309D01*
X74663309Y19349978D01*
X74794997Y19032059D01*
X74794997Y18687938D01*
X74663309Y18370019D01*
X74419978Y18126688D01*
X74102059Y17995000D01*
X73757938Y17995000D01*
G37*
%LPD*%
%LPC*%
G36*
X73757938Y11495000D02*
X73757938Y11495000D01*
X73440019Y11626688D01*
X73196688Y11870019D01*
X73065000Y12187938D01*
X73065000Y12532059D01*
X73196688Y12849978D01*
X73440019Y13093309D01*
X73757938Y13224997D01*
X74102059Y13224997D01*
X74419978Y13093309D01*
X74663309Y12849978D01*
X74794997Y12532059D01*
X74794997Y12187938D01*
X74663309Y11870019D01*
X74419978Y11626688D01*
X74102059Y11495000D01*
X73757938Y11495000D01*
G37*
%LPD*%
%LPC*%
G36*
X71757938Y11495000D02*
X71757938Y11495000D01*
X71440019Y11626688D01*
X71196688Y11870019D01*
X71065000Y12187938D01*
X71065000Y12532059D01*
X71196688Y12849978D01*
X71440019Y13093309D01*
X71757938Y13224997D01*
X72102059Y13224997D01*
X72419978Y13093309D01*
X72663309Y12849978D01*
X72794997Y12532059D01*
X72794997Y12187938D01*
X72663309Y11870019D01*
X72419978Y11626688D01*
X72102059Y11495000D01*
X71757938Y11495000D01*
G37*
%LPD*%
%LPC*%
G36*
X16745519Y39473400D02*
X16745519Y39473400D01*
X16460094Y39591628D01*
X16241628Y39810094D01*
X16123400Y40095519D01*
X16123400Y40404478D01*
X16241628Y40689903D01*
X16460094Y40908369D01*
X16745519Y41026597D01*
X17054478Y41026597D01*
X17339903Y40908369D01*
X17558369Y40689903D01*
X17676597Y40404478D01*
X17676597Y40095519D01*
X17558369Y39810094D01*
X17339903Y39591628D01*
X17304681Y39577038D01*
X17304678Y39577038D01*
X17304675Y39577034D01*
X17063259Y39477038D01*
X17063256Y39477038D01*
X17063253Y39477034D01*
X17054478Y39473400D01*
X16745519Y39473400D01*
G37*
%LPD*%
%LPC*%
G36*
X26345519Y16723400D02*
X26345519Y16723400D01*
X26060094Y16841628D01*
X25841628Y17060094D01*
X25723400Y17345519D01*
X25723400Y17654478D01*
X25841628Y17939903D01*
X26060094Y18158369D01*
X26345519Y18276597D01*
X26654478Y18276597D01*
X26939903Y18158369D01*
X27158369Y17939903D01*
X27276597Y17654478D01*
X27276597Y17345519D01*
X27158369Y17060094D01*
X26939903Y16841628D01*
X26904681Y16827038D01*
X26904678Y16827038D01*
X26904675Y16827034D01*
X26663259Y16727038D01*
X26663256Y16727038D01*
X26663253Y16727034D01*
X26654478Y16723400D01*
X26345519Y16723400D01*
G37*
%LPD*%
%LPC*%
G36*
X18845519Y9223400D02*
X18845519Y9223400D01*
X18560094Y9341628D01*
X18341628Y9560094D01*
X18223400Y9845519D01*
X18223400Y10154478D01*
X18341628Y10439903D01*
X18560094Y10658369D01*
X18845519Y10776597D01*
X19154478Y10776597D01*
X19439903Y10658369D01*
X19658369Y10439903D01*
X19776597Y10154478D01*
X19776597Y9845519D01*
X19658369Y9560094D01*
X19439903Y9341628D01*
X19404681Y9327038D01*
X19404678Y9327038D01*
X19404675Y9327034D01*
X19163259Y9227038D01*
X19163256Y9227038D01*
X19163253Y9227034D01*
X19154478Y9223400D01*
X18845519Y9223400D01*
G37*
%LPD*%
%LPC*%
G36*
X19595519Y24723400D02*
X19595519Y24723400D01*
X19310094Y24841628D01*
X19091628Y25060094D01*
X18973400Y25345519D01*
X18973400Y25654478D01*
X19091628Y25939903D01*
X19310094Y26158369D01*
X19595519Y26276597D01*
X19904478Y26276597D01*
X20189903Y26158369D01*
X20408369Y25939903D01*
X20526597Y25654478D01*
X20526597Y25345519D01*
X20408369Y25060094D01*
X20189903Y24841628D01*
X20154681Y24827038D01*
X20154678Y24827038D01*
X20154675Y24827034D01*
X19913259Y24727038D01*
X19913256Y24727038D01*
X19913253Y24727034D01*
X19904478Y24723400D01*
X19595519Y24723400D01*
G37*
%LPD*%
%LPC*%
G36*
X66306728Y48533400D02*
X66306728Y48533400D01*
X66033400Y48806728D01*
X66033400Y49193269D01*
X66306728Y49466597D01*
X66693269Y49466597D01*
X66966597Y49193269D01*
X66966597Y48806728D01*
X66693269Y48533400D01*
X66306728Y48533400D01*
G37*
%LPD*%
%LPC*%
G36*
X69306728Y41533400D02*
X69306728Y41533400D01*
X69033400Y41806728D01*
X69033400Y42193269D01*
X69306728Y42466597D01*
X69693269Y42466597D01*
X69966597Y42193269D01*
X69966597Y41806728D01*
X69693269Y41533400D01*
X69306728Y41533400D01*
G37*
%LPD*%
%LPC*%
G36*
X74056728Y39533400D02*
X74056728Y39533400D01*
X73783400Y39806728D01*
X73783400Y40193269D01*
X74056728Y40466597D01*
X74443269Y40466597D01*
X74716597Y40193269D01*
X74716597Y39806728D01*
X74443269Y39533400D01*
X74056728Y39533400D01*
G37*
%LPD*%
%LPC*%
G36*
X73686728Y16393400D02*
X73686728Y16393400D01*
X73413400Y16666728D01*
X73413400Y17053269D01*
X73686728Y17326597D01*
X74073269Y17326597D01*
X74346597Y17053269D01*
X74346597Y16666728D01*
X74073269Y16393400D01*
X73686728Y16393400D01*
G37*
%LPD*%
%LPC*%
G36*
X57556728Y19033400D02*
X57556728Y19033400D01*
X57283400Y19306728D01*
X57283400Y19693269D01*
X57556728Y19966597D01*
X57943269Y19966597D01*
X58216597Y19693269D01*
X58216597Y19306728D01*
X57943269Y19033400D01*
X57556728Y19033400D01*
G37*
%LPD*%
%LPC*%
G36*
X47056728Y19033400D02*
X47056728Y19033400D01*
X46783400Y19306728D01*
X46783400Y19693269D01*
X47056728Y19966597D01*
X47443269Y19966597D01*
X47716597Y19693269D01*
X47716597Y19306728D01*
X47443269Y19033400D01*
X47056728Y19033400D01*
G37*
%LPD*%
%LPC*%
G36*
X57556728Y21533400D02*
X57556728Y21533400D01*
X57283400Y21806728D01*
X57283400Y22193269D01*
X57556728Y22466597D01*
X57943269Y22466597D01*
X58216597Y22193269D01*
X58216597Y21806728D01*
X57943269Y21533400D01*
X57556728Y21533400D01*
G37*
%LPD*%
%LPC*%
G36*
X56056728Y21533400D02*
X56056728Y21533400D01*
X55783400Y21806728D01*
X55783400Y22193269D01*
X56056728Y22466597D01*
X56443269Y22466597D01*
X56716597Y22193269D01*
X56716597Y21806728D01*
X56443269Y21533400D01*
X56056728Y21533400D01*
G37*
%LPD*%
%LPC*%
G36*
X47056728Y21533400D02*
X47056728Y21533400D01*
X46783400Y21806728D01*
X46783400Y22193269D01*
X47056728Y22466597D01*
X47443269Y22466597D01*
X47716597Y22193269D01*
X47716597Y21806728D01*
X47443269Y21533400D01*
X47056728Y21533400D01*
G37*
%LPD*%
%LPC*%
G36*
X24306728Y11033400D02*
X24306728Y11033400D01*
X24033400Y11306728D01*
X24033400Y11693269D01*
X24306728Y11966597D01*
X24693269Y11966597D01*
X24966597Y11693269D01*
X24966597Y11306728D01*
X24693269Y11033400D01*
X24306728Y11033400D01*
G37*
%LPD*%
%LPC*%
G36*
X73686728Y13893400D02*
X73686728Y13893400D01*
X73413400Y14166728D01*
X73413400Y14553269D01*
X73686728Y14826597D01*
X74073269Y14826597D01*
X74346597Y14553269D01*
X74346597Y14166728D01*
X74073269Y13893400D01*
X73686728Y13893400D01*
G37*
%LPD*%
%LPC*%
G36*
X54806728Y10783400D02*
X54806728Y10783400D01*
X54533400Y11056728D01*
X54533400Y11443269D01*
X54806728Y11716597D01*
X55193269Y11716597D01*
X55466597Y11443269D01*
X55466597Y11056728D01*
X55193269Y10783400D01*
X54806728Y10783400D01*
G37*
%LPD*%
%LPC*%
G36*
X68806728Y24283400D02*
X68806728Y24283400D01*
X68533400Y24556728D01*
X68533400Y24943269D01*
X68806728Y25216597D01*
X69193269Y25216597D01*
X69466597Y24943269D01*
X69466597Y24556728D01*
X69193269Y24283400D01*
X68806728Y24283400D01*
G37*
%LPD*%
%LPC*%
G36*
X22806728Y6033400D02*
X22806728Y6033400D01*
X22533400Y6306728D01*
X22533400Y6693269D01*
X22806728Y6966597D01*
X23193269Y6966597D01*
X23466597Y6693269D01*
X23466597Y6306728D01*
X23193269Y6033400D01*
X22806728Y6033400D01*
G37*
%LPD*%
%LPC*%
G36*
X20806728Y9533400D02*
X20806728Y9533400D01*
X20533400Y9806728D01*
X20533400Y10193269D01*
X20806728Y10466597D01*
X21193269Y10466597D01*
X21466597Y10193269D01*
X21466597Y9806728D01*
X21193269Y9533400D01*
X20806728Y9533400D01*
G37*
%LPD*%
%LPC*%
G36*
X74056728Y37283400D02*
X74056728Y37283400D01*
X73783400Y37556728D01*
X73783400Y37943269D01*
X74056728Y38216597D01*
X74443269Y38216597D01*
X74716597Y37943269D01*
X74716597Y37556728D01*
X74443269Y37283400D01*
X74056728Y37283400D01*
G37*
%LPD*%
%LPC*%
G36*
X20806728Y7783400D02*
X20806728Y7783400D01*
X20533400Y8056728D01*
X20533400Y8443269D01*
X20806728Y8716597D01*
X21193269Y8716597D01*
X21466597Y8443269D01*
X21466597Y8056728D01*
X21193269Y7783400D01*
X20806728Y7783400D01*
G37*
%LPD*%
%LPC*%
G36*
X61556728Y32783400D02*
X61556728Y32783400D01*
X61283400Y33056728D01*
X61283400Y33443269D01*
X61556728Y33716597D01*
X61943269Y33716597D01*
X62216597Y33443269D01*
X62216597Y33056728D01*
X61943269Y32783400D01*
X61556728Y32783400D01*
G37*
%LPD*%
%LPC*%
G36*
X49806728Y6033400D02*
X49806728Y6033400D01*
X49533400Y6306728D01*
X49533400Y6693269D01*
X49806728Y6966597D01*
X50193269Y6966597D01*
X50466597Y6693269D01*
X50466597Y6306728D01*
X50193269Y6033400D01*
X49806728Y6033400D01*
G37*
%LPD*%
%LPC*%
G36*
X21639994Y19650000D02*
X21639994Y19650000D01*
X22552825Y19650000D01*
X22530981Y19512091D01*
X22481556Y19359984D01*
X22408959Y19217500D01*
X22314963Y19088125D01*
X22201872Y18975034D01*
X22072497Y18881038D01*
X21930013Y18808441D01*
X21777906Y18759016D01*
X21639994Y18737172D01*
X21639994Y19650000D01*
G37*
%LPD*%
%LPC*%
G36*
X21302091Y18759016D02*
X21302091Y18759016D01*
X21149984Y18808441D01*
X21007500Y18881038D01*
X20878125Y18975034D01*
X20765034Y19088125D01*
X20671038Y19217500D01*
X20598441Y19359984D01*
X20549016Y19512091D01*
X20527172Y19650000D01*
X21440000Y19650000D01*
X21440000Y18737172D01*
X21302091Y18759016D01*
G37*
%LPD*%
%LPC*%
G36*
X19079994Y23599994D02*
X19079994Y23599994D01*
X19079994Y24500675D01*
X19215103Y24479275D01*
X19365400Y24430441D01*
X19506209Y24358697D01*
X19634056Y24265809D01*
X19745809Y24154056D01*
X19838697Y24026209D01*
X19910441Y23885400D01*
X19959275Y23735103D01*
X19980675Y23599994D01*
X19079994Y23599994D01*
G37*
%LPD*%
%LPC*%
G36*
X19079994Y23400000D02*
X19079994Y23400000D01*
X19980675Y23400000D01*
X19959275Y23264894D01*
X19910441Y23114597D01*
X19838697Y22973788D01*
X19745809Y22845941D01*
X19634056Y22734188D01*
X19506209Y22641300D01*
X19365400Y22569556D01*
X19215103Y22520722D01*
X19079994Y22499322D01*
X19079994Y23400000D01*
G37*
%LPD*%
%LPC*%
G36*
X17979322Y23599994D02*
X17979322Y23599994D01*
X18000722Y23735103D01*
X18049556Y23885400D01*
X18121300Y24026209D01*
X18214188Y24154056D01*
X18325941Y24265809D01*
X18453788Y24358697D01*
X18594597Y24430441D01*
X18744894Y24479275D01*
X18880000Y24500675D01*
X18880000Y23599994D01*
X17979322Y23599994D01*
G37*
%LPD*%
%LPC*%
G36*
X18744894Y22520722D02*
X18744894Y22520722D01*
X18594597Y22569556D01*
X18453788Y22641300D01*
X18325941Y22734188D01*
X18214188Y22845941D01*
X18121300Y22973788D01*
X18049556Y23114597D01*
X18000722Y23264894D01*
X17979322Y23400000D01*
X18880000Y23400000D01*
X18880000Y22499322D01*
X18744894Y22520722D01*
G37*
%LPD*%
%LPC*%
G36*
X26849994Y10849994D02*
X26849994Y10849994D01*
X26849994Y11677306D01*
X27020984Y11643294D01*
X27190038Y11573269D01*
X27342200Y11471600D01*
X27471600Y11342200D01*
X27573269Y11190038D01*
X27643294Y11020984D01*
X27677306Y10849994D01*
X26849994Y10849994D01*
G37*
%LPD*%
%LPC*%
G36*
X25822691Y10849994D02*
X25822691Y10849994D01*
X25856703Y11020984D01*
X25926728Y11190038D01*
X26028397Y11342200D01*
X26157797Y11471600D01*
X26309959Y11573269D01*
X26479013Y11643294D01*
X26650000Y11677306D01*
X26650000Y10849994D01*
X25822691Y10849994D01*
G37*
%LPD*%
%LPC*%
G36*
X26849994Y10650000D02*
X26849994Y10650000D01*
X27677306Y10650000D01*
X27643294Y10479013D01*
X27573269Y10309959D01*
X27471600Y10157797D01*
X27342200Y10028397D01*
X27190038Y9926728D01*
X27020984Y9856703D01*
X26849994Y9822691D01*
X26849994Y10650000D01*
G37*
%LPD*%
%LPC*%
G36*
X26479013Y9856703D02*
X26479013Y9856703D01*
X26309959Y9926728D01*
X26157797Y10028397D01*
X26028397Y10157797D01*
X25926728Y10309959D01*
X25856703Y10479013D01*
X25822691Y10650000D01*
X26650000Y10650000D01*
X26650000Y9822691D01*
X26479013Y9856703D01*
G37*
%LPD*%
%LPC*%
G36*
X18979984Y23499984D02*
X18979984Y23499984D01*
X18979984Y23500013D01*
X18980013Y23500013D01*
X18980013Y23499984D01*
X18979984Y23499984D01*
G37*
%LPD*%
%LPC*%
G36*
X26749984Y10749984D02*
X26749984Y10749984D01*
X26749984Y10750013D01*
X26750013Y10750013D01*
X26750013Y10749984D01*
X26749984Y10749984D01*
G37*
%LPD*%
D10*
X44291625Y57979309D02*
X44020691Y57979309D01*
X44020691Y57076200D01*
X44562556Y57076200D01*
X44571285Y57076305D01*
X44580009Y57076622D01*
X44588723Y57077149D01*
X44597421Y57077886D01*
X44606099Y57078834D01*
X44614752Y57079991D01*
X44623374Y57081356D01*
X44631961Y57082930D01*
X44640507Y57084711D01*
X44649007Y57086697D01*
X44657457Y57088888D01*
X44665852Y57091283D01*
X44674187Y57093881D01*
X44682456Y57096678D01*
X44690655Y57099675D01*
X44698779Y57102869D01*
X44706824Y57106258D01*
X44714785Y57109841D01*
X44722656Y57113615D01*
X44730434Y57117578D01*
X44738115Y57121728D01*
X44745692Y57126063D01*
X44753163Y57130579D01*
X44760522Y57135274D01*
X44767766Y57140146D01*
X44774890Y57145191D01*
X44781890Y57150408D01*
X44788762Y57155791D01*
X44795501Y57161340D01*
X44802105Y57167049D01*
X44808569Y57172916D01*
X44814889Y57178938D01*
X44821062Y57185111D01*
X44827084Y57191431D01*
X44832951Y57197895D01*
X44838660Y57204499D01*
X44844209Y57211238D01*
X44849592Y57218110D01*
X44854809Y57225110D01*
X44859854Y57232234D01*
X44864726Y57239478D01*
X44869421Y57246837D01*
X44873937Y57254308D01*
X44878272Y57261885D01*
X44882422Y57269566D01*
X44886385Y57277344D01*
X44890159Y57285215D01*
X44893742Y57293176D01*
X44897131Y57301221D01*
X44900325Y57309345D01*
X44903322Y57317544D01*
X44906119Y57325813D01*
X44908717Y57334148D01*
X44911112Y57342543D01*
X44913303Y57350993D01*
X44915289Y57359493D01*
X44917070Y57368039D01*
X44918644Y57376626D01*
X44920009Y57385248D01*
X44921166Y57393901D01*
X44922114Y57402579D01*
X44922851Y57411277D01*
X44923378Y57419991D01*
X44923695Y57428715D01*
X44923800Y57437444D01*
X44923800Y58340553D01*
X44923695Y58349282D01*
X44923378Y58358006D01*
X44922851Y58366720D01*
X44922114Y58375418D01*
X44921166Y58384096D01*
X44920009Y58392749D01*
X44918644Y58401371D01*
X44917070Y58409958D01*
X44915289Y58418504D01*
X44913303Y58427004D01*
X44911112Y58435454D01*
X44908717Y58443849D01*
X44906119Y58452184D01*
X44903322Y58460453D01*
X44900325Y58468652D01*
X44897131Y58476776D01*
X44893742Y58484821D01*
X44890159Y58492782D01*
X44886385Y58500653D01*
X44882422Y58508431D01*
X44878272Y58516112D01*
X44873937Y58523689D01*
X44869421Y58531160D01*
X44864726Y58538519D01*
X44859854Y58545763D01*
X44854809Y58552887D01*
X44849592Y58559887D01*
X44844209Y58566759D01*
X44838660Y58573498D01*
X44832951Y58580102D01*
X44827084Y58586566D01*
X44821062Y58592886D01*
X44814889Y58599059D01*
X44808569Y58605081D01*
X44802105Y58610948D01*
X44795501Y58616657D01*
X44788762Y58622206D01*
X44781890Y58627589D01*
X44774890Y58632806D01*
X44767766Y58637851D01*
X44760522Y58642723D01*
X44753163Y58647418D01*
X44745692Y58651934D01*
X44738115Y58656269D01*
X44730434Y58660419D01*
X44722656Y58664382D01*
X44714785Y58668156D01*
X44706824Y58671739D01*
X44698779Y58675128D01*
X44690655Y58678322D01*
X44682456Y58681319D01*
X44674187Y58684116D01*
X44665852Y58686714D01*
X44657457Y58689109D01*
X44649007Y58691300D01*
X44640507Y58693286D01*
X44631961Y58695067D01*
X44623374Y58696641D01*
X44614752Y58698006D01*
X44606099Y58699163D01*
X44597421Y58700111D01*
X44588723Y58700848D01*
X44580009Y58701375D01*
X44571285Y58701692D01*
X44562556Y58701797D01*
X44562556Y58701800D02*
X44020691Y58701800D01*
X43256466Y58701800D02*
X43256466Y57076200D01*
X42353356Y57076200D02*
X43256466Y58701800D01*
X42353356Y58701800D02*
X42353356Y57076200D01*
X41589131Y57076200D02*
X41589131Y58701800D01*
X41137578Y58701800D01*
X41126667Y58701668D01*
X41115762Y58701273D01*
X41104870Y58700614D01*
X41093997Y58699692D01*
X41083149Y58698508D01*
X41072333Y58697062D01*
X41061555Y58695355D01*
X41050822Y58693388D01*
X41040139Y58691162D01*
X41029514Y58688679D01*
X41018951Y58685939D01*
X41008458Y58682946D01*
X40998040Y58679699D01*
X40987703Y58676202D01*
X40977454Y58672456D01*
X40967299Y58668464D01*
X40957243Y58664227D01*
X40947292Y58659749D01*
X40937452Y58655031D01*
X40927729Y58650077D01*
X40918129Y58644890D01*
X40908657Y58639472D01*
X40899319Y58633826D01*
X40890120Y58627957D01*
X40881065Y58621867D01*
X40872160Y58615560D01*
X40863410Y58609040D01*
X40854820Y58602311D01*
X40846396Y58595375D01*
X40838141Y58588239D01*
X40830061Y58580904D01*
X40822161Y58573377D01*
X40814445Y58565661D01*
X40806918Y58557761D01*
X40799583Y58549681D01*
X40792447Y58541426D01*
X40785511Y58533002D01*
X40778782Y58524412D01*
X40772262Y58515662D01*
X40765955Y58506757D01*
X40759865Y58497702D01*
X40753996Y58488503D01*
X40748350Y58479165D01*
X40742932Y58469693D01*
X40737745Y58460093D01*
X40732791Y58450370D01*
X40728073Y58440530D01*
X40723595Y58430579D01*
X40719358Y58420523D01*
X40715366Y58410368D01*
X40711620Y58400119D01*
X40708123Y58389782D01*
X40704876Y58379364D01*
X40701883Y58368871D01*
X40699143Y58358308D01*
X40696660Y58347683D01*
X40694434Y58337000D01*
X40692467Y58326267D01*
X40690760Y58315489D01*
X40689314Y58304673D01*
X40688130Y58293825D01*
X40687208Y58282952D01*
X40686549Y58272060D01*
X40686154Y58261155D01*
X40686022Y58250244D01*
X40686022Y57527753D01*
X40686154Y57516842D01*
X40686549Y57505937D01*
X40687208Y57495045D01*
X40688130Y57484172D01*
X40689314Y57473324D01*
X40690760Y57462508D01*
X40692467Y57451730D01*
X40694434Y57440997D01*
X40696660Y57430314D01*
X40699143Y57419689D01*
X40701883Y57409126D01*
X40704876Y57398633D01*
X40708123Y57388215D01*
X40711620Y57377878D01*
X40715366Y57367629D01*
X40719358Y57357474D01*
X40723595Y57347418D01*
X40728073Y57337467D01*
X40732791Y57327627D01*
X40737745Y57317904D01*
X40742932Y57308304D01*
X40748350Y57298832D01*
X40753996Y57289494D01*
X40759865Y57280295D01*
X40765955Y57271240D01*
X40772262Y57262335D01*
X40778782Y57253585D01*
X40785511Y57244995D01*
X40792447Y57236571D01*
X40799583Y57228316D01*
X40806918Y57220236D01*
X40814445Y57212336D01*
X40822161Y57204620D01*
X40830061Y57197093D01*
X40838141Y57189758D01*
X40846396Y57182622D01*
X40854820Y57175686D01*
X40863410Y57168957D01*
X40872160Y57162437D01*
X40881065Y57156130D01*
X40890120Y57150040D01*
X40899319Y57144171D01*
X40908657Y57138525D01*
X40918129Y57133107D01*
X40927729Y57127920D01*
X40937452Y57122966D01*
X40947292Y57118248D01*
X40957243Y57113770D01*
X40967299Y57109533D01*
X40977454Y57105541D01*
X40987703Y57101795D01*
X40998040Y57098298D01*
X41008458Y57095051D01*
X41018951Y57092058D01*
X41029514Y57089318D01*
X41040139Y57086835D01*
X41050822Y57084609D01*
X41061555Y57082642D01*
X41072333Y57080935D01*
X41083149Y57079489D01*
X41093997Y57078305D01*
X41104870Y57077383D01*
X41115762Y57076724D01*
X41126667Y57076329D01*
X41137578Y57076197D01*
X41137578Y57076200D02*
X41589131Y57076200D01*
X44020691Y-3020691D02*
X44291625Y-3020691D01*
X44020691Y-3020691D02*
X44020691Y-3923800D01*
X44562556Y-3923800D01*
X44571285Y-3923695D01*
X44580009Y-3923378D01*
X44588723Y-3922851D01*
X44597421Y-3922114D01*
X44606099Y-3921166D01*
X44614752Y-3920009D01*
X44623374Y-3918644D01*
X44631961Y-3917070D01*
X44640507Y-3915289D01*
X44649007Y-3913303D01*
X44657457Y-3911112D01*
X44665852Y-3908717D01*
X44674187Y-3906119D01*
X44682456Y-3903322D01*
X44690655Y-3900325D01*
X44698779Y-3897131D01*
X44706824Y-3893742D01*
X44714785Y-3890159D01*
X44722656Y-3886385D01*
X44730434Y-3882422D01*
X44738115Y-3878272D01*
X44745692Y-3873937D01*
X44753163Y-3869421D01*
X44760522Y-3864726D01*
X44767766Y-3859854D01*
X44774890Y-3854809D01*
X44781890Y-3849592D01*
X44788762Y-3844209D01*
X44795501Y-3838660D01*
X44802105Y-3832951D01*
X44808569Y-3827084D01*
X44814889Y-3821062D01*
X44821062Y-3814889D01*
X44827084Y-3808569D01*
X44832951Y-3802105D01*
X44838660Y-3795501D01*
X44844209Y-3788762D01*
X44849592Y-3781890D01*
X44854809Y-3774890D01*
X44859854Y-3767766D01*
X44864726Y-3760522D01*
X44869421Y-3753163D01*
X44873937Y-3745692D01*
X44878272Y-3738115D01*
X44882422Y-3730434D01*
X44886385Y-3722656D01*
X44890159Y-3714785D01*
X44893742Y-3706824D01*
X44897131Y-3698779D01*
X44900325Y-3690655D01*
X44903322Y-3682456D01*
X44906119Y-3674187D01*
X44908717Y-3665852D01*
X44911112Y-3657457D01*
X44913303Y-3649007D01*
X44915289Y-3640507D01*
X44917070Y-3631961D01*
X44918644Y-3623374D01*
X44920009Y-3614752D01*
X44921166Y-3606099D01*
X44922114Y-3597421D01*
X44922851Y-3588723D01*
X44923378Y-3580009D01*
X44923695Y-3571285D01*
X44923800Y-3562556D01*
X44923800Y-2659447D01*
X44923691Y-2650582D01*
X44923365Y-2641721D01*
X44922821Y-2632872D01*
X44922061Y-2624039D01*
X44921083Y-2615227D01*
X44919890Y-2606441D01*
X44918482Y-2597688D01*
X44916859Y-2588971D01*
X44915023Y-2580298D01*
X44912974Y-2571671D01*
X44910714Y-2563098D01*
X44908245Y-2554583D01*
X44905567Y-2546131D01*
X44902683Y-2537747D01*
X44899594Y-2529436D01*
X44896302Y-2521204D01*
X44892809Y-2513055D01*
X44889117Y-2504994D01*
X44885228Y-2497027D01*
X44881145Y-2489157D01*
X44876870Y-2481389D01*
X44872406Y-2473729D01*
X44867755Y-2466181D01*
X44862920Y-2458749D01*
X44857904Y-2451438D01*
X44852710Y-2444253D01*
X44847342Y-2437197D01*
X44841802Y-2430275D01*
X44836094Y-2423490D01*
X44830221Y-2416848D01*
X44824186Y-2410353D01*
X44817995Y-2404007D01*
X44811649Y-2397815D01*
X44805153Y-2391781D01*
X44798511Y-2385908D01*
X44791727Y-2380199D01*
X44784805Y-2374659D01*
X44777749Y-2369290D01*
X44770564Y-2364097D01*
X44763253Y-2359081D01*
X44755821Y-2354246D01*
X44748273Y-2349595D01*
X44740613Y-2345130D01*
X44732846Y-2340855D01*
X44724976Y-2336772D01*
X44717008Y-2332883D01*
X44708948Y-2329191D01*
X44700799Y-2325697D01*
X44692567Y-2322405D01*
X44684256Y-2319316D01*
X44675872Y-2316432D01*
X44667420Y-2313754D01*
X44658905Y-2311284D01*
X44650332Y-2309024D01*
X44641706Y-2306976D01*
X44633032Y-2305139D01*
X44624315Y-2303516D01*
X44615562Y-2302108D01*
X44606777Y-2300914D01*
X44597965Y-2299937D01*
X44589131Y-2299176D01*
X44580282Y-2298632D01*
X44571422Y-2298306D01*
X44562556Y-2298197D01*
X44562556Y-2298200D02*
X44020691Y-2298200D01*
X43256466Y-2298200D02*
X43256466Y-3923800D01*
X42353356Y-3923800D02*
X43256466Y-2298200D01*
X42353356Y-2298200D02*
X42353356Y-3923800D01*
X41589131Y-3923800D02*
X41589131Y-2298200D01*
X41137578Y-2298200D01*
X41126667Y-2298332D01*
X41115762Y-2298727D01*
X41104870Y-2299386D01*
X41093997Y-2300308D01*
X41083149Y-2301492D01*
X41072333Y-2302938D01*
X41061555Y-2304645D01*
X41050822Y-2306612D01*
X41040139Y-2308838D01*
X41029514Y-2311321D01*
X41018951Y-2314061D01*
X41008458Y-2317054D01*
X40998040Y-2320301D01*
X40987703Y-2323798D01*
X40977454Y-2327544D01*
X40967299Y-2331536D01*
X40957243Y-2335773D01*
X40947292Y-2340251D01*
X40937452Y-2344969D01*
X40927729Y-2349923D01*
X40918129Y-2355110D01*
X40908657Y-2360528D01*
X40899319Y-2366174D01*
X40890120Y-2372043D01*
X40881065Y-2378133D01*
X40872160Y-2384440D01*
X40863410Y-2390960D01*
X40854820Y-2397689D01*
X40846396Y-2404625D01*
X40838141Y-2411761D01*
X40830061Y-2419096D01*
X40822161Y-2426623D01*
X40814445Y-2434339D01*
X40806918Y-2442239D01*
X40799583Y-2450319D01*
X40792447Y-2458574D01*
X40785511Y-2466998D01*
X40778782Y-2475588D01*
X40772262Y-2484338D01*
X40765955Y-2493243D01*
X40759865Y-2502298D01*
X40753996Y-2511497D01*
X40748350Y-2520835D01*
X40742932Y-2530307D01*
X40737745Y-2539907D01*
X40732791Y-2549630D01*
X40728073Y-2559470D01*
X40723595Y-2569421D01*
X40719358Y-2579477D01*
X40715366Y-2589632D01*
X40711620Y-2599881D01*
X40708123Y-2610218D01*
X40704876Y-2620636D01*
X40701883Y-2631129D01*
X40699143Y-2641692D01*
X40696660Y-2652317D01*
X40694434Y-2663000D01*
X40692467Y-2673733D01*
X40690760Y-2684511D01*
X40689314Y-2695327D01*
X40688130Y-2706175D01*
X40687208Y-2717048D01*
X40686549Y-2727940D01*
X40686154Y-2738845D01*
X40686022Y-2749756D01*
X40686022Y-3472247D01*
X40686154Y-3483158D01*
X40686549Y-3494063D01*
X40687208Y-3504955D01*
X40688130Y-3515828D01*
X40689314Y-3526676D01*
X40690760Y-3537492D01*
X40692467Y-3548269D01*
X40694434Y-3559003D01*
X40696660Y-3569685D01*
X40699143Y-3580311D01*
X40701883Y-3590874D01*
X40704876Y-3601367D01*
X40708123Y-3611785D01*
X40711620Y-3622122D01*
X40715366Y-3632371D01*
X40719358Y-3642526D01*
X40723595Y-3652582D01*
X40728074Y-3662533D01*
X40732791Y-3672372D01*
X40737745Y-3682095D01*
X40742933Y-3691695D01*
X40748351Y-3701167D01*
X40753996Y-3710505D01*
X40759865Y-3719705D01*
X40765955Y-3728759D01*
X40772262Y-3737664D01*
X40778782Y-3746414D01*
X40785512Y-3755004D01*
X40792447Y-3763429D01*
X40799584Y-3771683D01*
X40806918Y-3779763D01*
X40814445Y-3787663D01*
X40822161Y-3795379D01*
X40830061Y-3802906D01*
X40838141Y-3810240D01*
X40846396Y-3817377D01*
X40854821Y-3824312D01*
X40863410Y-3831042D01*
X40872160Y-3837562D01*
X40881065Y-3843869D01*
X40890120Y-3849959D01*
X40899319Y-3855828D01*
X40908658Y-3861473D01*
X40918130Y-3866891D01*
X40927730Y-3872078D01*
X40937453Y-3877032D01*
X40947292Y-3881750D01*
X40957243Y-3886228D01*
X40967299Y-3890465D01*
X40977454Y-3894457D01*
X40987703Y-3898203D01*
X40998040Y-3901700D01*
X41008458Y-3904947D01*
X41018951Y-3907940D01*
X41029514Y-3910679D01*
X41040140Y-3913162D01*
X41050822Y-3915388D01*
X41061556Y-3917355D01*
X41072333Y-3919062D01*
X41083149Y-3920508D01*
X41093997Y-3921692D01*
X41104870Y-3922614D01*
X41115762Y-3923273D01*
X41126667Y-3923668D01*
X41137578Y-3923800D01*
X41589131Y-3923800D01*
X83020691Y25979309D02*
X83291625Y25979309D01*
X83020691Y25979309D02*
X83020691Y25076200D01*
X83562556Y25076200D01*
X83571285Y25076305D01*
X83580009Y25076622D01*
X83588723Y25077149D01*
X83597421Y25077886D01*
X83606099Y25078834D01*
X83614752Y25079991D01*
X83623374Y25081356D01*
X83631961Y25082930D01*
X83640507Y25084711D01*
X83649007Y25086697D01*
X83657457Y25088888D01*
X83665852Y25091283D01*
X83674187Y25093881D01*
X83682456Y25096678D01*
X83690655Y25099675D01*
X83698779Y25102869D01*
X83706824Y25106258D01*
X83714785Y25109841D01*
X83722656Y25113615D01*
X83730434Y25117578D01*
X83738115Y25121728D01*
X83745692Y25126063D01*
X83753163Y25130579D01*
X83760522Y25135274D01*
X83767766Y25140146D01*
X83774890Y25145191D01*
X83781890Y25150408D01*
X83788762Y25155791D01*
X83795501Y25161340D01*
X83802105Y25167049D01*
X83808569Y25172916D01*
X83814889Y25178938D01*
X83821062Y25185111D01*
X83827084Y25191431D01*
X83832951Y25197895D01*
X83838660Y25204499D01*
X83844209Y25211238D01*
X83849592Y25218110D01*
X83854809Y25225110D01*
X83859854Y25232234D01*
X83864726Y25239478D01*
X83869421Y25246837D01*
X83873937Y25254308D01*
X83878272Y25261885D01*
X83882422Y25269566D01*
X83886385Y25277344D01*
X83890159Y25285215D01*
X83893742Y25293176D01*
X83897131Y25301221D01*
X83900325Y25309345D01*
X83903322Y25317544D01*
X83906119Y25325813D01*
X83908717Y25334148D01*
X83911112Y25342543D01*
X83913303Y25350993D01*
X83915289Y25359493D01*
X83917070Y25368039D01*
X83918644Y25376626D01*
X83920009Y25385248D01*
X83921166Y25393901D01*
X83922114Y25402579D01*
X83922851Y25411277D01*
X83923378Y25419991D01*
X83923695Y25428715D01*
X83923800Y25437444D01*
X83923800Y26340553D01*
X83923695Y26349282D01*
X83923378Y26358006D01*
X83922851Y26366720D01*
X83922114Y26375418D01*
X83921166Y26384096D01*
X83920009Y26392749D01*
X83918644Y26401371D01*
X83917070Y26409958D01*
X83915289Y26418504D01*
X83913303Y26427004D01*
X83911112Y26435454D01*
X83908717Y26443849D01*
X83906119Y26452184D01*
X83903322Y26460453D01*
X83900325Y26468652D01*
X83897131Y26476776D01*
X83893742Y26484821D01*
X83890159Y26492782D01*
X83886385Y26500653D01*
X83882422Y26508431D01*
X83878272Y26516112D01*
X83873937Y26523689D01*
X83869421Y26531160D01*
X83864726Y26538519D01*
X83859854Y26545763D01*
X83854809Y26552887D01*
X83849592Y26559887D01*
X83844209Y26566759D01*
X83838660Y26573498D01*
X83832951Y26580102D01*
X83827084Y26586566D01*
X83821062Y26592886D01*
X83814889Y26599059D01*
X83808569Y26605081D01*
X83802105Y26610948D01*
X83795501Y26616657D01*
X83788762Y26622206D01*
X83781890Y26627589D01*
X83774890Y26632806D01*
X83767766Y26637851D01*
X83760522Y26642723D01*
X83753163Y26647418D01*
X83745692Y26651934D01*
X83738115Y26656269D01*
X83730434Y26660419D01*
X83722656Y26664382D01*
X83714785Y26668156D01*
X83706824Y26671739D01*
X83698779Y26675128D01*
X83690655Y26678322D01*
X83682456Y26681319D01*
X83674187Y26684116D01*
X83665852Y26686714D01*
X83657457Y26689109D01*
X83649007Y26691300D01*
X83640507Y26693286D01*
X83631961Y26695067D01*
X83623374Y26696641D01*
X83614752Y26698006D01*
X83606099Y26699163D01*
X83597421Y26700111D01*
X83588723Y26700848D01*
X83580009Y26701375D01*
X83571285Y26701692D01*
X83562556Y26701797D01*
X83562556Y26701800D02*
X83020691Y26701800D01*
X82256466Y26701800D02*
X82256466Y25076200D01*
X81353356Y25076200D02*
X82256466Y26701800D01*
X81353356Y26701800D02*
X81353356Y25076200D01*
X80589131Y25076200D02*
X80589131Y26701800D01*
X80137578Y26701800D01*
X80126667Y26701668D01*
X80115762Y26701273D01*
X80104870Y26700614D01*
X80093997Y26699692D01*
X80083149Y26698508D01*
X80072333Y26697062D01*
X80061555Y26695355D01*
X80050822Y26693388D01*
X80040139Y26691162D01*
X80029514Y26688679D01*
X80018951Y26685939D01*
X80008458Y26682946D01*
X79998040Y26679699D01*
X79987703Y26676202D01*
X79977454Y26672456D01*
X79967299Y26668464D01*
X79957243Y26664227D01*
X79947292Y26659749D01*
X79937452Y26655031D01*
X79927729Y26650077D01*
X79918129Y26644890D01*
X79908657Y26639472D01*
X79899319Y26633826D01*
X79890120Y26627957D01*
X79881065Y26621867D01*
X79872160Y26615560D01*
X79863410Y26609040D01*
X79854820Y26602311D01*
X79846396Y26595375D01*
X79838141Y26588239D01*
X79830061Y26580904D01*
X79822161Y26573377D01*
X79814445Y26565661D01*
X79806918Y26557761D01*
X79799583Y26549681D01*
X79792447Y26541426D01*
X79785511Y26533002D01*
X79778782Y26524412D01*
X79772262Y26515662D01*
X79765955Y26506757D01*
X79759865Y26497702D01*
X79753996Y26488503D01*
X79748350Y26479165D01*
X79742932Y26469693D01*
X79737745Y26460093D01*
X79732791Y26450370D01*
X79728073Y26440530D01*
X79723595Y26430579D01*
X79719358Y26420523D01*
X79715366Y26410368D01*
X79711620Y26400119D01*
X79708123Y26389782D01*
X79704876Y26379364D01*
X79701883Y26368871D01*
X79699143Y26358308D01*
X79696660Y26347683D01*
X79694434Y26337000D01*
X79692467Y26326267D01*
X79690760Y26315489D01*
X79689314Y26304673D01*
X79688130Y26293825D01*
X79687208Y26282952D01*
X79686549Y26272060D01*
X79686154Y26261155D01*
X79686022Y26250244D01*
X79686022Y25527753D01*
X79686154Y25516842D01*
X79686549Y25505937D01*
X79687208Y25495045D01*
X79688130Y25484172D01*
X79689314Y25473324D01*
X79690760Y25462508D01*
X79692467Y25451730D01*
X79694434Y25440997D01*
X79696660Y25430314D01*
X79699143Y25419689D01*
X79701883Y25409126D01*
X79704876Y25398633D01*
X79708123Y25388215D01*
X79711620Y25377878D01*
X79715366Y25367629D01*
X79719358Y25357474D01*
X79723595Y25347418D01*
X79728073Y25337467D01*
X79732791Y25327627D01*
X79737745Y25317904D01*
X79742932Y25308304D01*
X79748350Y25298832D01*
X79753996Y25289494D01*
X79759865Y25280295D01*
X79765955Y25271240D01*
X79772262Y25262335D01*
X79778782Y25253585D01*
X79785511Y25244995D01*
X79792447Y25236571D01*
X79799583Y25228316D01*
X79806918Y25220236D01*
X79814445Y25212336D01*
X79822161Y25204620D01*
X79830061Y25197093D01*
X79838141Y25189758D01*
X79846396Y25182622D01*
X79854820Y25175686D01*
X79863410Y25168957D01*
X79872160Y25162437D01*
X79881065Y25156130D01*
X79890120Y25150040D01*
X79899319Y25144171D01*
X79908657Y25138525D01*
X79918129Y25133107D01*
X79927729Y25127920D01*
X79937452Y25122966D01*
X79947292Y25118248D01*
X79957243Y25113770D01*
X79967299Y25109533D01*
X79977454Y25105541D01*
X79987703Y25101795D01*
X79998040Y25098298D01*
X80008458Y25095051D01*
X80018951Y25092058D01*
X80029514Y25089318D01*
X80040139Y25086835D01*
X80050822Y25084609D01*
X80061555Y25082642D01*
X80072333Y25080935D01*
X80083149Y25079489D01*
X80093997Y25078305D01*
X80104870Y25077383D01*
X80115762Y25076724D01*
X80126667Y25076329D01*
X80137578Y25076197D01*
X80137578Y25076200D02*
X80589131Y25076200D01*
X-708375Y21979309D02*
X-979309Y21979309D01*
X-979309Y21076200D01*
X-437444Y21076200D01*
X-428715Y21076305D01*
X-419991Y21076622D01*
X-411277Y21077149D01*
X-402579Y21077886D01*
X-393901Y21078834D01*
X-385248Y21079991D01*
X-376626Y21081356D01*
X-368039Y21082930D01*
X-359493Y21084711D01*
X-350993Y21086697D01*
X-342543Y21088888D01*
X-334148Y21091283D01*
X-325813Y21093881D01*
X-317544Y21096678D01*
X-309345Y21099675D01*
X-301221Y21102869D01*
X-293176Y21106258D01*
X-285215Y21109841D01*
X-277344Y21113615D01*
X-269566Y21117578D01*
X-261885Y21121728D01*
X-254308Y21126063D01*
X-246837Y21130579D01*
X-239478Y21135274D01*
X-232234Y21140146D01*
X-225110Y21145191D01*
X-218110Y21150408D01*
X-211238Y21155791D01*
X-204499Y21161340D01*
X-197895Y21167049D01*
X-191431Y21172916D01*
X-185111Y21178938D01*
X-178938Y21185111D01*
X-172916Y21191431D01*
X-167049Y21197895D01*
X-161340Y21204499D01*
X-155791Y21211238D01*
X-150408Y21218110D01*
X-145191Y21225110D01*
X-140146Y21232234D01*
X-135274Y21239478D01*
X-130579Y21246837D01*
X-126063Y21254308D01*
X-121728Y21261885D01*
X-117578Y21269566D01*
X-113615Y21277344D01*
X-109841Y21285215D01*
X-106258Y21293176D01*
X-102869Y21301221D01*
X-99675Y21309345D01*
X-96678Y21317544D01*
X-93881Y21325813D01*
X-91283Y21334148D01*
X-88888Y21342543D01*
X-86697Y21350993D01*
X-84711Y21359493D01*
X-82930Y21368039D01*
X-81356Y21376626D01*
X-79991Y21385248D01*
X-78834Y21393901D01*
X-77886Y21402579D01*
X-77149Y21411277D01*
X-76622Y21419991D01*
X-76305Y21428715D01*
X-76200Y21437444D01*
X-76200Y22340553D01*
X-76309Y22349418D01*
X-76635Y22358278D01*
X-77179Y22367128D01*
X-77939Y22375961D01*
X-78917Y22384773D01*
X-80110Y22393559D01*
X-81518Y22402312D01*
X-83141Y22411028D01*
X-84977Y22419702D01*
X-87026Y22428328D01*
X-89286Y22436902D01*
X-91755Y22445417D01*
X-94433Y22453869D01*
X-97317Y22462253D01*
X-100406Y22470563D01*
X-103698Y22478796D01*
X-107191Y22486944D01*
X-110883Y22495005D01*
X-114772Y22502973D01*
X-118855Y22510843D01*
X-123130Y22518610D01*
X-127595Y22526270D01*
X-132246Y22533818D01*
X-137080Y22541250D01*
X-142096Y22548561D01*
X-147290Y22555747D01*
X-152658Y22562803D01*
X-158198Y22569725D01*
X-163907Y22576509D01*
X-169780Y22583151D01*
X-175814Y22589646D01*
X-182006Y22595992D01*
X-188351Y22602184D01*
X-194847Y22608218D01*
X-201489Y22614091D01*
X-208273Y22619800D01*
X-215195Y22625340D01*
X-222251Y22630708D01*
X-229436Y22635902D01*
X-236747Y22640918D01*
X-244179Y22645753D01*
X-251727Y22650404D01*
X-259387Y22654868D01*
X-267154Y22659143D01*
X-275024Y22663227D01*
X-282992Y22667115D01*
X-291053Y22670808D01*
X-299202Y22674301D01*
X-307434Y22677593D01*
X-315744Y22680682D01*
X-324128Y22683566D01*
X-332580Y22686244D01*
X-341095Y22688714D01*
X-349669Y22690973D01*
X-358295Y22693022D01*
X-366969Y22694858D01*
X-375685Y22696481D01*
X-384438Y22697890D01*
X-393224Y22699083D01*
X-402036Y22700060D01*
X-410869Y22700821D01*
X-419718Y22701365D01*
X-428578Y22701691D01*
X-437444Y22701800D01*
X-979309Y22701800D01*
X-1743534Y22701800D02*
X-1743534Y21076200D01*
X-2646644Y21076200D02*
X-1743534Y22701800D01*
X-2646644Y22701800D02*
X-2646644Y21076200D01*
X-3410869Y21076200D02*
X-3410869Y22701800D01*
X-3862422Y22701800D01*
X-3873333Y22701668D01*
X-3884238Y22701273D01*
X-3895130Y22700614D01*
X-3906003Y22699692D01*
X-3916851Y22698508D01*
X-3927667Y22697062D01*
X-3938445Y22695355D01*
X-3949178Y22693388D01*
X-3959861Y22691162D01*
X-3970486Y22688679D01*
X-3981049Y22685939D01*
X-3991542Y22682946D01*
X-4001960Y22679699D01*
X-4012297Y22676202D01*
X-4022546Y22672456D01*
X-4032701Y22668464D01*
X-4042757Y22664227D01*
X-4052708Y22659749D01*
X-4062548Y22655031D01*
X-4072271Y22650077D01*
X-4081871Y22644890D01*
X-4091343Y22639472D01*
X-4100681Y22633826D01*
X-4109880Y22627957D01*
X-4118935Y22621867D01*
X-4127840Y22615560D01*
X-4136590Y22609040D01*
X-4145180Y22602311D01*
X-4153604Y22595375D01*
X-4161859Y22588239D01*
X-4169939Y22580904D01*
X-4177839Y22573377D01*
X-4185555Y22565661D01*
X-4193082Y22557761D01*
X-4200417Y22549681D01*
X-4207553Y22541426D01*
X-4214489Y22533002D01*
X-4221218Y22524412D01*
X-4227738Y22515662D01*
X-4234045Y22506757D01*
X-4240135Y22497702D01*
X-4246004Y22488503D01*
X-4251650Y22479165D01*
X-4257068Y22469693D01*
X-4262255Y22460093D01*
X-4267209Y22450370D01*
X-4271927Y22440530D01*
X-4276405Y22430579D01*
X-4280642Y22420523D01*
X-4284634Y22410368D01*
X-4288380Y22400119D01*
X-4291877Y22389782D01*
X-4295124Y22379364D01*
X-4298117Y22368871D01*
X-4300857Y22358308D01*
X-4303340Y22347683D01*
X-4305566Y22337000D01*
X-4307533Y22326267D01*
X-4309240Y22315489D01*
X-4310686Y22304673D01*
X-4311870Y22293825D01*
X-4312792Y22282952D01*
X-4313451Y22272060D01*
X-4313846Y22261155D01*
X-4313978Y22250244D01*
X-4313978Y21527753D01*
X-4313846Y21516842D01*
X-4313451Y21505937D01*
X-4312792Y21495045D01*
X-4311870Y21484172D01*
X-4310686Y21473324D01*
X-4309240Y21462508D01*
X-4307533Y21451731D01*
X-4305566Y21440997D01*
X-4303340Y21430315D01*
X-4300857Y21419689D01*
X-4298117Y21409126D01*
X-4295124Y21398633D01*
X-4291877Y21388215D01*
X-4288380Y21377878D01*
X-4284634Y21367629D01*
X-4280642Y21357474D01*
X-4276405Y21347418D01*
X-4271926Y21337467D01*
X-4267209Y21327628D01*
X-4262255Y21317905D01*
X-4257067Y21308305D01*
X-4251649Y21298833D01*
X-4246004Y21289495D01*
X-4240135Y21280295D01*
X-4234045Y21271241D01*
X-4227738Y21262336D01*
X-4221218Y21253586D01*
X-4214488Y21244996D01*
X-4207553Y21236571D01*
X-4200416Y21228317D01*
X-4193082Y21220237D01*
X-4185555Y21212337D01*
X-4177839Y21204621D01*
X-4169939Y21197094D01*
X-4161859Y21189760D01*
X-4153604Y21182623D01*
X-4145179Y21175688D01*
X-4136590Y21168958D01*
X-4127840Y21162438D01*
X-4118935Y21156131D01*
X-4109880Y21150041D01*
X-4100681Y21144172D01*
X-4091342Y21138527D01*
X-4081870Y21133109D01*
X-4072270Y21127922D01*
X-4062547Y21122968D01*
X-4052708Y21118250D01*
X-4042757Y21113772D01*
X-4032701Y21109535D01*
X-4022546Y21105543D01*
X-4012297Y21101797D01*
X-4001960Y21098300D01*
X-3991542Y21095053D01*
X-3981049Y21092060D01*
X-3970486Y21089321D01*
X-3959860Y21086838D01*
X-3949178Y21084612D01*
X-3938444Y21082645D01*
X-3927667Y21080938D01*
X-3916851Y21079492D01*
X-3906003Y21078308D01*
X-3895130Y21077386D01*
X-3884238Y21076727D01*
X-3873333Y21076332D01*
X-3862422Y21076200D01*
X-3410869Y21076200D01*
D11*
X16460000Y19750000D03*
X19000000Y19750000D03*
X21540000Y19750000D03*
X16460000Y35750000D03*
X19000000Y35750000D03*
X21540000Y35750000D03*
X16460000Y31750000D03*
X19000000Y31750000D03*
X21540000Y31750000D03*
X16460000Y27750000D03*
X19000000Y27750000D03*
X21540000Y27750000D03*
D12*
X21520000Y23500000D03*
X18980000Y23500000D03*
D13*
X7000000Y43000000D03*
X7000000Y12000000D03*
X71930000Y18860000D03*
X73930000Y18860000D03*
X71930000Y12360000D03*
X73930000Y12360000D03*
X26750000Y10750000D03*
X18500000Y13500000D03*
X18500000Y16000000D03*
X45000000Y14000000D03*
X48000000Y14000000D03*
X51000000Y14000000D03*
X54000000Y14000000D03*
X57000000Y14000000D03*
X60000000Y14000000D03*
X71000000Y32250000D03*
X71000000Y34250000D03*
X71000000Y29750000D03*
X71000000Y27750000D03*
X64750000Y34750000D03*
X64750000Y27500000D03*
X60000000Y27000000D03*
X71000000Y37750000D03*
X71000000Y40000000D03*
X57000000Y27000000D03*
X54000000Y27000000D03*
X51000000Y27000000D03*
X48000000Y27000000D03*
X45000000Y27000000D03*
D14*
X22250000Y11500000D03*
X23250000Y8750000D03*
X52000000Y21000000D03*
X66167000Y15621000D03*
X19250000Y44000000D03*
X24250000Y44000000D03*
X29750000Y44000000D03*
X34750000Y44000000D03*
X40250000Y44000000D03*
X45250000Y44000000D03*
X50750000Y44000000D03*
X55750000Y44000000D03*
X61250000Y44000000D03*
X66250000Y44000000D03*
D15*
X73000000Y48000000D03*
X73000000Y7000000D03*
D14*
X45000000Y51000000D03*
X45000000Y4000000D03*
X76000000Y27500000D03*
X50000000Y4000000D03*
X55000000Y4000000D03*
X60000000Y4000000D03*
X65000000Y4000000D03*
X70000000Y4000000D03*
X40000000Y4000000D03*
X35000000Y4000000D03*
X30000000Y4000000D03*
X25000000Y4000000D03*
X20000000Y4000000D03*
X15000000Y4000000D03*
X50000000Y51000000D03*
X55000000Y51000000D03*
X60000000Y51000000D03*
X65000000Y51000000D03*
X70000000Y51000000D03*
X40000000Y51000000D03*
X35000000Y51000000D03*
X30000000Y51000000D03*
X25000000Y51000000D03*
X20000000Y51000000D03*
X15000000Y51000000D03*
X76000000Y32500000D03*
X76000000Y37500000D03*
X76000000Y42500000D03*
X76000000Y22500000D03*
X63627000Y16256000D03*
X76000000Y12500000D03*
X13500000Y37000000D03*
X14500000Y37000000D03*
X13500000Y36000000D03*
X14500000Y36000000D03*
X13500000Y38000000D03*
X14500000Y38000000D03*
X13500000Y18000000D03*
X13500000Y17000000D03*
X14500000Y17000000D03*
X14500000Y18000000D03*
X14500000Y19000000D03*
X13500000Y19000000D03*
X14000000Y27500000D03*
X14000000Y32500000D03*
X14000000Y42500000D03*
X14000000Y22500000D03*
X14000000Y12500000D03*
X11750000Y6000000D03*
X11750000Y7250000D03*
X11750000Y8500000D03*
X18250000Y5750000D03*
X19750000Y5750000D03*
X34750000Y9000000D03*
X28000000Y32500000D03*
X27000000Y32500000D03*
X26000000Y32500000D03*
X28000000Y31500000D03*
X27000000Y31500000D03*
X26000000Y31500000D03*
X27500000Y8000000D03*
X59500000Y21500000D03*
X59500000Y20000000D03*
X45500000Y21500000D03*
X45500000Y20000000D03*
X13250000Y7250000D03*
X13250000Y6000000D03*
X13250000Y8500000D03*
X76000000Y7500000D03*
X76000000Y47500000D03*
X51250000Y6500000D03*
X52500000Y6500000D03*
X55000000Y6500000D03*
X69000000Y22250000D03*
X67250000Y23500000D03*
X67250000Y20250000D03*
X63000000Y31000000D03*
X69680000Y20860000D03*
X69680000Y19610000D03*
X59000000Y30250000D03*
X38250000Y8000000D03*
X36000000Y11500000D03*
X29250000Y11500000D03*
X27500000Y9000000D03*
X19000000Y5750000D03*
X27000000Y23000000D03*
X34000000Y9000000D03*
X33250000Y9000000D03*
X45250000Y34250000D03*
X35750000Y33250000D03*
X34250000Y30000000D03*
X33250000Y21250000D03*
X30750000Y15500000D03*
X36000000Y14000000D03*
X36000000Y21000000D03*
X35500000Y9000000D03*
X67000000Y31000000D03*
X63250000Y34250000D03*
X63250000Y27750000D03*
X69084000Y15621000D03*
X63636000Y14960000D03*
X69500000Y42000000D03*
X38250000Y11500000D03*
X38250000Y10750000D03*
X38250000Y10000000D03*
X37500000Y11500000D03*
X37500000Y10750000D03*
X37500000Y10000000D03*
X47250000Y19500000D03*
X47250000Y22000000D03*
X57750000Y22000000D03*
X50000000Y6500000D03*
X69000000Y24750000D03*
X65750000Y21250000D03*
X74250000Y37750000D03*
X74250000Y40000000D03*
X59000000Y32250000D03*
X48000000Y33500000D03*
X24500000Y11500000D03*
X49750000Y18250000D03*
X50000000Y11250000D03*
D16*
X49750000Y11500000D02*
X49750000Y18250000D01*
X49750000Y11500000D02*
X50000000Y11250000D01*
D14*
X55000000Y11250000D03*
X57750000Y19500000D03*
X50750000Y17500000D03*
X51250000Y11250000D03*
D16*
X52240000Y12240000D01*
X52240000Y16010000D01*
X50750000Y17500000D01*
D14*
X16900000Y40250000D03*
X22050000Y40250000D03*
X37900000Y40250000D03*
X43050000Y40250000D03*
X30000000Y40250000D03*
X28050000Y21750000D03*
X49500000Y22000000D03*
D16*
X48250000Y23250000D01*
X29500000Y23250000D02*
X28050000Y21800000D01*
X28050000Y21750000D01*
X29500000Y23250000D02*
X48250000Y23250000D01*
D14*
X48500000Y19750000D03*
X64706000Y13500000D03*
D16*
X64250000Y13500000D01*
X61250000Y16500000D01*
X50250000Y19750000D02*
X48500000Y19750000D01*
X53500000Y16500000D02*
X61250000Y16500000D01*
X53500000Y16500000D02*
X50250000Y19750000D01*
D14*
X65206000Y18000000D03*
X48500000Y19000000D03*
D16*
X50250000Y19000000D01*
X65750000Y18000000D02*
X66000000Y18250000D01*
X65750000Y18000000D02*
X65206000Y18000000D01*
X66158400Y12908400D02*
X63841600Y12908400D01*
X53250000Y16000000D02*
X50250000Y19000000D01*
X53250000Y16000000D02*
X60750000Y16000000D01*
X63841600Y12908400D01*
X68250000Y15000000D02*
X68250000Y17729000D01*
X68250000Y15000000D02*
X66158400Y12908400D01*
X68250000Y17729000D02*
X67729000Y18250000D01*
X66000000Y18250000D01*
D14*
X51500000Y19500000D03*
X67456000Y17500000D03*
D16*
X65956000Y17500000D01*
X65706000Y17250000D01*
X53750000Y17250000D02*
X51500000Y19500000D01*
X53750000Y17250000D02*
X65706000Y17250000D01*
D14*
X21000000Y10000000D03*
X23000000Y6500000D03*
X50000000Y22750000D03*
X73880000Y16860000D03*
X73880000Y14360000D03*
X19000000Y10000000D03*
X21000000Y8250000D03*
X19500000Y40250000D03*
X27500000Y40250000D03*
X32500000Y40250000D03*
X48500000Y40250000D03*
X53500000Y40250000D03*
X59000000Y40250000D03*
D17*
X32500000Y41750000D02*
X27500000Y41750000D01*
X32500000Y41750000D02*
X48500000Y41750000D01*
X53500000Y41750000D01*
X48500000Y41750000D02*
X48500000Y40250000D01*
X53500000Y40250000D02*
X53500000Y41750000D01*
X27500000Y41750000D02*
X27500000Y40250000D01*
X32500000Y40250000D02*
X32500000Y41750000D01*
X21000000Y41750000D02*
X19500000Y40250000D01*
X21000000Y41750000D02*
X27500000Y41750000D01*
X57500000Y41750000D02*
X59000000Y40250000D01*
X57500000Y41750000D02*
X53500000Y41750000D01*
D14*
X24500000Y40250000D03*
D17*
X18460000Y37750000D02*
X16460000Y35750000D01*
X22000000Y37750000D02*
X24500000Y40250000D01*
X22000000Y37750000D02*
X18460000Y37750000D01*
D14*
X35000000Y40250000D03*
D17*
X32750000Y38000000D02*
X24540000Y38000000D01*
X22290000Y35750000D01*
X21540000Y35750000D01*
X32750000Y38000000D02*
X35000000Y40250000D01*
D14*
X16875000Y48250000D03*
X27400000Y48250000D03*
X32500000Y48250000D03*
X37900000Y48250000D03*
X43000000Y48250000D03*
X48400000Y48250000D03*
X53500000Y48250000D03*
X58900000Y48250000D03*
X64000000Y48250000D03*
X69500000Y44000000D03*
X22000000Y48250000D03*
D16*
X16875000Y48250000D01*
X22000000Y48250000D02*
X27400000Y48250000D01*
X32500000Y48250000D01*
X37900000Y48250000D01*
X43000000Y48250000D01*
X48400000Y48250000D01*
X53500000Y48250000D01*
X58900000Y48250000D01*
X64000000Y48250000D01*
X65250000Y48250000D01*
X69500000Y44000000D01*
D14*
X66500000Y49000000D03*
X45500000Y40250000D03*
D17*
X18460000Y29750000D02*
X16460000Y27750000D01*
X22000000Y29750000D02*
X23125000Y30875000D01*
X22000000Y29750000D02*
X18460000Y29750000D01*
X23125000Y30875000D02*
X23125000Y33625000D01*
X36000000Y38000000D02*
X43250000Y38000000D01*
X25500000Y36000000D02*
X23125000Y33625000D01*
X25500000Y36000000D02*
X34000000Y36000000D01*
X36000000Y38000000D01*
X43250000Y38000000D02*
X45500000Y40250000D01*
D14*
X56000000Y40250000D03*
D17*
X54750000Y39000000D01*
X45750000Y39000000D02*
X43750000Y37000000D01*
X36500000Y37000000D01*
X34500000Y35000000D02*
X26000000Y35000000D01*
X24250000Y33250000D01*
X24250000Y30460000D02*
X21540000Y27750000D01*
X45750000Y39000000D02*
X54750000Y39000000D01*
X36500000Y37000000D02*
X34500000Y35000000D01*
X24250000Y33250000D02*
X24250000Y30460000D01*
D14*
X61500000Y40250000D03*
D17*
X30000000Y34000000D02*
X29250000Y33250000D01*
X29250000Y28500000D01*
X22250000Y21500000D01*
X20750000Y21500000D01*
X19000000Y19750000D01*
X30000000Y34000000D02*
X35000000Y34000000D01*
X37000000Y36000000D01*
X60250000Y39000000D02*
X61500000Y40250000D01*
X60250000Y39000000D02*
X56451838Y39000000D01*
X55225919Y37774081D01*
X44250000Y36000000D02*
X37000000Y36000000D01*
X44250000Y36000000D02*
X46024081Y37774081D01*
X55225919Y37774081D01*
D14*
X40500000Y40250000D03*
D17*
X18460000Y33750000D02*
X16460000Y31750000D01*
X21750000Y33750000D02*
X25000000Y37000000D01*
X39250000Y39000000D02*
X40500000Y40250000D01*
X39250000Y39000000D02*
X35500000Y39000000D01*
X33500000Y37000000D01*
X25000000Y37000000D01*
X21750000Y33750000D02*
X18460000Y33750000D01*
D14*
X51000000Y40250000D03*
X6000000Y33500000D03*
X8000000Y33500000D03*
X6000000Y31500000D03*
X8000000Y31500000D03*
X6000000Y29500000D03*
X8000000Y29500000D03*
X6000000Y27500000D03*
X8000000Y27500000D03*
X6000000Y25500000D03*
X8000000Y25500000D03*
X6000000Y23500000D03*
X8000000Y23500000D03*
X6000000Y21500000D03*
X8000000Y21500000D03*
X6000000Y19500000D03*
X8000000Y19500000D03*
X6000000Y35500000D03*
X8000000Y35500000D03*
X10250000Y15000000D03*
X11000000Y14000000D03*
X11750000Y14000000D03*
X11750000Y15000000D03*
X11000000Y15000000D03*
X10250000Y14000000D03*
X10250000Y40000000D03*
X11000000Y40000000D03*
X11750000Y40000000D03*
X11750000Y41000000D03*
X11000000Y41000000D03*
X10250000Y41000000D03*
X13500000Y40500000D03*
D18*
X28750000Y10250000D03*
X29750000Y6750000D03*
X34250000Y11500000D03*
D14*
X64000000Y19750000D03*
X65750000Y24250000D03*
X53500000Y20500000D03*
X60250000Y29500000D03*
X46000000Y30750000D03*
D16*
X69250000Y38250000D02*
X71000000Y40000000D01*
X69250000Y38250000D02*
X61500000Y38250000D01*
X46000000Y34500000D02*
X46000000Y30750000D01*
X47899081Y36399081D02*
X59649081Y36399081D01*
X61500000Y38250000D01*
X47899081Y36399081D02*
X46000000Y34500000D01*
X53750000Y20750000D02*
X62000000Y20750000D01*
X53750000Y20750000D02*
X53500000Y20500000D01*
X63000000Y19750000D02*
X64000000Y19750000D01*
X63000000Y19750000D02*
X62000000Y20750000D01*
X64000000Y19750000D02*
X64000000Y22500000D01*
X65750000Y24250000D01*
X47250000Y29500000D02*
X46000000Y30750000D01*
X47250000Y29500000D02*
X60250000Y29500000D01*
X60500000Y29500000D01*
X61000000Y29000000D01*
X62961519Y26200000D02*
X64550000Y26200000D01*
X65750000Y25000000D01*
X65750000Y24250000D01*
X61000000Y28161519D02*
X61000000Y29000000D01*
X61000000Y28161519D02*
X62961519Y26200000D01*
D14*
X62956000Y18373000D03*
X65750000Y22750000D03*
X62000000Y29500000D03*
X53500000Y19500000D03*
X47250000Y31500000D03*
D16*
X53500000Y19500000D02*
X55000000Y18000000D01*
X65000000Y22000000D02*
X65750000Y22750000D01*
X47250000Y31500000D02*
X47250000Y34250000D01*
X48500000Y35500000D02*
X60500000Y35500000D01*
X62250000Y37250000D02*
X70500000Y37250000D01*
X71000000Y37750000D01*
X62250000Y37250000D02*
X60500000Y35500000D01*
X48500000Y35500000D02*
X47250000Y34250000D01*
X47250000Y31500000D02*
X60000000Y31500000D01*
X62000000Y29500000D02*
X66500000Y29500000D01*
X62000000Y29500000D02*
X60000000Y31500000D01*
X65750000Y22750000D02*
X67500000Y22750000D01*
X68000000Y23250000D02*
X68000000Y28000000D01*
X66500000Y29500000D01*
X68000000Y23250000D02*
X67500000Y22750000D01*
X65000000Y22000000D02*
X65000000Y19284000D01*
X59750000Y18000000D02*
X55000000Y18000000D01*
X59750000Y18000000D02*
X60123000Y18373000D01*
X62956000Y18373000D01*
X64089000Y18373000D01*
X65000000Y19284000D01*
D14*
X56250000Y22000000D03*
X61750000Y33250000D03*
X19750000Y25500000D03*
X26500000Y17500000D03*
X50750000Y23500000D03*
X45250000Y30750000D03*
D16*
X45250000Y30500000D02*
X46500000Y29250000D01*
X45250000Y30500000D02*
X45250000Y30750000D01*
X46500000Y29250000D02*
X46500000Y26250000D01*
X49250000Y23500000D02*
X50750000Y23500000D01*
X49250000Y23500000D02*
X46500000Y26250000D01*
D14*
X56000000Y49000000D03*
X45500000Y49000000D03*
X51000000Y49000000D03*
X40500000Y49000000D03*
D16*
X41250000Y49750000D01*
X50250000Y49750000D02*
X51000000Y49000000D01*
X50250000Y49750000D02*
X41250000Y49750000D01*
D14*
X24500000Y49000000D03*
X35000000Y49000000D03*
D16*
X34250000Y49750000D02*
X25250000Y49750000D01*
X24500000Y49000000D01*
X34250000Y49750000D02*
X35000000Y49000000D01*
D14*
X30000000Y49000000D03*
X19500000Y49000000D03*
X61500000Y49000000D03*
M02*
