G04 EAGLE Gerber X2 export*
%TF.Part,Single*%
%TF.FileFunction,Paste,Bot*%
%TF.FilePolarity,Positive*%
%TF.GenerationSoftware,Autodesk,EAGLE,9.6.2*%
%TF.CreationDate,2025-01-26T10:45:25Z*%
G75*
%MOIN*%
%FSLAX36Y36*%
%LPD*%
%INBottom Solder Paste*%
%AMOC8*
5,1,8,0,0,1.08239X$1,22.5*%
G01*
%ADD10R,0.035433X0.027559*%
%ADD11R,0.027559X0.035433*%
%ADD12R,0.011811X0.021654*%
%ADD13R,0.011811X0.029528*%
%ADD14R,0.021654X0.011811*%
%ADD15R,0.029528X0.011811*%
%ADD16R,0.043307X0.017717*%
%ADD17R,0.051181X0.059055*%
%ADD18R,0.027559X0.039370*%
%ADD19R,0.027559X0.023622*%
%ADD20R,0.023622X0.027559*%
%ADD21R,0.023622X0.061024*%
%ADD22R,0.009843X0.031496*%
%ADD23R,0.062992X0.055118*%
%ADD24R,0.043307X0.039370*%
%ADD25R,0.048031X0.024409*%
%ADD26R,0.074803X0.177165*%


D10*
X1437008Y161417D03*
X1437008Y212598D03*
X1437008Y576772D03*
X1437008Y525591D03*
X1377953Y161417D03*
X1377953Y212598D03*
X1377953Y576772D03*
X1377953Y525591D03*
D11*
X722441Y246063D03*
X773622Y246063D03*
D12*
X1338583Y475591D03*
D13*
X1358268Y471654D03*
X1377953Y471654D03*
X1397638Y471654D03*
X1417323Y471654D03*
X1437008Y471654D03*
D12*
X1456693Y475591D03*
D14*
X1479528Y452756D03*
D15*
X1475591Y433071D03*
X1475591Y413386D03*
X1475591Y393701D03*
X1475591Y374016D03*
X1475591Y354331D03*
D14*
X1479528Y334646D03*
D12*
X1456693Y311811D03*
D13*
X1437008Y315748D03*
X1417323Y315748D03*
X1397638Y315748D03*
X1377953Y315748D03*
X1358268Y315748D03*
D12*
X1338583Y311811D03*
D14*
X1315748Y334646D03*
D15*
X1319685Y354331D03*
X1319685Y374016D03*
X1319685Y393701D03*
X1319685Y413386D03*
X1319685Y433071D03*
D14*
X1315748Y452756D03*
D16*
X650591Y254921D03*
X650591Y229331D03*
X650591Y203740D03*
X650591Y178150D03*
X550197Y178150D03*
X550197Y203740D03*
X550197Y229331D03*
X550197Y254921D03*
D17*
X592520Y108268D03*
X667323Y108268D03*
D11*
X722441Y177165D03*
X773622Y177165D03*
D17*
X667323Y324803D03*
X592520Y324803D03*
D18*
X169291Y616142D03*
X206693Y616142D03*
X244094Y616142D03*
X169291Y503937D03*
X244094Y503937D03*
D19*
X285433Y580709D03*
X285433Y541339D03*
D10*
X127953Y535433D03*
X127953Y586614D03*
D20*
X1043307Y108268D03*
X1003937Y108268D03*
D19*
X1151575Y147638D03*
X1151575Y187008D03*
D21*
X1007677Y567323D03*
X1057677Y567323D03*
X1107677Y567323D03*
X1157677Y567323D03*
X1157677Y338189D03*
X1107677Y338189D03*
X1057677Y338189D03*
X1007677Y338189D03*
D22*
X1053150Y265748D03*
X1072835Y265748D03*
X1092520Y265748D03*
X1112205Y265748D03*
X1112205Y147638D03*
X1092520Y147638D03*
X1072835Y147638D03*
X1053150Y147638D03*
D23*
X1082677Y206693D03*
D24*
X153543Y374016D03*
X220472Y374016D03*
D25*
X134646Y237795D03*
X134646Y275197D03*
X134646Y312598D03*
X239370Y313386D03*
X239370Y238583D03*
D26*
X255906Y118110D03*
X118110Y118110D03*
D11*
X771654Y492126D03*
X822835Y492126D03*
X685039Y492126D03*
X633858Y492126D03*
D10*
X561024Y547244D03*
X561024Y496063D03*
X610236Y616142D03*
X610236Y564961D03*
D20*
X757874Y610236D03*
X797244Y610236D03*
X649606Y610236D03*
X688976Y610236D03*
X649606Y561024D03*
X688976Y561024D03*
M02*
