G04 EAGLE Gerber X2 export*
%TF.Part,Single*%
%TF.FileFunction,Legend,Bot,1*%
%TF.FilePolarity,Positive*%
%TF.GenerationSoftware,Autodesk,EAGLE,9.6.2*%
%TF.CreationDate,2025-01-26T10:45:25Z*%
G75*
%MOIN*%
%FSLAX36Y36*%
%LPD*%
%INBottom Silkscreen*%
%AMOC8*
5,1,8,0,0,1.08239X$1,22.5*%
G01*
%ADD10C,0.009843*%
%ADD11C,0.005000*%
%ADD12C,0.019685*%
%ADD13C,0.007874*%
%ADD14C,0.011811*%


D10*
X984252Y452756D02*
X1082677Y452756D01*
X1082677Y354331D01*
X1082677Y452756D02*
X1181102Y452756D01*
X1082677Y452756D02*
X1082677Y551181D01*
D11*
X1464567Y472441D02*
X1476378Y472441D01*
X1476378Y460630D01*
X1476378Y326772D02*
X1476378Y314961D01*
X1464567Y314961D01*
X1318898Y314961D02*
X1318898Y326772D01*
X1318898Y314961D02*
X1330709Y314961D01*
X1330709Y472441D02*
X1318898Y472441D01*
X1318898Y460630D01*
D12*
X1295276Y492126D02*
X1295278Y492251D01*
X1295284Y492376D01*
X1295294Y492500D01*
X1295308Y492624D01*
X1295325Y492748D01*
X1295347Y492871D01*
X1295373Y492993D01*
X1295402Y493115D01*
X1295435Y493235D01*
X1295473Y493354D01*
X1295513Y493473D01*
X1295558Y493589D01*
X1295606Y493704D01*
X1295658Y493818D01*
X1295714Y493930D01*
X1295773Y494040D01*
X1295835Y494148D01*
X1295901Y494255D01*
X1295970Y494359D01*
X1296043Y494460D01*
X1296118Y494560D01*
X1296197Y494657D01*
X1296279Y494751D01*
X1296364Y494843D01*
X1296451Y494932D01*
X1296542Y495018D01*
X1296635Y495101D01*
X1296731Y495182D01*
X1296829Y495259D01*
X1296929Y495333D01*
X1297032Y495404D01*
X1297137Y495471D01*
X1297245Y495536D01*
X1297354Y495596D01*
X1297465Y495654D01*
X1297578Y495707D01*
X1297692Y495757D01*
X1297808Y495804D01*
X1297925Y495846D01*
X1298044Y495885D01*
X1298164Y495921D01*
X1298285Y495952D01*
X1298407Y495980D01*
X1298529Y496003D01*
X1298653Y496023D01*
X1298777Y496039D01*
X1298901Y496051D01*
X1299026Y496059D01*
X1299151Y496063D01*
X1299275Y496063D01*
X1299400Y496059D01*
X1299525Y496051D01*
X1299649Y496039D01*
X1299773Y496023D01*
X1299897Y496003D01*
X1300019Y495980D01*
X1300141Y495952D01*
X1300262Y495921D01*
X1300382Y495885D01*
X1300501Y495846D01*
X1300618Y495804D01*
X1300734Y495757D01*
X1300848Y495707D01*
X1300961Y495654D01*
X1301072Y495596D01*
X1301182Y495536D01*
X1301289Y495471D01*
X1301394Y495404D01*
X1301497Y495333D01*
X1301597Y495259D01*
X1301695Y495182D01*
X1301791Y495101D01*
X1301884Y495018D01*
X1301975Y494932D01*
X1302062Y494843D01*
X1302147Y494751D01*
X1302229Y494657D01*
X1302308Y494560D01*
X1302383Y494460D01*
X1302456Y494359D01*
X1302525Y494255D01*
X1302591Y494148D01*
X1302653Y494040D01*
X1302712Y493930D01*
X1302768Y493818D01*
X1302820Y493704D01*
X1302868Y493589D01*
X1302913Y493473D01*
X1302953Y493354D01*
X1302991Y493235D01*
X1303024Y493115D01*
X1303053Y492993D01*
X1303079Y492871D01*
X1303101Y492748D01*
X1303118Y492624D01*
X1303132Y492500D01*
X1303142Y492376D01*
X1303148Y492251D01*
X1303150Y492126D01*
X1303148Y492001D01*
X1303142Y491876D01*
X1303132Y491752D01*
X1303118Y491628D01*
X1303101Y491504D01*
X1303079Y491381D01*
X1303053Y491259D01*
X1303024Y491137D01*
X1302991Y491017D01*
X1302953Y490898D01*
X1302913Y490779D01*
X1302868Y490663D01*
X1302820Y490548D01*
X1302768Y490434D01*
X1302712Y490322D01*
X1302653Y490212D01*
X1302591Y490104D01*
X1302525Y489997D01*
X1302456Y489893D01*
X1302383Y489792D01*
X1302308Y489692D01*
X1302229Y489595D01*
X1302147Y489501D01*
X1302062Y489409D01*
X1301975Y489320D01*
X1301884Y489234D01*
X1301791Y489151D01*
X1301695Y489070D01*
X1301597Y488993D01*
X1301497Y488919D01*
X1301394Y488848D01*
X1301289Y488781D01*
X1301181Y488716D01*
X1301072Y488656D01*
X1300961Y488598D01*
X1300848Y488545D01*
X1300734Y488495D01*
X1300618Y488448D01*
X1300501Y488406D01*
X1300382Y488367D01*
X1300262Y488331D01*
X1300141Y488300D01*
X1300019Y488272D01*
X1299897Y488249D01*
X1299773Y488229D01*
X1299649Y488213D01*
X1299525Y488201D01*
X1299400Y488193D01*
X1299275Y488189D01*
X1299151Y488189D01*
X1299026Y488193D01*
X1298901Y488201D01*
X1298777Y488213D01*
X1298653Y488229D01*
X1298529Y488249D01*
X1298407Y488272D01*
X1298285Y488300D01*
X1298164Y488331D01*
X1298044Y488367D01*
X1297925Y488406D01*
X1297808Y488448D01*
X1297692Y488495D01*
X1297578Y488545D01*
X1297465Y488598D01*
X1297354Y488656D01*
X1297244Y488716D01*
X1297137Y488781D01*
X1297032Y488848D01*
X1296929Y488919D01*
X1296829Y488993D01*
X1296731Y489070D01*
X1296635Y489151D01*
X1296542Y489234D01*
X1296451Y489320D01*
X1296364Y489409D01*
X1296279Y489501D01*
X1296197Y489595D01*
X1296118Y489692D01*
X1296043Y489792D01*
X1295970Y489893D01*
X1295901Y489997D01*
X1295835Y490104D01*
X1295773Y490212D01*
X1295714Y490322D01*
X1295658Y490434D01*
X1295606Y490548D01*
X1295558Y490663D01*
X1295513Y490779D01*
X1295473Y490898D01*
X1295435Y491017D01*
X1295402Y491137D01*
X1295373Y491259D01*
X1295347Y491381D01*
X1295325Y491504D01*
X1295308Y491628D01*
X1295294Y491752D01*
X1295284Y491876D01*
X1295278Y492001D01*
X1295276Y492126D01*
D11*
X635827Y275591D02*
X564961Y275591D01*
X564961Y157480D02*
X635827Y157480D01*
X635827Y165354D01*
X564961Y267717D02*
X564961Y275591D01*
X564961Y165354D02*
X564961Y157480D01*
X635827Y267717D02*
X635827Y275591D01*
X151575Y529528D02*
X151575Y592520D01*
X261811Y592520D01*
X261811Y529528D01*
X151575Y529528D01*
X980315Y374016D02*
X1185039Y374016D01*
X1185039Y531496D02*
X980315Y531496D01*
X980315Y374016D01*
X1185039Y374016D02*
X1185039Y531496D01*
X1098425Y452756D02*
X1066929Y452756D01*
X1082677Y444882D02*
X1082677Y460630D01*
D13*
X960630Y551181D02*
X960632Y551306D01*
X960638Y551431D01*
X960648Y551555D01*
X960662Y551679D01*
X960679Y551803D01*
X960701Y551926D01*
X960727Y552048D01*
X960756Y552170D01*
X960789Y552290D01*
X960827Y552409D01*
X960867Y552528D01*
X960912Y552644D01*
X960960Y552759D01*
X961012Y552873D01*
X961068Y552985D01*
X961127Y553095D01*
X961189Y553203D01*
X961255Y553310D01*
X961324Y553414D01*
X961397Y553515D01*
X961472Y553615D01*
X961551Y553712D01*
X961633Y553806D01*
X961718Y553898D01*
X961805Y553987D01*
X961896Y554073D01*
X961989Y554156D01*
X962085Y554237D01*
X962183Y554314D01*
X962283Y554388D01*
X962386Y554459D01*
X962491Y554526D01*
X962599Y554591D01*
X962708Y554651D01*
X962819Y554709D01*
X962932Y554762D01*
X963046Y554812D01*
X963162Y554859D01*
X963279Y554901D01*
X963398Y554940D01*
X963518Y554976D01*
X963639Y555007D01*
X963761Y555035D01*
X963883Y555058D01*
X964007Y555078D01*
X964131Y555094D01*
X964255Y555106D01*
X964380Y555114D01*
X964505Y555118D01*
X964629Y555118D01*
X964754Y555114D01*
X964879Y555106D01*
X965003Y555094D01*
X965127Y555078D01*
X965251Y555058D01*
X965373Y555035D01*
X965495Y555007D01*
X965616Y554976D01*
X965736Y554940D01*
X965855Y554901D01*
X965972Y554859D01*
X966088Y554812D01*
X966202Y554762D01*
X966315Y554709D01*
X966426Y554651D01*
X966536Y554591D01*
X966643Y554526D01*
X966748Y554459D01*
X966851Y554388D01*
X966951Y554314D01*
X967049Y554237D01*
X967145Y554156D01*
X967238Y554073D01*
X967329Y553987D01*
X967416Y553898D01*
X967501Y553806D01*
X967583Y553712D01*
X967662Y553615D01*
X967737Y553515D01*
X967810Y553414D01*
X967879Y553310D01*
X967945Y553203D01*
X968007Y553095D01*
X968066Y552985D01*
X968122Y552873D01*
X968174Y552759D01*
X968222Y552644D01*
X968267Y552528D01*
X968307Y552409D01*
X968345Y552290D01*
X968378Y552170D01*
X968407Y552048D01*
X968433Y551926D01*
X968455Y551803D01*
X968472Y551679D01*
X968486Y551555D01*
X968496Y551431D01*
X968502Y551306D01*
X968504Y551181D01*
X968502Y551056D01*
X968496Y550931D01*
X968486Y550807D01*
X968472Y550683D01*
X968455Y550559D01*
X968433Y550436D01*
X968407Y550314D01*
X968378Y550192D01*
X968345Y550072D01*
X968307Y549953D01*
X968267Y549834D01*
X968222Y549718D01*
X968174Y549603D01*
X968122Y549489D01*
X968066Y549377D01*
X968007Y549267D01*
X967945Y549159D01*
X967879Y549052D01*
X967810Y548948D01*
X967737Y548847D01*
X967662Y548747D01*
X967583Y548650D01*
X967501Y548556D01*
X967416Y548464D01*
X967329Y548375D01*
X967238Y548289D01*
X967145Y548206D01*
X967049Y548125D01*
X966951Y548048D01*
X966851Y547974D01*
X966748Y547903D01*
X966643Y547836D01*
X966535Y547771D01*
X966426Y547711D01*
X966315Y547653D01*
X966202Y547600D01*
X966088Y547550D01*
X965972Y547503D01*
X965855Y547461D01*
X965736Y547422D01*
X965616Y547386D01*
X965495Y547355D01*
X965373Y547327D01*
X965251Y547304D01*
X965127Y547284D01*
X965003Y547268D01*
X964879Y547256D01*
X964754Y547248D01*
X964629Y547244D01*
X964505Y547244D01*
X964380Y547248D01*
X964255Y547256D01*
X964131Y547268D01*
X964007Y547284D01*
X963883Y547304D01*
X963761Y547327D01*
X963639Y547355D01*
X963518Y547386D01*
X963398Y547422D01*
X963279Y547461D01*
X963162Y547503D01*
X963046Y547550D01*
X962932Y547600D01*
X962819Y547653D01*
X962708Y547711D01*
X962598Y547771D01*
X962491Y547836D01*
X962386Y547903D01*
X962283Y547974D01*
X962183Y548048D01*
X962085Y548125D01*
X961989Y548206D01*
X961896Y548289D01*
X961805Y548375D01*
X961718Y548464D01*
X961633Y548556D01*
X961551Y548650D01*
X961472Y548747D01*
X961397Y548847D01*
X961324Y548948D01*
X961255Y549052D01*
X961189Y549159D01*
X961127Y549267D01*
X961068Y549377D01*
X961012Y549489D01*
X960960Y549603D01*
X960912Y549718D01*
X960867Y549834D01*
X960827Y549953D01*
X960789Y550072D01*
X960756Y550192D01*
X960727Y550314D01*
X960701Y550436D01*
X960679Y550559D01*
X960662Y550683D01*
X960648Y550807D01*
X960638Y550931D01*
X960632Y551056D01*
X960630Y551181D01*
D11*
X1122047Y265748D02*
X1122047Y147638D01*
X1043307Y147638D02*
X1043307Y265748D01*
D14*
X1019685Y285433D02*
X1019687Y285558D01*
X1019693Y285683D01*
X1019703Y285807D01*
X1019717Y285931D01*
X1019734Y286055D01*
X1019756Y286178D01*
X1019782Y286300D01*
X1019811Y286422D01*
X1019844Y286542D01*
X1019882Y286661D01*
X1019922Y286780D01*
X1019967Y286896D01*
X1020015Y287011D01*
X1020067Y287125D01*
X1020123Y287237D01*
X1020182Y287347D01*
X1020244Y287455D01*
X1020310Y287562D01*
X1020379Y287666D01*
X1020452Y287767D01*
X1020527Y287867D01*
X1020606Y287964D01*
X1020688Y288058D01*
X1020773Y288150D01*
X1020860Y288239D01*
X1020951Y288325D01*
X1021044Y288408D01*
X1021140Y288489D01*
X1021238Y288566D01*
X1021338Y288640D01*
X1021441Y288711D01*
X1021546Y288778D01*
X1021654Y288843D01*
X1021763Y288903D01*
X1021874Y288961D01*
X1021987Y289014D01*
X1022101Y289064D01*
X1022217Y289111D01*
X1022334Y289153D01*
X1022453Y289192D01*
X1022573Y289228D01*
X1022694Y289259D01*
X1022816Y289287D01*
X1022938Y289310D01*
X1023062Y289330D01*
X1023186Y289346D01*
X1023310Y289358D01*
X1023435Y289366D01*
X1023560Y289370D01*
X1023684Y289370D01*
X1023809Y289366D01*
X1023934Y289358D01*
X1024058Y289346D01*
X1024182Y289330D01*
X1024306Y289310D01*
X1024428Y289287D01*
X1024550Y289259D01*
X1024671Y289228D01*
X1024791Y289192D01*
X1024910Y289153D01*
X1025027Y289111D01*
X1025143Y289064D01*
X1025257Y289014D01*
X1025370Y288961D01*
X1025481Y288903D01*
X1025591Y288843D01*
X1025698Y288778D01*
X1025803Y288711D01*
X1025906Y288640D01*
X1026006Y288566D01*
X1026104Y288489D01*
X1026200Y288408D01*
X1026293Y288325D01*
X1026384Y288239D01*
X1026471Y288150D01*
X1026556Y288058D01*
X1026638Y287964D01*
X1026717Y287867D01*
X1026792Y287767D01*
X1026865Y287666D01*
X1026934Y287562D01*
X1027000Y287455D01*
X1027062Y287347D01*
X1027121Y287237D01*
X1027177Y287125D01*
X1027229Y287011D01*
X1027277Y286896D01*
X1027322Y286780D01*
X1027362Y286661D01*
X1027400Y286542D01*
X1027433Y286422D01*
X1027462Y286300D01*
X1027488Y286178D01*
X1027510Y286055D01*
X1027527Y285931D01*
X1027541Y285807D01*
X1027551Y285683D01*
X1027557Y285558D01*
X1027559Y285433D01*
X1027557Y285308D01*
X1027551Y285183D01*
X1027541Y285059D01*
X1027527Y284935D01*
X1027510Y284811D01*
X1027488Y284688D01*
X1027462Y284566D01*
X1027433Y284444D01*
X1027400Y284324D01*
X1027362Y284205D01*
X1027322Y284086D01*
X1027277Y283970D01*
X1027229Y283855D01*
X1027177Y283741D01*
X1027121Y283629D01*
X1027062Y283519D01*
X1027000Y283411D01*
X1026934Y283304D01*
X1026865Y283200D01*
X1026792Y283099D01*
X1026717Y282999D01*
X1026638Y282902D01*
X1026556Y282808D01*
X1026471Y282716D01*
X1026384Y282627D01*
X1026293Y282541D01*
X1026200Y282458D01*
X1026104Y282377D01*
X1026006Y282300D01*
X1025906Y282226D01*
X1025803Y282155D01*
X1025698Y282088D01*
X1025590Y282023D01*
X1025481Y281963D01*
X1025370Y281905D01*
X1025257Y281852D01*
X1025143Y281802D01*
X1025027Y281755D01*
X1024910Y281713D01*
X1024791Y281674D01*
X1024671Y281638D01*
X1024550Y281607D01*
X1024428Y281579D01*
X1024306Y281556D01*
X1024182Y281536D01*
X1024058Y281520D01*
X1023934Y281508D01*
X1023809Y281500D01*
X1023684Y281496D01*
X1023560Y281496D01*
X1023435Y281500D01*
X1023310Y281508D01*
X1023186Y281520D01*
X1023062Y281536D01*
X1022938Y281556D01*
X1022816Y281579D01*
X1022694Y281607D01*
X1022573Y281638D01*
X1022453Y281674D01*
X1022334Y281713D01*
X1022217Y281755D01*
X1022101Y281802D01*
X1021987Y281852D01*
X1021874Y281905D01*
X1021763Y281963D01*
X1021653Y282023D01*
X1021546Y282088D01*
X1021441Y282155D01*
X1021338Y282226D01*
X1021238Y282300D01*
X1021140Y282377D01*
X1021044Y282458D01*
X1020951Y282541D01*
X1020860Y282627D01*
X1020773Y282716D01*
X1020688Y282808D01*
X1020606Y282902D01*
X1020527Y282999D01*
X1020452Y283099D01*
X1020379Y283200D01*
X1020310Y283304D01*
X1020244Y283411D01*
X1020182Y283519D01*
X1020123Y283629D01*
X1020067Y283741D01*
X1020015Y283855D01*
X1019967Y283970D01*
X1019922Y284086D01*
X1019882Y284205D01*
X1019844Y284324D01*
X1019811Y284444D01*
X1019782Y284566D01*
X1019756Y284688D01*
X1019734Y284811D01*
X1019717Y284935D01*
X1019703Y285059D01*
X1019693Y285183D01*
X1019687Y285308D01*
X1019685Y285433D01*
D11*
X216535Y334646D02*
X216535Y216535D01*
X216535Y334646D02*
X157480Y334646D01*
X157480Y216535D01*
X216535Y216535D01*
M02*
