G04 EAGLE Gerber X2 export*
%TF.Part,Single*%
%TF.FileFunction,Copper,L3,Inr,Mixed*%
%TF.FilePolarity,Positive*%
%TF.GenerationSoftware,Autodesk,EAGLE,9.6.2*%
%TF.CreationDate,2024-12-22T08:23:40Z*%
G75*
%MOIN*%
%FSLAX36Y36*%
%LPD*%
%INInternal Plane 2*%
%AMOC8*
5,1,8,0,0,1.08239X$1,22.5*%
G01*
%ADD10C,0.006000*%
%ADD11C,0.053150*%
%ADD12C,0.021780*%
%ADD13C,0.009843*%

G36*
X99736Y-695181D02*
X99736Y-695181D01*
X99862Y-695151D01*
X100159Y-695120D01*
X197655Y-673911D01*
X197776Y-673863D01*
X198066Y-673790D01*
X291551Y-638922D01*
X291664Y-638858D01*
X291940Y-638744D01*
X379511Y-590927D01*
X379614Y-590847D01*
X379871Y-590696D01*
X459746Y-530902D01*
X459836Y-530808D01*
X460070Y-530622D01*
X530622Y-460070D01*
X530698Y-459964D01*
X530902Y-459746D01*
X590696Y-379871D01*
X590756Y-379756D01*
X590927Y-379511D01*
X638744Y-291940D01*
X638788Y-291817D01*
X638922Y-291551D01*
X673790Y-198066D01*
X673815Y-197938D01*
X673911Y-197655D01*
X695120Y-100159D01*
X695127Y-100030D01*
X695181Y-99736D01*
X702299Y-214D01*
X702287Y-85D01*
X702299Y214D01*
X695181Y99736D01*
X695151Y99862D01*
X695120Y100159D01*
X673911Y197655D01*
X673863Y197776D01*
X673790Y198066D01*
X638922Y291551D01*
X638858Y291664D01*
X638744Y291940D01*
X590927Y379511D01*
X590847Y379614D01*
X590696Y379871D01*
X530902Y459746D01*
X530808Y459836D01*
X530622Y460070D01*
X460070Y530622D01*
X459964Y530697D01*
X459746Y530902D01*
X379871Y590696D01*
X379756Y590756D01*
X379511Y590927D01*
X291940Y638744D01*
X291817Y638788D01*
X291551Y638922D01*
X198066Y673790D01*
X197938Y673815D01*
X197655Y673911D01*
X100159Y695120D01*
X100029Y695127D01*
X99736Y695181D01*
X214Y702299D01*
X85Y702287D01*
X-214Y702299D01*
X-99736Y695181D01*
X-99862Y695151D01*
X-100159Y695120D01*
X-197655Y673911D01*
X-197776Y673863D01*
X-198066Y673790D01*
X-291551Y638922D01*
X-291664Y638858D01*
X-291940Y638744D01*
X-379511Y590927D01*
X-379614Y590847D01*
X-379871Y590696D01*
X-459746Y530902D01*
X-459836Y530808D01*
X-460070Y530622D01*
X-530622Y460070D01*
X-530698Y459964D01*
X-530902Y459746D01*
X-590696Y379871D01*
X-590756Y379756D01*
X-590927Y379511D01*
X-638744Y291940D01*
X-638788Y291817D01*
X-638922Y291551D01*
X-673790Y198066D01*
X-673815Y197938D01*
X-673911Y197655D01*
X-695120Y100159D01*
X-695127Y100029D01*
X-695181Y99736D01*
X-702299Y214D01*
X-702287Y85D01*
X-702299Y-214D01*
X-695181Y-99736D01*
X-695151Y-99862D01*
X-695120Y-100159D01*
X-673911Y-197655D01*
X-673863Y-197776D01*
X-673790Y-198066D01*
X-638922Y-291551D01*
X-638858Y-291664D01*
X-638744Y-291940D01*
X-590927Y-379511D01*
X-590847Y-379614D01*
X-590696Y-379871D01*
X-530902Y-459746D01*
X-530808Y-459836D01*
X-530622Y-460070D01*
X-460070Y-530622D01*
X-459964Y-530698D01*
X-459746Y-530902D01*
X-379871Y-590696D01*
X-379756Y-590756D01*
X-379582Y-590877D01*
X-379559Y-590897D01*
X-379547Y-590902D01*
X-379511Y-590927D01*
X-291940Y-638744D01*
X-291817Y-638788D01*
X-291551Y-638922D01*
X-198066Y-673790D01*
X-197938Y-673815D01*
X-197655Y-673911D01*
X-100159Y-695120D01*
X-100029Y-695127D01*
X-99736Y-695181D01*
X-214Y-702299D01*
X-85Y-702287D01*
X214Y-702299D01*
X99736Y-695181D01*
G37*
%LPC*%
G36*
X-63617Y-349331D02*
X-63617Y-349331D01*
X-73500Y-345238D01*
X-81064Y-337673D01*
X-85158Y-327790D01*
X-85158Y-317092D01*
X-81064Y-307209D01*
X-80855Y-307000D01*
X-80646Y-306709D01*
X-80414Y-306437D01*
X-80365Y-306318D01*
X-80290Y-306213D01*
X-80185Y-305871D01*
X-80051Y-305539D01*
X-80032Y-305377D01*
X-80005Y-305287D01*
X-80008Y-305159D01*
X-79977Y-304879D01*
X-79977Y-147704D01*
X-80035Y-147350D01*
X-80062Y-146993D01*
X-80113Y-146875D01*
X-80133Y-146748D01*
X-80301Y-146432D01*
X-80441Y-146102D01*
X-80543Y-145974D01*
X-80586Y-145891D01*
X-80679Y-145804D01*
X-80855Y-145583D01*
X-185060Y-41379D01*
X-188245Y-33689D01*
X-188245Y201012D01*
X-185060Y208702D01*
X-179281Y214481D01*
X-179072Y214771D01*
X-178839Y215043D01*
X-178790Y215163D01*
X-178715Y215267D01*
X-178610Y215609D01*
X-178476Y215941D01*
X-178458Y216104D01*
X-178430Y216193D01*
X-178433Y216321D01*
X-178402Y216601D01*
X-178402Y220110D01*
X-178431Y220288D01*
X-178424Y220468D01*
X-178509Y220763D01*
X-178559Y221066D01*
X-178643Y221225D01*
X-178693Y221398D01*
X-178868Y221651D01*
X-179012Y221922D01*
X-179142Y222046D01*
X-179245Y222194D01*
X-179491Y222378D01*
X-179714Y222589D01*
X-179877Y222665D01*
X-180022Y222773D01*
X-180314Y222868D01*
X-180592Y222998D01*
X-180771Y223018D01*
X-180943Y223074D01*
X-181250Y223071D01*
X-181555Y223105D01*
X-181731Y223067D01*
X-181911Y223065D01*
X-182426Y222916D01*
X-182502Y222900D01*
X-182520Y222889D01*
X-182549Y222881D01*
X-191501Y219172D01*
X-202199Y219172D01*
X-212083Y223266D01*
X-214414Y225598D01*
X-214477Y225643D01*
X-214526Y225704D01*
X-214870Y225926D01*
X-215201Y226164D01*
X-215275Y226187D01*
X-215341Y226229D01*
X-215735Y226328D01*
X-216127Y226449D01*
X-216205Y226447D01*
X-216280Y226466D01*
X-216686Y226435D01*
X-217095Y226424D01*
X-217168Y226397D01*
X-217246Y226391D01*
X-217622Y226232D01*
X-218005Y226092D01*
X-218066Y226044D01*
X-218137Y226013D01*
X-218656Y225598D01*
X-220988Y223266D01*
X-230871Y219172D01*
X-241569Y219172D01*
X-251453Y223266D01*
X-259017Y230831D01*
X-263111Y240714D01*
X-263111Y251412D01*
X-260840Y256895D01*
X-260775Y257169D01*
X-260674Y257433D01*
X-260665Y257638D01*
X-260618Y257838D01*
X-260645Y258119D01*
X-260633Y258401D01*
X-260690Y258598D01*
X-260709Y258803D01*
X-260824Y259060D01*
X-260902Y259331D01*
X-261019Y259500D01*
X-261103Y259688D01*
X-261293Y259896D01*
X-261454Y260127D01*
X-261619Y260250D01*
X-261758Y260402D01*
X-262005Y260538D01*
X-262231Y260706D01*
X-262426Y260770D01*
X-262606Y260869D01*
X-262883Y260919D01*
X-263152Y261007D01*
X-263357Y261005D01*
X-263559Y261042D01*
X-263838Y261001D01*
X-264120Y260999D01*
X-264391Y260920D01*
X-264518Y260902D01*
X-264601Y260859D01*
X-264758Y260814D01*
X-270242Y258543D01*
X-280939Y258543D01*
X-290823Y262636D01*
X-298761Y270575D01*
X-298990Y270739D01*
X-299194Y270934D01*
X-299381Y271021D01*
X-299548Y271140D01*
X-299817Y271223D01*
X-300073Y271342D01*
X-300277Y271365D01*
X-300474Y271425D01*
X-300755Y271418D01*
X-301036Y271449D01*
X-301237Y271406D01*
X-301442Y271401D01*
X-301707Y271304D01*
X-301982Y271244D01*
X-302159Y271139D01*
X-302352Y271068D01*
X-302572Y270892D01*
X-302814Y270748D01*
X-302948Y270592D01*
X-303109Y270463D01*
X-303261Y270227D01*
X-303445Y270012D01*
X-303522Y269821D01*
X-303633Y269649D01*
X-303702Y269376D01*
X-303808Y269114D01*
X-303839Y268834D01*
X-303870Y268710D01*
X-303863Y268617D01*
X-303881Y268454D01*
X-303881Y241901D01*
X-307066Y234212D01*
X-342479Y198798D01*
X-350169Y195613D01*
X-365509Y195613D01*
X-365863Y195555D01*
X-366219Y195528D01*
X-366338Y195478D01*
X-366465Y195457D01*
X-366781Y195289D01*
X-367111Y195150D01*
X-367239Y195047D01*
X-367321Y195004D01*
X-367409Y194911D01*
X-367630Y194735D01*
X-368626Y193739D01*
X-378509Y189645D01*
X-389207Y189645D01*
X-399090Y193739D01*
X-406655Y201303D01*
X-410749Y211186D01*
X-410749Y221884D01*
X-406655Y231767D01*
X-399090Y239332D01*
X-389207Y243426D01*
X-378509Y243426D01*
X-368626Y239332D01*
X-367630Y238336D01*
X-367339Y238127D01*
X-367067Y237894D01*
X-366948Y237846D01*
X-366843Y237770D01*
X-366501Y237665D01*
X-366169Y237531D01*
X-366007Y237513D01*
X-365918Y237485D01*
X-365789Y237489D01*
X-365509Y237457D01*
X-364239Y237457D01*
X-363885Y237515D01*
X-363529Y237543D01*
X-363410Y237593D01*
X-363283Y237614D01*
X-362967Y237781D01*
X-362637Y237921D01*
X-362509Y238023D01*
X-362427Y238067D01*
X-362339Y238159D01*
X-362118Y238336D01*
X-346603Y253851D01*
X-346394Y254141D01*
X-346162Y254413D01*
X-346113Y254533D01*
X-346038Y254637D01*
X-345933Y254979D01*
X-345799Y255311D01*
X-345781Y255474D01*
X-345753Y255563D01*
X-345756Y255691D01*
X-345725Y255971D01*
X-345725Y308692D01*
X-345754Y308870D01*
X-345746Y309050D01*
X-345832Y309346D01*
X-345882Y309648D01*
X-345966Y309807D01*
X-346016Y309981D01*
X-346191Y310234D01*
X-346335Y310505D01*
X-346465Y310629D01*
X-346568Y310777D01*
X-346814Y310960D01*
X-347037Y311172D01*
X-347200Y311248D01*
X-347345Y311356D01*
X-347637Y311451D01*
X-347915Y311580D01*
X-348094Y311600D01*
X-348265Y311656D01*
X-348573Y311654D01*
X-348878Y311688D01*
X-349054Y311650D01*
X-349234Y311648D01*
X-349749Y311499D01*
X-349825Y311483D01*
X-349843Y311472D01*
X-349872Y311463D01*
X-358824Y307755D01*
X-369522Y307755D01*
X-379405Y311849D01*
X-386970Y319414D01*
X-391064Y329297D01*
X-391064Y339995D01*
X-386970Y349878D01*
X-379405Y357442D01*
X-369522Y361536D01*
X-358824Y361536D01*
X-348941Y357442D01*
X-342389Y350890D01*
X-342325Y350844D01*
X-342277Y350784D01*
X-341933Y350563D01*
X-341602Y350324D01*
X-341528Y350302D01*
X-341462Y350259D01*
X-341066Y350159D01*
X-340676Y350039D01*
X-340598Y350041D01*
X-340523Y350022D01*
X-340117Y350054D01*
X-339708Y350064D01*
X-339635Y350091D01*
X-339557Y350097D01*
X-339182Y350256D01*
X-338798Y350396D01*
X-338737Y350445D01*
X-338666Y350475D01*
X-338147Y350890D01*
X-336234Y352803D01*
X-336232Y352804D01*
X-252465Y436571D01*
X-244776Y439757D01*
X-205357Y439757D01*
X-205003Y439814D01*
X-204647Y439842D01*
X-204528Y439892D01*
X-204401Y439913D01*
X-204085Y440080D01*
X-203755Y440220D01*
X-203627Y440323D01*
X-203545Y440366D01*
X-203457Y440459D01*
X-203236Y440635D01*
X-202240Y441631D01*
X-192357Y445725D01*
X-181659Y445725D01*
X-171776Y441631D01*
X-164211Y434067D01*
X-160117Y424184D01*
X-160117Y423590D01*
X-160105Y423514D01*
X-160113Y423437D01*
X-160027Y423037D01*
X-159961Y422634D01*
X-159925Y422566D01*
X-159908Y422490D01*
X-159699Y422139D01*
X-159508Y421778D01*
X-159452Y421725D01*
X-159412Y421658D01*
X-159102Y421393D01*
X-158806Y421111D01*
X-158735Y421078D01*
X-158676Y421028D01*
X-158298Y420875D01*
X-157927Y420702D01*
X-157850Y420694D01*
X-157778Y420665D01*
X-157118Y420591D01*
X-152131Y420591D01*
X-142248Y416497D01*
X-134684Y408933D01*
X-130590Y399050D01*
X-130590Y388352D01*
X-134684Y378469D01*
X-142248Y370904D01*
X-152131Y366810D01*
X-162829Y366810D01*
X-172712Y370904D01*
X-180277Y378469D01*
X-184371Y388352D01*
X-184371Y388945D01*
X-184383Y389021D01*
X-184375Y389099D01*
X-184461Y389498D01*
X-184527Y389901D01*
X-184563Y389969D01*
X-184580Y390045D01*
X-184789Y390397D01*
X-184980Y390757D01*
X-185036Y390811D01*
X-185076Y390877D01*
X-185386Y391143D01*
X-185682Y391424D01*
X-185753Y391457D01*
X-185812Y391508D01*
X-186190Y391661D01*
X-186561Y391833D01*
X-186638Y391842D01*
X-186710Y391871D01*
X-187370Y391944D01*
X-192357Y391944D01*
X-202240Y396038D01*
X-203236Y397034D01*
X-203527Y397243D01*
X-203799Y397476D01*
X-203918Y397524D01*
X-204023Y397600D01*
X-204365Y397705D01*
X-204697Y397839D01*
X-204859Y397857D01*
X-204949Y397885D01*
X-205077Y397881D01*
X-205357Y397913D01*
X-208612Y397913D01*
X-208890Y397867D01*
X-209172Y397860D01*
X-209365Y397789D01*
X-209568Y397756D01*
X-209817Y397625D01*
X-210082Y397528D01*
X-210243Y397399D01*
X-210424Y397303D01*
X-210618Y397099D01*
X-210838Y396923D01*
X-210950Y396750D01*
X-211091Y396601D01*
X-211210Y396345D01*
X-211363Y396108D01*
X-211413Y395909D01*
X-211500Y395722D01*
X-211531Y395442D01*
X-211600Y395169D01*
X-211584Y394964D01*
X-211607Y394760D01*
X-211547Y394484D01*
X-211525Y394203D01*
X-211445Y394014D01*
X-211402Y393813D01*
X-211257Y393571D01*
X-211147Y393311D01*
X-210971Y393091D01*
X-210905Y392981D01*
X-210835Y392920D01*
X-210732Y392793D01*
X-203581Y385641D01*
X-199487Y375758D01*
X-199487Y365060D01*
X-203581Y355177D01*
X-204110Y354648D01*
X-204156Y354585D01*
X-204216Y354537D01*
X-204438Y354192D01*
X-204676Y353862D01*
X-204698Y353788D01*
X-204741Y353722D01*
X-204841Y353326D01*
X-204961Y352936D01*
X-204959Y352858D01*
X-204978Y352783D01*
X-204946Y352376D01*
X-204936Y351967D01*
X-204909Y351894D01*
X-204903Y351817D01*
X-204744Y351441D01*
X-204604Y351057D01*
X-204555Y350997D01*
X-204525Y350925D01*
X-204110Y350406D01*
X-203581Y349878D01*
X-199487Y339995D01*
X-199487Y329297D01*
X-203196Y320344D01*
X-203237Y320169D01*
X-203313Y320006D01*
X-203347Y319701D01*
X-203417Y319401D01*
X-203400Y319222D01*
X-203420Y319043D01*
X-203355Y318743D01*
X-203326Y318437D01*
X-203253Y318272D01*
X-203215Y318096D01*
X-203057Y317833D01*
X-202933Y317552D01*
X-202811Y317419D01*
X-202719Y317264D01*
X-202485Y317065D01*
X-202277Y316838D01*
X-202120Y316751D01*
X-201983Y316634D01*
X-201698Y316519D01*
X-201429Y316371D01*
X-201252Y316338D01*
X-201085Y316271D01*
X-200550Y316211D01*
X-200476Y316198D01*
X-200456Y316201D01*
X-200425Y316197D01*
X-123791Y316197D01*
X-116102Y313012D01*
X-21740Y218651D01*
X-21449Y218442D01*
X-21177Y218209D01*
X-21058Y218160D01*
X-20953Y218085D01*
X-20611Y217980D01*
X-20279Y217846D01*
X-20117Y217828D01*
X-20027Y217800D01*
X-19899Y217804D01*
X-19619Y217772D01*
X102326Y217772D01*
X102704Y217834D01*
X103086Y217870D01*
X103180Y217912D01*
X103282Y217929D01*
X103620Y218108D01*
X103971Y218264D01*
X104047Y218334D01*
X104138Y218382D01*
X104402Y218659D01*
X104685Y218919D01*
X104734Y219009D01*
X104805Y219084D01*
X104967Y219432D01*
X105152Y219767D01*
X105171Y219869D01*
X105214Y219962D01*
X105256Y220344D01*
X105325Y220720D01*
X105310Y220822D01*
X105321Y220925D01*
X105240Y221300D01*
X105185Y221679D01*
X105138Y221771D01*
X105116Y221872D01*
X104920Y222201D01*
X104746Y222543D01*
X104672Y222615D01*
X104620Y222704D01*
X104328Y222954D01*
X104055Y223222D01*
X103943Y223284D01*
X103884Y223334D01*
X103762Y223384D01*
X103474Y223542D01*
X98001Y225809D01*
X88014Y235796D01*
X82609Y248844D01*
X82609Y262967D01*
X87861Y275646D01*
X87879Y275721D01*
X87916Y275789D01*
X87989Y276192D01*
X88083Y276589D01*
X88075Y276666D01*
X88089Y276742D01*
X88030Y277146D01*
X87992Y277553D01*
X87960Y277625D01*
X87949Y277701D01*
X87765Y278065D01*
X87598Y278439D01*
X87546Y278496D01*
X87511Y278565D01*
X87219Y278851D01*
X86943Y279152D01*
X86875Y279190D01*
X86820Y279244D01*
X86238Y279564D01*
X77681Y283109D01*
X70117Y290673D01*
X66023Y300556D01*
X66023Y311254D01*
X70117Y321138D01*
X77764Y328785D01*
X77809Y328848D01*
X77870Y328896D01*
X78091Y329240D01*
X78329Y329571D01*
X78352Y329646D01*
X78394Y329711D01*
X78494Y330106D01*
X78614Y330497D01*
X78612Y330575D01*
X78631Y330650D01*
X78600Y331057D01*
X78589Y331466D01*
X78563Y331539D01*
X78557Y331616D01*
X78397Y331992D01*
X78257Y332376D01*
X78209Y332436D01*
X78179Y332508D01*
X77764Y333026D01*
X70117Y340673D01*
X66023Y350556D01*
X66023Y361254D01*
X70117Y371138D01*
X77681Y378702D01*
X87564Y382796D01*
X98262Y382796D01*
X108145Y378702D01*
X115891Y370957D01*
X115954Y370911D01*
X116002Y370851D01*
X116346Y370629D01*
X116678Y370391D01*
X116752Y370368D01*
X116817Y370326D01*
X117212Y370226D01*
X117603Y370106D01*
X117681Y370108D01*
X117756Y370089D01*
X118163Y370120D01*
X118572Y370131D01*
X118645Y370158D01*
X118722Y370164D01*
X119098Y370323D01*
X119482Y370463D01*
X119542Y370511D01*
X119614Y370542D01*
X120133Y370957D01*
X127878Y378702D01*
X137761Y382796D01*
X148459Y382796D01*
X158342Y378702D01*
X165907Y371138D01*
X169509Y362442D01*
X169603Y362289D01*
X169665Y362119D01*
X169858Y361879D01*
X170019Y361618D01*
X170158Y361504D01*
X170270Y361363D01*
X170529Y361196D01*
X170765Y361001D01*
X170933Y360936D01*
X171085Y360839D01*
X171383Y360763D01*
X171670Y360653D01*
X171850Y360645D01*
X172024Y360601D01*
X172330Y360625D01*
X172637Y360612D01*
X172811Y360662D01*
X172990Y360676D01*
X173273Y360796D01*
X173568Y360881D01*
X173716Y360984D01*
X173882Y361054D01*
X174301Y361389D01*
X174364Y361433D01*
X174376Y361449D01*
X174400Y361469D01*
X184892Y371961D01*
X185102Y372252D01*
X185334Y372523D01*
X185383Y372643D01*
X185458Y372748D01*
X185563Y373090D01*
X185697Y373422D01*
X185715Y373584D01*
X185743Y373673D01*
X185740Y373802D01*
X185771Y374082D01*
X185771Y426120D01*
X185725Y426398D01*
X185718Y426680D01*
X185648Y426873D01*
X185614Y427076D01*
X185483Y427325D01*
X185386Y427590D01*
X185257Y427751D01*
X185161Y427932D01*
X184957Y428126D01*
X184781Y428347D01*
X184608Y428458D01*
X184459Y428599D01*
X184203Y428718D01*
X183966Y428871D01*
X183767Y428921D01*
X183581Y429008D01*
X183300Y429039D01*
X183027Y429108D01*
X182822Y429092D01*
X182618Y429115D01*
X182342Y429055D01*
X182061Y429034D01*
X181872Y428953D01*
X181671Y428910D01*
X181429Y428765D01*
X181170Y428655D01*
X180950Y428479D01*
X180839Y428414D01*
X180778Y428343D01*
X180651Y428241D01*
X178220Y425809D01*
X165172Y420405D01*
X151048Y420405D01*
X138001Y425809D01*
X128014Y435796D01*
X122609Y448844D01*
X122609Y462967D01*
X128014Y476015D01*
X138001Y486002D01*
X151048Y491406D01*
X160741Y491406D01*
X161020Y491452D01*
X161301Y491459D01*
X161494Y491529D01*
X161697Y491563D01*
X161946Y491694D01*
X162211Y491791D01*
X162372Y491920D01*
X162554Y492016D01*
X162747Y492220D01*
X162968Y492396D01*
X163079Y492569D01*
X163221Y492718D01*
X163340Y492974D01*
X163492Y493211D01*
X163543Y493410D01*
X163629Y493596D01*
X163661Y493877D01*
X163730Y494150D01*
X163714Y494355D01*
X163737Y494559D01*
X163677Y494835D01*
X163655Y495116D01*
X163575Y495305D01*
X163531Y495506D01*
X163387Y495748D01*
X163277Y496008D01*
X163101Y496228D01*
X163035Y496338D01*
X162964Y496398D01*
X162862Y496526D01*
X149693Y509696D01*
X149402Y509905D01*
X149130Y510138D01*
X149010Y510186D01*
X148906Y510261D01*
X148564Y510366D01*
X148232Y510500D01*
X148070Y510519D01*
X147980Y510546D01*
X147852Y510543D01*
X147572Y510574D01*
X-9776Y510574D01*
X-10130Y510516D01*
X-10487Y510489D01*
X-10605Y510438D01*
X-10733Y510418D01*
X-11049Y510250D01*
X-11379Y510110D01*
X-11507Y510008D01*
X-11589Y509965D01*
X-11677Y509872D01*
X-11897Y509696D01*
X-56940Y464653D01*
X-57149Y464362D01*
X-57382Y464091D01*
X-57430Y463971D01*
X-57505Y463867D01*
X-57610Y463524D01*
X-57745Y463192D01*
X-57763Y463030D01*
X-57790Y462941D01*
X-57787Y462813D01*
X-57818Y462532D01*
X-57818Y451420D01*
X-57760Y451066D01*
X-57733Y450710D01*
X-57682Y450591D01*
X-57662Y450464D01*
X-57494Y450148D01*
X-57354Y449818D01*
X-57252Y449690D01*
X-57209Y449608D01*
X-57116Y449520D01*
X-56940Y449299D01*
X-55943Y448303D01*
X-51850Y438420D01*
X-51850Y427722D01*
X-55943Y417839D01*
X-63508Y410274D01*
X-73391Y406180D01*
X-84089Y406180D01*
X-93972Y410274D01*
X-101537Y417839D01*
X-105631Y427722D01*
X-105631Y438420D01*
X-101537Y448303D01*
X-100540Y449299D01*
X-100331Y449590D01*
X-100099Y449862D01*
X-100050Y449981D01*
X-99975Y450086D01*
X-99870Y450428D01*
X-99736Y450760D01*
X-99718Y450922D01*
X-99690Y451012D01*
X-99693Y451140D01*
X-99662Y451420D01*
X-99662Y475147D01*
X-99708Y475425D01*
X-99715Y475707D01*
X-99785Y475900D01*
X-99819Y476103D01*
X-99950Y476352D01*
X-100047Y476617D01*
X-100176Y476778D01*
X-100272Y476959D01*
X-100476Y477153D01*
X-100652Y477374D01*
X-100825Y477485D01*
X-100974Y477627D01*
X-101230Y477746D01*
X-101467Y477898D01*
X-101666Y477948D01*
X-101852Y478035D01*
X-102133Y478066D01*
X-102406Y478135D01*
X-102610Y478120D01*
X-102815Y478142D01*
X-103091Y478083D01*
X-103372Y478061D01*
X-103561Y477981D01*
X-103762Y477937D01*
X-104004Y477793D01*
X-104263Y477683D01*
X-104484Y477506D01*
X-104594Y477441D01*
X-104654Y477370D01*
X-104782Y477268D01*
X-112721Y469329D01*
X-122604Y465235D01*
X-133302Y465235D01*
X-143185Y469329D01*
X-150749Y476894D01*
X-154843Y486777D01*
X-154843Y497475D01*
X-150749Y507358D01*
X-143185Y514923D01*
X-133302Y519016D01*
X-122604Y519016D01*
X-112721Y514923D01*
X-105156Y507358D01*
X-101062Y497475D01*
X-101062Y486948D01*
X-101017Y486669D01*
X-101009Y486388D01*
X-100939Y486194D01*
X-100906Y485992D01*
X-100774Y485743D01*
X-100677Y485477D01*
X-100549Y485317D01*
X-100453Y485135D01*
X-100249Y484941D01*
X-100072Y484721D01*
X-99899Y484610D01*
X-99750Y484468D01*
X-99495Y484349D01*
X-99258Y484197D01*
X-99059Y484146D01*
X-98872Y484060D01*
X-98592Y484028D01*
X-98319Y483959D01*
X-98114Y483975D01*
X-97909Y483952D01*
X-97633Y484012D01*
X-97353Y484034D01*
X-97164Y484114D01*
X-96963Y484157D01*
X-96721Y484302D01*
X-96461Y484412D01*
X-96240Y484588D01*
X-96131Y484654D01*
X-96070Y484725D01*
X-95942Y484827D01*
X-37844Y542925D01*
X-31536Y549233D01*
X-23847Y552418D01*
X161642Y552418D01*
X169331Y549233D01*
X224430Y494135D01*
X227615Y486445D01*
X227615Y393510D01*
X227644Y393333D01*
X227636Y393153D01*
X227722Y392857D01*
X227771Y392554D01*
X227855Y392396D01*
X227906Y392222D01*
X228081Y391969D01*
X228224Y391698D01*
X228355Y391574D01*
X228457Y391426D01*
X228704Y391242D01*
X228927Y391031D01*
X229090Y390955D01*
X229234Y390847D01*
X229527Y390752D01*
X229805Y390622D01*
X229984Y390602D01*
X230155Y390547D01*
X230462Y390549D01*
X230768Y390515D01*
X230944Y390553D01*
X231124Y390555D01*
X231639Y390704D01*
X231714Y390720D01*
X231732Y390731D01*
X231762Y390740D01*
X246649Y396906D01*
X263587Y396906D01*
X279235Y390424D01*
X291212Y378448D01*
X297694Y362800D01*
X297694Y345862D01*
X291212Y330214D01*
X279235Y318237D01*
X278015Y317732D01*
X277775Y317583D01*
X277518Y317469D01*
X277366Y317330D01*
X277192Y317221D01*
X277012Y317004D01*
X276804Y316813D01*
X276705Y316633D01*
X276574Y316475D01*
X276473Y316212D01*
X276336Y315965D01*
X276300Y315763D01*
X276226Y315571D01*
X276214Y315289D01*
X276164Y315012D01*
X276194Y314809D01*
X276185Y314603D01*
X276263Y314332D01*
X276304Y314053D01*
X276397Y313870D01*
X276454Y313672D01*
X276615Y313440D01*
X276742Y313189D01*
X276889Y313046D01*
X277006Y312876D01*
X277232Y312708D01*
X277433Y312510D01*
X277680Y312374D01*
X277783Y312298D01*
X277872Y312269D01*
X278015Y312190D01*
X279235Y311684D01*
X291212Y299707D01*
X297694Y284059D01*
X297694Y267122D01*
X291212Y251474D01*
X279235Y239497D01*
X263587Y233015D01*
X246649Y233015D01*
X245306Y233572D01*
X244857Y233677D01*
X244413Y233789D01*
X244388Y233787D01*
X244363Y233793D01*
X243903Y233750D01*
X243448Y233715D01*
X243424Y233705D01*
X243398Y233702D01*
X242976Y233515D01*
X242556Y233336D01*
X242532Y233317D01*
X242513Y233309D01*
X242457Y233257D01*
X242037Y232922D01*
X174852Y165736D01*
X168544Y159428D01*
X160855Y156243D01*
X-43532Y156243D01*
X-51221Y159428D01*
X-57529Y165736D01*
X-127977Y236185D01*
X-128124Y236290D01*
X-128246Y236422D01*
X-128515Y236571D01*
X-128764Y236750D01*
X-128936Y236803D01*
X-129094Y236890D01*
X-129396Y236945D01*
X-129690Y237035D01*
X-129870Y237031D01*
X-130047Y237063D01*
X-130351Y237018D01*
X-130658Y237010D01*
X-130828Y236949D01*
X-131006Y236922D01*
X-131280Y236783D01*
X-131568Y236678D01*
X-131709Y236566D01*
X-131870Y236484D01*
X-132085Y236265D01*
X-132325Y236073D01*
X-132422Y235922D01*
X-132549Y235793D01*
X-132808Y235322D01*
X-132849Y235259D01*
X-132854Y235239D01*
X-132869Y235212D01*
X-134684Y230831D01*
X-135680Y229835D01*
X-135889Y229544D01*
X-136122Y229272D01*
X-136170Y229152D01*
X-136245Y229048D01*
X-136351Y228706D01*
X-136485Y228374D01*
X-136503Y228211D01*
X-136530Y228122D01*
X-136527Y227994D01*
X-136558Y227714D01*
X-136558Y202531D01*
X-139743Y194842D01*
X-145522Y189063D01*
X-145731Y188772D01*
X-145964Y188500D01*
X-146013Y188380D01*
X-146088Y188276D01*
X-146193Y187934D01*
X-146327Y187602D01*
X-146345Y187440D01*
X-146373Y187350D01*
X-146370Y187222D01*
X-146401Y186942D01*
X-146401Y-19619D01*
X-146343Y-19973D01*
X-146315Y-20329D01*
X-146265Y-20448D01*
X-146244Y-20575D01*
X-146077Y-20891D01*
X-145937Y-21221D01*
X-145835Y-21349D01*
X-145791Y-21431D01*
X-145699Y-21519D01*
X-145522Y-21740D01*
X-41318Y-125944D01*
X-38133Y-133633D01*
X-38133Y-303304D01*
X-38075Y-303658D01*
X-38048Y-304015D01*
X-37997Y-304133D01*
X-37977Y-304260D01*
X-37809Y-304576D01*
X-37669Y-304906D01*
X-37567Y-305034D01*
X-37524Y-305117D01*
X-37431Y-305204D01*
X-37334Y-305326D01*
X-37327Y-305337D01*
X-37320Y-305343D01*
X-37255Y-305425D01*
X-35471Y-307209D01*
X-31377Y-317092D01*
X-31377Y-327790D01*
X-35471Y-337673D01*
X-43036Y-345238D01*
X-52919Y-349331D01*
X-63617Y-349331D01*
G37*
%LPD*%
%LPC*%
G36*
X73391Y-312323D02*
X73391Y-312323D01*
X63508Y-308230D01*
X55943Y-300665D01*
X51850Y-290782D01*
X51850Y-280084D01*
X55943Y-270201D01*
X56940Y-269205D01*
X57149Y-268914D01*
X57382Y-268642D01*
X57430Y-268522D01*
X57505Y-268418D01*
X57610Y-268076D01*
X57745Y-267744D01*
X57763Y-267582D01*
X57790Y-267492D01*
X57787Y-267364D01*
X57818Y-267084D01*
X57818Y-26521D01*
X57744Y-26067D01*
X57678Y-25613D01*
X57666Y-25590D01*
X57662Y-25565D01*
X57448Y-25161D01*
X57239Y-24749D01*
X57221Y-24731D01*
X57209Y-24708D01*
X56874Y-24391D01*
X56548Y-24070D01*
X56522Y-24056D01*
X56506Y-24041D01*
X56436Y-24008D01*
X55967Y-23750D01*
X53665Y-22796D01*
X46101Y-15232D01*
X42007Y-5349D01*
X42007Y5349D01*
X46101Y15232D01*
X53665Y22797D01*
X55508Y23560D01*
X55834Y23762D01*
X56172Y23941D01*
X56244Y24016D01*
X56331Y24070D01*
X56575Y24365D01*
X56840Y24643D01*
X56883Y24737D01*
X56949Y24816D01*
X57086Y25174D01*
X57248Y25522D01*
X57260Y25624D01*
X57297Y25720D01*
X57313Y26103D01*
X57356Y26484D01*
X57334Y26585D01*
X57338Y26688D01*
X57232Y27057D01*
X57150Y27431D01*
X57098Y27520D01*
X57069Y27619D01*
X56850Y27935D01*
X56654Y28263D01*
X56576Y28330D01*
X56517Y28415D01*
X56210Y28644D01*
X55918Y28893D01*
X55822Y28932D01*
X55740Y28994D01*
X55376Y29113D01*
X55020Y29256D01*
X54893Y29271D01*
X54819Y29295D01*
X54687Y29294D01*
X54360Y29330D01*
X-137877Y29330D01*
X-137993Y29446D01*
X-137993Y147720D01*
X-137877Y147835D01*
X137877Y147835D01*
X137993Y147720D01*
X137993Y29446D01*
X137877Y29330D01*
X83435Y29330D01*
X83057Y29268D01*
X82675Y29232D01*
X82580Y29190D01*
X82479Y29173D01*
X82141Y28995D01*
X81790Y28839D01*
X81714Y28769D01*
X81623Y28720D01*
X81359Y28443D01*
X81076Y28183D01*
X81026Y28093D01*
X80955Y28018D01*
X80794Y27670D01*
X80609Y27335D01*
X80590Y27233D01*
X80547Y27140D01*
X80504Y26759D01*
X80436Y26382D01*
X80451Y26280D01*
X80440Y26177D01*
X80521Y25802D01*
X80576Y25423D01*
X80623Y25331D01*
X80645Y25230D01*
X80841Y24901D01*
X81015Y24559D01*
X81088Y24487D01*
X81141Y24398D01*
X81432Y24149D01*
X81706Y23880D01*
X81818Y23818D01*
X81877Y23768D01*
X81999Y23718D01*
X82287Y23560D01*
X84130Y22797D01*
X91694Y15232D01*
X95788Y5349D01*
X95788Y3940D01*
X95846Y3586D01*
X95873Y3230D01*
X95924Y3111D01*
X95945Y2984D01*
X96112Y2668D01*
X96252Y2338D01*
X96354Y2210D01*
X96398Y2128D01*
X96447Y2080D01*
X99662Y-5681D01*
X99662Y-267084D01*
X99720Y-267438D01*
X99747Y-267794D01*
X99798Y-267913D01*
X99819Y-268040D01*
X99986Y-268356D01*
X100126Y-268686D01*
X100228Y-268814D01*
X100272Y-268896D01*
X100364Y-268984D01*
X100540Y-269205D01*
X101537Y-270201D01*
X105631Y-280084D01*
X105631Y-290782D01*
X101537Y-300665D01*
X93972Y-308230D01*
X84089Y-312323D01*
X73391Y-312323D01*
G37*
%LPD*%
%LPC*%
G36*
X-265830Y-265945D02*
X-265830Y-265945D01*
X-265945Y-265830D01*
X-265945Y-127871D01*
X-265830Y-127755D01*
X-127871Y-127755D01*
X-127755Y-127871D01*
X-127755Y-265830D01*
X-127871Y-265945D01*
X-265830Y-265945D01*
G37*
%LPD*%
%LPC*%
G36*
X346649Y233015D02*
X346649Y233015D01*
X331001Y239497D01*
X319024Y251474D01*
X312543Y267122D01*
X312543Y284059D01*
X319024Y299707D01*
X331001Y311684D01*
X332221Y312190D01*
X332461Y312338D01*
X332719Y312453D01*
X332870Y312592D01*
X333045Y312700D01*
X333225Y312918D01*
X333432Y313108D01*
X333531Y313288D01*
X333662Y313446D01*
X333764Y313710D01*
X333900Y313956D01*
X333936Y314159D01*
X334010Y314351D01*
X334022Y314632D01*
X334072Y314910D01*
X334043Y315113D01*
X334051Y315318D01*
X333973Y315590D01*
X333932Y315868D01*
X333839Y316051D01*
X333782Y316249D01*
X333621Y316481D01*
X333494Y316732D01*
X333347Y316876D01*
X333230Y317045D01*
X333004Y317214D01*
X332803Y317411D01*
X332556Y317547D01*
X332453Y317624D01*
X332364Y317653D01*
X332221Y317732D01*
X331001Y318237D01*
X319024Y330214D01*
X312543Y345862D01*
X312543Y362800D01*
X319024Y378448D01*
X331001Y390424D01*
X346649Y396906D01*
X363587Y396906D01*
X379235Y390424D01*
X391212Y378448D01*
X397694Y362800D01*
X397694Y345862D01*
X391212Y330214D01*
X379235Y318237D01*
X378015Y317732D01*
X377775Y317583D01*
X377518Y317469D01*
X377366Y317330D01*
X377192Y317221D01*
X377012Y317004D01*
X376804Y316813D01*
X376705Y316633D01*
X376574Y316475D01*
X376473Y316212D01*
X376336Y315965D01*
X376300Y315763D01*
X376226Y315571D01*
X376214Y315289D01*
X376164Y315012D01*
X376194Y314809D01*
X376185Y314603D01*
X376263Y314332D01*
X376304Y314053D01*
X376397Y313870D01*
X376454Y313672D01*
X376615Y313440D01*
X376742Y313189D01*
X376889Y313046D01*
X377006Y312876D01*
X377232Y312708D01*
X377433Y312510D01*
X377680Y312374D01*
X377783Y312298D01*
X377872Y312269D01*
X378015Y312190D01*
X379235Y311684D01*
X391212Y299707D01*
X397694Y284059D01*
X397694Y267122D01*
X391212Y251474D01*
X379235Y239497D01*
X363587Y233015D01*
X346649Y233015D01*
G37*
%LPD*%
%LPC*%
G36*
X-313587Y-42575D02*
X-313587Y-42575D01*
X-329235Y-36094D01*
X-341212Y-24117D01*
X-347694Y-8469D01*
X-347694Y8469D01*
X-341484Y23458D01*
X-341403Y23806D01*
X-341291Y24147D01*
X-341293Y24276D01*
X-341263Y24401D01*
X-341297Y24758D01*
X-341300Y25116D01*
X-341345Y25273D01*
X-341354Y25366D01*
X-341406Y25484D01*
X-341484Y25754D01*
X-347694Y40744D01*
X-347694Y57681D01*
X-341212Y73329D01*
X-329235Y85306D01*
X-313587Y91788D01*
X-296649Y91788D01*
X-281001Y85306D01*
X-269024Y73329D01*
X-262543Y57681D01*
X-262543Y40744D01*
X-268752Y25754D01*
X-268833Y25406D01*
X-268945Y25065D01*
X-268944Y24936D01*
X-268973Y24811D01*
X-268939Y24454D01*
X-268936Y24096D01*
X-268891Y23940D01*
X-268882Y23846D01*
X-268830Y23729D01*
X-268752Y23458D01*
X-262543Y8469D01*
X-262543Y-8469D01*
X-269024Y-24117D01*
X-281001Y-36094D01*
X-296649Y-42575D01*
X-313587Y-42575D01*
G37*
%LPD*%
%LPC*%
G36*
X-569492Y-42575D02*
X-569492Y-42575D01*
X-585141Y-36094D01*
X-597117Y-24117D01*
X-603599Y-8469D01*
X-603599Y8469D01*
X-597390Y23458D01*
X-597308Y23806D01*
X-597197Y24147D01*
X-597198Y24276D01*
X-597169Y24401D01*
X-597202Y24758D01*
X-597205Y25116D01*
X-597251Y25273D01*
X-597259Y25366D01*
X-597312Y25484D01*
X-597390Y25754D01*
X-603599Y40744D01*
X-603599Y57681D01*
X-597117Y73329D01*
X-585141Y85306D01*
X-569492Y91788D01*
X-552555Y91788D01*
X-536907Y85306D01*
X-524930Y73329D01*
X-518448Y57681D01*
X-518448Y40744D01*
X-524657Y25754D01*
X-524739Y25406D01*
X-524850Y25065D01*
X-524849Y24936D01*
X-524878Y24811D01*
X-524845Y24454D01*
X-524842Y24096D01*
X-524796Y23940D01*
X-524788Y23846D01*
X-524735Y23729D01*
X-524657Y23458D01*
X-518448Y8469D01*
X-518448Y-8469D01*
X-524930Y-24117D01*
X-536907Y-36094D01*
X-552555Y-42575D01*
X-569492Y-42575D01*
G37*
%LPD*%
%LPC*%
G36*
X545832Y12480D02*
X545832Y12480D01*
X535949Y16573D01*
X533913Y18609D01*
X533623Y18818D01*
X533351Y19051D01*
X533231Y19099D01*
X533127Y19174D01*
X532784Y19280D01*
X532453Y19414D01*
X532291Y19432D01*
X532201Y19460D01*
X532073Y19456D01*
X531793Y19487D01*
X531414Y19487D01*
X531298Y19603D01*
X531298Y19982D01*
X531241Y20335D01*
X531213Y20692D01*
X531163Y20810D01*
X531142Y20938D01*
X530974Y21254D01*
X530835Y21584D01*
X530733Y21711D01*
X530689Y21794D01*
X530596Y21882D01*
X530420Y22102D01*
X528384Y24138D01*
X524291Y34021D01*
X524291Y44719D01*
X527715Y52986D01*
X527797Y53334D01*
X527908Y53675D01*
X527907Y53804D01*
X527936Y53929D01*
X527903Y54286D01*
X527900Y54644D01*
X527854Y54800D01*
X527846Y54893D01*
X527793Y55011D01*
X527715Y55281D01*
X524291Y63549D01*
X524291Y74247D01*
X527715Y82514D01*
X527748Y82653D01*
X527766Y82691D01*
X527773Y82762D01*
X527797Y82862D01*
X527908Y83203D01*
X527907Y83331D01*
X527936Y83457D01*
X527903Y83813D01*
X527900Y84171D01*
X527854Y84328D01*
X527846Y84421D01*
X527793Y84538D01*
X527715Y84809D01*
X524291Y93076D01*
X524291Y103774D01*
X528384Y113657D01*
X530420Y115693D01*
X530629Y115984D01*
X530862Y116256D01*
X530910Y116375D01*
X530985Y116480D01*
X531091Y116822D01*
X531225Y117154D01*
X531243Y117316D01*
X531271Y117405D01*
X531267Y117534D01*
X531298Y117814D01*
X531298Y118192D01*
X531414Y118308D01*
X531792Y118308D01*
X532146Y118366D01*
X532503Y118393D01*
X532621Y118443D01*
X532749Y118464D01*
X533065Y118632D01*
X533395Y118771D01*
X533523Y118874D01*
X533605Y118917D01*
X533693Y119010D01*
X533913Y119186D01*
X535949Y121222D01*
X545832Y125316D01*
X556530Y125316D01*
X564797Y121891D01*
X565145Y121810D01*
X565486Y121698D01*
X565615Y121699D01*
X565740Y121670D01*
X566097Y121703D01*
X566455Y121707D01*
X566611Y121752D01*
X566705Y121761D01*
X566822Y121813D01*
X567093Y121891D01*
X575360Y125316D01*
X586058Y125316D01*
X595941Y121222D01*
X597976Y119186D01*
X598267Y118977D01*
X598539Y118744D01*
X598659Y118696D01*
X598763Y118621D01*
X599105Y118516D01*
X599437Y118381D01*
X599599Y118363D01*
X599689Y118336D01*
X599817Y118339D01*
X600097Y118308D01*
X600476Y118308D01*
X600591Y118192D01*
X600591Y117814D01*
X600649Y117460D01*
X600677Y117103D01*
X600727Y116985D01*
X600748Y116858D01*
X600915Y116542D01*
X601055Y116212D01*
X601157Y116084D01*
X601201Y116001D01*
X601293Y115914D01*
X601470Y115693D01*
X603505Y113657D01*
X607599Y103774D01*
X607599Y93076D01*
X604175Y84809D01*
X604093Y84461D01*
X603982Y84120D01*
X603983Y83991D01*
X603953Y83866D01*
X603987Y83509D01*
X603990Y83151D01*
X604035Y82995D01*
X604044Y82901D01*
X604096Y82784D01*
X604175Y82514D01*
X607599Y74247D01*
X607599Y63549D01*
X604175Y55282D01*
X604093Y54934D01*
X603982Y54593D01*
X603983Y54464D01*
X603953Y54338D01*
X603987Y53982D01*
X603990Y53624D01*
X604035Y53467D01*
X604044Y53374D01*
X604096Y53256D01*
X604175Y52986D01*
X607599Y44719D01*
X607599Y34021D01*
X603505Y24138D01*
X601470Y22102D01*
X601261Y21811D01*
X601028Y21540D01*
X600979Y21420D01*
X600904Y21316D01*
X600799Y20974D01*
X600665Y20641D01*
X600647Y20479D01*
X600619Y20390D01*
X600622Y20262D01*
X600591Y19981D01*
X600591Y19603D01*
X600476Y19487D01*
X600097Y19487D01*
X599743Y19430D01*
X599387Y19402D01*
X599268Y19352D01*
X599141Y19331D01*
X598825Y19164D01*
X598495Y19024D01*
X598367Y18921D01*
X598285Y18878D01*
X598197Y18785D01*
X597976Y18609D01*
X595941Y16573D01*
X586058Y12480D01*
X575360Y12480D01*
X567093Y15904D01*
X566745Y15985D01*
X566404Y16097D01*
X566275Y16096D01*
X566149Y16125D01*
X565793Y16092D01*
X565435Y16089D01*
X565278Y16043D01*
X565185Y16034D01*
X565067Y15982D01*
X564797Y15904D01*
X556530Y12480D01*
X545832Y12480D01*
G37*
%LPD*%
%LPC*%
G36*
X-389207Y-86418D02*
X-389207Y-86418D01*
X-399090Y-82324D01*
X-406655Y-74760D01*
X-410749Y-64876D01*
X-410749Y-54179D01*
X-406655Y-44295D01*
X-399090Y-36731D01*
X-389196Y-32633D01*
X-388957Y-32484D01*
X-388699Y-32369D01*
X-388547Y-32230D01*
X-388373Y-32122D01*
X-388193Y-31905D01*
X-387985Y-31714D01*
X-387886Y-31534D01*
X-387755Y-31376D01*
X-387654Y-31113D01*
X-387518Y-30866D01*
X-387481Y-30663D01*
X-387407Y-30472D01*
X-387395Y-30190D01*
X-387345Y-29913D01*
X-387375Y-29710D01*
X-387366Y-29504D01*
X-387444Y-29233D01*
X-387485Y-28954D01*
X-387578Y-28771D01*
X-387635Y-28573D01*
X-387796Y-28341D01*
X-387923Y-28090D01*
X-388070Y-27946D01*
X-388187Y-27777D01*
X-388413Y-27609D01*
X-388614Y-27411D01*
X-388861Y-27275D01*
X-388964Y-27199D01*
X-389053Y-27170D01*
X-389196Y-27091D01*
X-399563Y-22797D01*
X-407127Y-15232D01*
X-411221Y-5349D01*
X-411221Y5349D01*
X-407127Y15232D01*
X-399563Y22797D01*
X-389766Y26854D01*
X-389527Y27003D01*
X-389269Y27117D01*
X-389117Y27257D01*
X-388943Y27365D01*
X-388763Y27582D01*
X-388555Y27773D01*
X-388456Y27953D01*
X-388325Y28111D01*
X-388224Y28374D01*
X-388088Y28621D01*
X-388051Y28824D01*
X-387977Y29015D01*
X-387965Y29297D01*
X-387915Y29574D01*
X-387945Y29777D01*
X-387936Y29983D01*
X-388015Y30254D01*
X-388055Y30533D01*
X-388148Y30716D01*
X-388205Y30914D01*
X-388366Y31146D01*
X-388494Y31397D01*
X-388640Y31541D01*
X-388757Y31710D01*
X-388984Y31878D01*
X-389185Y32076D01*
X-389431Y32212D01*
X-389534Y32289D01*
X-389624Y32318D01*
X-389766Y32396D01*
X-399090Y36258D01*
X-406655Y43823D01*
X-410749Y53706D01*
X-410749Y64404D01*
X-406655Y74287D01*
X-399090Y81852D01*
X-389207Y85945D01*
X-378509Y85945D01*
X-368626Y81852D01*
X-361062Y74287D01*
X-356968Y64404D01*
X-356968Y53706D01*
X-361062Y43823D01*
X-368626Y36258D01*
X-378423Y32201D01*
X-378662Y32052D01*
X-378920Y31938D01*
X-379071Y31798D01*
X-379246Y31690D01*
X-379425Y31473D01*
X-379633Y31282D01*
X-379733Y31102D01*
X-379864Y30944D01*
X-379965Y30681D01*
X-380101Y30434D01*
X-380138Y30231D01*
X-380211Y30040D01*
X-380223Y29758D01*
X-380274Y29481D01*
X-380244Y29278D01*
X-380253Y29072D01*
X-380174Y28801D01*
X-380133Y28522D01*
X-380041Y28339D01*
X-379983Y28141D01*
X-379823Y27909D01*
X-379695Y27658D01*
X-379549Y27514D01*
X-379431Y27345D01*
X-379205Y27177D01*
X-379004Y26979D01*
X-378758Y26843D01*
X-378655Y26766D01*
X-378565Y26737D01*
X-378423Y26659D01*
X-369099Y22797D01*
X-361534Y15232D01*
X-357440Y5349D01*
X-357440Y-5349D01*
X-361534Y-15232D01*
X-369099Y-22797D01*
X-378993Y-26895D01*
X-379232Y-27043D01*
X-379490Y-27158D01*
X-379642Y-27297D01*
X-379816Y-27405D01*
X-379996Y-27622D01*
X-380204Y-27813D01*
X-380303Y-27993D01*
X-380434Y-28151D01*
X-380535Y-28414D01*
X-380671Y-28662D01*
X-380708Y-28864D01*
X-380782Y-29056D01*
X-380794Y-29337D01*
X-380844Y-29615D01*
X-380814Y-29818D01*
X-380823Y-30023D01*
X-380744Y-30295D01*
X-380704Y-30573D01*
X-380611Y-30756D01*
X-380554Y-30954D01*
X-380393Y-31186D01*
X-380265Y-31437D01*
X-380119Y-31581D01*
X-380002Y-31750D01*
X-379776Y-31919D01*
X-379575Y-32116D01*
X-379327Y-32252D01*
X-379225Y-32329D01*
X-379136Y-32358D01*
X-378993Y-32437D01*
X-368626Y-36731D01*
X-361062Y-44295D01*
X-356968Y-54179D01*
X-356968Y-64876D01*
X-361062Y-74760D01*
X-368626Y-82324D01*
X-378509Y-86418D01*
X-389207Y-86418D01*
G37*
%LPD*%
%LPC*%
G36*
X24179Y386495D02*
X24179Y386495D01*
X14295Y390589D01*
X6731Y398154D01*
X2637Y408037D01*
X2637Y418735D01*
X6731Y428618D01*
X14295Y436182D01*
X24179Y440276D01*
X34876Y440276D01*
X41805Y437406D01*
X42080Y437342D01*
X42343Y437241D01*
X42548Y437232D01*
X42749Y437185D01*
X43029Y437211D01*
X43311Y437199D01*
X43508Y437256D01*
X43713Y437276D01*
X43971Y437390D01*
X44241Y437469D01*
X44410Y437586D01*
X44598Y437669D01*
X44806Y437860D01*
X45038Y438020D01*
X45160Y438185D01*
X45312Y438324D01*
X45448Y438571D01*
X45616Y438797D01*
X45680Y438993D01*
X45779Y439173D01*
X45829Y439450D01*
X45917Y439718D01*
X45915Y439924D01*
X45952Y440126D01*
X45911Y440405D01*
X45909Y440687D01*
X45830Y440958D01*
X45812Y441085D01*
X45769Y441168D01*
X45724Y441325D01*
X42609Y448844D01*
X42609Y462967D01*
X48014Y476015D01*
X58001Y486002D01*
X71048Y491406D01*
X85172Y491406D01*
X98220Y486002D01*
X108206Y476015D01*
X113611Y462967D01*
X113611Y448844D01*
X108206Y435796D01*
X98220Y425809D01*
X85172Y420405D01*
X71048Y420405D01*
X59242Y425295D01*
X58968Y425359D01*
X58705Y425461D01*
X58499Y425469D01*
X58299Y425516D01*
X58019Y425490D01*
X57737Y425502D01*
X57539Y425445D01*
X57335Y425426D01*
X57077Y425311D01*
X56806Y425233D01*
X56637Y425115D01*
X56450Y425032D01*
X56242Y424841D01*
X56010Y424681D01*
X55887Y424516D01*
X55736Y424377D01*
X55600Y424130D01*
X55431Y423904D01*
X55368Y423708D01*
X55268Y423528D01*
X55218Y423251D01*
X55131Y422983D01*
X55132Y422777D01*
X55096Y422575D01*
X55137Y422297D01*
X55139Y422014D01*
X55217Y421743D01*
X55236Y421617D01*
X55278Y421533D01*
X55324Y421376D01*
X56418Y418735D01*
X56418Y408037D01*
X52324Y398154D01*
X44760Y390589D01*
X34876Y386495D01*
X24179Y386495D01*
G37*
%LPD*%
%LPC*%
G36*
X286807Y105062D02*
X286807Y105062D01*
X271159Y111544D01*
X259182Y123521D01*
X252700Y139169D01*
X252700Y156107D01*
X259182Y171755D01*
X271159Y183732D01*
X286807Y190213D01*
X303744Y190213D01*
X319392Y183732D01*
X331369Y171755D01*
X337851Y156107D01*
X337851Y139169D01*
X331369Y123521D01*
X319392Y111544D01*
X303744Y105062D01*
X286807Y105062D01*
G37*
%LPD*%
%LPC*%
G36*
X395074Y-121316D02*
X395074Y-121316D01*
X379426Y-114834D01*
X367449Y-102857D01*
X360968Y-87209D01*
X360968Y-70271D01*
X367449Y-54623D01*
X379426Y-42646D01*
X395074Y-36165D01*
X412012Y-36165D01*
X427660Y-42646D01*
X439637Y-54623D01*
X446119Y-70271D01*
X446119Y-87209D01*
X439637Y-102857D01*
X427660Y-114834D01*
X412012Y-121316D01*
X395074Y-121316D01*
G37*
%LPD*%
%LPC*%
G36*
X149011Y-121316D02*
X149011Y-121316D01*
X133363Y-114834D01*
X121386Y-102857D01*
X114905Y-87209D01*
X114905Y-70271D01*
X121386Y-54623D01*
X133363Y-42646D01*
X149011Y-36165D01*
X165949Y-36165D01*
X181597Y-42646D01*
X193574Y-54623D01*
X200056Y-70271D01*
X200056Y-87209D01*
X193574Y-102857D01*
X181597Y-114834D01*
X165949Y-121316D01*
X149011Y-121316D01*
G37*
%LPD*%
%LPC*%
G36*
X-205319Y-513048D02*
X-205319Y-513048D01*
X-220967Y-506566D01*
X-232944Y-494589D01*
X-239426Y-478941D01*
X-239426Y-462003D01*
X-232944Y-446355D01*
X-220967Y-434379D01*
X-205319Y-427897D01*
X-188381Y-427897D01*
X-172733Y-434379D01*
X-160757Y-446355D01*
X-154275Y-462003D01*
X-154275Y-478941D01*
X-160757Y-494589D01*
X-172733Y-506566D01*
X-188381Y-513048D01*
X-205319Y-513048D01*
G37*
%LPD*%
%LPC*%
G36*
X-536845Y160117D02*
X-536845Y160117D01*
X-546728Y164211D01*
X-554293Y171776D01*
X-558386Y181659D01*
X-558386Y192357D01*
X-554293Y202240D01*
X-546728Y209805D01*
X-536845Y213898D01*
X-526147Y213898D01*
X-516264Y209805D01*
X-513845Y207386D01*
X-513534Y207162D01*
X-513238Y206917D01*
X-513142Y206880D01*
X-513058Y206820D01*
X-512693Y206708D01*
X-512334Y206570D01*
X-512231Y206565D01*
X-512133Y206535D01*
X-511750Y206545D01*
X-511366Y206529D01*
X-511267Y206557D01*
X-511164Y206560D01*
X-510805Y206691D01*
X-510436Y206798D01*
X-510351Y206857D01*
X-510254Y206892D01*
X-509955Y207131D01*
X-509640Y207350D01*
X-509578Y207433D01*
X-509497Y207497D01*
X-509290Y207819D01*
X-509061Y208127D01*
X-509029Y208225D01*
X-508973Y208312D01*
X-508879Y208683D01*
X-508760Y209048D01*
X-508761Y209151D01*
X-508736Y209251D01*
X-508765Y209633D01*
X-508769Y210016D01*
X-508804Y210140D01*
X-508810Y210217D01*
X-508862Y210338D01*
X-508953Y210654D01*
X-509174Y211187D01*
X-509174Y221884D01*
X-505080Y231767D01*
X-497516Y239332D01*
X-487632Y243426D01*
X-476934Y243426D01*
X-467051Y239332D01*
X-459487Y231767D01*
X-455393Y221884D01*
X-455393Y211186D01*
X-459487Y201303D01*
X-467051Y193739D01*
X-476934Y189645D01*
X-487632Y189645D01*
X-497516Y193739D01*
X-499934Y196158D01*
X-500246Y196381D01*
X-500541Y196626D01*
X-500638Y196663D01*
X-500721Y196723D01*
X-501087Y196836D01*
X-501445Y196973D01*
X-501548Y196978D01*
X-501647Y197008D01*
X-502030Y196998D01*
X-502413Y197015D01*
X-502513Y196986D01*
X-502615Y196983D01*
X-502975Y196852D01*
X-503344Y196745D01*
X-503429Y196686D01*
X-503525Y196651D01*
X-503825Y196412D01*
X-504140Y196193D01*
X-504201Y196111D01*
X-504282Y196046D01*
X-504489Y195724D01*
X-504719Y195416D01*
X-504751Y195318D01*
X-504806Y195232D01*
X-504900Y194860D01*
X-505019Y194495D01*
X-505018Y194392D01*
X-505044Y194292D01*
X-505014Y193911D01*
X-505011Y193527D01*
X-504975Y193403D01*
X-504969Y193327D01*
X-504918Y193205D01*
X-504826Y192889D01*
X-504606Y192357D01*
X-504606Y181659D01*
X-508699Y171776D01*
X-516264Y164211D01*
X-526147Y160117D01*
X-536845Y160117D01*
G37*
%LPD*%
%LPC*%
G36*
X230871Y-36733D02*
X230871Y-36733D01*
X220988Y-32639D01*
X213424Y-25075D01*
X209330Y-15191D01*
X209330Y-4493D01*
X213424Y5390D01*
X220677Y12643D01*
X220722Y12706D01*
X220783Y12754D01*
X221004Y13098D01*
X221242Y13430D01*
X221265Y13504D01*
X221307Y13569D01*
X221407Y13965D01*
X221528Y14355D01*
X221526Y14433D01*
X221545Y14508D01*
X221513Y14915D01*
X221503Y15324D01*
X221476Y15397D01*
X221470Y15474D01*
X221311Y15850D01*
X221171Y16234D01*
X221122Y16294D01*
X221092Y16366D01*
X220677Y16885D01*
X213424Y24138D01*
X209330Y34021D01*
X209330Y44719D01*
X213424Y54602D01*
X220988Y62167D01*
X230871Y66260D01*
X241569Y66260D01*
X251453Y62167D01*
X259017Y54602D01*
X263111Y44719D01*
X263111Y34021D01*
X259017Y24138D01*
X251764Y16885D01*
X251718Y16822D01*
X251658Y16773D01*
X251436Y16429D01*
X251198Y16098D01*
X251175Y16024D01*
X251133Y15959D01*
X251033Y15563D01*
X250913Y15172D01*
X250915Y15094D01*
X250896Y15019D01*
X250928Y14613D01*
X250938Y14204D01*
X250965Y14131D01*
X250971Y14054D01*
X251130Y13678D01*
X251270Y13294D01*
X251319Y13233D01*
X251349Y13162D01*
X251764Y12643D01*
X259017Y5390D01*
X263111Y-4493D01*
X263111Y-15191D01*
X259017Y-25075D01*
X251453Y-32639D01*
X241569Y-36733D01*
X230871Y-36733D01*
G37*
%LPD*%
%LPC*%
G36*
X467092Y327440D02*
X467092Y327440D01*
X457209Y331534D01*
X449644Y339099D01*
X445550Y348982D01*
X445550Y359680D01*
X449644Y369563D01*
X457209Y377127D01*
X467092Y381221D01*
X477790Y381221D01*
X487673Y377127D01*
X495238Y369563D01*
X499331Y359680D01*
X499331Y348982D01*
X495238Y339099D01*
X487673Y331534D01*
X477790Y327440D01*
X467092Y327440D01*
G37*
%LPD*%
%LPC*%
G36*
X467092Y248700D02*
X467092Y248700D01*
X457209Y252794D01*
X449644Y260358D01*
X445550Y270242D01*
X445550Y280939D01*
X449644Y290823D01*
X457209Y298387D01*
X467092Y302481D01*
X477790Y302481D01*
X487673Y298387D01*
X495238Y290823D01*
X499331Y280939D01*
X499331Y270242D01*
X495238Y260358D01*
X487673Y252794D01*
X477790Y248700D01*
X467092Y248700D01*
G37*
%LPD*%
%LPC*%
G36*
X321816Y19960D02*
X321816Y19960D01*
X311933Y24054D01*
X304369Y31618D01*
X300275Y41501D01*
X300275Y52199D01*
X304369Y62082D01*
X311933Y69647D01*
X321816Y73741D01*
X332514Y73741D01*
X342397Y69647D01*
X349962Y62082D01*
X354056Y52199D01*
X354056Y41501D01*
X349962Y31618D01*
X342397Y24054D01*
X332514Y19960D01*
X321816Y19960D01*
G37*
%LPD*%
%LPC*%
G36*
X-487632Y-86418D02*
X-487632Y-86418D01*
X-497516Y-82324D01*
X-505080Y-74760D01*
X-509174Y-64876D01*
X-509174Y-54179D01*
X-505080Y-44295D01*
X-497516Y-36731D01*
X-487632Y-32637D01*
X-476934Y-32637D01*
X-467051Y-36731D01*
X-459487Y-44295D01*
X-455393Y-54179D01*
X-455393Y-64876D01*
X-459487Y-74760D01*
X-467051Y-82324D01*
X-476934Y-86418D01*
X-487632Y-86418D01*
G37*
%LPD*%
%LPC*%
G36*
X24179Y288070D02*
X24179Y288070D01*
X14295Y292164D01*
X6731Y299728D01*
X2637Y309612D01*
X2637Y320310D01*
X6731Y330193D01*
X14295Y337757D01*
X24179Y341851D01*
X34876Y341851D01*
X44760Y337757D01*
X52324Y330193D01*
X56418Y320310D01*
X56418Y309612D01*
X52324Y299728D01*
X44760Y292164D01*
X34876Y288070D01*
X24179Y288070D01*
G37*
%LPD*%
%LPC*%
G36*
X-487632Y-26418D02*
X-487632Y-26418D01*
X-497516Y-22324D01*
X-505080Y-14760D01*
X-509174Y-4876D01*
X-509174Y5821D01*
X-505080Y15704D01*
X-497516Y23269D01*
X-487632Y27363D01*
X-476934Y27363D01*
X-467051Y23269D01*
X-459487Y15704D01*
X-455393Y5821D01*
X-455393Y-4876D01*
X-459487Y-14760D01*
X-467051Y-22324D01*
X-476934Y-26418D01*
X-487632Y-26418D01*
G37*
%LPD*%
%LPC*%
G36*
X399700Y108361D02*
X399700Y108361D01*
X399700Y169198D01*
X429799Y169198D01*
X428871Y164528D01*
X426114Y157872D01*
X422111Y151881D01*
X417016Y146787D01*
X411025Y142784D01*
X408047Y141550D01*
X407808Y141402D01*
X407550Y141287D01*
X407399Y141148D01*
X407224Y141040D01*
X407044Y140823D01*
X406837Y140632D01*
X406737Y140452D01*
X406606Y140294D01*
X406505Y140031D01*
X406369Y139784D01*
X406332Y139581D01*
X406259Y139390D01*
X406247Y139108D01*
X406196Y138830D01*
X406226Y138627D01*
X406217Y138422D01*
X406296Y138151D01*
X406337Y137872D01*
X406430Y137689D01*
X406487Y137491D01*
X406648Y137259D01*
X406775Y137008D01*
X406922Y136864D01*
X407039Y136695D01*
X407265Y136526D01*
X407466Y136329D01*
X407713Y136193D01*
X407816Y136116D01*
X407905Y136087D01*
X408048Y136008D01*
X411026Y134775D01*
X417016Y130772D01*
X422111Y125678D01*
X426114Y119687D01*
X428871Y113031D01*
X429799Y108361D01*
X399700Y108361D01*
G37*
%LPD*%
%LPC*%
G36*
X357602Y108361D02*
X357602Y108361D01*
X358531Y113031D01*
X361288Y119687D01*
X365291Y125678D01*
X370385Y130772D01*
X376376Y134775D01*
X379354Y136008D01*
X379594Y136157D01*
X379851Y136272D01*
X380003Y136411D01*
X380177Y136519D01*
X380357Y136736D01*
X380565Y136927D01*
X380664Y137107D01*
X380795Y137265D01*
X380896Y137528D01*
X381032Y137775D01*
X381069Y137977D01*
X381143Y138169D01*
X381155Y138451D01*
X381205Y138728D01*
X381175Y138931D01*
X381184Y139137D01*
X381106Y139408D01*
X381065Y139687D01*
X380972Y139870D01*
X380915Y140068D01*
X380754Y140299D01*
X380626Y140551D01*
X380480Y140695D01*
X380363Y140864D01*
X380137Y141032D01*
X379936Y141230D01*
X379689Y141366D01*
X379586Y141442D01*
X379497Y141471D01*
X379354Y141550D01*
X376376Y142784D01*
X370385Y146787D01*
X365291Y151881D01*
X361288Y157872D01*
X358531Y164528D01*
X357602Y169198D01*
X387702Y169198D01*
X387702Y108361D01*
X357602Y108361D01*
G37*
%LPD*%
%LPC*%
G36*
X399700Y181196D02*
X399700Y181196D01*
X399700Y211296D01*
X404370Y210367D01*
X411025Y207610D01*
X417016Y203607D01*
X422111Y198512D01*
X426114Y192521D01*
X428871Y185866D01*
X429799Y181196D01*
X399700Y181196D01*
G37*
%LPD*%
%LPC*%
G36*
X399700Y96363D02*
X399700Y96363D01*
X429799Y96363D01*
X428871Y91693D01*
X426114Y85038D01*
X422111Y79047D01*
X417016Y73952D01*
X411025Y69949D01*
X404370Y67192D01*
X399700Y66263D01*
X399700Y96363D01*
G37*
%LPD*%
%LPC*%
G36*
X357602Y181196D02*
X357602Y181196D01*
X358531Y185866D01*
X361288Y192521D01*
X365291Y198512D01*
X370385Y203607D01*
X376376Y207610D01*
X383031Y210367D01*
X387702Y211296D01*
X387702Y181196D01*
X357602Y181196D01*
G37*
%LPD*%
%LPC*%
G36*
X383031Y67192D02*
X383031Y67192D01*
X376376Y69949D01*
X370385Y73952D01*
X365291Y79047D01*
X361288Y85038D01*
X358531Y91693D01*
X357602Y96363D01*
X387702Y96363D01*
X387702Y66263D01*
X383031Y67192D01*
G37*
%LPD*%
%LPC*%
G36*
X393699Y175195D02*
X393699Y175195D01*
X393699Y175198D01*
X393702Y175198D01*
X393702Y175195D01*
X393699Y175195D01*
G37*
%LPD*%
%LPC*%
G36*
X393699Y102361D02*
X393699Y102361D01*
X393699Y102363D01*
X393702Y102363D01*
X393702Y102361D01*
X393699Y102361D01*
G37*
%LPD*%
D10*
X89397Y834975D02*
X89397Y845642D01*
X124953Y845642D01*
X124953Y824309D01*
X124949Y823965D01*
X124936Y823622D01*
X124916Y823279D01*
X124887Y822936D01*
X124849Y822595D01*
X124804Y822254D01*
X124750Y821915D01*
X124688Y821577D01*
X124618Y821240D01*
X124540Y820905D01*
X124453Y820573D01*
X124359Y820242D01*
X124257Y819914D01*
X124147Y819589D01*
X124029Y819266D01*
X123903Y818946D01*
X123770Y818629D01*
X123629Y818316D01*
X123480Y818006D01*
X123324Y817700D01*
X123161Y817397D01*
X122990Y817099D01*
X122812Y816805D01*
X122627Y816515D01*
X122435Y816230D01*
X122237Y815950D01*
X122031Y815674D01*
X121820Y815403D01*
X121601Y815138D01*
X121376Y814878D01*
X121145Y814624D01*
X120908Y814375D01*
X120665Y814132D01*
X120416Y813895D01*
X120162Y813664D01*
X119902Y813439D01*
X119637Y813220D01*
X119366Y813009D01*
X119090Y812803D01*
X118810Y812605D01*
X118525Y812413D01*
X118235Y812228D01*
X117941Y812050D01*
X117643Y811879D01*
X117340Y811716D01*
X117034Y811560D01*
X116724Y811411D01*
X116411Y811270D01*
X116094Y811137D01*
X115774Y811011D01*
X115451Y810893D01*
X115126Y810783D01*
X114798Y810681D01*
X114467Y810587D01*
X114135Y810500D01*
X113800Y810422D01*
X113463Y810352D01*
X113125Y810290D01*
X112786Y810236D01*
X112445Y810191D01*
X112104Y810153D01*
X111761Y810124D01*
X111418Y810104D01*
X111075Y810091D01*
X110731Y810087D01*
X75175Y810087D01*
X74826Y810091D01*
X74477Y810104D01*
X74129Y810126D01*
X73781Y810155D01*
X73434Y810194D01*
X73088Y810241D01*
X72744Y810296D01*
X72400Y810360D01*
X72059Y810433D01*
X71719Y810513D01*
X71382Y810602D01*
X71047Y810699D01*
X70714Y810805D01*
X70384Y810918D01*
X70057Y811040D01*
X69733Y811170D01*
X69412Y811307D01*
X69094Y811452D01*
X68781Y811606D01*
X68471Y811766D01*
X68165Y811935D01*
X67864Y812110D01*
X67566Y812293D01*
X67274Y812484D01*
X66986Y812681D01*
X66703Y812886D01*
X66425Y813097D01*
X66153Y813315D01*
X65886Y813540D01*
X65624Y813771D01*
X65368Y814009D01*
X65119Y814252D01*
X64875Y814502D01*
X64637Y814758D01*
X64406Y815019D01*
X64181Y815287D01*
X63963Y815559D01*
X63752Y815837D01*
X63547Y816120D01*
X63350Y816408D01*
X63160Y816700D01*
X62976Y816997D01*
X62801Y817299D01*
X62632Y817605D01*
X62472Y817914D01*
X62319Y818228D01*
X62173Y818545D01*
X62036Y818866D01*
X61906Y819190D01*
X61784Y819518D01*
X61671Y819848D01*
X61565Y820180D01*
X61468Y820516D01*
X61379Y820853D01*
X61299Y821193D01*
X61226Y821534D01*
X61162Y821877D01*
X61107Y822222D01*
X61060Y822568D01*
X61022Y822915D01*
X60992Y823263D01*
X60970Y823611D01*
X60957Y823960D01*
X60953Y824309D01*
X60953Y845642D01*
X60953Y875730D02*
X124953Y875730D01*
X124953Y911285D02*
X60953Y875730D01*
X60953Y911285D02*
X124953Y911285D01*
X124953Y941373D02*
X60953Y941373D01*
X60953Y959150D01*
X60958Y959580D01*
X60974Y960009D01*
X61000Y960438D01*
X61036Y960866D01*
X61083Y961293D01*
X61140Y961719D01*
X61207Y962143D01*
X61284Y962566D01*
X61372Y962986D01*
X61470Y963405D01*
X61577Y963820D01*
X61695Y964234D01*
X61823Y964644D01*
X61961Y965051D01*
X62108Y965454D01*
X62265Y965854D01*
X62432Y966250D01*
X62609Y966642D01*
X62794Y967029D01*
X62989Y967412D01*
X63194Y967790D01*
X63407Y968163D01*
X63629Y968530D01*
X63860Y968893D01*
X64100Y969249D01*
X64348Y969600D01*
X64605Y969944D01*
X64870Y970282D01*
X65143Y970614D01*
X65424Y970939D01*
X65713Y971257D01*
X66009Y971568D01*
X66313Y971872D01*
X66624Y972168D01*
X66942Y972457D01*
X67267Y972738D01*
X67599Y973011D01*
X67937Y973276D01*
X68281Y973533D01*
X68632Y973781D01*
X68988Y974021D01*
X69351Y974252D01*
X69718Y974474D01*
X70091Y974687D01*
X70469Y974892D01*
X70852Y975087D01*
X71239Y975272D01*
X71631Y975449D01*
X72027Y975616D01*
X72427Y975773D01*
X72830Y975920D01*
X73237Y976058D01*
X73647Y976186D01*
X74061Y976304D01*
X74476Y976411D01*
X74895Y976509D01*
X75315Y976597D01*
X75738Y976674D01*
X76162Y976741D01*
X76588Y976798D01*
X77015Y976845D01*
X77443Y976881D01*
X77872Y976907D01*
X78301Y976923D01*
X78731Y976928D01*
X107175Y976928D01*
X107175Y976929D02*
X107605Y976924D01*
X108034Y976908D01*
X108463Y976882D01*
X108891Y976846D01*
X109318Y976799D01*
X109744Y976742D01*
X110168Y976675D01*
X110591Y976598D01*
X111011Y976510D01*
X111430Y976412D01*
X111845Y976305D01*
X112259Y976187D01*
X112669Y976059D01*
X113076Y975921D01*
X113479Y975774D01*
X113879Y975617D01*
X114275Y975450D01*
X114667Y975273D01*
X115054Y975088D01*
X115437Y974893D01*
X115815Y974688D01*
X116188Y974475D01*
X116555Y974253D01*
X116918Y974022D01*
X117274Y973782D01*
X117625Y973534D01*
X117969Y973277D01*
X118307Y973012D01*
X118639Y972739D01*
X118964Y972458D01*
X119282Y972169D01*
X119593Y971873D01*
X119897Y971569D01*
X120193Y971258D01*
X120482Y970940D01*
X120763Y970615D01*
X121036Y970283D01*
X121301Y969945D01*
X121558Y969601D01*
X121806Y969250D01*
X122046Y968894D01*
X122277Y968531D01*
X122499Y968164D01*
X122712Y967791D01*
X122917Y967413D01*
X123112Y967030D01*
X123297Y966643D01*
X123474Y966251D01*
X123641Y965855D01*
X123798Y965455D01*
X123945Y965052D01*
X124083Y964645D01*
X124211Y964234D01*
X124329Y963821D01*
X124436Y963405D01*
X124534Y962987D01*
X124622Y962567D01*
X124699Y962144D01*
X124766Y961720D01*
X124823Y961294D01*
X124870Y960867D01*
X124906Y960439D01*
X124932Y960010D01*
X124948Y959580D01*
X124953Y959151D01*
X124953Y959150D02*
X124953Y941373D01*
X-96508Y-941373D02*
X-96508Y-952039D01*
X-96508Y-941373D02*
X-60953Y-941373D01*
X-60953Y-962706D01*
X-60957Y-963050D01*
X-60970Y-963393D01*
X-60990Y-963736D01*
X-61019Y-964079D01*
X-61057Y-964420D01*
X-61102Y-964761D01*
X-61156Y-965100D01*
X-61218Y-965438D01*
X-61288Y-965775D01*
X-61366Y-966110D01*
X-61453Y-966442D01*
X-61547Y-966773D01*
X-61649Y-967101D01*
X-61759Y-967426D01*
X-61877Y-967749D01*
X-62003Y-968069D01*
X-62136Y-968386D01*
X-62277Y-968699D01*
X-62426Y-969009D01*
X-62582Y-969315D01*
X-62745Y-969618D01*
X-62916Y-969916D01*
X-63094Y-970210D01*
X-63279Y-970500D01*
X-63471Y-970785D01*
X-63669Y-971065D01*
X-63875Y-971341D01*
X-64086Y-971612D01*
X-64305Y-971877D01*
X-64530Y-972137D01*
X-64761Y-972391D01*
X-64998Y-972640D01*
X-65241Y-972883D01*
X-65490Y-973120D01*
X-65744Y-973351D01*
X-66004Y-973576D01*
X-66269Y-973795D01*
X-66540Y-974006D01*
X-66816Y-974212D01*
X-67096Y-974410D01*
X-67381Y-974602D01*
X-67671Y-974787D01*
X-67965Y-974965D01*
X-68263Y-975136D01*
X-68566Y-975299D01*
X-68872Y-975455D01*
X-69182Y-975604D01*
X-69495Y-975745D01*
X-69812Y-975878D01*
X-70132Y-976004D01*
X-70455Y-976122D01*
X-70780Y-976232D01*
X-71108Y-976334D01*
X-71439Y-976428D01*
X-71771Y-976515D01*
X-72106Y-976593D01*
X-72443Y-976663D01*
X-72781Y-976725D01*
X-73120Y-976779D01*
X-73461Y-976824D01*
X-73802Y-976862D01*
X-74145Y-976891D01*
X-74488Y-976911D01*
X-74831Y-976924D01*
X-75175Y-976928D01*
X-110730Y-976928D01*
X-111079Y-976924D01*
X-111428Y-976911D01*
X-111776Y-976889D01*
X-112124Y-976860D01*
X-112471Y-976821D01*
X-112817Y-976774D01*
X-113161Y-976719D01*
X-113505Y-976655D01*
X-113846Y-976582D01*
X-114186Y-976502D01*
X-114523Y-976413D01*
X-114858Y-976316D01*
X-115191Y-976210D01*
X-115521Y-976097D01*
X-115848Y-975975D01*
X-116172Y-975845D01*
X-116493Y-975708D01*
X-116811Y-975563D01*
X-117124Y-975409D01*
X-117434Y-975249D01*
X-117740Y-975080D01*
X-118042Y-974905D01*
X-118339Y-974722D01*
X-118631Y-974531D01*
X-118919Y-974334D01*
X-119202Y-974129D01*
X-119480Y-973918D01*
X-119752Y-973700D01*
X-120019Y-973475D01*
X-120281Y-973244D01*
X-120537Y-973006D01*
X-120786Y-972763D01*
X-121030Y-972513D01*
X-121268Y-972257D01*
X-121499Y-971995D01*
X-121724Y-971728D01*
X-121942Y-971456D01*
X-122153Y-971178D01*
X-122358Y-970895D01*
X-122555Y-970607D01*
X-122745Y-970315D01*
X-122929Y-970018D01*
X-123104Y-969716D01*
X-123273Y-969410D01*
X-123433Y-969100D01*
X-123586Y-968787D01*
X-123732Y-968469D01*
X-123869Y-968149D01*
X-123999Y-967825D01*
X-124121Y-967497D01*
X-124234Y-967167D01*
X-124340Y-966835D01*
X-124437Y-966499D01*
X-124526Y-966162D01*
X-124606Y-965822D01*
X-124679Y-965481D01*
X-124743Y-965138D01*
X-124798Y-964793D01*
X-124845Y-964447D01*
X-124884Y-964100D01*
X-124913Y-963752D01*
X-124935Y-963404D01*
X-124948Y-963055D01*
X-124952Y-962706D01*
X-124953Y-962706D02*
X-124953Y-941373D01*
X-124953Y-911285D02*
X-60953Y-911285D01*
X-60953Y-875730D02*
X-124953Y-911285D01*
X-124953Y-875730D02*
X-60953Y-875730D01*
X-60953Y-845642D02*
X-124953Y-845642D01*
X-124953Y-827864D01*
X-124948Y-827434D01*
X-124932Y-827005D01*
X-124906Y-826576D01*
X-124870Y-826148D01*
X-124823Y-825721D01*
X-124766Y-825295D01*
X-124699Y-824871D01*
X-124622Y-824448D01*
X-124534Y-824028D01*
X-124436Y-823609D01*
X-124329Y-823194D01*
X-124211Y-822780D01*
X-124083Y-822370D01*
X-123945Y-821963D01*
X-123798Y-821560D01*
X-123641Y-821160D01*
X-123474Y-820764D01*
X-123297Y-820372D01*
X-123112Y-819985D01*
X-122917Y-819602D01*
X-122712Y-819224D01*
X-122499Y-818851D01*
X-122277Y-818484D01*
X-122046Y-818121D01*
X-121806Y-817765D01*
X-121558Y-817414D01*
X-121301Y-817070D01*
X-121036Y-816732D01*
X-120763Y-816400D01*
X-120482Y-816075D01*
X-120193Y-815757D01*
X-119897Y-815446D01*
X-119593Y-815142D01*
X-119282Y-814846D01*
X-118964Y-814557D01*
X-118639Y-814276D01*
X-118307Y-814003D01*
X-117969Y-813738D01*
X-117625Y-813481D01*
X-117274Y-813233D01*
X-116918Y-812993D01*
X-116555Y-812762D01*
X-116188Y-812540D01*
X-115815Y-812327D01*
X-115437Y-812122D01*
X-115054Y-811927D01*
X-114667Y-811742D01*
X-114275Y-811565D01*
X-113879Y-811398D01*
X-113479Y-811241D01*
X-113076Y-811094D01*
X-112669Y-810956D01*
X-112259Y-810828D01*
X-111845Y-810710D01*
X-111430Y-810603D01*
X-111011Y-810505D01*
X-110591Y-810417D01*
X-110168Y-810340D01*
X-109744Y-810273D01*
X-109318Y-810216D01*
X-108891Y-810169D01*
X-108463Y-810133D01*
X-108034Y-810107D01*
X-107605Y-810091D01*
X-107175Y-810086D01*
X-107175Y-810087D02*
X-78730Y-810087D01*
X-78730Y-810086D02*
X-78300Y-810091D01*
X-77871Y-810107D01*
X-77442Y-810133D01*
X-77014Y-810169D01*
X-76587Y-810216D01*
X-76161Y-810273D01*
X-75737Y-810340D01*
X-75314Y-810417D01*
X-74894Y-810505D01*
X-74475Y-810603D01*
X-74060Y-810710D01*
X-73646Y-810828D01*
X-73236Y-810956D01*
X-72829Y-811094D01*
X-72426Y-811241D01*
X-72026Y-811398D01*
X-71630Y-811565D01*
X-71238Y-811742D01*
X-70851Y-811927D01*
X-70468Y-812122D01*
X-70090Y-812327D01*
X-69717Y-812540D01*
X-69350Y-812762D01*
X-68987Y-812993D01*
X-68631Y-813233D01*
X-68280Y-813481D01*
X-67936Y-813738D01*
X-67598Y-814003D01*
X-67266Y-814276D01*
X-66941Y-814557D01*
X-66623Y-814846D01*
X-66312Y-815142D01*
X-66008Y-815446D01*
X-65712Y-815757D01*
X-65423Y-816075D01*
X-65142Y-816400D01*
X-64869Y-816732D01*
X-64604Y-817070D01*
X-64347Y-817414D01*
X-64099Y-817765D01*
X-63859Y-818121D01*
X-63628Y-818484D01*
X-63406Y-818851D01*
X-63193Y-819224D01*
X-62988Y-819602D01*
X-62793Y-819985D01*
X-62608Y-820372D01*
X-62431Y-820764D01*
X-62264Y-821160D01*
X-62107Y-821560D01*
X-61960Y-821963D01*
X-61822Y-822370D01*
X-61694Y-822780D01*
X-61576Y-823194D01*
X-61469Y-823609D01*
X-61371Y-824028D01*
X-61283Y-824448D01*
X-61206Y-824871D01*
X-61139Y-825295D01*
X-61082Y-825721D01*
X-61035Y-826148D01*
X-60999Y-826576D01*
X-60973Y-827005D01*
X-60957Y-827434D01*
X-60952Y-827864D01*
X-60953Y-827864D02*
X-60953Y-845642D01*
X834975Y-89397D02*
X845642Y-89397D01*
X845642Y-124953D01*
X824309Y-124953D01*
X823965Y-124949D01*
X823622Y-124936D01*
X823279Y-124916D01*
X822936Y-124887D01*
X822595Y-124849D01*
X822254Y-124804D01*
X821915Y-124750D01*
X821577Y-124688D01*
X821240Y-124618D01*
X820905Y-124540D01*
X820573Y-124453D01*
X820242Y-124359D01*
X819914Y-124257D01*
X819589Y-124147D01*
X819266Y-124029D01*
X818946Y-123903D01*
X818629Y-123770D01*
X818316Y-123629D01*
X818006Y-123480D01*
X817700Y-123324D01*
X817397Y-123161D01*
X817099Y-122990D01*
X816805Y-122812D01*
X816515Y-122627D01*
X816230Y-122435D01*
X815950Y-122237D01*
X815674Y-122031D01*
X815403Y-121820D01*
X815138Y-121601D01*
X814878Y-121376D01*
X814624Y-121145D01*
X814375Y-120908D01*
X814132Y-120665D01*
X813895Y-120416D01*
X813664Y-120162D01*
X813439Y-119902D01*
X813220Y-119637D01*
X813009Y-119366D01*
X812803Y-119090D01*
X812605Y-118810D01*
X812413Y-118525D01*
X812228Y-118235D01*
X812050Y-117941D01*
X811879Y-117643D01*
X811716Y-117340D01*
X811560Y-117034D01*
X811411Y-116724D01*
X811270Y-116411D01*
X811137Y-116094D01*
X811011Y-115774D01*
X810893Y-115451D01*
X810783Y-115126D01*
X810681Y-114798D01*
X810587Y-114467D01*
X810500Y-114135D01*
X810422Y-113800D01*
X810352Y-113463D01*
X810290Y-113125D01*
X810236Y-112786D01*
X810191Y-112445D01*
X810153Y-112104D01*
X810124Y-111761D01*
X810104Y-111418D01*
X810091Y-111075D01*
X810087Y-110731D01*
X810087Y-75175D01*
X810091Y-74826D01*
X810104Y-74477D01*
X810126Y-74129D01*
X810155Y-73781D01*
X810194Y-73434D01*
X810241Y-73088D01*
X810296Y-72744D01*
X810360Y-72400D01*
X810433Y-72059D01*
X810513Y-71719D01*
X810602Y-71382D01*
X810699Y-71047D01*
X810805Y-70714D01*
X810918Y-70384D01*
X811040Y-70057D01*
X811170Y-69733D01*
X811307Y-69412D01*
X811452Y-69094D01*
X811606Y-68781D01*
X811766Y-68471D01*
X811935Y-68165D01*
X812110Y-67864D01*
X812293Y-67566D01*
X812484Y-67274D01*
X812681Y-66986D01*
X812886Y-66703D01*
X813097Y-66425D01*
X813315Y-66153D01*
X813540Y-65886D01*
X813771Y-65624D01*
X814009Y-65368D01*
X814252Y-65119D01*
X814502Y-64875D01*
X814758Y-64637D01*
X815019Y-64406D01*
X815287Y-64181D01*
X815559Y-63963D01*
X815837Y-63752D01*
X816120Y-63547D01*
X816408Y-63350D01*
X816700Y-63160D01*
X816997Y-62976D01*
X817299Y-62801D01*
X817605Y-62632D01*
X817914Y-62472D01*
X818228Y-62319D01*
X818545Y-62173D01*
X818866Y-62036D01*
X819190Y-61906D01*
X819518Y-61784D01*
X819848Y-61671D01*
X820180Y-61565D01*
X820516Y-61468D01*
X820853Y-61379D01*
X821193Y-61299D01*
X821534Y-61226D01*
X821877Y-61162D01*
X822222Y-61107D01*
X822568Y-61060D01*
X822915Y-61022D01*
X823263Y-60992D01*
X823611Y-60970D01*
X823960Y-60957D01*
X824309Y-60953D01*
X845642Y-60953D01*
X875730Y-60953D02*
X875730Y-124953D01*
X911285Y-124953D02*
X875730Y-60953D01*
X911285Y-60953D02*
X911285Y-124953D01*
X941373Y-124953D02*
X941373Y-60953D01*
X959150Y-60953D01*
X959580Y-60958D01*
X960009Y-60974D01*
X960438Y-61000D01*
X960866Y-61036D01*
X961293Y-61083D01*
X961719Y-61140D01*
X962143Y-61207D01*
X962566Y-61284D01*
X962986Y-61372D01*
X963405Y-61470D01*
X963820Y-61577D01*
X964234Y-61695D01*
X964644Y-61823D01*
X965051Y-61961D01*
X965454Y-62108D01*
X965854Y-62265D01*
X966250Y-62432D01*
X966642Y-62609D01*
X967029Y-62794D01*
X967412Y-62989D01*
X967790Y-63194D01*
X968163Y-63407D01*
X968530Y-63629D01*
X968893Y-63860D01*
X969249Y-64100D01*
X969600Y-64348D01*
X969944Y-64605D01*
X970282Y-64870D01*
X970614Y-65143D01*
X970939Y-65424D01*
X971257Y-65713D01*
X971568Y-66009D01*
X971872Y-66313D01*
X972168Y-66624D01*
X972457Y-66942D01*
X972738Y-67267D01*
X973011Y-67599D01*
X973276Y-67937D01*
X973533Y-68281D01*
X973781Y-68632D01*
X974021Y-68988D01*
X974252Y-69351D01*
X974474Y-69718D01*
X974687Y-70091D01*
X974892Y-70469D01*
X975087Y-70852D01*
X975272Y-71239D01*
X975449Y-71631D01*
X975616Y-72027D01*
X975773Y-72427D01*
X975920Y-72830D01*
X976058Y-73237D01*
X976186Y-73647D01*
X976304Y-74061D01*
X976411Y-74476D01*
X976509Y-74895D01*
X976597Y-75315D01*
X976674Y-75738D01*
X976741Y-76162D01*
X976798Y-76588D01*
X976845Y-77015D01*
X976881Y-77443D01*
X976907Y-77872D01*
X976923Y-78301D01*
X976928Y-78731D01*
X976928Y-107175D01*
X976929Y-107175D02*
X976924Y-107605D01*
X976908Y-108034D01*
X976882Y-108463D01*
X976846Y-108891D01*
X976799Y-109318D01*
X976742Y-109744D01*
X976675Y-110168D01*
X976598Y-110591D01*
X976510Y-111011D01*
X976412Y-111430D01*
X976305Y-111845D01*
X976187Y-112259D01*
X976059Y-112669D01*
X975921Y-113076D01*
X975774Y-113479D01*
X975617Y-113879D01*
X975450Y-114275D01*
X975273Y-114667D01*
X975088Y-115054D01*
X974893Y-115437D01*
X974688Y-115815D01*
X974475Y-116188D01*
X974253Y-116555D01*
X974022Y-116918D01*
X973782Y-117274D01*
X973534Y-117625D01*
X973277Y-117969D01*
X973012Y-118307D01*
X972739Y-118639D01*
X972458Y-118964D01*
X972169Y-119282D01*
X971873Y-119593D01*
X971569Y-119897D01*
X971258Y-120193D01*
X970940Y-120482D01*
X970615Y-120763D01*
X970283Y-121036D01*
X969945Y-121301D01*
X969601Y-121558D01*
X969250Y-121806D01*
X968894Y-122046D01*
X968531Y-122277D01*
X968164Y-122499D01*
X967791Y-122712D01*
X967413Y-122917D01*
X967030Y-123112D01*
X966643Y-123297D01*
X966251Y-123474D01*
X965855Y-123641D01*
X965455Y-123798D01*
X965052Y-123945D01*
X964645Y-124083D01*
X964234Y-124211D01*
X963821Y-124329D01*
X963405Y-124436D01*
X962987Y-124534D01*
X962567Y-124622D01*
X962144Y-124699D01*
X961720Y-124766D01*
X961294Y-124823D01*
X960867Y-124870D01*
X960439Y-124906D01*
X960010Y-124932D01*
X959580Y-124948D01*
X959151Y-124953D01*
X959150Y-124953D02*
X941373Y-124953D01*
X-941373Y96508D02*
X-952039Y96508D01*
X-941373Y96508D02*
X-941373Y60953D01*
X-962706Y60953D01*
X-963050Y60957D01*
X-963393Y60970D01*
X-963736Y60990D01*
X-964079Y61019D01*
X-964420Y61057D01*
X-964761Y61102D01*
X-965100Y61156D01*
X-965438Y61218D01*
X-965775Y61288D01*
X-966110Y61366D01*
X-966442Y61453D01*
X-966773Y61547D01*
X-967101Y61649D01*
X-967426Y61759D01*
X-967749Y61877D01*
X-968069Y62003D01*
X-968386Y62136D01*
X-968699Y62277D01*
X-969009Y62426D01*
X-969315Y62582D01*
X-969618Y62745D01*
X-969916Y62916D01*
X-970210Y63094D01*
X-970500Y63279D01*
X-970785Y63471D01*
X-971065Y63669D01*
X-971341Y63875D01*
X-971612Y64086D01*
X-971877Y64305D01*
X-972137Y64530D01*
X-972391Y64761D01*
X-972640Y64998D01*
X-972883Y65241D01*
X-973120Y65490D01*
X-973351Y65744D01*
X-973576Y66004D01*
X-973795Y66269D01*
X-974006Y66540D01*
X-974212Y66816D01*
X-974410Y67096D01*
X-974602Y67381D01*
X-974787Y67671D01*
X-974965Y67965D01*
X-975136Y68263D01*
X-975299Y68566D01*
X-975455Y68872D01*
X-975604Y69182D01*
X-975745Y69495D01*
X-975878Y69812D01*
X-976004Y70132D01*
X-976122Y70455D01*
X-976232Y70780D01*
X-976334Y71108D01*
X-976428Y71439D01*
X-976515Y71771D01*
X-976593Y72106D01*
X-976663Y72443D01*
X-976725Y72781D01*
X-976779Y73120D01*
X-976824Y73461D01*
X-976862Y73802D01*
X-976891Y74145D01*
X-976911Y74488D01*
X-976924Y74831D01*
X-976928Y75175D01*
X-976928Y110730D01*
X-976924Y111074D01*
X-976911Y111417D01*
X-976891Y111760D01*
X-976862Y112103D01*
X-976824Y112444D01*
X-976779Y112785D01*
X-976725Y113124D01*
X-976663Y113462D01*
X-976593Y113799D01*
X-976515Y114134D01*
X-976428Y114466D01*
X-976334Y114797D01*
X-976232Y115125D01*
X-976122Y115450D01*
X-976004Y115773D01*
X-975878Y116093D01*
X-975745Y116410D01*
X-975604Y116723D01*
X-975455Y117033D01*
X-975299Y117339D01*
X-975136Y117642D01*
X-974965Y117940D01*
X-974787Y118234D01*
X-974602Y118524D01*
X-974410Y118809D01*
X-974212Y119089D01*
X-974006Y119365D01*
X-973795Y119636D01*
X-973576Y119901D01*
X-973351Y120161D01*
X-973120Y120415D01*
X-972883Y120664D01*
X-972640Y120907D01*
X-972391Y121144D01*
X-972137Y121375D01*
X-971877Y121600D01*
X-971612Y121819D01*
X-971341Y122030D01*
X-971065Y122236D01*
X-970785Y122434D01*
X-970500Y122626D01*
X-970210Y122811D01*
X-969916Y122989D01*
X-969618Y123160D01*
X-969315Y123323D01*
X-969009Y123479D01*
X-968699Y123628D01*
X-968386Y123769D01*
X-968069Y123902D01*
X-967749Y124028D01*
X-967426Y124146D01*
X-967101Y124256D01*
X-966773Y124358D01*
X-966442Y124452D01*
X-966110Y124539D01*
X-965775Y124617D01*
X-965438Y124687D01*
X-965100Y124749D01*
X-964761Y124803D01*
X-964420Y124848D01*
X-964079Y124886D01*
X-963736Y124915D01*
X-963393Y124935D01*
X-963050Y124948D01*
X-962706Y124952D01*
X-962706Y124953D02*
X-941373Y124953D01*
X-911285Y124953D02*
X-911285Y60953D01*
X-875730Y60953D02*
X-911285Y124953D01*
X-875730Y124953D02*
X-875730Y60953D01*
X-845642Y60953D02*
X-845642Y124953D01*
X-827864Y124953D01*
X-827434Y124948D01*
X-827005Y124932D01*
X-826576Y124906D01*
X-826148Y124870D01*
X-825721Y124823D01*
X-825295Y124766D01*
X-824871Y124699D01*
X-824448Y124622D01*
X-824028Y124534D01*
X-823609Y124436D01*
X-823194Y124329D01*
X-822780Y124211D01*
X-822370Y124083D01*
X-821963Y123945D01*
X-821560Y123798D01*
X-821160Y123641D01*
X-820764Y123474D01*
X-820372Y123297D01*
X-819985Y123112D01*
X-819602Y122917D01*
X-819224Y122712D01*
X-818851Y122499D01*
X-818484Y122277D01*
X-818121Y122046D01*
X-817765Y121806D01*
X-817414Y121558D01*
X-817070Y121301D01*
X-816732Y121036D01*
X-816400Y120763D01*
X-816075Y120482D01*
X-815757Y120193D01*
X-815446Y119897D01*
X-815142Y119593D01*
X-814846Y119282D01*
X-814557Y118964D01*
X-814276Y118639D01*
X-814003Y118307D01*
X-813738Y117969D01*
X-813481Y117625D01*
X-813233Y117274D01*
X-812993Y116918D01*
X-812762Y116555D01*
X-812540Y116188D01*
X-812327Y115815D01*
X-812122Y115437D01*
X-811927Y115054D01*
X-811742Y114667D01*
X-811565Y114275D01*
X-811398Y113879D01*
X-811241Y113479D01*
X-811094Y113076D01*
X-810956Y112669D01*
X-810828Y112259D01*
X-810710Y111845D01*
X-810603Y111430D01*
X-810505Y111011D01*
X-810417Y110591D01*
X-810340Y110168D01*
X-810273Y109744D01*
X-810216Y109318D01*
X-810169Y108891D01*
X-810133Y108463D01*
X-810107Y108034D01*
X-810091Y107605D01*
X-810086Y107175D01*
X-810087Y107175D02*
X-810087Y78730D01*
X-810086Y78730D02*
X-810091Y78300D01*
X-810107Y77871D01*
X-810133Y77442D01*
X-810169Y77014D01*
X-810216Y76587D01*
X-810273Y76161D01*
X-810340Y75737D01*
X-810417Y75314D01*
X-810505Y74894D01*
X-810603Y74475D01*
X-810710Y74060D01*
X-810828Y73646D01*
X-810956Y73236D01*
X-811094Y72829D01*
X-811241Y72426D01*
X-811398Y72026D01*
X-811565Y71630D01*
X-811742Y71238D01*
X-811927Y70851D01*
X-812122Y70468D01*
X-812327Y70090D01*
X-812540Y69717D01*
X-812762Y69350D01*
X-812993Y68987D01*
X-813233Y68631D01*
X-813481Y68280D01*
X-813738Y67936D01*
X-814003Y67598D01*
X-814276Y67266D01*
X-814557Y66941D01*
X-814846Y66623D01*
X-815142Y66312D01*
X-815446Y66008D01*
X-815757Y65712D01*
X-816075Y65423D01*
X-816400Y65142D01*
X-816732Y64869D01*
X-817070Y64604D01*
X-817414Y64347D01*
X-817765Y64099D01*
X-818121Y63859D01*
X-818484Y63628D01*
X-818851Y63406D01*
X-819224Y63193D01*
X-819602Y62988D01*
X-819985Y62793D01*
X-820372Y62608D01*
X-820764Y62431D01*
X-821160Y62264D01*
X-821560Y62107D01*
X-821963Y61960D01*
X-822370Y61822D01*
X-822780Y61694D01*
X-823194Y61576D01*
X-823609Y61469D01*
X-824028Y61371D01*
X-824448Y61283D01*
X-824871Y61206D01*
X-825295Y61139D01*
X-825721Y61082D01*
X-826148Y61035D01*
X-826576Y60999D01*
X-827005Y60973D01*
X-827434Y60957D01*
X-827864Y60952D01*
X-827864Y60953D02*
X-845642Y60953D01*
D11*
X393701Y102362D03*
X-305118Y0D03*
X-561024Y0D03*
X403543Y-78740D03*
X-196850Y-470472D03*
X157480Y-78740D03*
X355118Y354331D03*
X255118Y354331D03*
X355118Y275591D03*
X255118Y275591D03*
X295276Y147638D03*
X393701Y175197D03*
X-305118Y49213D03*
X-561024Y49213D03*
D12*
X-413386Y137795D03*
X501969Y0D03*
X551181Y-98425D03*
X452756Y98425D03*
X-378937Y-285433D03*
X334646Y-29528D03*
X-531496Y88583D03*
X93110Y405906D03*
X-147638Y334646D03*
X49213Y-196850D03*
X0Y-285433D03*
X-9843Y482283D03*
X-9843Y246063D03*
X-364173Y482283D03*
X-364173Y246063D03*
X-68898Y14764D03*
X-68898Y-14764D03*
X-98425Y14764D03*
X-98425Y-14764D03*
X-127953Y-14764D03*
X-127953Y14764D03*
X0Y669291D03*
X669291Y0D03*
X-669291Y0D03*
X0Y-669291D03*
X-472441Y472441D03*
X472441Y472441D03*
X472441Y-472441D03*
X-472441Y-472441D03*
X78740Y-324803D03*
X157480Y14764D03*
X157480Y-14764D03*
X187008Y-14764D03*
X187008Y14764D03*
X452756Y0D03*
X-58268Y-322441D03*
X-157480Y246063D03*
D13*
X-59055Y-137795D02*
X-59055Y-321654D01*
X-58268Y-322441D01*
X-157480Y206693D02*
X-157480Y246063D01*
X-157480Y206693D02*
X-167323Y196850D01*
X-167323Y-29528D01*
X-59055Y-137795D01*
D12*
X-236220Y-196850D03*
X-157480Y-196850D03*
X-157480Y-236220D03*
X-236220Y-236220D03*
X-196850Y-196850D03*
X-196850Y-236220D03*
X-236220Y-157480D03*
X-196850Y-157480D03*
X-157480Y-157480D03*
X-384331Y0D03*
X-482283Y472D03*
X551181Y98425D03*
X-531496Y187008D03*
X236220Y-9843D03*
X92913Y305906D03*
X29528Y413386D03*
X29528Y314961D03*
X-364173Y334646D03*
X580709Y98425D03*
X580709Y39370D03*
X551181Y39370D03*
X580709Y68898D03*
X551181Y68898D03*
X472441Y275591D03*
X472441Y354331D03*
X-78740Y433071D03*
X143307Y305906D03*
D13*
X-78740Y433071D02*
X-78740Y472441D01*
X-19685Y531496D01*
X157480Y531496D01*
X206693Y482283D02*
X206693Y364173D01*
X148425Y305906D01*
X143307Y305906D01*
X206693Y482283D02*
X157480Y531496D01*
D12*
X-226378Y370409D03*
X92913Y355906D03*
X-127953Y492126D03*
X143110Y355906D03*
X-108268Y118110D03*
X-108268Y59055D03*
X108268Y118110D03*
X108268Y59055D03*
X0Y118110D03*
X-59055Y118110D03*
X59055Y118110D03*
X-59055Y59055D03*
X59055Y59055D03*
X-83661Y88583D03*
X-29528Y88583D03*
X29528Y88583D03*
X83661Y88583D03*
X78740Y-285433D03*
X68898Y0D03*
D13*
X78740Y-9843D02*
X78740Y-285433D01*
X78740Y-9843D02*
X68898Y0D01*
D12*
X-187008Y418835D03*
D13*
X-240614Y418835D01*
D12*
X-383858Y216535D03*
D13*
X-324803Y334646D02*
X-240614Y418835D01*
X-354331Y216535D02*
X-383858Y216535D01*
X-324803Y246063D02*
X-324803Y334646D01*
X-324803Y246063D02*
X-354331Y216535D01*
D12*
X-482283Y216535D03*
X-157480Y393701D03*
X-196850Y246063D03*
X-383858Y59055D03*
X327165Y46850D03*
X-226378Y334646D03*
X236220Y39370D03*
X-383858Y-59528D03*
X-482283Y-59528D03*
X-236220Y246063D03*
D13*
X-206693Y275591D02*
X-137795Y275591D01*
X-39370Y177165D01*
X-206693Y275591D02*
X-236220Y246063D01*
X156693Y177165D02*
X255118Y275591D01*
X156693Y177165D02*
X-39370Y177165D01*
D12*
X-275591Y285433D03*
D13*
X-265748Y295276D01*
X-127953Y295276D01*
X-29528Y196850D01*
X137795Y196850D01*
X206693Y265748D01*
X206693Y305906D02*
X255118Y354331D01*
X206693Y305906D02*
X206693Y265748D01*
M02*
