G04 EAGLE Gerber X2 export*
%TF.Part,Single*%
%TF.FileFunction,Soldermask,Top*%
%TF.FilePolarity,Positive*%
%TF.GenerationSoftware,Autodesk,EAGLE,9.6.2*%
%TF.CreationDate,2025-04-18T12:16:15Z*%
G75*
%MOIN*%
%FSLAX36Y36*%
%LPD*%
%INTop Solder Mask*%
%AMOC8*
5,1,8,0,0,1.08239X$1,22.5*%
G01*
%ADD10C,0.006000*%
%ADD11R,0.042370X0.030559*%
%ADD12C,0.034000*%
%ADD13C,0.042000*%
%ADD14C,0.056150*%
%ADD15R,0.022685X0.132921*%
%ADD16R,0.054181X0.132921*%
%ADD17R,0.030559X0.026622*%
%ADD18C,0.024780*%


D10*
X-77519Y219535D02*
X-77519Y252906D01*
X-66396Y234367D01*
X-55273Y252906D01*
X-55273Y219535D01*
X-29752Y226951D02*
X-29752Y252906D01*
X-29752Y226951D02*
X-29754Y226772D01*
X-29761Y226593D01*
X-29771Y226414D01*
X-29787Y226235D01*
X-29806Y226057D01*
X-29830Y225879D01*
X-29858Y225702D01*
X-29890Y225526D01*
X-29927Y225351D01*
X-29967Y225176D01*
X-30012Y225003D01*
X-30062Y224830D01*
X-30115Y224659D01*
X-30172Y224490D01*
X-30234Y224321D01*
X-30299Y224154D01*
X-30369Y223989D01*
X-30443Y223826D01*
X-30520Y223664D01*
X-30601Y223505D01*
X-30687Y223347D01*
X-30776Y223191D01*
X-30868Y223038D01*
X-30965Y222887D01*
X-31065Y222738D01*
X-31168Y222592D01*
X-31275Y222448D01*
X-31386Y222307D01*
X-31500Y222169D01*
X-31617Y222033D01*
X-31737Y221901D01*
X-31861Y221771D01*
X-31988Y221644D01*
X-32118Y221520D01*
X-32250Y221400D01*
X-32386Y221283D01*
X-32524Y221169D01*
X-32665Y221058D01*
X-32809Y220951D01*
X-32955Y220848D01*
X-33104Y220748D01*
X-33255Y220651D01*
X-33408Y220559D01*
X-33564Y220470D01*
X-33722Y220384D01*
X-33881Y220303D01*
X-34043Y220226D01*
X-34206Y220152D01*
X-34371Y220082D01*
X-34538Y220017D01*
X-34707Y219955D01*
X-34876Y219898D01*
X-35047Y219845D01*
X-35220Y219795D01*
X-35393Y219750D01*
X-35568Y219710D01*
X-35743Y219673D01*
X-35919Y219641D01*
X-36096Y219613D01*
X-36274Y219589D01*
X-36452Y219570D01*
X-36631Y219554D01*
X-36810Y219544D01*
X-36989Y219537D01*
X-37168Y219535D01*
X-40875Y219535D01*
X-11886Y228805D02*
X-11883Y229031D01*
X-11875Y229256D01*
X-11861Y229482D01*
X-11842Y229707D01*
X-11817Y229931D01*
X-11787Y230155D01*
X-11752Y230377D01*
X-11711Y230599D01*
X-11664Y230820D01*
X-11612Y231040D01*
X-11555Y231258D01*
X-11493Y231475D01*
X-11425Y231691D01*
X-11352Y231904D01*
X-11274Y232116D01*
X-11191Y232326D01*
X-11103Y232534D01*
X-11010Y232739D01*
X-10911Y232942D01*
X-10808Y233143D01*
X-10700Y233341D01*
X-10587Y233537D01*
X-10470Y233730D01*
X-10347Y233919D01*
X-10220Y234106D01*
X-10089Y234290D01*
X-9953Y234470D01*
X-9813Y234647D01*
X-9669Y234820D01*
X-9520Y234990D01*
X-9368Y235157D01*
X-9211Y235319D01*
X-9050Y235478D01*
X-8886Y235632D01*
X-8718Y235783D01*
X-8546Y235930D01*
X-8371Y236072D01*
X-8192Y236210D01*
X-8010Y236343D01*
X-7825Y236472D01*
X-7637Y236597D01*
X-7446Y236717D01*
X-7251Y236832D01*
X-7055Y236943D01*
X-6855Y237048D01*
X-6653Y237149D01*
X-6449Y237245D01*
X-6242Y237336D01*
X-6033Y237421D01*
X-5823Y237502D01*
X-5610Y237578D01*
X-5395Y237648D01*
X-5179Y237713D01*
X-4961Y237773D01*
X-4742Y237827D01*
X-4522Y237876D01*
X-4301Y237920D01*
X-4078Y237958D01*
X-3855Y237991D01*
X-3631Y238018D01*
X-3406Y238040D01*
X-3181Y238057D01*
X-2956Y238068D01*
X-2730Y238073D01*
X-2504Y238073D01*
X-2278Y238068D01*
X-2053Y238057D01*
X-1828Y238040D01*
X-1603Y238018D01*
X-1379Y237991D01*
X-1156Y237958D01*
X-933Y237920D01*
X-712Y237876D01*
X-492Y237827D01*
X-273Y237773D01*
X-55Y237713D01*
X161Y237648D01*
X376Y237578D01*
X589Y237502D01*
X799Y237421D01*
X1008Y237336D01*
X1215Y237245D01*
X1419Y237149D01*
X1621Y237048D01*
X1821Y236943D01*
X2018Y236832D01*
X2212Y236717D01*
X2403Y236597D01*
X2591Y236472D01*
X2776Y236343D01*
X2958Y236210D01*
X3137Y236072D01*
X3312Y235930D01*
X3484Y235783D01*
X3652Y235632D01*
X3816Y235478D01*
X3977Y235319D01*
X4134Y235157D01*
X4286Y234990D01*
X4435Y234820D01*
X4579Y234647D01*
X4719Y234470D01*
X4855Y234290D01*
X4986Y234106D01*
X5113Y233919D01*
X5236Y233730D01*
X5353Y233537D01*
X5466Y233341D01*
X5574Y233143D01*
X5677Y232942D01*
X5776Y232739D01*
X5869Y232534D01*
X5957Y232326D01*
X6040Y232116D01*
X6118Y231904D01*
X6191Y231691D01*
X6259Y231475D01*
X6321Y231258D01*
X6378Y231040D01*
X6430Y230820D01*
X6477Y230599D01*
X6518Y230377D01*
X6553Y230155D01*
X6583Y229931D01*
X6608Y229707D01*
X6627Y229482D01*
X6641Y229256D01*
X6649Y229031D01*
X6652Y228805D01*
X6649Y228579D01*
X6641Y228354D01*
X6627Y228128D01*
X6608Y227903D01*
X6583Y227679D01*
X6553Y227455D01*
X6518Y227233D01*
X6477Y227011D01*
X6430Y226790D01*
X6378Y226570D01*
X6321Y226352D01*
X6259Y226135D01*
X6191Y225919D01*
X6118Y225706D01*
X6040Y225494D01*
X5957Y225284D01*
X5869Y225076D01*
X5776Y224871D01*
X5677Y224668D01*
X5574Y224467D01*
X5466Y224269D01*
X5353Y224073D01*
X5236Y223880D01*
X5113Y223691D01*
X4986Y223504D01*
X4855Y223320D01*
X4719Y223140D01*
X4579Y222963D01*
X4435Y222790D01*
X4286Y222620D01*
X4134Y222453D01*
X3977Y222291D01*
X3816Y222132D01*
X3652Y221978D01*
X3484Y221827D01*
X3312Y221680D01*
X3137Y221538D01*
X2958Y221400D01*
X2776Y221267D01*
X2591Y221138D01*
X2403Y221013D01*
X2212Y220893D01*
X2018Y220778D01*
X1821Y220667D01*
X1621Y220562D01*
X1419Y220461D01*
X1215Y220365D01*
X1008Y220274D01*
X799Y220189D01*
X589Y220108D01*
X376Y220032D01*
X161Y219962D01*
X-55Y219897D01*
X-273Y219837D01*
X-492Y219783D01*
X-712Y219734D01*
X-933Y219690D01*
X-1156Y219652D01*
X-1379Y219619D01*
X-1603Y219592D01*
X-1828Y219570D01*
X-2053Y219553D01*
X-2278Y219542D01*
X-2504Y219537D01*
X-2730Y219537D01*
X-2956Y219542D01*
X-3181Y219553D01*
X-3406Y219570D01*
X-3631Y219592D01*
X-3855Y219619D01*
X-4078Y219652D01*
X-4301Y219690D01*
X-4522Y219734D01*
X-4742Y219783D01*
X-4961Y219837D01*
X-5179Y219897D01*
X-5395Y219962D01*
X-5610Y220032D01*
X-5823Y220108D01*
X-6033Y220189D01*
X-6242Y220274D01*
X-6449Y220365D01*
X-6653Y220461D01*
X-6855Y220562D01*
X-7055Y220667D01*
X-7251Y220778D01*
X-7446Y220893D01*
X-7637Y221013D01*
X-7825Y221138D01*
X-8010Y221267D01*
X-8192Y221400D01*
X-8371Y221538D01*
X-8546Y221680D01*
X-8718Y221827D01*
X-8886Y221978D01*
X-9050Y222132D01*
X-9211Y222291D01*
X-9368Y222453D01*
X-9520Y222620D01*
X-9669Y222790D01*
X-9813Y222963D01*
X-9953Y223140D01*
X-10089Y223320D01*
X-10220Y223504D01*
X-10347Y223691D01*
X-10470Y223880D01*
X-10587Y224073D01*
X-10700Y224269D01*
X-10808Y224467D01*
X-10911Y224668D01*
X-11010Y224871D01*
X-11103Y225076D01*
X-11191Y225284D01*
X-11274Y225494D01*
X-11352Y225706D01*
X-11425Y225919D01*
X-11493Y226135D01*
X-11555Y226352D01*
X-11612Y226570D01*
X-11664Y226790D01*
X-11711Y227011D01*
X-11752Y227233D01*
X-11787Y227455D01*
X-11817Y227679D01*
X-11842Y227903D01*
X-11861Y228128D01*
X-11875Y228354D01*
X-11883Y228579D01*
X-11886Y228805D01*
X-10033Y245490D02*
X-10031Y245671D01*
X-10024Y245851D01*
X-10013Y246031D01*
X-9998Y246211D01*
X-9978Y246391D01*
X-9954Y246570D01*
X-9926Y246748D01*
X-9893Y246926D01*
X-9856Y247102D01*
X-9814Y247278D01*
X-9768Y247453D01*
X-9719Y247627D01*
X-9664Y247799D01*
X-9606Y247970D01*
X-9544Y248139D01*
X-9477Y248307D01*
X-9406Y248473D01*
X-9332Y248638D01*
X-9253Y248800D01*
X-9171Y248961D01*
X-9084Y249120D01*
X-8994Y249276D01*
X-8900Y249430D01*
X-8802Y249582D01*
X-8700Y249731D01*
X-8595Y249878D01*
X-8487Y250022D01*
X-8375Y250164D01*
X-8259Y250303D01*
X-8140Y250439D01*
X-8018Y250572D01*
X-7893Y250702D01*
X-7764Y250829D01*
X-7633Y250953D01*
X-7498Y251073D01*
X-7361Y251190D01*
X-7221Y251304D01*
X-7078Y251414D01*
X-6932Y251521D01*
X-6784Y251625D01*
X-6633Y251724D01*
X-6480Y251820D01*
X-6325Y251912D01*
X-6168Y252001D01*
X-6008Y252085D01*
X-5846Y252166D01*
X-5683Y252243D01*
X-5517Y252315D01*
X-5350Y252384D01*
X-5182Y252448D01*
X-5011Y252509D01*
X-4840Y252565D01*
X-4667Y252617D01*
X-4493Y252665D01*
X-4317Y252708D01*
X-4141Y252748D01*
X-3964Y252783D01*
X-3786Y252813D01*
X-3607Y252840D01*
X-3428Y252862D01*
X-3248Y252879D01*
X-3068Y252892D01*
X-2888Y252901D01*
X-2707Y252905D01*
X-2527Y252905D01*
X-2346Y252901D01*
X-2166Y252892D01*
X-1986Y252879D01*
X-1806Y252862D01*
X-1627Y252840D01*
X-1448Y252813D01*
X-1270Y252783D01*
X-1093Y252748D01*
X-917Y252708D01*
X-741Y252665D01*
X-567Y252617D01*
X-394Y252565D01*
X-223Y252509D01*
X-52Y252448D01*
X116Y252384D01*
X283Y252315D01*
X449Y252243D01*
X612Y252166D01*
X774Y252085D01*
X934Y252001D01*
X1091Y251912D01*
X1246Y251820D01*
X1399Y251724D01*
X1550Y251625D01*
X1698Y251521D01*
X1844Y251414D01*
X1987Y251304D01*
X2127Y251190D01*
X2264Y251073D01*
X2399Y250953D01*
X2530Y250829D01*
X2659Y250702D01*
X2784Y250572D01*
X2906Y250439D01*
X3025Y250303D01*
X3141Y250164D01*
X3253Y250022D01*
X3361Y249878D01*
X3466Y249731D01*
X3568Y249582D01*
X3666Y249430D01*
X3760Y249276D01*
X3850Y249120D01*
X3937Y248961D01*
X4019Y248800D01*
X4098Y248638D01*
X4172Y248473D01*
X4243Y248307D01*
X4310Y248139D01*
X4372Y247970D01*
X4430Y247799D01*
X4485Y247627D01*
X4534Y247453D01*
X4580Y247278D01*
X4622Y247102D01*
X4659Y246926D01*
X4692Y246748D01*
X4720Y246570D01*
X4744Y246391D01*
X4764Y246211D01*
X4779Y246031D01*
X4790Y245851D01*
X4797Y245671D01*
X4799Y245490D01*
X4797Y245309D01*
X4790Y245129D01*
X4779Y244949D01*
X4764Y244769D01*
X4744Y244589D01*
X4720Y244410D01*
X4692Y244232D01*
X4659Y244054D01*
X4622Y243878D01*
X4580Y243702D01*
X4534Y243527D01*
X4485Y243353D01*
X4430Y243181D01*
X4372Y243010D01*
X4310Y242841D01*
X4243Y242673D01*
X4172Y242507D01*
X4098Y242342D01*
X4019Y242180D01*
X3937Y242019D01*
X3850Y241860D01*
X3760Y241704D01*
X3666Y241550D01*
X3568Y241398D01*
X3466Y241249D01*
X3361Y241102D01*
X3253Y240958D01*
X3141Y240816D01*
X3025Y240677D01*
X2906Y240541D01*
X2784Y240408D01*
X2659Y240278D01*
X2530Y240151D01*
X2399Y240027D01*
X2264Y239907D01*
X2127Y239790D01*
X1987Y239676D01*
X1844Y239566D01*
X1698Y239459D01*
X1550Y239355D01*
X1399Y239256D01*
X1246Y239160D01*
X1091Y239068D01*
X934Y238979D01*
X774Y238895D01*
X612Y238814D01*
X449Y238737D01*
X283Y238665D01*
X116Y238596D01*
X-52Y238532D01*
X-223Y238471D01*
X-394Y238415D01*
X-567Y238363D01*
X-741Y238315D01*
X-917Y238272D01*
X-1093Y238232D01*
X-1270Y238197D01*
X-1448Y238167D01*
X-1627Y238140D01*
X-1806Y238118D01*
X-1986Y238101D01*
X-2166Y238088D01*
X-2346Y238079D01*
X-2527Y238075D01*
X-2707Y238075D01*
X-2888Y238079D01*
X-3068Y238088D01*
X-3248Y238101D01*
X-3428Y238118D01*
X-3607Y238140D01*
X-3786Y238167D01*
X-3964Y238197D01*
X-4141Y238232D01*
X-4317Y238272D01*
X-4493Y238315D01*
X-4667Y238363D01*
X-4840Y238415D01*
X-5011Y238471D01*
X-5182Y238532D01*
X-5350Y238596D01*
X-5517Y238665D01*
X-5683Y238737D01*
X-5846Y238814D01*
X-6008Y238895D01*
X-6168Y238979D01*
X-6325Y239068D01*
X-6480Y239160D01*
X-6633Y239256D01*
X-6784Y239355D01*
X-6932Y239459D01*
X-7078Y239566D01*
X-7221Y239676D01*
X-7361Y239790D01*
X-7498Y239907D01*
X-7633Y240027D01*
X-7764Y240151D01*
X-7893Y240278D01*
X-8018Y240408D01*
X-8140Y240541D01*
X-8259Y240677D01*
X-8375Y240816D01*
X-8487Y240958D01*
X-8595Y241102D01*
X-8700Y241249D01*
X-8802Y241398D01*
X-8900Y241550D01*
X-8994Y241704D01*
X-9084Y241860D01*
X-9171Y242019D01*
X-9253Y242180D01*
X-9332Y242342D01*
X-9406Y242507D01*
X-9477Y242673D01*
X-9544Y242841D01*
X-9606Y243010D01*
X-9664Y243181D01*
X-9719Y243353D01*
X-9768Y243527D01*
X-9814Y243702D01*
X-9856Y243878D01*
X-9893Y244054D01*
X-9926Y244232D01*
X-9954Y244410D01*
X-9978Y244589D01*
X-9998Y244769D01*
X-10013Y244949D01*
X-10024Y245129D01*
X-10031Y245309D01*
X-10033Y245490D01*
X23547Y245490D02*
X32817Y252906D01*
X32817Y219535D01*
X42086Y219535D02*
X23547Y219535D01*
X58981Y228805D02*
X58984Y229031D01*
X58992Y229256D01*
X59006Y229482D01*
X59025Y229707D01*
X59050Y229931D01*
X59080Y230155D01*
X59115Y230377D01*
X59156Y230599D01*
X59203Y230820D01*
X59255Y231040D01*
X59312Y231258D01*
X59374Y231475D01*
X59442Y231691D01*
X59515Y231904D01*
X59593Y232116D01*
X59676Y232326D01*
X59764Y232534D01*
X59857Y232739D01*
X59956Y232942D01*
X60059Y233143D01*
X60167Y233341D01*
X60280Y233537D01*
X60397Y233730D01*
X60520Y233919D01*
X60647Y234106D01*
X60778Y234290D01*
X60914Y234470D01*
X61054Y234647D01*
X61198Y234820D01*
X61347Y234990D01*
X61499Y235157D01*
X61656Y235319D01*
X61817Y235478D01*
X61981Y235632D01*
X62149Y235783D01*
X62321Y235930D01*
X62496Y236072D01*
X62675Y236210D01*
X62857Y236343D01*
X63042Y236472D01*
X63230Y236597D01*
X63421Y236717D01*
X63616Y236832D01*
X63812Y236943D01*
X64012Y237048D01*
X64214Y237149D01*
X64418Y237245D01*
X64625Y237336D01*
X64834Y237421D01*
X65044Y237502D01*
X65257Y237578D01*
X65472Y237648D01*
X65688Y237713D01*
X65906Y237773D01*
X66125Y237827D01*
X66345Y237876D01*
X66566Y237920D01*
X66789Y237958D01*
X67012Y237991D01*
X67236Y238018D01*
X67461Y238040D01*
X67686Y238057D01*
X67911Y238068D01*
X68137Y238073D01*
X68363Y238073D01*
X68589Y238068D01*
X68814Y238057D01*
X69039Y238040D01*
X69264Y238018D01*
X69488Y237991D01*
X69711Y237958D01*
X69934Y237920D01*
X70155Y237876D01*
X70375Y237827D01*
X70594Y237773D01*
X70812Y237713D01*
X71028Y237648D01*
X71243Y237578D01*
X71456Y237502D01*
X71666Y237421D01*
X71875Y237336D01*
X72082Y237245D01*
X72286Y237149D01*
X72488Y237048D01*
X72688Y236943D01*
X72885Y236832D01*
X73079Y236717D01*
X73270Y236597D01*
X73458Y236472D01*
X73643Y236343D01*
X73825Y236210D01*
X74004Y236072D01*
X74179Y235930D01*
X74351Y235783D01*
X74519Y235632D01*
X74683Y235478D01*
X74844Y235319D01*
X75001Y235157D01*
X75153Y234990D01*
X75302Y234820D01*
X75446Y234647D01*
X75586Y234470D01*
X75722Y234290D01*
X75853Y234106D01*
X75980Y233919D01*
X76103Y233730D01*
X76220Y233537D01*
X76333Y233341D01*
X76441Y233143D01*
X76544Y232942D01*
X76643Y232739D01*
X76736Y232534D01*
X76824Y232326D01*
X76907Y232116D01*
X76985Y231904D01*
X77058Y231691D01*
X77126Y231475D01*
X77188Y231258D01*
X77245Y231040D01*
X77297Y230820D01*
X77344Y230599D01*
X77385Y230377D01*
X77420Y230155D01*
X77450Y229931D01*
X77475Y229707D01*
X77494Y229482D01*
X77508Y229256D01*
X77516Y229031D01*
X77519Y228805D01*
X77516Y228579D01*
X77508Y228354D01*
X77494Y228128D01*
X77475Y227903D01*
X77450Y227679D01*
X77420Y227455D01*
X77385Y227233D01*
X77344Y227011D01*
X77297Y226790D01*
X77245Y226570D01*
X77188Y226352D01*
X77126Y226135D01*
X77058Y225919D01*
X76985Y225706D01*
X76907Y225494D01*
X76824Y225284D01*
X76736Y225076D01*
X76643Y224871D01*
X76544Y224668D01*
X76441Y224467D01*
X76333Y224269D01*
X76220Y224073D01*
X76103Y223880D01*
X75980Y223691D01*
X75853Y223504D01*
X75722Y223320D01*
X75586Y223140D01*
X75446Y222963D01*
X75302Y222790D01*
X75153Y222620D01*
X75001Y222453D01*
X74844Y222291D01*
X74683Y222132D01*
X74519Y221978D01*
X74351Y221827D01*
X74179Y221680D01*
X74004Y221538D01*
X73825Y221400D01*
X73643Y221267D01*
X73458Y221138D01*
X73270Y221013D01*
X73079Y220893D01*
X72885Y220778D01*
X72688Y220667D01*
X72488Y220562D01*
X72286Y220461D01*
X72082Y220365D01*
X71875Y220274D01*
X71666Y220189D01*
X71456Y220108D01*
X71243Y220032D01*
X71028Y219962D01*
X70812Y219897D01*
X70594Y219837D01*
X70375Y219783D01*
X70155Y219734D01*
X69934Y219690D01*
X69711Y219652D01*
X69488Y219619D01*
X69264Y219592D01*
X69039Y219570D01*
X68814Y219553D01*
X68589Y219542D01*
X68363Y219537D01*
X68137Y219537D01*
X67911Y219542D01*
X67686Y219553D01*
X67461Y219570D01*
X67236Y219592D01*
X67012Y219619D01*
X66789Y219652D01*
X66566Y219690D01*
X66345Y219734D01*
X66125Y219783D01*
X65906Y219837D01*
X65688Y219897D01*
X65472Y219962D01*
X65257Y220032D01*
X65044Y220108D01*
X64834Y220189D01*
X64625Y220274D01*
X64418Y220365D01*
X64214Y220461D01*
X64012Y220562D01*
X63812Y220667D01*
X63616Y220778D01*
X63421Y220893D01*
X63230Y221013D01*
X63042Y221138D01*
X62857Y221267D01*
X62675Y221400D01*
X62496Y221538D01*
X62321Y221680D01*
X62149Y221827D01*
X61981Y221978D01*
X61817Y222132D01*
X61656Y222291D01*
X61499Y222453D01*
X61347Y222620D01*
X61198Y222790D01*
X61054Y222963D01*
X60914Y223140D01*
X60778Y223320D01*
X60647Y223504D01*
X60520Y223691D01*
X60397Y223880D01*
X60280Y224073D01*
X60167Y224269D01*
X60059Y224467D01*
X59956Y224668D01*
X59857Y224871D01*
X59764Y225076D01*
X59676Y225284D01*
X59593Y225494D01*
X59515Y225706D01*
X59442Y225919D01*
X59374Y226135D01*
X59312Y226352D01*
X59255Y226570D01*
X59203Y226790D01*
X59156Y227011D01*
X59115Y227233D01*
X59080Y227455D01*
X59050Y227679D01*
X59025Y227903D01*
X59006Y228128D01*
X58992Y228354D01*
X58984Y228579D01*
X58981Y228805D01*
X60834Y245490D02*
X60836Y245671D01*
X60843Y245851D01*
X60854Y246031D01*
X60869Y246211D01*
X60889Y246391D01*
X60913Y246570D01*
X60941Y246748D01*
X60974Y246926D01*
X61011Y247102D01*
X61053Y247278D01*
X61099Y247453D01*
X61148Y247627D01*
X61203Y247799D01*
X61261Y247970D01*
X61323Y248139D01*
X61390Y248307D01*
X61461Y248473D01*
X61535Y248638D01*
X61614Y248800D01*
X61696Y248961D01*
X61783Y249120D01*
X61873Y249276D01*
X61967Y249430D01*
X62065Y249582D01*
X62167Y249731D01*
X62272Y249878D01*
X62380Y250022D01*
X62492Y250164D01*
X62608Y250303D01*
X62727Y250439D01*
X62849Y250572D01*
X62974Y250702D01*
X63103Y250829D01*
X63234Y250953D01*
X63369Y251073D01*
X63506Y251190D01*
X63646Y251304D01*
X63789Y251414D01*
X63935Y251521D01*
X64083Y251625D01*
X64234Y251724D01*
X64387Y251820D01*
X64542Y251912D01*
X64699Y252001D01*
X64859Y252085D01*
X65021Y252166D01*
X65184Y252243D01*
X65350Y252315D01*
X65517Y252384D01*
X65685Y252448D01*
X65856Y252509D01*
X66027Y252565D01*
X66200Y252617D01*
X66374Y252665D01*
X66550Y252708D01*
X66726Y252748D01*
X66903Y252783D01*
X67081Y252813D01*
X67260Y252840D01*
X67439Y252862D01*
X67619Y252879D01*
X67799Y252892D01*
X67979Y252901D01*
X68160Y252905D01*
X68340Y252905D01*
X68521Y252901D01*
X68701Y252892D01*
X68881Y252879D01*
X69061Y252862D01*
X69240Y252840D01*
X69419Y252813D01*
X69597Y252783D01*
X69774Y252748D01*
X69950Y252708D01*
X70126Y252665D01*
X70300Y252617D01*
X70473Y252565D01*
X70644Y252509D01*
X70815Y252448D01*
X70983Y252384D01*
X71150Y252315D01*
X71316Y252243D01*
X71479Y252166D01*
X71641Y252085D01*
X71801Y252001D01*
X71958Y251912D01*
X72113Y251820D01*
X72266Y251724D01*
X72417Y251625D01*
X72565Y251521D01*
X72711Y251414D01*
X72854Y251304D01*
X72994Y251190D01*
X73131Y251073D01*
X73266Y250953D01*
X73397Y250829D01*
X73526Y250702D01*
X73651Y250572D01*
X73773Y250439D01*
X73892Y250303D01*
X74008Y250164D01*
X74120Y250022D01*
X74228Y249878D01*
X74333Y249731D01*
X74435Y249582D01*
X74533Y249430D01*
X74627Y249276D01*
X74717Y249120D01*
X74804Y248961D01*
X74886Y248800D01*
X74965Y248638D01*
X75039Y248473D01*
X75110Y248307D01*
X75177Y248139D01*
X75239Y247970D01*
X75297Y247799D01*
X75352Y247627D01*
X75401Y247453D01*
X75447Y247278D01*
X75489Y247102D01*
X75526Y246926D01*
X75559Y246748D01*
X75587Y246570D01*
X75611Y246391D01*
X75631Y246211D01*
X75646Y246031D01*
X75657Y245851D01*
X75664Y245671D01*
X75666Y245490D01*
X75664Y245309D01*
X75657Y245129D01*
X75646Y244949D01*
X75631Y244769D01*
X75611Y244589D01*
X75587Y244410D01*
X75559Y244232D01*
X75526Y244054D01*
X75489Y243878D01*
X75447Y243702D01*
X75401Y243527D01*
X75352Y243353D01*
X75297Y243181D01*
X75239Y243010D01*
X75177Y242841D01*
X75110Y242673D01*
X75039Y242507D01*
X74965Y242342D01*
X74886Y242180D01*
X74804Y242019D01*
X74717Y241860D01*
X74627Y241704D01*
X74533Y241550D01*
X74435Y241398D01*
X74333Y241249D01*
X74228Y241102D01*
X74120Y240958D01*
X74008Y240816D01*
X73892Y240677D01*
X73773Y240541D01*
X73651Y240408D01*
X73526Y240278D01*
X73397Y240151D01*
X73266Y240027D01*
X73131Y239907D01*
X72994Y239790D01*
X72854Y239676D01*
X72711Y239566D01*
X72565Y239459D01*
X72417Y239355D01*
X72266Y239256D01*
X72113Y239160D01*
X71958Y239068D01*
X71801Y238979D01*
X71641Y238895D01*
X71479Y238814D01*
X71316Y238737D01*
X71150Y238665D01*
X70983Y238596D01*
X70815Y238532D01*
X70644Y238471D01*
X70473Y238415D01*
X70300Y238363D01*
X70126Y238315D01*
X69950Y238272D01*
X69774Y238232D01*
X69597Y238197D01*
X69419Y238167D01*
X69240Y238140D01*
X69061Y238118D01*
X68881Y238101D01*
X68701Y238088D01*
X68521Y238079D01*
X68340Y238075D01*
X68160Y238075D01*
X67979Y238079D01*
X67799Y238088D01*
X67619Y238101D01*
X67439Y238118D01*
X67260Y238140D01*
X67081Y238167D01*
X66903Y238197D01*
X66726Y238232D01*
X66550Y238272D01*
X66374Y238315D01*
X66200Y238363D01*
X66027Y238415D01*
X65856Y238471D01*
X65685Y238532D01*
X65517Y238596D01*
X65350Y238665D01*
X65184Y238737D01*
X65021Y238814D01*
X64859Y238895D01*
X64699Y238979D01*
X64542Y239068D01*
X64387Y239160D01*
X64234Y239256D01*
X64083Y239355D01*
X63935Y239459D01*
X63789Y239566D01*
X63646Y239676D01*
X63506Y239790D01*
X63369Y239907D01*
X63234Y240027D01*
X63103Y240151D01*
X62974Y240278D01*
X62849Y240408D01*
X62727Y240541D01*
X62608Y240677D01*
X62492Y240816D01*
X62380Y240958D01*
X62272Y241102D01*
X62167Y241249D01*
X62065Y241398D01*
X61967Y241550D01*
X61873Y241704D01*
X61783Y241860D01*
X61696Y242019D01*
X61614Y242180D01*
X61535Y242342D01*
X61461Y242507D01*
X61390Y242673D01*
X61323Y242841D01*
X61261Y243010D01*
X61203Y243181D01*
X61148Y243353D01*
X61099Y243527D01*
X61053Y243702D01*
X61011Y243878D01*
X60974Y244054D01*
X60941Y244232D01*
X60913Y244410D01*
X60889Y244589D01*
X60869Y244769D01*
X60854Y244949D01*
X60843Y245129D01*
X60836Y245309D01*
X60834Y245490D01*
X-193879Y167896D02*
X-193881Y167717D01*
X-193888Y167538D01*
X-193898Y167359D01*
X-193914Y167180D01*
X-193933Y167002D01*
X-193957Y166824D01*
X-193985Y166647D01*
X-194017Y166471D01*
X-194054Y166296D01*
X-194094Y166121D01*
X-194139Y165948D01*
X-194189Y165775D01*
X-194242Y165604D01*
X-194299Y165435D01*
X-194361Y165266D01*
X-194426Y165099D01*
X-194496Y164934D01*
X-194570Y164771D01*
X-194647Y164609D01*
X-194728Y164450D01*
X-194814Y164292D01*
X-194903Y164136D01*
X-194995Y163983D01*
X-195092Y163832D01*
X-195192Y163683D01*
X-195295Y163537D01*
X-195402Y163393D01*
X-195513Y163252D01*
X-195627Y163114D01*
X-195744Y162978D01*
X-195864Y162846D01*
X-195988Y162716D01*
X-196115Y162589D01*
X-196245Y162465D01*
X-196377Y162345D01*
X-196513Y162228D01*
X-196651Y162114D01*
X-196792Y162003D01*
X-196936Y161896D01*
X-197082Y161793D01*
X-197231Y161693D01*
X-197382Y161596D01*
X-197535Y161504D01*
X-197691Y161415D01*
X-197849Y161329D01*
X-198008Y161248D01*
X-198170Y161171D01*
X-198333Y161097D01*
X-198498Y161027D01*
X-198665Y160962D01*
X-198834Y160900D01*
X-199003Y160843D01*
X-199174Y160790D01*
X-199347Y160740D01*
X-199520Y160695D01*
X-199695Y160655D01*
X-199870Y160618D01*
X-200046Y160586D01*
X-200223Y160558D01*
X-200401Y160534D01*
X-200579Y160515D01*
X-200758Y160499D01*
X-200937Y160489D01*
X-201116Y160482D01*
X-201295Y160480D01*
X-201295Y160481D02*
X-201670Y160485D01*
X-202044Y160499D01*
X-202418Y160521D01*
X-202792Y160553D01*
X-203165Y160593D01*
X-203536Y160642D01*
X-203906Y160700D01*
X-204275Y160767D01*
X-204642Y160843D01*
X-205007Y160927D01*
X-205371Y161020D01*
X-205731Y161122D01*
X-206089Y161233D01*
X-206445Y161352D01*
X-206797Y161479D01*
X-207147Y161615D01*
X-207493Y161759D01*
X-207835Y161912D01*
X-208174Y162072D01*
X-208508Y162241D01*
X-208839Y162417D01*
X-209165Y162602D01*
X-209487Y162794D01*
X-209804Y162994D01*
X-210116Y163201D01*
X-210424Y163416D01*
X-210726Y163638D01*
X-211022Y163867D01*
X-211313Y164103D01*
X-211598Y164346D01*
X-211878Y164596D01*
X-212151Y164853D01*
X-212418Y165116D01*
X-211492Y186435D02*
X-211490Y186614D01*
X-211483Y186793D01*
X-211473Y186972D01*
X-211457Y187151D01*
X-211438Y187329D01*
X-211414Y187507D01*
X-211386Y187684D01*
X-211354Y187860D01*
X-211317Y188035D01*
X-211277Y188210D01*
X-211232Y188383D01*
X-211182Y188556D01*
X-211129Y188727D01*
X-211072Y188896D01*
X-211010Y189065D01*
X-210945Y189232D01*
X-210875Y189397D01*
X-210801Y189560D01*
X-210724Y189722D01*
X-210643Y189881D01*
X-210557Y190039D01*
X-210468Y190195D01*
X-210376Y190348D01*
X-210279Y190499D01*
X-210179Y190648D01*
X-210076Y190794D01*
X-209969Y190938D01*
X-209858Y191079D01*
X-209744Y191217D01*
X-209627Y191353D01*
X-209507Y191485D01*
X-209383Y191615D01*
X-209256Y191742D01*
X-209126Y191866D01*
X-208994Y191986D01*
X-208858Y192103D01*
X-208720Y192217D01*
X-208579Y192328D01*
X-208435Y192435D01*
X-208289Y192538D01*
X-208140Y192638D01*
X-207989Y192735D01*
X-207836Y192827D01*
X-207680Y192916D01*
X-207522Y193002D01*
X-207363Y193083D01*
X-207201Y193160D01*
X-207038Y193234D01*
X-206873Y193304D01*
X-206706Y193369D01*
X-206537Y193431D01*
X-206368Y193488D01*
X-206197Y193541D01*
X-206024Y193591D01*
X-205851Y193636D01*
X-205676Y193676D01*
X-205501Y193713D01*
X-205325Y193745D01*
X-205148Y193773D01*
X-204970Y193797D01*
X-204792Y193816D01*
X-204613Y193832D01*
X-204434Y193842D01*
X-204255Y193849D01*
X-204076Y193851D01*
X-204076Y193850D02*
X-203745Y193846D01*
X-203413Y193834D01*
X-203083Y193814D01*
X-202752Y193787D01*
X-202423Y193751D01*
X-202094Y193708D01*
X-201767Y193657D01*
X-201441Y193598D01*
X-201116Y193531D01*
X-200793Y193457D01*
X-200472Y193375D01*
X-200153Y193285D01*
X-199837Y193188D01*
X-199522Y193083D01*
X-199210Y192971D01*
X-198901Y192851D01*
X-198595Y192724D01*
X-198292Y192590D01*
X-197993Y192449D01*
X-197697Y192300D01*
X-197404Y192145D01*
X-197115Y191982D01*
X-196830Y191813D01*
X-196550Y191637D01*
X-196273Y191454D01*
X-196001Y191265D01*
X-195734Y191069D01*
X-207784Y179946D02*
X-207940Y180040D01*
X-208093Y180138D01*
X-208244Y180240D01*
X-208392Y180345D01*
X-208538Y180454D01*
X-208681Y180566D01*
X-208821Y180682D01*
X-208959Y180801D01*
X-209093Y180923D01*
X-209225Y181049D01*
X-209353Y181177D01*
X-209479Y181309D01*
X-209601Y181444D01*
X-209720Y181581D01*
X-209835Y181722D01*
X-209947Y181865D01*
X-210056Y182011D01*
X-210161Y182159D01*
X-210262Y182310D01*
X-210360Y182464D01*
X-210454Y182619D01*
X-210544Y182777D01*
X-210631Y182937D01*
X-210713Y183099D01*
X-210792Y183263D01*
X-210866Y183429D01*
X-210937Y183597D01*
X-211003Y183766D01*
X-211066Y183937D01*
X-211124Y184109D01*
X-211178Y184283D01*
X-211228Y184458D01*
X-211273Y184634D01*
X-211315Y184811D01*
X-211352Y184989D01*
X-211385Y185168D01*
X-211413Y185348D01*
X-211437Y185528D01*
X-211457Y185709D01*
X-211472Y185890D01*
X-211483Y186071D01*
X-211490Y186253D01*
X-211492Y186435D01*
X-197588Y174384D02*
X-197432Y174290D01*
X-197279Y174192D01*
X-197128Y174091D01*
X-196980Y173985D01*
X-196834Y173877D01*
X-196691Y173764D01*
X-196551Y173649D01*
X-196413Y173530D01*
X-196279Y173407D01*
X-196147Y173282D01*
X-196018Y173153D01*
X-195893Y173021D01*
X-195771Y172887D01*
X-195652Y172749D01*
X-195537Y172609D01*
X-195425Y172465D01*
X-195316Y172319D01*
X-195211Y172171D01*
X-195110Y172020D01*
X-195012Y171867D01*
X-194918Y171711D01*
X-194828Y171553D01*
X-194741Y171393D01*
X-194659Y171231D01*
X-194580Y171067D01*
X-194506Y170901D01*
X-194435Y170734D01*
X-194369Y170564D01*
X-194306Y170394D01*
X-194248Y170221D01*
X-194194Y170048D01*
X-194144Y169873D01*
X-194098Y169697D01*
X-194057Y169520D01*
X-194020Y169342D01*
X-193987Y169163D01*
X-193959Y168983D01*
X-193935Y168803D01*
X-193915Y168622D01*
X-193900Y168441D01*
X-193889Y168260D01*
X-193882Y168078D01*
X-193880Y167896D01*
X-197587Y174384D02*
X-207784Y179946D01*
X-177494Y182727D02*
X-177494Y166042D01*
X-177492Y165894D01*
X-177486Y165746D01*
X-177476Y165598D01*
X-177462Y165451D01*
X-177445Y165304D01*
X-177423Y165157D01*
X-177398Y165011D01*
X-177368Y164866D01*
X-177335Y164722D01*
X-177298Y164579D01*
X-177257Y164436D01*
X-177213Y164295D01*
X-177164Y164155D01*
X-177112Y164017D01*
X-177056Y163879D01*
X-176997Y163744D01*
X-176934Y163610D01*
X-176867Y163477D01*
X-176797Y163347D01*
X-176724Y163218D01*
X-176647Y163092D01*
X-176567Y162967D01*
X-176483Y162845D01*
X-176397Y162725D01*
X-176307Y162607D01*
X-176214Y162492D01*
X-176118Y162379D01*
X-176019Y162269D01*
X-175917Y162162D01*
X-175812Y162057D01*
X-175705Y161955D01*
X-175595Y161856D01*
X-175482Y161760D01*
X-175367Y161667D01*
X-175249Y161577D01*
X-175129Y161491D01*
X-175007Y161407D01*
X-174882Y161327D01*
X-174756Y161250D01*
X-174627Y161177D01*
X-174497Y161107D01*
X-174364Y161040D01*
X-174230Y160977D01*
X-174095Y160918D01*
X-173958Y160862D01*
X-173819Y160810D01*
X-173679Y160761D01*
X-173538Y160717D01*
X-173395Y160676D01*
X-173252Y160639D01*
X-173108Y160606D01*
X-172963Y160576D01*
X-172817Y160551D01*
X-172670Y160529D01*
X-172523Y160512D01*
X-172376Y160498D01*
X-172228Y160488D01*
X-172080Y160482D01*
X-171932Y160480D01*
X-162663Y160480D01*
X-162663Y182727D01*
X-144158Y182727D02*
X-144158Y149357D01*
X-144158Y182727D02*
X-134888Y182727D01*
X-134740Y182725D01*
X-134592Y182719D01*
X-134444Y182709D01*
X-134297Y182695D01*
X-134150Y182678D01*
X-134003Y182656D01*
X-133857Y182631D01*
X-133712Y182601D01*
X-133568Y182568D01*
X-133425Y182531D01*
X-133282Y182490D01*
X-133141Y182446D01*
X-133001Y182397D01*
X-132863Y182345D01*
X-132725Y182289D01*
X-132590Y182230D01*
X-132456Y182167D01*
X-132323Y182100D01*
X-132193Y182030D01*
X-132064Y181957D01*
X-131938Y181880D01*
X-131813Y181800D01*
X-131691Y181716D01*
X-131571Y181630D01*
X-131453Y181540D01*
X-131338Y181447D01*
X-131225Y181351D01*
X-131115Y181252D01*
X-131008Y181150D01*
X-130903Y181045D01*
X-130801Y180938D01*
X-130702Y180828D01*
X-130606Y180715D01*
X-130513Y180600D01*
X-130423Y180482D01*
X-130337Y180362D01*
X-130253Y180240D01*
X-130173Y180115D01*
X-130096Y179989D01*
X-130023Y179860D01*
X-129953Y179730D01*
X-129886Y179597D01*
X-129823Y179463D01*
X-129764Y179328D01*
X-129708Y179191D01*
X-129656Y179052D01*
X-129607Y178912D01*
X-129563Y178771D01*
X-129522Y178628D01*
X-129485Y178485D01*
X-129452Y178341D01*
X-129422Y178196D01*
X-129397Y178050D01*
X-129375Y177903D01*
X-129358Y177756D01*
X-129344Y177609D01*
X-129334Y177461D01*
X-129328Y177313D01*
X-129326Y177165D01*
X-129327Y177165D02*
X-129327Y166042D01*
X-129326Y166042D02*
X-129328Y165894D01*
X-129334Y165746D01*
X-129344Y165598D01*
X-129358Y165451D01*
X-129375Y165304D01*
X-129397Y165157D01*
X-129422Y165011D01*
X-129452Y164866D01*
X-129485Y164722D01*
X-129522Y164579D01*
X-129563Y164436D01*
X-129607Y164295D01*
X-129656Y164155D01*
X-129708Y164017D01*
X-129764Y163879D01*
X-129823Y163744D01*
X-129886Y163610D01*
X-129953Y163477D01*
X-130023Y163347D01*
X-130096Y163218D01*
X-130173Y163092D01*
X-130253Y162967D01*
X-130337Y162845D01*
X-130423Y162725D01*
X-130513Y162607D01*
X-130606Y162492D01*
X-130702Y162379D01*
X-130801Y162269D01*
X-130903Y162162D01*
X-131008Y162057D01*
X-131115Y161955D01*
X-131225Y161856D01*
X-131338Y161760D01*
X-131453Y161667D01*
X-131571Y161577D01*
X-131691Y161491D01*
X-131813Y161407D01*
X-131938Y161327D01*
X-132064Y161250D01*
X-132193Y161177D01*
X-132323Y161107D01*
X-132456Y161040D01*
X-132590Y160977D01*
X-132725Y160918D01*
X-132863Y160862D01*
X-133001Y160810D01*
X-133141Y160761D01*
X-133282Y160717D01*
X-133425Y160676D01*
X-133568Y160639D01*
X-133712Y160606D01*
X-133857Y160576D01*
X-134003Y160551D01*
X-134150Y160529D01*
X-134297Y160512D01*
X-134444Y160498D01*
X-134592Y160488D01*
X-134740Y160482D01*
X-134888Y160480D01*
X-144158Y160480D01*
X-108153Y160480D02*
X-98883Y160480D01*
X-108153Y160480D02*
X-108301Y160482D01*
X-108449Y160488D01*
X-108597Y160498D01*
X-108744Y160512D01*
X-108891Y160529D01*
X-109038Y160551D01*
X-109184Y160576D01*
X-109329Y160606D01*
X-109473Y160639D01*
X-109616Y160676D01*
X-109759Y160717D01*
X-109900Y160761D01*
X-110040Y160810D01*
X-110178Y160862D01*
X-110316Y160918D01*
X-110451Y160977D01*
X-110585Y161040D01*
X-110718Y161107D01*
X-110848Y161177D01*
X-110977Y161250D01*
X-111103Y161327D01*
X-111228Y161407D01*
X-111350Y161491D01*
X-111470Y161577D01*
X-111588Y161667D01*
X-111703Y161760D01*
X-111816Y161856D01*
X-111926Y161955D01*
X-112033Y162057D01*
X-112138Y162162D01*
X-112240Y162269D01*
X-112339Y162379D01*
X-112435Y162492D01*
X-112528Y162607D01*
X-112618Y162725D01*
X-112704Y162845D01*
X-112788Y162967D01*
X-112868Y163092D01*
X-112945Y163218D01*
X-113018Y163347D01*
X-113088Y163477D01*
X-113155Y163610D01*
X-113218Y163744D01*
X-113277Y163879D01*
X-113333Y164017D01*
X-113385Y164155D01*
X-113434Y164295D01*
X-113478Y164436D01*
X-113519Y164579D01*
X-113556Y164722D01*
X-113589Y164866D01*
X-113619Y165012D01*
X-113644Y165157D01*
X-113666Y165304D01*
X-113684Y165451D01*
X-113697Y165598D01*
X-113707Y165746D01*
X-113713Y165894D01*
X-113715Y166042D01*
X-113714Y166042D02*
X-113714Y175311D01*
X-113715Y175311D02*
X-113713Y175492D01*
X-113706Y175672D01*
X-113695Y175852D01*
X-113680Y176032D01*
X-113660Y176212D01*
X-113636Y176391D01*
X-113608Y176569D01*
X-113575Y176747D01*
X-113538Y176923D01*
X-113496Y177099D01*
X-113450Y177274D01*
X-113401Y177448D01*
X-113346Y177620D01*
X-113288Y177791D01*
X-113226Y177960D01*
X-113159Y178128D01*
X-113088Y178294D01*
X-113014Y178459D01*
X-112935Y178621D01*
X-112853Y178782D01*
X-112766Y178941D01*
X-112676Y179097D01*
X-112582Y179251D01*
X-112484Y179403D01*
X-112382Y179552D01*
X-112277Y179699D01*
X-112169Y179843D01*
X-112057Y179985D01*
X-111941Y180124D01*
X-111822Y180260D01*
X-111700Y180393D01*
X-111575Y180523D01*
X-111446Y180650D01*
X-111315Y180774D01*
X-111180Y180894D01*
X-111043Y181011D01*
X-110903Y181125D01*
X-110760Y181235D01*
X-110614Y181342D01*
X-110466Y181446D01*
X-110315Y181545D01*
X-110162Y181641D01*
X-110007Y181733D01*
X-109850Y181822D01*
X-109690Y181906D01*
X-109528Y181987D01*
X-109365Y182064D01*
X-109199Y182136D01*
X-109032Y182205D01*
X-108864Y182269D01*
X-108693Y182330D01*
X-108522Y182386D01*
X-108349Y182438D01*
X-108175Y182486D01*
X-107999Y182529D01*
X-107823Y182569D01*
X-107646Y182604D01*
X-107468Y182634D01*
X-107289Y182661D01*
X-107110Y182683D01*
X-106930Y182700D01*
X-106750Y182713D01*
X-106570Y182722D01*
X-106389Y182726D01*
X-106209Y182726D01*
X-106028Y182722D01*
X-105848Y182713D01*
X-105668Y182700D01*
X-105488Y182683D01*
X-105309Y182661D01*
X-105130Y182634D01*
X-104952Y182604D01*
X-104775Y182569D01*
X-104599Y182529D01*
X-104423Y182486D01*
X-104249Y182438D01*
X-104076Y182386D01*
X-103905Y182330D01*
X-103734Y182269D01*
X-103566Y182205D01*
X-103399Y182136D01*
X-103233Y182064D01*
X-103070Y181987D01*
X-102908Y181906D01*
X-102748Y181822D01*
X-102591Y181733D01*
X-102436Y181641D01*
X-102283Y181545D01*
X-102132Y181446D01*
X-101984Y181342D01*
X-101838Y181235D01*
X-101695Y181125D01*
X-101555Y181011D01*
X-101418Y180894D01*
X-101283Y180774D01*
X-101152Y180650D01*
X-101023Y180523D01*
X-100898Y180393D01*
X-100776Y180260D01*
X-100657Y180124D01*
X-100541Y179985D01*
X-100429Y179843D01*
X-100321Y179699D01*
X-100216Y179552D01*
X-100114Y179403D01*
X-100016Y179251D01*
X-99922Y179097D01*
X-99832Y178941D01*
X-99745Y178782D01*
X-99663Y178621D01*
X-99584Y178459D01*
X-99510Y178294D01*
X-99439Y178128D01*
X-99372Y177960D01*
X-99310Y177791D01*
X-99252Y177620D01*
X-99197Y177448D01*
X-99148Y177274D01*
X-99102Y177099D01*
X-99060Y176923D01*
X-99023Y176747D01*
X-98990Y176569D01*
X-98962Y176391D01*
X-98938Y176212D01*
X-98918Y176032D01*
X-98903Y175852D01*
X-98892Y175672D01*
X-98885Y175492D01*
X-98883Y175311D01*
X-98883Y171604D01*
X-113714Y171604D01*
X-81526Y160480D02*
X-81526Y182727D01*
X-70402Y182727D01*
X-70402Y179019D01*
X-56513Y193850D02*
X-56513Y160480D01*
X-37975Y160480D02*
X-56513Y193850D01*
X-37975Y193850D02*
X-37975Y160480D01*
X-20408Y167896D02*
X-20408Y175311D01*
X-20406Y175492D01*
X-20399Y175672D01*
X-20388Y175852D01*
X-20373Y176032D01*
X-20353Y176212D01*
X-20329Y176391D01*
X-20301Y176569D01*
X-20268Y176747D01*
X-20231Y176923D01*
X-20189Y177099D01*
X-20143Y177274D01*
X-20094Y177448D01*
X-20039Y177620D01*
X-19981Y177791D01*
X-19919Y177960D01*
X-19852Y178128D01*
X-19781Y178294D01*
X-19707Y178459D01*
X-19628Y178621D01*
X-19546Y178782D01*
X-19459Y178941D01*
X-19369Y179097D01*
X-19275Y179251D01*
X-19177Y179403D01*
X-19075Y179552D01*
X-18970Y179699D01*
X-18862Y179843D01*
X-18750Y179985D01*
X-18634Y180124D01*
X-18515Y180260D01*
X-18393Y180393D01*
X-18268Y180523D01*
X-18139Y180650D01*
X-18008Y180774D01*
X-17873Y180894D01*
X-17736Y181011D01*
X-17596Y181125D01*
X-17453Y181235D01*
X-17307Y181342D01*
X-17159Y181446D01*
X-17008Y181545D01*
X-16855Y181641D01*
X-16700Y181733D01*
X-16543Y181822D01*
X-16383Y181906D01*
X-16221Y181987D01*
X-16058Y182064D01*
X-15892Y182136D01*
X-15725Y182205D01*
X-15557Y182269D01*
X-15386Y182330D01*
X-15215Y182386D01*
X-15042Y182438D01*
X-14868Y182486D01*
X-14692Y182529D01*
X-14516Y182569D01*
X-14339Y182604D01*
X-14161Y182634D01*
X-13982Y182661D01*
X-13803Y182683D01*
X-13623Y182700D01*
X-13443Y182713D01*
X-13263Y182722D01*
X-13082Y182726D01*
X-12902Y182726D01*
X-12721Y182722D01*
X-12541Y182713D01*
X-12361Y182700D01*
X-12181Y182683D01*
X-12002Y182661D01*
X-11823Y182634D01*
X-11645Y182604D01*
X-11468Y182569D01*
X-11292Y182529D01*
X-11116Y182486D01*
X-10942Y182438D01*
X-10769Y182386D01*
X-10598Y182330D01*
X-10427Y182269D01*
X-10259Y182205D01*
X-10092Y182136D01*
X-9926Y182064D01*
X-9763Y181987D01*
X-9601Y181906D01*
X-9441Y181822D01*
X-9284Y181733D01*
X-9129Y181641D01*
X-8976Y181545D01*
X-8825Y181446D01*
X-8677Y181342D01*
X-8531Y181235D01*
X-8388Y181125D01*
X-8248Y181011D01*
X-8111Y180894D01*
X-7976Y180774D01*
X-7845Y180650D01*
X-7716Y180523D01*
X-7591Y180393D01*
X-7469Y180260D01*
X-7350Y180124D01*
X-7234Y179985D01*
X-7122Y179843D01*
X-7014Y179699D01*
X-6909Y179552D01*
X-6807Y179403D01*
X-6709Y179251D01*
X-6615Y179097D01*
X-6525Y178941D01*
X-6438Y178782D01*
X-6356Y178621D01*
X-6277Y178459D01*
X-6203Y178294D01*
X-6132Y178128D01*
X-6065Y177960D01*
X-6003Y177791D01*
X-5945Y177620D01*
X-5890Y177448D01*
X-5841Y177274D01*
X-5795Y177099D01*
X-5753Y176923D01*
X-5716Y176747D01*
X-5683Y176569D01*
X-5655Y176391D01*
X-5631Y176212D01*
X-5611Y176032D01*
X-5596Y175852D01*
X-5585Y175672D01*
X-5578Y175492D01*
X-5576Y175311D01*
X-5577Y175311D02*
X-5577Y167896D01*
X-5579Y167715D01*
X-5586Y167535D01*
X-5597Y167355D01*
X-5612Y167175D01*
X-5632Y166995D01*
X-5656Y166816D01*
X-5684Y166638D01*
X-5717Y166460D01*
X-5754Y166284D01*
X-5796Y166108D01*
X-5841Y165933D01*
X-5891Y165760D01*
X-5946Y165587D01*
X-6004Y165417D01*
X-6066Y165247D01*
X-6133Y165079D01*
X-6203Y164913D01*
X-6278Y164749D01*
X-6357Y164586D01*
X-6439Y164426D01*
X-6526Y164267D01*
X-6616Y164111D01*
X-6710Y163956D01*
X-6808Y163805D01*
X-6909Y163655D01*
X-7014Y163508D01*
X-7123Y163364D01*
X-7235Y163223D01*
X-7351Y163084D01*
X-7470Y162948D01*
X-7592Y162815D01*
X-7717Y162685D01*
X-7845Y162558D01*
X-7977Y162434D01*
X-8111Y162314D01*
X-8249Y162196D01*
X-8389Y162083D01*
X-8532Y161972D01*
X-8678Y161865D01*
X-8826Y161762D01*
X-8976Y161663D01*
X-9129Y161567D01*
X-9284Y161474D01*
X-9442Y161386D01*
X-9602Y161302D01*
X-9763Y161221D01*
X-9927Y161144D01*
X-10092Y161072D01*
X-10259Y161003D01*
X-10428Y160939D01*
X-10598Y160878D01*
X-10769Y160822D01*
X-10942Y160770D01*
X-11116Y160722D01*
X-11292Y160679D01*
X-11468Y160639D01*
X-11645Y160604D01*
X-11823Y160574D01*
X-12002Y160547D01*
X-12181Y160525D01*
X-12361Y160508D01*
X-12541Y160495D01*
X-12721Y160486D01*
X-12902Y160482D01*
X-13082Y160482D01*
X-13263Y160486D01*
X-13443Y160495D01*
X-13623Y160508D01*
X-13803Y160525D01*
X-13982Y160547D01*
X-14161Y160574D01*
X-14339Y160604D01*
X-14516Y160639D01*
X-14692Y160679D01*
X-14868Y160722D01*
X-15042Y160770D01*
X-15215Y160822D01*
X-15386Y160878D01*
X-15556Y160939D01*
X-15725Y161003D01*
X-15892Y161072D01*
X-16057Y161144D01*
X-16221Y161221D01*
X-16382Y161302D01*
X-16542Y161386D01*
X-16699Y161474D01*
X-16855Y161567D01*
X-17008Y161663D01*
X-17158Y161762D01*
X-17306Y161865D01*
X-17452Y161972D01*
X-17595Y162083D01*
X-17735Y162196D01*
X-17873Y162314D01*
X-18007Y162434D01*
X-18139Y162558D01*
X-18267Y162685D01*
X-18392Y162815D01*
X-18514Y162948D01*
X-18633Y163084D01*
X-18749Y163223D01*
X-18861Y163364D01*
X-18970Y163508D01*
X-19075Y163655D01*
X-19176Y163805D01*
X-19274Y163956D01*
X-19368Y164111D01*
X-19458Y164267D01*
X-19545Y164426D01*
X-19627Y164586D01*
X-19706Y164749D01*
X-19781Y164913D01*
X-19851Y165079D01*
X-19918Y165247D01*
X-19980Y165417D01*
X-20038Y165587D01*
X-20093Y165760D01*
X-20143Y165933D01*
X-20188Y166108D01*
X-20230Y166284D01*
X-20267Y166460D01*
X-20300Y166638D01*
X-20328Y166816D01*
X-20352Y166995D01*
X-20372Y167175D01*
X-20387Y167355D01*
X-20398Y167535D01*
X-20405Y167715D01*
X-20407Y167896D01*
X9120Y182727D02*
X16535Y160480D01*
X23951Y182727D01*
X44871Y173458D02*
X53213Y173458D01*
X44871Y173458D02*
X44712Y173456D01*
X44553Y173450D01*
X44394Y173440D01*
X44235Y173427D01*
X44077Y173409D01*
X43919Y173388D01*
X43762Y173362D01*
X43605Y173333D01*
X43449Y173300D01*
X43294Y173264D01*
X43140Y173223D01*
X42987Y173179D01*
X42836Y173130D01*
X42685Y173079D01*
X42536Y173023D01*
X42388Y172964D01*
X42241Y172901D01*
X42097Y172835D01*
X41953Y172765D01*
X41812Y172692D01*
X41673Y172615D01*
X41535Y172535D01*
X41399Y172451D01*
X41266Y172364D01*
X41135Y172274D01*
X41006Y172181D01*
X40879Y172085D01*
X40754Y171985D01*
X40633Y171883D01*
X40513Y171777D01*
X40397Y171669D01*
X40283Y171557D01*
X40171Y171443D01*
X40063Y171327D01*
X39957Y171207D01*
X39855Y171086D01*
X39755Y170961D01*
X39659Y170834D01*
X39566Y170705D01*
X39476Y170574D01*
X39389Y170441D01*
X39305Y170305D01*
X39225Y170167D01*
X39148Y170028D01*
X39075Y169887D01*
X39005Y169743D01*
X38939Y169599D01*
X38876Y169452D01*
X38817Y169304D01*
X38761Y169155D01*
X38710Y169004D01*
X38661Y168853D01*
X38617Y168700D01*
X38576Y168546D01*
X38540Y168391D01*
X38507Y168235D01*
X38478Y168078D01*
X38452Y167921D01*
X38431Y167763D01*
X38413Y167605D01*
X38400Y167446D01*
X38390Y167287D01*
X38384Y167128D01*
X38382Y166969D01*
X38384Y166810D01*
X38390Y166651D01*
X38400Y166492D01*
X38413Y166333D01*
X38431Y166175D01*
X38452Y166017D01*
X38478Y165860D01*
X38507Y165703D01*
X38540Y165547D01*
X38576Y165392D01*
X38617Y165238D01*
X38661Y165085D01*
X38710Y164934D01*
X38761Y164783D01*
X38817Y164634D01*
X38876Y164486D01*
X38939Y164339D01*
X39005Y164195D01*
X39075Y164051D01*
X39148Y163910D01*
X39225Y163771D01*
X39305Y163633D01*
X39389Y163497D01*
X39476Y163364D01*
X39566Y163233D01*
X39659Y163104D01*
X39755Y162977D01*
X39855Y162852D01*
X39957Y162731D01*
X40063Y162611D01*
X40171Y162495D01*
X40283Y162381D01*
X40397Y162269D01*
X40513Y162161D01*
X40633Y162055D01*
X40754Y161953D01*
X40879Y161853D01*
X41006Y161757D01*
X41135Y161664D01*
X41266Y161574D01*
X41399Y161487D01*
X41535Y161403D01*
X41673Y161323D01*
X41812Y161246D01*
X41953Y161173D01*
X42097Y161103D01*
X42241Y161037D01*
X42388Y160974D01*
X42536Y160915D01*
X42685Y160859D01*
X42836Y160808D01*
X42987Y160759D01*
X43140Y160715D01*
X43294Y160674D01*
X43449Y160638D01*
X43605Y160605D01*
X43762Y160576D01*
X43919Y160550D01*
X44077Y160529D01*
X44235Y160511D01*
X44394Y160498D01*
X44553Y160488D01*
X44712Y160482D01*
X44871Y160480D01*
X53213Y160480D01*
X53213Y177165D01*
X53211Y177313D01*
X53205Y177461D01*
X53195Y177609D01*
X53181Y177756D01*
X53164Y177903D01*
X53142Y178050D01*
X53117Y178196D01*
X53087Y178341D01*
X53054Y178485D01*
X53017Y178628D01*
X52976Y178771D01*
X52932Y178912D01*
X52883Y179052D01*
X52831Y179190D01*
X52775Y179328D01*
X52716Y179463D01*
X52653Y179597D01*
X52586Y179730D01*
X52516Y179860D01*
X52443Y179989D01*
X52366Y180115D01*
X52286Y180240D01*
X52202Y180362D01*
X52116Y180482D01*
X52026Y180600D01*
X51933Y180715D01*
X51837Y180828D01*
X51738Y180938D01*
X51636Y181045D01*
X51531Y181150D01*
X51424Y181252D01*
X51314Y181351D01*
X51201Y181447D01*
X51086Y181540D01*
X50968Y181630D01*
X50848Y181716D01*
X50726Y181800D01*
X50601Y181880D01*
X50475Y181957D01*
X50346Y182030D01*
X50216Y182100D01*
X50083Y182167D01*
X49949Y182230D01*
X49814Y182289D01*
X49676Y182345D01*
X49538Y182397D01*
X49398Y182446D01*
X49257Y182490D01*
X49114Y182531D01*
X48971Y182568D01*
X48827Y182601D01*
X48682Y182631D01*
X48536Y182656D01*
X48389Y182678D01*
X48242Y182695D01*
X48095Y182709D01*
X47947Y182719D01*
X47799Y182725D01*
X47651Y182727D01*
X40236Y182727D01*
X91632Y193850D02*
X91632Y160480D01*
X102755Y175311D02*
X91632Y193850D01*
X102755Y175311D02*
X113879Y193850D01*
X113879Y160480D01*
X131102Y160480D02*
X131102Y182727D01*
X130175Y191996D02*
X130175Y193850D01*
X132029Y193850D01*
X132029Y191996D01*
X130175Y191996D01*
X147308Y182727D02*
X147308Y160480D01*
X147308Y182727D02*
X156578Y182727D01*
X156726Y182725D01*
X156874Y182719D01*
X157022Y182709D01*
X157169Y182695D01*
X157316Y182678D01*
X157463Y182656D01*
X157609Y182631D01*
X157754Y182601D01*
X157898Y182568D01*
X158041Y182531D01*
X158184Y182490D01*
X158325Y182446D01*
X158465Y182397D01*
X158603Y182345D01*
X158741Y182289D01*
X158876Y182230D01*
X159010Y182167D01*
X159143Y182100D01*
X159273Y182030D01*
X159402Y181957D01*
X159528Y181880D01*
X159653Y181800D01*
X159775Y181716D01*
X159895Y181630D01*
X160013Y181540D01*
X160128Y181447D01*
X160241Y181351D01*
X160351Y181252D01*
X160458Y181150D01*
X160563Y181045D01*
X160665Y180938D01*
X160764Y180828D01*
X160860Y180715D01*
X160953Y180600D01*
X161043Y180482D01*
X161129Y180362D01*
X161213Y180240D01*
X161293Y180115D01*
X161370Y179989D01*
X161443Y179860D01*
X161513Y179730D01*
X161580Y179597D01*
X161643Y179463D01*
X161702Y179328D01*
X161758Y179190D01*
X161810Y179052D01*
X161859Y178912D01*
X161903Y178771D01*
X161944Y178628D01*
X161981Y178485D01*
X162014Y178341D01*
X162044Y178196D01*
X162069Y178050D01*
X162091Y177903D01*
X162108Y177756D01*
X162122Y177609D01*
X162132Y177461D01*
X162138Y177313D01*
X162140Y177165D01*
X162139Y177165D02*
X162139Y160480D01*
X178346Y160480D02*
X178346Y182727D01*
X177419Y191996D02*
X177419Y193850D01*
X179273Y193850D01*
X179273Y191996D01*
X177419Y191996D01*
X204076Y193851D02*
X204278Y193849D01*
X204479Y193841D01*
X204680Y193829D01*
X204881Y193812D01*
X205082Y193790D01*
X205281Y193763D01*
X205481Y193732D01*
X205679Y193696D01*
X205876Y193654D01*
X206073Y193609D01*
X206268Y193558D01*
X206462Y193503D01*
X206654Y193443D01*
X206845Y193378D01*
X207034Y193309D01*
X207222Y193235D01*
X207408Y193157D01*
X207592Y193074D01*
X207774Y192987D01*
X207953Y192895D01*
X208131Y192800D01*
X208306Y192699D01*
X208478Y192595D01*
X208648Y192487D01*
X208815Y192374D01*
X208980Y192258D01*
X209142Y192137D01*
X209300Y192013D01*
X209456Y191885D01*
X209608Y191753D01*
X209758Y191617D01*
X209904Y191478D01*
X210046Y191336D01*
X210185Y191190D01*
X210321Y191040D01*
X210453Y190888D01*
X210581Y190732D01*
X210705Y190574D01*
X210826Y190412D01*
X210942Y190247D01*
X211055Y190080D01*
X211163Y189910D01*
X211267Y189738D01*
X211368Y189563D01*
X211463Y189385D01*
X211555Y189206D01*
X211642Y189024D01*
X211725Y188840D01*
X211803Y188654D01*
X211877Y188466D01*
X211946Y188277D01*
X212011Y188086D01*
X212071Y187894D01*
X212126Y187700D01*
X212177Y187505D01*
X212222Y187308D01*
X212264Y187111D01*
X212300Y186913D01*
X212331Y186713D01*
X212358Y186514D01*
X212380Y186313D01*
X212397Y186112D01*
X212409Y185911D01*
X212417Y185710D01*
X212419Y185508D01*
X204076Y193851D02*
X203817Y193848D01*
X203558Y193838D01*
X203299Y193823D01*
X203041Y193801D01*
X202783Y193773D01*
X202526Y193738D01*
X202270Y193698D01*
X202015Y193651D01*
X201761Y193598D01*
X201509Y193539D01*
X201258Y193474D01*
X201009Y193403D01*
X200762Y193326D01*
X200516Y193242D01*
X200273Y193153D01*
X200031Y193059D01*
X199793Y192958D01*
X199556Y192851D01*
X199322Y192739D01*
X199092Y192621D01*
X198864Y192498D01*
X198639Y192369D01*
X198417Y192235D01*
X198198Y192096D01*
X197983Y191951D01*
X197772Y191801D01*
X197564Y191646D01*
X197360Y191486D01*
X197160Y191321D01*
X196964Y191152D01*
X196772Y190977D01*
X196585Y190798D01*
X196402Y190615D01*
X196223Y190427D01*
X196049Y190235D01*
X195879Y190039D01*
X195715Y189839D01*
X195555Y189635D01*
X195400Y189427D01*
X195251Y189215D01*
X195106Y189000D01*
X194967Y188781D01*
X194833Y188559D01*
X194705Y188334D01*
X194582Y188106D01*
X194464Y187875D01*
X194352Y187641D01*
X194246Y187405D01*
X194146Y187166D01*
X194051Y186924D01*
X193962Y186681D01*
X193879Y186435D01*
X209638Y179019D02*
X209795Y179173D01*
X209949Y179330D01*
X210099Y179491D01*
X210244Y179656D01*
X210386Y179824D01*
X210523Y179996D01*
X210656Y180171D01*
X210785Y180349D01*
X210909Y180530D01*
X211029Y180715D01*
X211145Y180902D01*
X211255Y181092D01*
X211361Y181285D01*
X211463Y181480D01*
X211559Y181677D01*
X211651Y181877D01*
X211737Y182079D01*
X211819Y182284D01*
X211895Y182490D01*
X211967Y182698D01*
X212033Y182907D01*
X212095Y183118D01*
X212151Y183331D01*
X212201Y183545D01*
X212247Y183760D01*
X212287Y183976D01*
X212322Y184193D01*
X212352Y184411D01*
X212376Y184630D01*
X212395Y184849D01*
X212408Y185068D01*
X212416Y185288D01*
X212419Y185508D01*
X209638Y179019D02*
X193880Y160480D01*
X212418Y160480D01*
X-159843Y101425D02*
X-169112Y101425D01*
X-169260Y101427D01*
X-169408Y101433D01*
X-169556Y101443D01*
X-169703Y101457D01*
X-169850Y101474D01*
X-169997Y101496D01*
X-170143Y101521D01*
X-170288Y101551D01*
X-170432Y101584D01*
X-170575Y101621D01*
X-170718Y101662D01*
X-170859Y101706D01*
X-170999Y101755D01*
X-171137Y101807D01*
X-171275Y101863D01*
X-171410Y101922D01*
X-171544Y101985D01*
X-171677Y102052D01*
X-171807Y102122D01*
X-171936Y102195D01*
X-172062Y102272D01*
X-172187Y102352D01*
X-172309Y102436D01*
X-172429Y102522D01*
X-172547Y102612D01*
X-172662Y102705D01*
X-172775Y102801D01*
X-172885Y102900D01*
X-172992Y103002D01*
X-173097Y103107D01*
X-173199Y103214D01*
X-173298Y103324D01*
X-173394Y103437D01*
X-173487Y103552D01*
X-173577Y103670D01*
X-173663Y103790D01*
X-173747Y103912D01*
X-173827Y104037D01*
X-173904Y104163D01*
X-173977Y104292D01*
X-174047Y104422D01*
X-174114Y104555D01*
X-174177Y104689D01*
X-174236Y104824D01*
X-174292Y104962D01*
X-174344Y105100D01*
X-174393Y105240D01*
X-174437Y105381D01*
X-174478Y105524D01*
X-174515Y105667D01*
X-174548Y105811D01*
X-174578Y105957D01*
X-174603Y106102D01*
X-174625Y106249D01*
X-174643Y106396D01*
X-174656Y106543D01*
X-174666Y106691D01*
X-174672Y106839D01*
X-174674Y106987D01*
X-174674Y116256D01*
X-174672Y116437D01*
X-174665Y116617D01*
X-174654Y116797D01*
X-174639Y116977D01*
X-174619Y117157D01*
X-174595Y117336D01*
X-174567Y117514D01*
X-174534Y117692D01*
X-174497Y117868D01*
X-174455Y118044D01*
X-174409Y118219D01*
X-174360Y118393D01*
X-174305Y118565D01*
X-174247Y118736D01*
X-174185Y118905D01*
X-174118Y119073D01*
X-174047Y119239D01*
X-173973Y119404D01*
X-173894Y119566D01*
X-173812Y119727D01*
X-173725Y119886D01*
X-173635Y120042D01*
X-173541Y120196D01*
X-173443Y120348D01*
X-173341Y120497D01*
X-173236Y120644D01*
X-173128Y120788D01*
X-173016Y120930D01*
X-172900Y121069D01*
X-172781Y121205D01*
X-172659Y121338D01*
X-172534Y121468D01*
X-172405Y121595D01*
X-172274Y121719D01*
X-172139Y121839D01*
X-172002Y121956D01*
X-171862Y122070D01*
X-171719Y122180D01*
X-171573Y122287D01*
X-171425Y122391D01*
X-171274Y122490D01*
X-171121Y122586D01*
X-170966Y122678D01*
X-170809Y122767D01*
X-170649Y122851D01*
X-170487Y122932D01*
X-170324Y123009D01*
X-170158Y123081D01*
X-169991Y123150D01*
X-169823Y123214D01*
X-169652Y123275D01*
X-169481Y123331D01*
X-169308Y123383D01*
X-169134Y123431D01*
X-168958Y123474D01*
X-168782Y123514D01*
X-168605Y123549D01*
X-168427Y123579D01*
X-168248Y123606D01*
X-168069Y123628D01*
X-167889Y123645D01*
X-167709Y123658D01*
X-167529Y123667D01*
X-167348Y123671D01*
X-167168Y123671D01*
X-166987Y123667D01*
X-166807Y123658D01*
X-166627Y123645D01*
X-166447Y123628D01*
X-166268Y123606D01*
X-166089Y123579D01*
X-165911Y123549D01*
X-165734Y123514D01*
X-165558Y123474D01*
X-165382Y123431D01*
X-165208Y123383D01*
X-165035Y123331D01*
X-164864Y123275D01*
X-164693Y123214D01*
X-164525Y123150D01*
X-164358Y123081D01*
X-164192Y123009D01*
X-164029Y122932D01*
X-163867Y122851D01*
X-163707Y122767D01*
X-163550Y122678D01*
X-163395Y122586D01*
X-163242Y122490D01*
X-163091Y122391D01*
X-162943Y122287D01*
X-162797Y122180D01*
X-162654Y122070D01*
X-162514Y121956D01*
X-162377Y121839D01*
X-162242Y121719D01*
X-162111Y121595D01*
X-161982Y121468D01*
X-161857Y121338D01*
X-161735Y121205D01*
X-161616Y121069D01*
X-161500Y120930D01*
X-161388Y120788D01*
X-161280Y120644D01*
X-161175Y120497D01*
X-161073Y120348D01*
X-160975Y120196D01*
X-160881Y120042D01*
X-160791Y119886D01*
X-160704Y119727D01*
X-160622Y119566D01*
X-160543Y119404D01*
X-160469Y119239D01*
X-160398Y119073D01*
X-160331Y118905D01*
X-160269Y118736D01*
X-160211Y118565D01*
X-160156Y118393D01*
X-160107Y118219D01*
X-160061Y118044D01*
X-160019Y117868D01*
X-159982Y117692D01*
X-159949Y117514D01*
X-159921Y117336D01*
X-159897Y117157D01*
X-159877Y116977D01*
X-159862Y116797D01*
X-159851Y116617D01*
X-159844Y116437D01*
X-159842Y116256D01*
X-159843Y116256D02*
X-159843Y112548D01*
X-174674Y112548D01*
X-145707Y123672D02*
X-145707Y95864D01*
X-145706Y95864D02*
X-145708Y95716D01*
X-145714Y95568D01*
X-145724Y95420D01*
X-145738Y95273D01*
X-145755Y95126D01*
X-145777Y94979D01*
X-145802Y94833D01*
X-145832Y94688D01*
X-145865Y94544D01*
X-145902Y94401D01*
X-145943Y94258D01*
X-145987Y94117D01*
X-146036Y93977D01*
X-146088Y93839D01*
X-146144Y93701D01*
X-146203Y93566D01*
X-146266Y93432D01*
X-146333Y93299D01*
X-146403Y93169D01*
X-146476Y93040D01*
X-146553Y92914D01*
X-146633Y92789D01*
X-146717Y92667D01*
X-146803Y92547D01*
X-146893Y92429D01*
X-146986Y92314D01*
X-147082Y92201D01*
X-147181Y92091D01*
X-147283Y91984D01*
X-147388Y91879D01*
X-147495Y91777D01*
X-147605Y91678D01*
X-147718Y91582D01*
X-147833Y91489D01*
X-147951Y91399D01*
X-148071Y91313D01*
X-148193Y91229D01*
X-148318Y91149D01*
X-148444Y91072D01*
X-148573Y90999D01*
X-148703Y90929D01*
X-148836Y90862D01*
X-148970Y90799D01*
X-149105Y90740D01*
X-149243Y90684D01*
X-149381Y90632D01*
X-149521Y90583D01*
X-149662Y90539D01*
X-149805Y90498D01*
X-149948Y90461D01*
X-150092Y90428D01*
X-150237Y90398D01*
X-150383Y90373D01*
X-150530Y90351D01*
X-150677Y90334D01*
X-150824Y90320D01*
X-150972Y90310D01*
X-151120Y90304D01*
X-151268Y90302D01*
X-153122Y90302D01*
X-146634Y132941D02*
X-146634Y134795D01*
X-144780Y134795D01*
X-144780Y132941D01*
X-146634Y132941D01*
X-129792Y116256D02*
X-129792Y108841D01*
X-129792Y116256D02*
X-129790Y116437D01*
X-129783Y116617D01*
X-129772Y116797D01*
X-129757Y116977D01*
X-129737Y117157D01*
X-129713Y117336D01*
X-129685Y117514D01*
X-129652Y117692D01*
X-129615Y117868D01*
X-129573Y118044D01*
X-129527Y118219D01*
X-129478Y118393D01*
X-129423Y118565D01*
X-129365Y118736D01*
X-129303Y118905D01*
X-129236Y119073D01*
X-129165Y119239D01*
X-129091Y119404D01*
X-129012Y119566D01*
X-128930Y119727D01*
X-128843Y119886D01*
X-128753Y120042D01*
X-128659Y120196D01*
X-128561Y120348D01*
X-128459Y120497D01*
X-128354Y120644D01*
X-128246Y120788D01*
X-128134Y120930D01*
X-128018Y121069D01*
X-127899Y121205D01*
X-127777Y121338D01*
X-127652Y121468D01*
X-127523Y121595D01*
X-127392Y121719D01*
X-127257Y121839D01*
X-127120Y121956D01*
X-126980Y122070D01*
X-126837Y122180D01*
X-126691Y122287D01*
X-126543Y122391D01*
X-126392Y122490D01*
X-126239Y122586D01*
X-126084Y122678D01*
X-125927Y122767D01*
X-125767Y122851D01*
X-125605Y122932D01*
X-125442Y123009D01*
X-125276Y123081D01*
X-125109Y123150D01*
X-124941Y123214D01*
X-124770Y123275D01*
X-124599Y123331D01*
X-124426Y123383D01*
X-124252Y123431D01*
X-124076Y123474D01*
X-123900Y123514D01*
X-123723Y123549D01*
X-123545Y123579D01*
X-123366Y123606D01*
X-123187Y123628D01*
X-123007Y123645D01*
X-122827Y123658D01*
X-122647Y123667D01*
X-122466Y123671D01*
X-122286Y123671D01*
X-122105Y123667D01*
X-121925Y123658D01*
X-121745Y123645D01*
X-121565Y123628D01*
X-121386Y123606D01*
X-121207Y123579D01*
X-121029Y123549D01*
X-120852Y123514D01*
X-120676Y123474D01*
X-120500Y123431D01*
X-120326Y123383D01*
X-120153Y123331D01*
X-119982Y123275D01*
X-119811Y123214D01*
X-119643Y123150D01*
X-119476Y123081D01*
X-119310Y123009D01*
X-119147Y122932D01*
X-118985Y122851D01*
X-118825Y122767D01*
X-118668Y122678D01*
X-118513Y122586D01*
X-118360Y122490D01*
X-118209Y122391D01*
X-118061Y122287D01*
X-117915Y122180D01*
X-117772Y122070D01*
X-117632Y121956D01*
X-117495Y121839D01*
X-117360Y121719D01*
X-117229Y121595D01*
X-117100Y121468D01*
X-116975Y121338D01*
X-116853Y121205D01*
X-116734Y121069D01*
X-116618Y120930D01*
X-116506Y120788D01*
X-116398Y120644D01*
X-116293Y120497D01*
X-116191Y120348D01*
X-116093Y120196D01*
X-115999Y120042D01*
X-115909Y119886D01*
X-115822Y119727D01*
X-115740Y119566D01*
X-115661Y119404D01*
X-115587Y119239D01*
X-115516Y119073D01*
X-115449Y118905D01*
X-115387Y118736D01*
X-115329Y118565D01*
X-115274Y118393D01*
X-115225Y118219D01*
X-115179Y118044D01*
X-115137Y117868D01*
X-115100Y117692D01*
X-115067Y117514D01*
X-115039Y117336D01*
X-115015Y117157D01*
X-114995Y116977D01*
X-114980Y116797D01*
X-114969Y116617D01*
X-114962Y116437D01*
X-114960Y116256D01*
X-114961Y116256D02*
X-114961Y108841D01*
X-114963Y108660D01*
X-114970Y108480D01*
X-114981Y108300D01*
X-114996Y108120D01*
X-115016Y107940D01*
X-115040Y107761D01*
X-115068Y107583D01*
X-115101Y107405D01*
X-115138Y107229D01*
X-115180Y107053D01*
X-115225Y106878D01*
X-115275Y106705D01*
X-115330Y106532D01*
X-115388Y106362D01*
X-115450Y106192D01*
X-115517Y106024D01*
X-115587Y105858D01*
X-115662Y105694D01*
X-115741Y105531D01*
X-115823Y105371D01*
X-115910Y105212D01*
X-116000Y105056D01*
X-116094Y104901D01*
X-116192Y104750D01*
X-116293Y104600D01*
X-116398Y104453D01*
X-116507Y104309D01*
X-116619Y104168D01*
X-116735Y104029D01*
X-116854Y103893D01*
X-116976Y103760D01*
X-117101Y103630D01*
X-117229Y103503D01*
X-117361Y103379D01*
X-117495Y103259D01*
X-117633Y103141D01*
X-117773Y103028D01*
X-117916Y102917D01*
X-118062Y102810D01*
X-118210Y102707D01*
X-118360Y102608D01*
X-118513Y102512D01*
X-118668Y102419D01*
X-118826Y102331D01*
X-118986Y102247D01*
X-119147Y102166D01*
X-119311Y102089D01*
X-119476Y102017D01*
X-119643Y101948D01*
X-119812Y101884D01*
X-119982Y101823D01*
X-120153Y101767D01*
X-120326Y101715D01*
X-120500Y101667D01*
X-120676Y101624D01*
X-120852Y101584D01*
X-121029Y101549D01*
X-121207Y101519D01*
X-121386Y101492D01*
X-121565Y101470D01*
X-121745Y101453D01*
X-121925Y101440D01*
X-122105Y101431D01*
X-122286Y101427D01*
X-122466Y101427D01*
X-122647Y101431D01*
X-122827Y101440D01*
X-123007Y101453D01*
X-123187Y101470D01*
X-123366Y101492D01*
X-123545Y101519D01*
X-123723Y101549D01*
X-123900Y101584D01*
X-124076Y101624D01*
X-124252Y101667D01*
X-124426Y101715D01*
X-124599Y101767D01*
X-124770Y101823D01*
X-124940Y101884D01*
X-125109Y101948D01*
X-125276Y102017D01*
X-125441Y102089D01*
X-125605Y102166D01*
X-125766Y102247D01*
X-125926Y102331D01*
X-126083Y102419D01*
X-126239Y102512D01*
X-126392Y102608D01*
X-126542Y102707D01*
X-126690Y102810D01*
X-126836Y102917D01*
X-126979Y103028D01*
X-127119Y103141D01*
X-127257Y103259D01*
X-127391Y103379D01*
X-127523Y103503D01*
X-127651Y103630D01*
X-127776Y103760D01*
X-127898Y103893D01*
X-128017Y104029D01*
X-128133Y104168D01*
X-128245Y104309D01*
X-128354Y104453D01*
X-128459Y104600D01*
X-128560Y104750D01*
X-128658Y104901D01*
X-128752Y105056D01*
X-128842Y105212D01*
X-128929Y105371D01*
X-129011Y105531D01*
X-129090Y105694D01*
X-129165Y105858D01*
X-129235Y106024D01*
X-129302Y106192D01*
X-129364Y106362D01*
X-129422Y106532D01*
X-129477Y106705D01*
X-129527Y106878D01*
X-129572Y107053D01*
X-129614Y107229D01*
X-129651Y107405D01*
X-129684Y107583D01*
X-129712Y107761D01*
X-129736Y107940D01*
X-129756Y108120D01*
X-129771Y108300D01*
X-129782Y108480D01*
X-129789Y108660D01*
X-129791Y108841D01*
X-100264Y123672D02*
X-92849Y101425D01*
X-85433Y123672D01*
X-69257Y123672D02*
X-69257Y101425D01*
X-69257Y123672D02*
X-58133Y123672D01*
X-58133Y119964D01*
X-44753Y134795D02*
X-44753Y101425D01*
X-44753Y123672D02*
X-35483Y123672D01*
X-35335Y123670D01*
X-35187Y123664D01*
X-35039Y123654D01*
X-34892Y123640D01*
X-34745Y123623D01*
X-34598Y123601D01*
X-34452Y123576D01*
X-34307Y123546D01*
X-34163Y123513D01*
X-34020Y123476D01*
X-33877Y123435D01*
X-33736Y123391D01*
X-33596Y123342D01*
X-33458Y123290D01*
X-33320Y123234D01*
X-33185Y123175D01*
X-33051Y123112D01*
X-32918Y123045D01*
X-32788Y122975D01*
X-32659Y122902D01*
X-32533Y122825D01*
X-32408Y122745D01*
X-32286Y122661D01*
X-32166Y122575D01*
X-32048Y122485D01*
X-31933Y122392D01*
X-31820Y122296D01*
X-31710Y122197D01*
X-31603Y122095D01*
X-31498Y121990D01*
X-31396Y121883D01*
X-31297Y121773D01*
X-31201Y121660D01*
X-31108Y121545D01*
X-31018Y121427D01*
X-30932Y121307D01*
X-30848Y121185D01*
X-30768Y121060D01*
X-30691Y120934D01*
X-30618Y120805D01*
X-30548Y120675D01*
X-30481Y120542D01*
X-30418Y120408D01*
X-30359Y120273D01*
X-30303Y120136D01*
X-30251Y119997D01*
X-30202Y119857D01*
X-30158Y119716D01*
X-30117Y119573D01*
X-30080Y119430D01*
X-30047Y119286D01*
X-30017Y119141D01*
X-29992Y118995D01*
X-29970Y118848D01*
X-29953Y118701D01*
X-29939Y118554D01*
X-29929Y118406D01*
X-29923Y118258D01*
X-29921Y118110D01*
X-29922Y118110D02*
X-29922Y101425D01*
X7515Y101425D02*
X7515Y123672D01*
X18638Y123672D01*
X18638Y119964D01*
X36399Y101425D02*
X45668Y101425D01*
X36399Y101425D02*
X36251Y101427D01*
X36103Y101433D01*
X35955Y101443D01*
X35808Y101457D01*
X35661Y101474D01*
X35514Y101496D01*
X35368Y101521D01*
X35223Y101551D01*
X35079Y101584D01*
X34936Y101621D01*
X34793Y101662D01*
X34652Y101706D01*
X34512Y101755D01*
X34374Y101807D01*
X34236Y101863D01*
X34101Y101922D01*
X33967Y101985D01*
X33834Y102052D01*
X33704Y102122D01*
X33575Y102195D01*
X33449Y102272D01*
X33324Y102352D01*
X33202Y102436D01*
X33082Y102522D01*
X32964Y102612D01*
X32849Y102705D01*
X32736Y102801D01*
X32626Y102900D01*
X32519Y103002D01*
X32414Y103107D01*
X32312Y103214D01*
X32213Y103324D01*
X32117Y103437D01*
X32024Y103552D01*
X31934Y103670D01*
X31848Y103790D01*
X31764Y103912D01*
X31684Y104037D01*
X31607Y104163D01*
X31534Y104292D01*
X31464Y104422D01*
X31397Y104555D01*
X31334Y104689D01*
X31275Y104824D01*
X31219Y104962D01*
X31167Y105100D01*
X31118Y105240D01*
X31074Y105381D01*
X31033Y105524D01*
X30996Y105667D01*
X30963Y105811D01*
X30933Y105956D01*
X30908Y106102D01*
X30886Y106249D01*
X30869Y106396D01*
X30855Y106543D01*
X30845Y106691D01*
X30839Y106839D01*
X30837Y106987D01*
X30837Y116256D01*
X30838Y116256D02*
X30840Y116437D01*
X30847Y116617D01*
X30858Y116797D01*
X30873Y116977D01*
X30893Y117157D01*
X30917Y117336D01*
X30945Y117514D01*
X30978Y117692D01*
X31015Y117868D01*
X31057Y118044D01*
X31102Y118219D01*
X31152Y118392D01*
X31207Y118565D01*
X31265Y118735D01*
X31327Y118905D01*
X31394Y119073D01*
X31464Y119239D01*
X31539Y119403D01*
X31618Y119566D01*
X31700Y119726D01*
X31787Y119885D01*
X31877Y120041D01*
X31971Y120196D01*
X32069Y120347D01*
X32170Y120497D01*
X32275Y120644D01*
X32384Y120788D01*
X32496Y120929D01*
X32612Y121068D01*
X32731Y121204D01*
X32853Y121337D01*
X32978Y121467D01*
X33106Y121594D01*
X33238Y121718D01*
X33372Y121838D01*
X33510Y121956D01*
X33650Y122069D01*
X33793Y122180D01*
X33939Y122287D01*
X34087Y122390D01*
X34237Y122489D01*
X34390Y122585D01*
X34546Y122678D01*
X34703Y122766D01*
X34863Y122850D01*
X35024Y122931D01*
X35188Y123008D01*
X35353Y123080D01*
X35520Y123149D01*
X35689Y123213D01*
X35859Y123274D01*
X36030Y123330D01*
X36203Y123382D01*
X36377Y123430D01*
X36553Y123473D01*
X36729Y123513D01*
X36906Y123548D01*
X37084Y123578D01*
X37263Y123605D01*
X37442Y123627D01*
X37622Y123644D01*
X37802Y123657D01*
X37982Y123666D01*
X38163Y123670D01*
X38343Y123670D01*
X38524Y123666D01*
X38704Y123657D01*
X38884Y123644D01*
X39064Y123627D01*
X39243Y123605D01*
X39422Y123578D01*
X39600Y123548D01*
X39777Y123513D01*
X39953Y123473D01*
X40129Y123430D01*
X40303Y123382D01*
X40476Y123330D01*
X40647Y123274D01*
X40817Y123213D01*
X40986Y123149D01*
X41153Y123080D01*
X41318Y123008D01*
X41482Y122931D01*
X41643Y122850D01*
X41803Y122766D01*
X41961Y122678D01*
X42116Y122585D01*
X42269Y122489D01*
X42419Y122390D01*
X42567Y122287D01*
X42713Y122180D01*
X42856Y122069D01*
X42996Y121956D01*
X43134Y121838D01*
X43268Y121718D01*
X43400Y121594D01*
X43528Y121467D01*
X43653Y121337D01*
X43775Y121204D01*
X43894Y121068D01*
X44010Y120929D01*
X44122Y120788D01*
X44231Y120644D01*
X44336Y120497D01*
X44437Y120347D01*
X44535Y120196D01*
X44629Y120041D01*
X44719Y119885D01*
X44806Y119726D01*
X44888Y119566D01*
X44967Y119403D01*
X45042Y119239D01*
X45112Y119073D01*
X45179Y118905D01*
X45241Y118735D01*
X45299Y118565D01*
X45354Y118392D01*
X45404Y118219D01*
X45449Y118044D01*
X45491Y117868D01*
X45528Y117692D01*
X45561Y117514D01*
X45589Y117336D01*
X45613Y117157D01*
X45633Y116977D01*
X45648Y116797D01*
X45659Y116617D01*
X45666Y116437D01*
X45668Y116256D01*
X45668Y112548D01*
X30837Y112548D01*
X60365Y123672D02*
X67780Y101425D01*
X75196Y123672D01*
X88113Y103279D02*
X88113Y101425D01*
X88113Y103279D02*
X89967Y103279D01*
X89967Y101425D01*
X88113Y101425D01*
X123471Y101425D02*
X134595Y101425D01*
X134777Y101427D01*
X134959Y101434D01*
X135141Y101445D01*
X135322Y101461D01*
X135503Y101481D01*
X135683Y101505D01*
X135863Y101534D01*
X136042Y101567D01*
X136220Y101605D01*
X136397Y101647D01*
X136573Y101694D01*
X136748Y101744D01*
X136921Y101799D01*
X137093Y101859D01*
X137264Y101922D01*
X137433Y101989D01*
X137600Y102061D01*
X137766Y102137D01*
X137929Y102217D01*
X138091Y102301D01*
X138250Y102388D01*
X138408Y102480D01*
X138563Y102576D01*
X138715Y102675D01*
X138865Y102778D01*
X139013Y102884D01*
X139158Y102995D01*
X139300Y103108D01*
X139439Y103226D01*
X139575Y103346D01*
X139709Y103470D01*
X139839Y103597D01*
X139966Y103727D01*
X140090Y103861D01*
X140210Y103997D01*
X140328Y104136D01*
X140441Y104278D01*
X140552Y104423D01*
X140658Y104571D01*
X140761Y104721D01*
X140860Y104873D01*
X140956Y105028D01*
X141048Y105186D01*
X141135Y105345D01*
X141219Y105507D01*
X141299Y105670D01*
X141375Y105836D01*
X141446Y106003D01*
X141514Y106172D01*
X141577Y106343D01*
X141637Y106515D01*
X141692Y106688D01*
X141742Y106863D01*
X141789Y107039D01*
X141831Y107216D01*
X141868Y107394D01*
X141902Y107573D01*
X141931Y107753D01*
X141955Y107933D01*
X141975Y108114D01*
X141991Y108295D01*
X142002Y108477D01*
X142009Y108659D01*
X142011Y108841D01*
X142010Y108841D02*
X142010Y112548D01*
X142011Y112548D02*
X142009Y112727D01*
X142002Y112906D01*
X141992Y113085D01*
X141976Y113264D01*
X141957Y113442D01*
X141933Y113620D01*
X141905Y113797D01*
X141873Y113973D01*
X141836Y114148D01*
X141796Y114323D01*
X141751Y114496D01*
X141701Y114669D01*
X141648Y114840D01*
X141591Y115009D01*
X141529Y115178D01*
X141464Y115345D01*
X141394Y115510D01*
X141320Y115673D01*
X141243Y115835D01*
X141162Y115994D01*
X141076Y116152D01*
X140987Y116308D01*
X140895Y116461D01*
X140798Y116612D01*
X140698Y116761D01*
X140595Y116907D01*
X140488Y117051D01*
X140377Y117192D01*
X140263Y117330D01*
X140146Y117466D01*
X140026Y117598D01*
X139902Y117728D01*
X139775Y117855D01*
X139645Y117979D01*
X139513Y118099D01*
X139377Y118216D01*
X139239Y118330D01*
X139098Y118441D01*
X138954Y118548D01*
X138808Y118651D01*
X138659Y118751D01*
X138508Y118848D01*
X138355Y118940D01*
X138199Y119029D01*
X138041Y119115D01*
X137882Y119196D01*
X137720Y119273D01*
X137557Y119347D01*
X137392Y119417D01*
X137225Y119482D01*
X137056Y119544D01*
X136887Y119601D01*
X136716Y119654D01*
X136543Y119704D01*
X136370Y119749D01*
X136195Y119789D01*
X136020Y119826D01*
X135844Y119858D01*
X135667Y119886D01*
X135489Y119910D01*
X135311Y119929D01*
X135132Y119945D01*
X134953Y119955D01*
X134774Y119962D01*
X134595Y119964D01*
X123471Y119964D01*
X123471Y134795D01*
X142010Y134795D01*
X159842Y134795D02*
X159842Y101425D01*
X169112Y101425D01*
X169260Y101427D01*
X169408Y101433D01*
X169556Y101443D01*
X169703Y101457D01*
X169850Y101474D01*
X169997Y101496D01*
X170143Y101521D01*
X170288Y101551D01*
X170432Y101584D01*
X170575Y101621D01*
X170718Y101662D01*
X170859Y101706D01*
X170999Y101755D01*
X171137Y101807D01*
X171275Y101863D01*
X171410Y101922D01*
X171544Y101985D01*
X171677Y102052D01*
X171807Y102122D01*
X171936Y102195D01*
X172062Y102272D01*
X172187Y102352D01*
X172309Y102436D01*
X172429Y102522D01*
X172547Y102612D01*
X172662Y102705D01*
X172775Y102801D01*
X172885Y102900D01*
X172992Y103002D01*
X173097Y103107D01*
X173199Y103214D01*
X173298Y103324D01*
X173394Y103437D01*
X173487Y103552D01*
X173577Y103670D01*
X173663Y103790D01*
X173747Y103912D01*
X173827Y104037D01*
X173904Y104163D01*
X173977Y104292D01*
X174047Y104422D01*
X174114Y104555D01*
X174177Y104689D01*
X174236Y104824D01*
X174292Y104962D01*
X174344Y105100D01*
X174393Y105240D01*
X174437Y105381D01*
X174478Y105524D01*
X174515Y105667D01*
X174548Y105811D01*
X174578Y105957D01*
X174603Y106102D01*
X174625Y106249D01*
X174643Y106396D01*
X174656Y106543D01*
X174666Y106691D01*
X174672Y106839D01*
X174674Y106987D01*
X174673Y106987D02*
X174673Y118110D01*
X174674Y118110D02*
X174672Y118258D01*
X174666Y118406D01*
X174656Y118554D01*
X174642Y118701D01*
X174625Y118848D01*
X174603Y118995D01*
X174578Y119141D01*
X174548Y119286D01*
X174515Y119430D01*
X174478Y119573D01*
X174437Y119716D01*
X174393Y119857D01*
X174344Y119997D01*
X174292Y120135D01*
X174236Y120273D01*
X174177Y120408D01*
X174114Y120542D01*
X174047Y120675D01*
X173977Y120805D01*
X173904Y120934D01*
X173827Y121060D01*
X173747Y121185D01*
X173663Y121307D01*
X173577Y121427D01*
X173487Y121545D01*
X173394Y121660D01*
X173298Y121773D01*
X173199Y121883D01*
X173097Y121990D01*
X172992Y122095D01*
X172885Y122197D01*
X172775Y122296D01*
X172662Y122392D01*
X172547Y122485D01*
X172429Y122575D01*
X172309Y122661D01*
X172187Y122745D01*
X172062Y122825D01*
X171936Y122902D01*
X171807Y122975D01*
X171677Y123045D01*
X171544Y123112D01*
X171410Y123175D01*
X171275Y123234D01*
X171137Y123290D01*
X170999Y123342D01*
X170859Y123391D01*
X170718Y123435D01*
X170575Y123476D01*
X170432Y123513D01*
X170288Y123546D01*
X170143Y123576D01*
X169997Y123601D01*
X169850Y123623D01*
X169703Y123640D01*
X169556Y123654D01*
X169408Y123664D01*
X169260Y123670D01*
X169112Y123672D01*
X159842Y123672D01*
D11*
G36*
X149107Y-519050D02*
X109293Y-533542D01*
X98841Y-504828D01*
X138655Y-490336D01*
X149107Y-519050D01*
G37*
G36*
X169305Y-574544D02*
X129491Y-589036D01*
X119039Y-560322D01*
X158853Y-545830D01*
X169305Y-574544D01*
G37*
G36*
X209828Y-464432D02*
X249642Y-449940D01*
X260094Y-478654D01*
X220280Y-493146D01*
X209828Y-464432D01*
G37*
G36*
X230027Y-519926D02*
X269841Y-505434D01*
X280293Y-534148D01*
X240479Y-548640D01*
X230027Y-519926D01*
G37*
G36*
X446677Y-302838D02*
X425492Y-339531D01*
X399029Y-324252D01*
X420214Y-287559D01*
X446677Y-302838D01*
G37*
G36*
X497821Y-332365D02*
X476636Y-369058D01*
X450173Y-353779D01*
X471358Y-317086D01*
X497821Y-332365D01*
G37*
G36*
X458085Y-221965D02*
X479270Y-185272D01*
X505733Y-200551D01*
X484548Y-237244D01*
X458085Y-221965D01*
G37*
G36*
X509228Y-251493D02*
X530413Y-214800D01*
X556876Y-230079D01*
X535691Y-266772D01*
X509228Y-251493D01*
G37*
G36*
X536245Y57081D02*
X543602Y15356D01*
X513509Y10049D01*
X506152Y51774D01*
X536245Y57081D01*
G37*
G36*
X594402Y67336D02*
X601759Y25611D01*
X571666Y20304D01*
X564309Y62029D01*
X594402Y67336D01*
G37*
G36*
X492999Y126365D02*
X485642Y168090D01*
X515735Y173397D01*
X523092Y131672D01*
X492999Y126365D01*
G37*
G36*
X551157Y136620D02*
X543800Y178345D01*
X573893Y183652D01*
X581250Y141927D01*
X551157Y136620D01*
G37*
G36*
X-159050Y-546027D02*
X-119236Y-560519D01*
X-129688Y-589233D01*
X-169502Y-574741D01*
X-159050Y-546027D01*
G37*
G36*
X-138852Y-490533D02*
X-99038Y-505025D01*
X-109490Y-533739D01*
X-149304Y-519247D01*
X-138852Y-490533D01*
G37*
G36*
X-240675Y-548837D02*
X-280489Y-534345D01*
X-270037Y-505631D01*
X-230223Y-520123D01*
X-240675Y-548837D01*
G37*
G36*
X-220477Y-493343D02*
X-260291Y-478851D01*
X-249839Y-450137D01*
X-210025Y-464629D01*
X-220477Y-493343D01*
G37*
G36*
X-471358Y-318267D02*
X-450173Y-354960D01*
X-476636Y-370239D01*
X-497821Y-333546D01*
X-471358Y-318267D01*
G37*
G36*
X-420214Y-288740D02*
X-399029Y-325433D01*
X-425492Y-340712D01*
X-446677Y-304019D01*
X-420214Y-288740D01*
G37*
G36*
X-535691Y-267953D02*
X-556876Y-231260D01*
X-530413Y-215981D01*
X-509228Y-252674D01*
X-535691Y-267953D01*
G37*
G36*
X-484548Y-238425D02*
X-505733Y-201732D01*
X-479270Y-186453D01*
X-458085Y-223146D01*
X-484548Y-238425D01*
G37*
G36*
X-564900Y60651D02*
X-572257Y18926D01*
X-602350Y24233D01*
X-594993Y65958D01*
X-564900Y60651D01*
G37*
G36*
X-506742Y50396D02*
X-514099Y8671D01*
X-544192Y13978D01*
X-536835Y55703D01*
X-506742Y50396D01*
G37*
G36*
X-581840Y140549D02*
X-574483Y182274D01*
X-544390Y176967D01*
X-551747Y135242D01*
X-581840Y140549D01*
G37*
G36*
X-523683Y130294D02*
X-516326Y172019D01*
X-486233Y166712D01*
X-493590Y124987D01*
X-523683Y130294D01*
G37*
G36*
X-393485Y409801D02*
X-425941Y382567D01*
X-445583Y405975D01*
X-413127Y433209D01*
X-393485Y409801D01*
G37*
G36*
X-355525Y364562D02*
X-387981Y337328D01*
X-407623Y360736D01*
X-375167Y387970D01*
X-355525Y364562D01*
G37*
G36*
X-355105Y481895D02*
X-322649Y509129D01*
X-303007Y485721D01*
X-335463Y458487D01*
X-355105Y481895D01*
G37*
G36*
X-317145Y436656D02*
X-284689Y463890D01*
X-265047Y440482D01*
X-297503Y413248D01*
X-317145Y436656D01*
G37*
X-59055Y580709D03*
X-59055Y521654D03*
X59055Y580709D03*
X59055Y521654D03*
G36*
X334872Y458487D02*
X302416Y485721D01*
X322058Y509129D01*
X354514Y481895D01*
X334872Y458487D01*
G37*
G36*
X296913Y413248D02*
X264457Y440482D01*
X284099Y463890D01*
X316555Y436656D01*
X296913Y413248D01*
G37*
G36*
X412536Y433209D02*
X444992Y405975D01*
X425350Y382567D01*
X392894Y409801D01*
X412536Y433209D01*
G37*
G36*
X374576Y387970D02*
X407032Y360736D01*
X387390Y337328D01*
X354934Y364562D01*
X374576Y387970D01*
G37*
D12*
X423622Y49803D03*
X423622Y-197D03*
X423622Y-50197D03*
X373622Y-50197D03*
X373622Y-197D03*
X373622Y49803D03*
D13*
X398622Y99803D03*
X358622Y-100197D03*
X438622Y-100197D03*
D14*
X49213Y440244D03*
X-147638Y442913D03*
X-305118Y-59055D03*
X-561024Y-59055D03*
D15*
X-55118Y0D03*
X55118Y0D03*
D16*
X0Y0D03*
D17*
X-403543Y0D03*
X-403543Y-39370D03*
X-482283Y0D03*
X-482283Y-39370D03*
D18*
X373622Y-50197D03*
X-242126Y-344488D03*
X232283Y-403543D03*
X39370Y-344488D03*
X-74803Y-226378D03*
X157480Y-98425D03*
X127953Y-98425D03*
X98425Y-98425D03*
X127953Y-127953D03*
X157480Y-127953D03*
X98425Y-127953D03*
X68898Y-127953D03*
X68898Y-98425D03*
X-393701Y177165D03*
X-242126Y-403543D03*
X-344488Y287402D03*
X-246063Y314961D03*
X-246063Y9843D03*
X-204724Y423228D03*
X232283Y-344488D03*
X-216535Y9843D03*
X-275591Y9843D03*
X-442913Y53150D03*
X-442913Y-98425D03*
X-78740Y413386D03*
X-108268Y413386D03*
X-137795Y413386D03*
X-167323Y413386D03*
X-192913Y-157480D03*
X-49213Y324803D03*
X177165Y324803D03*
X-167323Y-78740D03*
X19685Y-151575D03*
X39370Y-265748D03*
X-378937Y364173D03*
X-118110Y-511811D03*
X137795Y-570866D03*
X171260Y68898D03*
X-23622Y-226378D03*
X-15748Y364173D03*
X13780Y364173D03*
X43307Y364173D03*
X72835Y364173D03*
X240157Y364173D03*
X-403543Y-69370D03*
X-482283Y-69370D03*
X373622Y50000D03*
X-190945Y-344488D03*
X181102Y-344488D03*
X181102Y-403543D03*
X-531496Y-196850D03*
X-137795Y354331D03*
X-167323Y354331D03*
X-206693Y-541339D03*
X-141732Y-157480D03*
X423622Y49803D03*
X127953Y-442913D03*
X373622Y0D03*
X-49213Y-383858D03*
X423622Y-197D03*
X98425Y-472441D03*
X29528Y-393701D03*
X-488357Y-274914D03*
X0Y-423228D03*
X-393701Y-275591D03*
X472441Y-344488D03*
X226378Y-492126D03*
X585630Y39370D03*
X482283Y-206693D03*
X-423228Y-314961D03*
X-255906Y-526575D03*
X-531496Y-246063D03*
X-570866Y118110D03*
X-329724Y482283D03*
X-59055Y521654D03*
X59055Y580709D03*
X285433Y442913D03*
X501969Y157480D03*
X423228Y403543D03*
X-561024Y162402D03*
X-248031Y423228D03*
X39370Y-521654D03*
X-403543Y30000D03*
X-482283Y30000D03*
X59055Y49213D03*
X59055Y0D03*
X59055Y-49213D03*
X98425Y49213D03*
X98425Y0D03*
X98425Y-49213D03*
X78740Y-19685D03*
X78740Y19685D03*
X-59055Y49213D03*
X-59055Y-49213D03*
X-59055Y0D03*
X-98425Y49213D03*
X-98425Y0D03*
X-98425Y-49213D03*
X-78740Y19685D03*
X-78740Y-19685D03*
X-185039Y-452756D03*
X-147638Y-19685D03*
X-185039Y-501969D03*
X-187008Y-19685D03*
M02*
