M48
;GenerationSoftware,Autodesk,EAGLE,9.6.2*%
;CreationDate,2025-04-18T12:16:15Z*%
FMAT,2
ICI,OFF
INCH,TZ,00.0000
T2C0.0138
T1C0.0354
%
G90
M72
T1
X-5610Y-591
X492Y4402
X-1476Y4429
X-3051Y-591
T2
X-748Y-2264
X1575Y-984
X1280Y-984
X984Y-984
X1280Y-1280
X1575Y-1280
X984Y-1280
X689Y-1280
X689Y-984
X-3937Y1772
X-2421Y-4035
X-3445Y2874
X-2461Y3150
X-2461Y98
X-2047Y4232
X2323Y-3445
X-2165Y98
X-2756Y98
X-4429Y531
X-4429Y-984
X-787Y4134
X-1083Y4134
X-1378Y4134
X-1673Y4134
X-1929Y-1575
X-492Y3248
X1772Y3248
X-1673Y-787
X197Y-1516
X394Y-2657
X-3789Y3642
X-1181Y-5118
X1378Y-5709
X1713Y689
X-236Y-2264
X-157Y3642
X138Y3642
X433Y3642
X728Y3642
X2402Y3642
X-4035Y-694
X-4823Y-694
X3736Y500
X-1909Y-3445
X1811Y-3445
X1811Y-4035
X-5315Y-1969
X-1378Y3543
X-1673Y3543
X-2067Y-5413
X-1417Y-1575
X4236Y498
X1280Y-4429
X3736Y0
X-492Y-3839
X4236Y-2
X984Y-4724
X295Y-3937
X-4884Y-2749
X0Y-4232
X-3937Y-2756
X4724Y-3445
X2264Y-4921
X5856Y394
X4823Y-2067
X-4232Y-3150
X-2559Y-5266
X-5315Y-2461
X-5709Y1181
X-3297Y4823
X-591Y5217
X591Y5807
X2854Y4429
X5020Y1575
X4232Y4035
X-5610Y1624
X-2480Y4232
X3736Y-502
X-4035Y300
X-4823Y300
X591Y492
X591Y0
X591Y-492
X984Y492
X984Y0
X984Y-492
X787Y-197
X787Y197
X-591Y492
X-591Y-492
X394Y-5217
X-984Y492
X-984Y0
X-984Y-492
X-787Y197
X-787Y-197
X-1850Y-4528
X-1476Y-197
X-1850Y-5020
X-1870Y-197
X-2421Y-3445
X2323Y-4035
X394Y-3445
X-591Y0
M30