G04 EAGLE Gerber X2 export*
%TF.Part,Single*%
%TF.FileFunction,Copper,L4,Inr,Mixed*%
%TF.FilePolarity,Positive*%
%TF.GenerationSoftware,Autodesk,EAGLE,9.6.2*%
%TF.CreationDate,2025-04-18T12:16:15Z*%
G75*
%MOIN*%
%FSLAX36Y36*%
%LPD*%
%INInternal Plane 3*%
%AMOC8*
5,1,8,0,0,1.08239X$1,22.5*%
G01*
%ADD10C,0.006000*%
%ADD11C,0.053150*%
%ADD12C,0.021780*%

G36*
X74354Y-677760D02*
X74354Y-677760D01*
X74483Y-677734D01*
X74790Y-677712D01*
X172245Y-659711D01*
X172368Y-659667D01*
X172668Y-659600D01*
X205989Y-648233D01*
X214780Y-645233D01*
X214781Y-645233D01*
X266464Y-627602D01*
X266579Y-627540D01*
X266867Y-627430D01*
X355004Y-582116D01*
X355109Y-582038D01*
X355378Y-581888D01*
X435977Y-524224D01*
X436070Y-524131D01*
X436314Y-523944D01*
X507659Y-455158D01*
X507737Y-455054D01*
X507951Y-454832D01*
X568521Y-376392D01*
X568583Y-376277D01*
X568762Y-376027D01*
X617265Y-289604D01*
X617310Y-289481D01*
X617451Y-289207D01*
X652854Y-196643D01*
X652880Y-196515D01*
X652934Y-196357D01*
X652956Y-196310D01*
X652959Y-196285D01*
X652980Y-196224D01*
X674528Y-99491D01*
X674535Y-99361D01*
X674592Y-99058D01*
X681826Y-219D01*
X681814Y-89D01*
X681826Y219D01*
X674592Y99058D01*
X674561Y99185D01*
X674528Y99491D01*
X652980Y196224D01*
X652931Y196346D01*
X652854Y196643D01*
X617451Y289207D01*
X617385Y289320D01*
X617265Y289604D01*
X568762Y376027D01*
X568680Y376129D01*
X568521Y376392D01*
X507951Y454832D01*
X507855Y454922D01*
X507659Y455158D01*
X436314Y523944D01*
X436206Y524018D01*
X435977Y524224D01*
X355377Y581888D01*
X355260Y581946D01*
X355004Y582116D01*
X266867Y627430D01*
X266742Y627470D01*
X266464Y627602D01*
X172668Y659600D01*
X172539Y659622D01*
X172245Y659711D01*
X74790Y677712D01*
X74660Y677714D01*
X74354Y677760D01*
X-24683Y681379D01*
X-24813Y681363D01*
X-25120Y681363D01*
X-123629Y670524D01*
X-123756Y670489D01*
X-124060Y670444D01*
X-219941Y645378D01*
X-220061Y645325D01*
X-220355Y645236D01*
X-311565Y606477D01*
X-311675Y606407D01*
X-311954Y606276D01*
X-396548Y554649D01*
X-396648Y554564D01*
X-396905Y554395D01*
X-473080Y491001D01*
X-473166Y490902D01*
X-473395Y490697D01*
X-539529Y416887D01*
X-539599Y416777D01*
X-539797Y416541D01*
X-594479Y333889D01*
X-594532Y333769D01*
X-594693Y333507D01*
X-636758Y243774D01*
X-636794Y243647D01*
X-636914Y243365D01*
X-665466Y148463D01*
X-665483Y148334D01*
X-665561Y148036D01*
X-679991Y49988D01*
X-679989Y49857D01*
X-680023Y49552D01*
X-680023Y-49552D01*
X-680002Y-49681D01*
X-679991Y-49988D01*
X-665561Y-148036D01*
X-665522Y-148160D01*
X-665466Y-148463D01*
X-636914Y-243365D01*
X-636857Y-243482D01*
X-636758Y-243774D01*
X-594693Y-333507D01*
X-594619Y-333615D01*
X-594479Y-333889D01*
X-539797Y-416541D01*
X-539708Y-416637D01*
X-539529Y-416887D01*
X-473395Y-490697D01*
X-473293Y-490779D01*
X-473080Y-491001D01*
X-396905Y-554395D01*
X-396792Y-554461D01*
X-396548Y-554649D01*
X-311954Y-606276D01*
X-311833Y-606326D01*
X-311565Y-606477D01*
X-220355Y-645236D01*
X-220228Y-645268D01*
X-219941Y-645378D01*
X-124060Y-670444D01*
X-123930Y-670457D01*
X-123629Y-670524D01*
X-25120Y-681363D01*
X-24989Y-681356D01*
X-24683Y-681379D01*
X74354Y-677760D01*
G37*
%LPC*%
G36*
X-172672Y327440D02*
X-172672Y327440D01*
X-182555Y331534D01*
X-184591Y333570D01*
X-184881Y333779D01*
X-185153Y334012D01*
X-185273Y334060D01*
X-185377Y334135D01*
X-185719Y334240D01*
X-186051Y334375D01*
X-186214Y334393D01*
X-186303Y334420D01*
X-186431Y334417D01*
X-186711Y334448D01*
X-196932Y334448D01*
X-197048Y334564D01*
X-197048Y393783D01*
X-196932Y393898D01*
X34768Y393898D01*
X35146Y393960D01*
X35528Y393996D01*
X35623Y394038D01*
X35724Y394055D01*
X36063Y394234D01*
X36413Y394390D01*
X36490Y394460D01*
X36581Y394508D01*
X36844Y394785D01*
X37127Y395045D01*
X37177Y395135D01*
X37248Y395210D01*
X37409Y395557D01*
X37594Y395893D01*
X37613Y395995D01*
X37656Y396088D01*
X37699Y396469D01*
X37767Y396846D01*
X37752Y396948D01*
X37764Y397051D01*
X37682Y397426D01*
X37627Y397805D01*
X37580Y397897D01*
X37558Y397998D01*
X37362Y398327D01*
X37189Y398669D01*
X37115Y398741D01*
X37062Y398830D01*
X36771Y399079D01*
X36498Y399348D01*
X36385Y399410D01*
X36327Y399460D01*
X36204Y399510D01*
X35916Y399668D01*
X25096Y404150D01*
X13119Y416127D01*
X6637Y431775D01*
X6637Y448713D01*
X13119Y464361D01*
X25096Y476338D01*
X40744Y482820D01*
X57681Y482820D01*
X73329Y476338D01*
X85306Y464361D01*
X91788Y448713D01*
X91788Y431775D01*
X85306Y416127D01*
X73329Y404150D01*
X62509Y399668D01*
X62183Y399466D01*
X61844Y399287D01*
X61773Y399212D01*
X61686Y399158D01*
X61442Y398863D01*
X61177Y398585D01*
X61133Y398491D01*
X61068Y398412D01*
X60930Y398055D01*
X60769Y397707D01*
X60757Y397604D01*
X60720Y397508D01*
X60704Y397125D01*
X60661Y396744D01*
X60683Y396643D01*
X60679Y396540D01*
X60785Y396172D01*
X60867Y395797D01*
X60919Y395709D01*
X60948Y395609D01*
X61167Y395294D01*
X61363Y394965D01*
X61441Y394898D01*
X61500Y394813D01*
X61807Y394584D01*
X62099Y394335D01*
X62195Y394296D01*
X62277Y394234D01*
X62641Y394116D01*
X62997Y393972D01*
X63124Y393958D01*
X63198Y393934D01*
X63330Y393935D01*
X63657Y393898D01*
X108350Y393898D01*
X108465Y393783D01*
X108465Y334564D01*
X108350Y334448D01*
X-118407Y334448D01*
X-118760Y334390D01*
X-119117Y334363D01*
X-119236Y334312D01*
X-119363Y334292D01*
X-119680Y334124D01*
X-120009Y333984D01*
X-120136Y333882D01*
X-120219Y333839D01*
X-120307Y333746D01*
X-120528Y333570D01*
X-122563Y331534D01*
X-132446Y327440D01*
X-143144Y327440D01*
X-151411Y330865D01*
X-151759Y330946D01*
X-152100Y331058D01*
X-152229Y331057D01*
X-152354Y331086D01*
X-152711Y331052D01*
X-153069Y331049D01*
X-153226Y331004D01*
X-153319Y330995D01*
X-153436Y330943D01*
X-153707Y330865D01*
X-161974Y327440D01*
X-172672Y327440D01*
G37*
%LPD*%
%LPC*%
G36*
X-128035Y-78938D02*
X-128035Y-78938D01*
X-128150Y-78822D01*
X-128150Y-45208D01*
X-128179Y-45030D01*
X-128172Y-44850D01*
X-128257Y-44554D01*
X-128307Y-44252D01*
X-128391Y-44093D01*
X-128441Y-43919D01*
X-128616Y-43666D01*
X-128760Y-43395D01*
X-128890Y-43272D01*
X-128993Y-43123D01*
X-129239Y-42940D01*
X-129462Y-42728D01*
X-129625Y-42652D01*
X-129770Y-42545D01*
X-130062Y-42449D01*
X-130340Y-42320D01*
X-130519Y-42300D01*
X-130691Y-42244D01*
X-130998Y-42246D01*
X-131303Y-42212D01*
X-131479Y-42250D01*
X-131659Y-42252D01*
X-132174Y-42401D01*
X-132250Y-42418D01*
X-132268Y-42428D01*
X-132297Y-42437D01*
X-142289Y-46575D01*
X-152987Y-46575D01*
X-162870Y-42482D01*
X-165202Y-40150D01*
X-165265Y-40104D01*
X-165313Y-40044D01*
X-165657Y-39822D01*
X-165988Y-39584D01*
X-166063Y-39561D01*
X-166128Y-39519D01*
X-166523Y-39420D01*
X-166914Y-39299D01*
X-166992Y-39301D01*
X-167067Y-39282D01*
X-167474Y-39313D01*
X-167883Y-39324D01*
X-167956Y-39351D01*
X-168033Y-39356D01*
X-168409Y-39516D01*
X-168793Y-39656D01*
X-168853Y-39704D01*
X-168925Y-39735D01*
X-169444Y-40149D01*
X-171776Y-42482D01*
X-181659Y-46575D01*
X-192357Y-46575D01*
X-202240Y-42482D01*
X-209805Y-34917D01*
X-213898Y-25034D01*
X-213898Y-14336D01*
X-209805Y-4453D01*
X-202240Y3112D01*
X-192357Y7205D01*
X-181659Y7205D01*
X-171776Y3112D01*
X-169444Y779D01*
X-169380Y734D01*
X-169332Y673D01*
X-168989Y453D01*
X-168657Y214D01*
X-168583Y191D01*
X-168517Y149D01*
X-168122Y49D01*
X-167731Y-71D01*
X-167653Y-69D01*
X-167578Y-88D01*
X-167172Y-57D01*
X-166763Y-46D01*
X-166690Y-20D01*
X-166612Y-14D01*
X-166237Y146D01*
X-165853Y286D01*
X-165792Y335D01*
X-165721Y365D01*
X-165202Y780D01*
X-162870Y3112D01*
X-152987Y7205D01*
X-142289Y7205D01*
X-132297Y3067D01*
X-132122Y3026D01*
X-131959Y2950D01*
X-131653Y2915D01*
X-131354Y2845D01*
X-131175Y2862D01*
X-130996Y2842D01*
X-130696Y2907D01*
X-130390Y2936D01*
X-130225Y3009D01*
X-130049Y3047D01*
X-129785Y3205D01*
X-129504Y3330D01*
X-129372Y3452D01*
X-129217Y3544D01*
X-129017Y3777D01*
X-128791Y3985D01*
X-128704Y4143D01*
X-128587Y4279D01*
X-128472Y4564D01*
X-128323Y4833D01*
X-128291Y5011D01*
X-128224Y5178D01*
X-128164Y5712D01*
X-128151Y5787D01*
X-128154Y5807D01*
X-128150Y5838D01*
X-128150Y78822D01*
X-128035Y78938D01*
X-29446Y78938D01*
X-29330Y78822D01*
X-29330Y-78822D01*
X-29446Y-78938D01*
X-128035Y-78938D01*
G37*
%LPD*%
%LPC*%
G36*
X29446Y-78938D02*
X29446Y-78938D01*
X29330Y-78822D01*
X29330Y78822D01*
X29446Y78938D01*
X128035Y78938D01*
X128150Y78822D01*
X128150Y-78822D01*
X128035Y-78938D01*
X29446Y-78938D01*
G37*
%LPD*%
%LPC*%
G36*
X418273Y-27087D02*
X418273Y-27087D01*
X408390Y-22993D01*
X400644Y-15248D01*
X400581Y-15203D01*
X400533Y-15142D01*
X400189Y-14921D01*
X399858Y-14683D01*
X399783Y-14660D01*
X399718Y-14618D01*
X399323Y-14518D01*
X398932Y-14397D01*
X398854Y-14399D01*
X398779Y-14380D01*
X398372Y-14412D01*
X397963Y-14422D01*
X397891Y-14449D01*
X397813Y-14455D01*
X397437Y-14614D01*
X397053Y-14754D01*
X396993Y-14803D01*
X396921Y-14833D01*
X396403Y-15248D01*
X388854Y-22797D01*
X378971Y-26890D01*
X368273Y-26890D01*
X358390Y-22797D01*
X350825Y-15232D01*
X346732Y-5349D01*
X346732Y5349D01*
X350825Y15232D01*
X358472Y22879D01*
X358518Y22942D01*
X358578Y22991D01*
X358800Y23335D01*
X359038Y23666D01*
X359061Y23740D01*
X359103Y23805D01*
X359203Y24201D01*
X359323Y24592D01*
X359321Y24669D01*
X359340Y24744D01*
X359309Y25151D01*
X359298Y25560D01*
X359271Y25633D01*
X359266Y25710D01*
X359106Y26086D01*
X358966Y26470D01*
X358917Y26531D01*
X358887Y26602D01*
X358472Y27121D01*
X350825Y34768D01*
X346732Y44651D01*
X346732Y55349D01*
X350825Y65232D01*
X358390Y72797D01*
X366709Y76242D01*
X366775Y76283D01*
X366850Y76305D01*
X367186Y76538D01*
X367532Y76753D01*
X367582Y76813D01*
X367646Y76857D01*
X367890Y77185D01*
X368150Y77499D01*
X368178Y77571D01*
X368225Y77634D01*
X368352Y78023D01*
X368498Y78403D01*
X368501Y78481D01*
X368525Y78555D01*
X368522Y78963D01*
X368539Y79371D01*
X368518Y79446D01*
X368517Y79523D01*
X368332Y80161D01*
X363121Y92741D01*
X363121Y106865D01*
X368526Y119913D01*
X378513Y129899D01*
X391560Y135304D01*
X405684Y135304D01*
X418731Y129899D01*
X428718Y119913D01*
X434123Y106865D01*
X434123Y92741D01*
X428842Y79993D01*
X428824Y79918D01*
X428787Y79850D01*
X428714Y79447D01*
X428621Y79050D01*
X428628Y78973D01*
X428614Y78896D01*
X428673Y78493D01*
X428712Y78086D01*
X428743Y78014D01*
X428754Y77938D01*
X428939Y77574D01*
X429105Y77200D01*
X429158Y77143D01*
X429193Y77074D01*
X429484Y76788D01*
X429760Y76487D01*
X429828Y76449D01*
X429884Y76395D01*
X430465Y76074D01*
X438854Y72600D01*
X446419Y65035D01*
X450512Y55152D01*
X450512Y44454D01*
X446419Y34571D01*
X438772Y26924D01*
X438726Y26861D01*
X438666Y26813D01*
X438444Y26469D01*
X438206Y26137D01*
X438183Y26063D01*
X438141Y25998D01*
X438041Y25602D01*
X437921Y25211D01*
X437923Y25134D01*
X437904Y25059D01*
X437935Y24652D01*
X437946Y24243D01*
X437973Y24170D01*
X437978Y24093D01*
X438138Y23717D01*
X438278Y23333D01*
X438326Y23273D01*
X438357Y23201D01*
X438772Y22682D01*
X446419Y15035D01*
X450512Y5152D01*
X450512Y-5546D01*
X446419Y-15429D01*
X438854Y-22993D01*
X428971Y-27087D01*
X418273Y-27087D01*
G37*
%LPD*%
%LPC*%
G36*
X-212042Y-568229D02*
X-212042Y-568229D01*
X-221925Y-564135D01*
X-229490Y-556571D01*
X-233156Y-547719D01*
X-233251Y-547566D01*
X-233313Y-547397D01*
X-233505Y-547156D01*
X-233666Y-546896D01*
X-233805Y-546781D01*
X-233918Y-546640D01*
X-234176Y-546473D01*
X-234413Y-546278D01*
X-234581Y-546213D01*
X-234732Y-546116D01*
X-235030Y-546040D01*
X-235317Y-545930D01*
X-235497Y-545922D01*
X-235671Y-545878D01*
X-235977Y-545902D01*
X-236285Y-545889D01*
X-236458Y-545939D01*
X-236637Y-545953D01*
X-236920Y-546073D01*
X-237215Y-546158D01*
X-237363Y-546261D01*
X-237529Y-546331D01*
X-237948Y-546666D01*
X-238011Y-546710D01*
X-238024Y-546727D01*
X-238048Y-546746D01*
X-240673Y-549371D01*
X-250556Y-553465D01*
X-261254Y-553465D01*
X-271138Y-549371D01*
X-278702Y-541807D01*
X-282796Y-531924D01*
X-282796Y-521226D01*
X-278702Y-511343D01*
X-271138Y-503778D01*
X-261254Y-499684D01*
X-250556Y-499684D01*
X-240673Y-503778D01*
X-233109Y-511343D01*
X-229442Y-520194D01*
X-229348Y-520347D01*
X-229286Y-520517D01*
X-229094Y-520757D01*
X-228932Y-521018D01*
X-228793Y-521132D01*
X-228681Y-521273D01*
X-228422Y-521440D01*
X-228186Y-521635D01*
X-228018Y-521700D01*
X-227866Y-521798D01*
X-227568Y-521873D01*
X-227281Y-521983D01*
X-227102Y-521991D01*
X-226927Y-522035D01*
X-226621Y-522011D01*
X-226314Y-522024D01*
X-226140Y-521974D01*
X-225961Y-521961D01*
X-225679Y-521841D01*
X-225383Y-521755D01*
X-225235Y-521652D01*
X-225069Y-521582D01*
X-224650Y-521247D01*
X-224587Y-521203D01*
X-224575Y-521187D01*
X-224551Y-521167D01*
X-221925Y-518542D01*
X-212196Y-514512D01*
X-212130Y-514471D01*
X-212055Y-514449D01*
X-211720Y-514217D01*
X-211373Y-514002D01*
X-211323Y-513942D01*
X-211259Y-513898D01*
X-211015Y-513570D01*
X-210755Y-513255D01*
X-210727Y-513183D01*
X-210680Y-513121D01*
X-210553Y-512731D01*
X-210407Y-512351D01*
X-210404Y-512274D01*
X-210380Y-512200D01*
X-210383Y-511791D01*
X-210366Y-511383D01*
X-210387Y-511309D01*
X-210388Y-511231D01*
X-210573Y-510593D01*
X-211930Y-507317D01*
X-211930Y-496619D01*
X-207836Y-486736D01*
X-200583Y-479483D01*
X-200537Y-479420D01*
X-200477Y-479371D01*
X-200358Y-479187D01*
X-200293Y-479119D01*
X-200242Y-479009D01*
X-200017Y-478696D01*
X-199994Y-478622D01*
X-199952Y-478557D01*
X-199852Y-478161D01*
X-199732Y-477770D01*
X-199734Y-477693D01*
X-199715Y-477618D01*
X-199746Y-477211D01*
X-199757Y-476802D01*
X-199784Y-476729D01*
X-199789Y-476652D01*
X-199949Y-476276D01*
X-200089Y-475892D01*
X-200138Y-475831D01*
X-200168Y-475760D01*
X-200583Y-475241D01*
X-207836Y-467988D01*
X-211930Y-458105D01*
X-211930Y-447407D01*
X-207836Y-437524D01*
X-200271Y-429959D01*
X-190388Y-425865D01*
X-179690Y-425865D01*
X-169807Y-429959D01*
X-162243Y-437524D01*
X-158149Y-447407D01*
X-158149Y-458105D01*
X-162243Y-467988D01*
X-169496Y-475241D01*
X-169541Y-475304D01*
X-169602Y-475353D01*
X-169823Y-475697D01*
X-170061Y-476028D01*
X-170084Y-476102D01*
X-170126Y-476167D01*
X-170226Y-476563D01*
X-170347Y-476954D01*
X-170345Y-477031D01*
X-170364Y-477107D01*
X-170332Y-477513D01*
X-170322Y-477922D01*
X-170295Y-477995D01*
X-170289Y-478072D01*
X-170130Y-478448D01*
X-169990Y-478832D01*
X-169941Y-478892D01*
X-169911Y-478964D01*
X-169625Y-479322D01*
X-169600Y-479364D01*
X-169573Y-479386D01*
X-169496Y-479483D01*
X-162243Y-486736D01*
X-158149Y-496619D01*
X-158149Y-507317D01*
X-162243Y-517201D01*
X-169807Y-524765D01*
X-179536Y-528795D01*
X-179602Y-528836D01*
X-179677Y-528858D01*
X-180012Y-529090D01*
X-180360Y-529305D01*
X-180409Y-529365D01*
X-180473Y-529409D01*
X-180717Y-529737D01*
X-180977Y-530052D01*
X-181005Y-530124D01*
X-181052Y-530186D01*
X-181179Y-530576D01*
X-181325Y-530956D01*
X-181328Y-531033D01*
X-181352Y-531107D01*
X-181349Y-531516D01*
X-181366Y-531924D01*
X-181345Y-531998D01*
X-181344Y-532076D01*
X-181159Y-532714D01*
X-179802Y-535990D01*
X-179802Y-546688D01*
X-183896Y-556571D01*
X-191461Y-564135D01*
X-201344Y-568229D01*
X-212042Y-568229D01*
G37*
%LPD*%
%LPC*%
G36*
X-493705Y-301805D02*
X-493705Y-301805D01*
X-503589Y-297711D01*
X-511153Y-290146D01*
X-515247Y-280263D01*
X-515247Y-272927D01*
X-515276Y-272749D01*
X-515268Y-272569D01*
X-515354Y-272274D01*
X-515403Y-271971D01*
X-515487Y-271812D01*
X-515538Y-271639D01*
X-515713Y-271386D01*
X-515856Y-271115D01*
X-515987Y-270991D01*
X-516090Y-270843D01*
X-516336Y-270659D01*
X-516559Y-270447D01*
X-516722Y-270371D01*
X-516867Y-270264D01*
X-517159Y-270168D01*
X-517437Y-270039D01*
X-517616Y-270019D01*
X-517787Y-269963D01*
X-518094Y-269966D01*
X-518400Y-269932D01*
X-518576Y-269970D01*
X-518756Y-269971D01*
X-519271Y-270121D01*
X-519347Y-270137D01*
X-519364Y-270148D01*
X-519394Y-270156D01*
X-526147Y-272953D01*
X-536845Y-272953D01*
X-546728Y-268860D01*
X-554293Y-261295D01*
X-558386Y-251412D01*
X-558386Y-240714D01*
X-554293Y-230831D01*
X-547039Y-223577D01*
X-546994Y-223514D01*
X-546933Y-223466D01*
X-546712Y-223122D01*
X-546474Y-222791D01*
X-546451Y-222717D01*
X-546409Y-222651D01*
X-546309Y-222256D01*
X-546189Y-221865D01*
X-546191Y-221787D01*
X-546172Y-221712D01*
X-546203Y-221305D01*
X-546214Y-220897D01*
X-546240Y-220824D01*
X-546246Y-220746D01*
X-546406Y-220370D01*
X-546546Y-219986D01*
X-546594Y-219926D01*
X-546625Y-219854D01*
X-547039Y-219336D01*
X-554293Y-212082D01*
X-558386Y-202199D01*
X-558386Y-191501D01*
X-554293Y-181618D01*
X-546728Y-174054D01*
X-536845Y-169960D01*
X-526147Y-169960D01*
X-516264Y-174054D01*
X-508699Y-181618D01*
X-504606Y-191501D01*
X-504606Y-202199D01*
X-508699Y-212082D01*
X-515953Y-219336D01*
X-515998Y-219399D01*
X-516059Y-219447D01*
X-516280Y-219791D01*
X-516518Y-220122D01*
X-516541Y-220197D01*
X-516583Y-220262D01*
X-516683Y-220657D01*
X-516803Y-221048D01*
X-516801Y-221126D01*
X-516820Y-221201D01*
X-516789Y-221608D01*
X-516778Y-222017D01*
X-516752Y-222090D01*
X-516746Y-222167D01*
X-516586Y-222543D01*
X-516446Y-222927D01*
X-516398Y-222987D01*
X-516367Y-223059D01*
X-515953Y-223577D01*
X-508699Y-230831D01*
X-504606Y-240714D01*
X-504606Y-248050D01*
X-504577Y-248228D01*
X-504584Y-248408D01*
X-504499Y-248703D01*
X-504449Y-249006D01*
X-504365Y-249165D01*
X-504315Y-249338D01*
X-504139Y-249591D01*
X-503996Y-249862D01*
X-503866Y-249986D01*
X-503763Y-250134D01*
X-503516Y-250318D01*
X-503294Y-250530D01*
X-503130Y-250606D01*
X-502986Y-250713D01*
X-502694Y-250809D01*
X-502415Y-250938D01*
X-502237Y-250958D01*
X-502065Y-251014D01*
X-501758Y-251011D01*
X-501453Y-251045D01*
X-501276Y-251007D01*
X-501096Y-251006D01*
X-500581Y-250857D01*
X-500506Y-250840D01*
X-500488Y-250829D01*
X-500459Y-250821D01*
X-493705Y-248024D01*
X-483008Y-248024D01*
X-473124Y-252117D01*
X-465560Y-259682D01*
X-461466Y-269565D01*
X-461466Y-280263D01*
X-465560Y-290146D01*
X-473124Y-297711D01*
X-483008Y-301805D01*
X-493705Y-301805D01*
G37*
%LPD*%
%LPC*%
G36*
X-569492Y-101631D02*
X-569492Y-101631D01*
X-585141Y-95149D01*
X-597117Y-83172D01*
X-603599Y-67524D01*
X-603599Y-50586D01*
X-597117Y-34938D01*
X-585141Y-22961D01*
X-569492Y-16480D01*
X-552555Y-16480D01*
X-536907Y-22961D01*
X-524930Y-34938D01*
X-518448Y-50586D01*
X-518448Y-67524D01*
X-524930Y-83172D01*
X-536907Y-95149D01*
X-552555Y-101631D01*
X-569492Y-101631D01*
G37*
%LPD*%
%LPC*%
G36*
X-313587Y-101631D02*
X-313587Y-101631D01*
X-329235Y-95149D01*
X-341212Y-83172D01*
X-347694Y-67524D01*
X-347694Y-50586D01*
X-341212Y-34938D01*
X-329235Y-22961D01*
X-313587Y-16480D01*
X-296649Y-16480D01*
X-281001Y-22961D01*
X-269024Y-34938D01*
X-262543Y-50586D01*
X-262543Y-67524D01*
X-269024Y-83172D01*
X-281001Y-95149D01*
X-296649Y-101631D01*
X-313587Y-101631D01*
G37*
%LPD*%
%LPC*%
G36*
X175753Y-430434D02*
X175753Y-430434D01*
X165870Y-426340D01*
X158306Y-418775D01*
X154212Y-408892D01*
X154212Y-398194D01*
X158306Y-388311D01*
X165870Y-380747D01*
X175430Y-376787D01*
X175670Y-376638D01*
X175928Y-376523D01*
X176079Y-376384D01*
X176254Y-376276D01*
X176433Y-376059D01*
X176641Y-375868D01*
X176741Y-375688D01*
X176872Y-375530D01*
X176973Y-375267D01*
X177109Y-375020D01*
X177146Y-374817D01*
X177219Y-374626D01*
X177231Y-374344D01*
X177281Y-374067D01*
X177252Y-373864D01*
X177261Y-373658D01*
X177182Y-373387D01*
X177141Y-373108D01*
X177048Y-372925D01*
X176991Y-372727D01*
X176830Y-372495D01*
X176703Y-372244D01*
X176556Y-372100D01*
X176439Y-371931D01*
X176213Y-371763D01*
X176012Y-371565D01*
X175766Y-371429D01*
X175662Y-371352D01*
X175573Y-371323D01*
X175430Y-371245D01*
X165870Y-367285D01*
X158306Y-359720D01*
X154212Y-349837D01*
X154212Y-339139D01*
X158306Y-329256D01*
X165870Y-321691D01*
X175753Y-317598D01*
X186451Y-317598D01*
X196334Y-321691D01*
X203899Y-329256D01*
X207993Y-339139D01*
X207993Y-349837D01*
X203899Y-359720D01*
X196334Y-367285D01*
X186774Y-371245D01*
X186535Y-371393D01*
X186277Y-371508D01*
X186125Y-371647D01*
X185951Y-371755D01*
X185771Y-371972D01*
X185563Y-372163D01*
X185464Y-372343D01*
X185333Y-372501D01*
X185232Y-372764D01*
X185096Y-373011D01*
X185059Y-373214D01*
X184985Y-373406D01*
X184973Y-373687D01*
X184923Y-373965D01*
X184953Y-374168D01*
X184944Y-374373D01*
X185023Y-374644D01*
X185063Y-374923D01*
X185156Y-375106D01*
X185213Y-375304D01*
X185374Y-375536D01*
X185502Y-375787D01*
X185648Y-375931D01*
X185765Y-376100D01*
X185991Y-376268D01*
X186192Y-376466D01*
X186440Y-376602D01*
X186542Y-376679D01*
X186631Y-376708D01*
X186774Y-376787D01*
X196334Y-380747D01*
X203899Y-388311D01*
X207993Y-398194D01*
X207993Y-408892D01*
X203899Y-418775D01*
X196334Y-426340D01*
X186451Y-430434D01*
X175753Y-430434D01*
G37*
%LPD*%
%LPC*%
G36*
X-428577Y-341851D02*
X-428577Y-341851D01*
X-438460Y-337757D01*
X-446025Y-330193D01*
X-450119Y-320310D01*
X-450119Y-309612D01*
X-446025Y-299728D01*
X-438460Y-292164D01*
X-428577Y-288070D01*
X-422126Y-288070D01*
X-421948Y-288041D01*
X-421768Y-288049D01*
X-421473Y-287963D01*
X-421170Y-287914D01*
X-421011Y-287829D01*
X-420838Y-287779D01*
X-420586Y-287604D01*
X-420314Y-287461D01*
X-420190Y-287330D01*
X-420042Y-287227D01*
X-419858Y-286981D01*
X-419647Y-286758D01*
X-419570Y-286595D01*
X-419463Y-286451D01*
X-419367Y-286158D01*
X-419238Y-285880D01*
X-419218Y-285701D01*
X-419162Y-285530D01*
X-419165Y-285223D01*
X-419131Y-284917D01*
X-419169Y-284741D01*
X-419171Y-284561D01*
X-419320Y-284045D01*
X-419336Y-283970D01*
X-419347Y-283953D01*
X-419355Y-283923D01*
X-420591Y-280939D01*
X-420591Y-270242D01*
X-416497Y-260358D01*
X-408933Y-252794D01*
X-399050Y-248700D01*
X-388352Y-248700D01*
X-378469Y-252794D01*
X-370904Y-260358D01*
X-366810Y-270242D01*
X-366810Y-280939D01*
X-370904Y-290823D01*
X-378469Y-298387D01*
X-388352Y-302481D01*
X-394803Y-302481D01*
X-394981Y-302510D01*
X-395161Y-302502D01*
X-395456Y-302588D01*
X-395759Y-302637D01*
X-395918Y-302722D01*
X-396091Y-302772D01*
X-396343Y-302947D01*
X-396615Y-303090D01*
X-396739Y-303221D01*
X-396887Y-303324D01*
X-397071Y-303570D01*
X-397282Y-303793D01*
X-397359Y-303956D01*
X-397466Y-304101D01*
X-397562Y-304393D01*
X-397691Y-304671D01*
X-397711Y-304850D01*
X-397767Y-305021D01*
X-397764Y-305328D01*
X-397798Y-305634D01*
X-397760Y-305810D01*
X-397758Y-305990D01*
X-397609Y-306506D01*
X-397593Y-306581D01*
X-397582Y-306598D01*
X-397574Y-306628D01*
X-396338Y-309612D01*
X-396338Y-320310D01*
X-400432Y-330193D01*
X-407996Y-337757D01*
X-417879Y-341851D01*
X-428577Y-341851D01*
G37*
%LPD*%
%LPC*%
G36*
X-576215Y91220D02*
X-576215Y91220D01*
X-586098Y95313D01*
X-593663Y102878D01*
X-597757Y112761D01*
X-597757Y123459D01*
X-593663Y133342D01*
X-586098Y140907D01*
X-584206Y141691D01*
X-584053Y141785D01*
X-583884Y141847D01*
X-583644Y142039D01*
X-583383Y142201D01*
X-583268Y142339D01*
X-583127Y142452D01*
X-582960Y142711D01*
X-582765Y142947D01*
X-582700Y143115D01*
X-582603Y143267D01*
X-582528Y143565D01*
X-582417Y143851D01*
X-582410Y144031D01*
X-582366Y144206D01*
X-582389Y144512D01*
X-582376Y144819D01*
X-582426Y144992D01*
X-582440Y145172D01*
X-582560Y145454D01*
X-582645Y145750D01*
X-582748Y145898D01*
X-582818Y146064D01*
X-583153Y146483D01*
X-583197Y146546D01*
X-583214Y146558D01*
X-583233Y146582D01*
X-583820Y147170D01*
X-587914Y157053D01*
X-587914Y167750D01*
X-583820Y177634D01*
X-576256Y185198D01*
X-566373Y189292D01*
X-555675Y189292D01*
X-545791Y185198D01*
X-538227Y177634D01*
X-534133Y167750D01*
X-534133Y157053D01*
X-538227Y147169D01*
X-545791Y139605D01*
X-547684Y138821D01*
X-547837Y138726D01*
X-548006Y138664D01*
X-548246Y138472D01*
X-548507Y138311D01*
X-548622Y138172D01*
X-548763Y138059D01*
X-548929Y137801D01*
X-549125Y137565D01*
X-549189Y137397D01*
X-549287Y137245D01*
X-549362Y136947D01*
X-549472Y136660D01*
X-549480Y136480D01*
X-549524Y136306D01*
X-549500Y136000D01*
X-549514Y135693D01*
X-549464Y135519D01*
X-549450Y135340D01*
X-549330Y135057D01*
X-549244Y134762D01*
X-549142Y134614D01*
X-549071Y134448D01*
X-548736Y134029D01*
X-548692Y133966D01*
X-548676Y133953D01*
X-548656Y133929D01*
X-548069Y133342D01*
X-543976Y123459D01*
X-543976Y112761D01*
X-548069Y102878D01*
X-555634Y95313D01*
X-565517Y91220D01*
X-576215Y91220D01*
G37*
%LPD*%
%LPC*%
G36*
X93076Y-499331D02*
X93076Y-499331D01*
X83193Y-495238D01*
X75628Y-487673D01*
X71535Y-477790D01*
X71535Y-467092D01*
X75628Y-457209D01*
X83193Y-449644D01*
X93076Y-445550D01*
X98063Y-445550D01*
X98140Y-445538D01*
X98217Y-445547D01*
X98616Y-445460D01*
X99019Y-445394D01*
X99087Y-445358D01*
X99163Y-445341D01*
X99515Y-445132D01*
X99875Y-444941D01*
X99929Y-444885D01*
X99995Y-444845D01*
X100261Y-444535D01*
X100543Y-444239D01*
X100575Y-444168D01*
X100626Y-444109D01*
X100779Y-443731D01*
X100951Y-443360D01*
X100960Y-443283D01*
X100989Y-443211D01*
X101062Y-442551D01*
X101062Y-437564D01*
X105156Y-427681D01*
X112721Y-420117D01*
X122604Y-416023D01*
X133302Y-416023D01*
X143185Y-420117D01*
X150749Y-427681D01*
X154843Y-437564D01*
X154843Y-448262D01*
X150749Y-458145D01*
X143185Y-465710D01*
X133302Y-469804D01*
X128315Y-469804D01*
X128238Y-469816D01*
X128161Y-469808D01*
X127761Y-469894D01*
X127359Y-469960D01*
X127290Y-469996D01*
X127214Y-470013D01*
X126863Y-470222D01*
X126503Y-470413D01*
X126449Y-470469D01*
X126383Y-470509D01*
X126117Y-470819D01*
X125835Y-471116D01*
X125802Y-471186D01*
X125752Y-471245D01*
X125599Y-471623D01*
X125427Y-471994D01*
X125418Y-472071D01*
X125389Y-472143D01*
X125316Y-472803D01*
X125316Y-477790D01*
X121222Y-487673D01*
X113657Y-495238D01*
X103774Y-499331D01*
X93076Y-499331D01*
G37*
%LPD*%
%LPC*%
G36*
X-5349Y-450119D02*
X-5349Y-450119D01*
X-15232Y-446025D01*
X-22797Y-438460D01*
X-26890Y-428577D01*
X-26890Y-417879D01*
X-22797Y-407996D01*
X-15232Y-400432D01*
X-5349Y-396338D01*
X-362Y-396338D01*
X-286Y-396325D01*
X-208Y-396334D01*
X191Y-396247D01*
X594Y-396181D01*
X662Y-396145D01*
X738Y-396129D01*
X1090Y-395919D01*
X1450Y-395728D01*
X1504Y-395672D01*
X1570Y-395632D01*
X1836Y-395323D01*
X2117Y-395026D01*
X2150Y-394956D01*
X2201Y-394897D01*
X2353Y-394519D01*
X2526Y-394148D01*
X2535Y-394070D01*
X2564Y-393999D01*
X2637Y-393339D01*
X2637Y-388352D01*
X6731Y-378469D01*
X14295Y-370904D01*
X24179Y-366810D01*
X34876Y-366810D01*
X44760Y-370904D01*
X52324Y-378469D01*
X56418Y-388352D01*
X56418Y-399050D01*
X52324Y-408933D01*
X44760Y-416497D01*
X34876Y-420591D01*
X29890Y-420591D01*
X29813Y-420604D01*
X29736Y-420595D01*
X29336Y-420682D01*
X28934Y-420748D01*
X28865Y-420784D01*
X28789Y-420800D01*
X28438Y-421010D01*
X28077Y-421201D01*
X28024Y-421257D01*
X27957Y-421297D01*
X27692Y-421606D01*
X27410Y-421903D01*
X27377Y-421973D01*
X27327Y-422032D01*
X27174Y-422411D01*
X27002Y-422781D01*
X26993Y-422859D01*
X26964Y-422930D01*
X26890Y-423590D01*
X26890Y-428577D01*
X22797Y-438460D01*
X15232Y-446025D01*
X5349Y-450119D01*
X-5349Y-450119D01*
G37*
%LPD*%
%LPC*%
G36*
X351560Y-135697D02*
X351560Y-135697D01*
X338513Y-130293D01*
X328526Y-120306D01*
X323121Y-107258D01*
X323121Y-93135D01*
X328526Y-80087D01*
X338513Y-70101D01*
X351560Y-64696D01*
X365684Y-64696D01*
X378731Y-70101D01*
X388718Y-80087D01*
X394123Y-93135D01*
X394123Y-107258D01*
X388718Y-120306D01*
X378731Y-130293D01*
X365684Y-135697D01*
X351560Y-135697D01*
G37*
%LPD*%
%LPC*%
G36*
X431560Y-135697D02*
X431560Y-135697D01*
X418513Y-130293D01*
X408526Y-120306D01*
X403121Y-107258D01*
X403121Y-93135D01*
X408526Y-80087D01*
X418513Y-70101D01*
X431560Y-64696D01*
X445684Y-64696D01*
X458731Y-70101D01*
X468718Y-80087D01*
X474123Y-93135D01*
X474123Y-107258D01*
X468718Y-120306D01*
X458731Y-130293D01*
X445684Y-135697D01*
X431560Y-135697D01*
G37*
%LPD*%
%LPC*%
G36*
X280084Y416023D02*
X280084Y416023D01*
X270201Y420117D01*
X262636Y427681D01*
X258543Y437564D01*
X258543Y448262D01*
X262636Y458145D01*
X270201Y465710D01*
X280084Y469804D01*
X290782Y469804D01*
X300665Y465710D01*
X308230Y458145D01*
X312323Y448262D01*
X312323Y437564D01*
X308230Y427681D01*
X300665Y420117D01*
X290782Y416023D01*
X280084Y416023D01*
G37*
%LPD*%
%LPC*%
G36*
X-253380Y396338D02*
X-253380Y396338D01*
X-263264Y400432D01*
X-270828Y407996D01*
X-274922Y417879D01*
X-274922Y428577D01*
X-270828Y438460D01*
X-263264Y446025D01*
X-253380Y450119D01*
X-242682Y450119D01*
X-232799Y446025D01*
X-225235Y438460D01*
X-221141Y428577D01*
X-221141Y417879D01*
X-225235Y407996D01*
X-232799Y400432D01*
X-242682Y396338D01*
X-253380Y396338D01*
G37*
%LPD*%
%LPC*%
G36*
X234808Y337283D02*
X234808Y337283D01*
X224925Y341376D01*
X217361Y348941D01*
X213267Y358824D01*
X213267Y369522D01*
X217361Y379405D01*
X224925Y386970D01*
X234808Y391064D01*
X245506Y391064D01*
X255390Y386970D01*
X262954Y379405D01*
X267048Y369522D01*
X267048Y358824D01*
X262954Y348941D01*
X255390Y341376D01*
X245506Y337283D01*
X234808Y337283D01*
G37*
%LPD*%
%LPC*%
G36*
X-384286Y337283D02*
X-384286Y337283D01*
X-394169Y341376D01*
X-401734Y348941D01*
X-405827Y358824D01*
X-405827Y369522D01*
X-401734Y379405D01*
X-394169Y386970D01*
X-384286Y391064D01*
X-373588Y391064D01*
X-363705Y386970D01*
X-356140Y379405D01*
X-352047Y369522D01*
X-352047Y358824D01*
X-356140Y348941D01*
X-363705Y341376D01*
X-373588Y337283D01*
X-384286Y337283D01*
G37*
%LPD*%
%LPC*%
G36*
X496619Y130590D02*
X496619Y130590D01*
X486736Y134684D01*
X479172Y142248D01*
X475078Y152131D01*
X475078Y162829D01*
X479172Y172712D01*
X486736Y180277D01*
X496619Y184371D01*
X507317Y184371D01*
X517201Y180277D01*
X524765Y172712D01*
X528859Y162829D01*
X528859Y152131D01*
X524765Y142248D01*
X517201Y134684D01*
X507317Y130590D01*
X496619Y130590D01*
G37*
%LPD*%
%LPC*%
G36*
X580281Y12480D02*
X580281Y12480D01*
X570398Y16573D01*
X562833Y24138D01*
X558739Y34021D01*
X558739Y44719D01*
X562833Y54602D01*
X570398Y62167D01*
X580281Y66260D01*
X590979Y66260D01*
X600862Y62167D01*
X608427Y54602D01*
X612520Y44719D01*
X612520Y34021D01*
X608427Y24138D01*
X600862Y16573D01*
X590979Y12480D01*
X580281Y12480D01*
G37*
%LPD*%
%LPC*%
G36*
X-408892Y3109D02*
X-408892Y3109D01*
X-418775Y7203D01*
X-426340Y14768D01*
X-430434Y24651D01*
X-430434Y35349D01*
X-426340Y45232D01*
X-418775Y52797D01*
X-408892Y56890D01*
X-398194Y56890D01*
X-388311Y52797D01*
X-380747Y45232D01*
X-376653Y35349D01*
X-376653Y24651D01*
X-380747Y14768D01*
X-388311Y7203D01*
X-398194Y3109D01*
X-408892Y3109D01*
G37*
%LPD*%
%LPC*%
G36*
X-487632Y3109D02*
X-487632Y3109D01*
X-497516Y7203D01*
X-505080Y14768D01*
X-509174Y24651D01*
X-509174Y35349D01*
X-505080Y45232D01*
X-497516Y52797D01*
X-487632Y56890D01*
X-476934Y56890D01*
X-467051Y52797D01*
X-459487Y45232D01*
X-455393Y35349D01*
X-455393Y24651D01*
X-459487Y14768D01*
X-467051Y7203D01*
X-476934Y3109D01*
X-487632Y3109D01*
G37*
%LPD*%
%LPC*%
G36*
X165911Y42007D02*
X165911Y42007D01*
X156028Y46101D01*
X148463Y53665D01*
X144369Y63549D01*
X144369Y74247D01*
X148463Y84130D01*
X156028Y91694D01*
X165911Y95788D01*
X176609Y95788D01*
X186492Y91694D01*
X194056Y84130D01*
X198150Y74247D01*
X198150Y63549D01*
X194056Y53665D01*
X186492Y46101D01*
X176609Y42007D01*
X165911Y42007D01*
G37*
%LPD*%
%LPC*%
G36*
X-408892Y-96260D02*
X-408892Y-96260D01*
X-418775Y-92167D01*
X-426340Y-84602D01*
X-430434Y-74719D01*
X-430434Y-64021D01*
X-426340Y-54138D01*
X-418775Y-46573D01*
X-408892Y-42480D01*
X-398194Y-42480D01*
X-388311Y-46573D01*
X-380747Y-54138D01*
X-376653Y-64021D01*
X-376653Y-74719D01*
X-380747Y-84602D01*
X-388311Y-92167D01*
X-398194Y-96260D01*
X-408892Y-96260D01*
G37*
%LPD*%
%LPC*%
G36*
X-487632Y-96260D02*
X-487632Y-96260D01*
X-497516Y-92167D01*
X-505080Y-84602D01*
X-509174Y-74719D01*
X-509174Y-64021D01*
X-505080Y-54138D01*
X-497516Y-46573D01*
X-487632Y-42480D01*
X-476934Y-42480D01*
X-467051Y-46573D01*
X-459487Y-54138D01*
X-455393Y-64021D01*
X-455393Y-74719D01*
X-459487Y-84602D01*
X-467051Y-92167D01*
X-476934Y-96260D01*
X-487632Y-96260D01*
G37*
%LPD*%
%LPC*%
G36*
X-147081Y-184371D02*
X-147081Y-184371D01*
X-156964Y-180277D01*
X-164529Y-172712D01*
X-168623Y-162829D01*
X-168623Y-152131D01*
X-164529Y-142248D01*
X-156964Y-134684D01*
X-147081Y-130590D01*
X-136383Y-130590D01*
X-126500Y-134684D01*
X-118936Y-142248D01*
X-114842Y-152131D01*
X-114842Y-162829D01*
X-118936Y-172712D01*
X-126500Y-180277D01*
X-136383Y-184371D01*
X-147081Y-184371D01*
G37*
%LPD*%
%LPC*%
G36*
X476934Y-233583D02*
X476934Y-233583D01*
X467051Y-229490D01*
X459487Y-221925D01*
X455393Y-212042D01*
X455393Y-201344D01*
X459487Y-191461D01*
X467051Y-183896D01*
X476934Y-179802D01*
X487632Y-179802D01*
X497516Y-183896D01*
X505080Y-191461D01*
X509174Y-201344D01*
X509174Y-212042D01*
X505080Y-221925D01*
X497516Y-229490D01*
X487632Y-233583D01*
X476934Y-233583D01*
G37*
%LPD*%
%LPC*%
G36*
X53706Y553818D02*
X53706Y553818D01*
X43823Y557912D01*
X36258Y565477D01*
X32165Y575360D01*
X32165Y586058D01*
X36258Y595941D01*
X43823Y603505D01*
X53706Y607599D01*
X64404Y607599D01*
X74287Y603505D01*
X81852Y595941D01*
X85945Y586058D01*
X85945Y575360D01*
X81852Y565477D01*
X74287Y557912D01*
X64404Y553818D01*
X53706Y553818D01*
G37*
%LPD*%
%LPC*%
G36*
X467092Y-371379D02*
X467092Y-371379D01*
X457209Y-367285D01*
X449644Y-359720D01*
X445550Y-349837D01*
X445550Y-339139D01*
X449644Y-329256D01*
X457209Y-321691D01*
X467092Y-317598D01*
X477790Y-317598D01*
X487673Y-321691D01*
X495238Y-329256D01*
X499331Y-339139D01*
X499331Y-349837D01*
X495238Y-359720D01*
X487673Y-367285D01*
X477790Y-371379D01*
X467092Y-371379D01*
G37*
%LPD*%
%LPC*%
G36*
X-64404Y494763D02*
X-64404Y494763D01*
X-74287Y498857D01*
X-81852Y506421D01*
X-85945Y516305D01*
X-85945Y527002D01*
X-81852Y536886D01*
X-74287Y544450D01*
X-64404Y548544D01*
X-53706Y548544D01*
X-43823Y544450D01*
X-36258Y536886D01*
X-32165Y527002D01*
X-32165Y516305D01*
X-36258Y506421D01*
X-43823Y498857D01*
X-53706Y494763D01*
X-64404Y494763D01*
G37*
%LPD*%
%LPC*%
G36*
X-196294Y-371379D02*
X-196294Y-371379D01*
X-206177Y-367285D01*
X-213742Y-359720D01*
X-217835Y-349837D01*
X-217835Y-339139D01*
X-213742Y-329256D01*
X-206177Y-321691D01*
X-196294Y-317598D01*
X-185596Y-317598D01*
X-175713Y-321691D01*
X-168148Y-329256D01*
X-164054Y-339139D01*
X-164054Y-349837D01*
X-168148Y-359720D01*
X-175713Y-367285D01*
X-185596Y-371379D01*
X-196294Y-371379D01*
G37*
%LPD*%
%LPC*%
G36*
X-54562Y-410749D02*
X-54562Y-410749D01*
X-64445Y-406655D01*
X-72009Y-399090D01*
X-76103Y-389207D01*
X-76103Y-378509D01*
X-72009Y-368626D01*
X-64445Y-361062D01*
X-54562Y-356968D01*
X-43864Y-356968D01*
X-33980Y-361062D01*
X-26416Y-368626D01*
X-22322Y-378509D01*
X-22322Y-389207D01*
X-26416Y-399090D01*
X-33980Y-406655D01*
X-43864Y-410749D01*
X-54562Y-410749D01*
G37*
%LPD*%
%LPC*%
G36*
X34021Y-292638D02*
X34021Y-292638D01*
X24138Y-288545D01*
X16573Y-280980D01*
X12480Y-271097D01*
X12480Y-260399D01*
X16573Y-250516D01*
X24138Y-242951D01*
X34021Y-238858D01*
X44719Y-238858D01*
X54602Y-242951D01*
X62167Y-250516D01*
X66260Y-260399D01*
X66260Y-271097D01*
X62167Y-280980D01*
X54602Y-288545D01*
X44719Y-292638D01*
X34021Y-292638D01*
G37*
%LPD*%
%LPC*%
G36*
X-335073Y455393D02*
X-335073Y455393D01*
X-344956Y459487D01*
X-352521Y467051D01*
X-356615Y476934D01*
X-356615Y487632D01*
X-352521Y497516D01*
X-344956Y505080D01*
X-335073Y509174D01*
X-324375Y509174D01*
X-314492Y505080D01*
X-306928Y497516D01*
X-302834Y487632D01*
X-302834Y476934D01*
X-306928Y467051D01*
X-314492Y459487D01*
X-324375Y455393D01*
X-335073Y455393D01*
G37*
%LPD*%
%LPC*%
G36*
X417879Y376653D02*
X417879Y376653D01*
X407996Y380747D01*
X400432Y388311D01*
X396338Y398194D01*
X396338Y408892D01*
X400432Y418775D01*
X407996Y426340D01*
X417879Y430434D01*
X428577Y430434D01*
X438460Y426340D01*
X446025Y418775D01*
X450119Y408892D01*
X450119Y398194D01*
X446025Y388311D01*
X438460Y380747D01*
X428577Y376653D01*
X417879Y376653D01*
G37*
%LPD*%
%LPC*%
G36*
X221029Y-519016D02*
X221029Y-519016D01*
X211146Y-514923D01*
X203581Y-507358D01*
X199487Y-497475D01*
X199487Y-486777D01*
X203581Y-476894D01*
X211146Y-469329D01*
X221029Y-465235D01*
X231727Y-465235D01*
X241610Y-469329D01*
X249175Y-476894D01*
X253268Y-486777D01*
X253268Y-497475D01*
X249175Y-507358D01*
X241610Y-514923D01*
X231727Y-519016D01*
X221029Y-519016D01*
G37*
%LPD*%
%LPC*%
G36*
X-123459Y-538701D02*
X-123459Y-538701D01*
X-133342Y-534608D01*
X-140907Y-527043D01*
X-145001Y-517160D01*
X-145001Y-506462D01*
X-140907Y-496579D01*
X-133342Y-489014D01*
X-123459Y-484921D01*
X-112761Y-484921D01*
X-102878Y-489014D01*
X-95313Y-496579D01*
X-91220Y-506462D01*
X-91220Y-517160D01*
X-95313Y-527043D01*
X-102878Y-534608D01*
X-112761Y-538701D01*
X-123459Y-538701D01*
G37*
%LPD*%
%LPC*%
G36*
X34021Y-548544D02*
X34021Y-548544D01*
X24138Y-544450D01*
X16573Y-536886D01*
X12480Y-527002D01*
X12480Y-516305D01*
X16573Y-506421D01*
X24138Y-498857D01*
X34021Y-494763D01*
X44719Y-494763D01*
X54602Y-498857D01*
X62167Y-506421D01*
X66260Y-516305D01*
X66260Y-527002D01*
X62167Y-536886D01*
X54602Y-544450D01*
X44719Y-548544D01*
X34021Y-548544D01*
G37*
%LPD*%
%LPC*%
G36*
X132446Y-597757D02*
X132446Y-597757D01*
X122563Y-593663D01*
X114999Y-586098D01*
X110905Y-576215D01*
X110905Y-565517D01*
X114999Y-555634D01*
X122563Y-548069D01*
X132446Y-543976D01*
X143144Y-543976D01*
X153027Y-548069D01*
X160592Y-555634D01*
X164686Y-565517D01*
X164686Y-576215D01*
X160592Y-586098D01*
X153027Y-593663D01*
X143144Y-597757D01*
X132446Y-597757D01*
G37*
%LPD*%
%LPC*%
G36*
X-28971Y-253268D02*
X-28971Y-253268D01*
X-38854Y-249175D01*
X-46419Y-241610D01*
X-50512Y-231727D01*
X-50512Y-221029D01*
X-46419Y-211146D01*
X-38854Y-203581D01*
X-28971Y-199487D01*
X-18273Y-199487D01*
X-8390Y-203581D01*
X-825Y-211146D01*
X3268Y-221029D01*
X3268Y-231727D01*
X-825Y-241610D01*
X-8390Y-249175D01*
X-18273Y-253268D01*
X-28971Y-253268D01*
G37*
%LPD*%
%LPC*%
G36*
X14336Y-178465D02*
X14336Y-178465D01*
X4453Y-174371D01*
X-3112Y-166807D01*
X-7205Y-156924D01*
X-7205Y-146226D01*
X-3112Y-136343D01*
X4453Y-128778D01*
X14336Y-124684D01*
X25034Y-124684D01*
X34917Y-128778D01*
X42482Y-136343D01*
X46575Y-146226D01*
X46575Y-156924D01*
X42482Y-166807D01*
X34917Y-174371D01*
X25034Y-178465D01*
X14336Y-178465D01*
G37*
%LPD*%
%LPC*%
G36*
X-183736Y448912D02*
X-183736Y448912D01*
X-182808Y453583D01*
X-180051Y460238D01*
X-176048Y466229D01*
X-170953Y471323D01*
X-164962Y475326D01*
X-158307Y478083D01*
X-153637Y479012D01*
X-153637Y448912D01*
X-183736Y448912D01*
G37*
%LPD*%
%LPC*%
G36*
X-141639Y448912D02*
X-141639Y448912D01*
X-141639Y479012D01*
X-136969Y478083D01*
X-130313Y475326D01*
X-124322Y471323D01*
X-119228Y466229D01*
X-115225Y460238D01*
X-112468Y453583D01*
X-111539Y448912D01*
X-141639Y448912D01*
G37*
%LPD*%
%LPC*%
G36*
X-158307Y407743D02*
X-158307Y407743D01*
X-164962Y410500D01*
X-170953Y414503D01*
X-176048Y419598D01*
X-180051Y425589D01*
X-182808Y432244D01*
X-183736Y436914D01*
X-153637Y436914D01*
X-153637Y406815D01*
X-158307Y407743D01*
G37*
%LPD*%
%LPC*%
G36*
X-141639Y436914D02*
X-141639Y436914D01*
X-111539Y436914D01*
X-112468Y432244D01*
X-115225Y425589D01*
X-119228Y419598D01*
X-124322Y414503D01*
X-130313Y410500D01*
X-136969Y407743D01*
X-141639Y406815D01*
X-141639Y436914D01*
G37*
%LPD*%
%LPC*%
G36*
X-147639Y442912D02*
X-147639Y442912D01*
X-147639Y442915D01*
X-147636Y442915D01*
X-147636Y442912D01*
X-147639Y442912D01*
G37*
%LPD*%
D10*
X118925Y775920D02*
X118925Y786587D01*
X154480Y786587D01*
X154480Y765254D01*
X154476Y764910D01*
X154463Y764567D01*
X154443Y764224D01*
X154414Y763881D01*
X154376Y763540D01*
X154331Y763199D01*
X154277Y762860D01*
X154215Y762522D01*
X154145Y762185D01*
X154067Y761850D01*
X153980Y761518D01*
X153886Y761187D01*
X153784Y760859D01*
X153674Y760534D01*
X153556Y760211D01*
X153430Y759891D01*
X153297Y759574D01*
X153156Y759261D01*
X153007Y758951D01*
X152851Y758645D01*
X152688Y758342D01*
X152517Y758044D01*
X152339Y757750D01*
X152154Y757460D01*
X151962Y757175D01*
X151764Y756895D01*
X151558Y756619D01*
X151347Y756348D01*
X151128Y756083D01*
X150903Y755823D01*
X150672Y755569D01*
X150435Y755320D01*
X150192Y755077D01*
X149943Y754840D01*
X149689Y754609D01*
X149429Y754384D01*
X149164Y754165D01*
X148893Y753954D01*
X148617Y753748D01*
X148337Y753550D01*
X148052Y753358D01*
X147762Y753173D01*
X147468Y752995D01*
X147170Y752824D01*
X146867Y752661D01*
X146561Y752505D01*
X146251Y752356D01*
X145938Y752215D01*
X145621Y752082D01*
X145301Y751956D01*
X144978Y751838D01*
X144653Y751728D01*
X144325Y751626D01*
X143994Y751532D01*
X143662Y751445D01*
X143327Y751367D01*
X142990Y751297D01*
X142652Y751235D01*
X142313Y751181D01*
X141972Y751136D01*
X141631Y751098D01*
X141288Y751069D01*
X140945Y751049D01*
X140602Y751036D01*
X140258Y751032D01*
X140258Y751031D02*
X104703Y751031D01*
X104703Y751032D02*
X104354Y751036D01*
X104005Y751049D01*
X103657Y751071D01*
X103309Y751100D01*
X102962Y751139D01*
X102616Y751186D01*
X102272Y751241D01*
X101928Y751305D01*
X101587Y751378D01*
X101247Y751458D01*
X100910Y751547D01*
X100575Y751644D01*
X100242Y751750D01*
X99912Y751863D01*
X99585Y751985D01*
X99261Y752115D01*
X98940Y752252D01*
X98622Y752397D01*
X98309Y752551D01*
X97999Y752711D01*
X97693Y752880D01*
X97392Y753055D01*
X97094Y753238D01*
X96802Y753429D01*
X96514Y753626D01*
X96231Y753831D01*
X95953Y754042D01*
X95681Y754260D01*
X95414Y754485D01*
X95152Y754716D01*
X94896Y754954D01*
X94647Y755197D01*
X94403Y755447D01*
X94165Y755703D01*
X93934Y755964D01*
X93709Y756232D01*
X93491Y756504D01*
X93280Y756782D01*
X93075Y757065D01*
X92878Y757353D01*
X92688Y757645D01*
X92504Y757942D01*
X92329Y758244D01*
X92160Y758550D01*
X92000Y758859D01*
X91847Y759173D01*
X91701Y759490D01*
X91564Y759811D01*
X91434Y760135D01*
X91312Y760463D01*
X91199Y760793D01*
X91093Y761125D01*
X90996Y761461D01*
X90907Y761798D01*
X90827Y762138D01*
X90754Y762479D01*
X90690Y762822D01*
X90635Y763167D01*
X90588Y763513D01*
X90550Y763860D01*
X90520Y764208D01*
X90498Y764556D01*
X90485Y764905D01*
X90481Y765254D01*
X90480Y765254D02*
X90480Y786587D01*
X90480Y816675D02*
X154480Y816675D01*
X154480Y852230D02*
X90480Y816675D01*
X90480Y852230D02*
X154480Y852230D01*
X154480Y882318D02*
X90480Y882318D01*
X90480Y900095D01*
X90485Y900525D01*
X90501Y900954D01*
X90527Y901383D01*
X90563Y901811D01*
X90610Y902238D01*
X90667Y902664D01*
X90734Y903088D01*
X90811Y903511D01*
X90899Y903931D01*
X90997Y904350D01*
X91104Y904765D01*
X91222Y905179D01*
X91350Y905589D01*
X91488Y905996D01*
X91635Y906399D01*
X91792Y906799D01*
X91959Y907195D01*
X92136Y907587D01*
X92321Y907974D01*
X92516Y908357D01*
X92721Y908735D01*
X92934Y909108D01*
X93156Y909475D01*
X93387Y909838D01*
X93627Y910194D01*
X93875Y910545D01*
X94132Y910889D01*
X94397Y911227D01*
X94670Y911559D01*
X94951Y911884D01*
X95240Y912202D01*
X95536Y912513D01*
X95840Y912817D01*
X96151Y913113D01*
X96469Y913402D01*
X96794Y913683D01*
X97126Y913956D01*
X97464Y914221D01*
X97808Y914478D01*
X98159Y914726D01*
X98515Y914966D01*
X98878Y915197D01*
X99245Y915419D01*
X99618Y915632D01*
X99996Y915837D01*
X100379Y916032D01*
X100766Y916217D01*
X101158Y916394D01*
X101554Y916561D01*
X101954Y916718D01*
X102357Y916865D01*
X102764Y917003D01*
X103174Y917131D01*
X103588Y917249D01*
X104003Y917356D01*
X104422Y917454D01*
X104842Y917542D01*
X105265Y917619D01*
X105689Y917686D01*
X106115Y917743D01*
X106542Y917790D01*
X106970Y917826D01*
X107399Y917852D01*
X107828Y917868D01*
X108258Y917873D01*
X136703Y917873D01*
X137133Y917868D01*
X137562Y917852D01*
X137991Y917826D01*
X138419Y917790D01*
X138846Y917743D01*
X139272Y917686D01*
X139696Y917619D01*
X140119Y917542D01*
X140539Y917454D01*
X140958Y917356D01*
X141373Y917249D01*
X141787Y917131D01*
X142197Y917003D01*
X142604Y916865D01*
X143007Y916718D01*
X143407Y916561D01*
X143803Y916394D01*
X144195Y916217D01*
X144582Y916032D01*
X144965Y915837D01*
X145343Y915632D01*
X145716Y915419D01*
X146083Y915197D01*
X146446Y914966D01*
X146802Y914726D01*
X147153Y914478D01*
X147497Y914221D01*
X147835Y913956D01*
X148167Y913683D01*
X148492Y913402D01*
X148810Y913113D01*
X149121Y912817D01*
X149425Y912513D01*
X149721Y912202D01*
X150010Y911884D01*
X150291Y911559D01*
X150564Y911227D01*
X150829Y910889D01*
X151086Y910545D01*
X151334Y910194D01*
X151574Y909838D01*
X151805Y909475D01*
X152027Y909108D01*
X152240Y908735D01*
X152445Y908357D01*
X152640Y907974D01*
X152825Y907587D01*
X153002Y907195D01*
X153169Y906799D01*
X153326Y906399D01*
X153473Y905996D01*
X153611Y905589D01*
X153739Y905178D01*
X153857Y904765D01*
X153964Y904349D01*
X154062Y903931D01*
X154150Y903511D01*
X154227Y903088D01*
X154294Y902664D01*
X154351Y902238D01*
X154398Y901811D01*
X154434Y901383D01*
X154460Y900954D01*
X154476Y900524D01*
X154481Y900095D01*
X154480Y900095D02*
X154480Y882318D01*
X-921688Y7926D02*
X-932354Y7926D01*
X-921688Y7926D02*
X-921688Y-27630D01*
X-943021Y-27630D01*
X-943365Y-27626D01*
X-943708Y-27613D01*
X-944051Y-27593D01*
X-944394Y-27564D01*
X-944735Y-27526D01*
X-945076Y-27481D01*
X-945415Y-27427D01*
X-945753Y-27365D01*
X-946090Y-27295D01*
X-946425Y-27217D01*
X-946757Y-27130D01*
X-947088Y-27036D01*
X-947416Y-26934D01*
X-947741Y-26824D01*
X-948064Y-26706D01*
X-948384Y-26580D01*
X-948701Y-26447D01*
X-949014Y-26306D01*
X-949324Y-26157D01*
X-949630Y-26001D01*
X-949933Y-25838D01*
X-950231Y-25667D01*
X-950525Y-25489D01*
X-950815Y-25304D01*
X-951100Y-25112D01*
X-951380Y-24914D01*
X-951656Y-24708D01*
X-951927Y-24497D01*
X-952192Y-24278D01*
X-952452Y-24053D01*
X-952706Y-23822D01*
X-952955Y-23585D01*
X-953198Y-23342D01*
X-953435Y-23093D01*
X-953666Y-22839D01*
X-953891Y-22579D01*
X-954110Y-22314D01*
X-954321Y-22043D01*
X-954527Y-21767D01*
X-954725Y-21487D01*
X-954917Y-21202D01*
X-955102Y-20912D01*
X-955280Y-20618D01*
X-955451Y-20320D01*
X-955614Y-20017D01*
X-955770Y-19711D01*
X-955919Y-19401D01*
X-956060Y-19088D01*
X-956193Y-18771D01*
X-956319Y-18451D01*
X-956437Y-18128D01*
X-956547Y-17803D01*
X-956649Y-17475D01*
X-956743Y-17144D01*
X-956830Y-16812D01*
X-956908Y-16477D01*
X-956978Y-16140D01*
X-957040Y-15802D01*
X-957094Y-15463D01*
X-957139Y-15122D01*
X-957177Y-14781D01*
X-957206Y-14438D01*
X-957226Y-14095D01*
X-957239Y-13752D01*
X-957243Y-13408D01*
X-957243Y22148D01*
X-957239Y22492D01*
X-957226Y22835D01*
X-957206Y23178D01*
X-957177Y23521D01*
X-957139Y23862D01*
X-957094Y24203D01*
X-957040Y24542D01*
X-956978Y24880D01*
X-956908Y25217D01*
X-956830Y25552D01*
X-956743Y25884D01*
X-956649Y26215D01*
X-956547Y26543D01*
X-956437Y26868D01*
X-956319Y27191D01*
X-956193Y27511D01*
X-956060Y27828D01*
X-955919Y28141D01*
X-955770Y28451D01*
X-955614Y28757D01*
X-955451Y29060D01*
X-955280Y29358D01*
X-955102Y29652D01*
X-954917Y29942D01*
X-954725Y30227D01*
X-954527Y30507D01*
X-954321Y30783D01*
X-954110Y31054D01*
X-953891Y31319D01*
X-953666Y31579D01*
X-953435Y31833D01*
X-953198Y32082D01*
X-952955Y32325D01*
X-952706Y32562D01*
X-952452Y32793D01*
X-952192Y33018D01*
X-951927Y33237D01*
X-951656Y33448D01*
X-951380Y33654D01*
X-951100Y33852D01*
X-950815Y34044D01*
X-950525Y34229D01*
X-950231Y34407D01*
X-949933Y34578D01*
X-949630Y34741D01*
X-949324Y34897D01*
X-949014Y35046D01*
X-948701Y35187D01*
X-948384Y35320D01*
X-948064Y35446D01*
X-947741Y35564D01*
X-947416Y35674D01*
X-947088Y35776D01*
X-946757Y35870D01*
X-946425Y35957D01*
X-946090Y36035D01*
X-945753Y36105D01*
X-945415Y36167D01*
X-945076Y36221D01*
X-944735Y36266D01*
X-944394Y36304D01*
X-944051Y36333D01*
X-943708Y36353D01*
X-943365Y36366D01*
X-943021Y36370D01*
X-921688Y36370D01*
X-891600Y36370D02*
X-891600Y-27630D01*
X-856045Y-27630D02*
X-891600Y36370D01*
X-856045Y36370D02*
X-856045Y-27630D01*
X-825957Y-27630D02*
X-825957Y36370D01*
X-808179Y36370D01*
X-807749Y36365D01*
X-807320Y36349D01*
X-806891Y36323D01*
X-806463Y36287D01*
X-806036Y36240D01*
X-805610Y36183D01*
X-805186Y36116D01*
X-804763Y36039D01*
X-804343Y35951D01*
X-803924Y35853D01*
X-803509Y35746D01*
X-803095Y35628D01*
X-802685Y35500D01*
X-802278Y35362D01*
X-801875Y35215D01*
X-801475Y35058D01*
X-801079Y34891D01*
X-800687Y34714D01*
X-800300Y34529D01*
X-799917Y34334D01*
X-799539Y34129D01*
X-799166Y33916D01*
X-798799Y33694D01*
X-798436Y33463D01*
X-798080Y33223D01*
X-797729Y32975D01*
X-797385Y32718D01*
X-797047Y32453D01*
X-796715Y32180D01*
X-796390Y31899D01*
X-796072Y31610D01*
X-795761Y31314D01*
X-795457Y31010D01*
X-795161Y30699D01*
X-794872Y30381D01*
X-794591Y30056D01*
X-794318Y29724D01*
X-794053Y29386D01*
X-793796Y29042D01*
X-793548Y28691D01*
X-793308Y28335D01*
X-793077Y27972D01*
X-792855Y27605D01*
X-792642Y27232D01*
X-792437Y26854D01*
X-792242Y26471D01*
X-792057Y26084D01*
X-791880Y25692D01*
X-791713Y25296D01*
X-791556Y24896D01*
X-791409Y24493D01*
X-791271Y24086D01*
X-791143Y23676D01*
X-791025Y23262D01*
X-790918Y22847D01*
X-790820Y22428D01*
X-790732Y22008D01*
X-790655Y21585D01*
X-790588Y21161D01*
X-790531Y20735D01*
X-790484Y20308D01*
X-790448Y19880D01*
X-790422Y19451D01*
X-790406Y19022D01*
X-790401Y18592D01*
X-790402Y18592D02*
X-790402Y-9852D01*
X-790401Y-9852D02*
X-790406Y-10282D01*
X-790422Y-10711D01*
X-790448Y-11140D01*
X-790484Y-11568D01*
X-790531Y-11995D01*
X-790588Y-12421D01*
X-790655Y-12845D01*
X-790732Y-13268D01*
X-790820Y-13688D01*
X-790918Y-14107D01*
X-791025Y-14522D01*
X-791143Y-14936D01*
X-791271Y-15346D01*
X-791409Y-15753D01*
X-791556Y-16156D01*
X-791713Y-16556D01*
X-791880Y-16952D01*
X-792057Y-17344D01*
X-792242Y-17731D01*
X-792437Y-18114D01*
X-792642Y-18492D01*
X-792855Y-18865D01*
X-793077Y-19232D01*
X-793308Y-19595D01*
X-793548Y-19951D01*
X-793796Y-20302D01*
X-794053Y-20646D01*
X-794318Y-20984D01*
X-794591Y-21316D01*
X-794872Y-21641D01*
X-795161Y-21959D01*
X-795457Y-22270D01*
X-795761Y-22574D01*
X-796072Y-22870D01*
X-796390Y-23159D01*
X-796715Y-23440D01*
X-797047Y-23713D01*
X-797385Y-23978D01*
X-797729Y-24235D01*
X-798080Y-24483D01*
X-798436Y-24723D01*
X-798799Y-24954D01*
X-799166Y-25176D01*
X-799539Y-25389D01*
X-799917Y-25594D01*
X-800300Y-25789D01*
X-800687Y-25974D01*
X-801079Y-26151D01*
X-801475Y-26318D01*
X-801875Y-26475D01*
X-802278Y-26622D01*
X-802685Y-26760D01*
X-803096Y-26888D01*
X-803509Y-27006D01*
X-803925Y-27113D01*
X-804343Y-27211D01*
X-804763Y-27299D01*
X-805186Y-27376D01*
X-805610Y-27443D01*
X-806036Y-27500D01*
X-806463Y-27547D01*
X-806891Y-27583D01*
X-807320Y-27609D01*
X-807750Y-27625D01*
X-808179Y-27630D01*
X-825957Y-27630D01*
X775920Y-40185D02*
X786587Y-40185D01*
X786587Y-75740D01*
X765254Y-75740D01*
X764910Y-75736D01*
X764567Y-75723D01*
X764224Y-75703D01*
X763881Y-75674D01*
X763540Y-75636D01*
X763199Y-75591D01*
X762860Y-75537D01*
X762522Y-75475D01*
X762185Y-75405D01*
X761850Y-75327D01*
X761518Y-75240D01*
X761187Y-75146D01*
X760859Y-75044D01*
X760534Y-74934D01*
X760211Y-74816D01*
X759891Y-74690D01*
X759574Y-74557D01*
X759261Y-74416D01*
X758951Y-74267D01*
X758645Y-74111D01*
X758342Y-73948D01*
X758044Y-73777D01*
X757750Y-73599D01*
X757460Y-73414D01*
X757175Y-73222D01*
X756895Y-73024D01*
X756619Y-72818D01*
X756348Y-72607D01*
X756083Y-72388D01*
X755823Y-72163D01*
X755569Y-71932D01*
X755320Y-71695D01*
X755077Y-71452D01*
X754840Y-71203D01*
X754609Y-70949D01*
X754384Y-70689D01*
X754165Y-70424D01*
X753954Y-70153D01*
X753748Y-69877D01*
X753550Y-69597D01*
X753358Y-69312D01*
X753173Y-69022D01*
X752995Y-68728D01*
X752824Y-68430D01*
X752661Y-68127D01*
X752505Y-67821D01*
X752356Y-67511D01*
X752215Y-67198D01*
X752082Y-66881D01*
X751956Y-66561D01*
X751838Y-66238D01*
X751728Y-65913D01*
X751626Y-65585D01*
X751532Y-65254D01*
X751445Y-64922D01*
X751367Y-64587D01*
X751297Y-64250D01*
X751235Y-63912D01*
X751181Y-63573D01*
X751136Y-63232D01*
X751098Y-62891D01*
X751069Y-62548D01*
X751049Y-62205D01*
X751036Y-61862D01*
X751032Y-61518D01*
X751031Y-61518D02*
X751031Y-25962D01*
X751032Y-25962D02*
X751036Y-25613D01*
X751049Y-25264D01*
X751071Y-24916D01*
X751100Y-24568D01*
X751139Y-24221D01*
X751186Y-23875D01*
X751241Y-23531D01*
X751305Y-23187D01*
X751378Y-22846D01*
X751458Y-22506D01*
X751547Y-22169D01*
X751644Y-21834D01*
X751750Y-21501D01*
X751863Y-21171D01*
X751985Y-20844D01*
X752115Y-20520D01*
X752252Y-20199D01*
X752397Y-19881D01*
X752551Y-19568D01*
X752711Y-19258D01*
X752880Y-18952D01*
X753055Y-18651D01*
X753238Y-18353D01*
X753429Y-18061D01*
X753626Y-17773D01*
X753831Y-17490D01*
X754042Y-17212D01*
X754260Y-16940D01*
X754485Y-16673D01*
X754716Y-16411D01*
X754954Y-16155D01*
X755197Y-15906D01*
X755447Y-15662D01*
X755703Y-15424D01*
X755964Y-15193D01*
X756232Y-14968D01*
X756504Y-14750D01*
X756782Y-14539D01*
X757065Y-14334D01*
X757353Y-14137D01*
X757645Y-13947D01*
X757942Y-13763D01*
X758244Y-13588D01*
X758550Y-13419D01*
X758859Y-13259D01*
X759173Y-13106D01*
X759490Y-12960D01*
X759811Y-12823D01*
X760135Y-12693D01*
X760463Y-12571D01*
X760793Y-12458D01*
X761125Y-12352D01*
X761461Y-12255D01*
X761798Y-12166D01*
X762138Y-12086D01*
X762479Y-12013D01*
X762822Y-11949D01*
X763167Y-11894D01*
X763513Y-11847D01*
X763860Y-11809D01*
X764208Y-11779D01*
X764556Y-11757D01*
X764905Y-11744D01*
X765254Y-11740D01*
X786587Y-11740D01*
X816675Y-11740D02*
X816675Y-75740D01*
X852230Y-75740D02*
X816675Y-11740D01*
X852230Y-11740D02*
X852230Y-75740D01*
X882318Y-75740D02*
X882318Y-11740D01*
X900095Y-11740D01*
X900525Y-11745D01*
X900954Y-11761D01*
X901383Y-11787D01*
X901811Y-11823D01*
X902238Y-11870D01*
X902664Y-11927D01*
X903088Y-11994D01*
X903511Y-12071D01*
X903931Y-12159D01*
X904350Y-12257D01*
X904765Y-12364D01*
X905179Y-12482D01*
X905589Y-12610D01*
X905996Y-12748D01*
X906399Y-12895D01*
X906799Y-13052D01*
X907195Y-13219D01*
X907587Y-13396D01*
X907974Y-13581D01*
X908357Y-13776D01*
X908735Y-13981D01*
X909108Y-14194D01*
X909475Y-14416D01*
X909838Y-14647D01*
X910194Y-14887D01*
X910545Y-15135D01*
X910889Y-15392D01*
X911227Y-15657D01*
X911559Y-15930D01*
X911884Y-16211D01*
X912202Y-16500D01*
X912513Y-16796D01*
X912817Y-17100D01*
X913113Y-17411D01*
X913402Y-17729D01*
X913683Y-18054D01*
X913956Y-18386D01*
X914221Y-18724D01*
X914478Y-19068D01*
X914726Y-19419D01*
X914966Y-19775D01*
X915197Y-20138D01*
X915419Y-20505D01*
X915632Y-20878D01*
X915837Y-21256D01*
X916032Y-21639D01*
X916217Y-22026D01*
X916394Y-22418D01*
X916561Y-22814D01*
X916718Y-23214D01*
X916865Y-23617D01*
X917003Y-24024D01*
X917131Y-24434D01*
X917249Y-24848D01*
X917356Y-25263D01*
X917454Y-25682D01*
X917542Y-26102D01*
X917619Y-26525D01*
X917686Y-26949D01*
X917743Y-27375D01*
X917790Y-27802D01*
X917826Y-28230D01*
X917852Y-28659D01*
X917868Y-29088D01*
X917873Y-29518D01*
X917873Y-57962D01*
X917868Y-58392D01*
X917852Y-58821D01*
X917826Y-59250D01*
X917790Y-59678D01*
X917743Y-60105D01*
X917686Y-60531D01*
X917619Y-60955D01*
X917542Y-61378D01*
X917454Y-61798D01*
X917356Y-62217D01*
X917249Y-62632D01*
X917131Y-63046D01*
X917003Y-63456D01*
X916865Y-63863D01*
X916718Y-64266D01*
X916561Y-64666D01*
X916394Y-65062D01*
X916217Y-65454D01*
X916032Y-65841D01*
X915837Y-66224D01*
X915632Y-66602D01*
X915419Y-66975D01*
X915197Y-67342D01*
X914966Y-67705D01*
X914726Y-68061D01*
X914478Y-68412D01*
X914221Y-68756D01*
X913956Y-69094D01*
X913683Y-69426D01*
X913402Y-69751D01*
X913113Y-70069D01*
X912817Y-70380D01*
X912513Y-70684D01*
X912202Y-70980D01*
X911884Y-71269D01*
X911559Y-71550D01*
X911227Y-71823D01*
X910889Y-72088D01*
X910545Y-72345D01*
X910194Y-72593D01*
X909838Y-72833D01*
X909475Y-73064D01*
X909108Y-73286D01*
X908735Y-73499D01*
X908357Y-73704D01*
X907974Y-73899D01*
X907587Y-74084D01*
X907195Y-74261D01*
X906799Y-74428D01*
X906399Y-74585D01*
X905996Y-74732D01*
X905589Y-74870D01*
X905178Y-74998D01*
X904765Y-75116D01*
X904349Y-75223D01*
X903931Y-75321D01*
X903511Y-75409D01*
X903088Y-75486D01*
X902664Y-75553D01*
X902238Y-75610D01*
X901811Y-75657D01*
X901383Y-75693D01*
X900954Y-75719D01*
X900524Y-75735D01*
X900095Y-75740D01*
X882318Y-75740D01*
X-7926Y-882318D02*
X-7926Y-892984D01*
X-7926Y-882318D02*
X27630Y-882318D01*
X27630Y-903651D01*
X27626Y-903995D01*
X27613Y-904338D01*
X27593Y-904681D01*
X27564Y-905024D01*
X27526Y-905365D01*
X27481Y-905706D01*
X27427Y-906045D01*
X27365Y-906383D01*
X27295Y-906720D01*
X27217Y-907055D01*
X27130Y-907387D01*
X27036Y-907718D01*
X26934Y-908046D01*
X26824Y-908371D01*
X26706Y-908694D01*
X26580Y-909014D01*
X26447Y-909331D01*
X26306Y-909644D01*
X26157Y-909954D01*
X26001Y-910260D01*
X25838Y-910563D01*
X25667Y-910861D01*
X25489Y-911155D01*
X25304Y-911445D01*
X25112Y-911730D01*
X24914Y-912010D01*
X24708Y-912286D01*
X24497Y-912557D01*
X24278Y-912822D01*
X24053Y-913082D01*
X23822Y-913336D01*
X23585Y-913585D01*
X23342Y-913828D01*
X23093Y-914065D01*
X22839Y-914296D01*
X22579Y-914521D01*
X22314Y-914740D01*
X22043Y-914951D01*
X21767Y-915157D01*
X21487Y-915355D01*
X21202Y-915547D01*
X20912Y-915732D01*
X20618Y-915910D01*
X20320Y-916081D01*
X20017Y-916244D01*
X19711Y-916400D01*
X19401Y-916549D01*
X19088Y-916690D01*
X18771Y-916823D01*
X18451Y-916949D01*
X18128Y-917067D01*
X17803Y-917177D01*
X17475Y-917279D01*
X17144Y-917373D01*
X16812Y-917460D01*
X16477Y-917538D01*
X16140Y-917608D01*
X15802Y-917670D01*
X15463Y-917724D01*
X15122Y-917769D01*
X14781Y-917807D01*
X14438Y-917836D01*
X14095Y-917856D01*
X13752Y-917869D01*
X13408Y-917873D01*
X-22148Y-917873D01*
X-22497Y-917869D01*
X-22846Y-917856D01*
X-23194Y-917834D01*
X-23542Y-917805D01*
X-23889Y-917766D01*
X-24235Y-917719D01*
X-24579Y-917664D01*
X-24923Y-917600D01*
X-25264Y-917527D01*
X-25604Y-917447D01*
X-25941Y-917358D01*
X-26276Y-917261D01*
X-26609Y-917155D01*
X-26939Y-917042D01*
X-27266Y-916920D01*
X-27590Y-916790D01*
X-27911Y-916653D01*
X-28229Y-916508D01*
X-28542Y-916354D01*
X-28852Y-916194D01*
X-29158Y-916025D01*
X-29460Y-915850D01*
X-29757Y-915667D01*
X-30049Y-915476D01*
X-30337Y-915279D01*
X-30620Y-915074D01*
X-30898Y-914863D01*
X-31170Y-914645D01*
X-31437Y-914420D01*
X-31699Y-914189D01*
X-31955Y-913951D01*
X-32204Y-913708D01*
X-32448Y-913458D01*
X-32686Y-913202D01*
X-32917Y-912940D01*
X-33142Y-912673D01*
X-33360Y-912401D01*
X-33571Y-912123D01*
X-33776Y-911840D01*
X-33973Y-911552D01*
X-34163Y-911260D01*
X-34347Y-910963D01*
X-34522Y-910661D01*
X-34691Y-910355D01*
X-34851Y-910045D01*
X-35004Y-909732D01*
X-35150Y-909414D01*
X-35287Y-909094D01*
X-35417Y-908770D01*
X-35539Y-908442D01*
X-35652Y-908112D01*
X-35758Y-907780D01*
X-35855Y-907444D01*
X-35944Y-907107D01*
X-36024Y-906767D01*
X-36097Y-906426D01*
X-36161Y-906083D01*
X-36216Y-905738D01*
X-36263Y-905392D01*
X-36302Y-905045D01*
X-36331Y-904697D01*
X-36353Y-904349D01*
X-36366Y-904000D01*
X-36370Y-903651D01*
X-36370Y-882318D01*
X-36370Y-852230D02*
X27630Y-852230D01*
X27630Y-816675D02*
X-36370Y-852230D01*
X-36370Y-816675D02*
X27630Y-816675D01*
X27630Y-786587D02*
X-36370Y-786587D01*
X-36370Y-768809D01*
X-36365Y-768379D01*
X-36349Y-767950D01*
X-36323Y-767521D01*
X-36287Y-767093D01*
X-36240Y-766666D01*
X-36183Y-766240D01*
X-36116Y-765816D01*
X-36039Y-765393D01*
X-35951Y-764973D01*
X-35853Y-764554D01*
X-35746Y-764139D01*
X-35628Y-763725D01*
X-35500Y-763315D01*
X-35362Y-762908D01*
X-35215Y-762505D01*
X-35058Y-762105D01*
X-34891Y-761709D01*
X-34714Y-761317D01*
X-34529Y-760930D01*
X-34334Y-760547D01*
X-34129Y-760169D01*
X-33916Y-759796D01*
X-33694Y-759429D01*
X-33463Y-759066D01*
X-33223Y-758710D01*
X-32975Y-758359D01*
X-32718Y-758015D01*
X-32453Y-757677D01*
X-32180Y-757345D01*
X-31899Y-757020D01*
X-31610Y-756702D01*
X-31314Y-756391D01*
X-31010Y-756087D01*
X-30699Y-755791D01*
X-30381Y-755502D01*
X-30056Y-755221D01*
X-29724Y-754948D01*
X-29386Y-754683D01*
X-29042Y-754426D01*
X-28691Y-754178D01*
X-28335Y-753938D01*
X-27972Y-753707D01*
X-27605Y-753485D01*
X-27232Y-753272D01*
X-26854Y-753067D01*
X-26471Y-752872D01*
X-26084Y-752687D01*
X-25692Y-752510D01*
X-25296Y-752343D01*
X-24896Y-752186D01*
X-24493Y-752039D01*
X-24086Y-751901D01*
X-23676Y-751773D01*
X-23262Y-751655D01*
X-22847Y-751548D01*
X-22428Y-751450D01*
X-22008Y-751362D01*
X-21585Y-751285D01*
X-21161Y-751218D01*
X-20735Y-751161D01*
X-20308Y-751114D01*
X-19880Y-751078D01*
X-19451Y-751052D01*
X-19022Y-751036D01*
X-18592Y-751031D01*
X9852Y-751031D01*
X10282Y-751036D01*
X10711Y-751052D01*
X11140Y-751078D01*
X11568Y-751114D01*
X11995Y-751161D01*
X12421Y-751218D01*
X12845Y-751285D01*
X13268Y-751362D01*
X13688Y-751450D01*
X14107Y-751548D01*
X14522Y-751655D01*
X14936Y-751773D01*
X15346Y-751901D01*
X15753Y-752039D01*
X16156Y-752186D01*
X16556Y-752343D01*
X16952Y-752510D01*
X17344Y-752687D01*
X17731Y-752872D01*
X18114Y-753067D01*
X18492Y-753272D01*
X18865Y-753485D01*
X19232Y-753707D01*
X19595Y-753938D01*
X19951Y-754178D01*
X20302Y-754426D01*
X20646Y-754683D01*
X20984Y-754948D01*
X21316Y-755221D01*
X21641Y-755502D01*
X21959Y-755791D01*
X22270Y-756087D01*
X22574Y-756391D01*
X22870Y-756702D01*
X23159Y-757020D01*
X23440Y-757345D01*
X23713Y-757677D01*
X23978Y-758015D01*
X24235Y-758359D01*
X24483Y-758710D01*
X24723Y-759066D01*
X24954Y-759429D01*
X25176Y-759796D01*
X25389Y-760169D01*
X25594Y-760547D01*
X25789Y-760930D01*
X25974Y-761317D01*
X26151Y-761709D01*
X26318Y-762105D01*
X26475Y-762505D01*
X26622Y-762908D01*
X26760Y-763315D01*
X26888Y-763726D01*
X27006Y-764139D01*
X27113Y-764555D01*
X27211Y-764973D01*
X27299Y-765393D01*
X27376Y-765816D01*
X27443Y-766240D01*
X27500Y-766666D01*
X27547Y-767093D01*
X27583Y-767521D01*
X27609Y-767950D01*
X27625Y-768380D01*
X27630Y-768809D01*
X27630Y-786587D01*
D11*
X49213Y440244D03*
X-147638Y442913D03*
X-305118Y-59055D03*
X-561024Y-59055D03*
D12*
X373622Y-50197D03*
X-242126Y-344488D03*
X232283Y-403543D03*
X39370Y-344488D03*
X-74803Y-226378D03*
X157480Y-98425D03*
X127953Y-98425D03*
X98425Y-98425D03*
X127953Y-127953D03*
X157480Y-127953D03*
X98425Y-127953D03*
X68898Y-127953D03*
X68898Y-98425D03*
X-393701Y177165D03*
X-242126Y-403543D03*
X-344488Y287402D03*
X-246063Y314961D03*
X-246063Y9843D03*
X-204724Y423228D03*
X232283Y-344488D03*
X-216535Y9843D03*
X-275591Y9843D03*
X-442913Y53150D03*
X-442913Y-98425D03*
X-78740Y413386D03*
X-108268Y413386D03*
X-137795Y413386D03*
X-167323Y413386D03*
X-192913Y-157480D03*
X-49213Y324803D03*
X177165Y324803D03*
X-167323Y-78740D03*
X19685Y-151575D03*
X39370Y-265748D03*
X-378937Y364173D03*
X-118110Y-511811D03*
X137795Y-570866D03*
X171260Y68898D03*
X-23622Y-226378D03*
X-15748Y364173D03*
X13780Y364173D03*
X43307Y364173D03*
X72835Y364173D03*
X240157Y364173D03*
X-403543Y-69370D03*
X-482283Y-69370D03*
X373622Y50000D03*
X-190945Y-344488D03*
X181102Y-344488D03*
X181102Y-403543D03*
X-531496Y-196850D03*
X-137795Y354331D03*
X-167323Y354331D03*
X-206693Y-541339D03*
X-141732Y-157480D03*
X423622Y49803D03*
X127953Y-442913D03*
X373622Y0D03*
X-49213Y-383858D03*
X423622Y-197D03*
X98425Y-472441D03*
X29528Y-393701D03*
X-488357Y-274914D03*
X0Y-423228D03*
X-393701Y-275591D03*
X472441Y-344488D03*
X226378Y-492126D03*
X585630Y39370D03*
X482283Y-206693D03*
X-423228Y-314961D03*
X-255906Y-526575D03*
X-531496Y-246063D03*
X-570866Y118110D03*
X-329724Y482283D03*
X-59055Y521654D03*
X59055Y580709D03*
X285433Y442913D03*
X501969Y157480D03*
X423228Y403543D03*
X-561024Y162402D03*
X-248031Y423228D03*
X39370Y-521654D03*
X-403543Y30000D03*
X-482283Y30000D03*
X59055Y49213D03*
X59055Y0D03*
X59055Y-49213D03*
X98425Y49213D03*
X98425Y0D03*
X98425Y-49213D03*
X78740Y-19685D03*
X78740Y19685D03*
X-59055Y49213D03*
X-59055Y-49213D03*
X-59055Y0D03*
X-98425Y49213D03*
X-98425Y0D03*
X-98425Y-49213D03*
X-78740Y19685D03*
X-78740Y-19685D03*
X-185039Y-452756D03*
X-147638Y-19685D03*
X-185039Y-501969D03*
X-187008Y-19685D03*
M02*
