G04 EAGLE Gerber X2 export*
%TF.Part,Single*%
%TF.FileFunction,Copper,L1,Top,Mixed*%
%TF.FilePolarity,Positive*%
%TF.GenerationSoftware,Autodesk,EAGLE,9.6.2*%
%TF.CreationDate,2025-04-18T12:16:15Z*%
G75*
%MOIN*%
%FSLAX36Y36*%
%LPD*%
%INTop Copper Layer*%
%AMOC8*
5,1,8,0,0,1.08239X$1,22.5*%
G01*
%ADD10C,0.006000*%
%ADD11R,0.039370X0.027559*%
%ADD12C,0.031000*%
%ADD13C,0.053150*%
%ADD14R,0.019685X0.129921*%
%ADD15R,0.051181X0.129921*%
%ADD16R,0.027559X0.023622*%
%ADD17C,0.021780*%
%ADD18C,0.019685*%
%ADD19C,0.009843*%

G36*
X74668Y-678739D02*
X74668Y-678739D01*
X74685Y-678725D01*
X74697Y-678735D01*
X172698Y-660634D01*
X172712Y-660618D01*
X172725Y-660627D01*
X267046Y-628449D01*
X267059Y-628431D01*
X267073Y-628438D01*
X355703Y-582869D01*
X355713Y-582850D01*
X355728Y-582854D01*
X436779Y-524867D01*
X436786Y-524846D01*
X436801Y-524849D01*
X508546Y-455678D01*
X508549Y-455657D01*
X508565Y-455657D01*
X569474Y-376777D01*
X569474Y-376756D01*
X569489Y-376753D01*
X618264Y-289846D01*
X618261Y-289826D01*
X618266Y-289823D01*
X618276Y-289820D01*
X653878Y-196737D01*
X653872Y-196716D01*
X653886Y-196710D01*
X675555Y-99435D01*
X675546Y-99416D01*
X675559Y-99407D01*
X682833Y-14D01*
X682822Y4D01*
X682833Y14D01*
X675559Y99407D01*
X675544Y99424D01*
X675555Y99436D01*
X653886Y196710D01*
X653869Y196724D01*
X653878Y196737D01*
X618276Y289820D01*
X618258Y289832D01*
X618264Y289846D01*
X569489Y376754D01*
X569469Y376762D01*
X569474Y376777D01*
X508565Y455657D01*
X508544Y455663D01*
X508546Y455678D01*
X436801Y524849D01*
X436780Y524852D01*
X436779Y524867D01*
X355728Y582854D01*
X355706Y582854D01*
X355703Y582869D01*
X267072Y628438D01*
X267051Y628434D01*
X267046Y628449D01*
X172725Y660627D01*
X172704Y660620D01*
X172697Y660634D01*
X74696Y678735D01*
X74677Y678726D01*
X74668Y678739D01*
X-24924Y682378D01*
X-24941Y682366D01*
X-24943Y682366D01*
X-24953Y682377D01*
X-124014Y671477D01*
X-124030Y671463D01*
X-124042Y671472D01*
X-220460Y646265D01*
X-220473Y646248D01*
X-220487Y646256D01*
X-312207Y607279D01*
X-312218Y607260D01*
X-312233Y607266D01*
X-397301Y555350D01*
X-397309Y555329D01*
X-397324Y555333D01*
X-473927Y491584D01*
X-473932Y491563D01*
X-473947Y491564D01*
X-540451Y417341D01*
X-540453Y417320D01*
X-540469Y417319D01*
X-595457Y334203D01*
X-595456Y334182D01*
X-595471Y334178D01*
X-637772Y243943D01*
X-637769Y243925D01*
X-637779Y243917D01*
X-637782Y243916D01*
X-637960Y243326D01*
X-637960Y243325D01*
X-638078Y242933D01*
X-638196Y242541D01*
X-638373Y241953D01*
X-638491Y241561D01*
X-638491Y241560D01*
X-638609Y241168D01*
X-638727Y240776D01*
X-638904Y240188D01*
X-639022Y239796D01*
X-639022Y239795D01*
X-639140Y239403D01*
X-639435Y238423D01*
X-639553Y238031D01*
X-639553Y238030D01*
X-639671Y237638D01*
X-639848Y237050D01*
X-639966Y236658D01*
X-640084Y236266D01*
X-640084Y236265D01*
X-640379Y235285D01*
X-640497Y234893D01*
X-640615Y234501D01*
X-640615Y234500D01*
X-640792Y233912D01*
X-640910Y233520D01*
X-641028Y233128D01*
X-641323Y232147D01*
X-641441Y231755D01*
X-641559Y231363D01*
X-641854Y230382D01*
X-641972Y229990D01*
X-642090Y229598D01*
X-642267Y229009D01*
X-642385Y228617D01*
X-642503Y228225D01*
X-642798Y227244D01*
X-642916Y226852D01*
X-643034Y226460D01*
X-643211Y225872D01*
X-643211Y225871D01*
X-643329Y225479D01*
X-643447Y225087D01*
X-643742Y224107D01*
X-643742Y224106D01*
X-643860Y223714D01*
X-643978Y223322D01*
X-644155Y222734D01*
X-644273Y222342D01*
X-644273Y222341D01*
X-644391Y221949D01*
X-644509Y221557D01*
X-644686Y220969D01*
X-644804Y220577D01*
X-644804Y220576D01*
X-644922Y220184D01*
X-645217Y219204D01*
X-645335Y218812D01*
X-645335Y218811D01*
X-645453Y218419D01*
X-645630Y217831D01*
X-645748Y217439D01*
X-645866Y217047D01*
X-645866Y217046D01*
X-646161Y216066D01*
X-646279Y215674D01*
X-646397Y215282D01*
X-646397Y215281D01*
X-646574Y214693D01*
X-646692Y214301D01*
X-646810Y213909D01*
X-647105Y212928D01*
X-647223Y212536D01*
X-647341Y212144D01*
X-647636Y211163D01*
X-647754Y210771D01*
X-647872Y210379D01*
X-648049Y209790D01*
X-648167Y209398D01*
X-648285Y209006D01*
X-648580Y208025D01*
X-648698Y207633D01*
X-648816Y207241D01*
X-648993Y206653D01*
X-648993Y206652D01*
X-649111Y206260D01*
X-649229Y205868D01*
X-649524Y204888D01*
X-649524Y204887D01*
X-649642Y204495D01*
X-649760Y204103D01*
X-649937Y203515D01*
X-650055Y203123D01*
X-650055Y203122D01*
X-650173Y202730D01*
X-650291Y202338D01*
X-650468Y201750D01*
X-650586Y201358D01*
X-650586Y201357D01*
X-650704Y200965D01*
X-650999Y199985D01*
X-651117Y199593D01*
X-651117Y199592D01*
X-651235Y199200D01*
X-651412Y198612D01*
X-651530Y198220D01*
X-651648Y197828D01*
X-651648Y197827D01*
X-651943Y196847D01*
X-652061Y196455D01*
X-652179Y196063D01*
X-652179Y196062D01*
X-652356Y195474D01*
X-652474Y195082D01*
X-652592Y194690D01*
X-652710Y194297D01*
X-652887Y193709D01*
X-653005Y193317D01*
X-653123Y192925D01*
X-653418Y191944D01*
X-653536Y191552D01*
X-653654Y191160D01*
X-653831Y190571D01*
X-653949Y190179D01*
X-654067Y189787D01*
X-654362Y188806D01*
X-654480Y188414D01*
X-654598Y188022D01*
X-654775Y187434D01*
X-654775Y187433D01*
X-654893Y187041D01*
X-655011Y186649D01*
X-655306Y185669D01*
X-655306Y185668D01*
X-655424Y185276D01*
X-655542Y184884D01*
X-655719Y184296D01*
X-655837Y183904D01*
X-655837Y183903D01*
X-655955Y183511D01*
X-656073Y183119D01*
X-656250Y182531D01*
X-656368Y182139D01*
X-656368Y182138D01*
X-656486Y181746D01*
X-656781Y180766D01*
X-656899Y180374D01*
X-656899Y180373D01*
X-657017Y179981D01*
X-657194Y179393D01*
X-657195Y179393D01*
X-657194Y179393D01*
X-657312Y179001D01*
X-657313Y179001D01*
X-657312Y179001D01*
X-657430Y178609D01*
X-657430Y178608D01*
X-657725Y177628D01*
X-657726Y177628D01*
X-657725Y177628D01*
X-657843Y177236D01*
X-657844Y177236D01*
X-657961Y176844D01*
X-657961Y176843D01*
X-658138Y176255D01*
X-658139Y176255D01*
X-658138Y176255D01*
X-658256Y175863D01*
X-658257Y175863D01*
X-658256Y175863D01*
X-658374Y175471D01*
X-658375Y175471D01*
X-658492Y175078D01*
X-658669Y174490D01*
X-658670Y174490D01*
X-658669Y174490D01*
X-658787Y174098D01*
X-658788Y174098D01*
X-658905Y173706D01*
X-658906Y173706D01*
X-659200Y172725D01*
X-659201Y172725D01*
X-659200Y172725D01*
X-659318Y172333D01*
X-659319Y172333D01*
X-659436Y171941D01*
X-659437Y171941D01*
X-659613Y171352D01*
X-659614Y171352D01*
X-659613Y171352D01*
X-659731Y170960D01*
X-659732Y170960D01*
X-659731Y170960D01*
X-659849Y170568D01*
X-659850Y170568D01*
X-660144Y169587D01*
X-660145Y169587D01*
X-660144Y169587D01*
X-660262Y169195D01*
X-660263Y169195D01*
X-660380Y168803D01*
X-660381Y168803D01*
X-660557Y168215D01*
X-660558Y168215D01*
X-660557Y168214D01*
X-660675Y167822D01*
X-660676Y167822D01*
X-660675Y167822D01*
X-660793Y167430D01*
X-660794Y167430D01*
X-661088Y166450D01*
X-661089Y166450D01*
X-661088Y166449D01*
X-661206Y166057D01*
X-661207Y166057D01*
X-661324Y165665D01*
X-661325Y165665D01*
X-661501Y165077D01*
X-661502Y165077D01*
X-661501Y165077D01*
X-661619Y164685D01*
X-661620Y164685D01*
X-661619Y164684D01*
X-661737Y164292D01*
X-661738Y164292D01*
X-661855Y163900D01*
X-661856Y163900D01*
X-662032Y163312D01*
X-662033Y163312D01*
X-662032Y163312D01*
X-662150Y162920D01*
X-662151Y162920D01*
X-662150Y162919D01*
X-662268Y162527D01*
X-662269Y162527D01*
X-662563Y161547D01*
X-662564Y161547D01*
X-662563Y161547D01*
X-662681Y161155D01*
X-662682Y161155D01*
X-662682Y161154D01*
X-662799Y160762D01*
X-662800Y160762D01*
X-662977Y160174D01*
X-663094Y159782D01*
X-663095Y159782D01*
X-663094Y159782D01*
X-663212Y159390D01*
X-663213Y159390D01*
X-663213Y159389D01*
X-663508Y158409D01*
X-663625Y158017D01*
X-663626Y158017D01*
X-663743Y157625D01*
X-663744Y157625D01*
X-663744Y157624D01*
X-663921Y157036D01*
X-664039Y156644D01*
X-664156Y156252D01*
X-664157Y156252D01*
X-664274Y155859D01*
X-664275Y155859D01*
X-664452Y155271D01*
X-664570Y154879D01*
X-664688Y154487D01*
X-664983Y153506D01*
X-665101Y153114D01*
X-665219Y152722D01*
X-665396Y152133D01*
X-665514Y151741D01*
X-665632Y151349D01*
X-665927Y150368D01*
X-666045Y149976D01*
X-666163Y149584D01*
X-666340Y148996D01*
X-666340Y148995D01*
X-666458Y148603D01*
X-666494Y148482D01*
X-666486Y148462D01*
X-666500Y148454D01*
X-681011Y49858D01*
X-681000Y49839D01*
X-681013Y49829D01*
X-681013Y-49829D01*
X-681000Y-49847D01*
X-681011Y-49858D01*
X-666500Y-148455D01*
X-666485Y-148470D01*
X-666494Y-148483D01*
X-637782Y-243916D01*
X-637765Y-243929D01*
X-637772Y-243943D01*
X-595471Y-334178D01*
X-595452Y-334189D01*
X-595457Y-334203D01*
X-540469Y-417319D01*
X-540448Y-417326D01*
X-540451Y-417341D01*
X-473947Y-491564D01*
X-473926Y-491568D01*
X-473927Y-491584D01*
X-397324Y-555333D01*
X-397302Y-555334D01*
X-397301Y-555350D01*
X-312233Y-607266D01*
X-312211Y-607264D01*
X-312207Y-607279D01*
X-220487Y-646256D01*
X-220466Y-646251D01*
X-220460Y-646265D01*
X-124042Y-671472D01*
X-124022Y-671464D01*
X-124014Y-671477D01*
X-24953Y-682377D01*
X-24934Y-682366D01*
X-24924Y-682378D01*
X74668Y-678739D01*
G37*
%LPC*%
G36*
X434109Y-137894D02*
X434109Y-137894D01*
X363135Y-137894D01*
X363119Y-137906D01*
X362992Y-137895D01*
X362981Y-137902D01*
X362975Y-137894D01*
X362840Y-137894D01*
X362832Y-137881D01*
X356262Y-137306D01*
X356233Y-137324D01*
X356137Y-137298D01*
X356114Y-137308D01*
X356104Y-137292D01*
X355995Y-137283D01*
X355985Y-137257D01*
X349596Y-135545D01*
X349564Y-135558D01*
X349475Y-135516D01*
X349449Y-135521D01*
X349443Y-135504D01*
X349337Y-135476D01*
X349331Y-135449D01*
X343336Y-132654D01*
X343303Y-132661D01*
X343222Y-132604D01*
X343196Y-132605D01*
X343193Y-132587D01*
X343093Y-132540D01*
X343092Y-132513D01*
X337674Y-128719D01*
X337640Y-128720D01*
X337570Y-128650D01*
X337544Y-128646D01*
X337544Y-128628D01*
X337454Y-128565D01*
X337458Y-128538D01*
X332781Y-123861D01*
X332748Y-123856D01*
X332691Y-123775D01*
X332666Y-123767D01*
X332669Y-123749D01*
X332591Y-123671D01*
X332600Y-123645D01*
X331024Y-121395D01*
X331000Y-121387D01*
X331002Y-121369D01*
X329374Y-119740D01*
X328670Y-118040D01*
X328658Y-118033D01*
X328663Y-118024D01*
X328494Y-117617D01*
X328489Y-117613D01*
X328491Y-117609D01*
X325870Y-111988D01*
X325840Y-111972D01*
X325814Y-111876D01*
X325794Y-111860D01*
X325803Y-111844D01*
X325756Y-111745D01*
X325773Y-111723D01*
X325264Y-109823D01*
X325249Y-109811D01*
X325256Y-109798D01*
X324121Y-107059D01*
X324121Y-105583D01*
X324099Y-105553D01*
X324115Y-105533D01*
X324062Y-105334D01*
X324035Y-105313D01*
X324027Y-105215D01*
X324009Y-105196D01*
X324021Y-105181D01*
X323994Y-105084D01*
X324001Y-105078D01*
X323996Y-105072D01*
X324013Y-105057D01*
X323438Y-98487D01*
X323424Y-98472D01*
X323424Y-98344D01*
X323416Y-98333D01*
X323424Y-98326D01*
X323414Y-98217D01*
X323417Y-98215D01*
X323414Y-98210D01*
X323412Y-98193D01*
X323424Y-98184D01*
X323424Y97790D01*
X323413Y97806D01*
X323424Y97933D01*
X323417Y97944D01*
X323424Y97950D01*
X323424Y98085D01*
X323438Y98093D01*
X324013Y104663D01*
X323995Y104692D01*
X324021Y104787D01*
X324011Y104812D01*
X324027Y104821D01*
X324036Y104930D01*
X324062Y104940D01*
X325773Y111329D01*
X325761Y111361D01*
X325803Y111450D01*
X325797Y111476D01*
X325814Y111483D01*
X325843Y111588D01*
X325870Y111594D01*
X328665Y117589D01*
X328658Y117622D01*
X328715Y117703D01*
X328714Y117729D01*
X328732Y117733D01*
X328778Y117832D01*
X328806Y117833D01*
X332600Y123251D01*
X332599Y123285D01*
X332669Y123355D01*
X332673Y123381D01*
X332691Y123382D01*
X332754Y123471D01*
X332781Y123467D01*
X337458Y128144D01*
X337463Y128177D01*
X337544Y128234D01*
X337552Y128259D01*
X337570Y128256D01*
X337648Y128334D01*
X337674Y128325D01*
X343092Y132119D01*
X343102Y132151D01*
X343193Y132193D01*
X343205Y132216D01*
X343222Y132210D01*
X343310Y132272D01*
X343314Y132272D01*
X343336Y132260D01*
X349331Y135055D01*
X349347Y135085D01*
X349443Y135111D01*
X349459Y135131D01*
X349475Y135123D01*
X349574Y135169D01*
X349596Y135152D01*
X355985Y136864D01*
X356005Y136890D01*
X356104Y136899D01*
X356123Y136916D01*
X356137Y136905D01*
X356244Y136933D01*
X356262Y136912D01*
X362832Y137487D01*
X362847Y137501D01*
X362975Y137501D01*
X362986Y137509D01*
X362992Y137501D01*
X363126Y137513D01*
X363135Y137501D01*
X434109Y137501D01*
X434125Y137512D01*
X434252Y137501D01*
X434263Y137508D01*
X434269Y137501D01*
X434404Y137501D01*
X434412Y137487D01*
X440982Y136912D01*
X441011Y136930D01*
X441107Y136905D01*
X441130Y136914D01*
X441140Y136899D01*
X441249Y136889D01*
X441259Y136864D01*
X447648Y135152D01*
X447680Y135164D01*
X447769Y135122D01*
X447795Y135128D01*
X447801Y135111D01*
X447907Y135082D01*
X447913Y135055D01*
X453908Y132260D01*
X453941Y132267D01*
X454022Y132210D01*
X454047Y132211D01*
X454051Y132193D01*
X454151Y132147D01*
X454152Y132119D01*
X459570Y128325D01*
X459604Y128326D01*
X459674Y128256D01*
X459700Y128252D01*
X459700Y128234D01*
X459790Y128171D01*
X459786Y128144D01*
X464463Y123467D01*
X464496Y123462D01*
X464553Y123381D01*
X464578Y123373D01*
X464575Y123355D01*
X464653Y123277D01*
X464644Y123251D01*
X468438Y117833D01*
X468470Y117823D01*
X468512Y117732D01*
X468535Y117720D01*
X468529Y117703D01*
X468592Y117613D01*
X468579Y117589D01*
X471374Y111594D01*
X471404Y111578D01*
X471430Y111483D01*
X471450Y111467D01*
X471441Y111450D01*
X471488Y111351D01*
X471471Y111329D01*
X473182Y104940D01*
X473209Y104920D01*
X473218Y104821D01*
X473235Y104802D01*
X473223Y104788D01*
X473252Y104681D01*
X473245Y104675D01*
X473244Y104674D01*
X473231Y104663D01*
X473806Y98093D01*
X473820Y98078D01*
X473820Y97950D01*
X473828Y97939D01*
X473820Y97933D01*
X473831Y97813D01*
X473827Y97810D01*
X473831Y97805D01*
X473832Y97799D01*
X473820Y97790D01*
X473820Y-98184D01*
X473831Y-98199D01*
X473820Y-98326D01*
X473827Y-98338D01*
X473820Y-98344D01*
X473820Y-98478D01*
X473806Y-98487D01*
X473231Y-105057D01*
X473249Y-105085D01*
X473223Y-105181D01*
X473233Y-105205D01*
X473218Y-105215D01*
X473208Y-105324D01*
X473182Y-105334D01*
X473129Y-105532D01*
X473137Y-105553D01*
X473130Y-105558D01*
X473140Y-105570D01*
X473123Y-105583D01*
X473123Y-107059D01*
X471988Y-109799D01*
X471993Y-109818D01*
X471980Y-109823D01*
X471471Y-111723D01*
X471483Y-111754D01*
X471441Y-111844D01*
X471447Y-111869D01*
X471430Y-111876D01*
X471401Y-111982D01*
X471374Y-111988D01*
X468753Y-117609D01*
X468754Y-117615D01*
X468750Y-117617D01*
X468581Y-118024D01*
X468585Y-118037D01*
X468574Y-118040D01*
X467870Y-119740D01*
X466242Y-121369D01*
X466238Y-121394D01*
X466219Y-121395D01*
X464644Y-123645D01*
X464645Y-123679D01*
X464575Y-123749D01*
X464571Y-123774D01*
X464553Y-123775D01*
X464490Y-123865D01*
X464463Y-123861D01*
X459786Y-128538D01*
X459781Y-128571D01*
X459700Y-128628D01*
X459692Y-128652D01*
X459674Y-128650D01*
X459596Y-128727D01*
X459570Y-128719D01*
X454152Y-132513D01*
X454141Y-132545D01*
X454051Y-132587D01*
X454039Y-132609D01*
X454022Y-132604D01*
X453932Y-132666D01*
X453908Y-132654D01*
X447913Y-135449D01*
X447897Y-135479D01*
X447801Y-135504D01*
X447785Y-135525D01*
X447769Y-135516D01*
X447670Y-135563D01*
X447648Y-135545D01*
X441259Y-137257D01*
X441239Y-137284D01*
X441140Y-137292D01*
X441121Y-137310D01*
X441107Y-137298D01*
X441000Y-137327D01*
X440982Y-137306D01*
X434412Y-137881D01*
X434397Y-137894D01*
X434269Y-137894D01*
X434258Y-137902D01*
X434252Y-137895D01*
X434118Y-137907D01*
X434109Y-137894D01*
G37*
%LPD*%
%LPC*%
G36*
X-491765Y-92260D02*
X-491765Y-92260D01*
X-505174Y-78852D01*
X-505174Y-59888D01*
X-504889Y-59604D01*
X-504856Y-59370D01*
X-504894Y-59365D01*
X-504889Y-59326D01*
X-508064Y-56152D01*
X-508064Y-22588D01*
X-505299Y-19824D01*
X-505293Y-19780D01*
X-505280Y-19770D01*
X-505290Y-19757D01*
X-505266Y-19590D01*
X-505305Y-19585D01*
X-505299Y-19546D01*
X-508064Y-16782D01*
X-508064Y459D01*
X-508085Y488D01*
X-508074Y523D01*
X-508124Y539D01*
X-508205Y648D01*
X-508281Y590D01*
X-508372Y620D01*
X-512504Y-2273D01*
X-549435Y4239D01*
X-555137Y12382D01*
X-547313Y56752D01*
X-547325Y56775D01*
X-547310Y56786D01*
X-547310Y63582D01*
X-547375Y63668D01*
X-547368Y63721D01*
X-578809Y95162D01*
X-578912Y95177D01*
X-578935Y95206D01*
X-578938Y95206D01*
X-578948Y95220D01*
X-580348Y95220D01*
X-593757Y108629D01*
X-593757Y127592D01*
X-588623Y132726D01*
X-588615Y132777D01*
X-588577Y132806D01*
X-588606Y132844D01*
X-588589Y132959D01*
X-588606Y132961D01*
X-588601Y132977D01*
X-592785Y138953D01*
X-584222Y187516D01*
X-576079Y193218D01*
X-539148Y186706D01*
X-533445Y178562D01*
X-542008Y130000D01*
X-547614Y126075D01*
X-547687Y125851D01*
X-547632Y125833D01*
X-547640Y125775D01*
X-516477Y94612D01*
X-503624Y81759D01*
X-503624Y60674D01*
X-503482Y60486D01*
X-503469Y60496D01*
X-503462Y60481D01*
X-501499Y60135D01*
X-495797Y51992D01*
X-496360Y48800D01*
X-496329Y48739D01*
X-496339Y48671D01*
X-496291Y48664D01*
X-496253Y48590D01*
X-496147Y48644D01*
X-496028Y48627D01*
X-491765Y52890D01*
X-472802Y52890D01*
X-466139Y46227D01*
X-466086Y46220D01*
X-466054Y46177D01*
X-466025Y46200D01*
X-466009Y46178D01*
X-466000Y46178D01*
X-465968Y46203D01*
X-465905Y46194D01*
X-465896Y46256D01*
X-465812Y46320D01*
X-465831Y46345D01*
X-465804Y46366D01*
X-465804Y62631D01*
X-452395Y76040D01*
X-433432Y76040D01*
X-420023Y62631D01*
X-420023Y46366D01*
X-419991Y46323D01*
X-419999Y46271D01*
X-419946Y46264D01*
X-419881Y46177D01*
X-419846Y46204D01*
X-419827Y46178D01*
X-419818Y46178D01*
X-419743Y46235D01*
X-419688Y46227D01*
X-413025Y52890D01*
X-394062Y52890D01*
X-380653Y39482D01*
X-380653Y20518D01*
X-380938Y20234D01*
X-380945Y20181D01*
X-380987Y20150D01*
X-380955Y20108D01*
X-380971Y20000D01*
X-380932Y19995D01*
X-380938Y19956D01*
X-377763Y16782D01*
X-377763Y-16782D01*
X-380528Y-19546D01*
X-380543Y-19658D01*
X-380547Y-19661D01*
X-380544Y-19664D01*
X-380561Y-19780D01*
X-380522Y-19785D01*
X-380528Y-19824D01*
X-377763Y-22588D01*
X-377763Y-56152D01*
X-380938Y-59326D01*
X-380971Y-59560D01*
X-380932Y-59565D01*
X-380938Y-59604D01*
X-380653Y-59888D01*
X-380653Y-78852D01*
X-394062Y-92260D01*
X-413025Y-92260D01*
X-426434Y-78852D01*
X-426434Y-59888D01*
X-426149Y-59604D01*
X-426116Y-59370D01*
X-426154Y-59365D01*
X-426149Y-59326D01*
X-429323Y-56152D01*
X-429323Y-22588D01*
X-426559Y-19824D01*
X-426553Y-19780D01*
X-426540Y-19770D01*
X-426549Y-19757D01*
X-426526Y-19590D01*
X-426564Y-19585D01*
X-426559Y-19546D01*
X-429323Y-16782D01*
X-429323Y16782D01*
X-426149Y19956D01*
X-426141Y20010D01*
X-426100Y20041D01*
X-426131Y20083D01*
X-426116Y20190D01*
X-426154Y20195D01*
X-426149Y20234D01*
X-426434Y20518D01*
X-426434Y36784D01*
X-426465Y36826D01*
X-426458Y36879D01*
X-426511Y36886D01*
X-426575Y36972D01*
X-426616Y36942D01*
X-426630Y36961D01*
X-426649Y36961D01*
X-426711Y36914D01*
X-426768Y36922D01*
X-433432Y30259D01*
X-452395Y30259D01*
X-459058Y36922D01*
X-459111Y36930D01*
X-459142Y36972D01*
X-459171Y36951D01*
X-459178Y36961D01*
X-459197Y36961D01*
X-459218Y36945D01*
X-459292Y36956D01*
X-459302Y36882D01*
X-459385Y36819D01*
X-459371Y36800D01*
X-459393Y36784D01*
X-459393Y20518D01*
X-459678Y20234D01*
X-459685Y20181D01*
X-459727Y20150D01*
X-459696Y20108D01*
X-459711Y20000D01*
X-459672Y19995D01*
X-459678Y19956D01*
X-456503Y16782D01*
X-456503Y-16782D01*
X-459268Y-19546D01*
X-459284Y-19658D01*
X-459287Y-19661D01*
X-459284Y-19664D01*
X-459301Y-19780D01*
X-459262Y-19785D01*
X-459268Y-19824D01*
X-456503Y-22588D01*
X-456503Y-56152D01*
X-459678Y-59326D01*
X-459711Y-59560D01*
X-459672Y-59565D01*
X-459678Y-59604D01*
X-459393Y-59888D01*
X-459393Y-78852D01*
X-472802Y-92260D01*
X-491765Y-92260D01*
G37*
%LPD*%
%LPC*%
G36*
X59416Y-150843D02*
X59416Y-150843D01*
X46007Y-137434D01*
X46007Y-118471D01*
X51151Y-113328D01*
X51184Y-113094D01*
X51145Y-113089D01*
X51151Y-113050D01*
X46007Y-107907D01*
X46007Y-88944D01*
X57655Y-77296D01*
X57661Y-77249D01*
X57686Y-77231D01*
X57683Y-77228D01*
X57704Y-77212D01*
X57673Y-77170D01*
X57688Y-77063D01*
X57581Y-77047D01*
X57516Y-76961D01*
X40305Y-76961D01*
X39575Y-76231D01*
X39474Y-76217D01*
X39458Y-76196D01*
X39453Y-76196D01*
X39436Y-76174D01*
X39239Y-76174D01*
X32094Y-69029D01*
X32094Y69029D01*
X39239Y76174D01*
X39436Y76174D01*
X39522Y76239D01*
X39575Y76231D01*
X40305Y76961D01*
X69931Y76961D01*
X70661Y76231D01*
X70766Y76217D01*
X70790Y76184D01*
X70793Y76184D01*
X70800Y76174D01*
X123163Y76174D01*
X130308Y69029D01*
X130308Y-69029D01*
X124136Y-75200D01*
X124129Y-75252D01*
X124087Y-75284D01*
X124118Y-75326D01*
X124103Y-75433D01*
X124210Y-75448D01*
X124275Y-75535D01*
X137434Y-75535D01*
X142578Y-80678D01*
X142677Y-80692D01*
X142687Y-80706D01*
X142746Y-80706D01*
X142751Y-80703D01*
X142811Y-80711D01*
X142817Y-80673D01*
X142855Y-80678D01*
X147999Y-75535D01*
X166962Y-75535D01*
X180371Y-88944D01*
X180371Y-107907D01*
X175227Y-113050D01*
X175194Y-113284D01*
X175233Y-113289D01*
X175227Y-113328D01*
X180371Y-118471D01*
X180371Y-137434D01*
X166962Y-150843D01*
X147999Y-150843D01*
X142855Y-145700D01*
X142622Y-145666D01*
X142616Y-145705D01*
X142578Y-145700D01*
X137434Y-150843D01*
X118471Y-150843D01*
X113328Y-145700D01*
X113094Y-145666D01*
X113089Y-145705D01*
X113050Y-145700D01*
X107907Y-150843D01*
X88944Y-150843D01*
X83800Y-145700D01*
X83567Y-145666D01*
X83561Y-145705D01*
X83523Y-145700D01*
X78379Y-150843D01*
X59416Y-150843D01*
G37*
%LPD*%
%LPC*%
G36*
X-69931Y-76961D02*
X-69931Y-76961D01*
X-70661Y-76231D01*
X-70762Y-76217D01*
X-70778Y-76196D01*
X-70784Y-76196D01*
X-70800Y-76174D01*
X-123163Y-76174D01*
X-130308Y-69029D01*
X-130308Y-35200D01*
X-130339Y-35158D01*
X-130332Y-35106D01*
X-130385Y-35098D01*
X-130449Y-35012D01*
X-130484Y-35038D01*
X-130504Y-35012D01*
X-130512Y-35012D01*
X-130588Y-35069D01*
X-130642Y-35062D01*
X-138156Y-42575D01*
X-157119Y-42575D01*
X-167184Y-32511D01*
X-167288Y-32496D01*
X-167313Y-32463D01*
X-167332Y-32463D01*
X-167362Y-32485D01*
X-167417Y-32477D01*
X-167423Y-32516D01*
X-167461Y-32511D01*
X-177526Y-42575D01*
X-196489Y-42575D01*
X-209898Y-29167D01*
X-209898Y-13244D01*
X-210040Y-13056D01*
X-210071Y-13079D01*
X-210094Y-13048D01*
X-226017Y-13048D01*
X-231161Y-7904D01*
X-231394Y-7871D01*
X-231399Y-7910D01*
X-231438Y-7904D01*
X-236581Y-13048D01*
X-255545Y-13048D01*
X-260688Y-7904D01*
X-260921Y-7871D01*
X-260927Y-7910D01*
X-260965Y-7904D01*
X-266109Y-13048D01*
X-285072Y-13048D01*
X-298481Y361D01*
X-298481Y19324D01*
X-285072Y32733D01*
X-266109Y32733D01*
X-260965Y27589D01*
X-260863Y27575D01*
X-260843Y27548D01*
X-260811Y27548D01*
X-260789Y27564D01*
X-260732Y27556D01*
X-260727Y27595D01*
X-260688Y27589D01*
X-255545Y32733D01*
X-236581Y32733D01*
X-231438Y27589D01*
X-231335Y27575D01*
X-231315Y27548D01*
X-231283Y27548D01*
X-231261Y27564D01*
X-231204Y27556D01*
X-231199Y27595D01*
X-231161Y27589D01*
X-226017Y32733D01*
X-207054Y32733D01*
X-193645Y19324D01*
X-193645Y3401D01*
X-193503Y3213D01*
X-193472Y3236D01*
X-193449Y3205D01*
X-177526Y3205D01*
X-167461Y-6859D01*
X-167228Y-6892D01*
X-167223Y-6854D01*
X-167184Y-6859D01*
X-157119Y3205D01*
X-138156Y3205D01*
X-130642Y-4308D01*
X-130590Y-4316D01*
X-130558Y-4358D01*
X-130516Y-4326D01*
X-130409Y-4341D01*
X-130394Y-4234D01*
X-130308Y-4170D01*
X-130308Y69029D01*
X-123163Y76174D01*
X-70800Y76174D01*
X-70714Y76239D01*
X-70661Y76231D01*
X-69931Y76961D01*
X-40305Y76961D01*
X-39575Y76231D01*
X-39470Y76217D01*
X-39446Y76184D01*
X-39443Y76184D01*
X-39436Y76174D01*
X-39239Y76174D01*
X-32094Y69029D01*
X-32094Y-69029D01*
X-39239Y-76174D01*
X-39436Y-76174D01*
X-39522Y-76239D01*
X-39575Y-76231D01*
X-40305Y-76961D01*
X-69931Y-76961D01*
G37*
%LPD*%
%LPC*%
G36*
X-176804Y390495D02*
X-176804Y390495D01*
X-190213Y403904D01*
X-190213Y404894D01*
X-190245Y404936D01*
X-190238Y404989D01*
X-190290Y404996D01*
X-190355Y405082D01*
X-190399Y405050D01*
X-190409Y405064D01*
X-190436Y405064D01*
X-190488Y405024D01*
X-190548Y405033D01*
X-195243Y400338D01*
X-214206Y400338D01*
X-226239Y412371D01*
X-226473Y412404D01*
X-226478Y412366D01*
X-226517Y412371D01*
X-238550Y400338D01*
X-257513Y400338D01*
X-270922Y413747D01*
X-270922Y421423D01*
X-270949Y421458D01*
X-270939Y421502D01*
X-270991Y421514D01*
X-271064Y421611D01*
X-271145Y421550D01*
X-271244Y421573D01*
X-293412Y402972D01*
X-303316Y403838D01*
X-327421Y432565D01*
X-326555Y442469D01*
X-288780Y474166D01*
X-278876Y473299D01*
X-256127Y446189D01*
X-256009Y446161D01*
X-255977Y446119D01*
X-238550Y446119D01*
X-226517Y434085D01*
X-226283Y434052D01*
X-226278Y434091D01*
X-226239Y434085D01*
X-214206Y446119D01*
X-195243Y446119D01*
X-186548Y437424D01*
X-186495Y437416D01*
X-186464Y437374D01*
X-186422Y437406D01*
X-186315Y437391D01*
X-186299Y437498D01*
X-186213Y437563D01*
X-186213Y450586D01*
X-180340Y464765D01*
X-169489Y475616D01*
X-155311Y481489D01*
X-139965Y481489D01*
X-125786Y475616D01*
X-114935Y464765D01*
X-109062Y450586D01*
X-109062Y436472D01*
X-108921Y436284D01*
X-108890Y436307D01*
X-108866Y436276D01*
X-98786Y436276D01*
X-93642Y431133D01*
X-93409Y431100D01*
X-93404Y431138D01*
X-93365Y431133D01*
X-88222Y436276D01*
X-69258Y436276D01*
X-55850Y422867D01*
X-55850Y403904D01*
X-69258Y390495D01*
X-88222Y390495D01*
X-93365Y395639D01*
X-93599Y395672D01*
X-93604Y395633D01*
X-93642Y395639D01*
X-98786Y390495D01*
X-117749Y390495D01*
X-122893Y395639D01*
X-123126Y395672D01*
X-123132Y395633D01*
X-123170Y395639D01*
X-128314Y390495D01*
X-147277Y390495D01*
X-152420Y395639D01*
X-152654Y395672D01*
X-152659Y395633D01*
X-152698Y395639D01*
X-157841Y390495D01*
X-176804Y390495D01*
G37*
%LPD*%
G36*
X-44103Y-64031D02*
X-44103Y-64031D01*
X-44126Y-64000D01*
X-44095Y-63976D01*
X-44095Y63976D01*
X-44237Y64165D01*
X-44268Y64141D01*
X-44291Y64172D01*
X-118110Y64172D01*
X-118299Y64031D01*
X-118275Y64000D01*
X-118306Y63976D01*
X-118306Y-63976D01*
X-118165Y-64165D01*
X-118134Y-64141D01*
X-118110Y-64172D01*
X-44291Y-64172D01*
X-44103Y-64031D01*
G37*
G36*
X118299Y-64031D02*
X118299Y-64031D01*
X118275Y-64000D01*
X118306Y-63976D01*
X118306Y63976D01*
X118165Y64165D01*
X118134Y64141D01*
X118110Y64172D01*
X44291Y64172D01*
X44103Y64031D01*
X44126Y64000D01*
X44095Y63976D01*
X44095Y-63976D01*
X44237Y-64165D01*
X44268Y-64141D01*
X44291Y-64172D01*
X118110Y-64172D01*
X118299Y-64031D01*
G37*
%LPC*%
G36*
X-497838Y-297805D02*
X-497838Y-297805D01*
X-511247Y-284396D01*
X-511247Y-266305D01*
X-511263Y-266283D01*
X-511253Y-266258D01*
X-511296Y-266239D01*
X-511389Y-266117D01*
X-511460Y-266170D01*
X-511541Y-266135D01*
X-533447Y-278783D01*
X-543050Y-276210D01*
X-567706Y-233505D01*
X-565133Y-223901D01*
X-547406Y-213667D01*
X-547403Y-213665D01*
X-547350Y-213541D01*
X-547333Y-213529D01*
X-547340Y-213519D01*
X-547310Y-213448D01*
X-547371Y-213422D01*
X-547362Y-213356D01*
X-554386Y-206332D01*
X-554386Y-187369D01*
X-540978Y-173960D01*
X-522014Y-173960D01*
X-508606Y-187369D01*
X-508606Y-190926D01*
X-508589Y-190948D01*
X-508600Y-190973D01*
X-508556Y-190991D01*
X-508464Y-191114D01*
X-508431Y-191089D01*
X-508409Y-191117D01*
X-508401Y-191117D01*
X-508350Y-191079D01*
X-508311Y-191096D01*
X-481513Y-175624D01*
X-471910Y-178197D01*
X-447254Y-220902D01*
X-449828Y-230505D01*
X-482304Y-249255D01*
X-491907Y-246682D01*
X-512660Y-210736D01*
X-512877Y-210643D01*
X-512903Y-210704D01*
X-512969Y-210695D01*
X-518168Y-215895D01*
X-518175Y-215945D01*
X-518208Y-215969D01*
X-518184Y-216002D01*
X-518202Y-216128D01*
X-518198Y-216129D01*
X-518200Y-216132D01*
X-498398Y-250429D01*
X-498997Y-252665D01*
X-498969Y-252736D01*
X-498979Y-252811D01*
X-498936Y-252817D01*
X-498909Y-252884D01*
X-498832Y-252853D01*
X-498802Y-252893D01*
X-498788Y-252893D01*
X-498727Y-252846D01*
X-498669Y-252855D01*
X-497838Y-252024D01*
X-478875Y-252024D01*
X-465466Y-265433D01*
X-465466Y-284396D01*
X-478875Y-297805D01*
X-497838Y-297805D01*
G37*
%LPD*%
%LPC*%
G36*
X231798Y-555493D02*
X231798Y-555493D01*
X218972Y-520255D01*
X221284Y-515295D01*
X221280Y-515278D01*
X221295Y-515267D01*
X221272Y-515236D01*
X221235Y-515065D01*
X221156Y-515082D01*
X221106Y-515016D01*
X216896Y-515016D01*
X203487Y-501608D01*
X203487Y-482644D01*
X204477Y-481655D01*
X204483Y-481614D01*
X204492Y-481548D01*
X204535Y-481516D01*
X204535Y-480624D01*
X204505Y-480584D01*
X204523Y-480557D01*
X198774Y-464761D01*
X202975Y-455751D01*
X249313Y-438885D01*
X258323Y-443087D01*
X271149Y-478326D01*
X266948Y-487336D01*
X249397Y-493724D01*
X249340Y-493812D01*
X249276Y-493860D01*
X249293Y-493883D01*
X249286Y-493895D01*
X249268Y-493908D01*
X249268Y-501466D01*
X249273Y-501473D01*
X249269Y-501480D01*
X249287Y-501492D01*
X249410Y-501655D01*
X249469Y-501610D01*
X249531Y-501651D01*
X269511Y-494379D01*
X278521Y-498580D01*
X291347Y-533819D01*
X287146Y-542829D01*
X240808Y-559695D01*
X231798Y-555493D01*
G37*
%LPD*%
%LPC*%
G36*
X-216174Y-564229D02*
X-216174Y-564229D01*
X-229583Y-550820D01*
X-229583Y-550178D01*
X-229637Y-550106D01*
X-229664Y-550019D01*
X-229695Y-550029D01*
X-229725Y-549989D01*
X-229766Y-550020D01*
X-229779Y-550003D01*
X-229787Y-550003D01*
X-229908Y-550093D01*
X-229964Y-550110D01*
X-231995Y-555690D01*
X-241005Y-559892D01*
X-287343Y-543026D01*
X-291544Y-534016D01*
X-278718Y-498777D01*
X-269708Y-494576D01*
X-223370Y-511441D01*
X-219169Y-520451D01*
X-219433Y-521178D01*
X-219409Y-521258D01*
X-219421Y-521340D01*
X-219382Y-521345D01*
X-219364Y-521404D01*
X-219239Y-521365D01*
X-219225Y-521367D01*
X-219223Y-521370D01*
X-219205Y-521370D01*
X-219110Y-521384D01*
X-216174Y-518448D01*
X-201405Y-518448D01*
X-201363Y-518416D01*
X-201310Y-518424D01*
X-201303Y-518371D01*
X-201217Y-518306D01*
X-201281Y-518220D01*
X-201266Y-518113D01*
X-207930Y-511450D01*
X-207930Y-492487D01*
X-194521Y-479078D01*
X-175558Y-479078D01*
X-162149Y-492487D01*
X-162149Y-511450D01*
X-175558Y-524859D01*
X-190327Y-524859D01*
X-190369Y-524891D01*
X-190422Y-524883D01*
X-190429Y-524936D01*
X-190516Y-525001D01*
X-190451Y-525087D01*
X-190466Y-525194D01*
X-183802Y-531857D01*
X-183802Y-550820D01*
X-197211Y-564229D01*
X-216174Y-564229D01*
G37*
%LPD*%
%LPC*%
G36*
X100612Y-540396D02*
X100612Y-540396D01*
X87786Y-505157D01*
X91988Y-496147D01*
X93183Y-495712D01*
X93232Y-495636D01*
X93304Y-495582D01*
X93285Y-495556D01*
X93312Y-495514D01*
X93198Y-495440D01*
X93116Y-495331D01*
X88944Y-495331D01*
X75535Y-481922D01*
X75535Y-462959D01*
X88944Y-449550D01*
X104866Y-449550D01*
X105055Y-449409D01*
X105031Y-449378D01*
X105062Y-449354D01*
X105062Y-433432D01*
X118471Y-420023D01*
X137434Y-420023D01*
X150843Y-433432D01*
X150843Y-452395D01*
X137434Y-465804D01*
X121512Y-465804D01*
X121323Y-465945D01*
X121347Y-465977D01*
X121316Y-466000D01*
X121316Y-481922D01*
X116360Y-486878D01*
X116348Y-486961D01*
X116303Y-487030D01*
X116335Y-487051D01*
X116327Y-487112D01*
X116456Y-487130D01*
X116565Y-487201D01*
X138326Y-479281D01*
X147336Y-483483D01*
X160162Y-518722D01*
X155960Y-527732D01*
X109623Y-544597D01*
X100612Y-540396D01*
G37*
%LPD*%
%LPC*%
G36*
X-25230Y341283D02*
X-25230Y341283D01*
X-38638Y354692D01*
X-38638Y373655D01*
X-25230Y387064D01*
X-6266Y387064D01*
X-1123Y381920D01*
X-890Y381887D01*
X-884Y381925D01*
X-846Y381920D01*
X4298Y387064D01*
X23261Y387064D01*
X28405Y381920D01*
X28638Y381887D01*
X28643Y381925D01*
X28682Y381920D01*
X33825Y387064D01*
X52789Y387064D01*
X57932Y381920D01*
X58165Y381887D01*
X58171Y381925D01*
X58209Y381920D01*
X63353Y387064D01*
X82316Y387064D01*
X95725Y373655D01*
X95725Y354692D01*
X82316Y341283D01*
X63353Y341283D01*
X58209Y346426D01*
X57976Y346459D01*
X57971Y346421D01*
X57932Y346426D01*
X52789Y341283D01*
X33825Y341283D01*
X28682Y346426D01*
X28448Y346459D01*
X28443Y346421D01*
X28405Y346426D01*
X23261Y341283D01*
X4298Y341283D01*
X-846Y346426D01*
X-1079Y346459D01*
X-1084Y346421D01*
X-1123Y346426D01*
X-6266Y341283D01*
X-25230Y341283D01*
G37*
%LPD*%
%LPC*%
G36*
X-432852Y-348969D02*
X-432852Y-348969D01*
X-457508Y-306264D01*
X-454934Y-296660D01*
X-422458Y-277910D01*
X-416838Y-279416D01*
X-416619Y-279328D01*
X-416644Y-279266D01*
X-416591Y-279227D01*
X-416591Y-266109D01*
X-403182Y-252700D01*
X-384219Y-252700D01*
X-370810Y-266109D01*
X-370810Y-285072D01*
X-384219Y-298481D01*
X-402125Y-298481D01*
X-402146Y-298497D01*
X-402172Y-298487D01*
X-402190Y-298530D01*
X-402313Y-298623D01*
X-402260Y-298694D01*
X-402294Y-298775D01*
X-388199Y-323188D01*
X-390772Y-332791D01*
X-423249Y-351542D01*
X-432852Y-348969D01*
G37*
%LPD*%
%LPC*%
G36*
X-267145Y-487533D02*
X-267145Y-487533D01*
X-271346Y-478522D01*
X-258520Y-443283D01*
X-249510Y-439082D01*
X-208193Y-454120D01*
X-208185Y-454118D01*
X-208180Y-454124D01*
X-208163Y-454111D01*
X-208140Y-454104D01*
X-208126Y-454104D01*
X-208117Y-454097D01*
X-207967Y-454051D01*
X-207984Y-453997D01*
X-207938Y-453962D01*
X-207947Y-453949D01*
X-207930Y-453936D01*
X-207930Y-443274D01*
X-194521Y-429865D01*
X-175558Y-429865D01*
X-162149Y-443274D01*
X-162149Y-462237D01*
X-175558Y-475646D01*
X-194521Y-475646D01*
X-200418Y-469750D01*
X-200435Y-469747D01*
X-200441Y-469730D01*
X-200478Y-469741D01*
X-200651Y-469716D01*
X-200662Y-469797D01*
X-200741Y-469821D01*
X-211797Y-500197D01*
X-220807Y-504398D01*
X-267145Y-487533D01*
G37*
%LPD*%
%LPC*%
G36*
X41539Y401669D02*
X41539Y401669D01*
X27361Y407541D01*
X16510Y418393D01*
X10637Y432571D01*
X10637Y447917D01*
X16510Y462096D01*
X27361Y472947D01*
X41539Y478820D01*
X56886Y478820D01*
X71064Y472947D01*
X81915Y462096D01*
X87788Y447917D01*
X87788Y432571D01*
X81915Y418393D01*
X71064Y407541D01*
X56886Y401669D01*
X41539Y401669D01*
G37*
%LPD*%
%LPC*%
G36*
X-568697Y-97631D02*
X-568697Y-97631D01*
X-582875Y-91758D01*
X-593726Y-80906D01*
X-599599Y-66728D01*
X-599599Y-51382D01*
X-593726Y-37204D01*
X-582875Y-26352D01*
X-568697Y-20480D01*
X-553351Y-20480D01*
X-539172Y-26352D01*
X-528321Y-37204D01*
X-522448Y-51382D01*
X-522448Y-66728D01*
X-528321Y-80906D01*
X-539172Y-91758D01*
X-553351Y-97631D01*
X-568697Y-97631D01*
G37*
%LPD*%
%LPC*%
G36*
X-312791Y-97631D02*
X-312791Y-97631D01*
X-326969Y-91758D01*
X-337821Y-80906D01*
X-343694Y-66728D01*
X-343694Y-51382D01*
X-337821Y-37204D01*
X-326969Y-26352D01*
X-312791Y-20480D01*
X-297445Y-20480D01*
X-283267Y-26352D01*
X-272415Y-37204D01*
X-266543Y-51382D01*
X-266543Y-66728D01*
X-272415Y-80906D01*
X-283267Y-91758D01*
X-297445Y-97631D01*
X-312791Y-97631D01*
G37*
%LPD*%
%LPC*%
G36*
X-9482Y-446119D02*
X-9482Y-446119D01*
X-22890Y-432710D01*
X-22890Y-413747D01*
X-9482Y-400338D01*
X6441Y-400338D01*
X6629Y-400196D01*
X6606Y-400165D01*
X6637Y-400142D01*
X6637Y-384219D01*
X20046Y-370810D01*
X39009Y-370810D01*
X52418Y-384219D01*
X52418Y-403182D01*
X39009Y-416591D01*
X23086Y-416591D01*
X22898Y-416733D01*
X22922Y-416764D01*
X22890Y-416787D01*
X22890Y-432710D01*
X9482Y-446119D01*
X-9482Y-446119D01*
G37*
%LPD*%
%LPC*%
G36*
X-156157Y-527929D02*
X-156157Y-527929D01*
X-160359Y-518918D01*
X-147533Y-483680D01*
X-138522Y-479478D01*
X-112612Y-488909D01*
X-112564Y-488894D01*
X-112545Y-488921D01*
X-108629Y-488921D01*
X-106399Y-491150D01*
X-106338Y-491159D01*
X-106327Y-491196D01*
X-92185Y-496344D01*
X-87983Y-505354D01*
X-100809Y-540593D01*
X-109820Y-544794D01*
X-156157Y-527929D01*
G37*
%LPD*%
%LPC*%
G36*
X449828Y-229324D02*
X449828Y-229324D01*
X447254Y-219720D01*
X459367Y-198742D01*
X459358Y-198670D01*
X459393Y-198643D01*
X459393Y-197211D01*
X461403Y-195201D01*
X461408Y-195164D01*
X461434Y-195161D01*
X471910Y-177016D01*
X481513Y-174442D01*
X513990Y-193193D01*
X516563Y-202796D01*
X491907Y-245501D01*
X482304Y-248074D01*
X449828Y-229324D01*
G37*
%LPD*%
%LPC*%
G36*
X483260Y121123D02*
X483260Y121123D01*
X474697Y169686D01*
X480399Y177829D01*
X491928Y179862D01*
X491985Y179923D01*
X492033Y179916D01*
X492487Y180371D01*
X494796Y180371D01*
X494817Y180386D01*
X494830Y180374D01*
X517330Y184341D01*
X525474Y178639D01*
X534037Y130076D01*
X528335Y121933D01*
X491404Y115421D01*
X483260Y121123D01*
G37*
%LPD*%
%LPC*%
G36*
X120810Y-595890D02*
X120810Y-595890D01*
X115311Y-580780D01*
X115260Y-580746D01*
X115265Y-580708D01*
X114905Y-580348D01*
X114905Y-579699D01*
X114875Y-579659D01*
X114893Y-579632D01*
X107984Y-560651D01*
X112186Y-551640D01*
X158524Y-534775D01*
X167534Y-538976D01*
X180360Y-574215D01*
X176158Y-583226D01*
X147347Y-593712D01*
X147318Y-593757D01*
X147259Y-593757D01*
X147220Y-593786D01*
X147192Y-593768D01*
X129821Y-600091D01*
X120810Y-595890D01*
G37*
%LPD*%
%LPC*%
G36*
X561927Y15062D02*
X561927Y15062D01*
X553365Y63624D01*
X559067Y71768D01*
X595998Y78280D01*
X604141Y72578D01*
X608272Y49150D01*
X608334Y49092D01*
X608327Y49045D01*
X608520Y48852D01*
X608520Y47761D01*
X608536Y47740D01*
X608523Y47727D01*
X612704Y24015D01*
X607002Y15871D01*
X570071Y9360D01*
X561927Y15062D01*
G37*
%LPD*%
%LPC*%
G36*
X-483995Y-378496D02*
X-483995Y-378496D01*
X-508651Y-335791D01*
X-506078Y-326188D01*
X-473602Y-307438D01*
X-463998Y-310011D01*
X-439343Y-352716D01*
X-441916Y-362319D01*
X-474392Y-381069D01*
X-483995Y-378496D01*
G37*
%LPD*%
%LPC*%
G36*
X500971Y-258851D02*
X500971Y-258851D01*
X498398Y-249248D01*
X523053Y-206543D01*
X532657Y-203970D01*
X565133Y-222720D01*
X567706Y-232323D01*
X543050Y-275028D01*
X533447Y-277602D01*
X500971Y-258851D01*
G37*
%LPD*%
%LPC*%
G36*
X390772Y-331610D02*
X390772Y-331610D01*
X388199Y-322007D01*
X412855Y-279302D01*
X422458Y-276729D01*
X454934Y-295479D01*
X457508Y-305082D01*
X432852Y-347787D01*
X423249Y-350360D01*
X390772Y-331610D01*
G37*
%LPD*%
%LPC*%
G36*
X441916Y-361138D02*
X441916Y-361138D01*
X439343Y-351535D01*
X463998Y-308830D01*
X473602Y-306257D01*
X506078Y-325007D01*
X508651Y-334610D01*
X483995Y-377315D01*
X474392Y-379888D01*
X441916Y-361138D01*
G37*
%LPD*%
%LPC*%
G36*
X-83711Y554928D02*
X-83711Y554928D01*
X-90741Y561958D01*
X-90741Y599459D01*
X-83711Y606489D01*
X-34399Y606489D01*
X-27369Y599459D01*
X-27369Y561958D01*
X-34399Y554928D01*
X-83711Y554928D01*
G37*
%LPD*%
%LPC*%
G36*
X34399Y554928D02*
X34399Y554928D01*
X27369Y561958D01*
X27369Y599459D01*
X34399Y606489D01*
X83711Y606489D01*
X90741Y599459D01*
X90741Y561958D01*
X83711Y554928D01*
X34399Y554928D01*
G37*
%LPD*%
%LPC*%
G36*
X34399Y495873D02*
X34399Y495873D01*
X27369Y502903D01*
X27369Y540404D01*
X34399Y547434D01*
X83711Y547434D01*
X90741Y540404D01*
X90741Y502903D01*
X83711Y495873D01*
X34399Y495873D01*
G37*
%LPD*%
%LPC*%
G36*
X-83711Y495873D02*
X-83711Y495873D01*
X-90741Y502903D01*
X-90741Y540404D01*
X-83711Y547434D01*
X-34399Y547434D01*
X-27369Y540404D01*
X-27369Y502903D01*
X-34399Y495873D01*
X-83711Y495873D01*
G37*
%LPD*%
%LPC*%
G36*
X293007Y479907D02*
X293007Y479907D01*
X292140Y489811D01*
X316245Y518538D01*
X326149Y519405D01*
X363924Y487708D01*
X364790Y477804D01*
X340685Y449077D01*
X330781Y448210D01*
X293007Y479907D01*
G37*
%LPD*%
%LPC*%
G36*
X-341276Y449077D02*
X-341276Y449077D01*
X-365381Y477804D01*
X-364515Y487708D01*
X-326740Y519405D01*
X-316836Y518538D01*
X-292731Y489811D01*
X-293597Y479907D01*
X-331372Y448210D01*
X-341276Y449077D01*
G37*
%LPD*%
%LPC*%
G36*
X255047Y434668D02*
X255047Y434668D01*
X254180Y444572D01*
X278285Y473299D01*
X288189Y474166D01*
X325964Y442469D01*
X326831Y432565D01*
X302726Y403838D01*
X292822Y402972D01*
X255047Y434668D01*
G37*
%LPD*%
%LPC*%
G36*
X383484Y403987D02*
X383484Y403987D01*
X382618Y413891D01*
X406723Y442618D01*
X416627Y443485D01*
X454402Y411788D01*
X455268Y401884D01*
X431163Y373157D01*
X421259Y372291D01*
X383484Y403987D01*
G37*
%LPD*%
%LPC*%
G36*
X-431754Y373157D02*
X-431754Y373157D01*
X-455859Y401884D01*
X-454992Y411788D01*
X-417218Y443485D01*
X-407314Y442618D01*
X-383209Y413891D01*
X-384075Y403987D01*
X-421850Y372291D01*
X-431754Y373157D01*
G37*
%LPD*%
%LPC*%
G36*
X-393794Y327918D02*
X-393794Y327918D01*
X-417899Y356645D01*
X-417032Y366549D01*
X-379258Y398246D01*
X-369354Y397380D01*
X-345249Y368653D01*
X-346115Y358749D01*
X-383890Y327052D01*
X-393794Y327918D01*
G37*
%LPD*%
%LPC*%
G36*
X345524Y358749D02*
X345524Y358749D01*
X344658Y368653D01*
X368763Y397380D01*
X378667Y398246D01*
X416442Y366549D01*
X417308Y356645D01*
X393203Y327918D01*
X383299Y327052D01*
X345524Y358749D01*
G37*
%LPD*%
%LPC*%
G36*
X-176355Y-583422D02*
X-176355Y-583422D01*
X-180557Y-574412D01*
X-167731Y-539173D01*
X-158720Y-534972D01*
X-112383Y-551837D01*
X-108181Y-560847D01*
X-121007Y-596086D01*
X-130018Y-600288D01*
X-176355Y-583422D01*
G37*
%LPD*%
%LPC*%
G36*
X-607593Y14493D02*
X-607593Y14493D01*
X-613295Y22637D01*
X-604732Y71200D01*
X-596588Y76902D01*
X-559657Y70390D01*
X-553955Y62246D01*
X-562518Y13684D01*
X-570662Y7982D01*
X-607593Y14493D01*
G37*
%LPD*%
%LPC*%
G36*
X541418Y131378D02*
X541418Y131378D01*
X532855Y179940D01*
X538557Y188084D01*
X575488Y194596D01*
X583632Y188894D01*
X592195Y140331D01*
X586492Y132187D01*
X549561Y125676D01*
X541418Y131378D01*
G37*
%LPD*%
%LPC*%
G36*
X-528925Y120555D02*
X-528925Y120555D01*
X-534627Y128698D01*
X-526064Y177261D01*
X-517921Y182963D01*
X-480990Y176451D01*
X-475288Y168308D01*
X-483851Y119745D01*
X-491994Y114043D01*
X-528925Y120555D01*
G37*
%LPD*%
%LPC*%
G36*
X503770Y4807D02*
X503770Y4807D01*
X495207Y53370D01*
X500909Y61513D01*
X537840Y68025D01*
X545984Y62323D01*
X554546Y13760D01*
X548844Y5617D01*
X511913Y-895D01*
X503770Y4807D01*
G37*
%LPD*%
%LPC*%
G36*
X-176804Y331440D02*
X-176804Y331440D01*
X-190213Y344849D01*
X-190213Y363812D01*
X-176804Y377221D01*
X-157841Y377221D01*
X-152698Y372078D01*
X-152464Y372044D01*
X-152459Y372083D01*
X-152420Y372078D01*
X-147277Y377221D01*
X-128314Y377221D01*
X-114905Y363812D01*
X-114905Y344849D01*
X-128314Y331440D01*
X-147277Y331440D01*
X-152420Y336584D01*
X-152522Y336598D01*
X-152538Y336621D01*
X-152580Y336621D01*
X-152595Y336609D01*
X-152654Y336617D01*
X-152659Y336578D01*
X-152698Y336584D01*
X-157841Y331440D01*
X-176804Y331440D01*
G37*
%LPD*%
%LPC*%
G36*
X-33104Y-249268D02*
X-33104Y-249268D01*
X-46512Y-235859D01*
X-46512Y-216896D01*
X-33104Y-203487D01*
X-14140Y-203487D01*
X-732Y-216896D01*
X-732Y-235859D01*
X-14140Y-249268D01*
X-33104Y-249268D01*
G37*
%LPD*%
%LPC*%
G36*
X230676Y341283D02*
X230676Y341283D01*
X217267Y354692D01*
X217267Y373655D01*
X230676Y387064D01*
X249639Y387064D01*
X263048Y373655D01*
X263048Y354692D01*
X249639Y341283D01*
X230676Y341283D01*
G37*
%LPD*%
%LPC*%
G36*
X29888Y-288638D02*
X29888Y-288638D01*
X16480Y-275230D01*
X16480Y-256266D01*
X29888Y-242858D01*
X48852Y-242858D01*
X62260Y-256266D01*
X62260Y-275230D01*
X48852Y-288638D01*
X29888Y-288638D01*
G37*
%LPD*%
%LPC*%
G36*
X167684Y301913D02*
X167684Y301913D01*
X154275Y315321D01*
X154275Y334285D01*
X167684Y347694D01*
X186647Y347694D01*
X200056Y334285D01*
X200056Y315321D01*
X186647Y301913D01*
X167684Y301913D01*
G37*
%LPD*%
%LPC*%
G36*
X-58694Y301913D02*
X-58694Y301913D01*
X-72103Y315321D01*
X-72103Y334285D01*
X-58694Y347694D01*
X-39731Y347694D01*
X-26322Y334285D01*
X-26322Y315321D01*
X-39731Y301913D01*
X-58694Y301913D01*
G37*
%LPD*%
%LPC*%
G36*
X-176804Y-101631D02*
X-176804Y-101631D01*
X-190213Y-88222D01*
X-190213Y-69258D01*
X-176804Y-55850D01*
X-157841Y-55850D01*
X-144432Y-69258D01*
X-144432Y-88222D01*
X-157841Y-101631D01*
X-176804Y-101631D01*
G37*
%LPD*%
%LPC*%
G36*
X222802Y-367379D02*
X222802Y-367379D01*
X209393Y-353970D01*
X209393Y-335007D01*
X222802Y-321598D01*
X241765Y-321598D01*
X255174Y-335007D01*
X255174Y-353970D01*
X241765Y-367379D01*
X222802Y-367379D01*
G37*
%LPD*%
%LPC*%
G36*
X-452395Y-121316D02*
X-452395Y-121316D01*
X-465804Y-107907D01*
X-465804Y-88944D01*
X-452395Y-75535D01*
X-433432Y-75535D01*
X-420023Y-88944D01*
X-420023Y-107907D01*
X-433432Y-121316D01*
X-452395Y-121316D01*
G37*
%LPD*%
%LPC*%
G36*
X29888Y-367379D02*
X29888Y-367379D01*
X16480Y-353970D01*
X16480Y-335007D01*
X29888Y-321598D01*
X48852Y-321598D01*
X62260Y-335007D01*
X62260Y-353970D01*
X48852Y-367379D01*
X29888Y-367379D01*
G37*
%LPD*%
%LPC*%
G36*
X-200426Y-367379D02*
X-200426Y-367379D01*
X-213835Y-353970D01*
X-213835Y-335007D01*
X-200426Y-321598D01*
X-181463Y-321598D01*
X-168054Y-335007D01*
X-168054Y-353970D01*
X-181463Y-367379D01*
X-200426Y-367379D01*
G37*
%LPD*%
%LPC*%
G36*
X-251608Y-367379D02*
X-251608Y-367379D01*
X-265016Y-353970D01*
X-265016Y-335007D01*
X-251608Y-321598D01*
X-232644Y-321598D01*
X-219235Y-335007D01*
X-219235Y-353970D01*
X-232644Y-367379D01*
X-251608Y-367379D01*
G37*
%LPD*%
%LPC*%
G36*
X-151214Y-180371D02*
X-151214Y-180371D01*
X-164623Y-166962D01*
X-164623Y-147999D01*
X-151214Y-134590D01*
X-132251Y-134590D01*
X-118842Y-147999D01*
X-118842Y-166962D01*
X-132251Y-180371D01*
X-151214Y-180371D01*
G37*
%LPD*%
%LPC*%
G36*
X-202395Y-180371D02*
X-202395Y-180371D01*
X-215804Y-166962D01*
X-215804Y-147999D01*
X-202395Y-134590D01*
X-183432Y-134590D01*
X-170023Y-147999D01*
X-170023Y-166962D01*
X-183432Y-180371D01*
X-202395Y-180371D01*
G37*
%LPD*%
%LPC*%
G36*
X-251608Y-426434D02*
X-251608Y-426434D01*
X-265016Y-413025D01*
X-265016Y-394062D01*
X-251608Y-380653D01*
X-232644Y-380653D01*
X-219235Y-394062D01*
X-219235Y-413025D01*
X-232644Y-426434D01*
X-251608Y-426434D01*
G37*
%LPD*%
%LPC*%
G36*
X222802Y-426434D02*
X222802Y-426434D01*
X209393Y-413025D01*
X209393Y-394062D01*
X222802Y-380653D01*
X241765Y-380653D01*
X255174Y-394062D01*
X255174Y-413025D01*
X241765Y-426434D01*
X222802Y-426434D01*
G37*
%LPD*%
%LPC*%
G36*
X171621Y-367379D02*
X171621Y-367379D01*
X158212Y-353970D01*
X158212Y-335007D01*
X171621Y-321598D01*
X190584Y-321598D01*
X203993Y-335007D01*
X203993Y-353970D01*
X190584Y-367379D01*
X171621Y-367379D01*
G37*
%LPD*%
%LPC*%
G36*
X161778Y46007D02*
X161778Y46007D01*
X148369Y59416D01*
X148369Y78379D01*
X161778Y91788D01*
X180741Y91788D01*
X194150Y78379D01*
X194150Y59416D01*
X180741Y46007D01*
X161778Y46007D01*
G37*
%LPD*%
%LPC*%
G36*
X-58694Y-406749D02*
X-58694Y-406749D01*
X-72103Y-393340D01*
X-72103Y-374377D01*
X-58694Y-360968D01*
X-39731Y-360968D01*
X-26322Y-374377D01*
X-26322Y-393340D01*
X-39731Y-406749D01*
X-58694Y-406749D01*
G37*
%LPD*%
%LPC*%
G36*
X-403182Y154275D02*
X-403182Y154275D01*
X-416591Y167684D01*
X-416591Y186647D01*
X-403182Y200056D01*
X-384219Y200056D01*
X-370810Y186647D01*
X-370810Y167684D01*
X-384219Y154275D01*
X-403182Y154275D01*
G37*
%LPD*%
%LPC*%
G36*
X-353970Y264511D02*
X-353970Y264511D01*
X-367379Y277920D01*
X-367379Y296883D01*
X-353970Y310292D01*
X-335007Y310292D01*
X-321598Y296883D01*
X-321598Y277920D01*
X-335007Y264511D01*
X-353970Y264511D01*
G37*
%LPD*%
%LPC*%
G36*
X-255545Y292070D02*
X-255545Y292070D01*
X-268953Y305479D01*
X-268953Y324442D01*
X-255545Y337851D01*
X-236581Y337851D01*
X-223172Y324442D01*
X-223172Y305479D01*
X-236581Y292070D01*
X-255545Y292070D01*
G37*
%LPD*%
%LPC*%
G36*
X29888Y-544544D02*
X29888Y-544544D01*
X16480Y-531135D01*
X16480Y-512172D01*
X29888Y-498763D01*
X48852Y-498763D01*
X62260Y-512172D01*
X62260Y-531135D01*
X48852Y-544544D01*
X29888Y-544544D01*
G37*
%LPD*%
%LPC*%
G36*
X-84285Y-249268D02*
X-84285Y-249268D01*
X-97694Y-235859D01*
X-97694Y-216896D01*
X-84285Y-203487D01*
X-65321Y-203487D01*
X-51913Y-216896D01*
X-51913Y-235859D01*
X-65321Y-249268D01*
X-84285Y-249268D01*
G37*
%LPD*%
%LPC*%
G36*
X171621Y-426434D02*
X171621Y-426434D01*
X158212Y-413025D01*
X158212Y-394062D01*
X171621Y-380653D01*
X190584Y-380653D01*
X203993Y-394062D01*
X203993Y-413025D01*
X190584Y-426434D01*
X171621Y-426434D01*
G37*
%LPD*%
%LPC*%
G36*
X10203Y-174465D02*
X10203Y-174465D01*
X-3205Y-161056D01*
X-3205Y-142093D01*
X10203Y-128684D01*
X29167Y-128684D01*
X42575Y-142093D01*
X42575Y-161056D01*
X29167Y-174465D01*
X10203Y-174465D01*
G37*
%LPD*%
D10*
X-81740Y751031D02*
X-145740Y751031D01*
X-145740Y768809D01*
X-145735Y769239D01*
X-145719Y769668D01*
X-145693Y770097D01*
X-145657Y770525D01*
X-145610Y770952D01*
X-145553Y771378D01*
X-145486Y771802D01*
X-145409Y772225D01*
X-145321Y772645D01*
X-145223Y773064D01*
X-145116Y773479D01*
X-144998Y773893D01*
X-144870Y774303D01*
X-144732Y774710D01*
X-144585Y775113D01*
X-144428Y775513D01*
X-144261Y775909D01*
X-144084Y776301D01*
X-143899Y776688D01*
X-143704Y777071D01*
X-143499Y777449D01*
X-143286Y777822D01*
X-143064Y778189D01*
X-142833Y778552D01*
X-142593Y778908D01*
X-142345Y779259D01*
X-142088Y779603D01*
X-141823Y779941D01*
X-141550Y780273D01*
X-141269Y780598D01*
X-140980Y780916D01*
X-140684Y781227D01*
X-140380Y781531D01*
X-140069Y781827D01*
X-139751Y782116D01*
X-139426Y782397D01*
X-139094Y782670D01*
X-138756Y782935D01*
X-138412Y783192D01*
X-138061Y783440D01*
X-137705Y783680D01*
X-137342Y783911D01*
X-136975Y784133D01*
X-136602Y784346D01*
X-136224Y784551D01*
X-135841Y784746D01*
X-135454Y784931D01*
X-135062Y785108D01*
X-134666Y785275D01*
X-134266Y785432D01*
X-133863Y785579D01*
X-133456Y785717D01*
X-133046Y785845D01*
X-132632Y785963D01*
X-132217Y786070D01*
X-131798Y786168D01*
X-131378Y786256D01*
X-130955Y786333D01*
X-130531Y786400D01*
X-130105Y786457D01*
X-129678Y786504D01*
X-129250Y786540D01*
X-128821Y786566D01*
X-128392Y786582D01*
X-127962Y786587D01*
X-99518Y786587D01*
X-99088Y786582D01*
X-98659Y786566D01*
X-98230Y786540D01*
X-97802Y786504D01*
X-97375Y786457D01*
X-96949Y786400D01*
X-96525Y786333D01*
X-96102Y786256D01*
X-95682Y786168D01*
X-95263Y786070D01*
X-94848Y785963D01*
X-94434Y785845D01*
X-94024Y785717D01*
X-93617Y785579D01*
X-93214Y785432D01*
X-92814Y785275D01*
X-92418Y785108D01*
X-92026Y784931D01*
X-91639Y784746D01*
X-91256Y784551D01*
X-90878Y784346D01*
X-90505Y784133D01*
X-90138Y783911D01*
X-89775Y783680D01*
X-89419Y783440D01*
X-89068Y783192D01*
X-88724Y782935D01*
X-88386Y782670D01*
X-88054Y782397D01*
X-87729Y782116D01*
X-87411Y781827D01*
X-87100Y781531D01*
X-86796Y781227D01*
X-86500Y780916D01*
X-86211Y780598D01*
X-85930Y780273D01*
X-85657Y779941D01*
X-85392Y779603D01*
X-85135Y779259D01*
X-84887Y778908D01*
X-84647Y778552D01*
X-84416Y778189D01*
X-84194Y777822D01*
X-83981Y777449D01*
X-83776Y777071D01*
X-83581Y776688D01*
X-83396Y776301D01*
X-83219Y775909D01*
X-83052Y775513D01*
X-82895Y775113D01*
X-82748Y774710D01*
X-82610Y774303D01*
X-82482Y773893D01*
X-82364Y773479D01*
X-82257Y773064D01*
X-82159Y772645D01*
X-82071Y772225D01*
X-81994Y771802D01*
X-81927Y771378D01*
X-81870Y770952D01*
X-81823Y770525D01*
X-81787Y770097D01*
X-81761Y769668D01*
X-81745Y769239D01*
X-81740Y768809D01*
X-81740Y751031D01*
X-81740Y813939D02*
X-124407Y813939D01*
X-142185Y812161D02*
X-145740Y812161D01*
X-145740Y815717D01*
X-142185Y815717D01*
X-142185Y812161D01*
X-81740Y849359D02*
X-81740Y867136D01*
X-81740Y849359D02*
X-81743Y849101D01*
X-81752Y848844D01*
X-81768Y848586D01*
X-81790Y848329D01*
X-81818Y848073D01*
X-81852Y847818D01*
X-81892Y847563D01*
X-81939Y847310D01*
X-81991Y847057D01*
X-82050Y846806D01*
X-82115Y846557D01*
X-82185Y846309D01*
X-82262Y846063D01*
X-82345Y845819D01*
X-82433Y845576D01*
X-82527Y845337D01*
X-82628Y845099D01*
X-82733Y844864D01*
X-82845Y844631D01*
X-82962Y844402D01*
X-83084Y844175D01*
X-83212Y843951D01*
X-83346Y843731D01*
X-83484Y843513D01*
X-83628Y843299D01*
X-83777Y843089D01*
X-83931Y842882D01*
X-84090Y842679D01*
X-84254Y842480D01*
X-84423Y842285D01*
X-84596Y842095D01*
X-84774Y841908D01*
X-84956Y841726D01*
X-85143Y841548D01*
X-85333Y841375D01*
X-85528Y841206D01*
X-85727Y841042D01*
X-85930Y840883D01*
X-86137Y840729D01*
X-86347Y840580D01*
X-86561Y840436D01*
X-86779Y840298D01*
X-86999Y840164D01*
X-87223Y840036D01*
X-87450Y839914D01*
X-87679Y839797D01*
X-87912Y839685D01*
X-88147Y839580D01*
X-88385Y839479D01*
X-88624Y839385D01*
X-88867Y839297D01*
X-89111Y839214D01*
X-89357Y839137D01*
X-89605Y839067D01*
X-89854Y839002D01*
X-90105Y838943D01*
X-90358Y838891D01*
X-90611Y838844D01*
X-90866Y838804D01*
X-91121Y838770D01*
X-91377Y838742D01*
X-91634Y838720D01*
X-91892Y838704D01*
X-92149Y838695D01*
X-92407Y838692D01*
X-110185Y838692D01*
X-110531Y838696D01*
X-110877Y838709D01*
X-111223Y838730D01*
X-111568Y838759D01*
X-111912Y838797D01*
X-112256Y838844D01*
X-112598Y838898D01*
X-112938Y838961D01*
X-113277Y839032D01*
X-113614Y839112D01*
X-113949Y839199D01*
X-114282Y839295D01*
X-114613Y839399D01*
X-114941Y839511D01*
X-115266Y839630D01*
X-115587Y839758D01*
X-115906Y839894D01*
X-116222Y840037D01*
X-116533Y840188D01*
X-116841Y840346D01*
X-117146Y840512D01*
X-117445Y840685D01*
X-117741Y840865D01*
X-118032Y841053D01*
X-118319Y841247D01*
X-118600Y841449D01*
X-118877Y841657D01*
X-119149Y841872D01*
X-119415Y842094D01*
X-119676Y842322D01*
X-119931Y842556D01*
X-120180Y842796D01*
X-120423Y843043D01*
X-120661Y843295D01*
X-120892Y843553D01*
X-121117Y843817D01*
X-121335Y844085D01*
X-121547Y844360D01*
X-121752Y844639D01*
X-121950Y844923D01*
X-122141Y845212D01*
X-122325Y845505D01*
X-122502Y845803D01*
X-122671Y846105D01*
X-122833Y846411D01*
X-122988Y846721D01*
X-123135Y847035D01*
X-123274Y847352D01*
X-123406Y847672D01*
X-123529Y847996D01*
X-123645Y848322D01*
X-123753Y848651D01*
X-123853Y848983D01*
X-123945Y849317D01*
X-124028Y849653D01*
X-124103Y849991D01*
X-124170Y850331D01*
X-124229Y850672D01*
X-124280Y851015D01*
X-124322Y851359D01*
X-124355Y851703D01*
X-124381Y852049D01*
X-124398Y852395D01*
X-124406Y852741D01*
X-124406Y853087D01*
X-124398Y853433D01*
X-124381Y853779D01*
X-124355Y854125D01*
X-124322Y854469D01*
X-124280Y854813D01*
X-124229Y855156D01*
X-124170Y855497D01*
X-124103Y855837D01*
X-124028Y856175D01*
X-123945Y856511D01*
X-123853Y856845D01*
X-123753Y857177D01*
X-123645Y857506D01*
X-123529Y857832D01*
X-123406Y858156D01*
X-123274Y858476D01*
X-123135Y858793D01*
X-122988Y859107D01*
X-122833Y859417D01*
X-122671Y859723D01*
X-122502Y860025D01*
X-122325Y860323D01*
X-122141Y860616D01*
X-121950Y860905D01*
X-121752Y861189D01*
X-121547Y861468D01*
X-121335Y861743D01*
X-121117Y862011D01*
X-120892Y862275D01*
X-120661Y862533D01*
X-120423Y862785D01*
X-120180Y863032D01*
X-119931Y863272D01*
X-119676Y863506D01*
X-119415Y863734D01*
X-119149Y863956D01*
X-118877Y864171D01*
X-118600Y864379D01*
X-118319Y864581D01*
X-118032Y864775D01*
X-117741Y864963D01*
X-117445Y865143D01*
X-117146Y865316D01*
X-116841Y865482D01*
X-116533Y865640D01*
X-116222Y865791D01*
X-115906Y865934D01*
X-115587Y866070D01*
X-115266Y866198D01*
X-114941Y866317D01*
X-114613Y866429D01*
X-114282Y866533D01*
X-113949Y866629D01*
X-113614Y866716D01*
X-113277Y866796D01*
X-112938Y866867D01*
X-112598Y866930D01*
X-112256Y866984D01*
X-111912Y867031D01*
X-111568Y867069D01*
X-111223Y867098D01*
X-110877Y867119D01*
X-110531Y867132D01*
X-110185Y867136D01*
X-103073Y867136D01*
X-103073Y838692D01*
X-906507Y-199850D02*
X-906507Y-263850D01*
X-906507Y-199850D02*
X-888729Y-199850D01*
X-888299Y-199855D01*
X-887870Y-199871D01*
X-887441Y-199897D01*
X-887013Y-199933D01*
X-886586Y-199980D01*
X-886160Y-200037D01*
X-885736Y-200104D01*
X-885313Y-200181D01*
X-884893Y-200269D01*
X-884474Y-200367D01*
X-884059Y-200474D01*
X-883645Y-200592D01*
X-883235Y-200720D01*
X-882828Y-200858D01*
X-882425Y-201005D01*
X-882025Y-201162D01*
X-881629Y-201329D01*
X-881237Y-201506D01*
X-880850Y-201691D01*
X-880467Y-201886D01*
X-880089Y-202091D01*
X-879716Y-202304D01*
X-879349Y-202526D01*
X-878986Y-202757D01*
X-878630Y-202997D01*
X-878279Y-203245D01*
X-877935Y-203502D01*
X-877597Y-203767D01*
X-877265Y-204040D01*
X-876940Y-204321D01*
X-876622Y-204610D01*
X-876311Y-204906D01*
X-876007Y-205210D01*
X-875711Y-205521D01*
X-875422Y-205839D01*
X-875141Y-206164D01*
X-874868Y-206496D01*
X-874603Y-206834D01*
X-874346Y-207178D01*
X-874098Y-207529D01*
X-873858Y-207885D01*
X-873627Y-208248D01*
X-873405Y-208615D01*
X-873192Y-208988D01*
X-872987Y-209366D01*
X-872792Y-209749D01*
X-872607Y-210136D01*
X-872430Y-210528D01*
X-872263Y-210924D01*
X-872106Y-211324D01*
X-871959Y-211727D01*
X-871821Y-212134D01*
X-871693Y-212544D01*
X-871575Y-212958D01*
X-871468Y-213373D01*
X-871370Y-213792D01*
X-871282Y-214212D01*
X-871205Y-214635D01*
X-871138Y-215059D01*
X-871081Y-215485D01*
X-871034Y-215912D01*
X-870998Y-216340D01*
X-870972Y-216769D01*
X-870956Y-217198D01*
X-870951Y-217628D01*
X-870951Y-246073D01*
X-870956Y-246503D01*
X-870972Y-246932D01*
X-870998Y-247361D01*
X-871034Y-247789D01*
X-871081Y-248216D01*
X-871138Y-248642D01*
X-871205Y-249066D01*
X-871282Y-249489D01*
X-871370Y-249909D01*
X-871468Y-250328D01*
X-871575Y-250743D01*
X-871693Y-251157D01*
X-871821Y-251567D01*
X-871959Y-251974D01*
X-872106Y-252377D01*
X-872263Y-252777D01*
X-872430Y-253173D01*
X-872607Y-253565D01*
X-872792Y-253952D01*
X-872987Y-254335D01*
X-873192Y-254713D01*
X-873405Y-255086D01*
X-873627Y-255453D01*
X-873858Y-255816D01*
X-874098Y-256172D01*
X-874346Y-256523D01*
X-874603Y-256867D01*
X-874868Y-257205D01*
X-875141Y-257537D01*
X-875422Y-257862D01*
X-875711Y-258180D01*
X-876007Y-258491D01*
X-876311Y-258795D01*
X-876622Y-259091D01*
X-876940Y-259380D01*
X-877265Y-259661D01*
X-877597Y-259934D01*
X-877935Y-260199D01*
X-878279Y-260456D01*
X-878630Y-260704D01*
X-878986Y-260944D01*
X-879349Y-261175D01*
X-879716Y-261397D01*
X-880089Y-261610D01*
X-880467Y-261815D01*
X-880850Y-262010D01*
X-881237Y-262195D01*
X-881629Y-262372D01*
X-882025Y-262539D01*
X-882425Y-262696D01*
X-882828Y-262843D01*
X-883235Y-262981D01*
X-883646Y-263109D01*
X-884059Y-263227D01*
X-884475Y-263334D01*
X-884893Y-263432D01*
X-885313Y-263520D01*
X-885736Y-263597D01*
X-886160Y-263664D01*
X-886586Y-263721D01*
X-887013Y-263768D01*
X-887441Y-263804D01*
X-887870Y-263830D01*
X-888300Y-263846D01*
X-888729Y-263851D01*
X-888729Y-263850D02*
X-906507Y-263850D01*
X-843599Y-263850D02*
X-843599Y-221184D01*
X-845377Y-203406D02*
X-845377Y-199850D01*
X-841821Y-199850D01*
X-841821Y-203406D01*
X-845377Y-203406D01*
X-808179Y-263850D02*
X-790402Y-263850D01*
X-808179Y-263851D02*
X-808437Y-263848D01*
X-808694Y-263839D01*
X-808952Y-263823D01*
X-809209Y-263801D01*
X-809465Y-263773D01*
X-809720Y-263739D01*
X-809975Y-263699D01*
X-810228Y-263652D01*
X-810481Y-263600D01*
X-810732Y-263541D01*
X-810981Y-263476D01*
X-811229Y-263406D01*
X-811475Y-263329D01*
X-811719Y-263246D01*
X-811962Y-263158D01*
X-812201Y-263064D01*
X-812439Y-262963D01*
X-812674Y-262858D01*
X-812907Y-262746D01*
X-813136Y-262629D01*
X-813363Y-262507D01*
X-813587Y-262379D01*
X-813807Y-262245D01*
X-814025Y-262107D01*
X-814239Y-261963D01*
X-814449Y-261814D01*
X-814656Y-261660D01*
X-814859Y-261501D01*
X-815058Y-261337D01*
X-815253Y-261168D01*
X-815443Y-260995D01*
X-815630Y-260817D01*
X-815812Y-260635D01*
X-815990Y-260448D01*
X-816163Y-260258D01*
X-816332Y-260063D01*
X-816496Y-259864D01*
X-816655Y-259661D01*
X-816809Y-259454D01*
X-816958Y-259244D01*
X-817102Y-259030D01*
X-817240Y-258812D01*
X-817374Y-258592D01*
X-817502Y-258368D01*
X-817624Y-258141D01*
X-817741Y-257912D01*
X-817853Y-257679D01*
X-817958Y-257444D01*
X-818059Y-257206D01*
X-818153Y-256967D01*
X-818241Y-256724D01*
X-818324Y-256480D01*
X-818401Y-256234D01*
X-818471Y-255986D01*
X-818536Y-255737D01*
X-818595Y-255486D01*
X-818647Y-255233D01*
X-818694Y-254980D01*
X-818734Y-254725D01*
X-818768Y-254470D01*
X-818796Y-254214D01*
X-818818Y-253957D01*
X-818834Y-253699D01*
X-818843Y-253442D01*
X-818846Y-253184D01*
X-818846Y-235406D01*
X-818842Y-235060D01*
X-818829Y-234714D01*
X-818808Y-234368D01*
X-818779Y-234023D01*
X-818741Y-233679D01*
X-818694Y-233335D01*
X-818640Y-232993D01*
X-818577Y-232653D01*
X-818506Y-232314D01*
X-818426Y-231977D01*
X-818339Y-231642D01*
X-818243Y-231309D01*
X-818139Y-230978D01*
X-818027Y-230650D01*
X-817908Y-230325D01*
X-817780Y-230004D01*
X-817644Y-229685D01*
X-817501Y-229369D01*
X-817350Y-229058D01*
X-817192Y-228750D01*
X-817026Y-228445D01*
X-816853Y-228146D01*
X-816673Y-227850D01*
X-816485Y-227559D01*
X-816291Y-227272D01*
X-816089Y-226991D01*
X-815881Y-226714D01*
X-815666Y-226442D01*
X-815444Y-226176D01*
X-815216Y-225915D01*
X-814982Y-225660D01*
X-814742Y-225411D01*
X-814495Y-225168D01*
X-814243Y-224930D01*
X-813985Y-224699D01*
X-813721Y-224474D01*
X-813453Y-224256D01*
X-813178Y-224044D01*
X-812899Y-223839D01*
X-812615Y-223641D01*
X-812326Y-223450D01*
X-812033Y-223266D01*
X-811735Y-223089D01*
X-811433Y-222920D01*
X-811127Y-222758D01*
X-810817Y-222603D01*
X-810503Y-222456D01*
X-810186Y-222317D01*
X-809866Y-222185D01*
X-809542Y-222062D01*
X-809216Y-221946D01*
X-808887Y-221838D01*
X-808555Y-221738D01*
X-808221Y-221646D01*
X-807885Y-221563D01*
X-807547Y-221488D01*
X-807207Y-221421D01*
X-806866Y-221362D01*
X-806523Y-221311D01*
X-806179Y-221269D01*
X-805835Y-221236D01*
X-805489Y-221210D01*
X-805143Y-221193D01*
X-804797Y-221185D01*
X-804451Y-221185D01*
X-804105Y-221193D01*
X-803759Y-221210D01*
X-803413Y-221236D01*
X-803069Y-221269D01*
X-802725Y-221311D01*
X-802382Y-221362D01*
X-802041Y-221421D01*
X-801701Y-221488D01*
X-801363Y-221563D01*
X-801027Y-221646D01*
X-800693Y-221738D01*
X-800361Y-221838D01*
X-800032Y-221946D01*
X-799706Y-222062D01*
X-799382Y-222185D01*
X-799062Y-222317D01*
X-798745Y-222456D01*
X-798431Y-222603D01*
X-798121Y-222758D01*
X-797815Y-222920D01*
X-797513Y-223089D01*
X-797215Y-223266D01*
X-796922Y-223450D01*
X-796633Y-223641D01*
X-796349Y-223839D01*
X-796070Y-224044D01*
X-795795Y-224256D01*
X-795527Y-224474D01*
X-795263Y-224699D01*
X-795005Y-224930D01*
X-794753Y-225168D01*
X-794506Y-225411D01*
X-794266Y-225660D01*
X-794032Y-225915D01*
X-793804Y-226176D01*
X-793582Y-226442D01*
X-793367Y-226714D01*
X-793159Y-226991D01*
X-792957Y-227272D01*
X-792763Y-227559D01*
X-792575Y-227850D01*
X-792395Y-228146D01*
X-792222Y-228445D01*
X-792056Y-228750D01*
X-791898Y-229058D01*
X-791747Y-229369D01*
X-791604Y-229685D01*
X-791468Y-230004D01*
X-791340Y-230325D01*
X-791221Y-230650D01*
X-791109Y-230978D01*
X-791005Y-231309D01*
X-790909Y-231642D01*
X-790822Y-231977D01*
X-790742Y-232314D01*
X-790671Y-232653D01*
X-790608Y-232993D01*
X-790554Y-233335D01*
X-790507Y-233679D01*
X-790469Y-234023D01*
X-790440Y-234368D01*
X-790419Y-234714D01*
X-790406Y-235060D01*
X-790402Y-235406D01*
X-790402Y-242517D01*
X-818846Y-242517D01*
X751031Y160480D02*
X751031Y224480D01*
X768809Y224480D01*
X768809Y224481D02*
X769239Y224476D01*
X769668Y224460D01*
X770097Y224434D01*
X770525Y224398D01*
X770952Y224351D01*
X771378Y224294D01*
X771802Y224227D01*
X772225Y224150D01*
X772645Y224062D01*
X773064Y223964D01*
X773479Y223857D01*
X773893Y223739D01*
X774303Y223611D01*
X774710Y223473D01*
X775113Y223326D01*
X775513Y223169D01*
X775909Y223002D01*
X776301Y222825D01*
X776688Y222640D01*
X777071Y222445D01*
X777449Y222240D01*
X777822Y222027D01*
X778189Y221805D01*
X778552Y221574D01*
X778908Y221334D01*
X779259Y221086D01*
X779603Y220829D01*
X779941Y220564D01*
X780273Y220291D01*
X780598Y220010D01*
X780916Y219721D01*
X781227Y219425D01*
X781531Y219121D01*
X781827Y218810D01*
X782116Y218492D01*
X782397Y218167D01*
X782670Y217835D01*
X782935Y217497D01*
X783192Y217153D01*
X783440Y216802D01*
X783680Y216446D01*
X783911Y216083D01*
X784133Y215716D01*
X784346Y215343D01*
X784551Y214965D01*
X784746Y214582D01*
X784931Y214195D01*
X785108Y213803D01*
X785275Y213407D01*
X785432Y213007D01*
X785579Y212604D01*
X785717Y212197D01*
X785845Y211787D01*
X785963Y211373D01*
X786070Y210958D01*
X786168Y210539D01*
X786256Y210119D01*
X786333Y209696D01*
X786400Y209272D01*
X786457Y208846D01*
X786504Y208419D01*
X786540Y207991D01*
X786566Y207562D01*
X786582Y207133D01*
X786587Y206703D01*
X786587Y178258D01*
X786582Y177828D01*
X786566Y177399D01*
X786540Y176970D01*
X786504Y176542D01*
X786457Y176115D01*
X786400Y175689D01*
X786333Y175265D01*
X786256Y174842D01*
X786168Y174422D01*
X786070Y174003D01*
X785963Y173588D01*
X785845Y173174D01*
X785717Y172764D01*
X785579Y172357D01*
X785432Y171954D01*
X785275Y171554D01*
X785108Y171158D01*
X784931Y170766D01*
X784746Y170379D01*
X784551Y169996D01*
X784346Y169618D01*
X784133Y169245D01*
X783911Y168878D01*
X783680Y168515D01*
X783440Y168159D01*
X783192Y167808D01*
X782935Y167464D01*
X782670Y167126D01*
X782397Y166794D01*
X782116Y166469D01*
X781827Y166151D01*
X781531Y165840D01*
X781227Y165536D01*
X780916Y165240D01*
X780598Y164951D01*
X780273Y164670D01*
X779941Y164397D01*
X779603Y164132D01*
X779259Y163875D01*
X778908Y163627D01*
X778552Y163387D01*
X778189Y163156D01*
X777822Y162934D01*
X777449Y162721D01*
X777071Y162516D01*
X776688Y162321D01*
X776301Y162136D01*
X775909Y161959D01*
X775513Y161792D01*
X775113Y161635D01*
X774710Y161488D01*
X774303Y161350D01*
X773892Y161222D01*
X773479Y161104D01*
X773063Y160997D01*
X772645Y160899D01*
X772225Y160811D01*
X771802Y160734D01*
X771378Y160667D01*
X770952Y160610D01*
X770525Y160563D01*
X770097Y160527D01*
X769668Y160501D01*
X769238Y160485D01*
X768809Y160480D01*
X751031Y160480D01*
X813939Y160480D02*
X813939Y203147D01*
X812161Y220925D02*
X812161Y224480D01*
X815717Y224480D01*
X815717Y220925D01*
X812161Y220925D01*
X849359Y160480D02*
X867136Y160480D01*
X849359Y160480D02*
X849101Y160483D01*
X848844Y160492D01*
X848586Y160508D01*
X848329Y160530D01*
X848073Y160558D01*
X847818Y160592D01*
X847563Y160632D01*
X847310Y160679D01*
X847057Y160731D01*
X846806Y160790D01*
X846557Y160855D01*
X846309Y160925D01*
X846063Y161002D01*
X845819Y161085D01*
X845576Y161173D01*
X845337Y161267D01*
X845099Y161368D01*
X844864Y161473D01*
X844631Y161585D01*
X844402Y161702D01*
X844175Y161824D01*
X843951Y161952D01*
X843731Y162086D01*
X843513Y162224D01*
X843299Y162368D01*
X843089Y162517D01*
X842882Y162671D01*
X842679Y162830D01*
X842480Y162994D01*
X842285Y163163D01*
X842095Y163336D01*
X841908Y163514D01*
X841726Y163696D01*
X841548Y163883D01*
X841375Y164073D01*
X841206Y164268D01*
X841042Y164467D01*
X840883Y164670D01*
X840729Y164877D01*
X840580Y165087D01*
X840436Y165301D01*
X840298Y165519D01*
X840164Y165739D01*
X840036Y165963D01*
X839914Y166190D01*
X839797Y166419D01*
X839685Y166652D01*
X839580Y166887D01*
X839479Y167125D01*
X839385Y167364D01*
X839297Y167607D01*
X839214Y167851D01*
X839137Y168097D01*
X839067Y168345D01*
X839002Y168594D01*
X838943Y168845D01*
X838891Y169098D01*
X838844Y169351D01*
X838804Y169606D01*
X838770Y169861D01*
X838742Y170117D01*
X838720Y170374D01*
X838704Y170632D01*
X838695Y170889D01*
X838692Y171147D01*
X838692Y188925D01*
X838696Y189271D01*
X838709Y189617D01*
X838730Y189963D01*
X838759Y190308D01*
X838797Y190652D01*
X838844Y190996D01*
X838898Y191338D01*
X838961Y191678D01*
X839032Y192017D01*
X839112Y192354D01*
X839199Y192689D01*
X839295Y193022D01*
X839399Y193353D01*
X839511Y193681D01*
X839630Y194006D01*
X839758Y194327D01*
X839894Y194646D01*
X840037Y194962D01*
X840188Y195273D01*
X840346Y195581D01*
X840512Y195886D01*
X840685Y196185D01*
X840865Y196481D01*
X841053Y196772D01*
X841247Y197059D01*
X841449Y197340D01*
X841657Y197617D01*
X841872Y197889D01*
X842094Y198155D01*
X842322Y198416D01*
X842556Y198671D01*
X842796Y198920D01*
X843043Y199163D01*
X843295Y199401D01*
X843553Y199632D01*
X843817Y199857D01*
X844085Y200075D01*
X844360Y200287D01*
X844639Y200492D01*
X844923Y200690D01*
X845212Y200881D01*
X845505Y201065D01*
X845803Y201242D01*
X846105Y201411D01*
X846411Y201573D01*
X846721Y201728D01*
X847035Y201875D01*
X847352Y202014D01*
X847672Y202146D01*
X847996Y202269D01*
X848322Y202385D01*
X848651Y202493D01*
X848983Y202593D01*
X849317Y202685D01*
X849653Y202768D01*
X849991Y202843D01*
X850331Y202910D01*
X850672Y202969D01*
X851015Y203020D01*
X851359Y203062D01*
X851703Y203095D01*
X852049Y203121D01*
X852395Y203138D01*
X852741Y203146D01*
X853087Y203146D01*
X853433Y203138D01*
X853779Y203121D01*
X854125Y203095D01*
X854469Y203062D01*
X854813Y203020D01*
X855156Y202969D01*
X855497Y202910D01*
X855837Y202843D01*
X856175Y202768D01*
X856511Y202685D01*
X856845Y202593D01*
X857177Y202493D01*
X857506Y202385D01*
X857832Y202269D01*
X858156Y202146D01*
X858476Y202014D01*
X858793Y201875D01*
X859107Y201728D01*
X859417Y201573D01*
X859723Y201411D01*
X860025Y201242D01*
X860323Y201065D01*
X860616Y200881D01*
X860905Y200690D01*
X861189Y200492D01*
X861468Y200287D01*
X861743Y200075D01*
X862011Y199857D01*
X862275Y199632D01*
X862533Y199401D01*
X862785Y199163D01*
X863032Y198920D01*
X863272Y198671D01*
X863506Y198416D01*
X863734Y198155D01*
X863956Y197889D01*
X864171Y197617D01*
X864379Y197340D01*
X864581Y197059D01*
X864775Y196772D01*
X864963Y196481D01*
X865143Y196185D01*
X865316Y195886D01*
X865482Y195581D01*
X865640Y195273D01*
X865791Y194962D01*
X865934Y194646D01*
X866070Y194327D01*
X866198Y194006D01*
X866317Y193681D01*
X866429Y193353D01*
X866533Y193022D01*
X866629Y192689D01*
X866716Y192354D01*
X866796Y192017D01*
X866867Y191678D01*
X866930Y191338D01*
X866984Y190996D01*
X867031Y190652D01*
X867069Y190308D01*
X867098Y189963D01*
X867119Y189617D01*
X867132Y189271D01*
X867136Y188925D01*
X867136Y181814D01*
X838692Y181814D01*
X263850Y-867136D02*
X199850Y-867136D01*
X199850Y-849359D01*
X199855Y-848929D01*
X199871Y-848500D01*
X199897Y-848071D01*
X199933Y-847643D01*
X199980Y-847216D01*
X200037Y-846790D01*
X200104Y-846366D01*
X200181Y-845943D01*
X200269Y-845523D01*
X200367Y-845104D01*
X200474Y-844689D01*
X200592Y-844275D01*
X200720Y-843865D01*
X200858Y-843458D01*
X201005Y-843055D01*
X201162Y-842655D01*
X201329Y-842259D01*
X201506Y-841867D01*
X201691Y-841480D01*
X201886Y-841097D01*
X202091Y-840719D01*
X202304Y-840346D01*
X202526Y-839979D01*
X202757Y-839616D01*
X202997Y-839260D01*
X203245Y-838909D01*
X203502Y-838565D01*
X203767Y-838227D01*
X204040Y-837895D01*
X204321Y-837570D01*
X204610Y-837252D01*
X204906Y-836941D01*
X205210Y-836637D01*
X205521Y-836341D01*
X205839Y-836052D01*
X206164Y-835771D01*
X206496Y-835498D01*
X206834Y-835233D01*
X207178Y-834976D01*
X207529Y-834728D01*
X207885Y-834488D01*
X208248Y-834257D01*
X208615Y-834035D01*
X208988Y-833822D01*
X209366Y-833617D01*
X209749Y-833422D01*
X210136Y-833237D01*
X210528Y-833060D01*
X210924Y-832893D01*
X211324Y-832736D01*
X211727Y-832589D01*
X212134Y-832451D01*
X212544Y-832323D01*
X212958Y-832205D01*
X213373Y-832098D01*
X213792Y-832000D01*
X214212Y-831912D01*
X214635Y-831835D01*
X215059Y-831768D01*
X215485Y-831711D01*
X215912Y-831664D01*
X216340Y-831628D01*
X216769Y-831602D01*
X217198Y-831586D01*
X217628Y-831581D01*
X246073Y-831581D01*
X246503Y-831586D01*
X246932Y-831602D01*
X247361Y-831628D01*
X247789Y-831664D01*
X248216Y-831711D01*
X248642Y-831768D01*
X249066Y-831835D01*
X249489Y-831912D01*
X249909Y-832000D01*
X250328Y-832098D01*
X250743Y-832205D01*
X251157Y-832323D01*
X251567Y-832451D01*
X251974Y-832589D01*
X252377Y-832736D01*
X252777Y-832893D01*
X253173Y-833060D01*
X253565Y-833237D01*
X253952Y-833422D01*
X254335Y-833617D01*
X254713Y-833822D01*
X255086Y-834035D01*
X255453Y-834257D01*
X255816Y-834488D01*
X256172Y-834728D01*
X256523Y-834976D01*
X256867Y-835233D01*
X257205Y-835498D01*
X257537Y-835771D01*
X257862Y-836052D01*
X258180Y-836341D01*
X258491Y-836637D01*
X258795Y-836941D01*
X259091Y-837252D01*
X259380Y-837570D01*
X259661Y-837895D01*
X259934Y-838227D01*
X260199Y-838565D01*
X260456Y-838909D01*
X260704Y-839260D01*
X260944Y-839616D01*
X261175Y-839979D01*
X261397Y-840346D01*
X261610Y-840719D01*
X261815Y-841097D01*
X262010Y-841480D01*
X262195Y-841867D01*
X262372Y-842259D01*
X262539Y-842655D01*
X262696Y-843055D01*
X262843Y-843458D01*
X262981Y-843865D01*
X263109Y-844276D01*
X263227Y-844689D01*
X263334Y-845105D01*
X263432Y-845523D01*
X263520Y-845943D01*
X263597Y-846366D01*
X263664Y-846790D01*
X263721Y-847216D01*
X263768Y-847643D01*
X263804Y-848071D01*
X263830Y-848500D01*
X263846Y-848930D01*
X263851Y-849359D01*
X263850Y-849359D02*
X263850Y-867136D01*
X263850Y-804229D02*
X221184Y-804229D01*
X203406Y-806007D02*
X199850Y-806007D01*
X199850Y-802451D01*
X203406Y-802451D01*
X203406Y-806007D01*
X263850Y-768809D02*
X263850Y-751031D01*
X263851Y-768809D02*
X263848Y-769067D01*
X263839Y-769324D01*
X263823Y-769582D01*
X263801Y-769839D01*
X263773Y-770095D01*
X263739Y-770350D01*
X263699Y-770605D01*
X263652Y-770858D01*
X263600Y-771111D01*
X263541Y-771362D01*
X263476Y-771611D01*
X263406Y-771859D01*
X263329Y-772105D01*
X263246Y-772349D01*
X263158Y-772592D01*
X263064Y-772831D01*
X262963Y-773069D01*
X262858Y-773304D01*
X262746Y-773537D01*
X262629Y-773766D01*
X262507Y-773993D01*
X262379Y-774217D01*
X262245Y-774437D01*
X262107Y-774655D01*
X261963Y-774869D01*
X261814Y-775079D01*
X261660Y-775286D01*
X261501Y-775489D01*
X261337Y-775688D01*
X261168Y-775883D01*
X260995Y-776073D01*
X260817Y-776260D01*
X260635Y-776442D01*
X260448Y-776620D01*
X260258Y-776793D01*
X260063Y-776962D01*
X259864Y-777126D01*
X259661Y-777285D01*
X259454Y-777439D01*
X259244Y-777588D01*
X259030Y-777732D01*
X258812Y-777870D01*
X258592Y-778004D01*
X258368Y-778132D01*
X258141Y-778254D01*
X257912Y-778371D01*
X257679Y-778483D01*
X257444Y-778588D01*
X257206Y-778689D01*
X256967Y-778783D01*
X256724Y-778871D01*
X256480Y-778954D01*
X256234Y-779031D01*
X255986Y-779101D01*
X255737Y-779166D01*
X255486Y-779225D01*
X255233Y-779277D01*
X254980Y-779324D01*
X254725Y-779364D01*
X254470Y-779398D01*
X254214Y-779426D01*
X253957Y-779448D01*
X253699Y-779464D01*
X253442Y-779473D01*
X253184Y-779476D01*
X235406Y-779476D01*
X235060Y-779472D01*
X234714Y-779459D01*
X234368Y-779438D01*
X234023Y-779409D01*
X233679Y-779371D01*
X233335Y-779324D01*
X232993Y-779270D01*
X232653Y-779207D01*
X232314Y-779136D01*
X231977Y-779056D01*
X231642Y-778969D01*
X231309Y-778873D01*
X230978Y-778769D01*
X230650Y-778657D01*
X230325Y-778538D01*
X230004Y-778410D01*
X229685Y-778274D01*
X229369Y-778131D01*
X229058Y-777980D01*
X228750Y-777822D01*
X228445Y-777656D01*
X228146Y-777483D01*
X227850Y-777303D01*
X227559Y-777115D01*
X227272Y-776921D01*
X226991Y-776719D01*
X226714Y-776511D01*
X226442Y-776296D01*
X226176Y-776074D01*
X225915Y-775846D01*
X225660Y-775612D01*
X225411Y-775372D01*
X225168Y-775125D01*
X224930Y-774873D01*
X224699Y-774615D01*
X224474Y-774351D01*
X224256Y-774083D01*
X224044Y-773808D01*
X223839Y-773529D01*
X223641Y-773245D01*
X223450Y-772956D01*
X223266Y-772663D01*
X223089Y-772365D01*
X222920Y-772063D01*
X222758Y-771757D01*
X222603Y-771447D01*
X222456Y-771133D01*
X222317Y-770816D01*
X222185Y-770496D01*
X222062Y-770172D01*
X221946Y-769846D01*
X221838Y-769517D01*
X221738Y-769185D01*
X221646Y-768851D01*
X221563Y-768515D01*
X221488Y-768177D01*
X221421Y-767837D01*
X221362Y-767496D01*
X221311Y-767153D01*
X221269Y-766809D01*
X221236Y-766465D01*
X221210Y-766119D01*
X221193Y-765773D01*
X221185Y-765427D01*
X221185Y-765081D01*
X221193Y-764735D01*
X221210Y-764389D01*
X221236Y-764043D01*
X221269Y-763699D01*
X221311Y-763355D01*
X221362Y-763012D01*
X221421Y-762671D01*
X221488Y-762331D01*
X221563Y-761993D01*
X221646Y-761657D01*
X221738Y-761323D01*
X221838Y-760991D01*
X221946Y-760662D01*
X222062Y-760336D01*
X222185Y-760012D01*
X222317Y-759692D01*
X222456Y-759375D01*
X222603Y-759061D01*
X222758Y-758751D01*
X222920Y-758445D01*
X223089Y-758143D01*
X223266Y-757845D01*
X223450Y-757552D01*
X223641Y-757263D01*
X223839Y-756979D01*
X224044Y-756700D01*
X224256Y-756425D01*
X224474Y-756157D01*
X224699Y-755893D01*
X224930Y-755635D01*
X225168Y-755383D01*
X225411Y-755136D01*
X225660Y-754896D01*
X225915Y-754662D01*
X226176Y-754434D01*
X226442Y-754212D01*
X226714Y-753997D01*
X226991Y-753789D01*
X227272Y-753587D01*
X227559Y-753393D01*
X227850Y-753205D01*
X228146Y-753025D01*
X228445Y-752852D01*
X228750Y-752686D01*
X229058Y-752528D01*
X229369Y-752377D01*
X229685Y-752234D01*
X230004Y-752098D01*
X230325Y-751970D01*
X230650Y-751851D01*
X230978Y-751739D01*
X231309Y-751635D01*
X231642Y-751539D01*
X231977Y-751452D01*
X232314Y-751372D01*
X232653Y-751301D01*
X232993Y-751238D01*
X233335Y-751184D01*
X233679Y-751137D01*
X234023Y-751099D01*
X234368Y-751070D01*
X234714Y-751049D01*
X235060Y-751036D01*
X235406Y-751032D01*
X235406Y-751031D02*
X242517Y-751031D01*
X242517Y-779476D01*
D11*
G36*
X147184Y-518154D02*
X110189Y-531619D01*
X100764Y-505724D01*
X137759Y-492259D01*
X147184Y-518154D01*
G37*
G36*
X167382Y-573648D02*
X130387Y-587113D01*
X120962Y-561218D01*
X157957Y-547753D01*
X167382Y-573648D01*
G37*
G36*
X211751Y-465328D02*
X248746Y-451863D01*
X258171Y-477758D01*
X221176Y-491223D01*
X211751Y-465328D01*
G37*
G36*
X231950Y-520822D02*
X268945Y-507357D01*
X278370Y-533252D01*
X241375Y-546717D01*
X231950Y-520822D01*
G37*
G36*
X444628Y-303387D02*
X424943Y-337482D01*
X401078Y-323703D01*
X420763Y-289608D01*
X444628Y-303387D01*
G37*
G36*
X495772Y-332914D02*
X476087Y-367009D01*
X452222Y-353230D01*
X471907Y-319135D01*
X495772Y-332914D01*
G37*
G36*
X460134Y-221416D02*
X479819Y-187321D01*
X503684Y-201100D01*
X483999Y-235195D01*
X460134Y-221416D01*
G37*
G36*
X511277Y-250944D02*
X530962Y-216849D01*
X554827Y-230628D01*
X535142Y-264723D01*
X511277Y-250944D01*
G37*
G36*
X535028Y55343D02*
X541864Y16572D01*
X514726Y11787D01*
X507890Y50558D01*
X535028Y55343D01*
G37*
G36*
X593185Y65598D02*
X600021Y26827D01*
X572883Y22042D01*
X566047Y60813D01*
X593185Y65598D01*
G37*
G36*
X494216Y128103D02*
X487380Y166874D01*
X514518Y171659D01*
X521354Y132888D01*
X494216Y128103D01*
G37*
G36*
X552374Y138358D02*
X545538Y177129D01*
X572676Y181914D01*
X579512Y143143D01*
X552374Y138358D01*
G37*
G36*
X-158154Y-547950D02*
X-121159Y-561415D01*
X-130584Y-587310D01*
X-167579Y-573845D01*
X-158154Y-547950D01*
G37*
G36*
X-137956Y-492456D02*
X-100961Y-505921D01*
X-110386Y-531816D01*
X-147381Y-518351D01*
X-137956Y-492456D01*
G37*
G36*
X-241571Y-546914D02*
X-278566Y-533449D01*
X-269141Y-507554D01*
X-232146Y-521019D01*
X-241571Y-546914D01*
G37*
G36*
X-221373Y-491420D02*
X-258368Y-477955D01*
X-248943Y-452060D01*
X-211948Y-465525D01*
X-221373Y-491420D01*
G37*
G36*
X-471907Y-320316D02*
X-452222Y-354411D01*
X-476087Y-368190D01*
X-495772Y-334095D01*
X-471907Y-320316D01*
G37*
G36*
X-420763Y-290789D02*
X-401078Y-324884D01*
X-424943Y-338663D01*
X-444628Y-304568D01*
X-420763Y-290789D01*
G37*
G36*
X-535142Y-265904D02*
X-554827Y-231809D01*
X-530962Y-218030D01*
X-511277Y-252125D01*
X-535142Y-265904D01*
G37*
G36*
X-483999Y-236376D02*
X-503684Y-202281D01*
X-479819Y-188502D01*
X-460134Y-222597D01*
X-483999Y-236376D01*
G37*
G36*
X-566638Y59435D02*
X-573474Y20664D01*
X-600612Y25449D01*
X-593776Y64220D01*
X-566638Y59435D01*
G37*
G36*
X-508480Y49180D02*
X-515316Y10409D01*
X-542454Y15194D01*
X-535618Y53965D01*
X-508480Y49180D01*
G37*
G36*
X-580102Y141765D02*
X-573266Y180536D01*
X-546128Y175751D01*
X-552964Y136980D01*
X-580102Y141765D01*
G37*
G36*
X-521945Y131510D02*
X-515109Y170281D01*
X-487971Y165496D01*
X-494807Y126725D01*
X-521945Y131510D01*
G37*
G36*
X-395598Y409985D02*
X-425756Y384680D01*
X-443470Y405791D01*
X-413312Y431096D01*
X-395598Y409985D01*
G37*
G36*
X-357638Y364746D02*
X-387796Y339441D01*
X-405510Y360552D01*
X-375352Y385857D01*
X-357638Y364746D01*
G37*
G36*
X-352992Y481711D02*
X-322834Y507016D01*
X-305120Y485905D01*
X-335278Y460600D01*
X-352992Y481711D01*
G37*
G36*
X-315032Y436472D02*
X-284874Y461777D01*
X-267160Y440666D01*
X-297318Y415361D01*
X-315032Y436472D01*
G37*
X-59055Y580709D03*
X-59055Y521654D03*
X59055Y580709D03*
X59055Y521654D03*
G36*
X334687Y460600D02*
X304529Y485905D01*
X322243Y507016D01*
X352401Y481711D01*
X334687Y460600D01*
G37*
G36*
X296728Y415361D02*
X266570Y440666D01*
X284284Y461777D01*
X314442Y436472D01*
X296728Y415361D01*
G37*
G36*
X412721Y431096D02*
X442879Y405791D01*
X425165Y384680D01*
X395007Y409985D01*
X412721Y431096D01*
G37*
G36*
X374761Y385857D02*
X404919Y360552D01*
X387205Y339441D01*
X357047Y364746D01*
X374761Y385857D01*
G37*
D12*
X423622Y49803D03*
X423622Y-197D03*
X423622Y-50197D03*
X373622Y-50197D03*
X373622Y-197D03*
X373622Y49803D03*
D13*
X49213Y440244D03*
X-147638Y442913D03*
X-305118Y-59055D03*
X-561024Y-59055D03*
D14*
X-55118Y0D03*
X55118Y0D03*
D15*
X0Y0D03*
D16*
X-403543Y0D03*
X-403543Y-39370D03*
X-482283Y0D03*
X-482283Y-39370D03*
D17*
X373622Y-50197D03*
X-242126Y-344488D03*
X232283Y-403543D03*
X39370Y-344488D03*
X-74803Y-226378D03*
X157480Y-98425D03*
X127953Y-98425D03*
X98425Y-98425D03*
X127953Y-127953D03*
X157480Y-127953D03*
X98425Y-127953D03*
X68898Y-127953D03*
X68898Y-98425D03*
X-393701Y177165D03*
X-242126Y-403543D03*
X-344488Y287402D03*
X-246063Y314961D03*
X-246063Y9843D03*
X-204724Y423228D03*
X232283Y-344488D03*
X-216535Y9843D03*
X-275591Y9843D03*
X-442913Y53150D03*
X-442913Y-98425D03*
X-78740Y413386D03*
X-108268Y413386D03*
X-137795Y413386D03*
X-167323Y413386D03*
X-192913Y-157480D03*
X-49213Y324803D03*
X177165Y324803D03*
X-167323Y-78740D03*
X19685Y-151575D03*
X39370Y-265748D03*
X-378937Y364173D03*
X-118110Y-511811D03*
X137795Y-570866D03*
X171260Y68898D03*
X-23622Y-226378D03*
D18*
X144172Y-567433D02*
X140739Y-570866D01*
X137795Y-570866D01*
X-378937Y364173D02*
X-380050Y364173D01*
X-381574Y362649D01*
X-123846Y-511811D02*
X-124171Y-512136D01*
X-123846Y-511811D02*
X-118110Y-511811D01*
D17*
X-15748Y364173D03*
X13780Y364173D03*
X43307Y364173D03*
X72835Y364173D03*
X240157Y364173D03*
X-403543Y-69370D03*
D19*
X-403543Y-39370D01*
D17*
X-482283Y-69370D03*
D19*
X-482283Y-39370D01*
D17*
X373622Y50000D03*
X-190945Y-344488D03*
X181102Y-344488D03*
X181102Y-403543D03*
X-531496Y-196850D03*
X-137795Y354331D03*
X-167323Y354331D03*
X-206693Y-541339D03*
X-141732Y-157480D03*
D19*
X373622Y49803D02*
X373622Y50000D01*
D17*
X423622Y49803D03*
X127953Y-442913D03*
X373622Y0D03*
X-49213Y-383858D03*
D19*
X373622Y-197D02*
X373622Y0D01*
D17*
X423622Y-197D03*
X98425Y-472441D03*
X29528Y-393701D03*
X-488357Y-274914D03*
X0Y-423228D03*
X-393701Y-275591D03*
X472441Y-344488D03*
X226378Y-492126D03*
D18*
X472581Y-344488D02*
X473997Y-343072D01*
X472581Y-344488D02*
X472441Y-344488D01*
X226378Y-480127D02*
X226378Y-492126D01*
X226378Y-480127D02*
X234961Y-471543D01*
D17*
X585630Y39370D03*
X482283Y-206693D03*
D18*
X585630Y41224D02*
X583034Y43820D01*
X585630Y41224D02*
X585630Y39370D01*
X481909Y-207068D02*
X481909Y-211258D01*
X481909Y-207068D02*
X482283Y-206693D01*
D17*
X-423228Y-314961D03*
X-255906Y-526575D03*
D18*
X-423088Y-314961D02*
X-422853Y-314726D01*
X-423088Y-314961D02*
X-423228Y-314961D01*
X-255906Y-526685D02*
X-255356Y-527234D01*
X-255906Y-526685D02*
X-255906Y-526575D01*
D17*
X-531496Y-246063D03*
X-570866Y118110D03*
D18*
X-525467Y72711D01*
X-525467Y32187D01*
X-533052Y-241967D02*
X-531496Y-243523D01*
X-531496Y-246063D01*
D17*
X-329724Y482283D03*
X-59055Y521654D03*
D18*
X-329056Y483808D02*
X-329056Y482952D01*
X-329724Y482283D01*
D17*
X59055Y580709D03*
X285433Y442913D03*
D18*
X289778Y438569D02*
X290506Y438569D01*
X289778Y438569D02*
X285433Y442913D01*
D17*
X501969Y157480D03*
X423228Y403543D03*
X-561024Y162402D03*
D18*
X418943Y407888D02*
X423228Y403603D01*
X423228Y403543D01*
X501969Y152279D02*
X504367Y149881D01*
X501969Y152279D02*
X501969Y157480D01*
X-563115Y158758D02*
X-563115Y160310D01*
X-561024Y162402D01*
D17*
X-248031Y423228D03*
X39370Y-521654D03*
X-403543Y30000D03*
D19*
X-403543Y0D01*
D17*
X-482283Y30000D03*
D19*
X-482283Y0D01*
D17*
X59055Y49213D03*
X59055Y0D03*
X59055Y-49213D03*
X98425Y49213D03*
X98425Y0D03*
X98425Y-49213D03*
X78740Y-19685D03*
X78740Y19685D03*
X-59055Y49213D03*
X-59055Y-49213D03*
X-59055Y0D03*
X-98425Y49213D03*
X-98425Y0D03*
X-98425Y-49213D03*
X-78740Y19685D03*
X-78740Y-19685D03*
X-185039Y-452756D03*
X-147638Y-19685D03*
X-185039Y-501969D03*
X-187008Y-19685D03*
M02*
