G04 EAGLE Gerber RS-274X export*
G75*
%MOMM*%
%FSLAX35Y35*%
%LPD*%
%INsilk_bottom*%
%IPPOS*%
%AMOC8*
5,1,8,0,0,1.08239X$1,22.5*%
G01*
%ADD10C,0.000000*%
%ADD11C,0.050800*%


D10*
X100Y3199800D02*
X100Y299800D01*
X188Y292551D01*
X450Y285306D01*
X888Y278070D01*
X1501Y270846D01*
X2287Y263639D01*
X3248Y256453D01*
X4382Y249293D01*
X5689Y242162D01*
X7168Y235065D01*
X8817Y228005D01*
X10637Y220988D01*
X12626Y214016D01*
X14783Y207095D01*
X17106Y200228D01*
X19595Y193419D01*
X22248Y186672D01*
X25062Y179991D01*
X28038Y173380D01*
X31172Y166843D01*
X34463Y160383D01*
X37910Y154005D01*
X41509Y147712D01*
X45260Y141508D01*
X49159Y135396D01*
X53205Y129381D01*
X57395Y123464D01*
X61727Y117651D01*
X66198Y111944D01*
X70805Y106347D01*
X75547Y100863D01*
X80419Y95495D01*
X85420Y90247D01*
X90547Y85120D01*
X95795Y80119D01*
X101163Y75247D01*
X106647Y70505D01*
X112244Y65898D01*
X117951Y61427D01*
X123764Y57095D01*
X129681Y52905D01*
X135696Y48859D01*
X141808Y44960D01*
X148012Y41209D01*
X154305Y37610D01*
X160683Y34163D01*
X167143Y30872D01*
X173680Y27738D01*
X180291Y24762D01*
X186972Y21948D01*
X193719Y19295D01*
X200528Y16806D01*
X207395Y14483D01*
X214316Y12326D01*
X221288Y10337D01*
X228305Y8517D01*
X235365Y6868D01*
X242462Y5389D01*
X249593Y4082D01*
X256753Y2948D01*
X263939Y1987D01*
X271146Y1201D01*
X278370Y588D01*
X285606Y150D01*
X292851Y-112D01*
X300100Y-200D01*
X3200100Y-200D01*
X3207349Y-112D01*
X3214594Y150D01*
X3221830Y588D01*
X3229054Y1201D01*
X3236261Y1987D01*
X3243447Y2948D01*
X3250607Y4082D01*
X3257738Y5389D01*
X3264835Y6868D01*
X3271895Y8517D01*
X3278912Y10337D01*
X3285884Y12326D01*
X3292805Y14483D01*
X3299672Y16806D01*
X3306481Y19295D01*
X3313228Y21948D01*
X3319909Y24762D01*
X3326520Y27738D01*
X3333057Y30872D01*
X3339517Y34163D01*
X3345895Y37610D01*
X3352188Y41209D01*
X3358392Y44960D01*
X3364504Y48859D01*
X3370519Y52905D01*
X3376436Y57095D01*
X3382249Y61427D01*
X3387956Y65898D01*
X3393553Y70505D01*
X3399037Y75247D01*
X3404405Y80119D01*
X3409653Y85120D01*
X3414780Y90247D01*
X3419781Y95495D01*
X3424653Y100863D01*
X3429395Y106347D01*
X3434002Y111944D01*
X3438473Y117651D01*
X3442805Y123464D01*
X3446995Y129381D01*
X3451041Y135396D01*
X3454940Y141508D01*
X3458691Y147712D01*
X3462290Y154005D01*
X3465737Y160383D01*
X3469028Y166843D01*
X3472162Y173380D01*
X3475138Y179991D01*
X3477952Y186672D01*
X3480605Y193419D01*
X3483094Y200228D01*
X3485417Y207095D01*
X3487574Y214016D01*
X3489563Y220988D01*
X3491383Y228005D01*
X3493032Y235065D01*
X3494511Y242162D01*
X3495818Y249293D01*
X3496952Y256453D01*
X3497913Y263639D01*
X3498699Y270846D01*
X3499312Y278070D01*
X3499750Y285306D01*
X3500012Y292551D01*
X3500100Y299800D01*
X3500100Y3199800D01*
X3500012Y3207049D01*
X3499750Y3214294D01*
X3499312Y3221530D01*
X3498699Y3228754D01*
X3497913Y3235961D01*
X3496952Y3243147D01*
X3495818Y3250307D01*
X3494511Y3257438D01*
X3493032Y3264535D01*
X3491383Y3271595D01*
X3489563Y3278612D01*
X3487574Y3285584D01*
X3485417Y3292505D01*
X3483094Y3299372D01*
X3480605Y3306181D01*
X3477952Y3312928D01*
X3475138Y3319609D01*
X3472162Y3326220D01*
X3469028Y3332757D01*
X3465737Y3339217D01*
X3462290Y3345595D01*
X3458691Y3351888D01*
X3454940Y3358092D01*
X3451041Y3364204D01*
X3446995Y3370219D01*
X3442805Y3376136D01*
X3438473Y3381949D01*
X3434002Y3387656D01*
X3429395Y3393253D01*
X3424653Y3398737D01*
X3419781Y3404105D01*
X3414780Y3409353D01*
X3409653Y3414480D01*
X3404405Y3419481D01*
X3399037Y3424353D01*
X3393553Y3429095D01*
X3387956Y3433702D01*
X3382249Y3438173D01*
X3376436Y3442505D01*
X3370519Y3446695D01*
X3364504Y3450741D01*
X3358392Y3454640D01*
X3352188Y3458391D01*
X3345895Y3461990D01*
X3339517Y3465437D01*
X3333057Y3468728D01*
X3326520Y3471862D01*
X3319909Y3474838D01*
X3313228Y3477652D01*
X3306481Y3480305D01*
X3299672Y3482794D01*
X3292805Y3485117D01*
X3285884Y3487274D01*
X3278912Y3489263D01*
X3271895Y3491083D01*
X3264835Y3492732D01*
X3257738Y3494211D01*
X3250607Y3495518D01*
X3243447Y3496652D01*
X3236261Y3497613D01*
X3229054Y3498399D01*
X3221830Y3499012D01*
X3214594Y3499450D01*
X3207349Y3499712D01*
X3200100Y3499800D01*
X300100Y3499800D01*
X292851Y3499712D01*
X285606Y3499450D01*
X278370Y3499012D01*
X271146Y3498399D01*
X263939Y3497613D01*
X256753Y3496652D01*
X249593Y3495518D01*
X242462Y3494211D01*
X235365Y3492732D01*
X228305Y3491083D01*
X221288Y3489263D01*
X214316Y3487274D01*
X207395Y3485117D01*
X200528Y3482794D01*
X193719Y3480305D01*
X186972Y3477652D01*
X180291Y3474838D01*
X173680Y3471862D01*
X167143Y3468728D01*
X160683Y3465437D01*
X154305Y3461990D01*
X148012Y3458391D01*
X141808Y3454640D01*
X135696Y3450741D01*
X129681Y3446695D01*
X123764Y3442505D01*
X117951Y3438173D01*
X112244Y3433702D01*
X106647Y3429095D01*
X101163Y3424353D01*
X95795Y3419481D01*
X90547Y3414480D01*
X85420Y3409353D01*
X80419Y3404105D01*
X75547Y3398737D01*
X70805Y3393253D01*
X66198Y3387656D01*
X61727Y3381949D01*
X57395Y3376136D01*
X53205Y3370219D01*
X49159Y3364204D01*
X45260Y3358092D01*
X41509Y3351888D01*
X37910Y3345595D01*
X34463Y3339217D01*
X31172Y3332757D01*
X28038Y3326220D01*
X25062Y3319609D01*
X22248Y3312928D01*
X19595Y3306181D01*
X17106Y3299372D01*
X14783Y3292505D01*
X12626Y3285584D01*
X10637Y3278612D01*
X8817Y3271595D01*
X7168Y3264535D01*
X5689Y3257438D01*
X4382Y3250307D01*
X3248Y3243147D01*
X2287Y3235961D01*
X1501Y3228754D01*
X888Y3221530D01*
X450Y3214294D01*
X188Y3207049D01*
X100Y3199800D01*
D11*
X1856337Y2825540D02*
X1866319Y2825540D01*
X1866560Y2825543D01*
X1866801Y2825552D01*
X1867042Y2825566D01*
X1867282Y2825587D01*
X1867522Y2825613D01*
X1867761Y2825645D01*
X1868000Y2825682D01*
X1868237Y2825726D01*
X1868473Y2825775D01*
X1868708Y2825830D01*
X1868941Y2825891D01*
X1869173Y2825957D01*
X1869404Y2826029D01*
X1869632Y2826106D01*
X1869859Y2826189D01*
X1870083Y2826277D01*
X1870306Y2826371D01*
X1870526Y2826470D01*
X1870743Y2826574D01*
X1870958Y2826683D01*
X1871170Y2826798D01*
X1871380Y2826918D01*
X1871586Y2827043D01*
X1871789Y2827172D01*
X1871990Y2827307D01*
X1872186Y2827446D01*
X1872380Y2827591D01*
X1872570Y2827739D01*
X1872756Y2827893D01*
X1872938Y2828050D01*
X1873117Y2828213D01*
X1873292Y2828379D01*
X1873462Y2828550D01*
X1873629Y2828724D01*
X1873791Y2828903D01*
X1873949Y2829085D01*
X1874102Y2829272D01*
X1874251Y2829461D01*
X1874395Y2829655D01*
X1874534Y2829852D01*
X1874669Y2830052D01*
X1874798Y2830255D01*
X1874923Y2830462D01*
X1875043Y2830671D01*
X1875158Y2830883D01*
X1875267Y2831098D01*
X1875372Y2831316D01*
X1875471Y2831536D01*
X1875564Y2831758D01*
X1875652Y2831983D01*
X1875735Y2832209D01*
X1875813Y2832438D01*
X1875884Y2832668D01*
X1875950Y2832900D01*
X1876011Y2833133D01*
X1876066Y2833368D01*
X1876115Y2833604D01*
X1876159Y2833842D01*
X1876196Y2834080D01*
X1876228Y2834319D01*
X1876254Y2834559D01*
X1876275Y2834799D01*
X1876289Y2835040D01*
X1876298Y2835281D01*
X1876301Y2835522D01*
X1876301Y2860478D01*
X1876298Y2860723D01*
X1876289Y2860968D01*
X1876274Y2861212D01*
X1876253Y2861456D01*
X1876226Y2861700D01*
X1876193Y2861943D01*
X1876154Y2862185D01*
X1876109Y2862426D01*
X1876058Y2862665D01*
X1876002Y2862904D01*
X1875939Y2863140D01*
X1875871Y2863376D01*
X1875797Y2863609D01*
X1875717Y2863841D01*
X1875632Y2864071D01*
X1875541Y2864298D01*
X1875445Y2864523D01*
X1875343Y2864746D01*
X1875235Y2864966D01*
X1875122Y2865184D01*
X1875004Y2865398D01*
X1874881Y2865610D01*
X1874752Y2865819D01*
X1874619Y2866024D01*
X1874480Y2866226D01*
X1874337Y2866425D01*
X1874188Y2866620D01*
X1874035Y2866811D01*
X1873877Y2866998D01*
X1873715Y2867182D01*
X1873548Y2867361D01*
X1873377Y2867537D01*
X1873202Y2867708D01*
X1873022Y2867875D01*
X1872839Y2868037D01*
X1872651Y2868195D01*
X1872460Y2868348D01*
X1872265Y2868496D01*
X1872067Y2868640D01*
X1871865Y2868778D01*
X1871659Y2868912D01*
X1871451Y2869040D01*
X1871239Y2869164D01*
X1871024Y2869282D01*
X1870807Y2869395D01*
X1870587Y2869502D01*
X1870364Y2869604D01*
X1870139Y2869701D01*
X1869911Y2869792D01*
X1869682Y2869877D01*
X1869450Y2869957D01*
X1869216Y2870031D01*
X1868981Y2870099D01*
X1868744Y2870162D01*
X1868506Y2870218D01*
X1868266Y2870269D01*
X1868025Y2870314D01*
X1867783Y2870353D01*
X1867541Y2870386D01*
X1867297Y2870413D01*
X1867053Y2870434D01*
X1866808Y2870449D01*
X1866564Y2870458D01*
X1866319Y2870461D01*
X1866319Y2870460D02*
X1856337Y2870460D01*
X1824928Y2870460D02*
X1824657Y2870457D01*
X1824385Y2870447D01*
X1824115Y2870431D01*
X1823844Y2870408D01*
X1823574Y2870378D01*
X1823305Y2870342D01*
X1823037Y2870300D01*
X1822770Y2870251D01*
X1822505Y2870195D01*
X1822240Y2870134D01*
X1821978Y2870066D01*
X1821717Y2869991D01*
X1821458Y2869910D01*
X1821201Y2869823D01*
X1820946Y2869730D01*
X1820693Y2869631D01*
X1820443Y2869526D01*
X1820196Y2869414D01*
X1819951Y2869297D01*
X1819709Y2869174D01*
X1819470Y2869045D01*
X1819235Y2868910D01*
X1819003Y2868770D01*
X1818774Y2868624D01*
X1818549Y2868472D01*
X1818327Y2868315D01*
X1818110Y2868153D01*
X1817896Y2867986D01*
X1817686Y2867813D01*
X1817481Y2867636D01*
X1817280Y2867453D01*
X1817084Y2867266D01*
X1816892Y2867074D01*
X1816705Y2866878D01*
X1816522Y2866677D01*
X1816345Y2866472D01*
X1816172Y2866262D01*
X1816005Y2866048D01*
X1815843Y2865831D01*
X1815686Y2865609D01*
X1815534Y2865384D01*
X1815388Y2865155D01*
X1815248Y2864923D01*
X1815113Y2864688D01*
X1814984Y2864449D01*
X1814861Y2864207D01*
X1814744Y2863962D01*
X1814632Y2863715D01*
X1814527Y2863465D01*
X1814428Y2863212D01*
X1814335Y2862957D01*
X1814248Y2862700D01*
X1814167Y2862441D01*
X1814092Y2862180D01*
X1814024Y2861918D01*
X1813963Y2861653D01*
X1813907Y2861388D01*
X1813858Y2861121D01*
X1813816Y2860853D01*
X1813780Y2860584D01*
X1813750Y2860314D01*
X1813727Y2860043D01*
X1813711Y2859773D01*
X1813701Y2859501D01*
X1813698Y2859230D01*
X1824928Y2870460D02*
X1825277Y2870456D01*
X1825626Y2870443D01*
X1825974Y2870422D01*
X1826322Y2870393D01*
X1826668Y2870355D01*
X1827014Y2870308D01*
X1827359Y2870254D01*
X1827702Y2870191D01*
X1828044Y2870120D01*
X1828383Y2870040D01*
X1828721Y2869952D01*
X1829057Y2869857D01*
X1829390Y2869753D01*
X1829720Y2869641D01*
X1830048Y2869521D01*
X1830372Y2869393D01*
X1830694Y2869258D01*
X1831012Y2869114D01*
X1831327Y2868963D01*
X1831637Y2868805D01*
X1831944Y2868639D01*
X1832247Y2868466D01*
X1832546Y2868285D01*
X1832840Y2868097D01*
X1833129Y2867902D01*
X1833414Y2867700D01*
X1833694Y2867492D01*
X1833968Y2867276D01*
X1834237Y2867055D01*
X1834501Y2866826D01*
X1834759Y2866592D01*
X1835012Y2866351D01*
X1835258Y2866104D01*
X1835499Y2865851D01*
X1835733Y2865593D01*
X1835961Y2865328D01*
X1836183Y2865059D01*
X1836398Y2864784D01*
X1836606Y2864504D01*
X1836808Y2864219D01*
X1837002Y2863930D01*
X1837189Y2863635D01*
X1837370Y2863337D01*
X1837543Y2863034D01*
X1837708Y2862726D01*
X1837866Y2862415D01*
X1838017Y2862101D01*
X1838160Y2861782D01*
X1838295Y2861461D01*
X1838422Y2861136D01*
X1838542Y2860808D01*
X1838653Y2860477D01*
X1817441Y2850495D02*
X1817229Y2850702D01*
X1817023Y2850914D01*
X1816821Y2851131D01*
X1816625Y2851353D01*
X1816435Y2851579D01*
X1816250Y2851810D01*
X1816071Y2852046D01*
X1815897Y2852286D01*
X1815730Y2852530D01*
X1815568Y2852778D01*
X1815413Y2853030D01*
X1815264Y2853286D01*
X1815122Y2853545D01*
X1814985Y2853808D01*
X1814856Y2854074D01*
X1814732Y2854343D01*
X1814616Y2854615D01*
X1814506Y2854890D01*
X1814403Y2855167D01*
X1814306Y2855447D01*
X1814217Y2855729D01*
X1814135Y2856014D01*
X1814059Y2856300D01*
X1813991Y2856588D01*
X1813930Y2856877D01*
X1813875Y2857168D01*
X1813828Y2857460D01*
X1813789Y2857754D01*
X1813756Y2858048D01*
X1813731Y2858343D01*
X1813713Y2858638D01*
X1813702Y2858934D01*
X1813698Y2859230D01*
X1817441Y2850495D02*
X1838653Y2825540D01*
X1813698Y2825540D01*
X1793654Y2848000D02*
X1793643Y2848884D01*
X1793612Y2849767D01*
X1793559Y2850649D01*
X1793485Y2851530D01*
X1793391Y2852408D01*
X1793275Y2853284D01*
X1793138Y2854157D01*
X1792981Y2855027D01*
X1792803Y2855893D01*
X1792604Y2856754D01*
X1792385Y2857610D01*
X1792145Y2858460D01*
X1791886Y2859305D01*
X1791606Y2860143D01*
X1791306Y2860974D01*
X1790986Y2861798D01*
X1790647Y2862614D01*
X1790289Y2863422D01*
X1789911Y2864221D01*
X1789910Y2864221D02*
X1789835Y2864433D01*
X1789754Y2864642D01*
X1789668Y2864850D01*
X1789578Y2865056D01*
X1789482Y2865259D01*
X1789382Y2865460D01*
X1789276Y2865658D01*
X1789166Y2865854D01*
X1789051Y2866047D01*
X1788932Y2866237D01*
X1788808Y2866424D01*
X1788679Y2866608D01*
X1788546Y2866789D01*
X1788408Y2866966D01*
X1788267Y2867141D01*
X1788121Y2867311D01*
X1787971Y2867478D01*
X1787817Y2867642D01*
X1787659Y2867801D01*
X1787497Y2867957D01*
X1787331Y2868109D01*
X1787162Y2868257D01*
X1786989Y2868400D01*
X1786813Y2868539D01*
X1786634Y2868674D01*
X1786451Y2868805D01*
X1786265Y2868931D01*
X1786076Y2869052D01*
X1785884Y2869169D01*
X1785690Y2869281D01*
X1785493Y2869389D01*
X1785293Y2869491D01*
X1785091Y2869589D01*
X1784886Y2869682D01*
X1784679Y2869770D01*
X1784471Y2869852D01*
X1784260Y2869930D01*
X1784047Y2870002D01*
X1783833Y2870069D01*
X1783617Y2870131D01*
X1783400Y2870188D01*
X1783181Y2870240D01*
X1782961Y2870286D01*
X1782741Y2870326D01*
X1782519Y2870362D01*
X1782296Y2870392D01*
X1782073Y2870416D01*
X1781849Y2870435D01*
X1781625Y2870449D01*
X1781401Y2870457D01*
X1781176Y2870460D01*
X1780951Y2870457D01*
X1780727Y2870449D01*
X1780503Y2870435D01*
X1780279Y2870416D01*
X1780056Y2870392D01*
X1779833Y2870362D01*
X1779611Y2870326D01*
X1779391Y2870286D01*
X1779171Y2870240D01*
X1778952Y2870188D01*
X1778735Y2870131D01*
X1778519Y2870069D01*
X1778305Y2870002D01*
X1778092Y2869930D01*
X1777881Y2869852D01*
X1777672Y2869770D01*
X1777466Y2869682D01*
X1777261Y2869589D01*
X1777059Y2869491D01*
X1776859Y2869389D01*
X1776662Y2869281D01*
X1776467Y2869169D01*
X1776275Y2869052D01*
X1776087Y2868931D01*
X1775901Y2868805D01*
X1775718Y2868674D01*
X1775538Y2868539D01*
X1775362Y2868400D01*
X1775189Y2868257D01*
X1775020Y2868109D01*
X1774855Y2867957D01*
X1774693Y2867801D01*
X1774535Y2867642D01*
X1774381Y2867478D01*
X1774231Y2867311D01*
X1774085Y2867141D01*
X1773943Y2866966D01*
X1773806Y2866789D01*
X1773672Y2866608D01*
X1773544Y2866424D01*
X1773420Y2866237D01*
X1773300Y2866046D01*
X1773185Y2865853D01*
X1773075Y2865658D01*
X1772970Y2865459D01*
X1772869Y2865259D01*
X1772773Y2865055D01*
X1772683Y2864850D01*
X1772597Y2864642D01*
X1772517Y2864433D01*
X1772441Y2864221D01*
X1772063Y2863422D01*
X1771705Y2862614D01*
X1771366Y2861798D01*
X1771046Y2860974D01*
X1770746Y2860143D01*
X1770466Y2859305D01*
X1770207Y2858460D01*
X1769967Y2857610D01*
X1769748Y2856754D01*
X1769549Y2855893D01*
X1769371Y2855027D01*
X1769214Y2854157D01*
X1769077Y2853284D01*
X1768961Y2852408D01*
X1768867Y2851530D01*
X1768793Y2850649D01*
X1768740Y2849767D01*
X1768709Y2848884D01*
X1768698Y2848000D01*
X1793653Y2848000D02*
X1793642Y2847116D01*
X1793611Y2846233D01*
X1793558Y2845351D01*
X1793484Y2844470D01*
X1793390Y2843592D01*
X1793274Y2842716D01*
X1793137Y2841843D01*
X1792980Y2840973D01*
X1792802Y2840107D01*
X1792603Y2839246D01*
X1792384Y2838390D01*
X1792144Y2837540D01*
X1791885Y2836695D01*
X1791605Y2835857D01*
X1791305Y2835025D01*
X1790985Y2834201D01*
X1790646Y2833385D01*
X1790288Y2832578D01*
X1789910Y2831779D01*
X1789910Y2831778D02*
X1789834Y2831567D01*
X1789754Y2831357D01*
X1789668Y2831150D01*
X1789578Y2830944D01*
X1789482Y2830741D01*
X1789382Y2830540D01*
X1789276Y2830342D01*
X1789166Y2830146D01*
X1789051Y2829953D01*
X1788932Y2829763D01*
X1788807Y2829576D01*
X1788679Y2829392D01*
X1788546Y2829211D01*
X1788408Y2829033D01*
X1788267Y2828859D01*
X1788121Y2828689D01*
X1787971Y2828521D01*
X1787817Y2828358D01*
X1787659Y2828198D01*
X1787497Y2828043D01*
X1787331Y2827891D01*
X1787162Y2827743D01*
X1786989Y2827600D01*
X1786813Y2827461D01*
X1786634Y2827326D01*
X1786451Y2827195D01*
X1786265Y2827069D01*
X1786076Y2826948D01*
X1785884Y2826831D01*
X1785690Y2826719D01*
X1785492Y2826611D01*
X1785293Y2826509D01*
X1785090Y2826411D01*
X1784886Y2826318D01*
X1784679Y2826230D01*
X1784470Y2826148D01*
X1784260Y2826070D01*
X1784047Y2825998D01*
X1783833Y2825931D01*
X1783617Y2825869D01*
X1783400Y2825812D01*
X1783181Y2825760D01*
X1782961Y2825714D01*
X1782740Y2825674D01*
X1782519Y2825638D01*
X1782296Y2825608D01*
X1782073Y2825584D01*
X1781849Y2825565D01*
X1781625Y2825551D01*
X1781401Y2825543D01*
X1781176Y2825540D01*
X1772441Y2831779D02*
X1772063Y2832578D01*
X1771705Y2833385D01*
X1771366Y2834201D01*
X1771046Y2835025D01*
X1770746Y2835857D01*
X1770466Y2836695D01*
X1770207Y2837540D01*
X1769967Y2838390D01*
X1769748Y2839246D01*
X1769549Y2840107D01*
X1769371Y2840973D01*
X1769214Y2841843D01*
X1769077Y2842716D01*
X1768961Y2843592D01*
X1768867Y2844470D01*
X1768793Y2845351D01*
X1768740Y2846233D01*
X1768709Y2847116D01*
X1768698Y2848000D01*
X1772441Y2831779D02*
X1772517Y2831567D01*
X1772597Y2831357D01*
X1772683Y2831150D01*
X1772774Y2830944D01*
X1772869Y2830741D01*
X1772970Y2830540D01*
X1773075Y2830342D01*
X1773185Y2830146D01*
X1773300Y2829953D01*
X1773420Y2829763D01*
X1773544Y2829576D01*
X1773673Y2829392D01*
X1773806Y2829211D01*
X1773943Y2829034D01*
X1774085Y2828859D01*
X1774231Y2828689D01*
X1774381Y2828522D01*
X1774535Y2828358D01*
X1774693Y2828198D01*
X1774855Y2828043D01*
X1775020Y2827891D01*
X1775190Y2827743D01*
X1775362Y2827600D01*
X1775539Y2827461D01*
X1775718Y2827326D01*
X1775901Y2827195D01*
X1776087Y2827069D01*
X1776276Y2826948D01*
X1776467Y2826831D01*
X1776662Y2826719D01*
X1776859Y2826611D01*
X1777059Y2826509D01*
X1777261Y2826411D01*
X1777466Y2826318D01*
X1777673Y2826230D01*
X1777881Y2826148D01*
X1778092Y2826070D01*
X1778305Y2825998D01*
X1778519Y2825931D01*
X1778735Y2825869D01*
X1778952Y2825812D01*
X1779171Y2825760D01*
X1779391Y2825714D01*
X1779611Y2825674D01*
X1779833Y2825638D01*
X1780056Y2825608D01*
X1780279Y2825584D01*
X1780503Y2825565D01*
X1780727Y2825551D01*
X1780951Y2825543D01*
X1781176Y2825540D01*
X1791158Y2835522D02*
X1771193Y2860478D01*
X1734928Y2870460D02*
X1734657Y2870457D01*
X1734385Y2870447D01*
X1734115Y2870431D01*
X1733844Y2870408D01*
X1733574Y2870378D01*
X1733305Y2870342D01*
X1733037Y2870300D01*
X1732770Y2870251D01*
X1732505Y2870195D01*
X1732240Y2870134D01*
X1731978Y2870066D01*
X1731717Y2869991D01*
X1731458Y2869910D01*
X1731201Y2869823D01*
X1730946Y2869730D01*
X1730693Y2869631D01*
X1730443Y2869526D01*
X1730196Y2869414D01*
X1729951Y2869297D01*
X1729709Y2869174D01*
X1729470Y2869045D01*
X1729235Y2868910D01*
X1729003Y2868770D01*
X1728774Y2868624D01*
X1728549Y2868472D01*
X1728327Y2868315D01*
X1728110Y2868153D01*
X1727896Y2867986D01*
X1727686Y2867813D01*
X1727481Y2867636D01*
X1727280Y2867453D01*
X1727084Y2867266D01*
X1726892Y2867074D01*
X1726705Y2866878D01*
X1726522Y2866677D01*
X1726345Y2866472D01*
X1726172Y2866262D01*
X1726005Y2866048D01*
X1725843Y2865831D01*
X1725686Y2865609D01*
X1725534Y2865384D01*
X1725388Y2865155D01*
X1725248Y2864923D01*
X1725113Y2864688D01*
X1724984Y2864449D01*
X1724861Y2864207D01*
X1724744Y2863962D01*
X1724632Y2863715D01*
X1724527Y2863465D01*
X1724428Y2863212D01*
X1724335Y2862957D01*
X1724248Y2862700D01*
X1724167Y2862441D01*
X1724092Y2862180D01*
X1724024Y2861918D01*
X1723963Y2861653D01*
X1723907Y2861388D01*
X1723858Y2861121D01*
X1723816Y2860853D01*
X1723780Y2860584D01*
X1723750Y2860314D01*
X1723727Y2860043D01*
X1723711Y2859773D01*
X1723701Y2859501D01*
X1723698Y2859230D01*
X1734928Y2870460D02*
X1735277Y2870456D01*
X1735626Y2870443D01*
X1735974Y2870422D01*
X1736322Y2870393D01*
X1736668Y2870355D01*
X1737014Y2870308D01*
X1737359Y2870254D01*
X1737702Y2870191D01*
X1738044Y2870120D01*
X1738383Y2870040D01*
X1738721Y2869952D01*
X1739057Y2869857D01*
X1739390Y2869753D01*
X1739720Y2869641D01*
X1740048Y2869521D01*
X1740372Y2869393D01*
X1740694Y2869258D01*
X1741012Y2869114D01*
X1741327Y2868963D01*
X1741637Y2868805D01*
X1741944Y2868639D01*
X1742247Y2868466D01*
X1742546Y2868285D01*
X1742840Y2868097D01*
X1743129Y2867902D01*
X1743414Y2867700D01*
X1743694Y2867492D01*
X1743968Y2867276D01*
X1744237Y2867055D01*
X1744501Y2866826D01*
X1744759Y2866592D01*
X1745012Y2866351D01*
X1745258Y2866104D01*
X1745499Y2865851D01*
X1745733Y2865593D01*
X1745961Y2865328D01*
X1746183Y2865059D01*
X1746398Y2864784D01*
X1746606Y2864504D01*
X1746808Y2864219D01*
X1747002Y2863930D01*
X1747189Y2863635D01*
X1747370Y2863337D01*
X1747543Y2863034D01*
X1747708Y2862726D01*
X1747866Y2862415D01*
X1748017Y2862101D01*
X1748160Y2861782D01*
X1748295Y2861461D01*
X1748422Y2861136D01*
X1748542Y2860808D01*
X1748653Y2860477D01*
X1727442Y2850495D02*
X1727230Y2850702D01*
X1727024Y2850914D01*
X1726822Y2851131D01*
X1726626Y2851353D01*
X1726436Y2851579D01*
X1726251Y2851810D01*
X1726072Y2852046D01*
X1725898Y2852286D01*
X1725731Y2852530D01*
X1725569Y2852778D01*
X1725414Y2853030D01*
X1725265Y2853286D01*
X1725123Y2853545D01*
X1724986Y2853808D01*
X1724857Y2854074D01*
X1724733Y2854343D01*
X1724617Y2854615D01*
X1724507Y2854890D01*
X1724404Y2855167D01*
X1724307Y2855447D01*
X1724218Y2855729D01*
X1724136Y2856014D01*
X1724060Y2856300D01*
X1723992Y2856588D01*
X1723931Y2856877D01*
X1723876Y2857168D01*
X1723829Y2857460D01*
X1723790Y2857754D01*
X1723757Y2858048D01*
X1723732Y2858343D01*
X1723714Y2858638D01*
X1723703Y2858934D01*
X1723699Y2859230D01*
X1727442Y2850495D02*
X1748654Y2825540D01*
X1723698Y2825540D01*
X1856337Y2375540D02*
X1866319Y2375540D01*
X1866560Y2375543D01*
X1866801Y2375552D01*
X1867042Y2375566D01*
X1867282Y2375587D01*
X1867522Y2375613D01*
X1867761Y2375645D01*
X1868000Y2375682D01*
X1868237Y2375726D01*
X1868473Y2375775D01*
X1868708Y2375830D01*
X1868941Y2375891D01*
X1869173Y2375957D01*
X1869404Y2376029D01*
X1869632Y2376106D01*
X1869859Y2376189D01*
X1870083Y2376277D01*
X1870306Y2376371D01*
X1870526Y2376470D01*
X1870743Y2376574D01*
X1870958Y2376683D01*
X1871170Y2376798D01*
X1871380Y2376918D01*
X1871586Y2377043D01*
X1871789Y2377172D01*
X1871990Y2377307D01*
X1872186Y2377446D01*
X1872380Y2377591D01*
X1872570Y2377739D01*
X1872756Y2377893D01*
X1872938Y2378050D01*
X1873117Y2378213D01*
X1873292Y2378379D01*
X1873462Y2378550D01*
X1873629Y2378724D01*
X1873791Y2378903D01*
X1873949Y2379085D01*
X1874102Y2379272D01*
X1874251Y2379461D01*
X1874395Y2379655D01*
X1874534Y2379852D01*
X1874669Y2380052D01*
X1874798Y2380255D01*
X1874923Y2380462D01*
X1875043Y2380671D01*
X1875158Y2380883D01*
X1875267Y2381098D01*
X1875372Y2381316D01*
X1875471Y2381536D01*
X1875564Y2381758D01*
X1875652Y2381983D01*
X1875735Y2382209D01*
X1875813Y2382438D01*
X1875884Y2382668D01*
X1875950Y2382900D01*
X1876011Y2383133D01*
X1876066Y2383368D01*
X1876115Y2383604D01*
X1876159Y2383842D01*
X1876196Y2384080D01*
X1876228Y2384319D01*
X1876254Y2384559D01*
X1876275Y2384799D01*
X1876289Y2385040D01*
X1876298Y2385281D01*
X1876301Y2385522D01*
X1876302Y2385522D02*
X1876302Y2410478D01*
X1876299Y2410723D01*
X1876290Y2410968D01*
X1876275Y2411212D01*
X1876254Y2411456D01*
X1876227Y2411700D01*
X1876194Y2411943D01*
X1876155Y2412185D01*
X1876110Y2412426D01*
X1876059Y2412665D01*
X1876003Y2412904D01*
X1875940Y2413140D01*
X1875872Y2413376D01*
X1875798Y2413609D01*
X1875718Y2413841D01*
X1875633Y2414071D01*
X1875542Y2414298D01*
X1875446Y2414523D01*
X1875344Y2414746D01*
X1875236Y2414966D01*
X1875123Y2415184D01*
X1875005Y2415398D01*
X1874882Y2415610D01*
X1874753Y2415819D01*
X1874620Y2416024D01*
X1874481Y2416226D01*
X1874338Y2416425D01*
X1874189Y2416620D01*
X1874036Y2416811D01*
X1873878Y2416998D01*
X1873716Y2417182D01*
X1873549Y2417361D01*
X1873378Y2417537D01*
X1873203Y2417708D01*
X1873023Y2417875D01*
X1872840Y2418037D01*
X1872652Y2418195D01*
X1872461Y2418348D01*
X1872266Y2418496D01*
X1872068Y2418640D01*
X1871866Y2418778D01*
X1871660Y2418912D01*
X1871452Y2419040D01*
X1871240Y2419164D01*
X1871025Y2419282D01*
X1870808Y2419395D01*
X1870588Y2419502D01*
X1870365Y2419604D01*
X1870140Y2419701D01*
X1869912Y2419792D01*
X1869683Y2419877D01*
X1869451Y2419957D01*
X1869217Y2420031D01*
X1868982Y2420099D01*
X1868745Y2420162D01*
X1868507Y2420218D01*
X1868267Y2420269D01*
X1868026Y2420314D01*
X1867784Y2420353D01*
X1867542Y2420386D01*
X1867298Y2420413D01*
X1867054Y2420434D01*
X1866809Y2420449D01*
X1866565Y2420458D01*
X1866320Y2420461D01*
X1866319Y2420460D02*
X1856337Y2420460D01*
X1824928Y2420460D02*
X1824657Y2420457D01*
X1824385Y2420447D01*
X1824115Y2420431D01*
X1823844Y2420408D01*
X1823574Y2420378D01*
X1823305Y2420342D01*
X1823037Y2420300D01*
X1822770Y2420251D01*
X1822505Y2420195D01*
X1822240Y2420134D01*
X1821978Y2420066D01*
X1821717Y2419991D01*
X1821458Y2419910D01*
X1821201Y2419823D01*
X1820946Y2419730D01*
X1820693Y2419631D01*
X1820443Y2419526D01*
X1820196Y2419414D01*
X1819951Y2419297D01*
X1819709Y2419174D01*
X1819470Y2419045D01*
X1819235Y2418910D01*
X1819003Y2418770D01*
X1818774Y2418624D01*
X1818549Y2418472D01*
X1818327Y2418315D01*
X1818110Y2418153D01*
X1817896Y2417986D01*
X1817686Y2417813D01*
X1817481Y2417636D01*
X1817280Y2417453D01*
X1817084Y2417266D01*
X1816892Y2417074D01*
X1816705Y2416878D01*
X1816522Y2416677D01*
X1816345Y2416472D01*
X1816172Y2416262D01*
X1816005Y2416048D01*
X1815843Y2415831D01*
X1815686Y2415609D01*
X1815534Y2415384D01*
X1815388Y2415155D01*
X1815248Y2414923D01*
X1815113Y2414688D01*
X1814984Y2414449D01*
X1814861Y2414207D01*
X1814744Y2413962D01*
X1814632Y2413715D01*
X1814527Y2413465D01*
X1814428Y2413212D01*
X1814335Y2412957D01*
X1814248Y2412700D01*
X1814167Y2412441D01*
X1814092Y2412180D01*
X1814024Y2411918D01*
X1813963Y2411653D01*
X1813907Y2411388D01*
X1813858Y2411121D01*
X1813816Y2410853D01*
X1813780Y2410584D01*
X1813750Y2410314D01*
X1813727Y2410043D01*
X1813711Y2409773D01*
X1813701Y2409501D01*
X1813698Y2409230D01*
X1824928Y2420460D02*
X1825277Y2420456D01*
X1825626Y2420443D01*
X1825974Y2420422D01*
X1826322Y2420393D01*
X1826668Y2420355D01*
X1827014Y2420308D01*
X1827359Y2420254D01*
X1827702Y2420191D01*
X1828044Y2420120D01*
X1828383Y2420040D01*
X1828721Y2419952D01*
X1829057Y2419857D01*
X1829390Y2419753D01*
X1829720Y2419641D01*
X1830048Y2419521D01*
X1830372Y2419393D01*
X1830694Y2419258D01*
X1831012Y2419114D01*
X1831327Y2418963D01*
X1831637Y2418805D01*
X1831944Y2418639D01*
X1832247Y2418466D01*
X1832546Y2418285D01*
X1832840Y2418097D01*
X1833129Y2417902D01*
X1833414Y2417700D01*
X1833694Y2417492D01*
X1833968Y2417276D01*
X1834237Y2417055D01*
X1834501Y2416826D01*
X1834759Y2416592D01*
X1835012Y2416351D01*
X1835258Y2416104D01*
X1835499Y2415851D01*
X1835733Y2415593D01*
X1835961Y2415328D01*
X1836183Y2415059D01*
X1836398Y2414784D01*
X1836606Y2414504D01*
X1836808Y2414219D01*
X1837002Y2413930D01*
X1837189Y2413635D01*
X1837370Y2413337D01*
X1837543Y2413034D01*
X1837708Y2412726D01*
X1837866Y2412415D01*
X1838017Y2412101D01*
X1838160Y2411782D01*
X1838295Y2411461D01*
X1838422Y2411136D01*
X1838542Y2410808D01*
X1838653Y2410477D01*
X1817441Y2400495D02*
X1817229Y2400702D01*
X1817023Y2400914D01*
X1816821Y2401131D01*
X1816625Y2401353D01*
X1816435Y2401579D01*
X1816250Y2401810D01*
X1816071Y2402046D01*
X1815897Y2402286D01*
X1815730Y2402530D01*
X1815568Y2402778D01*
X1815413Y2403030D01*
X1815264Y2403286D01*
X1815122Y2403545D01*
X1814985Y2403808D01*
X1814856Y2404074D01*
X1814732Y2404343D01*
X1814616Y2404615D01*
X1814506Y2404890D01*
X1814403Y2405167D01*
X1814306Y2405447D01*
X1814217Y2405729D01*
X1814135Y2406014D01*
X1814059Y2406300D01*
X1813991Y2406588D01*
X1813930Y2406877D01*
X1813875Y2407168D01*
X1813828Y2407460D01*
X1813789Y2407754D01*
X1813756Y2408048D01*
X1813731Y2408343D01*
X1813713Y2408638D01*
X1813702Y2408934D01*
X1813698Y2409230D01*
X1817441Y2400495D02*
X1838653Y2375540D01*
X1813698Y2375540D01*
X1793654Y2398000D02*
X1793643Y2398884D01*
X1793612Y2399767D01*
X1793559Y2400649D01*
X1793485Y2401530D01*
X1793391Y2402408D01*
X1793275Y2403284D01*
X1793138Y2404157D01*
X1792981Y2405027D01*
X1792803Y2405893D01*
X1792604Y2406754D01*
X1792385Y2407610D01*
X1792145Y2408460D01*
X1791886Y2409305D01*
X1791606Y2410143D01*
X1791306Y2410974D01*
X1790986Y2411798D01*
X1790647Y2412614D01*
X1790289Y2413422D01*
X1789911Y2414221D01*
X1789910Y2414221D02*
X1789835Y2414433D01*
X1789754Y2414642D01*
X1789668Y2414850D01*
X1789578Y2415056D01*
X1789482Y2415259D01*
X1789382Y2415460D01*
X1789276Y2415658D01*
X1789166Y2415854D01*
X1789051Y2416047D01*
X1788932Y2416237D01*
X1788808Y2416424D01*
X1788679Y2416608D01*
X1788546Y2416789D01*
X1788408Y2416966D01*
X1788267Y2417141D01*
X1788121Y2417311D01*
X1787971Y2417478D01*
X1787817Y2417642D01*
X1787659Y2417801D01*
X1787497Y2417957D01*
X1787331Y2418109D01*
X1787162Y2418257D01*
X1786989Y2418400D01*
X1786813Y2418539D01*
X1786634Y2418674D01*
X1786451Y2418805D01*
X1786265Y2418931D01*
X1786076Y2419052D01*
X1785884Y2419169D01*
X1785690Y2419281D01*
X1785493Y2419389D01*
X1785293Y2419491D01*
X1785091Y2419589D01*
X1784886Y2419682D01*
X1784679Y2419770D01*
X1784471Y2419852D01*
X1784260Y2419930D01*
X1784047Y2420002D01*
X1783833Y2420069D01*
X1783617Y2420131D01*
X1783400Y2420188D01*
X1783181Y2420240D01*
X1782961Y2420286D01*
X1782741Y2420326D01*
X1782519Y2420362D01*
X1782296Y2420392D01*
X1782073Y2420416D01*
X1781849Y2420435D01*
X1781625Y2420449D01*
X1781401Y2420457D01*
X1781176Y2420460D01*
X1780951Y2420457D01*
X1780727Y2420449D01*
X1780503Y2420435D01*
X1780279Y2420416D01*
X1780056Y2420392D01*
X1779833Y2420362D01*
X1779611Y2420326D01*
X1779391Y2420286D01*
X1779171Y2420240D01*
X1778952Y2420188D01*
X1778735Y2420131D01*
X1778519Y2420069D01*
X1778305Y2420002D01*
X1778092Y2419930D01*
X1777881Y2419852D01*
X1777672Y2419770D01*
X1777466Y2419682D01*
X1777261Y2419589D01*
X1777059Y2419491D01*
X1776859Y2419389D01*
X1776662Y2419281D01*
X1776467Y2419169D01*
X1776275Y2419052D01*
X1776087Y2418931D01*
X1775901Y2418805D01*
X1775718Y2418674D01*
X1775538Y2418539D01*
X1775362Y2418400D01*
X1775189Y2418257D01*
X1775020Y2418109D01*
X1774855Y2417957D01*
X1774693Y2417801D01*
X1774535Y2417642D01*
X1774381Y2417478D01*
X1774231Y2417311D01*
X1774085Y2417141D01*
X1773943Y2416966D01*
X1773806Y2416789D01*
X1773672Y2416608D01*
X1773544Y2416424D01*
X1773420Y2416237D01*
X1773300Y2416046D01*
X1773185Y2415853D01*
X1773075Y2415658D01*
X1772970Y2415459D01*
X1772869Y2415259D01*
X1772773Y2415055D01*
X1772683Y2414850D01*
X1772597Y2414642D01*
X1772517Y2414433D01*
X1772441Y2414221D01*
X1772063Y2413422D01*
X1771705Y2412614D01*
X1771366Y2411798D01*
X1771046Y2410974D01*
X1770746Y2410143D01*
X1770466Y2409305D01*
X1770207Y2408460D01*
X1769967Y2407610D01*
X1769748Y2406754D01*
X1769549Y2405893D01*
X1769371Y2405027D01*
X1769214Y2404157D01*
X1769077Y2403284D01*
X1768961Y2402408D01*
X1768867Y2401530D01*
X1768793Y2400649D01*
X1768740Y2399767D01*
X1768709Y2398884D01*
X1768698Y2398000D01*
X1793654Y2398000D02*
X1793643Y2397116D01*
X1793612Y2396233D01*
X1793559Y2395351D01*
X1793485Y2394470D01*
X1793391Y2393592D01*
X1793275Y2392716D01*
X1793138Y2391843D01*
X1792981Y2390973D01*
X1792803Y2390107D01*
X1792604Y2389246D01*
X1792385Y2388390D01*
X1792145Y2387540D01*
X1791886Y2386695D01*
X1791606Y2385857D01*
X1791306Y2385025D01*
X1790986Y2384201D01*
X1790647Y2383385D01*
X1790289Y2382578D01*
X1789911Y2381779D01*
X1789910Y2381778D02*
X1789834Y2381567D01*
X1789754Y2381357D01*
X1789668Y2381150D01*
X1789578Y2380944D01*
X1789482Y2380741D01*
X1789382Y2380540D01*
X1789276Y2380342D01*
X1789166Y2380146D01*
X1789051Y2379953D01*
X1788932Y2379763D01*
X1788807Y2379576D01*
X1788679Y2379392D01*
X1788546Y2379211D01*
X1788408Y2379033D01*
X1788267Y2378859D01*
X1788121Y2378689D01*
X1787971Y2378521D01*
X1787817Y2378358D01*
X1787659Y2378198D01*
X1787497Y2378043D01*
X1787331Y2377891D01*
X1787162Y2377743D01*
X1786989Y2377600D01*
X1786813Y2377461D01*
X1786634Y2377326D01*
X1786451Y2377195D01*
X1786265Y2377069D01*
X1786076Y2376948D01*
X1785884Y2376831D01*
X1785690Y2376719D01*
X1785492Y2376611D01*
X1785293Y2376509D01*
X1785090Y2376411D01*
X1784886Y2376318D01*
X1784679Y2376230D01*
X1784470Y2376148D01*
X1784260Y2376070D01*
X1784047Y2375998D01*
X1783833Y2375931D01*
X1783617Y2375869D01*
X1783400Y2375812D01*
X1783181Y2375760D01*
X1782961Y2375714D01*
X1782740Y2375674D01*
X1782519Y2375638D01*
X1782296Y2375608D01*
X1782073Y2375584D01*
X1781849Y2375565D01*
X1781625Y2375551D01*
X1781401Y2375543D01*
X1781176Y2375540D01*
X1772441Y2381779D02*
X1772063Y2382578D01*
X1771705Y2383385D01*
X1771366Y2384201D01*
X1771046Y2385025D01*
X1770746Y2385857D01*
X1770466Y2386695D01*
X1770207Y2387540D01*
X1769967Y2388390D01*
X1769748Y2389246D01*
X1769549Y2390107D01*
X1769371Y2390973D01*
X1769214Y2391843D01*
X1769077Y2392716D01*
X1768961Y2393592D01*
X1768867Y2394470D01*
X1768793Y2395351D01*
X1768740Y2396233D01*
X1768709Y2397116D01*
X1768698Y2398000D01*
X1772441Y2381779D02*
X1772517Y2381567D01*
X1772597Y2381357D01*
X1772683Y2381150D01*
X1772774Y2380944D01*
X1772869Y2380741D01*
X1772970Y2380540D01*
X1773075Y2380342D01*
X1773185Y2380146D01*
X1773300Y2379953D01*
X1773420Y2379763D01*
X1773544Y2379576D01*
X1773673Y2379392D01*
X1773806Y2379211D01*
X1773943Y2379034D01*
X1774085Y2378859D01*
X1774231Y2378689D01*
X1774381Y2378522D01*
X1774535Y2378358D01*
X1774693Y2378198D01*
X1774855Y2378043D01*
X1775020Y2377891D01*
X1775190Y2377743D01*
X1775362Y2377600D01*
X1775539Y2377461D01*
X1775718Y2377326D01*
X1775901Y2377195D01*
X1776087Y2377069D01*
X1776276Y2376948D01*
X1776467Y2376831D01*
X1776662Y2376719D01*
X1776859Y2376611D01*
X1777059Y2376509D01*
X1777261Y2376411D01*
X1777466Y2376318D01*
X1777673Y2376230D01*
X1777881Y2376148D01*
X1778092Y2376070D01*
X1778305Y2375998D01*
X1778519Y2375931D01*
X1778735Y2375869D01*
X1778952Y2375812D01*
X1779171Y2375760D01*
X1779391Y2375714D01*
X1779611Y2375674D01*
X1779833Y2375638D01*
X1780056Y2375608D01*
X1780279Y2375584D01*
X1780503Y2375565D01*
X1780727Y2375551D01*
X1780951Y2375543D01*
X1781176Y2375540D01*
X1791158Y2385522D02*
X1771194Y2410478D01*
X1748654Y2415469D02*
X1748654Y2420460D01*
X1723699Y2420460D01*
X1736177Y2375540D01*
X1428819Y2165040D02*
X1418837Y2165040D01*
X1428819Y2165040D02*
X1429060Y2165043D01*
X1429301Y2165052D01*
X1429542Y2165066D01*
X1429782Y2165087D01*
X1430022Y2165113D01*
X1430261Y2165145D01*
X1430500Y2165182D01*
X1430737Y2165226D01*
X1430973Y2165275D01*
X1431208Y2165330D01*
X1431441Y2165391D01*
X1431673Y2165457D01*
X1431904Y2165529D01*
X1432132Y2165606D01*
X1432359Y2165689D01*
X1432583Y2165777D01*
X1432806Y2165871D01*
X1433026Y2165970D01*
X1433243Y2166074D01*
X1433458Y2166183D01*
X1433670Y2166298D01*
X1433880Y2166418D01*
X1434086Y2166543D01*
X1434289Y2166672D01*
X1434490Y2166807D01*
X1434686Y2166946D01*
X1434880Y2167091D01*
X1435070Y2167239D01*
X1435256Y2167393D01*
X1435438Y2167550D01*
X1435617Y2167713D01*
X1435792Y2167879D01*
X1435962Y2168050D01*
X1436129Y2168224D01*
X1436291Y2168403D01*
X1436449Y2168585D01*
X1436602Y2168772D01*
X1436751Y2168961D01*
X1436895Y2169155D01*
X1437034Y2169352D01*
X1437169Y2169552D01*
X1437298Y2169755D01*
X1437423Y2169962D01*
X1437543Y2170171D01*
X1437658Y2170383D01*
X1437767Y2170598D01*
X1437872Y2170816D01*
X1437971Y2171036D01*
X1438064Y2171258D01*
X1438152Y2171483D01*
X1438235Y2171709D01*
X1438313Y2171938D01*
X1438384Y2172168D01*
X1438450Y2172400D01*
X1438511Y2172633D01*
X1438566Y2172868D01*
X1438615Y2173104D01*
X1438659Y2173342D01*
X1438696Y2173580D01*
X1438728Y2173819D01*
X1438754Y2174059D01*
X1438775Y2174299D01*
X1438789Y2174540D01*
X1438798Y2174781D01*
X1438801Y2175022D01*
X1438801Y2199978D01*
X1438798Y2200223D01*
X1438789Y2200468D01*
X1438774Y2200712D01*
X1438753Y2200956D01*
X1438726Y2201200D01*
X1438693Y2201443D01*
X1438654Y2201685D01*
X1438609Y2201926D01*
X1438558Y2202165D01*
X1438502Y2202404D01*
X1438439Y2202640D01*
X1438371Y2202876D01*
X1438297Y2203109D01*
X1438217Y2203341D01*
X1438132Y2203571D01*
X1438041Y2203798D01*
X1437945Y2204023D01*
X1437843Y2204246D01*
X1437735Y2204466D01*
X1437622Y2204684D01*
X1437504Y2204898D01*
X1437381Y2205110D01*
X1437252Y2205319D01*
X1437119Y2205524D01*
X1436980Y2205726D01*
X1436837Y2205925D01*
X1436688Y2206120D01*
X1436535Y2206311D01*
X1436377Y2206498D01*
X1436215Y2206682D01*
X1436048Y2206861D01*
X1435877Y2207037D01*
X1435702Y2207208D01*
X1435522Y2207375D01*
X1435339Y2207537D01*
X1435151Y2207695D01*
X1434960Y2207848D01*
X1434765Y2207996D01*
X1434567Y2208140D01*
X1434365Y2208278D01*
X1434159Y2208412D01*
X1433951Y2208540D01*
X1433739Y2208664D01*
X1433524Y2208782D01*
X1433307Y2208895D01*
X1433087Y2209002D01*
X1432864Y2209104D01*
X1432639Y2209201D01*
X1432411Y2209292D01*
X1432182Y2209377D01*
X1431950Y2209457D01*
X1431716Y2209531D01*
X1431481Y2209599D01*
X1431244Y2209662D01*
X1431006Y2209718D01*
X1430766Y2209769D01*
X1430525Y2209814D01*
X1430283Y2209853D01*
X1430041Y2209886D01*
X1429797Y2209913D01*
X1429553Y2209934D01*
X1429308Y2209949D01*
X1429064Y2209958D01*
X1428819Y2209961D01*
X1428819Y2209960D02*
X1418837Y2209960D01*
X1401153Y2165040D02*
X1388676Y2165040D01*
X1388372Y2165044D01*
X1388068Y2165055D01*
X1387765Y2165073D01*
X1387462Y2165099D01*
X1387160Y2165132D01*
X1386859Y2165173D01*
X1386559Y2165221D01*
X1386260Y2165276D01*
X1385963Y2165339D01*
X1385667Y2165408D01*
X1385373Y2165485D01*
X1385081Y2165569D01*
X1384791Y2165660D01*
X1384504Y2165758D01*
X1384218Y2165863D01*
X1383936Y2165975D01*
X1383656Y2166094D01*
X1383380Y2166220D01*
X1383106Y2166352D01*
X1382836Y2166491D01*
X1382569Y2166637D01*
X1382306Y2166789D01*
X1382046Y2166947D01*
X1381791Y2167111D01*
X1381540Y2167282D01*
X1381293Y2167459D01*
X1381050Y2167642D01*
X1380812Y2167830D01*
X1380578Y2168025D01*
X1380349Y2168225D01*
X1380125Y2168430D01*
X1379907Y2168641D01*
X1379693Y2168857D01*
X1379485Y2169079D01*
X1379282Y2169305D01*
X1379085Y2169536D01*
X1378893Y2169772D01*
X1378708Y2170013D01*
X1378528Y2170258D01*
X1378354Y2170507D01*
X1378186Y2170760D01*
X1378025Y2171018D01*
X1377870Y2171279D01*
X1377721Y2171544D01*
X1377579Y2171813D01*
X1377443Y2172084D01*
X1377314Y2172360D01*
X1377192Y2172638D01*
X1377076Y2172919D01*
X1376968Y2173203D01*
X1376866Y2173489D01*
X1376772Y2173778D01*
X1376684Y2174069D01*
X1376604Y2174362D01*
X1376530Y2174657D01*
X1376464Y2174953D01*
X1376406Y2175252D01*
X1376354Y2175551D01*
X1376310Y2175852D01*
X1376273Y2176153D01*
X1376243Y2176456D01*
X1376221Y2176759D01*
X1376206Y2177062D01*
X1376199Y2177366D01*
X1376199Y2177670D01*
X1376206Y2177974D01*
X1376221Y2178277D01*
X1376243Y2178580D01*
X1376273Y2178883D01*
X1376310Y2179184D01*
X1376354Y2179485D01*
X1376406Y2179784D01*
X1376464Y2180083D01*
X1376530Y2180379D01*
X1376604Y2180674D01*
X1376684Y2180967D01*
X1376772Y2181258D01*
X1376866Y2181547D01*
X1376968Y2181833D01*
X1377076Y2182117D01*
X1377192Y2182398D01*
X1377314Y2182676D01*
X1377443Y2182952D01*
X1377579Y2183223D01*
X1377721Y2183492D01*
X1377870Y2183757D01*
X1378025Y2184018D01*
X1378186Y2184276D01*
X1378354Y2184529D01*
X1378528Y2184778D01*
X1378708Y2185023D01*
X1378893Y2185264D01*
X1379085Y2185500D01*
X1379282Y2185731D01*
X1379485Y2185957D01*
X1379693Y2186179D01*
X1379907Y2186395D01*
X1380125Y2186606D01*
X1380349Y2186811D01*
X1380578Y2187011D01*
X1380812Y2187206D01*
X1381050Y2187394D01*
X1381293Y2187577D01*
X1381540Y2187754D01*
X1381791Y2187925D01*
X1382046Y2188089D01*
X1382306Y2188247D01*
X1382569Y2188399D01*
X1382836Y2188545D01*
X1383106Y2188684D01*
X1383380Y2188816D01*
X1383656Y2188942D01*
X1383936Y2189061D01*
X1384218Y2189173D01*
X1384504Y2189278D01*
X1384791Y2189376D01*
X1385081Y2189467D01*
X1385373Y2189551D01*
X1385667Y2189628D01*
X1385963Y2189697D01*
X1386260Y2189760D01*
X1386559Y2189815D01*
X1386859Y2189863D01*
X1387160Y2189904D01*
X1387462Y2189937D01*
X1387765Y2189963D01*
X1388068Y2189981D01*
X1388372Y2189992D01*
X1388676Y2189996D01*
X1386180Y2209960D02*
X1401153Y2209960D01*
X1386180Y2209961D02*
X1385937Y2209958D01*
X1385694Y2209949D01*
X1385451Y2209934D01*
X1385209Y2209914D01*
X1384967Y2209887D01*
X1384726Y2209855D01*
X1384486Y2209816D01*
X1384247Y2209772D01*
X1384009Y2209722D01*
X1383773Y2209666D01*
X1383538Y2209605D01*
X1383304Y2209538D01*
X1383072Y2209465D01*
X1382842Y2209386D01*
X1382614Y2209302D01*
X1382388Y2209213D01*
X1382164Y2209118D01*
X1381943Y2209017D01*
X1381724Y2208911D01*
X1381508Y2208800D01*
X1381294Y2208684D01*
X1381084Y2208562D01*
X1380876Y2208435D01*
X1380672Y2208304D01*
X1380471Y2208167D01*
X1380273Y2208026D01*
X1380079Y2207880D01*
X1379888Y2207729D01*
X1379701Y2207573D01*
X1379518Y2207413D01*
X1379339Y2207249D01*
X1379164Y2207080D01*
X1378993Y2206907D01*
X1378827Y2206730D01*
X1378664Y2206549D01*
X1378507Y2206364D01*
X1378353Y2206175D01*
X1378205Y2205983D01*
X1378061Y2205787D01*
X1377922Y2205587D01*
X1377788Y2205385D01*
X1377659Y2205179D01*
X1377534Y2204970D01*
X1377415Y2204757D01*
X1377302Y2204543D01*
X1377193Y2204325D01*
X1377090Y2204105D01*
X1376992Y2203882D01*
X1376900Y2203658D01*
X1376813Y2203430D01*
X1376732Y2203201D01*
X1376656Y2202970D01*
X1376586Y2202737D01*
X1376522Y2202503D01*
X1376463Y2202267D01*
X1376410Y2202030D01*
X1376363Y2201791D01*
X1376322Y2201552D01*
X1376286Y2201311D01*
X1376257Y2201070D01*
X1376233Y2200828D01*
X1376215Y2200585D01*
X1376204Y2200343D01*
X1376198Y2200100D01*
X1376198Y2199856D01*
X1376204Y2199613D01*
X1376215Y2199371D01*
X1376233Y2199128D01*
X1376257Y2198886D01*
X1376286Y2198645D01*
X1376322Y2198404D01*
X1376363Y2198165D01*
X1376410Y2197926D01*
X1376463Y2197689D01*
X1376522Y2197453D01*
X1376586Y2197219D01*
X1376656Y2196986D01*
X1376732Y2196755D01*
X1376813Y2196526D01*
X1376900Y2196298D01*
X1376992Y2196074D01*
X1377090Y2195851D01*
X1377193Y2195631D01*
X1377302Y2195413D01*
X1377415Y2195199D01*
X1377534Y2194987D01*
X1377659Y2194777D01*
X1377788Y2194571D01*
X1377922Y2194369D01*
X1378061Y2194169D01*
X1378205Y2193973D01*
X1378353Y2193781D01*
X1378507Y2193592D01*
X1378664Y2193407D01*
X1378827Y2193226D01*
X1378993Y2193049D01*
X1379164Y2192876D01*
X1379339Y2192707D01*
X1379518Y2192543D01*
X1379701Y2192383D01*
X1379888Y2192227D01*
X1380079Y2192076D01*
X1380273Y2191930D01*
X1380471Y2191789D01*
X1380672Y2191652D01*
X1380876Y2191521D01*
X1381084Y2191394D01*
X1381294Y2191272D01*
X1381508Y2191156D01*
X1381724Y2191045D01*
X1381943Y2190939D01*
X1382164Y2190838D01*
X1382388Y2190743D01*
X1382614Y2190654D01*
X1382842Y2190570D01*
X1383072Y2190491D01*
X1383304Y2190418D01*
X1383538Y2190351D01*
X1383773Y2190290D01*
X1384009Y2190234D01*
X1384247Y2190184D01*
X1384486Y2190140D01*
X1384726Y2190101D01*
X1384967Y2190069D01*
X1385209Y2190042D01*
X1385451Y2190022D01*
X1385694Y2190007D01*
X1385937Y2189998D01*
X1386180Y2189995D01*
X1396162Y2189995D01*
X1356154Y2187500D02*
X1356143Y2188384D01*
X1356112Y2189267D01*
X1356059Y2190149D01*
X1355985Y2191030D01*
X1355891Y2191908D01*
X1355775Y2192784D01*
X1355638Y2193657D01*
X1355481Y2194527D01*
X1355303Y2195393D01*
X1355104Y2196254D01*
X1354885Y2197110D01*
X1354645Y2197960D01*
X1354386Y2198805D01*
X1354106Y2199643D01*
X1353806Y2200474D01*
X1353486Y2201298D01*
X1353147Y2202114D01*
X1352789Y2202922D01*
X1352411Y2203721D01*
X1352410Y2203721D02*
X1352335Y2203933D01*
X1352254Y2204142D01*
X1352168Y2204350D01*
X1352078Y2204556D01*
X1351982Y2204759D01*
X1351882Y2204960D01*
X1351776Y2205158D01*
X1351666Y2205354D01*
X1351551Y2205547D01*
X1351432Y2205737D01*
X1351308Y2205924D01*
X1351179Y2206108D01*
X1351046Y2206289D01*
X1350908Y2206466D01*
X1350767Y2206641D01*
X1350621Y2206811D01*
X1350471Y2206978D01*
X1350317Y2207142D01*
X1350159Y2207301D01*
X1349997Y2207457D01*
X1349831Y2207609D01*
X1349662Y2207757D01*
X1349489Y2207900D01*
X1349313Y2208039D01*
X1349134Y2208174D01*
X1348951Y2208305D01*
X1348765Y2208431D01*
X1348576Y2208552D01*
X1348384Y2208669D01*
X1348190Y2208781D01*
X1347993Y2208889D01*
X1347793Y2208991D01*
X1347591Y2209089D01*
X1347386Y2209182D01*
X1347179Y2209270D01*
X1346971Y2209352D01*
X1346760Y2209430D01*
X1346547Y2209502D01*
X1346333Y2209569D01*
X1346117Y2209631D01*
X1345900Y2209688D01*
X1345681Y2209740D01*
X1345461Y2209786D01*
X1345241Y2209826D01*
X1345019Y2209862D01*
X1344796Y2209892D01*
X1344573Y2209916D01*
X1344349Y2209935D01*
X1344125Y2209949D01*
X1343901Y2209957D01*
X1343676Y2209960D01*
X1343451Y2209957D01*
X1343227Y2209949D01*
X1343003Y2209935D01*
X1342779Y2209916D01*
X1342556Y2209892D01*
X1342333Y2209862D01*
X1342111Y2209826D01*
X1341891Y2209786D01*
X1341671Y2209740D01*
X1341452Y2209688D01*
X1341235Y2209631D01*
X1341019Y2209569D01*
X1340805Y2209502D01*
X1340592Y2209430D01*
X1340381Y2209352D01*
X1340172Y2209270D01*
X1339966Y2209182D01*
X1339761Y2209089D01*
X1339559Y2208991D01*
X1339359Y2208889D01*
X1339162Y2208781D01*
X1338967Y2208669D01*
X1338775Y2208552D01*
X1338587Y2208431D01*
X1338401Y2208305D01*
X1338218Y2208174D01*
X1338038Y2208039D01*
X1337862Y2207900D01*
X1337689Y2207757D01*
X1337520Y2207609D01*
X1337355Y2207457D01*
X1337193Y2207301D01*
X1337035Y2207142D01*
X1336881Y2206978D01*
X1336731Y2206811D01*
X1336585Y2206641D01*
X1336443Y2206466D01*
X1336306Y2206289D01*
X1336172Y2206108D01*
X1336044Y2205924D01*
X1335920Y2205737D01*
X1335800Y2205546D01*
X1335685Y2205353D01*
X1335575Y2205158D01*
X1335470Y2204959D01*
X1335369Y2204759D01*
X1335273Y2204555D01*
X1335183Y2204350D01*
X1335097Y2204142D01*
X1335017Y2203933D01*
X1334941Y2203721D01*
X1334563Y2202922D01*
X1334205Y2202114D01*
X1333866Y2201298D01*
X1333546Y2200474D01*
X1333246Y2199643D01*
X1332966Y2198805D01*
X1332707Y2197960D01*
X1332467Y2197110D01*
X1332248Y2196254D01*
X1332049Y2195393D01*
X1331871Y2194527D01*
X1331714Y2193657D01*
X1331577Y2192784D01*
X1331461Y2191908D01*
X1331367Y2191030D01*
X1331293Y2190149D01*
X1331240Y2189267D01*
X1331209Y2188384D01*
X1331198Y2187500D01*
X1356153Y2187500D02*
X1356142Y2186616D01*
X1356111Y2185733D01*
X1356058Y2184851D01*
X1355984Y2183970D01*
X1355890Y2183092D01*
X1355774Y2182216D01*
X1355637Y2181343D01*
X1355480Y2180473D01*
X1355302Y2179607D01*
X1355103Y2178746D01*
X1354884Y2177890D01*
X1354644Y2177040D01*
X1354385Y2176195D01*
X1354105Y2175357D01*
X1353805Y2174525D01*
X1353485Y2173701D01*
X1353146Y2172885D01*
X1352788Y2172078D01*
X1352410Y2171279D01*
X1352410Y2171278D02*
X1352334Y2171067D01*
X1352254Y2170857D01*
X1352168Y2170650D01*
X1352078Y2170444D01*
X1351982Y2170241D01*
X1351882Y2170040D01*
X1351776Y2169842D01*
X1351666Y2169646D01*
X1351551Y2169453D01*
X1351432Y2169263D01*
X1351307Y2169076D01*
X1351179Y2168892D01*
X1351046Y2168711D01*
X1350908Y2168533D01*
X1350767Y2168359D01*
X1350621Y2168189D01*
X1350471Y2168021D01*
X1350317Y2167858D01*
X1350159Y2167698D01*
X1349997Y2167543D01*
X1349831Y2167391D01*
X1349662Y2167243D01*
X1349489Y2167100D01*
X1349313Y2166961D01*
X1349134Y2166826D01*
X1348951Y2166695D01*
X1348765Y2166569D01*
X1348576Y2166448D01*
X1348384Y2166331D01*
X1348190Y2166219D01*
X1347992Y2166111D01*
X1347793Y2166009D01*
X1347590Y2165911D01*
X1347386Y2165818D01*
X1347179Y2165730D01*
X1346970Y2165648D01*
X1346760Y2165570D01*
X1346547Y2165498D01*
X1346333Y2165431D01*
X1346117Y2165369D01*
X1345900Y2165312D01*
X1345681Y2165260D01*
X1345461Y2165214D01*
X1345240Y2165174D01*
X1345019Y2165138D01*
X1344796Y2165108D01*
X1344573Y2165084D01*
X1344349Y2165065D01*
X1344125Y2165051D01*
X1343901Y2165043D01*
X1343676Y2165040D01*
X1334941Y2171279D02*
X1334563Y2172078D01*
X1334205Y2172885D01*
X1333866Y2173701D01*
X1333546Y2174525D01*
X1333246Y2175357D01*
X1332966Y2176195D01*
X1332707Y2177040D01*
X1332467Y2177890D01*
X1332248Y2178746D01*
X1332049Y2179607D01*
X1331871Y2180473D01*
X1331714Y2181343D01*
X1331577Y2182216D01*
X1331461Y2183092D01*
X1331367Y2183970D01*
X1331293Y2184851D01*
X1331240Y2185733D01*
X1331209Y2186616D01*
X1331198Y2187500D01*
X1334941Y2171279D02*
X1335017Y2171067D01*
X1335097Y2170857D01*
X1335183Y2170650D01*
X1335274Y2170444D01*
X1335369Y2170241D01*
X1335470Y2170040D01*
X1335575Y2169842D01*
X1335685Y2169646D01*
X1335800Y2169453D01*
X1335920Y2169263D01*
X1336044Y2169076D01*
X1336173Y2168892D01*
X1336306Y2168711D01*
X1336443Y2168534D01*
X1336585Y2168359D01*
X1336731Y2168189D01*
X1336881Y2168022D01*
X1337035Y2167858D01*
X1337193Y2167698D01*
X1337355Y2167543D01*
X1337520Y2167391D01*
X1337690Y2167243D01*
X1337862Y2167100D01*
X1338039Y2166961D01*
X1338218Y2166826D01*
X1338401Y2166695D01*
X1338587Y2166569D01*
X1338776Y2166448D01*
X1338967Y2166331D01*
X1339162Y2166219D01*
X1339359Y2166111D01*
X1339559Y2166009D01*
X1339761Y2165911D01*
X1339966Y2165818D01*
X1340173Y2165730D01*
X1340381Y2165648D01*
X1340592Y2165570D01*
X1340805Y2165498D01*
X1341019Y2165431D01*
X1341235Y2165369D01*
X1341452Y2165312D01*
X1341671Y2165260D01*
X1341891Y2165214D01*
X1342111Y2165174D01*
X1342333Y2165138D01*
X1342556Y2165108D01*
X1342779Y2165084D01*
X1343003Y2165065D01*
X1343227Y2165051D01*
X1343451Y2165043D01*
X1343676Y2165040D01*
X1353658Y2175022D02*
X1333693Y2199978D01*
X1311154Y2199978D02*
X1298676Y2209960D01*
X1298676Y2165040D01*
X1311154Y2165040D02*
X1286198Y2165040D01*
X2231337Y2077540D02*
X2241319Y2077540D01*
X2241560Y2077543D01*
X2241801Y2077552D01*
X2242042Y2077566D01*
X2242282Y2077587D01*
X2242522Y2077613D01*
X2242761Y2077645D01*
X2243000Y2077682D01*
X2243237Y2077726D01*
X2243473Y2077775D01*
X2243708Y2077830D01*
X2243941Y2077891D01*
X2244173Y2077957D01*
X2244404Y2078029D01*
X2244632Y2078106D01*
X2244859Y2078189D01*
X2245083Y2078277D01*
X2245306Y2078371D01*
X2245526Y2078470D01*
X2245743Y2078574D01*
X2245958Y2078683D01*
X2246170Y2078798D01*
X2246380Y2078918D01*
X2246586Y2079043D01*
X2246789Y2079172D01*
X2246990Y2079307D01*
X2247186Y2079446D01*
X2247380Y2079591D01*
X2247570Y2079739D01*
X2247756Y2079893D01*
X2247938Y2080050D01*
X2248117Y2080213D01*
X2248292Y2080379D01*
X2248462Y2080550D01*
X2248629Y2080724D01*
X2248791Y2080903D01*
X2248949Y2081085D01*
X2249102Y2081272D01*
X2249251Y2081461D01*
X2249395Y2081655D01*
X2249534Y2081852D01*
X2249669Y2082052D01*
X2249798Y2082255D01*
X2249923Y2082462D01*
X2250043Y2082671D01*
X2250158Y2082883D01*
X2250267Y2083098D01*
X2250372Y2083316D01*
X2250471Y2083536D01*
X2250564Y2083758D01*
X2250652Y2083983D01*
X2250735Y2084209D01*
X2250813Y2084438D01*
X2250884Y2084668D01*
X2250950Y2084900D01*
X2251011Y2085133D01*
X2251066Y2085368D01*
X2251115Y2085604D01*
X2251159Y2085842D01*
X2251196Y2086080D01*
X2251228Y2086319D01*
X2251254Y2086559D01*
X2251275Y2086799D01*
X2251289Y2087040D01*
X2251298Y2087281D01*
X2251301Y2087522D01*
X2251301Y2112478D01*
X2251298Y2112723D01*
X2251289Y2112968D01*
X2251274Y2113212D01*
X2251253Y2113456D01*
X2251226Y2113700D01*
X2251193Y2113943D01*
X2251154Y2114185D01*
X2251109Y2114426D01*
X2251058Y2114665D01*
X2251002Y2114904D01*
X2250939Y2115140D01*
X2250871Y2115376D01*
X2250797Y2115609D01*
X2250717Y2115841D01*
X2250632Y2116071D01*
X2250541Y2116298D01*
X2250445Y2116523D01*
X2250343Y2116746D01*
X2250235Y2116966D01*
X2250122Y2117184D01*
X2250004Y2117398D01*
X2249881Y2117610D01*
X2249752Y2117819D01*
X2249619Y2118024D01*
X2249480Y2118226D01*
X2249337Y2118425D01*
X2249188Y2118620D01*
X2249035Y2118811D01*
X2248877Y2118998D01*
X2248715Y2119182D01*
X2248548Y2119361D01*
X2248377Y2119537D01*
X2248202Y2119708D01*
X2248022Y2119875D01*
X2247839Y2120037D01*
X2247651Y2120195D01*
X2247460Y2120348D01*
X2247265Y2120496D01*
X2247067Y2120640D01*
X2246865Y2120778D01*
X2246659Y2120912D01*
X2246451Y2121040D01*
X2246239Y2121164D01*
X2246024Y2121282D01*
X2245807Y2121395D01*
X2245587Y2121502D01*
X2245364Y2121604D01*
X2245139Y2121701D01*
X2244911Y2121792D01*
X2244682Y2121877D01*
X2244450Y2121957D01*
X2244216Y2122031D01*
X2243981Y2122099D01*
X2243744Y2122162D01*
X2243506Y2122218D01*
X2243266Y2122269D01*
X2243025Y2122314D01*
X2242783Y2122353D01*
X2242541Y2122386D01*
X2242297Y2122413D01*
X2242053Y2122434D01*
X2241808Y2122449D01*
X2241564Y2122458D01*
X2241319Y2122461D01*
X2241319Y2122460D02*
X2231337Y2122460D01*
X2213653Y2077540D02*
X2201176Y2077540D01*
X2200872Y2077544D01*
X2200568Y2077555D01*
X2200265Y2077573D01*
X2199962Y2077599D01*
X2199660Y2077632D01*
X2199359Y2077673D01*
X2199059Y2077721D01*
X2198760Y2077776D01*
X2198463Y2077839D01*
X2198167Y2077908D01*
X2197873Y2077985D01*
X2197581Y2078069D01*
X2197291Y2078160D01*
X2197004Y2078258D01*
X2196718Y2078363D01*
X2196436Y2078475D01*
X2196156Y2078594D01*
X2195880Y2078720D01*
X2195606Y2078852D01*
X2195336Y2078991D01*
X2195069Y2079137D01*
X2194806Y2079289D01*
X2194546Y2079447D01*
X2194291Y2079611D01*
X2194040Y2079782D01*
X2193793Y2079959D01*
X2193550Y2080142D01*
X2193312Y2080330D01*
X2193078Y2080525D01*
X2192849Y2080725D01*
X2192625Y2080930D01*
X2192407Y2081141D01*
X2192193Y2081357D01*
X2191985Y2081579D01*
X2191782Y2081805D01*
X2191585Y2082036D01*
X2191393Y2082272D01*
X2191208Y2082513D01*
X2191028Y2082758D01*
X2190854Y2083007D01*
X2190686Y2083260D01*
X2190525Y2083518D01*
X2190370Y2083779D01*
X2190221Y2084044D01*
X2190079Y2084313D01*
X2189943Y2084584D01*
X2189814Y2084860D01*
X2189692Y2085138D01*
X2189576Y2085419D01*
X2189468Y2085703D01*
X2189366Y2085989D01*
X2189272Y2086278D01*
X2189184Y2086569D01*
X2189104Y2086862D01*
X2189030Y2087157D01*
X2188964Y2087453D01*
X2188906Y2087752D01*
X2188854Y2088051D01*
X2188810Y2088352D01*
X2188773Y2088653D01*
X2188743Y2088956D01*
X2188721Y2089259D01*
X2188706Y2089562D01*
X2188699Y2089866D01*
X2188699Y2090170D01*
X2188706Y2090474D01*
X2188721Y2090777D01*
X2188743Y2091080D01*
X2188773Y2091383D01*
X2188810Y2091684D01*
X2188854Y2091985D01*
X2188906Y2092284D01*
X2188964Y2092583D01*
X2189030Y2092879D01*
X2189104Y2093174D01*
X2189184Y2093467D01*
X2189272Y2093758D01*
X2189366Y2094047D01*
X2189468Y2094333D01*
X2189576Y2094617D01*
X2189692Y2094898D01*
X2189814Y2095176D01*
X2189943Y2095452D01*
X2190079Y2095723D01*
X2190221Y2095992D01*
X2190370Y2096257D01*
X2190525Y2096518D01*
X2190686Y2096776D01*
X2190854Y2097029D01*
X2191028Y2097278D01*
X2191208Y2097523D01*
X2191393Y2097764D01*
X2191585Y2098000D01*
X2191782Y2098231D01*
X2191985Y2098457D01*
X2192193Y2098679D01*
X2192407Y2098895D01*
X2192625Y2099106D01*
X2192849Y2099311D01*
X2193078Y2099511D01*
X2193312Y2099706D01*
X2193550Y2099894D01*
X2193793Y2100077D01*
X2194040Y2100254D01*
X2194291Y2100425D01*
X2194546Y2100589D01*
X2194806Y2100747D01*
X2195069Y2100899D01*
X2195336Y2101045D01*
X2195606Y2101184D01*
X2195880Y2101316D01*
X2196156Y2101442D01*
X2196436Y2101561D01*
X2196718Y2101673D01*
X2197004Y2101778D01*
X2197291Y2101876D01*
X2197581Y2101967D01*
X2197873Y2102051D01*
X2198167Y2102128D01*
X2198463Y2102197D01*
X2198760Y2102260D01*
X2199059Y2102315D01*
X2199359Y2102363D01*
X2199660Y2102404D01*
X2199962Y2102437D01*
X2200265Y2102463D01*
X2200568Y2102481D01*
X2200872Y2102492D01*
X2201176Y2102496D01*
X2198680Y2122460D02*
X2213653Y2122460D01*
X2198680Y2122461D02*
X2198437Y2122458D01*
X2198194Y2122449D01*
X2197951Y2122434D01*
X2197709Y2122414D01*
X2197467Y2122387D01*
X2197226Y2122355D01*
X2196986Y2122316D01*
X2196747Y2122272D01*
X2196509Y2122222D01*
X2196273Y2122166D01*
X2196038Y2122105D01*
X2195804Y2122038D01*
X2195572Y2121965D01*
X2195342Y2121886D01*
X2195114Y2121802D01*
X2194888Y2121713D01*
X2194664Y2121618D01*
X2194443Y2121517D01*
X2194224Y2121411D01*
X2194008Y2121300D01*
X2193794Y2121184D01*
X2193584Y2121062D01*
X2193376Y2120935D01*
X2193172Y2120804D01*
X2192971Y2120667D01*
X2192773Y2120526D01*
X2192579Y2120380D01*
X2192388Y2120229D01*
X2192201Y2120073D01*
X2192018Y2119913D01*
X2191839Y2119749D01*
X2191664Y2119580D01*
X2191493Y2119407D01*
X2191327Y2119230D01*
X2191164Y2119049D01*
X2191007Y2118864D01*
X2190853Y2118675D01*
X2190705Y2118483D01*
X2190561Y2118287D01*
X2190422Y2118087D01*
X2190288Y2117885D01*
X2190159Y2117679D01*
X2190034Y2117470D01*
X2189915Y2117257D01*
X2189802Y2117043D01*
X2189693Y2116825D01*
X2189590Y2116605D01*
X2189492Y2116382D01*
X2189400Y2116158D01*
X2189313Y2115930D01*
X2189232Y2115701D01*
X2189156Y2115470D01*
X2189086Y2115237D01*
X2189022Y2115003D01*
X2188963Y2114767D01*
X2188910Y2114530D01*
X2188863Y2114291D01*
X2188822Y2114052D01*
X2188786Y2113811D01*
X2188757Y2113570D01*
X2188733Y2113328D01*
X2188715Y2113085D01*
X2188704Y2112843D01*
X2188698Y2112600D01*
X2188698Y2112356D01*
X2188704Y2112113D01*
X2188715Y2111871D01*
X2188733Y2111628D01*
X2188757Y2111386D01*
X2188786Y2111145D01*
X2188822Y2110904D01*
X2188863Y2110665D01*
X2188910Y2110426D01*
X2188963Y2110189D01*
X2189022Y2109953D01*
X2189086Y2109719D01*
X2189156Y2109486D01*
X2189232Y2109255D01*
X2189313Y2109026D01*
X2189400Y2108798D01*
X2189492Y2108574D01*
X2189590Y2108351D01*
X2189693Y2108131D01*
X2189802Y2107913D01*
X2189915Y2107699D01*
X2190034Y2107487D01*
X2190159Y2107277D01*
X2190288Y2107071D01*
X2190422Y2106869D01*
X2190561Y2106669D01*
X2190705Y2106473D01*
X2190853Y2106281D01*
X2191007Y2106092D01*
X2191164Y2105907D01*
X2191327Y2105726D01*
X2191493Y2105549D01*
X2191664Y2105376D01*
X2191839Y2105207D01*
X2192018Y2105043D01*
X2192201Y2104883D01*
X2192388Y2104727D01*
X2192579Y2104576D01*
X2192773Y2104430D01*
X2192971Y2104289D01*
X2193172Y2104152D01*
X2193376Y2104021D01*
X2193584Y2103894D01*
X2193794Y2103772D01*
X2194008Y2103656D01*
X2194224Y2103545D01*
X2194443Y2103439D01*
X2194664Y2103338D01*
X2194888Y2103243D01*
X2195114Y2103154D01*
X2195342Y2103070D01*
X2195572Y2102991D01*
X2195804Y2102918D01*
X2196038Y2102851D01*
X2196273Y2102790D01*
X2196509Y2102734D01*
X2196747Y2102684D01*
X2196986Y2102640D01*
X2197226Y2102601D01*
X2197467Y2102569D01*
X2197709Y2102542D01*
X2197951Y2102522D01*
X2198194Y2102507D01*
X2198437Y2102498D01*
X2198680Y2102495D01*
X2208662Y2102495D01*
X2168654Y2100000D02*
X2168643Y2100884D01*
X2168612Y2101767D01*
X2168559Y2102649D01*
X2168485Y2103530D01*
X2168391Y2104408D01*
X2168275Y2105284D01*
X2168138Y2106157D01*
X2167981Y2107027D01*
X2167803Y2107893D01*
X2167604Y2108754D01*
X2167385Y2109610D01*
X2167145Y2110460D01*
X2166886Y2111305D01*
X2166606Y2112143D01*
X2166306Y2112974D01*
X2165986Y2113798D01*
X2165647Y2114614D01*
X2165289Y2115422D01*
X2164911Y2116221D01*
X2164910Y2116221D02*
X2164835Y2116433D01*
X2164754Y2116642D01*
X2164668Y2116850D01*
X2164578Y2117056D01*
X2164482Y2117259D01*
X2164382Y2117460D01*
X2164276Y2117658D01*
X2164166Y2117854D01*
X2164051Y2118047D01*
X2163932Y2118237D01*
X2163808Y2118424D01*
X2163679Y2118608D01*
X2163546Y2118789D01*
X2163408Y2118966D01*
X2163267Y2119141D01*
X2163121Y2119311D01*
X2162971Y2119478D01*
X2162817Y2119642D01*
X2162659Y2119801D01*
X2162497Y2119957D01*
X2162331Y2120109D01*
X2162162Y2120257D01*
X2161989Y2120400D01*
X2161813Y2120539D01*
X2161634Y2120674D01*
X2161451Y2120805D01*
X2161265Y2120931D01*
X2161076Y2121052D01*
X2160884Y2121169D01*
X2160690Y2121281D01*
X2160493Y2121389D01*
X2160293Y2121491D01*
X2160091Y2121589D01*
X2159886Y2121682D01*
X2159679Y2121770D01*
X2159471Y2121852D01*
X2159260Y2121930D01*
X2159047Y2122002D01*
X2158833Y2122069D01*
X2158617Y2122131D01*
X2158400Y2122188D01*
X2158181Y2122240D01*
X2157961Y2122286D01*
X2157741Y2122326D01*
X2157519Y2122362D01*
X2157296Y2122392D01*
X2157073Y2122416D01*
X2156849Y2122435D01*
X2156625Y2122449D01*
X2156401Y2122457D01*
X2156176Y2122460D01*
X2155951Y2122457D01*
X2155727Y2122449D01*
X2155503Y2122435D01*
X2155279Y2122416D01*
X2155056Y2122392D01*
X2154833Y2122362D01*
X2154611Y2122326D01*
X2154391Y2122286D01*
X2154171Y2122240D01*
X2153952Y2122188D01*
X2153735Y2122131D01*
X2153519Y2122069D01*
X2153305Y2122002D01*
X2153092Y2121930D01*
X2152881Y2121852D01*
X2152672Y2121770D01*
X2152466Y2121682D01*
X2152261Y2121589D01*
X2152059Y2121491D01*
X2151859Y2121389D01*
X2151662Y2121281D01*
X2151467Y2121169D01*
X2151275Y2121052D01*
X2151087Y2120931D01*
X2150901Y2120805D01*
X2150718Y2120674D01*
X2150538Y2120539D01*
X2150362Y2120400D01*
X2150189Y2120257D01*
X2150020Y2120109D01*
X2149855Y2119957D01*
X2149693Y2119801D01*
X2149535Y2119642D01*
X2149381Y2119478D01*
X2149231Y2119311D01*
X2149085Y2119141D01*
X2148943Y2118966D01*
X2148806Y2118789D01*
X2148672Y2118608D01*
X2148544Y2118424D01*
X2148420Y2118237D01*
X2148300Y2118046D01*
X2148185Y2117853D01*
X2148075Y2117658D01*
X2147970Y2117459D01*
X2147869Y2117259D01*
X2147773Y2117055D01*
X2147683Y2116850D01*
X2147597Y2116642D01*
X2147517Y2116433D01*
X2147441Y2116221D01*
X2147063Y2115422D01*
X2146705Y2114614D01*
X2146366Y2113798D01*
X2146046Y2112974D01*
X2145746Y2112143D01*
X2145466Y2111305D01*
X2145207Y2110460D01*
X2144967Y2109610D01*
X2144748Y2108754D01*
X2144549Y2107893D01*
X2144371Y2107027D01*
X2144214Y2106157D01*
X2144077Y2105284D01*
X2143961Y2104408D01*
X2143867Y2103530D01*
X2143793Y2102649D01*
X2143740Y2101767D01*
X2143709Y2100884D01*
X2143698Y2100000D01*
X2168653Y2100000D02*
X2168642Y2099116D01*
X2168611Y2098233D01*
X2168558Y2097351D01*
X2168484Y2096470D01*
X2168390Y2095592D01*
X2168274Y2094716D01*
X2168137Y2093843D01*
X2167980Y2092973D01*
X2167802Y2092107D01*
X2167603Y2091246D01*
X2167384Y2090390D01*
X2167144Y2089540D01*
X2166885Y2088695D01*
X2166605Y2087857D01*
X2166305Y2087025D01*
X2165985Y2086201D01*
X2165646Y2085385D01*
X2165288Y2084578D01*
X2164910Y2083779D01*
X2164910Y2083778D02*
X2164834Y2083567D01*
X2164754Y2083357D01*
X2164668Y2083150D01*
X2164578Y2082944D01*
X2164482Y2082741D01*
X2164382Y2082540D01*
X2164276Y2082342D01*
X2164166Y2082146D01*
X2164051Y2081953D01*
X2163932Y2081763D01*
X2163807Y2081576D01*
X2163679Y2081392D01*
X2163546Y2081211D01*
X2163408Y2081033D01*
X2163267Y2080859D01*
X2163121Y2080689D01*
X2162971Y2080521D01*
X2162817Y2080358D01*
X2162659Y2080198D01*
X2162497Y2080043D01*
X2162331Y2079891D01*
X2162162Y2079743D01*
X2161989Y2079600D01*
X2161813Y2079461D01*
X2161634Y2079326D01*
X2161451Y2079195D01*
X2161265Y2079069D01*
X2161076Y2078948D01*
X2160884Y2078831D01*
X2160690Y2078719D01*
X2160492Y2078611D01*
X2160293Y2078509D01*
X2160090Y2078411D01*
X2159886Y2078318D01*
X2159679Y2078230D01*
X2159470Y2078148D01*
X2159260Y2078070D01*
X2159047Y2077998D01*
X2158833Y2077931D01*
X2158617Y2077869D01*
X2158400Y2077812D01*
X2158181Y2077760D01*
X2157961Y2077714D01*
X2157740Y2077674D01*
X2157519Y2077638D01*
X2157296Y2077608D01*
X2157073Y2077584D01*
X2156849Y2077565D01*
X2156625Y2077551D01*
X2156401Y2077543D01*
X2156176Y2077540D01*
X2147441Y2083779D02*
X2147063Y2084578D01*
X2146705Y2085385D01*
X2146366Y2086201D01*
X2146046Y2087025D01*
X2145746Y2087857D01*
X2145466Y2088695D01*
X2145207Y2089540D01*
X2144967Y2090390D01*
X2144748Y2091246D01*
X2144549Y2092107D01*
X2144371Y2092973D01*
X2144214Y2093843D01*
X2144077Y2094716D01*
X2143961Y2095592D01*
X2143867Y2096470D01*
X2143793Y2097351D01*
X2143740Y2098233D01*
X2143709Y2099116D01*
X2143698Y2100000D01*
X2147441Y2083779D02*
X2147517Y2083567D01*
X2147597Y2083357D01*
X2147683Y2083150D01*
X2147774Y2082944D01*
X2147869Y2082741D01*
X2147970Y2082540D01*
X2148075Y2082342D01*
X2148185Y2082146D01*
X2148300Y2081953D01*
X2148420Y2081763D01*
X2148544Y2081576D01*
X2148673Y2081392D01*
X2148806Y2081211D01*
X2148943Y2081034D01*
X2149085Y2080859D01*
X2149231Y2080689D01*
X2149381Y2080522D01*
X2149535Y2080358D01*
X2149693Y2080198D01*
X2149855Y2080043D01*
X2150020Y2079891D01*
X2150190Y2079743D01*
X2150362Y2079600D01*
X2150539Y2079461D01*
X2150718Y2079326D01*
X2150901Y2079195D01*
X2151087Y2079069D01*
X2151276Y2078948D01*
X2151467Y2078831D01*
X2151662Y2078719D01*
X2151859Y2078611D01*
X2152059Y2078509D01*
X2152261Y2078411D01*
X2152466Y2078318D01*
X2152673Y2078230D01*
X2152881Y2078148D01*
X2153092Y2078070D01*
X2153305Y2077998D01*
X2153519Y2077931D01*
X2153735Y2077869D01*
X2153952Y2077812D01*
X2154171Y2077760D01*
X2154391Y2077714D01*
X2154611Y2077674D01*
X2154833Y2077638D01*
X2155056Y2077608D01*
X2155279Y2077584D01*
X2155503Y2077565D01*
X2155727Y2077551D01*
X2155951Y2077543D01*
X2156176Y2077540D01*
X2166158Y2087522D02*
X2146193Y2112478D01*
X2123654Y2087522D02*
X2113672Y2122460D01*
X2123654Y2087522D02*
X2098698Y2087522D01*
X2106185Y2097504D02*
X2106185Y2077540D01*
X1428819Y1840040D02*
X1418837Y1840040D01*
X1428819Y1840040D02*
X1429060Y1840043D01*
X1429301Y1840052D01*
X1429542Y1840066D01*
X1429782Y1840087D01*
X1430022Y1840113D01*
X1430261Y1840145D01*
X1430500Y1840182D01*
X1430737Y1840226D01*
X1430973Y1840275D01*
X1431208Y1840330D01*
X1431441Y1840391D01*
X1431673Y1840457D01*
X1431904Y1840529D01*
X1432132Y1840606D01*
X1432359Y1840689D01*
X1432583Y1840777D01*
X1432806Y1840871D01*
X1433026Y1840970D01*
X1433243Y1841074D01*
X1433458Y1841183D01*
X1433670Y1841298D01*
X1433880Y1841418D01*
X1434086Y1841543D01*
X1434289Y1841672D01*
X1434490Y1841807D01*
X1434686Y1841946D01*
X1434880Y1842091D01*
X1435070Y1842239D01*
X1435256Y1842393D01*
X1435438Y1842550D01*
X1435617Y1842713D01*
X1435792Y1842879D01*
X1435962Y1843050D01*
X1436129Y1843224D01*
X1436291Y1843403D01*
X1436449Y1843585D01*
X1436602Y1843772D01*
X1436751Y1843961D01*
X1436895Y1844155D01*
X1437034Y1844352D01*
X1437169Y1844552D01*
X1437298Y1844755D01*
X1437423Y1844962D01*
X1437543Y1845171D01*
X1437658Y1845383D01*
X1437767Y1845598D01*
X1437872Y1845816D01*
X1437971Y1846036D01*
X1438064Y1846258D01*
X1438152Y1846483D01*
X1438235Y1846709D01*
X1438313Y1846938D01*
X1438384Y1847168D01*
X1438450Y1847400D01*
X1438511Y1847633D01*
X1438566Y1847868D01*
X1438615Y1848104D01*
X1438659Y1848342D01*
X1438696Y1848580D01*
X1438728Y1848819D01*
X1438754Y1849059D01*
X1438775Y1849299D01*
X1438789Y1849540D01*
X1438798Y1849781D01*
X1438801Y1850022D01*
X1438801Y1874978D01*
X1438798Y1875223D01*
X1438789Y1875468D01*
X1438774Y1875712D01*
X1438753Y1875956D01*
X1438726Y1876200D01*
X1438693Y1876443D01*
X1438654Y1876685D01*
X1438609Y1876926D01*
X1438558Y1877165D01*
X1438502Y1877404D01*
X1438439Y1877640D01*
X1438371Y1877876D01*
X1438297Y1878109D01*
X1438217Y1878341D01*
X1438132Y1878571D01*
X1438041Y1878798D01*
X1437945Y1879023D01*
X1437843Y1879246D01*
X1437735Y1879466D01*
X1437622Y1879684D01*
X1437504Y1879898D01*
X1437381Y1880110D01*
X1437252Y1880319D01*
X1437119Y1880524D01*
X1436980Y1880726D01*
X1436837Y1880925D01*
X1436688Y1881120D01*
X1436535Y1881311D01*
X1436377Y1881498D01*
X1436215Y1881682D01*
X1436048Y1881861D01*
X1435877Y1882037D01*
X1435702Y1882208D01*
X1435522Y1882375D01*
X1435339Y1882537D01*
X1435151Y1882695D01*
X1434960Y1882848D01*
X1434765Y1882996D01*
X1434567Y1883140D01*
X1434365Y1883278D01*
X1434159Y1883412D01*
X1433951Y1883540D01*
X1433739Y1883664D01*
X1433524Y1883782D01*
X1433307Y1883895D01*
X1433087Y1884002D01*
X1432864Y1884104D01*
X1432639Y1884201D01*
X1432411Y1884292D01*
X1432182Y1884377D01*
X1431950Y1884457D01*
X1431716Y1884531D01*
X1431481Y1884599D01*
X1431244Y1884662D01*
X1431006Y1884718D01*
X1430766Y1884769D01*
X1430525Y1884814D01*
X1430283Y1884853D01*
X1430041Y1884886D01*
X1429797Y1884913D01*
X1429553Y1884934D01*
X1429308Y1884949D01*
X1429064Y1884958D01*
X1428819Y1884961D01*
X1428819Y1884960D02*
X1418837Y1884960D01*
X1401153Y1840040D02*
X1388676Y1840040D01*
X1388372Y1840044D01*
X1388068Y1840055D01*
X1387765Y1840073D01*
X1387462Y1840099D01*
X1387160Y1840132D01*
X1386859Y1840173D01*
X1386559Y1840221D01*
X1386260Y1840276D01*
X1385963Y1840339D01*
X1385667Y1840408D01*
X1385373Y1840485D01*
X1385081Y1840569D01*
X1384791Y1840660D01*
X1384504Y1840758D01*
X1384218Y1840863D01*
X1383936Y1840975D01*
X1383656Y1841094D01*
X1383380Y1841220D01*
X1383106Y1841352D01*
X1382836Y1841491D01*
X1382569Y1841637D01*
X1382306Y1841789D01*
X1382046Y1841947D01*
X1381791Y1842111D01*
X1381540Y1842282D01*
X1381293Y1842459D01*
X1381050Y1842642D01*
X1380812Y1842830D01*
X1380578Y1843025D01*
X1380349Y1843225D01*
X1380125Y1843430D01*
X1379907Y1843641D01*
X1379693Y1843857D01*
X1379485Y1844079D01*
X1379282Y1844305D01*
X1379085Y1844536D01*
X1378893Y1844772D01*
X1378708Y1845013D01*
X1378528Y1845258D01*
X1378354Y1845507D01*
X1378186Y1845760D01*
X1378025Y1846018D01*
X1377870Y1846279D01*
X1377721Y1846544D01*
X1377579Y1846813D01*
X1377443Y1847084D01*
X1377314Y1847360D01*
X1377192Y1847638D01*
X1377076Y1847919D01*
X1376968Y1848203D01*
X1376866Y1848489D01*
X1376772Y1848778D01*
X1376684Y1849069D01*
X1376604Y1849362D01*
X1376530Y1849657D01*
X1376464Y1849953D01*
X1376406Y1850252D01*
X1376354Y1850551D01*
X1376310Y1850852D01*
X1376273Y1851153D01*
X1376243Y1851456D01*
X1376221Y1851759D01*
X1376206Y1852062D01*
X1376199Y1852366D01*
X1376199Y1852670D01*
X1376206Y1852974D01*
X1376221Y1853277D01*
X1376243Y1853580D01*
X1376273Y1853883D01*
X1376310Y1854184D01*
X1376354Y1854485D01*
X1376406Y1854784D01*
X1376464Y1855083D01*
X1376530Y1855379D01*
X1376604Y1855674D01*
X1376684Y1855967D01*
X1376772Y1856258D01*
X1376866Y1856547D01*
X1376968Y1856833D01*
X1377076Y1857117D01*
X1377192Y1857398D01*
X1377314Y1857676D01*
X1377443Y1857952D01*
X1377579Y1858223D01*
X1377721Y1858492D01*
X1377870Y1858757D01*
X1378025Y1859018D01*
X1378186Y1859276D01*
X1378354Y1859529D01*
X1378528Y1859778D01*
X1378708Y1860023D01*
X1378893Y1860264D01*
X1379085Y1860500D01*
X1379282Y1860731D01*
X1379485Y1860957D01*
X1379693Y1861179D01*
X1379907Y1861395D01*
X1380125Y1861606D01*
X1380349Y1861811D01*
X1380578Y1862011D01*
X1380812Y1862206D01*
X1381050Y1862394D01*
X1381293Y1862577D01*
X1381540Y1862754D01*
X1381791Y1862925D01*
X1382046Y1863089D01*
X1382306Y1863247D01*
X1382569Y1863399D01*
X1382836Y1863545D01*
X1383106Y1863684D01*
X1383380Y1863816D01*
X1383656Y1863942D01*
X1383936Y1864061D01*
X1384218Y1864173D01*
X1384504Y1864278D01*
X1384791Y1864376D01*
X1385081Y1864467D01*
X1385373Y1864551D01*
X1385667Y1864628D01*
X1385963Y1864697D01*
X1386260Y1864760D01*
X1386559Y1864815D01*
X1386859Y1864863D01*
X1387160Y1864904D01*
X1387462Y1864937D01*
X1387765Y1864963D01*
X1388068Y1864981D01*
X1388372Y1864992D01*
X1388676Y1864996D01*
X1386180Y1884960D02*
X1401153Y1884960D01*
X1386180Y1884961D02*
X1385937Y1884958D01*
X1385694Y1884949D01*
X1385451Y1884934D01*
X1385209Y1884914D01*
X1384967Y1884887D01*
X1384726Y1884855D01*
X1384486Y1884816D01*
X1384247Y1884772D01*
X1384009Y1884722D01*
X1383773Y1884666D01*
X1383538Y1884605D01*
X1383304Y1884538D01*
X1383072Y1884465D01*
X1382842Y1884386D01*
X1382614Y1884302D01*
X1382388Y1884213D01*
X1382164Y1884118D01*
X1381943Y1884017D01*
X1381724Y1883911D01*
X1381508Y1883800D01*
X1381294Y1883684D01*
X1381084Y1883562D01*
X1380876Y1883435D01*
X1380672Y1883304D01*
X1380471Y1883167D01*
X1380273Y1883026D01*
X1380079Y1882880D01*
X1379888Y1882729D01*
X1379701Y1882573D01*
X1379518Y1882413D01*
X1379339Y1882249D01*
X1379164Y1882080D01*
X1378993Y1881907D01*
X1378827Y1881730D01*
X1378664Y1881549D01*
X1378507Y1881364D01*
X1378353Y1881175D01*
X1378205Y1880983D01*
X1378061Y1880787D01*
X1377922Y1880587D01*
X1377788Y1880385D01*
X1377659Y1880179D01*
X1377534Y1879970D01*
X1377415Y1879757D01*
X1377302Y1879543D01*
X1377193Y1879325D01*
X1377090Y1879105D01*
X1376992Y1878882D01*
X1376900Y1878658D01*
X1376813Y1878430D01*
X1376732Y1878201D01*
X1376656Y1877970D01*
X1376586Y1877737D01*
X1376522Y1877503D01*
X1376463Y1877267D01*
X1376410Y1877030D01*
X1376363Y1876791D01*
X1376322Y1876552D01*
X1376286Y1876311D01*
X1376257Y1876070D01*
X1376233Y1875828D01*
X1376215Y1875585D01*
X1376204Y1875343D01*
X1376198Y1875100D01*
X1376198Y1874856D01*
X1376204Y1874613D01*
X1376215Y1874371D01*
X1376233Y1874128D01*
X1376257Y1873886D01*
X1376286Y1873645D01*
X1376322Y1873404D01*
X1376363Y1873165D01*
X1376410Y1872926D01*
X1376463Y1872689D01*
X1376522Y1872453D01*
X1376586Y1872219D01*
X1376656Y1871986D01*
X1376732Y1871755D01*
X1376813Y1871526D01*
X1376900Y1871298D01*
X1376992Y1871074D01*
X1377090Y1870851D01*
X1377193Y1870631D01*
X1377302Y1870413D01*
X1377415Y1870199D01*
X1377534Y1869987D01*
X1377659Y1869777D01*
X1377788Y1869571D01*
X1377922Y1869369D01*
X1378061Y1869169D01*
X1378205Y1868973D01*
X1378353Y1868781D01*
X1378507Y1868592D01*
X1378664Y1868407D01*
X1378827Y1868226D01*
X1378993Y1868049D01*
X1379164Y1867876D01*
X1379339Y1867707D01*
X1379518Y1867543D01*
X1379701Y1867383D01*
X1379888Y1867227D01*
X1380079Y1867076D01*
X1380273Y1866930D01*
X1380471Y1866789D01*
X1380672Y1866652D01*
X1380876Y1866521D01*
X1381084Y1866394D01*
X1381294Y1866272D01*
X1381508Y1866156D01*
X1381724Y1866045D01*
X1381943Y1865939D01*
X1382164Y1865838D01*
X1382388Y1865743D01*
X1382614Y1865654D01*
X1382842Y1865570D01*
X1383072Y1865491D01*
X1383304Y1865418D01*
X1383538Y1865351D01*
X1383773Y1865290D01*
X1384009Y1865234D01*
X1384247Y1865184D01*
X1384486Y1865140D01*
X1384726Y1865101D01*
X1384967Y1865069D01*
X1385209Y1865042D01*
X1385451Y1865022D01*
X1385694Y1865007D01*
X1385937Y1864998D01*
X1386180Y1864995D01*
X1396162Y1864995D01*
X1356154Y1862500D02*
X1356143Y1863384D01*
X1356112Y1864267D01*
X1356059Y1865149D01*
X1355985Y1866030D01*
X1355891Y1866908D01*
X1355775Y1867784D01*
X1355638Y1868657D01*
X1355481Y1869527D01*
X1355303Y1870393D01*
X1355104Y1871254D01*
X1354885Y1872110D01*
X1354645Y1872960D01*
X1354386Y1873805D01*
X1354106Y1874643D01*
X1353806Y1875474D01*
X1353486Y1876298D01*
X1353147Y1877114D01*
X1352789Y1877922D01*
X1352411Y1878721D01*
X1352410Y1878721D02*
X1352335Y1878933D01*
X1352254Y1879142D01*
X1352168Y1879350D01*
X1352078Y1879556D01*
X1351982Y1879759D01*
X1351882Y1879960D01*
X1351776Y1880158D01*
X1351666Y1880354D01*
X1351551Y1880547D01*
X1351432Y1880737D01*
X1351308Y1880924D01*
X1351179Y1881108D01*
X1351046Y1881289D01*
X1350908Y1881466D01*
X1350767Y1881641D01*
X1350621Y1881811D01*
X1350471Y1881978D01*
X1350317Y1882142D01*
X1350159Y1882301D01*
X1349997Y1882457D01*
X1349831Y1882609D01*
X1349662Y1882757D01*
X1349489Y1882900D01*
X1349313Y1883039D01*
X1349134Y1883174D01*
X1348951Y1883305D01*
X1348765Y1883431D01*
X1348576Y1883552D01*
X1348384Y1883669D01*
X1348190Y1883781D01*
X1347993Y1883889D01*
X1347793Y1883991D01*
X1347591Y1884089D01*
X1347386Y1884182D01*
X1347179Y1884270D01*
X1346971Y1884352D01*
X1346760Y1884430D01*
X1346547Y1884502D01*
X1346333Y1884569D01*
X1346117Y1884631D01*
X1345900Y1884688D01*
X1345681Y1884740D01*
X1345461Y1884786D01*
X1345241Y1884826D01*
X1345019Y1884862D01*
X1344796Y1884892D01*
X1344573Y1884916D01*
X1344349Y1884935D01*
X1344125Y1884949D01*
X1343901Y1884957D01*
X1343676Y1884960D01*
X1343451Y1884957D01*
X1343227Y1884949D01*
X1343003Y1884935D01*
X1342779Y1884916D01*
X1342556Y1884892D01*
X1342333Y1884862D01*
X1342111Y1884826D01*
X1341891Y1884786D01*
X1341671Y1884740D01*
X1341452Y1884688D01*
X1341235Y1884631D01*
X1341019Y1884569D01*
X1340805Y1884502D01*
X1340592Y1884430D01*
X1340381Y1884352D01*
X1340172Y1884270D01*
X1339966Y1884182D01*
X1339761Y1884089D01*
X1339559Y1883991D01*
X1339359Y1883889D01*
X1339162Y1883781D01*
X1338967Y1883669D01*
X1338775Y1883552D01*
X1338587Y1883431D01*
X1338401Y1883305D01*
X1338218Y1883174D01*
X1338038Y1883039D01*
X1337862Y1882900D01*
X1337689Y1882757D01*
X1337520Y1882609D01*
X1337355Y1882457D01*
X1337193Y1882301D01*
X1337035Y1882142D01*
X1336881Y1881978D01*
X1336731Y1881811D01*
X1336585Y1881641D01*
X1336443Y1881466D01*
X1336306Y1881289D01*
X1336172Y1881108D01*
X1336044Y1880924D01*
X1335920Y1880737D01*
X1335800Y1880546D01*
X1335685Y1880353D01*
X1335575Y1880158D01*
X1335470Y1879959D01*
X1335369Y1879759D01*
X1335273Y1879555D01*
X1335183Y1879350D01*
X1335097Y1879142D01*
X1335017Y1878933D01*
X1334941Y1878721D01*
X1334563Y1877922D01*
X1334205Y1877114D01*
X1333866Y1876298D01*
X1333546Y1875474D01*
X1333246Y1874643D01*
X1332966Y1873805D01*
X1332707Y1872960D01*
X1332467Y1872110D01*
X1332248Y1871254D01*
X1332049Y1870393D01*
X1331871Y1869527D01*
X1331714Y1868657D01*
X1331577Y1867784D01*
X1331461Y1866908D01*
X1331367Y1866030D01*
X1331293Y1865149D01*
X1331240Y1864267D01*
X1331209Y1863384D01*
X1331198Y1862500D01*
X1356153Y1862500D02*
X1356142Y1861616D01*
X1356111Y1860733D01*
X1356058Y1859851D01*
X1355984Y1858970D01*
X1355890Y1858092D01*
X1355774Y1857216D01*
X1355637Y1856343D01*
X1355480Y1855473D01*
X1355302Y1854607D01*
X1355103Y1853746D01*
X1354884Y1852890D01*
X1354644Y1852040D01*
X1354385Y1851195D01*
X1354105Y1850357D01*
X1353805Y1849525D01*
X1353485Y1848701D01*
X1353146Y1847885D01*
X1352788Y1847078D01*
X1352410Y1846279D01*
X1352410Y1846278D02*
X1352334Y1846067D01*
X1352254Y1845857D01*
X1352168Y1845650D01*
X1352078Y1845444D01*
X1351982Y1845241D01*
X1351882Y1845040D01*
X1351776Y1844842D01*
X1351666Y1844646D01*
X1351551Y1844453D01*
X1351432Y1844263D01*
X1351307Y1844076D01*
X1351179Y1843892D01*
X1351046Y1843711D01*
X1350908Y1843533D01*
X1350767Y1843359D01*
X1350621Y1843189D01*
X1350471Y1843021D01*
X1350317Y1842858D01*
X1350159Y1842698D01*
X1349997Y1842543D01*
X1349831Y1842391D01*
X1349662Y1842243D01*
X1349489Y1842100D01*
X1349313Y1841961D01*
X1349134Y1841826D01*
X1348951Y1841695D01*
X1348765Y1841569D01*
X1348576Y1841448D01*
X1348384Y1841331D01*
X1348190Y1841219D01*
X1347992Y1841111D01*
X1347793Y1841009D01*
X1347590Y1840911D01*
X1347386Y1840818D01*
X1347179Y1840730D01*
X1346970Y1840648D01*
X1346760Y1840570D01*
X1346547Y1840498D01*
X1346333Y1840431D01*
X1346117Y1840369D01*
X1345900Y1840312D01*
X1345681Y1840260D01*
X1345461Y1840214D01*
X1345240Y1840174D01*
X1345019Y1840138D01*
X1344796Y1840108D01*
X1344573Y1840084D01*
X1344349Y1840065D01*
X1344125Y1840051D01*
X1343901Y1840043D01*
X1343676Y1840040D01*
X1334941Y1846279D02*
X1334563Y1847078D01*
X1334205Y1847885D01*
X1333866Y1848701D01*
X1333546Y1849525D01*
X1333246Y1850357D01*
X1332966Y1851195D01*
X1332707Y1852040D01*
X1332467Y1852890D01*
X1332248Y1853746D01*
X1332049Y1854607D01*
X1331871Y1855473D01*
X1331714Y1856343D01*
X1331577Y1857216D01*
X1331461Y1858092D01*
X1331367Y1858970D01*
X1331293Y1859851D01*
X1331240Y1860733D01*
X1331209Y1861616D01*
X1331198Y1862500D01*
X1334941Y1846279D02*
X1335017Y1846067D01*
X1335097Y1845857D01*
X1335183Y1845650D01*
X1335274Y1845444D01*
X1335369Y1845241D01*
X1335470Y1845040D01*
X1335575Y1844842D01*
X1335685Y1844646D01*
X1335800Y1844453D01*
X1335920Y1844263D01*
X1336044Y1844076D01*
X1336173Y1843892D01*
X1336306Y1843711D01*
X1336443Y1843534D01*
X1336585Y1843359D01*
X1336731Y1843189D01*
X1336881Y1843022D01*
X1337035Y1842858D01*
X1337193Y1842698D01*
X1337355Y1842543D01*
X1337520Y1842391D01*
X1337690Y1842243D01*
X1337862Y1842100D01*
X1338039Y1841961D01*
X1338218Y1841826D01*
X1338401Y1841695D01*
X1338587Y1841569D01*
X1338776Y1841448D01*
X1338967Y1841331D01*
X1339162Y1841219D01*
X1339359Y1841111D01*
X1339559Y1841009D01*
X1339761Y1840911D01*
X1339966Y1840818D01*
X1340173Y1840730D01*
X1340381Y1840648D01*
X1340592Y1840570D01*
X1340805Y1840498D01*
X1341019Y1840431D01*
X1341235Y1840369D01*
X1341452Y1840312D01*
X1341671Y1840260D01*
X1341891Y1840214D01*
X1342111Y1840174D01*
X1342333Y1840138D01*
X1342556Y1840108D01*
X1342779Y1840084D01*
X1343003Y1840065D01*
X1343227Y1840051D01*
X1343451Y1840043D01*
X1343676Y1840040D01*
X1353658Y1850022D02*
X1333693Y1874978D01*
X1311154Y1840040D02*
X1296181Y1840040D01*
X1295940Y1840043D01*
X1295699Y1840052D01*
X1295458Y1840066D01*
X1295218Y1840087D01*
X1294978Y1840113D01*
X1294739Y1840145D01*
X1294500Y1840182D01*
X1294263Y1840226D01*
X1294027Y1840275D01*
X1293792Y1840330D01*
X1293559Y1840391D01*
X1293327Y1840457D01*
X1293096Y1840529D01*
X1292868Y1840606D01*
X1292641Y1840689D01*
X1292417Y1840777D01*
X1292195Y1840871D01*
X1291975Y1840970D01*
X1291757Y1841074D01*
X1291542Y1841183D01*
X1291330Y1841298D01*
X1291121Y1841418D01*
X1290914Y1841543D01*
X1290711Y1841672D01*
X1290511Y1841807D01*
X1290314Y1841946D01*
X1290120Y1842091D01*
X1289930Y1842239D01*
X1289744Y1842393D01*
X1289562Y1842550D01*
X1289383Y1842712D01*
X1289208Y1842879D01*
X1289038Y1843049D01*
X1288871Y1843224D01*
X1288709Y1843403D01*
X1288552Y1843585D01*
X1288398Y1843771D01*
X1288250Y1843961D01*
X1288105Y1844155D01*
X1287966Y1844352D01*
X1287831Y1844552D01*
X1287702Y1844755D01*
X1287577Y1844962D01*
X1287457Y1845171D01*
X1287342Y1845383D01*
X1287233Y1845598D01*
X1287129Y1845816D01*
X1287030Y1846036D01*
X1286936Y1846258D01*
X1286848Y1846482D01*
X1286765Y1846709D01*
X1286688Y1846937D01*
X1286616Y1847168D01*
X1286550Y1847400D01*
X1286489Y1847633D01*
X1286434Y1847868D01*
X1286385Y1848104D01*
X1286341Y1848341D01*
X1286304Y1848580D01*
X1286272Y1848819D01*
X1286246Y1849059D01*
X1286225Y1849299D01*
X1286211Y1849540D01*
X1286202Y1849781D01*
X1286199Y1850022D01*
X1286198Y1850022D02*
X1286198Y1855013D01*
X1286201Y1855254D01*
X1286210Y1855495D01*
X1286224Y1855736D01*
X1286245Y1855976D01*
X1286271Y1856216D01*
X1286303Y1856455D01*
X1286340Y1856694D01*
X1286384Y1856931D01*
X1286433Y1857167D01*
X1286488Y1857402D01*
X1286549Y1857635D01*
X1286615Y1857867D01*
X1286687Y1858098D01*
X1286764Y1858326D01*
X1286847Y1858553D01*
X1286935Y1858777D01*
X1287029Y1859000D01*
X1287128Y1859220D01*
X1287232Y1859437D01*
X1287341Y1859652D01*
X1287456Y1859864D01*
X1287576Y1860074D01*
X1287701Y1860280D01*
X1287830Y1860483D01*
X1287965Y1860684D01*
X1288104Y1860880D01*
X1288249Y1861074D01*
X1288397Y1861264D01*
X1288551Y1861450D01*
X1288708Y1861632D01*
X1288871Y1861811D01*
X1289037Y1861986D01*
X1289208Y1862156D01*
X1289382Y1862323D01*
X1289561Y1862485D01*
X1289743Y1862643D01*
X1289930Y1862796D01*
X1290119Y1862945D01*
X1290313Y1863089D01*
X1290510Y1863228D01*
X1290710Y1863363D01*
X1290913Y1863492D01*
X1291120Y1863617D01*
X1291329Y1863737D01*
X1291541Y1863852D01*
X1291756Y1863961D01*
X1291974Y1864066D01*
X1292194Y1864165D01*
X1292416Y1864258D01*
X1292641Y1864346D01*
X1292867Y1864429D01*
X1293096Y1864507D01*
X1293326Y1864578D01*
X1293558Y1864644D01*
X1293791Y1864705D01*
X1294026Y1864760D01*
X1294262Y1864809D01*
X1294500Y1864853D01*
X1294738Y1864890D01*
X1294977Y1864922D01*
X1295217Y1864948D01*
X1295457Y1864969D01*
X1295698Y1864983D01*
X1295939Y1864992D01*
X1296180Y1864995D01*
X1296181Y1864995D02*
X1311154Y1864995D01*
X1311154Y1884960D01*
X1286198Y1884960D01*
X853819Y640040D02*
X843837Y640040D01*
X853819Y640040D02*
X854060Y640043D01*
X854301Y640052D01*
X854542Y640066D01*
X854782Y640087D01*
X855022Y640113D01*
X855261Y640145D01*
X855500Y640182D01*
X855737Y640226D01*
X855973Y640275D01*
X856208Y640330D01*
X856441Y640391D01*
X856673Y640457D01*
X856904Y640529D01*
X857132Y640606D01*
X857359Y640689D01*
X857583Y640777D01*
X857806Y640871D01*
X858026Y640970D01*
X858243Y641074D01*
X858458Y641183D01*
X858670Y641298D01*
X858880Y641418D01*
X859086Y641543D01*
X859289Y641672D01*
X859490Y641807D01*
X859686Y641946D01*
X859880Y642091D01*
X860070Y642239D01*
X860256Y642393D01*
X860438Y642550D01*
X860617Y642713D01*
X860792Y642879D01*
X860962Y643050D01*
X861129Y643224D01*
X861291Y643403D01*
X861449Y643585D01*
X861602Y643772D01*
X861751Y643961D01*
X861895Y644155D01*
X862034Y644352D01*
X862169Y644552D01*
X862298Y644755D01*
X862423Y644962D01*
X862543Y645171D01*
X862658Y645383D01*
X862767Y645598D01*
X862872Y645816D01*
X862971Y646036D01*
X863064Y646258D01*
X863152Y646483D01*
X863235Y646709D01*
X863313Y646938D01*
X863384Y647168D01*
X863450Y647400D01*
X863511Y647633D01*
X863566Y647868D01*
X863615Y648104D01*
X863659Y648342D01*
X863696Y648580D01*
X863728Y648819D01*
X863754Y649059D01*
X863775Y649299D01*
X863789Y649540D01*
X863798Y649781D01*
X863801Y650022D01*
X863802Y650022D02*
X863802Y674978D01*
X863799Y675223D01*
X863790Y675468D01*
X863775Y675712D01*
X863754Y675956D01*
X863727Y676200D01*
X863694Y676443D01*
X863655Y676685D01*
X863610Y676926D01*
X863559Y677165D01*
X863503Y677404D01*
X863440Y677640D01*
X863372Y677876D01*
X863298Y678109D01*
X863218Y678341D01*
X863133Y678571D01*
X863042Y678798D01*
X862946Y679023D01*
X862844Y679246D01*
X862736Y679466D01*
X862623Y679684D01*
X862505Y679898D01*
X862382Y680110D01*
X862253Y680319D01*
X862120Y680524D01*
X861981Y680726D01*
X861838Y680925D01*
X861689Y681120D01*
X861536Y681311D01*
X861378Y681498D01*
X861216Y681682D01*
X861049Y681861D01*
X860878Y682037D01*
X860703Y682208D01*
X860523Y682375D01*
X860340Y682537D01*
X860152Y682695D01*
X859961Y682848D01*
X859766Y682996D01*
X859568Y683140D01*
X859366Y683278D01*
X859160Y683412D01*
X858952Y683540D01*
X858740Y683664D01*
X858525Y683782D01*
X858308Y683895D01*
X858088Y684002D01*
X857865Y684104D01*
X857640Y684201D01*
X857412Y684292D01*
X857183Y684377D01*
X856951Y684457D01*
X856717Y684531D01*
X856482Y684599D01*
X856245Y684662D01*
X856007Y684718D01*
X855767Y684769D01*
X855526Y684814D01*
X855284Y684853D01*
X855042Y684886D01*
X854798Y684913D01*
X854554Y684934D01*
X854309Y684949D01*
X854065Y684958D01*
X853820Y684961D01*
X853819Y684960D02*
X843837Y684960D01*
X826153Y640040D02*
X813676Y640040D01*
X813372Y640044D01*
X813068Y640055D01*
X812765Y640073D01*
X812462Y640099D01*
X812160Y640132D01*
X811859Y640173D01*
X811559Y640221D01*
X811260Y640276D01*
X810963Y640339D01*
X810667Y640408D01*
X810373Y640485D01*
X810081Y640569D01*
X809791Y640660D01*
X809504Y640758D01*
X809218Y640863D01*
X808936Y640975D01*
X808656Y641094D01*
X808380Y641220D01*
X808106Y641352D01*
X807836Y641491D01*
X807569Y641637D01*
X807306Y641789D01*
X807046Y641947D01*
X806791Y642111D01*
X806540Y642282D01*
X806293Y642459D01*
X806050Y642642D01*
X805812Y642830D01*
X805578Y643025D01*
X805349Y643225D01*
X805125Y643430D01*
X804907Y643641D01*
X804693Y643857D01*
X804485Y644079D01*
X804282Y644305D01*
X804085Y644536D01*
X803893Y644772D01*
X803708Y645013D01*
X803528Y645258D01*
X803354Y645507D01*
X803186Y645760D01*
X803025Y646018D01*
X802870Y646279D01*
X802721Y646544D01*
X802579Y646813D01*
X802443Y647084D01*
X802314Y647360D01*
X802192Y647638D01*
X802076Y647919D01*
X801968Y648203D01*
X801866Y648489D01*
X801772Y648778D01*
X801684Y649069D01*
X801604Y649362D01*
X801530Y649657D01*
X801464Y649953D01*
X801406Y650252D01*
X801354Y650551D01*
X801310Y650852D01*
X801273Y651153D01*
X801243Y651456D01*
X801221Y651759D01*
X801206Y652062D01*
X801199Y652366D01*
X801199Y652670D01*
X801206Y652974D01*
X801221Y653277D01*
X801243Y653580D01*
X801273Y653883D01*
X801310Y654184D01*
X801354Y654485D01*
X801406Y654784D01*
X801464Y655083D01*
X801530Y655379D01*
X801604Y655674D01*
X801684Y655967D01*
X801772Y656258D01*
X801866Y656547D01*
X801968Y656833D01*
X802076Y657117D01*
X802192Y657398D01*
X802314Y657676D01*
X802443Y657952D01*
X802579Y658223D01*
X802721Y658492D01*
X802870Y658757D01*
X803025Y659018D01*
X803186Y659276D01*
X803354Y659529D01*
X803528Y659778D01*
X803708Y660023D01*
X803893Y660264D01*
X804085Y660500D01*
X804282Y660731D01*
X804485Y660957D01*
X804693Y661179D01*
X804907Y661395D01*
X805125Y661606D01*
X805349Y661811D01*
X805578Y662011D01*
X805812Y662206D01*
X806050Y662394D01*
X806293Y662577D01*
X806540Y662754D01*
X806791Y662925D01*
X807046Y663089D01*
X807306Y663247D01*
X807569Y663399D01*
X807836Y663545D01*
X808106Y663684D01*
X808380Y663816D01*
X808656Y663942D01*
X808936Y664061D01*
X809218Y664173D01*
X809504Y664278D01*
X809791Y664376D01*
X810081Y664467D01*
X810373Y664551D01*
X810667Y664628D01*
X810963Y664697D01*
X811260Y664760D01*
X811559Y664815D01*
X811859Y664863D01*
X812160Y664904D01*
X812462Y664937D01*
X812765Y664963D01*
X813068Y664981D01*
X813372Y664992D01*
X813676Y664996D01*
X811180Y684960D02*
X826153Y684960D01*
X811180Y684961D02*
X810937Y684958D01*
X810694Y684949D01*
X810451Y684934D01*
X810209Y684914D01*
X809967Y684887D01*
X809726Y684855D01*
X809486Y684816D01*
X809247Y684772D01*
X809009Y684722D01*
X808773Y684666D01*
X808538Y684605D01*
X808304Y684538D01*
X808072Y684465D01*
X807842Y684386D01*
X807614Y684302D01*
X807388Y684213D01*
X807164Y684118D01*
X806943Y684017D01*
X806724Y683911D01*
X806508Y683800D01*
X806294Y683684D01*
X806084Y683562D01*
X805876Y683435D01*
X805672Y683304D01*
X805471Y683167D01*
X805273Y683026D01*
X805079Y682880D01*
X804888Y682729D01*
X804701Y682573D01*
X804518Y682413D01*
X804339Y682249D01*
X804164Y682080D01*
X803993Y681907D01*
X803827Y681730D01*
X803664Y681549D01*
X803507Y681364D01*
X803353Y681175D01*
X803205Y680983D01*
X803061Y680787D01*
X802922Y680587D01*
X802788Y680385D01*
X802659Y680179D01*
X802534Y679970D01*
X802415Y679757D01*
X802302Y679543D01*
X802193Y679325D01*
X802090Y679105D01*
X801992Y678882D01*
X801900Y678658D01*
X801813Y678430D01*
X801732Y678201D01*
X801656Y677970D01*
X801586Y677737D01*
X801522Y677503D01*
X801463Y677267D01*
X801410Y677030D01*
X801363Y676791D01*
X801322Y676552D01*
X801286Y676311D01*
X801257Y676070D01*
X801233Y675828D01*
X801215Y675585D01*
X801204Y675343D01*
X801198Y675100D01*
X801198Y674856D01*
X801204Y674613D01*
X801215Y674371D01*
X801233Y674128D01*
X801257Y673886D01*
X801286Y673645D01*
X801322Y673404D01*
X801363Y673165D01*
X801410Y672926D01*
X801463Y672689D01*
X801522Y672453D01*
X801586Y672219D01*
X801656Y671986D01*
X801732Y671755D01*
X801813Y671526D01*
X801900Y671298D01*
X801992Y671074D01*
X802090Y670851D01*
X802193Y670631D01*
X802302Y670413D01*
X802415Y670199D01*
X802534Y669987D01*
X802659Y669777D01*
X802788Y669571D01*
X802922Y669369D01*
X803061Y669169D01*
X803205Y668973D01*
X803353Y668781D01*
X803507Y668592D01*
X803664Y668407D01*
X803827Y668226D01*
X803993Y668049D01*
X804164Y667876D01*
X804339Y667707D01*
X804518Y667543D01*
X804701Y667383D01*
X804888Y667227D01*
X805079Y667076D01*
X805273Y666930D01*
X805471Y666789D01*
X805672Y666652D01*
X805876Y666521D01*
X806084Y666394D01*
X806294Y666272D01*
X806508Y666156D01*
X806724Y666045D01*
X806943Y665939D01*
X807164Y665838D01*
X807388Y665743D01*
X807614Y665654D01*
X807842Y665570D01*
X808072Y665491D01*
X808304Y665418D01*
X808538Y665351D01*
X808773Y665290D01*
X809009Y665234D01*
X809247Y665184D01*
X809486Y665140D01*
X809726Y665101D01*
X809967Y665069D01*
X810209Y665042D01*
X810451Y665022D01*
X810694Y665007D01*
X810937Y664998D01*
X811180Y664995D01*
X821163Y664995D01*
X781154Y662500D02*
X781143Y663384D01*
X781112Y664267D01*
X781059Y665149D01*
X780985Y666030D01*
X780891Y666908D01*
X780775Y667784D01*
X780638Y668657D01*
X780481Y669527D01*
X780303Y670393D01*
X780104Y671254D01*
X779885Y672110D01*
X779645Y672960D01*
X779386Y673805D01*
X779106Y674643D01*
X778806Y675474D01*
X778486Y676298D01*
X778147Y677114D01*
X777789Y677922D01*
X777411Y678721D01*
X777410Y678721D02*
X777335Y678933D01*
X777254Y679142D01*
X777168Y679350D01*
X777078Y679556D01*
X776982Y679759D01*
X776882Y679960D01*
X776776Y680158D01*
X776666Y680354D01*
X776551Y680547D01*
X776432Y680737D01*
X776308Y680924D01*
X776179Y681108D01*
X776046Y681289D01*
X775908Y681466D01*
X775767Y681641D01*
X775621Y681811D01*
X775471Y681978D01*
X775317Y682142D01*
X775159Y682301D01*
X774997Y682457D01*
X774831Y682609D01*
X774662Y682757D01*
X774489Y682900D01*
X774313Y683039D01*
X774134Y683174D01*
X773951Y683305D01*
X773765Y683431D01*
X773576Y683552D01*
X773384Y683669D01*
X773190Y683781D01*
X772993Y683889D01*
X772793Y683991D01*
X772591Y684089D01*
X772386Y684182D01*
X772179Y684270D01*
X771971Y684352D01*
X771760Y684430D01*
X771547Y684502D01*
X771333Y684569D01*
X771117Y684631D01*
X770900Y684688D01*
X770681Y684740D01*
X770461Y684786D01*
X770241Y684826D01*
X770019Y684862D01*
X769796Y684892D01*
X769573Y684916D01*
X769349Y684935D01*
X769125Y684949D01*
X768901Y684957D01*
X768676Y684960D01*
X768451Y684957D01*
X768227Y684949D01*
X768003Y684935D01*
X767779Y684916D01*
X767556Y684892D01*
X767333Y684862D01*
X767111Y684826D01*
X766891Y684786D01*
X766671Y684740D01*
X766452Y684688D01*
X766235Y684631D01*
X766019Y684569D01*
X765805Y684502D01*
X765592Y684430D01*
X765381Y684352D01*
X765172Y684270D01*
X764966Y684182D01*
X764761Y684089D01*
X764559Y683991D01*
X764359Y683889D01*
X764162Y683781D01*
X763967Y683669D01*
X763775Y683552D01*
X763587Y683431D01*
X763401Y683305D01*
X763218Y683174D01*
X763038Y683039D01*
X762862Y682900D01*
X762689Y682757D01*
X762520Y682609D01*
X762355Y682457D01*
X762193Y682301D01*
X762035Y682142D01*
X761881Y681978D01*
X761731Y681811D01*
X761585Y681641D01*
X761443Y681466D01*
X761306Y681289D01*
X761172Y681108D01*
X761044Y680924D01*
X760920Y680737D01*
X760800Y680546D01*
X760685Y680353D01*
X760575Y680158D01*
X760470Y679959D01*
X760369Y679759D01*
X760273Y679555D01*
X760183Y679350D01*
X760097Y679142D01*
X760017Y678933D01*
X759941Y678721D01*
X759563Y677922D01*
X759205Y677114D01*
X758866Y676298D01*
X758546Y675474D01*
X758246Y674643D01*
X757966Y673805D01*
X757707Y672960D01*
X757467Y672110D01*
X757248Y671254D01*
X757049Y670393D01*
X756871Y669527D01*
X756714Y668657D01*
X756577Y667784D01*
X756461Y666908D01*
X756367Y666030D01*
X756293Y665149D01*
X756240Y664267D01*
X756209Y663384D01*
X756198Y662500D01*
X781154Y662500D02*
X781143Y661616D01*
X781112Y660733D01*
X781059Y659851D01*
X780985Y658970D01*
X780891Y658092D01*
X780775Y657216D01*
X780638Y656343D01*
X780481Y655473D01*
X780303Y654607D01*
X780104Y653746D01*
X779885Y652890D01*
X779645Y652040D01*
X779386Y651195D01*
X779106Y650357D01*
X778806Y649525D01*
X778486Y648701D01*
X778147Y647885D01*
X777789Y647078D01*
X777411Y646279D01*
X777410Y646278D02*
X777334Y646067D01*
X777254Y645857D01*
X777168Y645650D01*
X777078Y645444D01*
X776982Y645241D01*
X776882Y645040D01*
X776776Y644842D01*
X776666Y644646D01*
X776551Y644453D01*
X776432Y644263D01*
X776307Y644076D01*
X776179Y643892D01*
X776046Y643711D01*
X775908Y643533D01*
X775767Y643359D01*
X775621Y643189D01*
X775471Y643021D01*
X775317Y642858D01*
X775159Y642698D01*
X774997Y642543D01*
X774831Y642391D01*
X774662Y642243D01*
X774489Y642100D01*
X774313Y641961D01*
X774134Y641826D01*
X773951Y641695D01*
X773765Y641569D01*
X773576Y641448D01*
X773384Y641331D01*
X773190Y641219D01*
X772992Y641111D01*
X772793Y641009D01*
X772590Y640911D01*
X772386Y640818D01*
X772179Y640730D01*
X771970Y640648D01*
X771760Y640570D01*
X771547Y640498D01*
X771333Y640431D01*
X771117Y640369D01*
X770900Y640312D01*
X770681Y640260D01*
X770461Y640214D01*
X770240Y640174D01*
X770019Y640138D01*
X769796Y640108D01*
X769573Y640084D01*
X769349Y640065D01*
X769125Y640051D01*
X768901Y640043D01*
X768676Y640040D01*
X759941Y646279D02*
X759563Y647078D01*
X759205Y647885D01*
X758866Y648701D01*
X758546Y649525D01*
X758246Y650357D01*
X757966Y651195D01*
X757707Y652040D01*
X757467Y652890D01*
X757248Y653746D01*
X757049Y654607D01*
X756871Y655473D01*
X756714Y656343D01*
X756577Y657216D01*
X756461Y658092D01*
X756367Y658970D01*
X756293Y659851D01*
X756240Y660733D01*
X756209Y661616D01*
X756198Y662500D01*
X759941Y646279D02*
X760017Y646067D01*
X760097Y645857D01*
X760183Y645650D01*
X760274Y645444D01*
X760369Y645241D01*
X760470Y645040D01*
X760575Y644842D01*
X760685Y644646D01*
X760800Y644453D01*
X760920Y644263D01*
X761044Y644076D01*
X761173Y643892D01*
X761306Y643711D01*
X761443Y643534D01*
X761585Y643359D01*
X761731Y643189D01*
X761881Y643022D01*
X762035Y642858D01*
X762193Y642698D01*
X762355Y642543D01*
X762520Y642391D01*
X762690Y642243D01*
X762862Y642100D01*
X763039Y641961D01*
X763218Y641826D01*
X763401Y641695D01*
X763587Y641569D01*
X763776Y641448D01*
X763967Y641331D01*
X764162Y641219D01*
X764359Y641111D01*
X764559Y641009D01*
X764761Y640911D01*
X764966Y640818D01*
X765173Y640730D01*
X765381Y640648D01*
X765592Y640570D01*
X765805Y640498D01*
X766019Y640431D01*
X766235Y640369D01*
X766452Y640312D01*
X766671Y640260D01*
X766891Y640214D01*
X767111Y640174D01*
X767333Y640138D01*
X767556Y640108D01*
X767779Y640084D01*
X768003Y640065D01*
X768227Y640051D01*
X768451Y640043D01*
X768676Y640040D01*
X778658Y650022D02*
X758694Y674978D01*
X736154Y679969D02*
X736154Y684960D01*
X711199Y684960D01*
X723677Y640040D01*
X1031337Y2127540D02*
X1041319Y2127540D01*
X1041560Y2127543D01*
X1041801Y2127552D01*
X1042042Y2127566D01*
X1042282Y2127587D01*
X1042522Y2127613D01*
X1042761Y2127645D01*
X1043000Y2127682D01*
X1043237Y2127726D01*
X1043473Y2127775D01*
X1043708Y2127830D01*
X1043941Y2127891D01*
X1044173Y2127957D01*
X1044404Y2128029D01*
X1044632Y2128106D01*
X1044859Y2128189D01*
X1045083Y2128277D01*
X1045306Y2128371D01*
X1045526Y2128470D01*
X1045743Y2128574D01*
X1045958Y2128683D01*
X1046170Y2128798D01*
X1046380Y2128918D01*
X1046586Y2129043D01*
X1046789Y2129172D01*
X1046990Y2129307D01*
X1047186Y2129446D01*
X1047380Y2129591D01*
X1047570Y2129739D01*
X1047756Y2129893D01*
X1047938Y2130050D01*
X1048117Y2130213D01*
X1048292Y2130379D01*
X1048462Y2130550D01*
X1048629Y2130724D01*
X1048791Y2130903D01*
X1048949Y2131085D01*
X1049102Y2131272D01*
X1049251Y2131461D01*
X1049395Y2131655D01*
X1049534Y2131852D01*
X1049669Y2132052D01*
X1049798Y2132255D01*
X1049923Y2132462D01*
X1050043Y2132671D01*
X1050158Y2132883D01*
X1050267Y2133098D01*
X1050372Y2133316D01*
X1050471Y2133536D01*
X1050564Y2133758D01*
X1050652Y2133983D01*
X1050735Y2134209D01*
X1050813Y2134438D01*
X1050884Y2134668D01*
X1050950Y2134900D01*
X1051011Y2135133D01*
X1051066Y2135368D01*
X1051115Y2135604D01*
X1051159Y2135842D01*
X1051196Y2136080D01*
X1051228Y2136319D01*
X1051254Y2136559D01*
X1051275Y2136799D01*
X1051289Y2137040D01*
X1051298Y2137281D01*
X1051301Y2137522D01*
X1051302Y2137522D02*
X1051302Y2162478D01*
X1051299Y2162723D01*
X1051290Y2162968D01*
X1051275Y2163212D01*
X1051254Y2163456D01*
X1051227Y2163700D01*
X1051194Y2163943D01*
X1051155Y2164185D01*
X1051110Y2164426D01*
X1051059Y2164665D01*
X1051003Y2164904D01*
X1050940Y2165140D01*
X1050872Y2165376D01*
X1050798Y2165609D01*
X1050718Y2165841D01*
X1050633Y2166071D01*
X1050542Y2166298D01*
X1050446Y2166523D01*
X1050344Y2166746D01*
X1050236Y2166966D01*
X1050123Y2167184D01*
X1050005Y2167398D01*
X1049882Y2167610D01*
X1049753Y2167819D01*
X1049620Y2168024D01*
X1049481Y2168226D01*
X1049338Y2168425D01*
X1049189Y2168620D01*
X1049036Y2168811D01*
X1048878Y2168998D01*
X1048716Y2169182D01*
X1048549Y2169361D01*
X1048378Y2169537D01*
X1048203Y2169708D01*
X1048023Y2169875D01*
X1047840Y2170037D01*
X1047652Y2170195D01*
X1047461Y2170348D01*
X1047266Y2170496D01*
X1047068Y2170640D01*
X1046866Y2170778D01*
X1046660Y2170912D01*
X1046452Y2171040D01*
X1046240Y2171164D01*
X1046025Y2171282D01*
X1045808Y2171395D01*
X1045588Y2171502D01*
X1045365Y2171604D01*
X1045140Y2171701D01*
X1044912Y2171792D01*
X1044683Y2171877D01*
X1044451Y2171957D01*
X1044217Y2172031D01*
X1043982Y2172099D01*
X1043745Y2172162D01*
X1043507Y2172218D01*
X1043267Y2172269D01*
X1043026Y2172314D01*
X1042784Y2172353D01*
X1042542Y2172386D01*
X1042298Y2172413D01*
X1042054Y2172434D01*
X1041809Y2172449D01*
X1041565Y2172458D01*
X1041320Y2172461D01*
X1041319Y2172460D02*
X1031337Y2172460D01*
X1003671Y2172460D02*
X1013653Y2137522D01*
X988698Y2137522D01*
X996185Y2147504D02*
X996185Y2127540D01*
X968654Y2150000D02*
X968643Y2150884D01*
X968612Y2151767D01*
X968559Y2152649D01*
X968485Y2153530D01*
X968391Y2154408D01*
X968275Y2155284D01*
X968138Y2156157D01*
X967981Y2157027D01*
X967803Y2157893D01*
X967604Y2158754D01*
X967385Y2159610D01*
X967145Y2160460D01*
X966886Y2161305D01*
X966606Y2162143D01*
X966306Y2162974D01*
X965986Y2163798D01*
X965647Y2164614D01*
X965289Y2165422D01*
X964911Y2166221D01*
X964910Y2166221D02*
X964835Y2166433D01*
X964754Y2166642D01*
X964668Y2166850D01*
X964578Y2167056D01*
X964482Y2167259D01*
X964382Y2167460D01*
X964276Y2167658D01*
X964166Y2167854D01*
X964051Y2168047D01*
X963932Y2168237D01*
X963808Y2168424D01*
X963679Y2168608D01*
X963546Y2168789D01*
X963408Y2168966D01*
X963267Y2169141D01*
X963121Y2169311D01*
X962971Y2169478D01*
X962817Y2169642D01*
X962659Y2169801D01*
X962497Y2169957D01*
X962331Y2170109D01*
X962162Y2170257D01*
X961989Y2170400D01*
X961813Y2170539D01*
X961634Y2170674D01*
X961451Y2170805D01*
X961265Y2170931D01*
X961076Y2171052D01*
X960884Y2171169D01*
X960690Y2171281D01*
X960493Y2171389D01*
X960293Y2171491D01*
X960091Y2171589D01*
X959886Y2171682D01*
X959679Y2171770D01*
X959471Y2171852D01*
X959260Y2171930D01*
X959047Y2172002D01*
X958833Y2172069D01*
X958617Y2172131D01*
X958400Y2172188D01*
X958181Y2172240D01*
X957961Y2172286D01*
X957741Y2172326D01*
X957519Y2172362D01*
X957296Y2172392D01*
X957073Y2172416D01*
X956849Y2172435D01*
X956625Y2172449D01*
X956401Y2172457D01*
X956176Y2172460D01*
X955951Y2172457D01*
X955727Y2172449D01*
X955503Y2172435D01*
X955279Y2172416D01*
X955056Y2172392D01*
X954833Y2172362D01*
X954611Y2172326D01*
X954391Y2172286D01*
X954171Y2172240D01*
X953952Y2172188D01*
X953735Y2172131D01*
X953519Y2172069D01*
X953305Y2172002D01*
X953092Y2171930D01*
X952881Y2171852D01*
X952672Y2171770D01*
X952466Y2171682D01*
X952261Y2171589D01*
X952059Y2171491D01*
X951859Y2171389D01*
X951662Y2171281D01*
X951467Y2171169D01*
X951275Y2171052D01*
X951087Y2170931D01*
X950901Y2170805D01*
X950718Y2170674D01*
X950538Y2170539D01*
X950362Y2170400D01*
X950189Y2170257D01*
X950020Y2170109D01*
X949855Y2169957D01*
X949693Y2169801D01*
X949535Y2169642D01*
X949381Y2169478D01*
X949231Y2169311D01*
X949085Y2169141D01*
X948943Y2168966D01*
X948806Y2168789D01*
X948672Y2168608D01*
X948544Y2168424D01*
X948420Y2168237D01*
X948300Y2168046D01*
X948185Y2167853D01*
X948075Y2167658D01*
X947970Y2167459D01*
X947869Y2167259D01*
X947773Y2167055D01*
X947683Y2166850D01*
X947597Y2166642D01*
X947517Y2166433D01*
X947441Y2166221D01*
X947063Y2165422D01*
X946705Y2164614D01*
X946366Y2163798D01*
X946046Y2162974D01*
X945746Y2162143D01*
X945466Y2161305D01*
X945207Y2160460D01*
X944967Y2159610D01*
X944748Y2158754D01*
X944549Y2157893D01*
X944371Y2157027D01*
X944214Y2156157D01*
X944077Y2155284D01*
X943961Y2154408D01*
X943867Y2153530D01*
X943793Y2152649D01*
X943740Y2151767D01*
X943709Y2150884D01*
X943698Y2150000D01*
X968654Y2150000D02*
X968643Y2149116D01*
X968612Y2148233D01*
X968559Y2147351D01*
X968485Y2146470D01*
X968391Y2145592D01*
X968275Y2144716D01*
X968138Y2143843D01*
X967981Y2142973D01*
X967803Y2142107D01*
X967604Y2141246D01*
X967385Y2140390D01*
X967145Y2139540D01*
X966886Y2138695D01*
X966606Y2137857D01*
X966306Y2137025D01*
X965986Y2136201D01*
X965647Y2135385D01*
X965289Y2134578D01*
X964911Y2133779D01*
X964910Y2133778D02*
X964834Y2133567D01*
X964754Y2133357D01*
X964668Y2133150D01*
X964578Y2132944D01*
X964482Y2132741D01*
X964382Y2132540D01*
X964276Y2132342D01*
X964166Y2132146D01*
X964051Y2131953D01*
X963932Y2131763D01*
X963807Y2131576D01*
X963679Y2131392D01*
X963546Y2131211D01*
X963408Y2131033D01*
X963267Y2130859D01*
X963121Y2130689D01*
X962971Y2130521D01*
X962817Y2130358D01*
X962659Y2130198D01*
X962497Y2130043D01*
X962331Y2129891D01*
X962162Y2129743D01*
X961989Y2129600D01*
X961813Y2129461D01*
X961634Y2129326D01*
X961451Y2129195D01*
X961265Y2129069D01*
X961076Y2128948D01*
X960884Y2128831D01*
X960690Y2128719D01*
X960492Y2128611D01*
X960293Y2128509D01*
X960090Y2128411D01*
X959886Y2128318D01*
X959679Y2128230D01*
X959470Y2128148D01*
X959260Y2128070D01*
X959047Y2127998D01*
X958833Y2127931D01*
X958617Y2127869D01*
X958400Y2127812D01*
X958181Y2127760D01*
X957961Y2127714D01*
X957740Y2127674D01*
X957519Y2127638D01*
X957296Y2127608D01*
X957073Y2127584D01*
X956849Y2127565D01*
X956625Y2127551D01*
X956401Y2127543D01*
X956176Y2127540D01*
X947441Y2133779D02*
X947063Y2134578D01*
X946705Y2135385D01*
X946366Y2136201D01*
X946046Y2137025D01*
X945746Y2137857D01*
X945466Y2138695D01*
X945207Y2139540D01*
X944967Y2140390D01*
X944748Y2141246D01*
X944549Y2142107D01*
X944371Y2142973D01*
X944214Y2143843D01*
X944077Y2144716D01*
X943961Y2145592D01*
X943867Y2146470D01*
X943793Y2147351D01*
X943740Y2148233D01*
X943709Y2149116D01*
X943698Y2150000D01*
X947441Y2133779D02*
X947517Y2133567D01*
X947597Y2133357D01*
X947683Y2133150D01*
X947774Y2132944D01*
X947869Y2132741D01*
X947970Y2132540D01*
X948075Y2132342D01*
X948185Y2132146D01*
X948300Y2131953D01*
X948420Y2131763D01*
X948544Y2131576D01*
X948673Y2131392D01*
X948806Y2131211D01*
X948943Y2131034D01*
X949085Y2130859D01*
X949231Y2130689D01*
X949381Y2130522D01*
X949535Y2130358D01*
X949693Y2130198D01*
X949855Y2130043D01*
X950020Y2129891D01*
X950190Y2129743D01*
X950362Y2129600D01*
X950539Y2129461D01*
X950718Y2129326D01*
X950901Y2129195D01*
X951087Y2129069D01*
X951276Y2128948D01*
X951467Y2128831D01*
X951662Y2128719D01*
X951859Y2128611D01*
X952059Y2128509D01*
X952261Y2128411D01*
X952466Y2128318D01*
X952673Y2128230D01*
X952881Y2128148D01*
X953092Y2128070D01*
X953305Y2127998D01*
X953519Y2127931D01*
X953735Y2127869D01*
X953952Y2127812D01*
X954171Y2127760D01*
X954391Y2127714D01*
X954611Y2127674D01*
X954833Y2127638D01*
X955056Y2127608D01*
X955279Y2127584D01*
X955503Y2127565D01*
X955727Y2127551D01*
X955951Y2127543D01*
X956176Y2127540D01*
X966158Y2137522D02*
X946194Y2162478D01*
X923654Y2127540D02*
X908681Y2127540D01*
X908440Y2127543D01*
X908199Y2127552D01*
X907958Y2127566D01*
X907718Y2127587D01*
X907478Y2127613D01*
X907239Y2127645D01*
X907000Y2127682D01*
X906763Y2127726D01*
X906527Y2127775D01*
X906292Y2127830D01*
X906059Y2127891D01*
X905827Y2127957D01*
X905596Y2128029D01*
X905368Y2128106D01*
X905141Y2128189D01*
X904917Y2128277D01*
X904695Y2128371D01*
X904475Y2128470D01*
X904257Y2128574D01*
X904042Y2128683D01*
X903830Y2128798D01*
X903621Y2128918D01*
X903414Y2129043D01*
X903211Y2129172D01*
X903011Y2129307D01*
X902814Y2129446D01*
X902620Y2129591D01*
X902430Y2129739D01*
X902244Y2129893D01*
X902062Y2130050D01*
X901883Y2130212D01*
X901708Y2130379D01*
X901538Y2130549D01*
X901371Y2130724D01*
X901209Y2130903D01*
X901052Y2131085D01*
X900898Y2131271D01*
X900750Y2131461D01*
X900605Y2131655D01*
X900466Y2131852D01*
X900331Y2132052D01*
X900202Y2132255D01*
X900077Y2132462D01*
X899957Y2132671D01*
X899842Y2132883D01*
X899733Y2133098D01*
X899629Y2133316D01*
X899530Y2133536D01*
X899436Y2133758D01*
X899348Y2133982D01*
X899265Y2134209D01*
X899188Y2134437D01*
X899116Y2134668D01*
X899050Y2134900D01*
X898989Y2135133D01*
X898934Y2135368D01*
X898885Y2135604D01*
X898841Y2135841D01*
X898804Y2136080D01*
X898772Y2136319D01*
X898746Y2136559D01*
X898725Y2136799D01*
X898711Y2137040D01*
X898702Y2137281D01*
X898699Y2137522D01*
X898699Y2142513D01*
X898702Y2142754D01*
X898711Y2142995D01*
X898725Y2143236D01*
X898746Y2143476D01*
X898772Y2143716D01*
X898804Y2143955D01*
X898841Y2144194D01*
X898885Y2144431D01*
X898934Y2144667D01*
X898989Y2144902D01*
X899050Y2145135D01*
X899116Y2145367D01*
X899188Y2145598D01*
X899265Y2145826D01*
X899348Y2146053D01*
X899436Y2146277D01*
X899530Y2146500D01*
X899629Y2146720D01*
X899733Y2146937D01*
X899842Y2147152D01*
X899957Y2147364D01*
X900077Y2147574D01*
X900202Y2147780D01*
X900331Y2147983D01*
X900466Y2148184D01*
X900605Y2148380D01*
X900750Y2148574D01*
X900898Y2148764D01*
X901052Y2148950D01*
X901209Y2149132D01*
X901372Y2149311D01*
X901538Y2149486D01*
X901709Y2149656D01*
X901883Y2149823D01*
X902062Y2149985D01*
X902244Y2150143D01*
X902431Y2150296D01*
X902620Y2150445D01*
X902814Y2150589D01*
X903011Y2150728D01*
X903211Y2150863D01*
X903414Y2150992D01*
X903621Y2151117D01*
X903830Y2151237D01*
X904042Y2151352D01*
X904257Y2151461D01*
X904475Y2151566D01*
X904695Y2151665D01*
X904917Y2151758D01*
X905142Y2151846D01*
X905368Y2151929D01*
X905597Y2152007D01*
X905827Y2152078D01*
X906059Y2152144D01*
X906292Y2152205D01*
X906527Y2152260D01*
X906763Y2152309D01*
X907001Y2152353D01*
X907239Y2152390D01*
X907478Y2152422D01*
X907718Y2152448D01*
X907958Y2152469D01*
X908199Y2152483D01*
X908440Y2152492D01*
X908681Y2152495D01*
X923654Y2152495D01*
X923654Y2172460D01*
X898699Y2172460D01*
X2246837Y1177540D02*
X2256819Y1177540D01*
X2257060Y1177543D01*
X2257301Y1177552D01*
X2257542Y1177566D01*
X2257782Y1177587D01*
X2258022Y1177613D01*
X2258261Y1177645D01*
X2258500Y1177682D01*
X2258737Y1177726D01*
X2258973Y1177775D01*
X2259208Y1177830D01*
X2259441Y1177891D01*
X2259673Y1177957D01*
X2259904Y1178029D01*
X2260132Y1178106D01*
X2260359Y1178189D01*
X2260583Y1178277D01*
X2260806Y1178371D01*
X2261026Y1178470D01*
X2261243Y1178574D01*
X2261458Y1178683D01*
X2261670Y1178798D01*
X2261880Y1178918D01*
X2262086Y1179043D01*
X2262289Y1179172D01*
X2262490Y1179307D01*
X2262686Y1179446D01*
X2262880Y1179591D01*
X2263070Y1179739D01*
X2263256Y1179893D01*
X2263438Y1180050D01*
X2263617Y1180213D01*
X2263792Y1180379D01*
X2263962Y1180550D01*
X2264129Y1180724D01*
X2264291Y1180903D01*
X2264449Y1181085D01*
X2264602Y1181272D01*
X2264751Y1181461D01*
X2264895Y1181655D01*
X2265034Y1181852D01*
X2265169Y1182052D01*
X2265298Y1182255D01*
X2265423Y1182462D01*
X2265543Y1182671D01*
X2265658Y1182883D01*
X2265767Y1183098D01*
X2265872Y1183316D01*
X2265971Y1183536D01*
X2266064Y1183758D01*
X2266152Y1183983D01*
X2266235Y1184209D01*
X2266313Y1184438D01*
X2266384Y1184668D01*
X2266450Y1184900D01*
X2266511Y1185133D01*
X2266566Y1185368D01*
X2266615Y1185604D01*
X2266659Y1185842D01*
X2266696Y1186080D01*
X2266728Y1186319D01*
X2266754Y1186559D01*
X2266775Y1186799D01*
X2266789Y1187040D01*
X2266798Y1187281D01*
X2266801Y1187522D01*
X2266801Y1212478D01*
X2266798Y1212723D01*
X2266789Y1212968D01*
X2266774Y1213212D01*
X2266753Y1213456D01*
X2266726Y1213700D01*
X2266693Y1213943D01*
X2266654Y1214185D01*
X2266609Y1214426D01*
X2266558Y1214665D01*
X2266502Y1214904D01*
X2266439Y1215140D01*
X2266371Y1215376D01*
X2266297Y1215609D01*
X2266217Y1215841D01*
X2266132Y1216071D01*
X2266041Y1216298D01*
X2265945Y1216523D01*
X2265843Y1216746D01*
X2265735Y1216966D01*
X2265622Y1217184D01*
X2265504Y1217398D01*
X2265381Y1217610D01*
X2265252Y1217819D01*
X2265119Y1218024D01*
X2264980Y1218226D01*
X2264837Y1218425D01*
X2264688Y1218620D01*
X2264535Y1218811D01*
X2264377Y1218998D01*
X2264215Y1219182D01*
X2264048Y1219361D01*
X2263877Y1219537D01*
X2263702Y1219708D01*
X2263522Y1219875D01*
X2263339Y1220037D01*
X2263151Y1220195D01*
X2262960Y1220348D01*
X2262765Y1220496D01*
X2262567Y1220640D01*
X2262365Y1220778D01*
X2262159Y1220912D01*
X2261951Y1221040D01*
X2261739Y1221164D01*
X2261524Y1221282D01*
X2261307Y1221395D01*
X2261087Y1221502D01*
X2260864Y1221604D01*
X2260639Y1221701D01*
X2260411Y1221792D01*
X2260182Y1221877D01*
X2259950Y1221957D01*
X2259716Y1222031D01*
X2259481Y1222099D01*
X2259244Y1222162D01*
X2259006Y1222218D01*
X2258766Y1222269D01*
X2258525Y1222314D01*
X2258283Y1222353D01*
X2258041Y1222386D01*
X2257797Y1222413D01*
X2257553Y1222434D01*
X2257308Y1222449D01*
X2257064Y1222458D01*
X2256819Y1222461D01*
X2256819Y1222460D02*
X2246837Y1222460D01*
X2229153Y1177540D02*
X2214180Y1177540D01*
X2213939Y1177543D01*
X2213698Y1177552D01*
X2213457Y1177566D01*
X2213217Y1177587D01*
X2212977Y1177613D01*
X2212738Y1177645D01*
X2212499Y1177682D01*
X2212262Y1177726D01*
X2212026Y1177775D01*
X2211791Y1177830D01*
X2211558Y1177891D01*
X2211326Y1177957D01*
X2211095Y1178029D01*
X2210867Y1178106D01*
X2210640Y1178189D01*
X2210416Y1178277D01*
X2210194Y1178371D01*
X2209974Y1178470D01*
X2209756Y1178574D01*
X2209541Y1178683D01*
X2209329Y1178798D01*
X2209120Y1178918D01*
X2208913Y1179043D01*
X2208710Y1179172D01*
X2208510Y1179307D01*
X2208313Y1179446D01*
X2208119Y1179591D01*
X2207929Y1179739D01*
X2207743Y1179893D01*
X2207561Y1180050D01*
X2207382Y1180212D01*
X2207207Y1180379D01*
X2207037Y1180549D01*
X2206870Y1180724D01*
X2206708Y1180903D01*
X2206551Y1181085D01*
X2206397Y1181271D01*
X2206249Y1181461D01*
X2206104Y1181655D01*
X2205965Y1181852D01*
X2205830Y1182052D01*
X2205701Y1182255D01*
X2205576Y1182462D01*
X2205456Y1182671D01*
X2205341Y1182883D01*
X2205232Y1183098D01*
X2205128Y1183316D01*
X2205029Y1183536D01*
X2204935Y1183758D01*
X2204847Y1183982D01*
X2204764Y1184209D01*
X2204687Y1184437D01*
X2204615Y1184668D01*
X2204549Y1184900D01*
X2204488Y1185133D01*
X2204433Y1185368D01*
X2204384Y1185604D01*
X2204340Y1185841D01*
X2204303Y1186080D01*
X2204271Y1186319D01*
X2204245Y1186559D01*
X2204224Y1186799D01*
X2204210Y1187040D01*
X2204201Y1187281D01*
X2204198Y1187522D01*
X2204198Y1192513D01*
X2204201Y1192754D01*
X2204210Y1192995D01*
X2204224Y1193236D01*
X2204245Y1193476D01*
X2204271Y1193716D01*
X2204303Y1193955D01*
X2204340Y1194194D01*
X2204384Y1194431D01*
X2204433Y1194667D01*
X2204488Y1194902D01*
X2204549Y1195135D01*
X2204615Y1195367D01*
X2204687Y1195598D01*
X2204764Y1195826D01*
X2204847Y1196053D01*
X2204935Y1196277D01*
X2205029Y1196500D01*
X2205128Y1196720D01*
X2205232Y1196937D01*
X2205341Y1197152D01*
X2205456Y1197364D01*
X2205576Y1197574D01*
X2205701Y1197780D01*
X2205830Y1197983D01*
X2205965Y1198184D01*
X2206104Y1198380D01*
X2206249Y1198574D01*
X2206397Y1198764D01*
X2206551Y1198950D01*
X2206708Y1199132D01*
X2206871Y1199311D01*
X2207037Y1199486D01*
X2207208Y1199656D01*
X2207382Y1199823D01*
X2207561Y1199985D01*
X2207743Y1200143D01*
X2207930Y1200296D01*
X2208119Y1200445D01*
X2208313Y1200589D01*
X2208510Y1200728D01*
X2208710Y1200863D01*
X2208913Y1200992D01*
X2209120Y1201117D01*
X2209329Y1201237D01*
X2209541Y1201352D01*
X2209756Y1201461D01*
X2209974Y1201566D01*
X2210194Y1201665D01*
X2210416Y1201758D01*
X2210641Y1201846D01*
X2210867Y1201929D01*
X2211096Y1202007D01*
X2211326Y1202078D01*
X2211558Y1202144D01*
X2211791Y1202205D01*
X2212026Y1202260D01*
X2212262Y1202309D01*
X2212500Y1202353D01*
X2212738Y1202390D01*
X2212977Y1202422D01*
X2213217Y1202448D01*
X2213457Y1202469D01*
X2213698Y1202483D01*
X2213939Y1202492D01*
X2214180Y1202495D01*
X2229153Y1202495D01*
X2229153Y1222460D01*
X2204198Y1222460D01*
X2180411Y1216221D02*
X2180789Y1215422D01*
X2181147Y1214614D01*
X2181486Y1213798D01*
X2181806Y1212974D01*
X2182106Y1212143D01*
X2182386Y1211305D01*
X2182645Y1210460D01*
X2182885Y1209610D01*
X2183104Y1208754D01*
X2183303Y1207893D01*
X2183481Y1207027D01*
X2183638Y1206157D01*
X2183775Y1205284D01*
X2183891Y1204408D01*
X2183985Y1203530D01*
X2184059Y1202649D01*
X2184112Y1201767D01*
X2184143Y1200884D01*
X2184154Y1200000D01*
X2180410Y1216221D02*
X2180335Y1216433D01*
X2180254Y1216642D01*
X2180168Y1216850D01*
X2180078Y1217056D01*
X2179982Y1217259D01*
X2179882Y1217460D01*
X2179776Y1217658D01*
X2179666Y1217854D01*
X2179551Y1218047D01*
X2179432Y1218237D01*
X2179308Y1218424D01*
X2179179Y1218608D01*
X2179046Y1218789D01*
X2178908Y1218966D01*
X2178767Y1219141D01*
X2178621Y1219311D01*
X2178471Y1219478D01*
X2178317Y1219642D01*
X2178159Y1219801D01*
X2177997Y1219957D01*
X2177831Y1220109D01*
X2177662Y1220257D01*
X2177489Y1220400D01*
X2177313Y1220539D01*
X2177134Y1220674D01*
X2176951Y1220805D01*
X2176765Y1220931D01*
X2176576Y1221052D01*
X2176384Y1221169D01*
X2176190Y1221281D01*
X2175993Y1221389D01*
X2175793Y1221491D01*
X2175591Y1221589D01*
X2175386Y1221682D01*
X2175179Y1221770D01*
X2174971Y1221852D01*
X2174760Y1221930D01*
X2174547Y1222002D01*
X2174333Y1222069D01*
X2174117Y1222131D01*
X2173900Y1222188D01*
X2173681Y1222240D01*
X2173461Y1222286D01*
X2173241Y1222326D01*
X2173019Y1222362D01*
X2172796Y1222392D01*
X2172573Y1222416D01*
X2172349Y1222435D01*
X2172125Y1222449D01*
X2171901Y1222457D01*
X2171676Y1222460D01*
X2171451Y1222457D01*
X2171227Y1222449D01*
X2171003Y1222435D01*
X2170779Y1222416D01*
X2170556Y1222392D01*
X2170333Y1222362D01*
X2170111Y1222326D01*
X2169891Y1222286D01*
X2169671Y1222240D01*
X2169452Y1222188D01*
X2169235Y1222131D01*
X2169019Y1222069D01*
X2168805Y1222002D01*
X2168592Y1221930D01*
X2168381Y1221852D01*
X2168172Y1221770D01*
X2167966Y1221682D01*
X2167761Y1221589D01*
X2167559Y1221491D01*
X2167359Y1221389D01*
X2167162Y1221281D01*
X2166967Y1221169D01*
X2166775Y1221052D01*
X2166587Y1220931D01*
X2166401Y1220805D01*
X2166218Y1220674D01*
X2166038Y1220539D01*
X2165862Y1220400D01*
X2165689Y1220257D01*
X2165520Y1220109D01*
X2165355Y1219957D01*
X2165193Y1219801D01*
X2165035Y1219642D01*
X2164881Y1219478D01*
X2164731Y1219311D01*
X2164585Y1219141D01*
X2164443Y1218966D01*
X2164306Y1218789D01*
X2164172Y1218608D01*
X2164044Y1218424D01*
X2163920Y1218237D01*
X2163800Y1218046D01*
X2163685Y1217853D01*
X2163575Y1217658D01*
X2163470Y1217459D01*
X2163369Y1217259D01*
X2163273Y1217055D01*
X2163183Y1216850D01*
X2163097Y1216642D01*
X2163017Y1216433D01*
X2162941Y1216221D01*
X2162563Y1215422D01*
X2162205Y1214614D01*
X2161866Y1213798D01*
X2161546Y1212974D01*
X2161246Y1212143D01*
X2160966Y1211305D01*
X2160707Y1210460D01*
X2160467Y1209610D01*
X2160248Y1208754D01*
X2160049Y1207893D01*
X2159871Y1207027D01*
X2159714Y1206157D01*
X2159577Y1205284D01*
X2159461Y1204408D01*
X2159367Y1203530D01*
X2159293Y1202649D01*
X2159240Y1201767D01*
X2159209Y1200884D01*
X2159198Y1200000D01*
X2184153Y1200000D02*
X2184142Y1199116D01*
X2184111Y1198233D01*
X2184058Y1197351D01*
X2183984Y1196470D01*
X2183890Y1195592D01*
X2183774Y1194716D01*
X2183637Y1193843D01*
X2183480Y1192973D01*
X2183302Y1192107D01*
X2183103Y1191246D01*
X2182884Y1190390D01*
X2182644Y1189540D01*
X2182385Y1188695D01*
X2182105Y1187857D01*
X2181805Y1187025D01*
X2181485Y1186201D01*
X2181146Y1185385D01*
X2180788Y1184578D01*
X2180410Y1183779D01*
X2180410Y1183778D02*
X2180334Y1183567D01*
X2180254Y1183357D01*
X2180168Y1183150D01*
X2180078Y1182944D01*
X2179982Y1182741D01*
X2179882Y1182540D01*
X2179776Y1182342D01*
X2179666Y1182146D01*
X2179551Y1181953D01*
X2179432Y1181763D01*
X2179307Y1181576D01*
X2179179Y1181392D01*
X2179046Y1181211D01*
X2178908Y1181033D01*
X2178767Y1180859D01*
X2178621Y1180689D01*
X2178471Y1180521D01*
X2178317Y1180358D01*
X2178159Y1180198D01*
X2177997Y1180043D01*
X2177831Y1179891D01*
X2177662Y1179743D01*
X2177489Y1179600D01*
X2177313Y1179461D01*
X2177134Y1179326D01*
X2176951Y1179195D01*
X2176765Y1179069D01*
X2176576Y1178948D01*
X2176384Y1178831D01*
X2176190Y1178719D01*
X2175992Y1178611D01*
X2175793Y1178509D01*
X2175590Y1178411D01*
X2175386Y1178318D01*
X2175179Y1178230D01*
X2174970Y1178148D01*
X2174760Y1178070D01*
X2174547Y1177998D01*
X2174333Y1177931D01*
X2174117Y1177869D01*
X2173900Y1177812D01*
X2173681Y1177760D01*
X2173461Y1177714D01*
X2173240Y1177674D01*
X2173019Y1177638D01*
X2172796Y1177608D01*
X2172573Y1177584D01*
X2172349Y1177565D01*
X2172125Y1177551D01*
X2171901Y1177543D01*
X2171676Y1177540D01*
X2162941Y1183779D02*
X2162563Y1184578D01*
X2162205Y1185385D01*
X2161866Y1186201D01*
X2161546Y1187025D01*
X2161246Y1187857D01*
X2160966Y1188695D01*
X2160707Y1189540D01*
X2160467Y1190390D01*
X2160248Y1191246D01*
X2160049Y1192107D01*
X2159871Y1192973D01*
X2159714Y1193843D01*
X2159577Y1194716D01*
X2159461Y1195592D01*
X2159367Y1196470D01*
X2159293Y1197351D01*
X2159240Y1198233D01*
X2159209Y1199116D01*
X2159198Y1200000D01*
X2162941Y1183779D02*
X2163017Y1183567D01*
X2163097Y1183357D01*
X2163183Y1183150D01*
X2163274Y1182944D01*
X2163369Y1182741D01*
X2163470Y1182540D01*
X2163575Y1182342D01*
X2163685Y1182146D01*
X2163800Y1181953D01*
X2163920Y1181763D01*
X2164044Y1181576D01*
X2164173Y1181392D01*
X2164306Y1181211D01*
X2164443Y1181034D01*
X2164585Y1180859D01*
X2164731Y1180689D01*
X2164881Y1180522D01*
X2165035Y1180358D01*
X2165193Y1180198D01*
X2165355Y1180043D01*
X2165520Y1179891D01*
X2165690Y1179743D01*
X2165862Y1179600D01*
X2166039Y1179461D01*
X2166218Y1179326D01*
X2166401Y1179195D01*
X2166587Y1179069D01*
X2166776Y1178948D01*
X2166967Y1178831D01*
X2167162Y1178719D01*
X2167359Y1178611D01*
X2167559Y1178509D01*
X2167761Y1178411D01*
X2167966Y1178318D01*
X2168173Y1178230D01*
X2168381Y1178148D01*
X2168592Y1178070D01*
X2168805Y1177998D01*
X2169019Y1177931D01*
X2169235Y1177869D01*
X2169452Y1177812D01*
X2169671Y1177760D01*
X2169891Y1177714D01*
X2170111Y1177674D01*
X2170333Y1177638D01*
X2170556Y1177608D01*
X2170779Y1177584D01*
X2171003Y1177565D01*
X2171227Y1177551D01*
X2171451Y1177543D01*
X2171676Y1177540D01*
X2181658Y1187522D02*
X2161693Y1212478D01*
X2139154Y1202495D02*
X2124181Y1202495D01*
X2124181Y1202496D02*
X2123936Y1202493D01*
X2123691Y1202484D01*
X2123447Y1202469D01*
X2123203Y1202448D01*
X2122959Y1202421D01*
X2122716Y1202388D01*
X2122474Y1202349D01*
X2122233Y1202304D01*
X2121994Y1202253D01*
X2121755Y1202197D01*
X2121518Y1202134D01*
X2121283Y1202066D01*
X2121050Y1201992D01*
X2120818Y1201912D01*
X2120588Y1201827D01*
X2120361Y1201736D01*
X2120136Y1201640D01*
X2119913Y1201538D01*
X2119693Y1201430D01*
X2119475Y1201317D01*
X2119260Y1201199D01*
X2119049Y1201076D01*
X2118840Y1200947D01*
X2118635Y1200814D01*
X2118433Y1200675D01*
X2118234Y1200531D01*
X2118039Y1200383D01*
X2117848Y1200230D01*
X2117660Y1200072D01*
X2117477Y1199910D01*
X2117297Y1199743D01*
X2117122Y1199572D01*
X2116951Y1199397D01*
X2116784Y1199217D01*
X2116622Y1199034D01*
X2116464Y1198846D01*
X2116311Y1198655D01*
X2116163Y1198460D01*
X2116019Y1198261D01*
X2115881Y1198059D01*
X2115747Y1197854D01*
X2115618Y1197645D01*
X2115495Y1197434D01*
X2115377Y1197219D01*
X2115264Y1197002D01*
X2115157Y1196781D01*
X2115055Y1196559D01*
X2114958Y1196334D01*
X2114867Y1196106D01*
X2114782Y1195876D01*
X2114702Y1195645D01*
X2114628Y1195411D01*
X2114560Y1195176D01*
X2114497Y1194939D01*
X2114441Y1194701D01*
X2114390Y1194461D01*
X2114345Y1194220D01*
X2114306Y1193978D01*
X2114273Y1193735D01*
X2114246Y1193492D01*
X2114225Y1193248D01*
X2114210Y1193003D01*
X2114201Y1192758D01*
X2114198Y1192513D01*
X2114198Y1190018D01*
X2114202Y1189714D01*
X2114213Y1189410D01*
X2114231Y1189107D01*
X2114257Y1188804D01*
X2114290Y1188502D01*
X2114331Y1188201D01*
X2114379Y1187901D01*
X2114434Y1187602D01*
X2114497Y1187305D01*
X2114566Y1187009D01*
X2114643Y1186715D01*
X2114727Y1186423D01*
X2114818Y1186133D01*
X2114916Y1185846D01*
X2115021Y1185560D01*
X2115133Y1185278D01*
X2115252Y1184998D01*
X2115378Y1184722D01*
X2115510Y1184448D01*
X2115649Y1184178D01*
X2115795Y1183911D01*
X2115947Y1183648D01*
X2116105Y1183388D01*
X2116269Y1183133D01*
X2116440Y1182882D01*
X2116617Y1182635D01*
X2116800Y1182392D01*
X2116988Y1182154D01*
X2117183Y1181920D01*
X2117383Y1181691D01*
X2117588Y1181467D01*
X2117799Y1181249D01*
X2118015Y1181035D01*
X2118237Y1180827D01*
X2118463Y1180624D01*
X2118694Y1180427D01*
X2118930Y1180235D01*
X2119171Y1180050D01*
X2119416Y1179870D01*
X2119665Y1179696D01*
X2119918Y1179528D01*
X2120176Y1179367D01*
X2120437Y1179212D01*
X2120702Y1179063D01*
X2120971Y1178921D01*
X2121242Y1178785D01*
X2121518Y1178656D01*
X2121796Y1178534D01*
X2122077Y1178418D01*
X2122361Y1178310D01*
X2122647Y1178208D01*
X2122936Y1178114D01*
X2123227Y1178026D01*
X2123520Y1177946D01*
X2123815Y1177872D01*
X2124111Y1177806D01*
X2124410Y1177748D01*
X2124709Y1177696D01*
X2125010Y1177652D01*
X2125311Y1177615D01*
X2125614Y1177585D01*
X2125917Y1177563D01*
X2126220Y1177548D01*
X2126524Y1177541D01*
X2126828Y1177541D01*
X2127132Y1177548D01*
X2127435Y1177563D01*
X2127738Y1177585D01*
X2128041Y1177615D01*
X2128342Y1177652D01*
X2128643Y1177696D01*
X2128942Y1177748D01*
X2129241Y1177806D01*
X2129537Y1177872D01*
X2129832Y1177946D01*
X2130125Y1178026D01*
X2130416Y1178114D01*
X2130705Y1178208D01*
X2130991Y1178310D01*
X2131275Y1178418D01*
X2131556Y1178534D01*
X2131834Y1178656D01*
X2132110Y1178785D01*
X2132381Y1178921D01*
X2132650Y1179063D01*
X2132915Y1179212D01*
X2133176Y1179367D01*
X2133434Y1179528D01*
X2133687Y1179696D01*
X2133936Y1179870D01*
X2134181Y1180050D01*
X2134422Y1180235D01*
X2134658Y1180427D01*
X2134889Y1180624D01*
X2135115Y1180827D01*
X2135337Y1181035D01*
X2135553Y1181249D01*
X2135764Y1181467D01*
X2135969Y1181691D01*
X2136169Y1181920D01*
X2136364Y1182154D01*
X2136552Y1182392D01*
X2136735Y1182635D01*
X2136912Y1182882D01*
X2137083Y1183133D01*
X2137247Y1183388D01*
X2137405Y1183648D01*
X2137557Y1183911D01*
X2137703Y1184178D01*
X2137842Y1184448D01*
X2137974Y1184722D01*
X2138100Y1184998D01*
X2138219Y1185278D01*
X2138331Y1185560D01*
X2138436Y1185846D01*
X2138534Y1186133D01*
X2138625Y1186423D01*
X2138709Y1186715D01*
X2138786Y1187009D01*
X2138855Y1187305D01*
X2138918Y1187602D01*
X2138973Y1187901D01*
X2139021Y1188201D01*
X2139062Y1188502D01*
X2139095Y1188804D01*
X2139121Y1189107D01*
X2139139Y1189410D01*
X2139150Y1189714D01*
X2139154Y1190018D01*
X2139154Y1202495D01*
X2139153Y1202495D02*
X2139147Y1202977D01*
X2139130Y1203460D01*
X2139101Y1203941D01*
X2139060Y1204422D01*
X2139007Y1204901D01*
X2138944Y1205380D01*
X2138868Y1205856D01*
X2138781Y1206331D01*
X2138683Y1206803D01*
X2138573Y1207273D01*
X2138452Y1207740D01*
X2138319Y1208204D01*
X2138176Y1208664D01*
X2138021Y1209121D01*
X2137856Y1209574D01*
X2137679Y1210023D01*
X2137492Y1210468D01*
X2137294Y1210908D01*
X2137085Y1211343D01*
X2136866Y1211773D01*
X2136637Y1212197D01*
X2136397Y1212616D01*
X2136148Y1213029D01*
X2135888Y1213436D01*
X2135619Y1213836D01*
X2135340Y1214230D01*
X2135052Y1214616D01*
X2134754Y1214996D01*
X2134448Y1215369D01*
X2134132Y1215734D01*
X2133808Y1216091D01*
X2133475Y1216440D01*
X2133134Y1216781D01*
X2132785Y1217114D01*
X2132428Y1217438D01*
X2132063Y1217754D01*
X2131690Y1218060D01*
X2131310Y1218358D01*
X2130924Y1218646D01*
X2130530Y1218925D01*
X2130130Y1219194D01*
X2129723Y1219454D01*
X2129310Y1219703D01*
X2128891Y1219943D01*
X2128467Y1220172D01*
X2128037Y1220391D01*
X2127602Y1220600D01*
X2127162Y1220798D01*
X2126717Y1220985D01*
X2126268Y1221162D01*
X2125815Y1221327D01*
X2125358Y1221482D01*
X2124898Y1221625D01*
X2124434Y1221758D01*
X2123967Y1221879D01*
X2123497Y1221989D01*
X2123025Y1222087D01*
X2122550Y1222174D01*
X2122074Y1222250D01*
X2121595Y1222313D01*
X2121116Y1222366D01*
X2120635Y1222407D01*
X2120154Y1222436D01*
X2119671Y1222453D01*
X2119189Y1222459D01*
X1747460Y614507D02*
X1702540Y614507D01*
X1702540Y609516D02*
X1702540Y619498D01*
X1747460Y619498D02*
X1747460Y609516D01*
X1702540Y647863D02*
X1702540Y657845D01*
X1702540Y647863D02*
X1702543Y647622D01*
X1702552Y647381D01*
X1702566Y647140D01*
X1702587Y646900D01*
X1702613Y646660D01*
X1702645Y646421D01*
X1702682Y646182D01*
X1702726Y645945D01*
X1702775Y645709D01*
X1702830Y645474D01*
X1702891Y645241D01*
X1702957Y645009D01*
X1703029Y644778D01*
X1703106Y644550D01*
X1703189Y644323D01*
X1703277Y644099D01*
X1703371Y643877D01*
X1703470Y643657D01*
X1703574Y643439D01*
X1703683Y643224D01*
X1703798Y643012D01*
X1703918Y642803D01*
X1704043Y642596D01*
X1704172Y642393D01*
X1704307Y642193D01*
X1704446Y641996D01*
X1704591Y641802D01*
X1704739Y641612D01*
X1704893Y641426D01*
X1705050Y641244D01*
X1705212Y641065D01*
X1705379Y640890D01*
X1705549Y640720D01*
X1705724Y640553D01*
X1705903Y640391D01*
X1706085Y640234D01*
X1706271Y640080D01*
X1706461Y639932D01*
X1706655Y639787D01*
X1706852Y639648D01*
X1707052Y639513D01*
X1707255Y639384D01*
X1707462Y639259D01*
X1707671Y639139D01*
X1707883Y639024D01*
X1708098Y638915D01*
X1708316Y638811D01*
X1708536Y638712D01*
X1708758Y638618D01*
X1708982Y638530D01*
X1709209Y638447D01*
X1709437Y638370D01*
X1709668Y638298D01*
X1709900Y638232D01*
X1710133Y638171D01*
X1710368Y638116D01*
X1710604Y638067D01*
X1710841Y638023D01*
X1711080Y637986D01*
X1711319Y637954D01*
X1711559Y637928D01*
X1711799Y637907D01*
X1712040Y637893D01*
X1712281Y637884D01*
X1712522Y637881D01*
X1737478Y637881D01*
X1737478Y637880D02*
X1737723Y637883D01*
X1737968Y637892D01*
X1738212Y637907D01*
X1738456Y637928D01*
X1738700Y637955D01*
X1738943Y637988D01*
X1739185Y638027D01*
X1739426Y638072D01*
X1739665Y638123D01*
X1739904Y638179D01*
X1740141Y638242D01*
X1740376Y638310D01*
X1740609Y638384D01*
X1740841Y638464D01*
X1741071Y638549D01*
X1741298Y638640D01*
X1741523Y638736D01*
X1741746Y638838D01*
X1741966Y638946D01*
X1742184Y639059D01*
X1742399Y639177D01*
X1742610Y639300D01*
X1742819Y639429D01*
X1743024Y639562D01*
X1743226Y639701D01*
X1743425Y639845D01*
X1743620Y639993D01*
X1743811Y640146D01*
X1743999Y640304D01*
X1744182Y640466D01*
X1744362Y640633D01*
X1744537Y640804D01*
X1744708Y640979D01*
X1744875Y641159D01*
X1745037Y641342D01*
X1745195Y641530D01*
X1745348Y641721D01*
X1745496Y641916D01*
X1745640Y642115D01*
X1745778Y642317D01*
X1745912Y642522D01*
X1746041Y642731D01*
X1746164Y642942D01*
X1746282Y643157D01*
X1746395Y643374D01*
X1746502Y643595D01*
X1746604Y643817D01*
X1746701Y644042D01*
X1746792Y644270D01*
X1746877Y644500D01*
X1746957Y644731D01*
X1747031Y644965D01*
X1747099Y645200D01*
X1747162Y645437D01*
X1747218Y645675D01*
X1747269Y645915D01*
X1747314Y646156D01*
X1747353Y646398D01*
X1747386Y646641D01*
X1747413Y646884D01*
X1747434Y647128D01*
X1747449Y647373D01*
X1747458Y647618D01*
X1747461Y647863D01*
X1747460Y647863D02*
X1747460Y657845D01*
X1727495Y675529D02*
X1727495Y690502D01*
X1727492Y690743D01*
X1727483Y690984D01*
X1727469Y691225D01*
X1727448Y691465D01*
X1727422Y691705D01*
X1727390Y691944D01*
X1727353Y692183D01*
X1727309Y692420D01*
X1727260Y692656D01*
X1727205Y692891D01*
X1727144Y693124D01*
X1727078Y693356D01*
X1727006Y693587D01*
X1726929Y693815D01*
X1726846Y694042D01*
X1726758Y694266D01*
X1726664Y694488D01*
X1726565Y694708D01*
X1726461Y694926D01*
X1726352Y695141D01*
X1726237Y695353D01*
X1726117Y695562D01*
X1725992Y695769D01*
X1725863Y695972D01*
X1725728Y696172D01*
X1725589Y696369D01*
X1725444Y696563D01*
X1725296Y696753D01*
X1725142Y696939D01*
X1724985Y697121D01*
X1724823Y697300D01*
X1724656Y697475D01*
X1724486Y697645D01*
X1724311Y697812D01*
X1724132Y697974D01*
X1723950Y698131D01*
X1723764Y698285D01*
X1723574Y698433D01*
X1723380Y698578D01*
X1723183Y698717D01*
X1722983Y698852D01*
X1722780Y698981D01*
X1722573Y699106D01*
X1722364Y699226D01*
X1722152Y699341D01*
X1721937Y699450D01*
X1721719Y699554D01*
X1721499Y699653D01*
X1721277Y699747D01*
X1721053Y699835D01*
X1720826Y699918D01*
X1720598Y699995D01*
X1720367Y700067D01*
X1720135Y700133D01*
X1719902Y700194D01*
X1719667Y700249D01*
X1719431Y700298D01*
X1719194Y700342D01*
X1718955Y700379D01*
X1718716Y700411D01*
X1718476Y700437D01*
X1718236Y700458D01*
X1717995Y700472D01*
X1717754Y700481D01*
X1717513Y700484D01*
X1715018Y700484D01*
X1715018Y700485D02*
X1714714Y700481D01*
X1714410Y700470D01*
X1714107Y700452D01*
X1713804Y700426D01*
X1713502Y700393D01*
X1713201Y700352D01*
X1712901Y700304D01*
X1712602Y700249D01*
X1712305Y700186D01*
X1712009Y700117D01*
X1711715Y700040D01*
X1711423Y699956D01*
X1711133Y699865D01*
X1710846Y699767D01*
X1710560Y699662D01*
X1710278Y699550D01*
X1709998Y699431D01*
X1709722Y699305D01*
X1709448Y699173D01*
X1709178Y699034D01*
X1708911Y698888D01*
X1708648Y698736D01*
X1708388Y698578D01*
X1708133Y698414D01*
X1707882Y698243D01*
X1707635Y698066D01*
X1707392Y697883D01*
X1707154Y697695D01*
X1706920Y697500D01*
X1706691Y697300D01*
X1706467Y697095D01*
X1706249Y696884D01*
X1706035Y696668D01*
X1705827Y696446D01*
X1705624Y696220D01*
X1705427Y695989D01*
X1705235Y695753D01*
X1705050Y695512D01*
X1704870Y695267D01*
X1704696Y695018D01*
X1704528Y694765D01*
X1704367Y694507D01*
X1704212Y694246D01*
X1704063Y693981D01*
X1703921Y693712D01*
X1703785Y693441D01*
X1703656Y693165D01*
X1703534Y692887D01*
X1703418Y692606D01*
X1703310Y692322D01*
X1703208Y692036D01*
X1703114Y691747D01*
X1703026Y691456D01*
X1702946Y691163D01*
X1702872Y690868D01*
X1702806Y690572D01*
X1702748Y690273D01*
X1702696Y689974D01*
X1702652Y689673D01*
X1702615Y689372D01*
X1702585Y689069D01*
X1702563Y688766D01*
X1702548Y688463D01*
X1702541Y688159D01*
X1702541Y687855D01*
X1702548Y687551D01*
X1702563Y687248D01*
X1702585Y686945D01*
X1702615Y686642D01*
X1702652Y686341D01*
X1702696Y686040D01*
X1702748Y685741D01*
X1702806Y685442D01*
X1702872Y685146D01*
X1702946Y684851D01*
X1703026Y684558D01*
X1703114Y684267D01*
X1703208Y683978D01*
X1703310Y683692D01*
X1703418Y683408D01*
X1703534Y683127D01*
X1703656Y682849D01*
X1703785Y682573D01*
X1703921Y682302D01*
X1704063Y682033D01*
X1704212Y681768D01*
X1704367Y681507D01*
X1704528Y681249D01*
X1704696Y680996D01*
X1704870Y680747D01*
X1705050Y680502D01*
X1705235Y680261D01*
X1705427Y680025D01*
X1705624Y679794D01*
X1705827Y679568D01*
X1706035Y679346D01*
X1706249Y679130D01*
X1706467Y678919D01*
X1706691Y678714D01*
X1706920Y678514D01*
X1707154Y678319D01*
X1707392Y678131D01*
X1707635Y677948D01*
X1707882Y677771D01*
X1708133Y677600D01*
X1708388Y677436D01*
X1708648Y677278D01*
X1708911Y677126D01*
X1709178Y676980D01*
X1709448Y676841D01*
X1709722Y676709D01*
X1709998Y676583D01*
X1710278Y676464D01*
X1710560Y676352D01*
X1710846Y676247D01*
X1711133Y676149D01*
X1711423Y676058D01*
X1711715Y675974D01*
X1712009Y675897D01*
X1712305Y675828D01*
X1712602Y675765D01*
X1712901Y675710D01*
X1713201Y675662D01*
X1713502Y675621D01*
X1713804Y675588D01*
X1714107Y675562D01*
X1714410Y675544D01*
X1714714Y675533D01*
X1715018Y675529D01*
X1727495Y675529D01*
X1727985Y675535D01*
X1728475Y675553D01*
X1728964Y675583D01*
X1729452Y675625D01*
X1729939Y675679D01*
X1730424Y675745D01*
X1730908Y675823D01*
X1731390Y675913D01*
X1731869Y676014D01*
X1732346Y676127D01*
X1732820Y676252D01*
X1733290Y676389D01*
X1733758Y676537D01*
X1734221Y676696D01*
X1734680Y676867D01*
X1735135Y677049D01*
X1735586Y677242D01*
X1736031Y677446D01*
X1736471Y677661D01*
X1736906Y677886D01*
X1737336Y678123D01*
X1737759Y678369D01*
X1738176Y678626D01*
X1738587Y678894D01*
X1738991Y679171D01*
X1739388Y679458D01*
X1739778Y679755D01*
X1740161Y680061D01*
X1740535Y680376D01*
X1740903Y680701D01*
X1741262Y681034D01*
X1741612Y681377D01*
X1741954Y681727D01*
X1742288Y682086D01*
X1742613Y682453D01*
X1742928Y682828D01*
X1743234Y683211D01*
X1743531Y683601D01*
X1743818Y683998D01*
X1744095Y684402D01*
X1744362Y684813D01*
X1744619Y685230D01*
X1744866Y685653D01*
X1745102Y686082D01*
X1745328Y686517D01*
X1745543Y686958D01*
X1745747Y687403D01*
X1745940Y687854D01*
X1746122Y688308D01*
X1746293Y688768D01*
X1746452Y689231D01*
X1746600Y689698D01*
X1746737Y690169D01*
X1746862Y690643D01*
X1746975Y691119D01*
X1747076Y691599D01*
X1747166Y692080D01*
X1747244Y692564D01*
X1747310Y693050D01*
X1747364Y693537D01*
X1747406Y694025D01*
X1747436Y694514D01*
X1747454Y695004D01*
X1747460Y695494D01*
X1741221Y724272D02*
X1740422Y723894D01*
X1739614Y723536D01*
X1738798Y723197D01*
X1737974Y722877D01*
X1737143Y722577D01*
X1736305Y722297D01*
X1735460Y722038D01*
X1734610Y721798D01*
X1733754Y721579D01*
X1732893Y721380D01*
X1732027Y721202D01*
X1731157Y721045D01*
X1730284Y720908D01*
X1729408Y720792D01*
X1728530Y720698D01*
X1727649Y720624D01*
X1726767Y720571D01*
X1725884Y720540D01*
X1725000Y720529D01*
X1741221Y724272D02*
X1741433Y724347D01*
X1741642Y724428D01*
X1741850Y724514D01*
X1742056Y724604D01*
X1742259Y724700D01*
X1742460Y724800D01*
X1742658Y724906D01*
X1742854Y725016D01*
X1743047Y725131D01*
X1743237Y725250D01*
X1743424Y725374D01*
X1743608Y725503D01*
X1743789Y725636D01*
X1743966Y725774D01*
X1744141Y725915D01*
X1744311Y726061D01*
X1744478Y726211D01*
X1744642Y726365D01*
X1744801Y726523D01*
X1744957Y726685D01*
X1745109Y726851D01*
X1745257Y727020D01*
X1745400Y727193D01*
X1745539Y727369D01*
X1745674Y727548D01*
X1745805Y727731D01*
X1745931Y727917D01*
X1746052Y728106D01*
X1746169Y728298D01*
X1746281Y728492D01*
X1746389Y728689D01*
X1746491Y728889D01*
X1746589Y729091D01*
X1746682Y729296D01*
X1746770Y729503D01*
X1746852Y729711D01*
X1746930Y729922D01*
X1747002Y730135D01*
X1747069Y730349D01*
X1747131Y730565D01*
X1747188Y730782D01*
X1747240Y731001D01*
X1747286Y731221D01*
X1747326Y731441D01*
X1747362Y731663D01*
X1747392Y731886D01*
X1747416Y732109D01*
X1747435Y732333D01*
X1747449Y732557D01*
X1747457Y732781D01*
X1747460Y733006D01*
X1747457Y733231D01*
X1747449Y733455D01*
X1747435Y733679D01*
X1747416Y733903D01*
X1747392Y734126D01*
X1747362Y734349D01*
X1747326Y734571D01*
X1747286Y734792D01*
X1747240Y735011D01*
X1747188Y735230D01*
X1747131Y735447D01*
X1747069Y735663D01*
X1747002Y735877D01*
X1746930Y736090D01*
X1746852Y736301D01*
X1746769Y736510D01*
X1746682Y736716D01*
X1746589Y736921D01*
X1746491Y737123D01*
X1746389Y737323D01*
X1746281Y737520D01*
X1746169Y737715D01*
X1746052Y737907D01*
X1745931Y738096D01*
X1745805Y738281D01*
X1745674Y738464D01*
X1745539Y738644D01*
X1745400Y738820D01*
X1745256Y738993D01*
X1745109Y739162D01*
X1744957Y739327D01*
X1744801Y739489D01*
X1744642Y739647D01*
X1744478Y739801D01*
X1744311Y739951D01*
X1744140Y740097D01*
X1743966Y740239D01*
X1743789Y740377D01*
X1743608Y740510D01*
X1743424Y740638D01*
X1743236Y740762D01*
X1743046Y740882D01*
X1742853Y740997D01*
X1742658Y741107D01*
X1742459Y741213D01*
X1742258Y741313D01*
X1742055Y741409D01*
X1741850Y741499D01*
X1741642Y741585D01*
X1741432Y741665D01*
X1741221Y741741D01*
X1740422Y742119D01*
X1739614Y742477D01*
X1738798Y742816D01*
X1737974Y743136D01*
X1737143Y743436D01*
X1736305Y743716D01*
X1735460Y743975D01*
X1734610Y744215D01*
X1733754Y744434D01*
X1732893Y744633D01*
X1732027Y744811D01*
X1731157Y744968D01*
X1730284Y745105D01*
X1729408Y745221D01*
X1728530Y745315D01*
X1727649Y745389D01*
X1726767Y745442D01*
X1725884Y745473D01*
X1725000Y745484D01*
X1725000Y720529D02*
X1724116Y720540D01*
X1723233Y720571D01*
X1722351Y720624D01*
X1721470Y720698D01*
X1720592Y720792D01*
X1719716Y720908D01*
X1718843Y721045D01*
X1717973Y721202D01*
X1717107Y721380D01*
X1716246Y721579D01*
X1715390Y721798D01*
X1714540Y722038D01*
X1713695Y722297D01*
X1712857Y722577D01*
X1712025Y722877D01*
X1711201Y723197D01*
X1710385Y723536D01*
X1709578Y723894D01*
X1708779Y724272D01*
X1708778Y724272D02*
X1708567Y724348D01*
X1708357Y724428D01*
X1708150Y724514D01*
X1707944Y724604D01*
X1707741Y724700D01*
X1707540Y724800D01*
X1707342Y724906D01*
X1707146Y725016D01*
X1706953Y725131D01*
X1706763Y725250D01*
X1706576Y725375D01*
X1706392Y725503D01*
X1706211Y725636D01*
X1706033Y725774D01*
X1705859Y725915D01*
X1705689Y726061D01*
X1705521Y726211D01*
X1705358Y726365D01*
X1705198Y726523D01*
X1705043Y726685D01*
X1704891Y726851D01*
X1704743Y727020D01*
X1704600Y727193D01*
X1704461Y727369D01*
X1704326Y727548D01*
X1704195Y727731D01*
X1704069Y727917D01*
X1703948Y728106D01*
X1703831Y728298D01*
X1703719Y728492D01*
X1703611Y728690D01*
X1703509Y728889D01*
X1703411Y729092D01*
X1703318Y729296D01*
X1703230Y729503D01*
X1703148Y729712D01*
X1703070Y729922D01*
X1702998Y730135D01*
X1702931Y730349D01*
X1702869Y730565D01*
X1702812Y730782D01*
X1702760Y731001D01*
X1702714Y731221D01*
X1702674Y731442D01*
X1702638Y731663D01*
X1702608Y731886D01*
X1702584Y732109D01*
X1702565Y732333D01*
X1702551Y732557D01*
X1702543Y732781D01*
X1702540Y733006D01*
X1708779Y741741D02*
X1709578Y742119D01*
X1710385Y742477D01*
X1711201Y742816D01*
X1712025Y743136D01*
X1712857Y743436D01*
X1713695Y743716D01*
X1714540Y743975D01*
X1715390Y744215D01*
X1716246Y744434D01*
X1717107Y744633D01*
X1717973Y744811D01*
X1718843Y744968D01*
X1719716Y745105D01*
X1720592Y745221D01*
X1721470Y745315D01*
X1722351Y745389D01*
X1723233Y745442D01*
X1724116Y745473D01*
X1725000Y745484D01*
X1708779Y741741D02*
X1708567Y741665D01*
X1708358Y741585D01*
X1708150Y741499D01*
X1707945Y741409D01*
X1707741Y741313D01*
X1707541Y741212D01*
X1707342Y741107D01*
X1707147Y740997D01*
X1706954Y740882D01*
X1706763Y740762D01*
X1706576Y740638D01*
X1706392Y740510D01*
X1706211Y740376D01*
X1706034Y740239D01*
X1705859Y740097D01*
X1705689Y739951D01*
X1705522Y739801D01*
X1705358Y739647D01*
X1705199Y739489D01*
X1705043Y739327D01*
X1704891Y739162D01*
X1704743Y738993D01*
X1704600Y738820D01*
X1704461Y738644D01*
X1704326Y738464D01*
X1704195Y738281D01*
X1704069Y738095D01*
X1703948Y737907D01*
X1703831Y737715D01*
X1703719Y737520D01*
X1703611Y737323D01*
X1703509Y737123D01*
X1703411Y736921D01*
X1703318Y736716D01*
X1703230Y736510D01*
X1703148Y736301D01*
X1703070Y736090D01*
X1702998Y735877D01*
X1702931Y735663D01*
X1702869Y735447D01*
X1702812Y735230D01*
X1702760Y735011D01*
X1702714Y734791D01*
X1702674Y734571D01*
X1702638Y734349D01*
X1702608Y734126D01*
X1702584Y733903D01*
X1702565Y733679D01*
X1702551Y733455D01*
X1702543Y733231D01*
X1702540Y733006D01*
X1712522Y723024D02*
X1737478Y742989D01*
X1747460Y779254D02*
X1747457Y779525D01*
X1747447Y779797D01*
X1747431Y780067D01*
X1747408Y780338D01*
X1747378Y780608D01*
X1747342Y780877D01*
X1747300Y781145D01*
X1747251Y781412D01*
X1747195Y781677D01*
X1747134Y781942D01*
X1747066Y782204D01*
X1746991Y782465D01*
X1746910Y782724D01*
X1746823Y782981D01*
X1746730Y783236D01*
X1746631Y783489D01*
X1746526Y783739D01*
X1746414Y783986D01*
X1746297Y784231D01*
X1746174Y784473D01*
X1746045Y784712D01*
X1745910Y784947D01*
X1745770Y785179D01*
X1745624Y785408D01*
X1745472Y785633D01*
X1745315Y785855D01*
X1745153Y786072D01*
X1744986Y786286D01*
X1744813Y786496D01*
X1744636Y786701D01*
X1744453Y786902D01*
X1744266Y787098D01*
X1744074Y787290D01*
X1743878Y787477D01*
X1743677Y787660D01*
X1743472Y787837D01*
X1743262Y788010D01*
X1743048Y788177D01*
X1742831Y788339D01*
X1742609Y788496D01*
X1742384Y788648D01*
X1742155Y788794D01*
X1741923Y788934D01*
X1741688Y789069D01*
X1741449Y789198D01*
X1741207Y789321D01*
X1740962Y789438D01*
X1740715Y789550D01*
X1740465Y789655D01*
X1740212Y789754D01*
X1739957Y789847D01*
X1739700Y789934D01*
X1739441Y790015D01*
X1739180Y790090D01*
X1738918Y790158D01*
X1738653Y790219D01*
X1738388Y790275D01*
X1738121Y790324D01*
X1737853Y790366D01*
X1737584Y790402D01*
X1737314Y790432D01*
X1737043Y790455D01*
X1736773Y790471D01*
X1736501Y790481D01*
X1736230Y790484D01*
X1747460Y779254D02*
X1747456Y778905D01*
X1747443Y778556D01*
X1747422Y778208D01*
X1747393Y777861D01*
X1747355Y777514D01*
X1747308Y777168D01*
X1747254Y776823D01*
X1747191Y776480D01*
X1747120Y776138D01*
X1747040Y775799D01*
X1746952Y775461D01*
X1746857Y775126D01*
X1746753Y774792D01*
X1746641Y774462D01*
X1746521Y774134D01*
X1746393Y773810D01*
X1746258Y773488D01*
X1746114Y773170D01*
X1745963Y772855D01*
X1745805Y772545D01*
X1745639Y772238D01*
X1745466Y771935D01*
X1745285Y771636D01*
X1745097Y771342D01*
X1744902Y771053D01*
X1744701Y770768D01*
X1744492Y770489D01*
X1744277Y770214D01*
X1744055Y769945D01*
X1743826Y769681D01*
X1743592Y769423D01*
X1743351Y769170D01*
X1743104Y768924D01*
X1742851Y768683D01*
X1742593Y768449D01*
X1742329Y768221D01*
X1742059Y767999D01*
X1741784Y767784D01*
X1741504Y767576D01*
X1741219Y767375D01*
X1740930Y767180D01*
X1740636Y766993D01*
X1740337Y766812D01*
X1740034Y766639D01*
X1739727Y766474D01*
X1739416Y766316D01*
X1739101Y766165D01*
X1738783Y766022D01*
X1738461Y765887D01*
X1738136Y765760D01*
X1737808Y765640D01*
X1737478Y765529D01*
X1727495Y786741D02*
X1727702Y786953D01*
X1727914Y787159D01*
X1728131Y787361D01*
X1728353Y787557D01*
X1728579Y787747D01*
X1728810Y787932D01*
X1729046Y788111D01*
X1729286Y788285D01*
X1729530Y788452D01*
X1729778Y788614D01*
X1730030Y788769D01*
X1730286Y788918D01*
X1730545Y789060D01*
X1730808Y789197D01*
X1731074Y789326D01*
X1731343Y789450D01*
X1731615Y789566D01*
X1731890Y789676D01*
X1732167Y789779D01*
X1732447Y789876D01*
X1732729Y789965D01*
X1733014Y790047D01*
X1733300Y790123D01*
X1733588Y790191D01*
X1733877Y790252D01*
X1734168Y790307D01*
X1734460Y790354D01*
X1734754Y790393D01*
X1735048Y790426D01*
X1735343Y790451D01*
X1735638Y790469D01*
X1735934Y790480D01*
X1736230Y790484D01*
X1727495Y786741D02*
X1702540Y765528D01*
X1702540Y790484D01*
X1759813Y1052540D02*
X1759813Y1097460D01*
X1747335Y1097460D01*
X1747031Y1097456D01*
X1746727Y1097445D01*
X1746424Y1097427D01*
X1746121Y1097401D01*
X1745819Y1097368D01*
X1745518Y1097327D01*
X1745218Y1097279D01*
X1744919Y1097224D01*
X1744622Y1097161D01*
X1744326Y1097092D01*
X1744032Y1097015D01*
X1743740Y1096931D01*
X1743450Y1096840D01*
X1743163Y1096742D01*
X1742877Y1096637D01*
X1742595Y1096525D01*
X1742315Y1096406D01*
X1742039Y1096280D01*
X1741765Y1096148D01*
X1741495Y1096009D01*
X1741228Y1095863D01*
X1740965Y1095711D01*
X1740705Y1095553D01*
X1740450Y1095389D01*
X1740199Y1095218D01*
X1739952Y1095041D01*
X1739709Y1094858D01*
X1739471Y1094670D01*
X1739237Y1094475D01*
X1739008Y1094275D01*
X1738784Y1094070D01*
X1738566Y1093859D01*
X1738352Y1093643D01*
X1738144Y1093421D01*
X1737941Y1093195D01*
X1737744Y1092964D01*
X1737552Y1092728D01*
X1737367Y1092487D01*
X1737187Y1092242D01*
X1737013Y1091993D01*
X1736845Y1091740D01*
X1736684Y1091482D01*
X1736529Y1091221D01*
X1736380Y1090956D01*
X1736238Y1090687D01*
X1736102Y1090416D01*
X1735973Y1090140D01*
X1735851Y1089862D01*
X1735735Y1089581D01*
X1735627Y1089297D01*
X1735525Y1089011D01*
X1735431Y1088722D01*
X1735343Y1088431D01*
X1735263Y1088138D01*
X1735189Y1087843D01*
X1735123Y1087547D01*
X1735065Y1087248D01*
X1735013Y1086949D01*
X1734969Y1086648D01*
X1734932Y1086347D01*
X1734902Y1086044D01*
X1734880Y1085741D01*
X1734865Y1085438D01*
X1734858Y1085134D01*
X1734858Y1084830D01*
X1734865Y1084526D01*
X1734880Y1084223D01*
X1734902Y1083920D01*
X1734932Y1083617D01*
X1734969Y1083316D01*
X1735013Y1083015D01*
X1735065Y1082716D01*
X1735123Y1082417D01*
X1735189Y1082121D01*
X1735263Y1081826D01*
X1735343Y1081533D01*
X1735431Y1081242D01*
X1735525Y1080953D01*
X1735627Y1080667D01*
X1735735Y1080383D01*
X1735851Y1080102D01*
X1735973Y1079824D01*
X1736102Y1079548D01*
X1736238Y1079277D01*
X1736380Y1079008D01*
X1736529Y1078743D01*
X1736684Y1078482D01*
X1736845Y1078224D01*
X1737013Y1077971D01*
X1737187Y1077722D01*
X1737367Y1077477D01*
X1737552Y1077236D01*
X1737744Y1077000D01*
X1737941Y1076769D01*
X1738144Y1076543D01*
X1738352Y1076321D01*
X1738566Y1076105D01*
X1738784Y1075894D01*
X1739008Y1075689D01*
X1739237Y1075489D01*
X1739471Y1075294D01*
X1739709Y1075106D01*
X1739952Y1074923D01*
X1740199Y1074746D01*
X1740450Y1074575D01*
X1740705Y1074411D01*
X1740965Y1074253D01*
X1741228Y1074101D01*
X1741495Y1073955D01*
X1741765Y1073816D01*
X1742039Y1073684D01*
X1742315Y1073558D01*
X1742595Y1073439D01*
X1742877Y1073327D01*
X1743163Y1073222D01*
X1743450Y1073124D01*
X1743740Y1073033D01*
X1744032Y1072949D01*
X1744326Y1072872D01*
X1744622Y1072803D01*
X1744919Y1072740D01*
X1745218Y1072685D01*
X1745518Y1072637D01*
X1745819Y1072596D01*
X1746121Y1072563D01*
X1746424Y1072537D01*
X1746727Y1072519D01*
X1747031Y1072508D01*
X1747335Y1072504D01*
X1759813Y1072504D01*
X1744840Y1072504D02*
X1734858Y1052540D01*
X1715142Y1087478D02*
X1702665Y1097460D01*
X1702665Y1052540D01*
X1715142Y1052540D02*
X1690187Y1052540D01*
X1095813Y2517540D02*
X1095813Y2562460D01*
X1083335Y2562460D01*
X1083031Y2562456D01*
X1082727Y2562445D01*
X1082424Y2562427D01*
X1082121Y2562401D01*
X1081819Y2562368D01*
X1081518Y2562327D01*
X1081218Y2562279D01*
X1080919Y2562224D01*
X1080622Y2562161D01*
X1080326Y2562092D01*
X1080032Y2562015D01*
X1079740Y2561931D01*
X1079450Y2561840D01*
X1079163Y2561742D01*
X1078877Y2561637D01*
X1078595Y2561525D01*
X1078315Y2561406D01*
X1078039Y2561280D01*
X1077765Y2561148D01*
X1077495Y2561009D01*
X1077228Y2560863D01*
X1076965Y2560711D01*
X1076705Y2560553D01*
X1076450Y2560389D01*
X1076199Y2560218D01*
X1075952Y2560041D01*
X1075709Y2559858D01*
X1075471Y2559670D01*
X1075237Y2559475D01*
X1075008Y2559275D01*
X1074784Y2559070D01*
X1074566Y2558859D01*
X1074352Y2558643D01*
X1074144Y2558421D01*
X1073941Y2558195D01*
X1073744Y2557964D01*
X1073552Y2557728D01*
X1073367Y2557487D01*
X1073187Y2557242D01*
X1073013Y2556993D01*
X1072845Y2556740D01*
X1072684Y2556482D01*
X1072529Y2556221D01*
X1072380Y2555956D01*
X1072238Y2555687D01*
X1072102Y2555416D01*
X1071973Y2555140D01*
X1071851Y2554862D01*
X1071735Y2554581D01*
X1071627Y2554297D01*
X1071525Y2554011D01*
X1071431Y2553722D01*
X1071343Y2553431D01*
X1071263Y2553138D01*
X1071189Y2552843D01*
X1071123Y2552547D01*
X1071065Y2552248D01*
X1071013Y2551949D01*
X1070969Y2551648D01*
X1070932Y2551347D01*
X1070902Y2551044D01*
X1070880Y2550741D01*
X1070865Y2550438D01*
X1070858Y2550134D01*
X1070858Y2549830D01*
X1070865Y2549526D01*
X1070880Y2549223D01*
X1070902Y2548920D01*
X1070932Y2548617D01*
X1070969Y2548316D01*
X1071013Y2548015D01*
X1071065Y2547716D01*
X1071123Y2547417D01*
X1071189Y2547121D01*
X1071263Y2546826D01*
X1071343Y2546533D01*
X1071431Y2546242D01*
X1071525Y2545953D01*
X1071627Y2545667D01*
X1071735Y2545383D01*
X1071851Y2545102D01*
X1071973Y2544824D01*
X1072102Y2544548D01*
X1072238Y2544277D01*
X1072380Y2544008D01*
X1072529Y2543743D01*
X1072684Y2543482D01*
X1072845Y2543224D01*
X1073013Y2542971D01*
X1073187Y2542722D01*
X1073367Y2542477D01*
X1073552Y2542236D01*
X1073744Y2542000D01*
X1073941Y2541769D01*
X1074144Y2541543D01*
X1074352Y2541321D01*
X1074566Y2541105D01*
X1074784Y2540894D01*
X1075008Y2540689D01*
X1075237Y2540489D01*
X1075471Y2540294D01*
X1075709Y2540106D01*
X1075952Y2539923D01*
X1076199Y2539746D01*
X1076450Y2539575D01*
X1076705Y2539411D01*
X1076965Y2539253D01*
X1077228Y2539101D01*
X1077495Y2538955D01*
X1077765Y2538816D01*
X1078039Y2538684D01*
X1078315Y2538558D01*
X1078595Y2538439D01*
X1078877Y2538327D01*
X1079163Y2538222D01*
X1079450Y2538124D01*
X1079740Y2538033D01*
X1080032Y2537949D01*
X1080326Y2537872D01*
X1080622Y2537803D01*
X1080919Y2537740D01*
X1081218Y2537685D01*
X1081518Y2537637D01*
X1081819Y2537596D01*
X1082121Y2537563D01*
X1082424Y2537537D01*
X1082727Y2537519D01*
X1083031Y2537508D01*
X1083335Y2537504D01*
X1095813Y2537504D01*
X1080840Y2537504D02*
X1070858Y2517540D01*
X1051142Y2527522D02*
X1041160Y2562460D01*
X1051142Y2527522D02*
X1026187Y2527522D01*
X1033673Y2537504D02*
X1033673Y2517540D01*
X1006143Y2540000D02*
X1006132Y2540884D01*
X1006101Y2541767D01*
X1006048Y2542649D01*
X1005974Y2543530D01*
X1005880Y2544408D01*
X1005764Y2545284D01*
X1005627Y2546157D01*
X1005470Y2547027D01*
X1005292Y2547893D01*
X1005093Y2548754D01*
X1004874Y2549610D01*
X1004634Y2550460D01*
X1004375Y2551305D01*
X1004095Y2552143D01*
X1003795Y2552974D01*
X1003475Y2553798D01*
X1003136Y2554614D01*
X1002778Y2555422D01*
X1002400Y2556221D01*
X1002399Y2556221D02*
X1002324Y2556433D01*
X1002243Y2556642D01*
X1002157Y2556850D01*
X1002067Y2557056D01*
X1001971Y2557259D01*
X1001871Y2557460D01*
X1001765Y2557658D01*
X1001655Y2557854D01*
X1001540Y2558047D01*
X1001421Y2558237D01*
X1001297Y2558424D01*
X1001168Y2558608D01*
X1001035Y2558789D01*
X1000897Y2558966D01*
X1000756Y2559141D01*
X1000610Y2559311D01*
X1000460Y2559478D01*
X1000306Y2559642D01*
X1000148Y2559801D01*
X999986Y2559957D01*
X999820Y2560109D01*
X999651Y2560257D01*
X999478Y2560400D01*
X999302Y2560539D01*
X999123Y2560674D01*
X998940Y2560805D01*
X998754Y2560931D01*
X998565Y2561052D01*
X998373Y2561169D01*
X998179Y2561281D01*
X997982Y2561389D01*
X997782Y2561491D01*
X997580Y2561589D01*
X997375Y2561682D01*
X997168Y2561770D01*
X996960Y2561852D01*
X996749Y2561930D01*
X996536Y2562002D01*
X996322Y2562069D01*
X996106Y2562131D01*
X995889Y2562188D01*
X995670Y2562240D01*
X995450Y2562286D01*
X995230Y2562326D01*
X995008Y2562362D01*
X994785Y2562392D01*
X994562Y2562416D01*
X994338Y2562435D01*
X994114Y2562449D01*
X993890Y2562457D01*
X993665Y2562460D01*
X993440Y2562457D01*
X993216Y2562449D01*
X992992Y2562435D01*
X992768Y2562416D01*
X992545Y2562392D01*
X992322Y2562362D01*
X992100Y2562326D01*
X991880Y2562286D01*
X991660Y2562240D01*
X991441Y2562188D01*
X991224Y2562131D01*
X991008Y2562069D01*
X990794Y2562002D01*
X990581Y2561930D01*
X990370Y2561852D01*
X990161Y2561770D01*
X989955Y2561682D01*
X989750Y2561589D01*
X989548Y2561491D01*
X989348Y2561389D01*
X989151Y2561281D01*
X988956Y2561169D01*
X988764Y2561052D01*
X988576Y2560931D01*
X988390Y2560805D01*
X988207Y2560674D01*
X988027Y2560539D01*
X987851Y2560400D01*
X987678Y2560257D01*
X987509Y2560109D01*
X987344Y2559957D01*
X987182Y2559801D01*
X987024Y2559642D01*
X986870Y2559478D01*
X986720Y2559311D01*
X986574Y2559141D01*
X986432Y2558966D01*
X986295Y2558789D01*
X986161Y2558608D01*
X986033Y2558424D01*
X985909Y2558237D01*
X985789Y2558046D01*
X985674Y2557853D01*
X985564Y2557658D01*
X985459Y2557459D01*
X985358Y2557259D01*
X985262Y2557055D01*
X985172Y2556850D01*
X985086Y2556642D01*
X985006Y2556433D01*
X984930Y2556221D01*
X984552Y2555422D01*
X984194Y2554614D01*
X983855Y2553798D01*
X983535Y2552974D01*
X983235Y2552143D01*
X982955Y2551305D01*
X982696Y2550460D01*
X982456Y2549610D01*
X982237Y2548754D01*
X982038Y2547893D01*
X981860Y2547027D01*
X981703Y2546157D01*
X981566Y2545284D01*
X981450Y2544408D01*
X981356Y2543530D01*
X981282Y2542649D01*
X981229Y2541767D01*
X981198Y2540884D01*
X981187Y2540000D01*
X1006143Y2540000D02*
X1006132Y2539116D01*
X1006101Y2538233D01*
X1006048Y2537351D01*
X1005974Y2536470D01*
X1005880Y2535592D01*
X1005764Y2534716D01*
X1005627Y2533843D01*
X1005470Y2532973D01*
X1005292Y2532107D01*
X1005093Y2531246D01*
X1004874Y2530390D01*
X1004634Y2529540D01*
X1004375Y2528695D01*
X1004095Y2527857D01*
X1003795Y2527025D01*
X1003475Y2526201D01*
X1003136Y2525385D01*
X1002778Y2524578D01*
X1002400Y2523779D01*
X1002399Y2523778D02*
X1002323Y2523567D01*
X1002243Y2523357D01*
X1002157Y2523150D01*
X1002067Y2522944D01*
X1001971Y2522741D01*
X1001871Y2522540D01*
X1001765Y2522342D01*
X1001655Y2522146D01*
X1001540Y2521953D01*
X1001421Y2521763D01*
X1001296Y2521576D01*
X1001168Y2521392D01*
X1001035Y2521211D01*
X1000897Y2521033D01*
X1000756Y2520859D01*
X1000610Y2520689D01*
X1000460Y2520521D01*
X1000306Y2520358D01*
X1000148Y2520198D01*
X999986Y2520043D01*
X999820Y2519891D01*
X999651Y2519743D01*
X999478Y2519600D01*
X999302Y2519461D01*
X999123Y2519326D01*
X998940Y2519195D01*
X998754Y2519069D01*
X998565Y2518948D01*
X998373Y2518831D01*
X998179Y2518719D01*
X997981Y2518611D01*
X997782Y2518509D01*
X997579Y2518411D01*
X997375Y2518318D01*
X997168Y2518230D01*
X996959Y2518148D01*
X996749Y2518070D01*
X996536Y2517998D01*
X996322Y2517931D01*
X996106Y2517869D01*
X995889Y2517812D01*
X995670Y2517760D01*
X995450Y2517714D01*
X995229Y2517674D01*
X995008Y2517638D01*
X994785Y2517608D01*
X994562Y2517584D01*
X994338Y2517565D01*
X994114Y2517551D01*
X993890Y2517543D01*
X993665Y2517540D01*
X984930Y2523779D02*
X984552Y2524578D01*
X984194Y2525385D01*
X983855Y2526201D01*
X983535Y2527025D01*
X983235Y2527857D01*
X982955Y2528695D01*
X982696Y2529540D01*
X982456Y2530390D01*
X982237Y2531246D01*
X982038Y2532107D01*
X981860Y2532973D01*
X981703Y2533843D01*
X981566Y2534716D01*
X981450Y2535592D01*
X981356Y2536470D01*
X981282Y2537351D01*
X981229Y2538233D01*
X981198Y2539116D01*
X981187Y2540000D01*
X984930Y2523779D02*
X985006Y2523567D01*
X985086Y2523357D01*
X985172Y2523150D01*
X985263Y2522944D01*
X985358Y2522741D01*
X985459Y2522540D01*
X985564Y2522342D01*
X985674Y2522146D01*
X985789Y2521953D01*
X985909Y2521763D01*
X986033Y2521576D01*
X986162Y2521392D01*
X986295Y2521211D01*
X986432Y2521034D01*
X986574Y2520859D01*
X986720Y2520689D01*
X986870Y2520522D01*
X987024Y2520358D01*
X987182Y2520198D01*
X987344Y2520043D01*
X987509Y2519891D01*
X987679Y2519743D01*
X987851Y2519600D01*
X988028Y2519461D01*
X988207Y2519326D01*
X988390Y2519195D01*
X988576Y2519069D01*
X988765Y2518948D01*
X988956Y2518831D01*
X989151Y2518719D01*
X989348Y2518611D01*
X989548Y2518509D01*
X989750Y2518411D01*
X989955Y2518318D01*
X990162Y2518230D01*
X990370Y2518148D01*
X990581Y2518070D01*
X990794Y2517998D01*
X991008Y2517931D01*
X991224Y2517869D01*
X991441Y2517812D01*
X991660Y2517760D01*
X991880Y2517714D01*
X992100Y2517674D01*
X992322Y2517638D01*
X992545Y2517608D01*
X992768Y2517584D01*
X992992Y2517565D01*
X993216Y2517551D01*
X993440Y2517543D01*
X993665Y2517540D01*
X1003647Y2527522D02*
X983683Y2552478D01*
X961143Y2517540D02*
X946170Y2517540D01*
X945929Y2517543D01*
X945688Y2517552D01*
X945447Y2517566D01*
X945207Y2517587D01*
X944967Y2517613D01*
X944728Y2517645D01*
X944489Y2517682D01*
X944252Y2517726D01*
X944016Y2517775D01*
X943781Y2517830D01*
X943548Y2517891D01*
X943316Y2517957D01*
X943085Y2518029D01*
X942857Y2518106D01*
X942630Y2518189D01*
X942406Y2518277D01*
X942184Y2518371D01*
X941964Y2518470D01*
X941746Y2518574D01*
X941531Y2518683D01*
X941319Y2518798D01*
X941110Y2518918D01*
X940903Y2519043D01*
X940700Y2519172D01*
X940500Y2519307D01*
X940303Y2519446D01*
X940109Y2519591D01*
X939919Y2519739D01*
X939733Y2519893D01*
X939551Y2520050D01*
X939372Y2520212D01*
X939197Y2520379D01*
X939027Y2520549D01*
X938860Y2520724D01*
X938698Y2520903D01*
X938541Y2521085D01*
X938387Y2521271D01*
X938239Y2521461D01*
X938094Y2521655D01*
X937955Y2521852D01*
X937820Y2522052D01*
X937691Y2522255D01*
X937566Y2522462D01*
X937446Y2522671D01*
X937331Y2522883D01*
X937222Y2523098D01*
X937118Y2523316D01*
X937019Y2523536D01*
X936925Y2523758D01*
X936837Y2523982D01*
X936754Y2524209D01*
X936677Y2524437D01*
X936605Y2524668D01*
X936539Y2524900D01*
X936478Y2525133D01*
X936423Y2525368D01*
X936374Y2525604D01*
X936330Y2525841D01*
X936293Y2526080D01*
X936261Y2526319D01*
X936235Y2526559D01*
X936214Y2526799D01*
X936200Y2527040D01*
X936191Y2527281D01*
X936188Y2527522D01*
X936188Y2532513D01*
X936187Y2532513D02*
X936190Y2532754D01*
X936199Y2532995D01*
X936213Y2533236D01*
X936234Y2533476D01*
X936260Y2533716D01*
X936292Y2533955D01*
X936329Y2534194D01*
X936373Y2534431D01*
X936422Y2534667D01*
X936477Y2534902D01*
X936538Y2535135D01*
X936604Y2535367D01*
X936676Y2535598D01*
X936753Y2535826D01*
X936836Y2536053D01*
X936924Y2536277D01*
X937018Y2536500D01*
X937117Y2536720D01*
X937221Y2536937D01*
X937330Y2537152D01*
X937445Y2537364D01*
X937565Y2537574D01*
X937690Y2537780D01*
X937819Y2537983D01*
X937954Y2538184D01*
X938093Y2538380D01*
X938238Y2538574D01*
X938386Y2538764D01*
X938540Y2538950D01*
X938697Y2539132D01*
X938860Y2539311D01*
X939026Y2539486D01*
X939197Y2539656D01*
X939371Y2539823D01*
X939550Y2539985D01*
X939732Y2540143D01*
X939919Y2540296D01*
X940108Y2540445D01*
X940302Y2540589D01*
X940499Y2540728D01*
X940699Y2540863D01*
X940902Y2540992D01*
X941109Y2541117D01*
X941318Y2541237D01*
X941530Y2541352D01*
X941745Y2541461D01*
X941963Y2541566D01*
X942183Y2541665D01*
X942405Y2541758D01*
X942630Y2541846D01*
X942856Y2541929D01*
X943085Y2542007D01*
X943315Y2542078D01*
X943547Y2542144D01*
X943780Y2542205D01*
X944015Y2542260D01*
X944251Y2542309D01*
X944489Y2542353D01*
X944727Y2542390D01*
X944966Y2542422D01*
X945206Y2542448D01*
X945446Y2542469D01*
X945687Y2542483D01*
X945928Y2542492D01*
X946169Y2542495D01*
X946170Y2542495D02*
X961143Y2542495D01*
X961143Y2562460D01*
X936188Y2562460D01*
X2729813Y909460D02*
X2729813Y864540D01*
X2729813Y909460D02*
X2717335Y909460D01*
X2717031Y909456D01*
X2716727Y909445D01*
X2716424Y909427D01*
X2716121Y909401D01*
X2715819Y909368D01*
X2715518Y909327D01*
X2715218Y909279D01*
X2714919Y909224D01*
X2714622Y909161D01*
X2714326Y909092D01*
X2714032Y909015D01*
X2713740Y908931D01*
X2713450Y908840D01*
X2713163Y908742D01*
X2712877Y908637D01*
X2712595Y908525D01*
X2712315Y908406D01*
X2712039Y908280D01*
X2711765Y908148D01*
X2711495Y908009D01*
X2711228Y907863D01*
X2710965Y907711D01*
X2710705Y907553D01*
X2710450Y907389D01*
X2710199Y907218D01*
X2709952Y907041D01*
X2709709Y906858D01*
X2709471Y906670D01*
X2709237Y906475D01*
X2709008Y906275D01*
X2708784Y906070D01*
X2708566Y905859D01*
X2708352Y905643D01*
X2708144Y905421D01*
X2707941Y905195D01*
X2707744Y904964D01*
X2707552Y904728D01*
X2707367Y904487D01*
X2707187Y904242D01*
X2707013Y903993D01*
X2706845Y903740D01*
X2706684Y903482D01*
X2706529Y903221D01*
X2706380Y902956D01*
X2706238Y902687D01*
X2706102Y902416D01*
X2705973Y902140D01*
X2705851Y901862D01*
X2705735Y901581D01*
X2705627Y901297D01*
X2705525Y901011D01*
X2705431Y900722D01*
X2705343Y900431D01*
X2705263Y900138D01*
X2705189Y899843D01*
X2705123Y899547D01*
X2705065Y899248D01*
X2705013Y898949D01*
X2704969Y898648D01*
X2704932Y898347D01*
X2704902Y898044D01*
X2704880Y897741D01*
X2704865Y897438D01*
X2704858Y897134D01*
X2704858Y896830D01*
X2704865Y896526D01*
X2704880Y896223D01*
X2704902Y895920D01*
X2704932Y895617D01*
X2704969Y895316D01*
X2705013Y895015D01*
X2705065Y894716D01*
X2705123Y894417D01*
X2705189Y894121D01*
X2705263Y893826D01*
X2705343Y893533D01*
X2705431Y893242D01*
X2705525Y892953D01*
X2705627Y892667D01*
X2705735Y892383D01*
X2705851Y892102D01*
X2705973Y891824D01*
X2706102Y891548D01*
X2706238Y891277D01*
X2706380Y891008D01*
X2706529Y890743D01*
X2706684Y890482D01*
X2706845Y890224D01*
X2707013Y889971D01*
X2707187Y889722D01*
X2707367Y889477D01*
X2707552Y889236D01*
X2707744Y889000D01*
X2707941Y888769D01*
X2708144Y888543D01*
X2708352Y888321D01*
X2708566Y888105D01*
X2708784Y887894D01*
X2709008Y887689D01*
X2709237Y887489D01*
X2709471Y887294D01*
X2709709Y887106D01*
X2709952Y886923D01*
X2710199Y886746D01*
X2710450Y886575D01*
X2710705Y886411D01*
X2710965Y886253D01*
X2711228Y886101D01*
X2711495Y885955D01*
X2711765Y885816D01*
X2712039Y885684D01*
X2712315Y885558D01*
X2712595Y885439D01*
X2712877Y885327D01*
X2713163Y885222D01*
X2713450Y885124D01*
X2713740Y885033D01*
X2714032Y884949D01*
X2714326Y884872D01*
X2714622Y884803D01*
X2714919Y884740D01*
X2715218Y884685D01*
X2715518Y884637D01*
X2715819Y884596D01*
X2716121Y884563D01*
X2716424Y884537D01*
X2716727Y884519D01*
X2717031Y884508D01*
X2717335Y884504D01*
X2729813Y884504D01*
X2714839Y884504D02*
X2704857Y864540D01*
X2685142Y864540D02*
X2670169Y864540D01*
X2669928Y864543D01*
X2669687Y864552D01*
X2669446Y864566D01*
X2669206Y864587D01*
X2668966Y864613D01*
X2668727Y864645D01*
X2668488Y864682D01*
X2668251Y864726D01*
X2668015Y864775D01*
X2667780Y864830D01*
X2667547Y864891D01*
X2667315Y864957D01*
X2667084Y865029D01*
X2666856Y865106D01*
X2666629Y865189D01*
X2666405Y865277D01*
X2666183Y865371D01*
X2665963Y865470D01*
X2665745Y865574D01*
X2665530Y865683D01*
X2665318Y865798D01*
X2665109Y865918D01*
X2664902Y866043D01*
X2664699Y866172D01*
X2664499Y866307D01*
X2664302Y866446D01*
X2664108Y866591D01*
X2663918Y866739D01*
X2663732Y866893D01*
X2663550Y867050D01*
X2663371Y867212D01*
X2663196Y867379D01*
X2663026Y867549D01*
X2662859Y867724D01*
X2662697Y867903D01*
X2662540Y868085D01*
X2662386Y868271D01*
X2662238Y868461D01*
X2662093Y868655D01*
X2661954Y868852D01*
X2661819Y869052D01*
X2661690Y869255D01*
X2661565Y869462D01*
X2661445Y869671D01*
X2661330Y869883D01*
X2661221Y870098D01*
X2661117Y870316D01*
X2661018Y870536D01*
X2660924Y870758D01*
X2660836Y870982D01*
X2660753Y871209D01*
X2660676Y871437D01*
X2660604Y871668D01*
X2660538Y871900D01*
X2660477Y872133D01*
X2660422Y872368D01*
X2660373Y872604D01*
X2660329Y872841D01*
X2660292Y873080D01*
X2660260Y873319D01*
X2660234Y873559D01*
X2660213Y873799D01*
X2660199Y874040D01*
X2660190Y874281D01*
X2660187Y874522D01*
X2660187Y879513D01*
X2660186Y879513D02*
X2660189Y879754D01*
X2660198Y879995D01*
X2660212Y880236D01*
X2660233Y880476D01*
X2660259Y880716D01*
X2660291Y880955D01*
X2660328Y881194D01*
X2660372Y881431D01*
X2660421Y881667D01*
X2660476Y881902D01*
X2660537Y882135D01*
X2660603Y882367D01*
X2660675Y882598D01*
X2660752Y882826D01*
X2660835Y883053D01*
X2660923Y883277D01*
X2661017Y883500D01*
X2661116Y883720D01*
X2661220Y883937D01*
X2661329Y884152D01*
X2661444Y884364D01*
X2661564Y884574D01*
X2661689Y884780D01*
X2661818Y884983D01*
X2661953Y885184D01*
X2662092Y885380D01*
X2662237Y885574D01*
X2662385Y885764D01*
X2662539Y885950D01*
X2662696Y886132D01*
X2662859Y886311D01*
X2663025Y886486D01*
X2663196Y886656D01*
X2663370Y886823D01*
X2663549Y886985D01*
X2663731Y887143D01*
X2663918Y887296D01*
X2664107Y887445D01*
X2664301Y887589D01*
X2664498Y887728D01*
X2664698Y887863D01*
X2664901Y887992D01*
X2665108Y888117D01*
X2665317Y888237D01*
X2665529Y888352D01*
X2665744Y888461D01*
X2665962Y888566D01*
X2666182Y888665D01*
X2666404Y888758D01*
X2666629Y888846D01*
X2666855Y888929D01*
X2667084Y889007D01*
X2667314Y889078D01*
X2667546Y889144D01*
X2667779Y889205D01*
X2668014Y889260D01*
X2668250Y889309D01*
X2668488Y889353D01*
X2668726Y889390D01*
X2668965Y889422D01*
X2669205Y889448D01*
X2669445Y889469D01*
X2669686Y889483D01*
X2669927Y889492D01*
X2670168Y889495D01*
X2670169Y889495D02*
X2685142Y889495D01*
X2685142Y909460D01*
X2660187Y909460D01*
X2636399Y903221D02*
X2636777Y902422D01*
X2637135Y901614D01*
X2637474Y900798D01*
X2637794Y899974D01*
X2638094Y899143D01*
X2638374Y898305D01*
X2638633Y897460D01*
X2638873Y896610D01*
X2639092Y895754D01*
X2639291Y894893D01*
X2639469Y894027D01*
X2639626Y893157D01*
X2639763Y892284D01*
X2639879Y891408D01*
X2639973Y890530D01*
X2640047Y889649D01*
X2640100Y888767D01*
X2640131Y887884D01*
X2640142Y887000D01*
X2636399Y903221D02*
X2636324Y903433D01*
X2636243Y903642D01*
X2636157Y903850D01*
X2636067Y904056D01*
X2635971Y904259D01*
X2635871Y904460D01*
X2635765Y904658D01*
X2635655Y904854D01*
X2635540Y905047D01*
X2635421Y905237D01*
X2635297Y905424D01*
X2635168Y905608D01*
X2635035Y905789D01*
X2634897Y905966D01*
X2634756Y906141D01*
X2634610Y906311D01*
X2634460Y906478D01*
X2634306Y906642D01*
X2634148Y906801D01*
X2633986Y906957D01*
X2633820Y907109D01*
X2633651Y907257D01*
X2633478Y907400D01*
X2633302Y907539D01*
X2633123Y907674D01*
X2632940Y907805D01*
X2632754Y907931D01*
X2632565Y908052D01*
X2632373Y908169D01*
X2632179Y908281D01*
X2631982Y908389D01*
X2631782Y908491D01*
X2631580Y908589D01*
X2631375Y908682D01*
X2631168Y908770D01*
X2630960Y908852D01*
X2630749Y908930D01*
X2630536Y909002D01*
X2630322Y909069D01*
X2630106Y909131D01*
X2629889Y909188D01*
X2629670Y909240D01*
X2629450Y909286D01*
X2629230Y909326D01*
X2629008Y909362D01*
X2628785Y909392D01*
X2628562Y909416D01*
X2628338Y909435D01*
X2628114Y909449D01*
X2627890Y909457D01*
X2627665Y909460D01*
X2627440Y909457D01*
X2627216Y909449D01*
X2626992Y909435D01*
X2626768Y909416D01*
X2626545Y909392D01*
X2626322Y909362D01*
X2626100Y909326D01*
X2625880Y909286D01*
X2625660Y909240D01*
X2625441Y909188D01*
X2625224Y909131D01*
X2625008Y909069D01*
X2624794Y909002D01*
X2624581Y908930D01*
X2624370Y908852D01*
X2624161Y908770D01*
X2623955Y908682D01*
X2623750Y908589D01*
X2623548Y908491D01*
X2623348Y908389D01*
X2623151Y908281D01*
X2622956Y908169D01*
X2622764Y908052D01*
X2622576Y907931D01*
X2622390Y907805D01*
X2622207Y907674D01*
X2622027Y907539D01*
X2621851Y907400D01*
X2621678Y907257D01*
X2621509Y907109D01*
X2621344Y906957D01*
X2621182Y906801D01*
X2621024Y906642D01*
X2620870Y906478D01*
X2620720Y906311D01*
X2620574Y906141D01*
X2620432Y905966D01*
X2620295Y905789D01*
X2620161Y905608D01*
X2620033Y905424D01*
X2619909Y905237D01*
X2619789Y905046D01*
X2619674Y904853D01*
X2619564Y904658D01*
X2619459Y904459D01*
X2619358Y904259D01*
X2619262Y904055D01*
X2619172Y903850D01*
X2619086Y903642D01*
X2619006Y903433D01*
X2618930Y903221D01*
X2618552Y902422D01*
X2618194Y901614D01*
X2617855Y900798D01*
X2617535Y899974D01*
X2617235Y899143D01*
X2616955Y898305D01*
X2616696Y897460D01*
X2616456Y896610D01*
X2616237Y895754D01*
X2616038Y894893D01*
X2615860Y894027D01*
X2615703Y893157D01*
X2615566Y892284D01*
X2615450Y891408D01*
X2615356Y890530D01*
X2615282Y889649D01*
X2615229Y888767D01*
X2615198Y887884D01*
X2615187Y887000D01*
X2640142Y887000D02*
X2640131Y886116D01*
X2640100Y885233D01*
X2640047Y884351D01*
X2639973Y883470D01*
X2639879Y882592D01*
X2639763Y881716D01*
X2639626Y880843D01*
X2639469Y879973D01*
X2639291Y879107D01*
X2639092Y878246D01*
X2638873Y877390D01*
X2638633Y876540D01*
X2638374Y875695D01*
X2638094Y874857D01*
X2637794Y874025D01*
X2637474Y873201D01*
X2637135Y872385D01*
X2636777Y871578D01*
X2636399Y870779D01*
X2636399Y870778D02*
X2636323Y870567D01*
X2636243Y870357D01*
X2636157Y870150D01*
X2636067Y869944D01*
X2635971Y869741D01*
X2635871Y869540D01*
X2635765Y869342D01*
X2635655Y869146D01*
X2635540Y868953D01*
X2635421Y868763D01*
X2635296Y868576D01*
X2635168Y868392D01*
X2635035Y868211D01*
X2634897Y868033D01*
X2634756Y867859D01*
X2634610Y867689D01*
X2634460Y867521D01*
X2634306Y867358D01*
X2634148Y867198D01*
X2633986Y867043D01*
X2633820Y866891D01*
X2633651Y866743D01*
X2633478Y866600D01*
X2633302Y866461D01*
X2633123Y866326D01*
X2632940Y866195D01*
X2632754Y866069D01*
X2632565Y865948D01*
X2632373Y865831D01*
X2632179Y865719D01*
X2631981Y865611D01*
X2631782Y865509D01*
X2631579Y865411D01*
X2631375Y865318D01*
X2631168Y865230D01*
X2630959Y865148D01*
X2630749Y865070D01*
X2630536Y864998D01*
X2630322Y864931D01*
X2630106Y864869D01*
X2629889Y864812D01*
X2629670Y864760D01*
X2629450Y864714D01*
X2629229Y864674D01*
X2629008Y864638D01*
X2628785Y864608D01*
X2628562Y864584D01*
X2628338Y864565D01*
X2628114Y864551D01*
X2627890Y864543D01*
X2627665Y864540D01*
X2618930Y870779D02*
X2618552Y871578D01*
X2618194Y872385D01*
X2617855Y873201D01*
X2617535Y874025D01*
X2617235Y874857D01*
X2616955Y875695D01*
X2616696Y876540D01*
X2616456Y877390D01*
X2616237Y878246D01*
X2616038Y879107D01*
X2615860Y879973D01*
X2615703Y880843D01*
X2615566Y881716D01*
X2615450Y882592D01*
X2615356Y883470D01*
X2615282Y884351D01*
X2615229Y885233D01*
X2615198Y886116D01*
X2615187Y887000D01*
X2618930Y870779D02*
X2619006Y870567D01*
X2619086Y870357D01*
X2619172Y870150D01*
X2619263Y869944D01*
X2619358Y869741D01*
X2619459Y869540D01*
X2619564Y869342D01*
X2619674Y869146D01*
X2619789Y868953D01*
X2619909Y868763D01*
X2620033Y868576D01*
X2620162Y868392D01*
X2620295Y868211D01*
X2620432Y868034D01*
X2620574Y867859D01*
X2620720Y867689D01*
X2620870Y867522D01*
X2621024Y867358D01*
X2621182Y867198D01*
X2621344Y867043D01*
X2621509Y866891D01*
X2621679Y866743D01*
X2621851Y866600D01*
X2622028Y866461D01*
X2622207Y866326D01*
X2622390Y866195D01*
X2622576Y866069D01*
X2622765Y865948D01*
X2622956Y865831D01*
X2623151Y865719D01*
X2623348Y865611D01*
X2623548Y865509D01*
X2623750Y865411D01*
X2623955Y865318D01*
X2624162Y865230D01*
X2624370Y865148D01*
X2624581Y865070D01*
X2624794Y864998D01*
X2625008Y864931D01*
X2625224Y864869D01*
X2625441Y864812D01*
X2625660Y864760D01*
X2625880Y864714D01*
X2626100Y864674D01*
X2626322Y864638D01*
X2626545Y864608D01*
X2626768Y864584D01*
X2626992Y864565D01*
X2627216Y864551D01*
X2627440Y864543D01*
X2627665Y864540D01*
X2637647Y874522D02*
X2617682Y899478D01*
X2595143Y874522D02*
X2585160Y909460D01*
X2595143Y874522D02*
X2570187Y874522D01*
X2577674Y884504D02*
X2577674Y864540D01*
X841813Y2517540D02*
X841813Y2562460D01*
X829335Y2562460D01*
X829031Y2562456D01*
X828727Y2562445D01*
X828424Y2562427D01*
X828121Y2562401D01*
X827819Y2562368D01*
X827518Y2562327D01*
X827218Y2562279D01*
X826919Y2562224D01*
X826622Y2562161D01*
X826326Y2562092D01*
X826032Y2562015D01*
X825740Y2561931D01*
X825450Y2561840D01*
X825163Y2561742D01*
X824877Y2561637D01*
X824595Y2561525D01*
X824315Y2561406D01*
X824039Y2561280D01*
X823765Y2561148D01*
X823495Y2561009D01*
X823228Y2560863D01*
X822965Y2560711D01*
X822705Y2560553D01*
X822450Y2560389D01*
X822199Y2560218D01*
X821952Y2560041D01*
X821709Y2559858D01*
X821471Y2559670D01*
X821237Y2559475D01*
X821008Y2559275D01*
X820784Y2559070D01*
X820566Y2558859D01*
X820352Y2558643D01*
X820144Y2558421D01*
X819941Y2558195D01*
X819744Y2557964D01*
X819552Y2557728D01*
X819367Y2557487D01*
X819187Y2557242D01*
X819013Y2556993D01*
X818845Y2556740D01*
X818684Y2556482D01*
X818529Y2556221D01*
X818380Y2555956D01*
X818238Y2555687D01*
X818102Y2555416D01*
X817973Y2555140D01*
X817851Y2554862D01*
X817735Y2554581D01*
X817627Y2554297D01*
X817525Y2554011D01*
X817431Y2553722D01*
X817343Y2553431D01*
X817263Y2553138D01*
X817189Y2552843D01*
X817123Y2552547D01*
X817065Y2552248D01*
X817013Y2551949D01*
X816969Y2551648D01*
X816932Y2551347D01*
X816902Y2551044D01*
X816880Y2550741D01*
X816865Y2550438D01*
X816858Y2550134D01*
X816858Y2549830D01*
X816865Y2549526D01*
X816880Y2549223D01*
X816902Y2548920D01*
X816932Y2548617D01*
X816969Y2548316D01*
X817013Y2548015D01*
X817065Y2547716D01*
X817123Y2547417D01*
X817189Y2547121D01*
X817263Y2546826D01*
X817343Y2546533D01*
X817431Y2546242D01*
X817525Y2545953D01*
X817627Y2545667D01*
X817735Y2545383D01*
X817851Y2545102D01*
X817973Y2544824D01*
X818102Y2544548D01*
X818238Y2544277D01*
X818380Y2544008D01*
X818529Y2543743D01*
X818684Y2543482D01*
X818845Y2543224D01*
X819013Y2542971D01*
X819187Y2542722D01*
X819367Y2542477D01*
X819552Y2542236D01*
X819744Y2542000D01*
X819941Y2541769D01*
X820144Y2541543D01*
X820352Y2541321D01*
X820566Y2541105D01*
X820784Y2540894D01*
X821008Y2540689D01*
X821237Y2540489D01*
X821471Y2540294D01*
X821709Y2540106D01*
X821952Y2539923D01*
X822199Y2539746D01*
X822450Y2539575D01*
X822705Y2539411D01*
X822965Y2539253D01*
X823228Y2539101D01*
X823495Y2538955D01*
X823765Y2538816D01*
X824039Y2538684D01*
X824315Y2538558D01*
X824595Y2538439D01*
X824877Y2538327D01*
X825163Y2538222D01*
X825450Y2538124D01*
X825740Y2538033D01*
X826032Y2537949D01*
X826326Y2537872D01*
X826622Y2537803D01*
X826919Y2537740D01*
X827218Y2537685D01*
X827518Y2537637D01*
X827819Y2537596D01*
X828121Y2537563D01*
X828424Y2537537D01*
X828727Y2537519D01*
X829031Y2537508D01*
X829335Y2537504D01*
X841813Y2537504D01*
X826839Y2537504D02*
X816857Y2517540D01*
X797142Y2527522D02*
X787160Y2562460D01*
X797142Y2527522D02*
X772187Y2527522D01*
X779673Y2537504D02*
X779673Y2517540D01*
X752142Y2540000D02*
X752131Y2540884D01*
X752100Y2541767D01*
X752047Y2542649D01*
X751973Y2543530D01*
X751879Y2544408D01*
X751763Y2545284D01*
X751626Y2546157D01*
X751469Y2547027D01*
X751291Y2547893D01*
X751092Y2548754D01*
X750873Y2549610D01*
X750633Y2550460D01*
X750374Y2551305D01*
X750094Y2552143D01*
X749794Y2552974D01*
X749474Y2553798D01*
X749135Y2554614D01*
X748777Y2555422D01*
X748399Y2556221D01*
X748324Y2556433D01*
X748243Y2556642D01*
X748157Y2556850D01*
X748067Y2557056D01*
X747971Y2557259D01*
X747871Y2557460D01*
X747765Y2557658D01*
X747655Y2557854D01*
X747540Y2558047D01*
X747421Y2558237D01*
X747297Y2558424D01*
X747168Y2558608D01*
X747035Y2558789D01*
X746897Y2558966D01*
X746756Y2559141D01*
X746610Y2559311D01*
X746460Y2559478D01*
X746306Y2559642D01*
X746148Y2559801D01*
X745986Y2559957D01*
X745820Y2560109D01*
X745651Y2560257D01*
X745478Y2560400D01*
X745302Y2560539D01*
X745123Y2560674D01*
X744940Y2560805D01*
X744754Y2560931D01*
X744565Y2561052D01*
X744373Y2561169D01*
X744179Y2561281D01*
X743982Y2561389D01*
X743782Y2561491D01*
X743580Y2561589D01*
X743375Y2561682D01*
X743168Y2561770D01*
X742960Y2561852D01*
X742749Y2561930D01*
X742536Y2562002D01*
X742322Y2562069D01*
X742106Y2562131D01*
X741889Y2562188D01*
X741670Y2562240D01*
X741450Y2562286D01*
X741230Y2562326D01*
X741008Y2562362D01*
X740785Y2562392D01*
X740562Y2562416D01*
X740338Y2562435D01*
X740114Y2562449D01*
X739890Y2562457D01*
X739665Y2562460D01*
X739440Y2562457D01*
X739216Y2562449D01*
X738992Y2562435D01*
X738768Y2562416D01*
X738545Y2562392D01*
X738322Y2562362D01*
X738100Y2562326D01*
X737880Y2562286D01*
X737660Y2562240D01*
X737441Y2562188D01*
X737224Y2562131D01*
X737008Y2562069D01*
X736794Y2562002D01*
X736581Y2561930D01*
X736370Y2561852D01*
X736161Y2561770D01*
X735955Y2561682D01*
X735750Y2561589D01*
X735548Y2561491D01*
X735348Y2561389D01*
X735151Y2561281D01*
X734956Y2561169D01*
X734764Y2561052D01*
X734576Y2560931D01*
X734390Y2560805D01*
X734207Y2560674D01*
X734027Y2560539D01*
X733851Y2560400D01*
X733678Y2560257D01*
X733509Y2560109D01*
X733344Y2559957D01*
X733182Y2559801D01*
X733024Y2559642D01*
X732870Y2559478D01*
X732720Y2559311D01*
X732574Y2559141D01*
X732432Y2558966D01*
X732295Y2558789D01*
X732161Y2558608D01*
X732033Y2558424D01*
X731909Y2558237D01*
X731789Y2558046D01*
X731674Y2557853D01*
X731564Y2557658D01*
X731459Y2557459D01*
X731358Y2557259D01*
X731262Y2557055D01*
X731172Y2556850D01*
X731086Y2556642D01*
X731006Y2556433D01*
X730930Y2556221D01*
X730552Y2555422D01*
X730194Y2554614D01*
X729855Y2553798D01*
X729535Y2552974D01*
X729235Y2552143D01*
X728955Y2551305D01*
X728696Y2550460D01*
X728456Y2549610D01*
X728237Y2548754D01*
X728038Y2547893D01*
X727860Y2547027D01*
X727703Y2546157D01*
X727566Y2545284D01*
X727450Y2544408D01*
X727356Y2543530D01*
X727282Y2542649D01*
X727229Y2541767D01*
X727198Y2540884D01*
X727187Y2540000D01*
X752142Y2540000D02*
X752131Y2539116D01*
X752100Y2538233D01*
X752047Y2537351D01*
X751973Y2536470D01*
X751879Y2535592D01*
X751763Y2534716D01*
X751626Y2533843D01*
X751469Y2532973D01*
X751291Y2532107D01*
X751092Y2531246D01*
X750873Y2530390D01*
X750633Y2529540D01*
X750374Y2528695D01*
X750094Y2527857D01*
X749794Y2527025D01*
X749474Y2526201D01*
X749135Y2525385D01*
X748777Y2524578D01*
X748399Y2523779D01*
X748399Y2523778D02*
X748323Y2523567D01*
X748243Y2523357D01*
X748157Y2523150D01*
X748067Y2522944D01*
X747971Y2522741D01*
X747871Y2522540D01*
X747765Y2522342D01*
X747655Y2522146D01*
X747540Y2521953D01*
X747421Y2521763D01*
X747296Y2521576D01*
X747168Y2521392D01*
X747035Y2521211D01*
X746897Y2521033D01*
X746756Y2520859D01*
X746610Y2520689D01*
X746460Y2520521D01*
X746306Y2520358D01*
X746148Y2520198D01*
X745986Y2520043D01*
X745820Y2519891D01*
X745651Y2519743D01*
X745478Y2519600D01*
X745302Y2519461D01*
X745123Y2519326D01*
X744940Y2519195D01*
X744754Y2519069D01*
X744565Y2518948D01*
X744373Y2518831D01*
X744179Y2518719D01*
X743981Y2518611D01*
X743782Y2518509D01*
X743579Y2518411D01*
X743375Y2518318D01*
X743168Y2518230D01*
X742959Y2518148D01*
X742749Y2518070D01*
X742536Y2517998D01*
X742322Y2517931D01*
X742106Y2517869D01*
X741889Y2517812D01*
X741670Y2517760D01*
X741450Y2517714D01*
X741229Y2517674D01*
X741008Y2517638D01*
X740785Y2517608D01*
X740562Y2517584D01*
X740338Y2517565D01*
X740114Y2517551D01*
X739890Y2517543D01*
X739665Y2517540D01*
X730930Y2523779D02*
X730552Y2524578D01*
X730194Y2525385D01*
X729855Y2526201D01*
X729535Y2527025D01*
X729235Y2527857D01*
X728955Y2528695D01*
X728696Y2529540D01*
X728456Y2530390D01*
X728237Y2531246D01*
X728038Y2532107D01*
X727860Y2532973D01*
X727703Y2533843D01*
X727566Y2534716D01*
X727450Y2535592D01*
X727356Y2536470D01*
X727282Y2537351D01*
X727229Y2538233D01*
X727198Y2539116D01*
X727187Y2540000D01*
X730930Y2523779D02*
X731006Y2523567D01*
X731086Y2523357D01*
X731172Y2523150D01*
X731263Y2522944D01*
X731358Y2522741D01*
X731459Y2522540D01*
X731564Y2522342D01*
X731674Y2522146D01*
X731789Y2521953D01*
X731909Y2521763D01*
X732033Y2521576D01*
X732162Y2521392D01*
X732295Y2521211D01*
X732432Y2521034D01*
X732574Y2520859D01*
X732720Y2520689D01*
X732870Y2520522D01*
X733024Y2520358D01*
X733182Y2520198D01*
X733344Y2520043D01*
X733509Y2519891D01*
X733679Y2519743D01*
X733851Y2519600D01*
X734028Y2519461D01*
X734207Y2519326D01*
X734390Y2519195D01*
X734576Y2519069D01*
X734765Y2518948D01*
X734956Y2518831D01*
X735151Y2518719D01*
X735348Y2518611D01*
X735548Y2518509D01*
X735750Y2518411D01*
X735955Y2518318D01*
X736162Y2518230D01*
X736370Y2518148D01*
X736581Y2518070D01*
X736794Y2517998D01*
X737008Y2517931D01*
X737224Y2517869D01*
X737441Y2517812D01*
X737660Y2517760D01*
X737880Y2517714D01*
X738100Y2517674D01*
X738322Y2517638D01*
X738545Y2517608D01*
X738768Y2517584D01*
X738992Y2517565D01*
X739216Y2517551D01*
X739440Y2517543D01*
X739665Y2517540D01*
X749647Y2527522D02*
X729682Y2552478D01*
X707143Y2552478D02*
X694665Y2562460D01*
X694665Y2517540D01*
X707143Y2517540D02*
X682187Y2517540D01*
X574319Y2517540D02*
X564337Y2517540D01*
X574319Y2517540D02*
X574560Y2517543D01*
X574801Y2517552D01*
X575042Y2517566D01*
X575282Y2517587D01*
X575522Y2517613D01*
X575761Y2517645D01*
X576000Y2517682D01*
X576237Y2517726D01*
X576473Y2517775D01*
X576708Y2517830D01*
X576941Y2517891D01*
X577173Y2517957D01*
X577404Y2518029D01*
X577632Y2518106D01*
X577859Y2518189D01*
X578083Y2518277D01*
X578306Y2518371D01*
X578526Y2518470D01*
X578743Y2518574D01*
X578958Y2518683D01*
X579170Y2518798D01*
X579380Y2518918D01*
X579586Y2519043D01*
X579789Y2519172D01*
X579990Y2519307D01*
X580186Y2519446D01*
X580380Y2519591D01*
X580570Y2519739D01*
X580756Y2519893D01*
X580938Y2520050D01*
X581117Y2520213D01*
X581292Y2520379D01*
X581462Y2520550D01*
X581629Y2520724D01*
X581791Y2520903D01*
X581949Y2521085D01*
X582102Y2521272D01*
X582251Y2521461D01*
X582395Y2521655D01*
X582534Y2521852D01*
X582669Y2522052D01*
X582798Y2522255D01*
X582923Y2522462D01*
X583043Y2522671D01*
X583158Y2522883D01*
X583267Y2523098D01*
X583372Y2523316D01*
X583471Y2523536D01*
X583564Y2523758D01*
X583652Y2523983D01*
X583735Y2524209D01*
X583813Y2524438D01*
X583884Y2524668D01*
X583950Y2524900D01*
X584011Y2525133D01*
X584066Y2525368D01*
X584115Y2525604D01*
X584159Y2525842D01*
X584196Y2526080D01*
X584228Y2526319D01*
X584254Y2526559D01*
X584275Y2526799D01*
X584289Y2527040D01*
X584298Y2527281D01*
X584301Y2527522D01*
X584301Y2552478D01*
X584298Y2552723D01*
X584289Y2552968D01*
X584274Y2553212D01*
X584253Y2553456D01*
X584226Y2553700D01*
X584193Y2553943D01*
X584154Y2554185D01*
X584109Y2554426D01*
X584058Y2554665D01*
X584002Y2554904D01*
X583939Y2555140D01*
X583871Y2555376D01*
X583797Y2555609D01*
X583717Y2555841D01*
X583632Y2556071D01*
X583541Y2556298D01*
X583445Y2556523D01*
X583343Y2556746D01*
X583235Y2556966D01*
X583122Y2557184D01*
X583004Y2557398D01*
X582881Y2557610D01*
X582752Y2557819D01*
X582619Y2558024D01*
X582480Y2558226D01*
X582337Y2558425D01*
X582188Y2558620D01*
X582035Y2558811D01*
X581877Y2558998D01*
X581715Y2559182D01*
X581548Y2559361D01*
X581377Y2559537D01*
X581202Y2559708D01*
X581022Y2559875D01*
X580839Y2560037D01*
X580651Y2560195D01*
X580460Y2560348D01*
X580265Y2560496D01*
X580067Y2560640D01*
X579865Y2560778D01*
X579659Y2560912D01*
X579451Y2561040D01*
X579239Y2561164D01*
X579024Y2561282D01*
X578807Y2561395D01*
X578587Y2561502D01*
X578364Y2561604D01*
X578139Y2561701D01*
X577911Y2561792D01*
X577682Y2561877D01*
X577450Y2561957D01*
X577216Y2562031D01*
X576981Y2562099D01*
X576744Y2562162D01*
X576506Y2562218D01*
X576266Y2562269D01*
X576025Y2562314D01*
X575783Y2562353D01*
X575541Y2562386D01*
X575297Y2562413D01*
X575053Y2562434D01*
X574808Y2562449D01*
X574564Y2562458D01*
X574319Y2562461D01*
X574319Y2562460D02*
X564337Y2562460D01*
X536671Y2562460D02*
X546653Y2527522D01*
X521698Y2527522D01*
X529184Y2537504D02*
X529184Y2517540D01*
X501654Y2540000D02*
X501643Y2540884D01*
X501612Y2541767D01*
X501559Y2542649D01*
X501485Y2543530D01*
X501391Y2544408D01*
X501275Y2545284D01*
X501138Y2546157D01*
X500981Y2547027D01*
X500803Y2547893D01*
X500604Y2548754D01*
X500385Y2549610D01*
X500145Y2550460D01*
X499886Y2551305D01*
X499606Y2552143D01*
X499306Y2552974D01*
X498986Y2553798D01*
X498647Y2554614D01*
X498289Y2555422D01*
X497911Y2556221D01*
X497910Y2556221D02*
X497835Y2556433D01*
X497754Y2556642D01*
X497668Y2556850D01*
X497578Y2557056D01*
X497482Y2557259D01*
X497382Y2557460D01*
X497276Y2557658D01*
X497166Y2557854D01*
X497051Y2558047D01*
X496932Y2558237D01*
X496808Y2558424D01*
X496679Y2558608D01*
X496546Y2558789D01*
X496408Y2558966D01*
X496267Y2559141D01*
X496121Y2559311D01*
X495971Y2559478D01*
X495817Y2559642D01*
X495659Y2559801D01*
X495497Y2559957D01*
X495331Y2560109D01*
X495162Y2560257D01*
X494989Y2560400D01*
X494813Y2560539D01*
X494634Y2560674D01*
X494451Y2560805D01*
X494265Y2560931D01*
X494076Y2561052D01*
X493884Y2561169D01*
X493690Y2561281D01*
X493493Y2561389D01*
X493293Y2561491D01*
X493091Y2561589D01*
X492886Y2561682D01*
X492679Y2561770D01*
X492471Y2561852D01*
X492260Y2561930D01*
X492047Y2562002D01*
X491833Y2562069D01*
X491617Y2562131D01*
X491400Y2562188D01*
X491181Y2562240D01*
X490961Y2562286D01*
X490741Y2562326D01*
X490519Y2562362D01*
X490296Y2562392D01*
X490073Y2562416D01*
X489849Y2562435D01*
X489625Y2562449D01*
X489401Y2562457D01*
X489176Y2562460D01*
X488951Y2562457D01*
X488727Y2562449D01*
X488503Y2562435D01*
X488279Y2562416D01*
X488056Y2562392D01*
X487833Y2562362D01*
X487611Y2562326D01*
X487391Y2562286D01*
X487171Y2562240D01*
X486952Y2562188D01*
X486735Y2562131D01*
X486519Y2562069D01*
X486305Y2562002D01*
X486092Y2561930D01*
X485881Y2561852D01*
X485672Y2561770D01*
X485466Y2561682D01*
X485261Y2561589D01*
X485059Y2561491D01*
X484859Y2561389D01*
X484662Y2561281D01*
X484467Y2561169D01*
X484275Y2561052D01*
X484087Y2560931D01*
X483901Y2560805D01*
X483718Y2560674D01*
X483538Y2560539D01*
X483362Y2560400D01*
X483189Y2560257D01*
X483020Y2560109D01*
X482855Y2559957D01*
X482693Y2559801D01*
X482535Y2559642D01*
X482381Y2559478D01*
X482231Y2559311D01*
X482085Y2559141D01*
X481943Y2558966D01*
X481806Y2558789D01*
X481672Y2558608D01*
X481544Y2558424D01*
X481420Y2558237D01*
X481300Y2558046D01*
X481185Y2557853D01*
X481075Y2557658D01*
X480970Y2557459D01*
X480869Y2557259D01*
X480773Y2557055D01*
X480683Y2556850D01*
X480597Y2556642D01*
X480517Y2556433D01*
X480441Y2556221D01*
X480063Y2555422D01*
X479705Y2554614D01*
X479366Y2553798D01*
X479046Y2552974D01*
X478746Y2552143D01*
X478466Y2551305D01*
X478207Y2550460D01*
X477967Y2549610D01*
X477748Y2548754D01*
X477549Y2547893D01*
X477371Y2547027D01*
X477214Y2546157D01*
X477077Y2545284D01*
X476961Y2544408D01*
X476867Y2543530D01*
X476793Y2542649D01*
X476740Y2541767D01*
X476709Y2540884D01*
X476698Y2540000D01*
X501653Y2540000D02*
X501642Y2539116D01*
X501611Y2538233D01*
X501558Y2537351D01*
X501484Y2536470D01*
X501390Y2535592D01*
X501274Y2534716D01*
X501137Y2533843D01*
X500980Y2532973D01*
X500802Y2532107D01*
X500603Y2531246D01*
X500384Y2530390D01*
X500144Y2529540D01*
X499885Y2528695D01*
X499605Y2527857D01*
X499305Y2527025D01*
X498985Y2526201D01*
X498646Y2525385D01*
X498288Y2524578D01*
X497910Y2523779D01*
X497910Y2523778D02*
X497834Y2523567D01*
X497754Y2523357D01*
X497668Y2523150D01*
X497578Y2522944D01*
X497482Y2522741D01*
X497382Y2522540D01*
X497276Y2522342D01*
X497166Y2522146D01*
X497051Y2521953D01*
X496932Y2521763D01*
X496807Y2521576D01*
X496679Y2521392D01*
X496546Y2521211D01*
X496408Y2521033D01*
X496267Y2520859D01*
X496121Y2520689D01*
X495971Y2520521D01*
X495817Y2520358D01*
X495659Y2520198D01*
X495497Y2520043D01*
X495331Y2519891D01*
X495162Y2519743D01*
X494989Y2519600D01*
X494813Y2519461D01*
X494634Y2519326D01*
X494451Y2519195D01*
X494265Y2519069D01*
X494076Y2518948D01*
X493884Y2518831D01*
X493690Y2518719D01*
X493492Y2518611D01*
X493293Y2518509D01*
X493090Y2518411D01*
X492886Y2518318D01*
X492679Y2518230D01*
X492470Y2518148D01*
X492260Y2518070D01*
X492047Y2517998D01*
X491833Y2517931D01*
X491617Y2517869D01*
X491400Y2517812D01*
X491181Y2517760D01*
X490961Y2517714D01*
X490740Y2517674D01*
X490519Y2517638D01*
X490296Y2517608D01*
X490073Y2517584D01*
X489849Y2517565D01*
X489625Y2517551D01*
X489401Y2517543D01*
X489176Y2517540D01*
X480441Y2523779D02*
X480063Y2524578D01*
X479705Y2525385D01*
X479366Y2526201D01*
X479046Y2527025D01*
X478746Y2527857D01*
X478466Y2528695D01*
X478207Y2529540D01*
X477967Y2530390D01*
X477748Y2531246D01*
X477549Y2532107D01*
X477371Y2532973D01*
X477214Y2533843D01*
X477077Y2534716D01*
X476961Y2535592D01*
X476867Y2536470D01*
X476793Y2537351D01*
X476740Y2538233D01*
X476709Y2539116D01*
X476698Y2540000D01*
X480441Y2523779D02*
X480517Y2523567D01*
X480597Y2523357D01*
X480683Y2523150D01*
X480774Y2522944D01*
X480869Y2522741D01*
X480970Y2522540D01*
X481075Y2522342D01*
X481185Y2522146D01*
X481300Y2521953D01*
X481420Y2521763D01*
X481544Y2521576D01*
X481673Y2521392D01*
X481806Y2521211D01*
X481943Y2521034D01*
X482085Y2520859D01*
X482231Y2520689D01*
X482381Y2520522D01*
X482535Y2520358D01*
X482693Y2520198D01*
X482855Y2520043D01*
X483020Y2519891D01*
X483190Y2519743D01*
X483362Y2519600D01*
X483539Y2519461D01*
X483718Y2519326D01*
X483901Y2519195D01*
X484087Y2519069D01*
X484276Y2518948D01*
X484467Y2518831D01*
X484662Y2518719D01*
X484859Y2518611D01*
X485059Y2518509D01*
X485261Y2518411D01*
X485466Y2518318D01*
X485673Y2518230D01*
X485881Y2518148D01*
X486092Y2518070D01*
X486305Y2517998D01*
X486519Y2517931D01*
X486735Y2517869D01*
X486952Y2517812D01*
X487171Y2517760D01*
X487391Y2517714D01*
X487611Y2517674D01*
X487833Y2517638D01*
X488056Y2517608D01*
X488279Y2517584D01*
X488503Y2517565D01*
X488727Y2517551D01*
X488951Y2517543D01*
X489176Y2517540D01*
X499158Y2527522D02*
X479193Y2552478D01*
X456654Y2552478D02*
X444176Y2562460D01*
X444176Y2517540D01*
X456654Y2517540D02*
X431698Y2517540D01*
D10*
X549000Y1017500D02*
X549015Y1018752D01*
X549061Y1020002D01*
X549138Y1021252D01*
X549246Y1022499D01*
X549384Y1023743D01*
X549552Y1024983D01*
X549751Y1026219D01*
X549980Y1027450D01*
X550239Y1028674D01*
X550528Y1029892D01*
X550847Y1031102D01*
X551196Y1032305D01*
X551574Y1033498D01*
X551981Y1034681D01*
X552417Y1035855D01*
X552882Y1037017D01*
X553375Y1038167D01*
X553897Y1039305D01*
X554446Y1040430D01*
X555022Y1041541D01*
X555626Y1042638D01*
X556256Y1043719D01*
X556912Y1044785D01*
X557595Y1045834D01*
X558303Y1046866D01*
X559036Y1047881D01*
X559794Y1048877D01*
X560576Y1049854D01*
X561382Y1050812D01*
X562211Y1051750D01*
X563063Y1052667D01*
X563938Y1053562D01*
X564833Y1054437D01*
X565750Y1055289D01*
X566688Y1056118D01*
X567646Y1056924D01*
X568623Y1057706D01*
X569619Y1058464D01*
X570634Y1059197D01*
X571666Y1059905D01*
X572715Y1060588D01*
X573781Y1061244D01*
X574862Y1061874D01*
X575959Y1062478D01*
X577070Y1063054D01*
X578195Y1063603D01*
X579333Y1064125D01*
X580483Y1064618D01*
X581645Y1065083D01*
X582819Y1065519D01*
X584002Y1065926D01*
X585195Y1066304D01*
X586398Y1066653D01*
X587608Y1066972D01*
X588826Y1067261D01*
X590050Y1067520D01*
X591281Y1067749D01*
X592517Y1067948D01*
X593757Y1068116D01*
X595001Y1068254D01*
X596248Y1068362D01*
X597498Y1068439D01*
X598748Y1068485D01*
X600000Y1068500D01*
X601252Y1068485D01*
X602502Y1068439D01*
X603752Y1068362D01*
X604999Y1068254D01*
X606243Y1068116D01*
X607483Y1067948D01*
X608719Y1067749D01*
X609950Y1067520D01*
X611174Y1067261D01*
X612392Y1066972D01*
X613602Y1066653D01*
X614805Y1066304D01*
X615998Y1065926D01*
X617181Y1065519D01*
X618355Y1065083D01*
X619517Y1064618D01*
X620667Y1064125D01*
X621805Y1063603D01*
X622930Y1063054D01*
X624041Y1062478D01*
X625138Y1061874D01*
X626219Y1061244D01*
X627285Y1060588D01*
X628334Y1059905D01*
X629366Y1059197D01*
X630381Y1058464D01*
X631377Y1057706D01*
X632354Y1056924D01*
X633312Y1056118D01*
X634250Y1055289D01*
X635167Y1054437D01*
X636062Y1053562D01*
X636937Y1052667D01*
X637789Y1051750D01*
X638618Y1050812D01*
X639424Y1049854D01*
X640206Y1048877D01*
X640964Y1047881D01*
X641697Y1046866D01*
X642405Y1045834D01*
X643088Y1044785D01*
X643744Y1043719D01*
X644374Y1042638D01*
X644978Y1041541D01*
X645554Y1040430D01*
X646103Y1039305D01*
X646625Y1038167D01*
X647118Y1037017D01*
X647583Y1035855D01*
X648019Y1034681D01*
X648426Y1033498D01*
X648804Y1032305D01*
X649153Y1031102D01*
X649472Y1029892D01*
X649761Y1028674D01*
X650020Y1027450D01*
X650249Y1026219D01*
X650448Y1024983D01*
X650616Y1023743D01*
X650754Y1022499D01*
X650862Y1021252D01*
X650939Y1020002D01*
X650985Y1018752D01*
X651000Y1017500D01*
X650985Y1016248D01*
X650939Y1014998D01*
X650862Y1013748D01*
X650754Y1012501D01*
X650616Y1011257D01*
X650448Y1010017D01*
X650249Y1008781D01*
X650020Y1007550D01*
X649761Y1006326D01*
X649472Y1005108D01*
X649153Y1003898D01*
X648804Y1002695D01*
X648426Y1001502D01*
X648019Y1000319D01*
X647583Y999145D01*
X647118Y997983D01*
X646625Y996833D01*
X646103Y995695D01*
X645554Y994570D01*
X644978Y993459D01*
X644374Y992362D01*
X643744Y991281D01*
X643088Y990215D01*
X642405Y989166D01*
X641697Y988134D01*
X640964Y987119D01*
X640206Y986123D01*
X639424Y985146D01*
X638618Y984188D01*
X637789Y983250D01*
X636937Y982333D01*
X636062Y981438D01*
X635167Y980563D01*
X634250Y979711D01*
X633312Y978882D01*
X632354Y978076D01*
X631377Y977294D01*
X630381Y976536D01*
X629366Y975803D01*
X628334Y975095D01*
X627285Y974412D01*
X626219Y973756D01*
X625138Y973126D01*
X624041Y972522D01*
X622930Y971946D01*
X621805Y971397D01*
X620667Y970875D01*
X619517Y970382D01*
X618355Y969917D01*
X617181Y969481D01*
X615998Y969074D01*
X614805Y968696D01*
X613602Y968347D01*
X612392Y968028D01*
X611174Y967739D01*
X609950Y967480D01*
X608719Y967251D01*
X607483Y967052D01*
X606243Y966884D01*
X604999Y966746D01*
X603752Y966638D01*
X602502Y966561D01*
X601252Y966515D01*
X600000Y966500D01*
X598748Y966515D01*
X597498Y966561D01*
X596248Y966638D01*
X595001Y966746D01*
X593757Y966884D01*
X592517Y967052D01*
X591281Y967251D01*
X590050Y967480D01*
X588826Y967739D01*
X587608Y968028D01*
X586398Y968347D01*
X585195Y968696D01*
X584002Y969074D01*
X582819Y969481D01*
X581645Y969917D01*
X580483Y970382D01*
X579333Y970875D01*
X578195Y971397D01*
X577070Y971946D01*
X575959Y972522D01*
X574862Y973126D01*
X573781Y973756D01*
X572715Y974412D01*
X571666Y975095D01*
X570634Y975803D01*
X569619Y976536D01*
X568623Y977294D01*
X567646Y978076D01*
X566688Y978882D01*
X565750Y979711D01*
X564833Y980563D01*
X563938Y981438D01*
X563063Y982333D01*
X562211Y983250D01*
X561382Y984188D01*
X560576Y985146D01*
X559794Y986123D01*
X559036Y987119D01*
X558303Y988134D01*
X557595Y989166D01*
X556912Y990215D01*
X556256Y991281D01*
X555626Y992362D01*
X555022Y993459D01*
X554446Y994570D01*
X553897Y995695D01*
X553375Y996833D01*
X552882Y997983D01*
X552417Y999145D01*
X551981Y1000319D01*
X551574Y1001502D01*
X551196Y1002695D01*
X550847Y1003898D01*
X550528Y1005108D01*
X550239Y1006326D01*
X549980Y1007550D01*
X549751Y1008781D01*
X549552Y1010017D01*
X549384Y1011257D01*
X549246Y1012501D01*
X549138Y1013748D01*
X549061Y1014998D01*
X549015Y1016248D01*
X549000Y1017500D01*
X549000Y382500D02*
X549015Y383752D01*
X549061Y385002D01*
X549138Y386252D01*
X549246Y387499D01*
X549384Y388743D01*
X549552Y389983D01*
X549751Y391219D01*
X549980Y392450D01*
X550239Y393674D01*
X550528Y394892D01*
X550847Y396102D01*
X551196Y397305D01*
X551574Y398498D01*
X551981Y399681D01*
X552417Y400855D01*
X552882Y402017D01*
X553375Y403167D01*
X553897Y404305D01*
X554446Y405430D01*
X555022Y406541D01*
X555626Y407638D01*
X556256Y408719D01*
X556912Y409785D01*
X557595Y410834D01*
X558303Y411866D01*
X559036Y412881D01*
X559794Y413877D01*
X560576Y414854D01*
X561382Y415812D01*
X562211Y416750D01*
X563063Y417667D01*
X563938Y418562D01*
X564833Y419437D01*
X565750Y420289D01*
X566688Y421118D01*
X567646Y421924D01*
X568623Y422706D01*
X569619Y423464D01*
X570634Y424197D01*
X571666Y424905D01*
X572715Y425588D01*
X573781Y426244D01*
X574862Y426874D01*
X575959Y427478D01*
X577070Y428054D01*
X578195Y428603D01*
X579333Y429125D01*
X580483Y429618D01*
X581645Y430083D01*
X582819Y430519D01*
X584002Y430926D01*
X585195Y431304D01*
X586398Y431653D01*
X587608Y431972D01*
X588826Y432261D01*
X590050Y432520D01*
X591281Y432749D01*
X592517Y432948D01*
X593757Y433116D01*
X595001Y433254D01*
X596248Y433362D01*
X597498Y433439D01*
X598748Y433485D01*
X600000Y433500D01*
X601252Y433485D01*
X602502Y433439D01*
X603752Y433362D01*
X604999Y433254D01*
X606243Y433116D01*
X607483Y432948D01*
X608719Y432749D01*
X609950Y432520D01*
X611174Y432261D01*
X612392Y431972D01*
X613602Y431653D01*
X614805Y431304D01*
X615998Y430926D01*
X617181Y430519D01*
X618355Y430083D01*
X619517Y429618D01*
X620667Y429125D01*
X621805Y428603D01*
X622930Y428054D01*
X624041Y427478D01*
X625138Y426874D01*
X626219Y426244D01*
X627285Y425588D01*
X628334Y424905D01*
X629366Y424197D01*
X630381Y423464D01*
X631377Y422706D01*
X632354Y421924D01*
X633312Y421118D01*
X634250Y420289D01*
X635167Y419437D01*
X636062Y418562D01*
X636937Y417667D01*
X637789Y416750D01*
X638618Y415812D01*
X639424Y414854D01*
X640206Y413877D01*
X640964Y412881D01*
X641697Y411866D01*
X642405Y410834D01*
X643088Y409785D01*
X643744Y408719D01*
X644374Y407638D01*
X644978Y406541D01*
X645554Y405430D01*
X646103Y404305D01*
X646625Y403167D01*
X647118Y402017D01*
X647583Y400855D01*
X648019Y399681D01*
X648426Y398498D01*
X648804Y397305D01*
X649153Y396102D01*
X649472Y394892D01*
X649761Y393674D01*
X650020Y392450D01*
X650249Y391219D01*
X650448Y389983D01*
X650616Y388743D01*
X650754Y387499D01*
X650862Y386252D01*
X650939Y385002D01*
X650985Y383752D01*
X651000Y382500D01*
X650985Y381248D01*
X650939Y379998D01*
X650862Y378748D01*
X650754Y377501D01*
X650616Y376257D01*
X650448Y375017D01*
X650249Y373781D01*
X650020Y372550D01*
X649761Y371326D01*
X649472Y370108D01*
X649153Y368898D01*
X648804Y367695D01*
X648426Y366502D01*
X648019Y365319D01*
X647583Y364145D01*
X647118Y362983D01*
X646625Y361833D01*
X646103Y360695D01*
X645554Y359570D01*
X644978Y358459D01*
X644374Y357362D01*
X643744Y356281D01*
X643088Y355215D01*
X642405Y354166D01*
X641697Y353134D01*
X640964Y352119D01*
X640206Y351123D01*
X639424Y350146D01*
X638618Y349188D01*
X637789Y348250D01*
X636937Y347333D01*
X636062Y346438D01*
X635167Y345563D01*
X634250Y344711D01*
X633312Y343882D01*
X632354Y343076D01*
X631377Y342294D01*
X630381Y341536D01*
X629366Y340803D01*
X628334Y340095D01*
X627285Y339412D01*
X626219Y338756D01*
X625138Y338126D01*
X624041Y337522D01*
X622930Y336946D01*
X621805Y336397D01*
X620667Y335875D01*
X619517Y335382D01*
X618355Y334917D01*
X617181Y334481D01*
X615998Y334074D01*
X614805Y333696D01*
X613602Y333347D01*
X612392Y333028D01*
X611174Y332739D01*
X609950Y332480D01*
X608719Y332251D01*
X607483Y332052D01*
X606243Y331884D01*
X604999Y331746D01*
X603752Y331638D01*
X602502Y331561D01*
X601252Y331515D01*
X600000Y331500D01*
X598748Y331515D01*
X597498Y331561D01*
X596248Y331638D01*
X595001Y331746D01*
X593757Y331884D01*
X592517Y332052D01*
X591281Y332251D01*
X590050Y332480D01*
X588826Y332739D01*
X587608Y333028D01*
X586398Y333347D01*
X585195Y333696D01*
X584002Y334074D01*
X582819Y334481D01*
X581645Y334917D01*
X580483Y335382D01*
X579333Y335875D01*
X578195Y336397D01*
X577070Y336946D01*
X575959Y337522D01*
X574862Y338126D01*
X573781Y338756D01*
X572715Y339412D01*
X571666Y340095D01*
X570634Y340803D01*
X569619Y341536D01*
X568623Y342294D01*
X567646Y343076D01*
X566688Y343882D01*
X565750Y344711D01*
X564833Y345563D01*
X563938Y346438D01*
X563063Y347333D01*
X562211Y348250D01*
X561382Y349188D01*
X560576Y350146D01*
X559794Y351123D01*
X559036Y352119D01*
X558303Y353134D01*
X557595Y354166D01*
X556912Y355215D01*
X556256Y356281D01*
X555626Y357362D01*
X555022Y358459D01*
X554446Y359570D01*
X553897Y360695D01*
X553375Y361833D01*
X552882Y362983D01*
X552417Y364145D01*
X551981Y365319D01*
X551574Y366502D01*
X551196Y367695D01*
X550847Y368898D01*
X550528Y370108D01*
X550239Y371326D01*
X549980Y372550D01*
X549751Y373781D01*
X549552Y375017D01*
X549384Y376257D01*
X549246Y377501D01*
X549138Y378748D01*
X549061Y379998D01*
X549015Y381248D01*
X549000Y382500D01*
M02*
