M48
;GenerationSoftware,Autodesk,EAGLE,9.6.2*%
;CreationDate,2022-12-16T09:42:20Z*%
FMAT,2
ICI,OFF
METRIC,TZ,000.00000
T5C0.35000
T4C0.99060
T3C1.01600
T2C1.32080
T1C2.50000
%
G90
M71
T1
X300000Y3200000
X3200000Y3200000
X300000Y300000
X3200000Y300000
T2
X575000Y2800000
X1200000Y2800000
T3
X2476500Y3111500
X1016000Y3111500
X762000Y3111500
X1873250Y3111500
X1619250Y3111500
X2730500Y3111500
T4
X450000Y2000000
X348400Y1492000
X551600Y1492000
T5
X3400000Y1750000
X100000Y1750000
X100000Y1250000
X100000Y750000
X100000Y2250000
X100000Y2750000
X1750000Y100000
X2250000Y100000
X2750000Y100000
X1250000Y100000
X750000Y100000
X3400000Y1250000
X3400000Y750000
X3400000Y2250000
X3400000Y2750000
X1750000Y3400000
X2250000Y3400000
X2750000Y3400000
X1250000Y3400000
X750000Y3400000
X2700000Y1459500
X1450000Y2100000
X1750000Y2748000
X2650000Y1134500
X1700000Y2050000
X2650000Y2409500
X2400000Y1784500
X2925000Y1734500
X2075000Y1800000
X1525000Y1625000
X1062500Y2037500
X712500Y2037500
X2125000Y550000
X2900000Y1359500
X1675000Y1475000
X1700000Y1300000
X1950000Y1000000
X2550000Y1184500
X2550000Y1084500
X2400000Y1309500
X1875000Y2748000
X2750000Y1184500
X2750000Y1084500
X1036000Y2734000
X386000Y1873250
X1875000Y2498000
X1650000Y1125000
X912500Y2250000
X386000Y1619000
X1275000Y2025000
X514000Y1873000
X386000Y1746000
X1700000Y1950000
X514000Y1746000
X1650000Y975000
X1600000Y2250000
X736000Y2734000
X1400000Y850000
X2000000Y1625000
X1750000Y2498000
X1400000Y550000
X2900000Y1559500
X2775000Y1734500
X2850000Y1734500
X3000000Y1734500
X3000000Y1809500
X912500Y2037500
X1450000Y2025000
X2075000Y2000000
M30