G04 EAGLE Gerber RS-274X export*
G75*
%MOMM*%
%FSLAX35Y35*%
%LPD*%
%INsilk_top*%
%IPPOS*%
%AMOC8*
5,1,8,0,0,1.08239X$1,22.5*%
G01*
%ADD10C,0.000000*%
%ADD11C,0.076200*%
%ADD12C,0.050800*%
%ADD13C,0.127000*%
%ADD14C,0.500000*%
%ADD15C,0.300000*%
%ADD16C,0.152400*%
%ADD17C,0.100000*%
%ADD18R,0.508000X0.508000*%
%ADD19C,0.101600*%


D10*
X100Y3199800D02*
X100Y299800D01*
X188Y292551D01*
X450Y285306D01*
X888Y278070D01*
X1501Y270846D01*
X2287Y263639D01*
X3248Y256453D01*
X4382Y249293D01*
X5689Y242162D01*
X7168Y235065D01*
X8817Y228005D01*
X10637Y220988D01*
X12626Y214016D01*
X14783Y207095D01*
X17106Y200228D01*
X19595Y193419D01*
X22248Y186672D01*
X25062Y179991D01*
X28038Y173380D01*
X31172Y166843D01*
X34463Y160383D01*
X37910Y154005D01*
X41509Y147712D01*
X45260Y141508D01*
X49159Y135396D01*
X53205Y129381D01*
X57395Y123464D01*
X61727Y117651D01*
X66198Y111944D01*
X70805Y106347D01*
X75547Y100863D01*
X80419Y95495D01*
X85420Y90247D01*
X90547Y85120D01*
X95795Y80119D01*
X101163Y75247D01*
X106647Y70505D01*
X112244Y65898D01*
X117951Y61427D01*
X123764Y57095D01*
X129681Y52905D01*
X135696Y48859D01*
X141808Y44960D01*
X148012Y41209D01*
X154305Y37610D01*
X160683Y34163D01*
X167143Y30872D01*
X173680Y27738D01*
X180291Y24762D01*
X186972Y21948D01*
X193719Y19295D01*
X200528Y16806D01*
X207395Y14483D01*
X214316Y12326D01*
X221288Y10337D01*
X228305Y8517D01*
X235365Y6868D01*
X242462Y5389D01*
X249593Y4082D01*
X256753Y2948D01*
X263939Y1987D01*
X271146Y1201D01*
X278370Y588D01*
X285606Y150D01*
X292851Y-112D01*
X300100Y-200D01*
X3200100Y-200D01*
X3207349Y-112D01*
X3214594Y150D01*
X3221830Y588D01*
X3229054Y1201D01*
X3236261Y1987D01*
X3243447Y2948D01*
X3250607Y4082D01*
X3257738Y5389D01*
X3264835Y6868D01*
X3271895Y8517D01*
X3278912Y10337D01*
X3285884Y12326D01*
X3292805Y14483D01*
X3299672Y16806D01*
X3306481Y19295D01*
X3313228Y21948D01*
X3319909Y24762D01*
X3326520Y27738D01*
X3333057Y30872D01*
X3339517Y34163D01*
X3345895Y37610D01*
X3352188Y41209D01*
X3358392Y44960D01*
X3364504Y48859D01*
X3370519Y52905D01*
X3376436Y57095D01*
X3382249Y61427D01*
X3387956Y65898D01*
X3393553Y70505D01*
X3399037Y75247D01*
X3404405Y80119D01*
X3409653Y85120D01*
X3414780Y90247D01*
X3419781Y95495D01*
X3424653Y100863D01*
X3429395Y106347D01*
X3434002Y111944D01*
X3438473Y117651D01*
X3442805Y123464D01*
X3446995Y129381D01*
X3451041Y135396D01*
X3454940Y141508D01*
X3458691Y147712D01*
X3462290Y154005D01*
X3465737Y160383D01*
X3469028Y166843D01*
X3472162Y173380D01*
X3475138Y179991D01*
X3477952Y186672D01*
X3480605Y193419D01*
X3483094Y200228D01*
X3485417Y207095D01*
X3487574Y214016D01*
X3489563Y220988D01*
X3491383Y228005D01*
X3493032Y235065D01*
X3494511Y242162D01*
X3495818Y249293D01*
X3496952Y256453D01*
X3497913Y263639D01*
X3498699Y270846D01*
X3499312Y278070D01*
X3499750Y285306D01*
X3500012Y292551D01*
X3500100Y299800D01*
X3500100Y3199800D01*
X3500012Y3207049D01*
X3499750Y3214294D01*
X3499312Y3221530D01*
X3498699Y3228754D01*
X3497913Y3235961D01*
X3496952Y3243147D01*
X3495818Y3250307D01*
X3494511Y3257438D01*
X3493032Y3264535D01*
X3491383Y3271595D01*
X3489563Y3278612D01*
X3487574Y3285584D01*
X3485417Y3292505D01*
X3483094Y3299372D01*
X3480605Y3306181D01*
X3477952Y3312928D01*
X3475138Y3319609D01*
X3472162Y3326220D01*
X3469028Y3332757D01*
X3465737Y3339217D01*
X3462290Y3345595D01*
X3458691Y3351888D01*
X3454940Y3358092D01*
X3451041Y3364204D01*
X3446995Y3370219D01*
X3442805Y3376136D01*
X3438473Y3381949D01*
X3434002Y3387656D01*
X3429395Y3393253D01*
X3424653Y3398737D01*
X3419781Y3404105D01*
X3414780Y3409353D01*
X3409653Y3414480D01*
X3404405Y3419481D01*
X3399037Y3424353D01*
X3393553Y3429095D01*
X3387956Y3433702D01*
X3382249Y3438173D01*
X3376436Y3442505D01*
X3370519Y3446695D01*
X3364504Y3450741D01*
X3358392Y3454640D01*
X3352188Y3458391D01*
X3345895Y3461990D01*
X3339517Y3465437D01*
X3333057Y3468728D01*
X3326520Y3471862D01*
X3319909Y3474838D01*
X3313228Y3477652D01*
X3306481Y3480305D01*
X3299672Y3482794D01*
X3292805Y3485117D01*
X3285884Y3487274D01*
X3278912Y3489263D01*
X3271895Y3491083D01*
X3264835Y3492732D01*
X3257738Y3494211D01*
X3250607Y3495518D01*
X3243447Y3496652D01*
X3236261Y3497613D01*
X3229054Y3498399D01*
X3221830Y3499012D01*
X3214594Y3499450D01*
X3207349Y3499712D01*
X3200100Y3499800D01*
X300100Y3499800D01*
X292851Y3499712D01*
X285606Y3499450D01*
X278370Y3499012D01*
X271146Y3498399D01*
X263939Y3497613D01*
X256753Y3496652D01*
X249593Y3495518D01*
X242462Y3494211D01*
X235365Y3492732D01*
X228305Y3491083D01*
X221288Y3489263D01*
X214316Y3487274D01*
X207395Y3485117D01*
X200528Y3482794D01*
X193719Y3480305D01*
X186972Y3477652D01*
X180291Y3474838D01*
X173680Y3471862D01*
X167143Y3468728D01*
X160683Y3465437D01*
X154305Y3461990D01*
X148012Y3458391D01*
X141808Y3454640D01*
X135696Y3450741D01*
X129681Y3446695D01*
X123764Y3442505D01*
X117951Y3438173D01*
X112244Y3433702D01*
X106647Y3429095D01*
X101163Y3424353D01*
X95795Y3419481D01*
X90547Y3414480D01*
X85420Y3409353D01*
X80419Y3404105D01*
X75547Y3398737D01*
X70805Y3393253D01*
X66198Y3387656D01*
X61727Y3381949D01*
X57395Y3376136D01*
X53205Y3370219D01*
X49159Y3364204D01*
X45260Y3358092D01*
X41509Y3351888D01*
X37910Y3345595D01*
X34463Y3339217D01*
X31172Y3332757D01*
X28038Y3326220D01*
X25062Y3319609D01*
X22248Y3312928D01*
X19595Y3306181D01*
X17106Y3299372D01*
X14783Y3292505D01*
X12626Y3285584D01*
X10637Y3278612D01*
X8817Y3271595D01*
X7168Y3264535D01*
X5689Y3257438D01*
X4382Y3250307D01*
X3248Y3243147D01*
X2287Y3235961D01*
X1501Y3228754D01*
X888Y3221530D01*
X450Y3214294D01*
X188Y3207049D01*
X100Y3199800D01*
D11*
X799741Y2811310D02*
X820269Y2811310D01*
X799741Y2811310D02*
X799245Y2811316D01*
X798749Y2811334D01*
X798254Y2811364D01*
X797760Y2811406D01*
X797267Y2811460D01*
X796775Y2811525D01*
X796285Y2811603D01*
X795797Y2811692D01*
X795311Y2811794D01*
X794828Y2811907D01*
X794348Y2812031D01*
X793871Y2812167D01*
X793397Y2812315D01*
X792927Y2812474D01*
X792461Y2812644D01*
X792000Y2812826D01*
X791542Y2813018D01*
X791090Y2813222D01*
X790643Y2813436D01*
X790201Y2813661D01*
X789764Y2813897D01*
X789334Y2814144D01*
X788909Y2814400D01*
X788491Y2814667D01*
X788079Y2814944D01*
X787674Y2815231D01*
X787277Y2815527D01*
X786886Y2815833D01*
X786503Y2816148D01*
X786128Y2816473D01*
X785760Y2816806D01*
X785401Y2817148D01*
X785050Y2817499D01*
X784708Y2817858D01*
X784375Y2818226D01*
X784050Y2818601D01*
X783735Y2818984D01*
X783429Y2819375D01*
X783133Y2819772D01*
X782846Y2820177D01*
X782569Y2820589D01*
X782302Y2821007D01*
X782046Y2821432D01*
X781799Y2821862D01*
X781563Y2822299D01*
X781338Y2822741D01*
X781124Y2823188D01*
X780920Y2823640D01*
X780728Y2824098D01*
X780546Y2824559D01*
X780376Y2825025D01*
X780217Y2825495D01*
X780069Y2825969D01*
X779933Y2826446D01*
X779809Y2826926D01*
X779696Y2827409D01*
X779594Y2827895D01*
X779505Y2828383D01*
X779427Y2828873D01*
X779362Y2829365D01*
X779308Y2829858D01*
X779266Y2830352D01*
X779236Y2830847D01*
X779218Y2831343D01*
X779212Y2831839D01*
X779212Y2883161D01*
X779218Y2883665D01*
X779237Y2884168D01*
X779268Y2884671D01*
X779311Y2885173D01*
X779366Y2885674D01*
X779434Y2886173D01*
X779514Y2886671D01*
X779606Y2887166D01*
X779711Y2887659D01*
X779827Y2888149D01*
X779956Y2888636D01*
X780096Y2889120D01*
X780248Y2889601D01*
X780412Y2890077D01*
X780588Y2890549D01*
X780775Y2891017D01*
X780973Y2891480D01*
X781183Y2891938D01*
X781404Y2892391D01*
X781636Y2892838D01*
X781879Y2893280D01*
X782133Y2893715D01*
X782397Y2894144D01*
X782672Y2894566D01*
X782957Y2894982D01*
X783252Y2895390D01*
X783557Y2895791D01*
X783872Y2896184D01*
X784196Y2896570D01*
X784530Y2896947D01*
X784873Y2897316D01*
X785225Y2897677D01*
X785585Y2898029D01*
X785954Y2898372D01*
X786332Y2898706D01*
X786717Y2899030D01*
X787111Y2899345D01*
X787512Y2899650D01*
X787920Y2899945D01*
X788336Y2900230D01*
X788758Y2900505D01*
X789187Y2900769D01*
X789622Y2901023D01*
X790064Y2901266D01*
X790511Y2901498D01*
X790964Y2901719D01*
X791422Y2901929D01*
X791885Y2902127D01*
X792352Y2902314D01*
X792825Y2902490D01*
X793301Y2902654D01*
X793782Y2902806D01*
X794265Y2902946D01*
X794753Y2903075D01*
X795243Y2903191D01*
X795736Y2903295D01*
X796231Y2903388D01*
X796728Y2903468D01*
X797228Y2903536D01*
X797729Y2903591D01*
X798230Y2903634D01*
X798733Y2903665D01*
X799237Y2903684D01*
X799741Y2903690D01*
X820269Y2903690D01*
X880128Y2903690D02*
X849334Y2811310D01*
X910921Y2811310D02*
X880128Y2903690D01*
X903223Y2834405D02*
X857033Y2834405D01*
X947466Y2811310D02*
X947466Y2903690D01*
X998788Y2811310D01*
X998788Y2903690D01*
X585940Y3183368D02*
X493560Y3183368D01*
X534618Y3183368D02*
X534618Y3234690D01*
X493560Y3234690D02*
X585940Y3234690D01*
X1192060Y3193633D02*
X1284440Y3193633D01*
X1284440Y3234690D01*
X1391868Y3042691D02*
X1391868Y3027294D01*
X1391868Y3042691D02*
X1443190Y3042691D01*
X1443190Y3011897D01*
X1443184Y3011401D01*
X1443166Y3010905D01*
X1443136Y3010410D01*
X1443094Y3009916D01*
X1443040Y3009423D01*
X1442975Y3008931D01*
X1442897Y3008441D01*
X1442808Y3007953D01*
X1442706Y3007467D01*
X1442593Y3006984D01*
X1442469Y3006504D01*
X1442333Y3006027D01*
X1442185Y3005553D01*
X1442026Y3005083D01*
X1441856Y3004617D01*
X1441674Y3004156D01*
X1441482Y3003698D01*
X1441278Y3003246D01*
X1441064Y3002799D01*
X1440839Y3002357D01*
X1440603Y3001920D01*
X1440356Y3001490D01*
X1440100Y3001065D01*
X1439833Y3000647D01*
X1439556Y3000235D01*
X1439269Y2999830D01*
X1438973Y2999433D01*
X1438667Y2999042D01*
X1438352Y2998659D01*
X1438027Y2998284D01*
X1437694Y2997916D01*
X1437352Y2997557D01*
X1437001Y2997206D01*
X1436642Y2996864D01*
X1436274Y2996531D01*
X1435899Y2996206D01*
X1435516Y2995891D01*
X1435125Y2995585D01*
X1434728Y2995289D01*
X1434323Y2995002D01*
X1433911Y2994725D01*
X1433493Y2994458D01*
X1433068Y2994202D01*
X1432638Y2993955D01*
X1432201Y2993719D01*
X1431759Y2993494D01*
X1431312Y2993280D01*
X1430860Y2993076D01*
X1430402Y2992884D01*
X1429941Y2992702D01*
X1429475Y2992532D01*
X1429005Y2992373D01*
X1428531Y2992225D01*
X1428054Y2992089D01*
X1427574Y2991965D01*
X1427091Y2991852D01*
X1426605Y2991750D01*
X1426117Y2991661D01*
X1425627Y2991583D01*
X1425135Y2991518D01*
X1424642Y2991464D01*
X1424148Y2991422D01*
X1423653Y2991392D01*
X1423157Y2991374D01*
X1422661Y2991368D01*
X1371339Y2991368D01*
X1371339Y2991369D02*
X1370835Y2991375D01*
X1370332Y2991394D01*
X1369829Y2991425D01*
X1369327Y2991468D01*
X1368826Y2991523D01*
X1368327Y2991591D01*
X1367829Y2991671D01*
X1367334Y2991763D01*
X1366841Y2991868D01*
X1366351Y2991984D01*
X1365864Y2992113D01*
X1365380Y2992253D01*
X1364900Y2992405D01*
X1364423Y2992569D01*
X1363951Y2992745D01*
X1363483Y2992932D01*
X1363020Y2993130D01*
X1362562Y2993340D01*
X1362109Y2993561D01*
X1361662Y2993793D01*
X1361220Y2994036D01*
X1360785Y2994290D01*
X1360356Y2994554D01*
X1359934Y2994829D01*
X1359518Y2995114D01*
X1359110Y2995409D01*
X1358709Y2995714D01*
X1358316Y2996029D01*
X1357930Y2996353D01*
X1357553Y2996687D01*
X1357184Y2997030D01*
X1356823Y2997382D01*
X1356471Y2997742D01*
X1356128Y2998111D01*
X1355794Y2998489D01*
X1355470Y2998874D01*
X1355155Y2999268D01*
X1354850Y2999669D01*
X1354555Y3000077D01*
X1354270Y3000492D01*
X1353995Y3000915D01*
X1353731Y3001344D01*
X1353477Y3001779D01*
X1353234Y3002220D01*
X1353002Y3002668D01*
X1352781Y3003120D01*
X1352571Y3003578D01*
X1352373Y3004041D01*
X1352186Y3004509D01*
X1352010Y3004982D01*
X1351846Y3005458D01*
X1351694Y3005938D01*
X1351554Y3006422D01*
X1351425Y3006909D01*
X1351309Y3007400D01*
X1351205Y3007892D01*
X1351112Y3008388D01*
X1351032Y3008885D01*
X1350964Y3009384D01*
X1350909Y3009885D01*
X1350866Y3010387D01*
X1350835Y3010890D01*
X1350816Y3011394D01*
X1350810Y3011897D01*
X1350810Y3042691D01*
X1350810Y3087368D02*
X1443190Y3087368D01*
X1443190Y3138690D02*
X1350810Y3087368D01*
X1350810Y3138690D02*
X1443190Y3138690D01*
X1443190Y3183368D02*
X1350810Y3183368D01*
X1350810Y3209029D01*
X1350817Y3209649D01*
X1350840Y3210269D01*
X1350877Y3210888D01*
X1350930Y3211506D01*
X1350997Y3212122D01*
X1351079Y3212737D01*
X1351176Y3213349D01*
X1351288Y3213959D01*
X1351415Y3214566D01*
X1351556Y3215170D01*
X1351711Y3215770D01*
X1351881Y3216367D01*
X1352066Y3216959D01*
X1352265Y3217546D01*
X1352478Y3218129D01*
X1352704Y3218706D01*
X1352945Y3219277D01*
X1353200Y3219843D01*
X1353468Y3220402D01*
X1353749Y3220954D01*
X1354044Y3221500D01*
X1354352Y3222038D01*
X1354673Y3222569D01*
X1355006Y3223092D01*
X1355352Y3223606D01*
X1355711Y3224112D01*
X1356081Y3224609D01*
X1356464Y3225098D01*
X1356858Y3225576D01*
X1357263Y3226045D01*
X1357680Y3226505D01*
X1358108Y3226954D01*
X1358546Y3227392D01*
X1358995Y3227820D01*
X1359455Y3228237D01*
X1359924Y3228642D01*
X1360402Y3229036D01*
X1360891Y3229419D01*
X1361388Y3229789D01*
X1361894Y3230148D01*
X1362408Y3230494D01*
X1362931Y3230827D01*
X1363462Y3231148D01*
X1364000Y3231456D01*
X1364546Y3231751D01*
X1365098Y3232032D01*
X1365657Y3232300D01*
X1366223Y3232555D01*
X1366794Y3232796D01*
X1367371Y3233022D01*
X1367954Y3233235D01*
X1368541Y3233434D01*
X1369133Y3233619D01*
X1369730Y3233789D01*
X1370330Y3233944D01*
X1370934Y3234085D01*
X1371541Y3234212D01*
X1372151Y3234324D01*
X1372763Y3234421D01*
X1373378Y3234503D01*
X1373994Y3234570D01*
X1374612Y3234623D01*
X1375231Y3234660D01*
X1375851Y3234683D01*
X1376471Y3234690D01*
X1417529Y3234690D01*
X1418149Y3234683D01*
X1418769Y3234660D01*
X1419388Y3234623D01*
X1420006Y3234570D01*
X1420622Y3234503D01*
X1421237Y3234421D01*
X1421849Y3234324D01*
X1422459Y3234212D01*
X1423066Y3234085D01*
X1423670Y3233944D01*
X1424270Y3233789D01*
X1424867Y3233619D01*
X1425459Y3233434D01*
X1426046Y3233235D01*
X1426629Y3233022D01*
X1427206Y3232796D01*
X1427777Y3232555D01*
X1428343Y3232300D01*
X1428902Y3232032D01*
X1429454Y3231751D01*
X1430000Y3231456D01*
X1430538Y3231148D01*
X1431069Y3230827D01*
X1431592Y3230494D01*
X1432106Y3230148D01*
X1432612Y3229789D01*
X1433110Y3229419D01*
X1433598Y3229036D01*
X1434076Y3228642D01*
X1434545Y3228236D01*
X1435005Y3227820D01*
X1435454Y3227392D01*
X1435892Y3226953D01*
X1436320Y3226504D01*
X1436737Y3226045D01*
X1437142Y3225576D01*
X1437536Y3225097D01*
X1437919Y3224609D01*
X1438289Y3224112D01*
X1438648Y3223606D01*
X1438994Y3223091D01*
X1439327Y3222569D01*
X1439648Y3222038D01*
X1439956Y3221500D01*
X1440251Y3220954D01*
X1440532Y3220402D01*
X1440800Y3219842D01*
X1441055Y3219277D01*
X1441296Y3218705D01*
X1441523Y3218128D01*
X1441735Y3217546D01*
X1441934Y3216958D01*
X1442119Y3216366D01*
X1442289Y3215770D01*
X1442444Y3215170D01*
X1442586Y3214566D01*
X1442712Y3213959D01*
X1442824Y3213349D01*
X1442921Y3212736D01*
X1443003Y3212122D01*
X1443070Y3211505D01*
X1443123Y3210887D01*
X1443160Y3210268D01*
X1443183Y3209649D01*
X1443190Y3209029D01*
X1443190Y3183368D01*
X2090368Y2944199D02*
X2090368Y2918538D01*
X2090368Y2944199D02*
X2090376Y2944824D01*
X2090398Y2945448D01*
X2090436Y2946072D01*
X2090490Y2946695D01*
X2090558Y2947316D01*
X2090641Y2947935D01*
X2090740Y2948552D01*
X2090853Y2949167D01*
X2090982Y2949778D01*
X2091125Y2950387D01*
X2091283Y2950991D01*
X2091456Y2951592D01*
X2091643Y2952188D01*
X2091845Y2952780D01*
X2092061Y2953366D01*
X2092292Y2953947D01*
X2092536Y2954522D01*
X2092794Y2955091D01*
X2093066Y2955654D01*
X2093352Y2956209D01*
X2093651Y2956758D01*
X2093964Y2957299D01*
X2094289Y2957833D01*
X2094628Y2958358D01*
X2094979Y2958875D01*
X2095343Y2959383D01*
X2095718Y2959882D01*
X2096106Y2960372D01*
X2096506Y2960853D01*
X2096917Y2961323D01*
X2097340Y2961783D01*
X2097774Y2962233D01*
X2098218Y2962672D01*
X2098673Y2963101D01*
X2099139Y2963518D01*
X2099614Y2963923D01*
X2100100Y2964317D01*
X2100594Y2964699D01*
X2101098Y2965069D01*
X2101611Y2965426D01*
X2102132Y2965771D01*
X2102661Y2966103D01*
X2103199Y2966422D01*
X2103743Y2966728D01*
X2104296Y2967020D01*
X2104855Y2967299D01*
X2105421Y2967565D01*
X2105993Y2967816D01*
X2106571Y2968053D01*
X2107155Y2968277D01*
X2107744Y2968486D01*
X2108337Y2968680D01*
X2108936Y2968860D01*
X2109538Y2969026D01*
X2110145Y2969176D01*
X2110755Y2969312D01*
X2111368Y2969433D01*
X2111984Y2969539D01*
X2112602Y2969630D01*
X2113222Y2969706D01*
X2113844Y2969767D01*
X2114468Y2969812D01*
X2115092Y2969843D01*
X2115717Y2969858D01*
X2116341Y2969858D01*
X2116966Y2969843D01*
X2117590Y2969812D01*
X2118214Y2969767D01*
X2118836Y2969706D01*
X2119456Y2969630D01*
X2120074Y2969539D01*
X2120690Y2969433D01*
X2121303Y2969312D01*
X2121913Y2969176D01*
X2122520Y2969026D01*
X2123122Y2968860D01*
X2123721Y2968680D01*
X2124314Y2968486D01*
X2124903Y2968277D01*
X2125487Y2968053D01*
X2126065Y2967816D01*
X2126637Y2967565D01*
X2127203Y2967299D01*
X2127762Y2967020D01*
X2128315Y2966728D01*
X2128860Y2966422D01*
X2129397Y2966103D01*
X2129926Y2965771D01*
X2130447Y2965426D01*
X2130960Y2965069D01*
X2131464Y2964699D01*
X2131958Y2964317D01*
X2132444Y2963923D01*
X2132919Y2963518D01*
X2133385Y2963101D01*
X2133840Y2962672D01*
X2134284Y2962233D01*
X2134718Y2961783D01*
X2135141Y2961323D01*
X2135552Y2960853D01*
X2135952Y2960372D01*
X2136340Y2959882D01*
X2136715Y2959383D01*
X2137079Y2958875D01*
X2137430Y2958358D01*
X2137769Y2957833D01*
X2138094Y2957299D01*
X2138407Y2956758D01*
X2138706Y2956209D01*
X2138992Y2955654D01*
X2139264Y2955091D01*
X2139522Y2954522D01*
X2139766Y2953947D01*
X2139997Y2953366D01*
X2140213Y2952780D01*
X2140415Y2952188D01*
X2140602Y2951592D01*
X2140775Y2950991D01*
X2140933Y2950387D01*
X2141076Y2949778D01*
X2141205Y2949167D01*
X2141318Y2948552D01*
X2141417Y2947935D01*
X2141500Y2947316D01*
X2141568Y2946695D01*
X2141622Y2946072D01*
X2141660Y2945448D01*
X2141682Y2944824D01*
X2141690Y2944199D01*
X2141690Y2918538D01*
X2049310Y2918538D01*
X2049310Y2944199D01*
X2049316Y2944699D01*
X2049334Y2945199D01*
X2049365Y2945698D01*
X2049407Y2946196D01*
X2049462Y2946693D01*
X2049529Y2947188D01*
X2049608Y2947682D01*
X2049698Y2948173D01*
X2049801Y2948663D01*
X2049916Y2949149D01*
X2050042Y2949633D01*
X2050180Y2950113D01*
X2050330Y2950590D01*
X2050492Y2951064D01*
X2050665Y2951533D01*
X2050849Y2951997D01*
X2051044Y2952457D01*
X2051251Y2952913D01*
X2051469Y2953363D01*
X2051697Y2953807D01*
X2051937Y2954246D01*
X2052187Y2954679D01*
X2052447Y2955106D01*
X2052718Y2955526D01*
X2052999Y2955940D01*
X2053290Y2956346D01*
X2053590Y2956746D01*
X2053901Y2957138D01*
X2054221Y2957522D01*
X2054550Y2957898D01*
X2054888Y2958267D01*
X2055235Y2958627D01*
X2055590Y2958978D01*
X2055954Y2959320D01*
X2056327Y2959654D01*
X2056707Y2959979D01*
X2057095Y2960294D01*
X2057491Y2960599D01*
X2057894Y2960895D01*
X2058304Y2961181D01*
X2058721Y2961457D01*
X2059145Y2961722D01*
X2059575Y2961978D01*
X2060010Y2962222D01*
X2060452Y2962456D01*
X2060900Y2962679D01*
X2061352Y2962892D01*
X2061810Y2963093D01*
X2062272Y2963283D01*
X2062739Y2963461D01*
X2063211Y2963628D01*
X2063686Y2963784D01*
X2064164Y2963928D01*
X2064647Y2964060D01*
X2065132Y2964181D01*
X2065620Y2964290D01*
X2066110Y2964387D01*
X2066603Y2964471D01*
X2067097Y2964544D01*
X2067594Y2964605D01*
X2068091Y2964653D01*
X2068590Y2964690D01*
X2069089Y2964714D01*
X2069589Y2964726D01*
X2070089Y2964726D01*
X2070589Y2964714D01*
X2071088Y2964690D01*
X2071587Y2964653D01*
X2072084Y2964605D01*
X2072581Y2964544D01*
X2073075Y2964471D01*
X2073568Y2964387D01*
X2074058Y2964290D01*
X2074546Y2964181D01*
X2075031Y2964060D01*
X2075514Y2963928D01*
X2075992Y2963784D01*
X2076467Y2963628D01*
X2076939Y2963461D01*
X2077406Y2963283D01*
X2077868Y2963093D01*
X2078326Y2962892D01*
X2078778Y2962679D01*
X2079226Y2962456D01*
X2079668Y2962222D01*
X2080104Y2961978D01*
X2080533Y2961722D01*
X2080957Y2961457D01*
X2081374Y2961181D01*
X2081784Y2960895D01*
X2082187Y2960599D01*
X2082583Y2960294D01*
X2082971Y2959979D01*
X2083351Y2959654D01*
X2083724Y2959320D01*
X2084088Y2958978D01*
X2084443Y2958627D01*
X2084790Y2958267D01*
X2085128Y2957898D01*
X2085457Y2957522D01*
X2085777Y2957138D01*
X2086088Y2956746D01*
X2086388Y2956346D01*
X2086679Y2955940D01*
X2086960Y2955526D01*
X2087231Y2955106D01*
X2087491Y2954679D01*
X2087741Y2954246D01*
X2087981Y2953807D01*
X2088209Y2953363D01*
X2088427Y2952913D01*
X2088634Y2952457D01*
X2088829Y2951997D01*
X2089013Y2951533D01*
X2089186Y2951064D01*
X2089348Y2950590D01*
X2089498Y2950113D01*
X2089636Y2949633D01*
X2089762Y2949149D01*
X2089877Y2948663D01*
X2089980Y2948173D01*
X2090070Y2947682D01*
X2090149Y2947188D01*
X2090216Y2946693D01*
X2090271Y2946196D01*
X2090313Y2945698D01*
X2090344Y2945199D01*
X2090362Y2944699D01*
X2090368Y2944199D01*
X2141690Y2999104D02*
X2049310Y3029897D01*
X2141690Y3060691D01*
X2118595Y3052992D02*
X2118595Y3006802D01*
X2141690Y3113897D02*
X2049310Y3113897D01*
X2049310Y3088236D02*
X2049310Y3139558D01*
X2105765Y3173103D02*
X2105765Y3234690D01*
X2136558Y3203897D02*
X2074971Y3203897D01*
X2300440Y3036421D02*
X2300440Y3015892D01*
X2300434Y3015396D01*
X2300416Y3014900D01*
X2300386Y3014405D01*
X2300344Y3013911D01*
X2300290Y3013418D01*
X2300225Y3012926D01*
X2300147Y3012436D01*
X2300058Y3011948D01*
X2299956Y3011462D01*
X2299843Y3010979D01*
X2299719Y3010499D01*
X2299583Y3010022D01*
X2299435Y3009548D01*
X2299276Y3009078D01*
X2299106Y3008612D01*
X2298924Y3008151D01*
X2298732Y3007693D01*
X2298528Y3007241D01*
X2298314Y3006794D01*
X2298089Y3006352D01*
X2297853Y3005915D01*
X2297606Y3005485D01*
X2297350Y3005060D01*
X2297083Y3004642D01*
X2296806Y3004230D01*
X2296519Y3003825D01*
X2296223Y3003428D01*
X2295917Y3003037D01*
X2295602Y3002654D01*
X2295277Y3002279D01*
X2294944Y3001911D01*
X2294602Y3001552D01*
X2294251Y3001201D01*
X2293892Y3000859D01*
X2293524Y3000526D01*
X2293149Y3000201D01*
X2292766Y2999886D01*
X2292375Y2999580D01*
X2291978Y2999284D01*
X2291573Y2998997D01*
X2291161Y2998720D01*
X2290743Y2998453D01*
X2290318Y2998197D01*
X2289888Y2997950D01*
X2289451Y2997714D01*
X2289009Y2997489D01*
X2288562Y2997275D01*
X2288110Y2997071D01*
X2287652Y2996879D01*
X2287191Y2996697D01*
X2286725Y2996527D01*
X2286255Y2996368D01*
X2285781Y2996220D01*
X2285304Y2996084D01*
X2284824Y2995960D01*
X2284341Y2995847D01*
X2283855Y2995745D01*
X2283367Y2995656D01*
X2282877Y2995578D01*
X2282385Y2995513D01*
X2281892Y2995459D01*
X2281398Y2995417D01*
X2280903Y2995387D01*
X2280407Y2995369D01*
X2279911Y2995363D01*
X2228589Y2995363D01*
X2228589Y2995364D02*
X2228085Y2995370D01*
X2227582Y2995389D01*
X2227079Y2995420D01*
X2226577Y2995463D01*
X2226076Y2995518D01*
X2225577Y2995586D01*
X2225079Y2995666D01*
X2224584Y2995758D01*
X2224091Y2995863D01*
X2223601Y2995979D01*
X2223114Y2996108D01*
X2222630Y2996248D01*
X2222150Y2996400D01*
X2221673Y2996564D01*
X2221201Y2996740D01*
X2220733Y2996927D01*
X2220270Y2997125D01*
X2219812Y2997335D01*
X2219359Y2997556D01*
X2218912Y2997788D01*
X2218470Y2998031D01*
X2218035Y2998285D01*
X2217606Y2998549D01*
X2217184Y2998824D01*
X2216768Y2999109D01*
X2216360Y2999404D01*
X2215959Y2999709D01*
X2215566Y3000024D01*
X2215180Y3000348D01*
X2214803Y3000682D01*
X2214434Y3001025D01*
X2214073Y3001377D01*
X2213721Y3001737D01*
X2213378Y3002106D01*
X2213044Y3002484D01*
X2212720Y3002869D01*
X2212405Y3003263D01*
X2212100Y3003664D01*
X2211805Y3004072D01*
X2211520Y3004487D01*
X2211245Y3004910D01*
X2210981Y3005339D01*
X2210727Y3005774D01*
X2210484Y3006215D01*
X2210252Y3006663D01*
X2210031Y3007115D01*
X2209821Y3007573D01*
X2209623Y3008036D01*
X2209436Y3008504D01*
X2209260Y3008977D01*
X2209096Y3009453D01*
X2208944Y3009933D01*
X2208804Y3010417D01*
X2208675Y3010904D01*
X2208559Y3011395D01*
X2208455Y3011887D01*
X2208362Y3012383D01*
X2208282Y3012880D01*
X2208214Y3013379D01*
X2208159Y3013880D01*
X2208116Y3014382D01*
X2208085Y3014885D01*
X2208066Y3015389D01*
X2208060Y3015892D01*
X2208060Y3036421D01*
X2208060Y3090279D02*
X2300440Y3090279D01*
X2208060Y3064618D02*
X2208060Y3115940D01*
X2208060Y3151618D02*
X2300440Y3151618D01*
X2208060Y3151618D02*
X2208060Y3177279D01*
X2208067Y3177899D01*
X2208090Y3178519D01*
X2208127Y3179138D01*
X2208180Y3179756D01*
X2208247Y3180372D01*
X2208329Y3180987D01*
X2208426Y3181599D01*
X2208538Y3182209D01*
X2208665Y3182816D01*
X2208806Y3183420D01*
X2208961Y3184020D01*
X2209131Y3184617D01*
X2209316Y3185209D01*
X2209515Y3185796D01*
X2209728Y3186379D01*
X2209954Y3186956D01*
X2210195Y3187527D01*
X2210450Y3188093D01*
X2210718Y3188652D01*
X2210999Y3189204D01*
X2211294Y3189750D01*
X2211602Y3190288D01*
X2211923Y3190819D01*
X2212256Y3191342D01*
X2212602Y3191856D01*
X2212961Y3192362D01*
X2213331Y3192859D01*
X2213714Y3193348D01*
X2214108Y3193826D01*
X2214513Y3194295D01*
X2214930Y3194755D01*
X2215358Y3195204D01*
X2215796Y3195642D01*
X2216245Y3196070D01*
X2216705Y3196487D01*
X2217174Y3196892D01*
X2217652Y3197286D01*
X2218141Y3197669D01*
X2218638Y3198039D01*
X2219144Y3198398D01*
X2219658Y3198744D01*
X2220181Y3199077D01*
X2220712Y3199398D01*
X2221250Y3199706D01*
X2221796Y3200001D01*
X2222348Y3200282D01*
X2222907Y3200550D01*
X2223473Y3200805D01*
X2224044Y3201046D01*
X2224621Y3201272D01*
X2225204Y3201485D01*
X2225791Y3201684D01*
X2226383Y3201869D01*
X2226980Y3202039D01*
X2227580Y3202194D01*
X2228184Y3202335D01*
X2228791Y3202462D01*
X2229401Y3202574D01*
X2230013Y3202671D01*
X2230628Y3202753D01*
X2231244Y3202820D01*
X2231862Y3202873D01*
X2232481Y3202910D01*
X2233101Y3202933D01*
X2233721Y3202940D01*
X2274779Y3202940D01*
X2275399Y3202933D01*
X2276019Y3202910D01*
X2276638Y3202873D01*
X2277256Y3202820D01*
X2277872Y3202753D01*
X2278487Y3202671D01*
X2279099Y3202574D01*
X2279709Y3202462D01*
X2280316Y3202335D01*
X2280920Y3202194D01*
X2281520Y3202039D01*
X2282117Y3201869D01*
X2282709Y3201684D01*
X2283296Y3201485D01*
X2283879Y3201272D01*
X2284456Y3201046D01*
X2285027Y3200805D01*
X2285593Y3200550D01*
X2286152Y3200282D01*
X2286704Y3200001D01*
X2287250Y3199706D01*
X2287788Y3199398D01*
X2288319Y3199077D01*
X2288842Y3198744D01*
X2289356Y3198398D01*
X2289862Y3198039D01*
X2290360Y3197669D01*
X2290848Y3197286D01*
X2291326Y3196892D01*
X2291795Y3196486D01*
X2292255Y3196070D01*
X2292704Y3195642D01*
X2293142Y3195203D01*
X2293570Y3194754D01*
X2293987Y3194295D01*
X2294392Y3193826D01*
X2294786Y3193347D01*
X2295169Y3192859D01*
X2295539Y3192362D01*
X2295898Y3191856D01*
X2296244Y3191341D01*
X2296577Y3190819D01*
X2296898Y3190288D01*
X2297206Y3189750D01*
X2297501Y3189204D01*
X2297782Y3188652D01*
X2298050Y3188092D01*
X2298305Y3187527D01*
X2298546Y3186955D01*
X2298773Y3186378D01*
X2298985Y3185796D01*
X2299184Y3185208D01*
X2299369Y3184616D01*
X2299539Y3184020D01*
X2299694Y3183420D01*
X2299836Y3182816D01*
X2299962Y3182209D01*
X2300074Y3181599D01*
X2300171Y3180986D01*
X2300253Y3180372D01*
X2300320Y3179755D01*
X2300373Y3179137D01*
X2300410Y3178518D01*
X2300433Y3177899D01*
X2300440Y3177279D01*
X2300440Y3151618D01*
X2531676Y2903690D02*
X2531676Y2811310D01*
X2572734Y2811310D01*
X2609676Y2811310D02*
X2650733Y2811310D01*
X2609676Y2811310D02*
X2609676Y2903690D01*
X2650733Y2903690D01*
X2640469Y2862632D02*
X2609676Y2862632D01*
X2687502Y2903690D02*
X2687502Y2811310D01*
X2687502Y2903690D02*
X2713163Y2903690D01*
X2713783Y2903683D01*
X2714403Y2903660D01*
X2715022Y2903623D01*
X2715640Y2903570D01*
X2716256Y2903503D01*
X2716871Y2903421D01*
X2717483Y2903324D01*
X2718093Y2903212D01*
X2718700Y2903085D01*
X2719304Y2902944D01*
X2719904Y2902789D01*
X2720501Y2902619D01*
X2721093Y2902434D01*
X2721680Y2902235D01*
X2722263Y2902022D01*
X2722840Y2901796D01*
X2723411Y2901555D01*
X2723977Y2901300D01*
X2724536Y2901032D01*
X2725088Y2900751D01*
X2725634Y2900456D01*
X2726172Y2900148D01*
X2726703Y2899827D01*
X2727226Y2899494D01*
X2727740Y2899148D01*
X2728246Y2898789D01*
X2728743Y2898419D01*
X2729232Y2898036D01*
X2729710Y2897642D01*
X2730179Y2897237D01*
X2730639Y2896820D01*
X2731088Y2896392D01*
X2731526Y2895954D01*
X2731954Y2895505D01*
X2732371Y2895045D01*
X2732776Y2894576D01*
X2733170Y2894098D01*
X2733553Y2893609D01*
X2733923Y2893112D01*
X2734282Y2892606D01*
X2734628Y2892092D01*
X2734961Y2891569D01*
X2735282Y2891038D01*
X2735590Y2890500D01*
X2735885Y2889954D01*
X2736166Y2889402D01*
X2736434Y2888843D01*
X2736689Y2888277D01*
X2736930Y2887706D01*
X2737156Y2887129D01*
X2737369Y2886546D01*
X2737568Y2885959D01*
X2737753Y2885367D01*
X2737923Y2884770D01*
X2738078Y2884170D01*
X2738219Y2883566D01*
X2738346Y2882959D01*
X2738458Y2882349D01*
X2738555Y2881737D01*
X2738637Y2881122D01*
X2738704Y2880506D01*
X2738757Y2879888D01*
X2738794Y2879269D01*
X2738817Y2878649D01*
X2738824Y2878029D01*
X2738824Y2836971D01*
X2738817Y2836351D01*
X2738794Y2835731D01*
X2738757Y2835112D01*
X2738704Y2834494D01*
X2738637Y2833878D01*
X2738555Y2833263D01*
X2738458Y2832651D01*
X2738346Y2832041D01*
X2738219Y2831434D01*
X2738078Y2830830D01*
X2737923Y2830230D01*
X2737753Y2829633D01*
X2737568Y2829041D01*
X2737369Y2828454D01*
X2737156Y2827871D01*
X2736930Y2827294D01*
X2736689Y2826723D01*
X2736434Y2826157D01*
X2736166Y2825598D01*
X2735885Y2825046D01*
X2735590Y2824500D01*
X2735282Y2823962D01*
X2734961Y2823431D01*
X2734628Y2822908D01*
X2734282Y2822394D01*
X2733923Y2821888D01*
X2733553Y2821390D01*
X2733170Y2820902D01*
X2732776Y2820424D01*
X2732370Y2819955D01*
X2731954Y2819495D01*
X2731526Y2819046D01*
X2731087Y2818608D01*
X2730638Y2818180D01*
X2730179Y2817763D01*
X2729710Y2817358D01*
X2729231Y2816964D01*
X2728743Y2816581D01*
X2728246Y2816211D01*
X2727740Y2815852D01*
X2727225Y2815506D01*
X2726703Y2815173D01*
X2726172Y2814852D01*
X2725634Y2814544D01*
X2725088Y2814249D01*
X2724536Y2813968D01*
X2723976Y2813700D01*
X2723411Y2813445D01*
X2722839Y2813204D01*
X2722262Y2812977D01*
X2721680Y2812765D01*
X2721092Y2812566D01*
X2720500Y2812381D01*
X2719904Y2812211D01*
X2719304Y2812056D01*
X2718700Y2811914D01*
X2718093Y2811788D01*
X2717483Y2811676D01*
X2716870Y2811579D01*
X2716256Y2811497D01*
X2715639Y2811430D01*
X2715021Y2811377D01*
X2714402Y2811340D01*
X2713783Y2811317D01*
X2713163Y2811310D01*
X2687502Y2811310D01*
X2906560Y2988279D02*
X2998940Y2957486D01*
X2998940Y3019073D02*
X2906560Y2988279D01*
X2975845Y3011374D02*
X2975845Y2965184D01*
X2998940Y3055618D02*
X2906560Y3055618D01*
X2998940Y3106940D01*
X2906560Y3106940D01*
X2906560Y3151618D02*
X2998940Y3151618D01*
X2906560Y3151618D02*
X2906560Y3177279D01*
X2906567Y3177899D01*
X2906590Y3178519D01*
X2906627Y3179138D01*
X2906680Y3179756D01*
X2906747Y3180372D01*
X2906829Y3180987D01*
X2906926Y3181599D01*
X2907038Y3182209D01*
X2907165Y3182816D01*
X2907306Y3183420D01*
X2907461Y3184020D01*
X2907631Y3184617D01*
X2907816Y3185209D01*
X2908015Y3185796D01*
X2908228Y3186379D01*
X2908454Y3186956D01*
X2908695Y3187527D01*
X2908950Y3188093D01*
X2909218Y3188652D01*
X2909499Y3189204D01*
X2909794Y3189750D01*
X2910102Y3190288D01*
X2910423Y3190819D01*
X2910756Y3191342D01*
X2911102Y3191856D01*
X2911461Y3192362D01*
X2911831Y3192859D01*
X2912214Y3193348D01*
X2912608Y3193826D01*
X2913013Y3194295D01*
X2913430Y3194755D01*
X2913858Y3195204D01*
X2914296Y3195642D01*
X2914745Y3196070D01*
X2915205Y3196487D01*
X2915674Y3196892D01*
X2916152Y3197286D01*
X2916641Y3197669D01*
X2917138Y3198039D01*
X2917644Y3198398D01*
X2918158Y3198744D01*
X2918681Y3199077D01*
X2919212Y3199398D01*
X2919750Y3199706D01*
X2920296Y3200001D01*
X2920848Y3200282D01*
X2921407Y3200550D01*
X2921973Y3200805D01*
X2922544Y3201046D01*
X2923121Y3201272D01*
X2923704Y3201485D01*
X2924291Y3201684D01*
X2924883Y3201869D01*
X2925480Y3202039D01*
X2926080Y3202194D01*
X2926684Y3202335D01*
X2927291Y3202462D01*
X2927901Y3202574D01*
X2928513Y3202671D01*
X2929128Y3202753D01*
X2929744Y3202820D01*
X2930362Y3202873D01*
X2930981Y3202910D01*
X2931601Y3202933D01*
X2932221Y3202940D01*
X2973279Y3202940D01*
X2973899Y3202933D01*
X2974519Y3202910D01*
X2975138Y3202873D01*
X2975756Y3202820D01*
X2976372Y3202753D01*
X2976987Y3202671D01*
X2977599Y3202574D01*
X2978209Y3202462D01*
X2978816Y3202335D01*
X2979420Y3202194D01*
X2980020Y3202039D01*
X2980617Y3201869D01*
X2981209Y3201684D01*
X2981796Y3201485D01*
X2982379Y3201272D01*
X2982956Y3201046D01*
X2983527Y3200805D01*
X2984093Y3200550D01*
X2984652Y3200282D01*
X2985204Y3200001D01*
X2985750Y3199706D01*
X2986288Y3199398D01*
X2986819Y3199077D01*
X2987342Y3198744D01*
X2987856Y3198398D01*
X2988362Y3198039D01*
X2988860Y3197669D01*
X2989348Y3197286D01*
X2989826Y3196892D01*
X2990295Y3196486D01*
X2990755Y3196070D01*
X2991204Y3195642D01*
X2991642Y3195203D01*
X2992070Y3194754D01*
X2992487Y3194295D01*
X2992892Y3193826D01*
X2993286Y3193347D01*
X2993669Y3192859D01*
X2994039Y3192362D01*
X2994398Y3191856D01*
X2994744Y3191341D01*
X2995077Y3190819D01*
X2995398Y3190288D01*
X2995706Y3189750D01*
X2996001Y3189204D01*
X2996282Y3188652D01*
X2996550Y3188092D01*
X2996805Y3187527D01*
X2997046Y3186955D01*
X2997273Y3186378D01*
X2997485Y3185796D01*
X2997684Y3185208D01*
X2997869Y3184616D01*
X2998039Y3184020D01*
X2998194Y3183420D01*
X2998336Y3182816D01*
X2998462Y3182209D01*
X2998574Y3181599D01*
X2998671Y3180986D01*
X2998753Y3180372D01*
X2998820Y3179755D01*
X2998873Y3179137D01*
X2998910Y3178518D01*
X2998933Y3177899D01*
X2998940Y3177279D01*
X2998940Y3151618D01*
D12*
X2322460Y1703773D02*
X2277540Y1703773D01*
X2277540Y1716250D01*
X2277544Y1716552D01*
X2277555Y1716853D01*
X2277573Y1717154D01*
X2277598Y1717454D01*
X2277631Y1717754D01*
X2277671Y1718053D01*
X2277718Y1718351D01*
X2277772Y1718647D01*
X2277834Y1718943D01*
X2277903Y1719236D01*
X2277978Y1719528D01*
X2278061Y1719818D01*
X2278151Y1720106D01*
X2278247Y1720392D01*
X2278351Y1720675D01*
X2278461Y1720955D01*
X2278578Y1721233D01*
X2278702Y1721508D01*
X2278832Y1721780D01*
X2278969Y1722049D01*
X2279113Y1722314D01*
X2279262Y1722576D01*
X2279418Y1722834D01*
X2279581Y1723088D01*
X2279749Y1723338D01*
X2279923Y1723584D01*
X2280103Y1723826D01*
X2280289Y1724064D01*
X2280481Y1724296D01*
X2280678Y1724525D01*
X2280881Y1724748D01*
X2281089Y1724966D01*
X2281302Y1725179D01*
X2281520Y1725387D01*
X2281744Y1725590D01*
X2281972Y1725787D01*
X2282205Y1725979D01*
X2282442Y1726165D01*
X2282684Y1726345D01*
X2282930Y1726519D01*
X2283180Y1726688D01*
X2283434Y1726850D01*
X2283692Y1727006D01*
X2283954Y1727155D01*
X2284219Y1727299D01*
X2284488Y1727436D01*
X2284760Y1727566D01*
X2285035Y1727690D01*
X2285313Y1727807D01*
X2285593Y1727917D01*
X2285877Y1728021D01*
X2286162Y1728117D01*
X2286450Y1728207D01*
X2286740Y1728290D01*
X2287032Y1728365D01*
X2287326Y1728434D01*
X2287621Y1728496D01*
X2287918Y1728550D01*
X2288215Y1728597D01*
X2288514Y1728637D01*
X2288814Y1728670D01*
X2289114Y1728695D01*
X2289415Y1728713D01*
X2289717Y1728724D01*
X2290018Y1728728D01*
X2309983Y1728728D01*
X2310285Y1728724D01*
X2310586Y1728713D01*
X2310887Y1728695D01*
X2311187Y1728670D01*
X2311487Y1728637D01*
X2311786Y1728597D01*
X2312084Y1728550D01*
X2312380Y1728496D01*
X2312676Y1728434D01*
X2312969Y1728365D01*
X2313261Y1728290D01*
X2313551Y1728207D01*
X2313839Y1728117D01*
X2314125Y1728021D01*
X2314408Y1727917D01*
X2314688Y1727807D01*
X2314966Y1727690D01*
X2315241Y1727566D01*
X2315513Y1727436D01*
X2315782Y1727299D01*
X2316047Y1727155D01*
X2316309Y1727006D01*
X2316567Y1726850D01*
X2316821Y1726687D01*
X2317071Y1726519D01*
X2317317Y1726345D01*
X2317559Y1726165D01*
X2317797Y1725979D01*
X2318029Y1725787D01*
X2318257Y1725590D01*
X2318481Y1725387D01*
X2318699Y1725179D01*
X2318912Y1724966D01*
X2319120Y1724748D01*
X2319323Y1724524D01*
X2319520Y1724296D01*
X2319712Y1724064D01*
X2319898Y1723826D01*
X2320078Y1723584D01*
X2320252Y1723338D01*
X2320420Y1723088D01*
X2320583Y1722834D01*
X2320739Y1722576D01*
X2320888Y1722314D01*
X2321032Y1722049D01*
X2321169Y1721780D01*
X2321299Y1721508D01*
X2321423Y1721233D01*
X2321540Y1720955D01*
X2321650Y1720675D01*
X2321754Y1720392D01*
X2321850Y1720106D01*
X2321940Y1719818D01*
X2322023Y1719528D01*
X2322098Y1719236D01*
X2322167Y1718943D01*
X2322229Y1718647D01*
X2322283Y1718351D01*
X2322330Y1718053D01*
X2322370Y1717754D01*
X2322403Y1717454D01*
X2322428Y1717154D01*
X2322446Y1716853D01*
X2322457Y1716552D01*
X2322461Y1716250D01*
X2322460Y1716250D02*
X2322460Y1703773D01*
X2322460Y1750273D02*
X2322460Y1765246D01*
X2322457Y1765487D01*
X2322448Y1765728D01*
X2322434Y1765969D01*
X2322413Y1766209D01*
X2322387Y1766449D01*
X2322355Y1766688D01*
X2322318Y1766927D01*
X2322274Y1767164D01*
X2322225Y1767400D01*
X2322170Y1767635D01*
X2322109Y1767868D01*
X2322043Y1768100D01*
X2321971Y1768331D01*
X2321894Y1768559D01*
X2321811Y1768786D01*
X2321723Y1769010D01*
X2321629Y1769232D01*
X2321530Y1769452D01*
X2321426Y1769670D01*
X2321317Y1769885D01*
X2321202Y1770097D01*
X2321082Y1770306D01*
X2320957Y1770513D01*
X2320828Y1770716D01*
X2320693Y1770916D01*
X2320554Y1771113D01*
X2320409Y1771307D01*
X2320261Y1771497D01*
X2320107Y1771683D01*
X2319950Y1771865D01*
X2319788Y1772044D01*
X2319621Y1772219D01*
X2319451Y1772389D01*
X2319276Y1772556D01*
X2319097Y1772718D01*
X2318915Y1772875D01*
X2318729Y1773029D01*
X2318539Y1773177D01*
X2318345Y1773322D01*
X2318148Y1773461D01*
X2317948Y1773596D01*
X2317745Y1773725D01*
X2317538Y1773850D01*
X2317329Y1773970D01*
X2317117Y1774085D01*
X2316902Y1774194D01*
X2316684Y1774298D01*
X2316464Y1774397D01*
X2316242Y1774491D01*
X2316018Y1774579D01*
X2315791Y1774662D01*
X2315563Y1774739D01*
X2315332Y1774811D01*
X2315100Y1774877D01*
X2314867Y1774938D01*
X2314632Y1774993D01*
X2314396Y1775042D01*
X2314159Y1775086D01*
X2313920Y1775123D01*
X2313681Y1775155D01*
X2313441Y1775181D01*
X2313201Y1775202D01*
X2312960Y1775216D01*
X2312719Y1775225D01*
X2312478Y1775228D01*
X2307487Y1775228D01*
X2307242Y1775225D01*
X2306997Y1775216D01*
X2306753Y1775201D01*
X2306509Y1775180D01*
X2306265Y1775153D01*
X2306022Y1775120D01*
X2305780Y1775081D01*
X2305539Y1775036D01*
X2305300Y1774985D01*
X2305061Y1774929D01*
X2304824Y1774866D01*
X2304589Y1774798D01*
X2304356Y1774724D01*
X2304124Y1774644D01*
X2303894Y1774559D01*
X2303667Y1774468D01*
X2303442Y1774372D01*
X2303219Y1774270D01*
X2302999Y1774162D01*
X2302781Y1774049D01*
X2302566Y1773931D01*
X2302355Y1773808D01*
X2302146Y1773679D01*
X2301941Y1773546D01*
X2301739Y1773407D01*
X2301540Y1773263D01*
X2301345Y1773115D01*
X2301154Y1772962D01*
X2300966Y1772804D01*
X2300783Y1772642D01*
X2300603Y1772475D01*
X2300428Y1772304D01*
X2300257Y1772129D01*
X2300090Y1771949D01*
X2299928Y1771766D01*
X2299770Y1771578D01*
X2299617Y1771387D01*
X2299469Y1771192D01*
X2299325Y1770993D01*
X2299187Y1770791D01*
X2299053Y1770586D01*
X2298924Y1770377D01*
X2298801Y1770166D01*
X2298683Y1769951D01*
X2298570Y1769734D01*
X2298463Y1769513D01*
X2298361Y1769291D01*
X2298264Y1769066D01*
X2298173Y1768838D01*
X2298088Y1768608D01*
X2298008Y1768377D01*
X2297934Y1768143D01*
X2297866Y1767908D01*
X2297803Y1767671D01*
X2297747Y1767433D01*
X2297696Y1767193D01*
X2297651Y1766952D01*
X2297612Y1766710D01*
X2297579Y1766467D01*
X2297552Y1766224D01*
X2297531Y1765980D01*
X2297516Y1765735D01*
X2297507Y1765490D01*
X2297504Y1765245D01*
X2297505Y1765246D02*
X2297505Y1750273D01*
X2277540Y1750273D01*
X2277540Y1775228D01*
X2283779Y1799015D02*
X2284578Y1798637D01*
X2285386Y1798279D01*
X2286202Y1797940D01*
X2287026Y1797620D01*
X2287857Y1797320D01*
X2288695Y1797040D01*
X2289540Y1796781D01*
X2290390Y1796541D01*
X2291246Y1796322D01*
X2292108Y1796123D01*
X2292973Y1795945D01*
X2293843Y1795788D01*
X2294716Y1795651D01*
X2295592Y1795535D01*
X2296470Y1795441D01*
X2297351Y1795367D01*
X2298233Y1795314D01*
X2299116Y1795283D01*
X2300000Y1795272D01*
X2283779Y1799016D02*
X2283567Y1799091D01*
X2283358Y1799172D01*
X2283150Y1799257D01*
X2282945Y1799348D01*
X2282741Y1799444D01*
X2282541Y1799544D01*
X2282342Y1799650D01*
X2282147Y1799760D01*
X2281954Y1799875D01*
X2281764Y1799994D01*
X2281576Y1800118D01*
X2281392Y1800247D01*
X2281211Y1800380D01*
X2281034Y1800517D01*
X2280860Y1800659D01*
X2280689Y1800805D01*
X2280522Y1800955D01*
X2280358Y1801109D01*
X2280199Y1801267D01*
X2280043Y1801429D01*
X2279891Y1801595D01*
X2279744Y1801764D01*
X2279600Y1801937D01*
X2279461Y1802113D01*
X2279326Y1802292D01*
X2279195Y1802475D01*
X2279069Y1802661D01*
X2278948Y1802850D01*
X2278831Y1803042D01*
X2278719Y1803236D01*
X2278611Y1803433D01*
X2278509Y1803633D01*
X2278411Y1803835D01*
X2278318Y1804040D01*
X2278230Y1804247D01*
X2278148Y1804455D01*
X2278070Y1804666D01*
X2277998Y1804879D01*
X2277931Y1805093D01*
X2277869Y1805309D01*
X2277812Y1805526D01*
X2277760Y1805745D01*
X2277714Y1805965D01*
X2277674Y1806185D01*
X2277638Y1806407D01*
X2277608Y1806630D01*
X2277584Y1806853D01*
X2277565Y1807077D01*
X2277551Y1807301D01*
X2277543Y1807525D01*
X2277540Y1807750D01*
X2277543Y1807975D01*
X2277551Y1808199D01*
X2277565Y1808423D01*
X2277584Y1808647D01*
X2277608Y1808870D01*
X2277638Y1809093D01*
X2277674Y1809315D01*
X2277714Y1809535D01*
X2277760Y1809755D01*
X2277812Y1809974D01*
X2277869Y1810191D01*
X2277931Y1810407D01*
X2277998Y1810621D01*
X2278070Y1810834D01*
X2278148Y1811045D01*
X2278230Y1811253D01*
X2278318Y1811460D01*
X2278411Y1811665D01*
X2278509Y1811867D01*
X2278611Y1812067D01*
X2278719Y1812264D01*
X2278831Y1812458D01*
X2278948Y1812650D01*
X2279069Y1812839D01*
X2279195Y1813025D01*
X2279326Y1813208D01*
X2279461Y1813387D01*
X2279600Y1813563D01*
X2279743Y1813736D01*
X2279891Y1813905D01*
X2280043Y1814071D01*
X2280199Y1814233D01*
X2280358Y1814391D01*
X2280522Y1814545D01*
X2280689Y1814695D01*
X2280859Y1814841D01*
X2281034Y1814982D01*
X2281211Y1815120D01*
X2281392Y1815253D01*
X2281576Y1815382D01*
X2281763Y1815506D01*
X2281954Y1815625D01*
X2282146Y1815740D01*
X2282342Y1815850D01*
X2282541Y1815956D01*
X2282741Y1816056D01*
X2282945Y1816152D01*
X2283150Y1816242D01*
X2283358Y1816328D01*
X2283567Y1816409D01*
X2283779Y1816484D01*
X2284578Y1816862D01*
X2285386Y1817220D01*
X2286202Y1817559D01*
X2287026Y1817879D01*
X2287857Y1818179D01*
X2288695Y1818459D01*
X2289540Y1818718D01*
X2290390Y1818958D01*
X2291246Y1819177D01*
X2292108Y1819376D01*
X2292973Y1819554D01*
X2293843Y1819711D01*
X2294716Y1819848D01*
X2295592Y1819964D01*
X2296470Y1820058D01*
X2297351Y1820132D01*
X2298233Y1820185D01*
X2299116Y1820216D01*
X2300000Y1820227D01*
X2300000Y1795272D02*
X2300884Y1795283D01*
X2301767Y1795314D01*
X2302649Y1795367D01*
X2303530Y1795441D01*
X2304408Y1795535D01*
X2305284Y1795651D01*
X2306157Y1795788D01*
X2307027Y1795945D01*
X2307893Y1796123D01*
X2308754Y1796322D01*
X2309610Y1796541D01*
X2310460Y1796781D01*
X2311305Y1797040D01*
X2312143Y1797320D01*
X2312975Y1797620D01*
X2313799Y1797940D01*
X2314615Y1798279D01*
X2315422Y1798637D01*
X2316221Y1799015D01*
X2316222Y1799016D02*
X2316433Y1799092D01*
X2316643Y1799172D01*
X2316850Y1799258D01*
X2317056Y1799348D01*
X2317259Y1799444D01*
X2317460Y1799544D01*
X2317658Y1799650D01*
X2317854Y1799760D01*
X2318047Y1799875D01*
X2318237Y1799994D01*
X2318424Y1800119D01*
X2318608Y1800247D01*
X2318789Y1800380D01*
X2318967Y1800518D01*
X2319141Y1800659D01*
X2319311Y1800805D01*
X2319479Y1800955D01*
X2319642Y1801109D01*
X2319802Y1801267D01*
X2319957Y1801429D01*
X2320109Y1801595D01*
X2320257Y1801764D01*
X2320400Y1801937D01*
X2320539Y1802113D01*
X2320674Y1802292D01*
X2320805Y1802475D01*
X2320931Y1802661D01*
X2321052Y1802850D01*
X2321169Y1803042D01*
X2321281Y1803236D01*
X2321389Y1803434D01*
X2321491Y1803633D01*
X2321589Y1803836D01*
X2321682Y1804040D01*
X2321770Y1804247D01*
X2321852Y1804456D01*
X2321930Y1804666D01*
X2322002Y1804879D01*
X2322069Y1805093D01*
X2322131Y1805309D01*
X2322188Y1805526D01*
X2322240Y1805745D01*
X2322286Y1805965D01*
X2322326Y1806186D01*
X2322362Y1806407D01*
X2322392Y1806630D01*
X2322416Y1806853D01*
X2322435Y1807077D01*
X2322449Y1807301D01*
X2322457Y1807525D01*
X2322460Y1807750D01*
X2316221Y1816485D02*
X2315422Y1816863D01*
X2314615Y1817221D01*
X2313799Y1817560D01*
X2312975Y1817880D01*
X2312143Y1818180D01*
X2311305Y1818460D01*
X2310460Y1818719D01*
X2309610Y1818959D01*
X2308754Y1819178D01*
X2307893Y1819377D01*
X2307027Y1819555D01*
X2306157Y1819712D01*
X2305284Y1819849D01*
X2304408Y1819965D01*
X2303530Y1820059D01*
X2302649Y1820133D01*
X2301767Y1820186D01*
X2300884Y1820217D01*
X2300000Y1820228D01*
X2316221Y1816485D02*
X2316433Y1816409D01*
X2316642Y1816329D01*
X2316850Y1816243D01*
X2317055Y1816153D01*
X2317259Y1816057D01*
X2317459Y1815956D01*
X2317658Y1815851D01*
X2317853Y1815741D01*
X2318046Y1815626D01*
X2318237Y1815506D01*
X2318424Y1815382D01*
X2318608Y1815254D01*
X2318789Y1815120D01*
X2318966Y1814983D01*
X2319141Y1814841D01*
X2319311Y1814695D01*
X2319478Y1814545D01*
X2319642Y1814391D01*
X2319801Y1814233D01*
X2319957Y1814071D01*
X2320109Y1813906D01*
X2320257Y1813737D01*
X2320400Y1813564D01*
X2320539Y1813388D01*
X2320674Y1813208D01*
X2320805Y1813025D01*
X2320931Y1812839D01*
X2321052Y1812651D01*
X2321169Y1812459D01*
X2321281Y1812264D01*
X2321389Y1812067D01*
X2321491Y1811867D01*
X2321589Y1811665D01*
X2321682Y1811460D01*
X2321770Y1811254D01*
X2321852Y1811045D01*
X2321930Y1810834D01*
X2322002Y1810621D01*
X2322069Y1810407D01*
X2322131Y1810191D01*
X2322188Y1809974D01*
X2322240Y1809755D01*
X2322286Y1809535D01*
X2322326Y1809315D01*
X2322362Y1809093D01*
X2322392Y1808870D01*
X2322416Y1808647D01*
X2322435Y1808423D01*
X2322449Y1808199D01*
X2322457Y1807975D01*
X2322460Y1807750D01*
X2312478Y1797768D02*
X2287523Y1817732D01*
X2287523Y1840272D02*
X2277540Y1852749D01*
X2322460Y1852749D01*
X2322460Y1840272D02*
X2322460Y1865227D01*
D13*
X1590000Y2543000D02*
X1590000Y2703000D01*
X1910000Y2703000D02*
X1910000Y2543000D01*
D12*
X1927540Y2537507D02*
X1972460Y2537507D01*
X1972460Y2532516D02*
X1972460Y2542498D01*
X1927540Y2542498D02*
X1927540Y2532516D01*
X1972460Y2570863D02*
X1972460Y2580845D01*
X1972461Y2570863D02*
X1972458Y2570618D01*
X1972449Y2570373D01*
X1972434Y2570129D01*
X1972413Y2569885D01*
X1972386Y2569641D01*
X1972353Y2569398D01*
X1972314Y2569156D01*
X1972269Y2568915D01*
X1972218Y2568676D01*
X1972162Y2568437D01*
X1972099Y2568200D01*
X1972031Y2567965D01*
X1971957Y2567732D01*
X1971877Y2567500D01*
X1971792Y2567270D01*
X1971701Y2567043D01*
X1971605Y2566818D01*
X1971503Y2566595D01*
X1971395Y2566375D01*
X1971282Y2566157D01*
X1971164Y2565942D01*
X1971041Y2565731D01*
X1970912Y2565522D01*
X1970779Y2565317D01*
X1970640Y2565115D01*
X1970496Y2564916D01*
X1970348Y2564721D01*
X1970195Y2564530D01*
X1970037Y2564342D01*
X1969875Y2564159D01*
X1969708Y2563979D01*
X1969537Y2563804D01*
X1969362Y2563633D01*
X1969182Y2563466D01*
X1968999Y2563304D01*
X1968811Y2563146D01*
X1968620Y2562993D01*
X1968425Y2562845D01*
X1968226Y2562701D01*
X1968024Y2562563D01*
X1967819Y2562429D01*
X1967610Y2562300D01*
X1967399Y2562177D01*
X1967184Y2562059D01*
X1966967Y2561946D01*
X1966746Y2561839D01*
X1966524Y2561737D01*
X1966299Y2561640D01*
X1966071Y2561549D01*
X1965841Y2561464D01*
X1965610Y2561384D01*
X1965376Y2561310D01*
X1965141Y2561242D01*
X1964904Y2561179D01*
X1964666Y2561123D01*
X1964426Y2561072D01*
X1964185Y2561027D01*
X1963943Y2560988D01*
X1963700Y2560955D01*
X1963457Y2560928D01*
X1963213Y2560907D01*
X1962968Y2560892D01*
X1962723Y2560883D01*
X1962478Y2560880D01*
X1962478Y2560881D02*
X1937523Y2560881D01*
X1937523Y2560880D02*
X1937278Y2560883D01*
X1937033Y2560892D01*
X1936789Y2560907D01*
X1936545Y2560928D01*
X1936301Y2560955D01*
X1936058Y2560988D01*
X1935816Y2561027D01*
X1935575Y2561072D01*
X1935336Y2561123D01*
X1935097Y2561179D01*
X1934860Y2561242D01*
X1934625Y2561310D01*
X1934392Y2561384D01*
X1934160Y2561464D01*
X1933930Y2561549D01*
X1933703Y2561640D01*
X1933478Y2561736D01*
X1933255Y2561838D01*
X1933035Y2561946D01*
X1932817Y2562059D01*
X1932602Y2562177D01*
X1932391Y2562300D01*
X1932182Y2562429D01*
X1931977Y2562562D01*
X1931775Y2562701D01*
X1931576Y2562845D01*
X1931381Y2562993D01*
X1931190Y2563146D01*
X1931002Y2563304D01*
X1930819Y2563466D01*
X1930639Y2563633D01*
X1930464Y2563804D01*
X1930293Y2563979D01*
X1930126Y2564159D01*
X1929964Y2564342D01*
X1929806Y2564530D01*
X1929653Y2564721D01*
X1929505Y2564916D01*
X1929361Y2565115D01*
X1929223Y2565317D01*
X1929089Y2565522D01*
X1928960Y2565731D01*
X1928837Y2565942D01*
X1928719Y2566157D01*
X1928606Y2566374D01*
X1928499Y2566595D01*
X1928397Y2566817D01*
X1928300Y2567042D01*
X1928209Y2567270D01*
X1928124Y2567500D01*
X1928044Y2567731D01*
X1927970Y2567965D01*
X1927902Y2568200D01*
X1927839Y2568437D01*
X1927783Y2568675D01*
X1927732Y2568915D01*
X1927687Y2569156D01*
X1927648Y2569398D01*
X1927615Y2569641D01*
X1927588Y2569884D01*
X1927567Y2570128D01*
X1927552Y2570373D01*
X1927543Y2570618D01*
X1927540Y2570863D01*
X1927540Y2580845D01*
X1927540Y2612254D02*
X1927543Y2612525D01*
X1927553Y2612797D01*
X1927569Y2613067D01*
X1927592Y2613338D01*
X1927622Y2613608D01*
X1927658Y2613877D01*
X1927700Y2614145D01*
X1927749Y2614412D01*
X1927805Y2614677D01*
X1927866Y2614942D01*
X1927934Y2615204D01*
X1928009Y2615465D01*
X1928090Y2615724D01*
X1928177Y2615981D01*
X1928270Y2616236D01*
X1928369Y2616489D01*
X1928474Y2616739D01*
X1928586Y2616986D01*
X1928703Y2617231D01*
X1928826Y2617473D01*
X1928955Y2617712D01*
X1929090Y2617947D01*
X1929230Y2618179D01*
X1929376Y2618408D01*
X1929528Y2618633D01*
X1929685Y2618855D01*
X1929847Y2619072D01*
X1930014Y2619286D01*
X1930187Y2619496D01*
X1930364Y2619701D01*
X1930547Y2619902D01*
X1930734Y2620098D01*
X1930926Y2620290D01*
X1931122Y2620477D01*
X1931323Y2620660D01*
X1931528Y2620837D01*
X1931738Y2621010D01*
X1931952Y2621177D01*
X1932169Y2621339D01*
X1932391Y2621496D01*
X1932616Y2621648D01*
X1932845Y2621794D01*
X1933077Y2621934D01*
X1933312Y2622069D01*
X1933551Y2622198D01*
X1933793Y2622321D01*
X1934038Y2622438D01*
X1934285Y2622550D01*
X1934535Y2622655D01*
X1934788Y2622754D01*
X1935043Y2622847D01*
X1935300Y2622934D01*
X1935559Y2623015D01*
X1935820Y2623090D01*
X1936082Y2623158D01*
X1936347Y2623219D01*
X1936612Y2623275D01*
X1936879Y2623324D01*
X1937147Y2623366D01*
X1937416Y2623402D01*
X1937686Y2623432D01*
X1937957Y2623455D01*
X1938227Y2623471D01*
X1938499Y2623481D01*
X1938770Y2623484D01*
X1927540Y2612254D02*
X1927544Y2611905D01*
X1927557Y2611556D01*
X1927578Y2611208D01*
X1927607Y2610861D01*
X1927645Y2610514D01*
X1927692Y2610168D01*
X1927746Y2609823D01*
X1927809Y2609480D01*
X1927880Y2609138D01*
X1927960Y2608799D01*
X1928048Y2608461D01*
X1928143Y2608126D01*
X1928247Y2607792D01*
X1928359Y2607462D01*
X1928479Y2607134D01*
X1928607Y2606810D01*
X1928742Y2606488D01*
X1928886Y2606170D01*
X1929037Y2605855D01*
X1929195Y2605545D01*
X1929361Y2605238D01*
X1929534Y2604935D01*
X1929715Y2604636D01*
X1929903Y2604342D01*
X1930098Y2604053D01*
X1930299Y2603768D01*
X1930508Y2603489D01*
X1930723Y2603214D01*
X1930945Y2602945D01*
X1931174Y2602681D01*
X1931408Y2602423D01*
X1931649Y2602170D01*
X1931896Y2601924D01*
X1932149Y2601683D01*
X1932407Y2601449D01*
X1932671Y2601221D01*
X1932941Y2600999D01*
X1933216Y2600784D01*
X1933496Y2600576D01*
X1933781Y2600375D01*
X1934070Y2600180D01*
X1934364Y2599993D01*
X1934663Y2599812D01*
X1934966Y2599639D01*
X1935273Y2599474D01*
X1935584Y2599316D01*
X1935899Y2599165D01*
X1936217Y2599022D01*
X1936539Y2598887D01*
X1936864Y2598760D01*
X1937192Y2598640D01*
X1937522Y2598529D01*
X1947505Y2619742D02*
X1947298Y2619953D01*
X1947086Y2620160D01*
X1946869Y2620362D01*
X1946648Y2620558D01*
X1946421Y2620748D01*
X1946190Y2620933D01*
X1945954Y2621112D01*
X1945715Y2621286D01*
X1945470Y2621453D01*
X1945222Y2621614D01*
X1944970Y2621770D01*
X1944715Y2621919D01*
X1944455Y2622061D01*
X1944192Y2622198D01*
X1943926Y2622327D01*
X1943657Y2622451D01*
X1943385Y2622567D01*
X1943110Y2622677D01*
X1942833Y2622780D01*
X1942553Y2622876D01*
X1942271Y2622966D01*
X1941987Y2623048D01*
X1941700Y2623124D01*
X1941412Y2623192D01*
X1941123Y2623253D01*
X1940832Y2623307D01*
X1940540Y2623354D01*
X1940246Y2623394D01*
X1939952Y2623427D01*
X1939657Y2623452D01*
X1939362Y2623470D01*
X1939066Y2623481D01*
X1938770Y2623485D01*
X1947505Y2619741D02*
X1972460Y2598529D01*
X1972460Y2623484D01*
X1950000Y2643529D02*
X1949116Y2643540D01*
X1948233Y2643571D01*
X1947351Y2643624D01*
X1946470Y2643698D01*
X1945592Y2643792D01*
X1944716Y2643908D01*
X1943843Y2644045D01*
X1942973Y2644202D01*
X1942108Y2644380D01*
X1941246Y2644579D01*
X1940390Y2644798D01*
X1939540Y2645038D01*
X1938695Y2645297D01*
X1937857Y2645577D01*
X1937026Y2645877D01*
X1936202Y2646197D01*
X1935386Y2646536D01*
X1934578Y2646894D01*
X1933779Y2647272D01*
X1933567Y2647347D01*
X1933358Y2647428D01*
X1933150Y2647513D01*
X1932945Y2647604D01*
X1932741Y2647700D01*
X1932541Y2647800D01*
X1932342Y2647906D01*
X1932147Y2648016D01*
X1931954Y2648131D01*
X1931764Y2648250D01*
X1931576Y2648374D01*
X1931392Y2648503D01*
X1931211Y2648636D01*
X1931034Y2648773D01*
X1930860Y2648915D01*
X1930689Y2649061D01*
X1930522Y2649211D01*
X1930358Y2649365D01*
X1930199Y2649523D01*
X1930043Y2649685D01*
X1929891Y2649851D01*
X1929744Y2650020D01*
X1929600Y2650193D01*
X1929461Y2650369D01*
X1929326Y2650548D01*
X1929195Y2650731D01*
X1929069Y2650917D01*
X1928948Y2651106D01*
X1928831Y2651298D01*
X1928719Y2651492D01*
X1928611Y2651689D01*
X1928509Y2651889D01*
X1928411Y2652091D01*
X1928318Y2652296D01*
X1928230Y2652503D01*
X1928148Y2652711D01*
X1928070Y2652922D01*
X1927998Y2653135D01*
X1927931Y2653349D01*
X1927869Y2653565D01*
X1927812Y2653782D01*
X1927760Y2654001D01*
X1927714Y2654221D01*
X1927674Y2654441D01*
X1927638Y2654663D01*
X1927608Y2654886D01*
X1927584Y2655109D01*
X1927565Y2655333D01*
X1927551Y2655557D01*
X1927543Y2655781D01*
X1927540Y2656006D01*
X1927543Y2656231D01*
X1927551Y2656455D01*
X1927565Y2656679D01*
X1927584Y2656903D01*
X1927608Y2657126D01*
X1927638Y2657349D01*
X1927674Y2657571D01*
X1927714Y2657791D01*
X1927760Y2658011D01*
X1927812Y2658230D01*
X1927869Y2658447D01*
X1927931Y2658663D01*
X1927998Y2658877D01*
X1928070Y2659090D01*
X1928148Y2659301D01*
X1928230Y2659509D01*
X1928318Y2659716D01*
X1928411Y2659921D01*
X1928509Y2660123D01*
X1928611Y2660323D01*
X1928719Y2660520D01*
X1928831Y2660714D01*
X1928948Y2660906D01*
X1929069Y2661095D01*
X1929195Y2661281D01*
X1929326Y2661464D01*
X1929461Y2661643D01*
X1929600Y2661819D01*
X1929743Y2661992D01*
X1929891Y2662161D01*
X1930043Y2662327D01*
X1930199Y2662489D01*
X1930358Y2662647D01*
X1930522Y2662801D01*
X1930689Y2662951D01*
X1930859Y2663097D01*
X1931034Y2663238D01*
X1931211Y2663376D01*
X1931392Y2663509D01*
X1931576Y2663638D01*
X1931763Y2663762D01*
X1931954Y2663881D01*
X1932146Y2663996D01*
X1932342Y2664106D01*
X1932541Y2664212D01*
X1932741Y2664312D01*
X1932945Y2664408D01*
X1933150Y2664498D01*
X1933358Y2664584D01*
X1933567Y2664665D01*
X1933779Y2664740D01*
X1933779Y2664741D02*
X1934578Y2665119D01*
X1935386Y2665477D01*
X1936202Y2665816D01*
X1937026Y2666136D01*
X1937857Y2666436D01*
X1938695Y2666716D01*
X1939540Y2666975D01*
X1940390Y2667215D01*
X1941246Y2667434D01*
X1942108Y2667633D01*
X1942973Y2667811D01*
X1943843Y2667968D01*
X1944716Y2668105D01*
X1945592Y2668221D01*
X1946470Y2668315D01*
X1947351Y2668389D01*
X1948233Y2668442D01*
X1949116Y2668473D01*
X1950000Y2668484D01*
X1950000Y2643529D02*
X1950884Y2643540D01*
X1951767Y2643571D01*
X1952649Y2643624D01*
X1953530Y2643698D01*
X1954408Y2643792D01*
X1955284Y2643908D01*
X1956157Y2644045D01*
X1957027Y2644202D01*
X1957893Y2644380D01*
X1958754Y2644579D01*
X1959610Y2644798D01*
X1960460Y2645038D01*
X1961305Y2645297D01*
X1962143Y2645577D01*
X1962975Y2645877D01*
X1963799Y2646197D01*
X1964615Y2646536D01*
X1965422Y2646894D01*
X1966221Y2647272D01*
X1966222Y2647272D02*
X1966433Y2647348D01*
X1966643Y2647428D01*
X1966850Y2647514D01*
X1967056Y2647604D01*
X1967259Y2647700D01*
X1967460Y2647800D01*
X1967658Y2647906D01*
X1967854Y2648016D01*
X1968047Y2648131D01*
X1968237Y2648250D01*
X1968424Y2648375D01*
X1968608Y2648503D01*
X1968789Y2648636D01*
X1968967Y2648774D01*
X1969141Y2648915D01*
X1969311Y2649061D01*
X1969479Y2649211D01*
X1969642Y2649365D01*
X1969802Y2649523D01*
X1969957Y2649685D01*
X1970109Y2649851D01*
X1970257Y2650020D01*
X1970400Y2650193D01*
X1970539Y2650369D01*
X1970674Y2650548D01*
X1970805Y2650731D01*
X1970931Y2650917D01*
X1971052Y2651106D01*
X1971169Y2651298D01*
X1971281Y2651492D01*
X1971389Y2651690D01*
X1971491Y2651889D01*
X1971589Y2652092D01*
X1971682Y2652296D01*
X1971770Y2652503D01*
X1971852Y2652712D01*
X1971930Y2652922D01*
X1972002Y2653135D01*
X1972069Y2653349D01*
X1972131Y2653565D01*
X1972188Y2653782D01*
X1972240Y2654001D01*
X1972286Y2654221D01*
X1972326Y2654442D01*
X1972362Y2654663D01*
X1972392Y2654886D01*
X1972416Y2655109D01*
X1972435Y2655333D01*
X1972449Y2655557D01*
X1972457Y2655781D01*
X1972460Y2656006D01*
X1966221Y2664741D02*
X1965422Y2665119D01*
X1964615Y2665477D01*
X1963799Y2665816D01*
X1962975Y2666136D01*
X1962143Y2666436D01*
X1961305Y2666716D01*
X1960460Y2666975D01*
X1959610Y2667215D01*
X1958754Y2667434D01*
X1957893Y2667633D01*
X1957027Y2667811D01*
X1956157Y2667968D01*
X1955284Y2668105D01*
X1954408Y2668221D01*
X1953530Y2668315D01*
X1952649Y2668389D01*
X1951767Y2668442D01*
X1950884Y2668473D01*
X1950000Y2668484D01*
X1966221Y2664741D02*
X1966433Y2664665D01*
X1966642Y2664585D01*
X1966850Y2664499D01*
X1967055Y2664409D01*
X1967259Y2664313D01*
X1967459Y2664212D01*
X1967658Y2664107D01*
X1967853Y2663997D01*
X1968046Y2663882D01*
X1968237Y2663762D01*
X1968424Y2663638D01*
X1968608Y2663510D01*
X1968789Y2663376D01*
X1968966Y2663239D01*
X1969141Y2663097D01*
X1969311Y2662951D01*
X1969478Y2662801D01*
X1969642Y2662647D01*
X1969801Y2662489D01*
X1969957Y2662327D01*
X1970109Y2662162D01*
X1970257Y2661993D01*
X1970400Y2661820D01*
X1970539Y2661644D01*
X1970674Y2661464D01*
X1970805Y2661281D01*
X1970931Y2661095D01*
X1971052Y2660907D01*
X1971169Y2660715D01*
X1971281Y2660520D01*
X1971389Y2660323D01*
X1971491Y2660123D01*
X1971589Y2659921D01*
X1971682Y2659716D01*
X1971770Y2659510D01*
X1971852Y2659301D01*
X1971930Y2659090D01*
X1972002Y2658877D01*
X1972069Y2658663D01*
X1972131Y2658447D01*
X1972188Y2658230D01*
X1972240Y2658011D01*
X1972286Y2657791D01*
X1972326Y2657571D01*
X1972362Y2657349D01*
X1972392Y2657126D01*
X1972416Y2656903D01*
X1972435Y2656679D01*
X1972449Y2656455D01*
X1972457Y2656231D01*
X1972460Y2656006D01*
X1962478Y2646024D02*
X1937523Y2665989D01*
X1927540Y2702254D02*
X1927543Y2702525D01*
X1927553Y2702797D01*
X1927569Y2703067D01*
X1927592Y2703338D01*
X1927622Y2703608D01*
X1927658Y2703877D01*
X1927700Y2704145D01*
X1927749Y2704412D01*
X1927805Y2704677D01*
X1927866Y2704942D01*
X1927934Y2705204D01*
X1928009Y2705465D01*
X1928090Y2705724D01*
X1928177Y2705981D01*
X1928270Y2706236D01*
X1928369Y2706489D01*
X1928474Y2706739D01*
X1928586Y2706986D01*
X1928703Y2707231D01*
X1928826Y2707473D01*
X1928955Y2707712D01*
X1929090Y2707947D01*
X1929230Y2708179D01*
X1929376Y2708408D01*
X1929528Y2708633D01*
X1929685Y2708855D01*
X1929847Y2709072D01*
X1930014Y2709286D01*
X1930187Y2709496D01*
X1930364Y2709701D01*
X1930547Y2709902D01*
X1930734Y2710098D01*
X1930926Y2710290D01*
X1931122Y2710477D01*
X1931323Y2710660D01*
X1931528Y2710837D01*
X1931738Y2711010D01*
X1931952Y2711177D01*
X1932169Y2711339D01*
X1932391Y2711496D01*
X1932616Y2711648D01*
X1932845Y2711794D01*
X1933077Y2711934D01*
X1933312Y2712069D01*
X1933551Y2712198D01*
X1933793Y2712321D01*
X1934038Y2712438D01*
X1934285Y2712550D01*
X1934535Y2712655D01*
X1934788Y2712754D01*
X1935043Y2712847D01*
X1935300Y2712934D01*
X1935559Y2713015D01*
X1935820Y2713090D01*
X1936082Y2713158D01*
X1936347Y2713219D01*
X1936612Y2713275D01*
X1936879Y2713324D01*
X1937147Y2713366D01*
X1937416Y2713402D01*
X1937686Y2713432D01*
X1937957Y2713455D01*
X1938227Y2713471D01*
X1938499Y2713481D01*
X1938770Y2713484D01*
X1927540Y2702254D02*
X1927544Y2701905D01*
X1927557Y2701556D01*
X1927578Y2701208D01*
X1927607Y2700861D01*
X1927645Y2700514D01*
X1927692Y2700168D01*
X1927746Y2699823D01*
X1927809Y2699480D01*
X1927880Y2699138D01*
X1927960Y2698799D01*
X1928048Y2698461D01*
X1928143Y2698126D01*
X1928247Y2697792D01*
X1928359Y2697462D01*
X1928479Y2697134D01*
X1928607Y2696810D01*
X1928742Y2696488D01*
X1928886Y2696170D01*
X1929037Y2695855D01*
X1929195Y2695545D01*
X1929361Y2695238D01*
X1929534Y2694935D01*
X1929715Y2694636D01*
X1929903Y2694342D01*
X1930098Y2694053D01*
X1930299Y2693768D01*
X1930508Y2693489D01*
X1930723Y2693214D01*
X1930945Y2692945D01*
X1931174Y2692681D01*
X1931408Y2692423D01*
X1931649Y2692170D01*
X1931896Y2691924D01*
X1932149Y2691683D01*
X1932407Y2691449D01*
X1932671Y2691221D01*
X1932941Y2690999D01*
X1933216Y2690784D01*
X1933496Y2690576D01*
X1933781Y2690375D01*
X1934070Y2690180D01*
X1934364Y2689993D01*
X1934663Y2689812D01*
X1934966Y2689639D01*
X1935273Y2689474D01*
X1935584Y2689316D01*
X1935899Y2689165D01*
X1936217Y2689022D01*
X1936539Y2688887D01*
X1936864Y2688760D01*
X1937192Y2688640D01*
X1937522Y2688529D01*
X1947505Y2709741D02*
X1947298Y2709952D01*
X1947086Y2710159D01*
X1946869Y2710361D01*
X1946648Y2710557D01*
X1946421Y2710747D01*
X1946190Y2710932D01*
X1945954Y2711111D01*
X1945715Y2711285D01*
X1945470Y2711452D01*
X1945222Y2711613D01*
X1944970Y2711769D01*
X1944715Y2711918D01*
X1944455Y2712060D01*
X1944192Y2712197D01*
X1943926Y2712326D01*
X1943657Y2712450D01*
X1943385Y2712566D01*
X1943110Y2712676D01*
X1942833Y2712779D01*
X1942553Y2712875D01*
X1942271Y2712965D01*
X1941987Y2713047D01*
X1941700Y2713123D01*
X1941412Y2713191D01*
X1941123Y2713252D01*
X1940832Y2713306D01*
X1940540Y2713353D01*
X1940246Y2713393D01*
X1939952Y2713426D01*
X1939657Y2713451D01*
X1939362Y2713469D01*
X1939066Y2713480D01*
X1938770Y2713484D01*
X1947505Y2709741D02*
X1972460Y2688528D01*
X1972460Y2713484D01*
D13*
X1950000Y2150000D02*
X1950000Y2120000D01*
X1950000Y2150000D02*
X1920000Y2150000D01*
X1580000Y2150000D02*
X1550000Y2150000D01*
X1550000Y2120000D01*
X1550000Y1750000D02*
X1580000Y1750000D01*
X1550000Y1750000D02*
X1550000Y1780000D01*
X1950000Y1780000D02*
X1950000Y1750000D01*
X1920000Y1750000D01*
D14*
X1990000Y1700000D02*
X1990003Y1700245D01*
X1990012Y1700491D01*
X1990027Y1700736D01*
X1990048Y1700980D01*
X1990075Y1701224D01*
X1990108Y1701467D01*
X1990147Y1701710D01*
X1990192Y1701951D01*
X1990243Y1702191D01*
X1990300Y1702430D01*
X1990362Y1702667D01*
X1990431Y1702903D01*
X1990505Y1703137D01*
X1990585Y1703369D01*
X1990670Y1703599D01*
X1990761Y1703827D01*
X1990858Y1704052D01*
X1990960Y1704276D01*
X1991068Y1704496D01*
X1991181Y1704714D01*
X1991299Y1704929D01*
X1991423Y1705141D01*
X1991551Y1705350D01*
X1991685Y1705556D01*
X1991824Y1705758D01*
X1991968Y1705957D01*
X1992117Y1706152D01*
X1992270Y1706344D01*
X1992428Y1706532D01*
X1992590Y1706716D01*
X1992758Y1706895D01*
X1992929Y1707071D01*
X1993105Y1707242D01*
X1993284Y1707410D01*
X1993468Y1707572D01*
X1993656Y1707730D01*
X1993848Y1707883D01*
X1994043Y1708032D01*
X1994242Y1708176D01*
X1994444Y1708315D01*
X1994650Y1708449D01*
X1994859Y1708577D01*
X1995071Y1708701D01*
X1995286Y1708819D01*
X1995504Y1708932D01*
X1995724Y1709040D01*
X1995948Y1709142D01*
X1996173Y1709239D01*
X1996401Y1709330D01*
X1996631Y1709415D01*
X1996863Y1709495D01*
X1997097Y1709569D01*
X1997333Y1709638D01*
X1997570Y1709700D01*
X1997809Y1709757D01*
X1998049Y1709808D01*
X1998290Y1709853D01*
X1998533Y1709892D01*
X1998776Y1709925D01*
X1999020Y1709952D01*
X1999264Y1709973D01*
X1999509Y1709988D01*
X1999755Y1709997D01*
X2000000Y1710000D01*
X2000245Y1709997D01*
X2000491Y1709988D01*
X2000736Y1709973D01*
X2000980Y1709952D01*
X2001224Y1709925D01*
X2001467Y1709892D01*
X2001710Y1709853D01*
X2001951Y1709808D01*
X2002191Y1709757D01*
X2002430Y1709700D01*
X2002667Y1709638D01*
X2002903Y1709569D01*
X2003137Y1709495D01*
X2003369Y1709415D01*
X2003599Y1709330D01*
X2003827Y1709239D01*
X2004052Y1709142D01*
X2004276Y1709040D01*
X2004496Y1708932D01*
X2004714Y1708819D01*
X2004929Y1708701D01*
X2005141Y1708577D01*
X2005350Y1708449D01*
X2005556Y1708315D01*
X2005758Y1708176D01*
X2005957Y1708032D01*
X2006152Y1707883D01*
X2006344Y1707730D01*
X2006532Y1707572D01*
X2006716Y1707410D01*
X2006895Y1707242D01*
X2007071Y1707071D01*
X2007242Y1706895D01*
X2007410Y1706716D01*
X2007572Y1706532D01*
X2007730Y1706344D01*
X2007883Y1706152D01*
X2008032Y1705957D01*
X2008176Y1705758D01*
X2008315Y1705556D01*
X2008449Y1705350D01*
X2008577Y1705141D01*
X2008701Y1704929D01*
X2008819Y1704714D01*
X2008932Y1704496D01*
X2009040Y1704276D01*
X2009142Y1704052D01*
X2009239Y1703827D01*
X2009330Y1703599D01*
X2009415Y1703369D01*
X2009495Y1703137D01*
X2009569Y1702903D01*
X2009638Y1702667D01*
X2009700Y1702430D01*
X2009757Y1702191D01*
X2009808Y1701951D01*
X2009853Y1701710D01*
X2009892Y1701467D01*
X2009925Y1701224D01*
X2009952Y1700980D01*
X2009973Y1700736D01*
X2009988Y1700491D01*
X2009997Y1700245D01*
X2010000Y1700000D01*
X2009997Y1699755D01*
X2009988Y1699509D01*
X2009973Y1699264D01*
X2009952Y1699020D01*
X2009925Y1698776D01*
X2009892Y1698533D01*
X2009853Y1698290D01*
X2009808Y1698049D01*
X2009757Y1697809D01*
X2009700Y1697570D01*
X2009638Y1697333D01*
X2009569Y1697097D01*
X2009495Y1696863D01*
X2009415Y1696631D01*
X2009330Y1696401D01*
X2009239Y1696173D01*
X2009142Y1695948D01*
X2009040Y1695724D01*
X2008932Y1695504D01*
X2008819Y1695286D01*
X2008701Y1695071D01*
X2008577Y1694859D01*
X2008449Y1694650D01*
X2008315Y1694444D01*
X2008176Y1694242D01*
X2008032Y1694043D01*
X2007883Y1693848D01*
X2007730Y1693656D01*
X2007572Y1693468D01*
X2007410Y1693284D01*
X2007242Y1693105D01*
X2007071Y1692929D01*
X2006895Y1692758D01*
X2006716Y1692590D01*
X2006532Y1692428D01*
X2006344Y1692270D01*
X2006152Y1692117D01*
X2005957Y1691968D01*
X2005758Y1691824D01*
X2005556Y1691685D01*
X2005350Y1691551D01*
X2005141Y1691423D01*
X2004929Y1691299D01*
X2004714Y1691181D01*
X2004496Y1691068D01*
X2004276Y1690960D01*
X2004052Y1690858D01*
X2003827Y1690761D01*
X2003599Y1690670D01*
X2003369Y1690585D01*
X2003137Y1690505D01*
X2002903Y1690431D01*
X2002667Y1690362D01*
X2002430Y1690300D01*
X2002191Y1690243D01*
X2001951Y1690192D01*
X2001710Y1690147D01*
X2001467Y1690108D01*
X2001224Y1690075D01*
X2000980Y1690048D01*
X2000736Y1690027D01*
X2000491Y1690012D01*
X2000245Y1690003D01*
X2000000Y1690000D01*
X1999755Y1690003D01*
X1999509Y1690012D01*
X1999264Y1690027D01*
X1999020Y1690048D01*
X1998776Y1690075D01*
X1998533Y1690108D01*
X1998290Y1690147D01*
X1998049Y1690192D01*
X1997809Y1690243D01*
X1997570Y1690300D01*
X1997333Y1690362D01*
X1997097Y1690431D01*
X1996863Y1690505D01*
X1996631Y1690585D01*
X1996401Y1690670D01*
X1996173Y1690761D01*
X1995948Y1690858D01*
X1995724Y1690960D01*
X1995504Y1691068D01*
X1995286Y1691181D01*
X1995071Y1691299D01*
X1994859Y1691423D01*
X1994650Y1691551D01*
X1994444Y1691685D01*
X1994242Y1691824D01*
X1994043Y1691968D01*
X1993848Y1692117D01*
X1993656Y1692270D01*
X1993468Y1692428D01*
X1993284Y1692590D01*
X1993105Y1692758D01*
X1992929Y1692929D01*
X1992758Y1693105D01*
X1992590Y1693284D01*
X1992428Y1693468D01*
X1992270Y1693656D01*
X1992117Y1693848D01*
X1991968Y1694043D01*
X1991824Y1694242D01*
X1991685Y1694444D01*
X1991551Y1694650D01*
X1991423Y1694859D01*
X1991299Y1695071D01*
X1991181Y1695286D01*
X1991068Y1695504D01*
X1990960Y1695724D01*
X1990858Y1695948D01*
X1990761Y1696173D01*
X1990670Y1696401D01*
X1990585Y1696631D01*
X1990505Y1696863D01*
X1990431Y1697097D01*
X1990362Y1697333D01*
X1990300Y1697570D01*
X1990243Y1697809D01*
X1990192Y1698049D01*
X1990147Y1698290D01*
X1990108Y1698533D01*
X1990075Y1698776D01*
X1990048Y1699020D01*
X1990027Y1699264D01*
X1990012Y1699509D01*
X1990003Y1699755D01*
X1990000Y1700000D01*
D12*
X1739507Y1672460D02*
X1739507Y1627540D01*
X1734516Y1627540D02*
X1744498Y1627540D01*
X1744498Y1672460D02*
X1734516Y1672460D01*
X1772863Y1627540D02*
X1782845Y1627540D01*
X1772863Y1627540D02*
X1772622Y1627543D01*
X1772381Y1627552D01*
X1772140Y1627566D01*
X1771900Y1627587D01*
X1771660Y1627613D01*
X1771421Y1627645D01*
X1771182Y1627682D01*
X1770945Y1627726D01*
X1770709Y1627775D01*
X1770474Y1627830D01*
X1770241Y1627891D01*
X1770009Y1627957D01*
X1769778Y1628029D01*
X1769550Y1628106D01*
X1769323Y1628189D01*
X1769099Y1628277D01*
X1768877Y1628371D01*
X1768657Y1628470D01*
X1768439Y1628574D01*
X1768224Y1628683D01*
X1768012Y1628798D01*
X1767803Y1628918D01*
X1767596Y1629043D01*
X1767393Y1629172D01*
X1767193Y1629307D01*
X1766996Y1629446D01*
X1766802Y1629591D01*
X1766612Y1629739D01*
X1766426Y1629893D01*
X1766244Y1630050D01*
X1766065Y1630212D01*
X1765890Y1630379D01*
X1765720Y1630549D01*
X1765553Y1630724D01*
X1765391Y1630903D01*
X1765234Y1631085D01*
X1765080Y1631271D01*
X1764932Y1631461D01*
X1764787Y1631655D01*
X1764648Y1631852D01*
X1764513Y1632052D01*
X1764384Y1632255D01*
X1764259Y1632462D01*
X1764139Y1632671D01*
X1764024Y1632883D01*
X1763915Y1633098D01*
X1763811Y1633316D01*
X1763712Y1633536D01*
X1763618Y1633758D01*
X1763530Y1633982D01*
X1763447Y1634209D01*
X1763370Y1634437D01*
X1763298Y1634668D01*
X1763232Y1634900D01*
X1763171Y1635133D01*
X1763116Y1635368D01*
X1763067Y1635604D01*
X1763023Y1635841D01*
X1762986Y1636080D01*
X1762954Y1636319D01*
X1762928Y1636559D01*
X1762907Y1636799D01*
X1762893Y1637040D01*
X1762884Y1637281D01*
X1762881Y1637522D01*
X1762881Y1662478D01*
X1762880Y1662478D02*
X1762883Y1662723D01*
X1762892Y1662968D01*
X1762907Y1663212D01*
X1762928Y1663456D01*
X1762955Y1663700D01*
X1762988Y1663943D01*
X1763027Y1664185D01*
X1763072Y1664426D01*
X1763123Y1664665D01*
X1763179Y1664904D01*
X1763242Y1665141D01*
X1763310Y1665376D01*
X1763384Y1665609D01*
X1763464Y1665841D01*
X1763549Y1666071D01*
X1763640Y1666298D01*
X1763736Y1666523D01*
X1763838Y1666746D01*
X1763946Y1666966D01*
X1764059Y1667184D01*
X1764177Y1667399D01*
X1764300Y1667610D01*
X1764429Y1667819D01*
X1764562Y1668024D01*
X1764701Y1668226D01*
X1764845Y1668425D01*
X1764993Y1668620D01*
X1765146Y1668811D01*
X1765304Y1668999D01*
X1765466Y1669182D01*
X1765633Y1669362D01*
X1765804Y1669537D01*
X1765979Y1669708D01*
X1766159Y1669875D01*
X1766342Y1670037D01*
X1766530Y1670195D01*
X1766721Y1670348D01*
X1766916Y1670496D01*
X1767115Y1670640D01*
X1767317Y1670778D01*
X1767522Y1670912D01*
X1767731Y1671041D01*
X1767942Y1671164D01*
X1768157Y1671282D01*
X1768374Y1671395D01*
X1768595Y1671502D01*
X1768817Y1671604D01*
X1769042Y1671701D01*
X1769270Y1671792D01*
X1769500Y1671877D01*
X1769731Y1671957D01*
X1769965Y1672031D01*
X1770200Y1672099D01*
X1770437Y1672162D01*
X1770675Y1672218D01*
X1770915Y1672269D01*
X1771156Y1672314D01*
X1771398Y1672353D01*
X1771641Y1672386D01*
X1771884Y1672413D01*
X1772128Y1672434D01*
X1772373Y1672449D01*
X1772618Y1672458D01*
X1772863Y1672461D01*
X1772863Y1672460D02*
X1782845Y1672460D01*
X1800529Y1627540D02*
X1813007Y1627540D01*
X1813311Y1627544D01*
X1813615Y1627555D01*
X1813918Y1627573D01*
X1814221Y1627599D01*
X1814523Y1627632D01*
X1814824Y1627673D01*
X1815124Y1627721D01*
X1815423Y1627776D01*
X1815720Y1627839D01*
X1816016Y1627908D01*
X1816310Y1627985D01*
X1816602Y1628069D01*
X1816892Y1628160D01*
X1817179Y1628258D01*
X1817465Y1628363D01*
X1817747Y1628475D01*
X1818027Y1628594D01*
X1818303Y1628720D01*
X1818577Y1628852D01*
X1818847Y1628991D01*
X1819114Y1629137D01*
X1819377Y1629289D01*
X1819637Y1629447D01*
X1819892Y1629611D01*
X1820143Y1629782D01*
X1820390Y1629959D01*
X1820633Y1630142D01*
X1820871Y1630330D01*
X1821105Y1630525D01*
X1821334Y1630725D01*
X1821558Y1630930D01*
X1821776Y1631141D01*
X1821990Y1631357D01*
X1822198Y1631579D01*
X1822401Y1631805D01*
X1822598Y1632036D01*
X1822790Y1632272D01*
X1822975Y1632513D01*
X1823155Y1632758D01*
X1823329Y1633007D01*
X1823497Y1633260D01*
X1823658Y1633518D01*
X1823813Y1633779D01*
X1823962Y1634044D01*
X1824104Y1634313D01*
X1824240Y1634584D01*
X1824369Y1634860D01*
X1824491Y1635138D01*
X1824607Y1635419D01*
X1824715Y1635703D01*
X1824817Y1635989D01*
X1824911Y1636278D01*
X1824999Y1636569D01*
X1825079Y1636862D01*
X1825153Y1637157D01*
X1825219Y1637453D01*
X1825277Y1637752D01*
X1825329Y1638051D01*
X1825373Y1638352D01*
X1825410Y1638653D01*
X1825440Y1638956D01*
X1825462Y1639259D01*
X1825477Y1639562D01*
X1825484Y1639866D01*
X1825484Y1640170D01*
X1825477Y1640474D01*
X1825462Y1640777D01*
X1825440Y1641080D01*
X1825410Y1641383D01*
X1825373Y1641684D01*
X1825329Y1641985D01*
X1825277Y1642284D01*
X1825219Y1642583D01*
X1825153Y1642879D01*
X1825079Y1643174D01*
X1824999Y1643467D01*
X1824911Y1643758D01*
X1824817Y1644047D01*
X1824715Y1644333D01*
X1824607Y1644617D01*
X1824491Y1644898D01*
X1824369Y1645176D01*
X1824240Y1645452D01*
X1824104Y1645723D01*
X1823962Y1645992D01*
X1823813Y1646257D01*
X1823658Y1646518D01*
X1823497Y1646776D01*
X1823329Y1647029D01*
X1823155Y1647278D01*
X1822975Y1647523D01*
X1822790Y1647764D01*
X1822598Y1648000D01*
X1822401Y1648231D01*
X1822198Y1648457D01*
X1821990Y1648679D01*
X1821776Y1648895D01*
X1821558Y1649106D01*
X1821334Y1649311D01*
X1821105Y1649511D01*
X1820871Y1649706D01*
X1820633Y1649894D01*
X1820390Y1650077D01*
X1820143Y1650254D01*
X1819892Y1650425D01*
X1819637Y1650589D01*
X1819377Y1650747D01*
X1819114Y1650899D01*
X1818847Y1651045D01*
X1818577Y1651184D01*
X1818303Y1651316D01*
X1818027Y1651442D01*
X1817747Y1651561D01*
X1817465Y1651673D01*
X1817179Y1651778D01*
X1816892Y1651876D01*
X1816602Y1651967D01*
X1816310Y1652051D01*
X1816016Y1652128D01*
X1815720Y1652197D01*
X1815423Y1652260D01*
X1815124Y1652315D01*
X1814824Y1652363D01*
X1814523Y1652404D01*
X1814221Y1652437D01*
X1813918Y1652463D01*
X1813615Y1652481D01*
X1813311Y1652492D01*
X1813007Y1652496D01*
X1815502Y1672460D02*
X1800529Y1672460D01*
X1815502Y1672461D02*
X1815745Y1672458D01*
X1815988Y1672449D01*
X1816231Y1672434D01*
X1816473Y1672414D01*
X1816715Y1672387D01*
X1816956Y1672355D01*
X1817196Y1672316D01*
X1817435Y1672272D01*
X1817673Y1672222D01*
X1817909Y1672166D01*
X1818144Y1672105D01*
X1818378Y1672038D01*
X1818610Y1671965D01*
X1818840Y1671886D01*
X1819068Y1671802D01*
X1819294Y1671713D01*
X1819518Y1671618D01*
X1819739Y1671517D01*
X1819958Y1671411D01*
X1820174Y1671300D01*
X1820388Y1671184D01*
X1820598Y1671062D01*
X1820806Y1670935D01*
X1821010Y1670804D01*
X1821211Y1670667D01*
X1821409Y1670526D01*
X1821603Y1670380D01*
X1821794Y1670229D01*
X1821981Y1670073D01*
X1822164Y1669913D01*
X1822343Y1669749D01*
X1822518Y1669580D01*
X1822689Y1669407D01*
X1822855Y1669230D01*
X1823018Y1669049D01*
X1823175Y1668864D01*
X1823329Y1668675D01*
X1823477Y1668483D01*
X1823621Y1668287D01*
X1823760Y1668087D01*
X1823894Y1667885D01*
X1824023Y1667679D01*
X1824148Y1667470D01*
X1824267Y1667257D01*
X1824380Y1667043D01*
X1824489Y1666825D01*
X1824592Y1666605D01*
X1824690Y1666382D01*
X1824782Y1666158D01*
X1824869Y1665930D01*
X1824950Y1665701D01*
X1825026Y1665470D01*
X1825096Y1665237D01*
X1825160Y1665003D01*
X1825219Y1664767D01*
X1825272Y1664530D01*
X1825319Y1664291D01*
X1825360Y1664052D01*
X1825396Y1663811D01*
X1825425Y1663570D01*
X1825449Y1663328D01*
X1825467Y1663085D01*
X1825478Y1662843D01*
X1825484Y1662600D01*
X1825484Y1662356D01*
X1825478Y1662113D01*
X1825467Y1661871D01*
X1825449Y1661628D01*
X1825425Y1661386D01*
X1825396Y1661145D01*
X1825360Y1660904D01*
X1825319Y1660665D01*
X1825272Y1660426D01*
X1825219Y1660189D01*
X1825160Y1659953D01*
X1825096Y1659719D01*
X1825026Y1659486D01*
X1824950Y1659255D01*
X1824869Y1659026D01*
X1824782Y1658798D01*
X1824690Y1658574D01*
X1824592Y1658351D01*
X1824489Y1658131D01*
X1824380Y1657913D01*
X1824267Y1657699D01*
X1824148Y1657487D01*
X1824023Y1657277D01*
X1823894Y1657071D01*
X1823760Y1656869D01*
X1823621Y1656669D01*
X1823477Y1656473D01*
X1823329Y1656281D01*
X1823175Y1656092D01*
X1823018Y1655907D01*
X1822855Y1655726D01*
X1822689Y1655549D01*
X1822518Y1655376D01*
X1822343Y1655207D01*
X1822164Y1655043D01*
X1821981Y1654883D01*
X1821794Y1654727D01*
X1821603Y1654576D01*
X1821409Y1654430D01*
X1821211Y1654289D01*
X1821010Y1654152D01*
X1820806Y1654021D01*
X1820598Y1653894D01*
X1820388Y1653772D01*
X1820174Y1653656D01*
X1819958Y1653545D01*
X1819739Y1653439D01*
X1819518Y1653338D01*
X1819294Y1653243D01*
X1819068Y1653154D01*
X1818840Y1653070D01*
X1818610Y1652991D01*
X1818378Y1652918D01*
X1818144Y1652851D01*
X1817909Y1652790D01*
X1817673Y1652734D01*
X1817435Y1652684D01*
X1817196Y1652640D01*
X1816956Y1652601D01*
X1816715Y1652569D01*
X1816473Y1652542D01*
X1816231Y1652522D01*
X1815988Y1652507D01*
X1815745Y1652498D01*
X1815502Y1652495D01*
X1805520Y1652495D01*
X1845529Y1650000D02*
X1845540Y1650884D01*
X1845571Y1651767D01*
X1845624Y1652649D01*
X1845698Y1653530D01*
X1845792Y1654408D01*
X1845908Y1655284D01*
X1846045Y1656157D01*
X1846202Y1657027D01*
X1846380Y1657893D01*
X1846579Y1658754D01*
X1846798Y1659610D01*
X1847038Y1660460D01*
X1847297Y1661305D01*
X1847577Y1662143D01*
X1847877Y1662974D01*
X1848197Y1663798D01*
X1848536Y1664614D01*
X1848894Y1665422D01*
X1849272Y1666221D01*
X1849347Y1666433D01*
X1849428Y1666642D01*
X1849514Y1666850D01*
X1849604Y1667056D01*
X1849700Y1667259D01*
X1849800Y1667460D01*
X1849906Y1667658D01*
X1850016Y1667854D01*
X1850131Y1668047D01*
X1850250Y1668237D01*
X1850374Y1668424D01*
X1850503Y1668608D01*
X1850636Y1668789D01*
X1850774Y1668966D01*
X1850915Y1669141D01*
X1851061Y1669311D01*
X1851211Y1669478D01*
X1851365Y1669642D01*
X1851523Y1669801D01*
X1851685Y1669957D01*
X1851851Y1670109D01*
X1852020Y1670257D01*
X1852193Y1670400D01*
X1852369Y1670539D01*
X1852548Y1670674D01*
X1852731Y1670805D01*
X1852917Y1670931D01*
X1853106Y1671052D01*
X1853298Y1671169D01*
X1853492Y1671281D01*
X1853689Y1671389D01*
X1853889Y1671491D01*
X1854091Y1671589D01*
X1854296Y1671682D01*
X1854503Y1671770D01*
X1854711Y1671852D01*
X1854922Y1671930D01*
X1855135Y1672002D01*
X1855349Y1672069D01*
X1855565Y1672131D01*
X1855782Y1672188D01*
X1856001Y1672240D01*
X1856221Y1672286D01*
X1856441Y1672326D01*
X1856663Y1672362D01*
X1856886Y1672392D01*
X1857109Y1672416D01*
X1857333Y1672435D01*
X1857557Y1672449D01*
X1857781Y1672457D01*
X1858006Y1672460D01*
X1858231Y1672457D01*
X1858455Y1672449D01*
X1858679Y1672435D01*
X1858903Y1672416D01*
X1859126Y1672392D01*
X1859349Y1672362D01*
X1859571Y1672326D01*
X1859792Y1672286D01*
X1860011Y1672240D01*
X1860230Y1672188D01*
X1860447Y1672131D01*
X1860663Y1672069D01*
X1860877Y1672002D01*
X1861090Y1671930D01*
X1861301Y1671852D01*
X1861510Y1671769D01*
X1861716Y1671682D01*
X1861921Y1671589D01*
X1862123Y1671491D01*
X1862323Y1671389D01*
X1862520Y1671281D01*
X1862715Y1671169D01*
X1862907Y1671052D01*
X1863096Y1670931D01*
X1863281Y1670805D01*
X1863464Y1670674D01*
X1863644Y1670539D01*
X1863820Y1670400D01*
X1863993Y1670256D01*
X1864162Y1670109D01*
X1864327Y1669957D01*
X1864489Y1669801D01*
X1864647Y1669642D01*
X1864801Y1669478D01*
X1864951Y1669311D01*
X1865097Y1669140D01*
X1865239Y1668966D01*
X1865377Y1668789D01*
X1865510Y1668608D01*
X1865638Y1668424D01*
X1865762Y1668236D01*
X1865882Y1668046D01*
X1865997Y1667853D01*
X1866107Y1667658D01*
X1866213Y1667459D01*
X1866313Y1667258D01*
X1866409Y1667055D01*
X1866499Y1666850D01*
X1866585Y1666642D01*
X1866665Y1666432D01*
X1866741Y1666221D01*
X1867119Y1665422D01*
X1867477Y1664614D01*
X1867816Y1663798D01*
X1868136Y1662974D01*
X1868436Y1662143D01*
X1868716Y1661305D01*
X1868975Y1660460D01*
X1869215Y1659610D01*
X1869434Y1658754D01*
X1869633Y1657893D01*
X1869811Y1657027D01*
X1869968Y1656157D01*
X1870105Y1655284D01*
X1870221Y1654408D01*
X1870315Y1653530D01*
X1870389Y1652649D01*
X1870442Y1651767D01*
X1870473Y1650884D01*
X1870484Y1650000D01*
X1845529Y1650000D02*
X1845540Y1649116D01*
X1845571Y1648233D01*
X1845624Y1647351D01*
X1845698Y1646470D01*
X1845792Y1645592D01*
X1845908Y1644716D01*
X1846045Y1643843D01*
X1846202Y1642973D01*
X1846380Y1642107D01*
X1846579Y1641246D01*
X1846798Y1640390D01*
X1847038Y1639540D01*
X1847297Y1638695D01*
X1847577Y1637857D01*
X1847877Y1637025D01*
X1848197Y1636201D01*
X1848536Y1635385D01*
X1848894Y1634578D01*
X1849272Y1633779D01*
X1849272Y1633778D02*
X1849348Y1633567D01*
X1849428Y1633357D01*
X1849514Y1633150D01*
X1849604Y1632944D01*
X1849700Y1632741D01*
X1849800Y1632540D01*
X1849906Y1632342D01*
X1850016Y1632146D01*
X1850131Y1631953D01*
X1850250Y1631763D01*
X1850375Y1631576D01*
X1850503Y1631392D01*
X1850636Y1631211D01*
X1850774Y1631033D01*
X1850915Y1630859D01*
X1851061Y1630689D01*
X1851211Y1630521D01*
X1851365Y1630358D01*
X1851523Y1630198D01*
X1851685Y1630043D01*
X1851851Y1629891D01*
X1852020Y1629743D01*
X1852193Y1629600D01*
X1852369Y1629461D01*
X1852548Y1629326D01*
X1852731Y1629195D01*
X1852917Y1629069D01*
X1853106Y1628948D01*
X1853298Y1628831D01*
X1853492Y1628719D01*
X1853690Y1628611D01*
X1853889Y1628509D01*
X1854092Y1628411D01*
X1854296Y1628318D01*
X1854503Y1628230D01*
X1854712Y1628148D01*
X1854922Y1628070D01*
X1855135Y1627998D01*
X1855349Y1627931D01*
X1855565Y1627869D01*
X1855782Y1627812D01*
X1856001Y1627760D01*
X1856221Y1627714D01*
X1856442Y1627674D01*
X1856663Y1627638D01*
X1856886Y1627608D01*
X1857109Y1627584D01*
X1857333Y1627565D01*
X1857557Y1627551D01*
X1857781Y1627543D01*
X1858006Y1627540D01*
X1866741Y1633779D02*
X1867119Y1634578D01*
X1867477Y1635385D01*
X1867816Y1636201D01*
X1868136Y1637025D01*
X1868436Y1637857D01*
X1868716Y1638695D01*
X1868975Y1639540D01*
X1869215Y1640390D01*
X1869434Y1641246D01*
X1869633Y1642107D01*
X1869811Y1642973D01*
X1869968Y1643843D01*
X1870105Y1644716D01*
X1870221Y1645592D01*
X1870315Y1646470D01*
X1870389Y1647351D01*
X1870442Y1648233D01*
X1870473Y1649116D01*
X1870484Y1650000D01*
X1866741Y1633779D02*
X1866665Y1633567D01*
X1866585Y1633358D01*
X1866499Y1633150D01*
X1866409Y1632945D01*
X1866313Y1632741D01*
X1866212Y1632541D01*
X1866107Y1632342D01*
X1865997Y1632147D01*
X1865882Y1631954D01*
X1865762Y1631763D01*
X1865638Y1631576D01*
X1865510Y1631392D01*
X1865376Y1631211D01*
X1865239Y1631034D01*
X1865097Y1630859D01*
X1864951Y1630689D01*
X1864801Y1630522D01*
X1864647Y1630358D01*
X1864489Y1630199D01*
X1864327Y1630043D01*
X1864162Y1629891D01*
X1863993Y1629743D01*
X1863820Y1629600D01*
X1863644Y1629461D01*
X1863464Y1629326D01*
X1863281Y1629195D01*
X1863095Y1629069D01*
X1862907Y1628948D01*
X1862715Y1628831D01*
X1862520Y1628719D01*
X1862323Y1628611D01*
X1862123Y1628509D01*
X1861921Y1628411D01*
X1861716Y1628318D01*
X1861510Y1628230D01*
X1861301Y1628148D01*
X1861090Y1628070D01*
X1860877Y1627998D01*
X1860663Y1627931D01*
X1860447Y1627869D01*
X1860230Y1627812D01*
X1860011Y1627760D01*
X1859791Y1627714D01*
X1859571Y1627674D01*
X1859349Y1627638D01*
X1859126Y1627608D01*
X1858903Y1627584D01*
X1858679Y1627565D01*
X1858455Y1627551D01*
X1858231Y1627543D01*
X1858006Y1627540D01*
X1848024Y1637522D02*
X1867989Y1662478D01*
X1904254Y1672460D02*
X1904525Y1672457D01*
X1904797Y1672447D01*
X1905067Y1672431D01*
X1905338Y1672408D01*
X1905608Y1672378D01*
X1905877Y1672342D01*
X1906145Y1672300D01*
X1906412Y1672251D01*
X1906677Y1672195D01*
X1906942Y1672134D01*
X1907204Y1672066D01*
X1907465Y1671991D01*
X1907724Y1671910D01*
X1907981Y1671823D01*
X1908236Y1671730D01*
X1908489Y1671631D01*
X1908739Y1671526D01*
X1908986Y1671414D01*
X1909231Y1671297D01*
X1909473Y1671174D01*
X1909712Y1671045D01*
X1909947Y1670910D01*
X1910179Y1670770D01*
X1910408Y1670624D01*
X1910633Y1670472D01*
X1910855Y1670315D01*
X1911072Y1670153D01*
X1911286Y1669986D01*
X1911496Y1669813D01*
X1911701Y1669636D01*
X1911902Y1669453D01*
X1912098Y1669266D01*
X1912290Y1669074D01*
X1912477Y1668878D01*
X1912660Y1668677D01*
X1912837Y1668472D01*
X1913010Y1668262D01*
X1913177Y1668048D01*
X1913339Y1667831D01*
X1913496Y1667609D01*
X1913648Y1667384D01*
X1913794Y1667155D01*
X1913934Y1666923D01*
X1914069Y1666688D01*
X1914198Y1666449D01*
X1914321Y1666207D01*
X1914438Y1665962D01*
X1914550Y1665715D01*
X1914655Y1665465D01*
X1914754Y1665212D01*
X1914847Y1664957D01*
X1914934Y1664700D01*
X1915015Y1664441D01*
X1915090Y1664180D01*
X1915158Y1663918D01*
X1915219Y1663653D01*
X1915275Y1663388D01*
X1915324Y1663121D01*
X1915366Y1662853D01*
X1915402Y1662584D01*
X1915432Y1662314D01*
X1915455Y1662043D01*
X1915471Y1661773D01*
X1915481Y1661501D01*
X1915484Y1661230D01*
X1904254Y1672460D02*
X1903905Y1672456D01*
X1903556Y1672443D01*
X1903208Y1672422D01*
X1902861Y1672393D01*
X1902514Y1672355D01*
X1902168Y1672308D01*
X1901823Y1672254D01*
X1901480Y1672191D01*
X1901138Y1672120D01*
X1900799Y1672040D01*
X1900461Y1671952D01*
X1900126Y1671857D01*
X1899792Y1671753D01*
X1899462Y1671641D01*
X1899134Y1671521D01*
X1898810Y1671393D01*
X1898488Y1671258D01*
X1898170Y1671114D01*
X1897855Y1670963D01*
X1897545Y1670805D01*
X1897238Y1670639D01*
X1896935Y1670466D01*
X1896636Y1670285D01*
X1896342Y1670097D01*
X1896053Y1669902D01*
X1895768Y1669701D01*
X1895489Y1669492D01*
X1895214Y1669277D01*
X1894945Y1669055D01*
X1894681Y1668826D01*
X1894423Y1668592D01*
X1894170Y1668351D01*
X1893924Y1668104D01*
X1893683Y1667851D01*
X1893449Y1667593D01*
X1893221Y1667329D01*
X1892999Y1667059D01*
X1892784Y1666784D01*
X1892576Y1666504D01*
X1892375Y1666219D01*
X1892180Y1665930D01*
X1891993Y1665636D01*
X1891812Y1665337D01*
X1891639Y1665034D01*
X1891474Y1664727D01*
X1891316Y1664416D01*
X1891165Y1664101D01*
X1891022Y1663783D01*
X1890887Y1663461D01*
X1890760Y1663136D01*
X1890640Y1662808D01*
X1890529Y1662478D01*
X1911741Y1652495D02*
X1911953Y1652702D01*
X1912159Y1652914D01*
X1912361Y1653131D01*
X1912557Y1653353D01*
X1912747Y1653579D01*
X1912932Y1653810D01*
X1913111Y1654046D01*
X1913285Y1654286D01*
X1913452Y1654530D01*
X1913614Y1654778D01*
X1913769Y1655030D01*
X1913918Y1655286D01*
X1914060Y1655545D01*
X1914197Y1655808D01*
X1914326Y1656074D01*
X1914450Y1656343D01*
X1914566Y1656615D01*
X1914676Y1656890D01*
X1914779Y1657167D01*
X1914876Y1657447D01*
X1914965Y1657729D01*
X1915047Y1658014D01*
X1915123Y1658300D01*
X1915191Y1658588D01*
X1915252Y1658877D01*
X1915307Y1659168D01*
X1915354Y1659460D01*
X1915393Y1659754D01*
X1915426Y1660048D01*
X1915451Y1660343D01*
X1915469Y1660638D01*
X1915480Y1660934D01*
X1915484Y1661230D01*
X1911741Y1652495D02*
X1890528Y1627540D01*
X1915484Y1627540D01*
D13*
X736000Y2394000D02*
X736000Y2574000D01*
X1036000Y2574000D02*
X1036000Y2394000D01*
X1016000Y2394000D01*
X756000Y2574000D02*
X736000Y2574000D01*
X1016000Y2574000D02*
X1036000Y2574000D01*
X756000Y2394000D02*
X736000Y2394000D01*
D12*
X708460Y2398507D02*
X663540Y2398507D01*
X708460Y2393516D02*
X708460Y2403498D01*
X663540Y2403498D02*
X663540Y2393516D01*
X708460Y2431863D02*
X708460Y2441845D01*
X708461Y2431863D02*
X708458Y2431618D01*
X708449Y2431373D01*
X708434Y2431129D01*
X708413Y2430885D01*
X708386Y2430641D01*
X708353Y2430398D01*
X708314Y2430156D01*
X708269Y2429915D01*
X708218Y2429676D01*
X708162Y2429437D01*
X708099Y2429200D01*
X708031Y2428965D01*
X707957Y2428732D01*
X707877Y2428500D01*
X707792Y2428270D01*
X707701Y2428043D01*
X707605Y2427818D01*
X707503Y2427595D01*
X707395Y2427375D01*
X707282Y2427157D01*
X707164Y2426942D01*
X707041Y2426731D01*
X706912Y2426522D01*
X706779Y2426317D01*
X706640Y2426115D01*
X706496Y2425916D01*
X706348Y2425721D01*
X706195Y2425530D01*
X706037Y2425342D01*
X705875Y2425159D01*
X705708Y2424979D01*
X705537Y2424804D01*
X705362Y2424633D01*
X705182Y2424466D01*
X704999Y2424304D01*
X704811Y2424146D01*
X704620Y2423993D01*
X704425Y2423845D01*
X704226Y2423701D01*
X704024Y2423563D01*
X703819Y2423429D01*
X703610Y2423300D01*
X703399Y2423177D01*
X703184Y2423059D01*
X702967Y2422946D01*
X702746Y2422839D01*
X702524Y2422737D01*
X702299Y2422640D01*
X702071Y2422549D01*
X701841Y2422464D01*
X701610Y2422384D01*
X701376Y2422310D01*
X701141Y2422242D01*
X700904Y2422179D01*
X700666Y2422123D01*
X700426Y2422072D01*
X700185Y2422027D01*
X699943Y2421988D01*
X699700Y2421955D01*
X699457Y2421928D01*
X699213Y2421907D01*
X698968Y2421892D01*
X698723Y2421883D01*
X698478Y2421880D01*
X698478Y2421881D02*
X673523Y2421881D01*
X673523Y2421880D02*
X673278Y2421883D01*
X673033Y2421892D01*
X672789Y2421907D01*
X672545Y2421928D01*
X672301Y2421955D01*
X672058Y2421988D01*
X671816Y2422027D01*
X671575Y2422072D01*
X671336Y2422123D01*
X671097Y2422179D01*
X670860Y2422242D01*
X670625Y2422310D01*
X670392Y2422384D01*
X670160Y2422464D01*
X669930Y2422549D01*
X669703Y2422640D01*
X669478Y2422736D01*
X669255Y2422838D01*
X669035Y2422946D01*
X668817Y2423059D01*
X668602Y2423177D01*
X668391Y2423300D01*
X668182Y2423429D01*
X667977Y2423562D01*
X667775Y2423701D01*
X667576Y2423845D01*
X667381Y2423993D01*
X667190Y2424146D01*
X667002Y2424304D01*
X666819Y2424466D01*
X666639Y2424633D01*
X666464Y2424804D01*
X666293Y2424979D01*
X666126Y2425159D01*
X665964Y2425342D01*
X665806Y2425530D01*
X665653Y2425721D01*
X665505Y2425916D01*
X665361Y2426115D01*
X665223Y2426317D01*
X665089Y2426522D01*
X664960Y2426731D01*
X664837Y2426942D01*
X664719Y2427157D01*
X664606Y2427374D01*
X664499Y2427595D01*
X664397Y2427817D01*
X664300Y2428042D01*
X664209Y2428270D01*
X664124Y2428500D01*
X664044Y2428731D01*
X663970Y2428965D01*
X663902Y2429200D01*
X663839Y2429437D01*
X663783Y2429675D01*
X663732Y2429915D01*
X663687Y2430156D01*
X663648Y2430398D01*
X663615Y2430641D01*
X663588Y2430884D01*
X663567Y2431128D01*
X663552Y2431373D01*
X663543Y2431618D01*
X663540Y2431863D01*
X663540Y2441845D01*
X663540Y2469511D02*
X698478Y2459529D01*
X698478Y2484484D01*
X688496Y2476998D02*
X708460Y2476998D01*
X686000Y2504529D02*
X685116Y2504540D01*
X684233Y2504571D01*
X683351Y2504624D01*
X682470Y2504698D01*
X681592Y2504792D01*
X680716Y2504908D01*
X679843Y2505045D01*
X678973Y2505202D01*
X678108Y2505380D01*
X677246Y2505579D01*
X676390Y2505798D01*
X675540Y2506038D01*
X674695Y2506297D01*
X673857Y2506577D01*
X673026Y2506877D01*
X672202Y2507197D01*
X671386Y2507536D01*
X670578Y2507894D01*
X669779Y2508272D01*
X669567Y2508347D01*
X669358Y2508428D01*
X669150Y2508513D01*
X668945Y2508604D01*
X668741Y2508700D01*
X668541Y2508800D01*
X668342Y2508906D01*
X668147Y2509016D01*
X667954Y2509131D01*
X667764Y2509250D01*
X667576Y2509374D01*
X667392Y2509503D01*
X667211Y2509636D01*
X667034Y2509773D01*
X666860Y2509915D01*
X666689Y2510061D01*
X666522Y2510211D01*
X666358Y2510365D01*
X666199Y2510523D01*
X666043Y2510685D01*
X665891Y2510851D01*
X665744Y2511020D01*
X665600Y2511193D01*
X665461Y2511369D01*
X665326Y2511548D01*
X665195Y2511731D01*
X665069Y2511917D01*
X664948Y2512106D01*
X664831Y2512298D01*
X664719Y2512492D01*
X664611Y2512689D01*
X664509Y2512889D01*
X664411Y2513091D01*
X664318Y2513296D01*
X664230Y2513503D01*
X664148Y2513711D01*
X664070Y2513922D01*
X663998Y2514135D01*
X663931Y2514349D01*
X663869Y2514565D01*
X663812Y2514782D01*
X663760Y2515001D01*
X663714Y2515221D01*
X663674Y2515441D01*
X663638Y2515663D01*
X663608Y2515886D01*
X663584Y2516109D01*
X663565Y2516333D01*
X663551Y2516557D01*
X663543Y2516781D01*
X663540Y2517006D01*
X663543Y2517231D01*
X663551Y2517455D01*
X663565Y2517679D01*
X663584Y2517903D01*
X663608Y2518126D01*
X663638Y2518349D01*
X663674Y2518571D01*
X663714Y2518791D01*
X663760Y2519011D01*
X663812Y2519230D01*
X663869Y2519447D01*
X663931Y2519663D01*
X663998Y2519877D01*
X664070Y2520090D01*
X664148Y2520301D01*
X664230Y2520509D01*
X664318Y2520716D01*
X664411Y2520921D01*
X664509Y2521123D01*
X664611Y2521323D01*
X664719Y2521520D01*
X664831Y2521714D01*
X664948Y2521906D01*
X665069Y2522095D01*
X665195Y2522281D01*
X665326Y2522464D01*
X665461Y2522643D01*
X665600Y2522819D01*
X665743Y2522992D01*
X665891Y2523161D01*
X666043Y2523327D01*
X666199Y2523489D01*
X666358Y2523647D01*
X666522Y2523801D01*
X666689Y2523951D01*
X666859Y2524097D01*
X667034Y2524238D01*
X667211Y2524376D01*
X667392Y2524509D01*
X667576Y2524638D01*
X667763Y2524762D01*
X667954Y2524881D01*
X668146Y2524996D01*
X668342Y2525106D01*
X668541Y2525212D01*
X668741Y2525312D01*
X668945Y2525408D01*
X669150Y2525498D01*
X669358Y2525584D01*
X669567Y2525665D01*
X669779Y2525740D01*
X669779Y2525741D02*
X670578Y2526119D01*
X671386Y2526477D01*
X672202Y2526816D01*
X673026Y2527136D01*
X673857Y2527436D01*
X674695Y2527716D01*
X675540Y2527975D01*
X676390Y2528215D01*
X677246Y2528434D01*
X678108Y2528633D01*
X678973Y2528811D01*
X679843Y2528968D01*
X680716Y2529105D01*
X681592Y2529221D01*
X682470Y2529315D01*
X683351Y2529389D01*
X684233Y2529442D01*
X685116Y2529473D01*
X686000Y2529484D01*
X686000Y2504529D02*
X686884Y2504540D01*
X687767Y2504571D01*
X688649Y2504624D01*
X689530Y2504698D01*
X690408Y2504792D01*
X691284Y2504908D01*
X692157Y2505045D01*
X693027Y2505202D01*
X693893Y2505380D01*
X694754Y2505579D01*
X695610Y2505798D01*
X696460Y2506038D01*
X697305Y2506297D01*
X698143Y2506577D01*
X698975Y2506877D01*
X699799Y2507197D01*
X700615Y2507536D01*
X701422Y2507894D01*
X702221Y2508272D01*
X702222Y2508272D02*
X702433Y2508348D01*
X702643Y2508428D01*
X702850Y2508514D01*
X703056Y2508604D01*
X703259Y2508700D01*
X703460Y2508800D01*
X703658Y2508906D01*
X703854Y2509016D01*
X704047Y2509131D01*
X704237Y2509250D01*
X704424Y2509375D01*
X704608Y2509503D01*
X704789Y2509636D01*
X704967Y2509774D01*
X705141Y2509915D01*
X705311Y2510061D01*
X705479Y2510211D01*
X705642Y2510365D01*
X705802Y2510523D01*
X705957Y2510685D01*
X706109Y2510851D01*
X706257Y2511020D01*
X706400Y2511193D01*
X706539Y2511369D01*
X706674Y2511548D01*
X706805Y2511731D01*
X706931Y2511917D01*
X707052Y2512106D01*
X707169Y2512298D01*
X707281Y2512492D01*
X707389Y2512690D01*
X707491Y2512889D01*
X707589Y2513092D01*
X707682Y2513296D01*
X707770Y2513503D01*
X707852Y2513712D01*
X707930Y2513922D01*
X708002Y2514135D01*
X708069Y2514349D01*
X708131Y2514565D01*
X708188Y2514782D01*
X708240Y2515001D01*
X708286Y2515221D01*
X708326Y2515442D01*
X708362Y2515663D01*
X708392Y2515886D01*
X708416Y2516109D01*
X708435Y2516333D01*
X708449Y2516557D01*
X708457Y2516781D01*
X708460Y2517006D01*
X702221Y2525741D02*
X701422Y2526119D01*
X700615Y2526477D01*
X699799Y2526816D01*
X698975Y2527136D01*
X698143Y2527436D01*
X697305Y2527716D01*
X696460Y2527975D01*
X695610Y2528215D01*
X694754Y2528434D01*
X693893Y2528633D01*
X693027Y2528811D01*
X692157Y2528968D01*
X691284Y2529105D01*
X690408Y2529221D01*
X689530Y2529315D01*
X688649Y2529389D01*
X687767Y2529442D01*
X686884Y2529473D01*
X686000Y2529484D01*
X702221Y2525741D02*
X702433Y2525665D01*
X702642Y2525585D01*
X702850Y2525499D01*
X703055Y2525409D01*
X703259Y2525313D01*
X703459Y2525212D01*
X703658Y2525107D01*
X703853Y2524997D01*
X704046Y2524882D01*
X704237Y2524762D01*
X704424Y2524638D01*
X704608Y2524510D01*
X704789Y2524376D01*
X704966Y2524239D01*
X705141Y2524097D01*
X705311Y2523951D01*
X705478Y2523801D01*
X705642Y2523647D01*
X705801Y2523489D01*
X705957Y2523327D01*
X706109Y2523162D01*
X706257Y2522993D01*
X706400Y2522820D01*
X706539Y2522644D01*
X706674Y2522464D01*
X706805Y2522281D01*
X706931Y2522095D01*
X707052Y2521907D01*
X707169Y2521715D01*
X707281Y2521520D01*
X707389Y2521323D01*
X707491Y2521123D01*
X707589Y2520921D01*
X707682Y2520716D01*
X707770Y2520510D01*
X707852Y2520301D01*
X707930Y2520090D01*
X708002Y2519877D01*
X708069Y2519663D01*
X708131Y2519447D01*
X708188Y2519230D01*
X708240Y2519011D01*
X708286Y2518791D01*
X708326Y2518571D01*
X708362Y2518349D01*
X708392Y2518126D01*
X708416Y2517903D01*
X708435Y2517679D01*
X708449Y2517455D01*
X708457Y2517231D01*
X708460Y2517006D01*
X698478Y2507024D02*
X673523Y2526989D01*
X673523Y2549528D02*
X663540Y2562006D01*
X708460Y2562006D01*
X708460Y2549528D02*
X708460Y2574484D01*
D13*
X2550000Y1609500D02*
X2550000Y1309500D01*
X2850000Y1309500D02*
X2850000Y1609500D01*
D15*
X2490000Y1259500D02*
X2490003Y1259745D01*
X2490012Y1259991D01*
X2490027Y1260236D01*
X2490048Y1260480D01*
X2490075Y1260724D01*
X2490108Y1260967D01*
X2490147Y1261210D01*
X2490192Y1261451D01*
X2490243Y1261691D01*
X2490300Y1261930D01*
X2490362Y1262167D01*
X2490431Y1262403D01*
X2490505Y1262637D01*
X2490585Y1262869D01*
X2490670Y1263099D01*
X2490761Y1263327D01*
X2490858Y1263552D01*
X2490960Y1263776D01*
X2491068Y1263996D01*
X2491181Y1264214D01*
X2491299Y1264429D01*
X2491423Y1264641D01*
X2491551Y1264850D01*
X2491685Y1265056D01*
X2491824Y1265258D01*
X2491968Y1265457D01*
X2492117Y1265652D01*
X2492270Y1265844D01*
X2492428Y1266032D01*
X2492590Y1266216D01*
X2492758Y1266395D01*
X2492929Y1266571D01*
X2493105Y1266742D01*
X2493284Y1266910D01*
X2493468Y1267072D01*
X2493656Y1267230D01*
X2493848Y1267383D01*
X2494043Y1267532D01*
X2494242Y1267676D01*
X2494444Y1267815D01*
X2494650Y1267949D01*
X2494859Y1268077D01*
X2495071Y1268201D01*
X2495286Y1268319D01*
X2495504Y1268432D01*
X2495724Y1268540D01*
X2495948Y1268642D01*
X2496173Y1268739D01*
X2496401Y1268830D01*
X2496631Y1268915D01*
X2496863Y1268995D01*
X2497097Y1269069D01*
X2497333Y1269138D01*
X2497570Y1269200D01*
X2497809Y1269257D01*
X2498049Y1269308D01*
X2498290Y1269353D01*
X2498533Y1269392D01*
X2498776Y1269425D01*
X2499020Y1269452D01*
X2499264Y1269473D01*
X2499509Y1269488D01*
X2499755Y1269497D01*
X2500000Y1269500D01*
X2500245Y1269497D01*
X2500491Y1269488D01*
X2500736Y1269473D01*
X2500980Y1269452D01*
X2501224Y1269425D01*
X2501467Y1269392D01*
X2501710Y1269353D01*
X2501951Y1269308D01*
X2502191Y1269257D01*
X2502430Y1269200D01*
X2502667Y1269138D01*
X2502903Y1269069D01*
X2503137Y1268995D01*
X2503369Y1268915D01*
X2503599Y1268830D01*
X2503827Y1268739D01*
X2504052Y1268642D01*
X2504276Y1268540D01*
X2504496Y1268432D01*
X2504714Y1268319D01*
X2504929Y1268201D01*
X2505141Y1268077D01*
X2505350Y1267949D01*
X2505556Y1267815D01*
X2505758Y1267676D01*
X2505957Y1267532D01*
X2506152Y1267383D01*
X2506344Y1267230D01*
X2506532Y1267072D01*
X2506716Y1266910D01*
X2506895Y1266742D01*
X2507071Y1266571D01*
X2507242Y1266395D01*
X2507410Y1266216D01*
X2507572Y1266032D01*
X2507730Y1265844D01*
X2507883Y1265652D01*
X2508032Y1265457D01*
X2508176Y1265258D01*
X2508315Y1265056D01*
X2508449Y1264850D01*
X2508577Y1264641D01*
X2508701Y1264429D01*
X2508819Y1264214D01*
X2508932Y1263996D01*
X2509040Y1263776D01*
X2509142Y1263552D01*
X2509239Y1263327D01*
X2509330Y1263099D01*
X2509415Y1262869D01*
X2509495Y1262637D01*
X2509569Y1262403D01*
X2509638Y1262167D01*
X2509700Y1261930D01*
X2509757Y1261691D01*
X2509808Y1261451D01*
X2509853Y1261210D01*
X2509892Y1260967D01*
X2509925Y1260724D01*
X2509952Y1260480D01*
X2509973Y1260236D01*
X2509988Y1259991D01*
X2509997Y1259745D01*
X2510000Y1259500D01*
X2509997Y1259255D01*
X2509988Y1259009D01*
X2509973Y1258764D01*
X2509952Y1258520D01*
X2509925Y1258276D01*
X2509892Y1258033D01*
X2509853Y1257790D01*
X2509808Y1257549D01*
X2509757Y1257309D01*
X2509700Y1257070D01*
X2509638Y1256833D01*
X2509569Y1256597D01*
X2509495Y1256363D01*
X2509415Y1256131D01*
X2509330Y1255901D01*
X2509239Y1255673D01*
X2509142Y1255448D01*
X2509040Y1255224D01*
X2508932Y1255004D01*
X2508819Y1254786D01*
X2508701Y1254571D01*
X2508577Y1254359D01*
X2508449Y1254150D01*
X2508315Y1253944D01*
X2508176Y1253742D01*
X2508032Y1253543D01*
X2507883Y1253348D01*
X2507730Y1253156D01*
X2507572Y1252968D01*
X2507410Y1252784D01*
X2507242Y1252605D01*
X2507071Y1252429D01*
X2506895Y1252258D01*
X2506716Y1252090D01*
X2506532Y1251928D01*
X2506344Y1251770D01*
X2506152Y1251617D01*
X2505957Y1251468D01*
X2505758Y1251324D01*
X2505556Y1251185D01*
X2505350Y1251051D01*
X2505141Y1250923D01*
X2504929Y1250799D01*
X2504714Y1250681D01*
X2504496Y1250568D01*
X2504276Y1250460D01*
X2504052Y1250358D01*
X2503827Y1250261D01*
X2503599Y1250170D01*
X2503369Y1250085D01*
X2503137Y1250005D01*
X2502903Y1249931D01*
X2502667Y1249862D01*
X2502430Y1249800D01*
X2502191Y1249743D01*
X2501951Y1249692D01*
X2501710Y1249647D01*
X2501467Y1249608D01*
X2501224Y1249575D01*
X2500980Y1249548D01*
X2500736Y1249527D01*
X2500491Y1249512D01*
X2500245Y1249503D01*
X2500000Y1249500D01*
X2499755Y1249503D01*
X2499509Y1249512D01*
X2499264Y1249527D01*
X2499020Y1249548D01*
X2498776Y1249575D01*
X2498533Y1249608D01*
X2498290Y1249647D01*
X2498049Y1249692D01*
X2497809Y1249743D01*
X2497570Y1249800D01*
X2497333Y1249862D01*
X2497097Y1249931D01*
X2496863Y1250005D01*
X2496631Y1250085D01*
X2496401Y1250170D01*
X2496173Y1250261D01*
X2495948Y1250358D01*
X2495724Y1250460D01*
X2495504Y1250568D01*
X2495286Y1250681D01*
X2495071Y1250799D01*
X2494859Y1250923D01*
X2494650Y1251051D01*
X2494444Y1251185D01*
X2494242Y1251324D01*
X2494043Y1251468D01*
X2493848Y1251617D01*
X2493656Y1251770D01*
X2493468Y1251928D01*
X2493284Y1252090D01*
X2493105Y1252258D01*
X2492929Y1252429D01*
X2492758Y1252605D01*
X2492590Y1252784D01*
X2492428Y1252968D01*
X2492270Y1253156D01*
X2492117Y1253348D01*
X2491968Y1253543D01*
X2491824Y1253742D01*
X2491685Y1253944D01*
X2491551Y1254150D01*
X2491423Y1254359D01*
X2491299Y1254571D01*
X2491181Y1254786D01*
X2491068Y1255004D01*
X2490960Y1255224D01*
X2490858Y1255448D01*
X2490761Y1255673D01*
X2490670Y1255901D01*
X2490585Y1256131D01*
X2490505Y1256363D01*
X2490431Y1256597D01*
X2490362Y1256833D01*
X2490300Y1257070D01*
X2490243Y1257309D01*
X2490192Y1257549D01*
X2490147Y1257790D01*
X2490108Y1258033D01*
X2490075Y1258276D01*
X2490048Y1258520D01*
X2490027Y1258764D01*
X2490012Y1259009D01*
X2490003Y1259255D01*
X2490000Y1259500D01*
D13*
X2520000Y1309500D02*
X2550000Y1309500D01*
X2550000Y1609500D02*
X2520000Y1609500D01*
X2850000Y1309500D02*
X2880000Y1309500D01*
X2880000Y1609500D02*
X2850000Y1609500D01*
D12*
X2522460Y1349007D02*
X2477540Y1349007D01*
X2522460Y1344016D02*
X2522460Y1353998D01*
X2477540Y1353998D02*
X2477540Y1344016D01*
X2522460Y1382363D02*
X2522460Y1392345D01*
X2522461Y1382363D02*
X2522458Y1382118D01*
X2522449Y1381873D01*
X2522434Y1381629D01*
X2522413Y1381385D01*
X2522386Y1381141D01*
X2522353Y1380898D01*
X2522314Y1380656D01*
X2522269Y1380415D01*
X2522218Y1380176D01*
X2522162Y1379937D01*
X2522099Y1379700D01*
X2522031Y1379465D01*
X2521957Y1379232D01*
X2521877Y1379000D01*
X2521792Y1378770D01*
X2521701Y1378543D01*
X2521605Y1378318D01*
X2521503Y1378095D01*
X2521395Y1377875D01*
X2521282Y1377657D01*
X2521164Y1377442D01*
X2521041Y1377231D01*
X2520912Y1377022D01*
X2520779Y1376817D01*
X2520640Y1376615D01*
X2520496Y1376416D01*
X2520348Y1376221D01*
X2520195Y1376030D01*
X2520037Y1375842D01*
X2519875Y1375659D01*
X2519708Y1375479D01*
X2519537Y1375304D01*
X2519362Y1375133D01*
X2519182Y1374966D01*
X2518999Y1374804D01*
X2518811Y1374646D01*
X2518620Y1374493D01*
X2518425Y1374345D01*
X2518226Y1374201D01*
X2518024Y1374063D01*
X2517819Y1373929D01*
X2517610Y1373800D01*
X2517399Y1373677D01*
X2517184Y1373559D01*
X2516967Y1373446D01*
X2516746Y1373339D01*
X2516524Y1373237D01*
X2516299Y1373140D01*
X2516071Y1373049D01*
X2515841Y1372964D01*
X2515610Y1372884D01*
X2515376Y1372810D01*
X2515141Y1372742D01*
X2514904Y1372679D01*
X2514666Y1372623D01*
X2514426Y1372572D01*
X2514185Y1372527D01*
X2513943Y1372488D01*
X2513700Y1372455D01*
X2513457Y1372428D01*
X2513213Y1372407D01*
X2512968Y1372392D01*
X2512723Y1372383D01*
X2512478Y1372380D01*
X2512478Y1372381D02*
X2487523Y1372381D01*
X2487523Y1372380D02*
X2487278Y1372383D01*
X2487033Y1372392D01*
X2486789Y1372407D01*
X2486545Y1372428D01*
X2486301Y1372455D01*
X2486058Y1372488D01*
X2485816Y1372527D01*
X2485575Y1372572D01*
X2485336Y1372623D01*
X2485097Y1372679D01*
X2484860Y1372742D01*
X2484625Y1372810D01*
X2484392Y1372884D01*
X2484160Y1372964D01*
X2483930Y1373049D01*
X2483703Y1373140D01*
X2483478Y1373236D01*
X2483255Y1373338D01*
X2483035Y1373446D01*
X2482817Y1373559D01*
X2482602Y1373677D01*
X2482391Y1373800D01*
X2482182Y1373929D01*
X2481977Y1374062D01*
X2481775Y1374201D01*
X2481576Y1374345D01*
X2481381Y1374493D01*
X2481190Y1374646D01*
X2481002Y1374804D01*
X2480819Y1374966D01*
X2480639Y1375133D01*
X2480464Y1375304D01*
X2480293Y1375479D01*
X2480126Y1375659D01*
X2479964Y1375842D01*
X2479806Y1376030D01*
X2479653Y1376221D01*
X2479505Y1376416D01*
X2479361Y1376615D01*
X2479223Y1376817D01*
X2479089Y1377022D01*
X2478960Y1377231D01*
X2478837Y1377442D01*
X2478719Y1377657D01*
X2478606Y1377874D01*
X2478499Y1378095D01*
X2478397Y1378317D01*
X2478300Y1378542D01*
X2478209Y1378770D01*
X2478124Y1379000D01*
X2478044Y1379231D01*
X2477970Y1379465D01*
X2477902Y1379700D01*
X2477839Y1379937D01*
X2477783Y1380175D01*
X2477732Y1380415D01*
X2477687Y1380656D01*
X2477648Y1380898D01*
X2477615Y1381141D01*
X2477588Y1381384D01*
X2477567Y1381628D01*
X2477552Y1381873D01*
X2477543Y1382118D01*
X2477540Y1382363D01*
X2477540Y1392345D01*
X2522460Y1410029D02*
X2522460Y1425002D01*
X2522457Y1425243D01*
X2522448Y1425484D01*
X2522434Y1425725D01*
X2522413Y1425965D01*
X2522387Y1426205D01*
X2522355Y1426444D01*
X2522318Y1426683D01*
X2522274Y1426920D01*
X2522225Y1427156D01*
X2522170Y1427391D01*
X2522109Y1427624D01*
X2522043Y1427856D01*
X2521971Y1428087D01*
X2521894Y1428315D01*
X2521811Y1428542D01*
X2521723Y1428766D01*
X2521629Y1428988D01*
X2521530Y1429208D01*
X2521426Y1429426D01*
X2521317Y1429641D01*
X2521202Y1429853D01*
X2521082Y1430062D01*
X2520957Y1430269D01*
X2520828Y1430472D01*
X2520693Y1430672D01*
X2520554Y1430869D01*
X2520409Y1431063D01*
X2520261Y1431253D01*
X2520107Y1431439D01*
X2519950Y1431621D01*
X2519788Y1431800D01*
X2519621Y1431975D01*
X2519451Y1432145D01*
X2519276Y1432312D01*
X2519097Y1432474D01*
X2518915Y1432631D01*
X2518729Y1432785D01*
X2518539Y1432933D01*
X2518345Y1433078D01*
X2518148Y1433217D01*
X2517948Y1433352D01*
X2517745Y1433481D01*
X2517538Y1433606D01*
X2517329Y1433726D01*
X2517117Y1433841D01*
X2516902Y1433950D01*
X2516684Y1434054D01*
X2516464Y1434153D01*
X2516242Y1434247D01*
X2516018Y1434335D01*
X2515791Y1434418D01*
X2515563Y1434495D01*
X2515332Y1434567D01*
X2515100Y1434633D01*
X2514867Y1434694D01*
X2514632Y1434749D01*
X2514396Y1434798D01*
X2514159Y1434842D01*
X2513920Y1434879D01*
X2513681Y1434911D01*
X2513441Y1434937D01*
X2513201Y1434958D01*
X2512960Y1434972D01*
X2512719Y1434981D01*
X2512478Y1434984D01*
X2507487Y1434984D01*
X2507487Y1434985D02*
X2507242Y1434982D01*
X2506997Y1434973D01*
X2506753Y1434958D01*
X2506509Y1434937D01*
X2506265Y1434910D01*
X2506022Y1434877D01*
X2505780Y1434838D01*
X2505539Y1434793D01*
X2505300Y1434742D01*
X2505061Y1434686D01*
X2504824Y1434623D01*
X2504589Y1434555D01*
X2504356Y1434481D01*
X2504124Y1434401D01*
X2503894Y1434316D01*
X2503667Y1434225D01*
X2503442Y1434129D01*
X2503219Y1434027D01*
X2502999Y1433919D01*
X2502781Y1433806D01*
X2502566Y1433688D01*
X2502355Y1433565D01*
X2502146Y1433436D01*
X2501941Y1433303D01*
X2501739Y1433164D01*
X2501540Y1433020D01*
X2501345Y1432872D01*
X2501154Y1432719D01*
X2500966Y1432561D01*
X2500783Y1432399D01*
X2500603Y1432232D01*
X2500428Y1432061D01*
X2500257Y1431886D01*
X2500090Y1431706D01*
X2499928Y1431523D01*
X2499770Y1431335D01*
X2499617Y1431144D01*
X2499469Y1430949D01*
X2499325Y1430750D01*
X2499187Y1430548D01*
X2499053Y1430343D01*
X2498924Y1430134D01*
X2498801Y1429923D01*
X2498683Y1429708D01*
X2498570Y1429491D01*
X2498463Y1429270D01*
X2498361Y1429048D01*
X2498264Y1428823D01*
X2498173Y1428595D01*
X2498088Y1428365D01*
X2498008Y1428134D01*
X2497934Y1427900D01*
X2497866Y1427665D01*
X2497803Y1427428D01*
X2497747Y1427190D01*
X2497696Y1426950D01*
X2497651Y1426709D01*
X2497612Y1426467D01*
X2497579Y1426224D01*
X2497552Y1425981D01*
X2497531Y1425737D01*
X2497516Y1425492D01*
X2497507Y1425247D01*
X2497504Y1425002D01*
X2497505Y1425002D02*
X2497505Y1410029D01*
X2477540Y1410029D01*
X2477540Y1434984D01*
X2483779Y1458772D02*
X2484578Y1458394D01*
X2485386Y1458036D01*
X2486202Y1457697D01*
X2487026Y1457377D01*
X2487857Y1457077D01*
X2488695Y1456797D01*
X2489540Y1456538D01*
X2490390Y1456298D01*
X2491246Y1456079D01*
X2492108Y1455880D01*
X2492973Y1455702D01*
X2493843Y1455545D01*
X2494716Y1455408D01*
X2495592Y1455292D01*
X2496470Y1455198D01*
X2497351Y1455124D01*
X2498233Y1455071D01*
X2499116Y1455040D01*
X2500000Y1455029D01*
X2483779Y1458772D02*
X2483567Y1458847D01*
X2483358Y1458928D01*
X2483150Y1459013D01*
X2482945Y1459104D01*
X2482741Y1459200D01*
X2482541Y1459300D01*
X2482342Y1459406D01*
X2482147Y1459516D01*
X2481954Y1459631D01*
X2481764Y1459750D01*
X2481576Y1459874D01*
X2481392Y1460003D01*
X2481211Y1460136D01*
X2481034Y1460273D01*
X2480860Y1460415D01*
X2480689Y1460561D01*
X2480522Y1460711D01*
X2480358Y1460865D01*
X2480199Y1461023D01*
X2480043Y1461185D01*
X2479891Y1461351D01*
X2479744Y1461520D01*
X2479600Y1461693D01*
X2479461Y1461869D01*
X2479326Y1462048D01*
X2479195Y1462231D01*
X2479069Y1462417D01*
X2478948Y1462606D01*
X2478831Y1462798D01*
X2478719Y1462992D01*
X2478611Y1463189D01*
X2478509Y1463389D01*
X2478411Y1463591D01*
X2478318Y1463796D01*
X2478230Y1464003D01*
X2478148Y1464211D01*
X2478070Y1464422D01*
X2477998Y1464635D01*
X2477931Y1464849D01*
X2477869Y1465065D01*
X2477812Y1465282D01*
X2477760Y1465501D01*
X2477714Y1465721D01*
X2477674Y1465941D01*
X2477638Y1466163D01*
X2477608Y1466386D01*
X2477584Y1466609D01*
X2477565Y1466833D01*
X2477551Y1467057D01*
X2477543Y1467281D01*
X2477540Y1467506D01*
X2477543Y1467731D01*
X2477551Y1467955D01*
X2477565Y1468179D01*
X2477584Y1468403D01*
X2477608Y1468626D01*
X2477638Y1468849D01*
X2477674Y1469071D01*
X2477714Y1469291D01*
X2477760Y1469511D01*
X2477812Y1469730D01*
X2477869Y1469947D01*
X2477931Y1470163D01*
X2477998Y1470377D01*
X2478070Y1470590D01*
X2478148Y1470801D01*
X2478230Y1471009D01*
X2478318Y1471216D01*
X2478411Y1471421D01*
X2478509Y1471623D01*
X2478611Y1471823D01*
X2478719Y1472020D01*
X2478831Y1472214D01*
X2478948Y1472406D01*
X2479069Y1472595D01*
X2479195Y1472781D01*
X2479326Y1472964D01*
X2479461Y1473143D01*
X2479600Y1473319D01*
X2479743Y1473492D01*
X2479891Y1473661D01*
X2480043Y1473827D01*
X2480199Y1473989D01*
X2480358Y1474147D01*
X2480522Y1474301D01*
X2480689Y1474451D01*
X2480859Y1474597D01*
X2481034Y1474738D01*
X2481211Y1474876D01*
X2481392Y1475009D01*
X2481576Y1475138D01*
X2481763Y1475262D01*
X2481954Y1475381D01*
X2482146Y1475496D01*
X2482342Y1475606D01*
X2482541Y1475712D01*
X2482741Y1475812D01*
X2482945Y1475908D01*
X2483150Y1475998D01*
X2483358Y1476084D01*
X2483567Y1476165D01*
X2483779Y1476240D01*
X2483779Y1476241D02*
X2484578Y1476619D01*
X2485386Y1476977D01*
X2486202Y1477316D01*
X2487026Y1477636D01*
X2487857Y1477936D01*
X2488695Y1478216D01*
X2489540Y1478475D01*
X2490390Y1478715D01*
X2491246Y1478934D01*
X2492108Y1479133D01*
X2492973Y1479311D01*
X2493843Y1479468D01*
X2494716Y1479605D01*
X2495592Y1479721D01*
X2496470Y1479815D01*
X2497351Y1479889D01*
X2498233Y1479942D01*
X2499116Y1479973D01*
X2500000Y1479984D01*
X2500000Y1455029D02*
X2500884Y1455040D01*
X2501767Y1455071D01*
X2502649Y1455124D01*
X2503530Y1455198D01*
X2504408Y1455292D01*
X2505284Y1455408D01*
X2506157Y1455545D01*
X2507027Y1455702D01*
X2507893Y1455880D01*
X2508754Y1456079D01*
X2509610Y1456298D01*
X2510460Y1456538D01*
X2511305Y1456797D01*
X2512143Y1457077D01*
X2512975Y1457377D01*
X2513799Y1457697D01*
X2514615Y1458036D01*
X2515422Y1458394D01*
X2516221Y1458772D01*
X2516222Y1458772D02*
X2516433Y1458848D01*
X2516643Y1458928D01*
X2516850Y1459014D01*
X2517056Y1459104D01*
X2517259Y1459200D01*
X2517460Y1459300D01*
X2517658Y1459406D01*
X2517854Y1459516D01*
X2518047Y1459631D01*
X2518237Y1459750D01*
X2518424Y1459875D01*
X2518608Y1460003D01*
X2518789Y1460136D01*
X2518967Y1460274D01*
X2519141Y1460415D01*
X2519311Y1460561D01*
X2519479Y1460711D01*
X2519642Y1460865D01*
X2519802Y1461023D01*
X2519957Y1461185D01*
X2520109Y1461351D01*
X2520257Y1461520D01*
X2520400Y1461693D01*
X2520539Y1461869D01*
X2520674Y1462048D01*
X2520805Y1462231D01*
X2520931Y1462417D01*
X2521052Y1462606D01*
X2521169Y1462798D01*
X2521281Y1462992D01*
X2521389Y1463190D01*
X2521491Y1463389D01*
X2521589Y1463592D01*
X2521682Y1463796D01*
X2521770Y1464003D01*
X2521852Y1464212D01*
X2521930Y1464422D01*
X2522002Y1464635D01*
X2522069Y1464849D01*
X2522131Y1465065D01*
X2522188Y1465282D01*
X2522240Y1465501D01*
X2522286Y1465721D01*
X2522326Y1465942D01*
X2522362Y1466163D01*
X2522392Y1466386D01*
X2522416Y1466609D01*
X2522435Y1466833D01*
X2522449Y1467057D01*
X2522457Y1467281D01*
X2522460Y1467506D01*
X2516221Y1476241D02*
X2515422Y1476619D01*
X2514615Y1476977D01*
X2513799Y1477316D01*
X2512975Y1477636D01*
X2512143Y1477936D01*
X2511305Y1478216D01*
X2510460Y1478475D01*
X2509610Y1478715D01*
X2508754Y1478934D01*
X2507893Y1479133D01*
X2507027Y1479311D01*
X2506157Y1479468D01*
X2505284Y1479605D01*
X2504408Y1479721D01*
X2503530Y1479815D01*
X2502649Y1479889D01*
X2501767Y1479942D01*
X2500884Y1479973D01*
X2500000Y1479984D01*
X2516221Y1476241D02*
X2516433Y1476165D01*
X2516642Y1476085D01*
X2516850Y1475999D01*
X2517055Y1475909D01*
X2517259Y1475813D01*
X2517459Y1475712D01*
X2517658Y1475607D01*
X2517853Y1475497D01*
X2518046Y1475382D01*
X2518237Y1475262D01*
X2518424Y1475138D01*
X2518608Y1475010D01*
X2518789Y1474876D01*
X2518966Y1474739D01*
X2519141Y1474597D01*
X2519311Y1474451D01*
X2519478Y1474301D01*
X2519642Y1474147D01*
X2519801Y1473989D01*
X2519957Y1473827D01*
X2520109Y1473662D01*
X2520257Y1473493D01*
X2520400Y1473320D01*
X2520539Y1473144D01*
X2520674Y1472964D01*
X2520805Y1472781D01*
X2520931Y1472595D01*
X2521052Y1472407D01*
X2521169Y1472215D01*
X2521281Y1472020D01*
X2521389Y1471823D01*
X2521491Y1471623D01*
X2521589Y1471421D01*
X2521682Y1471216D01*
X2521770Y1471010D01*
X2521852Y1470801D01*
X2521930Y1470590D01*
X2522002Y1470377D01*
X2522069Y1470163D01*
X2522131Y1469947D01*
X2522188Y1469730D01*
X2522240Y1469511D01*
X2522286Y1469291D01*
X2522326Y1469071D01*
X2522362Y1468849D01*
X2522392Y1468626D01*
X2522416Y1468403D01*
X2522435Y1468179D01*
X2522449Y1467955D01*
X2522457Y1467731D01*
X2522460Y1467506D01*
X2512478Y1457524D02*
X2487523Y1477489D01*
X2497505Y1500028D02*
X2497505Y1515002D01*
X2497508Y1515243D01*
X2497517Y1515484D01*
X2497531Y1515725D01*
X2497552Y1515965D01*
X2497578Y1516205D01*
X2497610Y1516444D01*
X2497647Y1516683D01*
X2497691Y1516920D01*
X2497740Y1517156D01*
X2497795Y1517391D01*
X2497856Y1517624D01*
X2497922Y1517856D01*
X2497994Y1518087D01*
X2498071Y1518315D01*
X2498154Y1518542D01*
X2498242Y1518766D01*
X2498336Y1518989D01*
X2498435Y1519209D01*
X2498539Y1519426D01*
X2498648Y1519641D01*
X2498763Y1519853D01*
X2498883Y1520063D01*
X2499008Y1520269D01*
X2499137Y1520472D01*
X2499272Y1520673D01*
X2499411Y1520869D01*
X2499556Y1521063D01*
X2499704Y1521253D01*
X2499858Y1521439D01*
X2500015Y1521621D01*
X2500178Y1521800D01*
X2500344Y1521975D01*
X2500515Y1522145D01*
X2500689Y1522312D01*
X2500868Y1522474D01*
X2501050Y1522632D01*
X2501237Y1522785D01*
X2501426Y1522934D01*
X2501620Y1523078D01*
X2501817Y1523217D01*
X2502017Y1523352D01*
X2502220Y1523481D01*
X2502427Y1523606D01*
X2502636Y1523726D01*
X2502848Y1523841D01*
X2503063Y1523950D01*
X2503281Y1524055D01*
X2503501Y1524154D01*
X2503723Y1524247D01*
X2503948Y1524335D01*
X2504174Y1524418D01*
X2504403Y1524496D01*
X2504633Y1524567D01*
X2504865Y1524633D01*
X2505098Y1524694D01*
X2505333Y1524749D01*
X2505569Y1524798D01*
X2505807Y1524842D01*
X2506045Y1524879D01*
X2506284Y1524911D01*
X2506524Y1524937D01*
X2506764Y1524958D01*
X2507005Y1524972D01*
X2507246Y1524981D01*
X2507487Y1524984D01*
X2509983Y1524984D01*
X2510287Y1524980D01*
X2510591Y1524969D01*
X2510894Y1524951D01*
X2511197Y1524925D01*
X2511499Y1524892D01*
X2511800Y1524851D01*
X2512100Y1524803D01*
X2512399Y1524748D01*
X2512696Y1524685D01*
X2512992Y1524616D01*
X2513286Y1524539D01*
X2513578Y1524455D01*
X2513868Y1524364D01*
X2514155Y1524266D01*
X2514441Y1524161D01*
X2514723Y1524049D01*
X2515003Y1523930D01*
X2515279Y1523804D01*
X2515553Y1523672D01*
X2515823Y1523533D01*
X2516090Y1523387D01*
X2516353Y1523235D01*
X2516613Y1523077D01*
X2516868Y1522913D01*
X2517119Y1522742D01*
X2517366Y1522565D01*
X2517609Y1522382D01*
X2517847Y1522194D01*
X2518081Y1521999D01*
X2518310Y1521799D01*
X2518534Y1521594D01*
X2518752Y1521383D01*
X2518966Y1521167D01*
X2519174Y1520945D01*
X2519377Y1520719D01*
X2519574Y1520488D01*
X2519766Y1520252D01*
X2519951Y1520011D01*
X2520131Y1519766D01*
X2520305Y1519517D01*
X2520473Y1519264D01*
X2520634Y1519006D01*
X2520789Y1518745D01*
X2520938Y1518480D01*
X2521080Y1518211D01*
X2521216Y1517940D01*
X2521345Y1517664D01*
X2521467Y1517386D01*
X2521583Y1517105D01*
X2521691Y1516821D01*
X2521793Y1516535D01*
X2521887Y1516246D01*
X2521975Y1515955D01*
X2522055Y1515662D01*
X2522129Y1515367D01*
X2522195Y1515071D01*
X2522253Y1514772D01*
X2522305Y1514473D01*
X2522349Y1514172D01*
X2522386Y1513871D01*
X2522416Y1513568D01*
X2522438Y1513265D01*
X2522453Y1512962D01*
X2522460Y1512658D01*
X2522460Y1512354D01*
X2522453Y1512050D01*
X2522438Y1511747D01*
X2522416Y1511444D01*
X2522386Y1511141D01*
X2522349Y1510840D01*
X2522305Y1510539D01*
X2522253Y1510240D01*
X2522195Y1509941D01*
X2522129Y1509645D01*
X2522055Y1509350D01*
X2521975Y1509057D01*
X2521887Y1508766D01*
X2521793Y1508477D01*
X2521691Y1508191D01*
X2521583Y1507907D01*
X2521467Y1507626D01*
X2521345Y1507348D01*
X2521216Y1507072D01*
X2521080Y1506801D01*
X2520938Y1506532D01*
X2520789Y1506267D01*
X2520634Y1506006D01*
X2520473Y1505748D01*
X2520305Y1505495D01*
X2520131Y1505246D01*
X2519951Y1505001D01*
X2519766Y1504760D01*
X2519574Y1504524D01*
X2519377Y1504293D01*
X2519174Y1504067D01*
X2518966Y1503845D01*
X2518752Y1503629D01*
X2518534Y1503418D01*
X2518310Y1503213D01*
X2518081Y1503013D01*
X2517847Y1502818D01*
X2517609Y1502630D01*
X2517366Y1502447D01*
X2517119Y1502270D01*
X2516868Y1502099D01*
X2516613Y1501935D01*
X2516353Y1501777D01*
X2516090Y1501625D01*
X2515823Y1501479D01*
X2515553Y1501340D01*
X2515279Y1501208D01*
X2515003Y1501082D01*
X2514723Y1500963D01*
X2514441Y1500851D01*
X2514155Y1500746D01*
X2513868Y1500648D01*
X2513578Y1500557D01*
X2513286Y1500473D01*
X2512992Y1500396D01*
X2512696Y1500327D01*
X2512399Y1500264D01*
X2512100Y1500209D01*
X2511800Y1500161D01*
X2511499Y1500120D01*
X2511197Y1500087D01*
X2510894Y1500061D01*
X2510591Y1500043D01*
X2510287Y1500032D01*
X2509983Y1500028D01*
X2497505Y1500028D01*
X2497015Y1500034D01*
X2496525Y1500052D01*
X2496036Y1500082D01*
X2495548Y1500124D01*
X2495061Y1500178D01*
X2494576Y1500244D01*
X2494092Y1500322D01*
X2493610Y1500412D01*
X2493131Y1500513D01*
X2492654Y1500626D01*
X2492180Y1500751D01*
X2491710Y1500888D01*
X2491242Y1501036D01*
X2490779Y1501195D01*
X2490320Y1501366D01*
X2489865Y1501548D01*
X2489415Y1501741D01*
X2488969Y1501945D01*
X2488529Y1502160D01*
X2488094Y1502385D01*
X2487664Y1502622D01*
X2487241Y1502868D01*
X2486824Y1503125D01*
X2486413Y1503393D01*
X2486009Y1503670D01*
X2485612Y1503957D01*
X2485222Y1504254D01*
X2484840Y1504560D01*
X2484465Y1504875D01*
X2484098Y1505200D01*
X2483739Y1505533D01*
X2483388Y1505875D01*
X2483046Y1506226D01*
X2482712Y1506585D01*
X2482388Y1506952D01*
X2482072Y1507327D01*
X2481766Y1507710D01*
X2481469Y1508100D01*
X2481182Y1508497D01*
X2480905Y1508901D01*
X2480638Y1509311D01*
X2480381Y1509729D01*
X2480134Y1510152D01*
X2479898Y1510581D01*
X2479672Y1511016D01*
X2479457Y1511456D01*
X2479253Y1511902D01*
X2479060Y1512352D01*
X2478878Y1512807D01*
X2478707Y1513267D01*
X2478548Y1513730D01*
X2478400Y1514197D01*
X2478263Y1514668D01*
X2478138Y1515141D01*
X2478025Y1515618D01*
X2477924Y1516097D01*
X2477834Y1516579D01*
X2477756Y1517063D01*
X2477690Y1517548D01*
X2477636Y1518036D01*
X2477594Y1518524D01*
X2477564Y1519013D01*
X2477546Y1519502D01*
X2477540Y1519992D01*
D13*
X2695000Y2020000D02*
X2905000Y2020000D01*
X2905000Y1810000D02*
X2695000Y1810000D01*
D12*
X2952540Y1879507D02*
X2997460Y1879507D01*
X2997460Y1874516D02*
X2997460Y1884498D01*
X2952540Y1884498D02*
X2952540Y1874516D01*
X2997460Y1912863D02*
X2997460Y1922845D01*
X2997461Y1912863D02*
X2997458Y1912618D01*
X2997449Y1912373D01*
X2997434Y1912129D01*
X2997413Y1911885D01*
X2997386Y1911641D01*
X2997353Y1911398D01*
X2997314Y1911156D01*
X2997269Y1910915D01*
X2997218Y1910676D01*
X2997162Y1910437D01*
X2997099Y1910200D01*
X2997031Y1909965D01*
X2996957Y1909732D01*
X2996877Y1909500D01*
X2996792Y1909270D01*
X2996701Y1909043D01*
X2996605Y1908818D01*
X2996503Y1908595D01*
X2996395Y1908375D01*
X2996282Y1908157D01*
X2996164Y1907942D01*
X2996041Y1907731D01*
X2995912Y1907522D01*
X2995779Y1907317D01*
X2995640Y1907115D01*
X2995496Y1906916D01*
X2995348Y1906721D01*
X2995195Y1906530D01*
X2995037Y1906342D01*
X2994875Y1906159D01*
X2994708Y1905979D01*
X2994537Y1905804D01*
X2994362Y1905633D01*
X2994182Y1905466D01*
X2993999Y1905304D01*
X2993811Y1905146D01*
X2993620Y1904993D01*
X2993425Y1904845D01*
X2993226Y1904701D01*
X2993024Y1904563D01*
X2992819Y1904429D01*
X2992610Y1904300D01*
X2992399Y1904177D01*
X2992184Y1904059D01*
X2991967Y1903946D01*
X2991746Y1903839D01*
X2991524Y1903737D01*
X2991299Y1903640D01*
X2991071Y1903549D01*
X2990841Y1903464D01*
X2990610Y1903384D01*
X2990376Y1903310D01*
X2990141Y1903242D01*
X2989904Y1903179D01*
X2989666Y1903123D01*
X2989426Y1903072D01*
X2989185Y1903027D01*
X2988943Y1902988D01*
X2988700Y1902955D01*
X2988457Y1902928D01*
X2988213Y1902907D01*
X2987968Y1902892D01*
X2987723Y1902883D01*
X2987478Y1902880D01*
X2987478Y1902881D02*
X2962523Y1902881D01*
X2962523Y1902880D02*
X2962278Y1902883D01*
X2962033Y1902892D01*
X2961789Y1902907D01*
X2961545Y1902928D01*
X2961301Y1902955D01*
X2961058Y1902988D01*
X2960816Y1903027D01*
X2960575Y1903072D01*
X2960336Y1903123D01*
X2960097Y1903179D01*
X2959860Y1903242D01*
X2959625Y1903310D01*
X2959392Y1903384D01*
X2959160Y1903464D01*
X2958930Y1903549D01*
X2958703Y1903640D01*
X2958478Y1903736D01*
X2958255Y1903838D01*
X2958035Y1903946D01*
X2957817Y1904059D01*
X2957602Y1904177D01*
X2957391Y1904300D01*
X2957182Y1904429D01*
X2956977Y1904562D01*
X2956775Y1904701D01*
X2956576Y1904845D01*
X2956381Y1904993D01*
X2956190Y1905146D01*
X2956002Y1905304D01*
X2955819Y1905466D01*
X2955639Y1905633D01*
X2955464Y1905804D01*
X2955293Y1905979D01*
X2955126Y1906159D01*
X2954964Y1906342D01*
X2954806Y1906530D01*
X2954653Y1906721D01*
X2954505Y1906916D01*
X2954361Y1907115D01*
X2954223Y1907317D01*
X2954089Y1907522D01*
X2953960Y1907731D01*
X2953837Y1907942D01*
X2953719Y1908157D01*
X2953606Y1908374D01*
X2953499Y1908595D01*
X2953397Y1908817D01*
X2953300Y1909042D01*
X2953209Y1909270D01*
X2953124Y1909500D01*
X2953044Y1909731D01*
X2952970Y1909965D01*
X2952902Y1910200D01*
X2952839Y1910437D01*
X2952783Y1910675D01*
X2952732Y1910915D01*
X2952687Y1911156D01*
X2952648Y1911398D01*
X2952615Y1911641D01*
X2952588Y1911884D01*
X2952567Y1912128D01*
X2952552Y1912373D01*
X2952543Y1912618D01*
X2952540Y1912863D01*
X2952540Y1922845D01*
X2997460Y1940529D02*
X2997460Y1955502D01*
X2997457Y1955743D01*
X2997448Y1955984D01*
X2997434Y1956225D01*
X2997413Y1956465D01*
X2997387Y1956705D01*
X2997355Y1956944D01*
X2997318Y1957183D01*
X2997274Y1957420D01*
X2997225Y1957656D01*
X2997170Y1957891D01*
X2997109Y1958124D01*
X2997043Y1958356D01*
X2996971Y1958587D01*
X2996894Y1958815D01*
X2996811Y1959042D01*
X2996723Y1959266D01*
X2996629Y1959488D01*
X2996530Y1959708D01*
X2996426Y1959926D01*
X2996317Y1960141D01*
X2996202Y1960353D01*
X2996082Y1960562D01*
X2995957Y1960769D01*
X2995828Y1960972D01*
X2995693Y1961172D01*
X2995554Y1961369D01*
X2995409Y1961563D01*
X2995261Y1961753D01*
X2995107Y1961939D01*
X2994950Y1962121D01*
X2994788Y1962300D01*
X2994621Y1962475D01*
X2994451Y1962645D01*
X2994276Y1962812D01*
X2994097Y1962974D01*
X2993915Y1963131D01*
X2993729Y1963285D01*
X2993539Y1963433D01*
X2993345Y1963578D01*
X2993148Y1963717D01*
X2992948Y1963852D01*
X2992745Y1963981D01*
X2992538Y1964106D01*
X2992329Y1964226D01*
X2992117Y1964341D01*
X2991902Y1964450D01*
X2991684Y1964554D01*
X2991464Y1964653D01*
X2991242Y1964747D01*
X2991018Y1964835D01*
X2990791Y1964918D01*
X2990563Y1964995D01*
X2990332Y1965067D01*
X2990100Y1965133D01*
X2989867Y1965194D01*
X2989632Y1965249D01*
X2989396Y1965298D01*
X2989159Y1965342D01*
X2988920Y1965379D01*
X2988681Y1965411D01*
X2988441Y1965437D01*
X2988201Y1965458D01*
X2987960Y1965472D01*
X2987719Y1965481D01*
X2987478Y1965484D01*
X2982487Y1965484D01*
X2982487Y1965485D02*
X2982242Y1965482D01*
X2981997Y1965473D01*
X2981753Y1965458D01*
X2981509Y1965437D01*
X2981265Y1965410D01*
X2981022Y1965377D01*
X2980780Y1965338D01*
X2980539Y1965293D01*
X2980300Y1965242D01*
X2980061Y1965186D01*
X2979824Y1965123D01*
X2979589Y1965055D01*
X2979356Y1964981D01*
X2979124Y1964901D01*
X2978894Y1964816D01*
X2978667Y1964725D01*
X2978442Y1964629D01*
X2978219Y1964527D01*
X2977999Y1964419D01*
X2977781Y1964306D01*
X2977566Y1964188D01*
X2977355Y1964065D01*
X2977146Y1963936D01*
X2976941Y1963803D01*
X2976739Y1963664D01*
X2976540Y1963520D01*
X2976345Y1963372D01*
X2976154Y1963219D01*
X2975966Y1963061D01*
X2975783Y1962899D01*
X2975603Y1962732D01*
X2975428Y1962561D01*
X2975257Y1962386D01*
X2975090Y1962206D01*
X2974928Y1962023D01*
X2974770Y1961835D01*
X2974617Y1961644D01*
X2974469Y1961449D01*
X2974325Y1961250D01*
X2974187Y1961048D01*
X2974053Y1960843D01*
X2973924Y1960634D01*
X2973801Y1960423D01*
X2973683Y1960208D01*
X2973570Y1959991D01*
X2973463Y1959770D01*
X2973361Y1959548D01*
X2973264Y1959323D01*
X2973173Y1959095D01*
X2973088Y1958865D01*
X2973008Y1958634D01*
X2972934Y1958400D01*
X2972866Y1958165D01*
X2972803Y1957928D01*
X2972747Y1957690D01*
X2972696Y1957450D01*
X2972651Y1957209D01*
X2972612Y1956967D01*
X2972579Y1956724D01*
X2972552Y1956481D01*
X2972531Y1956237D01*
X2972516Y1955992D01*
X2972507Y1955747D01*
X2972504Y1955502D01*
X2972505Y1955502D02*
X2972505Y1940529D01*
X2952540Y1940529D01*
X2952540Y1965484D01*
X2958779Y1989272D02*
X2959578Y1988894D01*
X2960386Y1988536D01*
X2961202Y1988197D01*
X2962026Y1987877D01*
X2962857Y1987577D01*
X2963695Y1987297D01*
X2964540Y1987038D01*
X2965390Y1986798D01*
X2966246Y1986579D01*
X2967108Y1986380D01*
X2967973Y1986202D01*
X2968843Y1986045D01*
X2969716Y1985908D01*
X2970592Y1985792D01*
X2971470Y1985698D01*
X2972351Y1985624D01*
X2973233Y1985571D01*
X2974116Y1985540D01*
X2975000Y1985529D01*
X2958779Y1989272D02*
X2958567Y1989347D01*
X2958358Y1989428D01*
X2958150Y1989513D01*
X2957945Y1989604D01*
X2957741Y1989700D01*
X2957541Y1989800D01*
X2957342Y1989906D01*
X2957147Y1990016D01*
X2956954Y1990131D01*
X2956764Y1990250D01*
X2956576Y1990374D01*
X2956392Y1990503D01*
X2956211Y1990636D01*
X2956034Y1990773D01*
X2955860Y1990915D01*
X2955689Y1991061D01*
X2955522Y1991211D01*
X2955358Y1991365D01*
X2955199Y1991523D01*
X2955043Y1991685D01*
X2954891Y1991851D01*
X2954744Y1992020D01*
X2954600Y1992193D01*
X2954461Y1992369D01*
X2954326Y1992548D01*
X2954195Y1992731D01*
X2954069Y1992917D01*
X2953948Y1993106D01*
X2953831Y1993298D01*
X2953719Y1993492D01*
X2953611Y1993689D01*
X2953509Y1993889D01*
X2953411Y1994091D01*
X2953318Y1994296D01*
X2953230Y1994503D01*
X2953148Y1994711D01*
X2953070Y1994922D01*
X2952998Y1995135D01*
X2952931Y1995349D01*
X2952869Y1995565D01*
X2952812Y1995782D01*
X2952760Y1996001D01*
X2952714Y1996221D01*
X2952674Y1996441D01*
X2952638Y1996663D01*
X2952608Y1996886D01*
X2952584Y1997109D01*
X2952565Y1997333D01*
X2952551Y1997557D01*
X2952543Y1997781D01*
X2952540Y1998006D01*
X2952543Y1998231D01*
X2952551Y1998455D01*
X2952565Y1998679D01*
X2952584Y1998903D01*
X2952608Y1999126D01*
X2952638Y1999349D01*
X2952674Y1999571D01*
X2952714Y1999791D01*
X2952760Y2000011D01*
X2952812Y2000230D01*
X2952869Y2000447D01*
X2952931Y2000663D01*
X2952998Y2000877D01*
X2953070Y2001090D01*
X2953148Y2001301D01*
X2953230Y2001509D01*
X2953318Y2001716D01*
X2953411Y2001921D01*
X2953509Y2002123D01*
X2953611Y2002323D01*
X2953719Y2002520D01*
X2953831Y2002714D01*
X2953948Y2002906D01*
X2954069Y2003095D01*
X2954195Y2003281D01*
X2954326Y2003464D01*
X2954461Y2003643D01*
X2954600Y2003819D01*
X2954743Y2003992D01*
X2954891Y2004161D01*
X2955043Y2004327D01*
X2955199Y2004489D01*
X2955358Y2004647D01*
X2955522Y2004801D01*
X2955689Y2004951D01*
X2955859Y2005097D01*
X2956034Y2005238D01*
X2956211Y2005376D01*
X2956392Y2005509D01*
X2956576Y2005638D01*
X2956763Y2005762D01*
X2956954Y2005881D01*
X2957146Y2005996D01*
X2957342Y2006106D01*
X2957541Y2006212D01*
X2957741Y2006312D01*
X2957945Y2006408D01*
X2958150Y2006498D01*
X2958358Y2006584D01*
X2958567Y2006665D01*
X2958779Y2006740D01*
X2958779Y2006741D02*
X2959578Y2007119D01*
X2960386Y2007477D01*
X2961202Y2007816D01*
X2962026Y2008136D01*
X2962857Y2008436D01*
X2963695Y2008716D01*
X2964540Y2008975D01*
X2965390Y2009215D01*
X2966246Y2009434D01*
X2967108Y2009633D01*
X2967973Y2009811D01*
X2968843Y2009968D01*
X2969716Y2010105D01*
X2970592Y2010221D01*
X2971470Y2010315D01*
X2972351Y2010389D01*
X2973233Y2010442D01*
X2974116Y2010473D01*
X2975000Y2010484D01*
X2975000Y1985529D02*
X2975884Y1985540D01*
X2976767Y1985571D01*
X2977649Y1985624D01*
X2978530Y1985698D01*
X2979408Y1985792D01*
X2980284Y1985908D01*
X2981157Y1986045D01*
X2982027Y1986202D01*
X2982893Y1986380D01*
X2983754Y1986579D01*
X2984610Y1986798D01*
X2985460Y1987038D01*
X2986305Y1987297D01*
X2987143Y1987577D01*
X2987975Y1987877D01*
X2988799Y1988197D01*
X2989615Y1988536D01*
X2990422Y1988894D01*
X2991221Y1989272D01*
X2991222Y1989272D02*
X2991433Y1989348D01*
X2991643Y1989428D01*
X2991850Y1989514D01*
X2992056Y1989604D01*
X2992259Y1989700D01*
X2992460Y1989800D01*
X2992658Y1989906D01*
X2992854Y1990016D01*
X2993047Y1990131D01*
X2993237Y1990250D01*
X2993424Y1990375D01*
X2993608Y1990503D01*
X2993789Y1990636D01*
X2993967Y1990774D01*
X2994141Y1990915D01*
X2994311Y1991061D01*
X2994479Y1991211D01*
X2994642Y1991365D01*
X2994802Y1991523D01*
X2994957Y1991685D01*
X2995109Y1991851D01*
X2995257Y1992020D01*
X2995400Y1992193D01*
X2995539Y1992369D01*
X2995674Y1992548D01*
X2995805Y1992731D01*
X2995931Y1992917D01*
X2996052Y1993106D01*
X2996169Y1993298D01*
X2996281Y1993492D01*
X2996389Y1993690D01*
X2996491Y1993889D01*
X2996589Y1994092D01*
X2996682Y1994296D01*
X2996770Y1994503D01*
X2996852Y1994712D01*
X2996930Y1994922D01*
X2997002Y1995135D01*
X2997069Y1995349D01*
X2997131Y1995565D01*
X2997188Y1995782D01*
X2997240Y1996001D01*
X2997286Y1996221D01*
X2997326Y1996442D01*
X2997362Y1996663D01*
X2997392Y1996886D01*
X2997416Y1997109D01*
X2997435Y1997333D01*
X2997449Y1997557D01*
X2997457Y1997781D01*
X2997460Y1998006D01*
X2991221Y2006741D02*
X2990422Y2007119D01*
X2989615Y2007477D01*
X2988799Y2007816D01*
X2987975Y2008136D01*
X2987143Y2008436D01*
X2986305Y2008716D01*
X2985460Y2008975D01*
X2984610Y2009215D01*
X2983754Y2009434D01*
X2982893Y2009633D01*
X2982027Y2009811D01*
X2981157Y2009968D01*
X2980284Y2010105D01*
X2979408Y2010221D01*
X2978530Y2010315D01*
X2977649Y2010389D01*
X2976767Y2010442D01*
X2975884Y2010473D01*
X2975000Y2010484D01*
X2991221Y2006741D02*
X2991433Y2006665D01*
X2991642Y2006585D01*
X2991850Y2006499D01*
X2992055Y2006409D01*
X2992259Y2006313D01*
X2992459Y2006212D01*
X2992658Y2006107D01*
X2992853Y2005997D01*
X2993046Y2005882D01*
X2993237Y2005762D01*
X2993424Y2005638D01*
X2993608Y2005510D01*
X2993789Y2005376D01*
X2993966Y2005239D01*
X2994141Y2005097D01*
X2994311Y2004951D01*
X2994478Y2004801D01*
X2994642Y2004647D01*
X2994801Y2004489D01*
X2994957Y2004327D01*
X2995109Y2004162D01*
X2995257Y2003993D01*
X2995400Y2003820D01*
X2995539Y2003644D01*
X2995674Y2003464D01*
X2995805Y2003281D01*
X2995931Y2003095D01*
X2996052Y2002907D01*
X2996169Y2002715D01*
X2996281Y2002520D01*
X2996389Y2002323D01*
X2996491Y2002123D01*
X2996589Y2001921D01*
X2996682Y2001716D01*
X2996770Y2001510D01*
X2996852Y2001301D01*
X2996930Y2001090D01*
X2997002Y2000877D01*
X2997069Y2000663D01*
X2997131Y2000447D01*
X2997188Y2000230D01*
X2997240Y2000011D01*
X2997286Y1999791D01*
X2997326Y1999571D01*
X2997362Y1999349D01*
X2997392Y1999126D01*
X2997416Y1998903D01*
X2997435Y1998679D01*
X2997449Y1998455D01*
X2997457Y1998231D01*
X2997460Y1998006D01*
X2987478Y1988024D02*
X2962523Y2007989D01*
X2957531Y2030528D02*
X2952540Y2030528D01*
X2952540Y2055484D01*
X2997460Y2043006D01*
D16*
X2353100Y2333300D02*
X2353100Y2485700D01*
X2950000Y2485700D02*
X2950000Y2333300D01*
D12*
X2322460Y2333323D02*
X2277540Y2333323D01*
X2322460Y2333323D02*
X2322460Y2353288D01*
X2322460Y2370722D02*
X2322460Y2385695D01*
X2322457Y2385936D01*
X2322448Y2386177D01*
X2322434Y2386418D01*
X2322413Y2386658D01*
X2322387Y2386898D01*
X2322355Y2387137D01*
X2322318Y2387376D01*
X2322274Y2387613D01*
X2322225Y2387849D01*
X2322170Y2388084D01*
X2322109Y2388317D01*
X2322043Y2388549D01*
X2321971Y2388780D01*
X2321894Y2389008D01*
X2321811Y2389235D01*
X2321723Y2389459D01*
X2321629Y2389681D01*
X2321530Y2389901D01*
X2321426Y2390119D01*
X2321317Y2390334D01*
X2321202Y2390546D01*
X2321082Y2390755D01*
X2320957Y2390962D01*
X2320828Y2391165D01*
X2320693Y2391365D01*
X2320554Y2391562D01*
X2320409Y2391756D01*
X2320261Y2391946D01*
X2320107Y2392132D01*
X2319950Y2392314D01*
X2319788Y2392493D01*
X2319621Y2392668D01*
X2319451Y2392838D01*
X2319276Y2393005D01*
X2319097Y2393167D01*
X2318915Y2393324D01*
X2318729Y2393478D01*
X2318539Y2393626D01*
X2318345Y2393771D01*
X2318148Y2393910D01*
X2317948Y2394045D01*
X2317745Y2394174D01*
X2317538Y2394299D01*
X2317329Y2394419D01*
X2317117Y2394534D01*
X2316902Y2394643D01*
X2316684Y2394747D01*
X2316464Y2394846D01*
X2316242Y2394940D01*
X2316018Y2395028D01*
X2315791Y2395111D01*
X2315563Y2395188D01*
X2315332Y2395260D01*
X2315100Y2395326D01*
X2314867Y2395387D01*
X2314632Y2395442D01*
X2314396Y2395491D01*
X2314159Y2395535D01*
X2313920Y2395572D01*
X2313681Y2395604D01*
X2313441Y2395630D01*
X2313201Y2395651D01*
X2312960Y2395665D01*
X2312719Y2395674D01*
X2312478Y2395677D01*
X2312478Y2395678D02*
X2307487Y2395678D01*
X2307242Y2395675D01*
X2306997Y2395666D01*
X2306753Y2395651D01*
X2306509Y2395630D01*
X2306265Y2395603D01*
X2306022Y2395570D01*
X2305780Y2395531D01*
X2305539Y2395486D01*
X2305300Y2395435D01*
X2305061Y2395379D01*
X2304824Y2395316D01*
X2304589Y2395248D01*
X2304356Y2395174D01*
X2304124Y2395094D01*
X2303894Y2395009D01*
X2303667Y2394918D01*
X2303442Y2394822D01*
X2303219Y2394720D01*
X2302999Y2394612D01*
X2302781Y2394499D01*
X2302566Y2394381D01*
X2302355Y2394258D01*
X2302146Y2394129D01*
X2301941Y2393996D01*
X2301739Y2393857D01*
X2301540Y2393713D01*
X2301345Y2393565D01*
X2301154Y2393412D01*
X2300966Y2393254D01*
X2300783Y2393092D01*
X2300603Y2392925D01*
X2300428Y2392754D01*
X2300257Y2392579D01*
X2300090Y2392399D01*
X2299928Y2392216D01*
X2299770Y2392028D01*
X2299617Y2391837D01*
X2299469Y2391642D01*
X2299325Y2391443D01*
X2299187Y2391241D01*
X2299053Y2391036D01*
X2298924Y2390827D01*
X2298801Y2390616D01*
X2298683Y2390401D01*
X2298570Y2390184D01*
X2298463Y2389963D01*
X2298361Y2389741D01*
X2298264Y2389516D01*
X2298173Y2389288D01*
X2298088Y2389058D01*
X2298008Y2388827D01*
X2297934Y2388593D01*
X2297866Y2388358D01*
X2297803Y2388121D01*
X2297747Y2387883D01*
X2297696Y2387643D01*
X2297651Y2387402D01*
X2297612Y2387160D01*
X2297579Y2386917D01*
X2297552Y2386674D01*
X2297531Y2386430D01*
X2297516Y2386185D01*
X2297507Y2385940D01*
X2297504Y2385695D01*
X2297505Y2385695D02*
X2297505Y2370722D01*
X2277540Y2370722D01*
X2277540Y2395678D01*
X2283779Y2419465D02*
X2284578Y2419087D01*
X2285386Y2418729D01*
X2286202Y2418390D01*
X2287026Y2418070D01*
X2287857Y2417770D01*
X2288695Y2417490D01*
X2289540Y2417231D01*
X2290390Y2416991D01*
X2291246Y2416772D01*
X2292108Y2416573D01*
X2292973Y2416395D01*
X2293843Y2416238D01*
X2294716Y2416101D01*
X2295592Y2415985D01*
X2296470Y2415891D01*
X2297351Y2415817D01*
X2298233Y2415764D01*
X2299116Y2415733D01*
X2300000Y2415722D01*
X2283779Y2419465D02*
X2283567Y2419540D01*
X2283358Y2419621D01*
X2283150Y2419706D01*
X2282945Y2419797D01*
X2282741Y2419893D01*
X2282541Y2419993D01*
X2282342Y2420099D01*
X2282147Y2420209D01*
X2281954Y2420324D01*
X2281764Y2420443D01*
X2281576Y2420567D01*
X2281392Y2420696D01*
X2281211Y2420829D01*
X2281034Y2420966D01*
X2280860Y2421108D01*
X2280689Y2421254D01*
X2280522Y2421404D01*
X2280358Y2421558D01*
X2280199Y2421716D01*
X2280043Y2421878D01*
X2279891Y2422044D01*
X2279744Y2422213D01*
X2279600Y2422386D01*
X2279461Y2422562D01*
X2279326Y2422741D01*
X2279195Y2422924D01*
X2279069Y2423110D01*
X2278948Y2423299D01*
X2278831Y2423491D01*
X2278719Y2423685D01*
X2278611Y2423882D01*
X2278509Y2424082D01*
X2278411Y2424284D01*
X2278318Y2424489D01*
X2278230Y2424696D01*
X2278148Y2424904D01*
X2278070Y2425115D01*
X2277998Y2425328D01*
X2277931Y2425542D01*
X2277869Y2425758D01*
X2277812Y2425975D01*
X2277760Y2426194D01*
X2277714Y2426414D01*
X2277674Y2426634D01*
X2277638Y2426856D01*
X2277608Y2427079D01*
X2277584Y2427302D01*
X2277565Y2427526D01*
X2277551Y2427750D01*
X2277543Y2427974D01*
X2277540Y2428199D01*
X2277543Y2428424D01*
X2277551Y2428648D01*
X2277565Y2428872D01*
X2277584Y2429096D01*
X2277608Y2429319D01*
X2277638Y2429542D01*
X2277674Y2429764D01*
X2277714Y2429984D01*
X2277760Y2430204D01*
X2277812Y2430423D01*
X2277869Y2430640D01*
X2277931Y2430856D01*
X2277998Y2431070D01*
X2278070Y2431283D01*
X2278148Y2431494D01*
X2278230Y2431702D01*
X2278318Y2431909D01*
X2278411Y2432114D01*
X2278509Y2432316D01*
X2278611Y2432516D01*
X2278719Y2432713D01*
X2278831Y2432907D01*
X2278948Y2433099D01*
X2279069Y2433288D01*
X2279195Y2433474D01*
X2279326Y2433657D01*
X2279461Y2433836D01*
X2279600Y2434012D01*
X2279743Y2434185D01*
X2279891Y2434354D01*
X2280043Y2434520D01*
X2280199Y2434682D01*
X2280358Y2434840D01*
X2280522Y2434994D01*
X2280689Y2435144D01*
X2280859Y2435290D01*
X2281034Y2435431D01*
X2281211Y2435569D01*
X2281392Y2435702D01*
X2281576Y2435831D01*
X2281763Y2435955D01*
X2281954Y2436074D01*
X2282146Y2436189D01*
X2282342Y2436299D01*
X2282541Y2436405D01*
X2282741Y2436505D01*
X2282945Y2436601D01*
X2283150Y2436691D01*
X2283358Y2436777D01*
X2283567Y2436858D01*
X2283779Y2436933D01*
X2283779Y2436934D02*
X2284578Y2437312D01*
X2285386Y2437670D01*
X2286202Y2438009D01*
X2287026Y2438329D01*
X2287857Y2438629D01*
X2288695Y2438909D01*
X2289540Y2439168D01*
X2290390Y2439408D01*
X2291246Y2439627D01*
X2292108Y2439826D01*
X2292973Y2440004D01*
X2293843Y2440161D01*
X2294716Y2440298D01*
X2295592Y2440414D01*
X2296470Y2440508D01*
X2297351Y2440582D01*
X2298233Y2440635D01*
X2299116Y2440666D01*
X2300000Y2440677D01*
X2300000Y2415722D02*
X2300884Y2415733D01*
X2301767Y2415764D01*
X2302649Y2415817D01*
X2303530Y2415891D01*
X2304408Y2415985D01*
X2305284Y2416101D01*
X2306157Y2416238D01*
X2307027Y2416395D01*
X2307893Y2416573D01*
X2308754Y2416772D01*
X2309610Y2416991D01*
X2310460Y2417231D01*
X2311305Y2417490D01*
X2312143Y2417770D01*
X2312975Y2418070D01*
X2313799Y2418390D01*
X2314615Y2418729D01*
X2315422Y2419087D01*
X2316221Y2419465D01*
X2316222Y2419465D02*
X2316433Y2419541D01*
X2316643Y2419621D01*
X2316850Y2419707D01*
X2317056Y2419797D01*
X2317259Y2419893D01*
X2317460Y2419993D01*
X2317658Y2420099D01*
X2317854Y2420209D01*
X2318047Y2420324D01*
X2318237Y2420443D01*
X2318424Y2420568D01*
X2318608Y2420696D01*
X2318789Y2420829D01*
X2318967Y2420967D01*
X2319141Y2421108D01*
X2319311Y2421254D01*
X2319479Y2421404D01*
X2319642Y2421558D01*
X2319802Y2421716D01*
X2319957Y2421878D01*
X2320109Y2422044D01*
X2320257Y2422213D01*
X2320400Y2422386D01*
X2320539Y2422562D01*
X2320674Y2422741D01*
X2320805Y2422924D01*
X2320931Y2423110D01*
X2321052Y2423299D01*
X2321169Y2423491D01*
X2321281Y2423685D01*
X2321389Y2423883D01*
X2321491Y2424082D01*
X2321589Y2424285D01*
X2321682Y2424489D01*
X2321770Y2424696D01*
X2321852Y2424905D01*
X2321930Y2425115D01*
X2322002Y2425328D01*
X2322069Y2425542D01*
X2322131Y2425758D01*
X2322188Y2425975D01*
X2322240Y2426194D01*
X2322286Y2426414D01*
X2322326Y2426635D01*
X2322362Y2426856D01*
X2322392Y2427079D01*
X2322416Y2427302D01*
X2322435Y2427526D01*
X2322449Y2427750D01*
X2322457Y2427974D01*
X2322460Y2428199D01*
X2316221Y2436934D02*
X2315422Y2437312D01*
X2314615Y2437670D01*
X2313799Y2438009D01*
X2312975Y2438329D01*
X2312143Y2438629D01*
X2311305Y2438909D01*
X2310460Y2439168D01*
X2309610Y2439408D01*
X2308754Y2439627D01*
X2307893Y2439826D01*
X2307027Y2440004D01*
X2306157Y2440161D01*
X2305284Y2440298D01*
X2304408Y2440414D01*
X2303530Y2440508D01*
X2302649Y2440582D01*
X2301767Y2440635D01*
X2300884Y2440666D01*
X2300000Y2440677D01*
X2316221Y2436934D02*
X2316433Y2436858D01*
X2316642Y2436778D01*
X2316850Y2436692D01*
X2317055Y2436602D01*
X2317259Y2436506D01*
X2317459Y2436405D01*
X2317658Y2436300D01*
X2317853Y2436190D01*
X2318046Y2436075D01*
X2318237Y2435955D01*
X2318424Y2435831D01*
X2318608Y2435703D01*
X2318789Y2435569D01*
X2318966Y2435432D01*
X2319141Y2435290D01*
X2319311Y2435144D01*
X2319478Y2434994D01*
X2319642Y2434840D01*
X2319801Y2434682D01*
X2319957Y2434520D01*
X2320109Y2434355D01*
X2320257Y2434186D01*
X2320400Y2434013D01*
X2320539Y2433837D01*
X2320674Y2433657D01*
X2320805Y2433474D01*
X2320931Y2433288D01*
X2321052Y2433100D01*
X2321169Y2432908D01*
X2321281Y2432713D01*
X2321389Y2432516D01*
X2321491Y2432316D01*
X2321589Y2432114D01*
X2321682Y2431909D01*
X2321770Y2431703D01*
X2321852Y2431494D01*
X2321930Y2431283D01*
X2322002Y2431070D01*
X2322069Y2430856D01*
X2322131Y2430640D01*
X2322188Y2430423D01*
X2322240Y2430204D01*
X2322286Y2429984D01*
X2322326Y2429764D01*
X2322362Y2429542D01*
X2322392Y2429319D01*
X2322416Y2429096D01*
X2322435Y2428872D01*
X2322449Y2428648D01*
X2322457Y2428424D01*
X2322460Y2428199D01*
X2312478Y2418217D02*
X2287523Y2438182D01*
X2287523Y2460722D02*
X2277540Y2473199D01*
X2322460Y2473199D01*
X2322460Y2460722D02*
X2322460Y2485677D01*
D17*
X1890000Y1050000D02*
X1890003Y1050245D01*
X1890012Y1050491D01*
X1890027Y1050736D01*
X1890048Y1050980D01*
X1890075Y1051224D01*
X1890108Y1051467D01*
X1890147Y1051710D01*
X1890192Y1051951D01*
X1890243Y1052191D01*
X1890300Y1052430D01*
X1890362Y1052667D01*
X1890431Y1052903D01*
X1890505Y1053137D01*
X1890585Y1053369D01*
X1890670Y1053599D01*
X1890761Y1053827D01*
X1890858Y1054052D01*
X1890960Y1054276D01*
X1891068Y1054496D01*
X1891181Y1054714D01*
X1891299Y1054929D01*
X1891423Y1055141D01*
X1891551Y1055350D01*
X1891685Y1055556D01*
X1891824Y1055758D01*
X1891968Y1055957D01*
X1892117Y1056152D01*
X1892270Y1056344D01*
X1892428Y1056532D01*
X1892590Y1056716D01*
X1892758Y1056895D01*
X1892929Y1057071D01*
X1893105Y1057242D01*
X1893284Y1057410D01*
X1893468Y1057572D01*
X1893656Y1057730D01*
X1893848Y1057883D01*
X1894043Y1058032D01*
X1894242Y1058176D01*
X1894444Y1058315D01*
X1894650Y1058449D01*
X1894859Y1058577D01*
X1895071Y1058701D01*
X1895286Y1058819D01*
X1895504Y1058932D01*
X1895724Y1059040D01*
X1895948Y1059142D01*
X1896173Y1059239D01*
X1896401Y1059330D01*
X1896631Y1059415D01*
X1896863Y1059495D01*
X1897097Y1059569D01*
X1897333Y1059638D01*
X1897570Y1059700D01*
X1897809Y1059757D01*
X1898049Y1059808D01*
X1898290Y1059853D01*
X1898533Y1059892D01*
X1898776Y1059925D01*
X1899020Y1059952D01*
X1899264Y1059973D01*
X1899509Y1059988D01*
X1899755Y1059997D01*
X1900000Y1060000D01*
X1900245Y1059997D01*
X1900491Y1059988D01*
X1900736Y1059973D01*
X1900980Y1059952D01*
X1901224Y1059925D01*
X1901467Y1059892D01*
X1901710Y1059853D01*
X1901951Y1059808D01*
X1902191Y1059757D01*
X1902430Y1059700D01*
X1902667Y1059638D01*
X1902903Y1059569D01*
X1903137Y1059495D01*
X1903369Y1059415D01*
X1903599Y1059330D01*
X1903827Y1059239D01*
X1904052Y1059142D01*
X1904276Y1059040D01*
X1904496Y1058932D01*
X1904714Y1058819D01*
X1904929Y1058701D01*
X1905141Y1058577D01*
X1905350Y1058449D01*
X1905556Y1058315D01*
X1905758Y1058176D01*
X1905957Y1058032D01*
X1906152Y1057883D01*
X1906344Y1057730D01*
X1906532Y1057572D01*
X1906716Y1057410D01*
X1906895Y1057242D01*
X1907071Y1057071D01*
X1907242Y1056895D01*
X1907410Y1056716D01*
X1907572Y1056532D01*
X1907730Y1056344D01*
X1907883Y1056152D01*
X1908032Y1055957D01*
X1908176Y1055758D01*
X1908315Y1055556D01*
X1908449Y1055350D01*
X1908577Y1055141D01*
X1908701Y1054929D01*
X1908819Y1054714D01*
X1908932Y1054496D01*
X1909040Y1054276D01*
X1909142Y1054052D01*
X1909239Y1053827D01*
X1909330Y1053599D01*
X1909415Y1053369D01*
X1909495Y1053137D01*
X1909569Y1052903D01*
X1909638Y1052667D01*
X1909700Y1052430D01*
X1909757Y1052191D01*
X1909808Y1051951D01*
X1909853Y1051710D01*
X1909892Y1051467D01*
X1909925Y1051224D01*
X1909952Y1050980D01*
X1909973Y1050736D01*
X1909988Y1050491D01*
X1909997Y1050245D01*
X1910000Y1050000D01*
X1909997Y1049755D01*
X1909988Y1049509D01*
X1909973Y1049264D01*
X1909952Y1049020D01*
X1909925Y1048776D01*
X1909892Y1048533D01*
X1909853Y1048290D01*
X1909808Y1048049D01*
X1909757Y1047809D01*
X1909700Y1047570D01*
X1909638Y1047333D01*
X1909569Y1047097D01*
X1909495Y1046863D01*
X1909415Y1046631D01*
X1909330Y1046401D01*
X1909239Y1046173D01*
X1909142Y1045948D01*
X1909040Y1045724D01*
X1908932Y1045504D01*
X1908819Y1045286D01*
X1908701Y1045071D01*
X1908577Y1044859D01*
X1908449Y1044650D01*
X1908315Y1044444D01*
X1908176Y1044242D01*
X1908032Y1044043D01*
X1907883Y1043848D01*
X1907730Y1043656D01*
X1907572Y1043468D01*
X1907410Y1043284D01*
X1907242Y1043105D01*
X1907071Y1042929D01*
X1906895Y1042758D01*
X1906716Y1042590D01*
X1906532Y1042428D01*
X1906344Y1042270D01*
X1906152Y1042117D01*
X1905957Y1041968D01*
X1905758Y1041824D01*
X1905556Y1041685D01*
X1905350Y1041551D01*
X1905141Y1041423D01*
X1904929Y1041299D01*
X1904714Y1041181D01*
X1904496Y1041068D01*
X1904276Y1040960D01*
X1904052Y1040858D01*
X1903827Y1040761D01*
X1903599Y1040670D01*
X1903369Y1040585D01*
X1903137Y1040505D01*
X1902903Y1040431D01*
X1902667Y1040362D01*
X1902430Y1040300D01*
X1902191Y1040243D01*
X1901951Y1040192D01*
X1901710Y1040147D01*
X1901467Y1040108D01*
X1901224Y1040075D01*
X1900980Y1040048D01*
X1900736Y1040027D01*
X1900491Y1040012D01*
X1900245Y1040003D01*
X1900000Y1040000D01*
X1899755Y1040003D01*
X1899509Y1040012D01*
X1899264Y1040027D01*
X1899020Y1040048D01*
X1898776Y1040075D01*
X1898533Y1040108D01*
X1898290Y1040147D01*
X1898049Y1040192D01*
X1897809Y1040243D01*
X1897570Y1040300D01*
X1897333Y1040362D01*
X1897097Y1040431D01*
X1896863Y1040505D01*
X1896631Y1040585D01*
X1896401Y1040670D01*
X1896173Y1040761D01*
X1895948Y1040858D01*
X1895724Y1040960D01*
X1895504Y1041068D01*
X1895286Y1041181D01*
X1895071Y1041299D01*
X1894859Y1041423D01*
X1894650Y1041551D01*
X1894444Y1041685D01*
X1894242Y1041824D01*
X1894043Y1041968D01*
X1893848Y1042117D01*
X1893656Y1042270D01*
X1893468Y1042428D01*
X1893284Y1042590D01*
X1893105Y1042758D01*
X1892929Y1042929D01*
X1892758Y1043105D01*
X1892590Y1043284D01*
X1892428Y1043468D01*
X1892270Y1043656D01*
X1892117Y1043848D01*
X1891968Y1044043D01*
X1891824Y1044242D01*
X1891685Y1044444D01*
X1891551Y1044650D01*
X1891423Y1044859D01*
X1891299Y1045071D01*
X1891181Y1045286D01*
X1891068Y1045504D01*
X1890960Y1045724D01*
X1890858Y1045948D01*
X1890761Y1046173D01*
X1890670Y1046401D01*
X1890585Y1046631D01*
X1890505Y1046863D01*
X1890431Y1047097D01*
X1890362Y1047333D01*
X1890300Y1047570D01*
X1890243Y1047809D01*
X1890192Y1048049D01*
X1890147Y1048290D01*
X1890108Y1048533D01*
X1890075Y1048776D01*
X1890048Y1049020D01*
X1890027Y1049264D01*
X1890012Y1049509D01*
X1890003Y1049755D01*
X1890000Y1050000D01*
D12*
X1675323Y1177540D02*
X1675323Y1222460D01*
X1675323Y1177540D02*
X1695288Y1177540D01*
X1714323Y1177540D02*
X1734287Y1177540D01*
X1714323Y1177540D02*
X1714323Y1222460D01*
X1734287Y1222460D01*
X1729296Y1202495D02*
X1714323Y1202495D01*
X1753222Y1222460D02*
X1753222Y1177540D01*
X1753222Y1222460D02*
X1765699Y1222460D01*
X1766001Y1222456D01*
X1766302Y1222445D01*
X1766603Y1222427D01*
X1766903Y1222402D01*
X1767203Y1222369D01*
X1767502Y1222329D01*
X1767800Y1222282D01*
X1768096Y1222228D01*
X1768392Y1222166D01*
X1768685Y1222097D01*
X1768977Y1222022D01*
X1769267Y1221939D01*
X1769555Y1221849D01*
X1769841Y1221753D01*
X1770124Y1221649D01*
X1770404Y1221539D01*
X1770682Y1221422D01*
X1770957Y1221298D01*
X1771229Y1221168D01*
X1771498Y1221031D01*
X1771763Y1220887D01*
X1772025Y1220738D01*
X1772283Y1220582D01*
X1772537Y1220419D01*
X1772787Y1220251D01*
X1773033Y1220077D01*
X1773275Y1219897D01*
X1773513Y1219711D01*
X1773745Y1219519D01*
X1773973Y1219322D01*
X1774197Y1219119D01*
X1774415Y1218911D01*
X1774628Y1218698D01*
X1774836Y1218480D01*
X1775039Y1218256D01*
X1775236Y1218028D01*
X1775428Y1217796D01*
X1775614Y1217558D01*
X1775794Y1217316D01*
X1775968Y1217070D01*
X1776136Y1216820D01*
X1776299Y1216566D01*
X1776455Y1216308D01*
X1776604Y1216046D01*
X1776748Y1215781D01*
X1776885Y1215512D01*
X1777015Y1215240D01*
X1777139Y1214965D01*
X1777256Y1214687D01*
X1777366Y1214407D01*
X1777470Y1214124D01*
X1777566Y1213838D01*
X1777656Y1213550D01*
X1777739Y1213260D01*
X1777814Y1212968D01*
X1777883Y1212675D01*
X1777945Y1212379D01*
X1777999Y1212083D01*
X1778046Y1211785D01*
X1778086Y1211486D01*
X1778119Y1211186D01*
X1778144Y1210886D01*
X1778162Y1210585D01*
X1778173Y1210284D01*
X1778177Y1209982D01*
X1778177Y1190018D01*
X1778173Y1189716D01*
X1778162Y1189415D01*
X1778144Y1189114D01*
X1778119Y1188814D01*
X1778086Y1188514D01*
X1778046Y1188215D01*
X1777999Y1187917D01*
X1777945Y1187621D01*
X1777883Y1187325D01*
X1777814Y1187032D01*
X1777739Y1186740D01*
X1777656Y1186450D01*
X1777566Y1186162D01*
X1777470Y1185876D01*
X1777366Y1185593D01*
X1777256Y1185313D01*
X1777139Y1185035D01*
X1777015Y1184760D01*
X1776885Y1184488D01*
X1776748Y1184219D01*
X1776604Y1183954D01*
X1776455Y1183692D01*
X1776299Y1183434D01*
X1776136Y1183180D01*
X1775968Y1182930D01*
X1775794Y1182684D01*
X1775614Y1182442D01*
X1775428Y1182204D01*
X1775236Y1181972D01*
X1775039Y1181744D01*
X1774836Y1181520D01*
X1774628Y1181302D01*
X1774415Y1181089D01*
X1774197Y1180881D01*
X1773973Y1180678D01*
X1773745Y1180481D01*
X1773513Y1180289D01*
X1773275Y1180103D01*
X1773033Y1179923D01*
X1772787Y1179749D01*
X1772537Y1179581D01*
X1772283Y1179418D01*
X1772025Y1179262D01*
X1771763Y1179113D01*
X1771498Y1178969D01*
X1771229Y1178832D01*
X1770957Y1178702D01*
X1770682Y1178578D01*
X1770404Y1178461D01*
X1770124Y1178351D01*
X1769841Y1178247D01*
X1769555Y1178151D01*
X1769267Y1178061D01*
X1768977Y1177978D01*
X1768685Y1177903D01*
X1768392Y1177834D01*
X1768096Y1177772D01*
X1767800Y1177718D01*
X1767502Y1177671D01*
X1767203Y1177631D01*
X1766903Y1177598D01*
X1766603Y1177573D01*
X1766302Y1177555D01*
X1766001Y1177544D01*
X1765699Y1177540D01*
X1753222Y1177540D01*
X1799721Y1212478D02*
X1812199Y1222460D01*
X1812199Y1177540D01*
X1799721Y1177540D02*
X1824677Y1177540D01*
D13*
X1975000Y475000D02*
X1525000Y475000D01*
X1525000Y925000D01*
X1975000Y925000D01*
X1975000Y475000D01*
D12*
X1667229Y412522D02*
X1667226Y412277D01*
X1667217Y412032D01*
X1667202Y411788D01*
X1667181Y411544D01*
X1667154Y411300D01*
X1667121Y411057D01*
X1667082Y410815D01*
X1667037Y410574D01*
X1666986Y410335D01*
X1666930Y410096D01*
X1666867Y409859D01*
X1666799Y409624D01*
X1666725Y409391D01*
X1666645Y409159D01*
X1666560Y408929D01*
X1666469Y408702D01*
X1666373Y408477D01*
X1666271Y408254D01*
X1666163Y408034D01*
X1666050Y407816D01*
X1665932Y407601D01*
X1665809Y407390D01*
X1665680Y407181D01*
X1665547Y406976D01*
X1665408Y406774D01*
X1665264Y406575D01*
X1665116Y406380D01*
X1664963Y406189D01*
X1664805Y406001D01*
X1664643Y405818D01*
X1664476Y405638D01*
X1664305Y405463D01*
X1664130Y405292D01*
X1663950Y405125D01*
X1663767Y404963D01*
X1663579Y404805D01*
X1663388Y404652D01*
X1663193Y404504D01*
X1662994Y404360D01*
X1662792Y404222D01*
X1662587Y404088D01*
X1662378Y403959D01*
X1662167Y403836D01*
X1661952Y403718D01*
X1661735Y403605D01*
X1661514Y403498D01*
X1661292Y403396D01*
X1661067Y403299D01*
X1660839Y403208D01*
X1660609Y403123D01*
X1660378Y403043D01*
X1660144Y402969D01*
X1659909Y402901D01*
X1659672Y402838D01*
X1659434Y402782D01*
X1659194Y402731D01*
X1658953Y402686D01*
X1658711Y402647D01*
X1658468Y402614D01*
X1658225Y402587D01*
X1657981Y402566D01*
X1657736Y402551D01*
X1657491Y402542D01*
X1657246Y402539D01*
X1657246Y402540D02*
X1656741Y402546D01*
X1656237Y402564D01*
X1655733Y402594D01*
X1655230Y402636D01*
X1654729Y402691D01*
X1654229Y402757D01*
X1653730Y402835D01*
X1653234Y402925D01*
X1652740Y403027D01*
X1652248Y403141D01*
X1651759Y403266D01*
X1651274Y403403D01*
X1650792Y403552D01*
X1650313Y403712D01*
X1649839Y403884D01*
X1649368Y404066D01*
X1648903Y404260D01*
X1648442Y404466D01*
X1647986Y404682D01*
X1647535Y404909D01*
X1647090Y405146D01*
X1646651Y405395D01*
X1646218Y405653D01*
X1645791Y405922D01*
X1645371Y406201D01*
X1644957Y406490D01*
X1644551Y406789D01*
X1644151Y407098D01*
X1643760Y407416D01*
X1643376Y407743D01*
X1643000Y408080D01*
X1642632Y408425D01*
X1642272Y408779D01*
X1643520Y437478D02*
X1643523Y437719D01*
X1643532Y437960D01*
X1643546Y438201D01*
X1643567Y438441D01*
X1643593Y438681D01*
X1643625Y438920D01*
X1643662Y439159D01*
X1643706Y439396D01*
X1643755Y439632D01*
X1643810Y439867D01*
X1643871Y440101D01*
X1643937Y440333D01*
X1644009Y440563D01*
X1644086Y440791D01*
X1644169Y441018D01*
X1644257Y441243D01*
X1644351Y441465D01*
X1644450Y441685D01*
X1644554Y441902D01*
X1644663Y442117D01*
X1644778Y442330D01*
X1644898Y442539D01*
X1645023Y442745D01*
X1645153Y442949D01*
X1645287Y443149D01*
X1645427Y443346D01*
X1645571Y443539D01*
X1645720Y443729D01*
X1645873Y443915D01*
X1646031Y444098D01*
X1646193Y444277D01*
X1646359Y444451D01*
X1646530Y444622D01*
X1646704Y444788D01*
X1646883Y444950D01*
X1647066Y445108D01*
X1647252Y445261D01*
X1647442Y445410D01*
X1647635Y445554D01*
X1647832Y445694D01*
X1648032Y445828D01*
X1648236Y445958D01*
X1648442Y446083D01*
X1648651Y446203D01*
X1648864Y446318D01*
X1649079Y446427D01*
X1649296Y446531D01*
X1649516Y446630D01*
X1649738Y446724D01*
X1649963Y446812D01*
X1650190Y446895D01*
X1650418Y446972D01*
X1650648Y447044D01*
X1650880Y447110D01*
X1651114Y447171D01*
X1651349Y447226D01*
X1651585Y447275D01*
X1651822Y447319D01*
X1652061Y447356D01*
X1652300Y447388D01*
X1652540Y447414D01*
X1652780Y447435D01*
X1653021Y447449D01*
X1653262Y447458D01*
X1653503Y447461D01*
X1653503Y447460D02*
X1653949Y447455D01*
X1654395Y447439D01*
X1654840Y447412D01*
X1655285Y447375D01*
X1655728Y447327D01*
X1656170Y447269D01*
X1656611Y447200D01*
X1657050Y447121D01*
X1657487Y447031D01*
X1657922Y446931D01*
X1658354Y446820D01*
X1658783Y446700D01*
X1659210Y446569D01*
X1659633Y446428D01*
X1660053Y446277D01*
X1660469Y446116D01*
X1660881Y445945D01*
X1661289Y445764D01*
X1661692Y445573D01*
X1662091Y445374D01*
X1662485Y445164D01*
X1662874Y444945D01*
X1663257Y444718D01*
X1663635Y444481D01*
X1664007Y444235D01*
X1664373Y443980D01*
X1664733Y443717D01*
X1648511Y428744D02*
X1648302Y428870D01*
X1648096Y429002D01*
X1647893Y429139D01*
X1647693Y429281D01*
X1647497Y429427D01*
X1647304Y429578D01*
X1647115Y429734D01*
X1646930Y429894D01*
X1646749Y430059D01*
X1646572Y430228D01*
X1646399Y430401D01*
X1646230Y430578D01*
X1646066Y430760D01*
X1645906Y430945D01*
X1645750Y431134D01*
X1645599Y431327D01*
X1645453Y431523D01*
X1645312Y431723D01*
X1645175Y431926D01*
X1645044Y432133D01*
X1644917Y432342D01*
X1644796Y432555D01*
X1644679Y432770D01*
X1644568Y432988D01*
X1644463Y433209D01*
X1644362Y433432D01*
X1644267Y433658D01*
X1644178Y433886D01*
X1644094Y434116D01*
X1644015Y434348D01*
X1643943Y434581D01*
X1643876Y434817D01*
X1643814Y435054D01*
X1643758Y435292D01*
X1643709Y435532D01*
X1643664Y435773D01*
X1643626Y436014D01*
X1643594Y436257D01*
X1643567Y436500D01*
X1643547Y436744D01*
X1643532Y436989D01*
X1643523Y437233D01*
X1643520Y437478D01*
X1662237Y421256D02*
X1662447Y421129D01*
X1662653Y420997D01*
X1662856Y420861D01*
X1663056Y420719D01*
X1663252Y420573D01*
X1663444Y420421D01*
X1663633Y420266D01*
X1663818Y420106D01*
X1663999Y419941D01*
X1664176Y419772D01*
X1664349Y419599D01*
X1664518Y419421D01*
X1664683Y419240D01*
X1664843Y419055D01*
X1664998Y418866D01*
X1665149Y418673D01*
X1665295Y418477D01*
X1665436Y418277D01*
X1665573Y418074D01*
X1665704Y417867D01*
X1665831Y417658D01*
X1665952Y417445D01*
X1666069Y417230D01*
X1666180Y417012D01*
X1666285Y416791D01*
X1666386Y416567D01*
X1666481Y416342D01*
X1666570Y416114D01*
X1666654Y415884D01*
X1666733Y415652D01*
X1666805Y415419D01*
X1666873Y415183D01*
X1666934Y414946D01*
X1666990Y414708D01*
X1667039Y414468D01*
X1667084Y414227D01*
X1667122Y413986D01*
X1667154Y413743D01*
X1667181Y413500D01*
X1667201Y413256D01*
X1667216Y413011D01*
X1667225Y412767D01*
X1667228Y412522D01*
X1662237Y421257D02*
X1648512Y428743D01*
X1684286Y447460D02*
X1694268Y402540D01*
X1704250Y432487D01*
X1714233Y402540D01*
X1724215Y447460D01*
X1742773Y447460D02*
X1742773Y442469D01*
X1742773Y447460D02*
X1767728Y447460D01*
X1755250Y402540D01*
X1787772Y425000D02*
X1787783Y425884D01*
X1787814Y426767D01*
X1787867Y427649D01*
X1787941Y428530D01*
X1788035Y429408D01*
X1788151Y430284D01*
X1788288Y431157D01*
X1788445Y432027D01*
X1788623Y432893D01*
X1788822Y433754D01*
X1789041Y434610D01*
X1789281Y435460D01*
X1789540Y436305D01*
X1789820Y437143D01*
X1790120Y437974D01*
X1790440Y438798D01*
X1790779Y439614D01*
X1791137Y440422D01*
X1791515Y441221D01*
X1791516Y441221D02*
X1791591Y441433D01*
X1791672Y441642D01*
X1791758Y441850D01*
X1791848Y442056D01*
X1791944Y442259D01*
X1792044Y442460D01*
X1792150Y442658D01*
X1792260Y442854D01*
X1792375Y443047D01*
X1792494Y443237D01*
X1792618Y443424D01*
X1792747Y443608D01*
X1792880Y443789D01*
X1793018Y443966D01*
X1793159Y444141D01*
X1793305Y444311D01*
X1793455Y444478D01*
X1793609Y444642D01*
X1793767Y444801D01*
X1793929Y444957D01*
X1794095Y445109D01*
X1794264Y445257D01*
X1794437Y445400D01*
X1794613Y445539D01*
X1794792Y445674D01*
X1794975Y445805D01*
X1795161Y445931D01*
X1795350Y446052D01*
X1795542Y446169D01*
X1795736Y446281D01*
X1795933Y446389D01*
X1796133Y446491D01*
X1796335Y446589D01*
X1796540Y446682D01*
X1796747Y446770D01*
X1796955Y446852D01*
X1797166Y446930D01*
X1797379Y447002D01*
X1797593Y447069D01*
X1797809Y447131D01*
X1798026Y447188D01*
X1798245Y447240D01*
X1798465Y447286D01*
X1798685Y447326D01*
X1798907Y447362D01*
X1799130Y447392D01*
X1799353Y447416D01*
X1799577Y447435D01*
X1799801Y447449D01*
X1800025Y447457D01*
X1800250Y447460D01*
X1800475Y447457D01*
X1800699Y447449D01*
X1800923Y447435D01*
X1801147Y447416D01*
X1801370Y447392D01*
X1801593Y447362D01*
X1801815Y447326D01*
X1802036Y447286D01*
X1802255Y447240D01*
X1802474Y447188D01*
X1802691Y447131D01*
X1802907Y447069D01*
X1803121Y447002D01*
X1803334Y446930D01*
X1803545Y446852D01*
X1803754Y446769D01*
X1803960Y446682D01*
X1804165Y446589D01*
X1804367Y446491D01*
X1804567Y446389D01*
X1804764Y446281D01*
X1804959Y446169D01*
X1805151Y446052D01*
X1805340Y445931D01*
X1805525Y445805D01*
X1805708Y445674D01*
X1805888Y445539D01*
X1806064Y445400D01*
X1806237Y445256D01*
X1806406Y445109D01*
X1806571Y444957D01*
X1806733Y444801D01*
X1806891Y444642D01*
X1807045Y444478D01*
X1807195Y444311D01*
X1807341Y444140D01*
X1807483Y443966D01*
X1807621Y443789D01*
X1807754Y443608D01*
X1807882Y443424D01*
X1808006Y443236D01*
X1808126Y443046D01*
X1808241Y442853D01*
X1808351Y442658D01*
X1808457Y442459D01*
X1808557Y442258D01*
X1808653Y442055D01*
X1808743Y441850D01*
X1808829Y441642D01*
X1808909Y441432D01*
X1808985Y441221D01*
X1809363Y440422D01*
X1809721Y439614D01*
X1810060Y438798D01*
X1810380Y437974D01*
X1810680Y437143D01*
X1810960Y436305D01*
X1811219Y435460D01*
X1811459Y434610D01*
X1811678Y433754D01*
X1811877Y432893D01*
X1812055Y432027D01*
X1812212Y431157D01*
X1812349Y430284D01*
X1812465Y429408D01*
X1812559Y428530D01*
X1812633Y427649D01*
X1812686Y426767D01*
X1812717Y425884D01*
X1812728Y425000D01*
X1787772Y425000D02*
X1787783Y424116D01*
X1787814Y423233D01*
X1787867Y422351D01*
X1787941Y421470D01*
X1788035Y420592D01*
X1788151Y419716D01*
X1788288Y418843D01*
X1788445Y417973D01*
X1788623Y417107D01*
X1788822Y416246D01*
X1789041Y415390D01*
X1789281Y414540D01*
X1789540Y413695D01*
X1789820Y412857D01*
X1790120Y412025D01*
X1790440Y411201D01*
X1790779Y410385D01*
X1791137Y409578D01*
X1791515Y408779D01*
X1791516Y408778D02*
X1791592Y408567D01*
X1791672Y408357D01*
X1791758Y408150D01*
X1791848Y407944D01*
X1791944Y407741D01*
X1792044Y407540D01*
X1792150Y407342D01*
X1792260Y407146D01*
X1792375Y406953D01*
X1792494Y406763D01*
X1792619Y406576D01*
X1792747Y406392D01*
X1792880Y406211D01*
X1793018Y406033D01*
X1793159Y405859D01*
X1793305Y405689D01*
X1793455Y405521D01*
X1793609Y405358D01*
X1793767Y405198D01*
X1793929Y405043D01*
X1794095Y404891D01*
X1794264Y404743D01*
X1794437Y404600D01*
X1794613Y404461D01*
X1794792Y404326D01*
X1794975Y404195D01*
X1795161Y404069D01*
X1795350Y403948D01*
X1795542Y403831D01*
X1795736Y403719D01*
X1795934Y403611D01*
X1796133Y403509D01*
X1796336Y403411D01*
X1796540Y403318D01*
X1796747Y403230D01*
X1796956Y403148D01*
X1797166Y403070D01*
X1797379Y402998D01*
X1797593Y402931D01*
X1797809Y402869D01*
X1798026Y402812D01*
X1798245Y402760D01*
X1798465Y402714D01*
X1798686Y402674D01*
X1798907Y402638D01*
X1799130Y402608D01*
X1799353Y402584D01*
X1799577Y402565D01*
X1799801Y402551D01*
X1800025Y402543D01*
X1800250Y402540D01*
X1808985Y408779D02*
X1809363Y409578D01*
X1809721Y410385D01*
X1810060Y411201D01*
X1810380Y412025D01*
X1810680Y412857D01*
X1810960Y413695D01*
X1811219Y414540D01*
X1811459Y415390D01*
X1811678Y416246D01*
X1811877Y417107D01*
X1812055Y417973D01*
X1812212Y418843D01*
X1812349Y419716D01*
X1812465Y420592D01*
X1812559Y421470D01*
X1812633Y422351D01*
X1812686Y423233D01*
X1812717Y424116D01*
X1812728Y425000D01*
X1808985Y408779D02*
X1808909Y408567D01*
X1808829Y408358D01*
X1808743Y408150D01*
X1808653Y407945D01*
X1808557Y407741D01*
X1808456Y407541D01*
X1808351Y407342D01*
X1808241Y407147D01*
X1808126Y406954D01*
X1808006Y406763D01*
X1807882Y406576D01*
X1807754Y406392D01*
X1807620Y406211D01*
X1807483Y406034D01*
X1807341Y405859D01*
X1807195Y405689D01*
X1807045Y405522D01*
X1806891Y405358D01*
X1806733Y405199D01*
X1806571Y405043D01*
X1806406Y404891D01*
X1806237Y404743D01*
X1806064Y404600D01*
X1805888Y404461D01*
X1805708Y404326D01*
X1805525Y404195D01*
X1805339Y404069D01*
X1805151Y403948D01*
X1804959Y403831D01*
X1804764Y403719D01*
X1804567Y403611D01*
X1804367Y403509D01*
X1804165Y403411D01*
X1803960Y403318D01*
X1803754Y403230D01*
X1803545Y403148D01*
X1803334Y403070D01*
X1803121Y402998D01*
X1802907Y402931D01*
X1802691Y402869D01*
X1802474Y402812D01*
X1802255Y402760D01*
X1802035Y402714D01*
X1801815Y402674D01*
X1801593Y402638D01*
X1801370Y402608D01*
X1801147Y402584D01*
X1800923Y402565D01*
X1800699Y402551D01*
X1800475Y402543D01*
X1800250Y402540D01*
X1790268Y412522D02*
X1810232Y437478D01*
X1832772Y437478D02*
X1845249Y447460D01*
X1845249Y402540D01*
X1832772Y402540D02*
X1857727Y402540D01*
D16*
X1143000Y2984500D02*
X1143000Y3238500D01*
X1143000Y2984500D02*
X635000Y2984500D01*
X635000Y3238500D02*
X1143000Y3238500D01*
X1143000Y2984500D02*
X1143000Y2921000D01*
X635000Y2921000D01*
X635000Y2984500D02*
X635000Y3238500D01*
X635000Y2984500D02*
X635000Y2921000D01*
D18*
X762000Y3111500D03*
X1016000Y3111500D03*
D19*
X933027Y3618794D02*
X933027Y3709670D01*
X933026Y3618794D02*
X933018Y3618167D01*
X932996Y3617540D01*
X932958Y3616913D01*
X932905Y3616288D01*
X932837Y3615664D01*
X932754Y3615042D01*
X932655Y3614423D01*
X932542Y3613806D01*
X932414Y3613191D01*
X932272Y3612580D01*
X932114Y3611973D01*
X931942Y3611370D01*
X931755Y3610771D01*
X931554Y3610176D01*
X931339Y3609587D01*
X931109Y3609003D01*
X930866Y3608425D01*
X930608Y3607853D01*
X930337Y3607287D01*
X930052Y3606728D01*
X929754Y3606176D01*
X929442Y3605631D01*
X929118Y3605094D01*
X928780Y3604565D01*
X928430Y3604045D01*
X928067Y3603533D01*
X927692Y3603030D01*
X927305Y3602536D01*
X926907Y3602051D01*
X926496Y3601577D01*
X926075Y3601112D01*
X925642Y3600658D01*
X925198Y3600214D01*
X924744Y3599781D01*
X924279Y3599360D01*
X923805Y3598949D01*
X923320Y3598551D01*
X922826Y3598164D01*
X922323Y3597789D01*
X921811Y3597426D01*
X921291Y3597076D01*
X920762Y3596738D01*
X920225Y3596414D01*
X919680Y3596102D01*
X919128Y3595804D01*
X918569Y3595519D01*
X918003Y3595248D01*
X917431Y3594990D01*
X916853Y3594747D01*
X916269Y3594517D01*
X915680Y3594302D01*
X915085Y3594101D01*
X914486Y3593914D01*
X913883Y3593742D01*
X913276Y3593584D01*
X912665Y3593442D01*
X912050Y3593314D01*
X911433Y3593201D01*
X910814Y3593102D01*
X910192Y3593019D01*
X909568Y3592951D01*
X908943Y3592898D01*
X908316Y3592860D01*
X907689Y3592838D01*
X907062Y3592830D01*
X894080Y3592830D01*
X985761Y3618794D02*
X1011725Y3709670D01*
X985761Y3618794D02*
X1050672Y3618794D01*
X1031198Y3592830D02*
X1031198Y3644759D01*
D16*
X2000250Y3238500D02*
X2000250Y2984500D01*
X1492250Y2984500D01*
X1492250Y3238500D02*
X2000250Y3238500D01*
X2000250Y2984500D02*
X2000250Y2921000D01*
X1492250Y2921000D01*
X1492250Y2984500D02*
X1492250Y3238500D01*
X1492250Y2984500D02*
X1492250Y2921000D01*
D18*
X1619250Y3111500D03*
X1873250Y3111500D03*
D19*
X1790277Y3618794D02*
X1790277Y3709670D01*
X1790276Y3618794D02*
X1790268Y3618167D01*
X1790246Y3617540D01*
X1790208Y3616913D01*
X1790155Y3616288D01*
X1790087Y3615664D01*
X1790004Y3615042D01*
X1789905Y3614423D01*
X1789792Y3613806D01*
X1789664Y3613191D01*
X1789522Y3612580D01*
X1789364Y3611973D01*
X1789192Y3611370D01*
X1789005Y3610771D01*
X1788804Y3610176D01*
X1788589Y3609587D01*
X1788359Y3609003D01*
X1788116Y3608425D01*
X1787858Y3607853D01*
X1787587Y3607287D01*
X1787302Y3606728D01*
X1787004Y3606176D01*
X1786692Y3605631D01*
X1786368Y3605094D01*
X1786030Y3604565D01*
X1785680Y3604045D01*
X1785317Y3603533D01*
X1784942Y3603030D01*
X1784555Y3602536D01*
X1784157Y3602051D01*
X1783746Y3601577D01*
X1783325Y3601112D01*
X1782892Y3600658D01*
X1782448Y3600214D01*
X1781994Y3599781D01*
X1781529Y3599360D01*
X1781055Y3598949D01*
X1780570Y3598551D01*
X1780076Y3598164D01*
X1779573Y3597789D01*
X1779061Y3597426D01*
X1778541Y3597076D01*
X1778012Y3596738D01*
X1777475Y3596414D01*
X1776930Y3596102D01*
X1776378Y3595804D01*
X1775819Y3595519D01*
X1775253Y3595248D01*
X1774681Y3594990D01*
X1774103Y3594747D01*
X1773519Y3594517D01*
X1772930Y3594302D01*
X1772335Y3594101D01*
X1771736Y3593914D01*
X1771133Y3593742D01*
X1770526Y3593584D01*
X1769915Y3593442D01*
X1769300Y3593314D01*
X1768683Y3593201D01*
X1768064Y3593102D01*
X1767442Y3593019D01*
X1766818Y3592951D01*
X1766193Y3592898D01*
X1765566Y3592860D01*
X1764939Y3592838D01*
X1764312Y3592830D01*
X1751330Y3592830D01*
X1843011Y3683705D02*
X1875466Y3709670D01*
X1875466Y3592830D01*
X1843011Y3592830D02*
X1907922Y3592830D01*
D16*
X2857500Y3238500D02*
X2857500Y2984500D01*
X2349500Y2984500D01*
X2349500Y3238500D02*
X2857500Y3238500D01*
X2857500Y2984500D02*
X2857500Y2921000D01*
X2349500Y2921000D01*
X2349500Y2984500D02*
X2349500Y3238500D01*
X2349500Y2984500D02*
X2349500Y2921000D01*
D18*
X2476500Y3111500D03*
X2730500Y3111500D03*
D19*
X2647527Y3618794D02*
X2647527Y3709670D01*
X2647526Y3618794D02*
X2647518Y3618167D01*
X2647496Y3617540D01*
X2647458Y3616913D01*
X2647405Y3616288D01*
X2647337Y3615664D01*
X2647254Y3615042D01*
X2647155Y3614423D01*
X2647042Y3613806D01*
X2646914Y3613191D01*
X2646772Y3612580D01*
X2646614Y3611973D01*
X2646442Y3611370D01*
X2646255Y3610771D01*
X2646054Y3610176D01*
X2645839Y3609587D01*
X2645609Y3609003D01*
X2645366Y3608425D01*
X2645108Y3607853D01*
X2644837Y3607287D01*
X2644552Y3606728D01*
X2644254Y3606176D01*
X2643942Y3605631D01*
X2643618Y3605094D01*
X2643280Y3604565D01*
X2642930Y3604045D01*
X2642567Y3603533D01*
X2642192Y3603030D01*
X2641805Y3602536D01*
X2641407Y3602051D01*
X2640996Y3601577D01*
X2640575Y3601112D01*
X2640142Y3600658D01*
X2639698Y3600214D01*
X2639244Y3599781D01*
X2638779Y3599360D01*
X2638305Y3598949D01*
X2637820Y3598551D01*
X2637326Y3598164D01*
X2636823Y3597789D01*
X2636311Y3597426D01*
X2635791Y3597076D01*
X2635262Y3596738D01*
X2634725Y3596414D01*
X2634180Y3596102D01*
X2633628Y3595804D01*
X2633069Y3595519D01*
X2632503Y3595248D01*
X2631931Y3594990D01*
X2631353Y3594747D01*
X2630769Y3594517D01*
X2630180Y3594302D01*
X2629585Y3594101D01*
X2628986Y3593914D01*
X2628383Y3593742D01*
X2627776Y3593584D01*
X2627165Y3593442D01*
X2626550Y3593314D01*
X2625933Y3593201D01*
X2625314Y3593102D01*
X2624692Y3593019D01*
X2624068Y3592951D01*
X2623443Y3592898D01*
X2622816Y3592860D01*
X2622189Y3592838D01*
X2621562Y3592830D01*
X2608580Y3592830D01*
X2700261Y3592830D02*
X2732716Y3592830D01*
X2733506Y3592840D01*
X2734296Y3592868D01*
X2735085Y3592917D01*
X2735873Y3592984D01*
X2736658Y3593070D01*
X2737441Y3593176D01*
X2738222Y3593300D01*
X2738999Y3593444D01*
X2739773Y3593606D01*
X2740542Y3593788D01*
X2741307Y3593988D01*
X2742066Y3594206D01*
X2742820Y3594443D01*
X2743568Y3594698D01*
X2744310Y3594972D01*
X2745045Y3595263D01*
X2745772Y3595572D01*
X2746492Y3595899D01*
X2747203Y3596243D01*
X2747906Y3596604D01*
X2748600Y3596983D01*
X2749285Y3597378D01*
X2749959Y3597790D01*
X2750624Y3598218D01*
X2751277Y3598662D01*
X2751920Y3599122D01*
X2752552Y3599597D01*
X2753171Y3600088D01*
X2753779Y3600593D01*
X2754374Y3601113D01*
X2754956Y3601648D01*
X2755525Y3602197D01*
X2756080Y3602759D01*
X2756622Y3603334D01*
X2757150Y3603923D01*
X2757662Y3604524D01*
X2758161Y3605138D01*
X2758644Y3605764D01*
X2759111Y3606401D01*
X2759563Y3607049D01*
X2759999Y3607708D01*
X2760419Y3608378D01*
X2760823Y3609058D01*
X2761210Y3609747D01*
X2761580Y3610445D01*
X2761932Y3611152D01*
X2762268Y3611868D01*
X2762586Y3612592D01*
X2762886Y3613323D01*
X2763168Y3614061D01*
X2763433Y3614806D01*
X2763679Y3615557D01*
X2763906Y3616314D01*
X2764116Y3617076D01*
X2764306Y3617843D01*
X2764478Y3618615D01*
X2764631Y3619390D01*
X2764765Y3620169D01*
X2764880Y3620951D01*
X2764976Y3621735D01*
X2765053Y3622522D01*
X2765111Y3623310D01*
X2765149Y3624100D01*
X2765169Y3624890D01*
X2765169Y3625680D01*
X2765149Y3626470D01*
X2765111Y3627260D01*
X2765053Y3628048D01*
X2764976Y3628835D01*
X2764880Y3629619D01*
X2764765Y3630401D01*
X2764631Y3631180D01*
X2764478Y3631955D01*
X2764306Y3632727D01*
X2764116Y3633494D01*
X2763906Y3634256D01*
X2763679Y3635013D01*
X2763433Y3635764D01*
X2763168Y3636509D01*
X2762886Y3637247D01*
X2762586Y3637978D01*
X2762268Y3638702D01*
X2761932Y3639418D01*
X2761580Y3640125D01*
X2761210Y3640823D01*
X2760823Y3641513D01*
X2760419Y3642192D01*
X2759999Y3642862D01*
X2759563Y3643521D01*
X2759111Y3644169D01*
X2758644Y3644806D01*
X2758161Y3645432D01*
X2757662Y3646046D01*
X2757150Y3646647D01*
X2756622Y3647236D01*
X2756080Y3647811D01*
X2755525Y3648373D01*
X2754956Y3648922D01*
X2754374Y3649457D01*
X2753779Y3649977D01*
X2753171Y3650482D01*
X2752552Y3650973D01*
X2751920Y3651448D01*
X2751277Y3651908D01*
X2750624Y3652352D01*
X2749959Y3652780D01*
X2749285Y3653192D01*
X2748600Y3653587D01*
X2747906Y3653966D01*
X2747203Y3654327D01*
X2746492Y3654671D01*
X2745772Y3654998D01*
X2745045Y3655307D01*
X2744310Y3655598D01*
X2743568Y3655872D01*
X2742820Y3656127D01*
X2742066Y3656364D01*
X2741307Y3656582D01*
X2740542Y3656782D01*
X2739773Y3656964D01*
X2738999Y3657126D01*
X2738222Y3657270D01*
X2737441Y3657394D01*
X2736658Y3657500D01*
X2735873Y3657586D01*
X2735085Y3657653D01*
X2734296Y3657702D01*
X2733506Y3657730D01*
X2732716Y3657740D01*
X2739207Y3709670D02*
X2700261Y3709670D01*
X2739207Y3709670D02*
X2739839Y3709662D01*
X2740471Y3709639D01*
X2741102Y3709601D01*
X2741732Y3709547D01*
X2742361Y3709478D01*
X2742988Y3709393D01*
X2743612Y3709294D01*
X2744234Y3709179D01*
X2744853Y3709049D01*
X2745468Y3708904D01*
X2746080Y3708744D01*
X2746687Y3708569D01*
X2747291Y3708380D01*
X2747889Y3708175D01*
X2748483Y3707957D01*
X2749070Y3707724D01*
X2749652Y3707476D01*
X2750228Y3707215D01*
X2750797Y3706940D01*
X2751360Y3706650D01*
X2751915Y3706348D01*
X2752462Y3706032D01*
X2753002Y3705702D01*
X2753534Y3705360D01*
X2754057Y3705004D01*
X2754571Y3704637D01*
X2755076Y3704256D01*
X2755572Y3703864D01*
X2756058Y3703459D01*
X2756534Y3703043D01*
X2757000Y3702615D01*
X2757455Y3702176D01*
X2757899Y3701727D01*
X2758333Y3701266D01*
X2758755Y3700795D01*
X2759165Y3700314D01*
X2759563Y3699823D01*
X2759950Y3699323D01*
X2760324Y3698813D01*
X2760686Y3698294D01*
X2761035Y3697767D01*
X2761371Y3697231D01*
X2761693Y3696688D01*
X2762003Y3696136D01*
X2762299Y3695577D01*
X2762581Y3695011D01*
X2762849Y3694439D01*
X2763104Y3693860D01*
X2763344Y3693275D01*
X2763570Y3692685D01*
X2763781Y3692089D01*
X2763978Y3691488D01*
X2764160Y3690882D01*
X2764328Y3690272D01*
X2764480Y3689659D01*
X2764618Y3689042D01*
X2764740Y3688421D01*
X2764847Y3687798D01*
X2764939Y3687172D01*
X2765016Y3686545D01*
X2765078Y3685916D01*
X2765124Y3685285D01*
X2765155Y3684653D01*
X2765170Y3684021D01*
X2765170Y3683389D01*
X2765155Y3682757D01*
X2765124Y3682125D01*
X2765078Y3681494D01*
X2765016Y3680865D01*
X2764939Y3680238D01*
X2764847Y3679612D01*
X2764740Y3678989D01*
X2764618Y3678368D01*
X2764480Y3677751D01*
X2764328Y3677138D01*
X2764160Y3676528D01*
X2763978Y3675922D01*
X2763781Y3675321D01*
X2763570Y3674725D01*
X2763344Y3674135D01*
X2763104Y3673550D01*
X2762849Y3672971D01*
X2762581Y3672399D01*
X2762299Y3671833D01*
X2762003Y3671274D01*
X2761693Y3670723D01*
X2761371Y3670179D01*
X2761035Y3669643D01*
X2760686Y3669116D01*
X2760324Y3668597D01*
X2759950Y3668087D01*
X2759563Y3667587D01*
X2759165Y3667096D01*
X2758755Y3666615D01*
X2758333Y3666144D01*
X2757899Y3665683D01*
X2757455Y3665234D01*
X2757000Y3664795D01*
X2756534Y3664367D01*
X2756058Y3663951D01*
X2755572Y3663546D01*
X2755076Y3663154D01*
X2754571Y3662773D01*
X2754057Y3662406D01*
X2753534Y3662050D01*
X2753002Y3661708D01*
X2752462Y3661378D01*
X2751915Y3661062D01*
X2751360Y3660760D01*
X2750797Y3660470D01*
X2750228Y3660195D01*
X2749652Y3659934D01*
X2749070Y3659686D01*
X2748483Y3659453D01*
X2747889Y3659235D01*
X2747291Y3659030D01*
X2746687Y3658841D01*
X2746080Y3658666D01*
X2745468Y3658506D01*
X2744853Y3658361D01*
X2744234Y3658231D01*
X2743612Y3658116D01*
X2742988Y3658017D01*
X2742361Y3657932D01*
X2741732Y3657863D01*
X2741102Y3657809D01*
X2740471Y3657771D01*
X2739839Y3657748D01*
X2739207Y3657740D01*
X2739207Y3657741D02*
X2713243Y3657741D01*
D10*
X549000Y1017500D02*
X549015Y1018752D01*
X549061Y1020002D01*
X549138Y1021252D01*
X549246Y1022499D01*
X549384Y1023743D01*
X549552Y1024983D01*
X549751Y1026219D01*
X549980Y1027450D01*
X550239Y1028674D01*
X550528Y1029892D01*
X550847Y1031102D01*
X551196Y1032305D01*
X551574Y1033498D01*
X551981Y1034681D01*
X552417Y1035855D01*
X552882Y1037017D01*
X553375Y1038167D01*
X553897Y1039305D01*
X554446Y1040430D01*
X555022Y1041541D01*
X555626Y1042638D01*
X556256Y1043719D01*
X556912Y1044785D01*
X557595Y1045834D01*
X558303Y1046866D01*
X559036Y1047881D01*
X559794Y1048877D01*
X560576Y1049854D01*
X561382Y1050812D01*
X562211Y1051750D01*
X563063Y1052667D01*
X563938Y1053562D01*
X564833Y1054437D01*
X565750Y1055289D01*
X566688Y1056118D01*
X567646Y1056924D01*
X568623Y1057706D01*
X569619Y1058464D01*
X570634Y1059197D01*
X571666Y1059905D01*
X572715Y1060588D01*
X573781Y1061244D01*
X574862Y1061874D01*
X575959Y1062478D01*
X577070Y1063054D01*
X578195Y1063603D01*
X579333Y1064125D01*
X580483Y1064618D01*
X581645Y1065083D01*
X582819Y1065519D01*
X584002Y1065926D01*
X585195Y1066304D01*
X586398Y1066653D01*
X587608Y1066972D01*
X588826Y1067261D01*
X590050Y1067520D01*
X591281Y1067749D01*
X592517Y1067948D01*
X593757Y1068116D01*
X595001Y1068254D01*
X596248Y1068362D01*
X597498Y1068439D01*
X598748Y1068485D01*
X600000Y1068500D01*
X601252Y1068485D01*
X602502Y1068439D01*
X603752Y1068362D01*
X604999Y1068254D01*
X606243Y1068116D01*
X607483Y1067948D01*
X608719Y1067749D01*
X609950Y1067520D01*
X611174Y1067261D01*
X612392Y1066972D01*
X613602Y1066653D01*
X614805Y1066304D01*
X615998Y1065926D01*
X617181Y1065519D01*
X618355Y1065083D01*
X619517Y1064618D01*
X620667Y1064125D01*
X621805Y1063603D01*
X622930Y1063054D01*
X624041Y1062478D01*
X625138Y1061874D01*
X626219Y1061244D01*
X627285Y1060588D01*
X628334Y1059905D01*
X629366Y1059197D01*
X630381Y1058464D01*
X631377Y1057706D01*
X632354Y1056924D01*
X633312Y1056118D01*
X634250Y1055289D01*
X635167Y1054437D01*
X636062Y1053562D01*
X636937Y1052667D01*
X637789Y1051750D01*
X638618Y1050812D01*
X639424Y1049854D01*
X640206Y1048877D01*
X640964Y1047881D01*
X641697Y1046866D01*
X642405Y1045834D01*
X643088Y1044785D01*
X643744Y1043719D01*
X644374Y1042638D01*
X644978Y1041541D01*
X645554Y1040430D01*
X646103Y1039305D01*
X646625Y1038167D01*
X647118Y1037017D01*
X647583Y1035855D01*
X648019Y1034681D01*
X648426Y1033498D01*
X648804Y1032305D01*
X649153Y1031102D01*
X649472Y1029892D01*
X649761Y1028674D01*
X650020Y1027450D01*
X650249Y1026219D01*
X650448Y1024983D01*
X650616Y1023743D01*
X650754Y1022499D01*
X650862Y1021252D01*
X650939Y1020002D01*
X650985Y1018752D01*
X651000Y1017500D01*
X650985Y1016248D01*
X650939Y1014998D01*
X650862Y1013748D01*
X650754Y1012501D01*
X650616Y1011257D01*
X650448Y1010017D01*
X650249Y1008781D01*
X650020Y1007550D01*
X649761Y1006326D01*
X649472Y1005108D01*
X649153Y1003898D01*
X648804Y1002695D01*
X648426Y1001502D01*
X648019Y1000319D01*
X647583Y999145D01*
X647118Y997983D01*
X646625Y996833D01*
X646103Y995695D01*
X645554Y994570D01*
X644978Y993459D01*
X644374Y992362D01*
X643744Y991281D01*
X643088Y990215D01*
X642405Y989166D01*
X641697Y988134D01*
X640964Y987119D01*
X640206Y986123D01*
X639424Y985146D01*
X638618Y984188D01*
X637789Y983250D01*
X636937Y982333D01*
X636062Y981438D01*
X635167Y980563D01*
X634250Y979711D01*
X633312Y978882D01*
X632354Y978076D01*
X631377Y977294D01*
X630381Y976536D01*
X629366Y975803D01*
X628334Y975095D01*
X627285Y974412D01*
X626219Y973756D01*
X625138Y973126D01*
X624041Y972522D01*
X622930Y971946D01*
X621805Y971397D01*
X620667Y970875D01*
X619517Y970382D01*
X618355Y969917D01*
X617181Y969481D01*
X615998Y969074D01*
X614805Y968696D01*
X613602Y968347D01*
X612392Y968028D01*
X611174Y967739D01*
X609950Y967480D01*
X608719Y967251D01*
X607483Y967052D01*
X606243Y966884D01*
X604999Y966746D01*
X603752Y966638D01*
X602502Y966561D01*
X601252Y966515D01*
X600000Y966500D01*
X598748Y966515D01*
X597498Y966561D01*
X596248Y966638D01*
X595001Y966746D01*
X593757Y966884D01*
X592517Y967052D01*
X591281Y967251D01*
X590050Y967480D01*
X588826Y967739D01*
X587608Y968028D01*
X586398Y968347D01*
X585195Y968696D01*
X584002Y969074D01*
X582819Y969481D01*
X581645Y969917D01*
X580483Y970382D01*
X579333Y970875D01*
X578195Y971397D01*
X577070Y971946D01*
X575959Y972522D01*
X574862Y973126D01*
X573781Y973756D01*
X572715Y974412D01*
X571666Y975095D01*
X570634Y975803D01*
X569619Y976536D01*
X568623Y977294D01*
X567646Y978076D01*
X566688Y978882D01*
X565750Y979711D01*
X564833Y980563D01*
X563938Y981438D01*
X563063Y982333D01*
X562211Y983250D01*
X561382Y984188D01*
X560576Y985146D01*
X559794Y986123D01*
X559036Y987119D01*
X558303Y988134D01*
X557595Y989166D01*
X556912Y990215D01*
X556256Y991281D01*
X555626Y992362D01*
X555022Y993459D01*
X554446Y994570D01*
X553897Y995695D01*
X553375Y996833D01*
X552882Y997983D01*
X552417Y999145D01*
X551981Y1000319D01*
X551574Y1001502D01*
X551196Y1002695D01*
X550847Y1003898D01*
X550528Y1005108D01*
X550239Y1006326D01*
X549980Y1007550D01*
X549751Y1008781D01*
X549552Y1010017D01*
X549384Y1011257D01*
X549246Y1012501D01*
X549138Y1013748D01*
X549061Y1014998D01*
X549015Y1016248D01*
X549000Y1017500D01*
X549000Y382500D02*
X549015Y383752D01*
X549061Y385002D01*
X549138Y386252D01*
X549246Y387499D01*
X549384Y388743D01*
X549552Y389983D01*
X549751Y391219D01*
X549980Y392450D01*
X550239Y393674D01*
X550528Y394892D01*
X550847Y396102D01*
X551196Y397305D01*
X551574Y398498D01*
X551981Y399681D01*
X552417Y400855D01*
X552882Y402017D01*
X553375Y403167D01*
X553897Y404305D01*
X554446Y405430D01*
X555022Y406541D01*
X555626Y407638D01*
X556256Y408719D01*
X556912Y409785D01*
X557595Y410834D01*
X558303Y411866D01*
X559036Y412881D01*
X559794Y413877D01*
X560576Y414854D01*
X561382Y415812D01*
X562211Y416750D01*
X563063Y417667D01*
X563938Y418562D01*
X564833Y419437D01*
X565750Y420289D01*
X566688Y421118D01*
X567646Y421924D01*
X568623Y422706D01*
X569619Y423464D01*
X570634Y424197D01*
X571666Y424905D01*
X572715Y425588D01*
X573781Y426244D01*
X574862Y426874D01*
X575959Y427478D01*
X577070Y428054D01*
X578195Y428603D01*
X579333Y429125D01*
X580483Y429618D01*
X581645Y430083D01*
X582819Y430519D01*
X584002Y430926D01*
X585195Y431304D01*
X586398Y431653D01*
X587608Y431972D01*
X588826Y432261D01*
X590050Y432520D01*
X591281Y432749D01*
X592517Y432948D01*
X593757Y433116D01*
X595001Y433254D01*
X596248Y433362D01*
X597498Y433439D01*
X598748Y433485D01*
X600000Y433500D01*
X601252Y433485D01*
X602502Y433439D01*
X603752Y433362D01*
X604999Y433254D01*
X606243Y433116D01*
X607483Y432948D01*
X608719Y432749D01*
X609950Y432520D01*
X611174Y432261D01*
X612392Y431972D01*
X613602Y431653D01*
X614805Y431304D01*
X615998Y430926D01*
X617181Y430519D01*
X618355Y430083D01*
X619517Y429618D01*
X620667Y429125D01*
X621805Y428603D01*
X622930Y428054D01*
X624041Y427478D01*
X625138Y426874D01*
X626219Y426244D01*
X627285Y425588D01*
X628334Y424905D01*
X629366Y424197D01*
X630381Y423464D01*
X631377Y422706D01*
X632354Y421924D01*
X633312Y421118D01*
X634250Y420289D01*
X635167Y419437D01*
X636062Y418562D01*
X636937Y417667D01*
X637789Y416750D01*
X638618Y415812D01*
X639424Y414854D01*
X640206Y413877D01*
X640964Y412881D01*
X641697Y411866D01*
X642405Y410834D01*
X643088Y409785D01*
X643744Y408719D01*
X644374Y407638D01*
X644978Y406541D01*
X645554Y405430D01*
X646103Y404305D01*
X646625Y403167D01*
X647118Y402017D01*
X647583Y400855D01*
X648019Y399681D01*
X648426Y398498D01*
X648804Y397305D01*
X649153Y396102D01*
X649472Y394892D01*
X649761Y393674D01*
X650020Y392450D01*
X650249Y391219D01*
X650448Y389983D01*
X650616Y388743D01*
X650754Y387499D01*
X650862Y386252D01*
X650939Y385002D01*
X650985Y383752D01*
X651000Y382500D01*
X650985Y381248D01*
X650939Y379998D01*
X650862Y378748D01*
X650754Y377501D01*
X650616Y376257D01*
X650448Y375017D01*
X650249Y373781D01*
X650020Y372550D01*
X649761Y371326D01*
X649472Y370108D01*
X649153Y368898D01*
X648804Y367695D01*
X648426Y366502D01*
X648019Y365319D01*
X647583Y364145D01*
X647118Y362983D01*
X646625Y361833D01*
X646103Y360695D01*
X645554Y359570D01*
X644978Y358459D01*
X644374Y357362D01*
X643744Y356281D01*
X643088Y355215D01*
X642405Y354166D01*
X641697Y353134D01*
X640964Y352119D01*
X640206Y351123D01*
X639424Y350146D01*
X638618Y349188D01*
X637789Y348250D01*
X636937Y347333D01*
X636062Y346438D01*
X635167Y345563D01*
X634250Y344711D01*
X633312Y343882D01*
X632354Y343076D01*
X631377Y342294D01*
X630381Y341536D01*
X629366Y340803D01*
X628334Y340095D01*
X627285Y339412D01*
X626219Y338756D01*
X625138Y338126D01*
X624041Y337522D01*
X622930Y336946D01*
X621805Y336397D01*
X620667Y335875D01*
X619517Y335382D01*
X618355Y334917D01*
X617181Y334481D01*
X615998Y334074D01*
X614805Y333696D01*
X613602Y333347D01*
X612392Y333028D01*
X611174Y332739D01*
X609950Y332480D01*
X608719Y332251D01*
X607483Y332052D01*
X606243Y331884D01*
X604999Y331746D01*
X603752Y331638D01*
X602502Y331561D01*
X601252Y331515D01*
X600000Y331500D01*
X598748Y331515D01*
X597498Y331561D01*
X596248Y331638D01*
X595001Y331746D01*
X593757Y331884D01*
X592517Y332052D01*
X591281Y332251D01*
X590050Y332480D01*
X588826Y332739D01*
X587608Y333028D01*
X586398Y333347D01*
X585195Y333696D01*
X584002Y334074D01*
X582819Y334481D01*
X581645Y334917D01*
X580483Y335382D01*
X579333Y335875D01*
X578195Y336397D01*
X577070Y336946D01*
X575959Y337522D01*
X574862Y338126D01*
X573781Y338756D01*
X572715Y339412D01*
X571666Y340095D01*
X570634Y340803D01*
X569619Y341536D01*
X568623Y342294D01*
X567646Y343076D01*
X566688Y343882D01*
X565750Y344711D01*
X564833Y345563D01*
X563938Y346438D01*
X563063Y347333D01*
X562211Y348250D01*
X561382Y349188D01*
X560576Y350146D01*
X559794Y351123D01*
X559036Y352119D01*
X558303Y353134D01*
X557595Y354166D01*
X556912Y355215D01*
X556256Y356281D01*
X555626Y357362D01*
X555022Y358459D01*
X554446Y359570D01*
X553897Y360695D01*
X553375Y361833D01*
X552882Y362983D01*
X552417Y364145D01*
X551981Y365319D01*
X551574Y366502D01*
X551196Y367695D01*
X550847Y368898D01*
X550528Y370108D01*
X550239Y371326D01*
X549980Y372550D01*
X549751Y373781D01*
X549552Y375017D01*
X549384Y376257D01*
X549246Y377501D01*
X549138Y378748D01*
X549061Y379998D01*
X549015Y381248D01*
X549000Y382500D01*
D17*
X305000Y1144500D02*
X892000Y1144500D01*
X892000Y255500D02*
X305000Y255500D01*
D15*
X200000Y1100000D02*
X200244Y1100003D01*
X200487Y1100012D01*
X200730Y1100027D01*
X200973Y1100047D01*
X201215Y1100074D01*
X201456Y1100107D01*
X201696Y1100145D01*
X201936Y1100189D01*
X202174Y1100239D01*
X202411Y1100295D01*
X202647Y1100357D01*
X202881Y1100424D01*
X203113Y1100497D01*
X203344Y1100576D01*
X203572Y1100660D01*
X203799Y1100750D01*
X204023Y1100845D01*
X204245Y1100946D01*
X204464Y1101052D01*
X204680Y1101163D01*
X204894Y1101280D01*
X205105Y1101401D01*
X205313Y1101528D01*
X205518Y1101660D01*
X205719Y1101797D01*
X205917Y1101939D01*
X206112Y1102085D01*
X206303Y1102236D01*
X206490Y1102392D01*
X206673Y1102552D01*
X206853Y1102717D01*
X207028Y1102886D01*
X207199Y1103059D01*
X207366Y1103237D01*
X207528Y1103418D01*
X207686Y1103603D01*
X207840Y1103792D01*
X207989Y1103985D01*
X208133Y1104181D01*
X208272Y1104381D01*
X208407Y1104584D01*
X208536Y1104791D01*
X208660Y1105000D01*
X208779Y1105212D01*
X208893Y1105428D01*
X209002Y1105645D01*
X209105Y1105866D01*
X209203Y1106089D01*
X209296Y1106314D01*
X209383Y1106542D01*
X209464Y1106771D01*
X209540Y1107003D01*
X209610Y1107236D01*
X209675Y1107471D01*
X209734Y1107707D01*
X209787Y1107945D01*
X209834Y1108184D01*
X209875Y1108424D01*
X209910Y1108665D01*
X209940Y1108906D01*
X209964Y1109149D01*
X209981Y1109392D01*
X209993Y1109635D01*
X209999Y1109878D01*
X209999Y1110122D01*
X209993Y1110365D01*
X209981Y1110608D01*
X209964Y1110851D01*
X209940Y1111094D01*
X209910Y1111335D01*
X209875Y1111576D01*
X209834Y1111816D01*
X209787Y1112055D01*
X209734Y1112293D01*
X209675Y1112529D01*
X209610Y1112764D01*
X209540Y1112997D01*
X209464Y1113229D01*
X209383Y1113458D01*
X209296Y1113686D01*
X209203Y1113911D01*
X209105Y1114134D01*
X209002Y1114355D01*
X208893Y1114572D01*
X208779Y1114788D01*
X208660Y1115000D01*
X208536Y1115209D01*
X208407Y1115416D01*
X208272Y1115619D01*
X208133Y1115819D01*
X207989Y1116015D01*
X207840Y1116208D01*
X207686Y1116397D01*
X207528Y1116582D01*
X207366Y1116763D01*
X207199Y1116941D01*
X207028Y1117114D01*
X206853Y1117283D01*
X206673Y1117448D01*
X206490Y1117608D01*
X206303Y1117764D01*
X206112Y1117915D01*
X205917Y1118061D01*
X205719Y1118203D01*
X205518Y1118340D01*
X205313Y1118472D01*
X205105Y1118599D01*
X204894Y1118720D01*
X204680Y1118837D01*
X204464Y1118948D01*
X204245Y1119054D01*
X204023Y1119155D01*
X203799Y1119250D01*
X203572Y1119340D01*
X203344Y1119424D01*
X203113Y1119503D01*
X202881Y1119576D01*
X202647Y1119643D01*
X202411Y1119705D01*
X202174Y1119761D01*
X201936Y1119811D01*
X201696Y1119855D01*
X201456Y1119893D01*
X201215Y1119926D01*
X200973Y1119953D01*
X200730Y1119973D01*
X200487Y1119988D01*
X200244Y1119997D01*
X200000Y1120000D01*
X199756Y1119997D01*
X199513Y1119988D01*
X199270Y1119973D01*
X199027Y1119953D01*
X198785Y1119926D01*
X198544Y1119893D01*
X198304Y1119855D01*
X198064Y1119811D01*
X197826Y1119761D01*
X197589Y1119705D01*
X197353Y1119643D01*
X197119Y1119576D01*
X196887Y1119503D01*
X196656Y1119424D01*
X196428Y1119340D01*
X196201Y1119250D01*
X195977Y1119155D01*
X195755Y1119054D01*
X195536Y1118948D01*
X195320Y1118837D01*
X195106Y1118720D01*
X194895Y1118599D01*
X194687Y1118472D01*
X194482Y1118340D01*
X194281Y1118203D01*
X194083Y1118061D01*
X193888Y1117915D01*
X193697Y1117764D01*
X193510Y1117608D01*
X193327Y1117448D01*
X193147Y1117283D01*
X192972Y1117114D01*
X192801Y1116941D01*
X192634Y1116763D01*
X192472Y1116582D01*
X192314Y1116397D01*
X192160Y1116208D01*
X192011Y1116015D01*
X191867Y1115819D01*
X191728Y1115619D01*
X191593Y1115416D01*
X191464Y1115209D01*
X191340Y1115000D01*
X191221Y1114788D01*
X191107Y1114572D01*
X190998Y1114355D01*
X190895Y1114134D01*
X190797Y1113911D01*
X190704Y1113686D01*
X190617Y1113458D01*
X190536Y1113229D01*
X190460Y1112997D01*
X190390Y1112764D01*
X190325Y1112529D01*
X190266Y1112293D01*
X190213Y1112055D01*
X190166Y1111816D01*
X190125Y1111576D01*
X190090Y1111335D01*
X190060Y1111094D01*
X190036Y1110851D01*
X190019Y1110608D01*
X190007Y1110365D01*
X190001Y1110122D01*
X190001Y1109878D01*
X190007Y1109635D01*
X190019Y1109392D01*
X190036Y1109149D01*
X190060Y1108906D01*
X190090Y1108665D01*
X190125Y1108424D01*
X190166Y1108184D01*
X190213Y1107945D01*
X190266Y1107707D01*
X190325Y1107471D01*
X190390Y1107236D01*
X190460Y1107003D01*
X190536Y1106771D01*
X190617Y1106542D01*
X190704Y1106314D01*
X190797Y1106089D01*
X190895Y1105866D01*
X190998Y1105645D01*
X191107Y1105428D01*
X191221Y1105212D01*
X191340Y1105000D01*
X191464Y1104791D01*
X191593Y1104584D01*
X191728Y1104381D01*
X191867Y1104181D01*
X192011Y1103985D01*
X192160Y1103792D01*
X192314Y1103603D01*
X192472Y1103418D01*
X192634Y1103237D01*
X192801Y1103059D01*
X192972Y1102886D01*
X193147Y1102717D01*
X193327Y1102552D01*
X193510Y1102392D01*
X193697Y1102236D01*
X193888Y1102085D01*
X194083Y1101939D01*
X194281Y1101797D01*
X194482Y1101660D01*
X194687Y1101528D01*
X194895Y1101401D01*
X195106Y1101280D01*
X195320Y1101163D01*
X195536Y1101052D01*
X195755Y1100946D01*
X195977Y1100845D01*
X196201Y1100750D01*
X196428Y1100660D01*
X196656Y1100576D01*
X196887Y1100497D01*
X197119Y1100424D01*
X197353Y1100357D01*
X197589Y1100295D01*
X197826Y1100239D01*
X198064Y1100189D01*
X198304Y1100145D01*
X198544Y1100107D01*
X198785Y1100074D01*
X199027Y1100047D01*
X199270Y1100027D01*
X199513Y1100012D01*
X199756Y1100003D01*
X200000Y1100000D01*
D19*
X-214349Y758420D02*
X-214349Y667544D01*
X-214357Y666917D01*
X-214379Y666290D01*
X-214417Y665663D01*
X-214470Y665038D01*
X-214538Y664414D01*
X-214621Y663792D01*
X-214720Y663173D01*
X-214833Y662556D01*
X-214961Y661941D01*
X-215103Y661330D01*
X-215261Y660723D01*
X-215433Y660120D01*
X-215620Y659521D01*
X-215821Y658926D01*
X-216036Y658337D01*
X-216266Y657753D01*
X-216509Y657175D01*
X-216767Y656603D01*
X-217038Y656037D01*
X-217323Y655478D01*
X-217621Y654926D01*
X-217933Y654381D01*
X-218257Y653844D01*
X-218595Y653315D01*
X-218945Y652795D01*
X-219308Y652283D01*
X-219683Y651780D01*
X-220070Y651286D01*
X-220468Y650801D01*
X-220879Y650327D01*
X-221300Y649862D01*
X-221733Y649408D01*
X-222177Y648964D01*
X-222631Y648531D01*
X-223096Y648110D01*
X-223570Y647699D01*
X-224055Y647301D01*
X-224549Y646914D01*
X-225052Y646539D01*
X-225564Y646176D01*
X-226084Y645826D01*
X-226613Y645488D01*
X-227150Y645164D01*
X-227695Y644852D01*
X-228247Y644554D01*
X-228806Y644269D01*
X-229372Y643998D01*
X-229944Y643740D01*
X-230522Y643497D01*
X-231106Y643267D01*
X-231695Y643052D01*
X-232290Y642851D01*
X-232889Y642664D01*
X-233492Y642492D01*
X-234099Y642334D01*
X-234710Y642192D01*
X-235325Y642064D01*
X-235942Y641951D01*
X-236561Y641852D01*
X-237183Y641769D01*
X-237807Y641701D01*
X-238432Y641648D01*
X-239059Y641610D01*
X-239686Y641588D01*
X-240313Y641580D01*
X-253296Y641580D01*
X-125914Y758420D02*
X-125208Y758411D01*
X-124503Y758386D01*
X-123798Y758343D01*
X-123095Y758284D01*
X-122393Y758207D01*
X-121693Y758113D01*
X-120996Y758003D01*
X-120302Y757876D01*
X-119611Y757732D01*
X-118924Y757571D01*
X-118240Y757394D01*
X-117562Y757200D01*
X-116888Y756990D01*
X-116219Y756764D01*
X-115556Y756522D01*
X-114899Y756264D01*
X-114249Y755990D01*
X-113605Y755700D01*
X-112968Y755395D01*
X-112339Y755074D01*
X-111718Y754739D01*
X-111106Y754388D01*
X-110502Y754023D01*
X-109907Y753643D01*
X-109321Y753249D01*
X-108745Y752841D01*
X-108179Y752420D01*
X-107623Y751984D01*
X-107078Y751536D01*
X-106544Y751074D01*
X-106022Y750600D01*
X-105510Y750113D01*
X-105011Y749614D01*
X-104524Y749102D01*
X-104050Y748580D01*
X-103588Y748046D01*
X-103140Y747501D01*
X-102704Y746945D01*
X-102283Y746379D01*
X-101875Y745803D01*
X-101481Y745217D01*
X-101101Y744622D01*
X-100736Y744018D01*
X-100385Y743406D01*
X-100050Y742785D01*
X-99729Y742156D01*
X-99424Y741519D01*
X-99134Y740875D01*
X-98860Y740225D01*
X-98602Y739568D01*
X-98360Y738905D01*
X-98134Y738236D01*
X-97924Y737562D01*
X-97730Y736884D01*
X-97553Y736200D01*
X-97392Y735513D01*
X-97248Y734822D01*
X-97121Y734128D01*
X-97011Y733431D01*
X-96917Y732731D01*
X-96840Y732029D01*
X-96781Y731326D01*
X-96738Y730621D01*
X-96713Y729916D01*
X-96704Y729210D01*
X-125914Y758420D02*
X-126821Y758409D01*
X-127728Y758376D01*
X-128634Y758321D01*
X-129539Y758245D01*
X-130441Y758146D01*
X-131340Y758026D01*
X-132237Y757884D01*
X-133129Y757720D01*
X-134018Y757535D01*
X-134901Y757328D01*
X-135780Y757100D01*
X-136652Y756851D01*
X-137519Y756581D01*
X-138378Y756289D01*
X-139231Y755978D01*
X-140075Y755645D01*
X-140911Y755293D01*
X-141739Y754920D01*
X-142557Y754527D01*
X-143366Y754115D01*
X-144164Y753683D01*
X-144951Y753232D01*
X-145728Y752763D01*
X-146493Y752274D01*
X-147246Y751767D01*
X-147986Y751242D01*
X-148713Y750700D01*
X-149428Y750140D01*
X-150128Y749563D01*
X-150814Y748969D01*
X-151486Y748358D01*
X-152142Y747732D01*
X-152784Y747090D01*
X-153409Y746432D01*
X-154019Y745760D01*
X-154612Y745073D01*
X-155188Y744372D01*
X-155748Y743657D01*
X-156289Y742929D01*
X-156813Y742188D01*
X-157319Y741435D01*
X-157807Y740669D01*
X-158276Y739892D01*
X-158726Y739104D01*
X-159156Y738305D01*
X-159568Y737496D01*
X-159959Y736678D01*
X-160331Y735850D01*
X-160683Y735013D01*
X-161014Y734168D01*
X-161325Y733315D01*
X-161615Y732455D01*
X-106441Y706491D02*
X-105890Y707028D01*
X-105352Y707579D01*
X-104828Y708144D01*
X-104318Y708720D01*
X-103823Y709310D01*
X-103342Y709911D01*
X-102876Y710524D01*
X-102425Y711148D01*
X-101989Y711782D01*
X-101570Y712428D01*
X-101166Y713083D01*
X-100778Y713748D01*
X-100407Y714423D01*
X-100053Y715106D01*
X-99715Y715798D01*
X-99394Y716498D01*
X-99091Y717206D01*
X-98805Y717921D01*
X-98537Y718642D01*
X-98287Y719370D01*
X-98054Y720104D01*
X-97840Y720844D01*
X-97644Y721588D01*
X-97466Y722337D01*
X-97307Y723090D01*
X-97166Y723847D01*
X-97043Y724607D01*
X-96940Y725370D01*
X-96855Y726135D01*
X-96789Y726902D01*
X-96742Y727671D01*
X-96713Y728440D01*
X-96704Y729210D01*
X-106441Y706491D02*
X-161615Y641580D01*
X-96704Y641580D01*
M02*
