M48
;GenerationSoftware,Autodesk,EAGLE,9.3.2*%
;CreationDate,2019-04-02T18:45:43Z*%
FMAT,2
ICI,OFF
METRIC,TZ,000.00000
T4C0.35000
T3C0.50000
T2C1.00000
T1C2.00000
%
G90
M71
T1
X300000Y3200000
X300000Y300000
X3200000Y300000
X3200000Y3200000
T2
X1898000Y2725000
X1552000Y2725000
X1298000Y2725000
X902000Y2725000
X648000Y2725000
X2152000Y2725000
T3
X1750000Y2250000
T4
X1100000Y1850000
X2275000Y1525000
X950000Y1125000
X1400000Y1125000
X2325000Y1950000
X1700000Y2150000
X1525000Y2065000
X2675000Y600000
X775000Y2025000
X1000000Y2175000
X1789500Y1497576
X625000Y1925000
X1700000Y1625000
X1700000Y1750000
X1700000Y1500000
X1425000Y1950000
X825000Y1925000
X725000Y1925000
X2917500Y2225000
X1375000Y1350000
X2525000Y1150000
X2425000Y1150000
X1608462Y1208462
X2325000Y1150000
X2175000Y1150000
X1150000Y2200000
X1775000Y1994200
X700000Y1800000
X1350000Y1700000
X1275000Y1625000
X1375000Y1500000
X2550000Y1400000
X1750000Y1400000
X1977007Y2000800
X2550000Y1775000
X1925000Y1325000
X2000000Y1825000
X1250000Y1350000
X1350000Y1850000
X1300000Y2040000
M30