G04 EAGLE Gerber RS-274X export*
G75*
%MOMM*%
%FSLAX35Y35*%
%LPD*%
%INsilk_top*%
%IPPOS*%
%AMOC8*
5,1,8,0,0,1.08239X$1,22.5*%
G01*
%ADD10C,0.076200*%
%ADD11C,0.000000*%
%ADD12C,0.127000*%
%ADD13C,0.300000*%
%ADD14C,0.101600*%
%ADD15C,0.152400*%
%ADD16C,0.254000*%
%ADD17C,0.100000*%


D10*
X1294868Y3078810D02*
X1294868Y3104471D01*
X1294876Y3105096D01*
X1294898Y3105720D01*
X1294936Y3106344D01*
X1294990Y3106967D01*
X1295058Y3107588D01*
X1295141Y3108207D01*
X1295240Y3108824D01*
X1295353Y3109439D01*
X1295482Y3110050D01*
X1295625Y3110659D01*
X1295783Y3111263D01*
X1295956Y3111864D01*
X1296143Y3112460D01*
X1296345Y3113052D01*
X1296561Y3113638D01*
X1296792Y3114219D01*
X1297036Y3114794D01*
X1297294Y3115363D01*
X1297566Y3115926D01*
X1297852Y3116481D01*
X1298151Y3117030D01*
X1298464Y3117571D01*
X1298789Y3118105D01*
X1299128Y3118630D01*
X1299479Y3119147D01*
X1299843Y3119655D01*
X1300218Y3120154D01*
X1300606Y3120644D01*
X1301006Y3121125D01*
X1301417Y3121595D01*
X1301840Y3122055D01*
X1302274Y3122505D01*
X1302718Y3122944D01*
X1303173Y3123373D01*
X1303639Y3123790D01*
X1304114Y3124195D01*
X1304600Y3124589D01*
X1305094Y3124971D01*
X1305598Y3125341D01*
X1306111Y3125698D01*
X1306632Y3126043D01*
X1307161Y3126375D01*
X1307699Y3126694D01*
X1308243Y3127000D01*
X1308796Y3127292D01*
X1309355Y3127571D01*
X1309921Y3127837D01*
X1310493Y3128088D01*
X1311071Y3128325D01*
X1311655Y3128549D01*
X1312244Y3128758D01*
X1312837Y3128952D01*
X1313436Y3129132D01*
X1314038Y3129298D01*
X1314645Y3129448D01*
X1315255Y3129584D01*
X1315868Y3129705D01*
X1316484Y3129811D01*
X1317102Y3129902D01*
X1317722Y3129978D01*
X1318344Y3130039D01*
X1318968Y3130084D01*
X1319592Y3130115D01*
X1320217Y3130130D01*
X1320841Y3130130D01*
X1321466Y3130115D01*
X1322090Y3130084D01*
X1322714Y3130039D01*
X1323336Y3129978D01*
X1323956Y3129902D01*
X1324574Y3129811D01*
X1325190Y3129705D01*
X1325803Y3129584D01*
X1326413Y3129448D01*
X1327020Y3129298D01*
X1327622Y3129132D01*
X1328221Y3128952D01*
X1328814Y3128758D01*
X1329403Y3128549D01*
X1329987Y3128325D01*
X1330565Y3128088D01*
X1331137Y3127837D01*
X1331703Y3127571D01*
X1332262Y3127292D01*
X1332815Y3127000D01*
X1333360Y3126694D01*
X1333897Y3126375D01*
X1334426Y3126043D01*
X1334947Y3125698D01*
X1335460Y3125341D01*
X1335964Y3124971D01*
X1336458Y3124589D01*
X1336944Y3124195D01*
X1337419Y3123790D01*
X1337885Y3123373D01*
X1338340Y3122944D01*
X1338784Y3122505D01*
X1339218Y3122055D01*
X1339641Y3121595D01*
X1340052Y3121125D01*
X1340452Y3120644D01*
X1340840Y3120154D01*
X1341215Y3119655D01*
X1341579Y3119147D01*
X1341930Y3118630D01*
X1342269Y3118105D01*
X1342594Y3117571D01*
X1342907Y3117030D01*
X1343206Y3116481D01*
X1343492Y3115926D01*
X1343764Y3115363D01*
X1344022Y3114794D01*
X1344266Y3114219D01*
X1344497Y3113638D01*
X1344713Y3113052D01*
X1344915Y3112460D01*
X1345102Y3111864D01*
X1345275Y3111263D01*
X1345433Y3110659D01*
X1345576Y3110050D01*
X1345705Y3109439D01*
X1345818Y3108824D01*
X1345917Y3108207D01*
X1346000Y3107588D01*
X1346068Y3106967D01*
X1346122Y3106344D01*
X1346160Y3105720D01*
X1346182Y3105096D01*
X1346190Y3104471D01*
X1346190Y3078810D01*
X1253810Y3078810D01*
X1253810Y3104471D01*
X1253816Y3104971D01*
X1253834Y3105471D01*
X1253865Y3105970D01*
X1253907Y3106468D01*
X1253962Y3106965D01*
X1254029Y3107460D01*
X1254108Y3107954D01*
X1254198Y3108445D01*
X1254301Y3108935D01*
X1254416Y3109421D01*
X1254542Y3109905D01*
X1254680Y3110385D01*
X1254830Y3110862D01*
X1254992Y3111336D01*
X1255165Y3111805D01*
X1255349Y3112269D01*
X1255544Y3112729D01*
X1255751Y3113185D01*
X1255969Y3113635D01*
X1256197Y3114079D01*
X1256437Y3114518D01*
X1256687Y3114951D01*
X1256947Y3115378D01*
X1257218Y3115798D01*
X1257499Y3116212D01*
X1257790Y3116618D01*
X1258090Y3117018D01*
X1258401Y3117410D01*
X1258721Y3117794D01*
X1259050Y3118170D01*
X1259388Y3118539D01*
X1259735Y3118899D01*
X1260090Y3119250D01*
X1260454Y3119592D01*
X1260827Y3119926D01*
X1261207Y3120251D01*
X1261595Y3120566D01*
X1261991Y3120871D01*
X1262394Y3121167D01*
X1262804Y3121453D01*
X1263221Y3121729D01*
X1263645Y3121994D01*
X1264075Y3122250D01*
X1264510Y3122494D01*
X1264952Y3122728D01*
X1265400Y3122951D01*
X1265852Y3123164D01*
X1266310Y3123365D01*
X1266772Y3123555D01*
X1267239Y3123733D01*
X1267711Y3123900D01*
X1268186Y3124056D01*
X1268664Y3124200D01*
X1269147Y3124332D01*
X1269632Y3124453D01*
X1270120Y3124562D01*
X1270610Y3124659D01*
X1271103Y3124743D01*
X1271597Y3124816D01*
X1272094Y3124877D01*
X1272591Y3124925D01*
X1273090Y3124962D01*
X1273589Y3124986D01*
X1274089Y3124998D01*
X1274589Y3124998D01*
X1275089Y3124986D01*
X1275588Y3124962D01*
X1276087Y3124925D01*
X1276584Y3124877D01*
X1277081Y3124816D01*
X1277575Y3124743D01*
X1278068Y3124659D01*
X1278558Y3124562D01*
X1279046Y3124453D01*
X1279531Y3124332D01*
X1280014Y3124200D01*
X1280492Y3124056D01*
X1280967Y3123900D01*
X1281439Y3123733D01*
X1281906Y3123555D01*
X1282368Y3123365D01*
X1282826Y3123164D01*
X1283278Y3122951D01*
X1283726Y3122728D01*
X1284168Y3122494D01*
X1284604Y3122250D01*
X1285033Y3121994D01*
X1285457Y3121729D01*
X1285874Y3121453D01*
X1286284Y3121167D01*
X1286687Y3120871D01*
X1287083Y3120566D01*
X1287471Y3120251D01*
X1287851Y3119926D01*
X1288224Y3119592D01*
X1288588Y3119250D01*
X1288943Y3118899D01*
X1289290Y3118539D01*
X1289628Y3118170D01*
X1289957Y3117794D01*
X1290277Y3117410D01*
X1290588Y3117018D01*
X1290888Y3116618D01*
X1291179Y3116212D01*
X1291460Y3115798D01*
X1291731Y3115378D01*
X1291991Y3114951D01*
X1292241Y3114518D01*
X1292481Y3114079D01*
X1292709Y3113635D01*
X1292927Y3113185D01*
X1293134Y3112729D01*
X1293329Y3112269D01*
X1293513Y3111805D01*
X1293686Y3111336D01*
X1293848Y3110862D01*
X1293998Y3110385D01*
X1294136Y3109905D01*
X1294262Y3109421D01*
X1294377Y3108935D01*
X1294480Y3108445D01*
X1294570Y3107954D01*
X1294649Y3107460D01*
X1294716Y3106965D01*
X1294771Y3106468D01*
X1294813Y3105970D01*
X1294844Y3105471D01*
X1294862Y3104971D01*
X1294868Y3104471D01*
X1346190Y3159376D02*
X1253810Y3190169D01*
X1346190Y3220963D01*
X1323095Y3213264D02*
X1323095Y3167074D01*
X1346190Y3274169D02*
X1253810Y3274169D01*
X1253810Y3248508D02*
X1253810Y3299830D01*
X1544868Y3130132D02*
X1544868Y3114735D01*
X1544868Y3130132D02*
X1596190Y3130132D01*
X1596190Y3099339D01*
X1596184Y3098843D01*
X1596166Y3098347D01*
X1596136Y3097852D01*
X1596094Y3097358D01*
X1596040Y3096865D01*
X1595975Y3096373D01*
X1595897Y3095883D01*
X1595808Y3095395D01*
X1595706Y3094909D01*
X1595593Y3094426D01*
X1595469Y3093946D01*
X1595333Y3093469D01*
X1595185Y3092995D01*
X1595026Y3092525D01*
X1594856Y3092059D01*
X1594674Y3091598D01*
X1594482Y3091140D01*
X1594278Y3090688D01*
X1594064Y3090241D01*
X1593839Y3089799D01*
X1593603Y3089362D01*
X1593356Y3088932D01*
X1593100Y3088507D01*
X1592833Y3088089D01*
X1592556Y3087677D01*
X1592269Y3087272D01*
X1591973Y3086875D01*
X1591667Y3086484D01*
X1591352Y3086101D01*
X1591027Y3085726D01*
X1590694Y3085358D01*
X1590352Y3084999D01*
X1590001Y3084648D01*
X1589642Y3084306D01*
X1589274Y3083973D01*
X1588899Y3083648D01*
X1588516Y3083333D01*
X1588125Y3083027D01*
X1587728Y3082731D01*
X1587323Y3082444D01*
X1586911Y3082167D01*
X1586493Y3081900D01*
X1586068Y3081644D01*
X1585638Y3081397D01*
X1585201Y3081161D01*
X1584759Y3080936D01*
X1584312Y3080722D01*
X1583860Y3080518D01*
X1583402Y3080326D01*
X1582941Y3080144D01*
X1582475Y3079974D01*
X1582005Y3079815D01*
X1581531Y3079667D01*
X1581054Y3079531D01*
X1580574Y3079407D01*
X1580091Y3079294D01*
X1579605Y3079192D01*
X1579117Y3079103D01*
X1578627Y3079025D01*
X1578135Y3078960D01*
X1577642Y3078906D01*
X1577148Y3078864D01*
X1576653Y3078834D01*
X1576157Y3078816D01*
X1575661Y3078810D01*
X1524339Y3078810D01*
X1523835Y3078816D01*
X1523332Y3078835D01*
X1522829Y3078866D01*
X1522327Y3078909D01*
X1521826Y3078964D01*
X1521327Y3079032D01*
X1520829Y3079112D01*
X1520334Y3079204D01*
X1519841Y3079309D01*
X1519351Y3079425D01*
X1518864Y3079554D01*
X1518380Y3079694D01*
X1517900Y3079846D01*
X1517423Y3080010D01*
X1516951Y3080186D01*
X1516483Y3080373D01*
X1516020Y3080571D01*
X1515562Y3080781D01*
X1515109Y3081002D01*
X1514662Y3081234D01*
X1514220Y3081477D01*
X1513785Y3081731D01*
X1513356Y3081995D01*
X1512934Y3082270D01*
X1512518Y3082555D01*
X1512110Y3082850D01*
X1511709Y3083155D01*
X1511316Y3083470D01*
X1510930Y3083794D01*
X1510553Y3084128D01*
X1510184Y3084471D01*
X1509823Y3084823D01*
X1509471Y3085183D01*
X1509128Y3085552D01*
X1508794Y3085930D01*
X1508470Y3086315D01*
X1508155Y3086709D01*
X1507850Y3087110D01*
X1507555Y3087518D01*
X1507270Y3087933D01*
X1506995Y3088356D01*
X1506731Y3088785D01*
X1506477Y3089220D01*
X1506234Y3089661D01*
X1506002Y3090109D01*
X1505781Y3090561D01*
X1505571Y3091019D01*
X1505373Y3091482D01*
X1505186Y3091950D01*
X1505010Y3092423D01*
X1504846Y3092899D01*
X1504694Y3093379D01*
X1504554Y3093863D01*
X1504425Y3094350D01*
X1504309Y3094841D01*
X1504205Y3095333D01*
X1504112Y3095829D01*
X1504032Y3096326D01*
X1503964Y3096825D01*
X1503909Y3097326D01*
X1503866Y3097828D01*
X1503835Y3098331D01*
X1503816Y3098835D01*
X1503810Y3099338D01*
X1503810Y3099339D02*
X1503810Y3130132D01*
X1503810Y3174810D02*
X1596190Y3174810D01*
X1596190Y3226132D02*
X1503810Y3174810D01*
X1503810Y3226132D02*
X1596190Y3226132D01*
X1596190Y3270809D02*
X1503810Y3270809D01*
X1503810Y3296470D01*
X1503817Y3297090D01*
X1503840Y3297710D01*
X1503877Y3298329D01*
X1503930Y3298947D01*
X1503997Y3299563D01*
X1504079Y3300178D01*
X1504176Y3300790D01*
X1504288Y3301400D01*
X1504415Y3302007D01*
X1504556Y3302611D01*
X1504711Y3303211D01*
X1504881Y3303808D01*
X1505066Y3304400D01*
X1505265Y3304987D01*
X1505478Y3305570D01*
X1505704Y3306147D01*
X1505945Y3306718D01*
X1506200Y3307284D01*
X1506468Y3307843D01*
X1506749Y3308395D01*
X1507044Y3308941D01*
X1507352Y3309479D01*
X1507673Y3310010D01*
X1508006Y3310533D01*
X1508352Y3311047D01*
X1508711Y3311553D01*
X1509081Y3312050D01*
X1509464Y3312539D01*
X1509858Y3313017D01*
X1510263Y3313486D01*
X1510680Y3313946D01*
X1511108Y3314395D01*
X1511546Y3314833D01*
X1511995Y3315261D01*
X1512455Y3315678D01*
X1512924Y3316083D01*
X1513402Y3316477D01*
X1513891Y3316860D01*
X1514388Y3317230D01*
X1514894Y3317589D01*
X1515408Y3317935D01*
X1515931Y3318268D01*
X1516462Y3318589D01*
X1517000Y3318897D01*
X1517546Y3319192D01*
X1518098Y3319473D01*
X1518657Y3319741D01*
X1519223Y3319996D01*
X1519794Y3320237D01*
X1520371Y3320463D01*
X1520954Y3320676D01*
X1521541Y3320875D01*
X1522133Y3321060D01*
X1522730Y3321230D01*
X1523330Y3321385D01*
X1523934Y3321526D01*
X1524541Y3321653D01*
X1525151Y3321765D01*
X1525763Y3321862D01*
X1526378Y3321944D01*
X1526994Y3322011D01*
X1527612Y3322064D01*
X1528231Y3322101D01*
X1528851Y3322124D01*
X1529471Y3322131D01*
X1529471Y3322132D02*
X1570529Y3322132D01*
X1571149Y3322125D01*
X1571769Y3322102D01*
X1572388Y3322065D01*
X1573006Y3322012D01*
X1573622Y3321945D01*
X1574237Y3321863D01*
X1574849Y3321766D01*
X1575459Y3321654D01*
X1576066Y3321527D01*
X1576670Y3321386D01*
X1577270Y3321231D01*
X1577867Y3321061D01*
X1578459Y3320876D01*
X1579046Y3320677D01*
X1579629Y3320464D01*
X1580206Y3320238D01*
X1580777Y3319997D01*
X1581343Y3319742D01*
X1581902Y3319474D01*
X1582454Y3319193D01*
X1583000Y3318898D01*
X1583538Y3318590D01*
X1584069Y3318269D01*
X1584592Y3317936D01*
X1585106Y3317590D01*
X1585612Y3317231D01*
X1586110Y3316861D01*
X1586598Y3316478D01*
X1587076Y3316084D01*
X1587545Y3315678D01*
X1588005Y3315262D01*
X1588454Y3314834D01*
X1588892Y3314395D01*
X1589320Y3313946D01*
X1589737Y3313487D01*
X1590142Y3313018D01*
X1590536Y3312539D01*
X1590919Y3312051D01*
X1591289Y3311554D01*
X1591648Y3311048D01*
X1591994Y3310533D01*
X1592327Y3310011D01*
X1592648Y3309480D01*
X1592956Y3308942D01*
X1593251Y3308396D01*
X1593532Y3307844D01*
X1593800Y3307284D01*
X1594055Y3306719D01*
X1594296Y3306147D01*
X1594523Y3305570D01*
X1594735Y3304988D01*
X1594934Y3304400D01*
X1595119Y3303808D01*
X1595289Y3303212D01*
X1595444Y3302612D01*
X1595586Y3302008D01*
X1595712Y3301401D01*
X1595824Y3300791D01*
X1595921Y3300178D01*
X1596003Y3299564D01*
X1596070Y3298947D01*
X1596123Y3298329D01*
X1596160Y3297710D01*
X1596183Y3297091D01*
X1596190Y3296471D01*
X1596190Y3296470D02*
X1596190Y3270809D01*
X143534Y971190D02*
X143534Y878810D01*
X174328Y919868D02*
X143534Y971190D01*
X174328Y919868D02*
X205121Y971190D01*
X205121Y878810D01*
X269346Y899339D02*
X269346Y971190D01*
X269346Y899339D02*
X269340Y898843D01*
X269322Y898347D01*
X269292Y897852D01*
X269250Y897358D01*
X269196Y896865D01*
X269131Y896373D01*
X269053Y895883D01*
X268964Y895395D01*
X268862Y894909D01*
X268749Y894426D01*
X268625Y893946D01*
X268489Y893469D01*
X268341Y892995D01*
X268182Y892525D01*
X268012Y892059D01*
X267830Y891598D01*
X267638Y891140D01*
X267434Y890688D01*
X267220Y890241D01*
X266995Y889799D01*
X266759Y889362D01*
X266512Y888932D01*
X266256Y888507D01*
X265989Y888089D01*
X265712Y887677D01*
X265425Y887272D01*
X265129Y886875D01*
X264823Y886484D01*
X264508Y886101D01*
X264183Y885726D01*
X263850Y885358D01*
X263508Y884999D01*
X263157Y884648D01*
X262798Y884306D01*
X262430Y883973D01*
X262055Y883648D01*
X261672Y883333D01*
X261281Y883027D01*
X260884Y882731D01*
X260479Y882444D01*
X260067Y882167D01*
X259649Y881900D01*
X259224Y881644D01*
X258794Y881397D01*
X258357Y881161D01*
X257915Y880936D01*
X257468Y880722D01*
X257016Y880518D01*
X256558Y880326D01*
X256097Y880144D01*
X255631Y879974D01*
X255161Y879815D01*
X254687Y879667D01*
X254210Y879531D01*
X253730Y879407D01*
X253247Y879294D01*
X252761Y879192D01*
X252273Y879103D01*
X251783Y879025D01*
X251291Y878960D01*
X250798Y878906D01*
X250304Y878864D01*
X249809Y878834D01*
X249313Y878816D01*
X248817Y878810D01*
X238553Y878810D01*
X311534Y914735D02*
X373120Y914735D01*
X412666Y904471D02*
X412674Y905096D01*
X412696Y905720D01*
X412734Y906344D01*
X412788Y906967D01*
X412856Y907588D01*
X412939Y908207D01*
X413038Y908824D01*
X413151Y909439D01*
X413280Y910050D01*
X413423Y910659D01*
X413581Y911263D01*
X413754Y911864D01*
X413941Y912460D01*
X414143Y913052D01*
X414359Y913638D01*
X414590Y914219D01*
X414834Y914794D01*
X415092Y915363D01*
X415364Y915926D01*
X415650Y916481D01*
X415949Y917030D01*
X416262Y917571D01*
X416587Y918105D01*
X416926Y918630D01*
X417277Y919147D01*
X417641Y919655D01*
X418016Y920154D01*
X418404Y920644D01*
X418804Y921125D01*
X419215Y921595D01*
X419638Y922055D01*
X420072Y922505D01*
X420516Y922944D01*
X420971Y923373D01*
X421437Y923790D01*
X421912Y924195D01*
X422398Y924589D01*
X422892Y924971D01*
X423396Y925341D01*
X423909Y925698D01*
X424430Y926043D01*
X424959Y926375D01*
X425497Y926694D01*
X426041Y927000D01*
X426594Y927292D01*
X427153Y927571D01*
X427719Y927837D01*
X428291Y928088D01*
X428869Y928325D01*
X429453Y928549D01*
X430042Y928758D01*
X430635Y928952D01*
X431234Y929132D01*
X431836Y929298D01*
X432443Y929448D01*
X433053Y929584D01*
X433666Y929705D01*
X434282Y929811D01*
X434900Y929902D01*
X435520Y929978D01*
X436142Y930039D01*
X436766Y930084D01*
X437390Y930115D01*
X438015Y930130D01*
X438639Y930130D01*
X439264Y930115D01*
X439888Y930084D01*
X440512Y930039D01*
X441134Y929978D01*
X441754Y929902D01*
X442372Y929811D01*
X442988Y929705D01*
X443601Y929584D01*
X444211Y929448D01*
X444818Y929298D01*
X445420Y929132D01*
X446019Y928952D01*
X446612Y928758D01*
X447201Y928549D01*
X447785Y928325D01*
X448363Y928088D01*
X448935Y927837D01*
X449501Y927571D01*
X450060Y927292D01*
X450613Y927000D01*
X451158Y926694D01*
X451695Y926375D01*
X452224Y926043D01*
X452745Y925698D01*
X453258Y925341D01*
X453762Y924971D01*
X454256Y924589D01*
X454742Y924195D01*
X455217Y923790D01*
X455683Y923373D01*
X456138Y922944D01*
X456582Y922505D01*
X457016Y922055D01*
X457439Y921595D01*
X457850Y921125D01*
X458250Y920644D01*
X458638Y920154D01*
X459013Y919655D01*
X459377Y919147D01*
X459728Y918630D01*
X460067Y918105D01*
X460392Y917571D01*
X460705Y917030D01*
X461004Y916481D01*
X461290Y915926D01*
X461562Y915363D01*
X461820Y914794D01*
X462064Y914219D01*
X462295Y913638D01*
X462511Y913052D01*
X462713Y912460D01*
X462900Y911864D01*
X463073Y911263D01*
X463231Y910659D01*
X463374Y910050D01*
X463503Y909439D01*
X463616Y908824D01*
X463715Y908207D01*
X463798Y907588D01*
X463866Y906967D01*
X463920Y906344D01*
X463958Y905720D01*
X463980Y905096D01*
X463988Y904471D01*
X463980Y903846D01*
X463958Y903222D01*
X463920Y902598D01*
X463866Y901975D01*
X463798Y901354D01*
X463715Y900735D01*
X463616Y900118D01*
X463503Y899503D01*
X463374Y898892D01*
X463231Y898283D01*
X463073Y897679D01*
X462900Y897078D01*
X462713Y896482D01*
X462511Y895890D01*
X462295Y895304D01*
X462064Y894723D01*
X461820Y894148D01*
X461562Y893579D01*
X461290Y893016D01*
X461004Y892461D01*
X460705Y891912D01*
X460392Y891371D01*
X460067Y890837D01*
X459728Y890312D01*
X459377Y889795D01*
X459013Y889287D01*
X458638Y888788D01*
X458250Y888298D01*
X457850Y887817D01*
X457439Y887347D01*
X457016Y886887D01*
X456582Y886437D01*
X456138Y885998D01*
X455683Y885569D01*
X455217Y885152D01*
X454742Y884747D01*
X454256Y884353D01*
X453762Y883971D01*
X453258Y883601D01*
X452745Y883244D01*
X452224Y882899D01*
X451695Y882567D01*
X451158Y882248D01*
X450613Y881942D01*
X450060Y881650D01*
X449501Y881371D01*
X448935Y881105D01*
X448363Y880854D01*
X447785Y880617D01*
X447201Y880393D01*
X446612Y880184D01*
X446019Y879990D01*
X445420Y879810D01*
X444818Y879644D01*
X444211Y879494D01*
X443601Y879358D01*
X442988Y879237D01*
X442372Y879131D01*
X441754Y879040D01*
X441134Y878964D01*
X440512Y878903D01*
X439888Y878858D01*
X439264Y878827D01*
X438639Y878812D01*
X438015Y878812D01*
X437390Y878827D01*
X436766Y878858D01*
X436142Y878903D01*
X435520Y878964D01*
X434900Y879040D01*
X434282Y879131D01*
X433666Y879237D01*
X433053Y879358D01*
X432443Y879494D01*
X431836Y879644D01*
X431234Y879810D01*
X430635Y879990D01*
X430042Y880184D01*
X429453Y880393D01*
X428869Y880617D01*
X428291Y880854D01*
X427719Y881105D01*
X427153Y881371D01*
X426594Y881650D01*
X426041Y881942D01*
X425497Y882248D01*
X424959Y882567D01*
X424430Y882899D01*
X423909Y883244D01*
X423396Y883601D01*
X422892Y883971D01*
X422398Y884353D01*
X421912Y884747D01*
X421437Y885152D01*
X420971Y885569D01*
X420516Y885998D01*
X420072Y886437D01*
X419638Y886887D01*
X419215Y887347D01*
X418804Y887817D01*
X418404Y888298D01*
X418016Y888788D01*
X417641Y889287D01*
X417277Y889795D01*
X416926Y890312D01*
X416587Y890837D01*
X416262Y891371D01*
X415949Y891912D01*
X415650Y892461D01*
X415364Y893016D01*
X415092Y893579D01*
X414834Y894148D01*
X414590Y894723D01*
X414359Y895304D01*
X414143Y895890D01*
X413941Y896482D01*
X413754Y897078D01*
X413581Y897679D01*
X413423Y898283D01*
X413280Y898892D01*
X413151Y899503D01*
X413038Y900118D01*
X412939Y900735D01*
X412856Y901354D01*
X412788Y901975D01*
X412734Y902598D01*
X412696Y903222D01*
X412674Y903846D01*
X412666Y904471D01*
X417798Y950661D02*
X417804Y951161D01*
X417822Y951661D01*
X417853Y952160D01*
X417895Y952658D01*
X417950Y953155D01*
X418017Y953650D01*
X418096Y954144D01*
X418186Y954635D01*
X418289Y955125D01*
X418404Y955611D01*
X418530Y956095D01*
X418668Y956575D01*
X418818Y957052D01*
X418980Y957526D01*
X419153Y957995D01*
X419337Y958459D01*
X419532Y958919D01*
X419739Y959375D01*
X419957Y959825D01*
X420185Y960269D01*
X420425Y960708D01*
X420675Y961141D01*
X420935Y961568D01*
X421206Y961988D01*
X421487Y962402D01*
X421778Y962808D01*
X422078Y963208D01*
X422389Y963600D01*
X422709Y963984D01*
X423038Y964360D01*
X423376Y964729D01*
X423723Y965089D01*
X424078Y965440D01*
X424442Y965782D01*
X424815Y966116D01*
X425195Y966441D01*
X425583Y966756D01*
X425979Y967061D01*
X426382Y967357D01*
X426792Y967643D01*
X427209Y967919D01*
X427633Y968184D01*
X428063Y968440D01*
X428498Y968684D01*
X428940Y968918D01*
X429388Y969141D01*
X429840Y969354D01*
X430298Y969555D01*
X430760Y969745D01*
X431227Y969923D01*
X431699Y970090D01*
X432174Y970246D01*
X432652Y970390D01*
X433135Y970522D01*
X433620Y970643D01*
X434108Y970752D01*
X434598Y970849D01*
X435091Y970933D01*
X435585Y971006D01*
X436082Y971067D01*
X436579Y971115D01*
X437078Y971152D01*
X437577Y971176D01*
X438077Y971188D01*
X438577Y971188D01*
X439077Y971176D01*
X439576Y971152D01*
X440075Y971115D01*
X440572Y971067D01*
X441069Y971006D01*
X441563Y970933D01*
X442056Y970849D01*
X442546Y970752D01*
X443034Y970643D01*
X443519Y970522D01*
X444002Y970390D01*
X444480Y970246D01*
X444955Y970090D01*
X445427Y969923D01*
X445894Y969745D01*
X446356Y969555D01*
X446814Y969354D01*
X447266Y969141D01*
X447714Y968918D01*
X448156Y968684D01*
X448592Y968440D01*
X449021Y968184D01*
X449445Y967919D01*
X449862Y967643D01*
X450272Y967357D01*
X450675Y967061D01*
X451071Y966756D01*
X451459Y966441D01*
X451839Y966116D01*
X452212Y965782D01*
X452576Y965440D01*
X452931Y965089D01*
X453278Y964729D01*
X453616Y964360D01*
X453945Y963984D01*
X454265Y963600D01*
X454576Y963208D01*
X454876Y962808D01*
X455167Y962402D01*
X455448Y961988D01*
X455719Y961568D01*
X455979Y961141D01*
X456229Y960708D01*
X456469Y960269D01*
X456697Y959825D01*
X456915Y959375D01*
X457122Y958919D01*
X457317Y958459D01*
X457501Y957995D01*
X457674Y957526D01*
X457836Y957052D01*
X457986Y956575D01*
X458124Y956095D01*
X458250Y955611D01*
X458365Y955125D01*
X458468Y954635D01*
X458558Y954144D01*
X458637Y953650D01*
X458704Y953155D01*
X458759Y952658D01*
X458801Y952160D01*
X458832Y951661D01*
X458850Y951161D01*
X458856Y950661D01*
X458850Y950161D01*
X458832Y949661D01*
X458801Y949162D01*
X458759Y948664D01*
X458704Y948167D01*
X458637Y947672D01*
X458558Y947178D01*
X458468Y946687D01*
X458365Y946197D01*
X458250Y945711D01*
X458124Y945227D01*
X457986Y944747D01*
X457836Y944270D01*
X457674Y943796D01*
X457501Y943327D01*
X457317Y942863D01*
X457122Y942403D01*
X456915Y941947D01*
X456697Y941497D01*
X456469Y941053D01*
X456229Y940614D01*
X455979Y940181D01*
X455719Y939754D01*
X455448Y939334D01*
X455167Y938920D01*
X454876Y938514D01*
X454576Y938114D01*
X454265Y937722D01*
X453945Y937338D01*
X453616Y936962D01*
X453278Y936593D01*
X452931Y936233D01*
X452576Y935882D01*
X452212Y935540D01*
X451839Y935206D01*
X451459Y934881D01*
X451071Y934566D01*
X450675Y934261D01*
X450272Y933965D01*
X449862Y933679D01*
X449445Y933403D01*
X449021Y933138D01*
X448592Y932882D01*
X448156Y932638D01*
X447714Y932404D01*
X447266Y932181D01*
X446814Y931968D01*
X446356Y931767D01*
X445894Y931577D01*
X445427Y931399D01*
X444955Y931232D01*
X444480Y931076D01*
X444002Y930932D01*
X443519Y930800D01*
X443034Y930679D01*
X442546Y930570D01*
X442056Y930473D01*
X441563Y930389D01*
X441069Y930316D01*
X440572Y930255D01*
X440075Y930207D01*
X439576Y930170D01*
X439077Y930146D01*
X438577Y930134D01*
X438077Y930134D01*
X437577Y930146D01*
X437078Y930170D01*
X436579Y930207D01*
X436082Y930255D01*
X435585Y930316D01*
X435091Y930389D01*
X434598Y930473D01*
X434108Y930570D01*
X433620Y930679D01*
X433135Y930800D01*
X432652Y930932D01*
X432174Y931076D01*
X431699Y931232D01*
X431227Y931399D01*
X430760Y931577D01*
X430298Y931767D01*
X429840Y931968D01*
X429388Y932181D01*
X428940Y932404D01*
X428498Y932638D01*
X428063Y932882D01*
X427633Y933138D01*
X427209Y933403D01*
X426792Y933679D01*
X426382Y933965D01*
X425979Y934261D01*
X425583Y934566D01*
X425195Y934881D01*
X424815Y935206D01*
X424442Y935540D01*
X424078Y935882D01*
X423723Y936233D01*
X423376Y936593D01*
X423038Y936962D01*
X422709Y937338D01*
X422389Y937722D01*
X422078Y938114D01*
X421778Y938514D01*
X421487Y938920D01*
X421206Y939334D01*
X420935Y939754D01*
X420675Y940181D01*
X420425Y940614D01*
X420185Y941053D01*
X419957Y941497D01*
X419739Y941947D01*
X419532Y942403D01*
X419337Y942863D01*
X419153Y943327D01*
X418980Y943796D01*
X418818Y944270D01*
X418668Y944747D01*
X418530Y945227D01*
X418404Y945711D01*
X418289Y946197D01*
X418186Y946687D01*
X418096Y947178D01*
X418017Y947672D01*
X417950Y948167D01*
X417895Y948664D01*
X417853Y949162D01*
X417822Y949661D01*
X417804Y950161D01*
X417798Y950661D01*
X502666Y925000D02*
X502688Y926817D01*
X502753Y928633D01*
X502861Y930448D01*
X503013Y932259D01*
X503208Y934066D01*
X503446Y935867D01*
X503727Y937663D01*
X504050Y939451D01*
X504416Y941231D01*
X504825Y943002D01*
X505276Y944763D01*
X505769Y946512D01*
X506303Y948249D01*
X506879Y949973D01*
X507495Y951683D01*
X508152Y953377D01*
X508850Y955055D01*
X509587Y956716D01*
X510364Y958359D01*
X510363Y958360D02*
X510519Y958795D01*
X510684Y959226D01*
X510860Y959653D01*
X511047Y960075D01*
X511243Y960493D01*
X511450Y960906D01*
X511667Y961314D01*
X511893Y961717D01*
X512130Y962114D01*
X512375Y962505D01*
X512631Y962889D01*
X512895Y963268D01*
X513169Y963640D01*
X513452Y964005D01*
X513743Y964364D01*
X514043Y964715D01*
X514352Y965058D01*
X514669Y965394D01*
X514994Y965723D01*
X515327Y966043D01*
X515667Y966355D01*
X516015Y966659D01*
X516370Y966954D01*
X516733Y967240D01*
X517102Y967518D01*
X517478Y967786D01*
X517860Y968045D01*
X518248Y968295D01*
X518643Y968536D01*
X519043Y968766D01*
X519449Y968987D01*
X519859Y969198D01*
X520275Y969399D01*
X520696Y969590D01*
X521121Y969770D01*
X521551Y969940D01*
X521984Y970100D01*
X522421Y970249D01*
X522862Y970387D01*
X523306Y970514D01*
X523753Y970631D01*
X524202Y970737D01*
X524654Y970832D01*
X525108Y970915D01*
X525565Y970988D01*
X526022Y971050D01*
X526481Y971100D01*
X526942Y971139D01*
X527403Y971168D01*
X527864Y971184D01*
X528326Y971190D01*
X528788Y971184D01*
X529249Y971168D01*
X529710Y971139D01*
X530171Y971100D01*
X530630Y971050D01*
X531087Y970988D01*
X531544Y970915D01*
X531998Y970832D01*
X532450Y970737D01*
X532899Y970631D01*
X533346Y970514D01*
X533790Y970387D01*
X534231Y970249D01*
X534668Y970100D01*
X535102Y969940D01*
X535531Y969770D01*
X535956Y969590D01*
X536377Y969399D01*
X536793Y969198D01*
X537204Y968987D01*
X537609Y968766D01*
X538009Y968535D01*
X538404Y968295D01*
X538792Y968045D01*
X539174Y967786D01*
X539550Y967518D01*
X539920Y967240D01*
X540282Y966954D01*
X540637Y966658D01*
X540985Y966355D01*
X541326Y966043D01*
X541658Y965722D01*
X541983Y965394D01*
X542300Y965058D01*
X542609Y964714D01*
X542909Y964363D01*
X543200Y964005D01*
X543483Y963640D01*
X543757Y963268D01*
X544021Y962889D01*
X544277Y962504D01*
X544523Y962113D01*
X544759Y961716D01*
X544985Y961314D01*
X545202Y960906D01*
X545409Y960493D01*
X545605Y960075D01*
X545792Y959653D01*
X545968Y959226D01*
X546134Y958794D01*
X546289Y958359D01*
X546290Y958359D02*
X547066Y956716D01*
X547804Y955055D01*
X548501Y953377D01*
X549159Y951683D01*
X549775Y949973D01*
X550351Y948249D01*
X550885Y946512D01*
X551378Y944763D01*
X551829Y943002D01*
X552237Y941231D01*
X552604Y939451D01*
X552927Y937663D01*
X553208Y935867D01*
X553446Y934066D01*
X553641Y932259D01*
X553793Y930448D01*
X553901Y928634D01*
X553966Y926817D01*
X553988Y925000D01*
X502665Y925000D02*
X502687Y923183D01*
X502752Y921366D01*
X502860Y919552D01*
X503012Y917741D01*
X503207Y915934D01*
X503445Y914132D01*
X503726Y912337D01*
X504049Y910548D01*
X504415Y908768D01*
X504824Y906997D01*
X505275Y905237D01*
X505768Y903487D01*
X506302Y901750D01*
X506878Y900027D01*
X507494Y898317D01*
X508151Y896622D01*
X508849Y894944D01*
X509586Y893283D01*
X510363Y891640D01*
X510364Y891640D02*
X510519Y891205D01*
X510684Y890774D01*
X510860Y890347D01*
X511047Y889924D01*
X511243Y889506D01*
X511450Y889093D01*
X511667Y888686D01*
X511893Y888283D01*
X512130Y887886D01*
X512376Y887495D01*
X512631Y887110D01*
X512896Y886732D01*
X513169Y886360D01*
X513452Y885995D01*
X513743Y885636D01*
X514044Y885285D01*
X514352Y884942D01*
X514669Y884606D01*
X514994Y884277D01*
X515327Y883957D01*
X515667Y883645D01*
X516015Y883341D01*
X516370Y883046D01*
X516733Y882760D01*
X517102Y882482D01*
X517478Y882214D01*
X517860Y881955D01*
X518248Y881705D01*
X518643Y881464D01*
X519043Y881234D01*
X519449Y881013D01*
X519859Y880802D01*
X520275Y880601D01*
X520696Y880410D01*
X521121Y880230D01*
X521551Y880060D01*
X521984Y879900D01*
X522421Y879751D01*
X522862Y879613D01*
X523306Y879486D01*
X523753Y879369D01*
X524202Y879263D01*
X524654Y879168D01*
X525108Y879085D01*
X525565Y879012D01*
X526022Y878950D01*
X526481Y878900D01*
X526942Y878861D01*
X527403Y878832D01*
X527864Y878816D01*
X528326Y878810D01*
X546289Y891640D02*
X547065Y893283D01*
X547803Y894944D01*
X548500Y896623D01*
X549158Y898317D01*
X549774Y900027D01*
X550350Y901751D01*
X550884Y903488D01*
X551377Y905237D01*
X551828Y906998D01*
X552236Y908768D01*
X552603Y910549D01*
X552926Y912337D01*
X553207Y914132D01*
X553445Y915934D01*
X553640Y917741D01*
X553792Y919552D01*
X553900Y921366D01*
X553965Y923183D01*
X553987Y925000D01*
X546289Y891640D02*
X546133Y891205D01*
X545968Y890774D01*
X545792Y890347D01*
X545605Y889925D01*
X545409Y889507D01*
X545202Y889094D01*
X544985Y888686D01*
X544759Y888283D01*
X544522Y887886D01*
X544277Y887495D01*
X544021Y887111D01*
X543757Y886732D01*
X543483Y886360D01*
X543200Y885995D01*
X542909Y885636D01*
X542609Y885285D01*
X542300Y884942D01*
X541983Y884606D01*
X541658Y884277D01*
X541325Y883957D01*
X540985Y883645D01*
X540637Y883341D01*
X540282Y883046D01*
X539919Y882760D01*
X539550Y882482D01*
X539174Y882214D01*
X538792Y881955D01*
X538404Y881705D01*
X538009Y881464D01*
X537609Y881234D01*
X537203Y881013D01*
X536793Y880802D01*
X536377Y880601D01*
X535956Y880410D01*
X535531Y880230D01*
X535101Y880060D01*
X534668Y879900D01*
X534231Y879751D01*
X533790Y879613D01*
X533346Y879486D01*
X532899Y879369D01*
X532450Y879263D01*
X531998Y879168D01*
X531544Y879085D01*
X531087Y879012D01*
X530630Y878950D01*
X530171Y878900D01*
X529710Y878861D01*
X529249Y878832D01*
X528788Y878816D01*
X528326Y878810D01*
X507798Y899339D02*
X548855Y950661D01*
X592665Y904471D02*
X592673Y905096D01*
X592695Y905720D01*
X592733Y906344D01*
X592787Y906967D01*
X592855Y907588D01*
X592938Y908207D01*
X593037Y908824D01*
X593150Y909439D01*
X593279Y910050D01*
X593422Y910659D01*
X593580Y911263D01*
X593753Y911864D01*
X593940Y912460D01*
X594142Y913052D01*
X594358Y913638D01*
X594589Y914219D01*
X594833Y914794D01*
X595091Y915363D01*
X595363Y915926D01*
X595649Y916481D01*
X595948Y917030D01*
X596261Y917571D01*
X596586Y918105D01*
X596925Y918630D01*
X597276Y919147D01*
X597640Y919655D01*
X598015Y920154D01*
X598403Y920644D01*
X598803Y921125D01*
X599214Y921595D01*
X599637Y922055D01*
X600071Y922505D01*
X600515Y922944D01*
X600970Y923373D01*
X601436Y923790D01*
X601911Y924195D01*
X602397Y924589D01*
X602891Y924971D01*
X603395Y925341D01*
X603908Y925698D01*
X604429Y926043D01*
X604958Y926375D01*
X605496Y926694D01*
X606040Y927000D01*
X606593Y927292D01*
X607152Y927571D01*
X607718Y927837D01*
X608290Y928088D01*
X608868Y928325D01*
X609452Y928549D01*
X610041Y928758D01*
X610634Y928952D01*
X611233Y929132D01*
X611835Y929298D01*
X612442Y929448D01*
X613052Y929584D01*
X613665Y929705D01*
X614281Y929811D01*
X614899Y929902D01*
X615519Y929978D01*
X616141Y930039D01*
X616765Y930084D01*
X617389Y930115D01*
X618014Y930130D01*
X618638Y930130D01*
X619263Y930115D01*
X619887Y930084D01*
X620511Y930039D01*
X621133Y929978D01*
X621753Y929902D01*
X622371Y929811D01*
X622987Y929705D01*
X623600Y929584D01*
X624210Y929448D01*
X624817Y929298D01*
X625419Y929132D01*
X626018Y928952D01*
X626611Y928758D01*
X627200Y928549D01*
X627784Y928325D01*
X628362Y928088D01*
X628934Y927837D01*
X629500Y927571D01*
X630059Y927292D01*
X630612Y927000D01*
X631157Y926694D01*
X631694Y926375D01*
X632223Y926043D01*
X632744Y925698D01*
X633257Y925341D01*
X633761Y924971D01*
X634255Y924589D01*
X634741Y924195D01*
X635216Y923790D01*
X635682Y923373D01*
X636137Y922944D01*
X636581Y922505D01*
X637015Y922055D01*
X637438Y921595D01*
X637849Y921125D01*
X638249Y920644D01*
X638637Y920154D01*
X639012Y919655D01*
X639376Y919147D01*
X639727Y918630D01*
X640066Y918105D01*
X640391Y917571D01*
X640704Y917030D01*
X641003Y916481D01*
X641289Y915926D01*
X641561Y915363D01*
X641819Y914794D01*
X642063Y914219D01*
X642294Y913638D01*
X642510Y913052D01*
X642712Y912460D01*
X642899Y911864D01*
X643072Y911263D01*
X643230Y910659D01*
X643373Y910050D01*
X643502Y909439D01*
X643615Y908824D01*
X643714Y908207D01*
X643797Y907588D01*
X643865Y906967D01*
X643919Y906344D01*
X643957Y905720D01*
X643979Y905096D01*
X643987Y904471D01*
X643979Y903846D01*
X643957Y903222D01*
X643919Y902598D01*
X643865Y901975D01*
X643797Y901354D01*
X643714Y900735D01*
X643615Y900118D01*
X643502Y899503D01*
X643373Y898892D01*
X643230Y898283D01*
X643072Y897679D01*
X642899Y897078D01*
X642712Y896482D01*
X642510Y895890D01*
X642294Y895304D01*
X642063Y894723D01*
X641819Y894148D01*
X641561Y893579D01*
X641289Y893016D01*
X641003Y892461D01*
X640704Y891912D01*
X640391Y891371D01*
X640066Y890837D01*
X639727Y890312D01*
X639376Y889795D01*
X639012Y889287D01*
X638637Y888788D01*
X638249Y888298D01*
X637849Y887817D01*
X637438Y887347D01*
X637015Y886887D01*
X636581Y886437D01*
X636137Y885998D01*
X635682Y885569D01*
X635216Y885152D01*
X634741Y884747D01*
X634255Y884353D01*
X633761Y883971D01*
X633257Y883601D01*
X632744Y883244D01*
X632223Y882899D01*
X631694Y882567D01*
X631157Y882248D01*
X630612Y881942D01*
X630059Y881650D01*
X629500Y881371D01*
X628934Y881105D01*
X628362Y880854D01*
X627784Y880617D01*
X627200Y880393D01*
X626611Y880184D01*
X626018Y879990D01*
X625419Y879810D01*
X624817Y879644D01*
X624210Y879494D01*
X623600Y879358D01*
X622987Y879237D01*
X622371Y879131D01*
X621753Y879040D01*
X621133Y878964D01*
X620511Y878903D01*
X619887Y878858D01*
X619263Y878827D01*
X618638Y878812D01*
X618014Y878812D01*
X617389Y878827D01*
X616765Y878858D01*
X616141Y878903D01*
X615519Y878964D01*
X614899Y879040D01*
X614281Y879131D01*
X613665Y879237D01*
X613052Y879358D01*
X612442Y879494D01*
X611835Y879644D01*
X611233Y879810D01*
X610634Y879990D01*
X610041Y880184D01*
X609452Y880393D01*
X608868Y880617D01*
X608290Y880854D01*
X607718Y881105D01*
X607152Y881371D01*
X606593Y881650D01*
X606040Y881942D01*
X605496Y882248D01*
X604958Y882567D01*
X604429Y882899D01*
X603908Y883244D01*
X603395Y883601D01*
X602891Y883971D01*
X602397Y884353D01*
X601911Y884747D01*
X601436Y885152D01*
X600970Y885569D01*
X600515Y885998D01*
X600071Y886437D01*
X599637Y886887D01*
X599214Y887347D01*
X598803Y887817D01*
X598403Y888298D01*
X598015Y888788D01*
X597640Y889287D01*
X597276Y889795D01*
X596925Y890312D01*
X596586Y890837D01*
X596261Y891371D01*
X595948Y891912D01*
X595649Y892461D01*
X595363Y893016D01*
X595091Y893579D01*
X594833Y894148D01*
X594589Y894723D01*
X594358Y895304D01*
X594142Y895890D01*
X593940Y896482D01*
X593753Y897078D01*
X593580Y897679D01*
X593422Y898283D01*
X593279Y898892D01*
X593150Y899503D01*
X593037Y900118D01*
X592938Y900735D01*
X592855Y901354D01*
X592787Y901975D01*
X592733Y902598D01*
X592695Y903222D01*
X592673Y903846D01*
X592665Y904471D01*
X597797Y950661D02*
X597803Y951161D01*
X597821Y951661D01*
X597852Y952160D01*
X597894Y952658D01*
X597949Y953155D01*
X598016Y953650D01*
X598095Y954144D01*
X598185Y954635D01*
X598288Y955125D01*
X598403Y955611D01*
X598529Y956095D01*
X598667Y956575D01*
X598817Y957052D01*
X598979Y957526D01*
X599152Y957995D01*
X599336Y958459D01*
X599531Y958919D01*
X599738Y959375D01*
X599956Y959825D01*
X600184Y960269D01*
X600424Y960708D01*
X600674Y961141D01*
X600934Y961568D01*
X601205Y961988D01*
X601486Y962402D01*
X601777Y962808D01*
X602077Y963208D01*
X602388Y963600D01*
X602708Y963984D01*
X603037Y964360D01*
X603375Y964729D01*
X603722Y965089D01*
X604077Y965440D01*
X604441Y965782D01*
X604814Y966116D01*
X605194Y966441D01*
X605582Y966756D01*
X605978Y967061D01*
X606381Y967357D01*
X606791Y967643D01*
X607208Y967919D01*
X607632Y968184D01*
X608062Y968440D01*
X608497Y968684D01*
X608939Y968918D01*
X609387Y969141D01*
X609839Y969354D01*
X610297Y969555D01*
X610759Y969745D01*
X611226Y969923D01*
X611698Y970090D01*
X612173Y970246D01*
X612651Y970390D01*
X613134Y970522D01*
X613619Y970643D01*
X614107Y970752D01*
X614597Y970849D01*
X615090Y970933D01*
X615584Y971006D01*
X616081Y971067D01*
X616578Y971115D01*
X617077Y971152D01*
X617576Y971176D01*
X618076Y971188D01*
X618576Y971188D01*
X619076Y971176D01*
X619575Y971152D01*
X620074Y971115D01*
X620571Y971067D01*
X621068Y971006D01*
X621562Y970933D01*
X622055Y970849D01*
X622545Y970752D01*
X623033Y970643D01*
X623518Y970522D01*
X624001Y970390D01*
X624479Y970246D01*
X624954Y970090D01*
X625426Y969923D01*
X625893Y969745D01*
X626355Y969555D01*
X626813Y969354D01*
X627265Y969141D01*
X627713Y968918D01*
X628155Y968684D01*
X628591Y968440D01*
X629020Y968184D01*
X629444Y967919D01*
X629861Y967643D01*
X630271Y967357D01*
X630674Y967061D01*
X631070Y966756D01*
X631458Y966441D01*
X631838Y966116D01*
X632211Y965782D01*
X632575Y965440D01*
X632930Y965089D01*
X633277Y964729D01*
X633615Y964360D01*
X633944Y963984D01*
X634264Y963600D01*
X634575Y963208D01*
X634875Y962808D01*
X635166Y962402D01*
X635447Y961988D01*
X635718Y961568D01*
X635978Y961141D01*
X636228Y960708D01*
X636468Y960269D01*
X636696Y959825D01*
X636914Y959375D01*
X637121Y958919D01*
X637316Y958459D01*
X637500Y957995D01*
X637673Y957526D01*
X637835Y957052D01*
X637985Y956575D01*
X638123Y956095D01*
X638249Y955611D01*
X638364Y955125D01*
X638467Y954635D01*
X638557Y954144D01*
X638636Y953650D01*
X638703Y953155D01*
X638758Y952658D01*
X638800Y952160D01*
X638831Y951661D01*
X638849Y951161D01*
X638855Y950661D01*
X638849Y950161D01*
X638831Y949661D01*
X638800Y949162D01*
X638758Y948664D01*
X638703Y948167D01*
X638636Y947672D01*
X638557Y947178D01*
X638467Y946687D01*
X638364Y946197D01*
X638249Y945711D01*
X638123Y945227D01*
X637985Y944747D01*
X637835Y944270D01*
X637673Y943796D01*
X637500Y943327D01*
X637316Y942863D01*
X637121Y942403D01*
X636914Y941947D01*
X636696Y941497D01*
X636468Y941053D01*
X636228Y940614D01*
X635978Y940181D01*
X635718Y939754D01*
X635447Y939334D01*
X635166Y938920D01*
X634875Y938514D01*
X634575Y938114D01*
X634264Y937722D01*
X633944Y937338D01*
X633615Y936962D01*
X633277Y936593D01*
X632930Y936233D01*
X632575Y935882D01*
X632211Y935540D01*
X631838Y935206D01*
X631458Y934881D01*
X631070Y934566D01*
X630674Y934261D01*
X630271Y933965D01*
X629861Y933679D01*
X629444Y933403D01*
X629020Y933138D01*
X628591Y932882D01*
X628155Y932638D01*
X627713Y932404D01*
X627265Y932181D01*
X626813Y931968D01*
X626355Y931767D01*
X625893Y931577D01*
X625426Y931399D01*
X624954Y931232D01*
X624479Y931076D01*
X624001Y930932D01*
X623518Y930800D01*
X623033Y930679D01*
X622545Y930570D01*
X622055Y930473D01*
X621562Y930389D01*
X621068Y930316D01*
X620571Y930255D01*
X620074Y930207D01*
X619575Y930170D01*
X619076Y930146D01*
X618576Y930134D01*
X618076Y930134D01*
X617576Y930146D01*
X617077Y930170D01*
X616578Y930207D01*
X616081Y930255D01*
X615584Y930316D01*
X615090Y930389D01*
X614597Y930473D01*
X614107Y930570D01*
X613619Y930679D01*
X613134Y930800D01*
X612651Y930932D01*
X612173Y931076D01*
X611698Y931232D01*
X611226Y931399D01*
X610759Y931577D01*
X610297Y931767D01*
X609839Y931968D01*
X609387Y932181D01*
X608939Y932404D01*
X608497Y932638D01*
X608062Y932882D01*
X607632Y933138D01*
X607208Y933403D01*
X606791Y933679D01*
X606381Y933965D01*
X605978Y934261D01*
X605582Y934566D01*
X605194Y934881D01*
X604814Y935206D01*
X604441Y935540D01*
X604077Y935882D01*
X603722Y936233D01*
X603375Y936593D01*
X603037Y936962D01*
X602708Y937338D01*
X602388Y937722D01*
X602077Y938114D01*
X601777Y938514D01*
X601486Y938920D01*
X601205Y939334D01*
X600934Y939754D01*
X600674Y940181D01*
X600424Y940614D01*
X600184Y941053D01*
X599956Y941497D01*
X599738Y941947D01*
X599531Y942403D01*
X599336Y942863D01*
X599152Y943327D01*
X598979Y943796D01*
X598817Y944270D01*
X598667Y944747D01*
X598529Y945227D01*
X598403Y945711D01*
X598288Y946197D01*
X598185Y946687D01*
X598095Y947178D01*
X598016Y947672D01*
X597949Y948167D01*
X597894Y948664D01*
X597852Y949162D01*
X597821Y949661D01*
X597803Y950161D01*
X597797Y950661D01*
X745296Y878810D02*
X765824Y878810D01*
X745296Y878810D02*
X744924Y878814D01*
X744552Y878828D01*
X744181Y878850D01*
X743810Y878882D01*
X743440Y878922D01*
X743071Y878972D01*
X742704Y879030D01*
X742338Y879097D01*
X741974Y879173D01*
X741611Y879257D01*
X741251Y879351D01*
X740893Y879453D01*
X740538Y879564D01*
X740186Y879683D01*
X739836Y879811D01*
X739490Y879947D01*
X739147Y880091D01*
X738808Y880244D01*
X738472Y880405D01*
X738141Y880574D01*
X737813Y880751D01*
X737490Y880935D01*
X737172Y881128D01*
X736858Y881328D01*
X736550Y881536D01*
X736246Y881751D01*
X735948Y881973D01*
X735655Y882202D01*
X735367Y882439D01*
X735086Y882682D01*
X734810Y882932D01*
X734541Y883189D01*
X734278Y883452D01*
X734021Y883721D01*
X733771Y883997D01*
X733528Y884278D01*
X733291Y884566D01*
X733062Y884859D01*
X732840Y885157D01*
X732625Y885461D01*
X732417Y885769D01*
X732217Y886083D01*
X732024Y886401D01*
X731840Y886724D01*
X731663Y887052D01*
X731494Y887383D01*
X731333Y887719D01*
X731180Y888058D01*
X731036Y888401D01*
X730900Y888747D01*
X730772Y889097D01*
X730653Y889449D01*
X730542Y889804D01*
X730440Y890162D01*
X730346Y890522D01*
X730262Y890885D01*
X730186Y891249D01*
X730119Y891615D01*
X730061Y891982D01*
X730011Y892351D01*
X729971Y892721D01*
X729939Y893092D01*
X729917Y893463D01*
X729903Y893835D01*
X729899Y894207D01*
X729899Y925000D01*
X729903Y925372D01*
X729917Y925744D01*
X729939Y926115D01*
X729971Y926486D01*
X730011Y926856D01*
X730061Y927225D01*
X730119Y927592D01*
X730186Y927958D01*
X730262Y928322D01*
X730346Y928685D01*
X730440Y929045D01*
X730542Y929402D01*
X730653Y929758D01*
X730772Y930110D01*
X730900Y930460D01*
X731036Y930806D01*
X731180Y931149D01*
X731333Y931488D01*
X731494Y931823D01*
X731663Y932155D01*
X731839Y932482D01*
X732024Y932805D01*
X732217Y933124D01*
X732417Y933437D01*
X732624Y933746D01*
X732839Y934050D01*
X733062Y934348D01*
X733291Y934641D01*
X733528Y934928D01*
X733771Y935210D01*
X734021Y935485D01*
X734278Y935754D01*
X734541Y936017D01*
X734810Y936274D01*
X735086Y936524D01*
X735367Y936768D01*
X735654Y937004D01*
X735947Y937233D01*
X736246Y937456D01*
X736549Y937671D01*
X736858Y937878D01*
X737172Y938079D01*
X737490Y938271D01*
X737813Y938456D01*
X738140Y938633D01*
X738472Y938801D01*
X738807Y938962D01*
X739147Y939115D01*
X739489Y939259D01*
X739836Y939396D01*
X740185Y939523D01*
X740538Y939643D01*
X740893Y939753D01*
X741251Y939855D01*
X741611Y939949D01*
X741973Y940033D01*
X742337Y940109D01*
X742703Y940176D01*
X743071Y940234D01*
X743440Y940284D01*
X743809Y940324D01*
X744180Y940356D01*
X744551Y940378D01*
X744923Y940392D01*
X745295Y940396D01*
X745296Y940397D02*
X765824Y940397D01*
X800018Y971190D02*
X800018Y894207D01*
X800017Y894207D02*
X800021Y893835D01*
X800035Y893463D01*
X800057Y893092D01*
X800089Y892721D01*
X800129Y892351D01*
X800179Y891982D01*
X800237Y891615D01*
X800304Y891249D01*
X800380Y890885D01*
X800464Y890522D01*
X800558Y890162D01*
X800660Y889804D01*
X800771Y889449D01*
X800890Y889097D01*
X801018Y888747D01*
X801154Y888401D01*
X801298Y888058D01*
X801451Y887719D01*
X801612Y887383D01*
X801781Y887052D01*
X801958Y886724D01*
X802142Y886401D01*
X802335Y886083D01*
X802535Y885769D01*
X802743Y885461D01*
X802958Y885157D01*
X803180Y884859D01*
X803409Y884566D01*
X803646Y884278D01*
X803889Y883997D01*
X804139Y883721D01*
X804396Y883452D01*
X804659Y883189D01*
X804928Y882932D01*
X805204Y882682D01*
X805485Y882439D01*
X805773Y882202D01*
X806066Y881973D01*
X806364Y881751D01*
X806668Y881536D01*
X806976Y881328D01*
X807290Y881128D01*
X807608Y880935D01*
X807931Y880751D01*
X808259Y880574D01*
X808590Y880405D01*
X808926Y880244D01*
X809265Y880091D01*
X809608Y879947D01*
X809954Y879811D01*
X810304Y879683D01*
X810656Y879564D01*
X811011Y879453D01*
X811369Y879351D01*
X811729Y879257D01*
X812092Y879173D01*
X812456Y879097D01*
X812822Y879030D01*
X813189Y878972D01*
X813558Y878922D01*
X813928Y878882D01*
X814299Y878850D01*
X814670Y878828D01*
X815042Y878814D01*
X815414Y878810D01*
X846797Y899339D02*
X846797Y919868D01*
X846796Y919868D02*
X846802Y920368D01*
X846820Y920868D01*
X846851Y921367D01*
X846893Y921865D01*
X846948Y922362D01*
X847015Y922857D01*
X847094Y923351D01*
X847184Y923842D01*
X847287Y924332D01*
X847402Y924818D01*
X847528Y925302D01*
X847666Y925782D01*
X847816Y926259D01*
X847978Y926733D01*
X848151Y927202D01*
X848335Y927666D01*
X848530Y928126D01*
X848737Y928582D01*
X848955Y929032D01*
X849183Y929476D01*
X849423Y929915D01*
X849673Y930348D01*
X849933Y930775D01*
X850204Y931195D01*
X850485Y931609D01*
X850776Y932015D01*
X851076Y932415D01*
X851387Y932807D01*
X851707Y933191D01*
X852036Y933567D01*
X852374Y933936D01*
X852721Y934296D01*
X853076Y934647D01*
X853440Y934989D01*
X853813Y935323D01*
X854193Y935648D01*
X854581Y935963D01*
X854977Y936268D01*
X855380Y936564D01*
X855790Y936850D01*
X856207Y937126D01*
X856631Y937391D01*
X857061Y937647D01*
X857496Y937891D01*
X857938Y938125D01*
X858386Y938348D01*
X858838Y938561D01*
X859296Y938762D01*
X859758Y938952D01*
X860225Y939130D01*
X860697Y939297D01*
X861172Y939453D01*
X861650Y939597D01*
X862133Y939729D01*
X862618Y939850D01*
X863106Y939959D01*
X863596Y940056D01*
X864089Y940140D01*
X864583Y940213D01*
X865080Y940274D01*
X865577Y940322D01*
X866076Y940359D01*
X866575Y940383D01*
X867075Y940395D01*
X867575Y940395D01*
X868075Y940383D01*
X868574Y940359D01*
X869073Y940322D01*
X869570Y940274D01*
X870067Y940213D01*
X870561Y940140D01*
X871054Y940056D01*
X871544Y939959D01*
X872032Y939850D01*
X872517Y939729D01*
X873000Y939597D01*
X873478Y939453D01*
X873953Y939297D01*
X874425Y939130D01*
X874892Y938952D01*
X875354Y938762D01*
X875812Y938561D01*
X876264Y938348D01*
X876712Y938125D01*
X877154Y937891D01*
X877590Y937647D01*
X878019Y937391D01*
X878443Y937126D01*
X878860Y936850D01*
X879270Y936564D01*
X879673Y936268D01*
X880069Y935963D01*
X880457Y935648D01*
X880837Y935323D01*
X881210Y934989D01*
X881574Y934647D01*
X881929Y934296D01*
X882276Y933936D01*
X882614Y933567D01*
X882943Y933191D01*
X883263Y932807D01*
X883574Y932415D01*
X883874Y932015D01*
X884165Y931609D01*
X884446Y931195D01*
X884717Y930775D01*
X884977Y930348D01*
X885227Y929915D01*
X885467Y929476D01*
X885695Y929032D01*
X885913Y928582D01*
X886120Y928126D01*
X886315Y927666D01*
X886499Y927202D01*
X886672Y926733D01*
X886834Y926259D01*
X886984Y925782D01*
X887122Y925302D01*
X887248Y924818D01*
X887363Y924332D01*
X887466Y923842D01*
X887556Y923351D01*
X887635Y922857D01*
X887702Y922362D01*
X887757Y921865D01*
X887799Y921367D01*
X887830Y920868D01*
X887848Y920368D01*
X887854Y919868D01*
X887854Y899339D01*
X887848Y898839D01*
X887830Y898339D01*
X887799Y897840D01*
X887757Y897342D01*
X887702Y896845D01*
X887635Y896350D01*
X887556Y895856D01*
X887466Y895365D01*
X887363Y894875D01*
X887248Y894389D01*
X887122Y893905D01*
X886984Y893425D01*
X886834Y892948D01*
X886672Y892474D01*
X886499Y892005D01*
X886315Y891541D01*
X886120Y891081D01*
X885913Y890625D01*
X885695Y890175D01*
X885467Y889731D01*
X885227Y889292D01*
X884977Y888859D01*
X884717Y888432D01*
X884446Y888012D01*
X884165Y887598D01*
X883874Y887192D01*
X883574Y886792D01*
X883263Y886400D01*
X882943Y886016D01*
X882614Y885640D01*
X882276Y885271D01*
X881929Y884911D01*
X881574Y884560D01*
X881210Y884218D01*
X880837Y883884D01*
X880457Y883559D01*
X880069Y883244D01*
X879673Y882939D01*
X879270Y882643D01*
X878860Y882357D01*
X878443Y882081D01*
X878019Y881816D01*
X877590Y881560D01*
X877154Y881316D01*
X876712Y881082D01*
X876264Y880859D01*
X875812Y880646D01*
X875354Y880445D01*
X874892Y880255D01*
X874425Y880077D01*
X873953Y879910D01*
X873478Y879754D01*
X873000Y879610D01*
X872517Y879478D01*
X872032Y879357D01*
X871544Y879248D01*
X871054Y879151D01*
X870561Y879067D01*
X870067Y878994D01*
X869570Y878933D01*
X869073Y878885D01*
X868574Y878848D01*
X868075Y878824D01*
X867575Y878812D01*
X867075Y878812D01*
X866575Y878824D01*
X866076Y878848D01*
X865577Y878885D01*
X865080Y878933D01*
X864583Y878994D01*
X864089Y879067D01*
X863596Y879151D01*
X863106Y879248D01*
X862618Y879357D01*
X862133Y879478D01*
X861650Y879610D01*
X861172Y879754D01*
X860697Y879910D01*
X860225Y880077D01*
X859758Y880255D01*
X859296Y880445D01*
X858838Y880646D01*
X858386Y880859D01*
X857938Y881082D01*
X857496Y881316D01*
X857061Y881560D01*
X856631Y881816D01*
X856207Y882081D01*
X855790Y882357D01*
X855380Y882643D01*
X854977Y882939D01*
X854581Y883244D01*
X854193Y883559D01*
X853813Y883884D01*
X853440Y884218D01*
X853076Y884560D01*
X852721Y884911D01*
X852374Y885271D01*
X852036Y885640D01*
X851707Y886016D01*
X851387Y886400D01*
X851076Y886792D01*
X850776Y887192D01*
X850485Y887598D01*
X850204Y888012D01*
X849933Y888432D01*
X849673Y888859D01*
X849423Y889292D01*
X849183Y889731D01*
X848955Y890175D01*
X848737Y890625D01*
X848530Y891081D01*
X848335Y891541D01*
X848151Y892005D01*
X847978Y892474D01*
X847816Y892948D01*
X847666Y893425D01*
X847528Y893905D01*
X847402Y894389D01*
X847287Y894875D01*
X847184Y895365D01*
X847094Y895856D01*
X847015Y896350D01*
X846948Y896845D01*
X846893Y897342D01*
X846851Y897840D01*
X846820Y898339D01*
X846802Y898839D01*
X846796Y899339D01*
X927797Y878810D02*
X927797Y940397D01*
X953458Y940397D01*
X953830Y940393D01*
X954202Y940379D01*
X954573Y940357D01*
X954944Y940325D01*
X955314Y940285D01*
X955683Y940235D01*
X956050Y940177D01*
X956416Y940110D01*
X956780Y940034D01*
X957143Y939950D01*
X957503Y939856D01*
X957861Y939754D01*
X958216Y939643D01*
X958568Y939524D01*
X958918Y939396D01*
X959264Y939260D01*
X959607Y939116D01*
X959946Y938963D01*
X960282Y938802D01*
X960613Y938633D01*
X960941Y938456D01*
X961264Y938272D01*
X961582Y938079D01*
X961896Y937879D01*
X962204Y937671D01*
X962508Y937456D01*
X962806Y937234D01*
X963099Y937005D01*
X963387Y936768D01*
X963668Y936525D01*
X963944Y936275D01*
X964213Y936018D01*
X964476Y935755D01*
X964733Y935486D01*
X964983Y935210D01*
X965226Y934929D01*
X965463Y934641D01*
X965692Y934348D01*
X965914Y934050D01*
X966129Y933746D01*
X966337Y933438D01*
X966537Y933124D01*
X966730Y932806D01*
X966914Y932483D01*
X967091Y932155D01*
X967260Y931824D01*
X967421Y931488D01*
X967574Y931149D01*
X967718Y930806D01*
X967854Y930460D01*
X967982Y930110D01*
X968101Y929758D01*
X968212Y929403D01*
X968314Y929045D01*
X968408Y928685D01*
X968492Y928322D01*
X968568Y927958D01*
X968635Y927592D01*
X968693Y927225D01*
X968743Y926856D01*
X968783Y926486D01*
X968815Y926115D01*
X968837Y925744D01*
X968851Y925372D01*
X968855Y925000D01*
X968854Y925000D02*
X968854Y878810D01*
X1024193Y878810D02*
X1049854Y878810D01*
X1024193Y878810D02*
X1023821Y878814D01*
X1023449Y878828D01*
X1023078Y878850D01*
X1022707Y878882D01*
X1022337Y878922D01*
X1021968Y878972D01*
X1021601Y879030D01*
X1021235Y879097D01*
X1020871Y879173D01*
X1020508Y879257D01*
X1020148Y879351D01*
X1019790Y879453D01*
X1019435Y879564D01*
X1019083Y879683D01*
X1018733Y879811D01*
X1018387Y879947D01*
X1018044Y880091D01*
X1017705Y880244D01*
X1017369Y880405D01*
X1017038Y880574D01*
X1016710Y880751D01*
X1016387Y880935D01*
X1016069Y881128D01*
X1015755Y881328D01*
X1015447Y881536D01*
X1015143Y881751D01*
X1014845Y881973D01*
X1014552Y882202D01*
X1014264Y882439D01*
X1013983Y882682D01*
X1013707Y882932D01*
X1013438Y883189D01*
X1013175Y883452D01*
X1012918Y883721D01*
X1012668Y883997D01*
X1012425Y884278D01*
X1012188Y884566D01*
X1011959Y884859D01*
X1011737Y885157D01*
X1011522Y885461D01*
X1011314Y885769D01*
X1011114Y886083D01*
X1010921Y886401D01*
X1010737Y886724D01*
X1010560Y887052D01*
X1010391Y887383D01*
X1010230Y887719D01*
X1010077Y888058D01*
X1009933Y888401D01*
X1009797Y888747D01*
X1009669Y889097D01*
X1009550Y889449D01*
X1009439Y889804D01*
X1009337Y890162D01*
X1009243Y890522D01*
X1009159Y890885D01*
X1009083Y891249D01*
X1009016Y891615D01*
X1008958Y891982D01*
X1008908Y892351D01*
X1008868Y892721D01*
X1008836Y893092D01*
X1008814Y893463D01*
X1008800Y893835D01*
X1008796Y894207D01*
X1008797Y894207D02*
X1008797Y919868D01*
X1008796Y919868D02*
X1008802Y920368D01*
X1008820Y920868D01*
X1008851Y921367D01*
X1008893Y921865D01*
X1008948Y922362D01*
X1009015Y922857D01*
X1009094Y923351D01*
X1009184Y923842D01*
X1009287Y924332D01*
X1009402Y924818D01*
X1009528Y925302D01*
X1009666Y925782D01*
X1009816Y926259D01*
X1009978Y926733D01*
X1010151Y927202D01*
X1010335Y927666D01*
X1010530Y928126D01*
X1010737Y928582D01*
X1010955Y929032D01*
X1011183Y929476D01*
X1011423Y929915D01*
X1011673Y930348D01*
X1011933Y930775D01*
X1012204Y931195D01*
X1012485Y931609D01*
X1012776Y932015D01*
X1013076Y932415D01*
X1013387Y932807D01*
X1013707Y933191D01*
X1014036Y933567D01*
X1014374Y933936D01*
X1014721Y934296D01*
X1015076Y934647D01*
X1015440Y934989D01*
X1015813Y935323D01*
X1016193Y935648D01*
X1016581Y935963D01*
X1016977Y936268D01*
X1017380Y936564D01*
X1017790Y936850D01*
X1018207Y937126D01*
X1018631Y937391D01*
X1019061Y937647D01*
X1019496Y937891D01*
X1019938Y938125D01*
X1020386Y938348D01*
X1020838Y938561D01*
X1021296Y938762D01*
X1021758Y938952D01*
X1022225Y939130D01*
X1022697Y939297D01*
X1023172Y939453D01*
X1023650Y939597D01*
X1024133Y939729D01*
X1024618Y939850D01*
X1025106Y939959D01*
X1025596Y940056D01*
X1026089Y940140D01*
X1026583Y940213D01*
X1027080Y940274D01*
X1027577Y940322D01*
X1028076Y940359D01*
X1028575Y940383D01*
X1029075Y940395D01*
X1029575Y940395D01*
X1030075Y940383D01*
X1030574Y940359D01*
X1031073Y940322D01*
X1031570Y940274D01*
X1032067Y940213D01*
X1032561Y940140D01*
X1033054Y940056D01*
X1033544Y939959D01*
X1034032Y939850D01*
X1034517Y939729D01*
X1035000Y939597D01*
X1035478Y939453D01*
X1035953Y939297D01*
X1036425Y939130D01*
X1036892Y938952D01*
X1037354Y938762D01*
X1037812Y938561D01*
X1038264Y938348D01*
X1038712Y938125D01*
X1039154Y937891D01*
X1039590Y937647D01*
X1040019Y937391D01*
X1040443Y937126D01*
X1040860Y936850D01*
X1041270Y936564D01*
X1041673Y936268D01*
X1042069Y935963D01*
X1042457Y935648D01*
X1042837Y935323D01*
X1043210Y934989D01*
X1043574Y934647D01*
X1043929Y934296D01*
X1044276Y933936D01*
X1044614Y933567D01*
X1044943Y933191D01*
X1045263Y932807D01*
X1045574Y932415D01*
X1045874Y932015D01*
X1046165Y931609D01*
X1046446Y931195D01*
X1046717Y930775D01*
X1046977Y930348D01*
X1047227Y929915D01*
X1047467Y929476D01*
X1047695Y929032D01*
X1047913Y928582D01*
X1048120Y928126D01*
X1048315Y927666D01*
X1048499Y927202D01*
X1048672Y926733D01*
X1048834Y926259D01*
X1048984Y925782D01*
X1049122Y925302D01*
X1049248Y924818D01*
X1049363Y924332D01*
X1049466Y923842D01*
X1049556Y923351D01*
X1049635Y922857D01*
X1049702Y922362D01*
X1049757Y921865D01*
X1049799Y921367D01*
X1049830Y920868D01*
X1049848Y920368D01*
X1049854Y919868D01*
X1049854Y909603D01*
X1008797Y909603D01*
X1139966Y878810D02*
X1139966Y971190D01*
X1165627Y971190D01*
X1166252Y971182D01*
X1166876Y971160D01*
X1167500Y971122D01*
X1168123Y971068D01*
X1168744Y971000D01*
X1169363Y970917D01*
X1169980Y970818D01*
X1170595Y970705D01*
X1171206Y970576D01*
X1171815Y970433D01*
X1172419Y970275D01*
X1173020Y970102D01*
X1173616Y969915D01*
X1174208Y969713D01*
X1174794Y969497D01*
X1175375Y969266D01*
X1175950Y969022D01*
X1176519Y968764D01*
X1177082Y968492D01*
X1177637Y968206D01*
X1178186Y967907D01*
X1178727Y967594D01*
X1179261Y967269D01*
X1179786Y966930D01*
X1180303Y966579D01*
X1180811Y966215D01*
X1181310Y965840D01*
X1181800Y965452D01*
X1182281Y965052D01*
X1182751Y964641D01*
X1183211Y964218D01*
X1183661Y963784D01*
X1184100Y963340D01*
X1184529Y962885D01*
X1184946Y962419D01*
X1185351Y961944D01*
X1185745Y961458D01*
X1186127Y960964D01*
X1186497Y960460D01*
X1186854Y959947D01*
X1187199Y959426D01*
X1187531Y958897D01*
X1187850Y958360D01*
X1188156Y957815D01*
X1188448Y957262D01*
X1188727Y956703D01*
X1188993Y956137D01*
X1189244Y955565D01*
X1189481Y954987D01*
X1189705Y954403D01*
X1189914Y953814D01*
X1190108Y953221D01*
X1190288Y952622D01*
X1190454Y952020D01*
X1190604Y951413D01*
X1190740Y950803D01*
X1190861Y950190D01*
X1190967Y949574D01*
X1191058Y948956D01*
X1191134Y948336D01*
X1191195Y947714D01*
X1191240Y947090D01*
X1191271Y946466D01*
X1191286Y945841D01*
X1191286Y945217D01*
X1191271Y944592D01*
X1191240Y943968D01*
X1191195Y943344D01*
X1191134Y942722D01*
X1191058Y942102D01*
X1190967Y941484D01*
X1190861Y940868D01*
X1190740Y940255D01*
X1190604Y939645D01*
X1190454Y939038D01*
X1190288Y938436D01*
X1190108Y937837D01*
X1189914Y937244D01*
X1189705Y936655D01*
X1189481Y936071D01*
X1189244Y935493D01*
X1188993Y934921D01*
X1188727Y934355D01*
X1188448Y933796D01*
X1188156Y933243D01*
X1187850Y932699D01*
X1187531Y932161D01*
X1187199Y931632D01*
X1186854Y931111D01*
X1186497Y930598D01*
X1186127Y930094D01*
X1185745Y929600D01*
X1185351Y929114D01*
X1184946Y928639D01*
X1184529Y928173D01*
X1184100Y927718D01*
X1183661Y927274D01*
X1183211Y926840D01*
X1182751Y926417D01*
X1182281Y926006D01*
X1181800Y925606D01*
X1181310Y925218D01*
X1180811Y924843D01*
X1180303Y924479D01*
X1179786Y924128D01*
X1179261Y923789D01*
X1178727Y923464D01*
X1178186Y923151D01*
X1177637Y922852D01*
X1177082Y922566D01*
X1176519Y922294D01*
X1175950Y922036D01*
X1175375Y921792D01*
X1174794Y921561D01*
X1174208Y921345D01*
X1173616Y921143D01*
X1173020Y920956D01*
X1172419Y920783D01*
X1171815Y920625D01*
X1171206Y920482D01*
X1170595Y920353D01*
X1169980Y920240D01*
X1169363Y920141D01*
X1168744Y920058D01*
X1168123Y919990D01*
X1167500Y919936D01*
X1166876Y919898D01*
X1166252Y919876D01*
X1165627Y919868D01*
X1139966Y919868D01*
X1225664Y904471D02*
X1225664Y945529D01*
X1225672Y946154D01*
X1225694Y946778D01*
X1225732Y947402D01*
X1225786Y948025D01*
X1225854Y948646D01*
X1225937Y949265D01*
X1226036Y949882D01*
X1226149Y950497D01*
X1226278Y951108D01*
X1226421Y951717D01*
X1226579Y952321D01*
X1226752Y952922D01*
X1226939Y953518D01*
X1227141Y954110D01*
X1227357Y954696D01*
X1227588Y955277D01*
X1227832Y955852D01*
X1228090Y956421D01*
X1228362Y956984D01*
X1228648Y957539D01*
X1228947Y958088D01*
X1229260Y958629D01*
X1229585Y959163D01*
X1229924Y959688D01*
X1230275Y960205D01*
X1230639Y960713D01*
X1231014Y961212D01*
X1231402Y961702D01*
X1231802Y962183D01*
X1232213Y962653D01*
X1232636Y963113D01*
X1233070Y963563D01*
X1233514Y964002D01*
X1233969Y964431D01*
X1234435Y964848D01*
X1234910Y965253D01*
X1235396Y965647D01*
X1235890Y966029D01*
X1236394Y966399D01*
X1236907Y966756D01*
X1237428Y967101D01*
X1237957Y967433D01*
X1238495Y967752D01*
X1239039Y968058D01*
X1239592Y968350D01*
X1240151Y968629D01*
X1240717Y968895D01*
X1241289Y969146D01*
X1241867Y969383D01*
X1242451Y969607D01*
X1243040Y969816D01*
X1243633Y970010D01*
X1244232Y970190D01*
X1244834Y970356D01*
X1245441Y970506D01*
X1246051Y970642D01*
X1246664Y970763D01*
X1247280Y970869D01*
X1247898Y970960D01*
X1248518Y971036D01*
X1249140Y971097D01*
X1249764Y971142D01*
X1250388Y971173D01*
X1251013Y971188D01*
X1251637Y971188D01*
X1252262Y971173D01*
X1252886Y971142D01*
X1253510Y971097D01*
X1254132Y971036D01*
X1254752Y970960D01*
X1255370Y970869D01*
X1255986Y970763D01*
X1256599Y970642D01*
X1257209Y970506D01*
X1257816Y970356D01*
X1258418Y970190D01*
X1259017Y970010D01*
X1259610Y969816D01*
X1260199Y969607D01*
X1260783Y969383D01*
X1261361Y969146D01*
X1261933Y968895D01*
X1262499Y968629D01*
X1263058Y968350D01*
X1263611Y968058D01*
X1264156Y967752D01*
X1264693Y967433D01*
X1265222Y967101D01*
X1265743Y966756D01*
X1266256Y966399D01*
X1266760Y966029D01*
X1267254Y965647D01*
X1267740Y965253D01*
X1268215Y964848D01*
X1268681Y964431D01*
X1269136Y964002D01*
X1269580Y963563D01*
X1270014Y963113D01*
X1270437Y962653D01*
X1270848Y962183D01*
X1271248Y961702D01*
X1271636Y961212D01*
X1272011Y960713D01*
X1272375Y960205D01*
X1272726Y959688D01*
X1273065Y959163D01*
X1273390Y958629D01*
X1273703Y958088D01*
X1274002Y957539D01*
X1274288Y956984D01*
X1274560Y956421D01*
X1274818Y955852D01*
X1275062Y955277D01*
X1275293Y954696D01*
X1275509Y954110D01*
X1275711Y953518D01*
X1275898Y952922D01*
X1276071Y952321D01*
X1276229Y951717D01*
X1276372Y951108D01*
X1276501Y950497D01*
X1276614Y949882D01*
X1276713Y949265D01*
X1276796Y948646D01*
X1276864Y948025D01*
X1276918Y947402D01*
X1276956Y946778D01*
X1276978Y946154D01*
X1276986Y945529D01*
X1276986Y904471D01*
X1276978Y903846D01*
X1276956Y903222D01*
X1276918Y902598D01*
X1276864Y901975D01*
X1276796Y901354D01*
X1276713Y900735D01*
X1276614Y900118D01*
X1276501Y899503D01*
X1276372Y898892D01*
X1276229Y898283D01*
X1276071Y897679D01*
X1275898Y897078D01*
X1275711Y896482D01*
X1275509Y895890D01*
X1275293Y895304D01*
X1275062Y894723D01*
X1274818Y894148D01*
X1274560Y893579D01*
X1274288Y893016D01*
X1274002Y892461D01*
X1273703Y891912D01*
X1273390Y891371D01*
X1273065Y890837D01*
X1272726Y890312D01*
X1272375Y889795D01*
X1272011Y889287D01*
X1271636Y888788D01*
X1271248Y888298D01*
X1270848Y887817D01*
X1270437Y887347D01*
X1270014Y886887D01*
X1269580Y886437D01*
X1269136Y885998D01*
X1268681Y885569D01*
X1268215Y885152D01*
X1267740Y884747D01*
X1267254Y884353D01*
X1266760Y883971D01*
X1266256Y883601D01*
X1265743Y883244D01*
X1265222Y882899D01*
X1264693Y882567D01*
X1264156Y882248D01*
X1263611Y881942D01*
X1263058Y881650D01*
X1262499Y881371D01*
X1261933Y881105D01*
X1261361Y880854D01*
X1260783Y880617D01*
X1260199Y880393D01*
X1259610Y880184D01*
X1259017Y879990D01*
X1258418Y879810D01*
X1257816Y879644D01*
X1257209Y879494D01*
X1256599Y879358D01*
X1255986Y879237D01*
X1255370Y879131D01*
X1254752Y879040D01*
X1254132Y878964D01*
X1253510Y878903D01*
X1252886Y878858D01*
X1252262Y878827D01*
X1251637Y878812D01*
X1251013Y878812D01*
X1250388Y878827D01*
X1249764Y878858D01*
X1249140Y878903D01*
X1248518Y878964D01*
X1247898Y879040D01*
X1247280Y879131D01*
X1246664Y879237D01*
X1246051Y879358D01*
X1245441Y879494D01*
X1244834Y879644D01*
X1244232Y879810D01*
X1243633Y879990D01*
X1243040Y880184D01*
X1242451Y880393D01*
X1241867Y880617D01*
X1241289Y880854D01*
X1240717Y881105D01*
X1240151Y881371D01*
X1239592Y881650D01*
X1239039Y881942D01*
X1238495Y882248D01*
X1237957Y882567D01*
X1237428Y882899D01*
X1236907Y883244D01*
X1236394Y883601D01*
X1235890Y883971D01*
X1235396Y884353D01*
X1234910Y884747D01*
X1234435Y885152D01*
X1233969Y885569D01*
X1233514Y885998D01*
X1233070Y886437D01*
X1232636Y886887D01*
X1232213Y887347D01*
X1231802Y887817D01*
X1231402Y888298D01*
X1231014Y888788D01*
X1230639Y889287D01*
X1230275Y889795D01*
X1229924Y890312D01*
X1229585Y890837D01*
X1229260Y891371D01*
X1228947Y891912D01*
X1228648Y892461D01*
X1228362Y893016D01*
X1228090Y893579D01*
X1227832Y894148D01*
X1227588Y894723D01*
X1227357Y895304D01*
X1227141Y895890D01*
X1226939Y896482D01*
X1226752Y897078D01*
X1226579Y897679D01*
X1226421Y898283D01*
X1226278Y898892D01*
X1226149Y899503D01*
X1226036Y900118D01*
X1225937Y900735D01*
X1225854Y901354D01*
X1225786Y901975D01*
X1225732Y902598D01*
X1225694Y903222D01*
X1225672Y903846D01*
X1225664Y904471D01*
X1335937Y878810D02*
X1356466Y878810D01*
X1335937Y878810D02*
X1335441Y878816D01*
X1334945Y878834D01*
X1334450Y878864D01*
X1333956Y878906D01*
X1333463Y878960D01*
X1332971Y879025D01*
X1332481Y879103D01*
X1331993Y879192D01*
X1331507Y879294D01*
X1331024Y879407D01*
X1330544Y879531D01*
X1330067Y879667D01*
X1329593Y879815D01*
X1329123Y879974D01*
X1328657Y880144D01*
X1328196Y880326D01*
X1327738Y880518D01*
X1327286Y880722D01*
X1326839Y880936D01*
X1326397Y881161D01*
X1325960Y881397D01*
X1325530Y881644D01*
X1325105Y881900D01*
X1324687Y882167D01*
X1324275Y882444D01*
X1323870Y882731D01*
X1323473Y883027D01*
X1323082Y883333D01*
X1322699Y883648D01*
X1322324Y883973D01*
X1321956Y884306D01*
X1321597Y884648D01*
X1321246Y884999D01*
X1320904Y885358D01*
X1320571Y885726D01*
X1320246Y886101D01*
X1319931Y886484D01*
X1319625Y886875D01*
X1319329Y887272D01*
X1319042Y887677D01*
X1318765Y888089D01*
X1318498Y888507D01*
X1318242Y888932D01*
X1317995Y889362D01*
X1317759Y889799D01*
X1317534Y890241D01*
X1317320Y890688D01*
X1317116Y891140D01*
X1316924Y891598D01*
X1316742Y892059D01*
X1316572Y892525D01*
X1316413Y892995D01*
X1316265Y893469D01*
X1316129Y893946D01*
X1316005Y894426D01*
X1315892Y894909D01*
X1315790Y895395D01*
X1315701Y895883D01*
X1315623Y896373D01*
X1315558Y896865D01*
X1315504Y897358D01*
X1315462Y897852D01*
X1315432Y898347D01*
X1315414Y898843D01*
X1315408Y899339D01*
X1315408Y950661D01*
X1315409Y950661D02*
X1315415Y951165D01*
X1315434Y951668D01*
X1315465Y952171D01*
X1315508Y952673D01*
X1315563Y953174D01*
X1315631Y953673D01*
X1315711Y954171D01*
X1315803Y954666D01*
X1315908Y955159D01*
X1316024Y955649D01*
X1316153Y956136D01*
X1316293Y956620D01*
X1316445Y957101D01*
X1316609Y957577D01*
X1316785Y958049D01*
X1316972Y958517D01*
X1317170Y958980D01*
X1317380Y959438D01*
X1317601Y959891D01*
X1317833Y960338D01*
X1318076Y960780D01*
X1318330Y961215D01*
X1318594Y961644D01*
X1318869Y962066D01*
X1319154Y962482D01*
X1319449Y962890D01*
X1319754Y963291D01*
X1320069Y963684D01*
X1320393Y964070D01*
X1320727Y964447D01*
X1321070Y964816D01*
X1321422Y965177D01*
X1321782Y965529D01*
X1322151Y965872D01*
X1322529Y966206D01*
X1322914Y966530D01*
X1323308Y966845D01*
X1323709Y967150D01*
X1324117Y967445D01*
X1324533Y967730D01*
X1324955Y968005D01*
X1325384Y968269D01*
X1325819Y968523D01*
X1326261Y968766D01*
X1326708Y968998D01*
X1327161Y969219D01*
X1327619Y969429D01*
X1328082Y969627D01*
X1328549Y969814D01*
X1329022Y969990D01*
X1329498Y970154D01*
X1329979Y970306D01*
X1330462Y970446D01*
X1330950Y970575D01*
X1331440Y970691D01*
X1331933Y970795D01*
X1332428Y970888D01*
X1332925Y970968D01*
X1333425Y971036D01*
X1333926Y971091D01*
X1334427Y971134D01*
X1334930Y971165D01*
X1335434Y971184D01*
X1335938Y971190D01*
X1335937Y971190D02*
X1356466Y971190D01*
X481463Y728810D02*
X455802Y728810D01*
X455430Y728814D01*
X455058Y728828D01*
X454687Y728850D01*
X454316Y728882D01*
X453946Y728922D01*
X453577Y728972D01*
X453210Y729030D01*
X452844Y729097D01*
X452480Y729173D01*
X452117Y729257D01*
X451757Y729351D01*
X451399Y729453D01*
X451044Y729564D01*
X450692Y729683D01*
X450342Y729811D01*
X449996Y729947D01*
X449653Y730091D01*
X449314Y730244D01*
X448978Y730405D01*
X448647Y730574D01*
X448319Y730751D01*
X447996Y730935D01*
X447678Y731128D01*
X447364Y731328D01*
X447056Y731536D01*
X446752Y731751D01*
X446454Y731973D01*
X446161Y732202D01*
X445873Y732439D01*
X445592Y732682D01*
X445316Y732932D01*
X445047Y733189D01*
X444784Y733452D01*
X444527Y733721D01*
X444277Y733997D01*
X444034Y734278D01*
X443797Y734566D01*
X443568Y734859D01*
X443346Y735157D01*
X443131Y735461D01*
X442923Y735769D01*
X442723Y736083D01*
X442530Y736401D01*
X442346Y736724D01*
X442169Y737052D01*
X442000Y737383D01*
X441839Y737719D01*
X441686Y738058D01*
X441542Y738401D01*
X441406Y738747D01*
X441278Y739097D01*
X441159Y739449D01*
X441048Y739804D01*
X440946Y740162D01*
X440852Y740522D01*
X440768Y740885D01*
X440692Y741249D01*
X440625Y741615D01*
X440567Y741982D01*
X440517Y742351D01*
X440477Y742721D01*
X440445Y743092D01*
X440423Y743463D01*
X440409Y743835D01*
X440405Y744207D01*
X440406Y744207D02*
X440406Y769868D01*
X440405Y769868D02*
X440411Y770368D01*
X440429Y770868D01*
X440460Y771367D01*
X440502Y771865D01*
X440557Y772362D01*
X440624Y772857D01*
X440703Y773351D01*
X440793Y773842D01*
X440896Y774332D01*
X441011Y774818D01*
X441137Y775302D01*
X441275Y775782D01*
X441425Y776259D01*
X441587Y776733D01*
X441760Y777202D01*
X441944Y777666D01*
X442139Y778126D01*
X442346Y778582D01*
X442564Y779032D01*
X442792Y779476D01*
X443032Y779915D01*
X443282Y780348D01*
X443542Y780775D01*
X443813Y781195D01*
X444094Y781609D01*
X444385Y782015D01*
X444685Y782415D01*
X444996Y782807D01*
X445316Y783191D01*
X445645Y783567D01*
X445983Y783936D01*
X446330Y784296D01*
X446685Y784647D01*
X447049Y784989D01*
X447422Y785323D01*
X447802Y785648D01*
X448190Y785963D01*
X448586Y786268D01*
X448989Y786564D01*
X449399Y786850D01*
X449816Y787126D01*
X450240Y787391D01*
X450670Y787647D01*
X451105Y787891D01*
X451547Y788125D01*
X451995Y788348D01*
X452447Y788561D01*
X452905Y788762D01*
X453367Y788952D01*
X453834Y789130D01*
X454306Y789297D01*
X454781Y789453D01*
X455259Y789597D01*
X455742Y789729D01*
X456227Y789850D01*
X456715Y789959D01*
X457205Y790056D01*
X457698Y790140D01*
X458192Y790213D01*
X458689Y790274D01*
X459186Y790322D01*
X459685Y790359D01*
X460184Y790383D01*
X460684Y790395D01*
X461184Y790395D01*
X461684Y790383D01*
X462183Y790359D01*
X462682Y790322D01*
X463179Y790274D01*
X463676Y790213D01*
X464170Y790140D01*
X464663Y790056D01*
X465153Y789959D01*
X465641Y789850D01*
X466126Y789729D01*
X466609Y789597D01*
X467087Y789453D01*
X467562Y789297D01*
X468034Y789130D01*
X468501Y788952D01*
X468963Y788762D01*
X469421Y788561D01*
X469873Y788348D01*
X470321Y788125D01*
X470763Y787891D01*
X471199Y787647D01*
X471628Y787391D01*
X472052Y787126D01*
X472469Y786850D01*
X472879Y786564D01*
X473282Y786268D01*
X473678Y785963D01*
X474066Y785648D01*
X474446Y785323D01*
X474819Y784989D01*
X475183Y784647D01*
X475538Y784296D01*
X475885Y783936D01*
X476223Y783567D01*
X476552Y783191D01*
X476872Y782807D01*
X477183Y782415D01*
X477483Y782015D01*
X477774Y781609D01*
X478055Y781195D01*
X478326Y780775D01*
X478586Y780348D01*
X478836Y779915D01*
X479076Y779476D01*
X479304Y779032D01*
X479522Y778582D01*
X479729Y778126D01*
X479924Y777666D01*
X480108Y777202D01*
X480281Y776733D01*
X480443Y776259D01*
X480593Y775782D01*
X480731Y775302D01*
X480857Y774818D01*
X480972Y774332D01*
X481075Y773842D01*
X481165Y773351D01*
X481244Y772857D01*
X481311Y772362D01*
X481366Y771865D01*
X481408Y771367D01*
X481439Y770868D01*
X481457Y770368D01*
X481463Y769868D01*
X481463Y759603D01*
X440406Y759603D01*
X516416Y790397D02*
X516416Y713413D01*
X516411Y713035D01*
X516397Y712658D01*
X516374Y712280D01*
X516342Y711904D01*
X516300Y711528D01*
X516249Y711154D01*
X516189Y710781D01*
X516120Y710409D01*
X516042Y710040D01*
X515955Y709672D01*
X515858Y709306D01*
X515753Y708944D01*
X515639Y708583D01*
X515516Y708226D01*
X515384Y707872D01*
X515244Y707521D01*
X515095Y707174D01*
X514938Y706830D01*
X514772Y706490D01*
X514598Y706155D01*
X514416Y705824D01*
X514226Y705497D01*
X514027Y705176D01*
X513821Y704859D01*
X513607Y704547D01*
X513386Y704241D01*
X513157Y703940D01*
X512921Y703645D01*
X512678Y703356D01*
X512428Y703073D01*
X512170Y702796D01*
X511906Y702526D01*
X511636Y702262D01*
X511359Y702005D01*
X511076Y701754D01*
X510787Y701511D01*
X510492Y701275D01*
X510191Y701046D01*
X509885Y700825D01*
X509573Y700611D01*
X509257Y700405D01*
X508935Y700207D01*
X508608Y700016D01*
X508277Y699834D01*
X507942Y699660D01*
X507602Y699494D01*
X507259Y699337D01*
X506911Y699188D01*
X506561Y699048D01*
X506206Y698916D01*
X505849Y698793D01*
X505489Y698679D01*
X505126Y698574D01*
X504760Y698477D01*
X504393Y698390D01*
X504023Y698312D01*
X503652Y698243D01*
X503278Y698183D01*
X502904Y698132D01*
X502528Y698090D01*
X502152Y698058D01*
X501775Y698035D01*
X501397Y698021D01*
X501019Y698016D01*
X501019Y698017D02*
X495887Y698017D01*
X513849Y816058D02*
X513849Y821190D01*
X518982Y821190D01*
X518982Y816058D01*
X513849Y816058D01*
X554406Y769868D02*
X554406Y749339D01*
X554405Y769868D02*
X554411Y770368D01*
X554429Y770868D01*
X554460Y771367D01*
X554502Y771865D01*
X554557Y772362D01*
X554624Y772857D01*
X554703Y773351D01*
X554793Y773842D01*
X554896Y774332D01*
X555011Y774818D01*
X555137Y775302D01*
X555275Y775782D01*
X555425Y776259D01*
X555587Y776733D01*
X555760Y777202D01*
X555944Y777666D01*
X556139Y778126D01*
X556346Y778582D01*
X556564Y779032D01*
X556792Y779476D01*
X557032Y779915D01*
X557282Y780348D01*
X557542Y780775D01*
X557813Y781195D01*
X558094Y781609D01*
X558385Y782015D01*
X558685Y782415D01*
X558996Y782807D01*
X559316Y783191D01*
X559645Y783567D01*
X559983Y783936D01*
X560330Y784296D01*
X560685Y784647D01*
X561049Y784989D01*
X561422Y785323D01*
X561802Y785648D01*
X562190Y785963D01*
X562586Y786268D01*
X562989Y786564D01*
X563399Y786850D01*
X563816Y787126D01*
X564240Y787391D01*
X564670Y787647D01*
X565105Y787891D01*
X565547Y788125D01*
X565995Y788348D01*
X566447Y788561D01*
X566905Y788762D01*
X567367Y788952D01*
X567834Y789130D01*
X568306Y789297D01*
X568781Y789453D01*
X569259Y789597D01*
X569742Y789729D01*
X570227Y789850D01*
X570715Y789959D01*
X571205Y790056D01*
X571698Y790140D01*
X572192Y790213D01*
X572689Y790274D01*
X573186Y790322D01*
X573685Y790359D01*
X574184Y790383D01*
X574684Y790395D01*
X575184Y790395D01*
X575684Y790383D01*
X576183Y790359D01*
X576682Y790322D01*
X577179Y790274D01*
X577676Y790213D01*
X578170Y790140D01*
X578663Y790056D01*
X579153Y789959D01*
X579641Y789850D01*
X580126Y789729D01*
X580609Y789597D01*
X581087Y789453D01*
X581562Y789297D01*
X582034Y789130D01*
X582501Y788952D01*
X582963Y788762D01*
X583421Y788561D01*
X583873Y788348D01*
X584321Y788125D01*
X584763Y787891D01*
X585199Y787647D01*
X585628Y787391D01*
X586052Y787126D01*
X586469Y786850D01*
X586879Y786564D01*
X587282Y786268D01*
X587678Y785963D01*
X588066Y785648D01*
X588446Y785323D01*
X588819Y784989D01*
X589183Y784647D01*
X589538Y784296D01*
X589885Y783936D01*
X590223Y783567D01*
X590552Y783191D01*
X590872Y782807D01*
X591183Y782415D01*
X591483Y782015D01*
X591774Y781609D01*
X592055Y781195D01*
X592326Y780775D01*
X592586Y780348D01*
X592836Y779915D01*
X593076Y779476D01*
X593304Y779032D01*
X593522Y778582D01*
X593729Y778126D01*
X593924Y777666D01*
X594108Y777202D01*
X594281Y776733D01*
X594443Y776259D01*
X594593Y775782D01*
X594731Y775302D01*
X594857Y774818D01*
X594972Y774332D01*
X595075Y773842D01*
X595165Y773351D01*
X595244Y772857D01*
X595311Y772362D01*
X595366Y771865D01*
X595408Y771367D01*
X595439Y770868D01*
X595457Y770368D01*
X595463Y769868D01*
X595463Y749339D01*
X595457Y748839D01*
X595439Y748339D01*
X595408Y747840D01*
X595366Y747342D01*
X595311Y746845D01*
X595244Y746350D01*
X595165Y745856D01*
X595075Y745365D01*
X594972Y744875D01*
X594857Y744389D01*
X594731Y743905D01*
X594593Y743425D01*
X594443Y742948D01*
X594281Y742474D01*
X594108Y742005D01*
X593924Y741541D01*
X593729Y741081D01*
X593522Y740625D01*
X593304Y740175D01*
X593076Y739731D01*
X592836Y739292D01*
X592586Y738859D01*
X592326Y738432D01*
X592055Y738012D01*
X591774Y737598D01*
X591483Y737192D01*
X591183Y736792D01*
X590872Y736400D01*
X590552Y736016D01*
X590223Y735640D01*
X589885Y735271D01*
X589538Y734911D01*
X589183Y734560D01*
X588819Y734218D01*
X588446Y733884D01*
X588066Y733559D01*
X587678Y733244D01*
X587282Y732939D01*
X586879Y732643D01*
X586469Y732357D01*
X586052Y732081D01*
X585628Y731816D01*
X585199Y731560D01*
X584763Y731316D01*
X584321Y731082D01*
X583873Y730859D01*
X583421Y730646D01*
X582963Y730445D01*
X582501Y730255D01*
X582034Y730077D01*
X581562Y729910D01*
X581087Y729754D01*
X580609Y729610D01*
X580126Y729478D01*
X579641Y729357D01*
X579153Y729248D01*
X578663Y729151D01*
X578170Y729067D01*
X577676Y728994D01*
X577179Y728933D01*
X576682Y728885D01*
X576183Y728848D01*
X575684Y728824D01*
X575184Y728812D01*
X574684Y728812D01*
X574184Y728824D01*
X573685Y728848D01*
X573186Y728885D01*
X572689Y728933D01*
X572192Y728994D01*
X571698Y729067D01*
X571205Y729151D01*
X570715Y729248D01*
X570227Y729357D01*
X569742Y729478D01*
X569259Y729610D01*
X568781Y729754D01*
X568306Y729910D01*
X567834Y730077D01*
X567367Y730255D01*
X566905Y730445D01*
X566447Y730646D01*
X565995Y730859D01*
X565547Y731082D01*
X565105Y731316D01*
X564670Y731560D01*
X564240Y731816D01*
X563816Y732081D01*
X563399Y732357D01*
X562989Y732643D01*
X562586Y732939D01*
X562190Y733244D01*
X561802Y733559D01*
X561422Y733884D01*
X561049Y734218D01*
X560685Y734560D01*
X560330Y734911D01*
X559983Y735271D01*
X559645Y735640D01*
X559316Y736016D01*
X558996Y736400D01*
X558685Y736792D01*
X558385Y737192D01*
X558094Y737598D01*
X557813Y738012D01*
X557542Y738432D01*
X557282Y738859D01*
X557032Y739292D01*
X556792Y739731D01*
X556564Y740175D01*
X556346Y740625D01*
X556139Y741081D01*
X555944Y741541D01*
X555760Y742005D01*
X555587Y742474D01*
X555425Y742948D01*
X555275Y743425D01*
X555137Y743905D01*
X555011Y744389D01*
X554896Y744875D01*
X554793Y745365D01*
X554703Y745856D01*
X554624Y746350D01*
X554557Y746845D01*
X554502Y747342D01*
X554460Y747840D01*
X554429Y748339D01*
X554411Y748839D01*
X554405Y749339D01*
X629406Y790397D02*
X649934Y728810D01*
X670463Y790397D01*
X707916Y790397D02*
X707916Y728810D01*
X707916Y790397D02*
X738709Y790397D01*
X738709Y780132D01*
X770405Y821190D02*
X770405Y728810D01*
X770405Y790397D02*
X796066Y790397D01*
X796438Y790393D01*
X796810Y790379D01*
X797181Y790357D01*
X797552Y790325D01*
X797922Y790285D01*
X798291Y790235D01*
X798658Y790177D01*
X799024Y790110D01*
X799388Y790034D01*
X799751Y789950D01*
X800111Y789856D01*
X800469Y789754D01*
X800824Y789643D01*
X801176Y789524D01*
X801526Y789396D01*
X801872Y789260D01*
X802215Y789116D01*
X802554Y788963D01*
X802890Y788802D01*
X803221Y788633D01*
X803549Y788456D01*
X803872Y788272D01*
X804190Y788079D01*
X804504Y787879D01*
X804812Y787671D01*
X805116Y787456D01*
X805414Y787234D01*
X805707Y787005D01*
X805995Y786768D01*
X806276Y786525D01*
X806552Y786275D01*
X806821Y786018D01*
X807084Y785755D01*
X807341Y785486D01*
X807591Y785210D01*
X807834Y784929D01*
X808071Y784641D01*
X808300Y784348D01*
X808522Y784050D01*
X808737Y783746D01*
X808945Y783438D01*
X809145Y783124D01*
X809338Y782806D01*
X809522Y782483D01*
X809699Y782155D01*
X809868Y781824D01*
X810029Y781488D01*
X810182Y781149D01*
X810326Y780806D01*
X810462Y780460D01*
X810590Y780110D01*
X810709Y779758D01*
X810820Y779403D01*
X810922Y779045D01*
X811016Y778685D01*
X811100Y778322D01*
X811176Y777958D01*
X811243Y777592D01*
X811301Y777225D01*
X811351Y776856D01*
X811391Y776486D01*
X811423Y776115D01*
X811445Y775744D01*
X811459Y775372D01*
X811463Y775000D01*
X811463Y728810D01*
X896405Y790397D02*
X916934Y728810D01*
X937463Y790397D01*
X968368Y733942D02*
X968368Y728810D01*
X968368Y733942D02*
X973500Y733942D01*
X973500Y728810D01*
X968368Y728810D01*
X1008273Y749339D02*
X1028801Y821190D01*
X1008273Y749339D02*
X1059595Y749339D01*
X1044198Y769868D02*
X1044198Y728810D01*
X1853810Y3078810D02*
X1946190Y3078810D01*
X1946190Y3119868D01*
X1946190Y3156810D02*
X1946190Y3197867D01*
X1946190Y3156810D02*
X1853810Y3156810D01*
X1853810Y3197867D01*
X1894868Y3187603D02*
X1894868Y3156810D01*
X1853810Y3234636D02*
X1946190Y3234636D01*
X1853810Y3234636D02*
X1853810Y3260297D01*
X1853817Y3260917D01*
X1853840Y3261537D01*
X1853877Y3262156D01*
X1853930Y3262774D01*
X1853997Y3263390D01*
X1854079Y3264005D01*
X1854176Y3264617D01*
X1854288Y3265227D01*
X1854415Y3265834D01*
X1854556Y3266438D01*
X1854711Y3267038D01*
X1854881Y3267635D01*
X1855066Y3268227D01*
X1855265Y3268814D01*
X1855478Y3269397D01*
X1855704Y3269974D01*
X1855945Y3270545D01*
X1856200Y3271111D01*
X1856468Y3271670D01*
X1856749Y3272222D01*
X1857044Y3272768D01*
X1857352Y3273306D01*
X1857673Y3273837D01*
X1858006Y3274360D01*
X1858352Y3274874D01*
X1858711Y3275380D01*
X1859081Y3275877D01*
X1859464Y3276366D01*
X1859858Y3276844D01*
X1860263Y3277313D01*
X1860680Y3277773D01*
X1861108Y3278222D01*
X1861546Y3278660D01*
X1861995Y3279088D01*
X1862455Y3279505D01*
X1862924Y3279910D01*
X1863402Y3280304D01*
X1863891Y3280687D01*
X1864388Y3281057D01*
X1864894Y3281416D01*
X1865408Y3281762D01*
X1865931Y3282095D01*
X1866462Y3282416D01*
X1867000Y3282724D01*
X1867546Y3283019D01*
X1868098Y3283300D01*
X1868657Y3283568D01*
X1869223Y3283823D01*
X1869794Y3284064D01*
X1870371Y3284290D01*
X1870954Y3284503D01*
X1871541Y3284702D01*
X1872133Y3284887D01*
X1872730Y3285057D01*
X1873330Y3285212D01*
X1873934Y3285353D01*
X1874541Y3285480D01*
X1875151Y3285592D01*
X1875763Y3285689D01*
X1876378Y3285771D01*
X1876994Y3285838D01*
X1877612Y3285891D01*
X1878231Y3285928D01*
X1878851Y3285951D01*
X1879471Y3285958D01*
X1920529Y3285958D01*
X1921149Y3285951D01*
X1921769Y3285928D01*
X1922388Y3285891D01*
X1923006Y3285838D01*
X1923622Y3285771D01*
X1924237Y3285689D01*
X1924849Y3285592D01*
X1925459Y3285480D01*
X1926066Y3285353D01*
X1926670Y3285212D01*
X1927270Y3285057D01*
X1927867Y3284887D01*
X1928459Y3284702D01*
X1929046Y3284503D01*
X1929629Y3284290D01*
X1930206Y3284064D01*
X1930777Y3283823D01*
X1931343Y3283568D01*
X1931902Y3283300D01*
X1932454Y3283019D01*
X1933000Y3282724D01*
X1933538Y3282416D01*
X1934069Y3282095D01*
X1934592Y3281762D01*
X1935106Y3281416D01*
X1935612Y3281057D01*
X1936110Y3280687D01*
X1936598Y3280304D01*
X1937076Y3279910D01*
X1937545Y3279504D01*
X1938005Y3279088D01*
X1938454Y3278660D01*
X1938892Y3278221D01*
X1939320Y3277772D01*
X1939737Y3277313D01*
X1940142Y3276844D01*
X1940536Y3276365D01*
X1940919Y3275877D01*
X1941289Y3275380D01*
X1941648Y3274874D01*
X1941994Y3274359D01*
X1942327Y3273837D01*
X1942648Y3273306D01*
X1942956Y3272768D01*
X1943251Y3272222D01*
X1943532Y3271670D01*
X1943800Y3271110D01*
X1944055Y3270545D01*
X1944296Y3269973D01*
X1944523Y3269396D01*
X1944735Y3268814D01*
X1944934Y3268226D01*
X1945119Y3267634D01*
X1945289Y3267038D01*
X1945444Y3266438D01*
X1945586Y3265834D01*
X1945712Y3265227D01*
X1945824Y3264617D01*
X1945921Y3264004D01*
X1946003Y3263390D01*
X1946070Y3262773D01*
X1946123Y3262155D01*
X1946160Y3261536D01*
X1946183Y3260917D01*
X1946190Y3260297D01*
X1946190Y3234636D01*
X1910265Y3328503D02*
X1910265Y3390090D01*
X1941058Y3359296D02*
X1879471Y3359296D01*
X2103810Y3078810D02*
X2196190Y3078810D01*
X2196190Y3119868D01*
X2196190Y3156810D02*
X2196190Y3197867D01*
X2196190Y3156810D02*
X2103810Y3156810D01*
X2103810Y3197867D01*
X2144868Y3187603D02*
X2144868Y3156810D01*
X2103810Y3234636D02*
X2196190Y3234636D01*
X2103810Y3234636D02*
X2103810Y3260297D01*
X2103817Y3260917D01*
X2103840Y3261537D01*
X2103877Y3262156D01*
X2103930Y3262774D01*
X2103997Y3263390D01*
X2104079Y3264005D01*
X2104176Y3264617D01*
X2104288Y3265227D01*
X2104415Y3265834D01*
X2104556Y3266438D01*
X2104711Y3267038D01*
X2104881Y3267635D01*
X2105066Y3268227D01*
X2105265Y3268814D01*
X2105478Y3269397D01*
X2105704Y3269974D01*
X2105945Y3270545D01*
X2106200Y3271111D01*
X2106468Y3271670D01*
X2106749Y3272222D01*
X2107044Y3272768D01*
X2107352Y3273306D01*
X2107673Y3273837D01*
X2108006Y3274360D01*
X2108352Y3274874D01*
X2108711Y3275380D01*
X2109081Y3275877D01*
X2109464Y3276366D01*
X2109858Y3276844D01*
X2110263Y3277313D01*
X2110680Y3277773D01*
X2111108Y3278222D01*
X2111546Y3278660D01*
X2111995Y3279088D01*
X2112455Y3279505D01*
X2112924Y3279910D01*
X2113402Y3280304D01*
X2113891Y3280687D01*
X2114388Y3281057D01*
X2114894Y3281416D01*
X2115408Y3281762D01*
X2115931Y3282095D01*
X2116462Y3282416D01*
X2117000Y3282724D01*
X2117546Y3283019D01*
X2118098Y3283300D01*
X2118657Y3283568D01*
X2119223Y3283823D01*
X2119794Y3284064D01*
X2120371Y3284290D01*
X2120954Y3284503D01*
X2121541Y3284702D01*
X2122133Y3284887D01*
X2122730Y3285057D01*
X2123330Y3285212D01*
X2123934Y3285353D01*
X2124541Y3285480D01*
X2125151Y3285592D01*
X2125763Y3285689D01*
X2126378Y3285771D01*
X2126994Y3285838D01*
X2127612Y3285891D01*
X2128231Y3285928D01*
X2128851Y3285951D01*
X2129471Y3285958D01*
X2170529Y3285958D01*
X2171149Y3285951D01*
X2171769Y3285928D01*
X2172388Y3285891D01*
X2173006Y3285838D01*
X2173622Y3285771D01*
X2174237Y3285689D01*
X2174849Y3285592D01*
X2175459Y3285480D01*
X2176066Y3285353D01*
X2176670Y3285212D01*
X2177270Y3285057D01*
X2177867Y3284887D01*
X2178459Y3284702D01*
X2179046Y3284503D01*
X2179629Y3284290D01*
X2180206Y3284064D01*
X2180777Y3283823D01*
X2181343Y3283568D01*
X2181902Y3283300D01*
X2182454Y3283019D01*
X2183000Y3282724D01*
X2183538Y3282416D01*
X2184069Y3282095D01*
X2184592Y3281762D01*
X2185106Y3281416D01*
X2185612Y3281057D01*
X2186110Y3280687D01*
X2186598Y3280304D01*
X2187076Y3279910D01*
X2187545Y3279504D01*
X2188005Y3279088D01*
X2188454Y3278660D01*
X2188892Y3278221D01*
X2189320Y3277772D01*
X2189737Y3277313D01*
X2190142Y3276844D01*
X2190536Y3276365D01*
X2190919Y3275877D01*
X2191289Y3275380D01*
X2191648Y3274874D01*
X2191994Y3274359D01*
X2192327Y3273837D01*
X2192648Y3273306D01*
X2192956Y3272768D01*
X2193251Y3272222D01*
X2193532Y3271670D01*
X2193800Y3271110D01*
X2194055Y3270545D01*
X2194296Y3269973D01*
X2194523Y3269396D01*
X2194735Y3268814D01*
X2194934Y3268226D01*
X2195119Y3267634D01*
X2195289Y3267038D01*
X2195444Y3266438D01*
X2195586Y3265834D01*
X2195712Y3265227D01*
X2195824Y3264617D01*
X2195921Y3264004D01*
X2196003Y3263390D01*
X2196070Y3262773D01*
X2196123Y3262155D01*
X2196160Y3261536D01*
X2196183Y3260917D01*
X2196190Y3260297D01*
X2196190Y3234636D01*
X2160265Y3328503D02*
X2160265Y3390090D01*
D11*
X3250000Y0D02*
X250000Y0D01*
X3500000Y225000D02*
X3500000Y3275000D01*
X3225000Y3500000D02*
X250000Y3500000D01*
X0Y3275000D02*
X0Y225000D01*
X0Y3275000D02*
X371Y3280735D01*
X881Y3286460D01*
X1529Y3292170D01*
X2315Y3297864D01*
X3238Y3303536D01*
X4298Y3309185D01*
X5494Y3314806D01*
X6826Y3320397D01*
X8292Y3325954D01*
X9892Y3331474D01*
X11626Y3336954D01*
X13491Y3342390D01*
X15487Y3347780D01*
X17612Y3353120D01*
X19866Y3358406D01*
X22247Y3363637D01*
X24754Y3368809D01*
X27385Y3373919D01*
X30138Y3378963D01*
X33013Y3383940D01*
X36007Y3388846D01*
X39119Y3393678D01*
X42347Y3398433D01*
X45688Y3403109D01*
X49142Y3407703D01*
X52706Y3412212D01*
X56377Y3416633D01*
X60154Y3420965D01*
X64035Y3425204D01*
X68018Y3429348D01*
X72099Y3433395D01*
X76276Y3437342D01*
X80548Y3441186D01*
X84912Y3444927D01*
X89365Y3448561D01*
X93904Y3452086D01*
X98527Y3455500D01*
X103231Y3458802D01*
X108014Y3461989D01*
X112872Y3465060D01*
X117803Y3468012D01*
X122804Y3470844D01*
X127872Y3473555D01*
X133003Y3476142D01*
X138196Y3478605D01*
X143447Y3480942D01*
X148753Y3483150D01*
X154111Y3485230D01*
X159517Y3487180D01*
X164969Y3488999D01*
X170463Y3490686D01*
X175997Y3492239D01*
X181566Y3493658D01*
X187168Y3494942D01*
X192799Y3496090D01*
X198457Y3497102D01*
X204137Y3497977D01*
X209837Y3498715D01*
X215553Y3499314D01*
X221281Y3499775D01*
X227020Y3500098D01*
X232764Y3500282D01*
X238511Y3500327D01*
X244257Y3500233D01*
X250000Y3500000D01*
X3225000Y3500000D02*
X3231143Y3500538D01*
X3237297Y3500926D01*
X3243459Y3501162D01*
X3249625Y3501247D01*
X3255791Y3501180D01*
X3261953Y3500962D01*
X3268109Y3500594D01*
X3274253Y3500074D01*
X3280383Y3499403D01*
X3286494Y3498582D01*
X3292584Y3497612D01*
X3298648Y3496492D01*
X3304682Y3495224D01*
X3310684Y3493808D01*
X3316649Y3492246D01*
X3322574Y3490537D01*
X3328455Y3488684D01*
X3334289Y3486686D01*
X3340072Y3484546D01*
X3345801Y3482265D01*
X3351472Y3479844D01*
X3357083Y3477285D01*
X3362628Y3474588D01*
X3368106Y3471757D01*
X3373512Y3468792D01*
X3378845Y3465694D01*
X3384099Y3462467D01*
X3389273Y3459113D01*
X3394363Y3455632D01*
X3399366Y3452027D01*
X3404279Y3448300D01*
X3409099Y3444454D01*
X3413823Y3440491D01*
X3418449Y3436414D01*
X3422973Y3432224D01*
X3427393Y3427924D01*
X3431706Y3423517D01*
X3435909Y3419005D01*
X3440001Y3414392D01*
X3443978Y3409679D01*
X3447839Y3404871D01*
X3451580Y3399969D01*
X3455199Y3394977D01*
X3458695Y3389897D01*
X3462066Y3384733D01*
X3465309Y3379489D01*
X3468422Y3374166D01*
X3471403Y3368768D01*
X3474251Y3363299D01*
X3476964Y3357761D01*
X3479540Y3352159D01*
X3481978Y3346495D01*
X3484276Y3340773D01*
X3486433Y3334996D01*
X3488448Y3329168D01*
X3490319Y3323292D01*
X3492045Y3317372D01*
X3493626Y3311412D01*
X3495060Y3305415D01*
X3496346Y3299384D01*
X3497484Y3293323D01*
X3498472Y3287237D01*
X3499311Y3281128D01*
X3500000Y3275000D01*
X3500000Y225000D02*
X3499629Y219265D01*
X3499119Y213540D01*
X3498471Y207830D01*
X3497685Y202136D01*
X3496762Y196464D01*
X3495702Y190815D01*
X3494506Y185194D01*
X3493174Y179603D01*
X3491708Y174046D01*
X3490108Y168526D01*
X3488374Y163046D01*
X3486509Y157610D01*
X3484513Y152220D01*
X3482388Y146880D01*
X3480134Y141594D01*
X3477753Y136363D01*
X3475246Y131191D01*
X3472615Y126081D01*
X3469862Y121037D01*
X3466987Y116060D01*
X3463993Y111154D01*
X3460881Y106322D01*
X3457653Y101567D01*
X3454312Y96891D01*
X3450858Y92297D01*
X3447294Y87788D01*
X3443623Y83367D01*
X3439846Y79035D01*
X3435965Y74796D01*
X3431982Y70652D01*
X3427901Y66605D01*
X3423724Y62658D01*
X3419452Y58814D01*
X3415088Y55073D01*
X3410635Y51439D01*
X3406096Y47914D01*
X3401473Y44500D01*
X3396769Y41198D01*
X3391986Y38011D01*
X3387128Y34940D01*
X3382197Y31988D01*
X3377196Y29156D01*
X3372128Y26445D01*
X3366997Y23858D01*
X3361804Y21395D01*
X3356553Y19058D01*
X3351247Y16850D01*
X3345889Y14770D01*
X3340483Y12820D01*
X3335031Y11001D01*
X3329537Y9314D01*
X3324003Y7761D01*
X3318434Y6342D01*
X3312832Y5058D01*
X3307201Y3910D01*
X3301543Y2898D01*
X3295863Y2023D01*
X3290163Y1285D01*
X3284447Y686D01*
X3278719Y225D01*
X3272980Y-98D01*
X3267236Y-282D01*
X3261489Y-327D01*
X3255743Y-233D01*
X3250000Y0D01*
X250000Y0D02*
X244257Y-233D01*
X238511Y-327D01*
X232764Y-282D01*
X227020Y-98D01*
X221281Y225D01*
X215553Y686D01*
X209837Y1285D01*
X204137Y2023D01*
X198457Y2898D01*
X192799Y3910D01*
X187168Y5058D01*
X181566Y6342D01*
X175997Y7761D01*
X170463Y9314D01*
X164969Y11001D01*
X159517Y12820D01*
X154111Y14770D01*
X148753Y16850D01*
X143447Y19058D01*
X138196Y21395D01*
X133003Y23858D01*
X127872Y26445D01*
X122804Y29156D01*
X117803Y31988D01*
X112872Y34940D01*
X108014Y38011D01*
X103231Y41198D01*
X98527Y44500D01*
X93904Y47914D01*
X89365Y51439D01*
X84912Y55073D01*
X80548Y58814D01*
X76276Y62658D01*
X72099Y66605D01*
X68018Y70652D01*
X64035Y74796D01*
X60154Y79035D01*
X56377Y83367D01*
X52706Y87788D01*
X49142Y92297D01*
X45688Y96891D01*
X42347Y101567D01*
X39119Y106322D01*
X36007Y111154D01*
X33013Y116060D01*
X30138Y121037D01*
X27385Y126081D01*
X24754Y131191D01*
X22247Y136363D01*
X19866Y141594D01*
X17612Y146880D01*
X15487Y152220D01*
X13491Y157610D01*
X11626Y163046D01*
X9892Y168526D01*
X8292Y174046D01*
X6826Y179603D01*
X5494Y185194D01*
X4298Y190815D01*
X3238Y196464D01*
X2315Y202136D01*
X1529Y207830D01*
X881Y213540D01*
X371Y219265D01*
X0Y225000D01*
D10*
X946190Y3099339D02*
X946190Y3119868D01*
X946190Y3099339D02*
X946184Y3098843D01*
X946166Y3098347D01*
X946136Y3097852D01*
X946094Y3097358D01*
X946040Y3096865D01*
X945975Y3096373D01*
X945897Y3095883D01*
X945808Y3095395D01*
X945706Y3094909D01*
X945593Y3094426D01*
X945469Y3093946D01*
X945333Y3093469D01*
X945185Y3092995D01*
X945026Y3092525D01*
X944856Y3092059D01*
X944674Y3091598D01*
X944482Y3091140D01*
X944278Y3090688D01*
X944064Y3090241D01*
X943839Y3089799D01*
X943603Y3089362D01*
X943356Y3088932D01*
X943100Y3088507D01*
X942833Y3088089D01*
X942556Y3087677D01*
X942269Y3087272D01*
X941973Y3086875D01*
X941667Y3086484D01*
X941352Y3086101D01*
X941027Y3085726D01*
X940694Y3085358D01*
X940352Y3084999D01*
X940001Y3084648D01*
X939642Y3084306D01*
X939274Y3083973D01*
X938899Y3083648D01*
X938516Y3083333D01*
X938125Y3083027D01*
X937728Y3082731D01*
X937323Y3082444D01*
X936911Y3082167D01*
X936493Y3081900D01*
X936068Y3081644D01*
X935638Y3081397D01*
X935201Y3081161D01*
X934759Y3080936D01*
X934312Y3080722D01*
X933860Y3080518D01*
X933402Y3080326D01*
X932941Y3080144D01*
X932475Y3079974D01*
X932005Y3079815D01*
X931531Y3079667D01*
X931054Y3079531D01*
X930574Y3079407D01*
X930091Y3079294D01*
X929605Y3079192D01*
X929117Y3079103D01*
X928627Y3079025D01*
X928135Y3078960D01*
X927642Y3078906D01*
X927148Y3078864D01*
X926653Y3078834D01*
X926157Y3078816D01*
X925661Y3078810D01*
X874339Y3078810D01*
X873835Y3078816D01*
X873332Y3078835D01*
X872829Y3078866D01*
X872327Y3078909D01*
X871826Y3078964D01*
X871327Y3079032D01*
X870829Y3079112D01*
X870334Y3079204D01*
X869841Y3079309D01*
X869351Y3079425D01*
X868864Y3079554D01*
X868380Y3079694D01*
X867900Y3079846D01*
X867423Y3080010D01*
X866951Y3080186D01*
X866483Y3080373D01*
X866020Y3080571D01*
X865562Y3080781D01*
X865109Y3081002D01*
X864662Y3081234D01*
X864220Y3081477D01*
X863785Y3081731D01*
X863356Y3081995D01*
X862934Y3082270D01*
X862518Y3082555D01*
X862110Y3082850D01*
X861709Y3083155D01*
X861316Y3083470D01*
X860930Y3083794D01*
X860553Y3084128D01*
X860184Y3084471D01*
X859823Y3084823D01*
X859471Y3085183D01*
X859128Y3085552D01*
X858794Y3085930D01*
X858470Y3086315D01*
X858155Y3086709D01*
X857850Y3087110D01*
X857555Y3087518D01*
X857270Y3087933D01*
X856995Y3088356D01*
X856731Y3088785D01*
X856477Y3089220D01*
X856234Y3089661D01*
X856002Y3090109D01*
X855781Y3090561D01*
X855571Y3091019D01*
X855373Y3091482D01*
X855186Y3091950D01*
X855010Y3092423D01*
X854846Y3092899D01*
X854694Y3093379D01*
X854554Y3093863D01*
X854425Y3094350D01*
X854309Y3094841D01*
X854205Y3095333D01*
X854112Y3095829D01*
X854032Y3096326D01*
X853964Y3096825D01*
X853909Y3097326D01*
X853866Y3097828D01*
X853835Y3098331D01*
X853816Y3098835D01*
X853810Y3099338D01*
X853810Y3099339D02*
X853810Y3119868D01*
X853810Y3179726D02*
X946190Y3148933D01*
X946190Y3210519D02*
X853810Y3179726D01*
X923095Y3202821D02*
X923095Y3156631D01*
X946190Y3247064D02*
X853810Y3247064D01*
X946190Y3298387D01*
X853810Y3298387D01*
X853810Y3343064D02*
X946190Y3343064D01*
X894868Y3343064D02*
X894868Y3394386D01*
X853810Y3394386D02*
X946190Y3394386D01*
X696190Y3119868D02*
X696190Y3099339D01*
X696184Y3098843D01*
X696166Y3098347D01*
X696136Y3097852D01*
X696094Y3097358D01*
X696040Y3096865D01*
X695975Y3096373D01*
X695897Y3095883D01*
X695808Y3095395D01*
X695706Y3094909D01*
X695593Y3094426D01*
X695469Y3093946D01*
X695333Y3093469D01*
X695185Y3092995D01*
X695026Y3092525D01*
X694856Y3092059D01*
X694674Y3091598D01*
X694482Y3091140D01*
X694278Y3090688D01*
X694064Y3090241D01*
X693839Y3089799D01*
X693603Y3089362D01*
X693356Y3088932D01*
X693100Y3088507D01*
X692833Y3088089D01*
X692556Y3087677D01*
X692269Y3087272D01*
X691973Y3086875D01*
X691667Y3086484D01*
X691352Y3086101D01*
X691027Y3085726D01*
X690694Y3085358D01*
X690352Y3084999D01*
X690001Y3084648D01*
X689642Y3084306D01*
X689274Y3083973D01*
X688899Y3083648D01*
X688516Y3083333D01*
X688125Y3083027D01*
X687728Y3082731D01*
X687323Y3082444D01*
X686911Y3082167D01*
X686493Y3081900D01*
X686068Y3081644D01*
X685638Y3081397D01*
X685201Y3081161D01*
X684759Y3080936D01*
X684312Y3080722D01*
X683860Y3080518D01*
X683402Y3080326D01*
X682941Y3080144D01*
X682475Y3079974D01*
X682005Y3079815D01*
X681531Y3079667D01*
X681054Y3079531D01*
X680574Y3079407D01*
X680091Y3079294D01*
X679605Y3079192D01*
X679117Y3079103D01*
X678627Y3079025D01*
X678135Y3078960D01*
X677642Y3078906D01*
X677148Y3078864D01*
X676653Y3078834D01*
X676157Y3078816D01*
X675661Y3078810D01*
X624339Y3078810D01*
X623835Y3078816D01*
X623332Y3078835D01*
X622829Y3078866D01*
X622327Y3078909D01*
X621826Y3078964D01*
X621327Y3079032D01*
X620829Y3079112D01*
X620334Y3079204D01*
X619841Y3079309D01*
X619351Y3079425D01*
X618864Y3079554D01*
X618380Y3079694D01*
X617900Y3079846D01*
X617423Y3080010D01*
X616951Y3080186D01*
X616483Y3080373D01*
X616020Y3080571D01*
X615562Y3080781D01*
X615109Y3081002D01*
X614662Y3081234D01*
X614220Y3081477D01*
X613785Y3081731D01*
X613356Y3081995D01*
X612934Y3082270D01*
X612518Y3082555D01*
X612110Y3082850D01*
X611709Y3083155D01*
X611316Y3083470D01*
X610930Y3083794D01*
X610553Y3084128D01*
X610184Y3084471D01*
X609823Y3084823D01*
X609471Y3085183D01*
X609128Y3085552D01*
X608794Y3085930D01*
X608470Y3086315D01*
X608155Y3086709D01*
X607850Y3087110D01*
X607555Y3087518D01*
X607270Y3087933D01*
X606995Y3088356D01*
X606731Y3088785D01*
X606477Y3089220D01*
X606234Y3089661D01*
X606002Y3090109D01*
X605781Y3090561D01*
X605571Y3091019D01*
X605373Y3091482D01*
X605186Y3091950D01*
X605010Y3092423D01*
X604846Y3092899D01*
X604694Y3093379D01*
X604554Y3093863D01*
X604425Y3094350D01*
X604309Y3094841D01*
X604205Y3095333D01*
X604112Y3095829D01*
X604032Y3096326D01*
X603964Y3096825D01*
X603909Y3097326D01*
X603866Y3097828D01*
X603835Y3098331D01*
X603816Y3098835D01*
X603810Y3099338D01*
X603810Y3099339D02*
X603810Y3119868D01*
X603810Y3179726D02*
X696190Y3148933D01*
X696190Y3210519D02*
X603810Y3179726D01*
X673095Y3202821D02*
X673095Y3156631D01*
X696190Y3247064D02*
X603810Y3247064D01*
X696190Y3298387D01*
X603810Y3298387D01*
X603810Y3343238D02*
X696190Y3343238D01*
X696190Y3384295D01*
D11*
X3225000Y3500000D02*
X3231143Y3500538D01*
X3237297Y3500926D01*
X3243459Y3501162D01*
X3249625Y3501247D01*
X3255791Y3501180D01*
X3261953Y3500962D01*
X3268109Y3500594D01*
X3274253Y3500074D01*
X3280383Y3499403D01*
X3286494Y3498582D01*
X3292584Y3497612D01*
X3298648Y3496492D01*
X3304682Y3495224D01*
X3310684Y3493808D01*
X3316649Y3492246D01*
X3322574Y3490537D01*
X3328455Y3488684D01*
X3334289Y3486686D01*
X3340072Y3484546D01*
X3345801Y3482265D01*
X3351472Y3479844D01*
X3357083Y3477285D01*
X3362628Y3474588D01*
X3368106Y3471757D01*
X3373512Y3468792D01*
X3378845Y3465694D01*
X3384099Y3462467D01*
X3389273Y3459113D01*
X3394363Y3455632D01*
X3399366Y3452027D01*
X3404279Y3448300D01*
X3409099Y3444454D01*
X3413823Y3440491D01*
X3418449Y3436414D01*
X3422973Y3432224D01*
X3427393Y3427924D01*
X3431706Y3423517D01*
X3435909Y3419005D01*
X3440001Y3414392D01*
X3443978Y3409679D01*
X3447839Y3404871D01*
X3451580Y3399969D01*
X3455199Y3394977D01*
X3458695Y3389897D01*
X3462066Y3384733D01*
X3465309Y3379489D01*
X3468422Y3374166D01*
X3471403Y3368768D01*
X3474251Y3363299D01*
X3476964Y3357761D01*
X3479540Y3352159D01*
X3481978Y3346495D01*
X3484276Y3340773D01*
X3486433Y3334996D01*
X3488448Y3329168D01*
X3490319Y3323292D01*
X3492045Y3317372D01*
X3493626Y3311412D01*
X3495060Y3305415D01*
X3496346Y3299384D01*
X3497484Y3293323D01*
X3498472Y3287237D01*
X3499311Y3281128D01*
X3500000Y3275000D01*
X3500000Y225000D02*
X3499629Y219265D01*
X3499119Y213540D01*
X3498471Y207830D01*
X3497685Y202136D01*
X3496762Y196464D01*
X3495702Y190815D01*
X3494506Y185194D01*
X3493174Y179603D01*
X3491708Y174046D01*
X3490108Y168526D01*
X3488374Y163046D01*
X3486509Y157610D01*
X3484513Y152220D01*
X3482388Y146880D01*
X3480134Y141594D01*
X3477753Y136363D01*
X3475246Y131191D01*
X3472615Y126081D01*
X3469862Y121037D01*
X3466987Y116060D01*
X3463993Y111154D01*
X3460881Y106322D01*
X3457653Y101567D01*
X3454312Y96891D01*
X3450858Y92297D01*
X3447294Y87788D01*
X3443623Y83367D01*
X3439846Y79035D01*
X3435965Y74796D01*
X3431982Y70652D01*
X3427901Y66605D01*
X3423724Y62658D01*
X3419452Y58814D01*
X3415088Y55073D01*
X3410635Y51439D01*
X3406096Y47914D01*
X3401473Y44500D01*
X3396769Y41198D01*
X3391986Y38011D01*
X3387128Y34940D01*
X3382197Y31988D01*
X3377196Y29156D01*
X3372128Y26445D01*
X3366997Y23858D01*
X3361804Y21395D01*
X3356553Y19058D01*
X3351247Y16850D01*
X3345889Y14770D01*
X3340483Y12820D01*
X3335031Y11001D01*
X3329537Y9314D01*
X3324003Y7761D01*
X3318434Y6342D01*
X3312832Y5058D01*
X3307201Y3910D01*
X3301543Y2898D01*
X3295863Y2023D01*
X3290163Y1285D01*
X3284447Y686D01*
X3278719Y225D01*
X3272980Y-98D01*
X3267236Y-282D01*
X3261489Y-327D01*
X3255743Y-233D01*
X3250000Y0D01*
X250000Y0D02*
X244257Y-233D01*
X238511Y-327D01*
X232764Y-282D01*
X227020Y-98D01*
X221281Y225D01*
X215553Y686D01*
X209837Y1285D01*
X204137Y2023D01*
X198457Y2898D01*
X192799Y3910D01*
X187168Y5058D01*
X181566Y6342D01*
X175997Y7761D01*
X170463Y9314D01*
X164969Y11001D01*
X159517Y12820D01*
X154111Y14770D01*
X148753Y16850D01*
X143447Y19058D01*
X138196Y21395D01*
X133003Y23858D01*
X127872Y26445D01*
X122804Y29156D01*
X117803Y31988D01*
X112872Y34940D01*
X108014Y38011D01*
X103231Y41198D01*
X98527Y44500D01*
X93904Y47914D01*
X89365Y51439D01*
X84912Y55073D01*
X80548Y58814D01*
X76276Y62658D01*
X72099Y66605D01*
X68018Y70652D01*
X64035Y74796D01*
X60154Y79035D01*
X56377Y83367D01*
X52706Y87788D01*
X49142Y92297D01*
X45688Y96891D01*
X42347Y101567D01*
X39119Y106322D01*
X36007Y111154D01*
X33013Y116060D01*
X30138Y121037D01*
X27385Y126081D01*
X24754Y131191D01*
X22247Y136363D01*
X19866Y141594D01*
X17612Y146880D01*
X15487Y152220D01*
X13491Y157610D01*
X11626Y163046D01*
X9892Y168526D01*
X8292Y174046D01*
X6826Y179603D01*
X5494Y185194D01*
X4298Y190815D01*
X3238Y196464D01*
X2315Y202136D01*
X1529Y207830D01*
X881Y213540D01*
X371Y219265D01*
X0Y225000D01*
D12*
X1875000Y2400000D02*
X2175000Y2400000D01*
X2175000Y2100000D02*
X1875000Y2100000D01*
D13*
X1815000Y2450000D02*
X1815003Y2450245D01*
X1815012Y2450491D01*
X1815027Y2450736D01*
X1815048Y2450980D01*
X1815075Y2451224D01*
X1815108Y2451467D01*
X1815147Y2451710D01*
X1815192Y2451951D01*
X1815243Y2452191D01*
X1815300Y2452430D01*
X1815362Y2452667D01*
X1815431Y2452903D01*
X1815505Y2453137D01*
X1815585Y2453369D01*
X1815670Y2453599D01*
X1815761Y2453827D01*
X1815858Y2454052D01*
X1815960Y2454276D01*
X1816068Y2454496D01*
X1816181Y2454714D01*
X1816299Y2454929D01*
X1816423Y2455141D01*
X1816551Y2455350D01*
X1816685Y2455556D01*
X1816824Y2455758D01*
X1816968Y2455957D01*
X1817117Y2456152D01*
X1817270Y2456344D01*
X1817428Y2456532D01*
X1817590Y2456716D01*
X1817758Y2456895D01*
X1817929Y2457071D01*
X1818105Y2457242D01*
X1818284Y2457410D01*
X1818468Y2457572D01*
X1818656Y2457730D01*
X1818848Y2457883D01*
X1819043Y2458032D01*
X1819242Y2458176D01*
X1819444Y2458315D01*
X1819650Y2458449D01*
X1819859Y2458577D01*
X1820071Y2458701D01*
X1820286Y2458819D01*
X1820504Y2458932D01*
X1820724Y2459040D01*
X1820948Y2459142D01*
X1821173Y2459239D01*
X1821401Y2459330D01*
X1821631Y2459415D01*
X1821863Y2459495D01*
X1822097Y2459569D01*
X1822333Y2459638D01*
X1822570Y2459700D01*
X1822809Y2459757D01*
X1823049Y2459808D01*
X1823290Y2459853D01*
X1823533Y2459892D01*
X1823776Y2459925D01*
X1824020Y2459952D01*
X1824264Y2459973D01*
X1824509Y2459988D01*
X1824755Y2459997D01*
X1825000Y2460000D01*
X1825245Y2459997D01*
X1825491Y2459988D01*
X1825736Y2459973D01*
X1825980Y2459952D01*
X1826224Y2459925D01*
X1826467Y2459892D01*
X1826710Y2459853D01*
X1826951Y2459808D01*
X1827191Y2459757D01*
X1827430Y2459700D01*
X1827667Y2459638D01*
X1827903Y2459569D01*
X1828137Y2459495D01*
X1828369Y2459415D01*
X1828599Y2459330D01*
X1828827Y2459239D01*
X1829052Y2459142D01*
X1829276Y2459040D01*
X1829496Y2458932D01*
X1829714Y2458819D01*
X1829929Y2458701D01*
X1830141Y2458577D01*
X1830350Y2458449D01*
X1830556Y2458315D01*
X1830758Y2458176D01*
X1830957Y2458032D01*
X1831152Y2457883D01*
X1831344Y2457730D01*
X1831532Y2457572D01*
X1831716Y2457410D01*
X1831895Y2457242D01*
X1832071Y2457071D01*
X1832242Y2456895D01*
X1832410Y2456716D01*
X1832572Y2456532D01*
X1832730Y2456344D01*
X1832883Y2456152D01*
X1833032Y2455957D01*
X1833176Y2455758D01*
X1833315Y2455556D01*
X1833449Y2455350D01*
X1833577Y2455141D01*
X1833701Y2454929D01*
X1833819Y2454714D01*
X1833932Y2454496D01*
X1834040Y2454276D01*
X1834142Y2454052D01*
X1834239Y2453827D01*
X1834330Y2453599D01*
X1834415Y2453369D01*
X1834495Y2453137D01*
X1834569Y2452903D01*
X1834638Y2452667D01*
X1834700Y2452430D01*
X1834757Y2452191D01*
X1834808Y2451951D01*
X1834853Y2451710D01*
X1834892Y2451467D01*
X1834925Y2451224D01*
X1834952Y2450980D01*
X1834973Y2450736D01*
X1834988Y2450491D01*
X1834997Y2450245D01*
X1835000Y2450000D01*
X1834997Y2449755D01*
X1834988Y2449509D01*
X1834973Y2449264D01*
X1834952Y2449020D01*
X1834925Y2448776D01*
X1834892Y2448533D01*
X1834853Y2448290D01*
X1834808Y2448049D01*
X1834757Y2447809D01*
X1834700Y2447570D01*
X1834638Y2447333D01*
X1834569Y2447097D01*
X1834495Y2446863D01*
X1834415Y2446631D01*
X1834330Y2446401D01*
X1834239Y2446173D01*
X1834142Y2445948D01*
X1834040Y2445724D01*
X1833932Y2445504D01*
X1833819Y2445286D01*
X1833701Y2445071D01*
X1833577Y2444859D01*
X1833449Y2444650D01*
X1833315Y2444444D01*
X1833176Y2444242D01*
X1833032Y2444043D01*
X1832883Y2443848D01*
X1832730Y2443656D01*
X1832572Y2443468D01*
X1832410Y2443284D01*
X1832242Y2443105D01*
X1832071Y2442929D01*
X1831895Y2442758D01*
X1831716Y2442590D01*
X1831532Y2442428D01*
X1831344Y2442270D01*
X1831152Y2442117D01*
X1830957Y2441968D01*
X1830758Y2441824D01*
X1830556Y2441685D01*
X1830350Y2441551D01*
X1830141Y2441423D01*
X1829929Y2441299D01*
X1829714Y2441181D01*
X1829496Y2441068D01*
X1829276Y2440960D01*
X1829052Y2440858D01*
X1828827Y2440761D01*
X1828599Y2440670D01*
X1828369Y2440585D01*
X1828137Y2440505D01*
X1827903Y2440431D01*
X1827667Y2440362D01*
X1827430Y2440300D01*
X1827191Y2440243D01*
X1826951Y2440192D01*
X1826710Y2440147D01*
X1826467Y2440108D01*
X1826224Y2440075D01*
X1825980Y2440048D01*
X1825736Y2440027D01*
X1825491Y2440012D01*
X1825245Y2440003D01*
X1825000Y2440000D01*
X1824755Y2440003D01*
X1824509Y2440012D01*
X1824264Y2440027D01*
X1824020Y2440048D01*
X1823776Y2440075D01*
X1823533Y2440108D01*
X1823290Y2440147D01*
X1823049Y2440192D01*
X1822809Y2440243D01*
X1822570Y2440300D01*
X1822333Y2440362D01*
X1822097Y2440431D01*
X1821863Y2440505D01*
X1821631Y2440585D01*
X1821401Y2440670D01*
X1821173Y2440761D01*
X1820948Y2440858D01*
X1820724Y2440960D01*
X1820504Y2441068D01*
X1820286Y2441181D01*
X1820071Y2441299D01*
X1819859Y2441423D01*
X1819650Y2441551D01*
X1819444Y2441685D01*
X1819242Y2441824D01*
X1819043Y2441968D01*
X1818848Y2442117D01*
X1818656Y2442270D01*
X1818468Y2442428D01*
X1818284Y2442590D01*
X1818105Y2442758D01*
X1817929Y2442929D01*
X1817758Y2443105D01*
X1817590Y2443284D01*
X1817428Y2443468D01*
X1817270Y2443656D01*
X1817117Y2443848D01*
X1816968Y2444043D01*
X1816824Y2444242D01*
X1816685Y2444444D01*
X1816551Y2444650D01*
X1816423Y2444859D01*
X1816299Y2445071D01*
X1816181Y2445286D01*
X1816068Y2445504D01*
X1815960Y2445724D01*
X1815858Y2445948D01*
X1815761Y2446173D01*
X1815670Y2446401D01*
X1815585Y2446631D01*
X1815505Y2446863D01*
X1815431Y2447097D01*
X1815362Y2447333D01*
X1815300Y2447570D01*
X1815243Y2447809D01*
X1815192Y2448049D01*
X1815147Y2448290D01*
X1815108Y2448533D01*
X1815075Y2448776D01*
X1815048Y2449020D01*
X1815027Y2449264D01*
X1815012Y2449509D01*
X1815003Y2449755D01*
X1815000Y2450000D01*
D12*
X1875000Y2430000D02*
X1875000Y2400000D01*
X2175000Y2400000D02*
X2175000Y2430000D01*
X1875000Y2100000D02*
X1875000Y2070000D01*
X2175000Y2070000D02*
X2175000Y2100000D01*
D10*
X1943802Y2071190D02*
X1943802Y1978810D01*
X1933538Y1978810D02*
X1954066Y1978810D01*
X1954066Y2071190D02*
X1933538Y2071190D01*
X2010414Y1978810D02*
X2030943Y1978810D01*
X2010414Y1978810D02*
X2009918Y1978816D01*
X2009422Y1978834D01*
X2008927Y1978864D01*
X2008433Y1978906D01*
X2007940Y1978960D01*
X2007448Y1979025D01*
X2006958Y1979103D01*
X2006470Y1979192D01*
X2005984Y1979294D01*
X2005501Y1979407D01*
X2005021Y1979531D01*
X2004544Y1979667D01*
X2004070Y1979815D01*
X2003600Y1979974D01*
X2003134Y1980144D01*
X2002673Y1980326D01*
X2002215Y1980518D01*
X2001763Y1980722D01*
X2001316Y1980936D01*
X2000874Y1981161D01*
X2000437Y1981397D01*
X2000007Y1981644D01*
X1999582Y1981900D01*
X1999164Y1982167D01*
X1998752Y1982444D01*
X1998347Y1982731D01*
X1997950Y1983027D01*
X1997559Y1983333D01*
X1997176Y1983648D01*
X1996801Y1983973D01*
X1996433Y1984306D01*
X1996074Y1984648D01*
X1995723Y1984999D01*
X1995381Y1985358D01*
X1995048Y1985726D01*
X1994723Y1986101D01*
X1994408Y1986484D01*
X1994102Y1986875D01*
X1993806Y1987272D01*
X1993519Y1987677D01*
X1993242Y1988089D01*
X1992975Y1988507D01*
X1992719Y1988932D01*
X1992472Y1989362D01*
X1992236Y1989799D01*
X1992011Y1990241D01*
X1991797Y1990688D01*
X1991593Y1991140D01*
X1991401Y1991598D01*
X1991219Y1992059D01*
X1991049Y1992525D01*
X1990890Y1992995D01*
X1990742Y1993469D01*
X1990606Y1993946D01*
X1990482Y1994426D01*
X1990369Y1994909D01*
X1990267Y1995395D01*
X1990178Y1995883D01*
X1990100Y1996373D01*
X1990035Y1996865D01*
X1989981Y1997358D01*
X1989939Y1997852D01*
X1989909Y1998347D01*
X1989891Y1998843D01*
X1989885Y1999339D01*
X1989886Y1999339D02*
X1989886Y2050661D01*
X1989892Y2051165D01*
X1989911Y2051668D01*
X1989942Y2052171D01*
X1989985Y2052673D01*
X1990040Y2053174D01*
X1990108Y2053673D01*
X1990188Y2054171D01*
X1990280Y2054666D01*
X1990385Y2055159D01*
X1990501Y2055649D01*
X1990630Y2056136D01*
X1990770Y2056620D01*
X1990922Y2057101D01*
X1991086Y2057577D01*
X1991262Y2058049D01*
X1991449Y2058517D01*
X1991647Y2058980D01*
X1991857Y2059438D01*
X1992078Y2059891D01*
X1992310Y2060338D01*
X1992553Y2060780D01*
X1992807Y2061215D01*
X1993071Y2061644D01*
X1993346Y2062066D01*
X1993631Y2062482D01*
X1993926Y2062890D01*
X1994231Y2063291D01*
X1994546Y2063684D01*
X1994870Y2064070D01*
X1995204Y2064447D01*
X1995547Y2064816D01*
X1995899Y2065177D01*
X1996259Y2065529D01*
X1996628Y2065872D01*
X1997006Y2066206D01*
X1997391Y2066530D01*
X1997785Y2066845D01*
X1998186Y2067150D01*
X1998594Y2067445D01*
X1999010Y2067730D01*
X1999432Y2068005D01*
X1999861Y2068269D01*
X2000296Y2068523D01*
X2000738Y2068766D01*
X2001185Y2068998D01*
X2001638Y2069219D01*
X2002096Y2069429D01*
X2002559Y2069627D01*
X2003026Y2069814D01*
X2003499Y2069990D01*
X2003975Y2070154D01*
X2004456Y2070306D01*
X2004939Y2070446D01*
X2005427Y2070575D01*
X2005917Y2070691D01*
X2006410Y2070795D01*
X2006905Y2070888D01*
X2007402Y2070968D01*
X2007902Y2071036D01*
X2008403Y2071091D01*
X2008904Y2071134D01*
X2009407Y2071165D01*
X2009911Y2071184D01*
X2010415Y2071190D01*
X2010414Y2071190D02*
X2030943Y2071190D01*
X2065140Y2030132D02*
X2095933Y2030132D01*
X2096429Y2030126D01*
X2096925Y2030108D01*
X2097420Y2030078D01*
X2097914Y2030036D01*
X2098407Y2029982D01*
X2098899Y2029917D01*
X2099389Y2029839D01*
X2099877Y2029750D01*
X2100363Y2029648D01*
X2100846Y2029535D01*
X2101326Y2029411D01*
X2101803Y2029275D01*
X2102277Y2029127D01*
X2102747Y2028968D01*
X2103213Y2028798D01*
X2103674Y2028616D01*
X2104132Y2028424D01*
X2104584Y2028220D01*
X2105031Y2028006D01*
X2105473Y2027781D01*
X2105910Y2027545D01*
X2106340Y2027298D01*
X2106765Y2027042D01*
X2107183Y2026775D01*
X2107595Y2026498D01*
X2108000Y2026211D01*
X2108397Y2025915D01*
X2108788Y2025609D01*
X2109171Y2025294D01*
X2109546Y2024969D01*
X2109914Y2024636D01*
X2110273Y2024294D01*
X2110624Y2023943D01*
X2110966Y2023584D01*
X2111299Y2023216D01*
X2111624Y2022841D01*
X2111939Y2022458D01*
X2112245Y2022067D01*
X2112541Y2021670D01*
X2112828Y2021265D01*
X2113105Y2020853D01*
X2113372Y2020435D01*
X2113628Y2020010D01*
X2113875Y2019580D01*
X2114111Y2019143D01*
X2114336Y2018701D01*
X2114550Y2018254D01*
X2114754Y2017802D01*
X2114946Y2017344D01*
X2115128Y2016883D01*
X2115298Y2016417D01*
X2115457Y2015947D01*
X2115605Y2015473D01*
X2115741Y2014996D01*
X2115865Y2014516D01*
X2115978Y2014033D01*
X2116080Y2013547D01*
X2116169Y2013059D01*
X2116247Y2012569D01*
X2116312Y2012077D01*
X2116366Y2011584D01*
X2116408Y2011090D01*
X2116438Y2010595D01*
X2116456Y2010099D01*
X2116462Y2009603D01*
X2116463Y2009603D02*
X2116463Y2004471D01*
X2116462Y2004471D02*
X2116454Y2003846D01*
X2116432Y2003222D01*
X2116394Y2002598D01*
X2116340Y2001975D01*
X2116272Y2001354D01*
X2116189Y2000735D01*
X2116090Y2000118D01*
X2115977Y1999503D01*
X2115848Y1998892D01*
X2115705Y1998283D01*
X2115547Y1997679D01*
X2115374Y1997078D01*
X2115187Y1996482D01*
X2114985Y1995890D01*
X2114769Y1995304D01*
X2114538Y1994723D01*
X2114294Y1994148D01*
X2114036Y1993579D01*
X2113764Y1993016D01*
X2113478Y1992461D01*
X2113179Y1991912D01*
X2112866Y1991371D01*
X2112541Y1990837D01*
X2112202Y1990312D01*
X2111851Y1989795D01*
X2111487Y1989287D01*
X2111112Y1988788D01*
X2110724Y1988298D01*
X2110324Y1987817D01*
X2109913Y1987347D01*
X2109490Y1986887D01*
X2109056Y1986437D01*
X2108612Y1985998D01*
X2108157Y1985569D01*
X2107691Y1985152D01*
X2107216Y1984747D01*
X2106730Y1984353D01*
X2106236Y1983971D01*
X2105732Y1983601D01*
X2105219Y1983244D01*
X2104698Y1982899D01*
X2104169Y1982567D01*
X2103632Y1982248D01*
X2103087Y1981942D01*
X2102534Y1981650D01*
X2101975Y1981371D01*
X2101409Y1981105D01*
X2100837Y1980854D01*
X2100259Y1980617D01*
X2099675Y1980393D01*
X2099086Y1980184D01*
X2098493Y1979990D01*
X2097894Y1979810D01*
X2097292Y1979644D01*
X2096685Y1979494D01*
X2096075Y1979358D01*
X2095462Y1979237D01*
X2094846Y1979131D01*
X2094228Y1979040D01*
X2093608Y1978964D01*
X2092986Y1978903D01*
X2092362Y1978858D01*
X2091738Y1978827D01*
X2091113Y1978812D01*
X2090489Y1978812D01*
X2089864Y1978827D01*
X2089240Y1978858D01*
X2088616Y1978903D01*
X2087994Y1978964D01*
X2087374Y1979040D01*
X2086756Y1979131D01*
X2086140Y1979237D01*
X2085527Y1979358D01*
X2084917Y1979494D01*
X2084310Y1979644D01*
X2083708Y1979810D01*
X2083109Y1979990D01*
X2082516Y1980184D01*
X2081927Y1980393D01*
X2081343Y1980617D01*
X2080765Y1980854D01*
X2080193Y1981105D01*
X2079627Y1981371D01*
X2079068Y1981650D01*
X2078515Y1981942D01*
X2077971Y1982248D01*
X2077433Y1982567D01*
X2076904Y1982899D01*
X2076383Y1983244D01*
X2075870Y1983601D01*
X2075366Y1983971D01*
X2074872Y1984353D01*
X2074386Y1984747D01*
X2073911Y1985152D01*
X2073445Y1985569D01*
X2072990Y1985998D01*
X2072546Y1986437D01*
X2072112Y1986887D01*
X2071689Y1987347D01*
X2071278Y1987817D01*
X2070878Y1988298D01*
X2070490Y1988788D01*
X2070115Y1989287D01*
X2069751Y1989795D01*
X2069400Y1990312D01*
X2069061Y1990837D01*
X2068736Y1991371D01*
X2068423Y1991912D01*
X2068124Y1992461D01*
X2067838Y1993016D01*
X2067566Y1993579D01*
X2067308Y1994148D01*
X2067064Y1994723D01*
X2066833Y1995304D01*
X2066617Y1995890D01*
X2066415Y1996482D01*
X2066228Y1997078D01*
X2066055Y1997679D01*
X2065897Y1998283D01*
X2065754Y1998892D01*
X2065625Y1999503D01*
X2065512Y2000118D01*
X2065413Y2000735D01*
X2065330Y2001354D01*
X2065262Y2001975D01*
X2065208Y2002598D01*
X2065170Y2003222D01*
X2065148Y2003846D01*
X2065140Y2004471D01*
X2065140Y2030132D01*
X2065152Y2031140D01*
X2065189Y2032147D01*
X2065251Y2033152D01*
X2065338Y2034156D01*
X2065449Y2035158D01*
X2065584Y2036156D01*
X2065744Y2037151D01*
X2065929Y2038142D01*
X2066138Y2039128D01*
X2066370Y2040108D01*
X2066627Y2041083D01*
X2066908Y2042050D01*
X2067212Y2043011D01*
X2067540Y2043964D01*
X2067891Y2044909D01*
X2068265Y2045844D01*
X2068662Y2046770D01*
X2069082Y2047686D01*
X2069524Y2048592D01*
X2069988Y2049487D01*
X2070474Y2050369D01*
X2070981Y2051240D01*
X2071510Y2052098D01*
X2072059Y2052943D01*
X2072630Y2053773D01*
X2073220Y2054590D01*
X2073830Y2055392D01*
X2074460Y2056179D01*
X2075108Y2056950D01*
X2075776Y2057705D01*
X2076462Y2058443D01*
X2077165Y2059164D01*
X2077887Y2059868D01*
X2078625Y2060554D01*
X2079380Y2061221D01*
X2080151Y2061870D01*
X2080938Y2062500D01*
X2081740Y2063110D01*
X2082556Y2063700D01*
X2083387Y2064270D01*
X2084232Y2064820D01*
X2085090Y2065349D01*
X2085960Y2065856D01*
X2086843Y2066342D01*
X2087738Y2066806D01*
X2088643Y2067248D01*
X2089559Y2067668D01*
X2090486Y2068065D01*
X2091421Y2068439D01*
X2092366Y2068790D01*
X2093319Y2069118D01*
X2094279Y2069422D01*
X2095247Y2069703D01*
X2096221Y2069959D01*
X2097202Y2070192D01*
X2098188Y2070401D01*
X2099178Y2070585D01*
X2100173Y2070746D01*
X2101172Y2070881D01*
X2102173Y2070992D01*
X2103177Y2071079D01*
X2104183Y2071141D01*
X2105190Y2071178D01*
X2106198Y2071190D01*
D14*
X750000Y1800000D02*
X700000Y1800000D01*
X700000Y1750000D01*
X700000Y1400000D02*
X750000Y1400000D01*
X700000Y1400000D02*
X700000Y1450000D01*
X1050000Y1400000D02*
X1100000Y1400000D01*
X1100000Y1450000D01*
X1100000Y1800000D02*
X1050000Y1800000D01*
X1100000Y1800000D02*
X1100000Y1750000D01*
D13*
X640000Y1850000D02*
X640003Y1850245D01*
X640012Y1850491D01*
X640027Y1850736D01*
X640048Y1850980D01*
X640075Y1851224D01*
X640108Y1851467D01*
X640147Y1851710D01*
X640192Y1851951D01*
X640243Y1852191D01*
X640300Y1852430D01*
X640362Y1852667D01*
X640431Y1852903D01*
X640505Y1853137D01*
X640585Y1853369D01*
X640670Y1853599D01*
X640761Y1853827D01*
X640858Y1854052D01*
X640960Y1854276D01*
X641068Y1854496D01*
X641181Y1854714D01*
X641299Y1854929D01*
X641423Y1855141D01*
X641551Y1855350D01*
X641685Y1855556D01*
X641824Y1855758D01*
X641968Y1855957D01*
X642117Y1856152D01*
X642270Y1856344D01*
X642428Y1856532D01*
X642590Y1856716D01*
X642758Y1856895D01*
X642929Y1857071D01*
X643105Y1857242D01*
X643284Y1857410D01*
X643468Y1857572D01*
X643656Y1857730D01*
X643848Y1857883D01*
X644043Y1858032D01*
X644242Y1858176D01*
X644444Y1858315D01*
X644650Y1858449D01*
X644859Y1858577D01*
X645071Y1858701D01*
X645286Y1858819D01*
X645504Y1858932D01*
X645724Y1859040D01*
X645948Y1859142D01*
X646173Y1859239D01*
X646401Y1859330D01*
X646631Y1859415D01*
X646863Y1859495D01*
X647097Y1859569D01*
X647333Y1859638D01*
X647570Y1859700D01*
X647809Y1859757D01*
X648049Y1859808D01*
X648290Y1859853D01*
X648533Y1859892D01*
X648776Y1859925D01*
X649020Y1859952D01*
X649264Y1859973D01*
X649509Y1859988D01*
X649755Y1859997D01*
X650000Y1860000D01*
X650245Y1859997D01*
X650491Y1859988D01*
X650736Y1859973D01*
X650980Y1859952D01*
X651224Y1859925D01*
X651467Y1859892D01*
X651710Y1859853D01*
X651951Y1859808D01*
X652191Y1859757D01*
X652430Y1859700D01*
X652667Y1859638D01*
X652903Y1859569D01*
X653137Y1859495D01*
X653369Y1859415D01*
X653599Y1859330D01*
X653827Y1859239D01*
X654052Y1859142D01*
X654276Y1859040D01*
X654496Y1858932D01*
X654714Y1858819D01*
X654929Y1858701D01*
X655141Y1858577D01*
X655350Y1858449D01*
X655556Y1858315D01*
X655758Y1858176D01*
X655957Y1858032D01*
X656152Y1857883D01*
X656344Y1857730D01*
X656532Y1857572D01*
X656716Y1857410D01*
X656895Y1857242D01*
X657071Y1857071D01*
X657242Y1856895D01*
X657410Y1856716D01*
X657572Y1856532D01*
X657730Y1856344D01*
X657883Y1856152D01*
X658032Y1855957D01*
X658176Y1855758D01*
X658315Y1855556D01*
X658449Y1855350D01*
X658577Y1855141D01*
X658701Y1854929D01*
X658819Y1854714D01*
X658932Y1854496D01*
X659040Y1854276D01*
X659142Y1854052D01*
X659239Y1853827D01*
X659330Y1853599D01*
X659415Y1853369D01*
X659495Y1853137D01*
X659569Y1852903D01*
X659638Y1852667D01*
X659700Y1852430D01*
X659757Y1852191D01*
X659808Y1851951D01*
X659853Y1851710D01*
X659892Y1851467D01*
X659925Y1851224D01*
X659952Y1850980D01*
X659973Y1850736D01*
X659988Y1850491D01*
X659997Y1850245D01*
X660000Y1850000D01*
X659997Y1849755D01*
X659988Y1849509D01*
X659973Y1849264D01*
X659952Y1849020D01*
X659925Y1848776D01*
X659892Y1848533D01*
X659853Y1848290D01*
X659808Y1848049D01*
X659757Y1847809D01*
X659700Y1847570D01*
X659638Y1847333D01*
X659569Y1847097D01*
X659495Y1846863D01*
X659415Y1846631D01*
X659330Y1846401D01*
X659239Y1846173D01*
X659142Y1845948D01*
X659040Y1845724D01*
X658932Y1845504D01*
X658819Y1845286D01*
X658701Y1845071D01*
X658577Y1844859D01*
X658449Y1844650D01*
X658315Y1844444D01*
X658176Y1844242D01*
X658032Y1844043D01*
X657883Y1843848D01*
X657730Y1843656D01*
X657572Y1843468D01*
X657410Y1843284D01*
X657242Y1843105D01*
X657071Y1842929D01*
X656895Y1842758D01*
X656716Y1842590D01*
X656532Y1842428D01*
X656344Y1842270D01*
X656152Y1842117D01*
X655957Y1841968D01*
X655758Y1841824D01*
X655556Y1841685D01*
X655350Y1841551D01*
X655141Y1841423D01*
X654929Y1841299D01*
X654714Y1841181D01*
X654496Y1841068D01*
X654276Y1840960D01*
X654052Y1840858D01*
X653827Y1840761D01*
X653599Y1840670D01*
X653369Y1840585D01*
X653137Y1840505D01*
X652903Y1840431D01*
X652667Y1840362D01*
X652430Y1840300D01*
X652191Y1840243D01*
X651951Y1840192D01*
X651710Y1840147D01*
X651467Y1840108D01*
X651224Y1840075D01*
X650980Y1840048D01*
X650736Y1840027D01*
X650491Y1840012D01*
X650245Y1840003D01*
X650000Y1840000D01*
X649755Y1840003D01*
X649509Y1840012D01*
X649264Y1840027D01*
X649020Y1840048D01*
X648776Y1840075D01*
X648533Y1840108D01*
X648290Y1840147D01*
X648049Y1840192D01*
X647809Y1840243D01*
X647570Y1840300D01*
X647333Y1840362D01*
X647097Y1840431D01*
X646863Y1840505D01*
X646631Y1840585D01*
X646401Y1840670D01*
X646173Y1840761D01*
X645948Y1840858D01*
X645724Y1840960D01*
X645504Y1841068D01*
X645286Y1841181D01*
X645071Y1841299D01*
X644859Y1841423D01*
X644650Y1841551D01*
X644444Y1841685D01*
X644242Y1841824D01*
X644043Y1841968D01*
X643848Y1842117D01*
X643656Y1842270D01*
X643468Y1842428D01*
X643284Y1842590D01*
X643105Y1842758D01*
X642929Y1842929D01*
X642758Y1843105D01*
X642590Y1843284D01*
X642428Y1843468D01*
X642270Y1843656D01*
X642117Y1843848D01*
X641968Y1844043D01*
X641824Y1844242D01*
X641685Y1844444D01*
X641551Y1844650D01*
X641423Y1844859D01*
X641299Y1845071D01*
X641181Y1845286D01*
X641068Y1845504D01*
X640960Y1845724D01*
X640858Y1845948D01*
X640761Y1846173D01*
X640670Y1846401D01*
X640585Y1846631D01*
X640505Y1846863D01*
X640431Y1847097D01*
X640362Y1847333D01*
X640300Y1847570D01*
X640243Y1847809D01*
X640192Y1848049D01*
X640147Y1848290D01*
X640108Y1848533D01*
X640075Y1848776D01*
X640048Y1849020D01*
X640027Y1849264D01*
X640012Y1849509D01*
X640003Y1849755D01*
X640000Y1850000D01*
D10*
X468802Y1646190D02*
X468802Y1553810D01*
X458538Y1553810D02*
X479066Y1553810D01*
X479066Y1646190D02*
X458538Y1646190D01*
X535414Y1553810D02*
X555943Y1553810D01*
X535414Y1553810D02*
X534918Y1553816D01*
X534422Y1553834D01*
X533927Y1553864D01*
X533433Y1553906D01*
X532940Y1553960D01*
X532448Y1554025D01*
X531958Y1554103D01*
X531470Y1554192D01*
X530984Y1554294D01*
X530501Y1554407D01*
X530021Y1554531D01*
X529544Y1554667D01*
X529070Y1554815D01*
X528600Y1554974D01*
X528134Y1555144D01*
X527673Y1555326D01*
X527215Y1555518D01*
X526763Y1555722D01*
X526316Y1555936D01*
X525874Y1556161D01*
X525437Y1556397D01*
X525007Y1556644D01*
X524582Y1556900D01*
X524164Y1557167D01*
X523752Y1557444D01*
X523347Y1557731D01*
X522950Y1558027D01*
X522559Y1558333D01*
X522176Y1558648D01*
X521801Y1558973D01*
X521433Y1559306D01*
X521074Y1559648D01*
X520723Y1559999D01*
X520381Y1560358D01*
X520048Y1560726D01*
X519723Y1561101D01*
X519408Y1561484D01*
X519102Y1561875D01*
X518806Y1562272D01*
X518519Y1562677D01*
X518242Y1563089D01*
X517975Y1563507D01*
X517719Y1563932D01*
X517472Y1564362D01*
X517236Y1564799D01*
X517011Y1565241D01*
X516797Y1565688D01*
X516593Y1566140D01*
X516401Y1566598D01*
X516219Y1567059D01*
X516049Y1567525D01*
X515890Y1567995D01*
X515742Y1568469D01*
X515606Y1568946D01*
X515482Y1569426D01*
X515369Y1569909D01*
X515267Y1570395D01*
X515178Y1570883D01*
X515100Y1571373D01*
X515035Y1571865D01*
X514981Y1572358D01*
X514939Y1572852D01*
X514909Y1573347D01*
X514891Y1573843D01*
X514885Y1574339D01*
X514886Y1574339D02*
X514886Y1625661D01*
X514892Y1626165D01*
X514911Y1626668D01*
X514942Y1627171D01*
X514985Y1627673D01*
X515040Y1628174D01*
X515108Y1628673D01*
X515188Y1629171D01*
X515280Y1629666D01*
X515385Y1630159D01*
X515501Y1630649D01*
X515630Y1631136D01*
X515770Y1631620D01*
X515922Y1632101D01*
X516086Y1632577D01*
X516262Y1633049D01*
X516449Y1633517D01*
X516647Y1633980D01*
X516857Y1634438D01*
X517078Y1634891D01*
X517310Y1635338D01*
X517553Y1635780D01*
X517807Y1636215D01*
X518071Y1636644D01*
X518346Y1637066D01*
X518631Y1637482D01*
X518926Y1637890D01*
X519231Y1638291D01*
X519546Y1638684D01*
X519870Y1639070D01*
X520204Y1639447D01*
X520547Y1639816D01*
X520899Y1640177D01*
X521259Y1640529D01*
X521628Y1640872D01*
X522006Y1641206D01*
X522391Y1641530D01*
X522785Y1641845D01*
X523186Y1642150D01*
X523594Y1642445D01*
X524010Y1642730D01*
X524432Y1643005D01*
X524861Y1643269D01*
X525296Y1643523D01*
X525738Y1643766D01*
X526185Y1643998D01*
X526638Y1644219D01*
X527096Y1644429D01*
X527559Y1644627D01*
X528026Y1644814D01*
X528499Y1644990D01*
X528975Y1645154D01*
X529456Y1645306D01*
X529939Y1645446D01*
X530427Y1645575D01*
X530917Y1645691D01*
X531410Y1645795D01*
X531905Y1645888D01*
X532402Y1645968D01*
X532902Y1646036D01*
X533403Y1646091D01*
X533904Y1646134D01*
X534407Y1646165D01*
X534911Y1646184D01*
X535415Y1646190D01*
X535414Y1646190D02*
X555943Y1646190D01*
X590140Y1553810D02*
X615801Y1553810D01*
X616426Y1553818D01*
X617050Y1553840D01*
X617674Y1553878D01*
X618297Y1553932D01*
X618918Y1554000D01*
X619537Y1554083D01*
X620154Y1554182D01*
X620769Y1554295D01*
X621380Y1554424D01*
X621989Y1554567D01*
X622593Y1554725D01*
X623194Y1554898D01*
X623790Y1555085D01*
X624382Y1555287D01*
X624968Y1555503D01*
X625549Y1555734D01*
X626124Y1555978D01*
X626693Y1556236D01*
X627256Y1556508D01*
X627811Y1556794D01*
X628360Y1557093D01*
X628901Y1557406D01*
X629435Y1557731D01*
X629960Y1558070D01*
X630477Y1558421D01*
X630985Y1558785D01*
X631484Y1559160D01*
X631974Y1559548D01*
X632455Y1559948D01*
X632925Y1560359D01*
X633385Y1560782D01*
X633835Y1561216D01*
X634274Y1561660D01*
X634703Y1562115D01*
X635120Y1562581D01*
X635525Y1563056D01*
X635919Y1563542D01*
X636301Y1564036D01*
X636671Y1564540D01*
X637028Y1565053D01*
X637373Y1565574D01*
X637705Y1566103D01*
X638024Y1566641D01*
X638330Y1567185D01*
X638622Y1567738D01*
X638901Y1568297D01*
X639167Y1568863D01*
X639418Y1569435D01*
X639655Y1570013D01*
X639879Y1570597D01*
X640088Y1571186D01*
X640282Y1571779D01*
X640462Y1572378D01*
X640628Y1572980D01*
X640778Y1573587D01*
X640914Y1574197D01*
X641035Y1574810D01*
X641141Y1575426D01*
X641232Y1576044D01*
X641308Y1576664D01*
X641369Y1577286D01*
X641414Y1577910D01*
X641445Y1578534D01*
X641460Y1579159D01*
X641460Y1579783D01*
X641445Y1580408D01*
X641414Y1581032D01*
X641369Y1581656D01*
X641308Y1582278D01*
X641232Y1582898D01*
X641141Y1583516D01*
X641035Y1584132D01*
X640914Y1584745D01*
X640778Y1585355D01*
X640628Y1585962D01*
X640462Y1586564D01*
X640282Y1587163D01*
X640088Y1587756D01*
X639879Y1588345D01*
X639655Y1588929D01*
X639418Y1589507D01*
X639167Y1590079D01*
X638901Y1590645D01*
X638622Y1591204D01*
X638330Y1591757D01*
X638024Y1592302D01*
X637705Y1592839D01*
X637373Y1593368D01*
X637028Y1593889D01*
X636671Y1594402D01*
X636301Y1594906D01*
X635919Y1595400D01*
X635525Y1595886D01*
X635120Y1596361D01*
X634703Y1596827D01*
X634274Y1597282D01*
X633835Y1597726D01*
X633385Y1598160D01*
X632925Y1598583D01*
X632455Y1598994D01*
X631974Y1599394D01*
X631484Y1599782D01*
X630985Y1600157D01*
X630477Y1600521D01*
X629960Y1600872D01*
X629435Y1601211D01*
X628901Y1601536D01*
X628360Y1601849D01*
X627811Y1602148D01*
X627256Y1602434D01*
X626693Y1602706D01*
X626124Y1602964D01*
X625549Y1603208D01*
X624968Y1603439D01*
X624382Y1603655D01*
X623790Y1603857D01*
X623194Y1604044D01*
X622593Y1604217D01*
X621989Y1604375D01*
X621380Y1604518D01*
X620769Y1604647D01*
X620154Y1604760D01*
X619537Y1604859D01*
X618918Y1604942D01*
X618297Y1605010D01*
X617674Y1605064D01*
X617050Y1605102D01*
X616426Y1605124D01*
X615801Y1605132D01*
X620933Y1646190D02*
X590140Y1646190D01*
X620933Y1646190D02*
X621433Y1646184D01*
X621933Y1646166D01*
X622432Y1646135D01*
X622930Y1646093D01*
X623427Y1646038D01*
X623922Y1645971D01*
X624416Y1645892D01*
X624907Y1645802D01*
X625397Y1645699D01*
X625883Y1645584D01*
X626367Y1645458D01*
X626847Y1645320D01*
X627324Y1645170D01*
X627798Y1645008D01*
X628267Y1644835D01*
X628731Y1644651D01*
X629191Y1644456D01*
X629647Y1644249D01*
X630097Y1644031D01*
X630541Y1643803D01*
X630980Y1643563D01*
X631413Y1643313D01*
X631840Y1643053D01*
X632260Y1642782D01*
X632674Y1642501D01*
X633080Y1642210D01*
X633480Y1641910D01*
X633872Y1641599D01*
X634256Y1641279D01*
X634632Y1640950D01*
X635001Y1640612D01*
X635361Y1640265D01*
X635712Y1639910D01*
X636054Y1639546D01*
X636388Y1639173D01*
X636713Y1638793D01*
X637028Y1638405D01*
X637333Y1638009D01*
X637629Y1637606D01*
X637915Y1637196D01*
X638191Y1636779D01*
X638456Y1636355D01*
X638712Y1635926D01*
X638956Y1635490D01*
X639190Y1635048D01*
X639413Y1634600D01*
X639626Y1634148D01*
X639827Y1633690D01*
X640017Y1633228D01*
X640195Y1632761D01*
X640362Y1632289D01*
X640518Y1631814D01*
X640662Y1631336D01*
X640794Y1630853D01*
X640915Y1630368D01*
X641024Y1629880D01*
X641121Y1629390D01*
X641205Y1628897D01*
X641278Y1628403D01*
X641339Y1627906D01*
X641387Y1627409D01*
X641424Y1626910D01*
X641448Y1626411D01*
X641460Y1625911D01*
X641460Y1625411D01*
X641448Y1624911D01*
X641424Y1624412D01*
X641387Y1623913D01*
X641339Y1623416D01*
X641278Y1622919D01*
X641205Y1622425D01*
X641121Y1621932D01*
X641024Y1621442D01*
X640915Y1620954D01*
X640794Y1620469D01*
X640662Y1619986D01*
X640518Y1619508D01*
X640362Y1619033D01*
X640195Y1618561D01*
X640017Y1618094D01*
X639827Y1617632D01*
X639626Y1617174D01*
X639413Y1616722D01*
X639190Y1616274D01*
X638956Y1615832D01*
X638712Y1615397D01*
X638456Y1614967D01*
X638191Y1614543D01*
X637915Y1614126D01*
X637629Y1613716D01*
X637333Y1613313D01*
X637028Y1612917D01*
X636713Y1612529D01*
X636388Y1612149D01*
X636054Y1611776D01*
X635712Y1611412D01*
X635361Y1611057D01*
X635001Y1610710D01*
X634632Y1610372D01*
X634256Y1610043D01*
X633872Y1609723D01*
X633480Y1609412D01*
X633080Y1609112D01*
X632674Y1608821D01*
X632260Y1608540D01*
X631840Y1608269D01*
X631413Y1608009D01*
X630980Y1607759D01*
X630541Y1607519D01*
X630097Y1607291D01*
X629647Y1607073D01*
X629191Y1606866D01*
X628731Y1606671D01*
X628267Y1606487D01*
X627798Y1606314D01*
X627324Y1606152D01*
X626847Y1606002D01*
X626367Y1605864D01*
X625883Y1605738D01*
X625397Y1605623D01*
X624907Y1605520D01*
X624416Y1605430D01*
X623922Y1605351D01*
X623427Y1605284D01*
X622930Y1605229D01*
X622432Y1605187D01*
X621933Y1605156D01*
X621433Y1605138D01*
X620933Y1605132D01*
X600405Y1605132D01*
D15*
X2598800Y2428100D02*
X2751200Y2428100D01*
X2751200Y3025000D02*
X2598800Y3025000D01*
D10*
X2611926Y3053810D02*
X2611926Y3146190D01*
X2611926Y3053810D02*
X2652983Y3053810D01*
X2686752Y3125661D02*
X2712413Y3146190D01*
X2712413Y3053810D01*
X2686752Y3053810D02*
X2738074Y3053810D01*
D12*
X2625000Y2325000D02*
X2625000Y2125000D01*
X2825000Y2125000D02*
X2825000Y2325000D01*
D10*
X2879471Y2155403D02*
X2920529Y2155403D01*
X2879471Y2155403D02*
X2878846Y2155411D01*
X2878222Y2155433D01*
X2877598Y2155471D01*
X2876975Y2155525D01*
X2876354Y2155593D01*
X2875735Y2155676D01*
X2875118Y2155775D01*
X2874503Y2155888D01*
X2873892Y2156017D01*
X2873283Y2156160D01*
X2872679Y2156318D01*
X2872078Y2156491D01*
X2871482Y2156678D01*
X2870890Y2156880D01*
X2870304Y2157096D01*
X2869723Y2157327D01*
X2869148Y2157571D01*
X2868579Y2157829D01*
X2868016Y2158101D01*
X2867461Y2158387D01*
X2866912Y2158686D01*
X2866371Y2158999D01*
X2865837Y2159324D01*
X2865312Y2159663D01*
X2864795Y2160014D01*
X2864287Y2160378D01*
X2863788Y2160753D01*
X2863298Y2161141D01*
X2862817Y2161541D01*
X2862347Y2161952D01*
X2861887Y2162375D01*
X2861437Y2162809D01*
X2860998Y2163253D01*
X2860569Y2163708D01*
X2860152Y2164174D01*
X2859747Y2164649D01*
X2859353Y2165135D01*
X2858971Y2165629D01*
X2858601Y2166133D01*
X2858244Y2166646D01*
X2857899Y2167167D01*
X2857567Y2167696D01*
X2857248Y2168234D01*
X2856942Y2168778D01*
X2856650Y2169331D01*
X2856371Y2169890D01*
X2856105Y2170456D01*
X2855854Y2171028D01*
X2855617Y2171606D01*
X2855393Y2172190D01*
X2855184Y2172779D01*
X2854990Y2173372D01*
X2854810Y2173971D01*
X2854644Y2174573D01*
X2854494Y2175180D01*
X2854358Y2175790D01*
X2854237Y2176403D01*
X2854131Y2177019D01*
X2854040Y2177637D01*
X2853964Y2178257D01*
X2853903Y2178879D01*
X2853858Y2179503D01*
X2853827Y2180127D01*
X2853812Y2180752D01*
X2853812Y2181376D01*
X2853827Y2182001D01*
X2853858Y2182625D01*
X2853903Y2183249D01*
X2853964Y2183871D01*
X2854040Y2184491D01*
X2854131Y2185109D01*
X2854237Y2185725D01*
X2854358Y2186338D01*
X2854494Y2186948D01*
X2854644Y2187555D01*
X2854810Y2188157D01*
X2854990Y2188756D01*
X2855184Y2189349D01*
X2855393Y2189938D01*
X2855617Y2190522D01*
X2855854Y2191100D01*
X2856105Y2191672D01*
X2856371Y2192238D01*
X2856650Y2192797D01*
X2856942Y2193350D01*
X2857248Y2193895D01*
X2857567Y2194432D01*
X2857899Y2194961D01*
X2858244Y2195482D01*
X2858601Y2195995D01*
X2858971Y2196499D01*
X2859353Y2196993D01*
X2859747Y2197479D01*
X2860152Y2197954D01*
X2860569Y2198420D01*
X2860998Y2198875D01*
X2861437Y2199319D01*
X2861887Y2199753D01*
X2862347Y2200176D01*
X2862817Y2200587D01*
X2863298Y2200987D01*
X2863788Y2201375D01*
X2864287Y2201750D01*
X2864795Y2202114D01*
X2865312Y2202465D01*
X2865837Y2202804D01*
X2866371Y2203129D01*
X2866912Y2203442D01*
X2867461Y2203741D01*
X2868016Y2204027D01*
X2868579Y2204299D01*
X2869148Y2204557D01*
X2869723Y2204801D01*
X2870304Y2205032D01*
X2870890Y2205248D01*
X2871482Y2205450D01*
X2872078Y2205637D01*
X2872679Y2205810D01*
X2873283Y2205968D01*
X2873892Y2206111D01*
X2874503Y2206240D01*
X2875118Y2206353D01*
X2875735Y2206452D01*
X2876354Y2206535D01*
X2876975Y2206603D01*
X2877598Y2206657D01*
X2878222Y2206695D01*
X2878846Y2206717D01*
X2879471Y2206725D01*
X2920529Y2206725D01*
X2921154Y2206717D01*
X2921778Y2206695D01*
X2922402Y2206657D01*
X2923025Y2206603D01*
X2923646Y2206535D01*
X2924265Y2206452D01*
X2924882Y2206353D01*
X2925497Y2206240D01*
X2926108Y2206111D01*
X2926717Y2205968D01*
X2927321Y2205810D01*
X2927922Y2205637D01*
X2928518Y2205450D01*
X2929110Y2205248D01*
X2929696Y2205032D01*
X2930277Y2204801D01*
X2930852Y2204557D01*
X2931421Y2204299D01*
X2931984Y2204027D01*
X2932539Y2203741D01*
X2933088Y2203442D01*
X2933629Y2203129D01*
X2934163Y2202804D01*
X2934688Y2202465D01*
X2935205Y2202114D01*
X2935713Y2201750D01*
X2936212Y2201375D01*
X2936702Y2200987D01*
X2937183Y2200587D01*
X2937653Y2200176D01*
X2938113Y2199753D01*
X2938563Y2199319D01*
X2939002Y2198875D01*
X2939431Y2198420D01*
X2939848Y2197954D01*
X2940253Y2197479D01*
X2940647Y2196993D01*
X2941029Y2196499D01*
X2941399Y2195995D01*
X2941756Y2195482D01*
X2942101Y2194961D01*
X2942433Y2194432D01*
X2942752Y2193895D01*
X2943058Y2193350D01*
X2943350Y2192797D01*
X2943629Y2192238D01*
X2943895Y2191672D01*
X2944146Y2191100D01*
X2944383Y2190522D01*
X2944607Y2189938D01*
X2944816Y2189349D01*
X2945010Y2188756D01*
X2945190Y2188157D01*
X2945356Y2187555D01*
X2945506Y2186948D01*
X2945642Y2186338D01*
X2945763Y2185725D01*
X2945869Y2185109D01*
X2945960Y2184491D01*
X2946036Y2183871D01*
X2946097Y2183249D01*
X2946142Y2182625D01*
X2946173Y2182001D01*
X2946188Y2181376D01*
X2946188Y2180752D01*
X2946173Y2180127D01*
X2946142Y2179503D01*
X2946097Y2178879D01*
X2946036Y2178257D01*
X2945960Y2177637D01*
X2945869Y2177019D01*
X2945763Y2176403D01*
X2945642Y2175790D01*
X2945506Y2175180D01*
X2945356Y2174573D01*
X2945190Y2173971D01*
X2945010Y2173372D01*
X2944816Y2172779D01*
X2944607Y2172190D01*
X2944383Y2171606D01*
X2944146Y2171028D01*
X2943895Y2170456D01*
X2943629Y2169890D01*
X2943350Y2169331D01*
X2943058Y2168778D01*
X2942752Y2168234D01*
X2942433Y2167696D01*
X2942101Y2167167D01*
X2941756Y2166646D01*
X2941399Y2166133D01*
X2941029Y2165629D01*
X2940647Y2165135D01*
X2940253Y2164649D01*
X2939848Y2164174D01*
X2939431Y2163708D01*
X2939002Y2163253D01*
X2938563Y2162809D01*
X2938113Y2162375D01*
X2937653Y2161952D01*
X2937183Y2161541D01*
X2936702Y2161141D01*
X2936212Y2160753D01*
X2935713Y2160378D01*
X2935205Y2160014D01*
X2934688Y2159663D01*
X2934163Y2159324D01*
X2933629Y2158999D01*
X2933088Y2158686D01*
X2932539Y2158387D01*
X2931984Y2158101D01*
X2931421Y2157829D01*
X2930852Y2157571D01*
X2930277Y2157327D01*
X2929696Y2157096D01*
X2929110Y2156880D01*
X2928518Y2156678D01*
X2927922Y2156491D01*
X2927321Y2156318D01*
X2926717Y2156160D01*
X2926108Y2156017D01*
X2925497Y2155888D01*
X2924882Y2155775D01*
X2924265Y2155676D01*
X2923646Y2155593D01*
X2923025Y2155525D01*
X2922402Y2155471D01*
X2921778Y2155433D01*
X2921154Y2155411D01*
X2920529Y2155403D01*
X2925661Y2196460D02*
X2946190Y2216989D01*
X2874339Y2243275D02*
X2853810Y2268936D01*
X2946190Y2268936D01*
X2946190Y2243275D02*
X2946190Y2294597D01*
D16*
X1679000Y2407500D02*
X1171000Y2407500D01*
X1171000Y2598000D01*
X1171000Y3042500D01*
X1679000Y3042500D01*
X1679000Y2598000D01*
X1679000Y2407500D01*
X1679000Y2598000D02*
X1171000Y2598000D01*
X1029000Y2407500D02*
X521000Y2407500D01*
X521000Y2598000D01*
X521000Y3042500D01*
X1029000Y3042500D01*
X1029000Y2598000D01*
X1029000Y2407500D01*
X1029000Y2598000D02*
X521000Y2598000D01*
D12*
X2125000Y1405000D02*
X2125000Y1375000D01*
X2155000Y1375000D01*
X2125000Y1645000D02*
X2125000Y1675000D01*
X2155000Y1675000D01*
X2425000Y1675000D02*
X2425000Y1645000D01*
X2425000Y1675000D02*
X2395000Y1675000D01*
X2425000Y1405000D02*
X2425000Y1375000D01*
X2395000Y1375000D01*
D13*
X2065000Y1325000D02*
X2065003Y1325245D01*
X2065012Y1325491D01*
X2065027Y1325736D01*
X2065048Y1325980D01*
X2065075Y1326224D01*
X2065108Y1326467D01*
X2065147Y1326710D01*
X2065192Y1326951D01*
X2065243Y1327191D01*
X2065300Y1327430D01*
X2065362Y1327667D01*
X2065431Y1327903D01*
X2065505Y1328137D01*
X2065585Y1328369D01*
X2065670Y1328599D01*
X2065761Y1328827D01*
X2065858Y1329052D01*
X2065960Y1329276D01*
X2066068Y1329496D01*
X2066181Y1329714D01*
X2066299Y1329929D01*
X2066423Y1330141D01*
X2066551Y1330350D01*
X2066685Y1330556D01*
X2066824Y1330758D01*
X2066968Y1330957D01*
X2067117Y1331152D01*
X2067270Y1331344D01*
X2067428Y1331532D01*
X2067590Y1331716D01*
X2067758Y1331895D01*
X2067929Y1332071D01*
X2068105Y1332242D01*
X2068284Y1332410D01*
X2068468Y1332572D01*
X2068656Y1332730D01*
X2068848Y1332883D01*
X2069043Y1333032D01*
X2069242Y1333176D01*
X2069444Y1333315D01*
X2069650Y1333449D01*
X2069859Y1333577D01*
X2070071Y1333701D01*
X2070286Y1333819D01*
X2070504Y1333932D01*
X2070724Y1334040D01*
X2070948Y1334142D01*
X2071173Y1334239D01*
X2071401Y1334330D01*
X2071631Y1334415D01*
X2071863Y1334495D01*
X2072097Y1334569D01*
X2072333Y1334638D01*
X2072570Y1334700D01*
X2072809Y1334757D01*
X2073049Y1334808D01*
X2073290Y1334853D01*
X2073533Y1334892D01*
X2073776Y1334925D01*
X2074020Y1334952D01*
X2074264Y1334973D01*
X2074509Y1334988D01*
X2074755Y1334997D01*
X2075000Y1335000D01*
X2075245Y1334997D01*
X2075491Y1334988D01*
X2075736Y1334973D01*
X2075980Y1334952D01*
X2076224Y1334925D01*
X2076467Y1334892D01*
X2076710Y1334853D01*
X2076951Y1334808D01*
X2077191Y1334757D01*
X2077430Y1334700D01*
X2077667Y1334638D01*
X2077903Y1334569D01*
X2078137Y1334495D01*
X2078369Y1334415D01*
X2078599Y1334330D01*
X2078827Y1334239D01*
X2079052Y1334142D01*
X2079276Y1334040D01*
X2079496Y1333932D01*
X2079714Y1333819D01*
X2079929Y1333701D01*
X2080141Y1333577D01*
X2080350Y1333449D01*
X2080556Y1333315D01*
X2080758Y1333176D01*
X2080957Y1333032D01*
X2081152Y1332883D01*
X2081344Y1332730D01*
X2081532Y1332572D01*
X2081716Y1332410D01*
X2081895Y1332242D01*
X2082071Y1332071D01*
X2082242Y1331895D01*
X2082410Y1331716D01*
X2082572Y1331532D01*
X2082730Y1331344D01*
X2082883Y1331152D01*
X2083032Y1330957D01*
X2083176Y1330758D01*
X2083315Y1330556D01*
X2083449Y1330350D01*
X2083577Y1330141D01*
X2083701Y1329929D01*
X2083819Y1329714D01*
X2083932Y1329496D01*
X2084040Y1329276D01*
X2084142Y1329052D01*
X2084239Y1328827D01*
X2084330Y1328599D01*
X2084415Y1328369D01*
X2084495Y1328137D01*
X2084569Y1327903D01*
X2084638Y1327667D01*
X2084700Y1327430D01*
X2084757Y1327191D01*
X2084808Y1326951D01*
X2084853Y1326710D01*
X2084892Y1326467D01*
X2084925Y1326224D01*
X2084952Y1325980D01*
X2084973Y1325736D01*
X2084988Y1325491D01*
X2084997Y1325245D01*
X2085000Y1325000D01*
X2084997Y1324755D01*
X2084988Y1324509D01*
X2084973Y1324264D01*
X2084952Y1324020D01*
X2084925Y1323776D01*
X2084892Y1323533D01*
X2084853Y1323290D01*
X2084808Y1323049D01*
X2084757Y1322809D01*
X2084700Y1322570D01*
X2084638Y1322333D01*
X2084569Y1322097D01*
X2084495Y1321863D01*
X2084415Y1321631D01*
X2084330Y1321401D01*
X2084239Y1321173D01*
X2084142Y1320948D01*
X2084040Y1320724D01*
X2083932Y1320504D01*
X2083819Y1320286D01*
X2083701Y1320071D01*
X2083577Y1319859D01*
X2083449Y1319650D01*
X2083315Y1319444D01*
X2083176Y1319242D01*
X2083032Y1319043D01*
X2082883Y1318848D01*
X2082730Y1318656D01*
X2082572Y1318468D01*
X2082410Y1318284D01*
X2082242Y1318105D01*
X2082071Y1317929D01*
X2081895Y1317758D01*
X2081716Y1317590D01*
X2081532Y1317428D01*
X2081344Y1317270D01*
X2081152Y1317117D01*
X2080957Y1316968D01*
X2080758Y1316824D01*
X2080556Y1316685D01*
X2080350Y1316551D01*
X2080141Y1316423D01*
X2079929Y1316299D01*
X2079714Y1316181D01*
X2079496Y1316068D01*
X2079276Y1315960D01*
X2079052Y1315858D01*
X2078827Y1315761D01*
X2078599Y1315670D01*
X2078369Y1315585D01*
X2078137Y1315505D01*
X2077903Y1315431D01*
X2077667Y1315362D01*
X2077430Y1315300D01*
X2077191Y1315243D01*
X2076951Y1315192D01*
X2076710Y1315147D01*
X2076467Y1315108D01*
X2076224Y1315075D01*
X2075980Y1315048D01*
X2075736Y1315027D01*
X2075491Y1315012D01*
X2075245Y1315003D01*
X2075000Y1315000D01*
X2074755Y1315003D01*
X2074509Y1315012D01*
X2074264Y1315027D01*
X2074020Y1315048D01*
X2073776Y1315075D01*
X2073533Y1315108D01*
X2073290Y1315147D01*
X2073049Y1315192D01*
X2072809Y1315243D01*
X2072570Y1315300D01*
X2072333Y1315362D01*
X2072097Y1315431D01*
X2071863Y1315505D01*
X2071631Y1315585D01*
X2071401Y1315670D01*
X2071173Y1315761D01*
X2070948Y1315858D01*
X2070724Y1315960D01*
X2070504Y1316068D01*
X2070286Y1316181D01*
X2070071Y1316299D01*
X2069859Y1316423D01*
X2069650Y1316551D01*
X2069444Y1316685D01*
X2069242Y1316824D01*
X2069043Y1316968D01*
X2068848Y1317117D01*
X2068656Y1317270D01*
X2068468Y1317428D01*
X2068284Y1317590D01*
X2068105Y1317758D01*
X2067929Y1317929D01*
X2067758Y1318105D01*
X2067590Y1318284D01*
X2067428Y1318468D01*
X2067270Y1318656D01*
X2067117Y1318848D01*
X2066968Y1319043D01*
X2066824Y1319242D01*
X2066685Y1319444D01*
X2066551Y1319650D01*
X2066423Y1319859D01*
X2066299Y1320071D01*
X2066181Y1320286D01*
X2066068Y1320504D01*
X2065960Y1320724D01*
X2065858Y1320948D01*
X2065761Y1321173D01*
X2065670Y1321401D01*
X2065585Y1321631D01*
X2065505Y1321863D01*
X2065431Y1322097D01*
X2065362Y1322333D01*
X2065300Y1322570D01*
X2065243Y1322809D01*
X2065192Y1323049D01*
X2065147Y1323290D01*
X2065108Y1323533D01*
X2065075Y1323776D01*
X2065048Y1324020D01*
X2065027Y1324264D01*
X2065012Y1324509D01*
X2065003Y1324755D01*
X2065000Y1325000D01*
D10*
X2193802Y1346190D02*
X2193802Y1253810D01*
X2183538Y1253810D02*
X2204066Y1253810D01*
X2204066Y1346190D02*
X2183538Y1346190D01*
X2260414Y1253810D02*
X2280943Y1253810D01*
X2260414Y1253810D02*
X2259918Y1253816D01*
X2259422Y1253834D01*
X2258927Y1253864D01*
X2258433Y1253906D01*
X2257940Y1253960D01*
X2257448Y1254025D01*
X2256958Y1254103D01*
X2256470Y1254192D01*
X2255984Y1254294D01*
X2255501Y1254407D01*
X2255021Y1254531D01*
X2254544Y1254667D01*
X2254070Y1254815D01*
X2253600Y1254974D01*
X2253134Y1255144D01*
X2252673Y1255326D01*
X2252215Y1255518D01*
X2251763Y1255722D01*
X2251316Y1255936D01*
X2250874Y1256161D01*
X2250437Y1256397D01*
X2250007Y1256644D01*
X2249582Y1256900D01*
X2249164Y1257167D01*
X2248752Y1257444D01*
X2248347Y1257731D01*
X2247950Y1258027D01*
X2247559Y1258333D01*
X2247176Y1258648D01*
X2246801Y1258973D01*
X2246433Y1259306D01*
X2246074Y1259648D01*
X2245723Y1259999D01*
X2245381Y1260358D01*
X2245048Y1260726D01*
X2244723Y1261101D01*
X2244408Y1261484D01*
X2244102Y1261875D01*
X2243806Y1262272D01*
X2243519Y1262677D01*
X2243242Y1263089D01*
X2242975Y1263507D01*
X2242719Y1263932D01*
X2242472Y1264362D01*
X2242236Y1264799D01*
X2242011Y1265241D01*
X2241797Y1265688D01*
X2241593Y1266140D01*
X2241401Y1266598D01*
X2241219Y1267059D01*
X2241049Y1267525D01*
X2240890Y1267995D01*
X2240742Y1268469D01*
X2240606Y1268946D01*
X2240482Y1269426D01*
X2240369Y1269909D01*
X2240267Y1270395D01*
X2240178Y1270883D01*
X2240100Y1271373D01*
X2240035Y1271865D01*
X2239981Y1272358D01*
X2239939Y1272852D01*
X2239909Y1273347D01*
X2239891Y1273843D01*
X2239885Y1274339D01*
X2239886Y1274339D02*
X2239886Y1325661D01*
X2239892Y1326165D01*
X2239911Y1326668D01*
X2239942Y1327171D01*
X2239985Y1327673D01*
X2240040Y1328174D01*
X2240108Y1328673D01*
X2240188Y1329171D01*
X2240280Y1329666D01*
X2240385Y1330159D01*
X2240501Y1330649D01*
X2240630Y1331136D01*
X2240770Y1331620D01*
X2240922Y1332101D01*
X2241086Y1332577D01*
X2241262Y1333049D01*
X2241449Y1333517D01*
X2241647Y1333980D01*
X2241857Y1334438D01*
X2242078Y1334891D01*
X2242310Y1335338D01*
X2242553Y1335780D01*
X2242807Y1336215D01*
X2243071Y1336644D01*
X2243346Y1337066D01*
X2243631Y1337482D01*
X2243926Y1337890D01*
X2244231Y1338291D01*
X2244546Y1338684D01*
X2244870Y1339070D01*
X2245204Y1339447D01*
X2245547Y1339816D01*
X2245899Y1340177D01*
X2246259Y1340529D01*
X2246628Y1340872D01*
X2247006Y1341206D01*
X2247391Y1341530D01*
X2247785Y1341845D01*
X2248186Y1342150D01*
X2248594Y1342445D01*
X2249010Y1342730D01*
X2249432Y1343005D01*
X2249861Y1343269D01*
X2250296Y1343523D01*
X2250738Y1343766D01*
X2251185Y1343998D01*
X2251638Y1344219D01*
X2252096Y1344429D01*
X2252559Y1344627D01*
X2253026Y1344814D01*
X2253499Y1344990D01*
X2253975Y1345154D01*
X2254456Y1345306D01*
X2254939Y1345446D01*
X2255427Y1345575D01*
X2255917Y1345691D01*
X2256410Y1345795D01*
X2256905Y1345888D01*
X2257402Y1345968D01*
X2257902Y1346036D01*
X2258403Y1346091D01*
X2258904Y1346134D01*
X2259407Y1346165D01*
X2259911Y1346184D01*
X2260415Y1346190D01*
X2260414Y1346190D02*
X2280943Y1346190D01*
X2315140Y1325661D02*
X2340801Y1346190D01*
X2340801Y1253810D01*
X2315140Y1253810D02*
X2366463Y1253810D01*
D16*
X2279000Y2407500D02*
X1771000Y2407500D01*
X1771000Y2598000D01*
X1771000Y3042500D01*
X2279000Y3042500D01*
X2279000Y2598000D01*
X2279000Y2407500D01*
X2279000Y2598000D02*
X1771000Y2598000D01*
D17*
X1965000Y1175000D02*
X1965003Y1175245D01*
X1965012Y1175491D01*
X1965027Y1175736D01*
X1965048Y1175980D01*
X1965075Y1176224D01*
X1965108Y1176467D01*
X1965147Y1176710D01*
X1965192Y1176951D01*
X1965243Y1177191D01*
X1965300Y1177430D01*
X1965362Y1177667D01*
X1965431Y1177903D01*
X1965505Y1178137D01*
X1965585Y1178369D01*
X1965670Y1178599D01*
X1965761Y1178827D01*
X1965858Y1179052D01*
X1965960Y1179276D01*
X1966068Y1179496D01*
X1966181Y1179714D01*
X1966299Y1179929D01*
X1966423Y1180141D01*
X1966551Y1180350D01*
X1966685Y1180556D01*
X1966824Y1180758D01*
X1966968Y1180957D01*
X1967117Y1181152D01*
X1967270Y1181344D01*
X1967428Y1181532D01*
X1967590Y1181716D01*
X1967758Y1181895D01*
X1967929Y1182071D01*
X1968105Y1182242D01*
X1968284Y1182410D01*
X1968468Y1182572D01*
X1968656Y1182730D01*
X1968848Y1182883D01*
X1969043Y1183032D01*
X1969242Y1183176D01*
X1969444Y1183315D01*
X1969650Y1183449D01*
X1969859Y1183577D01*
X1970071Y1183701D01*
X1970286Y1183819D01*
X1970504Y1183932D01*
X1970724Y1184040D01*
X1970948Y1184142D01*
X1971173Y1184239D01*
X1971401Y1184330D01*
X1971631Y1184415D01*
X1971863Y1184495D01*
X1972097Y1184569D01*
X1972333Y1184638D01*
X1972570Y1184700D01*
X1972809Y1184757D01*
X1973049Y1184808D01*
X1973290Y1184853D01*
X1973533Y1184892D01*
X1973776Y1184925D01*
X1974020Y1184952D01*
X1974264Y1184973D01*
X1974509Y1184988D01*
X1974755Y1184997D01*
X1975000Y1185000D01*
X1975245Y1184997D01*
X1975491Y1184988D01*
X1975736Y1184973D01*
X1975980Y1184952D01*
X1976224Y1184925D01*
X1976467Y1184892D01*
X1976710Y1184853D01*
X1976951Y1184808D01*
X1977191Y1184757D01*
X1977430Y1184700D01*
X1977667Y1184638D01*
X1977903Y1184569D01*
X1978137Y1184495D01*
X1978369Y1184415D01*
X1978599Y1184330D01*
X1978827Y1184239D01*
X1979052Y1184142D01*
X1979276Y1184040D01*
X1979496Y1183932D01*
X1979714Y1183819D01*
X1979929Y1183701D01*
X1980141Y1183577D01*
X1980350Y1183449D01*
X1980556Y1183315D01*
X1980758Y1183176D01*
X1980957Y1183032D01*
X1981152Y1182883D01*
X1981344Y1182730D01*
X1981532Y1182572D01*
X1981716Y1182410D01*
X1981895Y1182242D01*
X1982071Y1182071D01*
X1982242Y1181895D01*
X1982410Y1181716D01*
X1982572Y1181532D01*
X1982730Y1181344D01*
X1982883Y1181152D01*
X1983032Y1180957D01*
X1983176Y1180758D01*
X1983315Y1180556D01*
X1983449Y1180350D01*
X1983577Y1180141D01*
X1983701Y1179929D01*
X1983819Y1179714D01*
X1983932Y1179496D01*
X1984040Y1179276D01*
X1984142Y1179052D01*
X1984239Y1178827D01*
X1984330Y1178599D01*
X1984415Y1178369D01*
X1984495Y1178137D01*
X1984569Y1177903D01*
X1984638Y1177667D01*
X1984700Y1177430D01*
X1984757Y1177191D01*
X1984808Y1176951D01*
X1984853Y1176710D01*
X1984892Y1176467D01*
X1984925Y1176224D01*
X1984952Y1175980D01*
X1984973Y1175736D01*
X1984988Y1175491D01*
X1984997Y1175245D01*
X1985000Y1175000D01*
X1984997Y1174755D01*
X1984988Y1174509D01*
X1984973Y1174264D01*
X1984952Y1174020D01*
X1984925Y1173776D01*
X1984892Y1173533D01*
X1984853Y1173290D01*
X1984808Y1173049D01*
X1984757Y1172809D01*
X1984700Y1172570D01*
X1984638Y1172333D01*
X1984569Y1172097D01*
X1984495Y1171863D01*
X1984415Y1171631D01*
X1984330Y1171401D01*
X1984239Y1171173D01*
X1984142Y1170948D01*
X1984040Y1170724D01*
X1983932Y1170504D01*
X1983819Y1170286D01*
X1983701Y1170071D01*
X1983577Y1169859D01*
X1983449Y1169650D01*
X1983315Y1169444D01*
X1983176Y1169242D01*
X1983032Y1169043D01*
X1982883Y1168848D01*
X1982730Y1168656D01*
X1982572Y1168468D01*
X1982410Y1168284D01*
X1982242Y1168105D01*
X1982071Y1167929D01*
X1981895Y1167758D01*
X1981716Y1167590D01*
X1981532Y1167428D01*
X1981344Y1167270D01*
X1981152Y1167117D01*
X1980957Y1166968D01*
X1980758Y1166824D01*
X1980556Y1166685D01*
X1980350Y1166551D01*
X1980141Y1166423D01*
X1979929Y1166299D01*
X1979714Y1166181D01*
X1979496Y1166068D01*
X1979276Y1165960D01*
X1979052Y1165858D01*
X1978827Y1165761D01*
X1978599Y1165670D01*
X1978369Y1165585D01*
X1978137Y1165505D01*
X1977903Y1165431D01*
X1977667Y1165362D01*
X1977430Y1165300D01*
X1977191Y1165243D01*
X1976951Y1165192D01*
X1976710Y1165147D01*
X1976467Y1165108D01*
X1976224Y1165075D01*
X1975980Y1165048D01*
X1975736Y1165027D01*
X1975491Y1165012D01*
X1975245Y1165003D01*
X1975000Y1165000D01*
X1974755Y1165003D01*
X1974509Y1165012D01*
X1974264Y1165027D01*
X1974020Y1165048D01*
X1973776Y1165075D01*
X1973533Y1165108D01*
X1973290Y1165147D01*
X1973049Y1165192D01*
X1972809Y1165243D01*
X1972570Y1165300D01*
X1972333Y1165362D01*
X1972097Y1165431D01*
X1971863Y1165505D01*
X1971631Y1165585D01*
X1971401Y1165670D01*
X1971173Y1165761D01*
X1970948Y1165858D01*
X1970724Y1165960D01*
X1970504Y1166068D01*
X1970286Y1166181D01*
X1970071Y1166299D01*
X1969859Y1166423D01*
X1969650Y1166551D01*
X1969444Y1166685D01*
X1969242Y1166824D01*
X1969043Y1166968D01*
X1968848Y1167117D01*
X1968656Y1167270D01*
X1968468Y1167428D01*
X1968284Y1167590D01*
X1968105Y1167758D01*
X1967929Y1167929D01*
X1967758Y1168105D01*
X1967590Y1168284D01*
X1967428Y1168468D01*
X1967270Y1168656D01*
X1967117Y1168848D01*
X1966968Y1169043D01*
X1966824Y1169242D01*
X1966685Y1169444D01*
X1966551Y1169650D01*
X1966423Y1169859D01*
X1966299Y1170071D01*
X1966181Y1170286D01*
X1966068Y1170504D01*
X1965960Y1170724D01*
X1965858Y1170948D01*
X1965761Y1171173D01*
X1965670Y1171401D01*
X1965585Y1171631D01*
X1965505Y1171863D01*
X1965431Y1172097D01*
X1965362Y1172333D01*
X1965300Y1172570D01*
X1965243Y1172809D01*
X1965192Y1173049D01*
X1965147Y1173290D01*
X1965108Y1173533D01*
X1965075Y1173776D01*
X1965048Y1174020D01*
X1965027Y1174264D01*
X1965012Y1174509D01*
X1965003Y1174755D01*
X1965000Y1175000D01*
D10*
X1674926Y1071190D02*
X1674926Y978810D01*
X1715984Y978810D01*
X1752926Y978810D02*
X1793983Y978810D01*
X1752926Y978810D02*
X1752926Y1071190D01*
X1793983Y1071190D01*
X1783719Y1030132D02*
X1752926Y1030132D01*
X1830752Y1071190D02*
X1830752Y978810D01*
X1830752Y1071190D02*
X1856413Y1071190D01*
X1857033Y1071183D01*
X1857653Y1071160D01*
X1858272Y1071123D01*
X1858890Y1071070D01*
X1859506Y1071003D01*
X1860121Y1070921D01*
X1860733Y1070824D01*
X1861343Y1070712D01*
X1861950Y1070585D01*
X1862554Y1070444D01*
X1863154Y1070289D01*
X1863751Y1070119D01*
X1864343Y1069934D01*
X1864930Y1069735D01*
X1865513Y1069522D01*
X1866090Y1069296D01*
X1866661Y1069055D01*
X1867227Y1068800D01*
X1867786Y1068532D01*
X1868338Y1068251D01*
X1868884Y1067956D01*
X1869422Y1067648D01*
X1869953Y1067327D01*
X1870476Y1066994D01*
X1870990Y1066648D01*
X1871496Y1066289D01*
X1871993Y1065919D01*
X1872482Y1065536D01*
X1872960Y1065142D01*
X1873429Y1064737D01*
X1873889Y1064320D01*
X1874338Y1063892D01*
X1874776Y1063454D01*
X1875204Y1063005D01*
X1875621Y1062545D01*
X1876026Y1062076D01*
X1876420Y1061598D01*
X1876803Y1061109D01*
X1877173Y1060612D01*
X1877532Y1060106D01*
X1877878Y1059592D01*
X1878211Y1059069D01*
X1878532Y1058538D01*
X1878840Y1058000D01*
X1879135Y1057454D01*
X1879416Y1056902D01*
X1879684Y1056343D01*
X1879939Y1055777D01*
X1880180Y1055206D01*
X1880406Y1054629D01*
X1880619Y1054046D01*
X1880818Y1053459D01*
X1881003Y1052867D01*
X1881173Y1052270D01*
X1881328Y1051670D01*
X1881469Y1051066D01*
X1881596Y1050459D01*
X1881708Y1049849D01*
X1881805Y1049237D01*
X1881887Y1048622D01*
X1881954Y1048006D01*
X1882007Y1047388D01*
X1882044Y1046769D01*
X1882067Y1046149D01*
X1882074Y1045529D01*
X1882074Y1004471D01*
X1882067Y1003851D01*
X1882044Y1003231D01*
X1882007Y1002612D01*
X1881954Y1001994D01*
X1881887Y1001378D01*
X1881805Y1000763D01*
X1881708Y1000151D01*
X1881596Y999541D01*
X1881469Y998934D01*
X1881328Y998330D01*
X1881173Y997730D01*
X1881003Y997133D01*
X1880818Y996541D01*
X1880619Y995954D01*
X1880406Y995371D01*
X1880180Y994794D01*
X1879939Y994223D01*
X1879684Y993657D01*
X1879416Y993098D01*
X1879135Y992546D01*
X1878840Y992000D01*
X1878532Y991462D01*
X1878211Y990931D01*
X1877878Y990408D01*
X1877532Y989894D01*
X1877173Y989388D01*
X1876803Y988890D01*
X1876420Y988402D01*
X1876026Y987924D01*
X1875620Y987455D01*
X1875204Y986995D01*
X1874776Y986546D01*
X1874337Y986108D01*
X1873888Y985680D01*
X1873429Y985263D01*
X1872960Y984858D01*
X1872481Y984464D01*
X1871993Y984081D01*
X1871496Y983711D01*
X1870990Y983352D01*
X1870475Y983006D01*
X1869953Y982673D01*
X1869422Y982352D01*
X1868884Y982044D01*
X1868338Y981749D01*
X1867786Y981468D01*
X1867226Y981200D01*
X1866661Y980945D01*
X1866089Y980704D01*
X1865512Y980477D01*
X1864930Y980265D01*
X1864342Y980066D01*
X1863750Y979881D01*
X1863154Y979711D01*
X1862554Y979556D01*
X1861950Y979414D01*
X1861343Y979288D01*
X1860733Y979176D01*
X1860120Y979079D01*
X1859506Y978997D01*
X1858889Y978930D01*
X1858271Y978877D01*
X1857652Y978840D01*
X1857033Y978817D01*
X1856413Y978810D01*
X1830752Y978810D01*
X1951979Y1071190D02*
X1952537Y1071183D01*
X1953095Y1071163D01*
X1953652Y1071129D01*
X1954208Y1071082D01*
X1954763Y1071022D01*
X1955316Y1070948D01*
X1955867Y1070860D01*
X1956416Y1070760D01*
X1956963Y1070646D01*
X1957506Y1070519D01*
X1958046Y1070379D01*
X1958583Y1070226D01*
X1959116Y1070060D01*
X1959644Y1069881D01*
X1960169Y1069689D01*
X1960688Y1069485D01*
X1961202Y1069268D01*
X1961711Y1069039D01*
X1962215Y1068798D01*
X1962712Y1068545D01*
X1963203Y1068279D01*
X1963687Y1068002D01*
X1964165Y1067713D01*
X1964635Y1067413D01*
X1965098Y1067102D01*
X1965554Y1066779D01*
X1966001Y1066446D01*
X1966441Y1066102D01*
X1966872Y1065747D01*
X1967294Y1065382D01*
X1967707Y1065007D01*
X1968111Y1064622D01*
X1968506Y1064227D01*
X1968891Y1063823D01*
X1969266Y1063410D01*
X1969631Y1062988D01*
X1969986Y1062557D01*
X1970330Y1062117D01*
X1970663Y1061670D01*
X1970986Y1061214D01*
X1971297Y1060751D01*
X1971597Y1060281D01*
X1971886Y1059803D01*
X1972163Y1059319D01*
X1972429Y1058828D01*
X1972682Y1058331D01*
X1972923Y1057827D01*
X1973152Y1057318D01*
X1973369Y1056804D01*
X1973573Y1056285D01*
X1973765Y1055760D01*
X1973944Y1055232D01*
X1974110Y1054699D01*
X1974263Y1054162D01*
X1974403Y1053622D01*
X1974530Y1053079D01*
X1974644Y1052532D01*
X1974744Y1051983D01*
X1974832Y1051432D01*
X1974906Y1050879D01*
X1974966Y1050324D01*
X1975013Y1049768D01*
X1975047Y1049211D01*
X1975067Y1048653D01*
X1975074Y1048095D01*
X1951979Y1071190D02*
X1951261Y1071181D01*
X1950544Y1071155D01*
X1949828Y1071112D01*
X1949113Y1071051D01*
X1948400Y1070973D01*
X1947689Y1070878D01*
X1946980Y1070766D01*
X1946274Y1070636D01*
X1945572Y1070490D01*
X1944873Y1070327D01*
X1944178Y1070146D01*
X1943488Y1069949D01*
X1942803Y1069736D01*
X1942124Y1069505D01*
X1941450Y1069259D01*
X1940782Y1068996D01*
X1940121Y1068717D01*
X1939467Y1068423D01*
X1938820Y1068112D01*
X1938181Y1067786D01*
X1937549Y1067445D01*
X1936927Y1067088D01*
X1936313Y1066717D01*
X1935708Y1066331D01*
X1935113Y1065930D01*
X1934527Y1065515D01*
X1933952Y1065086D01*
X1933388Y1064643D01*
X1932834Y1064187D01*
X1932291Y1063717D01*
X1931760Y1063235D01*
X1931241Y1062739D01*
X1930734Y1062232D01*
X1930239Y1061712D01*
X1929757Y1061180D01*
X1929288Y1060637D01*
X1928833Y1060083D01*
X1928391Y1059518D01*
X1927962Y1058942D01*
X1927548Y1058356D01*
X1927148Y1057760D01*
X1926762Y1057155D01*
X1926392Y1056541D01*
X1926036Y1055918D01*
X1925695Y1055286D01*
X1925370Y1054647D01*
X1925060Y1053999D01*
X1924766Y1053345D01*
X1924488Y1052683D01*
X1924227Y1052015D01*
X1923981Y1051341D01*
X1923751Y1050661D01*
X1967376Y1030132D02*
X1967811Y1030558D01*
X1968236Y1030993D01*
X1968650Y1031439D01*
X1969054Y1031895D01*
X1969445Y1032361D01*
X1969826Y1032836D01*
X1970194Y1033321D01*
X1970551Y1033814D01*
X1970895Y1034316D01*
X1971227Y1034826D01*
X1971546Y1035345D01*
X1971853Y1035871D01*
X1972146Y1036404D01*
X1972426Y1036944D01*
X1972693Y1037491D01*
X1972947Y1038045D01*
X1973186Y1038604D01*
X1973412Y1039169D01*
X1973625Y1039740D01*
X1973822Y1040315D01*
X1974006Y1040896D01*
X1974176Y1041480D01*
X1974331Y1042069D01*
X1974472Y1042661D01*
X1974598Y1043257D01*
X1974709Y1043855D01*
X1974806Y1044456D01*
X1974888Y1045059D01*
X1974955Y1045664D01*
X1975007Y1046271D01*
X1975044Y1046878D01*
X1975067Y1047486D01*
X1975074Y1048095D01*
X1967375Y1030132D02*
X1923752Y978810D01*
X1975074Y978810D01*
D12*
X1917000Y1340000D02*
X1637000Y1340000D01*
X1637000Y1860000D02*
X1917000Y1860000D01*
X1917000Y1340000D01*
X1577000Y1400000D02*
X1577000Y1800000D01*
D13*
X1994000Y1854000D02*
X1994003Y1854245D01*
X1994012Y1854491D01*
X1994027Y1854736D01*
X1994048Y1854980D01*
X1994075Y1855224D01*
X1994108Y1855467D01*
X1994147Y1855710D01*
X1994192Y1855951D01*
X1994243Y1856191D01*
X1994300Y1856430D01*
X1994362Y1856667D01*
X1994431Y1856903D01*
X1994505Y1857137D01*
X1994585Y1857369D01*
X1994670Y1857599D01*
X1994761Y1857827D01*
X1994858Y1858052D01*
X1994960Y1858276D01*
X1995068Y1858496D01*
X1995181Y1858714D01*
X1995299Y1858929D01*
X1995423Y1859141D01*
X1995551Y1859350D01*
X1995685Y1859556D01*
X1995824Y1859758D01*
X1995968Y1859957D01*
X1996117Y1860152D01*
X1996270Y1860344D01*
X1996428Y1860532D01*
X1996590Y1860716D01*
X1996758Y1860895D01*
X1996929Y1861071D01*
X1997105Y1861242D01*
X1997284Y1861410D01*
X1997468Y1861572D01*
X1997656Y1861730D01*
X1997848Y1861883D01*
X1998043Y1862032D01*
X1998242Y1862176D01*
X1998444Y1862315D01*
X1998650Y1862449D01*
X1998859Y1862577D01*
X1999071Y1862701D01*
X1999286Y1862819D01*
X1999504Y1862932D01*
X1999724Y1863040D01*
X1999948Y1863142D01*
X2000173Y1863239D01*
X2000401Y1863330D01*
X2000631Y1863415D01*
X2000863Y1863495D01*
X2001097Y1863569D01*
X2001333Y1863638D01*
X2001570Y1863700D01*
X2001809Y1863757D01*
X2002049Y1863808D01*
X2002290Y1863853D01*
X2002533Y1863892D01*
X2002776Y1863925D01*
X2003020Y1863952D01*
X2003264Y1863973D01*
X2003509Y1863988D01*
X2003755Y1863997D01*
X2004000Y1864000D01*
X2004245Y1863997D01*
X2004491Y1863988D01*
X2004736Y1863973D01*
X2004980Y1863952D01*
X2005224Y1863925D01*
X2005467Y1863892D01*
X2005710Y1863853D01*
X2005951Y1863808D01*
X2006191Y1863757D01*
X2006430Y1863700D01*
X2006667Y1863638D01*
X2006903Y1863569D01*
X2007137Y1863495D01*
X2007369Y1863415D01*
X2007599Y1863330D01*
X2007827Y1863239D01*
X2008052Y1863142D01*
X2008276Y1863040D01*
X2008496Y1862932D01*
X2008714Y1862819D01*
X2008929Y1862701D01*
X2009141Y1862577D01*
X2009350Y1862449D01*
X2009556Y1862315D01*
X2009758Y1862176D01*
X2009957Y1862032D01*
X2010152Y1861883D01*
X2010344Y1861730D01*
X2010532Y1861572D01*
X2010716Y1861410D01*
X2010895Y1861242D01*
X2011071Y1861071D01*
X2011242Y1860895D01*
X2011410Y1860716D01*
X2011572Y1860532D01*
X2011730Y1860344D01*
X2011883Y1860152D01*
X2012032Y1859957D01*
X2012176Y1859758D01*
X2012315Y1859556D01*
X2012449Y1859350D01*
X2012577Y1859141D01*
X2012701Y1858929D01*
X2012819Y1858714D01*
X2012932Y1858496D01*
X2013040Y1858276D01*
X2013142Y1858052D01*
X2013239Y1857827D01*
X2013330Y1857599D01*
X2013415Y1857369D01*
X2013495Y1857137D01*
X2013569Y1856903D01*
X2013638Y1856667D01*
X2013700Y1856430D01*
X2013757Y1856191D01*
X2013808Y1855951D01*
X2013853Y1855710D01*
X2013892Y1855467D01*
X2013925Y1855224D01*
X2013952Y1854980D01*
X2013973Y1854736D01*
X2013988Y1854491D01*
X2013997Y1854245D01*
X2014000Y1854000D01*
X2013997Y1853755D01*
X2013988Y1853509D01*
X2013973Y1853264D01*
X2013952Y1853020D01*
X2013925Y1852776D01*
X2013892Y1852533D01*
X2013853Y1852290D01*
X2013808Y1852049D01*
X2013757Y1851809D01*
X2013700Y1851570D01*
X2013638Y1851333D01*
X2013569Y1851097D01*
X2013495Y1850863D01*
X2013415Y1850631D01*
X2013330Y1850401D01*
X2013239Y1850173D01*
X2013142Y1849948D01*
X2013040Y1849724D01*
X2012932Y1849504D01*
X2012819Y1849286D01*
X2012701Y1849071D01*
X2012577Y1848859D01*
X2012449Y1848650D01*
X2012315Y1848444D01*
X2012176Y1848242D01*
X2012032Y1848043D01*
X2011883Y1847848D01*
X2011730Y1847656D01*
X2011572Y1847468D01*
X2011410Y1847284D01*
X2011242Y1847105D01*
X2011071Y1846929D01*
X2010895Y1846758D01*
X2010716Y1846590D01*
X2010532Y1846428D01*
X2010344Y1846270D01*
X2010152Y1846117D01*
X2009957Y1845968D01*
X2009758Y1845824D01*
X2009556Y1845685D01*
X2009350Y1845551D01*
X2009141Y1845423D01*
X2008929Y1845299D01*
X2008714Y1845181D01*
X2008496Y1845068D01*
X2008276Y1844960D01*
X2008052Y1844858D01*
X2007827Y1844761D01*
X2007599Y1844670D01*
X2007369Y1844585D01*
X2007137Y1844505D01*
X2006903Y1844431D01*
X2006667Y1844362D01*
X2006430Y1844300D01*
X2006191Y1844243D01*
X2005951Y1844192D01*
X2005710Y1844147D01*
X2005467Y1844108D01*
X2005224Y1844075D01*
X2004980Y1844048D01*
X2004736Y1844027D01*
X2004491Y1844012D01*
X2004245Y1844003D01*
X2004000Y1844000D01*
X2003755Y1844003D01*
X2003509Y1844012D01*
X2003264Y1844027D01*
X2003020Y1844048D01*
X2002776Y1844075D01*
X2002533Y1844108D01*
X2002290Y1844147D01*
X2002049Y1844192D01*
X2001809Y1844243D01*
X2001570Y1844300D01*
X2001333Y1844362D01*
X2001097Y1844431D01*
X2000863Y1844505D01*
X2000631Y1844585D01*
X2000401Y1844670D01*
X2000173Y1844761D01*
X1999948Y1844858D01*
X1999724Y1844960D01*
X1999504Y1845068D01*
X1999286Y1845181D01*
X1999071Y1845299D01*
X1998859Y1845423D01*
X1998650Y1845551D01*
X1998444Y1845685D01*
X1998242Y1845824D01*
X1998043Y1845968D01*
X1997848Y1846117D01*
X1997656Y1846270D01*
X1997468Y1846428D01*
X1997284Y1846590D01*
X1997105Y1846758D01*
X1996929Y1846929D01*
X1996758Y1847105D01*
X1996590Y1847284D01*
X1996428Y1847468D01*
X1996270Y1847656D01*
X1996117Y1847848D01*
X1995968Y1848043D01*
X1995824Y1848242D01*
X1995685Y1848444D01*
X1995551Y1848650D01*
X1995423Y1848859D01*
X1995299Y1849071D01*
X1995181Y1849286D01*
X1995068Y1849504D01*
X1994960Y1849724D01*
X1994858Y1849948D01*
X1994761Y1850173D01*
X1994670Y1850401D01*
X1994585Y1850631D01*
X1994505Y1850863D01*
X1994431Y1851097D01*
X1994362Y1851333D01*
X1994300Y1851570D01*
X1994243Y1851809D01*
X1994192Y1852049D01*
X1994147Y1852290D01*
X1994108Y1852533D01*
X1994075Y1852776D01*
X1994048Y1853020D01*
X1994027Y1853264D01*
X1994012Y1853509D01*
X1994003Y1853755D01*
X1994000Y1854000D01*
D10*
X2025661Y1553860D02*
X2026157Y1553854D01*
X2026653Y1553836D01*
X2027148Y1553806D01*
X2027642Y1553764D01*
X2028135Y1553710D01*
X2028627Y1553645D01*
X2029117Y1553567D01*
X2029605Y1553478D01*
X2030091Y1553376D01*
X2030574Y1553263D01*
X2031054Y1553139D01*
X2031531Y1553003D01*
X2032005Y1552855D01*
X2032475Y1552696D01*
X2032941Y1552526D01*
X2033402Y1552344D01*
X2033860Y1552152D01*
X2034312Y1551948D01*
X2034759Y1551734D01*
X2035201Y1551509D01*
X2035638Y1551273D01*
X2036068Y1551026D01*
X2036493Y1550770D01*
X2036911Y1550503D01*
X2037323Y1550226D01*
X2037728Y1549939D01*
X2038125Y1549643D01*
X2038516Y1549337D01*
X2038899Y1549022D01*
X2039274Y1548697D01*
X2039642Y1548364D01*
X2040001Y1548022D01*
X2040352Y1547671D01*
X2040694Y1547312D01*
X2041027Y1546944D01*
X2041352Y1546569D01*
X2041667Y1546186D01*
X2041973Y1545795D01*
X2042269Y1545398D01*
X2042556Y1544993D01*
X2042833Y1544581D01*
X2043100Y1544163D01*
X2043356Y1543738D01*
X2043603Y1543308D01*
X2043839Y1542871D01*
X2044064Y1542429D01*
X2044278Y1541982D01*
X2044482Y1541530D01*
X2044674Y1541072D01*
X2044856Y1540611D01*
X2045026Y1540145D01*
X2045185Y1539675D01*
X2045333Y1539201D01*
X2045469Y1538724D01*
X2045593Y1538244D01*
X2045706Y1537761D01*
X2045808Y1537275D01*
X2045897Y1536787D01*
X2045975Y1536297D01*
X2046040Y1535805D01*
X2046094Y1535312D01*
X2046136Y1534818D01*
X2046166Y1534323D01*
X2046184Y1533827D01*
X2046190Y1533331D01*
X2046191Y1533331D02*
X2046179Y1532293D01*
X2046141Y1531257D01*
X2046079Y1530221D01*
X2045993Y1529187D01*
X2045881Y1528155D01*
X2045745Y1527127D01*
X2045584Y1526101D01*
X2045399Y1525080D01*
X2045189Y1524064D01*
X2044956Y1523053D01*
X2044698Y1522048D01*
X2044416Y1521050D01*
X2044110Y1520058D01*
X2043781Y1519074D01*
X2043428Y1518098D01*
X2043052Y1517131D01*
X2042653Y1516174D01*
X2042231Y1515226D01*
X2041786Y1514288D01*
X2041320Y1513361D01*
X2040831Y1512446D01*
X2040320Y1511543D01*
X2039788Y1510652D01*
X2039235Y1509774D01*
X2038661Y1508909D01*
X2038067Y1508059D01*
X2037452Y1507223D01*
X2036817Y1506402D01*
X2036163Y1505597D01*
X2035490Y1504807D01*
X2034799Y1504033D01*
X2034089Y1503277D01*
X2033361Y1502537D01*
X1974339Y1505104D02*
X1973843Y1505110D01*
X1973347Y1505128D01*
X1972852Y1505158D01*
X1972358Y1505200D01*
X1971865Y1505254D01*
X1971373Y1505319D01*
X1970883Y1505397D01*
X1970395Y1505486D01*
X1969909Y1505588D01*
X1969426Y1505701D01*
X1968946Y1505825D01*
X1968469Y1505961D01*
X1967995Y1506109D01*
X1967525Y1506268D01*
X1967059Y1506438D01*
X1966598Y1506620D01*
X1966140Y1506812D01*
X1965688Y1507016D01*
X1965241Y1507230D01*
X1964799Y1507455D01*
X1964362Y1507691D01*
X1963932Y1507938D01*
X1963507Y1508194D01*
X1963089Y1508461D01*
X1962677Y1508738D01*
X1962272Y1509025D01*
X1961875Y1509321D01*
X1961484Y1509627D01*
X1961101Y1509942D01*
X1960726Y1510267D01*
X1960358Y1510600D01*
X1959999Y1510942D01*
X1959648Y1511293D01*
X1959306Y1511652D01*
X1958973Y1512020D01*
X1958648Y1512395D01*
X1958333Y1512778D01*
X1958027Y1513169D01*
X1957731Y1513566D01*
X1957444Y1513971D01*
X1957167Y1514383D01*
X1956900Y1514801D01*
X1956644Y1515226D01*
X1956397Y1515656D01*
X1956161Y1516093D01*
X1955936Y1516535D01*
X1955722Y1516982D01*
X1955518Y1517434D01*
X1955326Y1517892D01*
X1955144Y1518353D01*
X1954974Y1518819D01*
X1954815Y1519289D01*
X1954667Y1519763D01*
X1954531Y1520240D01*
X1954407Y1520720D01*
X1954294Y1521203D01*
X1954192Y1521689D01*
X1954103Y1522177D01*
X1954025Y1522667D01*
X1953960Y1523159D01*
X1953906Y1523652D01*
X1953864Y1524146D01*
X1953834Y1524641D01*
X1953816Y1525137D01*
X1953810Y1525633D01*
X1953821Y1526550D01*
X1953854Y1527467D01*
X1953908Y1528383D01*
X1953985Y1529297D01*
X1954083Y1530209D01*
X1954203Y1531119D01*
X1954344Y1532025D01*
X1954508Y1532928D01*
X1954692Y1533826D01*
X1954898Y1534720D01*
X1955125Y1535609D01*
X1955374Y1536492D01*
X1955643Y1537369D01*
X1955933Y1538239D01*
X1956244Y1539102D01*
X1956575Y1539958D01*
X1956926Y1540805D01*
X1957298Y1541644D01*
X1957690Y1542474D01*
X1958101Y1543294D01*
X1958531Y1544104D01*
X1958981Y1544903D01*
X1959450Y1545692D01*
X1959937Y1546469D01*
X1960443Y1547234D01*
X1960967Y1547987D01*
X1961508Y1548728D01*
X1992301Y1515368D02*
X1992041Y1514938D01*
X1991769Y1514514D01*
X1991488Y1514096D01*
X1991197Y1513685D01*
X1990896Y1513282D01*
X1990585Y1512886D01*
X1990265Y1512497D01*
X1989935Y1512117D01*
X1989597Y1511744D01*
X1989249Y1511380D01*
X1988893Y1511024D01*
X1988528Y1510677D01*
X1988155Y1510339D01*
X1987774Y1510010D01*
X1987385Y1509690D01*
X1986989Y1509380D01*
X1986585Y1509080D01*
X1986174Y1508789D01*
X1985756Y1508508D01*
X1985332Y1508237D01*
X1984901Y1507977D01*
X1984464Y1507727D01*
X1984021Y1507488D01*
X1983572Y1507260D01*
X1983118Y1507042D01*
X1982659Y1506836D01*
X1982195Y1506641D01*
X1981726Y1506457D01*
X1981254Y1506284D01*
X1980777Y1506123D01*
X1980296Y1505973D01*
X1979812Y1505835D01*
X1979325Y1505709D01*
X1978834Y1505594D01*
X1978341Y1505492D01*
X1977846Y1505401D01*
X1977349Y1505322D01*
X1976850Y1505256D01*
X1976350Y1505201D01*
X1975848Y1505159D01*
X1975345Y1505128D01*
X1974842Y1505110D01*
X1974339Y1505104D01*
X2007698Y1543595D02*
X2007959Y1544026D01*
X2008230Y1544450D01*
X2008511Y1544868D01*
X2008802Y1545278D01*
X2009104Y1545682D01*
X2009414Y1546078D01*
X2009735Y1546466D01*
X2010064Y1546847D01*
X2010403Y1547219D01*
X2010750Y1547584D01*
X2011107Y1547939D01*
X2011471Y1548287D01*
X2011844Y1548625D01*
X2012225Y1548954D01*
X2012614Y1549273D01*
X2013011Y1549584D01*
X2013414Y1549884D01*
X2013825Y1550175D01*
X2014243Y1550456D01*
X2014668Y1550726D01*
X2015099Y1550987D01*
X2015536Y1551236D01*
X2015979Y1551476D01*
X2016428Y1551704D01*
X2016882Y1551921D01*
X2017341Y1552128D01*
X2017805Y1552323D01*
X2018273Y1552507D01*
X2018746Y1552680D01*
X2019223Y1552841D01*
X2019704Y1552991D01*
X2020188Y1553129D01*
X2020675Y1553255D01*
X2021166Y1553370D01*
X2021658Y1553472D01*
X2022154Y1553563D01*
X2022651Y1553642D01*
X2023150Y1553708D01*
X2023650Y1553763D01*
X2024152Y1553805D01*
X2024654Y1553836D01*
X2025158Y1553854D01*
X2025661Y1553860D01*
X2007698Y1543595D02*
X1992302Y1515368D01*
X1953810Y1593839D02*
X2046190Y1593839D01*
X1953810Y1593839D02*
X1953810Y1619500D01*
X1953818Y1620125D01*
X1953840Y1620749D01*
X1953878Y1621373D01*
X1953932Y1621996D01*
X1954000Y1622617D01*
X1954083Y1623236D01*
X1954182Y1623853D01*
X1954295Y1624468D01*
X1954424Y1625079D01*
X1954567Y1625688D01*
X1954725Y1626292D01*
X1954898Y1626893D01*
X1955085Y1627489D01*
X1955287Y1628081D01*
X1955503Y1628667D01*
X1955734Y1629248D01*
X1955978Y1629823D01*
X1956236Y1630392D01*
X1956508Y1630955D01*
X1956794Y1631510D01*
X1957093Y1632059D01*
X1957406Y1632600D01*
X1957731Y1633134D01*
X1958070Y1633659D01*
X1958421Y1634176D01*
X1958785Y1634684D01*
X1959160Y1635183D01*
X1959548Y1635673D01*
X1959948Y1636154D01*
X1960359Y1636624D01*
X1960782Y1637084D01*
X1961216Y1637534D01*
X1961660Y1637973D01*
X1962115Y1638402D01*
X1962581Y1638819D01*
X1963056Y1639224D01*
X1963542Y1639618D01*
X1964036Y1640000D01*
X1964540Y1640370D01*
X1965053Y1640727D01*
X1965574Y1641072D01*
X1966103Y1641404D01*
X1966641Y1641723D01*
X1967185Y1642029D01*
X1967738Y1642321D01*
X1968297Y1642600D01*
X1968863Y1642866D01*
X1969435Y1643117D01*
X1970013Y1643354D01*
X1970597Y1643578D01*
X1971186Y1643787D01*
X1971779Y1643981D01*
X1972378Y1644161D01*
X1972980Y1644327D01*
X1973587Y1644477D01*
X1974197Y1644613D01*
X1974810Y1644734D01*
X1975426Y1644840D01*
X1976044Y1644931D01*
X1976664Y1645007D01*
X1977286Y1645068D01*
X1977910Y1645113D01*
X1978534Y1645144D01*
X1979159Y1645159D01*
X1979783Y1645159D01*
X1980408Y1645144D01*
X1981032Y1645113D01*
X1981656Y1645068D01*
X1982278Y1645007D01*
X1982898Y1644931D01*
X1983516Y1644840D01*
X1984132Y1644734D01*
X1984745Y1644613D01*
X1985355Y1644477D01*
X1985962Y1644327D01*
X1986564Y1644161D01*
X1987163Y1643981D01*
X1987756Y1643787D01*
X1988345Y1643578D01*
X1988929Y1643354D01*
X1989507Y1643117D01*
X1990079Y1642866D01*
X1990645Y1642600D01*
X1991204Y1642321D01*
X1991757Y1642029D01*
X1992302Y1641723D01*
X1992839Y1641404D01*
X1993368Y1641072D01*
X1993889Y1640727D01*
X1994402Y1640370D01*
X1994906Y1640000D01*
X1995400Y1639618D01*
X1995886Y1639224D01*
X1996361Y1638819D01*
X1996827Y1638402D01*
X1997282Y1637973D01*
X1997726Y1637534D01*
X1998160Y1637084D01*
X1998583Y1636624D01*
X1998994Y1636154D01*
X1999394Y1635673D01*
X1999782Y1635183D01*
X2000157Y1634684D01*
X2000521Y1634176D01*
X2000872Y1633659D01*
X2001211Y1633134D01*
X2001536Y1632600D01*
X2001849Y1632059D01*
X2002148Y1631510D01*
X2002434Y1630955D01*
X2002706Y1630392D01*
X2002964Y1629823D01*
X2003208Y1629248D01*
X2003439Y1628667D01*
X2003655Y1628081D01*
X2003857Y1627489D01*
X2004044Y1626893D01*
X2004217Y1626292D01*
X2004375Y1625688D01*
X2004518Y1625079D01*
X2004647Y1624468D01*
X2004760Y1623853D01*
X2004859Y1623236D01*
X2004942Y1622617D01*
X2005010Y1621996D01*
X2005064Y1621373D01*
X2005102Y1620749D01*
X2005124Y1620125D01*
X2005132Y1619500D01*
X2005133Y1619500D02*
X2005133Y1593839D01*
X2046190Y1687198D02*
X1953810Y1687198D01*
X2046190Y1676934D02*
X2046190Y1697463D01*
X1953810Y1697463D02*
X1953810Y1676934D01*
D12*
X2100000Y900000D02*
X1650000Y900000D01*
X2100000Y900000D02*
X2100000Y450000D01*
X1650000Y450000D01*
X1650000Y900000D01*
D10*
X1663708Y396190D02*
X1663708Y303810D01*
X1663708Y396190D02*
X1689368Y396190D01*
X1689993Y396182D01*
X1690617Y396160D01*
X1691241Y396122D01*
X1691864Y396068D01*
X1692485Y396000D01*
X1693104Y395917D01*
X1693721Y395818D01*
X1694336Y395705D01*
X1694947Y395576D01*
X1695556Y395433D01*
X1696160Y395275D01*
X1696761Y395102D01*
X1697357Y394915D01*
X1697949Y394713D01*
X1698535Y394497D01*
X1699116Y394266D01*
X1699691Y394022D01*
X1700260Y393764D01*
X1700823Y393492D01*
X1701378Y393206D01*
X1701927Y392907D01*
X1702468Y392594D01*
X1703002Y392269D01*
X1703527Y391930D01*
X1704044Y391579D01*
X1704552Y391215D01*
X1705051Y390840D01*
X1705541Y390452D01*
X1706022Y390052D01*
X1706492Y389641D01*
X1706952Y389218D01*
X1707402Y388784D01*
X1707841Y388340D01*
X1708270Y387885D01*
X1708687Y387419D01*
X1709092Y386944D01*
X1709486Y386458D01*
X1709868Y385964D01*
X1710238Y385460D01*
X1710595Y384947D01*
X1710940Y384426D01*
X1711272Y383897D01*
X1711591Y383360D01*
X1711897Y382815D01*
X1712189Y382262D01*
X1712468Y381703D01*
X1712734Y381137D01*
X1712985Y380565D01*
X1713222Y379987D01*
X1713446Y379403D01*
X1713655Y378814D01*
X1713849Y378221D01*
X1714029Y377622D01*
X1714195Y377020D01*
X1714345Y376413D01*
X1714481Y375803D01*
X1714602Y375190D01*
X1714708Y374574D01*
X1714799Y373956D01*
X1714875Y373336D01*
X1714936Y372714D01*
X1714981Y372090D01*
X1715012Y371466D01*
X1715027Y370841D01*
X1715027Y370217D01*
X1715012Y369592D01*
X1714981Y368968D01*
X1714936Y368344D01*
X1714875Y367722D01*
X1714799Y367102D01*
X1714708Y366484D01*
X1714602Y365868D01*
X1714481Y365255D01*
X1714345Y364645D01*
X1714195Y364038D01*
X1714029Y363436D01*
X1713849Y362837D01*
X1713655Y362244D01*
X1713446Y361655D01*
X1713222Y361071D01*
X1712985Y360493D01*
X1712734Y359921D01*
X1712468Y359355D01*
X1712189Y358796D01*
X1711897Y358243D01*
X1711591Y357699D01*
X1711272Y357161D01*
X1710940Y356632D01*
X1710595Y356111D01*
X1710238Y355598D01*
X1709868Y355094D01*
X1709486Y354600D01*
X1709092Y354114D01*
X1708687Y353639D01*
X1708270Y353173D01*
X1707841Y352718D01*
X1707402Y352274D01*
X1706952Y351840D01*
X1706492Y351417D01*
X1706022Y351006D01*
X1705541Y350606D01*
X1705051Y350218D01*
X1704552Y349843D01*
X1704044Y349479D01*
X1703527Y349128D01*
X1703002Y348789D01*
X1702468Y348464D01*
X1701927Y348151D01*
X1701378Y347852D01*
X1700823Y347566D01*
X1700260Y347294D01*
X1699691Y347036D01*
X1699116Y346792D01*
X1698535Y346561D01*
X1697949Y346345D01*
X1697357Y346143D01*
X1696761Y345956D01*
X1696160Y345783D01*
X1695556Y345625D01*
X1694947Y345482D01*
X1694336Y345353D01*
X1693721Y345240D01*
X1693104Y345141D01*
X1692485Y345058D01*
X1691864Y344990D01*
X1691241Y344936D01*
X1690617Y344898D01*
X1689993Y344876D01*
X1689368Y344868D01*
X1663708Y344868D01*
X1749406Y329471D02*
X1749406Y370529D01*
X1749414Y371154D01*
X1749436Y371778D01*
X1749474Y372402D01*
X1749528Y373025D01*
X1749596Y373646D01*
X1749679Y374265D01*
X1749778Y374882D01*
X1749891Y375497D01*
X1750020Y376108D01*
X1750163Y376717D01*
X1750321Y377321D01*
X1750494Y377922D01*
X1750681Y378518D01*
X1750883Y379110D01*
X1751099Y379696D01*
X1751330Y380277D01*
X1751574Y380852D01*
X1751832Y381421D01*
X1752104Y381984D01*
X1752390Y382539D01*
X1752689Y383088D01*
X1753002Y383629D01*
X1753327Y384163D01*
X1753666Y384688D01*
X1754017Y385205D01*
X1754381Y385713D01*
X1754756Y386212D01*
X1755144Y386702D01*
X1755544Y387183D01*
X1755955Y387653D01*
X1756378Y388113D01*
X1756812Y388563D01*
X1757256Y389002D01*
X1757711Y389431D01*
X1758177Y389848D01*
X1758652Y390253D01*
X1759138Y390647D01*
X1759632Y391029D01*
X1760136Y391399D01*
X1760649Y391756D01*
X1761170Y392101D01*
X1761699Y392433D01*
X1762237Y392752D01*
X1762781Y393058D01*
X1763334Y393350D01*
X1763893Y393629D01*
X1764459Y393895D01*
X1765031Y394146D01*
X1765609Y394383D01*
X1766193Y394607D01*
X1766782Y394816D01*
X1767375Y395010D01*
X1767974Y395190D01*
X1768576Y395356D01*
X1769183Y395506D01*
X1769793Y395642D01*
X1770406Y395763D01*
X1771022Y395869D01*
X1771640Y395960D01*
X1772260Y396036D01*
X1772882Y396097D01*
X1773506Y396142D01*
X1774130Y396173D01*
X1774755Y396188D01*
X1775379Y396188D01*
X1776004Y396173D01*
X1776628Y396142D01*
X1777252Y396097D01*
X1777874Y396036D01*
X1778494Y395960D01*
X1779112Y395869D01*
X1779728Y395763D01*
X1780341Y395642D01*
X1780951Y395506D01*
X1781558Y395356D01*
X1782160Y395190D01*
X1782759Y395010D01*
X1783352Y394816D01*
X1783941Y394607D01*
X1784525Y394383D01*
X1785103Y394146D01*
X1785675Y393895D01*
X1786241Y393629D01*
X1786800Y393350D01*
X1787353Y393058D01*
X1787898Y392752D01*
X1788435Y392433D01*
X1788964Y392101D01*
X1789485Y391756D01*
X1789998Y391399D01*
X1790502Y391029D01*
X1790996Y390647D01*
X1791482Y390253D01*
X1791957Y389848D01*
X1792423Y389431D01*
X1792878Y389002D01*
X1793322Y388563D01*
X1793756Y388113D01*
X1794179Y387653D01*
X1794590Y387183D01*
X1794990Y386702D01*
X1795378Y386212D01*
X1795753Y385713D01*
X1796117Y385205D01*
X1796468Y384688D01*
X1796807Y384163D01*
X1797132Y383629D01*
X1797445Y383088D01*
X1797744Y382539D01*
X1798030Y381984D01*
X1798302Y381421D01*
X1798560Y380852D01*
X1798804Y380277D01*
X1799035Y379696D01*
X1799251Y379110D01*
X1799453Y378518D01*
X1799640Y377922D01*
X1799813Y377321D01*
X1799971Y376717D01*
X1800114Y376108D01*
X1800243Y375497D01*
X1800356Y374882D01*
X1800455Y374265D01*
X1800538Y373646D01*
X1800606Y373025D01*
X1800660Y372402D01*
X1800698Y371778D01*
X1800720Y371154D01*
X1800728Y370529D01*
X1800728Y329471D01*
X1800720Y328846D01*
X1800698Y328222D01*
X1800660Y327598D01*
X1800606Y326975D01*
X1800538Y326354D01*
X1800455Y325735D01*
X1800356Y325118D01*
X1800243Y324503D01*
X1800114Y323892D01*
X1799971Y323283D01*
X1799813Y322679D01*
X1799640Y322078D01*
X1799453Y321482D01*
X1799251Y320890D01*
X1799035Y320304D01*
X1798804Y319723D01*
X1798560Y319148D01*
X1798302Y318579D01*
X1798030Y318016D01*
X1797744Y317461D01*
X1797445Y316912D01*
X1797132Y316371D01*
X1796807Y315837D01*
X1796468Y315312D01*
X1796117Y314795D01*
X1795753Y314287D01*
X1795378Y313788D01*
X1794990Y313298D01*
X1794590Y312817D01*
X1794179Y312347D01*
X1793756Y311887D01*
X1793322Y311437D01*
X1792878Y310998D01*
X1792423Y310569D01*
X1791957Y310152D01*
X1791482Y309747D01*
X1790996Y309353D01*
X1790502Y308971D01*
X1789998Y308601D01*
X1789485Y308244D01*
X1788964Y307899D01*
X1788435Y307567D01*
X1787898Y307248D01*
X1787353Y306942D01*
X1786800Y306650D01*
X1786241Y306371D01*
X1785675Y306105D01*
X1785103Y305854D01*
X1784525Y305617D01*
X1783941Y305393D01*
X1783352Y305184D01*
X1782759Y304990D01*
X1782160Y304810D01*
X1781558Y304644D01*
X1780951Y304494D01*
X1780341Y304358D01*
X1779728Y304237D01*
X1779112Y304131D01*
X1778494Y304040D01*
X1777874Y303964D01*
X1777252Y303903D01*
X1776628Y303858D01*
X1776004Y303827D01*
X1775379Y303812D01*
X1774755Y303812D01*
X1774130Y303827D01*
X1773506Y303858D01*
X1772882Y303903D01*
X1772260Y303964D01*
X1771640Y304040D01*
X1771022Y304131D01*
X1770406Y304237D01*
X1769793Y304358D01*
X1769183Y304494D01*
X1768576Y304644D01*
X1767974Y304810D01*
X1767375Y304990D01*
X1766782Y305184D01*
X1766193Y305393D01*
X1765609Y305617D01*
X1765031Y305854D01*
X1764459Y306105D01*
X1763893Y306371D01*
X1763334Y306650D01*
X1762781Y306942D01*
X1762237Y307248D01*
X1761699Y307567D01*
X1761170Y307899D01*
X1760649Y308244D01*
X1760136Y308601D01*
X1759632Y308971D01*
X1759138Y309353D01*
X1758652Y309747D01*
X1758177Y310152D01*
X1757711Y310569D01*
X1757256Y310998D01*
X1756812Y311437D01*
X1756378Y311887D01*
X1755955Y312347D01*
X1755544Y312817D01*
X1755144Y313298D01*
X1754756Y313788D01*
X1754381Y314287D01*
X1754017Y314795D01*
X1753666Y315312D01*
X1753327Y315837D01*
X1753002Y316371D01*
X1752689Y316912D01*
X1752390Y317461D01*
X1752104Y318016D01*
X1751832Y318579D01*
X1751574Y319148D01*
X1751330Y319723D01*
X1751099Y320304D01*
X1750883Y320890D01*
X1750681Y321482D01*
X1750494Y322078D01*
X1750321Y322679D01*
X1750163Y323283D01*
X1750020Y323892D01*
X1749891Y324503D01*
X1749778Y325118D01*
X1749679Y325735D01*
X1749596Y326354D01*
X1749528Y326975D01*
X1749474Y327598D01*
X1749436Y328222D01*
X1749414Y328846D01*
X1749406Y329471D01*
X1836009Y396190D02*
X1856538Y303810D01*
X1877066Y365397D01*
X1897595Y303810D01*
X1918124Y396190D01*
X1956579Y303810D02*
X1997636Y303810D01*
X1956579Y303810D02*
X1956579Y396190D01*
X1997636Y396190D01*
X1987372Y355132D02*
X1956579Y355132D01*
X2034971Y396190D02*
X2034971Y303810D01*
X2034971Y396190D02*
X2060632Y396190D01*
X2061257Y396182D01*
X2061881Y396160D01*
X2062505Y396122D01*
X2063128Y396068D01*
X2063749Y396000D01*
X2064368Y395917D01*
X2064985Y395818D01*
X2065600Y395705D01*
X2066211Y395576D01*
X2066820Y395433D01*
X2067424Y395275D01*
X2068025Y395102D01*
X2068621Y394915D01*
X2069213Y394713D01*
X2069799Y394497D01*
X2070380Y394266D01*
X2070955Y394022D01*
X2071524Y393764D01*
X2072087Y393492D01*
X2072642Y393206D01*
X2073191Y392907D01*
X2073732Y392594D01*
X2074266Y392269D01*
X2074791Y391930D01*
X2075308Y391579D01*
X2075816Y391215D01*
X2076315Y390840D01*
X2076805Y390452D01*
X2077286Y390052D01*
X2077756Y389641D01*
X2078216Y389218D01*
X2078666Y388784D01*
X2079105Y388340D01*
X2079534Y387885D01*
X2079951Y387419D01*
X2080356Y386944D01*
X2080750Y386458D01*
X2081132Y385964D01*
X2081502Y385460D01*
X2081859Y384947D01*
X2082204Y384426D01*
X2082536Y383897D01*
X2082855Y383360D01*
X2083161Y382815D01*
X2083453Y382262D01*
X2083732Y381703D01*
X2083998Y381137D01*
X2084249Y380565D01*
X2084486Y379987D01*
X2084710Y379403D01*
X2084919Y378814D01*
X2085113Y378221D01*
X2085293Y377622D01*
X2085459Y377020D01*
X2085609Y376413D01*
X2085745Y375803D01*
X2085866Y375190D01*
X2085972Y374574D01*
X2086063Y373956D01*
X2086139Y373336D01*
X2086200Y372714D01*
X2086245Y372090D01*
X2086276Y371466D01*
X2086291Y370841D01*
X2086291Y370217D01*
X2086276Y369592D01*
X2086245Y368968D01*
X2086200Y368344D01*
X2086139Y367722D01*
X2086063Y367102D01*
X2085972Y366484D01*
X2085866Y365868D01*
X2085745Y365255D01*
X2085609Y364645D01*
X2085459Y364038D01*
X2085293Y363436D01*
X2085113Y362837D01*
X2084919Y362244D01*
X2084710Y361655D01*
X2084486Y361071D01*
X2084249Y360493D01*
X2083998Y359921D01*
X2083732Y359355D01*
X2083453Y358796D01*
X2083161Y358243D01*
X2082855Y357699D01*
X2082536Y357161D01*
X2082204Y356632D01*
X2081859Y356111D01*
X2081502Y355598D01*
X2081132Y355094D01*
X2080750Y354600D01*
X2080356Y354114D01*
X2079951Y353639D01*
X2079534Y353173D01*
X2079105Y352718D01*
X2078666Y352274D01*
X2078216Y351840D01*
X2077756Y351417D01*
X2077286Y351006D01*
X2076805Y350606D01*
X2076315Y350218D01*
X2075816Y349843D01*
X2075308Y349479D01*
X2074791Y349128D01*
X2074266Y348789D01*
X2073732Y348464D01*
X2073191Y348151D01*
X2072642Y347852D01*
X2072087Y347566D01*
X2071524Y347294D01*
X2070955Y347036D01*
X2070380Y346792D01*
X2069799Y346561D01*
X2069213Y346345D01*
X2068621Y346143D01*
X2068025Y345956D01*
X2067424Y345783D01*
X2066820Y345625D01*
X2066211Y345482D01*
X2065600Y345353D01*
X2064985Y345240D01*
X2064368Y345141D01*
X2063749Y345058D01*
X2063128Y344990D01*
X2062505Y344936D01*
X2061881Y344898D01*
X2061257Y344876D01*
X2060632Y344868D01*
X2034971Y344868D01*
X2065764Y344868D02*
X2086293Y303810D01*
M02*
