G04 EAGLE Gerber X2 export*
%TF.Part,Single*%
%TF.FileFunction,Copper,L4,Bot,Mixed*%
%TF.FilePolarity,Positive*%
%TF.GenerationSoftware,Autodesk,EAGLE,9.6.2*%
%TF.CreationDate,2026-01-06T12:46:49Z*%
G75*
%MOMM*%
%FSLAX36Y36*%
%LPD*%
%INBottom Copper Layer*%
%AMOC8*
5,1,8,0,0,1.08239X$1,22.5*%
G01*
%ADD10C,0.076200*%
%ADD11C,1.524000*%
%ADD12P,2.336880X8X202.500000*%
%ADD13P,2.336880X8X22.500000*%
%ADD14C,0.152400*%
%ADD15C,2.895000*%
%ADD16C,5.000000*%
%ADD17C,0.553200*%

G36*
X27006009Y386763D02*
X27006009Y386763D01*
X27009806Y386381D01*
X27399169Y417025D01*
X27424334Y422259D01*
X27427991Y422759D01*
X28168609Y663400D01*
X28197153Y676863D01*
X28200728Y679838D01*
X28203453Y681153D01*
X28833459Y1138881D01*
X28856447Y1160506D01*
X28858931Y1164444D01*
X28861116Y1166538D01*
X29318844Y1796544D01*
X29334022Y1824213D01*
X29335169Y1828725D01*
X29336597Y1831388D01*
X29577238Y2572006D01*
X29582028Y2597241D01*
X29582972Y2600828D01*
X29613616Y2990191D01*
X29613325Y2996250D01*
X29614000Y2999997D01*
X29614000Y67000000D01*
X29613234Y67006009D01*
X29613616Y67009806D01*
X29582972Y67399169D01*
X29581425Y67406609D01*
X29581097Y67410984D01*
X29579597Y67415397D01*
X29577738Y67424334D01*
X29577238Y67427991D01*
X29336597Y68168609D01*
X29323134Y68197153D01*
X29320159Y68200728D01*
X29318844Y68203453D01*
X28861116Y68833459D01*
X28855297Y68839644D01*
X28853591Y68842244D01*
X28848559Y68846809D01*
X28839491Y68856447D01*
X28835553Y68858931D01*
X28833459Y68861116D01*
X28203453Y69318844D01*
X28175784Y69334022D01*
X28171272Y69335169D01*
X28168609Y69336597D01*
X27427991Y69577238D01*
X27402756Y69582028D01*
X27399169Y69582972D01*
X27009806Y69613616D01*
X27003747Y69613325D01*
X27000000Y69614000D01*
X2999997Y69614000D01*
X2993988Y69613234D01*
X2990191Y69613616D01*
X2600828Y69582972D01*
X2575663Y69577738D01*
X2572006Y69577238D01*
X1831388Y69336597D01*
X1802844Y69323134D01*
X1799269Y69320159D01*
X1796544Y69318844D01*
X1166538Y68861116D01*
X1160513Y68855450D01*
X1155331Y68851647D01*
X1151550Y68847016D01*
X1143550Y68839491D01*
X1141066Y68835553D01*
X1138881Y68833459D01*
X681153Y68203453D01*
X665975Y68175784D01*
X664828Y68171272D01*
X663400Y68168609D01*
X422759Y67427991D01*
X417969Y67402756D01*
X417025Y67399169D01*
X386381Y67009806D01*
X386672Y67003747D01*
X385997Y67000000D01*
X385997Y3000000D01*
X386763Y2993991D01*
X386381Y2990194D01*
X417025Y2600828D01*
X422259Y2575663D01*
X422759Y2572006D01*
X663400Y1831388D01*
X676863Y1802844D01*
X679838Y1799269D01*
X681153Y1796544D01*
X1138881Y1166538D01*
X1160506Y1143550D01*
X1164438Y1141072D01*
X1166534Y1138881D01*
X1796538Y681153D01*
X1824209Y665975D01*
X1828722Y664828D01*
X1831384Y663400D01*
X2572003Y422759D01*
X2597238Y417969D01*
X2600825Y417025D01*
X2990191Y386381D01*
X2996250Y386672D01*
X2999997Y385997D01*
X27000000Y385997D01*
X27006009Y386763D01*
G37*
%LPC*%
G36*
X10497925Y63995000D02*
X10497925Y63995000D01*
X10495000Y63997925D01*
X10495000Y67002072D01*
X10497925Y67004997D01*
X19502072Y67004997D01*
X19504997Y67002072D01*
X19504997Y63997925D01*
X19502072Y63995000D01*
X10497925Y63995000D01*
G37*
%LPD*%
%LPC*%
G36*
X6741969Y52449000D02*
X6741969Y52449000D01*
X6278131Y52641125D01*
X5923125Y52996131D01*
X5731000Y53459969D01*
X5731000Y53962028D01*
X5923125Y54425866D01*
X6278131Y54780872D01*
X6482484Y54865513D01*
X6494769Y54872531D01*
X6507272Y54879256D01*
X6508466Y54880363D01*
X6509884Y54881172D01*
X6520053Y54891081D01*
X6530438Y54900688D01*
X6531319Y54902056D01*
X6532488Y54903197D01*
X6539834Y54915313D01*
X6547500Y54927238D01*
X6548009Y54928791D01*
X6548853Y54930178D01*
X6552922Y54943713D01*
X6557366Y54957213D01*
X6557472Y54958844D01*
X6557941Y54960403D01*
X6558491Y54974516D01*
X6559413Y54988706D01*
X6559106Y54990316D01*
X6559169Y54991938D01*
X6556156Y55005791D01*
X6553503Y55019709D01*
X6552809Y55021175D01*
X6552463Y55022775D01*
X6546072Y55035438D01*
X6540022Y55048244D01*
X6538975Y55049500D01*
X6538244Y55050950D01*
X6528891Y55061603D01*
X6519819Y55072491D01*
X6518700Y55073209D01*
X6517422Y55074666D01*
X6491322Y55092413D01*
X6485663Y55094441D01*
X6482484Y55096481D01*
X6278131Y55181125D01*
X5923125Y55536131D01*
X5731000Y55999969D01*
X5731000Y56502028D01*
X5923125Y56965866D01*
X6278131Y57320872D01*
X6753891Y57517934D01*
X6758663Y57520659D01*
X6763819Y57522566D01*
X6772303Y57528459D01*
X6781291Y57533594D01*
X6785234Y57537438D01*
X6789741Y57540566D01*
X6796481Y57548397D01*
X6803894Y57555619D01*
X6806744Y57560316D01*
X6810331Y57564484D01*
X6814900Y57573763D01*
X6820263Y57582603D01*
X6821844Y57587869D01*
X6824272Y57592797D01*
X6826372Y57602928D01*
X6829347Y57612825D01*
X6829559Y57618309D01*
X6830678Y57623700D01*
X6830172Y57634050D01*
X6830575Y57644363D01*
X6829409Y57649722D01*
X6829141Y57655222D01*
X6826059Y57665109D01*
X6823866Y57675200D01*
X6821391Y57680103D01*
X6819756Y57685353D01*
X6816044Y57690700D01*
X6809647Y57703375D01*
X6801431Y57712734D01*
X6798469Y57717244D01*
X6796153Y57719344D01*
X6794444Y57721806D01*
X6170500Y58345747D01*
X6170500Y59654250D01*
X7095747Y60579497D01*
X8404250Y60579497D01*
X9329497Y59654250D01*
X9329497Y58345747D01*
X8708481Y57724734D01*
X8705119Y57720391D01*
X8701081Y57716656D01*
X8695494Y57707963D01*
X8689159Y57699781D01*
X8686991Y57694728D01*
X8684019Y57690106D01*
X8680784Y57680284D01*
X8676706Y57670784D01*
X8675872Y57665350D01*
X8674153Y57660131D01*
X8673484Y57649825D01*
X8671909Y57639591D01*
X8672463Y57634116D01*
X8672106Y57628638D01*
X8674041Y57618484D01*
X8675081Y57608191D01*
X8676988Y57603031D01*
X8678016Y57597634D01*
X8682434Y57588284D01*
X8686016Y57578584D01*
X8689147Y57574078D01*
X8691497Y57569100D01*
X8698128Y57561144D01*
X8704016Y57552663D01*
X8708178Y57549078D01*
X8711700Y57544853D01*
X8717178Y57541331D01*
X8723784Y57535647D01*
X8726100Y57533547D01*
X8726419Y57533378D01*
X8727934Y57532075D01*
X8743528Y57524394D01*
X8743575Y57524372D01*
X8749034Y57520863D01*
X9231866Y57320872D01*
X9586872Y56965866D01*
X9778997Y56502028D01*
X9778997Y55999969D01*
X9586872Y55536131D01*
X9231866Y55181125D01*
X9027513Y55096481D01*
X9015228Y55089463D01*
X9002725Y55082738D01*
X9001531Y55081631D01*
X9000113Y55080822D01*
X8989944Y55070913D01*
X8979559Y55061306D01*
X8978678Y55059938D01*
X8977509Y55058797D01*
X8970150Y55046666D01*
X8962497Y55034756D01*
X8961988Y55033209D01*
X8961141Y55031813D01*
X8957053Y55018219D01*
X8952631Y55004778D01*
X8952525Y55003153D01*
X8952056Y55001591D01*
X8951506Y54987472D01*
X8950584Y54973284D01*
X8950891Y54971675D01*
X8950828Y54970053D01*
X8953834Y54956241D01*
X8956494Y54942284D01*
X8957191Y54940809D01*
X8957538Y54939216D01*
X8963928Y54926550D01*
X8969978Y54913750D01*
X8971019Y54912500D01*
X8971756Y54911041D01*
X8981128Y54900369D01*
X8990178Y54889503D01*
X8991297Y54888784D01*
X8992578Y54887325D01*
X9018675Y54869581D01*
X9024338Y54867553D01*
X9027513Y54865513D01*
X9231866Y54780872D01*
X9586872Y54425866D01*
X9778997Y53962028D01*
X9778997Y53459969D01*
X9586872Y52996131D01*
X9231866Y52641125D01*
X8768028Y52449000D01*
X6741969Y52449000D01*
G37*
%LPD*%
%LPC*%
G36*
X6736969Y37968000D02*
X6736969Y37968000D01*
X6273131Y38160125D01*
X5918125Y38515131D01*
X5726000Y38978969D01*
X5726000Y39481028D01*
X5918125Y39944866D01*
X6273131Y40299872D01*
X6477481Y40384513D01*
X6489791Y40391547D01*
X6502266Y40398256D01*
X6503456Y40399356D01*
X6504881Y40400172D01*
X6515078Y40410106D01*
X6525434Y40419688D01*
X6526316Y40421056D01*
X6527484Y40422197D01*
X6534819Y40434288D01*
X6542497Y40446238D01*
X6543009Y40447797D01*
X6543850Y40449181D01*
X6547913Y40462694D01*
X6552363Y40476213D01*
X6552469Y40477844D01*
X6552938Y40479403D01*
X6553488Y40493516D01*
X6554409Y40507706D01*
X6554103Y40509316D01*
X6554166Y40510938D01*
X6551166Y40524738D01*
X6548503Y40538709D01*
X6547806Y40540184D01*
X6547459Y40541778D01*
X6541066Y40554447D01*
X6535019Y40567241D01*
X6533978Y40568491D01*
X6533241Y40569950D01*
X6523925Y40580559D01*
X6514819Y40591491D01*
X6513688Y40592219D01*
X6512416Y40593666D01*
X6486319Y40611413D01*
X6480656Y40613441D01*
X6477481Y40615481D01*
X6273131Y40700125D01*
X5918125Y41055131D01*
X5726000Y41518969D01*
X5726000Y42021028D01*
X5918125Y42484866D01*
X6273131Y42839872D01*
X6736969Y43031997D01*
X8763028Y43031997D01*
X9226866Y42839872D01*
X9581872Y42484866D01*
X9773997Y42021028D01*
X9773997Y41518969D01*
X9581872Y41055131D01*
X9226866Y40700125D01*
X9022516Y40615481D01*
X9010231Y40608463D01*
X8997728Y40601738D01*
X8996534Y40600631D01*
X8995116Y40599822D01*
X8984947Y40589913D01*
X8974563Y40580306D01*
X8973681Y40578938D01*
X8972513Y40577797D01*
X8965153Y40565666D01*
X8957500Y40553756D01*
X8956991Y40552209D01*
X8956144Y40550813D01*
X8952056Y40537219D01*
X8947634Y40523778D01*
X8947528Y40522153D01*
X8947059Y40520591D01*
X8946509Y40506472D01*
X8945588Y40492284D01*
X8945894Y40490675D01*
X8945831Y40489053D01*
X8948838Y40475241D01*
X8951497Y40461284D01*
X8952194Y40459809D01*
X8952541Y40458216D01*
X8958906Y40445603D01*
X8964978Y40432750D01*
X8966028Y40431491D01*
X8966759Y40430041D01*
X8976103Y40419400D01*
X8985181Y40408503D01*
X8986300Y40407784D01*
X8987581Y40406325D01*
X9013678Y40388581D01*
X9019341Y40386553D01*
X9022516Y40384513D01*
X9226866Y40299872D01*
X9581872Y39944866D01*
X9773997Y39481028D01*
X9773997Y38978969D01*
X9581872Y38515131D01*
X9226866Y38160125D01*
X8763028Y37968000D01*
X6736969Y37968000D01*
G37*
%LPD*%
%LPC*%
G36*
X6741969Y45461000D02*
X6741969Y45461000D01*
X6278131Y45653125D01*
X5923125Y46008131D01*
X5731000Y46471969D01*
X5731000Y46974028D01*
X5923125Y47437866D01*
X6278131Y47792872D01*
X6482481Y47877513D01*
X6494791Y47884547D01*
X6507266Y47891256D01*
X6508456Y47892356D01*
X6509881Y47893172D01*
X6520078Y47903106D01*
X6530434Y47912688D01*
X6531316Y47914056D01*
X6532484Y47915197D01*
X6539819Y47927288D01*
X6547497Y47939238D01*
X6548009Y47940797D01*
X6548850Y47942181D01*
X6552913Y47955694D01*
X6557363Y47969213D01*
X6557469Y47970844D01*
X6557938Y47972403D01*
X6558488Y47986516D01*
X6559409Y48000706D01*
X6559103Y48002316D01*
X6559166Y48003938D01*
X6556166Y48017738D01*
X6553503Y48031709D01*
X6552806Y48033184D01*
X6552459Y48034778D01*
X6546066Y48047447D01*
X6540019Y48060241D01*
X6538978Y48061491D01*
X6538241Y48062950D01*
X6528925Y48073559D01*
X6519819Y48084491D01*
X6518688Y48085219D01*
X6517416Y48086666D01*
X6491319Y48104413D01*
X6485656Y48106441D01*
X6482481Y48108481D01*
X6278131Y48193125D01*
X5923125Y48548131D01*
X5731000Y49011969D01*
X5731000Y49514028D01*
X5923125Y49977866D01*
X6278131Y50332872D01*
X6741969Y50524997D01*
X8768028Y50524997D01*
X9231866Y50332872D01*
X9586872Y49977866D01*
X9778997Y49514028D01*
X9778997Y49011969D01*
X9586872Y48548131D01*
X9231866Y48193125D01*
X9027516Y48108481D01*
X9015231Y48101463D01*
X9002728Y48094738D01*
X9001534Y48093631D01*
X9000116Y48092822D01*
X8989947Y48082913D01*
X8979563Y48073306D01*
X8978681Y48071938D01*
X8977513Y48070797D01*
X8970153Y48058666D01*
X8962500Y48046756D01*
X8961991Y48045209D01*
X8961144Y48043813D01*
X8957056Y48030219D01*
X8952634Y48016778D01*
X8952528Y48015153D01*
X8952059Y48013591D01*
X8951509Y47999472D01*
X8950588Y47985284D01*
X8950894Y47983675D01*
X8950831Y47982053D01*
X8953838Y47968241D01*
X8956497Y47954284D01*
X8957194Y47952809D01*
X8957541Y47951216D01*
X8963906Y47938603D01*
X8969978Y47925750D01*
X8971028Y47924491D01*
X8971759Y47923041D01*
X8981106Y47912394D01*
X8990181Y47901503D01*
X8991300Y47900784D01*
X8992581Y47899325D01*
X9018678Y47881581D01*
X9024341Y47879553D01*
X9027516Y47877513D01*
X9231866Y47792872D01*
X9586872Y47437866D01*
X9778997Y46974028D01*
X9778997Y46471969D01*
X9586872Y46008131D01*
X9231866Y45653125D01*
X8768028Y45461000D01*
X6741969Y45461000D01*
G37*
%LPD*%
%LPC*%
G36*
X19571547Y59278500D02*
X19571547Y59278500D01*
X18946175Y59537538D01*
X18467538Y60016175D01*
X18208500Y60641547D01*
X18208500Y61318450D01*
X18467538Y61943822D01*
X18946175Y62422459D01*
X19571547Y62681497D01*
X20248450Y62681497D01*
X20873822Y62422459D01*
X21352459Y61943822D01*
X21611497Y61318450D01*
X21611497Y60641547D01*
X21352459Y60016175D01*
X20873822Y59537538D01*
X20248450Y59278500D01*
X19571547Y59278500D01*
G37*
%LPD*%
%LPC*%
G36*
X19571547Y7278500D02*
X19571547Y7278500D01*
X18946175Y7537538D01*
X18467538Y8016175D01*
X18208500Y8641547D01*
X18208500Y9318450D01*
X18467538Y9943822D01*
X18946175Y10422459D01*
X19571547Y10681497D01*
X20248450Y10681497D01*
X20873822Y10422459D01*
X21352459Y9943822D01*
X21611497Y9318450D01*
X21611497Y8641547D01*
X21352459Y8016175D01*
X20873822Y7537538D01*
X20248450Y7278500D01*
X19571547Y7278500D01*
G37*
%LPD*%
%LPC*%
G36*
X6741969Y17073000D02*
X6741969Y17073000D01*
X6278131Y17265125D01*
X5923125Y17620131D01*
X5731000Y18083969D01*
X5731000Y18586028D01*
X5923125Y19049866D01*
X6278131Y19404872D01*
X6741969Y19596997D01*
X8768028Y19596997D01*
X9231866Y19404872D01*
X9586872Y19049866D01*
X9778997Y18586028D01*
X9778997Y18083969D01*
X9586872Y17620131D01*
X9231866Y17265125D01*
X8768028Y17073000D01*
X6741969Y17073000D01*
G37*
%LPD*%
%LPC*%
G36*
X19196522Y44941400D02*
X19196522Y44941400D01*
X18911091Y45059628D01*
X18692628Y45278091D01*
X18574400Y45563522D01*
X18574400Y45872472D01*
X18645931Y46045159D01*
X18648809Y46055719D01*
X18652506Y46066038D01*
X18652950Y46070906D01*
X18654231Y46075609D01*
X18654372Y46086563D01*
X18655366Y46097469D01*
X18654563Y46101159D01*
X18654641Y46107166D01*
X18647134Y46137819D01*
X18646216Y46139531D01*
X18645931Y46140831D01*
X18574400Y46313522D01*
X18574400Y46622475D01*
X18645931Y46795166D01*
X18648806Y46805716D01*
X18652506Y46816041D01*
X18652950Y46820909D01*
X18654231Y46825613D01*
X18654372Y46836566D01*
X18655366Y46847472D01*
X18654563Y46851163D01*
X18654641Y46857169D01*
X18647134Y46887822D01*
X18646216Y46889531D01*
X18645931Y46890838D01*
X18574400Y47063525D01*
X18574400Y47372475D01*
X18692628Y47657906D01*
X18928334Y47893613D01*
X18936019Y47903538D01*
X18944222Y47913066D01*
X18945663Y47915991D01*
X18947656Y47918566D01*
X18952609Y47930100D01*
X18958163Y47941378D01*
X18958825Y47944575D01*
X18960109Y47947566D01*
X18962019Y47959978D01*
X18964569Y47972281D01*
X18964409Y47975531D01*
X18964906Y47978756D01*
X18963644Y47991263D01*
X18963031Y48003803D01*
X18962063Y48006916D01*
X18961734Y48010156D01*
X18957388Y48021925D01*
X18953647Y48033934D01*
X18952163Y48036072D01*
X18950800Y48039763D01*
X18932800Y48065684D01*
X18929816Y48068253D01*
X18928334Y48070388D01*
X18712628Y48286091D01*
X18594400Y48571522D01*
X18594400Y48880475D01*
X18665931Y49053166D01*
X18668806Y49063716D01*
X18672506Y49074041D01*
X18672950Y49078909D01*
X18674231Y49083613D01*
X18674372Y49094566D01*
X18675366Y49105472D01*
X18674563Y49109163D01*
X18674641Y49115169D01*
X18667134Y49145822D01*
X18666216Y49147531D01*
X18665931Y49148838D01*
X18594400Y49321525D01*
X18594400Y49630475D01*
X18665931Y49803166D01*
X18668806Y49813716D01*
X18672506Y49824041D01*
X18672950Y49828909D01*
X18674231Y49833613D01*
X18674372Y49844566D01*
X18675366Y49855472D01*
X18674563Y49859163D01*
X18674641Y49865169D01*
X18667134Y49895822D01*
X18666216Y49897531D01*
X18665931Y49898838D01*
X18594400Y50071525D01*
X18594400Y50380475D01*
X18712628Y50665906D01*
X18931091Y50884369D01*
X19216522Y51002597D01*
X19525475Y51002597D01*
X19810906Y50884369D01*
X20029369Y50665906D01*
X20147597Y50380475D01*
X20147597Y50071525D01*
X20076066Y49898838D01*
X20073188Y49888278D01*
X20069491Y49877959D01*
X20069047Y49873091D01*
X20067766Y49868388D01*
X20067625Y49857434D01*
X20066631Y49846528D01*
X20067434Y49842838D01*
X20067356Y49836831D01*
X20074863Y49806178D01*
X20075781Y49804466D01*
X20076066Y49803166D01*
X20147597Y49630475D01*
X20147597Y49321525D01*
X20076066Y49148838D01*
X20073188Y49138278D01*
X20069491Y49127959D01*
X20069047Y49123091D01*
X20067766Y49118388D01*
X20067625Y49107434D01*
X20066631Y49096528D01*
X20067434Y49092838D01*
X20067356Y49086831D01*
X20074863Y49056178D01*
X20075781Y49054466D01*
X20076066Y49053166D01*
X20147597Y48880475D01*
X20147597Y48571522D01*
X20029369Y48286091D01*
X19793663Y48050388D01*
X19785978Y48040463D01*
X19777775Y48030934D01*
X19776334Y48028009D01*
X19774341Y48025434D01*
X19769384Y48013891D01*
X19763834Y48002622D01*
X19763172Y47999431D01*
X19761888Y47996438D01*
X19759978Y47984016D01*
X19757428Y47971719D01*
X19757588Y47968469D01*
X19757091Y47965244D01*
X19758353Y47952738D01*
X19758966Y47940197D01*
X19759934Y47937084D01*
X19760263Y47933844D01*
X19764613Y47922063D01*
X19768350Y47910066D01*
X19769834Y47907928D01*
X19771197Y47904238D01*
X19789197Y47878316D01*
X19792178Y47875750D01*
X19793663Y47873613D01*
X20009369Y47657906D01*
X20127597Y47372475D01*
X20127597Y47063525D01*
X20056066Y46890838D01*
X20053188Y46880278D01*
X20049491Y46869959D01*
X20049047Y46865091D01*
X20047766Y46860388D01*
X20047625Y46849434D01*
X20046631Y46838528D01*
X20047434Y46834838D01*
X20047356Y46828831D01*
X20054863Y46798178D01*
X20055781Y46796466D01*
X20056066Y46795166D01*
X20127597Y46622475D01*
X20127597Y46313522D01*
X20056066Y46140831D01*
X20053191Y46130281D01*
X20049491Y46119956D01*
X20049047Y46115088D01*
X20047766Y46110384D01*
X20047625Y46099431D01*
X20046631Y46088525D01*
X20047434Y46084834D01*
X20047356Y46078828D01*
X20054863Y46048175D01*
X20055781Y46046466D01*
X20056066Y46045159D01*
X20127597Y45872472D01*
X20127597Y45563522D01*
X20009369Y45278091D01*
X19790906Y45059628D01*
X19505475Y44941400D01*
X19196522Y44941400D01*
G37*
%LPD*%
%LPC*%
G36*
X19225522Y51950400D02*
X19225522Y51950400D01*
X18940091Y52068628D01*
X18721628Y52287091D01*
X18603400Y52572522D01*
X18603400Y52881475D01*
X18674931Y53054166D01*
X18677806Y53064716D01*
X18681506Y53075041D01*
X18681950Y53079909D01*
X18683231Y53084613D01*
X18683372Y53095566D01*
X18684366Y53106472D01*
X18683563Y53110163D01*
X18683641Y53116169D01*
X18676134Y53146822D01*
X18675216Y53148531D01*
X18674931Y53149838D01*
X18603400Y53322525D01*
X18603400Y53631475D01*
X18674931Y53804166D01*
X18677806Y53814716D01*
X18681506Y53825041D01*
X18681950Y53829909D01*
X18683231Y53834613D01*
X18683372Y53845566D01*
X18684366Y53856472D01*
X18683563Y53860163D01*
X18683641Y53866169D01*
X18676134Y53896822D01*
X18675216Y53898531D01*
X18674931Y53899838D01*
X18603400Y54072525D01*
X18603400Y54381475D01*
X18721628Y54666906D01*
X18942334Y54887613D01*
X18950019Y54897538D01*
X18958222Y54907066D01*
X18959663Y54909991D01*
X18961656Y54912566D01*
X18966594Y54924066D01*
X18972163Y54935378D01*
X18972825Y54938575D01*
X18974109Y54941566D01*
X18976019Y54953978D01*
X18978569Y54966281D01*
X18978409Y54969531D01*
X18978906Y54972756D01*
X18977644Y54985263D01*
X18977031Y54997803D01*
X18976063Y55000916D01*
X18975734Y55004156D01*
X18971384Y55015938D01*
X18967647Y55027934D01*
X18966163Y55030072D01*
X18964800Y55033763D01*
X18946800Y55059684D01*
X18943816Y55062253D01*
X18942334Y55064388D01*
X18721628Y55285091D01*
X18603400Y55570522D01*
X18603400Y55879475D01*
X18674931Y56052166D01*
X18677806Y56062716D01*
X18681506Y56073041D01*
X18681950Y56077909D01*
X18683231Y56082613D01*
X18683372Y56093566D01*
X18684366Y56104472D01*
X18683563Y56108163D01*
X18683641Y56114169D01*
X18676134Y56144822D01*
X18675216Y56146531D01*
X18674931Y56147838D01*
X18603400Y56320525D01*
X18603400Y56629475D01*
X18674931Y56802166D01*
X18677806Y56812716D01*
X18681506Y56823041D01*
X18681950Y56827909D01*
X18683231Y56832613D01*
X18683372Y56843566D01*
X18684366Y56854472D01*
X18683563Y56858163D01*
X18683641Y56864169D01*
X18676134Y56894822D01*
X18675216Y56896531D01*
X18674931Y56897838D01*
X18603400Y57070525D01*
X18603400Y57379475D01*
X18721628Y57664906D01*
X18940091Y57883369D01*
X19225522Y58001597D01*
X19534475Y58001597D01*
X19819906Y57883369D01*
X20038369Y57664906D01*
X20156597Y57379475D01*
X20156597Y57070525D01*
X20085066Y56897838D01*
X20082188Y56887278D01*
X20078491Y56876959D01*
X20078047Y56872091D01*
X20076766Y56867388D01*
X20076625Y56856434D01*
X20075631Y56845528D01*
X20076434Y56841838D01*
X20076356Y56835831D01*
X20083863Y56805178D01*
X20084781Y56803466D01*
X20085066Y56802166D01*
X20156597Y56629475D01*
X20156597Y56320525D01*
X20085066Y56147838D01*
X20082188Y56137278D01*
X20078491Y56126959D01*
X20078047Y56122091D01*
X20076766Y56117388D01*
X20076625Y56106434D01*
X20075631Y56095528D01*
X20076434Y56091838D01*
X20076356Y56085831D01*
X20083863Y56055178D01*
X20084781Y56053466D01*
X20085066Y56052166D01*
X20156597Y55879475D01*
X20156597Y55570522D01*
X20038369Y55285091D01*
X19817663Y55064388D01*
X19809978Y55054463D01*
X19801775Y55044934D01*
X19800334Y55042009D01*
X19798341Y55039434D01*
X19793384Y55027891D01*
X19787834Y55016622D01*
X19787172Y55013431D01*
X19785888Y55010438D01*
X19783978Y54998016D01*
X19781428Y54985719D01*
X19781588Y54982469D01*
X19781091Y54979244D01*
X19782353Y54966738D01*
X19782966Y54954197D01*
X19783934Y54951084D01*
X19784263Y54947844D01*
X19788613Y54936063D01*
X19792350Y54924066D01*
X19793834Y54921928D01*
X19795197Y54918238D01*
X19813197Y54892316D01*
X19816178Y54889750D01*
X19817663Y54887613D01*
X20038369Y54666906D01*
X20156597Y54381475D01*
X20156597Y54072525D01*
X20085066Y53899838D01*
X20082188Y53889278D01*
X20078491Y53878959D01*
X20078047Y53874091D01*
X20076766Y53869388D01*
X20076625Y53858434D01*
X20075631Y53847528D01*
X20076434Y53843838D01*
X20076356Y53837831D01*
X20083863Y53807178D01*
X20084781Y53805466D01*
X20085066Y53804166D01*
X20156597Y53631475D01*
X20156597Y53322525D01*
X20085066Y53149838D01*
X20082188Y53139278D01*
X20078491Y53128959D01*
X20078047Y53124091D01*
X20076766Y53119388D01*
X20076625Y53108434D01*
X20075631Y53097528D01*
X20076434Y53093838D01*
X20076356Y53087831D01*
X20083863Y53057178D01*
X20084781Y53055466D01*
X20085066Y53054166D01*
X20156597Y52881475D01*
X20156597Y52572522D01*
X20038369Y52287091D01*
X19819906Y52068628D01*
X19534475Y51950400D01*
X19225522Y51950400D01*
G37*
%LPD*%
%LPC*%
G36*
X13600522Y51949900D02*
X13600522Y51949900D01*
X13315091Y52068128D01*
X13096628Y52286591D01*
X12978400Y52572022D01*
X12978400Y52880975D01*
X13050034Y53053916D01*
X13052909Y53064466D01*
X13056609Y53074791D01*
X13057053Y53079659D01*
X13058334Y53084363D01*
X13058475Y53095316D01*
X13059469Y53106222D01*
X13058666Y53109913D01*
X13058744Y53115919D01*
X13051238Y53146572D01*
X13050319Y53148281D01*
X13050034Y53149588D01*
X12978400Y53322525D01*
X12978400Y53631475D01*
X13049931Y53804166D01*
X13052806Y53814716D01*
X13056506Y53825041D01*
X13056950Y53829909D01*
X13058231Y53834613D01*
X13058372Y53845566D01*
X13059366Y53856472D01*
X13058563Y53860163D01*
X13058641Y53866169D01*
X13051134Y53896822D01*
X13050216Y53898531D01*
X13049931Y53899838D01*
X12978400Y54072525D01*
X12978400Y54381475D01*
X13096628Y54666906D01*
X13318584Y54888863D01*
X13326269Y54898788D01*
X13334472Y54908316D01*
X13335913Y54911241D01*
X13337906Y54913816D01*
X13342844Y54925316D01*
X13348413Y54936628D01*
X13349075Y54939825D01*
X13350359Y54942816D01*
X13352269Y54955228D01*
X13354819Y54967531D01*
X13354659Y54970781D01*
X13355156Y54974006D01*
X13353894Y54986513D01*
X13353281Y54999053D01*
X13352313Y55002166D01*
X13351984Y55005406D01*
X13347634Y55017188D01*
X13343897Y55029184D01*
X13342413Y55031322D01*
X13341050Y55035013D01*
X13323050Y55060934D01*
X13320066Y55063503D01*
X13318584Y55065638D01*
X13096628Y55287591D01*
X12978400Y55573022D01*
X12978400Y55881975D01*
X13049413Y56053416D01*
X13052288Y56063966D01*
X13055988Y56074291D01*
X13056431Y56079159D01*
X13057713Y56083863D01*
X13057853Y56094816D01*
X13058847Y56105722D01*
X13058044Y56109413D01*
X13058122Y56115419D01*
X13050616Y56146075D01*
X13049697Y56147784D01*
X13049413Y56149088D01*
X12978400Y56320525D01*
X12978400Y56629475D01*
X13049931Y56802166D01*
X13052806Y56812716D01*
X13056506Y56823041D01*
X13056950Y56827909D01*
X13058231Y56832613D01*
X13058372Y56843566D01*
X13059366Y56854472D01*
X13058563Y56858163D01*
X13058641Y56864169D01*
X13051134Y56894822D01*
X13050216Y56896531D01*
X13049931Y56897838D01*
X12978400Y57070525D01*
X12978400Y57379475D01*
X13096628Y57664906D01*
X13315091Y57883369D01*
X13600522Y58001597D01*
X13909475Y58001597D01*
X14194906Y57883369D01*
X14413369Y57664906D01*
X14531597Y57379475D01*
X14531597Y57070525D01*
X14460066Y56897838D01*
X14457188Y56887278D01*
X14453491Y56876959D01*
X14453047Y56872091D01*
X14451766Y56867388D01*
X14451625Y56856434D01*
X14450631Y56845528D01*
X14451434Y56841838D01*
X14451356Y56835831D01*
X14458863Y56805178D01*
X14459781Y56803466D01*
X14460066Y56802166D01*
X14531597Y56629475D01*
X14531597Y56320525D01*
X14460584Y56149088D01*
X14457706Y56138528D01*
X14454009Y56128209D01*
X14453566Y56123341D01*
X14452284Y56118638D01*
X14452144Y56107688D01*
X14451150Y56096781D01*
X14451953Y56093091D01*
X14451875Y56087081D01*
X14459381Y56056428D01*
X14460300Y56054719D01*
X14460584Y56053416D01*
X14531597Y55881975D01*
X14531597Y55573022D01*
X14413369Y55287591D01*
X14191413Y55065638D01*
X14183728Y55055713D01*
X14175525Y55046184D01*
X14174084Y55043259D01*
X14172091Y55040684D01*
X14167134Y55029141D01*
X14161584Y55017872D01*
X14160922Y55014681D01*
X14159638Y55011688D01*
X14157728Y54999266D01*
X14155178Y54986969D01*
X14155338Y54983719D01*
X14154841Y54980494D01*
X14156103Y54967988D01*
X14156716Y54955447D01*
X14157684Y54952334D01*
X14158013Y54949094D01*
X14162363Y54937313D01*
X14166100Y54925316D01*
X14167584Y54923178D01*
X14168947Y54919488D01*
X14186947Y54893566D01*
X14189928Y54891000D01*
X14191413Y54888863D01*
X14413369Y54666906D01*
X14531597Y54381475D01*
X14531597Y54072525D01*
X14460066Y53899838D01*
X14457188Y53889278D01*
X14453491Y53878959D01*
X14453047Y53874091D01*
X14451766Y53869388D01*
X14451625Y53858434D01*
X14450631Y53847528D01*
X14451434Y53843838D01*
X14451356Y53837831D01*
X14458863Y53807178D01*
X14459781Y53805466D01*
X14460066Y53804166D01*
X14531597Y53631475D01*
X14531597Y53322525D01*
X14459963Y53149588D01*
X14457084Y53139028D01*
X14453388Y53128709D01*
X14452944Y53123841D01*
X14451663Y53119138D01*
X14451522Y53108184D01*
X14450528Y53097278D01*
X14451331Y53093588D01*
X14451253Y53087581D01*
X14458759Y53056928D01*
X14459678Y53055216D01*
X14459963Y53053916D01*
X14531597Y52880975D01*
X14531597Y52572022D01*
X14413369Y52286591D01*
X14194906Y52068128D01*
X13909475Y51949900D01*
X13600522Y51949900D01*
G37*
%LPD*%
%LPC*%
G36*
X10981522Y44956400D02*
X10981522Y44956400D01*
X10696091Y45074628D01*
X10477628Y45293091D01*
X10359400Y45578522D01*
X10359400Y45887472D01*
X10425103Y46046091D01*
X10427981Y46056650D01*
X10431678Y46066969D01*
X10432122Y46071838D01*
X10433403Y46076541D01*
X10433544Y46087494D01*
X10434538Y46098400D01*
X10433734Y46102091D01*
X10433813Y46108097D01*
X10426306Y46138750D01*
X10425388Y46140459D01*
X10425103Y46141766D01*
X10349400Y46324525D01*
X10349400Y46633472D01*
X10419759Y46803331D01*
X10422638Y46813891D01*
X10426334Y46824209D01*
X10426778Y46829078D01*
X10428059Y46833781D01*
X10428200Y46844734D01*
X10429194Y46855641D01*
X10428391Y46859331D01*
X10428469Y46865338D01*
X10420963Y46895991D01*
X10420044Y46897703D01*
X10419759Y46899003D01*
X10345400Y47078522D01*
X10345400Y47387475D01*
X10463628Y47672906D01*
X10686334Y47895613D01*
X10694019Y47905538D01*
X10702222Y47915066D01*
X10703663Y47917991D01*
X10705656Y47920566D01*
X10710609Y47932100D01*
X10716163Y47943378D01*
X10716825Y47946575D01*
X10718109Y47949566D01*
X10720019Y47961978D01*
X10722569Y47974281D01*
X10722409Y47977531D01*
X10722906Y47980756D01*
X10721644Y47993263D01*
X10721031Y48005803D01*
X10720063Y48008916D01*
X10719734Y48012156D01*
X10715384Y48023938D01*
X10711647Y48035934D01*
X10710163Y48038072D01*
X10708800Y48041763D01*
X10690800Y48067684D01*
X10687816Y48070253D01*
X10686334Y48072388D01*
X10467628Y48291091D01*
X10349400Y48576522D01*
X10349400Y48885472D01*
X10420725Y49057663D01*
X10423606Y49068231D01*
X10427300Y49078544D01*
X10427744Y49083406D01*
X10429025Y49088113D01*
X10429166Y49099066D01*
X10430159Y49109972D01*
X10429356Y49113663D01*
X10429434Y49119669D01*
X10421928Y49150322D01*
X10421009Y49152031D01*
X10420725Y49153338D01*
X10349400Y49325525D01*
X10349400Y49634472D01*
X10420103Y49805163D01*
X10422981Y49815722D01*
X10426678Y49826041D01*
X10427122Y49830909D01*
X10428403Y49835613D01*
X10428544Y49846566D01*
X10429538Y49857472D01*
X10428734Y49861163D01*
X10428813Y49867169D01*
X10421306Y49897822D01*
X10420388Y49899531D01*
X10420103Y49900838D01*
X10349400Y50071525D01*
X10349400Y50380475D01*
X10467628Y50665906D01*
X10686091Y50884369D01*
X10971522Y51002597D01*
X11280475Y51002597D01*
X11565906Y50884369D01*
X11784369Y50665906D01*
X11902597Y50380475D01*
X11902597Y50071525D01*
X11831894Y49900838D01*
X11829016Y49890278D01*
X11825319Y49879959D01*
X11824875Y49875091D01*
X11823594Y49870388D01*
X11823453Y49859434D01*
X11822459Y49848528D01*
X11823263Y49844838D01*
X11823184Y49838831D01*
X11830691Y49808178D01*
X11831609Y49806469D01*
X11831894Y49805163D01*
X11902597Y49634472D01*
X11902597Y49325525D01*
X11831272Y49153338D01*
X11828394Y49142778D01*
X11824697Y49132459D01*
X11824253Y49127591D01*
X11822972Y49122888D01*
X11822831Y49111934D01*
X11821838Y49101028D01*
X11822641Y49097338D01*
X11822563Y49091331D01*
X11830069Y49060678D01*
X11830988Y49058969D01*
X11831272Y49057663D01*
X11902597Y48885472D01*
X11902597Y48576522D01*
X11784369Y48291091D01*
X11561663Y48068388D01*
X11553978Y48058463D01*
X11545775Y48048934D01*
X11544334Y48046009D01*
X11542341Y48043434D01*
X11537384Y48031891D01*
X11531834Y48020622D01*
X11531172Y48017431D01*
X11529888Y48014438D01*
X11527978Y48002016D01*
X11525428Y47989719D01*
X11525588Y47986469D01*
X11525091Y47983244D01*
X11526353Y47970738D01*
X11526966Y47958197D01*
X11527934Y47955084D01*
X11528263Y47951844D01*
X11532613Y47940063D01*
X11536350Y47928066D01*
X11537834Y47925928D01*
X11539197Y47922238D01*
X11557197Y47896316D01*
X11560178Y47893750D01*
X11561663Y47891613D01*
X11780369Y47672906D01*
X11898597Y47387475D01*
X11898597Y47078525D01*
X11828238Y46908666D01*
X11825359Y46898106D01*
X11821663Y46887788D01*
X11821219Y46882919D01*
X11819938Y46878216D01*
X11819797Y46867263D01*
X11818803Y46856356D01*
X11819606Y46852666D01*
X11819528Y46846659D01*
X11827034Y46816006D01*
X11827953Y46814294D01*
X11828238Y46812994D01*
X11902597Y46633475D01*
X11902597Y46324525D01*
X11836894Y46165906D01*
X11834016Y46155347D01*
X11830319Y46145028D01*
X11829875Y46140159D01*
X11828594Y46135456D01*
X11828453Y46124503D01*
X11827459Y46113597D01*
X11828263Y46109906D01*
X11828184Y46103900D01*
X11835691Y46073247D01*
X11836609Y46071538D01*
X11836894Y46070231D01*
X11912597Y45887472D01*
X11912597Y45578522D01*
X11794369Y45293091D01*
X11575906Y45074628D01*
X11290475Y44956400D01*
X10981522Y44956400D01*
G37*
%LPD*%
%LPC*%
G36*
X10965522Y51949900D02*
X10965522Y51949900D01*
X10680091Y52068128D01*
X10461628Y52286591D01*
X10343400Y52572022D01*
X10343400Y52880972D01*
X10420034Y53065981D01*
X10422913Y53076541D01*
X10426609Y53086859D01*
X10427053Y53091728D01*
X10428334Y53096431D01*
X10428475Y53107384D01*
X10429469Y53118291D01*
X10428666Y53121981D01*
X10428744Y53127988D01*
X10421238Y53158641D01*
X10420319Y53160350D01*
X10420034Y53161653D01*
X10353400Y53322522D01*
X10353400Y53631472D01*
X10424931Y53804159D01*
X10427809Y53814719D01*
X10431506Y53825038D01*
X10431950Y53829906D01*
X10433231Y53834609D01*
X10433372Y53845563D01*
X10434366Y53856469D01*
X10433563Y53860159D01*
X10433641Y53866166D01*
X10426134Y53896819D01*
X10425216Y53898531D01*
X10424931Y53899831D01*
X10353400Y54072522D01*
X10353400Y54381475D01*
X10471628Y54666906D01*
X10702563Y54897841D01*
X10704259Y54899019D01*
X10707469Y54902747D01*
X10707672Y54902950D01*
X10707925Y54903275D01*
X10711000Y54906847D01*
X10718403Y54914059D01*
X10721256Y54918766D01*
X10724850Y54922938D01*
X10729419Y54932219D01*
X10734772Y54941041D01*
X10736356Y54946306D01*
X10738791Y54951250D01*
X10740888Y54961366D01*
X10743866Y54971263D01*
X10744081Y54976769D01*
X10745197Y54982153D01*
X10744694Y54992469D01*
X10745097Y55002797D01*
X10743928Y55008175D01*
X10743659Y55013675D01*
X10740584Y55023547D01*
X10738391Y55033638D01*
X10735913Y55038550D01*
X10734275Y55043806D01*
X10730563Y55049153D01*
X10724175Y55061813D01*
X10712669Y55074919D01*
X10708963Y55080259D01*
X10491628Y55297591D01*
X10373400Y55583022D01*
X10373400Y55891975D01*
X10442341Y56058413D01*
X10445216Y56068959D01*
X10448916Y56079288D01*
X10449359Y56084156D01*
X10450641Y56088859D01*
X10450781Y56099809D01*
X10451775Y56110716D01*
X10450972Y56114406D01*
X10451050Y56120416D01*
X10443544Y56151069D01*
X10442625Y56152778D01*
X10442341Y56154081D01*
X10373400Y56320522D01*
X10373400Y56629472D01*
X10444931Y56802159D01*
X10447809Y56812719D01*
X10451506Y56823038D01*
X10451950Y56827906D01*
X10453231Y56832609D01*
X10453372Y56843563D01*
X10454366Y56854469D01*
X10453563Y56858159D01*
X10453641Y56864166D01*
X10446134Y56894819D01*
X10445216Y56896531D01*
X10444931Y56897831D01*
X10373400Y57070522D01*
X10373400Y57379475D01*
X10491628Y57664906D01*
X10710091Y57883369D01*
X10995522Y58001597D01*
X11304475Y58001597D01*
X11589906Y57883369D01*
X11808369Y57664906D01*
X11926597Y57379475D01*
X11926597Y57070522D01*
X11855066Y56897831D01*
X11852191Y56887281D01*
X11848491Y56876956D01*
X11848047Y56872088D01*
X11846766Y56867384D01*
X11846625Y56856431D01*
X11845631Y56845525D01*
X11846434Y56841834D01*
X11846356Y56835828D01*
X11853863Y56805175D01*
X11854781Y56803466D01*
X11855066Y56802159D01*
X11926597Y56629472D01*
X11926597Y56320522D01*
X11857656Y56154081D01*
X11854781Y56143531D01*
X11851081Y56133206D01*
X11850638Y56128338D01*
X11849356Y56123634D01*
X11849216Y56112684D01*
X11848222Y56101775D01*
X11849025Y56098084D01*
X11848947Y56092075D01*
X11856453Y56061422D01*
X11857375Y56059709D01*
X11857656Y56058413D01*
X11926597Y55891975D01*
X11926597Y55583022D01*
X11808369Y55297591D01*
X11577434Y55066656D01*
X11575738Y55065478D01*
X11572528Y55061750D01*
X11572325Y55061547D01*
X11572072Y55061222D01*
X11568997Y55057650D01*
X11561594Y55050438D01*
X11558741Y55045731D01*
X11555147Y55041559D01*
X11550578Y55032278D01*
X11545225Y55023456D01*
X11543641Y55018191D01*
X11541206Y55013247D01*
X11539106Y55003119D01*
X11536131Y54993234D01*
X11535916Y54987728D01*
X11534800Y54982344D01*
X11535303Y54972028D01*
X11534900Y54961700D01*
X11536069Y54956322D01*
X11536338Y54950822D01*
X11539413Y54940950D01*
X11541606Y54930859D01*
X11544084Y54925947D01*
X11545722Y54920691D01*
X11549434Y54915344D01*
X11555822Y54902684D01*
X11567328Y54889578D01*
X11571034Y54884238D01*
X11788369Y54666906D01*
X11906597Y54381475D01*
X11906597Y54072522D01*
X11835066Y53899831D01*
X11832191Y53889281D01*
X11828491Y53878956D01*
X11828047Y53874088D01*
X11826766Y53869384D01*
X11826625Y53858431D01*
X11825631Y53847525D01*
X11826434Y53843834D01*
X11826356Y53837828D01*
X11833863Y53807175D01*
X11834781Y53805466D01*
X11835066Y53804159D01*
X11906597Y53631472D01*
X11906597Y53322525D01*
X11829963Y53137516D01*
X11827084Y53126956D01*
X11823388Y53116638D01*
X11822944Y53111769D01*
X11821663Y53107066D01*
X11821522Y53096113D01*
X11820528Y53085206D01*
X11821331Y53081516D01*
X11821253Y53075509D01*
X11828759Y53044856D01*
X11829678Y53043147D01*
X11829963Y53041844D01*
X11896597Y52880975D01*
X11896597Y52572022D01*
X11778369Y52286591D01*
X11559906Y52068128D01*
X11274475Y51949900D01*
X10965522Y51949900D01*
G37*
%LPD*%
%LPC*%
G36*
X13591522Y44956400D02*
X13591522Y44956400D01*
X13306091Y45074628D01*
X13087628Y45293091D01*
X12969400Y45578522D01*
X12969400Y45887472D01*
X13040103Y46058163D01*
X13042981Y46068722D01*
X13046678Y46079041D01*
X13047122Y46083909D01*
X13048403Y46088613D01*
X13048544Y46099566D01*
X13049538Y46110472D01*
X13048734Y46114163D01*
X13048813Y46120169D01*
X13041306Y46150822D01*
X13040388Y46152531D01*
X13040103Y46153838D01*
X12969400Y46324525D01*
X12969400Y46633472D01*
X13028653Y46776519D01*
X13031531Y46787078D01*
X13035228Y46797397D01*
X13035672Y46802266D01*
X13036953Y46806969D01*
X13037094Y46817922D01*
X13038088Y46828828D01*
X13037284Y46832519D01*
X13037363Y46838525D01*
X13029856Y46869178D01*
X13028938Y46870888D01*
X13028653Y46872194D01*
X12949400Y47063525D01*
X12949400Y47372475D01*
X13067628Y47657906D01*
X13290456Y47880734D01*
X13291669Y47881575D01*
X13300634Y47886700D01*
X13304575Y47890538D01*
X13309097Y47893678D01*
X13315838Y47901506D01*
X13323241Y47908719D01*
X13326097Y47913425D01*
X13329688Y47917597D01*
X13334253Y47926872D01*
X13339613Y47935703D01*
X13341197Y47940975D01*
X13343628Y47945909D01*
X13345725Y47956025D01*
X13348703Y47965925D01*
X13348919Y47971428D01*
X13350034Y47976813D01*
X13349531Y47987131D01*
X13349934Y47997459D01*
X13348766Y48002838D01*
X13348497Y48008334D01*
X13345422Y48018203D01*
X13343228Y48028297D01*
X13340750Y48033209D01*
X13339113Y48038466D01*
X13335403Y48043806D01*
X13329013Y48056475D01*
X13317497Y48069594D01*
X13313800Y48074919D01*
X13097628Y48291091D01*
X12979400Y48576522D01*
X12979400Y48885472D01*
X13045725Y49045591D01*
X13048603Y49056150D01*
X13052300Y49066469D01*
X13052744Y49071338D01*
X13054025Y49076041D01*
X13054166Y49086994D01*
X13055159Y49097900D01*
X13054356Y49101591D01*
X13054434Y49107597D01*
X13046928Y49138250D01*
X13046009Y49139959D01*
X13045725Y49141266D01*
X12969400Y49325525D01*
X12969400Y49634472D01*
X13040103Y49805159D01*
X13042981Y49815719D01*
X13046678Y49826038D01*
X13047122Y49830906D01*
X13048403Y49835609D01*
X13048544Y49846528D01*
X13049538Y49857469D01*
X13048734Y49861159D01*
X13048813Y49867166D01*
X13041306Y49897819D01*
X13040388Y49899528D01*
X13040103Y49900834D01*
X12969400Y50071525D01*
X12969400Y50380475D01*
X13087628Y50665906D01*
X13306091Y50884369D01*
X13591522Y51002597D01*
X13900475Y51002597D01*
X14185906Y50884369D01*
X14404369Y50665906D01*
X14522597Y50380475D01*
X14522597Y50071525D01*
X14451894Y49900834D01*
X14449016Y49890275D01*
X14445319Y49879956D01*
X14444875Y49875088D01*
X14443594Y49870384D01*
X14443453Y49859431D01*
X14442459Y49848525D01*
X14443263Y49844834D01*
X14443184Y49838828D01*
X14450691Y49808175D01*
X14451609Y49806466D01*
X14451894Y49805159D01*
X14522597Y49634472D01*
X14522597Y49325525D01*
X14456272Y49165406D01*
X14453394Y49154847D01*
X14449697Y49144528D01*
X14449253Y49139659D01*
X14447972Y49134956D01*
X14447831Y49124003D01*
X14446838Y49113097D01*
X14447641Y49109406D01*
X14447563Y49103400D01*
X14455069Y49072747D01*
X14455988Y49071038D01*
X14456272Y49069731D01*
X14532597Y48885472D01*
X14532597Y48576522D01*
X14414369Y48291091D01*
X14191541Y48068263D01*
X14190328Y48067422D01*
X14181363Y48062297D01*
X14177422Y48058459D01*
X14172900Y48055319D01*
X14166159Y48047491D01*
X14158756Y48040278D01*
X14155900Y48035572D01*
X14152309Y48031400D01*
X14147744Y48022125D01*
X14142384Y48013294D01*
X14140800Y48008022D01*
X14138369Y48003088D01*
X14136272Y47992972D01*
X14133294Y47983072D01*
X14133078Y47977569D01*
X14131963Y47972184D01*
X14132466Y47961866D01*
X14132063Y47951538D01*
X14133231Y47946159D01*
X14133500Y47940663D01*
X14136575Y47930794D01*
X14138769Y47920700D01*
X14141247Y47915788D01*
X14142884Y47910531D01*
X14146594Y47905191D01*
X14152984Y47892522D01*
X14164500Y47879403D01*
X14168197Y47874078D01*
X14384369Y47657906D01*
X14502597Y47372475D01*
X14502597Y47063525D01*
X14443344Y46920478D01*
X14440466Y46909919D01*
X14436769Y46899600D01*
X14436325Y46894731D01*
X14435044Y46890028D01*
X14434903Y46879075D01*
X14433909Y46868169D01*
X14434713Y46864478D01*
X14434634Y46858472D01*
X14442141Y46827819D01*
X14443059Y46826109D01*
X14443344Y46824803D01*
X14522597Y46633472D01*
X14522597Y46324525D01*
X14451894Y46153838D01*
X14449016Y46143278D01*
X14445319Y46132959D01*
X14444875Y46128091D01*
X14443594Y46123388D01*
X14443453Y46112434D01*
X14442459Y46101528D01*
X14443263Y46097838D01*
X14443184Y46091831D01*
X14450691Y46061178D01*
X14451609Y46059469D01*
X14451894Y46058163D01*
X14522597Y45887472D01*
X14522597Y45578522D01*
X14404369Y45293091D01*
X14185906Y45074628D01*
X13900475Y44956400D01*
X13591522Y44956400D01*
G37*
%LPD*%
%LPC*%
G36*
X6894453Y27969400D02*
X6894453Y27969400D01*
X6699438Y28050178D01*
X6550178Y28199438D01*
X6469400Y28394453D01*
X6469400Y28605544D01*
X6550175Y28800553D01*
X6661231Y28911606D01*
X6668931Y28921553D01*
X6677119Y28931063D01*
X6678559Y28933984D01*
X6680553Y28936563D01*
X6685509Y28948106D01*
X6691059Y28959375D01*
X6691722Y28962566D01*
X6693006Y28965559D01*
X6694916Y28977981D01*
X6697466Y28990278D01*
X6697306Y28993528D01*
X6697803Y28996753D01*
X6696541Y29009259D01*
X6695928Y29021800D01*
X6694959Y29024913D01*
X6694631Y29028153D01*
X6690284Y29039925D01*
X6686544Y29051931D01*
X6685059Y29054072D01*
X6683697Y29057756D01*
X6665700Y29083681D01*
X6662709Y29086256D01*
X6661231Y29088384D01*
X6550178Y29199438D01*
X6469400Y29394453D01*
X6469400Y29605544D01*
X6550175Y29800553D01*
X6661231Y29911606D01*
X6668931Y29921553D01*
X6677119Y29931063D01*
X6678559Y29933984D01*
X6680553Y29936563D01*
X6685509Y29948106D01*
X6691059Y29959375D01*
X6691722Y29962566D01*
X6693006Y29965559D01*
X6694916Y29977981D01*
X6697466Y29990278D01*
X6697306Y29993528D01*
X6697803Y29996753D01*
X6696541Y30009259D01*
X6695928Y30021800D01*
X6694959Y30024913D01*
X6694631Y30028153D01*
X6690284Y30039925D01*
X6686544Y30051931D01*
X6685059Y30054072D01*
X6683697Y30057756D01*
X6665700Y30083681D01*
X6662709Y30086256D01*
X6661231Y30088384D01*
X6550178Y30199438D01*
X6469400Y30394453D01*
X6469400Y30605544D01*
X6550175Y30800553D01*
X6661231Y30911606D01*
X6668931Y30921553D01*
X6677119Y30931063D01*
X6678559Y30933984D01*
X6680553Y30936563D01*
X6685509Y30948106D01*
X6691059Y30959375D01*
X6691722Y30962566D01*
X6693006Y30965559D01*
X6694916Y30977981D01*
X6697466Y30990278D01*
X6697306Y30993528D01*
X6697803Y30996753D01*
X6696541Y31009259D01*
X6695928Y31021800D01*
X6694959Y31024913D01*
X6694631Y31028153D01*
X6690284Y31039925D01*
X6686544Y31051931D01*
X6685059Y31054072D01*
X6683697Y31057756D01*
X6665700Y31083681D01*
X6662709Y31086256D01*
X6661231Y31088384D01*
X6550178Y31199438D01*
X6469400Y31394453D01*
X6469400Y31605541D01*
X6533150Y31759444D01*
X6534169Y31763181D01*
X6535881Y31766659D01*
X6538309Y31778369D01*
X6541450Y31789894D01*
X6541500Y31793766D01*
X6542288Y31797563D01*
X6541703Y31809516D01*
X6541859Y31821450D01*
X6540938Y31825209D01*
X6540750Y31829084D01*
X6537194Y31840503D01*
X6534353Y31852103D01*
X6532519Y31855519D01*
X6531366Y31859216D01*
X6527659Y31864550D01*
X6519409Y31879900D01*
X6509763Y31890328D01*
X6506053Y31895672D01*
X6341625Y32060097D01*
X6223400Y32345522D01*
X6223400Y32654475D01*
X6346706Y32952166D01*
X6349581Y32962716D01*
X6353281Y32973041D01*
X6353725Y32977909D01*
X6355006Y32982613D01*
X6355147Y32993566D01*
X6356141Y33004472D01*
X6355338Y33008163D01*
X6355416Y33014169D01*
X6347909Y33044825D01*
X6346988Y33046538D01*
X6346706Y33047834D01*
X6223400Y33345522D01*
X6223400Y33654475D01*
X6346706Y33952166D01*
X6349581Y33962716D01*
X6353281Y33973041D01*
X6353725Y33977909D01*
X6355006Y33982613D01*
X6355147Y33993566D01*
X6356141Y34004472D01*
X6355338Y34008163D01*
X6355416Y34014169D01*
X6347909Y34044825D01*
X6346988Y34046538D01*
X6346706Y34047834D01*
X6223400Y34345522D01*
X6223400Y34654475D01*
X6341628Y34939906D01*
X6560091Y35158369D01*
X6845522Y35276597D01*
X7154475Y35276597D01*
X7439906Y35158369D01*
X7658369Y34939906D01*
X7776597Y34654475D01*
X7776597Y34345522D01*
X7653291Y34047834D01*
X7650416Y34037288D01*
X7646716Y34026959D01*
X7646272Y34022091D01*
X7644991Y34017388D01*
X7644850Y34006438D01*
X7643856Y33995531D01*
X7644659Y33991841D01*
X7644581Y33985831D01*
X7652088Y33955178D01*
X7653006Y33953469D01*
X7653291Y33952166D01*
X7776597Y33654475D01*
X7776597Y33345522D01*
X7653291Y33047834D01*
X7650416Y33037288D01*
X7646716Y33026959D01*
X7646272Y33022091D01*
X7644991Y33017388D01*
X7644850Y33006438D01*
X7643856Y32995531D01*
X7644659Y32991841D01*
X7644581Y32985831D01*
X7652088Y32955178D01*
X7653006Y32953469D01*
X7653291Y32952166D01*
X7776597Y32654475D01*
X7776597Y32345522D01*
X7658372Y32060097D01*
X7493944Y31895672D01*
X7491569Y31892603D01*
X7488659Y31890050D01*
X7481950Y31880178D01*
X7474622Y31870716D01*
X7473091Y31867147D01*
X7470916Y31863950D01*
X7466888Y31852706D01*
X7462169Y31841719D01*
X7461581Y31837894D01*
X7460272Y31834241D01*
X7459191Y31822347D01*
X7457372Y31810525D01*
X7457763Y31806656D01*
X7457413Y31802809D01*
X7458791Y31796469D01*
X7460544Y31779125D01*
X7465463Y31765806D01*
X7466847Y31759444D01*
X7530597Y31605541D01*
X7530597Y31394453D01*
X7449819Y31199438D01*
X7338766Y31088384D01*
X7331091Y31078472D01*
X7322878Y31068931D01*
X7321438Y31066006D01*
X7319444Y31063431D01*
X7314491Y31051897D01*
X7308938Y31040619D01*
X7308275Y31037422D01*
X7306991Y31034431D01*
X7305081Y31022019D01*
X7302531Y31009716D01*
X7302691Y31006466D01*
X7302194Y31003241D01*
X7303456Y30990734D01*
X7304069Y30978194D01*
X7305038Y30975081D01*
X7305366Y30971841D01*
X7309713Y30960072D01*
X7313453Y30948059D01*
X7314938Y30945919D01*
X7316300Y30942234D01*
X7334300Y30916313D01*
X7337278Y30913750D01*
X7338766Y30911606D01*
X7449822Y30800553D01*
X7530597Y30605544D01*
X7530597Y30394453D01*
X7449819Y30199438D01*
X7338766Y30088384D01*
X7331091Y30078472D01*
X7322878Y30068931D01*
X7321438Y30066006D01*
X7319444Y30063431D01*
X7314491Y30051897D01*
X7308938Y30040619D01*
X7308275Y30037422D01*
X7306991Y30034431D01*
X7305081Y30022019D01*
X7302531Y30009716D01*
X7302691Y30006466D01*
X7302194Y30003241D01*
X7303456Y29990734D01*
X7304069Y29978194D01*
X7305038Y29975081D01*
X7305366Y29971841D01*
X7309713Y29960072D01*
X7313453Y29948059D01*
X7314938Y29945919D01*
X7316300Y29942234D01*
X7334300Y29916313D01*
X7337278Y29913750D01*
X7338766Y29911606D01*
X7449822Y29800553D01*
X7530597Y29605544D01*
X7530597Y29394453D01*
X7449819Y29199438D01*
X7338766Y29088384D01*
X7331091Y29078472D01*
X7322878Y29068931D01*
X7321438Y29066006D01*
X7319444Y29063431D01*
X7314491Y29051897D01*
X7308938Y29040619D01*
X7308275Y29037422D01*
X7306991Y29034431D01*
X7305081Y29022019D01*
X7302531Y29009716D01*
X7302691Y29006466D01*
X7302194Y29003241D01*
X7303456Y28990734D01*
X7304069Y28978194D01*
X7305038Y28975081D01*
X7305366Y28971841D01*
X7309713Y28960072D01*
X7313453Y28948059D01*
X7314938Y28945919D01*
X7316300Y28942234D01*
X7334300Y28916313D01*
X7337278Y28913750D01*
X7338766Y28911606D01*
X7449822Y28800553D01*
X7530597Y28605544D01*
X7530597Y28394453D01*
X7449819Y28199438D01*
X7300559Y28050178D01*
X7105544Y27969400D01*
X6894453Y27969400D01*
G37*
%LPD*%
%LPC*%
G36*
X6790900Y14279000D02*
X6790900Y14279000D01*
X6417481Y14433675D01*
X6131675Y14719481D01*
X5977000Y15092900D01*
X5977000Y15497097D01*
X6131675Y15870516D01*
X6417481Y16156322D01*
X6790900Y16310997D01*
X8719097Y16310997D01*
X9092516Y16156322D01*
X9378322Y15870516D01*
X9532997Y15497097D01*
X9532997Y15092900D01*
X9378322Y14719481D01*
X9092516Y14433675D01*
X8719097Y14279000D01*
X6790900Y14279000D01*
G37*
%LPD*%
%LPC*%
G36*
X6790900Y11739000D02*
X6790900Y11739000D01*
X6417481Y11893675D01*
X6131675Y12179481D01*
X5977000Y12552900D01*
X5977000Y12957097D01*
X6131675Y13330516D01*
X6417481Y13616322D01*
X6790900Y13770997D01*
X8719097Y13770997D01*
X9092516Y13616322D01*
X9378322Y13330516D01*
X9532997Y12957097D01*
X9532997Y12552900D01*
X9378322Y12179481D01*
X9092516Y11893675D01*
X8719097Y11739000D01*
X6790900Y11739000D01*
G37*
%LPD*%
%LPC*%
G36*
X7197644Y8666500D02*
X7197644Y8666500D01*
X6416500Y9447644D01*
X6416500Y10552353D01*
X7197644Y11333497D01*
X8302353Y11333497D01*
X9083497Y10552353D01*
X9083497Y9447644D01*
X8302353Y8666500D01*
X7197644Y8666500D01*
G37*
%LPD*%
%LPC*%
G36*
X24947644Y49916500D02*
X24947644Y49916500D01*
X24166500Y50697644D01*
X24166500Y51802353D01*
X24947644Y52583497D01*
X26052353Y52583497D01*
X26833497Y51802353D01*
X26833497Y50697644D01*
X26052353Y49916500D01*
X24947644Y49916500D01*
G37*
%LPD*%
%LPC*%
G36*
X24947644Y46916500D02*
X24947644Y46916500D01*
X24166500Y47697644D01*
X24166500Y48802353D01*
X24947644Y49583497D01*
X26052353Y49583497D01*
X26833497Y48802353D01*
X26833497Y47697644D01*
X26052353Y46916500D01*
X24947644Y46916500D01*
G37*
%LPD*%
%LPC*%
G36*
X19095522Y40953400D02*
X19095522Y40953400D01*
X18810091Y41071628D01*
X18591628Y41290091D01*
X18473400Y41575522D01*
X18473400Y41884475D01*
X18544931Y42057166D01*
X18547806Y42067716D01*
X18551506Y42078041D01*
X18551950Y42082909D01*
X18553231Y42087613D01*
X18553372Y42098566D01*
X18554366Y42109472D01*
X18553563Y42113163D01*
X18553641Y42119169D01*
X18546134Y42149822D01*
X18545216Y42151531D01*
X18544931Y42152838D01*
X18473400Y42325525D01*
X18473400Y42634475D01*
X18549072Y42817166D01*
X18551947Y42827716D01*
X18555647Y42838041D01*
X18556091Y42842909D01*
X18557372Y42847613D01*
X18557513Y42858566D01*
X18558506Y42869472D01*
X18557703Y42873163D01*
X18557781Y42879169D01*
X18550275Y42909825D01*
X18549353Y42911538D01*
X18549072Y42912834D01*
X18473400Y43095522D01*
X18473400Y43404475D01*
X18591628Y43689906D01*
X18810091Y43908369D01*
X19095522Y44026597D01*
X19404475Y44026597D01*
X19689906Y43908369D01*
X19908369Y43689906D01*
X20026597Y43404475D01*
X20026597Y43095522D01*
X19950925Y42912834D01*
X19948050Y42902288D01*
X19944350Y42891959D01*
X19943906Y42887091D01*
X19942625Y42882388D01*
X19942484Y42871438D01*
X19941491Y42860531D01*
X19942294Y42856841D01*
X19942216Y42850831D01*
X19949722Y42820178D01*
X19950641Y42818469D01*
X19950925Y42817166D01*
X20026597Y42634475D01*
X20026597Y42325525D01*
X19955066Y42152838D01*
X19952188Y42142278D01*
X19948491Y42131959D01*
X19948047Y42127091D01*
X19946766Y42122388D01*
X19946625Y42111434D01*
X19945631Y42100528D01*
X19946434Y42096838D01*
X19946356Y42090831D01*
X19953863Y42060178D01*
X19954781Y42058466D01*
X19955066Y42057166D01*
X20026597Y41884475D01*
X20026597Y41575522D01*
X19908369Y41290091D01*
X19689906Y41071628D01*
X19404475Y40953400D01*
X19095522Y40953400D01*
G37*
%LPD*%
%LPC*%
G36*
X13595522Y40953400D02*
X13595522Y40953400D01*
X13310091Y41071628D01*
X13091628Y41290091D01*
X12973400Y41575522D01*
X12973400Y41884472D01*
X13044931Y42057159D01*
X13047809Y42067719D01*
X13051506Y42078038D01*
X13051950Y42082906D01*
X13053231Y42087609D01*
X13053372Y42098563D01*
X13054366Y42109469D01*
X13053563Y42113159D01*
X13053641Y42119166D01*
X13046134Y42149819D01*
X13045216Y42151531D01*
X13044931Y42152831D01*
X12973400Y42325522D01*
X12973400Y42634475D01*
X13049072Y42817163D01*
X13051947Y42827709D01*
X13055647Y42838038D01*
X13056091Y42842906D01*
X13057372Y42847609D01*
X13057513Y42858559D01*
X13058506Y42869466D01*
X13057703Y42873156D01*
X13057781Y42879166D01*
X13050275Y42909819D01*
X13049356Y42911528D01*
X13049072Y42912831D01*
X12973400Y43095522D01*
X12973400Y43404475D01*
X13091628Y43689906D01*
X13310091Y43908369D01*
X13595522Y44026597D01*
X13904475Y44026597D01*
X14189906Y43908369D01*
X14408369Y43689906D01*
X14526597Y43404475D01*
X14526597Y43095522D01*
X14450925Y42912831D01*
X14448050Y42902281D01*
X14444350Y42891956D01*
X14443906Y42887088D01*
X14442625Y42882384D01*
X14442484Y42871431D01*
X14441491Y42860525D01*
X14442294Y42856834D01*
X14442216Y42850828D01*
X14449722Y42820172D01*
X14450644Y42818459D01*
X14450925Y42817163D01*
X14526597Y42634475D01*
X14526597Y42325522D01*
X14455066Y42152831D01*
X14452191Y42142281D01*
X14448491Y42131956D01*
X14448047Y42127088D01*
X14446766Y42122384D01*
X14446625Y42111431D01*
X14445631Y42100525D01*
X14446434Y42096834D01*
X14446356Y42090828D01*
X14453863Y42060175D01*
X14454781Y42058466D01*
X14455066Y42057159D01*
X14526597Y41884472D01*
X14526597Y41575522D01*
X14408369Y41290091D01*
X14189906Y41071628D01*
X13904475Y40953400D01*
X13595522Y40953400D01*
G37*
%LPD*%
%LPC*%
G36*
X10971522Y17955400D02*
X10971522Y17955400D01*
X10686091Y18073628D01*
X10467628Y18292091D01*
X10349400Y18577522D01*
X10349400Y18886472D01*
X10420103Y19057163D01*
X10422981Y19067722D01*
X10426678Y19078041D01*
X10427122Y19082909D01*
X10428403Y19087613D01*
X10428544Y19098566D01*
X10429538Y19109472D01*
X10428734Y19113163D01*
X10428813Y19119169D01*
X10421306Y19149822D01*
X10420388Y19151531D01*
X10420103Y19152838D01*
X10349400Y19323525D01*
X10349400Y19632472D01*
X10422175Y19808159D01*
X10425053Y19818719D01*
X10428750Y19829038D01*
X10429194Y19833906D01*
X10430475Y19838609D01*
X10430616Y19849563D01*
X10431609Y19860469D01*
X10430806Y19864159D01*
X10430884Y19870166D01*
X10423378Y19900819D01*
X10422459Y19902528D01*
X10422175Y19903834D01*
X10349400Y20079525D01*
X10349400Y20388475D01*
X10467628Y20673906D01*
X10686091Y20892369D01*
X10971522Y21010597D01*
X11280475Y21010597D01*
X11565906Y20892369D01*
X11784369Y20673906D01*
X11902597Y20388475D01*
X11902597Y20079525D01*
X11829822Y19903834D01*
X11826941Y19893266D01*
X11823247Y19882953D01*
X11822803Y19878091D01*
X11821522Y19873384D01*
X11821381Y19862431D01*
X11820388Y19851525D01*
X11821191Y19847834D01*
X11821113Y19841828D01*
X11828619Y19811175D01*
X11829538Y19809466D01*
X11829822Y19808159D01*
X11902597Y19632472D01*
X11902597Y19323525D01*
X11831894Y19152838D01*
X11829016Y19142278D01*
X11825319Y19131959D01*
X11824875Y19127091D01*
X11823594Y19122388D01*
X11823453Y19111434D01*
X11822459Y19100528D01*
X11823263Y19096838D01*
X11823184Y19090831D01*
X11830691Y19060178D01*
X11831609Y19058469D01*
X11831894Y19057163D01*
X11902597Y18886472D01*
X11902597Y18577522D01*
X11784369Y18292091D01*
X11565906Y18073628D01*
X11280475Y17955400D01*
X10971522Y17955400D01*
G37*
%LPD*%
%LPC*%
G36*
X13601522Y17955400D02*
X13601522Y17955400D01*
X13316091Y18073628D01*
X13097628Y18292091D01*
X12979400Y18577522D01*
X12979400Y18886472D01*
X13050103Y19057159D01*
X13052981Y19067719D01*
X13056678Y19078038D01*
X13057122Y19082906D01*
X13058403Y19087609D01*
X13058544Y19098563D01*
X13059538Y19109469D01*
X13058734Y19113159D01*
X13058813Y19119166D01*
X13051306Y19149819D01*
X13050388Y19151528D01*
X13050103Y19152834D01*
X12979400Y19323525D01*
X12979400Y19632472D01*
X13052175Y19808159D01*
X13055053Y19818719D01*
X13058750Y19829038D01*
X13059194Y19833906D01*
X13060475Y19838609D01*
X13060616Y19849563D01*
X13061609Y19860469D01*
X13060806Y19864159D01*
X13060884Y19870166D01*
X13053378Y19900819D01*
X13052459Y19902528D01*
X13052175Y19903834D01*
X12979400Y20079525D01*
X12979400Y20388475D01*
X13097628Y20673906D01*
X13316091Y20892369D01*
X13601522Y21010597D01*
X13910475Y21010597D01*
X14195906Y20892369D01*
X14414369Y20673906D01*
X14532597Y20388475D01*
X14532597Y20079525D01*
X14459822Y19903834D01*
X14456941Y19893266D01*
X14453247Y19882953D01*
X14452803Y19878091D01*
X14451522Y19873384D01*
X14451381Y19862431D01*
X14450388Y19851525D01*
X14451191Y19847834D01*
X14451113Y19841828D01*
X14458619Y19811175D01*
X14459538Y19809466D01*
X14459822Y19808159D01*
X14532597Y19632472D01*
X14532597Y19323525D01*
X14461894Y19152834D01*
X14459016Y19142275D01*
X14455319Y19131956D01*
X14454875Y19127088D01*
X14453594Y19122384D01*
X14453453Y19111431D01*
X14452459Y19100525D01*
X14453263Y19096834D01*
X14453184Y19090828D01*
X14460691Y19060175D01*
X14461609Y19058466D01*
X14461894Y19057159D01*
X14532597Y18886472D01*
X14532597Y18577522D01*
X14414369Y18292091D01*
X14195906Y18073628D01*
X13910475Y17955400D01*
X13601522Y17955400D01*
G37*
%LPD*%
%LPC*%
G36*
X10975522Y40953400D02*
X10975522Y40953400D01*
X10690091Y41071628D01*
X10471628Y41290091D01*
X10353400Y41575522D01*
X10353400Y41884475D01*
X10424931Y42057166D01*
X10427806Y42067716D01*
X10431506Y42078041D01*
X10431950Y42082909D01*
X10433231Y42087613D01*
X10433372Y42098566D01*
X10434366Y42109472D01*
X10433563Y42113163D01*
X10433641Y42119169D01*
X10426134Y42149822D01*
X10425216Y42151531D01*
X10424931Y42152838D01*
X10353400Y42325525D01*
X10353400Y42634472D01*
X10424931Y42807159D01*
X10427809Y42817719D01*
X10431506Y42828038D01*
X10431950Y42832906D01*
X10433231Y42837609D01*
X10433372Y42848563D01*
X10434366Y42859469D01*
X10433563Y42863159D01*
X10433641Y42869166D01*
X10426134Y42899819D01*
X10425216Y42901531D01*
X10424931Y42902831D01*
X10353400Y43075522D01*
X10353400Y43384475D01*
X10471628Y43669906D01*
X10690091Y43888369D01*
X10975522Y44006597D01*
X11284475Y44006597D01*
X11569906Y43888369D01*
X11788369Y43669906D01*
X11906597Y43384475D01*
X11906597Y43075522D01*
X11835066Y42902831D01*
X11832191Y42892281D01*
X11828491Y42881956D01*
X11828047Y42877088D01*
X11826766Y42872384D01*
X11826625Y42861431D01*
X11825631Y42850525D01*
X11826434Y42846834D01*
X11826356Y42840828D01*
X11833863Y42810175D01*
X11834781Y42808466D01*
X11835066Y42807159D01*
X11906597Y42634472D01*
X11906597Y42325525D01*
X11835066Y42152838D01*
X11832188Y42142278D01*
X11828491Y42131959D01*
X11828047Y42127091D01*
X11826766Y42122388D01*
X11826625Y42111434D01*
X11825631Y42100528D01*
X11826434Y42096838D01*
X11826356Y42090831D01*
X11833863Y42060178D01*
X11834781Y42058466D01*
X11835066Y42057166D01*
X11906597Y41884475D01*
X11906597Y41575522D01*
X11788369Y41290091D01*
X11569906Y41071628D01*
X11284475Y40953400D01*
X10975522Y40953400D01*
G37*
%LPD*%
%LPC*%
G36*
X10965522Y36953400D02*
X10965522Y36953400D01*
X10680091Y37071628D01*
X10461628Y37290091D01*
X10343400Y37575522D01*
X10343400Y37884472D01*
X10414931Y38057159D01*
X10417809Y38067719D01*
X10421506Y38078038D01*
X10421950Y38082906D01*
X10423231Y38087609D01*
X10423372Y38098563D01*
X10424366Y38109469D01*
X10423563Y38113159D01*
X10423641Y38119166D01*
X10416134Y38149819D01*
X10415216Y38151531D01*
X10414931Y38152831D01*
X10343400Y38325522D01*
X10343400Y38634472D01*
X10414931Y38807159D01*
X10417809Y38817719D01*
X10421506Y38828038D01*
X10421950Y38832906D01*
X10423231Y38837609D01*
X10423372Y38848563D01*
X10424366Y38859469D01*
X10423563Y38863159D01*
X10423641Y38869166D01*
X10416134Y38899819D01*
X10415216Y38901531D01*
X10414931Y38902831D01*
X10343400Y39075522D01*
X10343400Y39384475D01*
X10461628Y39669906D01*
X10680091Y39888369D01*
X10965522Y40006597D01*
X11274475Y40006597D01*
X11559906Y39888369D01*
X11778369Y39669906D01*
X11896597Y39384475D01*
X11896597Y39075522D01*
X11825066Y38902831D01*
X11822191Y38892281D01*
X11818491Y38881956D01*
X11818047Y38877088D01*
X11816766Y38872384D01*
X11816625Y38861431D01*
X11815631Y38850525D01*
X11816434Y38846834D01*
X11816356Y38840828D01*
X11823863Y38810175D01*
X11824781Y38808466D01*
X11825066Y38807159D01*
X11896597Y38634472D01*
X11896597Y38325522D01*
X11825066Y38152831D01*
X11822191Y38142281D01*
X11818491Y38131956D01*
X11818047Y38127088D01*
X11816766Y38122384D01*
X11816625Y38111431D01*
X11815631Y38100525D01*
X11816434Y38096834D01*
X11816356Y38090828D01*
X11823863Y38060175D01*
X11824781Y38058466D01*
X11825066Y38057159D01*
X11896597Y37884472D01*
X11896597Y37575522D01*
X11778369Y37290091D01*
X11559906Y37071628D01*
X11274475Y36953400D01*
X10965522Y36953400D01*
G37*
%LPD*%
%LPC*%
G36*
X19240522Y36953400D02*
X19240522Y36953400D01*
X18955091Y37071628D01*
X18736628Y37290091D01*
X18618400Y37575522D01*
X18618400Y37884475D01*
X18689931Y38057166D01*
X18692806Y38067716D01*
X18696506Y38078041D01*
X18696950Y38082909D01*
X18698231Y38087613D01*
X18698372Y38098566D01*
X18699366Y38109472D01*
X18698563Y38113163D01*
X18698641Y38119169D01*
X18691134Y38149822D01*
X18690216Y38151531D01*
X18689931Y38152838D01*
X18618400Y38325525D01*
X18618400Y38634475D01*
X18689931Y38807166D01*
X18692806Y38817716D01*
X18696506Y38828041D01*
X18696950Y38832909D01*
X18698231Y38837613D01*
X18698372Y38848566D01*
X18699366Y38859472D01*
X18698563Y38863163D01*
X18698641Y38869169D01*
X18691134Y38899822D01*
X18690216Y38901531D01*
X18689931Y38902838D01*
X18618400Y39075525D01*
X18618400Y39384475D01*
X18736628Y39669906D01*
X18955091Y39888369D01*
X19240522Y40006597D01*
X19549475Y40006597D01*
X19834906Y39888369D01*
X20053369Y39669906D01*
X20171597Y39384475D01*
X20171597Y39075525D01*
X20100066Y38902838D01*
X20097188Y38892278D01*
X20093491Y38881959D01*
X20093047Y38877091D01*
X20091766Y38872388D01*
X20091625Y38861434D01*
X20090631Y38850528D01*
X20091434Y38846838D01*
X20091356Y38840831D01*
X20098863Y38810178D01*
X20099781Y38808466D01*
X20100066Y38807166D01*
X20171597Y38634475D01*
X20171597Y38325525D01*
X20100066Y38152838D01*
X20097188Y38142278D01*
X20093491Y38131959D01*
X20093047Y38127091D01*
X20091766Y38122388D01*
X20091625Y38111434D01*
X20090631Y38100528D01*
X20091434Y38096838D01*
X20091356Y38090831D01*
X20098863Y38060178D01*
X20099781Y38058466D01*
X20100066Y38057166D01*
X20171597Y37884475D01*
X20171597Y37575522D01*
X20053369Y37290091D01*
X19834906Y37071628D01*
X19549475Y36953400D01*
X19240522Y36953400D01*
G37*
%LPD*%
%LPC*%
G36*
X13615522Y36953400D02*
X13615522Y36953400D01*
X13330091Y37071628D01*
X13111628Y37290091D01*
X12993400Y37575522D01*
X12993400Y37884475D01*
X13064931Y38057166D01*
X13067806Y38067716D01*
X13071506Y38078041D01*
X13071950Y38082909D01*
X13073231Y38087613D01*
X13073372Y38098566D01*
X13074366Y38109472D01*
X13073563Y38113163D01*
X13073641Y38119169D01*
X13066134Y38149822D01*
X13065216Y38151531D01*
X13064931Y38152838D01*
X12993400Y38325525D01*
X12993400Y38634475D01*
X13064931Y38807166D01*
X13067806Y38817716D01*
X13071506Y38828041D01*
X13071950Y38832909D01*
X13073231Y38837613D01*
X13073372Y38848566D01*
X13074366Y38859472D01*
X13073563Y38863163D01*
X13073641Y38869169D01*
X13066134Y38899822D01*
X13065216Y38901531D01*
X13064931Y38902838D01*
X12993400Y39075525D01*
X12993400Y39384475D01*
X13111628Y39669906D01*
X13330091Y39888369D01*
X13615522Y40006597D01*
X13924475Y40006597D01*
X14209906Y39888369D01*
X14428369Y39669906D01*
X14546597Y39384475D01*
X14546597Y39075525D01*
X14475066Y38902838D01*
X14472188Y38892278D01*
X14468491Y38881959D01*
X14468047Y38877091D01*
X14466766Y38872388D01*
X14466625Y38861434D01*
X14465631Y38850528D01*
X14466434Y38846838D01*
X14466356Y38840831D01*
X14473863Y38810178D01*
X14474781Y38808466D01*
X14475066Y38807166D01*
X14546597Y38634475D01*
X14546597Y38325525D01*
X14475066Y38152838D01*
X14472188Y38142278D01*
X14468491Y38131959D01*
X14468047Y38127091D01*
X14466766Y38122388D01*
X14466625Y38111434D01*
X14465631Y38100528D01*
X14466434Y38096838D01*
X14466356Y38090831D01*
X14473863Y38060178D01*
X14474781Y38058466D01*
X14475066Y38057166D01*
X14546597Y37884475D01*
X14546597Y37575522D01*
X14428369Y37290091D01*
X14209906Y37071628D01*
X13924475Y36953400D01*
X13615522Y36953400D01*
G37*
%LPD*%
%LPC*%
G36*
X19226522Y17957400D02*
X19226522Y17957400D01*
X18941091Y18075628D01*
X18722628Y18294091D01*
X18604400Y18579522D01*
X18604400Y18888475D01*
X18675931Y19061166D01*
X18678806Y19071716D01*
X18682506Y19082041D01*
X18682950Y19086909D01*
X18684231Y19091613D01*
X18684372Y19102566D01*
X18685366Y19113472D01*
X18684563Y19117163D01*
X18684641Y19123169D01*
X18677134Y19153822D01*
X18676216Y19155531D01*
X18675931Y19156838D01*
X18604400Y19329525D01*
X18604400Y19638475D01*
X18675931Y19811166D01*
X18678806Y19821713D01*
X18682506Y19832041D01*
X18682950Y19836909D01*
X18684231Y19841613D01*
X18684372Y19852566D01*
X18685366Y19863472D01*
X18684563Y19867163D01*
X18684641Y19873169D01*
X18677134Y19903822D01*
X18676216Y19905531D01*
X18675931Y19906838D01*
X18604400Y20079525D01*
X18604400Y20388475D01*
X18722628Y20673906D01*
X18941091Y20892369D01*
X19226522Y21010597D01*
X19535475Y21010597D01*
X19820906Y20892369D01*
X20039369Y20673906D01*
X20157597Y20388475D01*
X20157597Y20079525D01*
X20086066Y19906838D01*
X20083188Y19896278D01*
X20079491Y19885959D01*
X20079047Y19881091D01*
X20077766Y19876388D01*
X20077625Y19865434D01*
X20076631Y19854528D01*
X20077434Y19850838D01*
X20077356Y19844831D01*
X20084863Y19814178D01*
X20085781Y19812466D01*
X20086066Y19811166D01*
X20157597Y19638475D01*
X20157597Y19329525D01*
X20086066Y19156838D01*
X20083188Y19146278D01*
X20079491Y19135959D01*
X20079047Y19131091D01*
X20077766Y19126388D01*
X20077625Y19115434D01*
X20076631Y19104528D01*
X20077434Y19100838D01*
X20077356Y19094831D01*
X20084863Y19064178D01*
X20085781Y19062466D01*
X20086066Y19061166D01*
X20157597Y18888475D01*
X20157597Y18579522D01*
X20039369Y18294091D01*
X19820906Y18075628D01*
X19535475Y17957400D01*
X19226522Y17957400D01*
G37*
%LPD*%
%LPC*%
G36*
X19279453Y22949400D02*
X19279453Y22949400D01*
X19084438Y23030178D01*
X18935178Y23179438D01*
X18854400Y23374453D01*
X18854400Y23585544D01*
X18935175Y23780553D01*
X19046231Y23891606D01*
X19053931Y23901553D01*
X19062119Y23911063D01*
X19063559Y23913984D01*
X19065553Y23916563D01*
X19070509Y23928106D01*
X19076059Y23939375D01*
X19076722Y23942566D01*
X19078006Y23945559D01*
X19079916Y23957981D01*
X19082466Y23970278D01*
X19082306Y23973528D01*
X19082803Y23976753D01*
X19081541Y23989259D01*
X19080928Y24001800D01*
X19079959Y24004913D01*
X19079631Y24008153D01*
X19075284Y24019925D01*
X19071544Y24031931D01*
X19070059Y24034072D01*
X19068697Y24037756D01*
X19050700Y24063681D01*
X19047709Y24066256D01*
X19046231Y24068384D01*
X18935178Y24179438D01*
X18854400Y24374453D01*
X18854400Y24585544D01*
X18935178Y24780559D01*
X19046231Y24891613D01*
X19053906Y24901525D01*
X19062119Y24911066D01*
X19063559Y24913991D01*
X19065553Y24916566D01*
X19070491Y24928066D01*
X19076059Y24939378D01*
X19076722Y24942575D01*
X19078006Y24945566D01*
X19079916Y24957978D01*
X19082466Y24970281D01*
X19082306Y24973531D01*
X19082803Y24976756D01*
X19081541Y24989263D01*
X19080928Y25001803D01*
X19079959Y25004916D01*
X19079631Y25008156D01*
X19075284Y25019925D01*
X19071544Y25031938D01*
X19070059Y25034078D01*
X19068697Y25037763D01*
X19050697Y25063684D01*
X19047719Y25066247D01*
X19046231Y25068391D01*
X18935175Y25179444D01*
X18854400Y25374453D01*
X18854400Y25585544D01*
X18935175Y25780553D01*
X19041231Y25886606D01*
X19048931Y25896553D01*
X19057119Y25906063D01*
X19058559Y25908984D01*
X19060553Y25911563D01*
X19065509Y25923106D01*
X19071059Y25934375D01*
X19071722Y25937566D01*
X19073006Y25940559D01*
X19074916Y25952981D01*
X19077466Y25965278D01*
X19077306Y25968528D01*
X19077803Y25971753D01*
X19076541Y25984259D01*
X19075928Y25996800D01*
X19074959Y25999913D01*
X19074631Y26003153D01*
X19070284Y26014925D01*
X19066544Y26026931D01*
X19065059Y26029072D01*
X19063697Y26032756D01*
X19045700Y26058681D01*
X19042709Y26061256D01*
X19041231Y26063384D01*
X18925178Y26179438D01*
X18844400Y26374453D01*
X18844400Y26585544D01*
X18925178Y26780559D01*
X19074438Y26929819D01*
X19269453Y27010597D01*
X19480544Y27010597D01*
X19675559Y26929819D01*
X19824819Y26780559D01*
X19905597Y26585544D01*
X19905597Y26374453D01*
X19824819Y26179438D01*
X19718766Y26073384D01*
X19711091Y26063472D01*
X19702878Y26053931D01*
X19701438Y26051006D01*
X19699444Y26048431D01*
X19694491Y26036897D01*
X19688938Y26025619D01*
X19688275Y26022422D01*
X19686991Y26019431D01*
X19685081Y26007013D01*
X19682531Y25994716D01*
X19682691Y25991466D01*
X19682194Y25988241D01*
X19683456Y25975734D01*
X19684069Y25963194D01*
X19685038Y25960081D01*
X19685366Y25956841D01*
X19689713Y25945072D01*
X19693453Y25933059D01*
X19694938Y25930919D01*
X19696300Y25927234D01*
X19714300Y25901313D01*
X19717278Y25898750D01*
X19718766Y25896606D01*
X19834822Y25780553D01*
X19915597Y25585544D01*
X19915597Y25374453D01*
X19834822Y25179444D01*
X19723766Y25068391D01*
X19716066Y25058444D01*
X19707878Y25048934D01*
X19706438Y25046013D01*
X19704444Y25043434D01*
X19699488Y25031891D01*
X19693938Y25020622D01*
X19693275Y25017431D01*
X19691991Y25014438D01*
X19690081Y25002016D01*
X19687531Y24989719D01*
X19687691Y24986469D01*
X19687194Y24983244D01*
X19688456Y24970738D01*
X19689069Y24958197D01*
X19690038Y24955084D01*
X19690366Y24951844D01*
X19694713Y24940072D01*
X19698453Y24928066D01*
X19699938Y24925925D01*
X19701300Y24922241D01*
X19719297Y24896316D01*
X19722288Y24893741D01*
X19723766Y24891613D01*
X19834819Y24780559D01*
X19915597Y24585544D01*
X19915597Y24374453D01*
X19834819Y24179438D01*
X19723766Y24068384D01*
X19716091Y24058472D01*
X19707878Y24048931D01*
X19706438Y24046006D01*
X19704444Y24043431D01*
X19699491Y24031897D01*
X19693938Y24020619D01*
X19693275Y24017422D01*
X19691991Y24014431D01*
X19690081Y24002019D01*
X19687531Y23989716D01*
X19687691Y23986466D01*
X19687194Y23983241D01*
X19688456Y23970734D01*
X19689069Y23958194D01*
X19690038Y23955081D01*
X19690366Y23951841D01*
X19694713Y23940072D01*
X19698453Y23928059D01*
X19699938Y23925919D01*
X19701300Y23922234D01*
X19719300Y23896313D01*
X19722278Y23893750D01*
X19723766Y23891606D01*
X19834822Y23780553D01*
X19915597Y23585544D01*
X19915597Y23374453D01*
X19834819Y23179438D01*
X19685559Y23030178D01*
X19490544Y22949400D01*
X19279453Y22949400D01*
G37*
%LPD*%
%LPC*%
G36*
X13654453Y22949400D02*
X13654453Y22949400D01*
X13459438Y23030178D01*
X13310178Y23179438D01*
X13229400Y23374453D01*
X13229400Y23585544D01*
X13310175Y23780553D01*
X13421231Y23891606D01*
X13428931Y23901553D01*
X13437119Y23911063D01*
X13438559Y23913984D01*
X13440553Y23916563D01*
X13445509Y23928106D01*
X13451059Y23939375D01*
X13451722Y23942566D01*
X13453006Y23945559D01*
X13454916Y23957981D01*
X13457466Y23970278D01*
X13457306Y23973528D01*
X13457803Y23976753D01*
X13456541Y23989259D01*
X13455928Y24001800D01*
X13454959Y24004913D01*
X13454631Y24008153D01*
X13450284Y24019925D01*
X13446544Y24031931D01*
X13445059Y24034072D01*
X13443697Y24037756D01*
X13425700Y24063681D01*
X13422709Y24066256D01*
X13421231Y24068384D01*
X13310178Y24179438D01*
X13229400Y24374453D01*
X13229400Y24585544D01*
X13310178Y24780559D01*
X13421231Y24891613D01*
X13428906Y24901525D01*
X13437119Y24911066D01*
X13438559Y24913991D01*
X13440553Y24916566D01*
X13445491Y24928066D01*
X13451059Y24939378D01*
X13451722Y24942575D01*
X13453006Y24945566D01*
X13454916Y24957978D01*
X13457466Y24970281D01*
X13457306Y24973531D01*
X13457803Y24976756D01*
X13456541Y24989263D01*
X13455928Y25001803D01*
X13454959Y25004916D01*
X13454631Y25008156D01*
X13450284Y25019925D01*
X13446544Y25031938D01*
X13445059Y25034078D01*
X13443697Y25037763D01*
X13425697Y25063684D01*
X13422719Y25066247D01*
X13421231Y25068391D01*
X13310175Y25179444D01*
X13229400Y25374453D01*
X13229400Y25585544D01*
X13310175Y25780553D01*
X13416231Y25886606D01*
X13423931Y25896553D01*
X13432119Y25906063D01*
X13433559Y25908984D01*
X13435553Y25911563D01*
X13440509Y25923106D01*
X13446059Y25934375D01*
X13446722Y25937566D01*
X13448006Y25940559D01*
X13449916Y25952981D01*
X13452466Y25965278D01*
X13452306Y25968528D01*
X13452803Y25971753D01*
X13451541Y25984259D01*
X13450928Y25996800D01*
X13449959Y25999913D01*
X13449631Y26003153D01*
X13445284Y26014925D01*
X13441544Y26026931D01*
X13440059Y26029072D01*
X13438697Y26032756D01*
X13420700Y26058681D01*
X13417709Y26061256D01*
X13416231Y26063384D01*
X13300178Y26179438D01*
X13219400Y26374453D01*
X13219400Y26585544D01*
X13300178Y26780559D01*
X13449438Y26929819D01*
X13644453Y27010597D01*
X13855544Y27010597D01*
X14050559Y26929819D01*
X14199819Y26780559D01*
X14280597Y26585544D01*
X14280597Y26374453D01*
X14199819Y26179438D01*
X14093766Y26073384D01*
X14086091Y26063472D01*
X14077878Y26053931D01*
X14076438Y26051006D01*
X14074444Y26048431D01*
X14069491Y26036897D01*
X14063938Y26025619D01*
X14063275Y26022422D01*
X14061991Y26019431D01*
X14060081Y26007013D01*
X14057531Y25994716D01*
X14057691Y25991466D01*
X14057194Y25988241D01*
X14058456Y25975734D01*
X14059069Y25963194D01*
X14060038Y25960081D01*
X14060366Y25956841D01*
X14064713Y25945072D01*
X14068453Y25933059D01*
X14069938Y25930919D01*
X14071300Y25927234D01*
X14089300Y25901313D01*
X14092278Y25898750D01*
X14093766Y25896606D01*
X14209822Y25780553D01*
X14290597Y25585544D01*
X14290597Y25374453D01*
X14209822Y25179444D01*
X14098766Y25068391D01*
X14091066Y25058444D01*
X14082878Y25048934D01*
X14081438Y25046013D01*
X14079444Y25043434D01*
X14074488Y25031891D01*
X14068938Y25020622D01*
X14068275Y25017431D01*
X14066991Y25014438D01*
X14065081Y25002016D01*
X14062531Y24989719D01*
X14062691Y24986469D01*
X14062194Y24983244D01*
X14063456Y24970738D01*
X14064069Y24958197D01*
X14065038Y24955084D01*
X14065366Y24951844D01*
X14069713Y24940072D01*
X14073453Y24928066D01*
X14074938Y24925925D01*
X14076300Y24922241D01*
X14094297Y24896316D01*
X14097288Y24893741D01*
X14098766Y24891613D01*
X14209819Y24780559D01*
X14290597Y24585544D01*
X14290597Y24374453D01*
X14209819Y24179438D01*
X14098766Y24068384D01*
X14091091Y24058472D01*
X14082878Y24048931D01*
X14081438Y24046006D01*
X14079444Y24043431D01*
X14074491Y24031897D01*
X14068938Y24020619D01*
X14068275Y24017422D01*
X14066991Y24014431D01*
X14065081Y24002019D01*
X14062531Y23989716D01*
X14062691Y23986466D01*
X14062194Y23983241D01*
X14063456Y23970734D01*
X14064069Y23958194D01*
X14065038Y23955081D01*
X14065366Y23951841D01*
X14069713Y23940072D01*
X14073453Y23928059D01*
X14074938Y23925919D01*
X14076300Y23922234D01*
X14094300Y23896313D01*
X14097278Y23893750D01*
X14098766Y23891606D01*
X14209822Y23780553D01*
X14290597Y23585544D01*
X14290597Y23374453D01*
X14209819Y23179438D01*
X14060559Y23030178D01*
X13865544Y22949400D01*
X13654453Y22949400D01*
G37*
%LPD*%
%LPC*%
G36*
X9394453Y27969400D02*
X9394453Y27969400D01*
X9199438Y28050178D01*
X9050178Y28199438D01*
X8969400Y28394453D01*
X8969400Y28605544D01*
X9050178Y28800559D01*
X9161231Y28911613D01*
X9168906Y28921525D01*
X9177119Y28931066D01*
X9178559Y28933991D01*
X9180553Y28936566D01*
X9185488Y28948059D01*
X9191059Y28959378D01*
X9191722Y28962575D01*
X9193006Y28965566D01*
X9194916Y28977978D01*
X9197466Y28990281D01*
X9197306Y28993531D01*
X9197803Y28996756D01*
X9196541Y29009263D01*
X9195928Y29021803D01*
X9194959Y29024916D01*
X9194631Y29028156D01*
X9190284Y29039925D01*
X9186544Y29051938D01*
X9185059Y29054078D01*
X9183697Y29057763D01*
X9165697Y29083684D01*
X9162719Y29086247D01*
X9161231Y29088391D01*
X9050175Y29199444D01*
X8969400Y29394453D01*
X8969400Y29605544D01*
X9050175Y29800553D01*
X9161231Y29911606D01*
X9168931Y29921553D01*
X9177119Y29931063D01*
X9178559Y29933984D01*
X9180553Y29936563D01*
X9185509Y29948106D01*
X9191059Y29959375D01*
X9191722Y29962566D01*
X9193006Y29965559D01*
X9194916Y29977981D01*
X9197466Y29990278D01*
X9197306Y29993528D01*
X9197803Y29996753D01*
X9196541Y30009259D01*
X9195928Y30021800D01*
X9194959Y30024913D01*
X9194631Y30028153D01*
X9190284Y30039925D01*
X9186544Y30051931D01*
X9185059Y30054072D01*
X9183697Y30057756D01*
X9165700Y30083681D01*
X9162709Y30086256D01*
X9161231Y30088384D01*
X9050178Y30199438D01*
X8969400Y30394453D01*
X8969400Y30605544D01*
X9050178Y30800559D01*
X9161231Y30911613D01*
X9168906Y30921525D01*
X9177119Y30931066D01*
X9178559Y30933991D01*
X9180553Y30936566D01*
X9185488Y30948059D01*
X9191059Y30959378D01*
X9191722Y30962575D01*
X9193006Y30965566D01*
X9194916Y30977978D01*
X9197466Y30990281D01*
X9197306Y30993531D01*
X9197803Y30996756D01*
X9196541Y31009263D01*
X9195928Y31021803D01*
X9194959Y31024916D01*
X9194631Y31028156D01*
X9190284Y31039925D01*
X9186544Y31051938D01*
X9185059Y31054078D01*
X9183697Y31057763D01*
X9165697Y31083684D01*
X9162719Y31086247D01*
X9161231Y31088391D01*
X9050175Y31199444D01*
X8969400Y31394453D01*
X8969400Y31605544D01*
X9050178Y31800559D01*
X9199438Y31949819D01*
X9394453Y32030597D01*
X9605544Y32030597D01*
X9800559Y31949819D01*
X9949819Y31800559D01*
X10030597Y31605544D01*
X10030597Y31394453D01*
X9949822Y31199444D01*
X9838766Y31088391D01*
X9831066Y31078444D01*
X9822878Y31068934D01*
X9821438Y31066013D01*
X9819444Y31063434D01*
X9814488Y31051891D01*
X9808938Y31040622D01*
X9808275Y31037431D01*
X9806991Y31034438D01*
X9805081Y31022016D01*
X9802531Y31009719D01*
X9802691Y31006469D01*
X9802194Y31003244D01*
X9803456Y30990738D01*
X9804069Y30978197D01*
X9805038Y30975084D01*
X9805366Y30971844D01*
X9809713Y30960072D01*
X9813453Y30948066D01*
X9814938Y30945925D01*
X9816300Y30942241D01*
X9834297Y30916316D01*
X9837288Y30913741D01*
X9838766Y30911613D01*
X9949819Y30800559D01*
X10030597Y30605544D01*
X10030597Y30394453D01*
X9949819Y30199438D01*
X9838766Y30088384D01*
X9831091Y30078472D01*
X9822878Y30068931D01*
X9821438Y30066006D01*
X9819444Y30063431D01*
X9814491Y30051897D01*
X9808938Y30040619D01*
X9808275Y30037422D01*
X9806991Y30034431D01*
X9805081Y30022019D01*
X9802531Y30009716D01*
X9802691Y30006466D01*
X9802194Y30003241D01*
X9803456Y29990734D01*
X9804069Y29978194D01*
X9805038Y29975081D01*
X9805366Y29971841D01*
X9809713Y29960072D01*
X9813453Y29948059D01*
X9814938Y29945919D01*
X9816300Y29942234D01*
X9834300Y29916313D01*
X9837278Y29913750D01*
X9838766Y29911606D01*
X9949822Y29800553D01*
X10030597Y29605544D01*
X10030597Y29394453D01*
X9949822Y29199444D01*
X9838766Y29088391D01*
X9831066Y29078444D01*
X9822878Y29068934D01*
X9821438Y29066013D01*
X9819444Y29063434D01*
X9814488Y29051891D01*
X9808938Y29040622D01*
X9808275Y29037431D01*
X9806991Y29034438D01*
X9805081Y29022016D01*
X9802531Y29009719D01*
X9802691Y29006469D01*
X9802194Y29003244D01*
X9803456Y28990738D01*
X9804069Y28978197D01*
X9805038Y28975084D01*
X9805366Y28971844D01*
X9809713Y28960072D01*
X9813453Y28948066D01*
X9814938Y28945925D01*
X9816300Y28942241D01*
X9834297Y28916316D01*
X9837288Y28913741D01*
X9838766Y28911613D01*
X9949819Y28800559D01*
X10030597Y28605544D01*
X10030597Y28394453D01*
X9949819Y28199438D01*
X9800559Y28050178D01*
X9605544Y27969400D01*
X9394453Y27969400D01*
G37*
%LPD*%
%LPC*%
G36*
X19274453Y11944400D02*
X19274453Y11944400D01*
X19079438Y12025178D01*
X18930178Y12174438D01*
X18849400Y12369453D01*
X18849400Y12580544D01*
X18930178Y12775559D01*
X19041231Y12886613D01*
X19048906Y12896525D01*
X19057119Y12906066D01*
X19058559Y12908991D01*
X19060553Y12911566D01*
X19065488Y12923059D01*
X19071059Y12934378D01*
X19071722Y12937575D01*
X19073006Y12940566D01*
X19074916Y12952978D01*
X19077466Y12965281D01*
X19077306Y12968531D01*
X19077803Y12971756D01*
X19076541Y12984263D01*
X19075928Y12996803D01*
X19074959Y12999916D01*
X19074631Y13003156D01*
X19070284Y13014925D01*
X19066544Y13026938D01*
X19065059Y13029078D01*
X19063697Y13032763D01*
X19045697Y13058684D01*
X19042719Y13061247D01*
X19041231Y13063391D01*
X18930175Y13174444D01*
X18849400Y13369453D01*
X18849400Y13580544D01*
X18930178Y13775559D01*
X19041231Y13886613D01*
X19048906Y13896525D01*
X19057119Y13906066D01*
X19058559Y13908991D01*
X19060553Y13911566D01*
X19065491Y13923066D01*
X19071059Y13934378D01*
X19071722Y13937575D01*
X19073006Y13940566D01*
X19074916Y13952978D01*
X19077466Y13965281D01*
X19077306Y13968531D01*
X19077803Y13971756D01*
X19076541Y13984263D01*
X19075928Y13996803D01*
X19074959Y13999916D01*
X19074631Y14003156D01*
X19070284Y14014925D01*
X19066544Y14026938D01*
X19065059Y14029078D01*
X19063697Y14032763D01*
X19045697Y14058684D01*
X19042719Y14061247D01*
X19041231Y14063391D01*
X18930175Y14174444D01*
X18849400Y14369453D01*
X18849400Y14580544D01*
X18930178Y14775559D01*
X19041231Y14886613D01*
X19048906Y14896525D01*
X19057119Y14906066D01*
X19058559Y14908991D01*
X19060553Y14911566D01*
X19065491Y14923066D01*
X19071059Y14934378D01*
X19071722Y14937575D01*
X19073006Y14940566D01*
X19074916Y14952978D01*
X19077466Y14965281D01*
X19077306Y14968531D01*
X19077803Y14971756D01*
X19076541Y14984263D01*
X19075928Y14996803D01*
X19074959Y14999916D01*
X19074631Y15003156D01*
X19070284Y15014925D01*
X19066544Y15026938D01*
X19065059Y15029078D01*
X19063697Y15032763D01*
X19045697Y15058684D01*
X19042719Y15061247D01*
X19041231Y15063391D01*
X18930175Y15174444D01*
X18849400Y15369453D01*
X18849400Y15580544D01*
X18930178Y15775559D01*
X19079438Y15924819D01*
X19274453Y16005597D01*
X19485544Y16005597D01*
X19680559Y15924819D01*
X19829819Y15775559D01*
X19910597Y15580544D01*
X19910597Y15369453D01*
X19829822Y15174444D01*
X19718766Y15063391D01*
X19711066Y15053444D01*
X19702878Y15043934D01*
X19701438Y15041013D01*
X19699444Y15038434D01*
X19694488Y15026891D01*
X19688938Y15015622D01*
X19688275Y15012431D01*
X19686991Y15009438D01*
X19685081Y14997016D01*
X19682531Y14984719D01*
X19682691Y14981469D01*
X19682194Y14978244D01*
X19683456Y14965738D01*
X19684069Y14953197D01*
X19685038Y14950084D01*
X19685366Y14946844D01*
X19689713Y14935072D01*
X19693453Y14923066D01*
X19694938Y14920925D01*
X19696300Y14917241D01*
X19714297Y14891316D01*
X19717288Y14888741D01*
X19718766Y14886613D01*
X19829819Y14775559D01*
X19910597Y14580544D01*
X19910597Y14369453D01*
X19829822Y14174444D01*
X19718766Y14063391D01*
X19711066Y14053444D01*
X19702878Y14043934D01*
X19701438Y14041013D01*
X19699444Y14038434D01*
X19694488Y14026891D01*
X19688938Y14015622D01*
X19688275Y14012431D01*
X19686991Y14009438D01*
X19685081Y13997016D01*
X19682531Y13984719D01*
X19682691Y13981469D01*
X19682194Y13978244D01*
X19683456Y13965738D01*
X19684069Y13953197D01*
X19685038Y13950084D01*
X19685366Y13946844D01*
X19689713Y13935072D01*
X19693453Y13923066D01*
X19694938Y13920925D01*
X19696300Y13917241D01*
X19714297Y13891316D01*
X19717288Y13888741D01*
X19718766Y13886613D01*
X19829819Y13775559D01*
X19910597Y13580544D01*
X19910597Y13369453D01*
X19829822Y13174444D01*
X19718766Y13063391D01*
X19711066Y13053444D01*
X19702878Y13043934D01*
X19701438Y13041013D01*
X19699444Y13038434D01*
X19694488Y13026891D01*
X19688938Y13015622D01*
X19688275Y13012431D01*
X19686991Y13009438D01*
X19685081Y12997016D01*
X19682531Y12984719D01*
X19682691Y12981469D01*
X19682194Y12978244D01*
X19683456Y12965738D01*
X19684069Y12953197D01*
X19685038Y12950084D01*
X19685366Y12946844D01*
X19689713Y12935072D01*
X19693453Y12923066D01*
X19694938Y12920925D01*
X19696300Y12917241D01*
X19714297Y12891316D01*
X19717288Y12888741D01*
X19718766Y12886613D01*
X19829819Y12775559D01*
X19910597Y12580544D01*
X19910597Y12369453D01*
X19829819Y12174438D01*
X19680559Y12025178D01*
X19485544Y11944400D01*
X19274453Y11944400D01*
G37*
%LPD*%
%LPC*%
G36*
X11014453Y11944400D02*
X11014453Y11944400D01*
X10819438Y12025178D01*
X10670178Y12174438D01*
X10589400Y12369453D01*
X10589400Y12580544D01*
X10670175Y12775553D01*
X10781231Y12886606D01*
X10788931Y12896553D01*
X10797119Y12906063D01*
X10798559Y12908984D01*
X10800553Y12911563D01*
X10805509Y12923106D01*
X10811059Y12934375D01*
X10811722Y12937566D01*
X10813006Y12940559D01*
X10814916Y12952981D01*
X10817466Y12965278D01*
X10817306Y12968528D01*
X10817803Y12971753D01*
X10816541Y12984259D01*
X10815928Y12996800D01*
X10814959Y12999913D01*
X10814631Y13003153D01*
X10810284Y13014925D01*
X10806544Y13026931D01*
X10805059Y13029072D01*
X10803697Y13032756D01*
X10785700Y13058681D01*
X10782709Y13061256D01*
X10781231Y13063384D01*
X10670178Y13174438D01*
X10589400Y13369453D01*
X10589400Y13580544D01*
X10670178Y13775559D01*
X10782481Y13887863D01*
X10790156Y13897775D01*
X10798369Y13907316D01*
X10799809Y13910241D01*
X10801803Y13912816D01*
X10806741Y13924316D01*
X10812309Y13935628D01*
X10812972Y13938825D01*
X10814256Y13941816D01*
X10816166Y13954228D01*
X10818716Y13966531D01*
X10818556Y13969781D01*
X10819053Y13973006D01*
X10817791Y13985513D01*
X10817178Y13998053D01*
X10816209Y14001166D01*
X10815881Y14004406D01*
X10811534Y14016175D01*
X10807794Y14028188D01*
X10806309Y14030328D01*
X10804947Y14034013D01*
X10786947Y14059934D01*
X10783969Y14062497D01*
X10782481Y14064641D01*
X10670175Y14176944D01*
X10589400Y14371953D01*
X10589400Y14583044D01*
X10670178Y14778059D01*
X10779981Y14887863D01*
X10787656Y14897775D01*
X10795869Y14907316D01*
X10797309Y14910241D01*
X10799303Y14912816D01*
X10804241Y14924316D01*
X10809809Y14935628D01*
X10810472Y14938825D01*
X10811756Y14941816D01*
X10813666Y14954228D01*
X10816216Y14966531D01*
X10816056Y14969781D01*
X10816553Y14973006D01*
X10815291Y14985513D01*
X10814678Y14998053D01*
X10813709Y15001166D01*
X10813381Y15004406D01*
X10809034Y15016175D01*
X10805294Y15028188D01*
X10803809Y15030328D01*
X10802447Y15034013D01*
X10784447Y15059934D01*
X10781469Y15062497D01*
X10779981Y15064641D01*
X10670175Y15174444D01*
X10589400Y15369453D01*
X10589400Y15580544D01*
X10670178Y15775559D01*
X10819438Y15924819D01*
X11014453Y16005597D01*
X11225544Y16005597D01*
X11420559Y15924819D01*
X11569819Y15775559D01*
X11650597Y15580544D01*
X11650597Y15369453D01*
X11569822Y15174444D01*
X11460016Y15064641D01*
X11452316Y15054694D01*
X11444128Y15045184D01*
X11442688Y15042263D01*
X11440694Y15039684D01*
X11435738Y15028141D01*
X11430188Y15016872D01*
X11429525Y15013681D01*
X11428241Y15010688D01*
X11426328Y14998259D01*
X11423781Y14985969D01*
X11423941Y14982719D01*
X11423444Y14979494D01*
X11424706Y14966988D01*
X11425319Y14954447D01*
X11426288Y14951334D01*
X11426616Y14948094D01*
X11430963Y14936322D01*
X11434703Y14924316D01*
X11436188Y14922175D01*
X11437550Y14918491D01*
X11455547Y14892566D01*
X11458538Y14889991D01*
X11460016Y14887863D01*
X11569819Y14778059D01*
X11650597Y14583044D01*
X11650597Y14371953D01*
X11569822Y14176944D01*
X11457516Y14064641D01*
X11449816Y14054694D01*
X11441628Y14045184D01*
X11440188Y14042263D01*
X11438194Y14039684D01*
X11433238Y14028141D01*
X11427688Y14016872D01*
X11427025Y14013681D01*
X11425741Y14010688D01*
X11423828Y13998259D01*
X11421281Y13985969D01*
X11421441Y13982719D01*
X11420944Y13979494D01*
X11422206Y13966988D01*
X11422819Y13954447D01*
X11423788Y13951334D01*
X11424116Y13948094D01*
X11428463Y13936322D01*
X11432203Y13924316D01*
X11433688Y13922175D01*
X11435050Y13918491D01*
X11453047Y13892566D01*
X11456038Y13889991D01*
X11457516Y13887863D01*
X11569819Y13775559D01*
X11650597Y13580544D01*
X11650597Y13369453D01*
X11569819Y13174438D01*
X11458766Y13063384D01*
X11451091Y13053472D01*
X11442878Y13043931D01*
X11441438Y13041006D01*
X11439444Y13038431D01*
X11434478Y13026869D01*
X11428938Y13015619D01*
X11428275Y13012422D01*
X11426991Y13009431D01*
X11425081Y12997019D01*
X11422531Y12984716D01*
X11422691Y12981466D01*
X11422194Y12978241D01*
X11423456Y12965734D01*
X11424069Y12953194D01*
X11425038Y12950081D01*
X11425366Y12946841D01*
X11429713Y12935072D01*
X11433453Y12923059D01*
X11434938Y12920919D01*
X11436300Y12917234D01*
X11454300Y12891313D01*
X11457278Y12888750D01*
X11458766Y12886606D01*
X11569822Y12775553D01*
X11650597Y12580544D01*
X11650597Y12369453D01*
X11569819Y12174438D01*
X11420559Y12025178D01*
X11225544Y11944400D01*
X11014453Y11944400D01*
G37*
%LPD*%
%LPC*%
G36*
X11014453Y22949400D02*
X11014453Y22949400D01*
X10819438Y23030178D01*
X10670178Y23179438D01*
X10589400Y23374453D01*
X10589400Y23585544D01*
X10670175Y23780553D01*
X10786231Y23896606D01*
X10793931Y23906553D01*
X10802119Y23916063D01*
X10803559Y23918984D01*
X10805553Y23921563D01*
X10810509Y23933106D01*
X10816059Y23944375D01*
X10816722Y23947566D01*
X10818006Y23950559D01*
X10819916Y23962981D01*
X10822466Y23975278D01*
X10822306Y23978528D01*
X10822803Y23981753D01*
X10821541Y23994259D01*
X10820928Y24006800D01*
X10819959Y24009913D01*
X10819631Y24013153D01*
X10815284Y24024925D01*
X10811544Y24036931D01*
X10810059Y24039072D01*
X10808697Y24042756D01*
X10790700Y24068681D01*
X10787709Y24071256D01*
X10786231Y24073384D01*
X10670178Y24189438D01*
X10589400Y24384453D01*
X10589400Y24595544D01*
X10670178Y24790559D01*
X10776231Y24896613D01*
X10783906Y24906525D01*
X10792119Y24916066D01*
X10793559Y24918991D01*
X10795553Y24921566D01*
X10800491Y24933066D01*
X10806059Y24944378D01*
X10806722Y24947575D01*
X10808006Y24950566D01*
X10809916Y24962978D01*
X10812466Y24975281D01*
X10812306Y24978531D01*
X10812803Y24981756D01*
X10811541Y24994263D01*
X10810928Y25006803D01*
X10809959Y25009916D01*
X10809631Y25013156D01*
X10805284Y25024925D01*
X10801544Y25036938D01*
X10800059Y25039078D01*
X10798697Y25042763D01*
X10780697Y25068684D01*
X10777719Y25071247D01*
X10776231Y25073391D01*
X10670175Y25179444D01*
X10589400Y25374453D01*
X10589400Y25585544D01*
X10670175Y25780553D01*
X10781231Y25891606D01*
X10788931Y25901553D01*
X10797119Y25911063D01*
X10798559Y25913984D01*
X10800553Y25916563D01*
X10805509Y25928106D01*
X10811059Y25939375D01*
X10811722Y25942566D01*
X10813006Y25945559D01*
X10814916Y25957981D01*
X10817466Y25970278D01*
X10817306Y25973528D01*
X10817803Y25976753D01*
X10816541Y25989259D01*
X10815928Y26001800D01*
X10814959Y26004913D01*
X10814631Y26008153D01*
X10810284Y26019925D01*
X10806544Y26031931D01*
X10805059Y26034072D01*
X10803697Y26037756D01*
X10785700Y26063681D01*
X10782709Y26066256D01*
X10781231Y26068384D01*
X10670178Y26179438D01*
X10589400Y26374453D01*
X10589400Y26585544D01*
X10670178Y26780559D01*
X10819438Y26929819D01*
X11014453Y27010597D01*
X11225544Y27010597D01*
X11420559Y26929819D01*
X11569819Y26780559D01*
X11650597Y26585544D01*
X11650597Y26374453D01*
X11569819Y26179438D01*
X11458766Y26068384D01*
X11451091Y26058472D01*
X11442878Y26048931D01*
X11441438Y26046006D01*
X11439444Y26043431D01*
X11434491Y26031897D01*
X11428938Y26020619D01*
X11428275Y26017422D01*
X11426991Y26014431D01*
X11425081Y26002019D01*
X11422531Y25989716D01*
X11422691Y25986466D01*
X11422194Y25983241D01*
X11423456Y25970734D01*
X11424069Y25958194D01*
X11425038Y25955081D01*
X11425366Y25951841D01*
X11429713Y25940072D01*
X11433453Y25928059D01*
X11434938Y25925919D01*
X11436300Y25922234D01*
X11454300Y25896313D01*
X11457278Y25893750D01*
X11458766Y25891606D01*
X11569822Y25780553D01*
X11650597Y25585544D01*
X11650597Y25374453D01*
X11569822Y25179444D01*
X11463766Y25073391D01*
X11456066Y25063444D01*
X11447878Y25053934D01*
X11446438Y25051013D01*
X11444444Y25048434D01*
X11439488Y25036891D01*
X11433938Y25025622D01*
X11433275Y25022431D01*
X11431991Y25019438D01*
X11430081Y25007013D01*
X11427531Y24994719D01*
X11427691Y24991469D01*
X11427194Y24988244D01*
X11428456Y24975738D01*
X11429069Y24963197D01*
X11430038Y24960084D01*
X11430366Y24956844D01*
X11434713Y24945072D01*
X11438453Y24933066D01*
X11439938Y24930925D01*
X11441300Y24927241D01*
X11459297Y24901316D01*
X11462288Y24898741D01*
X11463766Y24896613D01*
X11569819Y24790559D01*
X11650597Y24595544D01*
X11650597Y24384453D01*
X11569819Y24189438D01*
X11453766Y24073384D01*
X11446091Y24063472D01*
X11437878Y24053931D01*
X11436438Y24051006D01*
X11434444Y24048431D01*
X11429491Y24036897D01*
X11423938Y24025619D01*
X11423275Y24022422D01*
X11421991Y24019431D01*
X11420081Y24007013D01*
X11417531Y23994716D01*
X11417691Y23991466D01*
X11417194Y23988241D01*
X11418456Y23975734D01*
X11419069Y23963194D01*
X11420038Y23960081D01*
X11420366Y23956841D01*
X11424713Y23945072D01*
X11428453Y23933059D01*
X11429938Y23930919D01*
X11431300Y23927234D01*
X11449300Y23901313D01*
X11452278Y23898750D01*
X11453766Y23896606D01*
X11569822Y23780553D01*
X11650597Y23585544D01*
X11650597Y23374453D01*
X11569819Y23179438D01*
X11420559Y23030178D01*
X11225544Y22949400D01*
X11014453Y22949400D01*
G37*
%LPD*%
%LPC*%
G36*
X13659453Y11956900D02*
X13659453Y11956900D01*
X13464438Y12037678D01*
X13315178Y12186938D01*
X13234400Y12381953D01*
X13234400Y12593044D01*
X13315175Y12788053D01*
X13414981Y12887856D01*
X13422669Y12897788D01*
X13430869Y12907313D01*
X13432313Y12910247D01*
X13434300Y12912813D01*
X13439247Y12924325D01*
X13444809Y12935625D01*
X13445472Y12938819D01*
X13446756Y12941809D01*
X13448666Y12954231D01*
X13451216Y12966528D01*
X13451056Y12969778D01*
X13451553Y12973003D01*
X13450291Y12985509D01*
X13449678Y12998050D01*
X13448709Y13001163D01*
X13448381Y13004403D01*
X13444034Y13016175D01*
X13440294Y13028181D01*
X13438809Y13030322D01*
X13437447Y13034006D01*
X13419450Y13059931D01*
X13416459Y13062506D01*
X13414981Y13064634D01*
X13305178Y13174438D01*
X13224400Y13369453D01*
X13224400Y13580544D01*
X13305178Y13775559D01*
X13417481Y13887863D01*
X13425156Y13897775D01*
X13433369Y13907316D01*
X13434809Y13910241D01*
X13436803Y13912816D01*
X13441741Y13924316D01*
X13447309Y13935628D01*
X13447972Y13938825D01*
X13449256Y13941816D01*
X13451166Y13954228D01*
X13453716Y13966531D01*
X13453556Y13969781D01*
X13454053Y13973006D01*
X13452791Y13985513D01*
X13452178Y13998053D01*
X13451209Y14001166D01*
X13450881Y14004406D01*
X13446534Y14016175D01*
X13442794Y14028188D01*
X13441309Y14030328D01*
X13439947Y14034013D01*
X13421947Y14059934D01*
X13418969Y14062497D01*
X13417481Y14064641D01*
X13305175Y14176944D01*
X13224400Y14371953D01*
X13224400Y14583044D01*
X13305178Y14778059D01*
X13414981Y14887863D01*
X13422656Y14897775D01*
X13430869Y14907316D01*
X13432309Y14910241D01*
X13434303Y14912816D01*
X13439241Y14924316D01*
X13444809Y14935628D01*
X13445472Y14938825D01*
X13446756Y14941816D01*
X13448666Y14954228D01*
X13451216Y14966531D01*
X13451056Y14969781D01*
X13451553Y14973006D01*
X13450291Y14985513D01*
X13449678Y14998053D01*
X13448709Y15001166D01*
X13448381Y15004406D01*
X13444034Y15016175D01*
X13440294Y15028188D01*
X13438809Y15030328D01*
X13437447Y15034013D01*
X13419447Y15059934D01*
X13416469Y15062497D01*
X13414981Y15064641D01*
X13305175Y15174444D01*
X13224400Y15369453D01*
X13224400Y15580544D01*
X13305178Y15775559D01*
X13454438Y15924819D01*
X13649453Y16005597D01*
X13860544Y16005597D01*
X14055559Y15924819D01*
X14204819Y15775559D01*
X14285597Y15580544D01*
X14285597Y15369453D01*
X14204822Y15174444D01*
X14095016Y15064641D01*
X14087316Y15054694D01*
X14079128Y15045184D01*
X14077688Y15042263D01*
X14075694Y15039684D01*
X14070738Y15028141D01*
X14065188Y15016872D01*
X14064525Y15013681D01*
X14063241Y15010688D01*
X14061328Y14998259D01*
X14058781Y14985969D01*
X14058941Y14982719D01*
X14058444Y14979494D01*
X14059706Y14966988D01*
X14060319Y14954447D01*
X14061288Y14951334D01*
X14061616Y14948094D01*
X14065963Y14936322D01*
X14069703Y14924316D01*
X14071188Y14922175D01*
X14072550Y14918491D01*
X14090547Y14892566D01*
X14093538Y14889991D01*
X14095016Y14887863D01*
X14204819Y14778059D01*
X14285597Y14583044D01*
X14285597Y14371953D01*
X14204822Y14176944D01*
X14092516Y14064641D01*
X14084816Y14054694D01*
X14076628Y14045184D01*
X14075188Y14042263D01*
X14073194Y14039684D01*
X14068238Y14028141D01*
X14062688Y14016872D01*
X14062025Y14013681D01*
X14060741Y14010688D01*
X14058828Y13998259D01*
X14056281Y13985969D01*
X14056441Y13982719D01*
X14055944Y13979494D01*
X14057206Y13966988D01*
X14057819Y13954447D01*
X14058788Y13951334D01*
X14059116Y13948094D01*
X14063463Y13936322D01*
X14067203Y13924316D01*
X14068688Y13922175D01*
X14070050Y13918491D01*
X14088047Y13892566D01*
X14091038Y13889991D01*
X14092516Y13887863D01*
X14204819Y13775559D01*
X14285597Y13580544D01*
X14285597Y13369453D01*
X14204819Y13174438D01*
X14105016Y13074634D01*
X14097341Y13064722D01*
X14089128Y13055181D01*
X14087688Y13052256D01*
X14085694Y13049681D01*
X14080741Y13038147D01*
X14075188Y13026869D01*
X14074525Y13023672D01*
X14073241Y13020681D01*
X14071331Y13008269D01*
X14068781Y12995966D01*
X14068941Y12992716D01*
X14068444Y12989491D01*
X14069706Y12976984D01*
X14070319Y12964444D01*
X14071288Y12961331D01*
X14071616Y12958091D01*
X14075963Y12946322D01*
X14079703Y12934309D01*
X14081188Y12932169D01*
X14082550Y12928484D01*
X14100550Y12902563D01*
X14103528Y12900000D01*
X14105016Y12897856D01*
X14214822Y12788053D01*
X14295597Y12593044D01*
X14295597Y12381953D01*
X14214819Y12186938D01*
X14065559Y12037678D01*
X13870544Y11956900D01*
X13659453Y11956900D01*
G37*
%LPD*%
%LPC*%
G36*
X12394453Y1969400D02*
X12394453Y1969400D01*
X12199438Y2050178D01*
X12050178Y2199438D01*
X11969400Y2394453D01*
X11969400Y2605541D01*
X12002797Y2686163D01*
X12004244Y2691472D01*
X12006541Y2696459D01*
X12008375Y2706622D01*
X12011097Y2716609D01*
X12011169Y2722109D01*
X12012144Y2727516D01*
X12011372Y2737834D01*
X12011506Y2748169D01*
X12010200Y2753500D01*
X12009791Y2758988D01*
X12006456Y2768788D01*
X12004000Y2778822D01*
X12001397Y2783663D01*
X11999628Y2788866D01*
X11993956Y2797503D01*
X11989056Y2806619D01*
X11985319Y2810659D01*
X11982306Y2815247D01*
X11974650Y2822191D01*
X11967625Y2829784D01*
X11963000Y2832756D01*
X11958928Y2836450D01*
X11949769Y2841259D01*
X11941075Y2846847D01*
X11935856Y2848566D01*
X11930988Y2851122D01*
X11924578Y2852278D01*
X11911100Y2856716D01*
X11893713Y2857847D01*
X11887313Y2859000D01*
X11647766Y2859000D01*
X11320288Y2994644D01*
X11069644Y3245288D01*
X10934000Y3572766D01*
X10934000Y3927231D01*
X11069644Y4254709D01*
X11320288Y4505353D01*
X11647766Y4640997D01*
X12002231Y4640997D01*
X12329709Y4505353D01*
X12580353Y4254709D01*
X12715997Y3927231D01*
X12715997Y3572766D01*
X12580353Y3245288D01*
X12568203Y3233138D01*
X12564838Y3228791D01*
X12560803Y3225059D01*
X12555216Y3216366D01*
X12548881Y3208184D01*
X12546713Y3203134D01*
X12543741Y3198509D01*
X12540506Y3188678D01*
X12536428Y3179184D01*
X12535594Y3173753D01*
X12533875Y3168534D01*
X12533206Y3158228D01*
X12531631Y3147994D01*
X12532184Y3142519D01*
X12531828Y3137041D01*
X12533766Y3126878D01*
X12534803Y3116594D01*
X12536703Y3111447D01*
X12537734Y3106038D01*
X12542163Y3096672D01*
X12545738Y3086988D01*
X12548869Y3082478D01*
X12551219Y3077506D01*
X12557844Y3069553D01*
X12563738Y3061066D01*
X12567894Y3057488D01*
X12571419Y3053256D01*
X12576900Y3049734D01*
X12587656Y3040475D01*
X12603294Y3032775D01*
X12608756Y3029266D01*
X12800559Y2949819D01*
X12949819Y2800559D01*
X13030597Y2605544D01*
X13030597Y2394453D01*
X12949819Y2199438D01*
X12800559Y2050178D01*
X12605544Y1969400D01*
X12394453Y1969400D01*
G37*
%LPD*%
%LPC*%
G36*
X13514766Y60711500D02*
X13514766Y60711500D01*
X13187288Y60847144D01*
X12936644Y61097788D01*
X12801000Y61425266D01*
X12801000Y61779731D01*
X12936644Y62107209D01*
X13187288Y62357853D01*
X13514766Y62493497D01*
X13869231Y62493497D01*
X14196709Y62357853D01*
X14447353Y62107209D01*
X14582997Y61779731D01*
X14582997Y61425266D01*
X14447353Y61097788D01*
X14196709Y60847144D01*
X13869231Y60711500D01*
X13514766Y60711500D01*
G37*
%LPD*%
%LPC*%
G36*
X17997766Y2859000D02*
X17997766Y2859000D01*
X17670288Y2994644D01*
X17419644Y3245288D01*
X17284000Y3572766D01*
X17284000Y3927231D01*
X17419644Y4254709D01*
X17670288Y4505353D01*
X17997766Y4640997D01*
X18352231Y4640997D01*
X18679709Y4505353D01*
X18930353Y4254709D01*
X19065997Y3927231D01*
X19065997Y3572766D01*
X18930353Y3245288D01*
X18679709Y2994644D01*
X18352231Y2859000D01*
X17997766Y2859000D01*
G37*
%LPD*%
%LPC*%
G36*
X15102766Y7466500D02*
X15102766Y7466500D01*
X14775288Y7602144D01*
X14524644Y7852788D01*
X14389000Y8180266D01*
X14389000Y8534731D01*
X14524644Y8862209D01*
X14775288Y9112853D01*
X15102766Y9248497D01*
X15457231Y9248497D01*
X15784709Y9112853D01*
X16035353Y8862209D01*
X16170997Y8534731D01*
X16170997Y8180266D01*
X16035353Y7852788D01*
X15784709Y7602144D01*
X15457231Y7466500D01*
X15102766Y7466500D01*
G37*
%LPD*%
%LPC*%
G36*
X12394453Y6219400D02*
X12394453Y6219400D01*
X12199438Y6300178D01*
X12050178Y6449438D01*
X11969400Y6644453D01*
X11969400Y6855544D01*
X12050178Y7050559D01*
X12199438Y7199819D01*
X12394453Y7280597D01*
X12605544Y7280597D01*
X12800559Y7199819D01*
X12949819Y7050559D01*
X13009513Y6906441D01*
X13016559Y6894109D01*
X13023256Y6881656D01*
X13024356Y6880466D01*
X13025172Y6879041D01*
X13035072Y6868878D01*
X13044684Y6858488D01*
X13046063Y6857603D01*
X13047197Y6856438D01*
X13059281Y6849109D01*
X13071234Y6841428D01*
X13072788Y6840916D01*
X13074181Y6840072D01*
X13087728Y6836000D01*
X13101213Y6831559D01*
X13102844Y6831453D01*
X13104403Y6830984D01*
X13118516Y6830434D01*
X13132706Y6829513D01*
X13134316Y6829819D01*
X13135938Y6829756D01*
X13149697Y6832750D01*
X13163706Y6835419D01*
X13165191Y6836119D01*
X13166778Y6836466D01*
X13179391Y6842831D01*
X13192241Y6848903D01*
X13193497Y6849950D01*
X13194953Y6850684D01*
X13205616Y6860044D01*
X13216488Y6869103D01*
X13217206Y6870222D01*
X13218669Y6871506D01*
X13236413Y6897603D01*
X13238438Y6903259D01*
X13240481Y6906438D01*
X13300181Y7050563D01*
X13449438Y7199819D01*
X13644453Y7280597D01*
X13855544Y7280597D01*
X14050559Y7199819D01*
X14199819Y7050559D01*
X14280597Y6855544D01*
X14280597Y6644453D01*
X14199819Y6449438D01*
X14050559Y6300178D01*
X13855544Y6219400D01*
X13644453Y6219400D01*
X13449438Y6300178D01*
X13300181Y6449434D01*
X13240481Y6593559D01*
X13233469Y6605828D01*
X13226738Y6618344D01*
X13225625Y6619547D01*
X13224819Y6620956D01*
X13214972Y6631063D01*
X13205306Y6641509D01*
X13203928Y6642394D01*
X13202794Y6643559D01*
X13190697Y6650900D01*
X13178756Y6658572D01*
X13177209Y6659081D01*
X13175813Y6659928D01*
X13162184Y6664025D01*
X13148778Y6668438D01*
X13147159Y6668544D01*
X13145588Y6669016D01*
X13131413Y6669566D01*
X13117288Y6670484D01*
X13115678Y6670178D01*
X13114053Y6670241D01*
X13100231Y6667234D01*
X13086284Y6664575D01*
X13084809Y6663878D01*
X13083216Y6663531D01*
X13070603Y6657166D01*
X13057750Y6651094D01*
X13056491Y6650044D01*
X13055041Y6649313D01*
X13044400Y6639969D01*
X13033503Y6630891D01*
X13032784Y6629772D01*
X13031325Y6628491D01*
X13013581Y6602391D01*
X13011556Y6596734D01*
X13009513Y6593556D01*
X12949819Y6449438D01*
X12800559Y6300178D01*
X12605544Y6219400D01*
X12394453Y6219400D01*
G37*
%LPD*%
%LPC*%
G36*
X11140453Y33951400D02*
X11140453Y33951400D01*
X10945438Y34032178D01*
X10796178Y34181438D01*
X10715400Y34376453D01*
X10715400Y34587544D01*
X10796175Y34782553D01*
X10905231Y34891606D01*
X10912931Y34901553D01*
X10921119Y34911063D01*
X10922559Y34913984D01*
X10924553Y34916563D01*
X10929509Y34928106D01*
X10935059Y34939375D01*
X10935722Y34942566D01*
X10937006Y34945559D01*
X10938916Y34957981D01*
X10941466Y34970278D01*
X10941306Y34973528D01*
X10941803Y34976753D01*
X10940541Y34989259D01*
X10939928Y35001800D01*
X10938959Y35004913D01*
X10938631Y35008153D01*
X10934284Y35019925D01*
X10930544Y35031931D01*
X10929059Y35034072D01*
X10927697Y35037756D01*
X10909700Y35063681D01*
X10906709Y35066256D01*
X10905231Y35068384D01*
X10796178Y35177438D01*
X10715400Y35372453D01*
X10715400Y35583544D01*
X10796178Y35778559D01*
X10945438Y35927819D01*
X11140453Y36008597D01*
X11351544Y36008597D01*
X11546559Y35927819D01*
X11695819Y35778559D01*
X11776597Y35583544D01*
X11776597Y35372453D01*
X11695819Y35177438D01*
X11586766Y35068384D01*
X11579091Y35058472D01*
X11570878Y35048931D01*
X11569438Y35046006D01*
X11567444Y35043431D01*
X11562491Y35031897D01*
X11556938Y35020619D01*
X11556275Y35017422D01*
X11554991Y35014431D01*
X11553081Y35002019D01*
X11550531Y34989716D01*
X11550691Y34986466D01*
X11550194Y34983241D01*
X11551456Y34970734D01*
X11552069Y34958194D01*
X11553038Y34955081D01*
X11553366Y34951841D01*
X11557713Y34940072D01*
X11561453Y34928059D01*
X11562938Y34925919D01*
X11564300Y34922234D01*
X11582300Y34896313D01*
X11585278Y34893750D01*
X11586766Y34891606D01*
X11695822Y34782553D01*
X11776597Y34587544D01*
X11776597Y34376453D01*
X11695819Y34181438D01*
X11546559Y34032178D01*
X11351544Y33951400D01*
X11140453Y33951400D01*
G37*
%LPD*%
%LPC*%
G36*
X19265453Y33951400D02*
X19265453Y33951400D01*
X19070438Y34032178D01*
X18921178Y34181438D01*
X18840400Y34376453D01*
X18840400Y34587544D01*
X18921175Y34782553D01*
X19030231Y34891606D01*
X19037931Y34901553D01*
X19046119Y34911063D01*
X19047559Y34913984D01*
X19049553Y34916563D01*
X19054509Y34928106D01*
X19060059Y34939375D01*
X19060722Y34942566D01*
X19062006Y34945559D01*
X19063916Y34957981D01*
X19066466Y34970278D01*
X19066306Y34973528D01*
X19066803Y34976753D01*
X19065541Y34989259D01*
X19064928Y35001800D01*
X19063959Y35004913D01*
X19063631Y35008153D01*
X19059284Y35019925D01*
X19055544Y35031931D01*
X19054059Y35034072D01*
X19052697Y35037756D01*
X19034700Y35063681D01*
X19031709Y35066256D01*
X19030231Y35068384D01*
X18921178Y35177438D01*
X18840400Y35372453D01*
X18840400Y35583544D01*
X18921178Y35778559D01*
X19070438Y35927819D01*
X19265453Y36008597D01*
X19476544Y36008597D01*
X19671559Y35927819D01*
X19820819Y35778559D01*
X19901597Y35583544D01*
X19901597Y35372453D01*
X19820819Y35177438D01*
X19711766Y35068384D01*
X19704091Y35058472D01*
X19695878Y35048931D01*
X19694438Y35046006D01*
X19692444Y35043431D01*
X19687491Y35031897D01*
X19681938Y35020619D01*
X19681275Y35017422D01*
X19679991Y35014431D01*
X19678081Y35002019D01*
X19675531Y34989716D01*
X19675691Y34986466D01*
X19675194Y34983241D01*
X19676456Y34970734D01*
X19677069Y34958194D01*
X19678038Y34955081D01*
X19678366Y34951841D01*
X19682713Y34940072D01*
X19686453Y34928059D01*
X19687938Y34925919D01*
X19689300Y34922234D01*
X19707300Y34896313D01*
X19710278Y34893750D01*
X19711766Y34891606D01*
X19820822Y34782553D01*
X19901597Y34587544D01*
X19901597Y34376453D01*
X19820819Y34181438D01*
X19671559Y34032178D01*
X19476544Y33951400D01*
X19265453Y33951400D01*
G37*
%LPD*%
%LPC*%
G36*
X13640453Y33951400D02*
X13640453Y33951400D01*
X13445438Y34032178D01*
X13296178Y34181438D01*
X13215400Y34376453D01*
X13215400Y34587544D01*
X13296175Y34782553D01*
X13405231Y34891606D01*
X13412931Y34901553D01*
X13421119Y34911063D01*
X13422559Y34913984D01*
X13424553Y34916563D01*
X13429509Y34928106D01*
X13435059Y34939375D01*
X13435722Y34942566D01*
X13437006Y34945559D01*
X13438916Y34957981D01*
X13441466Y34970278D01*
X13441306Y34973528D01*
X13441803Y34976753D01*
X13440541Y34989259D01*
X13439928Y35001800D01*
X13438959Y35004913D01*
X13438631Y35008153D01*
X13434284Y35019925D01*
X13430544Y35031931D01*
X13429059Y35034072D01*
X13427697Y35037756D01*
X13409700Y35063681D01*
X13406709Y35066256D01*
X13405231Y35068384D01*
X13296178Y35177438D01*
X13215400Y35372453D01*
X13215400Y35583544D01*
X13296178Y35778559D01*
X13445438Y35927819D01*
X13640453Y36008597D01*
X13851544Y36008597D01*
X14046559Y35927819D01*
X14195819Y35778559D01*
X14276597Y35583544D01*
X14276597Y35372453D01*
X14195819Y35177438D01*
X14086766Y35068384D01*
X14079091Y35058472D01*
X14070878Y35048931D01*
X14069438Y35046006D01*
X14067444Y35043431D01*
X14062491Y35031897D01*
X14056938Y35020619D01*
X14056275Y35017422D01*
X14054991Y35014431D01*
X14053081Y35002019D01*
X14050531Y34989716D01*
X14050691Y34986466D01*
X14050194Y34983241D01*
X14051456Y34970734D01*
X14052069Y34958194D01*
X14053038Y34955081D01*
X14053366Y34951841D01*
X14057713Y34940072D01*
X14061453Y34928059D01*
X14062938Y34925919D01*
X14064300Y34922234D01*
X14082300Y34896313D01*
X14085278Y34893750D01*
X14086766Y34891606D01*
X14195822Y34782553D01*
X14276597Y34587544D01*
X14276597Y34376453D01*
X14195819Y34181438D01*
X14046559Y34032178D01*
X13851544Y33951400D01*
X13640453Y33951400D01*
G37*
%LPD*%
%LPC*%
G36*
X8004994Y21124994D02*
X8004994Y21124994D01*
X8004994Y21890997D01*
X8596953Y21890997D01*
X8754925Y21865978D01*
X8907016Y21816559D01*
X9049478Y21743972D01*
X9178891Y21649947D01*
X9291947Y21536891D01*
X9385972Y21407478D01*
X9458559Y21265016D01*
X9504056Y21124994D01*
X8004994Y21124994D01*
G37*
%LPD*%
%LPC*%
G36*
X6005941Y21124994D02*
X6005941Y21124994D01*
X6051438Y21265016D01*
X6124025Y21407478D01*
X6218050Y21536891D01*
X6331106Y21649947D01*
X6460519Y21743972D01*
X6602981Y21816559D01*
X6755072Y21865978D01*
X6913044Y21890997D01*
X7505000Y21890997D01*
X7505000Y21124994D01*
X6005941Y21124994D01*
G37*
%LPD*%
%LPC*%
G36*
X8004994Y19859000D02*
X8004994Y19859000D01*
X8004994Y20625000D01*
X9504056Y20625000D01*
X9458559Y20484981D01*
X9385972Y20342519D01*
X9291947Y20213106D01*
X9178891Y20100050D01*
X9049478Y20006025D01*
X8907016Y19933438D01*
X8754925Y19884019D01*
X8596953Y19859000D01*
X8004994Y19859000D01*
G37*
%LPD*%
%LPC*%
G36*
X6913047Y19859000D02*
X6913047Y19859000D01*
X6755072Y19884019D01*
X6602981Y19933438D01*
X6460519Y20006025D01*
X6331106Y20100050D01*
X6218050Y20213106D01*
X6124025Y20342519D01*
X6051438Y20484981D01*
X6005941Y20625000D01*
X7505000Y20625000D01*
X7505000Y19858997D01*
X6913047Y19859000D01*
G37*
%LPD*%
%LPC*%
G36*
X17394453Y6219400D02*
X17394453Y6219400D01*
X17199438Y6300178D01*
X17050178Y6449438D01*
X16969400Y6644453D01*
X16969400Y6855544D01*
X17050178Y7050559D01*
X17199438Y7199819D01*
X17394453Y7280597D01*
X17605544Y7280597D01*
X17800559Y7199819D01*
X17949819Y7050559D01*
X18030597Y6855544D01*
X18030597Y6644453D01*
X17949819Y6449438D01*
X17800559Y6300178D01*
X17605544Y6219400D01*
X17394453Y6219400D01*
G37*
%LPD*%
%LPC*%
G36*
X4499994Y59249994D02*
X4499994Y59249994D01*
X4499994Y60333497D01*
X4802353Y60333497D01*
X5583497Y59552353D01*
X5583497Y59249994D01*
X4499994Y59249994D01*
G37*
%LPD*%
%LPC*%
G36*
X25749994Y43249994D02*
X25749994Y43249994D01*
X25749994Y44333497D01*
X26052353Y44333497D01*
X26833497Y43552353D01*
X26833497Y43249994D01*
X25749994Y43249994D01*
G37*
%LPD*%
%LPC*%
G36*
X4499994Y10249994D02*
X4499994Y10249994D01*
X4499994Y11333497D01*
X4802353Y11333497D01*
X5583497Y10552353D01*
X5583497Y10249994D01*
X4499994Y10249994D01*
G37*
%LPD*%
%LPC*%
G36*
X25749994Y56749994D02*
X25749994Y56749994D01*
X25749994Y57833497D01*
X26052353Y57833497D01*
X26833497Y57052353D01*
X26833497Y56749994D01*
X25749994Y56749994D01*
G37*
%LPD*%
%LPC*%
G36*
X2916500Y59249994D02*
X2916500Y59249994D01*
X2916500Y59552353D01*
X3697644Y60333497D01*
X4000000Y60333497D01*
X4000000Y59249994D01*
X2916500Y59249994D01*
G37*
%LPD*%
%LPC*%
G36*
X24166500Y56749994D02*
X24166500Y56749994D01*
X24166500Y57052353D01*
X24947644Y57833497D01*
X25250000Y57833497D01*
X25250000Y56749994D01*
X24166500Y56749994D01*
G37*
%LPD*%
%LPC*%
G36*
X24166500Y43249994D02*
X24166500Y43249994D01*
X24166500Y43552353D01*
X24947644Y44333497D01*
X25250000Y44333497D01*
X25250000Y43249994D01*
X24166500Y43249994D01*
G37*
%LPD*%
%LPC*%
G36*
X25749994Y41666500D02*
X25749994Y41666500D01*
X25749994Y42750000D01*
X26833497Y42750000D01*
X26833497Y42447644D01*
X26052353Y41666500D01*
X25749994Y41666500D01*
G37*
%LPD*%
%LPC*%
G36*
X2916500Y10249994D02*
X2916500Y10249994D01*
X2916500Y10552353D01*
X3697644Y11333497D01*
X4000000Y11333497D01*
X4000000Y10249994D01*
X2916500Y10249994D01*
G37*
%LPD*%
%LPC*%
G36*
X25749994Y55166500D02*
X25749994Y55166500D01*
X25749994Y56250000D01*
X26833497Y56250000D01*
X26833497Y55947644D01*
X26052353Y55166500D01*
X25749994Y55166500D01*
G37*
%LPD*%
%LPC*%
G36*
X4499994Y57666500D02*
X4499994Y57666500D01*
X4499994Y58750000D01*
X5583494Y58750000D01*
X5583497Y58447644D01*
X4802353Y57666500D01*
X4499994Y57666500D01*
G37*
%LPD*%
%LPC*%
G36*
X4499994Y8666500D02*
X4499994Y8666500D01*
X4499994Y9750000D01*
X5583494Y9750000D01*
X5583497Y9447644D01*
X4802353Y8666500D01*
X4499994Y8666500D01*
G37*
%LPD*%
%LPC*%
G36*
X3697644Y57666500D02*
X3697644Y57666500D01*
X2916500Y58447644D01*
X2916500Y58750000D01*
X4000000Y58750000D01*
X4000000Y57666500D01*
X3697644Y57666500D01*
G37*
%LPD*%
%LPC*%
G36*
X24947644Y55166500D02*
X24947644Y55166500D01*
X24166500Y55947644D01*
X24166500Y56250000D01*
X25250000Y56250000D01*
X25250000Y55166500D01*
X24947644Y55166500D01*
G37*
%LPD*%
%LPC*%
G36*
X24947644Y41666500D02*
X24947644Y41666500D01*
X24166500Y42447644D01*
X24166500Y42750000D01*
X25250000Y42750000D01*
X25250000Y41666500D01*
X24947644Y41666500D01*
G37*
%LPD*%
%LPC*%
G36*
X3697644Y8666500D02*
X3697644Y8666500D01*
X2916500Y9447644D01*
X2916500Y9750000D01*
X4000000Y9750000D01*
X4000000Y8666500D01*
X3697644Y8666500D01*
G37*
%LPD*%
%LPC*%
G36*
X4249984Y58999984D02*
X4249984Y58999984D01*
X4249984Y59000013D01*
X4250013Y59000013D01*
X4250013Y58999984D01*
X4249984Y58999984D01*
G37*
%LPD*%
%LPC*%
G36*
X7754984Y20874984D02*
X7754984Y20874984D01*
X7754984Y20875013D01*
X7755013Y20875013D01*
X7755013Y20874984D01*
X7754984Y20874984D01*
G37*
%LPD*%
%LPC*%
G36*
X25499984Y42999984D02*
X25499984Y42999984D01*
X25499984Y43000013D01*
X25500013Y43000013D01*
X25500013Y42999984D01*
X25499984Y42999984D01*
G37*
%LPD*%
%LPC*%
G36*
X4249984Y9999984D02*
X4249984Y9999984D01*
X4249984Y10000013D01*
X4250013Y10000013D01*
X4250013Y9999984D01*
X4249984Y9999984D01*
G37*
%LPD*%
%LPC*%
G36*
X25499984Y56499984D02*
X25499984Y56499984D01*
X25499984Y56500013D01*
X25500013Y56500013D01*
X25500013Y56499984D01*
X25499984Y56499984D01*
G37*
%LPD*%
D10*
X12948678Y-5112063D02*
X12948678Y-4958094D01*
X13461900Y-4958094D01*
X13461900Y-5266028D01*
X13461901Y-5266028D02*
X13461841Y-5270989D01*
X13461661Y-5275946D01*
X13461362Y-5280898D01*
X13460943Y-5285841D01*
X13460404Y-5290773D01*
X13459747Y-5295690D01*
X13458971Y-5300590D01*
X13458077Y-5305469D01*
X13457065Y-5310326D01*
X13455936Y-5315157D01*
X13454690Y-5319959D01*
X13453329Y-5324729D01*
X13451853Y-5329465D01*
X13450264Y-5334165D01*
X13448561Y-5338824D01*
X13446746Y-5343441D01*
X13444819Y-5348013D01*
X13442783Y-5352537D01*
X13440639Y-5357010D01*
X13438386Y-5361430D01*
X13436028Y-5365795D01*
X13433565Y-5370101D01*
X13430999Y-5374346D01*
X13428330Y-5378528D01*
X13425562Y-5382645D01*
X13422694Y-5386693D01*
X13419730Y-5390671D01*
X13416671Y-5394576D01*
X13413518Y-5398406D01*
X13410273Y-5402159D01*
X13406939Y-5405832D01*
X13403517Y-5409424D01*
X13400009Y-5412932D01*
X13396417Y-5416354D01*
X13392744Y-5419688D01*
X13388991Y-5422933D01*
X13385161Y-5426086D01*
X13381256Y-5429145D01*
X13377278Y-5432109D01*
X13373230Y-5434977D01*
X13369113Y-5437745D01*
X13364931Y-5440414D01*
X13360686Y-5442980D01*
X13356380Y-5445443D01*
X13352015Y-5447801D01*
X13347595Y-5450054D01*
X13343122Y-5452198D01*
X13338598Y-5454234D01*
X13334026Y-5456161D01*
X13329409Y-5457976D01*
X13324750Y-5459679D01*
X13320050Y-5461268D01*
X13315314Y-5462744D01*
X13310544Y-5464105D01*
X13305742Y-5465351D01*
X13300911Y-5466480D01*
X13296054Y-5467492D01*
X13291175Y-5468386D01*
X13286275Y-5469162D01*
X13281358Y-5469819D01*
X13276426Y-5470358D01*
X13271483Y-5470777D01*
X13266531Y-5471076D01*
X13261574Y-5471256D01*
X13256613Y-5471316D01*
X12743391Y-5471316D01*
X12738353Y-5471254D01*
X12733318Y-5471069D01*
X12728289Y-5470760D01*
X12723269Y-5470327D01*
X12718261Y-5469772D01*
X12713269Y-5469094D01*
X12708294Y-5468294D01*
X12703341Y-5467371D01*
X12698412Y-5466328D01*
X12693510Y-5465164D01*
X12688638Y-5463880D01*
X12683798Y-5462476D01*
X12678995Y-5460955D01*
X12674231Y-5459316D01*
X12669508Y-5457560D01*
X12664830Y-5455690D01*
X12660199Y-5453704D01*
X12655618Y-5451606D01*
X12651090Y-5449396D01*
X12646618Y-5447076D01*
X12642204Y-5444647D01*
X12637851Y-5442110D01*
X12633561Y-5439467D01*
X12629338Y-5436719D01*
X12625183Y-5433869D01*
X12621100Y-5430917D01*
X12617090Y-5427866D01*
X12613156Y-5424718D01*
X12609301Y-5421474D01*
X12605526Y-5418137D01*
X12601835Y-5414708D01*
X12598228Y-5411189D01*
X12594710Y-5407583D01*
X12591280Y-5403891D01*
X12587943Y-5400117D01*
X12584699Y-5396262D01*
X12581550Y-5392328D01*
X12578500Y-5388318D01*
X12575548Y-5384235D01*
X12572697Y-5380080D01*
X12569950Y-5375857D01*
X12567307Y-5371568D01*
X12564769Y-5367215D01*
X12562340Y-5362801D01*
X12560019Y-5358328D01*
X12557809Y-5353801D01*
X12555711Y-5349220D01*
X12553726Y-5344589D01*
X12551855Y-5339911D01*
X12550099Y-5335188D01*
X12548460Y-5330424D01*
X12546938Y-5325621D01*
X12545535Y-5320782D01*
X12544251Y-5315909D01*
X12543086Y-5311007D01*
X12542043Y-5306078D01*
X12541120Y-5301125D01*
X12540320Y-5296150D01*
X12539642Y-5291158D01*
X12539086Y-5286150D01*
X12538654Y-5281130D01*
X12538345Y-5276101D01*
X12538159Y-5271066D01*
X12538097Y-5266028D01*
X12538100Y-5266028D02*
X12538100Y-4958094D01*
X12538100Y-4511319D02*
X13461900Y-4511319D01*
X13461900Y-3998097D02*
X12538100Y-4511319D01*
X12538100Y-3998097D02*
X13461900Y-3998097D01*
X13461900Y-3551322D02*
X12538100Y-3551322D01*
X12538100Y-3294713D01*
X12538175Y-3288512D01*
X12538400Y-3282315D01*
X12538774Y-3276125D01*
X12539298Y-3269946D01*
X12539971Y-3263782D01*
X12540793Y-3257635D01*
X12541763Y-3251510D01*
X12542881Y-3245411D01*
X12544146Y-3239340D01*
X12545557Y-3233301D01*
X12547113Y-3227299D01*
X12548815Y-3221336D01*
X12550660Y-3215415D01*
X12552647Y-3209541D01*
X12554776Y-3203717D01*
X12557045Y-3197946D01*
X12559452Y-3192231D01*
X12561997Y-3186576D01*
X12564678Y-3180984D01*
X12567493Y-3175459D01*
X12570441Y-3170003D01*
X12573520Y-3164621D01*
X12576728Y-3159314D01*
X12580064Y-3154086D01*
X12583525Y-3148940D01*
X12587109Y-3143880D01*
X12590814Y-3138907D01*
X12594638Y-3134026D01*
X12598580Y-3129238D01*
X12602635Y-3124547D01*
X12606803Y-3119955D01*
X12611081Y-3115466D01*
X12615466Y-3111081D01*
X12619955Y-3106803D01*
X12624547Y-3102635D01*
X12629238Y-3098580D01*
X12634026Y-3094638D01*
X12638907Y-3090814D01*
X12643880Y-3087109D01*
X12648940Y-3083525D01*
X12654086Y-3080064D01*
X12659314Y-3076728D01*
X12664621Y-3073520D01*
X12670003Y-3070441D01*
X12675459Y-3067493D01*
X12680984Y-3064678D01*
X12686576Y-3061997D01*
X12692231Y-3059452D01*
X12697946Y-3057045D01*
X12703717Y-3054776D01*
X12709541Y-3052647D01*
X12715415Y-3050660D01*
X12721336Y-3048815D01*
X12727299Y-3047113D01*
X12733301Y-3045557D01*
X12739340Y-3044146D01*
X12745411Y-3042881D01*
X12751510Y-3041763D01*
X12757635Y-3040793D01*
X12763782Y-3039971D01*
X12769946Y-3039298D01*
X12776125Y-3038774D01*
X12782315Y-3038400D01*
X12788512Y-3038175D01*
X12794713Y-3038100D01*
X13205291Y-3038100D01*
X13211492Y-3038175D01*
X13217689Y-3038400D01*
X13223879Y-3038774D01*
X13230058Y-3039298D01*
X13236222Y-3039971D01*
X13242368Y-3040793D01*
X13248493Y-3041763D01*
X13254593Y-3042881D01*
X13260664Y-3044146D01*
X13266702Y-3045557D01*
X13272705Y-3047113D01*
X13278668Y-3048815D01*
X13284588Y-3050660D01*
X13290462Y-3052647D01*
X13296286Y-3054776D01*
X13302058Y-3057045D01*
X13307772Y-3059452D01*
X13313427Y-3061997D01*
X13319019Y-3064678D01*
X13324544Y-3067493D01*
X13330000Y-3070441D01*
X13335382Y-3073520D01*
X13340689Y-3076728D01*
X13345917Y-3080064D01*
X13351063Y-3083525D01*
X13356123Y-3087109D01*
X13361095Y-3090814D01*
X13365977Y-3094638D01*
X13370764Y-3098580D01*
X13375455Y-3102635D01*
X13380047Y-3106803D01*
X13384536Y-3111081D01*
X13388921Y-3115466D01*
X13393199Y-3119955D01*
X13397367Y-3124547D01*
X13401422Y-3129238D01*
X13405364Y-3134026D01*
X13409188Y-3138907D01*
X13412893Y-3143880D01*
X13416477Y-3148940D01*
X13419938Y-3154086D01*
X13423273Y-3159313D01*
X13426481Y-3164620D01*
X13429560Y-3170003D01*
X13432508Y-3175459D01*
X13435323Y-3180984D01*
X13438004Y-3186576D01*
X13440549Y-3192231D01*
X13442957Y-3197945D01*
X13445225Y-3203716D01*
X13447354Y-3209541D01*
X13449341Y-3215415D01*
X13451186Y-3221335D01*
X13452887Y-3227298D01*
X13454444Y-3233301D01*
X13455855Y-3239339D01*
X13457120Y-3245410D01*
X13458238Y-3251510D01*
X13459208Y-3257635D01*
X13460029Y-3263781D01*
X13460702Y-3269946D01*
X13461226Y-3276125D01*
X13461600Y-3282314D01*
X13461825Y-3288511D01*
X13461900Y-3294712D01*
X13461900Y-3294713D02*
X13461900Y-3551322D01*
X33397353Y26051322D02*
X33551322Y26051322D01*
X33551322Y25538100D01*
X33243388Y25538100D01*
X33238427Y25538160D01*
X33233470Y25538340D01*
X33228518Y25538639D01*
X33223575Y25539058D01*
X33218643Y25539597D01*
X33213726Y25540254D01*
X33208826Y25541030D01*
X33203947Y25541924D01*
X33199090Y25542936D01*
X33194259Y25544065D01*
X33189457Y25545311D01*
X33184687Y25546672D01*
X33179951Y25548148D01*
X33175251Y25549737D01*
X33170592Y25551440D01*
X33165975Y25553255D01*
X33161403Y25555182D01*
X33156879Y25557218D01*
X33152406Y25559362D01*
X33147986Y25561615D01*
X33143621Y25563973D01*
X33139315Y25566436D01*
X33135070Y25569002D01*
X33130888Y25571671D01*
X33126771Y25574439D01*
X33122723Y25577307D01*
X33118745Y25580271D01*
X33114840Y25583330D01*
X33111010Y25586483D01*
X33107257Y25589728D01*
X33103584Y25593062D01*
X33099992Y25596484D01*
X33096484Y25599992D01*
X33093062Y25603584D01*
X33089728Y25607257D01*
X33086483Y25611010D01*
X33083330Y25614840D01*
X33080271Y25618745D01*
X33077307Y25622723D01*
X33074439Y25626771D01*
X33071671Y25630888D01*
X33069002Y25635070D01*
X33066436Y25639315D01*
X33063973Y25643621D01*
X33061615Y25647986D01*
X33059362Y25652406D01*
X33057218Y25656879D01*
X33055182Y25661403D01*
X33053255Y25665975D01*
X33051440Y25670592D01*
X33049737Y25675251D01*
X33048148Y25679951D01*
X33046672Y25684687D01*
X33045311Y25689457D01*
X33044065Y25694259D01*
X33042936Y25699090D01*
X33041924Y25703947D01*
X33041030Y25708826D01*
X33040254Y25713726D01*
X33039597Y25718643D01*
X33039058Y25723575D01*
X33038639Y25728518D01*
X33038340Y25733470D01*
X33038160Y25738427D01*
X33038100Y25743388D01*
X33038100Y26256609D01*
X33038162Y26261647D01*
X33038347Y26266682D01*
X33038656Y26271711D01*
X33039089Y26276731D01*
X33039644Y26281739D01*
X33040322Y26286731D01*
X33041122Y26291706D01*
X33042045Y26296659D01*
X33043088Y26301588D01*
X33044252Y26306490D01*
X33045536Y26311362D01*
X33046940Y26316201D01*
X33048461Y26321004D01*
X33050100Y26325769D01*
X33051856Y26330492D01*
X33053727Y26335170D01*
X33055712Y26339801D01*
X33057810Y26344381D01*
X33060020Y26348909D01*
X33062340Y26353382D01*
X33064769Y26357796D01*
X33067306Y26362149D01*
X33069950Y26366438D01*
X33072697Y26370662D01*
X33075547Y26374816D01*
X33078499Y26378900D01*
X33081550Y26382909D01*
X33084698Y26386843D01*
X33087942Y26390698D01*
X33091279Y26394473D01*
X33094709Y26398164D01*
X33098227Y26401771D01*
X33101833Y26405289D01*
X33105525Y26408718D01*
X33109299Y26412056D01*
X33113154Y26415300D01*
X33117088Y26418448D01*
X33121098Y26421499D01*
X33125181Y26424451D01*
X33129336Y26427301D01*
X33133559Y26430049D01*
X33137849Y26432692D01*
X33142202Y26435229D01*
X33146616Y26437658D01*
X33151088Y26439979D01*
X33155616Y26442189D01*
X33160197Y26444287D01*
X33164827Y26446272D01*
X33169506Y26448143D01*
X33174228Y26449899D01*
X33178993Y26451538D01*
X33183796Y26453060D01*
X33188635Y26454463D01*
X33193507Y26455747D01*
X33198409Y26456911D01*
X33203338Y26457955D01*
X33208291Y26458877D01*
X33213266Y26459678D01*
X33218258Y26460356D01*
X33223266Y26460911D01*
X33228286Y26461344D01*
X33233315Y26461653D01*
X33238350Y26461838D01*
X33243388Y26461900D01*
X33551322Y26461900D01*
X33998097Y26461900D02*
X33998097Y25538100D01*
X34511319Y25538100D02*
X33998097Y26461900D01*
X34511319Y26461900D02*
X34511319Y25538100D01*
X34958094Y25538100D02*
X34958094Y26461900D01*
X35214703Y26461900D01*
X35214703Y26461901D02*
X35220904Y26461826D01*
X35227101Y26461601D01*
X35233291Y26461227D01*
X35239470Y26460703D01*
X35245634Y26460030D01*
X35251781Y26459208D01*
X35257906Y26458238D01*
X35264005Y26457120D01*
X35270076Y26455855D01*
X35276115Y26454444D01*
X35282117Y26452888D01*
X35288080Y26451186D01*
X35294001Y26449341D01*
X35299875Y26447354D01*
X35305699Y26445225D01*
X35311470Y26442956D01*
X35317185Y26440549D01*
X35322840Y26438004D01*
X35328432Y26435323D01*
X35333957Y26432508D01*
X35339413Y26429560D01*
X35344795Y26426481D01*
X35350102Y26423273D01*
X35355330Y26419937D01*
X35360476Y26416476D01*
X35365536Y26412892D01*
X35370509Y26409187D01*
X35375390Y26405363D01*
X35380178Y26401421D01*
X35384869Y26397366D01*
X35389461Y26393198D01*
X35393950Y26388920D01*
X35398335Y26384535D01*
X35402613Y26380046D01*
X35406781Y26375454D01*
X35410836Y26370763D01*
X35414778Y26365975D01*
X35418602Y26361094D01*
X35422307Y26356121D01*
X35425891Y26351061D01*
X35429352Y26345915D01*
X35432688Y26340687D01*
X35435896Y26335380D01*
X35438975Y26329998D01*
X35441923Y26324542D01*
X35444738Y26319017D01*
X35447419Y26313425D01*
X35449964Y26307770D01*
X35452371Y26302055D01*
X35454640Y26296284D01*
X35456769Y26290460D01*
X35458756Y26284586D01*
X35460601Y26278665D01*
X35462303Y26272702D01*
X35463859Y26266700D01*
X35465270Y26260661D01*
X35466535Y26254590D01*
X35467653Y26248491D01*
X35468623Y26242366D01*
X35469445Y26236219D01*
X35470118Y26230055D01*
X35470642Y26223876D01*
X35471016Y26217686D01*
X35471241Y26211489D01*
X35471316Y26205288D01*
X35471316Y25794709D01*
X35471315Y25794709D02*
X35471240Y25788508D01*
X35471015Y25782311D01*
X35470641Y25776121D01*
X35470117Y25769942D01*
X35469444Y25763778D01*
X35468622Y25757632D01*
X35467652Y25751507D01*
X35466534Y25745407D01*
X35465269Y25739336D01*
X35463858Y25733298D01*
X35462302Y25727295D01*
X35460600Y25721332D01*
X35458755Y25715412D01*
X35456768Y25709538D01*
X35454639Y25703714D01*
X35452370Y25697942D01*
X35449963Y25692228D01*
X35447418Y25686573D01*
X35444737Y25680981D01*
X35441922Y25675456D01*
X35438974Y25670000D01*
X35435895Y25664618D01*
X35432687Y25659311D01*
X35429351Y25654083D01*
X35425890Y25648937D01*
X35422306Y25643877D01*
X35418601Y25638905D01*
X35414777Y25634023D01*
X35410835Y25629236D01*
X35406780Y25624545D01*
X35402612Y25619953D01*
X35398334Y25615464D01*
X35393949Y25611079D01*
X35389460Y25606801D01*
X35384868Y25602633D01*
X35380177Y25598578D01*
X35375389Y25594636D01*
X35370508Y25590812D01*
X35365535Y25587107D01*
X35360475Y25583523D01*
X35355329Y25580062D01*
X35350102Y25576727D01*
X35344795Y25573519D01*
X35339412Y25570440D01*
X35333956Y25567492D01*
X35328431Y25564677D01*
X35322839Y25561996D01*
X35317184Y25559451D01*
X35311470Y25557043D01*
X35305699Y25554775D01*
X35299874Y25552646D01*
X35294000Y25550659D01*
X35288080Y25548814D01*
X35282117Y25547113D01*
X35276114Y25545556D01*
X35270076Y25544145D01*
X35264005Y25542880D01*
X35257905Y25541762D01*
X35251780Y25540792D01*
X35245634Y25539971D01*
X35239469Y25539298D01*
X35233290Y25538774D01*
X35227101Y25538400D01*
X35220904Y25538175D01*
X35214703Y25538100D01*
X34958094Y25538100D01*
X19948678Y73397353D02*
X19948678Y73551322D01*
X20461900Y73551322D01*
X20461900Y73243388D01*
X20461901Y73243388D02*
X20461841Y73238427D01*
X20461661Y73233470D01*
X20461362Y73228518D01*
X20460943Y73223575D01*
X20460404Y73218643D01*
X20459747Y73213726D01*
X20458971Y73208826D01*
X20458077Y73203947D01*
X20457065Y73199090D01*
X20455936Y73194259D01*
X20454690Y73189457D01*
X20453329Y73184687D01*
X20451853Y73179951D01*
X20450264Y73175251D01*
X20448561Y73170592D01*
X20446746Y73165975D01*
X20444819Y73161403D01*
X20442783Y73156879D01*
X20440639Y73152406D01*
X20438386Y73147986D01*
X20436028Y73143621D01*
X20433565Y73139315D01*
X20430999Y73135070D01*
X20428330Y73130888D01*
X20425562Y73126771D01*
X20422694Y73122723D01*
X20419730Y73118745D01*
X20416671Y73114840D01*
X20413518Y73111010D01*
X20410273Y73107257D01*
X20406939Y73103584D01*
X20403517Y73099992D01*
X20400009Y73096484D01*
X20396417Y73093062D01*
X20392744Y73089728D01*
X20388991Y73086483D01*
X20385161Y73083330D01*
X20381256Y73080271D01*
X20377278Y73077307D01*
X20373230Y73074439D01*
X20369113Y73071671D01*
X20364931Y73069002D01*
X20360686Y73066436D01*
X20356380Y73063973D01*
X20352015Y73061615D01*
X20347595Y73059362D01*
X20343122Y73057218D01*
X20338598Y73055182D01*
X20334026Y73053255D01*
X20329409Y73051440D01*
X20324750Y73049737D01*
X20320050Y73048148D01*
X20315314Y73046672D01*
X20310544Y73045311D01*
X20305742Y73044065D01*
X20300911Y73042936D01*
X20296054Y73041924D01*
X20291175Y73041030D01*
X20286275Y73040254D01*
X20281358Y73039597D01*
X20276426Y73039058D01*
X20271483Y73038639D01*
X20266531Y73038340D01*
X20261574Y73038160D01*
X20256613Y73038100D01*
X19743391Y73038100D01*
X19738353Y73038162D01*
X19733318Y73038347D01*
X19728289Y73038656D01*
X19723269Y73039089D01*
X19718261Y73039644D01*
X19713269Y73040322D01*
X19708294Y73041122D01*
X19703341Y73042045D01*
X19698412Y73043088D01*
X19693510Y73044252D01*
X19688638Y73045536D01*
X19683798Y73046940D01*
X19678995Y73048461D01*
X19674231Y73050100D01*
X19669508Y73051856D01*
X19664830Y73053726D01*
X19660199Y73055712D01*
X19655618Y73057810D01*
X19651090Y73060020D01*
X19646618Y73062340D01*
X19642204Y73064769D01*
X19637851Y73067306D01*
X19633561Y73069949D01*
X19629338Y73072697D01*
X19625183Y73075547D01*
X19621100Y73078499D01*
X19617090Y73081550D01*
X19613156Y73084698D01*
X19609301Y73087942D01*
X19605526Y73091279D01*
X19601835Y73094708D01*
X19598228Y73098227D01*
X19594710Y73101833D01*
X19591280Y73105525D01*
X19587943Y73109299D01*
X19584699Y73113154D01*
X19581550Y73117088D01*
X19578500Y73121098D01*
X19575548Y73125181D01*
X19572697Y73129336D01*
X19569950Y73133559D01*
X19567307Y73137848D01*
X19564769Y73142201D01*
X19562340Y73146615D01*
X19560019Y73151088D01*
X19557809Y73155615D01*
X19555711Y73160196D01*
X19553726Y73164827D01*
X19551855Y73169505D01*
X19550099Y73174228D01*
X19548460Y73178992D01*
X19546938Y73183795D01*
X19545535Y73188634D01*
X19544251Y73193507D01*
X19543086Y73198409D01*
X19542043Y73203338D01*
X19541120Y73208291D01*
X19540320Y73213266D01*
X19539642Y73218258D01*
X19539086Y73223266D01*
X19538654Y73228286D01*
X19538345Y73233315D01*
X19538159Y73238350D01*
X19538097Y73243388D01*
X19538100Y73243388D02*
X19538100Y73551322D01*
X19538100Y73998097D02*
X20461900Y73998097D01*
X20461900Y74511319D02*
X19538100Y73998097D01*
X19538100Y74511319D02*
X20461900Y74511319D01*
X20461900Y74958094D02*
X19538100Y74958094D01*
X19538100Y75214703D01*
X19538175Y75220904D01*
X19538400Y75227101D01*
X19538774Y75233291D01*
X19539298Y75239470D01*
X19539971Y75245634D01*
X19540793Y75251781D01*
X19541763Y75257906D01*
X19542881Y75264005D01*
X19544146Y75270076D01*
X19545557Y75276115D01*
X19547113Y75282117D01*
X19548815Y75288080D01*
X19550660Y75294001D01*
X19552647Y75299875D01*
X19554776Y75305699D01*
X19557045Y75311470D01*
X19559452Y75317185D01*
X19561997Y75322840D01*
X19564678Y75328432D01*
X19567493Y75333957D01*
X19570441Y75339413D01*
X19573520Y75344795D01*
X19576728Y75350102D01*
X19580064Y75355330D01*
X19583525Y75360476D01*
X19587109Y75365536D01*
X19590814Y75370509D01*
X19594638Y75375390D01*
X19598580Y75380178D01*
X19602635Y75384869D01*
X19606803Y75389461D01*
X19611081Y75393950D01*
X19615466Y75398335D01*
X19619955Y75402613D01*
X19624547Y75406781D01*
X19629238Y75410836D01*
X19634026Y75414778D01*
X19638907Y75418602D01*
X19643880Y75422307D01*
X19648940Y75425891D01*
X19654086Y75429352D01*
X19659314Y75432688D01*
X19664621Y75435896D01*
X19670003Y75438975D01*
X19675459Y75441923D01*
X19680984Y75444738D01*
X19686576Y75447419D01*
X19692231Y75449964D01*
X19697946Y75452371D01*
X19703717Y75454640D01*
X19709541Y75456769D01*
X19715415Y75458756D01*
X19721336Y75460601D01*
X19727299Y75462303D01*
X19733301Y75463859D01*
X19739340Y75465270D01*
X19745411Y75466535D01*
X19751510Y75467653D01*
X19757635Y75468623D01*
X19763782Y75469445D01*
X19769946Y75470118D01*
X19776125Y75470642D01*
X19782315Y75471016D01*
X19788512Y75471241D01*
X19794713Y75471316D01*
X20205291Y75471316D01*
X20205291Y75471315D02*
X20211492Y75471240D01*
X20217689Y75471015D01*
X20223879Y75470641D01*
X20230058Y75470117D01*
X20236222Y75469444D01*
X20242368Y75468622D01*
X20248493Y75467652D01*
X20254593Y75466534D01*
X20260664Y75465269D01*
X20266702Y75463858D01*
X20272705Y75462302D01*
X20278668Y75460600D01*
X20284588Y75458755D01*
X20290462Y75456768D01*
X20296286Y75454639D01*
X20302058Y75452370D01*
X20307772Y75449963D01*
X20313427Y75447418D01*
X20319019Y75444737D01*
X20324544Y75441922D01*
X20330000Y75438974D01*
X20335382Y75435895D01*
X20340689Y75432687D01*
X20345917Y75429351D01*
X20351063Y75425890D01*
X20356123Y75422306D01*
X20361095Y75418601D01*
X20365977Y75414777D01*
X20370764Y75410835D01*
X20375455Y75406780D01*
X20380047Y75402612D01*
X20384536Y75398334D01*
X20388921Y75393949D01*
X20393199Y75389460D01*
X20397367Y75384868D01*
X20401422Y75380177D01*
X20405364Y75375389D01*
X20409188Y75370508D01*
X20412893Y75365535D01*
X20416477Y75360475D01*
X20419938Y75355329D01*
X20423273Y75350102D01*
X20426481Y75344795D01*
X20429560Y75339412D01*
X20432508Y75333956D01*
X20435323Y75328431D01*
X20438004Y75322839D01*
X20440549Y75317184D01*
X20442957Y75311470D01*
X20445225Y75305699D01*
X20447354Y75299874D01*
X20449341Y75294000D01*
X20451186Y75288080D01*
X20452887Y75282117D01*
X20454444Y75276114D01*
X20455855Y75270076D01*
X20457120Y75264005D01*
X20458238Y75257905D01*
X20459208Y75251780D01*
X20460029Y75245634D01*
X20460702Y75239469D01*
X20461226Y75233290D01*
X20461600Y75227101D01*
X20461825Y75220904D01*
X20461900Y75214703D01*
X20461900Y74958094D01*
X-5958094Y37051322D02*
X-6112063Y37051322D01*
X-5958094Y37051322D02*
X-5958094Y36538100D01*
X-6266028Y36538100D01*
X-6270989Y36538160D01*
X-6275946Y36538340D01*
X-6280898Y36538639D01*
X-6285841Y36539058D01*
X-6290773Y36539597D01*
X-6295690Y36540254D01*
X-6300590Y36541030D01*
X-6305469Y36541924D01*
X-6310326Y36542936D01*
X-6315157Y36544065D01*
X-6319959Y36545311D01*
X-6324729Y36546672D01*
X-6329465Y36548148D01*
X-6334165Y36549737D01*
X-6338824Y36551440D01*
X-6343441Y36553255D01*
X-6348013Y36555182D01*
X-6352537Y36557218D01*
X-6357010Y36559362D01*
X-6361430Y36561615D01*
X-6365795Y36563973D01*
X-6370101Y36566436D01*
X-6374346Y36569002D01*
X-6378528Y36571671D01*
X-6382645Y36574439D01*
X-6386693Y36577307D01*
X-6390671Y36580271D01*
X-6394576Y36583330D01*
X-6398406Y36586483D01*
X-6402159Y36589728D01*
X-6405832Y36593062D01*
X-6409424Y36596484D01*
X-6412932Y36599992D01*
X-6416354Y36603584D01*
X-6419688Y36607257D01*
X-6422933Y36611010D01*
X-6426086Y36614840D01*
X-6429145Y36618745D01*
X-6432109Y36622723D01*
X-6434977Y36626771D01*
X-6437745Y36630888D01*
X-6440414Y36635070D01*
X-6442980Y36639315D01*
X-6445443Y36643621D01*
X-6447801Y36647986D01*
X-6450054Y36652406D01*
X-6452198Y36656879D01*
X-6454234Y36661403D01*
X-6456161Y36665975D01*
X-6457976Y36670592D01*
X-6459679Y36675251D01*
X-6461268Y36679951D01*
X-6462744Y36684687D01*
X-6464105Y36689457D01*
X-6465351Y36694259D01*
X-6466480Y36699090D01*
X-6467492Y36703947D01*
X-6468386Y36708826D01*
X-6469162Y36713726D01*
X-6469819Y36718643D01*
X-6470358Y36723575D01*
X-6470777Y36728518D01*
X-6471076Y36733470D01*
X-6471256Y36738427D01*
X-6471316Y36743388D01*
X-6471316Y37256609D01*
X-6471256Y37261570D01*
X-6471076Y37266527D01*
X-6470777Y37271479D01*
X-6470358Y37276422D01*
X-6469819Y37281354D01*
X-6469162Y37286271D01*
X-6468386Y37291171D01*
X-6467492Y37296050D01*
X-6466480Y37300907D01*
X-6465351Y37305738D01*
X-6464105Y37310540D01*
X-6462744Y37315310D01*
X-6461268Y37320046D01*
X-6459679Y37324746D01*
X-6457976Y37329405D01*
X-6456161Y37334022D01*
X-6454234Y37338594D01*
X-6452198Y37343118D01*
X-6450054Y37347591D01*
X-6447801Y37352011D01*
X-6445443Y37356376D01*
X-6442980Y37360682D01*
X-6440414Y37364927D01*
X-6437745Y37369109D01*
X-6434977Y37373226D01*
X-6432109Y37377274D01*
X-6429145Y37381252D01*
X-6426086Y37385157D01*
X-6422933Y37388987D01*
X-6419688Y37392740D01*
X-6416354Y37396413D01*
X-6412932Y37400005D01*
X-6409424Y37403513D01*
X-6405832Y37406935D01*
X-6402159Y37410269D01*
X-6398406Y37413514D01*
X-6394576Y37416667D01*
X-6390671Y37419726D01*
X-6386693Y37422690D01*
X-6382645Y37425558D01*
X-6378528Y37428326D01*
X-6374346Y37430995D01*
X-6370101Y37433561D01*
X-6365795Y37436024D01*
X-6361430Y37438382D01*
X-6357010Y37440635D01*
X-6352537Y37442779D01*
X-6348013Y37444815D01*
X-6343441Y37446742D01*
X-6338824Y37448557D01*
X-6334165Y37450260D01*
X-6329465Y37451849D01*
X-6324729Y37453325D01*
X-6319959Y37454686D01*
X-6315157Y37455932D01*
X-6310326Y37457061D01*
X-6305469Y37458073D01*
X-6300590Y37458967D01*
X-6295690Y37459743D01*
X-6290773Y37460400D01*
X-6285841Y37460939D01*
X-6280898Y37461358D01*
X-6275946Y37461657D01*
X-6270989Y37461837D01*
X-6266028Y37461897D01*
X-6266028Y37461900D02*
X-5958094Y37461900D01*
X-5511319Y37461900D02*
X-5511319Y36538100D01*
X-4998097Y36538100D02*
X-5511319Y37461900D01*
X-4998097Y37461900D02*
X-4998097Y36538100D01*
X-4551322Y36538100D02*
X-4551322Y37461900D01*
X-4294713Y37461900D01*
X-4294713Y37461901D02*
X-4288512Y37461826D01*
X-4282315Y37461601D01*
X-4276125Y37461227D01*
X-4269946Y37460703D01*
X-4263782Y37460030D01*
X-4257635Y37459208D01*
X-4251510Y37458238D01*
X-4245411Y37457120D01*
X-4239340Y37455855D01*
X-4233301Y37454444D01*
X-4227299Y37452888D01*
X-4221336Y37451186D01*
X-4215415Y37449341D01*
X-4209541Y37447354D01*
X-4203717Y37445225D01*
X-4197946Y37442956D01*
X-4192231Y37440549D01*
X-4186576Y37438004D01*
X-4180984Y37435323D01*
X-4175459Y37432508D01*
X-4170003Y37429560D01*
X-4164621Y37426481D01*
X-4159314Y37423273D01*
X-4154086Y37419937D01*
X-4148940Y37416476D01*
X-4143880Y37412892D01*
X-4138907Y37409187D01*
X-4134026Y37405363D01*
X-4129238Y37401421D01*
X-4124547Y37397366D01*
X-4119955Y37393198D01*
X-4115466Y37388920D01*
X-4111081Y37384535D01*
X-4106803Y37380046D01*
X-4102635Y37375454D01*
X-4098580Y37370763D01*
X-4094638Y37365975D01*
X-4090814Y37361094D01*
X-4087109Y37356121D01*
X-4083525Y37351061D01*
X-4080064Y37345915D01*
X-4076728Y37340687D01*
X-4073520Y37335380D01*
X-4070441Y37329998D01*
X-4067493Y37324542D01*
X-4064678Y37319017D01*
X-4061997Y37313425D01*
X-4059452Y37307770D01*
X-4057045Y37302055D01*
X-4054776Y37296284D01*
X-4052647Y37290460D01*
X-4050660Y37284586D01*
X-4048815Y37278665D01*
X-4047113Y37272702D01*
X-4045557Y37266700D01*
X-4044146Y37260661D01*
X-4042881Y37254590D01*
X-4041763Y37248491D01*
X-4040793Y37242366D01*
X-4039971Y37236219D01*
X-4039298Y37230055D01*
X-4038774Y37223876D01*
X-4038400Y37217686D01*
X-4038175Y37211489D01*
X-4038100Y37205288D01*
X-4038100Y36794709D01*
X-4038175Y36788508D01*
X-4038400Y36782311D01*
X-4038774Y36776121D01*
X-4039298Y36769942D01*
X-4039971Y36763778D01*
X-4040793Y36757631D01*
X-4041763Y36751506D01*
X-4042881Y36745407D01*
X-4044146Y36739336D01*
X-4045557Y36733297D01*
X-4047113Y36727295D01*
X-4048815Y36721332D01*
X-4050660Y36715411D01*
X-4052647Y36709537D01*
X-4054776Y36703713D01*
X-4057045Y36697942D01*
X-4059452Y36692227D01*
X-4061997Y36686572D01*
X-4064678Y36680980D01*
X-4067493Y36675455D01*
X-4070441Y36669999D01*
X-4073520Y36664617D01*
X-4076728Y36659310D01*
X-4080064Y36654082D01*
X-4083525Y36648936D01*
X-4087109Y36643876D01*
X-4090814Y36638903D01*
X-4094638Y36634022D01*
X-4098580Y36629234D01*
X-4102635Y36624543D01*
X-4106803Y36619951D01*
X-4111081Y36615462D01*
X-4115466Y36611077D01*
X-4119955Y36606799D01*
X-4124547Y36602631D01*
X-4129238Y36598576D01*
X-4134026Y36594634D01*
X-4138907Y36590810D01*
X-4143880Y36587105D01*
X-4148940Y36583521D01*
X-4154086Y36580060D01*
X-4159314Y36576724D01*
X-4164621Y36573516D01*
X-4170003Y36570437D01*
X-4175459Y36567489D01*
X-4180984Y36564674D01*
X-4186576Y36561993D01*
X-4192231Y36559448D01*
X-4197946Y36557041D01*
X-4203717Y36554772D01*
X-4209541Y36552643D01*
X-4215415Y36550656D01*
X-4221336Y36548811D01*
X-4227299Y36547109D01*
X-4233301Y36545553D01*
X-4239340Y36544142D01*
X-4245411Y36542877D01*
X-4251510Y36541759D01*
X-4257635Y36540789D01*
X-4263782Y36539967D01*
X-4269946Y36539294D01*
X-4276125Y36538770D01*
X-4282315Y36538396D01*
X-4288512Y36538171D01*
X-4294713Y36538096D01*
X-4294713Y36538100D02*
X-4551322Y36538100D01*
D11*
X6993000Y53711000D02*
X8517000Y53711000D01*
X8517000Y56251000D02*
X6993000Y56251000D01*
X6993000Y12755000D02*
X8517000Y12755000D01*
X8517000Y15295000D02*
X6993000Y15295000D01*
X6993000Y18335000D02*
X8517000Y18335000D01*
X8517000Y20875000D02*
X6993000Y20875000D01*
D12*
X25500000Y56500000D03*
X25500000Y48250000D03*
D13*
X25500000Y51250000D03*
D14*
X17486778Y64986775D02*
X17897353Y66423800D01*
X17486778Y64986775D02*
X18513222Y64986775D01*
X18205288Y64576200D02*
X18205288Y65397353D01*
D11*
X8517000Y46723000D02*
X6993000Y46723000D01*
X6993000Y49263000D02*
X8517000Y49263000D01*
D13*
X25500000Y43000000D03*
D11*
X8512000Y39230000D02*
X6988000Y39230000D01*
X6988000Y41770000D02*
X8512000Y41770000D01*
D15*
X19910000Y60980000D03*
X19910000Y8980000D03*
D13*
X7750000Y10000000D03*
X4250000Y10000000D03*
X4250000Y59000000D03*
X7750000Y59000000D03*
D16*
X4000000Y66000000D03*
X26000000Y66000000D03*
X26000000Y4000000D03*
X4000000Y4000000D03*
D17*
X13760000Y59480000D03*
X13760000Y58730000D03*
X11160000Y59490000D03*
X11150000Y58730000D03*
X13760000Y33480000D03*
X13760000Y32480000D03*
X11150000Y32480000D03*
X11150000Y33480000D03*
X13760000Y28480000D03*
X13750000Y27480000D03*
X11120000Y27480000D03*
X11120000Y11225000D03*
X11120000Y10475000D03*
X13755000Y10475000D03*
X13765000Y11225000D03*
X15000000Y1000000D03*
X15000000Y69000000D03*
X1000000Y35000000D03*
X29000000Y35000000D03*
X10000000Y69000000D03*
X5000000Y69000000D03*
X20000000Y69000000D03*
X25000000Y69000000D03*
X29000000Y65000000D03*
X1000000Y55000000D03*
X1000000Y65000000D03*
X1000000Y50000000D03*
X1000000Y45000000D03*
X1000000Y40000000D03*
X29000000Y55000000D03*
X29000000Y50000000D03*
X29000000Y45000000D03*
X29000000Y40000000D03*
X29000000Y30000000D03*
X29000000Y25000000D03*
X29000000Y20000000D03*
X29000000Y15000000D03*
X29000000Y5000000D03*
X1000000Y30000000D03*
X1000000Y25000000D03*
X1000000Y20000000D03*
X1000000Y15000000D03*
X1000000Y5000000D03*
X5000000Y1000000D03*
X10000000Y1000000D03*
X20000000Y1000000D03*
X25000000Y1000000D03*
X21750000Y38000000D03*
X1000000Y60000000D03*
X29000000Y60000000D03*
X29000000Y10000000D03*
X1000000Y10000000D03*
X19385000Y33480000D03*
X19385000Y32480000D03*
X19385000Y28480000D03*
X19385000Y27480000D03*
X19390000Y11225000D03*
X19390000Y10475000D03*
X7000000Y27500000D03*
X7000000Y26500000D03*
X7000000Y25500000D03*
X17500000Y1000000D03*
X13750000Y1000000D03*
X5000000Y15250000D03*
X11120000Y28480000D03*
X13755000Y57225000D03*
X13755000Y56475000D03*
X13755000Y55727500D03*
X11150000Y55737500D03*
X11150000Y56475000D03*
X11150000Y57225000D03*
X19380000Y57225000D03*
X19380000Y56475000D03*
X19380000Y55725000D03*
X13755000Y54227000D03*
X13755000Y53477000D03*
X13755000Y52726500D03*
X11120000Y52726500D03*
X11130000Y53477000D03*
X11130000Y54227000D03*
X19380000Y54227000D03*
X19380000Y53477000D03*
X19380000Y52727000D03*
X12500000Y2500000D03*
X11120000Y26480000D03*
X13750000Y26480000D03*
X19375000Y26480000D03*
X11126000Y19478000D03*
X11126000Y20234000D03*
X11126000Y18732000D03*
X13756000Y18732000D03*
X13756000Y19478000D03*
X13756000Y20234000D03*
X19381000Y20234000D03*
X19381000Y19484000D03*
X19381000Y18734000D03*
X7000000Y34500000D03*
X7000000Y33500000D03*
X7000000Y32500000D03*
X11120000Y15475000D03*
X13755000Y15475000D03*
X13755000Y14477500D03*
X11120000Y14477500D03*
X19380000Y15475000D03*
X19380000Y14475000D03*
X9500000Y29500000D03*
X9500000Y28500000D03*
X11120000Y12475000D03*
X11120000Y13475000D03*
X13765000Y12487500D03*
X13755000Y13475000D03*
X19380000Y13475000D03*
X19380000Y12475000D03*
X9500000Y31500000D03*
X9500000Y30500000D03*
X12500000Y6750000D03*
X11120000Y25480000D03*
X13760000Y25480000D03*
X19385000Y25480000D03*
X13750000Y6750000D03*
X11120000Y24490000D03*
X13760000Y24480000D03*
X19385000Y24480000D03*
X17500000Y6750000D03*
X11120000Y23480000D03*
X13760000Y23480000D03*
X19385000Y23480000D03*
X13746000Y34482000D03*
X11246000Y34482000D03*
X19371000Y34482000D03*
X11130000Y42480000D03*
X11130000Y41730000D03*
X13750000Y41730000D03*
X13750000Y42480000D03*
X11130000Y43230000D03*
X13750000Y43250000D03*
X19250000Y43250000D03*
X19250000Y42480000D03*
X19250000Y41730000D03*
X13746000Y35478000D03*
X11246000Y35478000D03*
X19371000Y35478000D03*
X11126000Y50226000D03*
X11126000Y49480000D03*
X11126000Y48731000D03*
X13756000Y48731000D03*
X13746000Y49480000D03*
X13746000Y50226000D03*
X19371000Y50226000D03*
X19371000Y49476000D03*
X19371000Y48726000D03*
X11136000Y45733000D03*
X11126000Y46479000D03*
X11122000Y47233000D03*
X13726000Y47218000D03*
X13746000Y46479000D03*
X13746000Y45733000D03*
X19351000Y47218000D03*
X19351000Y46468000D03*
X19351000Y45718000D03*
X13770000Y39230000D03*
X13770000Y38480000D03*
X13770000Y37730000D03*
X11120000Y37730000D03*
X11120000Y38480000D03*
X11120000Y39230000D03*
X19395000Y39230000D03*
X19395000Y38480000D03*
X19395000Y37730000D03*
X7000000Y28500000D03*
X7000000Y29500000D03*
X7000000Y30500000D03*
X7000000Y31500000D03*
M02*
