M48
;GenerationSoftware,Autodesk,EAGLE,9.6.2*%
;CreationDate,2026-01-06T12:46:49Z*%
FMAT,2
ICI,OFF
METRIC,TZ,00.0000
T5C0.3500
T4C1.0160
T3C1.3208
T2C1.9300
T1C3.0000
%
G90
M71
T1
X40000Y660000
X260000Y660000
X260000Y40000
X40000Y40000
T2
X199100Y609800
X199100Y89800
T3
X77500Y590000
X255000Y565000
X255000Y482500
X255000Y512500
X255000Y430000
X77500Y100000
X42500Y100000
X42500Y590000
T4
X77550Y537110
X77550Y562510
X77550Y127550
X77550Y152950
X77550Y183350
X77550Y208750
X77550Y467230
X77550Y492630
X77500Y392300
X77500Y417700
T5
X50000Y690000
X200000Y690000
X250000Y690000
X290000Y650000
X10000Y550000
X10000Y650000
X10000Y500000
X10000Y450000
X10000Y400000
X290000Y550000
X290000Y500000
X290000Y450000
X290000Y400000
X290000Y300000
X290000Y250000
X290000Y200000
X290000Y150000
X290000Y50000
X10000Y300000
X10000Y250000
X10000Y200000
X10000Y150000
X10000Y50000
X50000Y10000
X100000Y10000
X200000Y10000
X250000Y10000
X217500Y380000
X10000Y600000
X290000Y600000
X290000Y100000
X10000Y100000
X193850Y334800
X193850Y324800
X193850Y284800
X193850Y274800
X193900Y112250
X193900Y104750
X70000Y275000
X70000Y265000
X70000Y255000
X175000Y10000
X137500Y10000
X50000Y152500
X111200Y284800
X137550Y572250
X137550Y564750
X137550Y557275
X111500Y557375
X111500Y564750
X111500Y572250
X193800Y572250
X193800Y564750
X193800Y557250
X137550Y542270
X137550Y534770
X137550Y527265
X111200Y527265
X111300Y534770
X111300Y542270
X193800Y542270
X193800Y534770
X193800Y527270
X125000Y25000
X111200Y264800
X137500Y264800
X193750Y264800
X111260Y194780
X111260Y202340
X111260Y187320
X137560Y187320
X137560Y194780
X137560Y202340
X193810Y202340
X193810Y194840
X193810Y187340
X70000Y345000
X70000Y335000
X70000Y325000
X111200Y154750
X137550Y154750
X137550Y144775
X111200Y144775
X193800Y154750
X193800Y144750
X95000Y295000
X95000Y285000
X111200Y124750
X111200Y134750
X137650Y124875
X137550Y134750
X193800Y134750
X193800Y124750
X95000Y315000
X95000Y305000
X125000Y67500
X111200Y254800
X137600Y254800
X193850Y254800
X137500Y67500
X111200Y244900
X137600Y244800
X193850Y244800
X175000Y67500
X111200Y234800
X137600Y234800
X193850Y234800
X137460Y344820
X112460Y344820
X193710Y344820
X111300Y424800
X111300Y417300
X137500Y417300
X137500Y424800
X111300Y432300
X137500Y432500
X192500Y432500
X192500Y424800
X192500Y417300
X137460Y354780
X112460Y354780
X193710Y354780
X111260Y502260
X111260Y494800
X137600Y594800
X137560Y487310
X137460Y494800
X137460Y502260
X193710Y502260
X193710Y494760
X193710Y487260
X111360Y457330
X111260Y464790
X111220Y472330
X137260Y472180
X137460Y464790
X137460Y457330
X193510Y472180
X193510Y464680
X193510Y457180
X137700Y392300
X137700Y384800
X137700Y377300
X111200Y377300
X111200Y384800
X111200Y392300
X193950Y392300
X193950Y384800
X111260Y487310
X70000Y285000
X70000Y295000
X70000Y305000
X70000Y315000
X137600Y587300
X111600Y594900
X111500Y587300
X137600Y334800
X137600Y324800
X111500Y324800
X111500Y334800
X137600Y284800
X137500Y274800
X111200Y274800
X111200Y112250
X111200Y104750
X137550Y104750
X137650Y112250
X150000Y10000
X150000Y690000
X10000Y350000
X290000Y350000
X100000Y690000
X193950Y377300
M30