G04 EAGLE Gerber X2 export*
%TF.Part,Single*%
%TF.FileFunction,Copper,L1,Top,Mixed*%
%TF.FilePolarity,Positive*%
%TF.GenerationSoftware,Autodesk,EAGLE,9.6.2*%
%TF.CreationDate,2026-01-06T12:46:49Z*%
G75*
%MOMM*%
%FSLAX36Y36*%
%LPD*%
%INTop Copper Layer*%
%AMOC8*
5,1,8,0,0,1.08239X$1,22.5*%
G01*
%ADD10C,0.076200*%
%ADD11R,0.740000X2.790000*%
%ADD12C,1.524000*%
%ADD13P,2.336880X8X202.500000*%
%ADD14P,2.336880X8X22.500000*%
%ADD15C,0.152400*%
%ADD16R,3.560000X1.980000*%
%ADD17R,2.030000X0.560000*%
%ADD18R,1.880000X0.610000*%
%ADD19R,1.350000X0.610000*%
%ADD20R,1.520000X0.610000*%
%ADD21C,2.895000*%
%ADD22R,0.600000X0.700000*%
%ADD23C,5.000000*%
%ADD24C,0.553200*%
%ADD25C,0.500000*%
%ADD26C,0.250000*%

G36*
X10453450Y387581D02*
X10453450Y387581D01*
X10465988Y388519D01*
X10469081Y389572D01*
X10472306Y389981D01*
X10483963Y394634D01*
X10495866Y398681D01*
X10498588Y400469D01*
X10501619Y401678D01*
X10511753Y409113D01*
X10522247Y416003D01*
X10524438Y418419D01*
X10527066Y420347D01*
X10535016Y430084D01*
X10543450Y439381D01*
X10544963Y442259D01*
X10547028Y444791D01*
X10552284Y456203D01*
X10558122Y467322D01*
X10558584Y469888D01*
X10560228Y473456D01*
X10565831Y504513D01*
X10565538Y508434D01*
X10566000Y510997D01*
X10566000Y3215209D01*
X10714788Y3363997D01*
X10833400Y3363997D01*
X10838856Y3364691D01*
X10844344Y3364478D01*
X10854438Y3366675D01*
X10864706Y3367981D01*
X10869816Y3370019D01*
X10875181Y3371188D01*
X10884400Y3375841D01*
X10894019Y3379678D01*
X10898456Y3382934D01*
X10903356Y3385406D01*
X10911131Y3392231D01*
X10919466Y3398347D01*
X10922938Y3402600D01*
X10927072Y3406228D01*
X10932884Y3414778D01*
X10939428Y3422791D01*
X10941731Y3427791D01*
X10944816Y3432328D01*
X10948306Y3442069D01*
X10952628Y3451456D01*
X10953603Y3456853D01*
X10955459Y3462038D01*
X10956397Y3472347D01*
X10958231Y3482513D01*
X10957822Y3487997D01*
X10958319Y3493469D01*
X10956938Y3499819D01*
X10955878Y3513984D01*
X10950263Y3530491D01*
X10948884Y3536831D01*
X10934000Y3572766D01*
X10934000Y3927231D01*
X10948884Y3963166D01*
X10950328Y3968463D01*
X10952628Y3973456D01*
X10954466Y3983638D01*
X10957184Y3993613D01*
X10957256Y3999106D01*
X10958231Y4004513D01*
X10958231Y4004516D01*
X10957459Y4014834D01*
X10957594Y4025169D01*
X10956288Y4030500D01*
X10955878Y4035988D01*
X10952544Y4045788D01*
X10950088Y4055822D01*
X10947488Y4060659D01*
X10945716Y4065866D01*
X10940034Y4074519D01*
X10935141Y4083619D01*
X10931413Y4087650D01*
X10928394Y4092247D01*
X10920744Y4099184D01*
X10913713Y4106788D01*
X10909078Y4109766D01*
X10905016Y4113450D01*
X10895866Y4118253D01*
X10887163Y4123847D01*
X10881947Y4125566D01*
X10877075Y4128122D01*
X10870663Y4129278D01*
X10857184Y4133716D01*
X10839800Y4134847D01*
X10833400Y4136000D01*
X10714788Y4136000D01*
X10566000Y4284788D01*
X10566000Y7285209D01*
X10714788Y7433997D01*
X11665206Y7433997D01*
X11736606Y7362594D01*
X11746538Y7354906D01*
X11756063Y7346706D01*
X11758997Y7345263D01*
X11761563Y7343275D01*
X11773075Y7338328D01*
X11784375Y7332766D01*
X11787569Y7332103D01*
X11790559Y7330819D01*
X11802981Y7328909D01*
X11815278Y7326359D01*
X11818528Y7326519D01*
X11821753Y7326022D01*
X11834259Y7327284D01*
X11846800Y7327897D01*
X11849913Y7328866D01*
X11853153Y7329194D01*
X11864925Y7333541D01*
X11876931Y7337281D01*
X11879072Y7338766D01*
X11882756Y7340128D01*
X11908681Y7358125D01*
X11911256Y7361116D01*
X11913384Y7362594D01*
X11984788Y7433997D01*
X12935206Y7433997D01*
X13006606Y7362594D01*
X13016538Y7354906D01*
X13026063Y7346706D01*
X13028997Y7345263D01*
X13031563Y7343275D01*
X13043075Y7338328D01*
X13054375Y7332766D01*
X13057569Y7332103D01*
X13060559Y7330819D01*
X13072981Y7328909D01*
X13085278Y7326359D01*
X13088528Y7326519D01*
X13091753Y7326022D01*
X13104259Y7327284D01*
X13116800Y7327897D01*
X13119913Y7328866D01*
X13123153Y7329194D01*
X13134925Y7333541D01*
X13146931Y7337281D01*
X13149072Y7338766D01*
X13152756Y7340128D01*
X13178681Y7358125D01*
X13181256Y7361116D01*
X13183384Y7362594D01*
X13254788Y7433997D01*
X14205206Y7433997D01*
X14276606Y7362594D01*
X14286538Y7354906D01*
X14296063Y7346706D01*
X14298997Y7345263D01*
X14301563Y7343275D01*
X14313075Y7338328D01*
X14324375Y7332766D01*
X14327569Y7332103D01*
X14330559Y7330819D01*
X14342981Y7328909D01*
X14355278Y7326359D01*
X14358528Y7326519D01*
X14361753Y7326022D01*
X14374259Y7327284D01*
X14386800Y7327897D01*
X14389913Y7328866D01*
X14393153Y7329194D01*
X14404925Y7333541D01*
X14416931Y7337281D01*
X14419072Y7338766D01*
X14422756Y7340128D01*
X14448681Y7358125D01*
X14451256Y7361116D01*
X14453384Y7362594D01*
X14524788Y7433997D01*
X14641663Y7433997D01*
X14655678Y7435781D01*
X14669822Y7437209D01*
X14671356Y7437775D01*
X14672969Y7437981D01*
X14686128Y7443231D01*
X14699425Y7448144D01*
X14700763Y7449072D01*
X14702281Y7449678D01*
X14713722Y7458072D01*
X14725347Y7466144D01*
X14726413Y7467381D01*
X14727728Y7468347D01*
X14736688Y7479316D01*
X14745938Y7490063D01*
X14746659Y7491528D01*
X14747691Y7492791D01*
X14753606Y7505638D01*
X14759878Y7518375D01*
X14760209Y7519981D01*
X14760891Y7521456D01*
X14763400Y7535359D01*
X14766284Y7549278D01*
X14766206Y7550909D01*
X14766494Y7552513D01*
X14765438Y7566638D01*
X14764747Y7580800D01*
X14764263Y7582356D01*
X14764141Y7583984D01*
X14759569Y7597425D01*
X14755363Y7610931D01*
X14754603Y7612025D01*
X14753978Y7613863D01*
X14736656Y7640244D01*
X14732206Y7644281D01*
X14730050Y7647384D01*
X14524644Y7852788D01*
X14389000Y8180266D01*
X14389000Y8534731D01*
X14524644Y8862209D01*
X14775288Y9112853D01*
X15102766Y9248497D01*
X15457231Y9248497D01*
X15784709Y9112853D01*
X16035353Y8862209D01*
X16170997Y8534731D01*
X16170997Y8180266D01*
X16035353Y7852788D01*
X15829947Y7647384D01*
X15821275Y7636188D01*
X15812306Y7625203D01*
X15811625Y7623722D01*
X15810625Y7622431D01*
X15805019Y7609378D01*
X15799106Y7596538D01*
X15798819Y7594938D01*
X15798172Y7593434D01*
X15796009Y7579378D01*
X15793503Y7565481D01*
X15793625Y7563863D01*
X15793375Y7562241D01*
X15794800Y7548128D01*
X15795856Y7534009D01*
X15796384Y7532459D01*
X15796547Y7530841D01*
X15801444Y7517578D01*
X15806019Y7504131D01*
X15806916Y7502766D01*
X15807481Y7501234D01*
X15815556Y7489603D01*
X15823341Y7477750D01*
X15824550Y7476653D01*
X15825481Y7475313D01*
X15836209Y7466078D01*
X15846719Y7456547D01*
X15848166Y7455788D01*
X15849400Y7454725D01*
X15862091Y7448475D01*
X15874659Y7441875D01*
X15875972Y7441638D01*
X15877713Y7440781D01*
X15908616Y7434375D01*
X15914616Y7434669D01*
X15918334Y7433997D01*
X16745206Y7433997D01*
X16816606Y7362594D01*
X16826538Y7354906D01*
X16836063Y7346706D01*
X16838997Y7345263D01*
X16841563Y7343275D01*
X16853075Y7338328D01*
X16864375Y7332766D01*
X16867569Y7332103D01*
X16870559Y7330819D01*
X16882981Y7328909D01*
X16895278Y7326359D01*
X16898528Y7326519D01*
X16901753Y7326022D01*
X16914259Y7327284D01*
X16926800Y7327897D01*
X16929913Y7328866D01*
X16933153Y7329194D01*
X16944925Y7333541D01*
X16956931Y7337281D01*
X16959072Y7338766D01*
X16962756Y7340128D01*
X16988681Y7358125D01*
X16991256Y7361116D01*
X16993384Y7362594D01*
X17064788Y7433997D01*
X18015206Y7433997D01*
X18086606Y7362594D01*
X18096538Y7354906D01*
X18106063Y7346706D01*
X18108997Y7345263D01*
X18111563Y7343275D01*
X18123075Y7338328D01*
X18134375Y7332766D01*
X18137569Y7332103D01*
X18140559Y7330819D01*
X18152981Y7328909D01*
X18165278Y7326359D01*
X18168528Y7326519D01*
X18171753Y7326022D01*
X18184259Y7327284D01*
X18196800Y7327897D01*
X18199913Y7328866D01*
X18203153Y7329194D01*
X18214925Y7333541D01*
X18226931Y7337281D01*
X18229072Y7338766D01*
X18232756Y7340128D01*
X18258681Y7358125D01*
X18261256Y7361116D01*
X18263384Y7362594D01*
X18334788Y7433997D01*
X18747944Y7433997D01*
X18761972Y7435781D01*
X18776100Y7437209D01*
X18777631Y7437775D01*
X18779250Y7437981D01*
X18792425Y7443238D01*
X18805706Y7448144D01*
X18807044Y7449072D01*
X18808563Y7449678D01*
X18820003Y7458072D01*
X18831628Y7466144D01*
X18832694Y7467381D01*
X18834009Y7468347D01*
X18842969Y7479316D01*
X18852219Y7490063D01*
X18852941Y7491528D01*
X18853972Y7492791D01*
X18859888Y7505638D01*
X18866159Y7518375D01*
X18866491Y7519981D01*
X18867172Y7521456D01*
X18869681Y7535359D01*
X18872566Y7549278D01*
X18872488Y7550909D01*
X18872775Y7552513D01*
X18871719Y7566638D01*
X18871028Y7580800D01*
X18870544Y7582356D01*
X18870422Y7583984D01*
X18865850Y7597425D01*
X18861644Y7610931D01*
X18860884Y7612025D01*
X18860259Y7613863D01*
X18842938Y7640244D01*
X18838488Y7644281D01*
X18836331Y7647384D01*
X18467538Y8016175D01*
X18208500Y8641547D01*
X18208500Y9318447D01*
X18386497Y9748163D01*
X18387944Y9753472D01*
X18390241Y9758459D01*
X18392075Y9768628D01*
X18394797Y9778613D01*
X18394869Y9784109D01*
X18395844Y9789516D01*
X18395072Y9799834D01*
X18395206Y9810169D01*
X18393900Y9815500D01*
X18393491Y9820988D01*
X18390156Y9830788D01*
X18387700Y9840822D01*
X18385100Y9845659D01*
X18383328Y9850866D01*
X18377647Y9859519D01*
X18372753Y9868619D01*
X18369025Y9872650D01*
X18366006Y9877247D01*
X18358356Y9884184D01*
X18351325Y9891788D01*
X18346691Y9894766D01*
X18342628Y9898450D01*
X18333478Y9903253D01*
X18324775Y9908847D01*
X18319559Y9910566D01*
X18314688Y9913122D01*
X18308275Y9914278D01*
X18294797Y9918716D01*
X18277413Y9919847D01*
X18276563Y9920000D01*
X18532156Y9920000D01*
X18534363Y9921656D01*
X18535691Y9921466D01*
X18982428Y10368203D01*
X19584275Y10617497D01*
X20235722Y10617497D01*
X20495588Y10509856D01*
X20495903Y10509938D01*
X20496100Y10509675D01*
X20496534Y10510000D01*
X20497500Y10510000D01*
X20498200Y10510525D01*
X20501400Y10511344D01*
X20501059Y10512669D01*
X20502300Y10513600D01*
X20501953Y10514063D01*
X20502500Y10514475D01*
X20502500Y10576266D01*
X20873822Y10422459D01*
X21352459Y9943822D01*
X21611497Y9318450D01*
X21611497Y8641547D01*
X21352459Y8016175D01*
X20873822Y7537538D01*
X20248450Y7278500D01*
X19558997Y7278500D01*
X19546547Y7276916D01*
X19534009Y7275978D01*
X19530916Y7274925D01*
X19527691Y7274516D01*
X19516034Y7269863D01*
X19504131Y7265816D01*
X19501409Y7264028D01*
X19498378Y7262819D01*
X19488244Y7255384D01*
X19477750Y7248494D01*
X19475559Y7246078D01*
X19472931Y7244150D01*
X19464981Y7234413D01*
X19456547Y7225116D01*
X19455034Y7222238D01*
X19452969Y7219706D01*
X19447713Y7208294D01*
X19441875Y7197175D01*
X19441413Y7194609D01*
X19439769Y7191041D01*
X19434166Y7159984D01*
X19434459Y7156063D01*
X19433997Y7153500D01*
X19433997Y4284788D01*
X19285209Y4136000D01*
X19166597Y4136000D01*
X19161141Y4135306D01*
X19155653Y4135519D01*
X19145559Y4133322D01*
X19135291Y4132016D01*
X19130181Y4129978D01*
X19124816Y4128809D01*
X19115597Y4124156D01*
X19105978Y4120319D01*
X19101541Y4117063D01*
X19096641Y4114591D01*
X19088866Y4107766D01*
X19080531Y4101650D01*
X19077059Y4097397D01*
X19072925Y4093769D01*
X19067113Y4085219D01*
X19060569Y4077206D01*
X19058266Y4072206D01*
X19055181Y4067669D01*
X19051691Y4057928D01*
X19047369Y4048541D01*
X19046394Y4043144D01*
X19044538Y4037959D01*
X19043600Y4027650D01*
X19041766Y4017484D01*
X19042175Y4012000D01*
X19041678Y4006528D01*
X19043059Y4000178D01*
X19044119Y3986013D01*
X19049734Y3969506D01*
X19051113Y3963166D01*
X19065997Y3927231D01*
X19065997Y3572766D01*
X19051113Y3536831D01*
X19049666Y3531528D01*
X19047369Y3526538D01*
X19045534Y3516366D01*
X19042813Y3506384D01*
X19042741Y3500888D01*
X19041766Y3495481D01*
X19042538Y3485163D01*
X19042403Y3474828D01*
X19043709Y3469497D01*
X19044119Y3464009D01*
X19047453Y3454209D01*
X19049909Y3444175D01*
X19052509Y3439338D01*
X19054281Y3434131D01*
X19059963Y3425478D01*
X19064856Y3416378D01*
X19068584Y3412347D01*
X19071603Y3407750D01*
X19079253Y3400813D01*
X19086284Y3393209D01*
X19090919Y3390231D01*
X19094981Y3386547D01*
X19104131Y3381744D01*
X19112834Y3376150D01*
X19118050Y3374431D01*
X19122922Y3371875D01*
X19129334Y3370719D01*
X19142813Y3366281D01*
X19160197Y3365150D01*
X19166597Y3363997D01*
X19285209Y3363997D01*
X19433997Y3215209D01*
X19433997Y510997D01*
X19435581Y498547D01*
X19436519Y486009D01*
X19437572Y482916D01*
X19437981Y479691D01*
X19442634Y468034D01*
X19446681Y456131D01*
X19448469Y453409D01*
X19449678Y450378D01*
X19457113Y440244D01*
X19464003Y429750D01*
X19466419Y427559D01*
X19468347Y424931D01*
X19478084Y416981D01*
X19487381Y408547D01*
X19490259Y407034D01*
X19492791Y404969D01*
X19504203Y399713D01*
X19515322Y393875D01*
X19517888Y393413D01*
X19521456Y391769D01*
X19552513Y386166D01*
X19556434Y386459D01*
X19558997Y385997D01*
X27000000Y385997D01*
X27006009Y386763D01*
X27009806Y386381D01*
X27399169Y417025D01*
X27424334Y422259D01*
X27427991Y422759D01*
X28168609Y663400D01*
X28197153Y676863D01*
X28200728Y679838D01*
X28203453Y681153D01*
X28833459Y1138881D01*
X28856447Y1160506D01*
X28858931Y1164444D01*
X28861116Y1166538D01*
X29318844Y1796544D01*
X29334022Y1824213D01*
X29335169Y1828725D01*
X29336597Y1831388D01*
X29577238Y2572006D01*
X29582028Y2597241D01*
X29582972Y2600828D01*
X29613616Y2990191D01*
X29613325Y2996250D01*
X29614000Y2999997D01*
X29614000Y67000000D01*
X29613234Y67006009D01*
X29613616Y67009806D01*
X29582972Y67399169D01*
X29581425Y67406609D01*
X29581097Y67410984D01*
X29579597Y67415397D01*
X29577738Y67424334D01*
X29577238Y67427991D01*
X29336597Y68168609D01*
X29323134Y68197153D01*
X29320159Y68200728D01*
X29318844Y68203453D01*
X28861116Y68833459D01*
X28855297Y68839644D01*
X28853591Y68842244D01*
X28848559Y68846809D01*
X28839491Y68856447D01*
X28835553Y68858931D01*
X28833459Y68861116D01*
X28203453Y69318844D01*
X28175784Y69334022D01*
X28171272Y69335169D01*
X28168609Y69336597D01*
X27427991Y69577238D01*
X27402756Y69582028D01*
X27399169Y69582972D01*
X27009806Y69613616D01*
X27003747Y69613325D01*
X27000000Y69614000D01*
X2999997Y69614000D01*
X2993988Y69613234D01*
X2990191Y69613616D01*
X2600828Y69582972D01*
X2575663Y69577738D01*
X2572006Y69577238D01*
X1831388Y69336597D01*
X1802844Y69323134D01*
X1799269Y69320159D01*
X1796544Y69318844D01*
X1166538Y68861116D01*
X1160513Y68855450D01*
X1155331Y68851647D01*
X1151550Y68847016D01*
X1143550Y68839491D01*
X1141066Y68835553D01*
X1138881Y68833459D01*
X681153Y68203453D01*
X665975Y68175784D01*
X664828Y68171272D01*
X663400Y68168609D01*
X422759Y67427991D01*
X417969Y67402756D01*
X417025Y67399169D01*
X386381Y67009806D01*
X386672Y67003747D01*
X385997Y67000000D01*
X385997Y37000484D01*
X385522Y37000063D01*
X385550Y37000028D01*
X385519Y37000000D01*
X385519Y34250000D01*
X385953Y34249506D01*
X385988Y34249534D01*
X386016Y34249503D01*
X395738Y34249503D01*
X393875Y34245956D01*
X393488Y34243809D01*
X392103Y34240872D01*
X386228Y34209863D01*
X386531Y34205250D01*
X385997Y34202281D01*
X385997Y25802047D01*
X387650Y25789047D01*
X388744Y25775991D01*
X389638Y25773434D01*
X389981Y25770741D01*
X394847Y25758550D01*
X397663Y25750500D01*
X386016Y25750500D01*
X385522Y25750063D01*
X385550Y25750028D01*
X385519Y25750000D01*
X385519Y22999997D01*
X385953Y22999503D01*
X385988Y22999531D01*
X385997Y22999522D01*
X385997Y3000000D01*
X386763Y2993991D01*
X386381Y2990194D01*
X417025Y2600828D01*
X422259Y2575663D01*
X422759Y2572006D01*
X663400Y1831388D01*
X676863Y1802844D01*
X679838Y1799269D01*
X681153Y1796544D01*
X1138881Y1166538D01*
X1160506Y1143550D01*
X1164438Y1141072D01*
X1166534Y1138881D01*
X1796538Y681153D01*
X1824209Y665975D01*
X1828722Y664828D01*
X1831384Y663400D01*
X2572003Y422759D01*
X2597238Y417969D01*
X2600825Y417025D01*
X2990191Y386381D01*
X2996250Y386672D01*
X2999997Y385997D01*
X10441000Y385997D01*
X10453450Y387581D01*
G37*
%LPC*%
G36*
X18789463Y51621831D02*
X18789463Y51621831D01*
X18785541Y51621538D01*
X18782978Y51622000D01*
X13420519Y51622000D01*
X13408069Y51620416D01*
X13395531Y51619478D01*
X13392438Y51618425D01*
X13391500Y51618306D01*
X13371963Y51621831D01*
X13368041Y51621538D01*
X13365478Y51622000D01*
X11605519Y51622000D01*
X11593069Y51620416D01*
X11580531Y51619478D01*
X11577438Y51618425D01*
X11576500Y51618306D01*
X11556963Y51621831D01*
X11553041Y51621538D01*
X11550478Y51622000D01*
X10712050Y51622000D01*
X10709675Y51622984D01*
X10707497Y51623578D01*
X10705509Y51624622D01*
X10700066Y51625603D01*
X10679225Y51631284D01*
X10667747Y51631434D01*
X10661834Y51632500D01*
X10561725Y51632500D01*
X10560631Y51636013D01*
X10560016Y51640850D01*
X10555956Y51651022D01*
X10552700Y51661478D01*
X10550547Y51664578D01*
X10548319Y51670163D01*
X10529650Y51695609D01*
X10528147Y51696838D01*
X10527388Y51697931D01*
X10384381Y51840938D01*
X10350459Y51922834D01*
X10348541Y51926194D01*
X10347291Y51929866D01*
X10340734Y51939850D01*
X10334800Y51950234D01*
X10332091Y51953016D01*
X10329969Y51956247D01*
X10321128Y51964266D01*
X10312775Y51972838D01*
X10309456Y51974850D01*
X10306591Y51977450D01*
X10296025Y51982997D01*
X10285791Y51989206D01*
X10282075Y51990322D01*
X10278650Y51992122D01*
X10272250Y51993275D01*
X10255569Y51998291D01*
X10241391Y51998844D01*
X10234975Y52000000D01*
X9150541Y52000000D01*
X8966772Y52076119D01*
X8630503Y52412388D01*
X8621841Y52419094D01*
X8613731Y52426450D01*
X8609416Y52428716D01*
X8605550Y52431709D01*
X8595484Y52436031D01*
X8585791Y52441122D01*
X8582066Y52441794D01*
X8576550Y52444163D01*
X8545359Y52448959D01*
X8543425Y52448763D01*
X8542116Y52449000D01*
X6741969Y52449000D01*
X6278131Y52641125D01*
X5923125Y52996131D01*
X5731000Y53459969D01*
X5731000Y53962028D01*
X5923125Y54425866D01*
X6278131Y54780872D01*
X6482481Y54865513D01*
X6494791Y54872547D01*
X6507266Y54879256D01*
X6508456Y54880356D01*
X6509881Y54881172D01*
X6520078Y54891106D01*
X6530434Y54900688D01*
X6531316Y54902056D01*
X6532484Y54903197D01*
X6539819Y54915288D01*
X6547497Y54927238D01*
X6548009Y54928797D01*
X6548850Y54930181D01*
X6552900Y54943653D01*
X6557363Y54957213D01*
X6557469Y54958844D01*
X6557938Y54960403D01*
X6558488Y54974516D01*
X6559409Y54988706D01*
X6559103Y54990316D01*
X6559166Y54991938D01*
X6556166Y55005738D01*
X6553503Y55019709D01*
X6552806Y55021184D01*
X6552459Y55022778D01*
X6546066Y55035447D01*
X6540019Y55048241D01*
X6538978Y55049491D01*
X6538241Y55050950D01*
X6528925Y55061559D01*
X6519819Y55072491D01*
X6518688Y55073219D01*
X6517416Y55074666D01*
X6491319Y55092413D01*
X6485656Y55094441D01*
X6482481Y55096481D01*
X6278131Y55181125D01*
X5923125Y55536131D01*
X5731000Y55999969D01*
X5731000Y56502028D01*
X5923125Y56965866D01*
X6278131Y57320872D01*
X6753891Y57517934D01*
X6758663Y57520659D01*
X6763819Y57522566D01*
X6772303Y57528459D01*
X6781291Y57533594D01*
X6785234Y57537438D01*
X6789741Y57540566D01*
X6796481Y57548397D01*
X6803894Y57555619D01*
X6806744Y57560316D01*
X6810331Y57564484D01*
X6814900Y57573763D01*
X6820263Y57582603D01*
X6821844Y57587869D01*
X6824272Y57592797D01*
X6826372Y57602928D01*
X6829347Y57612825D01*
X6829559Y57618309D01*
X6830678Y57623700D01*
X6830172Y57634050D01*
X6830575Y57644363D01*
X6829409Y57649722D01*
X6829141Y57655222D01*
X6826059Y57665109D01*
X6823866Y57675200D01*
X6821391Y57680103D01*
X6819756Y57685353D01*
X6816044Y57690700D01*
X6809647Y57703375D01*
X6801431Y57712734D01*
X6798469Y57717244D01*
X6796153Y57719344D01*
X6794444Y57721806D01*
X6170500Y58345747D01*
X6170500Y59654250D01*
X7095747Y60579497D01*
X8404250Y60579497D01*
X9329497Y59654250D01*
X9329497Y58374997D01*
X9331081Y58362547D01*
X9332019Y58350009D01*
X9333072Y58346916D01*
X9333481Y58343691D01*
X9338134Y58332034D01*
X9342181Y58320131D01*
X9343969Y58317409D01*
X9345178Y58314378D01*
X9352613Y58304244D01*
X9359503Y58293750D01*
X9361919Y58291559D01*
X9363847Y58288931D01*
X9373584Y58280981D01*
X9382881Y58272547D01*
X9385759Y58271034D01*
X9388291Y58268969D01*
X9399703Y58263713D01*
X9410822Y58257875D01*
X9413388Y58257413D01*
X9416956Y58255769D01*
X9448013Y58250166D01*
X9451934Y58250459D01*
X9454497Y58249997D01*
X10307500Y58249997D01*
X10307500Y58175000D01*
X10311100Y58170200D01*
X10311900Y58170800D01*
X10312500Y58170000D01*
X10493825Y58170000D01*
X10496031Y58171656D01*
X10497359Y58171466D01*
X10610891Y58284997D01*
X14275106Y58284997D01*
X14388638Y58171466D01*
X14391366Y58171075D01*
X14392172Y58170000D01*
X17546325Y58170000D01*
X17548531Y58171656D01*
X17549859Y58171466D01*
X17663391Y58284997D01*
X19957606Y58284997D01*
X20071138Y58171466D01*
X20073866Y58171075D01*
X20074672Y58170000D01*
X20079169Y58170000D01*
X20175616Y58073556D01*
X20252497Y57887950D01*
X20252497Y55074547D01*
X20231941Y55024922D01*
X20229063Y55014363D01*
X20225366Y55004041D01*
X20224922Y54999178D01*
X20223641Y54994472D01*
X20223500Y54983516D01*
X20222506Y54972609D01*
X20223309Y54968919D01*
X20223231Y54962916D01*
X20230738Y54932263D01*
X20231656Y54930553D01*
X20231941Y54929247D01*
X20250497Y54884453D01*
X20250497Y54869644D01*
X20250781Y54867406D01*
X20250578Y54865172D01*
X20251753Y54859769D01*
X20252497Y54853928D01*
X20252497Y52026547D01*
X20175613Y51840934D01*
X20041109Y51706431D01*
X20034403Y51697769D01*
X20027047Y51689659D01*
X20024781Y51685344D01*
X20021788Y51681478D01*
X20017466Y51671413D01*
X20012375Y51661719D01*
X20011703Y51657994D01*
X20009334Y51652478D01*
X20006263Y51632500D01*
X19898163Y51632500D01*
X19895925Y51632216D01*
X19893688Y51632419D01*
X19888278Y51631241D01*
X19866856Y51628516D01*
X19856200Y51624263D01*
X19850322Y51622984D01*
X19847947Y51622000D01*
X18838019Y51622000D01*
X18825569Y51620416D01*
X18813031Y51619478D01*
X18809938Y51618425D01*
X18809000Y51618306D01*
X18789463Y51621831D01*
G37*
%LPD*%
%LPC*%
G36*
X18789463Y36632331D02*
X18789463Y36632331D01*
X18785541Y36632038D01*
X18782978Y36632500D01*
X17583300Y36632500D01*
X17582150Y36634066D01*
X17572413Y36642016D01*
X17563116Y36650450D01*
X17560238Y36651963D01*
X17557706Y36654028D01*
X17546294Y36659284D01*
X17535175Y36665122D01*
X17532609Y36665584D01*
X17529041Y36667228D01*
X17497984Y36672831D01*
X17494063Y36672538D01*
X17491500Y36673000D01*
X14446997Y36673000D01*
X14434547Y36671416D01*
X14422009Y36670478D01*
X14418916Y36669425D01*
X14415691Y36669016D01*
X14404034Y36664363D01*
X14392131Y36660316D01*
X14389409Y36658528D01*
X14386378Y36657319D01*
X14376244Y36649884D01*
X14365750Y36642994D01*
X14363559Y36640578D01*
X14360931Y36638650D01*
X14355909Y36632500D01*
X13420519Y36632500D01*
X13408069Y36630916D01*
X13395531Y36629978D01*
X13392438Y36628925D01*
X13391500Y36628806D01*
X13371963Y36632331D01*
X13368041Y36632038D01*
X13365478Y36632500D01*
X11605519Y36632500D01*
X11593069Y36630916D01*
X11580531Y36629978D01*
X11577438Y36628925D01*
X11576500Y36628806D01*
X11556963Y36632331D01*
X11553041Y36632038D01*
X11550478Y36632500D01*
X10563047Y36632500D01*
X10562416Y36637450D01*
X10561478Y36649988D01*
X10560425Y36653081D01*
X10560016Y36656306D01*
X10555363Y36667963D01*
X10551316Y36679866D01*
X10549528Y36682588D01*
X10548319Y36685619D01*
X10540884Y36695753D01*
X10533994Y36706247D01*
X10531578Y36708438D01*
X10529650Y36711066D01*
X10519913Y36719016D01*
X10510616Y36727450D01*
X10507738Y36728963D01*
X10505206Y36731028D01*
X10493794Y36736284D01*
X10482675Y36742122D01*
X10480109Y36742584D01*
X10476541Y36744228D01*
X10445484Y36749831D01*
X10441563Y36749538D01*
X10439000Y36750000D01*
X9650541Y36750000D01*
X9466772Y36826119D01*
X9308544Y36984347D01*
X9308538Y36984356D01*
X8361506Y37931388D01*
X8352844Y37938094D01*
X8344734Y37945450D01*
X8340419Y37947716D01*
X8336553Y37950709D01*
X8326488Y37955031D01*
X8316794Y37960122D01*
X8313069Y37960794D01*
X8307553Y37963163D01*
X8276363Y37967959D01*
X8274428Y37967763D01*
X8273119Y37968000D01*
X6736969Y37968000D01*
X6273131Y38160125D01*
X5918125Y38515131D01*
X5726000Y38978969D01*
X5726000Y39481028D01*
X5918125Y39944866D01*
X6273131Y40299872D01*
X6477481Y40384513D01*
X6489791Y40391547D01*
X6502266Y40398256D01*
X6503456Y40399356D01*
X6504881Y40400172D01*
X6515078Y40410106D01*
X6525434Y40419688D01*
X6526316Y40421056D01*
X6527484Y40422197D01*
X6534819Y40434288D01*
X6542497Y40446238D01*
X6543009Y40447797D01*
X6543850Y40449181D01*
X6547913Y40462694D01*
X6552363Y40476213D01*
X6552469Y40477844D01*
X6552938Y40479403D01*
X6553488Y40493516D01*
X6554409Y40507706D01*
X6554103Y40509316D01*
X6554166Y40510938D01*
X6551166Y40524738D01*
X6548503Y40538709D01*
X6547806Y40540184D01*
X6547459Y40541778D01*
X6541066Y40554447D01*
X6535019Y40567241D01*
X6533978Y40568491D01*
X6533241Y40569950D01*
X6523925Y40580559D01*
X6514819Y40591491D01*
X6513688Y40592219D01*
X6512416Y40593666D01*
X6486319Y40611413D01*
X6480656Y40613441D01*
X6477481Y40615481D01*
X6273131Y40700125D01*
X5918125Y41055131D01*
X5726000Y41518969D01*
X5726000Y42021028D01*
X5918125Y42484866D01*
X6273131Y42839872D01*
X6736969Y43031997D01*
X8273119Y43031997D01*
X8283975Y43033378D01*
X8294922Y43033913D01*
X8299588Y43035366D01*
X8304425Y43035981D01*
X8314597Y43040041D01*
X8325053Y43043297D01*
X8328153Y43045450D01*
X8333738Y43047678D01*
X8359184Y43066347D01*
X8360413Y43067850D01*
X8361506Y43068609D01*
X9466772Y44173878D01*
X9650541Y44249997D01*
X10439000Y44249997D01*
X10451450Y44251581D01*
X10463988Y44252519D01*
X10467081Y44253572D01*
X10470306Y44253981D01*
X10481963Y44258634D01*
X10493866Y44262681D01*
X10496588Y44264469D01*
X10499619Y44265678D01*
X10509753Y44273113D01*
X10520247Y44280003D01*
X10522438Y44282419D01*
X10525066Y44284347D01*
X10533016Y44294084D01*
X10541450Y44303381D01*
X10542963Y44306259D01*
X10545028Y44308791D01*
X10550284Y44320203D01*
X10554113Y44327494D01*
X11550478Y44327494D01*
X11562928Y44329078D01*
X11575466Y44330016D01*
X11578559Y44331069D01*
X11579497Y44331188D01*
X11599034Y44327663D01*
X11602956Y44327956D01*
X11605519Y44327494D01*
X13365478Y44327494D01*
X13377928Y44329078D01*
X13390466Y44330016D01*
X13393559Y44331069D01*
X13394497Y44331188D01*
X13414034Y44327663D01*
X13417956Y44327956D01*
X13420519Y44327494D01*
X14356300Y44327494D01*
X14356347Y44327431D01*
X14366084Y44319481D01*
X14375381Y44311047D01*
X14378259Y44309534D01*
X14380791Y44307469D01*
X14392203Y44302213D01*
X14403322Y44296375D01*
X14405888Y44295913D01*
X14409456Y44294269D01*
X14440513Y44288666D01*
X14444434Y44288959D01*
X14446997Y44288497D01*
X17491500Y44288497D01*
X17503950Y44290081D01*
X17516488Y44291019D01*
X17519581Y44292072D01*
X17522806Y44292481D01*
X17534463Y44297134D01*
X17546366Y44301181D01*
X17549088Y44302969D01*
X17552119Y44304178D01*
X17562253Y44311613D01*
X17572747Y44318503D01*
X17574938Y44320919D01*
X17577566Y44322847D01*
X17581359Y44327494D01*
X18782978Y44327494D01*
X18795428Y44329078D01*
X18807966Y44330016D01*
X18811059Y44331069D01*
X18811997Y44331188D01*
X18831534Y44327663D01*
X18835456Y44327956D01*
X18838019Y44327494D01*
X20004494Y44327494D01*
X20004494Y44292453D01*
X20005875Y44281597D01*
X20006409Y44270650D01*
X20007863Y44265984D01*
X20008478Y44261147D01*
X20012538Y44250975D01*
X20015794Y44240519D01*
X20017947Y44237419D01*
X20020175Y44231834D01*
X20038844Y44206388D01*
X20040341Y44205166D01*
X20041106Y44204063D01*
X20175616Y44069556D01*
X20252497Y43883950D01*
X20252497Y41074547D01*
X20175613Y40888934D01*
X20041109Y40754431D01*
X20034403Y40745769D01*
X20027047Y40737659D01*
X20024781Y40733344D01*
X20021788Y40729478D01*
X20017466Y40719413D01*
X20012375Y40709719D01*
X20011703Y40705994D01*
X20009334Y40700478D01*
X20004538Y40669288D01*
X20004734Y40667353D01*
X20004497Y40666044D01*
X20004497Y40632500D01*
X18838019Y40632500D01*
X18825569Y40630916D01*
X18813031Y40629978D01*
X18809938Y40628925D01*
X18809000Y40628806D01*
X18789463Y40632331D01*
X18785541Y40632038D01*
X18782978Y40632500D01*
X17580394Y40632500D01*
X17572413Y40639016D01*
X17563116Y40647450D01*
X17560238Y40648963D01*
X17557706Y40651028D01*
X17546294Y40656284D01*
X17535175Y40662122D01*
X17532609Y40662584D01*
X17529041Y40664228D01*
X17497984Y40669831D01*
X17494063Y40669538D01*
X17491500Y40670000D01*
X14446997Y40670000D01*
X14434547Y40668416D01*
X14422009Y40667478D01*
X14418916Y40666425D01*
X14415691Y40666016D01*
X14404034Y40661363D01*
X14392131Y40657316D01*
X14389409Y40655528D01*
X14386378Y40654319D01*
X14376244Y40646884D01*
X14365750Y40639994D01*
X14363559Y40637578D01*
X14360931Y40635650D01*
X14358359Y40632500D01*
X13420519Y40632500D01*
X13408069Y40630916D01*
X13395531Y40629978D01*
X13392438Y40628925D01*
X13391500Y40628806D01*
X13371963Y40632331D01*
X13368041Y40632038D01*
X13365478Y40632500D01*
X11605519Y40632500D01*
X11593069Y40630916D01*
X11580531Y40629978D01*
X11577438Y40628925D01*
X11576500Y40628806D01*
X11556963Y40632331D01*
X11553041Y40632038D01*
X11550478Y40632500D01*
X10563047Y40632500D01*
X10562416Y40637450D01*
X10561478Y40649988D01*
X10560425Y40653081D01*
X10560016Y40656306D01*
X10555363Y40667963D01*
X10551316Y40679866D01*
X10549528Y40682588D01*
X10548319Y40685619D01*
X10540884Y40695753D01*
X10533994Y40706247D01*
X10531578Y40708438D01*
X10529650Y40711066D01*
X10519913Y40719016D01*
X10510616Y40727450D01*
X10507738Y40728963D01*
X10505206Y40731028D01*
X10493794Y40736284D01*
X10482675Y40742122D01*
X10480109Y40742584D01*
X10476541Y40744228D01*
X10445484Y40749831D01*
X10441563Y40749538D01*
X10439000Y40750000D01*
X9328516Y40750000D01*
X9317659Y40748619D01*
X9306713Y40748084D01*
X9302047Y40746631D01*
X9297209Y40746016D01*
X9287038Y40741956D01*
X9276581Y40738700D01*
X9273481Y40736547D01*
X9267897Y40734319D01*
X9242450Y40715650D01*
X9241222Y40714147D01*
X9240128Y40713388D01*
X9226866Y40700125D01*
X9022516Y40615481D01*
X9010231Y40608463D01*
X8997728Y40601738D01*
X8996534Y40600631D01*
X8995116Y40599822D01*
X8984947Y40589913D01*
X8974563Y40580306D01*
X8973681Y40578938D01*
X8972513Y40577797D01*
X8965153Y40565666D01*
X8957500Y40553756D01*
X8956991Y40552209D01*
X8956144Y40550813D01*
X8952056Y40537219D01*
X8947634Y40523778D01*
X8947528Y40522153D01*
X8947059Y40520591D01*
X8946509Y40506472D01*
X8945588Y40492284D01*
X8945894Y40490675D01*
X8945831Y40489053D01*
X8948838Y40475241D01*
X8951497Y40461284D01*
X8952194Y40459809D01*
X8952541Y40458216D01*
X8958906Y40445603D01*
X8964978Y40432750D01*
X8966028Y40431491D01*
X8966759Y40430041D01*
X8976103Y40419400D01*
X8985181Y40408503D01*
X8986300Y40407784D01*
X8987581Y40406325D01*
X9013678Y40388581D01*
X9019341Y40386553D01*
X9022516Y40384513D01*
X9226866Y40299872D01*
X9240128Y40286609D01*
X9248791Y40279903D01*
X9256900Y40272547D01*
X9261216Y40270281D01*
X9265081Y40267288D01*
X9275147Y40262966D01*
X9284841Y40257875D01*
X9288566Y40257203D01*
X9294081Y40254834D01*
X9325272Y40250038D01*
X9327206Y40250234D01*
X9328516Y40249997D01*
X10439000Y40249997D01*
X10451450Y40251581D01*
X10463988Y40252519D01*
X10467081Y40253572D01*
X10470306Y40253981D01*
X10481963Y40258634D01*
X10493866Y40262681D01*
X10496588Y40264469D01*
X10499619Y40265678D01*
X10509753Y40273113D01*
X10520247Y40280003D01*
X10522438Y40282419D01*
X10525066Y40284347D01*
X10533016Y40294084D01*
X10541450Y40303381D01*
X10542963Y40306259D01*
X10545028Y40308791D01*
X10550284Y40320203D01*
X10554113Y40327494D01*
X11550478Y40327494D01*
X11562928Y40329078D01*
X11575466Y40330016D01*
X11578559Y40331069D01*
X11579497Y40331188D01*
X11599034Y40327663D01*
X11602956Y40327956D01*
X11605519Y40327494D01*
X13365478Y40327494D01*
X13377928Y40329078D01*
X13390466Y40330016D01*
X13393559Y40331069D01*
X13394497Y40331188D01*
X13414034Y40327663D01*
X13417956Y40327956D01*
X13420519Y40327494D01*
X14355934Y40327494D01*
X14356347Y40326931D01*
X14366084Y40318981D01*
X14375381Y40310547D01*
X14378259Y40309034D01*
X14380791Y40306969D01*
X14392203Y40301713D01*
X14403322Y40295875D01*
X14405888Y40295413D01*
X14409456Y40293769D01*
X14440513Y40288166D01*
X14444434Y40288459D01*
X14446997Y40287997D01*
X17491500Y40287997D01*
X17503950Y40289581D01*
X17516488Y40290519D01*
X17519581Y40291572D01*
X17522806Y40291981D01*
X17534463Y40296634D01*
X17546366Y40300681D01*
X17549088Y40302469D01*
X17552119Y40303678D01*
X17562253Y40311113D01*
X17572747Y40318003D01*
X17574938Y40320419D01*
X17577566Y40322347D01*
X17581769Y40327494D01*
X18782978Y40327494D01*
X18795428Y40329078D01*
X18807966Y40330016D01*
X18811059Y40331069D01*
X18811997Y40331188D01*
X18831534Y40327663D01*
X18835456Y40327956D01*
X18838019Y40327494D01*
X20004494Y40327494D01*
X20004494Y40292453D01*
X20005875Y40281597D01*
X20006409Y40270650D01*
X20007863Y40265984D01*
X20008478Y40261147D01*
X20012538Y40250975D01*
X20015794Y40240519D01*
X20017947Y40237419D01*
X20020175Y40231834D01*
X20038844Y40206388D01*
X20040341Y40205166D01*
X20041106Y40204063D01*
X20176116Y40069056D01*
X20252997Y39883450D01*
X20252997Y37077547D01*
X20176113Y36891934D01*
X20041109Y36756931D01*
X20034403Y36748269D01*
X20027047Y36740159D01*
X20024781Y36735844D01*
X20021788Y36731978D01*
X20017466Y36721913D01*
X20012375Y36712219D01*
X20011703Y36708494D01*
X20009334Y36702978D01*
X20004538Y36671788D01*
X20004734Y36669853D01*
X20004497Y36668544D01*
X20004497Y36632500D01*
X18838019Y36632500D01*
X18825569Y36630916D01*
X18813031Y36629978D01*
X18809938Y36628925D01*
X18809000Y36628806D01*
X18789463Y36632331D01*
G37*
%LPD*%
%LPC*%
G36*
X18789463Y44632331D02*
X18789463Y44632331D01*
X18785541Y44632038D01*
X18782978Y44632500D01*
X17592894Y44632500D01*
X17586494Y44642247D01*
X17584078Y44644438D01*
X17582150Y44647066D01*
X17572413Y44655016D01*
X17563116Y44663450D01*
X17560238Y44664963D01*
X17557706Y44667028D01*
X17546294Y44672284D01*
X17535175Y44678122D01*
X17532609Y44678584D01*
X17529041Y44680228D01*
X17497984Y44685831D01*
X17494063Y44685538D01*
X17491500Y44686000D01*
X14446997Y44686000D01*
X14434547Y44684416D01*
X14422009Y44683478D01*
X14418916Y44682425D01*
X14415691Y44682016D01*
X14404034Y44677363D01*
X14392131Y44673316D01*
X14389409Y44671528D01*
X14386378Y44670319D01*
X14376244Y44662884D01*
X14365750Y44655994D01*
X14363559Y44653578D01*
X14360931Y44651650D01*
X14352981Y44641913D01*
X14344547Y44632616D01*
X14344488Y44632500D01*
X13420519Y44632500D01*
X13408069Y44630916D01*
X13395531Y44629978D01*
X13392438Y44628925D01*
X13391500Y44628806D01*
X13371963Y44632331D01*
X13368041Y44632038D01*
X13365478Y44632500D01*
X11605519Y44632500D01*
X11593069Y44630916D01*
X11580531Y44629978D01*
X11577438Y44628925D01*
X11576500Y44628806D01*
X11556963Y44632331D01*
X11553041Y44632038D01*
X11550478Y44632500D01*
X10563047Y44632500D01*
X10562416Y44637450D01*
X10561478Y44649988D01*
X10560425Y44653081D01*
X10560016Y44656306D01*
X10555363Y44667963D01*
X10551316Y44679866D01*
X10549528Y44682588D01*
X10548319Y44685619D01*
X10540884Y44695753D01*
X10533994Y44706247D01*
X10531578Y44708438D01*
X10529650Y44711066D01*
X10519913Y44719016D01*
X10510616Y44727450D01*
X10507738Y44728963D01*
X10505206Y44731028D01*
X10493794Y44736284D01*
X10482675Y44742122D01*
X10480109Y44742584D01*
X10476541Y44744228D01*
X10445484Y44749831D01*
X10441563Y44749538D01*
X10439000Y44750000D01*
X9150541Y44750000D01*
X8966772Y44826119D01*
X8368503Y45424388D01*
X8359841Y45431094D01*
X8351731Y45438450D01*
X8347416Y45440716D01*
X8343550Y45443709D01*
X8333484Y45448031D01*
X8323791Y45453122D01*
X8320066Y45453794D01*
X8314550Y45456163D01*
X8283359Y45460959D01*
X8281425Y45460763D01*
X8280116Y45461000D01*
X6741969Y45461000D01*
X6278131Y45653125D01*
X5923125Y46008131D01*
X5731000Y46471969D01*
X5731000Y46974028D01*
X5923125Y47437866D01*
X6278131Y47792872D01*
X6482481Y47877513D01*
X6494791Y47884547D01*
X6507266Y47891256D01*
X6508456Y47892356D01*
X6509881Y47893172D01*
X6520078Y47903106D01*
X6530434Y47912688D01*
X6531316Y47914056D01*
X6532484Y47915197D01*
X6539819Y47927288D01*
X6547497Y47939238D01*
X6548009Y47940797D01*
X6548850Y47942181D01*
X6552913Y47955694D01*
X6557363Y47969213D01*
X6557469Y47970844D01*
X6557938Y47972403D01*
X6558488Y47986516D01*
X6559409Y48000706D01*
X6559103Y48002316D01*
X6559166Y48003938D01*
X6556166Y48017738D01*
X6553503Y48031709D01*
X6552806Y48033184D01*
X6552459Y48034778D01*
X6546066Y48047447D01*
X6540019Y48060241D01*
X6538978Y48061491D01*
X6538241Y48062950D01*
X6528925Y48073559D01*
X6519819Y48084491D01*
X6518688Y48085219D01*
X6517416Y48086666D01*
X6491319Y48104413D01*
X6485656Y48106441D01*
X6482481Y48108481D01*
X6278131Y48193125D01*
X5923125Y48548131D01*
X5731000Y49011969D01*
X5731000Y49514028D01*
X5923125Y49977866D01*
X6278131Y50332872D01*
X6741969Y50524997D01*
X8266119Y50524997D01*
X8276975Y50526378D01*
X8287922Y50526913D01*
X8292588Y50528366D01*
X8297425Y50528981D01*
X8307597Y50533041D01*
X8318053Y50536297D01*
X8321153Y50538450D01*
X8326738Y50540678D01*
X8352184Y50559347D01*
X8353413Y50560850D01*
X8354506Y50561609D01*
X8966772Y51173878D01*
X9150541Y51249997D01*
X10439000Y51249997D01*
X10451450Y51251581D01*
X10463988Y51252519D01*
X10467081Y51253572D01*
X10470306Y51253981D01*
X10481963Y51258634D01*
X10493866Y51262681D01*
X10496588Y51264469D01*
X10499619Y51265678D01*
X10509753Y51273113D01*
X10520247Y51280003D01*
X10522438Y51282419D01*
X10525066Y51284347D01*
X10533016Y51294084D01*
X10541450Y51303381D01*
X10542963Y51306259D01*
X10545028Y51308791D01*
X10550284Y51320203D01*
X10554113Y51327494D01*
X11550478Y51327494D01*
X11562928Y51329078D01*
X11575466Y51330016D01*
X11578559Y51331069D01*
X11579497Y51331188D01*
X11599034Y51327663D01*
X11602956Y51327956D01*
X11605519Y51327494D01*
X13365478Y51327494D01*
X13377928Y51329078D01*
X13390466Y51330016D01*
X13393559Y51331069D01*
X13394497Y51331188D01*
X13414034Y51327663D01*
X13417956Y51327956D01*
X13420519Y51327494D01*
X14354834Y51327494D01*
X14356347Y51325431D01*
X14366084Y51317481D01*
X14375381Y51309047D01*
X14378259Y51307534D01*
X14380791Y51305469D01*
X14392203Y51300213D01*
X14403322Y51294375D01*
X14405888Y51293913D01*
X14409456Y51292269D01*
X14440513Y51286666D01*
X14444434Y51286959D01*
X14446997Y51286497D01*
X17491500Y51286497D01*
X17503950Y51288081D01*
X17516488Y51289019D01*
X17519581Y51290072D01*
X17522806Y51290481D01*
X17534463Y51295134D01*
X17546366Y51299181D01*
X17549088Y51300969D01*
X17552119Y51302178D01*
X17562253Y51309613D01*
X17572747Y51316503D01*
X17574938Y51318919D01*
X17577566Y51320847D01*
X17582994Y51327494D01*
X18782978Y51327494D01*
X18795428Y51329078D01*
X18807966Y51330016D01*
X18811059Y51331069D01*
X18811997Y51331188D01*
X18831534Y51327663D01*
X18835456Y51327956D01*
X18838019Y51327494D01*
X20004494Y51327494D01*
X20004494Y51289881D01*
X20005875Y51279025D01*
X20006409Y51268078D01*
X20007863Y51263413D01*
X20008478Y51258575D01*
X20012534Y51248409D01*
X20015794Y51237944D01*
X20017950Y51234838D01*
X20020175Y51229263D01*
X20038844Y51203816D01*
X20040341Y51202594D01*
X20041106Y51201491D01*
X20174381Y51068219D01*
X20251497Y50882044D01*
X20251497Y48068547D01*
X20237722Y48035294D01*
X20234841Y48024722D01*
X20231147Y48014413D01*
X20230706Y48009553D01*
X20229422Y48004847D01*
X20229281Y47993891D01*
X20228288Y47982984D01*
X20229091Y47979294D01*
X20229013Y47973291D01*
X20236519Y47942634D01*
X20237438Y47940925D01*
X20237722Y47939619D01*
X20252497Y47903950D01*
X20252497Y45081138D01*
X20251881Y45078881D01*
X20174378Y44891772D01*
X20041109Y44758503D01*
X20034394Y44749831D01*
X20027047Y44741731D01*
X20024781Y44737416D01*
X20021788Y44733550D01*
X20017466Y44723484D01*
X20012375Y44713791D01*
X20011703Y44710066D01*
X20009334Y44704550D01*
X20004538Y44673359D01*
X20004734Y44671425D01*
X20004497Y44670116D01*
X20004497Y44632500D01*
X18838019Y44632500D01*
X18825569Y44630916D01*
X18813031Y44629978D01*
X18809938Y44628925D01*
X18809000Y44628806D01*
X18789463Y44632331D01*
G37*
%LPD*%
%LPC*%
G36*
X7197644Y8666500D02*
X7197644Y8666500D01*
X6416500Y9447644D01*
X6416500Y10552353D01*
X7197644Y11333497D01*
X7251000Y11333497D01*
X7263450Y11335081D01*
X7275988Y11336019D01*
X7279081Y11337072D01*
X7282306Y11337481D01*
X7293963Y11342134D01*
X7305866Y11346181D01*
X7308588Y11347969D01*
X7311619Y11349178D01*
X7321753Y11356613D01*
X7332247Y11363503D01*
X7334438Y11365919D01*
X7337066Y11367847D01*
X7345016Y11377584D01*
X7353450Y11386881D01*
X7354963Y11389759D01*
X7357028Y11392291D01*
X7362284Y11403703D01*
X7368122Y11414822D01*
X7368584Y11417388D01*
X7370228Y11420956D01*
X7375831Y11452013D01*
X7375538Y11455934D01*
X7376000Y11458497D01*
X7376000Y11614000D01*
X7374416Y11626450D01*
X7373478Y11638988D01*
X7372425Y11642081D01*
X7372016Y11645306D01*
X7367363Y11656963D01*
X7363316Y11668866D01*
X7361528Y11671588D01*
X7360319Y11674619D01*
X7352884Y11684753D01*
X7345994Y11695247D01*
X7343578Y11697438D01*
X7341650Y11700066D01*
X7331913Y11708016D01*
X7322616Y11716450D01*
X7319738Y11717963D01*
X7317206Y11720028D01*
X7305794Y11725284D01*
X7294675Y11731122D01*
X7292109Y11731584D01*
X7288541Y11733228D01*
X7257484Y11738831D01*
X7253563Y11738538D01*
X7251000Y11739000D01*
X6790900Y11739000D01*
X6417481Y11893675D01*
X6131675Y12179481D01*
X5977000Y12552900D01*
X5977000Y12957097D01*
X6131675Y13330516D01*
X6417481Y13616322D01*
X6790900Y13770997D01*
X8610013Y13770997D01*
X8620869Y13772378D01*
X8631816Y13772913D01*
X8636481Y13774366D01*
X8641319Y13774981D01*
X8651491Y13779041D01*
X8661947Y13782297D01*
X8665047Y13784450D01*
X8670631Y13786678D01*
X8696078Y13805347D01*
X8697306Y13806850D01*
X8698400Y13807609D01*
X8802403Y13911613D01*
X8810078Y13921525D01*
X8818291Y13931066D01*
X8819731Y13933991D01*
X8821725Y13936566D01*
X8826684Y13948116D01*
X8832231Y13959381D01*
X8832894Y13962572D01*
X8834178Y13965566D01*
X8836088Y13977984D01*
X8838638Y13990281D01*
X8838478Y13993531D01*
X8838975Y13996756D01*
X8837713Y14009263D01*
X8837100Y14021803D01*
X8836131Y14024916D01*
X8835803Y14028156D01*
X8831456Y14039925D01*
X8827716Y14051938D01*
X8826231Y14054078D01*
X8824869Y14057763D01*
X8806869Y14083684D01*
X8803891Y14086247D01*
X8802403Y14088391D01*
X8709391Y14181400D01*
X8648406Y14242388D01*
X8639731Y14249103D01*
X8631631Y14256450D01*
X8627316Y14258716D01*
X8623453Y14261706D01*
X8613391Y14266028D01*
X8603691Y14271122D01*
X8599969Y14271794D01*
X8594453Y14274163D01*
X8563263Y14278959D01*
X8561325Y14278763D01*
X8560016Y14279000D01*
X6790900Y14279000D01*
X6417481Y14433675D01*
X6131675Y14719481D01*
X5977000Y15092900D01*
X5977000Y15497097D01*
X6131675Y15870516D01*
X6417481Y16156322D01*
X6790900Y16310997D01*
X8719097Y16310997D01*
X8833734Y16263513D01*
X8835900Y16262922D01*
X8837894Y16261875D01*
X8843353Y16260891D01*
X8864181Y16255213D01*
X8875656Y16255063D01*
X8881569Y16253997D01*
X9105209Y16253997D01*
X9318597Y16040609D01*
X9327259Y16033903D01*
X9335369Y16026547D01*
X9339684Y16024281D01*
X9343550Y16021288D01*
X9353616Y16016966D01*
X9363309Y16011875D01*
X9367034Y16011203D01*
X9372550Y16008834D01*
X9403741Y16004038D01*
X9405675Y16004234D01*
X9406984Y16003997D01*
X10439000Y16003997D01*
X10451450Y16005581D01*
X10463988Y16006519D01*
X10467081Y16007572D01*
X10470306Y16007981D01*
X10481963Y16012634D01*
X10493866Y16016681D01*
X10496588Y16018469D01*
X10499619Y16019678D01*
X10509753Y16027113D01*
X10520247Y16034003D01*
X10522438Y16036419D01*
X10525066Y16038347D01*
X10533016Y16048084D01*
X10541450Y16057381D01*
X10542963Y16060259D01*
X10545028Y16062791D01*
X10550284Y16074203D01*
X10556122Y16085322D01*
X10556584Y16087888D01*
X10558228Y16091456D01*
X10563831Y16122513D01*
X10563538Y16126434D01*
X10564000Y16128997D01*
X10564000Y16170000D01*
X14322188Y16170000D01*
X14323581Y16159047D01*
X14324519Y16146509D01*
X14325572Y16143416D01*
X14325981Y16140191D01*
X14330634Y16128534D01*
X14334681Y16116631D01*
X14336469Y16113909D01*
X14337678Y16110878D01*
X14345113Y16100744D01*
X14352003Y16090250D01*
X14354419Y16088059D01*
X14356347Y16085431D01*
X14366084Y16077481D01*
X14375381Y16069047D01*
X14378259Y16067534D01*
X14380791Y16065469D01*
X14392203Y16060213D01*
X14403322Y16054375D01*
X14405888Y16053913D01*
X14409456Y16052269D01*
X14440513Y16046666D01*
X14444434Y16046959D01*
X14446997Y16046497D01*
X17491500Y16046497D01*
X17503950Y16048081D01*
X17516488Y16049019D01*
X17519581Y16050072D01*
X17522806Y16050481D01*
X17534463Y16055134D01*
X17546366Y16059181D01*
X17549088Y16060969D01*
X17552119Y16062178D01*
X17562253Y16069613D01*
X17572747Y16076503D01*
X17574938Y16078919D01*
X17577566Y16080847D01*
X17585516Y16090584D01*
X17593950Y16099881D01*
X17595463Y16102759D01*
X17597528Y16105291D01*
X17602784Y16116703D01*
X17608622Y16127822D01*
X17609084Y16130388D01*
X17610728Y16133956D01*
X17616331Y16165013D01*
X17616038Y16168934D01*
X17616231Y16170000D01*
X20004497Y16170000D01*
X20004497Y16141556D01*
X19987188Y16076963D01*
X19975531Y16056775D01*
X19970875Y16045672D01*
X19965566Y16034888D01*
X19964794Y16031172D01*
X19963328Y16027672D01*
X19961603Y16015769D01*
X19959159Y16003984D01*
X19959344Y16000194D01*
X19958800Y15996441D01*
X19960109Y15984497D01*
X19960697Y15972463D01*
X19961828Y15968831D01*
X19962241Y15965069D01*
X19966494Y15953850D01*
X19970081Y15942331D01*
X19971797Y15939859D01*
X19973428Y15935559D01*
X19991650Y15909791D01*
X19994147Y15907678D01*
X19995397Y15905878D01*
X20006497Y15894778D01*
X20006497Y14067156D01*
X20000744Y14059728D01*
X19992525Y14050178D01*
X19991084Y14047253D01*
X19989094Y14044681D01*
X19984131Y14033128D01*
X19978588Y14021863D01*
X19977928Y14018678D01*
X19976641Y14015681D01*
X19974728Y14003244D01*
X19972181Y13990959D01*
X19972341Y13987716D01*
X19971844Y13984491D01*
X19973106Y13971991D01*
X19973719Y13959438D01*
X19974691Y13956322D01*
X19975016Y13953091D01*
X19979366Y13941313D01*
X19983106Y13929306D01*
X19984588Y13927172D01*
X19985950Y13923484D01*
X20003950Y13897563D01*
X20006497Y13895369D01*
X20006497Y12067716D01*
X19994481Y12055700D01*
X19987119Y12046194D01*
X19979194Y12037144D01*
X19977488Y12033756D01*
X19975159Y12030747D01*
X19970409Y12019684D01*
X19965009Y12008953D01*
X19964206Y12005238D01*
X19962706Y12001747D01*
X19960878Y11989866D01*
X19958334Y11978106D01*
X19958488Y11974309D01*
X19957909Y11970556D01*
X19959119Y11958597D01*
X19959600Y11946572D01*
X19960619Y11943741D01*
X19961081Y11939156D01*
X19972016Y11909550D01*
X19973872Y11906875D01*
X19974616Y11904809D01*
X19987191Y11883031D01*
X20004497Y11818441D01*
X20004497Y11792500D01*
X17616309Y11792500D01*
X17614916Y11803450D01*
X17613978Y11815988D01*
X17612925Y11819081D01*
X17612516Y11822306D01*
X17607863Y11833963D01*
X17603816Y11845866D01*
X17602028Y11848588D01*
X17600819Y11851619D01*
X17593384Y11861753D01*
X17586494Y11872247D01*
X17584078Y11874438D01*
X17582150Y11877066D01*
X17572413Y11885016D01*
X17563116Y11893450D01*
X17560238Y11894963D01*
X17557706Y11897028D01*
X17546294Y11902284D01*
X17535175Y11908122D01*
X17532609Y11908584D01*
X17529041Y11910228D01*
X17497984Y11915831D01*
X17494063Y11915538D01*
X17491500Y11916000D01*
X14446997Y11916000D01*
X14434547Y11914416D01*
X14422009Y11913478D01*
X14418916Y11912425D01*
X14415691Y11912016D01*
X14404034Y11907363D01*
X14392131Y11903316D01*
X14389409Y11901528D01*
X14386378Y11900319D01*
X14376244Y11892884D01*
X14365750Y11885994D01*
X14363559Y11883578D01*
X14360931Y11881650D01*
X14352981Y11871913D01*
X14344547Y11862616D01*
X14343034Y11859738D01*
X14340969Y11857206D01*
X14335713Y11845794D01*
X14329875Y11834675D01*
X14329413Y11832109D01*
X14327769Y11828541D01*
X14322166Y11797484D01*
X14322459Y11793563D01*
X14322269Y11792500D01*
X10564000Y11792500D01*
X10564000Y11818434D01*
X10569416Y11838644D01*
X10571184Y11851638D01*
X10573506Y11864516D01*
X10573303Y11867228D01*
X10573669Y11869916D01*
X10572131Y11882906D01*
X10571153Y11895988D01*
X10570278Y11898559D01*
X10569959Y11901256D01*
X10565203Y11913478D01*
X10560991Y11925866D01*
X10559503Y11928131D01*
X10558516Y11930669D01*
X10550853Y11941306D01*
X10543669Y11952247D01*
X10541653Y11954075D01*
X10540069Y11956275D01*
X10530000Y11964644D01*
X10520291Y11973450D01*
X10517888Y11974713D01*
X10515800Y11976447D01*
X10503947Y11982031D01*
X10492350Y11988122D01*
X10490200Y11988509D01*
X10487250Y11989900D01*
X10456241Y11995772D01*
X10451628Y11995466D01*
X10448675Y11996000D01*
X9406984Y11996000D01*
X9396128Y11994619D01*
X9385181Y11994084D01*
X9380516Y11992631D01*
X9375678Y11992016D01*
X9365506Y11987956D01*
X9355050Y11984700D01*
X9351950Y11982547D01*
X9346366Y11980319D01*
X9320919Y11961650D01*
X9319691Y11960147D01*
X9318597Y11959388D01*
X9105209Y11746000D01*
X8760856Y11746000D01*
X8758619Y11745716D01*
X8756378Y11745919D01*
X8750972Y11744741D01*
X8729550Y11742016D01*
X8721994Y11739000D01*
X8258997Y11739000D01*
X8246547Y11737416D01*
X8234009Y11736478D01*
X8230916Y11735425D01*
X8227691Y11735016D01*
X8216034Y11730363D01*
X8204131Y11726316D01*
X8201409Y11724528D01*
X8198378Y11723319D01*
X8188244Y11715884D01*
X8177750Y11708994D01*
X8175559Y11706578D01*
X8172931Y11704650D01*
X8164981Y11694913D01*
X8156547Y11685616D01*
X8155034Y11682738D01*
X8152969Y11680206D01*
X8147713Y11668794D01*
X8141875Y11657675D01*
X8141413Y11655109D01*
X8139769Y11651541D01*
X8134166Y11620484D01*
X8134459Y11616563D01*
X8133997Y11614000D01*
X8133997Y11458497D01*
X8135581Y11446047D01*
X8136519Y11433509D01*
X8137572Y11430416D01*
X8137981Y11427191D01*
X8142634Y11415534D01*
X8146681Y11403631D01*
X8148469Y11400909D01*
X8149678Y11397878D01*
X8157113Y11387744D01*
X8164003Y11377250D01*
X8166419Y11375059D01*
X8168347Y11372431D01*
X8178084Y11364481D01*
X8187381Y11356047D01*
X8190259Y11354534D01*
X8192791Y11352469D01*
X8204203Y11347213D01*
X8215322Y11341375D01*
X8217888Y11340913D01*
X8221456Y11339269D01*
X8252513Y11333666D01*
X8256434Y11333959D01*
X8258997Y11333497D01*
X8302353Y11333497D01*
X9083497Y10552353D01*
X9083497Y9447644D01*
X8302353Y8666500D01*
X7197644Y8666500D01*
G37*
%LPD*%
%LPC*%
G36*
X5900541Y17000000D02*
X5900541Y17000000D01*
X5716772Y17076119D01*
X5576119Y17216772D01*
X5500000Y17400541D01*
X5500000Y19099456D01*
X5576119Y19283225D01*
X5716772Y19423878D01*
X5900541Y19499997D01*
X6482925Y19499997D01*
X6485159Y19500281D01*
X6487394Y19500078D01*
X6492794Y19501253D01*
X6514231Y19503981D01*
X6524897Y19508238D01*
X6530759Y19509513D01*
X6741969Y19596997D01*
X8768028Y19596997D01*
X8777038Y19593266D01*
X8780769Y19592247D01*
X8784250Y19590534D01*
X8795966Y19588106D01*
X8807484Y19584966D01*
X8811356Y19584916D01*
X8815153Y19584128D01*
X8827106Y19584713D01*
X8839044Y19584556D01*
X8842803Y19585478D01*
X8846675Y19585666D01*
X8858081Y19589219D01*
X8869697Y19592063D01*
X8873116Y19593900D01*
X8876806Y19595050D01*
X8882138Y19598753D01*
X8897494Y19607009D01*
X8907919Y19616653D01*
X8913259Y19620363D01*
X9011863Y19718966D01*
X9013209Y19720703D01*
X9014909Y19722119D01*
X9022859Y19733166D01*
X9031184Y19743919D01*
X9032056Y19745950D01*
X9033341Y19747734D01*
X9038266Y19760409D01*
X9043638Y19772919D01*
X9043972Y19775094D01*
X9044772Y19777153D01*
X9046363Y19790638D01*
X9048434Y19804109D01*
X9048213Y19806316D01*
X9048469Y19808494D01*
X9046634Y19821938D01*
X9045263Y19835509D01*
X9044497Y19837578D01*
X9044200Y19839763D01*
X9039047Y19852341D01*
X9034328Y19865116D01*
X9033069Y19866928D01*
X9032234Y19868966D01*
X9024084Y19879869D01*
X9016328Y19891038D01*
X9014663Y19892472D01*
X9013338Y19894244D01*
X9002691Y19902778D01*
X8992409Y19911628D01*
X8990438Y19912600D01*
X8988713Y19913981D01*
X8976297Y19919563D01*
X8964097Y19925569D01*
X8961934Y19926016D01*
X8959928Y19926919D01*
X8946556Y19929206D01*
X8933194Y19931975D01*
X8930984Y19931869D01*
X8928819Y19932238D01*
X8923394Y19931497D01*
X8901672Y19930438D01*
X8890775Y19927044D01*
X8884847Y19926234D01*
X8754925Y19884019D01*
X8596953Y19859000D01*
X8004994Y19859000D01*
X8004994Y20625000D01*
X9504056Y20625000D01*
X9465763Y20507150D01*
X9465350Y20504981D01*
X9464481Y20502956D01*
X9462416Y20489519D01*
X9459875Y20476144D01*
X9460019Y20473944D01*
X9459684Y20471766D01*
X9461053Y20458225D01*
X9461944Y20444653D01*
X9462634Y20442559D01*
X9462856Y20440366D01*
X9467575Y20427594D01*
X9471834Y20414681D01*
X9473025Y20412828D01*
X9473791Y20410759D01*
X9481544Y20399597D01*
X9488913Y20388144D01*
X9490538Y20386644D01*
X9491791Y20384838D01*
X9502069Y20375988D01*
X9512094Y20366728D01*
X9514041Y20365684D01*
X9515709Y20364247D01*
X9527916Y20358238D01*
X9539903Y20351803D01*
X9542044Y20351281D01*
X9544022Y20350306D01*
X9557359Y20347541D01*
X9570559Y20344319D01*
X9572759Y20344350D01*
X9574925Y20343900D01*
X9588550Y20344566D01*
X9602116Y20344750D01*
X9604238Y20345328D01*
X9606447Y20345438D01*
X9619478Y20349497D01*
X9632559Y20353072D01*
X9634469Y20354166D01*
X9636578Y20354822D01*
X9641094Y20357956D01*
X9659947Y20368750D01*
X9668119Y20376725D01*
X9673031Y20380134D01*
X10308538Y21015644D01*
X10462894Y21170000D01*
X10493825Y21170000D01*
X10496031Y21171656D01*
X10497359Y21171466D01*
X10610891Y21284997D01*
X14275106Y21284997D01*
X14388638Y21171466D01*
X14391366Y21171075D01*
X14392172Y21170000D01*
X17546325Y21170000D01*
X17548531Y21171656D01*
X17549859Y21171466D01*
X17663391Y21284997D01*
X19957606Y21284997D01*
X20071138Y21171466D01*
X20073866Y21171075D01*
X20074672Y21170000D01*
X20077169Y21170000D01*
X20175616Y21071556D01*
X20252497Y20885950D01*
X20252497Y18072547D01*
X20175616Y17886941D01*
X20081172Y17792500D01*
X20077172Y17792500D01*
X20074966Y17790844D01*
X20073638Y17791034D01*
X19957606Y17675000D01*
X17663391Y17675000D01*
X17547359Y17791034D01*
X17544631Y17791425D01*
X17543825Y17792500D01*
X14394672Y17792500D01*
X14392466Y17790844D01*
X14391138Y17791034D01*
X14275106Y17675000D01*
X10610891Y17675000D01*
X10494859Y17791034D01*
X10492131Y17791425D01*
X10491325Y17792500D01*
X10312500Y17792500D01*
X10307700Y17788900D01*
X10308300Y17788100D01*
X10307500Y17787500D01*
X10307500Y17750000D01*
X10008881Y17750000D01*
X9998025Y17748619D01*
X9987078Y17748084D01*
X9982413Y17746631D01*
X9977575Y17746016D01*
X9967403Y17741956D01*
X9956947Y17738700D01*
X9953847Y17736547D01*
X9948263Y17734319D01*
X9922816Y17715650D01*
X9921588Y17714147D01*
X9920494Y17713388D01*
X9283225Y17076119D01*
X9099456Y17000000D01*
X5900541Y17000000D01*
G37*
%LPD*%
%LPC*%
G36*
X10564000Y22792500D02*
X10564000Y22792500D01*
X10564000Y22818441D01*
X10581306Y22883031D01*
X10595372Y22907391D01*
X10600025Y22918488D01*
X10605334Y22929272D01*
X10606106Y22932991D01*
X10607575Y22936497D01*
X10609300Y22948400D01*
X10611741Y22960175D01*
X10611556Y22963969D01*
X10612100Y22967728D01*
X10610791Y22979678D01*
X10610203Y22991697D01*
X10609075Y22995316D01*
X10608659Y22999100D01*
X10604397Y23010344D01*
X10600819Y23021828D01*
X10599103Y23024297D01*
X10597469Y23028609D01*
X10579247Y23054375D01*
X10576753Y23056484D01*
X10575506Y23058281D01*
X10564000Y23069788D01*
X10564000Y23890206D01*
X10565400Y23891606D01*
X10573081Y23901528D01*
X10581291Y23911063D01*
X10582731Y23913991D01*
X10584722Y23916559D01*
X10589659Y23928056D01*
X10595231Y23939375D01*
X10595891Y23942563D01*
X10597178Y23945556D01*
X10599084Y23957966D01*
X10601638Y23970278D01*
X10601478Y23973541D01*
X10601972Y23976750D01*
X10600713Y23989219D01*
X10600100Y24001800D01*
X10599128Y24004916D01*
X10598803Y24008150D01*
X10594453Y24019928D01*
X10590716Y24031931D01*
X10589234Y24034066D01*
X10587872Y24037753D01*
X10569872Y24063678D01*
X10566888Y24066250D01*
X10565403Y24068384D01*
X10564000Y24069788D01*
X10564000Y24890209D01*
X10565403Y24891613D01*
X10573103Y24901556D01*
X10581291Y24911069D01*
X10582725Y24913984D01*
X10584725Y24916566D01*
X10589694Y24928138D01*
X10595231Y24939384D01*
X10595891Y24942569D01*
X10597178Y24945566D01*
X10599091Y24957997D01*
X10601638Y24970284D01*
X10601478Y24973528D01*
X10601975Y24976756D01*
X10600713Y24989259D01*
X10600100Y25001806D01*
X10599131Y25004919D01*
X10598803Y25008156D01*
X10594450Y25019941D01*
X10590713Y25031941D01*
X10589231Y25034075D01*
X10587869Y25037763D01*
X10569869Y25063684D01*
X10566884Y25066253D01*
X10565400Y25068391D01*
X10564000Y25069791D01*
X10564000Y25890206D01*
X10565400Y25891606D01*
X10573081Y25901528D01*
X10581291Y25911063D01*
X10582731Y25913991D01*
X10584722Y25916559D01*
X10589659Y25928056D01*
X10595231Y25939375D01*
X10595891Y25942563D01*
X10597178Y25945556D01*
X10599084Y25957966D01*
X10601638Y25970278D01*
X10601478Y25973541D01*
X10601972Y25976750D01*
X10600716Y25989203D01*
X10600100Y26001800D01*
X10599128Y26004916D01*
X10598803Y26008150D01*
X10594453Y26019928D01*
X10590716Y26031931D01*
X10589234Y26034066D01*
X10587872Y26037753D01*
X10569872Y26063678D01*
X10566888Y26066250D01*
X10565403Y26068384D01*
X10564000Y26069788D01*
X10564000Y26890206D01*
X10575506Y26901713D01*
X10582875Y26911228D01*
X10590800Y26920278D01*
X10592503Y26923663D01*
X10594828Y26926666D01*
X10599588Y26937744D01*
X10604984Y26948472D01*
X10605784Y26952172D01*
X10607284Y26955663D01*
X10609116Y26967569D01*
X10611656Y26979316D01*
X10611503Y26983103D01*
X10612081Y26986856D01*
X10610872Y26998841D01*
X10610388Y27010850D01*
X10609372Y27013672D01*
X10608909Y27018256D01*
X10597978Y27047863D01*
X10596109Y27050553D01*
X10595369Y27052613D01*
X10581309Y27076959D01*
X10564000Y27141556D01*
X10564000Y27170000D01*
X14321997Y27170000D01*
X14321997Y27133997D01*
X14323581Y27121547D01*
X14324519Y27109009D01*
X14325572Y27105916D01*
X14325981Y27102691D01*
X14330634Y27091034D01*
X14334681Y27079131D01*
X14336469Y27076409D01*
X14337678Y27073378D01*
X14345113Y27063244D01*
X14352003Y27052750D01*
X14354419Y27050559D01*
X14356347Y27047931D01*
X14366084Y27039981D01*
X14375381Y27031547D01*
X14378259Y27030034D01*
X14380791Y27027969D01*
X14392203Y27022713D01*
X14403322Y27016875D01*
X14405888Y27016413D01*
X14409456Y27014769D01*
X14440513Y27009166D01*
X14444434Y27009459D01*
X14446997Y27008997D01*
X17491500Y27008997D01*
X17503950Y27010581D01*
X17516488Y27011519D01*
X17519581Y27012572D01*
X17522806Y27012981D01*
X17534463Y27017634D01*
X17546366Y27021681D01*
X17549088Y27023469D01*
X17552119Y27024678D01*
X17562253Y27032113D01*
X17572747Y27039003D01*
X17574938Y27041419D01*
X17577566Y27043347D01*
X17585516Y27053084D01*
X17593950Y27062381D01*
X17595463Y27065259D01*
X17597528Y27067791D01*
X17602784Y27079203D01*
X17608622Y27090322D01*
X17609084Y27092888D01*
X17610728Y27096456D01*
X17616331Y27127513D01*
X17616225Y27128925D01*
X17616331Y27129513D01*
X17616144Y27132022D01*
X17616500Y27133997D01*
X17616500Y27170000D01*
X20004497Y27170000D01*
X20004497Y27141556D01*
X19987191Y27076966D01*
X19973125Y27052606D01*
X19968472Y27041509D01*
X19963163Y27030725D01*
X19962391Y27027006D01*
X19960922Y27023500D01*
X19959197Y27011597D01*
X19956756Y26999822D01*
X19956941Y26996028D01*
X19956397Y26992269D01*
X19957706Y26980319D01*
X19958294Y26968300D01*
X19959422Y26964672D01*
X19959838Y26960897D01*
X19964100Y26949653D01*
X19967678Y26938169D01*
X19969394Y26935700D01*
X19971028Y26931388D01*
X19989250Y26905622D01*
X19991744Y26903513D01*
X19992991Y26901716D01*
X20007903Y26886803D01*
X20008481Y26882250D01*
X20008997Y26880959D01*
X20008997Y26118681D01*
X20004538Y26089684D01*
X20004734Y26087750D01*
X20004497Y26086441D01*
X20004497Y26069788D01*
X20003094Y26068384D01*
X19995394Y26058441D01*
X19987206Y26048928D01*
X19985772Y26046013D01*
X19983772Y26043431D01*
X19978803Y26031859D01*
X19973266Y26020613D01*
X19972606Y26017428D01*
X19971319Y26014431D01*
X19969406Y26002000D01*
X19966859Y25989713D01*
X19967019Y25986466D01*
X19966522Y25983241D01*
X19967784Y25970738D01*
X19968397Y25958191D01*
X19969366Y25955078D01*
X19969694Y25951841D01*
X19974047Y25940056D01*
X19977784Y25928056D01*
X19979266Y25925922D01*
X19980628Y25922234D01*
X19998628Y25896313D01*
X20001613Y25893744D01*
X20003097Y25891606D01*
X20007903Y25886800D01*
X20008481Y25882250D01*
X20008997Y25880959D01*
X20008997Y25118650D01*
X20004541Y25089731D01*
X20004738Y25087775D01*
X20004497Y25086444D01*
X20004497Y25069791D01*
X20003097Y25068391D01*
X19995416Y25058469D01*
X19987206Y25048934D01*
X19985766Y25046006D01*
X19983775Y25043438D01*
X19978819Y25031900D01*
X19973266Y25020622D01*
X19972606Y25017434D01*
X19971319Y25014441D01*
X19969413Y25002031D01*
X19966859Y24989719D01*
X19967019Y24986456D01*
X19966525Y24983247D01*
X19967784Y24970778D01*
X19968397Y24958197D01*
X19969369Y24955081D01*
X19969694Y24951847D01*
X19974044Y24940069D01*
X19977781Y24928066D01*
X19979263Y24925931D01*
X19980625Y24922244D01*
X19998625Y24896319D01*
X20001609Y24893747D01*
X20003094Y24891613D01*
X20007900Y24886806D01*
X20008481Y24882247D01*
X20008997Y24880956D01*
X20008997Y24118650D01*
X20004541Y24089731D01*
X20004738Y24087775D01*
X20004497Y24086444D01*
X20004497Y24069788D01*
X20003094Y24068384D01*
X19995394Y24058441D01*
X19987206Y24048928D01*
X19985772Y24046013D01*
X19983772Y24043431D01*
X19978803Y24031859D01*
X19973266Y24020613D01*
X19972606Y24017428D01*
X19971319Y24014431D01*
X19969406Y24002000D01*
X19966859Y23989713D01*
X19967019Y23986466D01*
X19966522Y23983241D01*
X19967784Y23970738D01*
X19968397Y23958191D01*
X19969366Y23955078D01*
X19969694Y23951841D01*
X19974047Y23940056D01*
X19977784Y23928056D01*
X19979266Y23925922D01*
X19980628Y23922234D01*
X19998628Y23896313D01*
X20001613Y23893744D01*
X20003097Y23891606D01*
X20007903Y23886800D01*
X20008481Y23882250D01*
X20008997Y23880959D01*
X20008997Y23118681D01*
X20004538Y23089684D01*
X20004734Y23087750D01*
X20004497Y23086441D01*
X20004497Y23069791D01*
X19992991Y23058284D01*
X19985622Y23048769D01*
X19977697Y23039719D01*
X19975994Y23036334D01*
X19973669Y23033331D01*
X19968909Y23022253D01*
X19963513Y23011525D01*
X19962713Y23007825D01*
X19961213Y23004334D01*
X19959381Y22992428D01*
X19956841Y22980681D01*
X19956994Y22976894D01*
X19956416Y22973141D01*
X19957625Y22961156D01*
X19958109Y22949147D01*
X19959125Y22946325D01*
X19959588Y22941741D01*
X19970519Y22912134D01*
X19972388Y22909444D01*
X19973128Y22907384D01*
X19987188Y22883038D01*
X20004497Y22818441D01*
X20004497Y22792500D01*
X17616500Y22792500D01*
X17616500Y22818441D01*
X17620575Y22833647D01*
X17622347Y22846659D01*
X17624666Y22859516D01*
X17624463Y22862219D01*
X17624831Y22864919D01*
X17623288Y22877928D01*
X17622313Y22890988D01*
X17621434Y22893569D01*
X17621116Y22896259D01*
X17616378Y22908431D01*
X17612150Y22920866D01*
X17610656Y22923144D01*
X17609672Y22925669D01*
X17602022Y22936291D01*
X17594828Y22947247D01*
X17592819Y22949069D01*
X17591228Y22951278D01*
X17581131Y22959669D01*
X17571450Y22968450D01*
X17569050Y22969709D01*
X17566956Y22971450D01*
X17555100Y22977034D01*
X17543509Y22983122D01*
X17541356Y22983509D01*
X17538406Y22984900D01*
X17507397Y22990772D01*
X17502791Y22990466D01*
X17499834Y22991000D01*
X14438663Y22991000D01*
X14425688Y22989350D01*
X14412616Y22988256D01*
X14410050Y22987359D01*
X14407356Y22987016D01*
X14395175Y22982156D01*
X14382825Y22977834D01*
X14380572Y22976328D01*
X14378044Y22975319D01*
X14367494Y22967578D01*
X14356594Y22960288D01*
X14354778Y22958250D01*
X14352597Y22956650D01*
X14344328Y22946525D01*
X14335597Y22936728D01*
X14334356Y22934313D01*
X14332634Y22932206D01*
X14327163Y22920322D01*
X14321166Y22908659D01*
X14320566Y22905997D01*
X14319434Y22903541D01*
X14317113Y22890675D01*
X14314228Y22877872D01*
X14314409Y22875694D01*
X14313831Y22872484D01*
X14316184Y22841013D01*
X14317672Y22836638D01*
X14317922Y22833647D01*
X14321997Y22818441D01*
X14321997Y22792500D01*
X10564000Y22792500D01*
G37*
%LPD*%
%LPC*%
G36*
X5131000Y27750500D02*
X5131000Y27750500D01*
X5131000Y27813441D01*
X5148306Y27878031D01*
X5180675Y27934091D01*
X5185341Y27945216D01*
X5190638Y27955975D01*
X5191406Y27959684D01*
X5192878Y27963194D01*
X5194606Y27975116D01*
X5197044Y27986878D01*
X5196859Y27990672D01*
X5197403Y27994428D01*
X5196094Y28006378D01*
X5195506Y28018400D01*
X5194375Y28022028D01*
X5193963Y28025800D01*
X5189703Y28037028D01*
X5186122Y28048531D01*
X5184403Y28051006D01*
X5182772Y28055309D01*
X5164550Y28081075D01*
X5162063Y28083178D01*
X5160809Y28084984D01*
X5131000Y28114794D01*
X5131000Y28885203D01*
X5157403Y28911606D01*
X5165100Y28921550D01*
X5173291Y28931063D01*
X5174731Y28933988D01*
X5176722Y28936559D01*
X5181675Y28948088D01*
X5187231Y28959375D01*
X5187894Y28962569D01*
X5189178Y28965559D01*
X5191088Y28977984D01*
X5193638Y28990278D01*
X5193478Y28993525D01*
X5193975Y28996750D01*
X5192713Y29009253D01*
X5192100Y29021800D01*
X5191131Y29024916D01*
X5190803Y29028150D01*
X5186453Y29039934D01*
X5182716Y29051931D01*
X5181234Y29054063D01*
X5179872Y29057756D01*
X5161872Y29083678D01*
X5158888Y29086247D01*
X5157403Y29088384D01*
X5131000Y29114788D01*
X5131000Y29885203D01*
X5157403Y29911606D01*
X5165100Y29921550D01*
X5173291Y29931063D01*
X5174731Y29933988D01*
X5176722Y29936559D01*
X5181675Y29948088D01*
X5187231Y29959375D01*
X5187894Y29962569D01*
X5189178Y29965559D01*
X5191088Y29977984D01*
X5193638Y29990278D01*
X5193478Y29993525D01*
X5193975Y29996750D01*
X5192713Y30009253D01*
X5192100Y30021800D01*
X5191131Y30024916D01*
X5190803Y30028150D01*
X5186453Y30039934D01*
X5182716Y30051931D01*
X5181234Y30054063D01*
X5179872Y30057756D01*
X5161872Y30083678D01*
X5158888Y30086247D01*
X5157403Y30088384D01*
X5131000Y30114788D01*
X5131000Y30885203D01*
X5157403Y30911606D01*
X5165100Y30921550D01*
X5173291Y30931063D01*
X5174731Y30933988D01*
X5176722Y30936559D01*
X5181675Y30948088D01*
X5187231Y30959375D01*
X5187894Y30962569D01*
X5189178Y30965559D01*
X5191088Y30977984D01*
X5193638Y30990278D01*
X5193478Y30993525D01*
X5193975Y30996750D01*
X5192713Y31009253D01*
X5192100Y31021800D01*
X5191131Y31024916D01*
X5190803Y31028150D01*
X5186453Y31039934D01*
X5182716Y31051931D01*
X5181234Y31054063D01*
X5179872Y31057756D01*
X5161872Y31083678D01*
X5158888Y31086247D01*
X5157403Y31088384D01*
X5131000Y31114788D01*
X5131000Y31715116D01*
X5129619Y31725972D01*
X5129084Y31736919D01*
X5127631Y31741584D01*
X5127016Y31746422D01*
X5122956Y31756594D01*
X5119700Y31767050D01*
X5117547Y31770150D01*
X5115319Y31775734D01*
X5096650Y31801181D01*
X5095147Y31802409D01*
X5094388Y31803503D01*
X4961119Y31936772D01*
X4885000Y32120541D01*
X4885000Y32879453D01*
X4915119Y32952159D01*
X4918000Y32962731D01*
X4921694Y32973041D01*
X4922134Y32977900D01*
X4923419Y32982606D01*
X4923559Y32993563D01*
X4924553Y33004469D01*
X4923750Y33008159D01*
X4923828Y33014163D01*
X4916322Y33044816D01*
X4915403Y33046522D01*
X4915119Y33047834D01*
X4885000Y33120544D01*
X4885000Y33879453D01*
X4915119Y33952159D01*
X4918000Y33962731D01*
X4921694Y33973041D01*
X4922134Y33977900D01*
X4923419Y33982606D01*
X4923559Y33993563D01*
X4924553Y34004469D01*
X4923750Y34008159D01*
X4923828Y34014163D01*
X4916322Y34044816D01*
X4915403Y34046522D01*
X4915119Y34047834D01*
X4885000Y34120544D01*
X4885000Y34879456D01*
X4961119Y35063225D01*
X5101772Y35203878D01*
X5285541Y35279997D01*
X7514456Y35279997D01*
X7698225Y35203878D01*
X7838878Y35063225D01*
X7914997Y34879456D01*
X7914997Y34120544D01*
X7884878Y34047834D01*
X7882000Y34037275D01*
X7878303Y34026953D01*
X7877859Y34022091D01*
X7876578Y34017384D01*
X7876438Y34006428D01*
X7875444Y33995522D01*
X7876247Y33991831D01*
X7876169Y33985828D01*
X7883675Y33955175D01*
X7884594Y33953466D01*
X7884878Y33952159D01*
X7914997Y33879453D01*
X7914997Y33120544D01*
X7884878Y33047834D01*
X7882000Y33037275D01*
X7878303Y33026953D01*
X7877859Y33022091D01*
X7876578Y33017384D01*
X7876438Y33006428D01*
X7875444Y32995522D01*
X7876247Y32991831D01*
X7876169Y32985828D01*
X7883675Y32955175D01*
X7884594Y32953466D01*
X7884878Y32952159D01*
X7914997Y32879453D01*
X7914997Y32225978D01*
X7916794Y32211869D01*
X7918225Y32197759D01*
X7918778Y32196263D01*
X7918981Y32194672D01*
X7924247Y32181472D01*
X7929172Y32168159D01*
X7930084Y32166847D01*
X7930678Y32165359D01*
X7939072Y32153916D01*
X7947188Y32142244D01*
X7948403Y32141197D01*
X7949347Y32139913D01*
X7960331Y32130941D01*
X7971116Y32121669D01*
X7972550Y32120963D01*
X7973791Y32119950D01*
X7986675Y32114019D01*
X7999438Y32107741D01*
X8001013Y32107416D01*
X8002456Y32106750D01*
X8016347Y32104244D01*
X8030341Y32101350D01*
X8031947Y32101428D01*
X8033513Y32101147D01*
X8047675Y32102206D01*
X8061863Y32102906D01*
X8063381Y32103381D01*
X8064984Y32103500D01*
X8066444Y32103997D01*
X8905209Y32103997D01*
X8911613Y32097594D01*
X8921556Y32089894D01*
X8931069Y32081706D01*
X8933984Y32080272D01*
X8936566Y32078272D01*
X8948125Y32073309D01*
X8959381Y32067766D01*
X8962572Y32067103D01*
X8965566Y32065819D01*
X8977991Y32063909D01*
X8990284Y32061359D01*
X8993531Y32061519D01*
X8996756Y32061022D01*
X9009259Y32062284D01*
X9021806Y32062897D01*
X9024922Y32063866D01*
X9028156Y32064194D01*
X9039919Y32068538D01*
X9051938Y32072281D01*
X9054078Y32073766D01*
X9057763Y32075128D01*
X9083684Y32093128D01*
X9086253Y32096113D01*
X9088391Y32097597D01*
X9094791Y32103997D01*
X9905209Y32103997D01*
X10053997Y31955209D01*
X10053997Y28044788D01*
X9905209Y27896000D01*
X9094791Y27896000D01*
X9088391Y27902400D01*
X9078469Y27910081D01*
X9068934Y27918291D01*
X9066006Y27919731D01*
X9063438Y27921722D01*
X9051900Y27926678D01*
X9040622Y27932231D01*
X9037434Y27932891D01*
X9034441Y27934178D01*
X9022006Y27936091D01*
X9009719Y27938638D01*
X9006472Y27938478D01*
X9003247Y27938975D01*
X8990744Y27937713D01*
X8978197Y27937100D01*
X8975081Y27936131D01*
X8971847Y27935803D01*
X8960063Y27931453D01*
X8948066Y27927716D01*
X8945934Y27926234D01*
X8942241Y27924872D01*
X8916319Y27906872D01*
X8913750Y27903888D01*
X8911613Y27902403D01*
X8905209Y27896000D01*
X8094788Y27896000D01*
X7920684Y28070103D01*
X7915994Y28077247D01*
X7913578Y28079438D01*
X7911650Y28082066D01*
X7901913Y28090016D01*
X7892616Y28098450D01*
X7889738Y28099963D01*
X7887206Y28102028D01*
X7875794Y28107284D01*
X7864675Y28113122D01*
X7862109Y28113584D01*
X7858541Y28115228D01*
X7827484Y28120831D01*
X7823563Y28120538D01*
X7821000Y28121000D01*
X7727916Y28121000D01*
X7714391Y28119278D01*
X7700806Y28118025D01*
X7698759Y28117291D01*
X7696609Y28117016D01*
X7683950Y28111963D01*
X7671109Y28107347D01*
X7669316Y28106125D01*
X7667297Y28105319D01*
X7656297Y28097250D01*
X7645031Y28089569D01*
X7643597Y28087931D01*
X7641850Y28086650D01*
X7633231Y28076097D01*
X7624238Y28065828D01*
X7623263Y28063891D01*
X7621888Y28062206D01*
X7616188Y28049828D01*
X7610053Y28037638D01*
X7609591Y28035503D01*
X7608688Y28033541D01*
X7606275Y28020172D01*
X7603381Y28006791D01*
X7603469Y28004616D01*
X7603084Y28002484D01*
X7604103Y27988872D01*
X7604650Y27975256D01*
X7605244Y27973606D01*
X7605438Y27971013D01*
X7615600Y27941134D01*
X7618516Y27936697D01*
X7619666Y27933494D01*
X7651688Y27878034D01*
X7668997Y27813441D01*
X7668997Y27750500D01*
X5131000Y27750500D01*
G37*
%LPD*%
G36*
X9000175Y17499659D02*
X9000175Y17499659D01*
X9000353Y17499647D01*
X9750209Y18249503D01*
X10575869Y18249503D01*
X10576044Y18249659D01*
X10576222Y18249647D01*
X10611094Y18284519D01*
X11500000Y18284519D01*
X11500494Y18284953D01*
X11500472Y18284978D01*
X11500494Y18284997D01*
X14275106Y18284997D01*
X14390638Y18169466D01*
X14393366Y18169075D01*
X14394172Y18168000D01*
X17544325Y18168000D01*
X17546531Y18169656D01*
X17547859Y18169466D01*
X17663391Y18284997D01*
X19747500Y18284997D01*
X19752300Y18288597D01*
X19751700Y18289397D01*
X19752500Y18289997D01*
X19752500Y20670000D01*
X19748900Y20674800D01*
X19748100Y20674200D01*
X19747500Y20675000D01*
X17663391Y20675000D01*
X17549359Y20789034D01*
X17546631Y20789425D01*
X17545825Y20790500D01*
X14392672Y20790500D01*
X14390466Y20788844D01*
X14389138Y20789034D01*
X14275106Y20675000D01*
X11500484Y20675000D01*
X11500063Y20675475D01*
X11500031Y20675447D01*
X11500000Y20675481D01*
X10674981Y20675481D01*
X10674803Y20675322D01*
X10674628Y20675334D01*
X8999794Y19000500D01*
X6000000Y19000500D01*
X5999506Y19000063D01*
X5999534Y19000028D01*
X5999503Y19000000D01*
X5999503Y17500000D01*
X5999938Y17499506D01*
X5999972Y17499534D01*
X6000000Y17499503D01*
X9000000Y17499503D01*
X9000175Y17499659D01*
G37*
%LPC*%
G36*
X10497925Y63995000D02*
X10497925Y63995000D01*
X10495000Y63997925D01*
X10495000Y67002072D01*
X10497925Y67004997D01*
X19502072Y67004997D01*
X19504997Y67002072D01*
X19504997Y63997925D01*
X19502072Y63995000D01*
X10497925Y63995000D01*
G37*
%LPD*%
G36*
X17548531Y41171656D02*
X17548531Y41171656D01*
X17549859Y41171466D01*
X17663391Y41284997D01*
X19747500Y41284997D01*
X19752300Y41288597D01*
X19752300Y41288600D01*
X19751700Y41289397D01*
X19752500Y41289997D01*
X19752500Y43670000D01*
X19748900Y43674800D01*
X19748100Y43674200D01*
X19747500Y43675000D01*
X17663391Y43675000D01*
X17551359Y43787034D01*
X17548631Y43787425D01*
X17547825Y43788500D01*
X14390672Y43788500D01*
X14388466Y43786844D01*
X14387138Y43787034D01*
X14275106Y43675000D01*
X11000484Y43675000D01*
X11000063Y43675475D01*
X11000031Y43675447D01*
X11000000Y43675481D01*
X10611091Y43675481D01*
X10536222Y43750353D01*
X10535984Y43750369D01*
X10535869Y43750500D01*
X9750000Y43750500D01*
X9749822Y43750341D01*
X9749647Y43750353D01*
X8499647Y42500353D01*
X8499631Y42500113D01*
X8499503Y42500000D01*
X8499503Y41250000D01*
X8499938Y41249506D01*
X8499972Y41249534D01*
X8500000Y41249503D01*
X10575869Y41249503D01*
X10576044Y41249659D01*
X10576222Y41249647D01*
X10611094Y41284519D01*
X11000000Y41284519D01*
X11000494Y41284953D01*
X11000466Y41284984D01*
X11000478Y41284997D01*
X14275106Y41284997D01*
X14388638Y41171466D01*
X14391366Y41171075D01*
X14392172Y41170000D01*
X17546325Y41170000D01*
X17548531Y41171656D01*
G37*
G36*
X17551531Y37174656D02*
X17551531Y37174656D01*
X17552859Y37174466D01*
X17663391Y37284997D01*
X19748000Y37284997D01*
X19752800Y37288597D01*
X19752200Y37289397D01*
X19753000Y37289997D01*
X19753000Y39670000D01*
X19749400Y39674800D01*
X19748600Y39674200D01*
X19748000Y39675000D01*
X17663391Y39675000D01*
X17551859Y39786534D01*
X17549131Y39786925D01*
X17548325Y39788000D01*
X14390172Y39788000D01*
X14387966Y39786344D01*
X14386638Y39786534D01*
X14275106Y39675000D01*
X11000484Y39675000D01*
X11000063Y39675475D01*
X11000031Y39675447D01*
X11000000Y39675481D01*
X10611091Y39675481D01*
X10536222Y39750353D01*
X10535984Y39750369D01*
X10535869Y39750500D01*
X8500000Y39750500D01*
X8499506Y39750063D01*
X8499534Y39750028D01*
X8499503Y39750000D01*
X8499503Y38500000D01*
X8499659Y38499825D01*
X8499647Y38499647D01*
X9749647Y37249647D01*
X9749888Y37249631D01*
X9750000Y37249503D01*
X10575869Y37249503D01*
X10576044Y37249659D01*
X10576222Y37249647D01*
X10611094Y37284519D01*
X11000000Y37284519D01*
X11000494Y37284953D01*
X11000466Y37284984D01*
X11000478Y37284997D01*
X14275106Y37284997D01*
X14385638Y37174466D01*
X14388366Y37174075D01*
X14389172Y37173000D01*
X17549325Y37173000D01*
X17551531Y37174656D01*
G37*
G36*
X17564531Y45187656D02*
X17564531Y45187656D01*
X17565859Y45187466D01*
X17663391Y45284997D01*
X19747500Y45284997D01*
X19752300Y45288597D01*
X19751819Y45289238D01*
X19752300Y45289600D01*
X19752181Y45289759D01*
X19752500Y45289997D01*
X19752500Y47670000D01*
X19748900Y47674800D01*
X19748100Y47674200D01*
X19747500Y47675000D01*
X17663391Y47675000D01*
X17531359Y47807034D01*
X17528631Y47807425D01*
X17527825Y47808500D01*
X14410672Y47808500D01*
X14408466Y47806844D01*
X14407138Y47807034D01*
X14275106Y47675000D01*
X10812500Y47675000D01*
X10807700Y47671400D01*
X10808300Y47670600D01*
X10807500Y47670000D01*
X10807500Y47500500D01*
X8500000Y47500500D01*
X8499506Y47500063D01*
X8499534Y47500028D01*
X8499503Y47500000D01*
X8499503Y46000000D01*
X8499659Y45999825D01*
X8499647Y45999647D01*
X9249647Y45249647D01*
X9249888Y45249631D01*
X9250000Y45249503D01*
X10575869Y45249503D01*
X10576044Y45249659D01*
X10576222Y45249647D01*
X10611094Y45284519D01*
X11000000Y45284519D01*
X11000494Y45284953D01*
X11000466Y45284984D01*
X11000478Y45284997D01*
X14275106Y45284997D01*
X14372638Y45187466D01*
X14375366Y45187075D01*
X14376172Y45186000D01*
X17562325Y45186000D01*
X17564531Y45187656D01*
G37*
G36*
X11000031Y57675447D02*
X11000031Y57675447D01*
X11000000Y57675481D01*
X10611091Y57675481D01*
X10536222Y57750353D01*
X10535984Y57750369D01*
X10535869Y57750500D01*
X9250000Y57750500D01*
X9249822Y57750341D01*
X9249647Y57750353D01*
X8499647Y57000353D01*
X8499638Y57000184D01*
X8499569Y57000125D01*
X8499603Y57000088D01*
X8499503Y57000000D01*
X8499503Y55500000D01*
X8499938Y55499506D01*
X8499972Y55499534D01*
X8500000Y55499503D01*
X10807500Y55499503D01*
X10807500Y55289997D01*
X10811100Y55285197D01*
X10811900Y55285797D01*
X10812500Y55284997D01*
X14275106Y55284997D01*
X14388638Y55171466D01*
X14391366Y55171075D01*
X14392172Y55170000D01*
X17546325Y55170000D01*
X17548531Y55171656D01*
X17549859Y55171466D01*
X17663391Y55284997D01*
X19747500Y55284997D01*
X19752300Y55288597D01*
X19752300Y55288600D01*
X19751700Y55289397D01*
X19752500Y55289997D01*
X19752500Y57670000D01*
X19748900Y57674800D01*
X19748100Y57674200D01*
X19747500Y57675000D01*
X17663391Y57675000D01*
X17547359Y57791034D01*
X17544631Y57791425D01*
X17543825Y57792500D01*
X14394672Y57792500D01*
X14392466Y57790844D01*
X14391138Y57791034D01*
X14275106Y57675000D01*
X11000484Y57675000D01*
X11000063Y57675475D01*
X11000031Y57675447D01*
G37*
G36*
X17542531Y48165656D02*
X17542531Y48165656D01*
X17543859Y48165466D01*
X17663391Y48284997D01*
X19746500Y48284997D01*
X19751300Y48288597D01*
X19750700Y48289397D01*
X19751500Y48289997D01*
X19751500Y50670000D01*
X19747900Y50674800D01*
X19747100Y50674200D01*
X19746500Y50675000D01*
X17663391Y50675000D01*
X17553359Y50785034D01*
X17550631Y50785425D01*
X17549825Y50786500D01*
X14388672Y50786500D01*
X14386466Y50784844D01*
X14385138Y50785034D01*
X14275106Y50675000D01*
X11000484Y50675000D01*
X11000063Y50675475D01*
X11000031Y50675447D01*
X11000000Y50675481D01*
X10611091Y50675481D01*
X10536222Y50750353D01*
X10535984Y50750369D01*
X10535869Y50750500D01*
X9250000Y50750500D01*
X9249822Y50750341D01*
X9249647Y50750353D01*
X8499647Y50000353D01*
X8499638Y50000184D01*
X8499569Y50000125D01*
X8499603Y50000088D01*
X8499503Y50000000D01*
X8499503Y48500000D01*
X8499938Y48499506D01*
X8499972Y48499534D01*
X8500000Y48499503D01*
X10811500Y48499503D01*
X10811500Y48289997D01*
X10815100Y48285197D01*
X10815900Y48285797D01*
X10816500Y48284997D01*
X14275106Y48284997D01*
X14394638Y48165466D01*
X14397366Y48165075D01*
X14398172Y48164000D01*
X17540325Y48164000D01*
X17542531Y48165656D01*
G37*
G36*
X17500531Y52123656D02*
X17500531Y52123656D01*
X17501859Y52123466D01*
X17663391Y52284997D01*
X19747500Y52284997D01*
X19752300Y52288597D01*
X19751700Y52289397D01*
X19752500Y52289997D01*
X19752500Y54670000D01*
X19748900Y54674800D01*
X19748100Y54674200D01*
X19747500Y54675000D01*
X17663391Y54675000D01*
X17595359Y54743034D01*
X17592631Y54743425D01*
X17591825Y54744500D01*
X14346672Y54744500D01*
X14344466Y54742844D01*
X14343138Y54743034D01*
X14275106Y54675000D01*
X10812500Y54675000D01*
X10807700Y54671400D01*
X10808300Y54670600D01*
X10807500Y54670000D01*
X10807500Y54500500D01*
X8500000Y54500500D01*
X8499506Y54500063D01*
X8499534Y54500028D01*
X8499503Y54500000D01*
X8499503Y53250000D01*
X8499659Y53249825D01*
X8499647Y53249647D01*
X9249647Y52499647D01*
X9249888Y52499631D01*
X9250000Y52499503D01*
X10807500Y52499503D01*
X10807500Y52289997D01*
X10811100Y52285197D01*
X10811900Y52285797D01*
X10812500Y52284997D01*
X14275106Y52284997D01*
X14436638Y52123466D01*
X14439366Y52123075D01*
X14440172Y52122000D01*
X17498325Y52122000D01*
X17500531Y52123656D01*
G37*
%LPC*%
G36*
X10564000Y33792500D02*
X10564000Y33792500D01*
X10564000Y33818441D01*
X10581309Y33883038D01*
X10595369Y33907384D01*
X10600025Y33918481D01*
X10605338Y33929275D01*
X10606106Y33932988D01*
X10607575Y33936488D01*
X10609303Y33948397D01*
X10611744Y33960178D01*
X10611559Y33963969D01*
X10612103Y33967722D01*
X10610794Y33979666D01*
X10610206Y33991700D01*
X10609075Y33995331D01*
X10608663Y33999094D01*
X10604403Y34010328D01*
X10600822Y34021831D01*
X10599113Y34024294D01*
X10597478Y34028603D01*
X10579256Y34054372D01*
X10576753Y34056491D01*
X10575506Y34058284D01*
X10564000Y34069791D01*
X10564000Y34890206D01*
X10565400Y34891606D01*
X10573081Y34901528D01*
X10581291Y34911063D01*
X10582731Y34913991D01*
X10584722Y34916559D01*
X10589659Y34928056D01*
X10595231Y34939375D01*
X10595891Y34942563D01*
X10597178Y34945556D01*
X10599084Y34957966D01*
X10601638Y34970278D01*
X10601478Y34973541D01*
X10601972Y34976750D01*
X10600713Y34989219D01*
X10600100Y35001800D01*
X10599128Y35004916D01*
X10598803Y35008150D01*
X10594453Y35019928D01*
X10590716Y35031931D01*
X10589234Y35034066D01*
X10587872Y35037753D01*
X10569872Y35063678D01*
X10566888Y35066250D01*
X10565403Y35068384D01*
X10564000Y35069788D01*
X10564000Y35890209D01*
X10575506Y35901716D01*
X10582869Y35911222D01*
X10590794Y35920272D01*
X10592500Y35923659D01*
X10594828Y35926669D01*
X10599578Y35937731D01*
X10604978Y35948463D01*
X10605781Y35952178D01*
X10607281Y35955669D01*
X10609109Y35967550D01*
X10611653Y35979309D01*
X10611500Y35983106D01*
X10612078Y35986859D01*
X10610869Y35998819D01*
X10610388Y36010844D01*
X10609369Y36013675D01*
X10608906Y36018259D01*
X10597972Y36047866D01*
X10596116Y36050541D01*
X10595372Y36052606D01*
X10581306Y36076966D01*
X10564000Y36141556D01*
X10564000Y36327494D01*
X11550478Y36327494D01*
X11562928Y36329078D01*
X11575466Y36330016D01*
X11578559Y36331069D01*
X11579497Y36331188D01*
X11599034Y36327663D01*
X11602956Y36327956D01*
X11605519Y36327494D01*
X13365478Y36327494D01*
X13377928Y36329078D01*
X13390466Y36330016D01*
X13393559Y36331069D01*
X13394497Y36331188D01*
X13414034Y36327663D01*
X13417956Y36327956D01*
X13420519Y36327494D01*
X14321997Y36327494D01*
X14321997Y36133997D01*
X14323581Y36121547D01*
X14324519Y36109009D01*
X14325572Y36105916D01*
X14325981Y36102691D01*
X14330634Y36091034D01*
X14334681Y36079131D01*
X14336469Y36076409D01*
X14337678Y36073378D01*
X14345113Y36063244D01*
X14352003Y36052750D01*
X14354419Y36050559D01*
X14356347Y36047931D01*
X14366084Y36039981D01*
X14375381Y36031547D01*
X14378259Y36030034D01*
X14380791Y36027969D01*
X14392203Y36022713D01*
X14403322Y36016875D01*
X14405888Y36016413D01*
X14409456Y36014769D01*
X14440513Y36009166D01*
X14444434Y36009459D01*
X14446997Y36008997D01*
X17491500Y36008997D01*
X17503950Y36010581D01*
X17516488Y36011519D01*
X17519581Y36012572D01*
X17522806Y36012981D01*
X17534463Y36017634D01*
X17546366Y36021681D01*
X17549088Y36023469D01*
X17552119Y36024678D01*
X17562253Y36032113D01*
X17572747Y36039003D01*
X17574938Y36041419D01*
X17577566Y36043347D01*
X17585516Y36053084D01*
X17593950Y36062381D01*
X17595463Y36065259D01*
X17597528Y36067791D01*
X17602784Y36079203D01*
X17608622Y36090322D01*
X17609084Y36092888D01*
X17610728Y36096456D01*
X17616331Y36127513D01*
X17616225Y36128925D01*
X17616331Y36129513D01*
X17616144Y36132022D01*
X17616500Y36133997D01*
X17616500Y36327494D01*
X18782978Y36327494D01*
X18795428Y36329078D01*
X18807966Y36330016D01*
X18811059Y36331069D01*
X18811997Y36331188D01*
X18831534Y36327663D01*
X18835456Y36327956D01*
X18838019Y36327494D01*
X20004494Y36327494D01*
X20004497Y36141556D01*
X19987188Y36076959D01*
X19973128Y36052613D01*
X19968472Y36041516D01*
X19963159Y36030722D01*
X19962391Y36027009D01*
X19960922Y36023509D01*
X19959194Y36011600D01*
X19956753Y35999819D01*
X19956938Y35996028D01*
X19956394Y35992275D01*
X19957703Y35980331D01*
X19958291Y35968297D01*
X19959422Y35964666D01*
X19959834Y35960903D01*
X19964094Y35949669D01*
X19967675Y35938166D01*
X19969384Y35935703D01*
X19971019Y35931394D01*
X19989241Y35905625D01*
X19991744Y35903506D01*
X19992991Y35901713D01*
X20007903Y35886803D01*
X20008481Y35882250D01*
X20008997Y35880959D01*
X20008997Y35118681D01*
X20004538Y35089684D01*
X20004734Y35087750D01*
X20004497Y35086441D01*
X20004497Y35069788D01*
X20003094Y35068384D01*
X19995394Y35058441D01*
X19987206Y35048928D01*
X19985772Y35046013D01*
X19983772Y35043431D01*
X19978803Y35031859D01*
X19973266Y35020613D01*
X19972606Y35017428D01*
X19971319Y35014431D01*
X19969406Y35002000D01*
X19966859Y34989713D01*
X19967019Y34986466D01*
X19966522Y34983241D01*
X19967784Y34970738D01*
X19968397Y34958191D01*
X19969366Y34955078D01*
X19969694Y34951841D01*
X19974047Y34940056D01*
X19977784Y34928056D01*
X19979266Y34925922D01*
X19980628Y34922234D01*
X19998628Y34896313D01*
X20001613Y34893744D01*
X20003097Y34891606D01*
X20007903Y34886800D01*
X20008481Y34882250D01*
X20008997Y34880959D01*
X20008997Y34118681D01*
X20004538Y34089684D01*
X20004734Y34087750D01*
X20004497Y34086441D01*
X20004497Y34069791D01*
X19992991Y34058284D01*
X19985622Y34048769D01*
X19977697Y34039719D01*
X19975994Y34036334D01*
X19973669Y34033331D01*
X19968909Y34022253D01*
X19963513Y34011525D01*
X19962713Y34007825D01*
X19961213Y34004334D01*
X19959381Y33992428D01*
X19956841Y33980681D01*
X19956994Y33976894D01*
X19956416Y33973141D01*
X19957625Y33961156D01*
X19958109Y33949147D01*
X19959125Y33946325D01*
X19959588Y33941741D01*
X19970519Y33912134D01*
X19972388Y33909444D01*
X19973128Y33907384D01*
X19987188Y33883038D01*
X20004497Y33818441D01*
X20004497Y33792500D01*
X17616500Y33792500D01*
X17616500Y33818431D01*
X17620575Y33833634D01*
X17622344Y33846625D01*
X17624669Y33859516D01*
X17624466Y33862225D01*
X17624831Y33864906D01*
X17623297Y33877859D01*
X17622316Y33890988D01*
X17621441Y33893563D01*
X17621122Y33896247D01*
X17616381Y33908431D01*
X17612153Y33920866D01*
X17610663Y33923134D01*
X17609681Y33925659D01*
X17602028Y33936284D01*
X17594831Y33947247D01*
X17592822Y33949069D01*
X17591238Y33951269D01*
X17581159Y33959647D01*
X17571453Y33968450D01*
X17569056Y33969709D01*
X17566969Y33971444D01*
X17555103Y33977038D01*
X17543513Y33983122D01*
X17541369Y33983509D01*
X17538422Y33984897D01*
X17507413Y33990769D01*
X17502806Y33990466D01*
X17499838Y33991000D01*
X14438659Y33991000D01*
X14425666Y33989347D01*
X14412600Y33988253D01*
X14410041Y33987356D01*
X14407353Y33987016D01*
X14395184Y33982159D01*
X14382813Y33977831D01*
X14380563Y33976325D01*
X14378041Y33975319D01*
X14367463Y33967559D01*
X14356584Y33960278D01*
X14354781Y33958253D01*
X14352594Y33956650D01*
X14344300Y33946497D01*
X14335588Y33936719D01*
X14334350Y33934309D01*
X14332631Y33932206D01*
X14327147Y33920297D01*
X14321159Y33908647D01*
X14320563Y33905997D01*
X14319431Y33903541D01*
X14317113Y33890684D01*
X14314222Y33877859D01*
X14314403Y33875678D01*
X14313828Y33872484D01*
X14316181Y33841013D01*
X14317672Y33836631D01*
X14317922Y33833634D01*
X14321997Y33818431D01*
X14321997Y33792500D01*
X10564000Y33792500D01*
G37*
%LPD*%
G36*
X9000175Y11999659D02*
X9000175Y11999659D01*
X9000353Y11999647D01*
X9250209Y12249503D01*
X10807500Y12249503D01*
X10807500Y12175000D01*
X10811100Y12170200D01*
X10811900Y12170800D01*
X10812500Y12170000D01*
X19747500Y12170000D01*
X19752300Y12173600D01*
X19751700Y12174400D01*
X19752500Y12175000D01*
X19752500Y13787500D01*
X19748900Y13792300D01*
X19748100Y13791700D01*
X19747500Y13792500D01*
X10812500Y13792500D01*
X10807700Y13788900D01*
X10808300Y13788100D01*
X10807500Y13787500D01*
X10807500Y13750500D01*
X9000000Y13750500D01*
X8999822Y13750341D01*
X8999647Y13750353D01*
X8749647Y13500353D01*
X8749638Y13500184D01*
X8749569Y13500125D01*
X8749603Y13500088D01*
X8749503Y13500000D01*
X8749503Y12000000D01*
X8749938Y11999506D01*
X8749972Y11999534D01*
X8750000Y11999503D01*
X9000000Y11999503D01*
X9000175Y11999659D01*
G37*
G36*
X19752300Y14173600D02*
X19752300Y14173600D01*
X19751700Y14174400D01*
X19752500Y14175000D01*
X19752500Y15787500D01*
X19748900Y15792300D01*
X19748100Y15791700D01*
X19747500Y15792500D01*
X10812500Y15792500D01*
X10807700Y15788900D01*
X10808300Y15788100D01*
X10807500Y15787500D01*
X10807500Y15750500D01*
X9250206Y15750500D01*
X9000353Y16000353D01*
X9000119Y16000369D01*
X9000009Y16000491D01*
X9000000Y16000500D01*
X8750000Y16000500D01*
X8749506Y16000063D01*
X8749509Y16000056D01*
X8749506Y16000053D01*
X8749531Y16000025D01*
X8749503Y16000000D01*
X8749503Y14500000D01*
X8749659Y14499825D01*
X8749647Y14499647D01*
X8999647Y14249647D01*
X8999888Y14249631D01*
X9000000Y14249503D01*
X10807500Y14249503D01*
X10807500Y14175000D01*
X10811100Y14170200D01*
X10811900Y14170800D01*
X10812500Y14170000D01*
X19747500Y14170000D01*
X19752300Y14173600D01*
G37*
%LPC*%
G36*
X20252500Y59341969D02*
X20252500Y59341969D01*
X20252303Y59342231D01*
X20252472Y59342513D01*
X20251788Y59342916D01*
X20248900Y59346769D01*
X20247303Y59345572D01*
X20245588Y59346588D01*
X20235722Y59342500D01*
X19584275Y59342500D01*
X18982428Y59591794D01*
X18533191Y60041034D01*
X18530463Y60041425D01*
X18529656Y60042500D01*
X18298534Y60042500D01*
X18302319Y60042981D01*
X18307428Y60045019D01*
X18312794Y60046188D01*
X18322013Y60050841D01*
X18331631Y60054678D01*
X18336069Y60057934D01*
X18340969Y60060406D01*
X18348744Y60067231D01*
X18357078Y60073347D01*
X18360550Y60077600D01*
X18364684Y60081228D01*
X18370497Y60089778D01*
X18377041Y60097791D01*
X18379344Y60102791D01*
X18382428Y60107328D01*
X18385919Y60117069D01*
X18390241Y60126456D01*
X18391216Y60131853D01*
X18393072Y60137038D01*
X18394009Y60147347D01*
X18395844Y60157513D01*
X18395434Y60162997D01*
X18395931Y60168469D01*
X18394550Y60174819D01*
X18393491Y60188984D01*
X18387878Y60205484D01*
X18386497Y60211834D01*
X18208500Y60641550D01*
X18208500Y61318450D01*
X18467538Y61943822D01*
X18946175Y62422459D01*
X19571547Y62681497D01*
X20248450Y62681497D01*
X20873822Y62422459D01*
X21352459Y61943822D01*
X21611497Y61318450D01*
X21611497Y60641547D01*
X21352459Y60016175D01*
X20873822Y59537538D01*
X20252500Y59280178D01*
X20252500Y59341969D01*
G37*
%LPD*%
G36*
X13802450Y387581D02*
X13802450Y387581D01*
X13814988Y388519D01*
X13818081Y389572D01*
X13821306Y389981D01*
X13832963Y394634D01*
X13844866Y398681D01*
X13847588Y400469D01*
X13850619Y401678D01*
X13860753Y409113D01*
X13871247Y416003D01*
X13873438Y418419D01*
X13876066Y420347D01*
X13884016Y430084D01*
X13892450Y439381D01*
X13893963Y442259D01*
X13896028Y444791D01*
X13901284Y456203D01*
X13907122Y467322D01*
X13907584Y469888D01*
X13909228Y473456D01*
X13914831Y504513D01*
X13914538Y508434D01*
X13915000Y510997D01*
X13915000Y1529994D01*
X14814994Y1529994D01*
X14814994Y510997D01*
X14816578Y498547D01*
X14817516Y486009D01*
X14818569Y482916D01*
X14818978Y479691D01*
X14823631Y468034D01*
X14827678Y456131D01*
X14829466Y453409D01*
X14830675Y450378D01*
X14838109Y440244D01*
X14845000Y429750D01*
X14847416Y427559D01*
X14849344Y424931D01*
X14859081Y416981D01*
X14868378Y408547D01*
X14871256Y407034D01*
X14873788Y404969D01*
X14885200Y399713D01*
X14896319Y393875D01*
X14898884Y393413D01*
X14902453Y391769D01*
X14933509Y386166D01*
X14937431Y386459D01*
X14939994Y385997D01*
X15060000Y385997D01*
X15072450Y387581D01*
X15084988Y388519D01*
X15088081Y389572D01*
X15091306Y389981D01*
X15102963Y394634D01*
X15114866Y398681D01*
X15117588Y400469D01*
X15120619Y401678D01*
X15130753Y409113D01*
X15141247Y416003D01*
X15143438Y418419D01*
X15146066Y420347D01*
X15154016Y430084D01*
X15162450Y439381D01*
X15163963Y442259D01*
X15166028Y444791D01*
X15171284Y456203D01*
X15177122Y467322D01*
X15177584Y469888D01*
X15179228Y473456D01*
X15184831Y504513D01*
X15184538Y508434D01*
X15185000Y510997D01*
X15185000Y1654978D01*
X15183416Y1667428D01*
X15182478Y1679966D01*
X15181425Y1683059D01*
X15181016Y1686284D01*
X15176363Y1697941D01*
X15172316Y1709844D01*
X15170528Y1712566D01*
X15169319Y1715597D01*
X15169216Y1715738D01*
X15171284Y1720225D01*
X15177122Y1731344D01*
X15177584Y1733909D01*
X15179228Y1737478D01*
X15184831Y1768534D01*
X15184538Y1772456D01*
X15185000Y1775019D01*
X15185000Y3363997D01*
X15403441Y3363997D01*
X15468038Y3346688D01*
X15525950Y3313250D01*
X15546603Y3292597D01*
X15556544Y3284900D01*
X15566063Y3276706D01*
X15568988Y3275266D01*
X15571559Y3273275D01*
X15583097Y3268319D01*
X15594375Y3262766D01*
X15597563Y3262106D01*
X15600556Y3260819D01*
X15612969Y3258909D01*
X15625278Y3256359D01*
X15628538Y3256519D01*
X15631747Y3256025D01*
X15644213Y3257284D01*
X15656800Y3257897D01*
X15659919Y3258869D01*
X15663147Y3259194D01*
X15674916Y3263538D01*
X15686931Y3267281D01*
X15689066Y3268763D01*
X15692753Y3270125D01*
X15718678Y3288125D01*
X15721247Y3291109D01*
X15723384Y3292594D01*
X15794788Y3363997D01*
X16745206Y3363997D01*
X16816606Y3292594D01*
X16826538Y3284906D01*
X16836063Y3276706D01*
X16838997Y3275263D01*
X16841563Y3273275D01*
X16853075Y3268328D01*
X16864375Y3262766D01*
X16867569Y3262103D01*
X16870559Y3260819D01*
X16882981Y3258909D01*
X16895278Y3256359D01*
X16898528Y3256519D01*
X16901753Y3256022D01*
X16914259Y3257284D01*
X16926800Y3257897D01*
X16929913Y3258866D01*
X16933153Y3259194D01*
X16944925Y3263541D01*
X16956931Y3267281D01*
X16959072Y3268766D01*
X16962756Y3270128D01*
X16988681Y3288125D01*
X16991256Y3291116D01*
X16993384Y3292594D01*
X17014034Y3313244D01*
X17071959Y3346688D01*
X17136556Y3363997D01*
X17183400Y3363997D01*
X17188856Y3364691D01*
X17194344Y3364478D01*
X17204438Y3366675D01*
X17214706Y3367981D01*
X17219816Y3370019D01*
X17225181Y3371188D01*
X17234400Y3375841D01*
X17244019Y3379678D01*
X17248456Y3382934D01*
X17253356Y3385406D01*
X17261131Y3392231D01*
X17269466Y3398347D01*
X17272938Y3402600D01*
X17277072Y3406228D01*
X17282884Y3414778D01*
X17289428Y3422791D01*
X17291731Y3427791D01*
X17294816Y3432328D01*
X17298306Y3442069D01*
X17302628Y3451456D01*
X17303603Y3456853D01*
X17305459Y3462038D01*
X17306397Y3472347D01*
X17308231Y3482513D01*
X17307822Y3487997D01*
X17308319Y3493469D01*
X17306938Y3499819D01*
X17305878Y3513984D01*
X17300263Y3530491D01*
X17298884Y3536831D01*
X17284000Y3572766D01*
X17284000Y3927231D01*
X17298884Y3963166D01*
X17300328Y3968463D01*
X17302628Y3973456D01*
X17304466Y3983638D01*
X17307184Y3993613D01*
X17307256Y3999106D01*
X17308231Y4004513D01*
X17308231Y4004516D01*
X17307459Y4014834D01*
X17307594Y4025169D01*
X17306288Y4030500D01*
X17305878Y4035988D01*
X17302544Y4045788D01*
X17300088Y4055822D01*
X17297488Y4060659D01*
X17295716Y4065866D01*
X17290034Y4074519D01*
X17285141Y4083619D01*
X17281413Y4087650D01*
X17278394Y4092247D01*
X17270744Y4099184D01*
X17263713Y4106788D01*
X17259078Y4109766D01*
X17255016Y4113450D01*
X17245866Y4118253D01*
X17237163Y4123847D01*
X17231947Y4125566D01*
X17227075Y4128122D01*
X17220663Y4129278D01*
X17207184Y4133716D01*
X17189800Y4134847D01*
X17183400Y4136000D01*
X17064788Y4136000D01*
X16993384Y4207403D01*
X16983472Y4215078D01*
X16973931Y4223291D01*
X16971006Y4224731D01*
X16968431Y4226725D01*
X16956881Y4231684D01*
X16945616Y4237231D01*
X16942425Y4237894D01*
X16939431Y4239178D01*
X16927013Y4241088D01*
X16914716Y4243638D01*
X16911466Y4243478D01*
X16908241Y4243975D01*
X16895734Y4242713D01*
X16883194Y4242100D01*
X16880081Y4241131D01*
X16876841Y4240803D01*
X16865072Y4236456D01*
X16853059Y4232716D01*
X16850919Y4231231D01*
X16847234Y4229869D01*
X16821313Y4211869D01*
X16818750Y4208891D01*
X16816606Y4207403D01*
X16745206Y4136000D01*
X15794788Y4136000D01*
X15723384Y4207403D01*
X15713472Y4215078D01*
X15703931Y4223291D01*
X15701006Y4224731D01*
X15698431Y4226725D01*
X15686881Y4231684D01*
X15675616Y4237231D01*
X15672425Y4237894D01*
X15669431Y4239178D01*
X15657013Y4241088D01*
X15644716Y4243638D01*
X15641466Y4243478D01*
X15638241Y4243975D01*
X15625734Y4242713D01*
X15613194Y4242100D01*
X15610081Y4241131D01*
X15606841Y4240803D01*
X15595072Y4236456D01*
X15583059Y4232716D01*
X15580919Y4231231D01*
X15577234Y4229869D01*
X15551313Y4211869D01*
X15548750Y4208891D01*
X15546606Y4207403D01*
X15475206Y4136000D01*
X14524788Y4136000D01*
X14453384Y4207403D01*
X14443472Y4215078D01*
X14433931Y4223291D01*
X14431006Y4224731D01*
X14428431Y4226725D01*
X14416881Y4231684D01*
X14405616Y4237231D01*
X14402425Y4237894D01*
X14399431Y4239178D01*
X14387013Y4241088D01*
X14374716Y4243638D01*
X14371466Y4243478D01*
X14368241Y4243975D01*
X14355734Y4242713D01*
X14343194Y4242100D01*
X14340081Y4241131D01*
X14336841Y4240803D01*
X14325072Y4236456D01*
X14313059Y4232716D01*
X14310919Y4231231D01*
X14307234Y4229869D01*
X14281313Y4211869D01*
X14278750Y4208891D01*
X14276606Y4207403D01*
X14205206Y4136000D01*
X13254788Y4136000D01*
X13183384Y4207403D01*
X13173472Y4215078D01*
X13163931Y4223291D01*
X13161006Y4224731D01*
X13158431Y4226725D01*
X13146881Y4231684D01*
X13135616Y4237231D01*
X13132425Y4237894D01*
X13129431Y4239178D01*
X13117013Y4241088D01*
X13104716Y4243638D01*
X13101466Y4243478D01*
X13098241Y4243975D01*
X13085734Y4242713D01*
X13073194Y4242100D01*
X13070081Y4241131D01*
X13066841Y4240803D01*
X13055072Y4236456D01*
X13043059Y4232716D01*
X13040919Y4231231D01*
X13037234Y4229869D01*
X13011313Y4211869D01*
X13008750Y4208891D01*
X13006606Y4207403D01*
X12935206Y4136000D01*
X12816597Y4136000D01*
X12811141Y4135306D01*
X12805653Y4135519D01*
X12795559Y4133322D01*
X12785291Y4132016D01*
X12780181Y4129978D01*
X12774816Y4128809D01*
X12765597Y4124156D01*
X12755978Y4120319D01*
X12751541Y4117063D01*
X12746641Y4114591D01*
X12738866Y4107766D01*
X12730531Y4101650D01*
X12727059Y4097397D01*
X12722925Y4093769D01*
X12717113Y4085219D01*
X12710569Y4077206D01*
X12708266Y4072206D01*
X12705181Y4067669D01*
X12701691Y4057928D01*
X12697369Y4048541D01*
X12696394Y4043144D01*
X12694538Y4037959D01*
X12693600Y4027650D01*
X12691766Y4017484D01*
X12692175Y4012000D01*
X12691678Y4006528D01*
X12693059Y4000178D01*
X12694119Y3986013D01*
X12699734Y3969506D01*
X12701113Y3963166D01*
X12715997Y3927231D01*
X12715997Y3572766D01*
X12701113Y3536831D01*
X12699666Y3531528D01*
X12697369Y3526538D01*
X12695534Y3516366D01*
X12692813Y3506384D01*
X12692741Y3500888D01*
X12691766Y3495481D01*
X12692538Y3485163D01*
X12692403Y3474828D01*
X12693709Y3469497D01*
X12694119Y3464009D01*
X12697453Y3454209D01*
X12699909Y3444175D01*
X12702509Y3439338D01*
X12704281Y3434131D01*
X12709963Y3425478D01*
X12714856Y3416378D01*
X12718584Y3412347D01*
X12721603Y3407750D01*
X12729253Y3400813D01*
X12736284Y3393209D01*
X12740919Y3390231D01*
X12744981Y3386547D01*
X12754131Y3381744D01*
X12762834Y3376150D01*
X12768050Y3374431D01*
X12772922Y3371875D01*
X12779334Y3370719D01*
X12792813Y3366281D01*
X12810197Y3365150D01*
X12816597Y3363997D01*
X12935206Y3363997D01*
X13006606Y3292594D01*
X13016538Y3284906D01*
X13026063Y3276706D01*
X13028997Y3275263D01*
X13031563Y3273275D01*
X13043075Y3268328D01*
X13054375Y3262766D01*
X13057569Y3262103D01*
X13060559Y3260819D01*
X13072981Y3258909D01*
X13085278Y3256359D01*
X13088528Y3256519D01*
X13091753Y3256022D01*
X13104259Y3257284D01*
X13116800Y3257897D01*
X13119913Y3258866D01*
X13123153Y3259194D01*
X13134925Y3263541D01*
X13146931Y3267281D01*
X13149072Y3268766D01*
X13152756Y3270128D01*
X13178681Y3288125D01*
X13181256Y3291116D01*
X13183384Y3292594D01*
X13204034Y3313244D01*
X13261959Y3346688D01*
X13326556Y3363997D01*
X13544994Y3363997D01*
X13544994Y1775019D01*
X13546578Y1762569D01*
X13547516Y1750031D01*
X13548569Y1746938D01*
X13548978Y1743713D01*
X13553631Y1732056D01*
X13557678Y1720153D01*
X13559466Y1717431D01*
X13560675Y1714400D01*
X13560778Y1714259D01*
X13558709Y1709772D01*
X13552872Y1698653D01*
X13552409Y1696088D01*
X13550766Y1692519D01*
X13545163Y1661463D01*
X13545456Y1657541D01*
X13544994Y1654978D01*
X13544994Y510997D01*
X13546578Y498547D01*
X13547516Y486009D01*
X13548569Y482916D01*
X13548978Y479691D01*
X13553631Y468034D01*
X13557678Y456131D01*
X13559466Y453409D01*
X13560675Y450378D01*
X13568109Y440244D01*
X13575000Y429750D01*
X13577416Y427559D01*
X13579344Y424931D01*
X13589081Y416981D01*
X13598378Y408547D01*
X13601256Y407034D01*
X13603788Y404969D01*
X13615200Y399713D01*
X13626319Y393875D01*
X13628884Y393413D01*
X13632453Y391769D01*
X13663509Y386166D01*
X13667431Y386459D01*
X13669994Y385997D01*
X13790000Y385997D01*
X13802450Y387581D01*
G37*
%LPC*%
G36*
X24947644Y46916500D02*
X24947644Y46916500D01*
X24166500Y47697644D01*
X24166500Y48802353D01*
X24947644Y49583497D01*
X26052353Y49583497D01*
X26833497Y48802353D01*
X26833497Y47697644D01*
X26052353Y46916500D01*
X24947644Y46916500D01*
G37*
%LPD*%
%LPC*%
G36*
X24947644Y49916500D02*
X24947644Y49916500D01*
X24166500Y50697644D01*
X24166500Y51802353D01*
X24947644Y52583497D01*
X26052353Y52583497D01*
X26833497Y51802353D01*
X26833497Y50697644D01*
X26052353Y49916500D01*
X24947644Y49916500D01*
G37*
%LPD*%
%LPC*%
G36*
X10712788Y30921000D02*
X10712788Y30921000D01*
X10564000Y31069788D01*
X10564000Y31890209D01*
X10575506Y31901716D01*
X10582869Y31911222D01*
X10590794Y31920272D01*
X10592500Y31923659D01*
X10594828Y31926669D01*
X10599578Y31937731D01*
X10604978Y31948463D01*
X10605781Y31952178D01*
X10607281Y31955669D01*
X10609109Y31967550D01*
X10611653Y31979309D01*
X10611500Y31983106D01*
X10612078Y31986859D01*
X10610869Y31998819D01*
X10610388Y32010844D01*
X10609369Y32013675D01*
X10608906Y32018259D01*
X10597972Y32047866D01*
X10596116Y32050541D01*
X10595372Y32052606D01*
X10581306Y32076966D01*
X10564000Y32141556D01*
X10564000Y32170000D01*
X14321997Y32170000D01*
X14321997Y32141556D01*
X14304691Y32076966D01*
X14290625Y32052606D01*
X14285972Y32041509D01*
X14280663Y32030725D01*
X14279891Y32027006D01*
X14278422Y32023500D01*
X14276697Y32011597D01*
X14274256Y31999822D01*
X14274441Y31996028D01*
X14273897Y31992269D01*
X14275206Y31980319D01*
X14275794Y31968300D01*
X14276922Y31964672D01*
X14277338Y31960897D01*
X14281600Y31949653D01*
X14285178Y31938169D01*
X14286894Y31935700D01*
X14288528Y31931388D01*
X14306750Y31905622D01*
X14309244Y31903513D01*
X14310491Y31901716D01*
X14321997Y31890209D01*
X14321997Y31069788D01*
X14173209Y30921000D01*
X12611744Y30921000D01*
X12606453Y30925097D01*
X12596934Y30933291D01*
X12594009Y30934731D01*
X12591438Y30936722D01*
X12579900Y30941678D01*
X12568622Y30947231D01*
X12565434Y30947891D01*
X12562441Y30949178D01*
X12550028Y30951088D01*
X12537719Y30953638D01*
X12534459Y30953478D01*
X12531250Y30953972D01*
X12518784Y30952713D01*
X12506197Y30952100D01*
X12503078Y30951128D01*
X12499850Y30950803D01*
X12488081Y30946459D01*
X12476066Y30942716D01*
X12473931Y30941234D01*
X12470244Y30939872D01*
X12444319Y30921872D01*
X12443569Y30921000D01*
X10712788Y30921000D01*
G37*
%LPD*%
%LPC*%
G36*
X10564000Y28792500D02*
X10564000Y28792500D01*
X10564000Y28818441D01*
X10581309Y28883038D01*
X10595369Y28907384D01*
X10600025Y28918481D01*
X10605338Y28929275D01*
X10606106Y28932988D01*
X10607575Y28936488D01*
X10609303Y28948397D01*
X10611744Y28960178D01*
X10611559Y28963969D01*
X10612103Y28967722D01*
X10610794Y28979666D01*
X10610206Y28991700D01*
X10609075Y28995331D01*
X10608663Y28999094D01*
X10604403Y29010328D01*
X10600822Y29021831D01*
X10599113Y29024294D01*
X10597478Y29028603D01*
X10579256Y29054372D01*
X10576753Y29056491D01*
X10575506Y29058284D01*
X10564000Y29069791D01*
X10564000Y29890209D01*
X10712788Y30038997D01*
X12444256Y30038997D01*
X12449519Y30034922D01*
X12459069Y30026703D01*
X12461994Y30025263D01*
X12464566Y30023272D01*
X12476091Y30018322D01*
X12487384Y30012763D01*
X12490581Y30012100D01*
X12493566Y30010819D01*
X12505978Y30008909D01*
X12518288Y30006359D01*
X12521531Y30006519D01*
X12524756Y30006022D01*
X12537256Y30007284D01*
X12549809Y30007897D01*
X12552925Y30008869D01*
X12556156Y30009194D01*
X12567934Y30013544D01*
X12579941Y30017284D01*
X12582075Y30018766D01*
X12585763Y30020128D01*
X12611684Y30038128D01*
X12612431Y30038997D01*
X14173209Y30038997D01*
X14321997Y29890209D01*
X14321997Y29069791D01*
X14310494Y29058288D01*
X14303131Y29048781D01*
X14295206Y29039731D01*
X14293500Y29036341D01*
X14291172Y29033334D01*
X14286422Y29022275D01*
X14281019Y29011541D01*
X14280216Y29007831D01*
X14278716Y29004338D01*
X14276881Y28992419D01*
X14274347Y28980694D01*
X14274497Y28976913D01*
X14273919Y28973144D01*
X14275128Y28961166D01*
X14275609Y28949159D01*
X14276628Y28946328D01*
X14277091Y28941744D01*
X14288022Y28912138D01*
X14289884Y28909453D01*
X14290625Y28907397D01*
X14304688Y28883041D01*
X14321997Y28818441D01*
X14321997Y28792500D01*
X10564000Y28792500D01*
G37*
%LPD*%
G36*
X19754800Y35248600D02*
X19754800Y35248600D01*
X19754200Y35249400D01*
X19755000Y35250000D01*
X19755000Y35750000D01*
X19751400Y35754800D01*
X19750600Y35754200D01*
X19750000Y35755000D01*
X11000000Y35755000D01*
X10995200Y35751400D01*
X10995800Y35750600D01*
X10995000Y35750000D01*
X10995000Y35250000D01*
X10998600Y35245200D01*
X10999400Y35245800D01*
X11000000Y35245000D01*
X19750000Y35245000D01*
X19754800Y35248600D01*
G37*
G36*
X19754800Y26248600D02*
X19754800Y26248600D01*
X19754200Y26249400D01*
X19755000Y26250000D01*
X19755000Y26750000D01*
X19751400Y26754800D01*
X19750600Y26754200D01*
X19750000Y26755000D01*
X11000000Y26755000D01*
X10995200Y26751400D01*
X10995800Y26750600D01*
X10995000Y26750000D01*
X10995000Y26250000D01*
X10998600Y26245200D01*
X10999400Y26245800D01*
X11000000Y26245000D01*
X19750000Y26245000D01*
X19754800Y26248600D01*
G37*
G36*
X19754800Y25248600D02*
X19754800Y25248600D01*
X19754200Y25249400D01*
X19755000Y25250000D01*
X19755000Y25750000D01*
X19751400Y25754800D01*
X19750600Y25754200D01*
X19750000Y25755000D01*
X11000000Y25755000D01*
X10995200Y25751400D01*
X10995800Y25750600D01*
X10995000Y25750000D01*
X10995000Y25250000D01*
X10998600Y25245200D01*
X10999400Y25245800D01*
X11000000Y25245000D01*
X19750000Y25245000D01*
X19754800Y25248600D01*
G37*
G36*
X19754800Y24248600D02*
X19754800Y24248600D01*
X19754200Y24249400D01*
X19755000Y24250000D01*
X19755000Y24750000D01*
X19751400Y24754800D01*
X19750600Y24754200D01*
X19750000Y24755000D01*
X11000000Y24755000D01*
X10995200Y24751400D01*
X10995800Y24750600D01*
X10995000Y24750000D01*
X10995000Y24250000D01*
X10998600Y24245200D01*
X10999400Y24245800D01*
X11000000Y24245000D01*
X19750000Y24245000D01*
X19754800Y24248600D01*
G37*
G36*
X19754800Y23248600D02*
X19754800Y23248600D01*
X19754200Y23249400D01*
X19755000Y23250000D01*
X19755000Y23750000D01*
X19751400Y23754800D01*
X19750600Y23754200D01*
X19750000Y23755000D01*
X11000000Y23755000D01*
X10995200Y23751400D01*
X10995800Y23750600D01*
X10995000Y23750000D01*
X10995000Y23250000D01*
X10998600Y23245200D01*
X10999400Y23245800D01*
X11000000Y23245000D01*
X19750000Y23245000D01*
X19754800Y23248600D01*
G37*
G36*
X19754800Y34248600D02*
X19754800Y34248600D01*
X19754200Y34249400D01*
X19755000Y34250000D01*
X19755000Y34750000D01*
X19751400Y34754800D01*
X19750600Y34754200D01*
X19750000Y34755000D01*
X11000000Y34755000D01*
X10995200Y34751400D01*
X10995800Y34750600D01*
X10995000Y34750000D01*
X10995000Y34250000D01*
X10998600Y34245200D01*
X10999400Y34245800D01*
X11000000Y34245000D01*
X19750000Y34245000D01*
X19754800Y34248600D01*
G37*
%LPC*%
G36*
X17765288Y30921000D02*
X17765288Y30921000D01*
X17616500Y31069788D01*
X17616500Y31890206D01*
X17628006Y31901713D01*
X17635375Y31911228D01*
X17643300Y31920278D01*
X17645003Y31923663D01*
X17647328Y31926666D01*
X17652088Y31937744D01*
X17657484Y31948472D01*
X17658284Y31952172D01*
X17659784Y31955663D01*
X17661616Y31967569D01*
X17664156Y31979316D01*
X17664003Y31983103D01*
X17664581Y31986856D01*
X17663372Y31998841D01*
X17662888Y32010850D01*
X17661872Y32013672D01*
X17661409Y32018256D01*
X17650478Y32047863D01*
X17648609Y32050553D01*
X17647869Y32052613D01*
X17633809Y32076959D01*
X17616500Y32141556D01*
X17616500Y32170000D01*
X20004497Y32170000D01*
X20004497Y32141556D01*
X19987191Y32076966D01*
X19973125Y32052606D01*
X19968472Y32041509D01*
X19963163Y32030725D01*
X19962391Y32027006D01*
X19960922Y32023500D01*
X19959197Y32011597D01*
X19956756Y31999822D01*
X19956941Y31996028D01*
X19956397Y31992269D01*
X19957706Y31980319D01*
X19958294Y31968300D01*
X19959422Y31964672D01*
X19959838Y31960897D01*
X19964100Y31949653D01*
X19967678Y31938169D01*
X19969394Y31935700D01*
X19971028Y31931388D01*
X19989250Y31905622D01*
X19991744Y31903513D01*
X19992991Y31901716D01*
X20004497Y31890209D01*
X20004497Y31069788D01*
X19855709Y30921000D01*
X17765288Y30921000D01*
G37*
%LPD*%
%LPC*%
G36*
X17616500Y28792500D02*
X17616500Y28792500D01*
X17616500Y28818441D01*
X17633806Y28883031D01*
X17647872Y28907391D01*
X17652525Y28918488D01*
X17657834Y28929272D01*
X17658606Y28932991D01*
X17660075Y28936497D01*
X17661800Y28948400D01*
X17664241Y28960175D01*
X17664056Y28963969D01*
X17664600Y28967728D01*
X17663291Y28979678D01*
X17662703Y28991697D01*
X17661575Y28995316D01*
X17661159Y28999100D01*
X17656897Y29010344D01*
X17653319Y29021828D01*
X17651603Y29024297D01*
X17649969Y29028609D01*
X17631747Y29054375D01*
X17629253Y29056484D01*
X17628006Y29058281D01*
X17616500Y29069788D01*
X17616500Y29890209D01*
X17765288Y30038997D01*
X19855709Y30038997D01*
X20004497Y29890209D01*
X20004497Y29069788D01*
X19992991Y29058281D01*
X19985628Y29048775D01*
X19977703Y29039725D01*
X19975997Y29036338D01*
X19973669Y29033328D01*
X19968919Y29022266D01*
X19963519Y29011534D01*
X19962716Y29007819D01*
X19961216Y29004328D01*
X19959388Y28992447D01*
X19956844Y28980688D01*
X19956997Y28976891D01*
X19956419Y28973138D01*
X19957628Y28961178D01*
X19958109Y28949153D01*
X19959128Y28946322D01*
X19959591Y28941738D01*
X19970525Y28912131D01*
X19972381Y28909456D01*
X19973125Y28907391D01*
X19987191Y28883031D01*
X20004497Y28818441D01*
X20004497Y28792500D01*
X17616500Y28792500D01*
G37*
%LPD*%
%LPC*%
G36*
X13514766Y60711500D02*
X13514766Y60711500D01*
X13187288Y60847144D01*
X12936644Y61097788D01*
X12801000Y61425266D01*
X12801000Y61779731D01*
X12936644Y62107209D01*
X13187288Y62357853D01*
X13514766Y62493497D01*
X13869231Y62493497D01*
X14196709Y62357853D01*
X14447353Y62107209D01*
X14582997Y61779731D01*
X14582997Y61425266D01*
X14447353Y61097788D01*
X14196709Y60847144D01*
X13869231Y60711500D01*
X13514766Y60711500D01*
G37*
%LPD*%
%LPC*%
G36*
X13915000Y1900000D02*
X13915000Y1900000D01*
X13915000Y3363997D01*
X14133441Y3363997D01*
X14198038Y3346688D01*
X14255950Y3313250D01*
X14276603Y3292597D01*
X14286544Y3284900D01*
X14296063Y3276706D01*
X14298988Y3275266D01*
X14301559Y3273275D01*
X14313097Y3268319D01*
X14324375Y3262766D01*
X14327563Y3262106D01*
X14330556Y3260819D01*
X14342969Y3258909D01*
X14355278Y3256359D01*
X14358538Y3256519D01*
X14361747Y3256025D01*
X14374213Y3257284D01*
X14386800Y3257897D01*
X14389919Y3258869D01*
X14393147Y3259194D01*
X14404916Y3263538D01*
X14416931Y3267281D01*
X14419066Y3268763D01*
X14422753Y3270125D01*
X14448678Y3288125D01*
X14451247Y3291109D01*
X14453384Y3292594D01*
X14474034Y3313244D01*
X14531959Y3346688D01*
X14596556Y3363997D01*
X14814994Y3363997D01*
X14814994Y1900000D01*
X13915000Y1900000D01*
G37*
%LPD*%
%LPC*%
G36*
X8004994Y21124994D02*
X8004994Y21124994D01*
X8004994Y21890997D01*
X8596953Y21890997D01*
X8754925Y21865978D01*
X8907016Y21816559D01*
X9049478Y21743972D01*
X9178891Y21649947D01*
X9291947Y21536891D01*
X9385972Y21407478D01*
X9458559Y21265016D01*
X9504056Y21124994D01*
X8004994Y21124994D01*
G37*
%LPD*%
%LPC*%
G36*
X6005941Y21124994D02*
X6005941Y21124994D01*
X6051438Y21265016D01*
X6124025Y21407478D01*
X6218050Y21536891D01*
X6331106Y21649947D01*
X6460519Y21743972D01*
X6602981Y21816559D01*
X6755072Y21865978D01*
X6913044Y21890997D01*
X7505000Y21890997D01*
X7505000Y21124994D01*
X6005941Y21124994D01*
G37*
%LPD*%
%LPC*%
G36*
X6913047Y19859000D02*
X6913047Y19859000D01*
X6755072Y19884019D01*
X6602981Y19933438D01*
X6460519Y20006025D01*
X6331106Y20100050D01*
X6218050Y20213106D01*
X6124025Y20342519D01*
X6051438Y20484981D01*
X6005941Y20625000D01*
X7505000Y20625000D01*
X7505000Y19858997D01*
X6913047Y19859000D01*
G37*
%LPD*%
%LPC*%
G36*
X4499994Y59249994D02*
X4499994Y59249994D01*
X4499994Y60333497D01*
X4802353Y60333497D01*
X5583497Y59552353D01*
X5583497Y59249994D01*
X4499994Y59249994D01*
G37*
%LPD*%
%LPC*%
G36*
X25749994Y56749994D02*
X25749994Y56749994D01*
X25749994Y57833497D01*
X26052353Y57833497D01*
X26833497Y57052353D01*
X26833497Y56749994D01*
X25749994Y56749994D01*
G37*
%LPD*%
%LPC*%
G36*
X25749994Y43249994D02*
X25749994Y43249994D01*
X25749994Y44333497D01*
X26052353Y44333497D01*
X26833497Y43552353D01*
X26833497Y43249994D01*
X25749994Y43249994D01*
G37*
%LPD*%
%LPC*%
G36*
X4499994Y10249994D02*
X4499994Y10249994D01*
X4499994Y11333497D01*
X4802353Y11333497D01*
X5583497Y10552353D01*
X5583497Y10249994D01*
X4499994Y10249994D01*
G37*
%LPD*%
%LPC*%
G36*
X2916500Y10249994D02*
X2916500Y10249994D01*
X2916500Y10552353D01*
X3697644Y11333497D01*
X4000000Y11333497D01*
X4000000Y10249994D01*
X2916500Y10249994D01*
G37*
%LPD*%
%LPC*%
G36*
X2916500Y59249994D02*
X2916500Y59249994D01*
X2916500Y59552353D01*
X3697644Y60333497D01*
X4000000Y60333497D01*
X4000000Y59249994D01*
X2916500Y59249994D01*
G37*
%LPD*%
%LPC*%
G36*
X24166500Y56749994D02*
X24166500Y56749994D01*
X24166500Y57052353D01*
X24947644Y57833497D01*
X25250000Y57833497D01*
X25250000Y56749994D01*
X24166500Y56749994D01*
G37*
%LPD*%
%LPC*%
G36*
X25749994Y55166500D02*
X25749994Y55166500D01*
X25749994Y56250000D01*
X26833497Y56250000D01*
X26833497Y55947644D01*
X26052353Y55166500D01*
X25749994Y55166500D01*
G37*
%LPD*%
%LPC*%
G36*
X24166500Y43249994D02*
X24166500Y43249994D01*
X24166500Y43552353D01*
X24947644Y44333497D01*
X25250000Y44333497D01*
X25250000Y43249994D01*
X24166500Y43249994D01*
G37*
%LPD*%
%LPC*%
G36*
X25749994Y41666500D02*
X25749994Y41666500D01*
X25749994Y42750000D01*
X26833497Y42750000D01*
X26833497Y42447644D01*
X26052353Y41666500D01*
X25749994Y41666500D01*
G37*
%LPD*%
%LPC*%
G36*
X4499994Y57666500D02*
X4499994Y57666500D01*
X4499994Y58750000D01*
X5583494Y58750000D01*
X5583497Y58447644D01*
X4802353Y57666500D01*
X4499994Y57666500D01*
G37*
%LPD*%
%LPC*%
G36*
X4499994Y8666500D02*
X4499994Y8666500D01*
X4499994Y9750000D01*
X5583494Y9750000D01*
X5583497Y9447644D01*
X4802353Y8666500D01*
X4499994Y8666500D01*
G37*
%LPD*%
%LPC*%
G36*
X3697644Y57666500D02*
X3697644Y57666500D01*
X2916500Y58447644D01*
X2916500Y58750000D01*
X4000000Y58750000D01*
X4000000Y57666500D01*
X3697644Y57666500D01*
G37*
%LPD*%
%LPC*%
G36*
X24947644Y41666500D02*
X24947644Y41666500D01*
X24166500Y42447644D01*
X24166500Y42750000D01*
X25250000Y42750000D01*
X25250000Y41666500D01*
X24947644Y41666500D01*
G37*
%LPD*%
%LPC*%
G36*
X24947644Y55166500D02*
X24947644Y55166500D01*
X24166500Y55947644D01*
X24166500Y56250000D01*
X25250000Y56250000D01*
X25250000Y55166500D01*
X24947644Y55166500D01*
G37*
%LPD*%
%LPC*%
G36*
X3697644Y8666500D02*
X3697644Y8666500D01*
X2916500Y9447644D01*
X2916500Y9750000D01*
X4000000Y9750000D01*
X4000000Y8666500D01*
X3697644Y8666500D01*
G37*
%LPD*%
G36*
X17612450Y387581D02*
X17612450Y387581D01*
X17624988Y388519D01*
X17628081Y389572D01*
X17631306Y389981D01*
X17642963Y394634D01*
X17654866Y398681D01*
X17657588Y400469D01*
X17660619Y401678D01*
X17670753Y409113D01*
X17681247Y416003D01*
X17683438Y418419D01*
X17686066Y420347D01*
X17694016Y430084D01*
X17702450Y439381D01*
X17703963Y442259D01*
X17706028Y444791D01*
X17711284Y456203D01*
X17717122Y467322D01*
X17717584Y469888D01*
X17719228Y473456D01*
X17724831Y504513D01*
X17724538Y508434D01*
X17725000Y510997D01*
X17725000Y1654978D01*
X17723416Y1667428D01*
X17722478Y1679966D01*
X17721425Y1683059D01*
X17721016Y1686284D01*
X17716363Y1697941D01*
X17712316Y1709844D01*
X17710528Y1712566D01*
X17709319Y1715597D01*
X17701884Y1725731D01*
X17694994Y1736225D01*
X17692578Y1738416D01*
X17690650Y1741044D01*
X17680913Y1748994D01*
X17671616Y1757428D01*
X17668738Y1758941D01*
X17666206Y1761006D01*
X17654794Y1766263D01*
X17643675Y1772100D01*
X17641109Y1772563D01*
X17637541Y1774206D01*
X17606484Y1779809D01*
X17602563Y1779516D01*
X17600000Y1779978D01*
X17479994Y1779978D01*
X17467544Y1778394D01*
X17455006Y1777456D01*
X17451913Y1776403D01*
X17448688Y1775994D01*
X17437031Y1771341D01*
X17425128Y1767294D01*
X17422406Y1765506D01*
X17419375Y1764297D01*
X17409241Y1756863D01*
X17398747Y1749972D01*
X17396556Y1747556D01*
X17393928Y1745628D01*
X17385978Y1735891D01*
X17377544Y1726594D01*
X17376031Y1723716D01*
X17373966Y1721184D01*
X17368709Y1709772D01*
X17362872Y1698653D01*
X17362409Y1696088D01*
X17360766Y1692519D01*
X17355163Y1661463D01*
X17355456Y1657541D01*
X17354994Y1654978D01*
X17354994Y510997D01*
X17356578Y498547D01*
X17357516Y486009D01*
X17358569Y482916D01*
X17358978Y479691D01*
X17363631Y468034D01*
X17367678Y456131D01*
X17369466Y453409D01*
X17370675Y450378D01*
X17378109Y440244D01*
X17385000Y429750D01*
X17387416Y427559D01*
X17389344Y424931D01*
X17399081Y416981D01*
X17408378Y408547D01*
X17411256Y407034D01*
X17413788Y404969D01*
X17425200Y399713D01*
X17436319Y393875D01*
X17438884Y393413D01*
X17442453Y391769D01*
X17473509Y386166D01*
X17477431Y386459D01*
X17479994Y385997D01*
X17600000Y385997D01*
X17612450Y387581D01*
G37*
%LPC*%
G36*
X25499984Y42999984D02*
X25499984Y42999984D01*
X25499984Y43000013D01*
X25500013Y43000013D01*
X25500013Y42999984D01*
X25499984Y42999984D01*
G37*
%LPD*%
%LPC*%
G36*
X4249984Y58999984D02*
X4249984Y58999984D01*
X4249984Y59000013D01*
X4250013Y59000013D01*
X4250013Y58999984D01*
X4249984Y58999984D01*
G37*
%LPD*%
%LPC*%
G36*
X4249984Y9999984D02*
X4249984Y9999984D01*
X4249984Y10000013D01*
X4250013Y10000013D01*
X4250013Y9999984D01*
X4249984Y9999984D01*
G37*
%LPD*%
%LPC*%
G36*
X7754984Y20874984D02*
X7754984Y20874984D01*
X7754984Y20875013D01*
X7755013Y20875013D01*
X7755013Y20874984D01*
X7754984Y20874984D01*
G37*
%LPD*%
%LPC*%
G36*
X25499984Y56499984D02*
X25499984Y56499984D01*
X25499984Y56500013D01*
X25500013Y56500013D01*
X25500013Y56499984D01*
X25499984Y56499984D01*
G37*
%LPD*%
D10*
X33397353Y32051322D02*
X33551322Y32051322D01*
X33551322Y31538100D01*
X33243388Y31538100D01*
X33238427Y31538160D01*
X33233470Y31538340D01*
X33228518Y31538639D01*
X33223575Y31539058D01*
X33218643Y31539597D01*
X33213726Y31540254D01*
X33208826Y31541030D01*
X33203947Y31541924D01*
X33199090Y31542936D01*
X33194259Y31544065D01*
X33189457Y31545311D01*
X33184687Y31546672D01*
X33179951Y31548148D01*
X33175251Y31549737D01*
X33170592Y31551440D01*
X33165975Y31553255D01*
X33161403Y31555182D01*
X33156879Y31557218D01*
X33152406Y31559362D01*
X33147986Y31561615D01*
X33143621Y31563973D01*
X33139315Y31566436D01*
X33135070Y31569002D01*
X33130888Y31571671D01*
X33126771Y31574439D01*
X33122723Y31577307D01*
X33118745Y31580271D01*
X33114840Y31583330D01*
X33111010Y31586483D01*
X33107257Y31589728D01*
X33103584Y31593062D01*
X33099992Y31596484D01*
X33096484Y31599992D01*
X33093062Y31603584D01*
X33089728Y31607257D01*
X33086483Y31611010D01*
X33083330Y31614840D01*
X33080271Y31618745D01*
X33077307Y31622723D01*
X33074439Y31626771D01*
X33071671Y31630888D01*
X33069002Y31635070D01*
X33066436Y31639315D01*
X33063973Y31643621D01*
X33061615Y31647986D01*
X33059362Y31652406D01*
X33057218Y31656879D01*
X33055182Y31661403D01*
X33053255Y31665975D01*
X33051440Y31670592D01*
X33049737Y31675251D01*
X33048148Y31679951D01*
X33046672Y31684687D01*
X33045311Y31689457D01*
X33044065Y31694259D01*
X33042936Y31699090D01*
X33041924Y31703947D01*
X33041030Y31708826D01*
X33040254Y31713726D01*
X33039597Y31718643D01*
X33039058Y31723575D01*
X33038639Y31728518D01*
X33038340Y31733470D01*
X33038160Y31738427D01*
X33038100Y31743388D01*
X33038100Y32256609D01*
X33038162Y32261647D01*
X33038347Y32266682D01*
X33038656Y32271711D01*
X33039089Y32276731D01*
X33039644Y32281739D01*
X33040322Y32286731D01*
X33041122Y32291706D01*
X33042045Y32296659D01*
X33043088Y32301588D01*
X33044252Y32306490D01*
X33045536Y32311362D01*
X33046940Y32316201D01*
X33048461Y32321004D01*
X33050100Y32325769D01*
X33051856Y32330492D01*
X33053727Y32335170D01*
X33055712Y32339801D01*
X33057810Y32344381D01*
X33060020Y32348909D01*
X33062340Y32353382D01*
X33064769Y32357796D01*
X33067306Y32362149D01*
X33069950Y32366438D01*
X33072697Y32370662D01*
X33075547Y32374816D01*
X33078499Y32378900D01*
X33081550Y32382909D01*
X33084698Y32386843D01*
X33087942Y32390698D01*
X33091279Y32394473D01*
X33094709Y32398164D01*
X33098227Y32401771D01*
X33101833Y32405289D01*
X33105525Y32408718D01*
X33109299Y32412056D01*
X33113154Y32415300D01*
X33117088Y32418448D01*
X33121098Y32421499D01*
X33125181Y32424451D01*
X33129336Y32427301D01*
X33133559Y32430049D01*
X33137849Y32432692D01*
X33142202Y32435229D01*
X33146616Y32437658D01*
X33151088Y32439979D01*
X33155616Y32442189D01*
X33160197Y32444287D01*
X33164827Y32446272D01*
X33169506Y32448143D01*
X33174228Y32449899D01*
X33178993Y32451538D01*
X33183796Y32453060D01*
X33188635Y32454463D01*
X33193507Y32455747D01*
X33198409Y32456911D01*
X33203338Y32457955D01*
X33208291Y32458877D01*
X33213266Y32459678D01*
X33218258Y32460356D01*
X33223266Y32460911D01*
X33228286Y32461344D01*
X33233315Y32461653D01*
X33238350Y32461838D01*
X33243388Y32461900D01*
X33551322Y32461900D01*
X33998097Y32461900D02*
X33998097Y31538100D01*
X34511319Y31538100D02*
X33998097Y32461900D01*
X34511319Y32461900D02*
X34511319Y31538100D01*
X34958094Y31538100D02*
X34958094Y32461900D01*
X35214703Y32461900D01*
X35214703Y32461901D02*
X35220904Y32461826D01*
X35227101Y32461601D01*
X35233291Y32461227D01*
X35239470Y32460703D01*
X35245634Y32460030D01*
X35251781Y32459208D01*
X35257906Y32458238D01*
X35264005Y32457120D01*
X35270076Y32455855D01*
X35276115Y32454444D01*
X35282117Y32452888D01*
X35288080Y32451186D01*
X35294001Y32449341D01*
X35299875Y32447354D01*
X35305699Y32445225D01*
X35311470Y32442956D01*
X35317185Y32440549D01*
X35322840Y32438004D01*
X35328432Y32435323D01*
X35333957Y32432508D01*
X35339413Y32429560D01*
X35344795Y32426481D01*
X35350102Y32423273D01*
X35355330Y32419937D01*
X35360476Y32416476D01*
X35365536Y32412892D01*
X35370509Y32409187D01*
X35375390Y32405363D01*
X35380178Y32401421D01*
X35384869Y32397366D01*
X35389461Y32393198D01*
X35393950Y32388920D01*
X35398335Y32384535D01*
X35402613Y32380046D01*
X35406781Y32375454D01*
X35410836Y32370763D01*
X35414778Y32365975D01*
X35418602Y32361094D01*
X35422307Y32356121D01*
X35425891Y32351061D01*
X35429352Y32345915D01*
X35432688Y32340687D01*
X35435896Y32335380D01*
X35438975Y32329998D01*
X35441923Y32324542D01*
X35444738Y32319017D01*
X35447419Y32313425D01*
X35449964Y32307770D01*
X35452371Y32302055D01*
X35454640Y32296284D01*
X35456769Y32290460D01*
X35458756Y32284586D01*
X35460601Y32278665D01*
X35462303Y32272702D01*
X35463859Y32266700D01*
X35465270Y32260661D01*
X35466535Y32254590D01*
X35467653Y32248491D01*
X35468623Y32242366D01*
X35469445Y32236219D01*
X35470118Y32230055D01*
X35470642Y32223876D01*
X35471016Y32217686D01*
X35471241Y32211489D01*
X35471316Y32205288D01*
X35471316Y31794709D01*
X35471315Y31794709D02*
X35471240Y31788508D01*
X35471015Y31782311D01*
X35470641Y31776121D01*
X35470117Y31769942D01*
X35469444Y31763778D01*
X35468622Y31757632D01*
X35467652Y31751507D01*
X35466534Y31745407D01*
X35465269Y31739336D01*
X35463858Y31733298D01*
X35462302Y31727295D01*
X35460600Y31721332D01*
X35458755Y31715412D01*
X35456768Y31709538D01*
X35454639Y31703714D01*
X35452370Y31697942D01*
X35449963Y31692228D01*
X35447418Y31686573D01*
X35444737Y31680981D01*
X35441922Y31675456D01*
X35438974Y31670000D01*
X35435895Y31664618D01*
X35432687Y31659311D01*
X35429351Y31654083D01*
X35425890Y31648937D01*
X35422306Y31643877D01*
X35418601Y31638905D01*
X35414777Y31634023D01*
X35410835Y31629236D01*
X35406780Y31624545D01*
X35402612Y31619953D01*
X35398334Y31615464D01*
X35393949Y31611079D01*
X35389460Y31606801D01*
X35384868Y31602633D01*
X35380177Y31598578D01*
X35375389Y31594636D01*
X35370508Y31590812D01*
X35365535Y31587107D01*
X35360475Y31583523D01*
X35355329Y31580062D01*
X35350102Y31576727D01*
X35344795Y31573519D01*
X35339412Y31570440D01*
X35333956Y31567492D01*
X35328431Y31564677D01*
X35322839Y31561996D01*
X35317184Y31559451D01*
X35311470Y31557043D01*
X35305699Y31554775D01*
X35299874Y31552646D01*
X35294000Y31550659D01*
X35288080Y31548814D01*
X35282117Y31547113D01*
X35276114Y31545556D01*
X35270076Y31544145D01*
X35264005Y31542880D01*
X35257905Y31541762D01*
X35251780Y31540792D01*
X35245634Y31539971D01*
X35239469Y31539298D01*
X35233290Y31538774D01*
X35227101Y31538400D01*
X35220904Y31538175D01*
X35214703Y31538100D01*
X34958094Y31538100D01*
X-5958094Y35051322D02*
X-6112063Y35051322D01*
X-5958094Y35051322D02*
X-5958094Y34538100D01*
X-6266028Y34538100D01*
X-6270989Y34538160D01*
X-6275946Y34538340D01*
X-6280898Y34538639D01*
X-6285841Y34539058D01*
X-6290773Y34539597D01*
X-6295690Y34540254D01*
X-6300590Y34541030D01*
X-6305469Y34541924D01*
X-6310326Y34542936D01*
X-6315157Y34544065D01*
X-6319959Y34545311D01*
X-6324729Y34546672D01*
X-6329465Y34548148D01*
X-6334165Y34549737D01*
X-6338824Y34551440D01*
X-6343441Y34553255D01*
X-6348013Y34555182D01*
X-6352537Y34557218D01*
X-6357010Y34559362D01*
X-6361430Y34561615D01*
X-6365795Y34563973D01*
X-6370101Y34566436D01*
X-6374346Y34569002D01*
X-6378528Y34571671D01*
X-6382645Y34574439D01*
X-6386693Y34577307D01*
X-6390671Y34580271D01*
X-6394576Y34583330D01*
X-6398406Y34586483D01*
X-6402159Y34589728D01*
X-6405832Y34593062D01*
X-6409424Y34596484D01*
X-6412932Y34599992D01*
X-6416354Y34603584D01*
X-6419688Y34607257D01*
X-6422933Y34611010D01*
X-6426086Y34614840D01*
X-6429145Y34618745D01*
X-6432109Y34622723D01*
X-6434977Y34626771D01*
X-6437745Y34630888D01*
X-6440414Y34635070D01*
X-6442980Y34639315D01*
X-6445443Y34643621D01*
X-6447801Y34647986D01*
X-6450054Y34652406D01*
X-6452198Y34656879D01*
X-6454234Y34661403D01*
X-6456161Y34665975D01*
X-6457976Y34670592D01*
X-6459679Y34675251D01*
X-6461268Y34679951D01*
X-6462744Y34684687D01*
X-6464105Y34689457D01*
X-6465351Y34694259D01*
X-6466480Y34699090D01*
X-6467492Y34703947D01*
X-6468386Y34708826D01*
X-6469162Y34713726D01*
X-6469819Y34718643D01*
X-6470358Y34723575D01*
X-6470777Y34728518D01*
X-6471076Y34733470D01*
X-6471256Y34738427D01*
X-6471316Y34743388D01*
X-6471316Y35256609D01*
X-6471256Y35261570D01*
X-6471076Y35266527D01*
X-6470777Y35271479D01*
X-6470358Y35276422D01*
X-6469819Y35281354D01*
X-6469162Y35286271D01*
X-6468386Y35291171D01*
X-6467492Y35296050D01*
X-6466480Y35300907D01*
X-6465351Y35305738D01*
X-6464105Y35310540D01*
X-6462744Y35315310D01*
X-6461268Y35320046D01*
X-6459679Y35324746D01*
X-6457976Y35329405D01*
X-6456161Y35334022D01*
X-6454234Y35338594D01*
X-6452198Y35343118D01*
X-6450054Y35347591D01*
X-6447801Y35352011D01*
X-6445443Y35356376D01*
X-6442980Y35360682D01*
X-6440414Y35364927D01*
X-6437745Y35369109D01*
X-6434977Y35373226D01*
X-6432109Y35377274D01*
X-6429145Y35381252D01*
X-6426086Y35385157D01*
X-6422933Y35388987D01*
X-6419688Y35392740D01*
X-6416354Y35396413D01*
X-6412932Y35400005D01*
X-6409424Y35403513D01*
X-6405832Y35406935D01*
X-6402159Y35410269D01*
X-6398406Y35413514D01*
X-6394576Y35416667D01*
X-6390671Y35419726D01*
X-6386693Y35422690D01*
X-6382645Y35425558D01*
X-6378528Y35428326D01*
X-6374346Y35430995D01*
X-6370101Y35433561D01*
X-6365795Y35436024D01*
X-6361430Y35438382D01*
X-6357010Y35440635D01*
X-6352537Y35442779D01*
X-6348013Y35444815D01*
X-6343441Y35446742D01*
X-6338824Y35448557D01*
X-6334165Y35450260D01*
X-6329465Y35451849D01*
X-6324729Y35453325D01*
X-6319959Y35454686D01*
X-6315157Y35455932D01*
X-6310326Y35457061D01*
X-6305469Y35458073D01*
X-6300590Y35458967D01*
X-6295690Y35459743D01*
X-6290773Y35460400D01*
X-6285841Y35460939D01*
X-6280898Y35461358D01*
X-6275946Y35461657D01*
X-6270989Y35461837D01*
X-6266028Y35461897D01*
X-6266028Y35461900D02*
X-5958094Y35461900D01*
X-5511319Y35461900D02*
X-5511319Y34538100D01*
X-4998097Y34538100D02*
X-5511319Y35461900D01*
X-4998097Y35461900D02*
X-4998097Y34538100D01*
X-4551322Y34538100D02*
X-4551322Y35461900D01*
X-4294713Y35461900D01*
X-4294713Y35461901D02*
X-4288512Y35461826D01*
X-4282315Y35461601D01*
X-4276125Y35461227D01*
X-4269946Y35460703D01*
X-4263782Y35460030D01*
X-4257635Y35459208D01*
X-4251510Y35458238D01*
X-4245411Y35457120D01*
X-4239340Y35455855D01*
X-4233301Y35454444D01*
X-4227299Y35452888D01*
X-4221336Y35451186D01*
X-4215415Y35449341D01*
X-4209541Y35447354D01*
X-4203717Y35445225D01*
X-4197946Y35442956D01*
X-4192231Y35440549D01*
X-4186576Y35438004D01*
X-4180984Y35435323D01*
X-4175459Y35432508D01*
X-4170003Y35429560D01*
X-4164621Y35426481D01*
X-4159314Y35423273D01*
X-4154086Y35419937D01*
X-4148940Y35416476D01*
X-4143880Y35412892D01*
X-4138907Y35409187D01*
X-4134026Y35405363D01*
X-4129238Y35401421D01*
X-4124547Y35397366D01*
X-4119955Y35393198D01*
X-4115466Y35388920D01*
X-4111081Y35384535D01*
X-4106803Y35380046D01*
X-4102635Y35375454D01*
X-4098580Y35370763D01*
X-4094638Y35365975D01*
X-4090814Y35361094D01*
X-4087109Y35356121D01*
X-4083525Y35351061D01*
X-4080064Y35345915D01*
X-4076728Y35340687D01*
X-4073520Y35335380D01*
X-4070441Y35329998D01*
X-4067493Y35324542D01*
X-4064678Y35319017D01*
X-4061997Y35313425D01*
X-4059452Y35307770D01*
X-4057045Y35302055D01*
X-4054776Y35296284D01*
X-4052647Y35290460D01*
X-4050660Y35284586D01*
X-4048815Y35278665D01*
X-4047113Y35272702D01*
X-4045557Y35266700D01*
X-4044146Y35260661D01*
X-4042881Y35254590D01*
X-4041763Y35248491D01*
X-4040793Y35242366D01*
X-4039971Y35236219D01*
X-4039298Y35230055D01*
X-4038774Y35223876D01*
X-4038400Y35217686D01*
X-4038175Y35211489D01*
X-4038100Y35205288D01*
X-4038100Y34794709D01*
X-4038175Y34788508D01*
X-4038400Y34782311D01*
X-4038774Y34776121D01*
X-4039298Y34769942D01*
X-4039971Y34763778D01*
X-4040793Y34757631D01*
X-4041763Y34751506D01*
X-4042881Y34745407D01*
X-4044146Y34739336D01*
X-4045557Y34733297D01*
X-4047113Y34727295D01*
X-4048815Y34721332D01*
X-4050660Y34715411D01*
X-4052647Y34709537D01*
X-4054776Y34703713D01*
X-4057045Y34697942D01*
X-4059452Y34692227D01*
X-4061997Y34686572D01*
X-4064678Y34680980D01*
X-4067493Y34675455D01*
X-4070441Y34669999D01*
X-4073520Y34664617D01*
X-4076728Y34659310D01*
X-4080064Y34654082D01*
X-4083525Y34648936D01*
X-4087109Y34643876D01*
X-4090814Y34638903D01*
X-4094638Y34634022D01*
X-4098580Y34629234D01*
X-4102635Y34624543D01*
X-4106803Y34619951D01*
X-4111081Y34615462D01*
X-4115466Y34611077D01*
X-4119955Y34606799D01*
X-4124547Y34602631D01*
X-4129238Y34598576D01*
X-4134026Y34594634D01*
X-4138907Y34590810D01*
X-4143880Y34587105D01*
X-4148940Y34583521D01*
X-4154086Y34580060D01*
X-4159314Y34576724D01*
X-4164621Y34573516D01*
X-4170003Y34570437D01*
X-4175459Y34567489D01*
X-4180984Y34564674D01*
X-4186576Y34561993D01*
X-4192231Y34559448D01*
X-4197946Y34557041D01*
X-4203717Y34554772D01*
X-4209541Y34552643D01*
X-4215415Y34550656D01*
X-4221336Y34548811D01*
X-4227299Y34547109D01*
X-4233301Y34545553D01*
X-4239340Y34544142D01*
X-4245411Y34542877D01*
X-4251510Y34541759D01*
X-4257635Y34540789D01*
X-4263782Y34539967D01*
X-4269946Y34539294D01*
X-4276125Y34538770D01*
X-4282315Y34538396D01*
X-4288512Y34538171D01*
X-4294713Y34538096D01*
X-4294713Y34538100D02*
X-4551322Y34538100D01*
X13948678Y73397353D02*
X13948678Y73551322D01*
X14461900Y73551322D01*
X14461900Y73243388D01*
X14461901Y73243388D02*
X14461841Y73238427D01*
X14461661Y73233470D01*
X14461362Y73228518D01*
X14460943Y73223575D01*
X14460404Y73218643D01*
X14459747Y73213726D01*
X14458971Y73208826D01*
X14458077Y73203947D01*
X14457065Y73199090D01*
X14455936Y73194259D01*
X14454690Y73189457D01*
X14453329Y73184687D01*
X14451853Y73179951D01*
X14450264Y73175251D01*
X14448561Y73170592D01*
X14446746Y73165975D01*
X14444819Y73161403D01*
X14442783Y73156879D01*
X14440639Y73152406D01*
X14438386Y73147986D01*
X14436028Y73143621D01*
X14433565Y73139315D01*
X14430999Y73135070D01*
X14428330Y73130888D01*
X14425562Y73126771D01*
X14422694Y73122723D01*
X14419730Y73118745D01*
X14416671Y73114840D01*
X14413518Y73111010D01*
X14410273Y73107257D01*
X14406939Y73103584D01*
X14403517Y73099992D01*
X14400009Y73096484D01*
X14396417Y73093062D01*
X14392744Y73089728D01*
X14388991Y73086483D01*
X14385161Y73083330D01*
X14381256Y73080271D01*
X14377278Y73077307D01*
X14373230Y73074439D01*
X14369113Y73071671D01*
X14364931Y73069002D01*
X14360686Y73066436D01*
X14356380Y73063973D01*
X14352015Y73061615D01*
X14347595Y73059362D01*
X14343122Y73057218D01*
X14338598Y73055182D01*
X14334026Y73053255D01*
X14329409Y73051440D01*
X14324750Y73049737D01*
X14320050Y73048148D01*
X14315314Y73046672D01*
X14310544Y73045311D01*
X14305742Y73044065D01*
X14300911Y73042936D01*
X14296054Y73041924D01*
X14291175Y73041030D01*
X14286275Y73040254D01*
X14281358Y73039597D01*
X14276426Y73039058D01*
X14271483Y73038639D01*
X14266531Y73038340D01*
X14261574Y73038160D01*
X14256613Y73038100D01*
X13743391Y73038100D01*
X13738353Y73038162D01*
X13733318Y73038347D01*
X13728289Y73038656D01*
X13723269Y73039089D01*
X13718261Y73039644D01*
X13713269Y73040322D01*
X13708294Y73041122D01*
X13703341Y73042045D01*
X13698412Y73043088D01*
X13693510Y73044252D01*
X13688638Y73045536D01*
X13683798Y73046940D01*
X13678995Y73048461D01*
X13674231Y73050100D01*
X13669508Y73051856D01*
X13664830Y73053726D01*
X13660199Y73055712D01*
X13655618Y73057810D01*
X13651090Y73060020D01*
X13646618Y73062340D01*
X13642204Y73064769D01*
X13637851Y73067306D01*
X13633561Y73069949D01*
X13629338Y73072697D01*
X13625183Y73075547D01*
X13621100Y73078499D01*
X13617090Y73081550D01*
X13613156Y73084698D01*
X13609301Y73087942D01*
X13605526Y73091279D01*
X13601835Y73094708D01*
X13598228Y73098227D01*
X13594710Y73101833D01*
X13591280Y73105525D01*
X13587943Y73109299D01*
X13584699Y73113154D01*
X13581550Y73117088D01*
X13578500Y73121098D01*
X13575548Y73125181D01*
X13572697Y73129336D01*
X13569950Y73133559D01*
X13567307Y73137848D01*
X13564769Y73142201D01*
X13562340Y73146615D01*
X13560019Y73151088D01*
X13557809Y73155615D01*
X13555711Y73160196D01*
X13553726Y73164827D01*
X13551855Y73169505D01*
X13550099Y73174228D01*
X13548460Y73178992D01*
X13546938Y73183795D01*
X13545535Y73188634D01*
X13544251Y73193507D01*
X13543086Y73198409D01*
X13542043Y73203338D01*
X13541120Y73208291D01*
X13540320Y73213266D01*
X13539642Y73218258D01*
X13539086Y73223266D01*
X13538654Y73228286D01*
X13538345Y73233315D01*
X13538159Y73238350D01*
X13538097Y73243388D01*
X13538100Y73243388D02*
X13538100Y73551322D01*
X13538100Y73998097D02*
X14461900Y73998097D01*
X14461900Y74511319D02*
X13538100Y73998097D01*
X13538100Y74511319D02*
X14461900Y74511319D01*
X14461900Y74958094D02*
X13538100Y74958094D01*
X13538100Y75214703D01*
X13538175Y75220904D01*
X13538400Y75227101D01*
X13538774Y75233291D01*
X13539298Y75239470D01*
X13539971Y75245634D01*
X13540793Y75251781D01*
X13541763Y75257906D01*
X13542881Y75264005D01*
X13544146Y75270076D01*
X13545557Y75276115D01*
X13547113Y75282117D01*
X13548815Y75288080D01*
X13550660Y75294001D01*
X13552647Y75299875D01*
X13554776Y75305699D01*
X13557045Y75311470D01*
X13559452Y75317185D01*
X13561997Y75322840D01*
X13564678Y75328432D01*
X13567493Y75333957D01*
X13570441Y75339413D01*
X13573520Y75344795D01*
X13576728Y75350102D01*
X13580064Y75355330D01*
X13583525Y75360476D01*
X13587109Y75365536D01*
X13590814Y75370509D01*
X13594638Y75375390D01*
X13598580Y75380178D01*
X13602635Y75384869D01*
X13606803Y75389461D01*
X13611081Y75393950D01*
X13615466Y75398335D01*
X13619955Y75402613D01*
X13624547Y75406781D01*
X13629238Y75410836D01*
X13634026Y75414778D01*
X13638907Y75418602D01*
X13643880Y75422307D01*
X13648940Y75425891D01*
X13654086Y75429352D01*
X13659314Y75432688D01*
X13664621Y75435896D01*
X13670003Y75438975D01*
X13675459Y75441923D01*
X13680984Y75444738D01*
X13686576Y75447419D01*
X13692231Y75449964D01*
X13697946Y75452371D01*
X13703717Y75454640D01*
X13709541Y75456769D01*
X13715415Y75458756D01*
X13721336Y75460601D01*
X13727299Y75462303D01*
X13733301Y75463859D01*
X13739340Y75465270D01*
X13745411Y75466535D01*
X13751510Y75467653D01*
X13757635Y75468623D01*
X13763782Y75469445D01*
X13769946Y75470118D01*
X13776125Y75470642D01*
X13782315Y75471016D01*
X13788512Y75471241D01*
X13794713Y75471316D01*
X14205291Y75471316D01*
X14205291Y75471315D02*
X14211492Y75471240D01*
X14217689Y75471015D01*
X14223879Y75470641D01*
X14230058Y75470117D01*
X14236222Y75469444D01*
X14242368Y75468622D01*
X14248493Y75467652D01*
X14254593Y75466534D01*
X14260664Y75465269D01*
X14266702Y75463858D01*
X14272705Y75462302D01*
X14278668Y75460600D01*
X14284588Y75458755D01*
X14290462Y75456768D01*
X14296286Y75454639D01*
X14302058Y75452370D01*
X14307772Y75449963D01*
X14313427Y75447418D01*
X14319019Y75444737D01*
X14324544Y75441922D01*
X14330000Y75438974D01*
X14335382Y75435895D01*
X14340689Y75432687D01*
X14345917Y75429351D01*
X14351063Y75425890D01*
X14356123Y75422306D01*
X14361095Y75418601D01*
X14365977Y75414777D01*
X14370764Y75410835D01*
X14375455Y75406780D01*
X14380047Y75402612D01*
X14384536Y75398334D01*
X14388921Y75393949D01*
X14393199Y75389460D01*
X14397367Y75384868D01*
X14401422Y75380177D01*
X14405364Y75375389D01*
X14409188Y75370508D01*
X14412893Y75365535D01*
X14416477Y75360475D01*
X14419938Y75355329D01*
X14423273Y75350102D01*
X14426481Y75344795D01*
X14429560Y75339412D01*
X14432508Y75333956D01*
X14435323Y75328431D01*
X14438004Y75322839D01*
X14440549Y75317184D01*
X14442957Y75311470D01*
X14445225Y75305699D01*
X14447354Y75299874D01*
X14449341Y75294000D01*
X14451186Y75288080D01*
X14452887Y75282117D01*
X14454444Y75276114D01*
X14455855Y75270076D01*
X14457120Y75264005D01*
X14458238Y75257905D01*
X14459208Y75251780D01*
X14460029Y75245634D01*
X14460702Y75239469D01*
X14461226Y75233290D01*
X14461600Y75227101D01*
X14461825Y75220904D01*
X14461900Y75214703D01*
X14461900Y74958094D01*
X18948678Y-4958094D02*
X18948678Y-5112063D01*
X18948678Y-4958094D02*
X19461900Y-4958094D01*
X19461900Y-5266028D01*
X19461901Y-5266028D02*
X19461841Y-5270989D01*
X19461661Y-5275946D01*
X19461362Y-5280898D01*
X19460943Y-5285841D01*
X19460404Y-5290773D01*
X19459747Y-5295690D01*
X19458971Y-5300590D01*
X19458077Y-5305469D01*
X19457065Y-5310326D01*
X19455936Y-5315157D01*
X19454690Y-5319959D01*
X19453329Y-5324729D01*
X19451853Y-5329465D01*
X19450264Y-5334165D01*
X19448561Y-5338824D01*
X19446746Y-5343441D01*
X19444819Y-5348013D01*
X19442783Y-5352537D01*
X19440639Y-5357010D01*
X19438386Y-5361430D01*
X19436028Y-5365795D01*
X19433565Y-5370101D01*
X19430999Y-5374346D01*
X19428330Y-5378528D01*
X19425562Y-5382645D01*
X19422694Y-5386693D01*
X19419730Y-5390671D01*
X19416671Y-5394576D01*
X19413518Y-5398406D01*
X19410273Y-5402159D01*
X19406939Y-5405832D01*
X19403517Y-5409424D01*
X19400009Y-5412932D01*
X19396417Y-5416354D01*
X19392744Y-5419688D01*
X19388991Y-5422933D01*
X19385161Y-5426086D01*
X19381256Y-5429145D01*
X19377278Y-5432109D01*
X19373230Y-5434977D01*
X19369113Y-5437745D01*
X19364931Y-5440414D01*
X19360686Y-5442980D01*
X19356380Y-5445443D01*
X19352015Y-5447801D01*
X19347595Y-5450054D01*
X19343122Y-5452198D01*
X19338598Y-5454234D01*
X19334026Y-5456161D01*
X19329409Y-5457976D01*
X19324750Y-5459679D01*
X19320050Y-5461268D01*
X19315314Y-5462744D01*
X19310544Y-5464105D01*
X19305742Y-5465351D01*
X19300911Y-5466480D01*
X19296054Y-5467492D01*
X19291175Y-5468386D01*
X19286275Y-5469162D01*
X19281358Y-5469819D01*
X19276426Y-5470358D01*
X19271483Y-5470777D01*
X19266531Y-5471076D01*
X19261574Y-5471256D01*
X19256613Y-5471316D01*
X18743391Y-5471316D01*
X18738353Y-5471254D01*
X18733318Y-5471069D01*
X18728289Y-5470760D01*
X18723269Y-5470327D01*
X18718261Y-5469772D01*
X18713269Y-5469094D01*
X18708294Y-5468294D01*
X18703341Y-5467371D01*
X18698412Y-5466328D01*
X18693510Y-5465164D01*
X18688638Y-5463880D01*
X18683798Y-5462476D01*
X18678995Y-5460955D01*
X18674231Y-5459316D01*
X18669508Y-5457560D01*
X18664830Y-5455690D01*
X18660199Y-5453704D01*
X18655618Y-5451606D01*
X18651090Y-5449396D01*
X18646618Y-5447076D01*
X18642204Y-5444647D01*
X18637851Y-5442110D01*
X18633561Y-5439467D01*
X18629338Y-5436719D01*
X18625183Y-5433869D01*
X18621100Y-5430917D01*
X18617090Y-5427866D01*
X18613156Y-5424718D01*
X18609301Y-5421474D01*
X18605526Y-5418137D01*
X18601835Y-5414708D01*
X18598228Y-5411189D01*
X18594710Y-5407583D01*
X18591280Y-5403891D01*
X18587943Y-5400117D01*
X18584699Y-5396262D01*
X18581550Y-5392328D01*
X18578500Y-5388318D01*
X18575548Y-5384235D01*
X18572697Y-5380080D01*
X18569950Y-5375857D01*
X18567307Y-5371568D01*
X18564769Y-5367215D01*
X18562340Y-5362801D01*
X18560019Y-5358328D01*
X18557809Y-5353801D01*
X18555711Y-5349220D01*
X18553726Y-5344589D01*
X18551855Y-5339911D01*
X18550099Y-5335188D01*
X18548460Y-5330424D01*
X18546938Y-5325621D01*
X18545535Y-5320782D01*
X18544251Y-5315909D01*
X18543086Y-5311007D01*
X18542043Y-5306078D01*
X18541120Y-5301125D01*
X18540320Y-5296150D01*
X18539642Y-5291158D01*
X18539086Y-5286150D01*
X18538654Y-5281130D01*
X18538345Y-5276101D01*
X18538159Y-5271066D01*
X18538097Y-5266028D01*
X18538100Y-5266028D02*
X18538100Y-4958094D01*
X18538100Y-4511319D02*
X19461900Y-4511319D01*
X19461900Y-3998097D02*
X18538100Y-4511319D01*
X18538100Y-3998097D02*
X19461900Y-3998097D01*
X19461900Y-3551322D02*
X18538100Y-3551322D01*
X18538100Y-3294713D01*
X18538175Y-3288512D01*
X18538400Y-3282315D01*
X18538774Y-3276125D01*
X18539298Y-3269946D01*
X18539971Y-3263782D01*
X18540793Y-3257635D01*
X18541763Y-3251510D01*
X18542881Y-3245411D01*
X18544146Y-3239340D01*
X18545557Y-3233301D01*
X18547113Y-3227299D01*
X18548815Y-3221336D01*
X18550660Y-3215415D01*
X18552647Y-3209541D01*
X18554776Y-3203717D01*
X18557045Y-3197946D01*
X18559452Y-3192231D01*
X18561997Y-3186576D01*
X18564678Y-3180984D01*
X18567493Y-3175459D01*
X18570441Y-3170003D01*
X18573520Y-3164621D01*
X18576728Y-3159314D01*
X18580064Y-3154086D01*
X18583525Y-3148940D01*
X18587109Y-3143880D01*
X18590814Y-3138907D01*
X18594638Y-3134026D01*
X18598580Y-3129238D01*
X18602635Y-3124547D01*
X18606803Y-3119955D01*
X18611081Y-3115466D01*
X18615466Y-3111081D01*
X18619955Y-3106803D01*
X18624547Y-3102635D01*
X18629238Y-3098580D01*
X18634026Y-3094638D01*
X18638907Y-3090814D01*
X18643880Y-3087109D01*
X18648940Y-3083525D01*
X18654086Y-3080064D01*
X18659314Y-3076728D01*
X18664621Y-3073520D01*
X18670003Y-3070441D01*
X18675459Y-3067493D01*
X18680984Y-3064678D01*
X18686576Y-3061997D01*
X18692231Y-3059452D01*
X18697946Y-3057045D01*
X18703717Y-3054776D01*
X18709541Y-3052647D01*
X18715415Y-3050660D01*
X18721336Y-3048815D01*
X18727299Y-3047113D01*
X18733301Y-3045557D01*
X18739340Y-3044146D01*
X18745411Y-3042881D01*
X18751510Y-3041763D01*
X18757635Y-3040793D01*
X18763782Y-3039971D01*
X18769946Y-3039298D01*
X18776125Y-3038774D01*
X18782315Y-3038400D01*
X18788512Y-3038175D01*
X18794713Y-3038100D01*
X19205291Y-3038100D01*
X19211492Y-3038175D01*
X19217689Y-3038400D01*
X19223879Y-3038774D01*
X19230058Y-3039298D01*
X19236222Y-3039971D01*
X19242368Y-3040793D01*
X19248493Y-3041763D01*
X19254593Y-3042881D01*
X19260664Y-3044146D01*
X19266702Y-3045557D01*
X19272705Y-3047113D01*
X19278668Y-3048815D01*
X19284588Y-3050660D01*
X19290462Y-3052647D01*
X19296286Y-3054776D01*
X19302058Y-3057045D01*
X19307772Y-3059452D01*
X19313427Y-3061997D01*
X19319019Y-3064678D01*
X19324544Y-3067493D01*
X19330000Y-3070441D01*
X19335382Y-3073520D01*
X19340689Y-3076728D01*
X19345917Y-3080064D01*
X19351063Y-3083525D01*
X19356123Y-3087109D01*
X19361095Y-3090814D01*
X19365977Y-3094638D01*
X19370764Y-3098580D01*
X19375455Y-3102635D01*
X19380047Y-3106803D01*
X19384536Y-3111081D01*
X19388921Y-3115466D01*
X19393199Y-3119955D01*
X19397367Y-3124547D01*
X19401422Y-3129238D01*
X19405364Y-3134026D01*
X19409188Y-3138907D01*
X19412893Y-3143880D01*
X19416477Y-3148940D01*
X19419938Y-3154086D01*
X19423273Y-3159313D01*
X19426481Y-3164620D01*
X19429560Y-3170003D01*
X19432508Y-3175459D01*
X19435323Y-3180984D01*
X19438004Y-3186576D01*
X19440549Y-3192231D01*
X19442957Y-3197945D01*
X19445225Y-3203716D01*
X19447354Y-3209541D01*
X19449341Y-3215415D01*
X19451186Y-3221335D01*
X19452887Y-3227298D01*
X19454444Y-3233301D01*
X19455855Y-3239339D01*
X19457120Y-3245410D01*
X19458238Y-3251510D01*
X19459208Y-3257635D01*
X19460029Y-3263781D01*
X19460702Y-3269946D01*
X19461226Y-3276125D01*
X19461600Y-3282314D01*
X19461825Y-3288511D01*
X19461900Y-3294712D01*
X19461900Y-3294713D02*
X19461900Y-3551322D01*
D11*
X11190000Y1715000D03*
X11190000Y5785000D03*
X12460000Y1715000D03*
X12460000Y5785000D03*
X13730000Y1715000D03*
X13730000Y5785000D03*
X15000000Y1715000D03*
X15000000Y5785000D03*
X16270000Y1715000D03*
X16270000Y5785000D03*
X17540000Y1715000D03*
X17540000Y5785000D03*
X18810000Y1715000D03*
X18810000Y5785000D03*
D12*
X8517000Y53711000D02*
X6993000Y53711000D01*
X6993000Y56251000D02*
X8517000Y56251000D01*
X8517000Y12755000D02*
X6993000Y12755000D01*
X6993000Y15295000D02*
X8517000Y15295000D01*
X8517000Y18335000D02*
X6993000Y18335000D01*
X6993000Y20875000D02*
X8517000Y20875000D01*
D13*
X25500000Y56500000D03*
X25500000Y48250000D03*
D14*
X25500000Y51250000D03*
D15*
X12000000Y66423800D02*
X11486778Y66013222D01*
X12000000Y66423800D02*
X12000000Y64576200D01*
X11486778Y64576200D02*
X12513222Y64576200D01*
D12*
X8517000Y46723000D02*
X6993000Y46723000D01*
X6993000Y49263000D02*
X8517000Y49263000D01*
D14*
X25500000Y43000000D03*
D12*
X8512000Y39230000D02*
X6988000Y39230000D01*
X6988000Y41770000D02*
X8512000Y41770000D01*
D16*
X2357500Y24437500D03*
X2355000Y35567500D03*
D17*
X6400000Y25500000D03*
X6400000Y26500000D03*
X6400000Y27500000D03*
X6400000Y28500000D03*
X6400000Y29500000D03*
X6400000Y30500000D03*
X6400000Y31500000D03*
X6400000Y32500000D03*
X6400000Y33500000D03*
X6400000Y34500000D03*
D18*
X18810500Y10480000D03*
X18810500Y11480000D03*
X18810500Y12480000D03*
X18810500Y13480000D03*
X18810500Y14480000D03*
X18810500Y15480000D03*
X18810500Y16480000D03*
X18810500Y18480000D03*
X18810500Y19480000D03*
X18810500Y21480000D03*
X18810500Y22480000D03*
X18810500Y23480000D03*
X18810500Y24480000D03*
X18810500Y26480000D03*
X18810500Y27480000D03*
X18810500Y28480000D03*
X18810500Y29480000D03*
X18810500Y17480000D03*
X18810500Y31480000D03*
X18810500Y32480000D03*
X18810500Y33480000D03*
X18810500Y34480000D03*
X18810500Y35480000D03*
X18810500Y36480000D03*
X18810500Y37480000D03*
X18810500Y38480000D03*
X18810500Y39480000D03*
X18810500Y20480000D03*
X18810500Y40480000D03*
X18810500Y41480000D03*
X18810500Y42480000D03*
X18810500Y43480000D03*
X18810500Y44480000D03*
X18810500Y45480000D03*
X18810500Y46480000D03*
X18810500Y47480000D03*
X18810500Y48480000D03*
X18810500Y49480000D03*
X18810500Y25480000D03*
X18810500Y50480000D03*
X18810500Y51480000D03*
X18810500Y52480000D03*
X18810500Y53480000D03*
X18810500Y54480000D03*
X18810500Y55480000D03*
X18810500Y56480000D03*
X18810500Y57480000D03*
X18810500Y58480000D03*
X18810500Y59480000D03*
D19*
X13393000Y10480000D03*
X13393000Y11480000D03*
X13393000Y12480000D03*
X13393000Y13480000D03*
X13393000Y14480000D03*
X13393000Y15480000D03*
X13393000Y16480000D03*
X13393000Y18480000D03*
X13393000Y19480000D03*
X13393000Y20480000D03*
X13393000Y21480000D03*
X13393000Y22480000D03*
X13393000Y23480000D03*
X13393000Y24480000D03*
X13393000Y26480000D03*
X13393000Y27480000D03*
X13393000Y28480000D03*
X13393000Y29480000D03*
D20*
X11578000Y10480000D03*
X11578000Y11480000D03*
X11578000Y12480000D03*
X11578000Y13480000D03*
X11578000Y14480000D03*
X11578000Y15480000D03*
X11578000Y16480000D03*
X11578000Y18480000D03*
X11578000Y19480000D03*
X11578000Y20480000D03*
X11578000Y21480000D03*
X11578000Y22480000D03*
X11578000Y23480000D03*
X11578000Y24480000D03*
X11578000Y26480000D03*
X11578000Y27480000D03*
X11578000Y28480000D03*
X11578000Y29480000D03*
D21*
X19910000Y60980000D03*
X19910000Y8980000D03*
D19*
X13393000Y17480000D03*
D20*
X11578000Y17480000D03*
D19*
X13393000Y31480000D03*
D20*
X11578000Y31480000D03*
D19*
X13393000Y32480000D03*
D20*
X11578000Y32480000D03*
D19*
X13393000Y33480000D03*
D20*
X11578000Y33480000D03*
D19*
X13393000Y34480000D03*
D20*
X11578000Y34480000D03*
D19*
X13393000Y35480000D03*
D20*
X11578000Y35480000D03*
D19*
X13393000Y36480000D03*
D20*
X11578000Y36480000D03*
D19*
X13393000Y37480000D03*
D20*
X11578000Y37480000D03*
D19*
X13393000Y38480000D03*
D20*
X11578000Y38480000D03*
D19*
X13393000Y39480000D03*
D20*
X11578000Y39480000D03*
D19*
X13393000Y40480000D03*
D20*
X11578000Y40480000D03*
D19*
X13393000Y42480000D03*
D20*
X11578000Y42480000D03*
D19*
X13393000Y43480000D03*
D20*
X11578000Y43480000D03*
D19*
X13393000Y44480000D03*
D20*
X11578000Y44480000D03*
D19*
X13393000Y45480000D03*
D20*
X11578000Y45480000D03*
D19*
X13393000Y46480000D03*
D20*
X11578000Y46480000D03*
D19*
X13393000Y47480000D03*
D20*
X11578000Y47480000D03*
D19*
X13393000Y48480000D03*
D20*
X11578000Y48480000D03*
D19*
X13393000Y49480000D03*
D20*
X11578000Y49480000D03*
D19*
X13393000Y50480000D03*
D20*
X11578000Y50480000D03*
D19*
X13393000Y51480000D03*
D20*
X11578000Y51480000D03*
D19*
X13393000Y52480000D03*
D20*
X11578000Y52480000D03*
D19*
X13393000Y53480000D03*
D20*
X11578000Y53480000D03*
D19*
X13393000Y54480000D03*
D20*
X11578000Y54480000D03*
D19*
X13393000Y55480000D03*
D20*
X11578000Y55480000D03*
D19*
X13393000Y56480000D03*
D20*
X11578000Y56480000D03*
D19*
X13393000Y57480000D03*
D20*
X11578000Y57480000D03*
D19*
X13393000Y58480000D03*
D20*
X11578000Y58480000D03*
D19*
X13393000Y59480000D03*
D20*
X11578000Y59480000D03*
D19*
X13393000Y25480000D03*
D20*
X11578000Y25480000D03*
D19*
X13393000Y41480000D03*
D20*
X11578000Y41480000D03*
D22*
X9500000Y28500000D03*
X8500000Y28500000D03*
X9500000Y29500000D03*
X8500000Y29500000D03*
X9500000Y30500000D03*
X8500000Y30500000D03*
X9500000Y31500000D03*
X8500000Y31500000D03*
D14*
X7750000Y10000000D03*
X4250000Y10000000D03*
X4250000Y59000000D03*
X7750000Y59000000D03*
D23*
X4000000Y66000000D03*
X26000000Y66000000D03*
X26000000Y4000000D03*
X4000000Y4000000D03*
D24*
X13760000Y59480000D03*
X13760000Y58730000D03*
X11160000Y59490000D03*
X11150000Y58730000D03*
X13760000Y33480000D03*
X13760000Y32480000D03*
X11150000Y32480000D03*
X11150000Y33480000D03*
X13760000Y28480000D03*
X13750000Y27480000D03*
X11120000Y27480000D03*
X11120000Y11225000D03*
X11120000Y10475000D03*
X13755000Y10475000D03*
X13765000Y11225000D03*
X15000000Y1000000D03*
X15000000Y69000000D03*
X1000000Y35000000D03*
X29000000Y35000000D03*
X10000000Y69000000D03*
X5000000Y69000000D03*
X20000000Y69000000D03*
X25000000Y69000000D03*
X29000000Y65000000D03*
X1000000Y55000000D03*
X1000000Y65000000D03*
X1000000Y50000000D03*
X1000000Y45000000D03*
X1000000Y40000000D03*
X29000000Y55000000D03*
X29000000Y50000000D03*
X29000000Y45000000D03*
X29000000Y40000000D03*
X29000000Y30000000D03*
X29000000Y25000000D03*
X29000000Y20000000D03*
X29000000Y15000000D03*
X29000000Y5000000D03*
X1000000Y30000000D03*
X1000000Y25000000D03*
X1000000Y20000000D03*
X1000000Y15000000D03*
X1000000Y5000000D03*
X5000000Y1000000D03*
X10000000Y1000000D03*
X20000000Y1000000D03*
X25000000Y1000000D03*
X21750000Y38000000D03*
X1000000Y60000000D03*
X29000000Y60000000D03*
X29000000Y10000000D03*
X1000000Y10000000D03*
X19385000Y33480000D03*
X19385000Y32480000D03*
X19385000Y28480000D03*
X19385000Y27480000D03*
X19390000Y11225000D03*
X19390000Y10475000D03*
X7000000Y27500000D03*
X7000000Y26500000D03*
X7000000Y25500000D03*
X17500000Y1000000D03*
X13750000Y1000000D03*
X5000000Y15250000D03*
X11120000Y28480000D03*
X13755000Y57225000D03*
X13755000Y56475000D03*
X13755000Y55727500D03*
X11150000Y55737500D03*
X11150000Y56475000D03*
X11150000Y57225000D03*
X19380000Y57225000D03*
X19380000Y56475000D03*
X19380000Y55725000D03*
D25*
X7755000Y56251000D02*
X7750000Y56256000D01*
X7750000Y59000000D01*
D24*
X13755000Y54227000D03*
X13755000Y53477000D03*
X13755000Y52726500D03*
X11120000Y52726500D03*
X11130000Y53477000D03*
X11130000Y54227000D03*
X19380000Y54227000D03*
X19380000Y53477000D03*
X19380000Y52727000D03*
X12500000Y2500000D03*
X11120000Y26480000D03*
X13750000Y26480000D03*
X19375000Y26480000D03*
D26*
X12460000Y2460000D02*
X12460000Y1715000D01*
X12460000Y2460000D02*
X12500000Y2500000D01*
D24*
X11126000Y19478000D03*
X11126000Y20234000D03*
X11126000Y18732000D03*
X13756000Y18732000D03*
X13756000Y19478000D03*
X13756000Y20234000D03*
X19381000Y20234000D03*
X19381000Y19484000D03*
X19381000Y18734000D03*
X7000000Y34500000D03*
X7000000Y33500000D03*
X7000000Y32500000D03*
D25*
X7000000Y34500000D02*
X6400000Y34500000D01*
X6400000Y33500000D02*
X7000000Y33500000D01*
X7000000Y32500000D02*
X6400000Y32500000D01*
D24*
X11120000Y15475000D03*
X13755000Y15475000D03*
X13755000Y14477500D03*
X11120000Y14477500D03*
X19380000Y15475000D03*
X19380000Y14475000D03*
X9500000Y29500000D03*
X9500000Y28500000D03*
X11120000Y12475000D03*
X11120000Y13475000D03*
X13765000Y12487500D03*
X13755000Y13475000D03*
X19380000Y13475000D03*
X19380000Y12475000D03*
X9500000Y31500000D03*
X9500000Y30500000D03*
D26*
X7755000Y12755000D02*
X7755000Y10005000D01*
X7750000Y10000000D01*
D24*
X12500000Y6750000D03*
X11120000Y25480000D03*
X13760000Y25480000D03*
D26*
X12460000Y6790000D02*
X12500000Y6750000D01*
X12460000Y6790000D02*
X12460000Y5785000D01*
D24*
X19385000Y25480000D03*
X13750000Y6750000D03*
X11120000Y24490000D03*
X13760000Y24480000D03*
X19385000Y24480000D03*
D26*
X13730000Y6730000D02*
X13730000Y5785000D01*
X13730000Y6730000D02*
X13750000Y6750000D01*
X13393000Y24480000D02*
X13393000Y24490000D01*
X11120000Y24490000D02*
X11120000Y24480000D01*
D24*
X17500000Y6750000D03*
X11120000Y23480000D03*
X13760000Y23480000D03*
X19385000Y23480000D03*
D26*
X17540000Y6710000D02*
X17540000Y5785000D01*
X17540000Y6710000D02*
X17500000Y6750000D01*
D24*
X13746000Y34482000D03*
X11246000Y34482000D03*
X19371000Y34482000D03*
X11130000Y42480000D03*
X11130000Y41730000D03*
X13750000Y41730000D03*
X13750000Y42480000D03*
X11130000Y43230000D03*
X13750000Y43250000D03*
X19250000Y43250000D03*
X19250000Y42480000D03*
X19250000Y41730000D03*
X13746000Y35478000D03*
X11246000Y35478000D03*
X19371000Y35478000D03*
X11126000Y50226000D03*
X11126000Y49480000D03*
X11126000Y48731000D03*
X13756000Y48731000D03*
X13746000Y49480000D03*
X13746000Y50226000D03*
X19371000Y50226000D03*
X19371000Y49476000D03*
X19371000Y48726000D03*
X11136000Y45733000D03*
X11126000Y46479000D03*
X11122000Y47233000D03*
X13726000Y47218000D03*
X13746000Y46479000D03*
X13746000Y45733000D03*
X19351000Y47218000D03*
X19351000Y46468000D03*
X19351000Y45718000D03*
X13770000Y39230000D03*
X13770000Y38480000D03*
X13770000Y37730000D03*
X11120000Y37730000D03*
X11120000Y38480000D03*
X11120000Y39230000D03*
X19395000Y39230000D03*
X19395000Y38480000D03*
X19395000Y37730000D03*
X7000000Y28500000D03*
D26*
X6400000Y28500000D01*
X8500000Y28500000D01*
D24*
X7000000Y29500000D03*
D26*
X6400000Y29500000D01*
X8500000Y29500000D01*
D24*
X7000000Y30500000D03*
D26*
X6400000Y30500000D01*
X8500000Y30500000D01*
D24*
X7000000Y31500000D03*
D26*
X6400000Y31500000D01*
X8500000Y31500000D01*
M02*
