M48
;GenerationSoftware,Autodesk,EAGLE,9.4.0*%
;CreationDate,2019-06-15T18:11:59Z*%
FMAT,2
ICI,OFF
METRIC,TZ,000.00000
T3C0.35000
T2C1.00000
T1C2.00000
%
G90
M71
T1
X300000Y3200000
X300000Y300000
X3200000Y300000
X3200000Y3200000
T2
X648000Y2725000
X1552000Y2725000
X1298000Y2725000
X902000Y2725000
T3
X1375000Y2025000
X2275000Y1525000
X1100000Y1850000
X2100000Y2900000
X2425000Y2600000
X2225000Y2400000
X1700000Y1625000
X1700000Y1750000
X1700000Y1500000
X1325000Y1950000
X825000Y1925000
X725000Y1925000
X1375000Y1350000
X2525000Y1150000
X2425000Y1150000
X1608462Y1208462
X2325000Y1150000
X2175000Y1150000
X1150000Y2225000
X1375000Y1500000
X775000Y2025000
X1025000Y2175000
X1789500Y1497576
X1800000Y950000
X625000Y1925000
X2700000Y2475000
X2700000Y2800000
X2575000Y2550000
X2650000Y3050000
X1250000Y2025000
X2525000Y3175000
X1925000Y2550000
X2950000Y2550000
X1650000Y250000
X1850000Y250000
X1275000Y1625000
X700000Y1800000
X2475000Y2725000
X2175000Y2550000
X2300000Y2800000
X2050000Y2550000
X1925000Y2800000
X2825000Y2550000
X1350000Y1700000
X2425000Y2875000
X1650000Y600000
X1850000Y600000
X1925000Y1325000
X2000000Y1825000
X1350000Y1850000
X2950000Y2800000
M30