G04 EAGLE Gerber X2 export*
%TF.Part,Single*%
%TF.FileFunction,Paste,Bot*%
%TF.FilePolarity,Positive*%
%TF.GenerationSoftware,Autodesk,EAGLE,9.6.2*%
%TF.CreationDate,2026-01-06T15:41:19Z*%
G75*
%MOIN*%
%FSLAX36Y36*%
%LPD*%
%INBottom Solder Paste*%
%AMOC8*
5,1,8,0,0,1.08239X$1,22.5*%
G01*
%ADD10R,0.025591X0.064961*%
%ADD11R,0.059055X0.051181*%
%ADD12R,0.137795X0.190000*%
%ADD13R,0.055118X0.023622*%
%ADD14R,0.062992X0.070984*%
%ADD15R,0.137795X0.094488*%
%ADD16R,0.414173X0.314961*%
%ADD17R,0.039370X0.013780*%
%ADD18R,0.094488X0.094488*%
%ADD19R,0.175197X0.023622*%
%ADD20R,0.135827X0.023622*%
%ADD21R,0.031496X0.059055*%
%ADD22R,0.055118X0.074803*%
%ADD23R,0.051181X0.055118*%
%ADD24R,0.037402X0.039370*%
%ADD25R,0.017717X0.007874*%
%ADD26R,0.011811X0.110236*%
%ADD27R,0.080000X0.026000*%
%ADD28R,0.055118X0.039370*%
%ADD29R,0.086614X0.070866*%

G36*
X1365346Y896599D02*
X1365346Y896599D01*
X1365322Y896630D01*
X1365354Y896654D01*
X1365354Y963387D01*
X1439961Y963387D01*
X1440149Y963528D01*
X1440126Y963559D01*
X1440157Y963583D01*
X1440157Y1073819D01*
X1440015Y1074007D01*
X1439984Y1073984D01*
X1439961Y1074015D01*
X1365354Y1074015D01*
X1365354Y1140748D01*
X1365212Y1140936D01*
X1365181Y1140913D01*
X1365157Y1140944D01*
X1223425Y1140944D01*
X1223237Y1140802D01*
X1223260Y1140771D01*
X1223229Y1140748D01*
X1223229Y1074015D01*
X1152559Y1074015D01*
X1152371Y1073873D01*
X1152394Y1073842D01*
X1152363Y1073819D01*
X1152363Y963583D01*
X1152505Y963394D01*
X1152536Y963418D01*
X1152559Y963387D01*
X1223229Y963387D01*
X1223229Y896654D01*
X1223371Y896465D01*
X1223402Y896489D01*
X1223425Y896457D01*
X1365157Y896457D01*
X1365346Y896599D01*
G37*
G36*
X853535Y896599D02*
X853535Y896599D01*
X853511Y896630D01*
X853543Y896654D01*
X853543Y963387D01*
X924213Y963387D01*
X924401Y963528D01*
X924378Y963559D01*
X924409Y963583D01*
X924409Y1073819D01*
X924267Y1074007D01*
X924236Y1073984D01*
X924213Y1074015D01*
X853543Y1074015D01*
X853543Y1140748D01*
X853401Y1140936D01*
X853370Y1140913D01*
X853346Y1140944D01*
X711614Y1140944D01*
X711426Y1140802D01*
X711449Y1140771D01*
X711418Y1140748D01*
X711418Y1074015D01*
X636811Y1074015D01*
X636623Y1073873D01*
X636646Y1073842D01*
X636615Y1073819D01*
X636615Y963583D01*
X636757Y963394D01*
X636788Y963418D01*
X636811Y963387D01*
X711418Y963387D01*
X711418Y896654D01*
X711560Y896465D01*
X711591Y896489D01*
X711614Y896457D01*
X853346Y896457D01*
X853535Y896599D01*
G37*
D10*
X2891339Y1916929D03*
X2991339Y1916929D03*
X3091339Y1916929D03*
X3091339Y1565748D03*
X2991339Y1565748D03*
X2891339Y1565748D03*
X3191339Y1565748D03*
X3191339Y1916929D03*
D11*
X1043307Y1704724D03*
X1043307Y1779528D03*
D10*
X2015354Y1916929D03*
X2115354Y1916929D03*
X2215354Y1916929D03*
X2215354Y1565748D03*
X2115354Y1565748D03*
X2015354Y1565748D03*
X2315354Y1565748D03*
X2315354Y1916929D03*
X2448425Y1916929D03*
X2548425Y1916929D03*
X2648425Y1916929D03*
X2648425Y1565748D03*
X2548425Y1565748D03*
X2448425Y1565748D03*
X2748425Y1565748D03*
X2748425Y1916929D03*
D12*
X1934252Y1018701D03*
D13*
X1754921Y943504D03*
X1754921Y993504D03*
X1754921Y1043504D03*
X1754921Y1093504D03*
D14*
X1655394Y1018701D03*
X1543425Y1018701D03*
D15*
X2308071Y908465D03*
X2308071Y1128937D03*
D16*
X2662402Y1018701D03*
D10*
X1149213Y1916929D03*
X1249213Y1916929D03*
X1349213Y1916929D03*
X1349213Y1565748D03*
X1249213Y1565748D03*
X1149213Y1565748D03*
X1449213Y1565748D03*
X1449213Y1916929D03*
X1582283Y1916929D03*
X1682283Y1916929D03*
X1782283Y1916929D03*
X1782283Y1565748D03*
X1682283Y1565748D03*
X1582283Y1565748D03*
X1882283Y1565748D03*
X1882283Y1916929D03*
D17*
X511811Y630906D03*
X511811Y579724D03*
X433071Y579724D03*
X433071Y630906D03*
X511811Y605315D03*
D18*
X454724Y748031D03*
X627953Y748031D03*
D19*
X127953Y54134D03*
X127953Y93504D03*
D20*
X147638Y132874D03*
X147638Y172244D03*
X147638Y211614D03*
X147638Y250984D03*
X147638Y290354D03*
X147638Y329724D03*
X147638Y369094D03*
X147638Y408465D03*
X147638Y447835D03*
X147638Y487205D03*
X147638Y526575D03*
X147638Y565945D03*
X147638Y605315D03*
X147638Y644685D03*
X147638Y684055D03*
D19*
X127953Y723425D03*
X127953Y762795D03*
X127953Y920276D03*
X127953Y959646D03*
D20*
X147638Y999016D03*
X147638Y1038386D03*
X147638Y1077756D03*
X147638Y1117126D03*
X147638Y1156496D03*
X147638Y1195866D03*
X147638Y1235236D03*
X147638Y1274606D03*
X147638Y1313976D03*
X147638Y1353346D03*
X147638Y1392717D03*
X147638Y1432087D03*
X147638Y1471457D03*
X147638Y1510827D03*
X147638Y1550197D03*
X147638Y1589567D03*
X147638Y1628937D03*
X147638Y1668307D03*
X147638Y1707677D03*
X147638Y1747047D03*
X147638Y1786417D03*
X147638Y1825787D03*
X147638Y1865157D03*
X147638Y1904528D03*
D19*
X127953Y1943898D03*
X127953Y1983268D03*
D17*
X511811Y1044291D03*
X511811Y993110D03*
X433071Y993110D03*
X433071Y1044291D03*
X511811Y1018701D03*
D21*
X3053543Y314567D03*
D22*
X3084646Y224409D03*
D23*
X3021654Y742126D03*
D24*
X2966929Y750000D03*
D23*
X2797244Y742126D03*
D22*
X2566929Y185039D03*
D21*
X3010236Y314567D03*
X2966929Y306693D03*
X2923622Y314567D03*
X2880315Y306693D03*
X2837008Y314567D03*
X2793701Y330315D03*
X2750394Y314567D03*
D25*
X2463583Y401575D03*
X2463583Y417323D03*
X2463583Y433071D03*
X2463583Y448819D03*
X2463583Y464567D03*
X2463583Y480315D03*
X2463583Y496063D03*
X2463583Y511811D03*
X2508858Y511811D03*
X2508858Y496063D03*
X2508858Y480315D03*
X2508858Y464567D03*
X2508858Y448819D03*
X2508858Y433071D03*
X2508858Y417323D03*
X2508858Y401575D03*
D26*
X2486220Y456693D03*
D27*
X1439898Y271850D03*
X1197898Y271850D03*
X1439898Y221850D03*
X1439898Y171850D03*
X1197898Y221850D03*
X1197898Y171850D03*
X1439898Y121850D03*
X1197898Y121850D03*
D28*
X2159449Y944882D03*
X2072835Y982283D03*
X2072835Y907480D03*
X2159449Y1092520D03*
X2072835Y1129921D03*
X2072835Y1055118D03*
D29*
X492126Y1543307D03*
X492126Y1744094D03*
X620079Y1543307D03*
X620079Y1744094D03*
M02*
