M48
;GenerationSoftware,Autodesk,EAGLE,9.6.2*%
;CreationDate,2026-01-06T15:41:19Z*%
FMAT,2
ICI,OFF
INCH,TZ,00.0000
T4C0.0138
T3C0.0354
T2C0.0400
T1C0.1181
%
G90
M72
T1
X33661Y1378
X33661Y18996
T2
X28921Y17028
X29921Y17028
X30921Y17028
X14551Y17028
X15551Y17028
X16551Y17028
X21146Y17028
X22146Y17028
X23146Y17028
X25476Y17028
X26476Y17028
X27476Y17028
T3
X33563Y12402
X24803Y1575
X23622Y1575
X18504Y7874
X17028Y7825
X33563Y14075
T4
X31496Y20030
X29528Y20030
X27559Y20030
X25591Y20030
X23622Y20030
X21654Y20030
X19685Y20030
X17717Y20030
X15748Y20030
X13780Y20030
X11811Y20030
X9843Y20030
X7874Y20030
X5906Y20030
X3937Y20030
X7283Y1969
X9646Y1673
X8563Y1969
X5020Y1919
X8760Y4724
X5709Y6004
X7283Y5709
X24852Y9006
X24852Y10187
X24852Y11368
X11122Y12402
X34646Y3150
X34646Y12598
X34646Y14173
X34646Y15748
X34646Y17323
X591Y19833
X591Y19439
X591Y9596
X591Y9203
X591Y7628
X591Y7234
X591Y935
X591Y541
X1969Y19833
X1969Y19439
X1969Y9596
X1969Y9203
X1969Y7628
X1969Y7234
X1969Y935
X1969Y541
X30315Y13238
X8169Y12992
X7874Y13976
X7579Y5709
X6988Y5709
X8465Y5709
X12402Y6398
X13976Y6398
X13976Y4823
X12402Y4823
X32382Y2215
X25689Y1772
X29675Y3839
X33661Y13435
X26624Y9006
X26624Y10187
X26624Y11368
X28396Y9006
X28396Y10187
X28396Y11368
X31742Y7825
X25492Y12402
X25148Y13583
X11516Y13386
X25295Y5906
X15551Y3642
X11319Y8366
X11811Y8366
X25492Y2756
X14124Y1230
X11270Y2707
X3740Y16683
X21457Y7776
X19291Y8071
X16142Y8169
X15551Y9252
X15157Y11220
X10630Y9449
X9055Y8169
X9350Y11909
X8563Y4035
X10236Y2953
X4823Y4626
X7283Y6594
X4724Y10925
X4724Y9252
X6299Y12894
X4429Y12303
X9154Y13976
X12795Y12106
X13091Y12106
X13386Y12106
X14469Y12598
X14862Y12598
X14075Y12598
X4528Y19193
X4921Y19193
X8563Y19193
X8957Y19193
X9547Y15453
X9449Y17323
X17913Y12106
X30020Y12402
X28248Y13681
X28248Y12992
X32579Y14862
X31890Y14862
X32776Y13091
X31791Y8563
X30217Y7185
X27854Y5906
X30906Y2165
X23425Y2461
X11909Y10138
X13976Y10138
X12992Y11024
X15157Y15453
X10531Y15453
X19488Y15453
X21161Y14961
X25984Y14961
X26969Y14961
X29921Y14862
X33071Y7874
X33071Y4724
X33071Y6299
X31890Y4331
X33071Y2756
X30906Y3150
X26969Y17815
X31890Y3150
X28642Y7087
X9646Y2264
X4431Y12843
X28543Y14124
X10531Y12402
X30906Y18012
X30610Y12402
X7579Y12992
X32628Y14222
X31841Y14222
X984Y6841
X1969Y6841
X31299Y8563
X28789Y3839
X25394Y4035
X4331Y7776
X4331Y7185
X23622Y3051
X13976Y9154
X14961Y3642
X17069Y10825
X11319Y7776
X24705Y12402
X16585Y9301
X12254Y2707
X30020Y8563
X5512Y12500
X10630Y4429
X5709Y5413
X30020Y8268
X31004Y8563
X7283Y5217
X9055Y5315
X8661Y6693
X8169Y4724
X12492Y18978
X28937Y12106
X16823Y18978
X28543Y12352
X12492Y15468
X15824Y15468
X17824Y15468
X26484Y15468
X24485Y15468
X28912Y15468
X14491Y15468
X18824Y15468
X15824Y19360
X11493Y19360
X17823Y19360
X13493Y19360
X20153Y19360
X22154Y19360
X24483Y19360
X26484Y19360
X28914Y19360
X30906Y19341
X18824Y18978
X26969Y12746
X14493Y18978
X29913Y18978
X26969Y13533
X21154Y18978
X25484Y18978
X26673Y12943
X27485Y18978
X23155Y18980
X26673Y13337
X23130Y15453
X27483Y15848
X29913Y15468
X21161Y15453
X25484Y15468
X10433Y17028
X18238Y9707
X16585Y11073
X18258Y10630
X18159Y8907
X1969Y1329
X984Y1329
X6496Y1575
X984Y1722
X1969Y1722
X1969Y2510
X984Y2510
X6496Y2362
X984Y2116
X1969Y2116
X4232Y6398
X1969Y6447
X984Y6447
X15059Y6398
X4232Y5709
X1969Y5659
X984Y5659
X10630Y5610
X5118Y6398
X1969Y6053
X984Y6053
X14469Y7087
X9154Y2461
X12428Y7874
X7972Y1476
X11909Y4035
X984Y18947
X1969Y18947
X984Y18356
X1969Y18356
X984Y18652
X1969Y18652
X20177Y15453
X16043Y12106
X11516Y15453
X13484Y15453
X22146Y15453
X984Y17175
X984Y17766
X1969Y17766
X1969Y17175
X984Y17470
X1969Y17470
X6201Y4035
X5906Y4035
X1969Y13140
X984Y13140
X984Y12844
X984Y13435
X1969Y12844
X1969Y13435
X22982Y13829
X7283Y10433
X6744Y18307
X7776Y10433
X8268Y10433
X22589Y13829
X1969Y9990
X984Y9990
X4232Y9941
X11024Y4724
X11614Y12008
X6201Y3199
X5906Y3199
X984Y4380
X1969Y4380
X984Y4085
X1969Y4085
X1969Y3789
X984Y3789
X5906Y11811
X30217Y12844
X29429Y13583
X31447Y12844
X25148Y12952
X13484Y8661
X4921Y12549
X30217Y13632
X28937Y14419
X31447Y13632
X34646Y7874
X12894Y8661
X29429Y12795
X12858Y8169
X984Y16191
X984Y15896
X984Y15600
X1969Y15600
X1969Y15896
X1969Y16191
X984Y14419
X984Y14715
X984Y15010
X1969Y15010
X1969Y14715
X1969Y14419
X1969Y10384
X984Y10384
X4232Y10433
X11614Y4331
X7480Y12205
X12464Y3543
X31988Y12598
X14764Y6890
X12205Y7579
X9138Y1476
X14567Y7972
X22736Y4232
X14862Y7677
X22835Y3937
X15551Y4921
X24606Y5512
X15354Y4626
X24114Y5217
X11319Y4528
X22638Y4528
X14764Y4331
X22047Y4331
X29626Y7185
X14862Y4626
X24409Y3839
X12254Y2215
X14124Y1722
X14124Y2215
X13484Y2461
X12254Y1230
X13780Y2461
X12254Y1722
X14124Y2707
X12106Y3740
X16585Y8858
X22579Y12409
X26033Y13740
X26969Y3396
X15945Y5217
X27215Y3789
X16043Y5512
X16634Y6004
X26280Y6791
X16437Y5709
X26280Y5945
X20669Y9055
X14370Y7382
X15551Y5217
X20633Y10531
X1969Y11860
X1969Y11565
X1969Y11270
X984Y11860
X984Y11565
X984Y11270
X21752Y10925
X21457Y10925
X11417Y6594
X30906Y7972
X27854Y6890
X11220Y6102
X28248Y6890
X10827Y6201
X29134Y7972
X13780Y7874
X13583Y3051
X26626Y3705
X10433Y17815
X7972Y18799
X16831Y15453
X8465Y15650
X34646Y9449
X34646Y11024
X31496Y344
X29528Y344
X27559Y344
X25591Y344
X23622Y344
X21654Y344
X19685Y344
X17717Y344
X15748Y344
X13780Y344
X11811Y344
X9843Y344
X7874Y344
X5906Y344
X3937Y344
X22972Y12409
M30