G04 EAGLE Gerber RS-274X export*
G75*
%MOMM*%
%FSLAX35Y35*%
%LPD*%
%INsolder_mask_top*%
%IPPOS*%
%AMOC8*
5,1,8,0,0,1.08239X$1,22.5*%
G01*
%ADD10C,2.000000*%
%ADD11C,0.010000*%
%ADD12R,0.803200X0.453200*%
%ADD13R,2.803200X4.203200*%
%ADD14R,3.403200X2.003200*%
%ADD15R,1.203200X1.203200*%
%ADD16R,1.853200X1.853200*%
%ADD17C,1.853200*%
%ADD18P,2.556822X8X22.500000*%
%ADD19C,0.853200*%


D10*
X300000Y2500000D02*
X2100000Y2500000D01*
X2104833Y2499942D01*
X2109663Y2499766D01*
X2114487Y2499475D01*
X2119303Y2499066D01*
X2124107Y2498542D01*
X2128898Y2497901D01*
X2133671Y2497145D01*
X2138425Y2496274D01*
X2143157Y2495288D01*
X2147863Y2494188D01*
X2152541Y2492975D01*
X2157189Y2491649D01*
X2161803Y2490211D01*
X2166382Y2488662D01*
X2170921Y2487003D01*
X2175419Y2485235D01*
X2179873Y2483358D01*
X2184280Y2481375D01*
X2188638Y2479285D01*
X2192945Y2477091D01*
X2197197Y2474794D01*
X2201392Y2472394D01*
X2205528Y2469894D01*
X2209603Y2467294D01*
X2213613Y2464597D01*
X2217557Y2461803D01*
X2221433Y2458916D01*
X2225237Y2455935D01*
X2228968Y2452863D01*
X2232625Y2449702D01*
X2236203Y2446454D01*
X2239702Y2443120D01*
X2243120Y2439702D01*
X2246454Y2436203D01*
X2249702Y2432625D01*
X2252863Y2428968D01*
X2255935Y2425237D01*
X2258916Y2421433D01*
X2261803Y2417557D01*
X2264597Y2413613D01*
X2267294Y2409603D01*
X2269894Y2405528D01*
X2272394Y2401392D01*
X2274794Y2397197D01*
X2277091Y2392945D01*
X2279285Y2388638D01*
X2281375Y2384280D01*
X2283358Y2379873D01*
X2285235Y2375419D01*
X2287003Y2370921D01*
X2288662Y2366382D01*
X2290211Y2361803D01*
X2291649Y2357189D01*
X2292975Y2352541D01*
X2294188Y2347863D01*
X2295288Y2343157D01*
X2296274Y2338425D01*
X2297145Y2333671D01*
X2297901Y2328898D01*
X2298542Y2324107D01*
X2299066Y2319303D01*
X2299475Y2314487D01*
X2299766Y2309663D01*
X2299942Y2304833D01*
X2300000Y2300000D01*
X100000Y2300000D02*
X100000Y300000D01*
X100058Y295167D01*
X100234Y290337D01*
X100525Y285513D01*
X100934Y280697D01*
X101458Y275893D01*
X102099Y271102D01*
X102855Y266329D01*
X103726Y261575D01*
X104712Y256843D01*
X105812Y252137D01*
X107025Y247459D01*
X108351Y242811D01*
X109789Y238197D01*
X111338Y233618D01*
X112997Y229079D01*
X114765Y224581D01*
X116642Y220127D01*
X118625Y215720D01*
X120715Y211362D01*
X122909Y207055D01*
X125206Y202803D01*
X127606Y198608D01*
X130106Y194472D01*
X132706Y190397D01*
X135403Y186387D01*
X138197Y182443D01*
X141084Y178567D01*
X144065Y174763D01*
X147137Y171032D01*
X150298Y167375D01*
X153546Y163797D01*
X156880Y160298D01*
X160298Y156880D01*
X163797Y153546D01*
X167375Y150298D01*
X171032Y147137D01*
X174763Y144065D01*
X178567Y141084D01*
X182443Y138197D01*
X186387Y135403D01*
X190397Y132706D01*
X194472Y130106D01*
X198608Y127606D01*
X202803Y125206D01*
X207055Y122909D01*
X211362Y120715D01*
X215720Y118625D01*
X220127Y116642D01*
X224581Y114765D01*
X229079Y112997D01*
X233618Y111338D01*
X238197Y109789D01*
X242811Y108351D01*
X247459Y107025D01*
X252137Y105812D01*
X256843Y104712D01*
X261575Y103726D01*
X266329Y102855D01*
X271102Y102099D01*
X275893Y101458D01*
X280697Y100934D01*
X285513Y100525D01*
X290337Y100234D01*
X295167Y100058D01*
X300000Y100000D01*
X2100000Y100000D01*
X2104833Y100058D01*
X2109663Y100234D01*
X2114487Y100525D01*
X2119303Y100934D01*
X2124107Y101458D01*
X2128898Y102099D01*
X2133671Y102855D01*
X2138425Y103726D01*
X2143157Y104712D01*
X2147863Y105812D01*
X2152541Y107025D01*
X2157189Y108351D01*
X2161803Y109789D01*
X2166382Y111338D01*
X2170921Y112997D01*
X2175419Y114765D01*
X2179873Y116642D01*
X2184280Y118625D01*
X2188638Y120715D01*
X2192945Y122909D01*
X2197197Y125206D01*
X2201392Y127606D01*
X2205528Y130106D01*
X2209603Y132706D01*
X2213613Y135403D01*
X2217557Y138197D01*
X2221433Y141084D01*
X2225237Y144065D01*
X2228968Y147137D01*
X2232625Y150298D01*
X2236203Y153546D01*
X2239702Y156880D01*
X2243120Y160298D01*
X2246454Y163797D01*
X2249702Y167375D01*
X2252863Y171032D01*
X2255935Y174763D01*
X2258916Y178567D01*
X2261803Y182443D01*
X2264597Y186387D01*
X2267294Y190397D01*
X2269894Y194472D01*
X2272394Y198608D01*
X2274794Y202803D01*
X2277091Y207055D01*
X2279285Y211362D01*
X2281375Y215720D01*
X2283358Y220127D01*
X2285235Y224581D01*
X2287003Y229079D01*
X2288662Y233618D01*
X2290211Y238197D01*
X2291649Y242811D01*
X2292975Y247459D01*
X2294188Y252137D01*
X2295288Y256843D01*
X2296274Y261575D01*
X2297145Y266329D01*
X2297901Y271102D01*
X2298542Y275893D01*
X2299066Y280697D01*
X2299475Y285513D01*
X2299766Y290337D01*
X2299942Y295167D01*
X2300000Y300000D01*
X2300000Y2300000D01*
X300000Y2500000D02*
X295167Y2499942D01*
X290337Y2499766D01*
X285513Y2499475D01*
X280697Y2499066D01*
X275893Y2498542D01*
X271102Y2497901D01*
X266329Y2497145D01*
X261575Y2496274D01*
X256843Y2495288D01*
X252137Y2494188D01*
X247459Y2492975D01*
X242811Y2491649D01*
X238197Y2490211D01*
X233618Y2488662D01*
X229079Y2487003D01*
X224581Y2485235D01*
X220127Y2483358D01*
X215720Y2481375D01*
X211362Y2479285D01*
X207055Y2477091D01*
X202803Y2474794D01*
X198608Y2472394D01*
X194472Y2469894D01*
X190397Y2467294D01*
X186387Y2464597D01*
X182443Y2461803D01*
X178567Y2458916D01*
X174763Y2455935D01*
X171032Y2452863D01*
X167375Y2449702D01*
X163797Y2446454D01*
X160298Y2443120D01*
X156880Y2439702D01*
X153546Y2436203D01*
X150298Y2432625D01*
X147137Y2428968D01*
X144065Y2425237D01*
X141084Y2421433D01*
X138197Y2417557D01*
X135403Y2413613D01*
X132706Y2409603D01*
X130106Y2405528D01*
X127606Y2401392D01*
X125206Y2397197D01*
X122909Y2392945D01*
X120715Y2388638D01*
X118625Y2384280D01*
X116642Y2379873D01*
X114765Y2375419D01*
X112997Y2370921D01*
X111338Y2366382D01*
X109789Y2361803D01*
X108351Y2357189D01*
X107025Y2352541D01*
X105812Y2347863D01*
X104712Y2343157D01*
X103726Y2338425D01*
X102855Y2333671D01*
X102099Y2328898D01*
X101458Y2324107D01*
X100934Y2319303D01*
X100525Y2314487D01*
X100234Y2309663D01*
X100058Y2304833D01*
X100000Y2300000D01*
D11*
X300000Y0D02*
X2100000Y0D01*
X300000Y0D02*
X292751Y88D01*
X285506Y350D01*
X278270Y788D01*
X271046Y1401D01*
X263839Y2187D01*
X256653Y3148D01*
X249493Y4282D01*
X242362Y5589D01*
X235265Y7068D01*
X228205Y8717D01*
X221188Y10537D01*
X214216Y12526D01*
X207295Y14683D01*
X200428Y17006D01*
X193619Y19495D01*
X186872Y22148D01*
X180191Y24962D01*
X173580Y27938D01*
X167043Y31072D01*
X160583Y34363D01*
X154205Y37810D01*
X147912Y41409D01*
X141708Y45160D01*
X135596Y49059D01*
X129581Y53105D01*
X123664Y57295D01*
X117851Y61627D01*
X112144Y66098D01*
X106547Y70705D01*
X101063Y75447D01*
X95695Y80319D01*
X90447Y85320D01*
X85320Y90447D01*
X80319Y95695D01*
X75447Y101063D01*
X70705Y106547D01*
X66098Y112144D01*
X61627Y117851D01*
X57295Y123664D01*
X53105Y129581D01*
X49059Y135596D01*
X45160Y141708D01*
X41409Y147912D01*
X37810Y154205D01*
X34363Y160583D01*
X31072Y167043D01*
X27938Y173580D01*
X24962Y180191D01*
X22148Y186872D01*
X19495Y193619D01*
X17006Y200428D01*
X14683Y207295D01*
X12526Y214216D01*
X10537Y221188D01*
X8717Y228205D01*
X7068Y235265D01*
X5589Y242362D01*
X4282Y249493D01*
X3148Y256653D01*
X2187Y263839D01*
X1401Y271046D01*
X788Y278270D01*
X350Y285506D01*
X88Y292751D01*
X0Y300000D01*
X0Y2300000D01*
X88Y2307249D01*
X350Y2314494D01*
X788Y2321730D01*
X1401Y2328954D01*
X2187Y2336161D01*
X3148Y2343347D01*
X4282Y2350507D01*
X5589Y2357638D01*
X7068Y2364735D01*
X8717Y2371795D01*
X10537Y2378812D01*
X12526Y2385784D01*
X14683Y2392705D01*
X17006Y2399572D01*
X19495Y2406381D01*
X22148Y2413128D01*
X24962Y2419809D01*
X27938Y2426420D01*
X31072Y2432957D01*
X34363Y2439417D01*
X37810Y2445795D01*
X41409Y2452088D01*
X45160Y2458292D01*
X49059Y2464404D01*
X53105Y2470419D01*
X57295Y2476336D01*
X61627Y2482149D01*
X66098Y2487856D01*
X70705Y2493453D01*
X75447Y2498937D01*
X80319Y2504305D01*
X85320Y2509553D01*
X90447Y2514680D01*
X95695Y2519681D01*
X101063Y2524553D01*
X106547Y2529295D01*
X112144Y2533902D01*
X117851Y2538373D01*
X123664Y2542705D01*
X129581Y2546895D01*
X135596Y2550941D01*
X141708Y2554840D01*
X147912Y2558591D01*
X154205Y2562190D01*
X160583Y2565637D01*
X167043Y2568928D01*
X173580Y2572062D01*
X180191Y2575038D01*
X186872Y2577852D01*
X193619Y2580505D01*
X200428Y2582994D01*
X207295Y2585317D01*
X214216Y2587474D01*
X221188Y2589463D01*
X228205Y2591283D01*
X235265Y2592932D01*
X242362Y2594411D01*
X249493Y2595718D01*
X256653Y2596852D01*
X263839Y2597813D01*
X271046Y2598599D01*
X278270Y2599212D01*
X285506Y2599650D01*
X292751Y2599912D01*
X300000Y2600000D01*
X2100000Y2600000D01*
X2107249Y2599912D01*
X2114494Y2599650D01*
X2121730Y2599212D01*
X2128954Y2598599D01*
X2136161Y2597813D01*
X2143347Y2596852D01*
X2150507Y2595718D01*
X2157638Y2594411D01*
X2164735Y2592932D01*
X2171795Y2591283D01*
X2178812Y2589463D01*
X2185784Y2587474D01*
X2192705Y2585317D01*
X2199572Y2582994D01*
X2206381Y2580505D01*
X2213128Y2577852D01*
X2219809Y2575038D01*
X2226420Y2572062D01*
X2232957Y2568928D01*
X2239417Y2565637D01*
X2245795Y2562190D01*
X2252088Y2558591D01*
X2258292Y2554840D01*
X2264404Y2550941D01*
X2270419Y2546895D01*
X2276336Y2542705D01*
X2282149Y2538373D01*
X2287856Y2533902D01*
X2293453Y2529295D01*
X2298937Y2524553D01*
X2304305Y2519681D01*
X2309553Y2514680D01*
X2314680Y2509553D01*
X2319681Y2504305D01*
X2324553Y2498937D01*
X2329295Y2493453D01*
X2333902Y2487856D01*
X2338373Y2482149D01*
X2342705Y2476336D01*
X2346895Y2470419D01*
X2350941Y2464404D01*
X2354840Y2458292D01*
X2358591Y2452088D01*
X2362190Y2445795D01*
X2365637Y2439417D01*
X2368928Y2432957D01*
X2372062Y2426420D01*
X2375038Y2419809D01*
X2377852Y2413128D01*
X2380505Y2406381D01*
X2382994Y2399572D01*
X2385317Y2392705D01*
X2387474Y2385784D01*
X2389463Y2378812D01*
X2391283Y2371795D01*
X2392932Y2364735D01*
X2394411Y2357638D01*
X2395718Y2350507D01*
X2396852Y2343347D01*
X2397813Y2336161D01*
X2398599Y2328954D01*
X2399212Y2321730D01*
X2399650Y2314494D01*
X2399912Y2307249D01*
X2400000Y2300000D01*
X2400000Y300000D01*
X2399912Y292751D01*
X2399650Y285506D01*
X2399212Y278270D01*
X2398599Y271046D01*
X2397813Y263839D01*
X2396852Y256653D01*
X2395718Y249493D01*
X2394411Y242362D01*
X2392932Y235265D01*
X2391283Y228205D01*
X2389463Y221188D01*
X2387474Y214216D01*
X2385317Y207295D01*
X2382994Y200428D01*
X2380505Y193619D01*
X2377852Y186872D01*
X2375038Y180191D01*
X2372062Y173580D01*
X2368928Y167043D01*
X2365637Y160583D01*
X2362190Y154205D01*
X2358591Y147912D01*
X2354840Y141708D01*
X2350941Y135596D01*
X2346895Y129581D01*
X2342705Y123664D01*
X2338373Y117851D01*
X2333902Y112144D01*
X2329295Y106547D01*
X2324553Y101063D01*
X2319681Y95695D01*
X2314680Y90447D01*
X2309553Y85320D01*
X2304305Y80319D01*
X2298937Y75447D01*
X2293453Y70705D01*
X2287856Y66098D01*
X2282149Y61627D01*
X2276336Y57295D01*
X2270419Y53105D01*
X2264404Y49059D01*
X2258292Y45160D01*
X2252088Y41409D01*
X2245795Y37810D01*
X2239417Y34363D01*
X2232957Y31072D01*
X2226420Y27938D01*
X2219809Y24962D01*
X2213128Y22148D01*
X2206381Y19495D01*
X2199572Y17006D01*
X2192705Y14683D01*
X2185784Y12526D01*
X2178812Y10537D01*
X2171795Y8717D01*
X2164735Y7068D01*
X2157638Y5589D01*
X2150507Y4282D01*
X2143347Y3148D01*
X2136161Y2187D01*
X2128954Y1401D01*
X2121730Y788D01*
X2114494Y350D01*
X2107249Y88D01*
X2100000Y0D01*
D12*
X1440000Y1450000D03*
X1440000Y1400000D03*
X1440000Y1350000D03*
X1440000Y1300000D03*
X1440000Y1250000D03*
X1440000Y1200000D03*
X1440000Y1150000D03*
X1440000Y1100000D03*
X1060000Y1450000D03*
X1060000Y1400000D03*
X1060000Y1350000D03*
X1060000Y1300000D03*
X1060000Y1250000D03*
X1060000Y1200000D03*
X1060000Y1150000D03*
X1060000Y1100000D03*
D13*
X1250000Y1275000D03*
D14*
X550000Y1045000D03*
X550000Y1605000D03*
D15*
X1185000Y673000D03*
X1485000Y673000D03*
D16*
X1813000Y670000D03*
D17*
X1813000Y924000D03*
X1813000Y1178000D03*
X1813000Y1432000D03*
X1813000Y1686000D03*
X1813000Y1940000D03*
D18*
X543000Y1940000D03*
D19*
X1550000Y1050000D03*
X950000Y1050000D03*
X550000Y975000D03*
X425000Y1070000D03*
X425000Y970000D03*
X550000Y1070000D03*
X675000Y975000D03*
X675000Y1070000D03*
X1250000Y1275000D03*
X675000Y1575000D03*
X675000Y1675000D03*
X550000Y1675000D03*
X550000Y1575000D03*
X425000Y1575000D03*
X425000Y1675000D03*
X825000Y1225000D03*
X825000Y1425000D03*
M02*
