G04 EAGLE Gerber RS-274X export*
G75*
%MOMM*%
%FSLAX35Y35*%
%LPD*%
%INsilk_top*%
%IPPOS*%
%AMOC8*
5,1,8,0,0,1.08239X$1,22.5*%
G01*
%ADD10C,0.010000*%
%ADD11C,0.500000*%
%ADD12C,0.050800*%
%ADD13C,0.250000*%
%ADD14C,0.127000*%
%ADD15C,0.200000*%
%ADD16C,0.076200*%


D10*
X2100000Y0D02*
X300000Y0D01*
X292751Y88D01*
X285506Y350D01*
X278270Y788D01*
X271046Y1401D01*
X263839Y2187D01*
X256653Y3148D01*
X249493Y4282D01*
X242362Y5589D01*
X235265Y7068D01*
X228205Y8717D01*
X221188Y10537D01*
X214216Y12526D01*
X207295Y14683D01*
X200428Y17006D01*
X193619Y19495D01*
X186872Y22148D01*
X180191Y24962D01*
X173580Y27938D01*
X167043Y31072D01*
X160583Y34363D01*
X154205Y37810D01*
X147912Y41409D01*
X141708Y45160D01*
X135596Y49059D01*
X129581Y53105D01*
X123664Y57295D01*
X117851Y61627D01*
X112144Y66098D01*
X106547Y70705D01*
X101063Y75447D01*
X95695Y80319D01*
X90447Y85320D01*
X85320Y90447D01*
X80319Y95695D01*
X75447Y101063D01*
X70705Y106547D01*
X66098Y112144D01*
X61627Y117851D01*
X57295Y123664D01*
X53105Y129581D01*
X49059Y135596D01*
X45160Y141708D01*
X41409Y147912D01*
X37810Y154205D01*
X34363Y160583D01*
X31072Y167043D01*
X27938Y173580D01*
X24962Y180191D01*
X22148Y186872D01*
X19495Y193619D01*
X17006Y200428D01*
X14683Y207295D01*
X12526Y214216D01*
X10537Y221188D01*
X8717Y228205D01*
X7068Y235265D01*
X5589Y242362D01*
X4282Y249493D01*
X3148Y256653D01*
X2187Y263839D01*
X1401Y271046D01*
X788Y278270D01*
X350Y285506D01*
X88Y292751D01*
X0Y300000D01*
X0Y2300000D01*
X88Y2307249D01*
X350Y2314494D01*
X788Y2321730D01*
X1401Y2328954D01*
X2187Y2336161D01*
X3148Y2343347D01*
X4282Y2350507D01*
X5589Y2357638D01*
X7068Y2364735D01*
X8717Y2371795D01*
X10537Y2378812D01*
X12526Y2385784D01*
X14683Y2392705D01*
X17006Y2399572D01*
X19495Y2406381D01*
X22148Y2413128D01*
X24962Y2419809D01*
X27938Y2426420D01*
X31072Y2432957D01*
X34363Y2439417D01*
X37810Y2445795D01*
X41409Y2452088D01*
X45160Y2458292D01*
X49059Y2464404D01*
X53105Y2470419D01*
X57295Y2476336D01*
X61627Y2482149D01*
X66098Y2487856D01*
X70705Y2493453D01*
X75447Y2498937D01*
X80319Y2504305D01*
X85320Y2509553D01*
X90447Y2514680D01*
X95695Y2519681D01*
X101063Y2524553D01*
X106547Y2529295D01*
X112144Y2533902D01*
X117851Y2538373D01*
X123664Y2542705D01*
X129581Y2546895D01*
X135596Y2550941D01*
X141708Y2554840D01*
X147912Y2558591D01*
X154205Y2562190D01*
X160583Y2565637D01*
X167043Y2568928D01*
X173580Y2572062D01*
X180191Y2575038D01*
X186872Y2577852D01*
X193619Y2580505D01*
X200428Y2582994D01*
X207295Y2585317D01*
X214216Y2587474D01*
X221188Y2589463D01*
X228205Y2591283D01*
X235265Y2592932D01*
X242362Y2594411D01*
X249493Y2595718D01*
X256653Y2596852D01*
X263839Y2597813D01*
X271046Y2598599D01*
X278270Y2599212D01*
X285506Y2599650D01*
X292751Y2599912D01*
X300000Y2600000D01*
X2100000Y2600000D01*
X2107249Y2599912D01*
X2114494Y2599650D01*
X2121730Y2599212D01*
X2128954Y2598599D01*
X2136161Y2597813D01*
X2143347Y2596852D01*
X2150507Y2595718D01*
X2157638Y2594411D01*
X2164735Y2592932D01*
X2171795Y2591283D01*
X2178812Y2589463D01*
X2185784Y2587474D01*
X2192705Y2585317D01*
X2199572Y2582994D01*
X2206381Y2580505D01*
X2213128Y2577852D01*
X2219809Y2575038D01*
X2226420Y2572062D01*
X2232957Y2568928D01*
X2239417Y2565637D01*
X2245795Y2562190D01*
X2252088Y2558591D01*
X2258292Y2554840D01*
X2264404Y2550941D01*
X2270419Y2546895D01*
X2276336Y2542705D01*
X2282149Y2538373D01*
X2287856Y2533902D01*
X2293453Y2529295D01*
X2298937Y2524553D01*
X2304305Y2519681D01*
X2309553Y2514680D01*
X2314680Y2509553D01*
X2319681Y2504305D01*
X2324553Y2498937D01*
X2329295Y2493453D01*
X2333902Y2487856D01*
X2338373Y2482149D01*
X2342705Y2476336D01*
X2346895Y2470419D01*
X2350941Y2464404D01*
X2354840Y2458292D01*
X2358591Y2452088D01*
X2362190Y2445795D01*
X2365637Y2439417D01*
X2368928Y2432957D01*
X2372062Y2426420D01*
X2375038Y2419809D01*
X2377852Y2413128D01*
X2380505Y2406381D01*
X2382994Y2399572D01*
X2385317Y2392705D01*
X2387474Y2385784D01*
X2389463Y2378812D01*
X2391283Y2371795D01*
X2392932Y2364735D01*
X2394411Y2357638D01*
X2395718Y2350507D01*
X2396852Y2343347D01*
X2397813Y2336161D01*
X2398599Y2328954D01*
X2399212Y2321730D01*
X2399650Y2314494D01*
X2399912Y2307249D01*
X2400000Y2300000D01*
X2400000Y300000D01*
X2399912Y292751D01*
X2399650Y285506D01*
X2399212Y278270D01*
X2398599Y271046D01*
X2397813Y263839D01*
X2396852Y256653D01*
X2395718Y249493D01*
X2394411Y242362D01*
X2392932Y235265D01*
X2391283Y228205D01*
X2389463Y221188D01*
X2387474Y214216D01*
X2385317Y207295D01*
X2382994Y200428D01*
X2380505Y193619D01*
X2377852Y186872D01*
X2375038Y180191D01*
X2372062Y173580D01*
X2368928Y167043D01*
X2365637Y160583D01*
X2362190Y154205D01*
X2358591Y147912D01*
X2354840Y141708D01*
X2350941Y135596D01*
X2346895Y129581D01*
X2342705Y123664D01*
X2338373Y117851D01*
X2333902Y112144D01*
X2329295Y106547D01*
X2324553Y101063D01*
X2319681Y95695D01*
X2314680Y90447D01*
X2309553Y85320D01*
X2304305Y80319D01*
X2298937Y75447D01*
X2293453Y70705D01*
X2287856Y66098D01*
X2282149Y61627D01*
X2276336Y57295D01*
X2270419Y53105D01*
X2264404Y49059D01*
X2258292Y45160D01*
X2252088Y41409D01*
X2245795Y37810D01*
X2239417Y34363D01*
X2232957Y31072D01*
X2226420Y27938D01*
X2219809Y24962D01*
X2213128Y22148D01*
X2206381Y19495D01*
X2199572Y17006D01*
X2192705Y14683D01*
X2185784Y12526D01*
X2178812Y10537D01*
X2171795Y8717D01*
X2164735Y7068D01*
X2157638Y5589D01*
X2150507Y4282D01*
X2143347Y3148D01*
X2136161Y2187D01*
X2128954Y1401D01*
X2121730Y788D01*
X2114494Y350D01*
X2107249Y88D01*
X2100000Y0D01*
D11*
X1585000Y773000D02*
X1085000Y773000D01*
X1085000Y573000D01*
X1585000Y573000D02*
X1585000Y773000D01*
X1585000Y573000D02*
X1085000Y573000D01*
D12*
X856962Y638040D02*
X856962Y707960D01*
X837540Y707960D02*
X876384Y707960D01*
X903713Y707960D02*
X903713Y638040D01*
X903713Y707960D02*
X923135Y707960D01*
X923135Y707961D02*
X923608Y707955D01*
X924081Y707938D01*
X924553Y707909D01*
X925024Y707869D01*
X925494Y707817D01*
X925963Y707754D01*
X926430Y707679D01*
X926895Y707594D01*
X927358Y707496D01*
X927819Y707388D01*
X928276Y707268D01*
X928731Y707137D01*
X929182Y706996D01*
X929630Y706843D01*
X930073Y706679D01*
X930513Y706505D01*
X930949Y706320D01*
X931379Y706125D01*
X931805Y705919D01*
X932226Y705702D01*
X932641Y705476D01*
X933051Y705239D01*
X933454Y704993D01*
X933852Y704737D01*
X934243Y704471D01*
X934628Y704196D01*
X935006Y703911D01*
X935377Y703618D01*
X935740Y703315D01*
X936096Y703004D01*
X936445Y702684D01*
X936785Y702355D01*
X937118Y702019D01*
X937442Y701675D01*
X937757Y701322D01*
X938064Y700962D01*
X938363Y700595D01*
X938652Y700221D01*
X938932Y699839D01*
X939202Y699451D01*
X939463Y699057D01*
X939714Y698656D01*
X939956Y698250D01*
X940187Y697837D01*
X940409Y697419D01*
X940620Y696996D01*
X940821Y696567D01*
X941011Y696134D01*
X941191Y695697D01*
X941360Y695255D01*
X941518Y694809D01*
X941665Y694360D01*
X941801Y693907D01*
X941926Y693451D01*
X942040Y692992D01*
X942143Y692530D01*
X942235Y692066D01*
X942315Y691600D01*
X942384Y691132D01*
X942441Y690662D01*
X942487Y690192D01*
X942522Y689720D01*
X942545Y689247D01*
X942557Y688775D01*
X942557Y688301D01*
X942545Y687829D01*
X942522Y687356D01*
X942487Y686884D01*
X942441Y686414D01*
X942384Y685944D01*
X942315Y685476D01*
X942235Y685010D01*
X942143Y684546D01*
X942040Y684084D01*
X941926Y683625D01*
X941801Y683169D01*
X941665Y682716D01*
X941518Y682267D01*
X941360Y681821D01*
X941191Y681379D01*
X941011Y680942D01*
X940821Y680509D01*
X940620Y680080D01*
X940409Y679657D01*
X940187Y679239D01*
X939956Y678827D01*
X939714Y678420D01*
X939463Y678019D01*
X939202Y677625D01*
X938932Y677237D01*
X938652Y676855D01*
X938363Y676481D01*
X938064Y676114D01*
X937757Y675754D01*
X937442Y675401D01*
X937118Y675057D01*
X936785Y674721D01*
X936445Y674392D01*
X936096Y674072D01*
X935740Y673761D01*
X935377Y673458D01*
X935006Y673165D01*
X934628Y672880D01*
X934243Y672605D01*
X933852Y672339D01*
X933454Y672083D01*
X933051Y671837D01*
X932641Y671600D01*
X932226Y671374D01*
X931805Y671157D01*
X931379Y670951D01*
X930949Y670756D01*
X930513Y670571D01*
X930073Y670397D01*
X929630Y670233D01*
X929182Y670080D01*
X928731Y669939D01*
X928276Y669808D01*
X927819Y669688D01*
X927358Y669580D01*
X926895Y669482D01*
X926430Y669397D01*
X925963Y669322D01*
X925494Y669259D01*
X925024Y669207D01*
X924553Y669167D01*
X924081Y669138D01*
X923608Y669121D01*
X923135Y669115D01*
X903713Y669115D01*
X968040Y700191D02*
X968040Y707960D01*
X1006884Y707960D01*
X987462Y638040D01*
X685582Y1926693D02*
X685582Y1984960D01*
X685582Y1926693D02*
X685585Y1926411D01*
X685596Y1926130D01*
X685613Y1925849D01*
X685636Y1925568D01*
X685667Y1925288D01*
X685704Y1925009D01*
X685748Y1924731D01*
X685799Y1924454D01*
X685857Y1924178D01*
X685921Y1923904D01*
X685991Y1923632D01*
X686069Y1923361D01*
X686152Y1923092D01*
X686243Y1922825D01*
X686339Y1922561D01*
X686442Y1922299D01*
X686552Y1922039D01*
X686667Y1921782D01*
X686789Y1921528D01*
X686917Y1921278D01*
X687051Y1921030D01*
X687190Y1920785D01*
X687336Y1920544D01*
X687488Y1920307D01*
X687645Y1920073D01*
X687808Y1919844D01*
X687976Y1919618D01*
X688149Y1919396D01*
X688328Y1919179D01*
X688513Y1918966D01*
X688702Y1918757D01*
X688896Y1918553D01*
X689095Y1918354D01*
X689299Y1918160D01*
X689508Y1917971D01*
X689721Y1917786D01*
X689938Y1917607D01*
X690160Y1917434D01*
X690386Y1917266D01*
X690615Y1917103D01*
X690849Y1916946D01*
X691086Y1916794D01*
X691327Y1916648D01*
X691572Y1916509D01*
X691820Y1916375D01*
X692070Y1916247D01*
X692324Y1916125D01*
X692581Y1916010D01*
X692841Y1915900D01*
X693103Y1915797D01*
X693367Y1915701D01*
X693634Y1915610D01*
X693903Y1915527D01*
X694174Y1915449D01*
X694446Y1915379D01*
X694720Y1915315D01*
X694996Y1915257D01*
X695273Y1915206D01*
X695551Y1915162D01*
X695830Y1915125D01*
X696110Y1915094D01*
X696391Y1915071D01*
X696672Y1915054D01*
X696953Y1915043D01*
X697235Y1915040D01*
X720594Y1930578D02*
X720594Y1946115D01*
X720593Y1946115D02*
X720598Y1946493D01*
X720611Y1946872D01*
X720634Y1947249D01*
X720667Y1947626D01*
X720708Y1948002D01*
X720759Y1948377D01*
X720818Y1948751D01*
X720887Y1949123D01*
X720965Y1949493D01*
X721051Y1949862D01*
X721147Y1950228D01*
X721252Y1950591D01*
X721365Y1950952D01*
X721487Y1951311D01*
X721618Y1951666D01*
X721758Y1952017D01*
X721906Y1952366D01*
X722062Y1952710D01*
X722227Y1953051D01*
X722400Y1953387D01*
X722581Y1953720D01*
X722770Y1954047D01*
X722967Y1954370D01*
X723172Y1954688D01*
X723385Y1955001D01*
X723605Y1955309D01*
X723833Y1955611D01*
X724068Y1955908D01*
X724310Y1956199D01*
X724559Y1956484D01*
X724815Y1956763D01*
X725077Y1957035D01*
X725346Y1957301D01*
X725622Y1957560D01*
X725904Y1957813D01*
X726192Y1958058D01*
X726486Y1958297D01*
X726785Y1958528D01*
X727090Y1958752D01*
X727400Y1958968D01*
X727716Y1959177D01*
X728037Y1959378D01*
X728362Y1959571D01*
X728692Y1959756D01*
X729026Y1959934D01*
X729365Y1960103D01*
X729708Y1960263D01*
X730054Y1960415D01*
X730404Y1960559D01*
X730757Y1960694D01*
X731114Y1960821D01*
X731474Y1960939D01*
X731836Y1961048D01*
X732201Y1961148D01*
X732568Y1961239D01*
X732937Y1961321D01*
X733309Y1961395D01*
X733682Y1961459D01*
X734056Y1961514D01*
X734432Y1961560D01*
X734808Y1961597D01*
X735186Y1961624D01*
X735564Y1961643D01*
X735942Y1961652D01*
X736320Y1961652D01*
X736698Y1961643D01*
X737076Y1961624D01*
X737454Y1961597D01*
X737830Y1961560D01*
X738206Y1961514D01*
X738580Y1961459D01*
X738953Y1961395D01*
X739325Y1961321D01*
X739694Y1961239D01*
X740061Y1961148D01*
X740426Y1961048D01*
X740788Y1960939D01*
X741148Y1960821D01*
X741505Y1960694D01*
X741858Y1960559D01*
X742208Y1960415D01*
X742554Y1960263D01*
X742897Y1960103D01*
X743236Y1959934D01*
X743570Y1959756D01*
X743900Y1959571D01*
X744225Y1959378D01*
X744546Y1959177D01*
X744862Y1958968D01*
X745172Y1958752D01*
X745477Y1958528D01*
X745776Y1958297D01*
X746070Y1958058D01*
X746358Y1957813D01*
X746640Y1957560D01*
X746916Y1957301D01*
X747185Y1957035D01*
X747447Y1956763D01*
X747703Y1956484D01*
X747952Y1956199D01*
X748194Y1955908D01*
X748429Y1955611D01*
X748657Y1955309D01*
X748877Y1955001D01*
X749090Y1954688D01*
X749295Y1954370D01*
X749492Y1954047D01*
X749681Y1953720D01*
X749862Y1953387D01*
X750035Y1953051D01*
X750200Y1952710D01*
X750356Y1952366D01*
X750504Y1952017D01*
X750644Y1951666D01*
X750775Y1951311D01*
X750897Y1950952D01*
X751010Y1950591D01*
X751115Y1950228D01*
X751211Y1949862D01*
X751297Y1949493D01*
X751375Y1949123D01*
X751444Y1948751D01*
X751503Y1948377D01*
X751554Y1948002D01*
X751595Y1947626D01*
X751628Y1947249D01*
X751651Y1946872D01*
X751664Y1946493D01*
X751669Y1946115D01*
X751669Y1930578D01*
X751664Y1930200D01*
X751651Y1929821D01*
X751628Y1929444D01*
X751595Y1929067D01*
X751554Y1928691D01*
X751503Y1928316D01*
X751444Y1927942D01*
X751375Y1927570D01*
X751297Y1927200D01*
X751211Y1926831D01*
X751115Y1926465D01*
X751010Y1926102D01*
X750897Y1925741D01*
X750775Y1925382D01*
X750644Y1925027D01*
X750504Y1924676D01*
X750356Y1924327D01*
X750200Y1923983D01*
X750035Y1923642D01*
X749862Y1923306D01*
X749681Y1922973D01*
X749492Y1922646D01*
X749295Y1922323D01*
X749090Y1922005D01*
X748877Y1921692D01*
X748657Y1921384D01*
X748429Y1921082D01*
X748194Y1920785D01*
X747952Y1920494D01*
X747703Y1920209D01*
X747447Y1919930D01*
X747185Y1919658D01*
X746916Y1919392D01*
X746640Y1919133D01*
X746358Y1918880D01*
X746070Y1918635D01*
X745776Y1918396D01*
X745477Y1918165D01*
X745172Y1917941D01*
X744862Y1917725D01*
X744546Y1917516D01*
X744225Y1917315D01*
X743900Y1917122D01*
X743570Y1916937D01*
X743236Y1916759D01*
X742897Y1916590D01*
X742554Y1916430D01*
X742208Y1916278D01*
X741858Y1916134D01*
X741505Y1915999D01*
X741148Y1915872D01*
X740788Y1915754D01*
X740426Y1915645D01*
X740061Y1915545D01*
X739694Y1915454D01*
X739325Y1915372D01*
X738953Y1915298D01*
X738580Y1915234D01*
X738206Y1915179D01*
X737830Y1915133D01*
X737454Y1915096D01*
X737076Y1915069D01*
X736698Y1915050D01*
X736320Y1915041D01*
X735942Y1915041D01*
X735564Y1915050D01*
X735186Y1915069D01*
X734808Y1915096D01*
X734432Y1915133D01*
X734056Y1915179D01*
X733682Y1915234D01*
X733309Y1915298D01*
X732937Y1915372D01*
X732568Y1915454D01*
X732201Y1915545D01*
X731836Y1915645D01*
X731474Y1915754D01*
X731114Y1915872D01*
X730757Y1915999D01*
X730404Y1916134D01*
X730054Y1916278D01*
X729708Y1916430D01*
X729365Y1916590D01*
X729026Y1916759D01*
X728692Y1916937D01*
X728362Y1917122D01*
X728037Y1917315D01*
X727716Y1917516D01*
X727400Y1917725D01*
X727090Y1917941D01*
X726785Y1918165D01*
X726486Y1918396D01*
X726192Y1918635D01*
X725904Y1918880D01*
X725622Y1919133D01*
X725346Y1919392D01*
X725077Y1919658D01*
X724815Y1919930D01*
X724559Y1920209D01*
X724310Y1920494D01*
X724068Y1920785D01*
X723833Y1921082D01*
X723605Y1921384D01*
X723385Y1921692D01*
X723172Y1922005D01*
X722967Y1922323D01*
X722770Y1922646D01*
X722581Y1922973D01*
X722400Y1923306D01*
X722227Y1923642D01*
X722062Y1923983D01*
X721906Y1924327D01*
X721758Y1924676D01*
X721618Y1925027D01*
X721487Y1925382D01*
X721365Y1925741D01*
X721252Y1926102D01*
X721147Y1926465D01*
X721051Y1926831D01*
X720965Y1927200D01*
X720887Y1927570D01*
X720818Y1927942D01*
X720759Y1928316D01*
X720708Y1928691D01*
X720667Y1929067D01*
X720634Y1929444D01*
X720611Y1929821D01*
X720598Y1930200D01*
X720593Y1930578D01*
X778075Y1961653D02*
X789728Y1915040D01*
X801381Y1946115D01*
X813035Y1915040D01*
X824688Y1961653D01*
X892920Y1942231D02*
X912342Y1934462D01*
X892920Y1942230D02*
X892693Y1942324D01*
X892469Y1942423D01*
X892247Y1942528D01*
X892028Y1942638D01*
X891812Y1942754D01*
X891598Y1942874D01*
X891388Y1943000D01*
X891180Y1943131D01*
X890976Y1943267D01*
X890776Y1943408D01*
X890578Y1943553D01*
X890385Y1943704D01*
X890195Y1943859D01*
X890009Y1944019D01*
X889826Y1944183D01*
X889648Y1944351D01*
X889474Y1944524D01*
X889305Y1944701D01*
X889139Y1944882D01*
X888979Y1945067D01*
X888822Y1945256D01*
X888671Y1945449D01*
X888524Y1945645D01*
X888382Y1945845D01*
X888244Y1946048D01*
X888112Y1946255D01*
X887985Y1946464D01*
X887863Y1946677D01*
X887746Y1946893D01*
X887635Y1947111D01*
X887529Y1947332D01*
X887428Y1947556D01*
X887332Y1947782D01*
X887243Y1948010D01*
X887159Y1948240D01*
X887080Y1948472D01*
X887007Y1948707D01*
X886940Y1948942D01*
X886879Y1949180D01*
X886823Y1949419D01*
X886773Y1949659D01*
X886729Y1949900D01*
X886691Y1950142D01*
X886659Y1950385D01*
X886633Y1950629D01*
X886613Y1950873D01*
X886599Y1951118D01*
X886590Y1951363D01*
X886588Y1951608D01*
X886592Y1951854D01*
X886601Y1952099D01*
X886617Y1952343D01*
X886638Y1952588D01*
X886666Y1952831D01*
X886699Y1953074D01*
X886738Y1953316D01*
X886784Y1953557D01*
X886835Y1953797D01*
X886891Y1954036D01*
X886954Y1954273D01*
X887022Y1954508D01*
X887097Y1954742D01*
X887176Y1954974D01*
X887262Y1955204D01*
X887353Y1955431D01*
X887449Y1955657D01*
X887551Y1955880D01*
X887658Y1956100D01*
X887771Y1956318D01*
X887889Y1956533D01*
X888012Y1956745D01*
X888140Y1956954D01*
X888274Y1957160D01*
X888412Y1957362D01*
X888555Y1957561D01*
X888703Y1957757D01*
X888856Y1957949D01*
X889013Y1958137D01*
X889175Y1958321D01*
X889341Y1958501D01*
X889512Y1958678D01*
X889687Y1958849D01*
X889866Y1959017D01*
X890049Y1959180D01*
X890235Y1959339D01*
X890426Y1959493D01*
X890621Y1959642D01*
X890819Y1959787D01*
X891020Y1959927D01*
X891225Y1960062D01*
X891433Y1960191D01*
X891644Y1960316D01*
X891858Y1960436D01*
X892075Y1960550D01*
X892295Y1960659D01*
X892517Y1960762D01*
X892742Y1960861D01*
X892969Y1960953D01*
X893198Y1961040D01*
X893429Y1961122D01*
X893662Y1961198D01*
X893897Y1961268D01*
X894134Y1961332D01*
X894372Y1961391D01*
X894612Y1961443D01*
X894852Y1961490D01*
X895094Y1961532D01*
X895337Y1961567D01*
X895580Y1961596D01*
X895824Y1961619D01*
X896069Y1961637D01*
X896314Y1961648D01*
X896559Y1961653D01*
X896804Y1961653D01*
X897864Y1961626D01*
X898924Y1961572D01*
X899981Y1961493D01*
X901037Y1961389D01*
X902090Y1961259D01*
X903139Y1961105D01*
X904184Y1960925D01*
X905225Y1960719D01*
X906260Y1960489D01*
X907290Y1960234D01*
X908313Y1959955D01*
X909329Y1959651D01*
X910337Y1959322D01*
X911338Y1958970D01*
X912329Y1958593D01*
X913312Y1958193D01*
X914284Y1957769D01*
X912342Y1934463D02*
X912568Y1934369D01*
X912792Y1934269D01*
X913014Y1934165D01*
X913233Y1934055D01*
X913449Y1933939D01*
X913663Y1933819D01*
X913873Y1933693D01*
X914081Y1933562D01*
X914285Y1933426D01*
X914486Y1933285D01*
X914683Y1933139D01*
X914876Y1932989D01*
X915066Y1932834D01*
X915252Y1932674D01*
X915435Y1932510D01*
X915613Y1932342D01*
X915787Y1932169D01*
X915956Y1931992D01*
X916122Y1931811D01*
X916282Y1931626D01*
X916439Y1931437D01*
X916590Y1931244D01*
X916737Y1931048D01*
X916879Y1930848D01*
X917017Y1930645D01*
X917149Y1930438D01*
X917276Y1930229D01*
X917398Y1930016D01*
X917515Y1929800D01*
X917626Y1929582D01*
X917733Y1929361D01*
X917833Y1929137D01*
X917929Y1928911D01*
X918018Y1928683D01*
X918102Y1928453D01*
X918181Y1928221D01*
X918254Y1927986D01*
X918321Y1927751D01*
X918382Y1927513D01*
X918438Y1927274D01*
X918488Y1927034D01*
X918532Y1926793D01*
X918570Y1926551D01*
X918602Y1926308D01*
X918628Y1926064D01*
X918648Y1925820D01*
X918662Y1925575D01*
X918671Y1925330D01*
X918673Y1925085D01*
X918669Y1924839D01*
X918660Y1924594D01*
X918644Y1924350D01*
X918623Y1924105D01*
X918595Y1923862D01*
X918562Y1923619D01*
X918523Y1923377D01*
X918477Y1923136D01*
X918426Y1922896D01*
X918370Y1922657D01*
X918307Y1922420D01*
X918239Y1922185D01*
X918164Y1921951D01*
X918085Y1921719D01*
X917999Y1921489D01*
X917908Y1921262D01*
X917812Y1921036D01*
X917710Y1920813D01*
X917603Y1920593D01*
X917490Y1920375D01*
X917372Y1920160D01*
X917249Y1919948D01*
X917121Y1919739D01*
X916987Y1919533D01*
X916849Y1919331D01*
X916706Y1919132D01*
X916558Y1918936D01*
X916405Y1918744D01*
X916248Y1918556D01*
X916086Y1918372D01*
X915920Y1918192D01*
X915749Y1918016D01*
X915575Y1917844D01*
X915396Y1917676D01*
X915213Y1917513D01*
X915026Y1917354D01*
X914835Y1917200D01*
X914641Y1917051D01*
X914443Y1916906D01*
X914241Y1916766D01*
X914036Y1916631D01*
X913828Y1916502D01*
X913617Y1916377D01*
X913403Y1916257D01*
X913186Y1916143D01*
X912966Y1916034D01*
X912744Y1915931D01*
X912519Y1915832D01*
X912292Y1915740D01*
X912063Y1915653D01*
X911832Y1915571D01*
X911599Y1915495D01*
X911364Y1915425D01*
X911127Y1915361D01*
X910889Y1915302D01*
X910650Y1915250D01*
X910409Y1915203D01*
X910167Y1915162D01*
X909925Y1915126D01*
X909681Y1915097D01*
X909437Y1915074D01*
X909193Y1915056D01*
X908948Y1915045D01*
X908702Y1915040D01*
X908457Y1915040D01*
X908458Y1915040D02*
X906900Y1915080D01*
X905344Y1915158D01*
X903790Y1915272D01*
X902239Y1915423D01*
X900692Y1915611D01*
X899151Y1915835D01*
X897614Y1916096D01*
X896085Y1916392D01*
X894563Y1916725D01*
X893049Y1917094D01*
X891544Y1917499D01*
X890049Y1917939D01*
X888566Y1918414D01*
X887093Y1918924D01*
X945381Y1915040D02*
X945381Y1961653D01*
X943439Y1981075D02*
X943439Y1984960D01*
X947323Y1984960D01*
X947323Y1981075D01*
X943439Y1981075D01*
X1003347Y1984960D02*
X1003347Y1915040D01*
X983925Y1915040D01*
X983643Y1915043D01*
X983362Y1915054D01*
X983081Y1915071D01*
X982800Y1915094D01*
X982520Y1915125D01*
X982241Y1915162D01*
X981963Y1915206D01*
X981686Y1915257D01*
X981410Y1915315D01*
X981136Y1915379D01*
X980864Y1915449D01*
X980593Y1915527D01*
X980324Y1915610D01*
X980057Y1915701D01*
X979793Y1915797D01*
X979531Y1915900D01*
X979271Y1916010D01*
X979014Y1916125D01*
X978760Y1916247D01*
X978510Y1916375D01*
X978262Y1916509D01*
X978017Y1916648D01*
X977776Y1916794D01*
X977539Y1916946D01*
X977305Y1917103D01*
X977076Y1917266D01*
X976850Y1917434D01*
X976628Y1917607D01*
X976411Y1917786D01*
X976198Y1917971D01*
X975989Y1918160D01*
X975785Y1918354D01*
X975586Y1918553D01*
X975392Y1918757D01*
X975203Y1918966D01*
X975018Y1919179D01*
X974839Y1919396D01*
X974666Y1919618D01*
X974498Y1919844D01*
X974335Y1920073D01*
X974178Y1920307D01*
X974026Y1920544D01*
X973880Y1920785D01*
X973741Y1921030D01*
X973607Y1921278D01*
X973479Y1921528D01*
X973357Y1921782D01*
X973242Y1922039D01*
X973132Y1922299D01*
X973029Y1922561D01*
X972933Y1922825D01*
X972842Y1923092D01*
X972759Y1923361D01*
X972681Y1923632D01*
X972611Y1923904D01*
X972547Y1924178D01*
X972489Y1924454D01*
X972438Y1924731D01*
X972394Y1925009D01*
X972357Y1925288D01*
X972326Y1925568D01*
X972303Y1925849D01*
X972286Y1926130D01*
X972275Y1926411D01*
X972272Y1926693D01*
X972272Y1950000D01*
X972275Y1950282D01*
X972286Y1950563D01*
X972303Y1950844D01*
X972326Y1951125D01*
X972357Y1951405D01*
X972394Y1951684D01*
X972438Y1951962D01*
X972489Y1952239D01*
X972547Y1952515D01*
X972611Y1952789D01*
X972681Y1953061D01*
X972759Y1953332D01*
X972842Y1953601D01*
X972933Y1953868D01*
X973029Y1954132D01*
X973132Y1954394D01*
X973242Y1954654D01*
X973357Y1954911D01*
X973479Y1955165D01*
X973607Y1955415D01*
X973741Y1955663D01*
X973880Y1955908D01*
X974026Y1956149D01*
X974178Y1956386D01*
X974335Y1956620D01*
X974498Y1956849D01*
X974666Y1957075D01*
X974839Y1957297D01*
X975018Y1957514D01*
X975203Y1957727D01*
X975392Y1957936D01*
X975586Y1958140D01*
X975785Y1958339D01*
X975989Y1958533D01*
X976198Y1958722D01*
X976411Y1958907D01*
X976628Y1959086D01*
X976850Y1959259D01*
X977076Y1959427D01*
X977305Y1959590D01*
X977539Y1959747D01*
X977776Y1959899D01*
X978017Y1960045D01*
X978262Y1960184D01*
X978510Y1960318D01*
X978760Y1960446D01*
X979014Y1960568D01*
X979271Y1960683D01*
X979531Y1960793D01*
X979793Y1960896D01*
X980057Y1960992D01*
X980324Y1961083D01*
X980593Y1961166D01*
X980864Y1961244D01*
X981136Y1961314D01*
X981410Y1961378D01*
X981686Y1961436D01*
X981963Y1961487D01*
X982241Y1961531D01*
X982520Y1961568D01*
X982800Y1961599D01*
X983081Y1961622D01*
X983362Y1961639D01*
X983643Y1961650D01*
X983925Y1961653D01*
X1003347Y1961653D01*
X1044996Y1915040D02*
X1064418Y1915040D01*
X1044996Y1915040D02*
X1044714Y1915043D01*
X1044433Y1915054D01*
X1044152Y1915071D01*
X1043871Y1915094D01*
X1043591Y1915125D01*
X1043312Y1915162D01*
X1043034Y1915206D01*
X1042757Y1915257D01*
X1042481Y1915315D01*
X1042207Y1915379D01*
X1041935Y1915449D01*
X1041664Y1915527D01*
X1041395Y1915610D01*
X1041128Y1915701D01*
X1040864Y1915797D01*
X1040602Y1915900D01*
X1040342Y1916010D01*
X1040085Y1916125D01*
X1039831Y1916247D01*
X1039581Y1916375D01*
X1039333Y1916509D01*
X1039088Y1916648D01*
X1038847Y1916794D01*
X1038610Y1916946D01*
X1038376Y1917103D01*
X1038147Y1917266D01*
X1037921Y1917434D01*
X1037699Y1917607D01*
X1037482Y1917786D01*
X1037269Y1917971D01*
X1037060Y1918160D01*
X1036856Y1918354D01*
X1036657Y1918553D01*
X1036463Y1918757D01*
X1036274Y1918966D01*
X1036089Y1919179D01*
X1035910Y1919396D01*
X1035737Y1919618D01*
X1035569Y1919844D01*
X1035406Y1920073D01*
X1035249Y1920307D01*
X1035097Y1920544D01*
X1034951Y1920785D01*
X1034812Y1921030D01*
X1034678Y1921278D01*
X1034550Y1921528D01*
X1034428Y1921782D01*
X1034313Y1922039D01*
X1034203Y1922299D01*
X1034100Y1922561D01*
X1034004Y1922825D01*
X1033913Y1923092D01*
X1033830Y1923361D01*
X1033752Y1923632D01*
X1033682Y1923904D01*
X1033618Y1924178D01*
X1033560Y1924454D01*
X1033509Y1924731D01*
X1033465Y1925009D01*
X1033428Y1925288D01*
X1033397Y1925568D01*
X1033374Y1925849D01*
X1033357Y1926130D01*
X1033346Y1926411D01*
X1033343Y1926693D01*
X1033343Y1946115D01*
X1033342Y1946115D02*
X1033347Y1946493D01*
X1033360Y1946872D01*
X1033383Y1947249D01*
X1033416Y1947626D01*
X1033457Y1948002D01*
X1033508Y1948377D01*
X1033567Y1948751D01*
X1033636Y1949123D01*
X1033714Y1949493D01*
X1033800Y1949862D01*
X1033896Y1950228D01*
X1034001Y1950591D01*
X1034114Y1950952D01*
X1034236Y1951311D01*
X1034367Y1951666D01*
X1034507Y1952017D01*
X1034655Y1952366D01*
X1034811Y1952710D01*
X1034976Y1953051D01*
X1035149Y1953387D01*
X1035330Y1953720D01*
X1035519Y1954047D01*
X1035716Y1954370D01*
X1035921Y1954688D01*
X1036134Y1955001D01*
X1036354Y1955309D01*
X1036582Y1955611D01*
X1036817Y1955908D01*
X1037059Y1956199D01*
X1037308Y1956484D01*
X1037564Y1956763D01*
X1037826Y1957035D01*
X1038095Y1957301D01*
X1038371Y1957560D01*
X1038653Y1957813D01*
X1038941Y1958058D01*
X1039235Y1958297D01*
X1039534Y1958528D01*
X1039839Y1958752D01*
X1040149Y1958968D01*
X1040465Y1959177D01*
X1040786Y1959378D01*
X1041111Y1959571D01*
X1041441Y1959756D01*
X1041775Y1959934D01*
X1042114Y1960103D01*
X1042457Y1960263D01*
X1042803Y1960415D01*
X1043153Y1960559D01*
X1043506Y1960694D01*
X1043863Y1960821D01*
X1044223Y1960939D01*
X1044585Y1961048D01*
X1044950Y1961148D01*
X1045317Y1961239D01*
X1045686Y1961321D01*
X1046058Y1961395D01*
X1046431Y1961459D01*
X1046805Y1961514D01*
X1047181Y1961560D01*
X1047557Y1961597D01*
X1047935Y1961624D01*
X1048313Y1961643D01*
X1048691Y1961652D01*
X1049069Y1961652D01*
X1049447Y1961643D01*
X1049825Y1961624D01*
X1050203Y1961597D01*
X1050579Y1961560D01*
X1050955Y1961514D01*
X1051329Y1961459D01*
X1051702Y1961395D01*
X1052074Y1961321D01*
X1052443Y1961239D01*
X1052810Y1961148D01*
X1053175Y1961048D01*
X1053537Y1960939D01*
X1053897Y1960821D01*
X1054254Y1960694D01*
X1054607Y1960559D01*
X1054957Y1960415D01*
X1055303Y1960263D01*
X1055646Y1960103D01*
X1055985Y1959934D01*
X1056319Y1959756D01*
X1056649Y1959571D01*
X1056974Y1959378D01*
X1057295Y1959177D01*
X1057611Y1958968D01*
X1057921Y1958752D01*
X1058226Y1958528D01*
X1058525Y1958297D01*
X1058819Y1958058D01*
X1059107Y1957813D01*
X1059389Y1957560D01*
X1059665Y1957301D01*
X1059934Y1957035D01*
X1060196Y1956763D01*
X1060452Y1956484D01*
X1060701Y1956199D01*
X1060943Y1955908D01*
X1061178Y1955611D01*
X1061406Y1955309D01*
X1061626Y1955001D01*
X1061839Y1954688D01*
X1062044Y1954370D01*
X1062241Y1954047D01*
X1062430Y1953720D01*
X1062611Y1953387D01*
X1062784Y1953051D01*
X1062949Y1952710D01*
X1063105Y1952366D01*
X1063253Y1952017D01*
X1063393Y1951666D01*
X1063524Y1951311D01*
X1063646Y1950952D01*
X1063759Y1950591D01*
X1063864Y1950228D01*
X1063960Y1949862D01*
X1064046Y1949493D01*
X1064124Y1949123D01*
X1064193Y1948751D01*
X1064252Y1948377D01*
X1064303Y1948002D01*
X1064344Y1947626D01*
X1064377Y1947249D01*
X1064400Y1946872D01*
X1064413Y1946493D01*
X1064418Y1946115D01*
X1064418Y1938347D01*
X1033343Y1938347D01*
X1713078Y2115040D02*
X1736384Y2115040D01*
X1736765Y2115045D01*
X1737146Y2115059D01*
X1737527Y2115082D01*
X1737907Y2115115D01*
X1738286Y2115157D01*
X1738664Y2115208D01*
X1739040Y2115269D01*
X1739415Y2115339D01*
X1739788Y2115418D01*
X1740159Y2115506D01*
X1740528Y2115603D01*
X1740894Y2115709D01*
X1741258Y2115824D01*
X1741619Y2115948D01*
X1741976Y2116081D01*
X1742330Y2116223D01*
X1742681Y2116373D01*
X1743027Y2116532D01*
X1743370Y2116699D01*
X1743708Y2116875D01*
X1744043Y2117059D01*
X1744372Y2117251D01*
X1744697Y2117451D01*
X1745016Y2117659D01*
X1745331Y2117874D01*
X1745640Y2118098D01*
X1745943Y2118329D01*
X1746241Y2118567D01*
X1746533Y2118812D01*
X1746819Y2119065D01*
X1747098Y2119325D01*
X1747371Y2119591D01*
X1747637Y2119864D01*
X1747897Y2120143D01*
X1748149Y2120429D01*
X1748395Y2120721D01*
X1748633Y2121018D01*
X1748864Y2121322D01*
X1749088Y2121631D01*
X1749303Y2121945D01*
X1749511Y2122265D01*
X1749711Y2122590D01*
X1749903Y2122919D01*
X1750087Y2123253D01*
X1750263Y2123592D01*
X1750430Y2123934D01*
X1750589Y2124281D01*
X1750739Y2124632D01*
X1750881Y2124986D01*
X1751014Y2125343D01*
X1751138Y2125704D01*
X1751253Y2126067D01*
X1751359Y2126434D01*
X1751456Y2126802D01*
X1751544Y2127173D01*
X1751623Y2127546D01*
X1751693Y2127921D01*
X1751754Y2128298D01*
X1751805Y2128676D01*
X1751847Y2129055D01*
X1751880Y2129435D01*
X1751903Y2129815D01*
X1751917Y2130196D01*
X1751922Y2130578D01*
X1751922Y2138347D01*
X1751917Y2138722D01*
X1751904Y2139098D01*
X1751881Y2139472D01*
X1751849Y2139847D01*
X1751809Y2140220D01*
X1751759Y2140592D01*
X1751700Y2140963D01*
X1751633Y2141332D01*
X1751556Y2141700D01*
X1751470Y2142065D01*
X1751376Y2142429D01*
X1751273Y2142790D01*
X1751162Y2143149D01*
X1751041Y2143504D01*
X1750912Y2143857D01*
X1750775Y2144206D01*
X1750629Y2144552D01*
X1750475Y2144895D01*
X1750313Y2145233D01*
X1750142Y2145568D01*
X1749964Y2145898D01*
X1749777Y2146224D01*
X1749583Y2146545D01*
X1749381Y2146862D01*
X1749172Y2147174D01*
X1748955Y2147480D01*
X1748730Y2147781D01*
X1748499Y2148077D01*
X1748260Y2148367D01*
X1748014Y2148651D01*
X1747762Y2148929D01*
X1747503Y2149200D01*
X1747237Y2149466D01*
X1746966Y2149725D01*
X1746688Y2149977D01*
X1746404Y2150223D01*
X1746114Y2150462D01*
X1745818Y2150693D01*
X1745517Y2150918D01*
X1745211Y2151135D01*
X1744899Y2151344D01*
X1744582Y2151546D01*
X1744261Y2151740D01*
X1743935Y2151927D01*
X1743605Y2152105D01*
X1743270Y2152276D01*
X1742932Y2152438D01*
X1742589Y2152592D01*
X1742243Y2152738D01*
X1741894Y2152875D01*
X1741541Y2153004D01*
X1741186Y2153125D01*
X1740827Y2153236D01*
X1740466Y2153339D01*
X1740102Y2153433D01*
X1739737Y2153519D01*
X1739369Y2153596D01*
X1739000Y2153663D01*
X1738629Y2153722D01*
X1738257Y2153772D01*
X1737884Y2153812D01*
X1737509Y2153844D01*
X1737135Y2153867D01*
X1736759Y2153880D01*
X1736384Y2153885D01*
X1736384Y2153884D02*
X1713078Y2153884D01*
X1713078Y2184960D01*
X1751922Y2184960D01*
X1776693Y2184960D02*
X1800000Y2115040D01*
X1823307Y2184960D01*
X1853905Y2175249D02*
X1853317Y2174005D01*
X1852758Y2172748D01*
X1852231Y2171478D01*
X1851733Y2170195D01*
X1851266Y2168901D01*
X1850831Y2167597D01*
X1850426Y2166282D01*
X1850053Y2164958D01*
X1849712Y2163625D01*
X1849403Y2162285D01*
X1849126Y2160938D01*
X1848881Y2159584D01*
X1848668Y2158225D01*
X1848488Y2156861D01*
X1848341Y2155494D01*
X1848226Y2154123D01*
X1848144Y2152750D01*
X1848094Y2151375D01*
X1848078Y2150000D01*
X1853904Y2175249D02*
X1854021Y2175579D01*
X1854147Y2175905D01*
X1854280Y2176228D01*
X1854421Y2176548D01*
X1854570Y2176864D01*
X1854726Y2177177D01*
X1854890Y2177486D01*
X1855062Y2177790D01*
X1855241Y2178091D01*
X1855427Y2178387D01*
X1855620Y2178678D01*
X1855820Y2178965D01*
X1856027Y2179246D01*
X1856241Y2179523D01*
X1856462Y2179794D01*
X1856689Y2180060D01*
X1856923Y2180320D01*
X1857163Y2180574D01*
X1857409Y2180823D01*
X1857660Y2181065D01*
X1857918Y2181301D01*
X1858182Y2181531D01*
X1858450Y2181754D01*
X1858725Y2181971D01*
X1859004Y2182181D01*
X1859289Y2182384D01*
X1859578Y2182581D01*
X1859872Y2182770D01*
X1860171Y2182952D01*
X1860473Y2183126D01*
X1860780Y2183294D01*
X1861091Y2183453D01*
X1861406Y2183605D01*
X1861725Y2183750D01*
X1862046Y2183886D01*
X1862372Y2184015D01*
X1862700Y2184136D01*
X1863031Y2184248D01*
X1863364Y2184353D01*
X1863700Y2184450D01*
X1864038Y2184538D01*
X1864379Y2184618D01*
X1864721Y2184690D01*
X1865065Y2184753D01*
X1865410Y2184808D01*
X1865756Y2184855D01*
X1866104Y2184893D01*
X1866452Y2184923D01*
X1866801Y2184944D01*
X1867150Y2184957D01*
X1867500Y2184961D01*
X1867500Y2184960D02*
X1867850Y2184956D01*
X1868199Y2184943D01*
X1868548Y2184922D01*
X1868896Y2184892D01*
X1869244Y2184854D01*
X1869590Y2184807D01*
X1869935Y2184752D01*
X1870279Y2184689D01*
X1870621Y2184617D01*
X1870962Y2184537D01*
X1871300Y2184449D01*
X1871636Y2184352D01*
X1871969Y2184247D01*
X1872300Y2184135D01*
X1872628Y2184014D01*
X1872953Y2183885D01*
X1873275Y2183749D01*
X1873593Y2183604D01*
X1873908Y2183452D01*
X1874219Y2183293D01*
X1874526Y2183125D01*
X1874829Y2182951D01*
X1875128Y2182769D01*
X1875422Y2182580D01*
X1875711Y2182384D01*
X1875995Y2182180D01*
X1876275Y2181970D01*
X1876549Y2181754D01*
X1876818Y2181530D01*
X1877081Y2181300D01*
X1877339Y2181064D01*
X1877591Y2180822D01*
X1877837Y2180573D01*
X1878077Y2180319D01*
X1878310Y2180059D01*
X1878537Y2179793D01*
X1878758Y2179522D01*
X1878972Y2179245D01*
X1879179Y2178964D01*
X1879379Y2178677D01*
X1879573Y2178386D01*
X1879759Y2178090D01*
X1879938Y2177790D01*
X1880109Y2177485D01*
X1880273Y2177176D01*
X1880429Y2176864D01*
X1880578Y2176547D01*
X1880719Y2176227D01*
X1880853Y2175904D01*
X1880978Y2175578D01*
X1881095Y2175249D01*
X1881683Y2174005D01*
X1882241Y2172748D01*
X1882769Y2171478D01*
X1883267Y2170195D01*
X1883733Y2168901D01*
X1884169Y2167597D01*
X1884574Y2166282D01*
X1884947Y2164958D01*
X1885288Y2163625D01*
X1885597Y2162285D01*
X1885874Y2160938D01*
X1886119Y2159584D01*
X1886332Y2158225D01*
X1886512Y2156862D01*
X1886659Y2155494D01*
X1886774Y2154123D01*
X1886856Y2152750D01*
X1886906Y2151375D01*
X1886922Y2150000D01*
X1848077Y2150000D02*
X1848093Y2148625D01*
X1848143Y2147250D01*
X1848225Y2145877D01*
X1848340Y2144506D01*
X1848487Y2143138D01*
X1848667Y2141775D01*
X1848880Y2140416D01*
X1849125Y2139062D01*
X1849402Y2137715D01*
X1849711Y2136374D01*
X1850052Y2135042D01*
X1850425Y2133718D01*
X1850830Y2132403D01*
X1851265Y2131098D01*
X1851732Y2129804D01*
X1852230Y2128522D01*
X1852757Y2127252D01*
X1853316Y2125994D01*
X1853904Y2124751D01*
X1854021Y2124422D01*
X1854147Y2124096D01*
X1854280Y2123772D01*
X1854421Y2123453D01*
X1854570Y2123136D01*
X1854726Y2122824D01*
X1854890Y2122515D01*
X1855062Y2122210D01*
X1855241Y2121910D01*
X1855427Y2121614D01*
X1855620Y2121323D01*
X1855820Y2121036D01*
X1856028Y2120755D01*
X1856242Y2120478D01*
X1856462Y2120207D01*
X1856689Y2119941D01*
X1856923Y2119681D01*
X1857163Y2119427D01*
X1857409Y2119178D01*
X1857661Y2118936D01*
X1857918Y2118700D01*
X1858182Y2118470D01*
X1858451Y2118246D01*
X1858725Y2118030D01*
X1859004Y2117820D01*
X1859289Y2117616D01*
X1859578Y2117420D01*
X1859872Y2117231D01*
X1860171Y2117049D01*
X1860474Y2116875D01*
X1860781Y2116707D01*
X1861092Y2116548D01*
X1861406Y2116396D01*
X1861725Y2116251D01*
X1862047Y2116115D01*
X1862372Y2115986D01*
X1862700Y2115865D01*
X1863031Y2115753D01*
X1863364Y2115648D01*
X1863700Y2115551D01*
X1864038Y2115463D01*
X1864379Y2115383D01*
X1864721Y2115311D01*
X1865065Y2115248D01*
X1865410Y2115193D01*
X1865756Y2115146D01*
X1866104Y2115108D01*
X1866452Y2115078D01*
X1866801Y2115057D01*
X1867150Y2115044D01*
X1867500Y2115040D01*
X1881095Y2124751D02*
X1881683Y2125994D01*
X1882241Y2127252D01*
X1882769Y2128522D01*
X1883267Y2129804D01*
X1883733Y2131098D01*
X1884169Y2132403D01*
X1884574Y2133718D01*
X1884947Y2135042D01*
X1885288Y2136374D01*
X1885597Y2137715D01*
X1885874Y2139062D01*
X1886119Y2140416D01*
X1886332Y2141775D01*
X1886512Y2143138D01*
X1886659Y2144506D01*
X1886774Y2145877D01*
X1886856Y2147250D01*
X1886906Y2148625D01*
X1886922Y2150000D01*
X1881095Y2124751D02*
X1880978Y2124422D01*
X1880852Y2124095D01*
X1880719Y2123772D01*
X1880578Y2123452D01*
X1880429Y2123136D01*
X1880273Y2122824D01*
X1880109Y2122515D01*
X1879937Y2122210D01*
X1879759Y2121910D01*
X1879572Y2121614D01*
X1879379Y2121323D01*
X1879179Y2121036D01*
X1878972Y2120755D01*
X1878758Y2120478D01*
X1878537Y2120207D01*
X1878310Y2119941D01*
X1878077Y2119681D01*
X1877837Y2119427D01*
X1877591Y2119178D01*
X1877339Y2118936D01*
X1877081Y2118700D01*
X1876818Y2118470D01*
X1876549Y2118246D01*
X1876275Y2118030D01*
X1875995Y2117820D01*
X1875711Y2117616D01*
X1875422Y2117420D01*
X1875128Y2117231D01*
X1874829Y2117049D01*
X1874526Y2116875D01*
X1874219Y2116707D01*
X1873908Y2116548D01*
X1873593Y2116396D01*
X1873275Y2116251D01*
X1872953Y2116115D01*
X1872628Y2115986D01*
X1872300Y2115865D01*
X1871969Y2115753D01*
X1871636Y2115648D01*
X1871300Y2115551D01*
X1870961Y2115463D01*
X1870621Y2115383D01*
X1870279Y2115311D01*
X1869935Y2115248D01*
X1869590Y2115193D01*
X1869244Y2115146D01*
X1868896Y2115108D01*
X1868548Y2115078D01*
X1868199Y2115057D01*
X1867850Y2115044D01*
X1867500Y2115040D01*
X1851962Y2130578D02*
X1883038Y2169422D01*
X1990040Y814761D02*
X2059960Y814761D01*
X2028885Y838067D02*
X1990040Y814761D01*
X2028885Y838067D02*
X1990040Y861374D01*
X2059960Y861374D01*
X2059960Y898817D02*
X1990040Y898817D01*
X2059960Y891048D02*
X2059960Y906586D01*
X1990040Y906586D02*
X1990040Y891048D01*
X2059961Y954452D02*
X2059956Y954827D01*
X2059943Y955203D01*
X2059920Y955577D01*
X2059888Y955952D01*
X2059848Y956325D01*
X2059798Y956697D01*
X2059739Y957068D01*
X2059672Y957437D01*
X2059595Y957805D01*
X2059509Y958170D01*
X2059415Y958534D01*
X2059312Y958895D01*
X2059201Y959254D01*
X2059080Y959609D01*
X2058951Y959962D01*
X2058814Y960311D01*
X2058668Y960657D01*
X2058514Y961000D01*
X2058352Y961338D01*
X2058181Y961673D01*
X2058003Y962003D01*
X2057816Y962329D01*
X2057622Y962650D01*
X2057420Y962967D01*
X2057211Y963279D01*
X2056994Y963585D01*
X2056769Y963886D01*
X2056538Y964182D01*
X2056299Y964472D01*
X2056053Y964756D01*
X2055801Y965034D01*
X2055542Y965305D01*
X2055276Y965571D01*
X2055005Y965830D01*
X2054727Y966082D01*
X2054443Y966328D01*
X2054153Y966567D01*
X2053857Y966798D01*
X2053556Y967023D01*
X2053250Y967240D01*
X2052938Y967449D01*
X2052621Y967651D01*
X2052300Y967845D01*
X2051974Y968032D01*
X2051644Y968210D01*
X2051309Y968381D01*
X2050971Y968543D01*
X2050628Y968697D01*
X2050282Y968843D01*
X2049933Y968980D01*
X2049580Y969109D01*
X2049225Y969230D01*
X2048866Y969341D01*
X2048505Y969444D01*
X2048141Y969538D01*
X2047776Y969624D01*
X2047408Y969701D01*
X2047039Y969768D01*
X2046668Y969827D01*
X2046296Y969877D01*
X2045923Y969917D01*
X2045548Y969949D01*
X2045174Y969972D01*
X2044798Y969985D01*
X2044423Y969990D01*
X2059960Y954452D02*
X2059951Y953667D01*
X2059922Y952882D01*
X2059875Y952098D01*
X2059810Y951315D01*
X2059725Y950535D01*
X2059622Y949756D01*
X2059501Y948980D01*
X2059361Y948208D01*
X2059202Y947438D01*
X2059025Y946673D01*
X2058830Y945913D01*
X2058616Y945157D01*
X2058385Y944406D01*
X2058136Y943662D01*
X2057869Y942923D01*
X2057584Y942191D01*
X2057282Y941466D01*
X2056963Y940749D01*
X2056626Y940039D01*
X2056273Y939338D01*
X2055903Y938645D01*
X2055517Y937961D01*
X2055114Y937287D01*
X2054695Y936623D01*
X2054261Y935968D01*
X2053811Y935325D01*
X2053346Y934692D01*
X2052866Y934071D01*
X2052371Y933461D01*
X2051861Y932863D01*
X2051338Y932278D01*
X2050800Y931705D01*
X2050249Y931146D01*
X2005578Y933087D02*
X2005203Y933092D01*
X2004827Y933105D01*
X2004453Y933128D01*
X2004078Y933160D01*
X2003705Y933200D01*
X2003333Y933250D01*
X2002962Y933309D01*
X2002593Y933376D01*
X2002225Y933453D01*
X2001860Y933539D01*
X2001496Y933633D01*
X2001135Y933736D01*
X2000776Y933847D01*
X2000421Y933968D01*
X2000068Y934097D01*
X1999719Y934234D01*
X1999373Y934380D01*
X1999030Y934534D01*
X1998692Y934696D01*
X1998357Y934867D01*
X1998027Y935045D01*
X1997701Y935232D01*
X1997380Y935426D01*
X1997063Y935628D01*
X1996751Y935837D01*
X1996445Y936054D01*
X1996144Y936279D01*
X1995848Y936510D01*
X1995558Y936749D01*
X1995274Y936995D01*
X1994996Y937247D01*
X1994725Y937506D01*
X1994459Y937772D01*
X1994200Y938043D01*
X1993948Y938321D01*
X1993702Y938605D01*
X1993463Y938895D01*
X1993232Y939191D01*
X1993007Y939492D01*
X1992790Y939798D01*
X1992581Y940110D01*
X1992379Y940427D01*
X1992185Y940748D01*
X1991998Y941074D01*
X1991820Y941404D01*
X1991649Y941739D01*
X1991487Y942077D01*
X1991333Y942420D01*
X1991187Y942766D01*
X1991050Y943115D01*
X1990921Y943468D01*
X1990800Y943823D01*
X1990689Y944182D01*
X1990586Y944543D01*
X1990492Y944907D01*
X1990406Y945272D01*
X1990329Y945640D01*
X1990262Y946009D01*
X1990203Y946380D01*
X1990153Y946752D01*
X1990113Y947125D01*
X1990081Y947500D01*
X1990058Y947874D01*
X1990045Y948250D01*
X1990040Y948625D01*
X1990048Y949319D01*
X1990073Y950013D01*
X1990114Y950706D01*
X1990172Y951398D01*
X1990247Y952089D01*
X1990337Y952777D01*
X1990445Y953463D01*
X1990568Y954146D01*
X1990708Y954826D01*
X1990864Y955503D01*
X1991036Y956176D01*
X1991223Y956844D01*
X1991427Y957508D01*
X1991647Y958167D01*
X1991882Y958820D01*
X1992133Y959467D01*
X1992399Y960109D01*
X1992680Y960744D01*
X1992976Y961372D01*
X1993288Y961992D01*
X1993614Y962605D01*
X1993954Y963210D01*
X1994309Y963807D01*
X1994678Y964396D01*
X1995061Y964975D01*
X1995457Y965545D01*
X1995867Y966105D01*
X2019174Y940856D02*
X2018976Y940530D01*
X2018771Y940209D01*
X2018558Y939893D01*
X2018338Y939582D01*
X2018110Y939277D01*
X2017875Y938977D01*
X2017632Y938683D01*
X2017383Y938395D01*
X2017126Y938113D01*
X2016863Y937837D01*
X2016594Y937568D01*
X2016318Y937305D01*
X2016036Y937049D01*
X2015747Y936800D01*
X2015453Y936558D01*
X2015153Y936324D01*
X2014847Y936096D01*
X2014536Y935876D01*
X2014220Y935663D01*
X2013898Y935459D01*
X2013572Y935262D01*
X2013241Y935073D01*
X2012906Y934892D01*
X2012567Y934719D01*
X2012223Y934554D01*
X2011875Y934398D01*
X2011524Y934250D01*
X2011170Y934111D01*
X2010812Y933980D01*
X2010451Y933858D01*
X2010087Y933745D01*
X2009720Y933640D01*
X2009352Y933545D01*
X2008980Y933458D01*
X2008607Y933381D01*
X2008233Y933312D01*
X2007856Y933252D01*
X2007479Y933202D01*
X2007100Y933161D01*
X2006720Y933128D01*
X2006340Y933105D01*
X2005959Y933092D01*
X2005578Y933087D01*
X2030827Y962221D02*
X2031024Y962547D01*
X2031230Y962868D01*
X2031443Y963184D01*
X2031663Y963495D01*
X2031891Y963800D01*
X2032126Y964100D01*
X2032369Y964394D01*
X2032618Y964682D01*
X2032874Y964964D01*
X2033137Y965240D01*
X2033407Y965509D01*
X2033683Y965771D01*
X2033965Y966027D01*
X2034254Y966276D01*
X2034548Y966518D01*
X2034848Y966753D01*
X2035154Y966981D01*
X2035465Y967201D01*
X2035781Y967413D01*
X2036102Y967618D01*
X2036429Y967815D01*
X2036759Y968004D01*
X2037095Y968185D01*
X2037434Y968358D01*
X2037778Y968523D01*
X2038125Y968679D01*
X2038477Y968827D01*
X2038831Y968966D01*
X2039189Y969097D01*
X2039550Y969219D01*
X2039914Y969332D01*
X2040280Y969437D01*
X2040649Y969532D01*
X2041020Y969619D01*
X2041393Y969696D01*
X2041768Y969765D01*
X2042145Y969825D01*
X2042522Y969875D01*
X2042901Y969916D01*
X2043281Y969949D01*
X2043661Y969972D01*
X2044042Y969985D01*
X2044423Y969990D01*
X2030827Y962220D02*
X2019173Y940856D01*
X2009463Y996395D02*
X2040538Y996395D01*
X2009463Y996395D02*
X2008990Y996401D01*
X2008517Y996418D01*
X2008045Y996447D01*
X2007574Y996487D01*
X2007104Y996539D01*
X2006635Y996602D01*
X2006168Y996677D01*
X2005703Y996762D01*
X2005240Y996860D01*
X2004780Y996968D01*
X2004322Y997088D01*
X2003868Y997218D01*
X2003416Y997360D01*
X2002969Y997513D01*
X2002525Y997677D01*
X2002085Y997851D01*
X2001650Y998036D01*
X2001219Y998231D01*
X2000793Y998437D01*
X2000373Y998654D01*
X1999958Y998880D01*
X1999548Y999117D01*
X1999144Y999363D01*
X1998747Y999619D01*
X1998355Y999885D01*
X1997971Y1000160D01*
X1997593Y1000445D01*
X1997222Y1000738D01*
X1996858Y1001041D01*
X1996502Y1001352D01*
X1996154Y1001672D01*
X1995813Y1002000D01*
X1995481Y1002337D01*
X1995157Y1002681D01*
X1994841Y1003033D01*
X1994534Y1003393D01*
X1994236Y1003760D01*
X1993947Y1004135D01*
X1993667Y1004516D01*
X1993397Y1004904D01*
X1993136Y1005299D01*
X1992885Y1005699D01*
X1992643Y1006106D01*
X1992412Y1006518D01*
X1992190Y1006936D01*
X1991979Y1007360D01*
X1991778Y1007788D01*
X1991588Y1008221D01*
X1991408Y1008658D01*
X1991239Y1009100D01*
X1991081Y1009546D01*
X1990934Y1009995D01*
X1990798Y1010448D01*
X1990673Y1010905D01*
X1990558Y1011364D01*
X1990456Y1011825D01*
X1990364Y1012289D01*
X1990284Y1012755D01*
X1990215Y1013223D01*
X1990158Y1013693D01*
X1990112Y1014164D01*
X1990077Y1014635D01*
X1990054Y1015108D01*
X1990042Y1015581D01*
X1990042Y1016053D01*
X1990054Y1016526D01*
X1990077Y1016999D01*
X1990112Y1017470D01*
X1990158Y1017941D01*
X1990215Y1018411D01*
X1990284Y1018879D01*
X1990364Y1019345D01*
X1990456Y1019809D01*
X1990558Y1020270D01*
X1990673Y1020729D01*
X1990798Y1021186D01*
X1990934Y1021639D01*
X1991081Y1022088D01*
X1991239Y1022534D01*
X1991408Y1022976D01*
X1991588Y1023413D01*
X1991778Y1023846D01*
X1991979Y1024274D01*
X1992190Y1024698D01*
X1992412Y1025116D01*
X1992643Y1025528D01*
X1992885Y1025935D01*
X1993136Y1026335D01*
X1993397Y1026730D01*
X1993667Y1027118D01*
X1993947Y1027499D01*
X1994236Y1027874D01*
X1994534Y1028241D01*
X1994841Y1028601D01*
X1995157Y1028953D01*
X1995481Y1029297D01*
X1995813Y1029634D01*
X1996154Y1029962D01*
X1996502Y1030282D01*
X1996858Y1030593D01*
X1997222Y1030896D01*
X1997593Y1031189D01*
X1997971Y1031474D01*
X1998355Y1031749D01*
X1998747Y1032015D01*
X1999144Y1032271D01*
X1999548Y1032517D01*
X1999958Y1032754D01*
X2000373Y1032980D01*
X2000793Y1033197D01*
X2001219Y1033403D01*
X2001650Y1033598D01*
X2002085Y1033783D01*
X2002525Y1033957D01*
X2002969Y1034121D01*
X2003416Y1034274D01*
X2003868Y1034416D01*
X2004322Y1034546D01*
X2004780Y1034666D01*
X2005240Y1034774D01*
X2005703Y1034872D01*
X2006168Y1034957D01*
X2006635Y1035032D01*
X2007104Y1035095D01*
X2007574Y1035147D01*
X2008045Y1035187D01*
X2008517Y1035216D01*
X2008990Y1035233D01*
X2009463Y1035239D01*
X2040538Y1035239D01*
X2041011Y1035233D01*
X2041484Y1035216D01*
X2041956Y1035187D01*
X2042427Y1035147D01*
X2042897Y1035095D01*
X2043366Y1035032D01*
X2043833Y1034957D01*
X2044298Y1034872D01*
X2044761Y1034774D01*
X2045221Y1034666D01*
X2045679Y1034546D01*
X2046133Y1034416D01*
X2046585Y1034274D01*
X2047032Y1034121D01*
X2047476Y1033957D01*
X2047916Y1033783D01*
X2048351Y1033598D01*
X2048782Y1033403D01*
X2049208Y1033197D01*
X2049628Y1032980D01*
X2050043Y1032754D01*
X2050453Y1032517D01*
X2050857Y1032271D01*
X2051254Y1032015D01*
X2051646Y1031749D01*
X2052030Y1031474D01*
X2052408Y1031189D01*
X2052779Y1030896D01*
X2053143Y1030593D01*
X2053499Y1030282D01*
X2053847Y1029962D01*
X2054188Y1029634D01*
X2054520Y1029297D01*
X2054844Y1028953D01*
X2055160Y1028601D01*
X2055467Y1028241D01*
X2055765Y1027874D01*
X2056054Y1027499D01*
X2056334Y1027118D01*
X2056604Y1026730D01*
X2056865Y1026335D01*
X2057116Y1025935D01*
X2057358Y1025528D01*
X2057589Y1025116D01*
X2057811Y1024698D01*
X2058022Y1024274D01*
X2058223Y1023846D01*
X2058413Y1023413D01*
X2058593Y1022976D01*
X2058762Y1022534D01*
X2058920Y1022088D01*
X2059067Y1021639D01*
X2059203Y1021186D01*
X2059328Y1020729D01*
X2059443Y1020270D01*
X2059545Y1019809D01*
X2059637Y1019345D01*
X2059717Y1018879D01*
X2059786Y1018411D01*
X2059843Y1017941D01*
X2059889Y1017470D01*
X2059924Y1016999D01*
X2059947Y1016526D01*
X2059959Y1016053D01*
X2059959Y1015581D01*
X2059947Y1015108D01*
X2059924Y1014635D01*
X2059889Y1014164D01*
X2059843Y1013693D01*
X2059786Y1013223D01*
X2059717Y1012755D01*
X2059637Y1012289D01*
X2059545Y1011825D01*
X2059443Y1011364D01*
X2059328Y1010905D01*
X2059203Y1010448D01*
X2059067Y1009995D01*
X2058920Y1009546D01*
X2058762Y1009100D01*
X2058593Y1008658D01*
X2058413Y1008221D01*
X2058223Y1007788D01*
X2058022Y1007360D01*
X2057811Y1006936D01*
X2057589Y1006518D01*
X2057358Y1006106D01*
X2057116Y1005699D01*
X2056865Y1005299D01*
X2056604Y1004904D01*
X2056334Y1004516D01*
X2056054Y1004135D01*
X2055765Y1003760D01*
X2055467Y1003393D01*
X2055160Y1003033D01*
X2054844Y1002681D01*
X2054520Y1002337D01*
X2054188Y1002000D01*
X2053847Y1001672D01*
X2053499Y1001352D01*
X2053143Y1001041D01*
X2052779Y1000738D01*
X2052408Y1000445D01*
X2052030Y1000160D01*
X2051646Y999885D01*
X2051254Y999619D01*
X2050857Y999363D01*
X2050453Y999117D01*
X2050043Y998880D01*
X2049628Y998654D01*
X2049208Y998437D01*
X2048782Y998231D01*
X2048351Y998036D01*
X2047916Y997851D01*
X2047476Y997677D01*
X2047032Y997513D01*
X2046585Y997360D01*
X2046133Y997218D01*
X2045679Y997088D01*
X2045221Y996968D01*
X2044761Y996860D01*
X2044298Y996762D01*
X2043833Y996677D01*
X2043366Y996602D01*
X2042897Y996539D01*
X2042427Y996487D01*
X2041956Y996447D01*
X2041484Y996418D01*
X2041011Y996401D01*
X2040538Y996395D01*
X2059960Y1063838D02*
X1990040Y1063838D01*
X2028885Y1087144D01*
X1990040Y1110451D01*
X2059960Y1110451D01*
X2040538Y1141972D02*
X2009463Y1141972D01*
X2008990Y1141978D01*
X2008517Y1141995D01*
X2008045Y1142024D01*
X2007574Y1142064D01*
X2007104Y1142116D01*
X2006635Y1142179D01*
X2006168Y1142254D01*
X2005703Y1142339D01*
X2005240Y1142437D01*
X2004780Y1142545D01*
X2004322Y1142665D01*
X2003868Y1142795D01*
X2003416Y1142937D01*
X2002969Y1143090D01*
X2002525Y1143254D01*
X2002085Y1143428D01*
X2001650Y1143613D01*
X2001219Y1143808D01*
X2000793Y1144014D01*
X2000373Y1144231D01*
X1999958Y1144457D01*
X1999548Y1144694D01*
X1999144Y1144940D01*
X1998747Y1145196D01*
X1998355Y1145462D01*
X1997971Y1145737D01*
X1997593Y1146022D01*
X1997222Y1146315D01*
X1996858Y1146618D01*
X1996502Y1146929D01*
X1996154Y1147249D01*
X1995813Y1147577D01*
X1995481Y1147914D01*
X1995157Y1148258D01*
X1994841Y1148610D01*
X1994534Y1148970D01*
X1994236Y1149337D01*
X1993947Y1149712D01*
X1993667Y1150093D01*
X1993397Y1150481D01*
X1993136Y1150876D01*
X1992885Y1151276D01*
X1992643Y1151683D01*
X1992412Y1152095D01*
X1992190Y1152513D01*
X1991979Y1152937D01*
X1991778Y1153365D01*
X1991588Y1153798D01*
X1991408Y1154235D01*
X1991239Y1154677D01*
X1991081Y1155123D01*
X1990934Y1155572D01*
X1990798Y1156025D01*
X1990673Y1156482D01*
X1990558Y1156941D01*
X1990456Y1157402D01*
X1990364Y1157866D01*
X1990284Y1158332D01*
X1990215Y1158800D01*
X1990158Y1159270D01*
X1990112Y1159741D01*
X1990077Y1160212D01*
X1990054Y1160685D01*
X1990042Y1161158D01*
X1990042Y1161630D01*
X1990054Y1162103D01*
X1990077Y1162576D01*
X1990112Y1163047D01*
X1990158Y1163518D01*
X1990215Y1163988D01*
X1990284Y1164456D01*
X1990364Y1164922D01*
X1990456Y1165386D01*
X1990558Y1165847D01*
X1990673Y1166306D01*
X1990798Y1166763D01*
X1990934Y1167216D01*
X1991081Y1167665D01*
X1991239Y1168111D01*
X1991408Y1168553D01*
X1991588Y1168990D01*
X1991778Y1169423D01*
X1991979Y1169851D01*
X1992190Y1170275D01*
X1992412Y1170693D01*
X1992643Y1171105D01*
X1992885Y1171512D01*
X1993136Y1171912D01*
X1993397Y1172307D01*
X1993667Y1172695D01*
X1993947Y1173076D01*
X1994236Y1173451D01*
X1994534Y1173818D01*
X1994841Y1174178D01*
X1995157Y1174530D01*
X1995481Y1174874D01*
X1995813Y1175211D01*
X1996154Y1175539D01*
X1996502Y1175859D01*
X1996858Y1176170D01*
X1997222Y1176473D01*
X1997593Y1176766D01*
X1997971Y1177051D01*
X1998355Y1177326D01*
X1998747Y1177592D01*
X1999144Y1177848D01*
X1999548Y1178094D01*
X1999958Y1178331D01*
X2000373Y1178557D01*
X2000793Y1178774D01*
X2001219Y1178980D01*
X2001650Y1179175D01*
X2002085Y1179360D01*
X2002525Y1179534D01*
X2002969Y1179698D01*
X2003416Y1179851D01*
X2003868Y1179993D01*
X2004322Y1180123D01*
X2004780Y1180243D01*
X2005240Y1180351D01*
X2005703Y1180449D01*
X2006168Y1180534D01*
X2006635Y1180609D01*
X2007104Y1180672D01*
X2007574Y1180724D01*
X2008045Y1180764D01*
X2008517Y1180793D01*
X2008990Y1180810D01*
X2009463Y1180816D01*
X2040538Y1180816D01*
X2041011Y1180810D01*
X2041484Y1180793D01*
X2041956Y1180764D01*
X2042427Y1180724D01*
X2042897Y1180672D01*
X2043366Y1180609D01*
X2043833Y1180534D01*
X2044298Y1180449D01*
X2044761Y1180351D01*
X2045221Y1180243D01*
X2045679Y1180123D01*
X2046133Y1179993D01*
X2046585Y1179851D01*
X2047032Y1179698D01*
X2047476Y1179534D01*
X2047916Y1179360D01*
X2048351Y1179175D01*
X2048782Y1178980D01*
X2049208Y1178774D01*
X2049628Y1178557D01*
X2050043Y1178331D01*
X2050453Y1178094D01*
X2050857Y1177848D01*
X2051254Y1177592D01*
X2051646Y1177326D01*
X2052030Y1177051D01*
X2052408Y1176766D01*
X2052779Y1176473D01*
X2053143Y1176170D01*
X2053499Y1175859D01*
X2053847Y1175539D01*
X2054188Y1175211D01*
X2054520Y1174874D01*
X2054844Y1174530D01*
X2055160Y1174178D01*
X2055467Y1173818D01*
X2055765Y1173451D01*
X2056054Y1173076D01*
X2056334Y1172695D01*
X2056604Y1172307D01*
X2056865Y1171912D01*
X2057116Y1171512D01*
X2057358Y1171105D01*
X2057589Y1170693D01*
X2057811Y1170275D01*
X2058022Y1169851D01*
X2058223Y1169423D01*
X2058413Y1168990D01*
X2058593Y1168553D01*
X2058762Y1168111D01*
X2058920Y1167665D01*
X2059067Y1167216D01*
X2059203Y1166763D01*
X2059328Y1166306D01*
X2059443Y1165847D01*
X2059545Y1165386D01*
X2059637Y1164922D01*
X2059717Y1164456D01*
X2059786Y1163988D01*
X2059843Y1163518D01*
X2059889Y1163047D01*
X2059924Y1162576D01*
X2059947Y1162103D01*
X2059959Y1161630D01*
X2059959Y1161158D01*
X2059947Y1160685D01*
X2059924Y1160212D01*
X2059889Y1159741D01*
X2059843Y1159270D01*
X2059786Y1158800D01*
X2059717Y1158332D01*
X2059637Y1157866D01*
X2059545Y1157402D01*
X2059443Y1156941D01*
X2059328Y1156482D01*
X2059203Y1156025D01*
X2059067Y1155572D01*
X2058920Y1155123D01*
X2058762Y1154677D01*
X2058593Y1154235D01*
X2058413Y1153798D01*
X2058223Y1153365D01*
X2058022Y1152937D01*
X2057811Y1152513D01*
X2057589Y1152095D01*
X2057358Y1151683D01*
X2057116Y1151276D01*
X2056865Y1150876D01*
X2056604Y1150481D01*
X2056334Y1150093D01*
X2056054Y1149712D01*
X2055765Y1149337D01*
X2055467Y1148970D01*
X2055160Y1148610D01*
X2054844Y1148258D01*
X2054520Y1147914D01*
X2054188Y1147577D01*
X2053847Y1147249D01*
X2053499Y1146929D01*
X2053143Y1146618D01*
X2052779Y1146315D01*
X2052408Y1146022D01*
X2052030Y1145737D01*
X2051646Y1145462D01*
X2051254Y1145196D01*
X2050857Y1144940D01*
X2050453Y1144694D01*
X2050043Y1144457D01*
X2049628Y1144231D01*
X2049208Y1144014D01*
X2048782Y1143808D01*
X2048351Y1143613D01*
X2047916Y1143428D01*
X2047476Y1143254D01*
X2047032Y1143090D01*
X2046585Y1142937D01*
X2046133Y1142795D01*
X2045679Y1142665D01*
X2045221Y1142545D01*
X2044761Y1142437D01*
X2044298Y1142339D01*
X2043833Y1142254D01*
X2043366Y1142179D01*
X2042897Y1142116D01*
X2042427Y1142064D01*
X2041956Y1142024D01*
X2041484Y1141995D01*
X2041011Y1141978D01*
X2040538Y1141972D01*
X2059961Y1230528D02*
X2059956Y1230903D01*
X2059943Y1231279D01*
X2059920Y1231653D01*
X2059888Y1232028D01*
X2059848Y1232401D01*
X2059798Y1232773D01*
X2059739Y1233144D01*
X2059672Y1233513D01*
X2059595Y1233881D01*
X2059509Y1234246D01*
X2059415Y1234610D01*
X2059312Y1234971D01*
X2059201Y1235330D01*
X2059080Y1235685D01*
X2058951Y1236038D01*
X2058814Y1236387D01*
X2058668Y1236733D01*
X2058514Y1237076D01*
X2058352Y1237414D01*
X2058181Y1237749D01*
X2058003Y1238079D01*
X2057816Y1238405D01*
X2057622Y1238726D01*
X2057420Y1239043D01*
X2057211Y1239355D01*
X2056994Y1239661D01*
X2056769Y1239962D01*
X2056538Y1240258D01*
X2056299Y1240548D01*
X2056053Y1240832D01*
X2055801Y1241110D01*
X2055542Y1241381D01*
X2055276Y1241647D01*
X2055005Y1241906D01*
X2054727Y1242158D01*
X2054443Y1242404D01*
X2054153Y1242643D01*
X2053857Y1242874D01*
X2053556Y1243099D01*
X2053250Y1243316D01*
X2052938Y1243525D01*
X2052621Y1243727D01*
X2052300Y1243921D01*
X2051974Y1244108D01*
X2051644Y1244286D01*
X2051309Y1244457D01*
X2050971Y1244619D01*
X2050628Y1244773D01*
X2050282Y1244919D01*
X2049933Y1245056D01*
X2049580Y1245185D01*
X2049225Y1245306D01*
X2048866Y1245417D01*
X2048505Y1245520D01*
X2048141Y1245614D01*
X2047776Y1245700D01*
X2047408Y1245777D01*
X2047039Y1245844D01*
X2046668Y1245903D01*
X2046296Y1245953D01*
X2045923Y1245993D01*
X2045548Y1246025D01*
X2045174Y1246048D01*
X2044798Y1246061D01*
X2044423Y1246066D01*
X2059960Y1230528D02*
X2059951Y1229743D01*
X2059922Y1228958D01*
X2059875Y1228174D01*
X2059810Y1227391D01*
X2059725Y1226611D01*
X2059622Y1225832D01*
X2059501Y1225056D01*
X2059361Y1224284D01*
X2059202Y1223514D01*
X2059025Y1222749D01*
X2058830Y1221989D01*
X2058616Y1221233D01*
X2058385Y1220482D01*
X2058136Y1219738D01*
X2057869Y1218999D01*
X2057584Y1218267D01*
X2057282Y1217542D01*
X2056963Y1216825D01*
X2056626Y1216115D01*
X2056273Y1215414D01*
X2055903Y1214721D01*
X2055517Y1214037D01*
X2055114Y1213363D01*
X2054695Y1212699D01*
X2054261Y1212044D01*
X2053811Y1211401D01*
X2053346Y1210768D01*
X2052866Y1210147D01*
X2052371Y1209537D01*
X2051861Y1208939D01*
X2051338Y1208354D01*
X2050800Y1207781D01*
X2050249Y1207222D01*
X2005578Y1209164D02*
X2005203Y1209169D01*
X2004827Y1209182D01*
X2004453Y1209205D01*
X2004078Y1209237D01*
X2003705Y1209277D01*
X2003333Y1209327D01*
X2002962Y1209386D01*
X2002593Y1209453D01*
X2002225Y1209530D01*
X2001860Y1209616D01*
X2001496Y1209710D01*
X2001135Y1209813D01*
X2000776Y1209924D01*
X2000421Y1210045D01*
X2000068Y1210174D01*
X1999719Y1210311D01*
X1999373Y1210457D01*
X1999030Y1210611D01*
X1998692Y1210773D01*
X1998357Y1210944D01*
X1998027Y1211122D01*
X1997701Y1211309D01*
X1997380Y1211503D01*
X1997063Y1211705D01*
X1996751Y1211914D01*
X1996445Y1212131D01*
X1996144Y1212356D01*
X1995848Y1212587D01*
X1995558Y1212826D01*
X1995274Y1213072D01*
X1994996Y1213324D01*
X1994725Y1213583D01*
X1994459Y1213849D01*
X1994200Y1214120D01*
X1993948Y1214398D01*
X1993702Y1214682D01*
X1993463Y1214972D01*
X1993232Y1215268D01*
X1993007Y1215569D01*
X1992790Y1215875D01*
X1992581Y1216187D01*
X1992379Y1216504D01*
X1992185Y1216825D01*
X1991998Y1217151D01*
X1991820Y1217481D01*
X1991649Y1217816D01*
X1991487Y1218154D01*
X1991333Y1218497D01*
X1991187Y1218843D01*
X1991050Y1219192D01*
X1990921Y1219545D01*
X1990800Y1219900D01*
X1990689Y1220259D01*
X1990586Y1220620D01*
X1990492Y1220984D01*
X1990406Y1221349D01*
X1990329Y1221717D01*
X1990262Y1222086D01*
X1990203Y1222457D01*
X1990153Y1222829D01*
X1990113Y1223202D01*
X1990081Y1223577D01*
X1990058Y1223951D01*
X1990045Y1224327D01*
X1990040Y1224702D01*
X1990048Y1225396D01*
X1990073Y1226090D01*
X1990114Y1226783D01*
X1990172Y1227475D01*
X1990247Y1228166D01*
X1990337Y1228854D01*
X1990445Y1229540D01*
X1990568Y1230223D01*
X1990708Y1230903D01*
X1990864Y1231580D01*
X1991036Y1232253D01*
X1991223Y1232921D01*
X1991427Y1233585D01*
X1991647Y1234244D01*
X1991882Y1234897D01*
X1992133Y1235544D01*
X1992399Y1236186D01*
X1992680Y1236821D01*
X1992976Y1237449D01*
X1993288Y1238069D01*
X1993614Y1238682D01*
X1993954Y1239287D01*
X1994309Y1239884D01*
X1994678Y1240473D01*
X1995061Y1241052D01*
X1995457Y1241622D01*
X1995867Y1242182D01*
X2019174Y1216933D02*
X2018976Y1216607D01*
X2018771Y1216286D01*
X2018558Y1215970D01*
X2018338Y1215659D01*
X2018110Y1215354D01*
X2017875Y1215054D01*
X2017632Y1214760D01*
X2017383Y1214472D01*
X2017126Y1214190D01*
X2016863Y1213914D01*
X2016594Y1213645D01*
X2016318Y1213382D01*
X2016036Y1213126D01*
X2015747Y1212877D01*
X2015453Y1212635D01*
X2015153Y1212401D01*
X2014847Y1212173D01*
X2014536Y1211953D01*
X2014220Y1211740D01*
X2013898Y1211536D01*
X2013572Y1211339D01*
X2013241Y1211150D01*
X2012906Y1210969D01*
X2012567Y1210796D01*
X2012223Y1210631D01*
X2011875Y1210475D01*
X2011524Y1210327D01*
X2011170Y1210188D01*
X2010812Y1210057D01*
X2010451Y1209935D01*
X2010087Y1209822D01*
X2009720Y1209717D01*
X2009352Y1209622D01*
X2008980Y1209535D01*
X2008607Y1209458D01*
X2008233Y1209389D01*
X2007856Y1209329D01*
X2007479Y1209279D01*
X2007100Y1209238D01*
X2006720Y1209205D01*
X2006340Y1209182D01*
X2005959Y1209169D01*
X2005578Y1209164D01*
X2030827Y1238298D02*
X2031024Y1238624D01*
X2031230Y1238945D01*
X2031443Y1239261D01*
X2031663Y1239572D01*
X2031891Y1239877D01*
X2032126Y1240177D01*
X2032369Y1240471D01*
X2032618Y1240759D01*
X2032874Y1241041D01*
X2033137Y1241317D01*
X2033407Y1241586D01*
X2033683Y1241848D01*
X2033965Y1242104D01*
X2034254Y1242353D01*
X2034548Y1242595D01*
X2034848Y1242830D01*
X2035154Y1243058D01*
X2035465Y1243278D01*
X2035781Y1243490D01*
X2036102Y1243695D01*
X2036429Y1243892D01*
X2036759Y1244081D01*
X2037095Y1244262D01*
X2037434Y1244435D01*
X2037778Y1244600D01*
X2038125Y1244756D01*
X2038477Y1244904D01*
X2038831Y1245043D01*
X2039189Y1245174D01*
X2039550Y1245296D01*
X2039914Y1245409D01*
X2040280Y1245514D01*
X2040649Y1245609D01*
X2041020Y1245696D01*
X2041393Y1245773D01*
X2041768Y1245842D01*
X2042145Y1245902D01*
X2042522Y1245952D01*
X2042901Y1245993D01*
X2043281Y1246026D01*
X2043661Y1246049D01*
X2044042Y1246062D01*
X2044423Y1246067D01*
X2030827Y1238297D02*
X2019173Y1216933D01*
X1990040Y1278394D02*
X2059960Y1278394D01*
X2059960Y1270625D02*
X2059960Y1286163D01*
X1990040Y1286163D02*
X1990040Y1270625D01*
X2059961Y1366548D02*
X2059956Y1366923D01*
X2059943Y1367299D01*
X2059920Y1367673D01*
X2059888Y1368048D01*
X2059848Y1368421D01*
X2059798Y1368793D01*
X2059739Y1369164D01*
X2059672Y1369533D01*
X2059595Y1369901D01*
X2059509Y1370266D01*
X2059415Y1370630D01*
X2059312Y1370991D01*
X2059201Y1371350D01*
X2059080Y1371705D01*
X2058951Y1372058D01*
X2058814Y1372407D01*
X2058668Y1372753D01*
X2058514Y1373096D01*
X2058352Y1373434D01*
X2058181Y1373769D01*
X2058003Y1374099D01*
X2057816Y1374425D01*
X2057622Y1374746D01*
X2057420Y1375063D01*
X2057211Y1375375D01*
X2056994Y1375681D01*
X2056769Y1375982D01*
X2056538Y1376278D01*
X2056299Y1376568D01*
X2056053Y1376852D01*
X2055801Y1377130D01*
X2055542Y1377401D01*
X2055276Y1377667D01*
X2055005Y1377926D01*
X2054727Y1378178D01*
X2054443Y1378424D01*
X2054153Y1378663D01*
X2053857Y1378894D01*
X2053556Y1379119D01*
X2053250Y1379336D01*
X2052938Y1379545D01*
X2052621Y1379747D01*
X2052300Y1379941D01*
X2051974Y1380128D01*
X2051644Y1380306D01*
X2051309Y1380477D01*
X2050971Y1380639D01*
X2050628Y1380793D01*
X2050282Y1380939D01*
X2049933Y1381076D01*
X2049580Y1381205D01*
X2049225Y1381326D01*
X2048866Y1381437D01*
X2048505Y1381540D01*
X2048141Y1381634D01*
X2047776Y1381720D01*
X2047408Y1381797D01*
X2047039Y1381864D01*
X2046668Y1381923D01*
X2046296Y1381973D01*
X2045923Y1382013D01*
X2045548Y1382045D01*
X2045174Y1382068D01*
X2044798Y1382081D01*
X2044423Y1382086D01*
X2059960Y1366548D02*
X2059951Y1365763D01*
X2059922Y1364978D01*
X2059875Y1364194D01*
X2059810Y1363411D01*
X2059725Y1362631D01*
X2059622Y1361852D01*
X2059501Y1361076D01*
X2059361Y1360304D01*
X2059202Y1359534D01*
X2059025Y1358769D01*
X2058830Y1358009D01*
X2058616Y1357253D01*
X2058385Y1356502D01*
X2058136Y1355758D01*
X2057869Y1355019D01*
X2057584Y1354287D01*
X2057282Y1353562D01*
X2056963Y1352845D01*
X2056626Y1352135D01*
X2056273Y1351434D01*
X2055903Y1350741D01*
X2055517Y1350057D01*
X2055114Y1349383D01*
X2054695Y1348719D01*
X2054261Y1348064D01*
X2053811Y1347421D01*
X2053346Y1346788D01*
X2052866Y1346167D01*
X2052371Y1345557D01*
X2051861Y1344959D01*
X2051338Y1344374D01*
X2050800Y1343801D01*
X2050249Y1343242D01*
X2005578Y1345183D02*
X2005203Y1345188D01*
X2004827Y1345201D01*
X2004453Y1345224D01*
X2004078Y1345256D01*
X2003705Y1345296D01*
X2003333Y1345346D01*
X2002962Y1345405D01*
X2002593Y1345472D01*
X2002225Y1345549D01*
X2001860Y1345635D01*
X2001496Y1345729D01*
X2001135Y1345832D01*
X2000776Y1345943D01*
X2000421Y1346064D01*
X2000068Y1346193D01*
X1999719Y1346330D01*
X1999373Y1346476D01*
X1999030Y1346630D01*
X1998692Y1346792D01*
X1998357Y1346963D01*
X1998027Y1347141D01*
X1997701Y1347328D01*
X1997380Y1347522D01*
X1997063Y1347724D01*
X1996751Y1347933D01*
X1996445Y1348150D01*
X1996144Y1348375D01*
X1995848Y1348606D01*
X1995558Y1348845D01*
X1995274Y1349091D01*
X1994996Y1349343D01*
X1994725Y1349602D01*
X1994459Y1349868D01*
X1994200Y1350139D01*
X1993948Y1350417D01*
X1993702Y1350701D01*
X1993463Y1350991D01*
X1993232Y1351287D01*
X1993007Y1351588D01*
X1992790Y1351894D01*
X1992581Y1352206D01*
X1992379Y1352523D01*
X1992185Y1352844D01*
X1991998Y1353170D01*
X1991820Y1353500D01*
X1991649Y1353835D01*
X1991487Y1354173D01*
X1991333Y1354516D01*
X1991187Y1354862D01*
X1991050Y1355211D01*
X1990921Y1355564D01*
X1990800Y1355919D01*
X1990689Y1356278D01*
X1990586Y1356639D01*
X1990492Y1357003D01*
X1990406Y1357368D01*
X1990329Y1357736D01*
X1990262Y1358105D01*
X1990203Y1358476D01*
X1990153Y1358848D01*
X1990113Y1359221D01*
X1990081Y1359596D01*
X1990058Y1359970D01*
X1990045Y1360346D01*
X1990040Y1360721D01*
X1990048Y1361415D01*
X1990073Y1362109D01*
X1990114Y1362802D01*
X1990172Y1363494D01*
X1990247Y1364185D01*
X1990337Y1364873D01*
X1990445Y1365559D01*
X1990568Y1366242D01*
X1990708Y1366922D01*
X1990864Y1367599D01*
X1991036Y1368272D01*
X1991223Y1368940D01*
X1991427Y1369604D01*
X1991647Y1370263D01*
X1991882Y1370916D01*
X1992133Y1371563D01*
X1992399Y1372205D01*
X1992680Y1372840D01*
X1992976Y1373468D01*
X1993288Y1374088D01*
X1993614Y1374701D01*
X1993954Y1375306D01*
X1994309Y1375903D01*
X1994678Y1376492D01*
X1995061Y1377071D01*
X1995457Y1377641D01*
X1995867Y1378201D01*
X2019174Y1352952D02*
X2018976Y1352626D01*
X2018771Y1352305D01*
X2018558Y1351989D01*
X2018338Y1351678D01*
X2018110Y1351373D01*
X2017875Y1351073D01*
X2017632Y1350779D01*
X2017383Y1350491D01*
X2017126Y1350209D01*
X2016863Y1349933D01*
X2016594Y1349664D01*
X2016318Y1349401D01*
X2016036Y1349145D01*
X2015747Y1348896D01*
X2015453Y1348654D01*
X2015153Y1348420D01*
X2014847Y1348192D01*
X2014536Y1347972D01*
X2014220Y1347759D01*
X2013898Y1347555D01*
X2013572Y1347358D01*
X2013241Y1347169D01*
X2012906Y1346988D01*
X2012567Y1346815D01*
X2012223Y1346650D01*
X2011875Y1346494D01*
X2011524Y1346346D01*
X2011170Y1346207D01*
X2010812Y1346076D01*
X2010451Y1345954D01*
X2010087Y1345841D01*
X2009720Y1345736D01*
X2009352Y1345641D01*
X2008980Y1345554D01*
X2008607Y1345477D01*
X2008233Y1345408D01*
X2007856Y1345348D01*
X2007479Y1345298D01*
X2007100Y1345257D01*
X2006720Y1345224D01*
X2006340Y1345201D01*
X2005959Y1345188D01*
X2005578Y1345183D01*
X2030827Y1374317D02*
X2031024Y1374643D01*
X2031230Y1374964D01*
X2031443Y1375280D01*
X2031663Y1375591D01*
X2031891Y1375896D01*
X2032126Y1376196D01*
X2032369Y1376490D01*
X2032618Y1376778D01*
X2032874Y1377060D01*
X2033137Y1377336D01*
X2033407Y1377605D01*
X2033683Y1377867D01*
X2033965Y1378123D01*
X2034254Y1378372D01*
X2034548Y1378614D01*
X2034848Y1378849D01*
X2035154Y1379077D01*
X2035465Y1379297D01*
X2035781Y1379509D01*
X2036102Y1379714D01*
X2036429Y1379911D01*
X2036759Y1380100D01*
X2037095Y1380281D01*
X2037434Y1380454D01*
X2037778Y1380619D01*
X2038125Y1380775D01*
X2038477Y1380923D01*
X2038831Y1381062D01*
X2039189Y1381193D01*
X2039550Y1381315D01*
X2039914Y1381428D01*
X2040280Y1381533D01*
X2040649Y1381628D01*
X2041020Y1381715D01*
X2041393Y1381792D01*
X2041768Y1381861D01*
X2042145Y1381921D01*
X2042522Y1381971D01*
X2042901Y1382012D01*
X2043281Y1382045D01*
X2043661Y1382068D01*
X2044042Y1382081D01*
X2044423Y1382086D01*
X2030827Y1374317D02*
X2019173Y1352952D01*
X2059960Y1423848D02*
X2059960Y1439386D01*
X2059961Y1423848D02*
X2059956Y1423473D01*
X2059943Y1423097D01*
X2059920Y1422723D01*
X2059888Y1422348D01*
X2059848Y1421975D01*
X2059798Y1421603D01*
X2059739Y1421232D01*
X2059672Y1420863D01*
X2059595Y1420495D01*
X2059509Y1420130D01*
X2059415Y1419766D01*
X2059312Y1419405D01*
X2059201Y1419046D01*
X2059080Y1418691D01*
X2058951Y1418338D01*
X2058814Y1417989D01*
X2058668Y1417643D01*
X2058514Y1417300D01*
X2058352Y1416962D01*
X2058181Y1416627D01*
X2058003Y1416297D01*
X2057816Y1415971D01*
X2057622Y1415650D01*
X2057420Y1415333D01*
X2057211Y1415021D01*
X2056994Y1414715D01*
X2056769Y1414414D01*
X2056538Y1414118D01*
X2056299Y1413828D01*
X2056053Y1413544D01*
X2055801Y1413266D01*
X2055542Y1412995D01*
X2055276Y1412729D01*
X2055005Y1412470D01*
X2054727Y1412218D01*
X2054443Y1411972D01*
X2054153Y1411733D01*
X2053857Y1411502D01*
X2053556Y1411277D01*
X2053250Y1411060D01*
X2052938Y1410851D01*
X2052621Y1410649D01*
X2052300Y1410455D01*
X2051974Y1410268D01*
X2051644Y1410090D01*
X2051309Y1409919D01*
X2050971Y1409757D01*
X2050628Y1409603D01*
X2050282Y1409457D01*
X2049933Y1409320D01*
X2049580Y1409191D01*
X2049225Y1409070D01*
X2048866Y1408959D01*
X2048505Y1408856D01*
X2048141Y1408762D01*
X2047776Y1408676D01*
X2047408Y1408599D01*
X2047039Y1408532D01*
X2046668Y1408473D01*
X2046296Y1408423D01*
X2045923Y1408383D01*
X2045548Y1408351D01*
X2045174Y1408328D01*
X2044798Y1408315D01*
X2044423Y1408310D01*
X2005578Y1408310D01*
X2005197Y1408315D01*
X2004816Y1408329D01*
X2004435Y1408352D01*
X2004055Y1408385D01*
X2003676Y1408427D01*
X2003298Y1408478D01*
X2002922Y1408539D01*
X2002547Y1408609D01*
X2002174Y1408688D01*
X2001803Y1408776D01*
X2001434Y1408873D01*
X2001068Y1408979D01*
X2000704Y1409094D01*
X2000344Y1409218D01*
X1999986Y1409351D01*
X1999632Y1409493D01*
X1999282Y1409643D01*
X1998935Y1409802D01*
X1998592Y1409969D01*
X1998254Y1410145D01*
X1997920Y1410328D01*
X1997590Y1410521D01*
X1997265Y1410721D01*
X1996946Y1410928D01*
X1996631Y1411144D01*
X1996322Y1411368D01*
X1996019Y1411599D01*
X1995721Y1411837D01*
X1995429Y1412082D01*
X1995144Y1412335D01*
X1994864Y1412594D01*
X1994591Y1412861D01*
X1994325Y1413134D01*
X1994065Y1413413D01*
X1993813Y1413699D01*
X1993567Y1413991D01*
X1993329Y1414288D01*
X1993098Y1414592D01*
X1992875Y1414901D01*
X1992659Y1415215D01*
X1992451Y1415535D01*
X1992251Y1415860D01*
X1992059Y1416189D01*
X1991875Y1416523D01*
X1991699Y1416862D01*
X1991532Y1417204D01*
X1991373Y1417551D01*
X1991223Y1417901D01*
X1991081Y1418256D01*
X1990948Y1418613D01*
X1990824Y1418974D01*
X1990709Y1419337D01*
X1990603Y1419703D01*
X1990506Y1420072D01*
X1990418Y1420443D01*
X1990339Y1420816D01*
X1990269Y1421191D01*
X1990208Y1421568D01*
X1990157Y1421945D01*
X1990115Y1422324D01*
X1990082Y1422704D01*
X1990059Y1423085D01*
X1990045Y1423466D01*
X1990040Y1423847D01*
X1990040Y1423848D02*
X1990040Y1439386D01*
X1990040Y1467914D02*
X2059960Y1467914D01*
X2032769Y1467914D02*
X1990040Y1506759D01*
X2017231Y1483452D02*
X2059960Y1506759D01*
X2059961Y1672384D02*
X2059956Y1672759D01*
X2059943Y1673135D01*
X2059920Y1673509D01*
X2059888Y1673884D01*
X2059848Y1674257D01*
X2059798Y1674629D01*
X2059739Y1675000D01*
X2059672Y1675369D01*
X2059595Y1675737D01*
X2059509Y1676102D01*
X2059415Y1676466D01*
X2059312Y1676827D01*
X2059201Y1677186D01*
X2059080Y1677541D01*
X2058951Y1677894D01*
X2058814Y1678243D01*
X2058668Y1678589D01*
X2058514Y1678932D01*
X2058352Y1679270D01*
X2058181Y1679605D01*
X2058003Y1679935D01*
X2057816Y1680261D01*
X2057622Y1680582D01*
X2057420Y1680899D01*
X2057211Y1681211D01*
X2056994Y1681517D01*
X2056769Y1681818D01*
X2056538Y1682114D01*
X2056299Y1682404D01*
X2056053Y1682688D01*
X2055801Y1682966D01*
X2055542Y1683237D01*
X2055276Y1683503D01*
X2055005Y1683762D01*
X2054727Y1684014D01*
X2054443Y1684260D01*
X2054153Y1684499D01*
X2053857Y1684730D01*
X2053556Y1684955D01*
X2053250Y1685172D01*
X2052938Y1685381D01*
X2052621Y1685583D01*
X2052300Y1685777D01*
X2051974Y1685964D01*
X2051644Y1686142D01*
X2051309Y1686313D01*
X2050971Y1686475D01*
X2050628Y1686629D01*
X2050282Y1686775D01*
X2049933Y1686912D01*
X2049580Y1687041D01*
X2049225Y1687162D01*
X2048866Y1687273D01*
X2048505Y1687376D01*
X2048141Y1687470D01*
X2047776Y1687556D01*
X2047408Y1687633D01*
X2047039Y1687700D01*
X2046668Y1687759D01*
X2046296Y1687809D01*
X2045923Y1687849D01*
X2045548Y1687881D01*
X2045174Y1687904D01*
X2044798Y1687917D01*
X2044423Y1687922D01*
X2059960Y1672384D02*
X2059951Y1671599D01*
X2059922Y1670814D01*
X2059875Y1670030D01*
X2059810Y1669247D01*
X2059725Y1668467D01*
X2059622Y1667688D01*
X2059501Y1666912D01*
X2059361Y1666140D01*
X2059202Y1665370D01*
X2059025Y1664605D01*
X2058830Y1663845D01*
X2058616Y1663089D01*
X2058385Y1662338D01*
X2058136Y1661594D01*
X2057869Y1660855D01*
X2057584Y1660123D01*
X2057282Y1659398D01*
X2056963Y1658681D01*
X2056626Y1657971D01*
X2056273Y1657270D01*
X2055903Y1656577D01*
X2055517Y1655893D01*
X2055114Y1655219D01*
X2054695Y1654555D01*
X2054261Y1653900D01*
X2053811Y1653257D01*
X2053346Y1652624D01*
X2052866Y1652003D01*
X2052371Y1651393D01*
X2051861Y1650795D01*
X2051338Y1650210D01*
X2050800Y1649637D01*
X2050249Y1649078D01*
X2005578Y1651020D02*
X2005203Y1651025D01*
X2004827Y1651038D01*
X2004453Y1651061D01*
X2004078Y1651093D01*
X2003705Y1651133D01*
X2003333Y1651183D01*
X2002962Y1651242D01*
X2002593Y1651309D01*
X2002225Y1651386D01*
X2001860Y1651472D01*
X2001496Y1651566D01*
X2001135Y1651669D01*
X2000776Y1651780D01*
X2000421Y1651901D01*
X2000068Y1652030D01*
X1999719Y1652167D01*
X1999373Y1652313D01*
X1999030Y1652467D01*
X1998692Y1652629D01*
X1998357Y1652800D01*
X1998027Y1652978D01*
X1997701Y1653165D01*
X1997380Y1653359D01*
X1997063Y1653561D01*
X1996751Y1653770D01*
X1996445Y1653987D01*
X1996144Y1654212D01*
X1995848Y1654443D01*
X1995558Y1654682D01*
X1995274Y1654928D01*
X1994996Y1655180D01*
X1994725Y1655439D01*
X1994459Y1655705D01*
X1994200Y1655976D01*
X1993948Y1656254D01*
X1993702Y1656538D01*
X1993463Y1656828D01*
X1993232Y1657124D01*
X1993007Y1657425D01*
X1992790Y1657731D01*
X1992581Y1658043D01*
X1992379Y1658360D01*
X1992185Y1658681D01*
X1991998Y1659007D01*
X1991820Y1659337D01*
X1991649Y1659672D01*
X1991487Y1660010D01*
X1991333Y1660353D01*
X1991187Y1660699D01*
X1991050Y1661048D01*
X1990921Y1661401D01*
X1990800Y1661756D01*
X1990689Y1662115D01*
X1990586Y1662476D01*
X1990492Y1662840D01*
X1990406Y1663205D01*
X1990329Y1663573D01*
X1990262Y1663942D01*
X1990203Y1664313D01*
X1990153Y1664685D01*
X1990113Y1665058D01*
X1990081Y1665433D01*
X1990058Y1665807D01*
X1990045Y1666183D01*
X1990040Y1666558D01*
X1990048Y1667252D01*
X1990073Y1667946D01*
X1990114Y1668639D01*
X1990172Y1669331D01*
X1990247Y1670022D01*
X1990337Y1670710D01*
X1990445Y1671396D01*
X1990568Y1672079D01*
X1990708Y1672759D01*
X1990864Y1673436D01*
X1991036Y1674109D01*
X1991223Y1674777D01*
X1991427Y1675441D01*
X1991647Y1676100D01*
X1991882Y1676753D01*
X1992133Y1677400D01*
X1992399Y1678042D01*
X1992680Y1678677D01*
X1992976Y1679305D01*
X1993288Y1679925D01*
X1993614Y1680538D01*
X1993954Y1681143D01*
X1994309Y1681740D01*
X1994678Y1682329D01*
X1995061Y1682908D01*
X1995457Y1683478D01*
X1995867Y1684038D01*
X2019174Y1658789D02*
X2018976Y1658463D01*
X2018771Y1658142D01*
X2018558Y1657826D01*
X2018338Y1657515D01*
X2018110Y1657210D01*
X2017875Y1656910D01*
X2017632Y1656616D01*
X2017383Y1656328D01*
X2017126Y1656046D01*
X2016863Y1655770D01*
X2016594Y1655501D01*
X2016318Y1655238D01*
X2016036Y1654982D01*
X2015747Y1654733D01*
X2015453Y1654491D01*
X2015153Y1654257D01*
X2014847Y1654029D01*
X2014536Y1653809D01*
X2014220Y1653596D01*
X2013898Y1653392D01*
X2013572Y1653195D01*
X2013241Y1653006D01*
X2012906Y1652825D01*
X2012567Y1652652D01*
X2012223Y1652487D01*
X2011875Y1652331D01*
X2011524Y1652183D01*
X2011170Y1652044D01*
X2010812Y1651913D01*
X2010451Y1651791D01*
X2010087Y1651678D01*
X2009720Y1651573D01*
X2009352Y1651478D01*
X2008980Y1651391D01*
X2008607Y1651314D01*
X2008233Y1651245D01*
X2007856Y1651185D01*
X2007479Y1651135D01*
X2007100Y1651094D01*
X2006720Y1651061D01*
X2006340Y1651038D01*
X2005959Y1651025D01*
X2005578Y1651020D01*
X2030827Y1680154D02*
X2031024Y1680480D01*
X2031230Y1680801D01*
X2031443Y1681117D01*
X2031663Y1681428D01*
X2031891Y1681733D01*
X2032126Y1682033D01*
X2032369Y1682327D01*
X2032618Y1682615D01*
X2032874Y1682897D01*
X2033137Y1683173D01*
X2033407Y1683442D01*
X2033683Y1683704D01*
X2033965Y1683960D01*
X2034254Y1684209D01*
X2034548Y1684451D01*
X2034848Y1684686D01*
X2035154Y1684914D01*
X2035465Y1685134D01*
X2035781Y1685346D01*
X2036102Y1685551D01*
X2036429Y1685748D01*
X2036759Y1685937D01*
X2037095Y1686118D01*
X2037434Y1686291D01*
X2037778Y1686456D01*
X2038125Y1686612D01*
X2038477Y1686760D01*
X2038831Y1686899D01*
X2039189Y1687030D01*
X2039550Y1687152D01*
X2039914Y1687265D01*
X2040280Y1687370D01*
X2040649Y1687465D01*
X2041020Y1687552D01*
X2041393Y1687629D01*
X2041768Y1687698D01*
X2042145Y1687758D01*
X2042522Y1687808D01*
X2042901Y1687849D01*
X2043281Y1687882D01*
X2043661Y1687905D01*
X2044042Y1687918D01*
X2044423Y1687923D01*
X2030827Y1680153D02*
X2019173Y1658789D01*
X2059961Y1735384D02*
X2059956Y1735759D01*
X2059943Y1736135D01*
X2059920Y1736509D01*
X2059888Y1736884D01*
X2059848Y1737257D01*
X2059798Y1737629D01*
X2059739Y1738000D01*
X2059672Y1738369D01*
X2059595Y1738737D01*
X2059509Y1739102D01*
X2059415Y1739466D01*
X2059312Y1739827D01*
X2059201Y1740186D01*
X2059080Y1740541D01*
X2058951Y1740894D01*
X2058814Y1741243D01*
X2058668Y1741589D01*
X2058514Y1741932D01*
X2058352Y1742270D01*
X2058181Y1742605D01*
X2058003Y1742935D01*
X2057816Y1743261D01*
X2057622Y1743582D01*
X2057420Y1743899D01*
X2057211Y1744211D01*
X2056994Y1744517D01*
X2056769Y1744818D01*
X2056538Y1745114D01*
X2056299Y1745404D01*
X2056053Y1745688D01*
X2055801Y1745966D01*
X2055542Y1746237D01*
X2055276Y1746503D01*
X2055005Y1746762D01*
X2054727Y1747014D01*
X2054443Y1747260D01*
X2054153Y1747499D01*
X2053857Y1747730D01*
X2053556Y1747955D01*
X2053250Y1748172D01*
X2052938Y1748381D01*
X2052621Y1748583D01*
X2052300Y1748777D01*
X2051974Y1748964D01*
X2051644Y1749142D01*
X2051309Y1749313D01*
X2050971Y1749475D01*
X2050628Y1749629D01*
X2050282Y1749775D01*
X2049933Y1749912D01*
X2049580Y1750041D01*
X2049225Y1750162D01*
X2048866Y1750273D01*
X2048505Y1750376D01*
X2048141Y1750470D01*
X2047776Y1750556D01*
X2047408Y1750633D01*
X2047039Y1750700D01*
X2046668Y1750759D01*
X2046296Y1750809D01*
X2045923Y1750849D01*
X2045548Y1750881D01*
X2045174Y1750904D01*
X2044798Y1750917D01*
X2044423Y1750922D01*
X2059960Y1735384D02*
X2059951Y1734599D01*
X2059922Y1733814D01*
X2059875Y1733030D01*
X2059810Y1732247D01*
X2059725Y1731467D01*
X2059622Y1730688D01*
X2059501Y1729912D01*
X2059361Y1729140D01*
X2059202Y1728370D01*
X2059025Y1727605D01*
X2058830Y1726845D01*
X2058616Y1726089D01*
X2058385Y1725338D01*
X2058136Y1724594D01*
X2057869Y1723855D01*
X2057584Y1723123D01*
X2057282Y1722398D01*
X2056963Y1721681D01*
X2056626Y1720971D01*
X2056273Y1720270D01*
X2055903Y1719577D01*
X2055517Y1718893D01*
X2055114Y1718219D01*
X2054695Y1717555D01*
X2054261Y1716900D01*
X2053811Y1716257D01*
X2053346Y1715624D01*
X2052866Y1715003D01*
X2052371Y1714393D01*
X2051861Y1713795D01*
X2051338Y1713210D01*
X2050800Y1712637D01*
X2050249Y1712078D01*
X2005578Y1714020D02*
X2005203Y1714025D01*
X2004827Y1714038D01*
X2004453Y1714061D01*
X2004078Y1714093D01*
X2003705Y1714133D01*
X2003333Y1714183D01*
X2002962Y1714242D01*
X2002593Y1714309D01*
X2002225Y1714386D01*
X2001860Y1714472D01*
X2001496Y1714566D01*
X2001135Y1714669D01*
X2000776Y1714780D01*
X2000421Y1714901D01*
X2000068Y1715030D01*
X1999719Y1715167D01*
X1999373Y1715313D01*
X1999030Y1715467D01*
X1998692Y1715629D01*
X1998357Y1715800D01*
X1998027Y1715978D01*
X1997701Y1716165D01*
X1997380Y1716359D01*
X1997063Y1716561D01*
X1996751Y1716770D01*
X1996445Y1716987D01*
X1996144Y1717212D01*
X1995848Y1717443D01*
X1995558Y1717682D01*
X1995274Y1717928D01*
X1994996Y1718180D01*
X1994725Y1718439D01*
X1994459Y1718705D01*
X1994200Y1718976D01*
X1993948Y1719254D01*
X1993702Y1719538D01*
X1993463Y1719828D01*
X1993232Y1720124D01*
X1993007Y1720425D01*
X1992790Y1720731D01*
X1992581Y1721043D01*
X1992379Y1721360D01*
X1992185Y1721681D01*
X1991998Y1722007D01*
X1991820Y1722337D01*
X1991649Y1722672D01*
X1991487Y1723010D01*
X1991333Y1723353D01*
X1991187Y1723699D01*
X1991050Y1724048D01*
X1990921Y1724401D01*
X1990800Y1724756D01*
X1990689Y1725115D01*
X1990586Y1725476D01*
X1990492Y1725840D01*
X1990406Y1726205D01*
X1990329Y1726573D01*
X1990262Y1726942D01*
X1990203Y1727313D01*
X1990153Y1727685D01*
X1990113Y1728058D01*
X1990081Y1728433D01*
X1990058Y1728807D01*
X1990045Y1729183D01*
X1990040Y1729558D01*
X1990048Y1730252D01*
X1990073Y1730946D01*
X1990114Y1731639D01*
X1990172Y1732331D01*
X1990247Y1733022D01*
X1990337Y1733710D01*
X1990445Y1734396D01*
X1990568Y1735079D01*
X1990708Y1735759D01*
X1990864Y1736436D01*
X1991036Y1737109D01*
X1991223Y1737777D01*
X1991427Y1738441D01*
X1991647Y1739100D01*
X1991882Y1739753D01*
X1992133Y1740400D01*
X1992399Y1741042D01*
X1992680Y1741677D01*
X1992976Y1742305D01*
X1993288Y1742925D01*
X1993614Y1743538D01*
X1993954Y1744143D01*
X1994309Y1744740D01*
X1994678Y1745329D01*
X1995061Y1745908D01*
X1995457Y1746478D01*
X1995867Y1747038D01*
X2019174Y1721789D02*
X2018976Y1721463D01*
X2018771Y1721142D01*
X2018558Y1720826D01*
X2018338Y1720515D01*
X2018110Y1720210D01*
X2017875Y1719910D01*
X2017632Y1719616D01*
X2017383Y1719328D01*
X2017126Y1719046D01*
X2016863Y1718770D01*
X2016594Y1718501D01*
X2016318Y1718238D01*
X2016036Y1717982D01*
X2015747Y1717733D01*
X2015453Y1717491D01*
X2015153Y1717257D01*
X2014847Y1717029D01*
X2014536Y1716809D01*
X2014220Y1716596D01*
X2013898Y1716392D01*
X2013572Y1716195D01*
X2013241Y1716006D01*
X2012906Y1715825D01*
X2012567Y1715652D01*
X2012223Y1715487D01*
X2011875Y1715331D01*
X2011524Y1715183D01*
X2011170Y1715044D01*
X2010812Y1714913D01*
X2010451Y1714791D01*
X2010087Y1714678D01*
X2009720Y1714573D01*
X2009352Y1714478D01*
X2008980Y1714391D01*
X2008607Y1714314D01*
X2008233Y1714245D01*
X2007856Y1714185D01*
X2007479Y1714135D01*
X2007100Y1714094D01*
X2006720Y1714061D01*
X2006340Y1714038D01*
X2005959Y1714025D01*
X2005578Y1714020D01*
X2030827Y1743154D02*
X2031024Y1743480D01*
X2031230Y1743801D01*
X2031443Y1744117D01*
X2031663Y1744428D01*
X2031891Y1744733D01*
X2032126Y1745033D01*
X2032369Y1745327D01*
X2032618Y1745615D01*
X2032874Y1745897D01*
X2033137Y1746173D01*
X2033407Y1746442D01*
X2033683Y1746704D01*
X2033965Y1746960D01*
X2034254Y1747209D01*
X2034548Y1747451D01*
X2034848Y1747686D01*
X2035154Y1747914D01*
X2035465Y1748134D01*
X2035781Y1748346D01*
X2036102Y1748551D01*
X2036429Y1748748D01*
X2036759Y1748937D01*
X2037095Y1749118D01*
X2037434Y1749291D01*
X2037778Y1749456D01*
X2038125Y1749612D01*
X2038477Y1749760D01*
X2038831Y1749899D01*
X2039189Y1750030D01*
X2039550Y1750152D01*
X2039914Y1750265D01*
X2040280Y1750370D01*
X2040649Y1750465D01*
X2041020Y1750552D01*
X2041393Y1750629D01*
X2041768Y1750698D01*
X2042145Y1750758D01*
X2042522Y1750808D01*
X2042901Y1750849D01*
X2043281Y1750882D01*
X2043661Y1750905D01*
X2044042Y1750918D01*
X2044423Y1750923D01*
X2030827Y1743153D02*
X2019173Y1721789D01*
X1772422Y453884D02*
X1760769Y453884D01*
X1772422Y453884D02*
X1772422Y415040D01*
X1749115Y415040D01*
X1748740Y415045D01*
X1748364Y415058D01*
X1747990Y415081D01*
X1747615Y415113D01*
X1747242Y415153D01*
X1746870Y415203D01*
X1746499Y415262D01*
X1746130Y415329D01*
X1745762Y415406D01*
X1745397Y415492D01*
X1745033Y415586D01*
X1744672Y415689D01*
X1744313Y415800D01*
X1743958Y415921D01*
X1743605Y416050D01*
X1743256Y416187D01*
X1742910Y416333D01*
X1742567Y416487D01*
X1742229Y416649D01*
X1741894Y416820D01*
X1741564Y416998D01*
X1741238Y417185D01*
X1740917Y417379D01*
X1740600Y417581D01*
X1740288Y417790D01*
X1739982Y418007D01*
X1739681Y418232D01*
X1739385Y418463D01*
X1739095Y418702D01*
X1738811Y418948D01*
X1738533Y419200D01*
X1738262Y419459D01*
X1737996Y419725D01*
X1737737Y419996D01*
X1737485Y420274D01*
X1737239Y420558D01*
X1737000Y420848D01*
X1736769Y421144D01*
X1736544Y421445D01*
X1736327Y421751D01*
X1736118Y422063D01*
X1735916Y422380D01*
X1735722Y422701D01*
X1735535Y423027D01*
X1735357Y423357D01*
X1735186Y423692D01*
X1735024Y424030D01*
X1734870Y424373D01*
X1734724Y424719D01*
X1734587Y425068D01*
X1734458Y425421D01*
X1734337Y425776D01*
X1734226Y426135D01*
X1734123Y426496D01*
X1734029Y426860D01*
X1733943Y427225D01*
X1733866Y427593D01*
X1733799Y427962D01*
X1733740Y428333D01*
X1733690Y428705D01*
X1733650Y429078D01*
X1733618Y429453D01*
X1733595Y429827D01*
X1733582Y430203D01*
X1733577Y430578D01*
X1733578Y430578D02*
X1733578Y469422D01*
X1733583Y469803D01*
X1733597Y470184D01*
X1733620Y470565D01*
X1733653Y470945D01*
X1733695Y471324D01*
X1733746Y471702D01*
X1733807Y472078D01*
X1733877Y472453D01*
X1733956Y472826D01*
X1734044Y473197D01*
X1734141Y473566D01*
X1734247Y473932D01*
X1734362Y474296D01*
X1734486Y474657D01*
X1734619Y475014D01*
X1734761Y475368D01*
X1734911Y475719D01*
X1735070Y476065D01*
X1735237Y476408D01*
X1735413Y476746D01*
X1735597Y477081D01*
X1735789Y477410D01*
X1735989Y477735D01*
X1736197Y478054D01*
X1736412Y478369D01*
X1736636Y478678D01*
X1736867Y478981D01*
X1737105Y479279D01*
X1737350Y479571D01*
X1737603Y479857D01*
X1737863Y480136D01*
X1738129Y480409D01*
X1738402Y480675D01*
X1738681Y480935D01*
X1738967Y481187D01*
X1739259Y481433D01*
X1739556Y481671D01*
X1739860Y481902D01*
X1740169Y482126D01*
X1740483Y482341D01*
X1740803Y482549D01*
X1741128Y482749D01*
X1741457Y482941D01*
X1741791Y483125D01*
X1742130Y483301D01*
X1742472Y483468D01*
X1742819Y483627D01*
X1743170Y483777D01*
X1743524Y483919D01*
X1743881Y484052D01*
X1744242Y484176D01*
X1744605Y484291D01*
X1744972Y484397D01*
X1745340Y484494D01*
X1745711Y484582D01*
X1746084Y484661D01*
X1746459Y484731D01*
X1746836Y484792D01*
X1747214Y484843D01*
X1747593Y484885D01*
X1747973Y484918D01*
X1748353Y484941D01*
X1748734Y484955D01*
X1749116Y484960D01*
X1749115Y484960D02*
X1772422Y484960D01*
X1805578Y484960D02*
X1805578Y415040D01*
X1844422Y415040D02*
X1805578Y484960D01*
X1844422Y484960D02*
X1844422Y415040D01*
X1877578Y415040D02*
X1877578Y484960D01*
X1897000Y484960D01*
X1897469Y484954D01*
X1897938Y484937D01*
X1898407Y484909D01*
X1898875Y484869D01*
X1899341Y484818D01*
X1899806Y484756D01*
X1900270Y484683D01*
X1900732Y484598D01*
X1901191Y484502D01*
X1901648Y484396D01*
X1902102Y484278D01*
X1902554Y484149D01*
X1903002Y484009D01*
X1903446Y483859D01*
X1903887Y483698D01*
X1904324Y483526D01*
X1904757Y483344D01*
X1905185Y483151D01*
X1905608Y482948D01*
X1906026Y482735D01*
X1906439Y482512D01*
X1906846Y482279D01*
X1907248Y482036D01*
X1907644Y481784D01*
X1908033Y481522D01*
X1908416Y481251D01*
X1908792Y480970D01*
X1909162Y480681D01*
X1909524Y480382D01*
X1909879Y480075D01*
X1910227Y479760D01*
X1910567Y479436D01*
X1910898Y479104D01*
X1911222Y478765D01*
X1911538Y478417D01*
X1911845Y478062D01*
X1912143Y477700D01*
X1912432Y477330D01*
X1912713Y476954D01*
X1912984Y476571D01*
X1913246Y476181D01*
X1913498Y475786D01*
X1913741Y475384D01*
X1913974Y474977D01*
X1914197Y474564D01*
X1914411Y474145D01*
X1914613Y473722D01*
X1914806Y473294D01*
X1914988Y472862D01*
X1915160Y472425D01*
X1915321Y471984D01*
X1915471Y471539D01*
X1915611Y471091D01*
X1915740Y470640D01*
X1915858Y470186D01*
X1915964Y469729D01*
X1916060Y469269D01*
X1916145Y468808D01*
X1916218Y468344D01*
X1916280Y467879D01*
X1916331Y467412D01*
X1916371Y466945D01*
X1916399Y466476D01*
X1916416Y466007D01*
X1916422Y465538D01*
X1916422Y434462D01*
X1916423Y434462D02*
X1916417Y433985D01*
X1916400Y433509D01*
X1916370Y433033D01*
X1916329Y432558D01*
X1916277Y432084D01*
X1916213Y431612D01*
X1916137Y431141D01*
X1916050Y430673D01*
X1915951Y430206D01*
X1915841Y429743D01*
X1915719Y429282D01*
X1915587Y428824D01*
X1915443Y428369D01*
X1915288Y427919D01*
X1915122Y427472D01*
X1914945Y427029D01*
X1914757Y426591D01*
X1914558Y426158D01*
X1914349Y425729D01*
X1914130Y425306D01*
X1913900Y424889D01*
X1913660Y424477D01*
X1913410Y424071D01*
X1913150Y423671D01*
X1912880Y423278D01*
X1912601Y422892D01*
X1912312Y422512D01*
X1912014Y422140D01*
X1911707Y421776D01*
X1911392Y421418D01*
X1911067Y421069D01*
X1910734Y420728D01*
X1910393Y420395D01*
X1910044Y420071D01*
X1909687Y419755D01*
X1909322Y419448D01*
X1908950Y419150D01*
X1908570Y418861D01*
X1908184Y418582D01*
X1907791Y418312D01*
X1907391Y418053D01*
X1906986Y417802D01*
X1906574Y417562D01*
X1906156Y417333D01*
X1905733Y417113D01*
X1905305Y416904D01*
X1904871Y416705D01*
X1904433Y416518D01*
X1903990Y416341D01*
X1903544Y416174D01*
X1903093Y416019D01*
X1902638Y415875D01*
X1902181Y415743D01*
X1901720Y415621D01*
X1901256Y415511D01*
X1900790Y415412D01*
X1900321Y415325D01*
X1899850Y415249D01*
X1899378Y415185D01*
X1898904Y415133D01*
X1898429Y415092D01*
X1897953Y415062D01*
X1897477Y415045D01*
X1897000Y415039D01*
X1897000Y415040D02*
X1877578Y415040D01*
X1212588Y1915040D02*
X1212588Y1984960D01*
X1212588Y1961653D02*
X1232010Y1961653D01*
X1232292Y1961650D01*
X1232573Y1961639D01*
X1232854Y1961622D01*
X1233135Y1961599D01*
X1233415Y1961568D01*
X1233694Y1961531D01*
X1233972Y1961487D01*
X1234249Y1961436D01*
X1234525Y1961378D01*
X1234799Y1961314D01*
X1235071Y1961244D01*
X1235342Y1961166D01*
X1235611Y1961083D01*
X1235878Y1960992D01*
X1236142Y1960896D01*
X1236404Y1960793D01*
X1236664Y1960683D01*
X1236921Y1960568D01*
X1237175Y1960446D01*
X1237425Y1960318D01*
X1237673Y1960184D01*
X1237918Y1960045D01*
X1238159Y1959899D01*
X1238396Y1959747D01*
X1238630Y1959590D01*
X1238859Y1959427D01*
X1239085Y1959259D01*
X1239307Y1959086D01*
X1239524Y1958907D01*
X1239737Y1958722D01*
X1239946Y1958533D01*
X1240150Y1958339D01*
X1240349Y1958140D01*
X1240543Y1957936D01*
X1240732Y1957727D01*
X1240917Y1957514D01*
X1241096Y1957297D01*
X1241269Y1957075D01*
X1241437Y1956849D01*
X1241600Y1956620D01*
X1241757Y1956386D01*
X1241909Y1956149D01*
X1242055Y1955908D01*
X1242194Y1955663D01*
X1242328Y1955415D01*
X1242456Y1955165D01*
X1242578Y1954911D01*
X1242693Y1954654D01*
X1242803Y1954394D01*
X1242906Y1954132D01*
X1243002Y1953868D01*
X1243093Y1953601D01*
X1243176Y1953332D01*
X1243254Y1953061D01*
X1243324Y1952789D01*
X1243388Y1952515D01*
X1243446Y1952239D01*
X1243497Y1951962D01*
X1243541Y1951684D01*
X1243578Y1951405D01*
X1243609Y1951125D01*
X1243632Y1950844D01*
X1243649Y1950563D01*
X1243660Y1950282D01*
X1243663Y1950000D01*
X1243663Y1915040D01*
X1273126Y1915040D02*
X1273126Y1961653D01*
X1271183Y1981075D02*
X1271183Y1984960D01*
X1275068Y1984960D01*
X1275068Y1981075D01*
X1271183Y1981075D01*
X1311670Y1915040D02*
X1331092Y1915040D01*
X1311670Y1915040D02*
X1311388Y1915043D01*
X1311107Y1915054D01*
X1310826Y1915071D01*
X1310545Y1915094D01*
X1310265Y1915125D01*
X1309986Y1915162D01*
X1309708Y1915206D01*
X1309431Y1915257D01*
X1309155Y1915315D01*
X1308881Y1915379D01*
X1308609Y1915449D01*
X1308338Y1915527D01*
X1308069Y1915610D01*
X1307802Y1915701D01*
X1307538Y1915797D01*
X1307276Y1915900D01*
X1307016Y1916010D01*
X1306759Y1916125D01*
X1306505Y1916247D01*
X1306255Y1916375D01*
X1306007Y1916509D01*
X1305762Y1916648D01*
X1305521Y1916794D01*
X1305284Y1916946D01*
X1305050Y1917103D01*
X1304821Y1917266D01*
X1304595Y1917434D01*
X1304373Y1917607D01*
X1304156Y1917786D01*
X1303943Y1917971D01*
X1303734Y1918160D01*
X1303530Y1918354D01*
X1303331Y1918553D01*
X1303137Y1918757D01*
X1302948Y1918966D01*
X1302763Y1919179D01*
X1302584Y1919396D01*
X1302411Y1919618D01*
X1302243Y1919844D01*
X1302080Y1920073D01*
X1301923Y1920307D01*
X1301771Y1920544D01*
X1301625Y1920785D01*
X1301486Y1921030D01*
X1301352Y1921278D01*
X1301224Y1921528D01*
X1301102Y1921782D01*
X1300987Y1922039D01*
X1300877Y1922299D01*
X1300774Y1922561D01*
X1300678Y1922825D01*
X1300587Y1923092D01*
X1300504Y1923361D01*
X1300426Y1923632D01*
X1300356Y1923904D01*
X1300292Y1924178D01*
X1300234Y1924454D01*
X1300183Y1924731D01*
X1300139Y1925009D01*
X1300102Y1925288D01*
X1300071Y1925568D01*
X1300048Y1925849D01*
X1300031Y1926130D01*
X1300020Y1926411D01*
X1300017Y1926693D01*
X1300017Y1950000D01*
X1300020Y1950282D01*
X1300031Y1950563D01*
X1300048Y1950844D01*
X1300071Y1951125D01*
X1300102Y1951405D01*
X1300139Y1951684D01*
X1300183Y1951962D01*
X1300234Y1952239D01*
X1300292Y1952515D01*
X1300356Y1952789D01*
X1300426Y1953061D01*
X1300504Y1953332D01*
X1300587Y1953601D01*
X1300678Y1953868D01*
X1300774Y1954132D01*
X1300877Y1954394D01*
X1300987Y1954654D01*
X1301102Y1954911D01*
X1301224Y1955165D01*
X1301352Y1955415D01*
X1301486Y1955663D01*
X1301625Y1955908D01*
X1301771Y1956149D01*
X1301923Y1956386D01*
X1302080Y1956620D01*
X1302243Y1956849D01*
X1302411Y1957075D01*
X1302584Y1957297D01*
X1302763Y1957514D01*
X1302948Y1957727D01*
X1303137Y1957936D01*
X1303331Y1958140D01*
X1303530Y1958339D01*
X1303734Y1958533D01*
X1303943Y1958722D01*
X1304156Y1958907D01*
X1304373Y1959086D01*
X1304595Y1959259D01*
X1304821Y1959427D01*
X1305050Y1959590D01*
X1305284Y1959747D01*
X1305521Y1959899D01*
X1305762Y1960045D01*
X1306007Y1960184D01*
X1306255Y1960318D01*
X1306505Y1960446D01*
X1306759Y1960568D01*
X1307016Y1960683D01*
X1307276Y1960793D01*
X1307538Y1960896D01*
X1307802Y1960992D01*
X1308069Y1961083D01*
X1308338Y1961166D01*
X1308609Y1961244D01*
X1308881Y1961314D01*
X1309155Y1961378D01*
X1309431Y1961436D01*
X1309708Y1961487D01*
X1309986Y1961531D01*
X1310265Y1961568D01*
X1310545Y1961599D01*
X1310826Y1961622D01*
X1311107Y1961639D01*
X1311388Y1961650D01*
X1311670Y1961653D01*
X1331092Y1961653D01*
X1331092Y1903387D01*
X1331088Y1903101D01*
X1331078Y1902815D01*
X1331060Y1902530D01*
X1331036Y1902245D01*
X1331004Y1901960D01*
X1330966Y1901677D01*
X1330920Y1901395D01*
X1330868Y1901113D01*
X1330809Y1900834D01*
X1330743Y1900555D01*
X1330670Y1900279D01*
X1330590Y1900004D01*
X1330504Y1899731D01*
X1330411Y1899461D01*
X1330311Y1899193D01*
X1330205Y1898927D01*
X1330092Y1898664D01*
X1329973Y1898404D01*
X1329848Y1898147D01*
X1329716Y1897894D01*
X1329578Y1897643D01*
X1329434Y1897396D01*
X1329284Y1897152D01*
X1329128Y1896913D01*
X1328966Y1896677D01*
X1328799Y1896445D01*
X1328626Y1896217D01*
X1328447Y1895994D01*
X1328263Y1895775D01*
X1328073Y1895561D01*
X1327879Y1895351D01*
X1327679Y1895147D01*
X1327474Y1894947D01*
X1327265Y1894752D01*
X1327050Y1894563D01*
X1326831Y1894379D01*
X1326608Y1894200D01*
X1326381Y1894027D01*
X1326149Y1893859D01*
X1325913Y1893697D01*
X1325673Y1893541D01*
X1325430Y1893391D01*
X1325183Y1893247D01*
X1324932Y1893109D01*
X1324678Y1892978D01*
X1324421Y1892852D01*
X1324161Y1892733D01*
X1323898Y1892620D01*
X1323633Y1892514D01*
X1323365Y1892414D01*
X1323094Y1892321D01*
X1322821Y1892235D01*
X1322547Y1892155D01*
X1322270Y1892082D01*
X1321992Y1892016D01*
X1321712Y1891957D01*
X1321431Y1891905D01*
X1321149Y1891859D01*
X1320865Y1891821D01*
X1320581Y1891789D01*
X1320296Y1891765D01*
X1320010Y1891747D01*
X1319725Y1891737D01*
X1319439Y1891733D01*
X1303901Y1891733D01*
X1363338Y1915040D02*
X1363338Y1984960D01*
X1363338Y1961653D02*
X1382760Y1961653D01*
X1383042Y1961650D01*
X1383323Y1961639D01*
X1383604Y1961622D01*
X1383885Y1961599D01*
X1384165Y1961568D01*
X1384444Y1961531D01*
X1384722Y1961487D01*
X1384999Y1961436D01*
X1385275Y1961378D01*
X1385549Y1961314D01*
X1385821Y1961244D01*
X1386092Y1961166D01*
X1386361Y1961083D01*
X1386628Y1960992D01*
X1386892Y1960896D01*
X1387154Y1960793D01*
X1387414Y1960683D01*
X1387671Y1960568D01*
X1387925Y1960446D01*
X1388175Y1960318D01*
X1388423Y1960184D01*
X1388668Y1960045D01*
X1388909Y1959899D01*
X1389146Y1959747D01*
X1389380Y1959590D01*
X1389609Y1959427D01*
X1389835Y1959259D01*
X1390057Y1959086D01*
X1390274Y1958907D01*
X1390487Y1958722D01*
X1390696Y1958533D01*
X1390900Y1958339D01*
X1391099Y1958140D01*
X1391293Y1957936D01*
X1391482Y1957727D01*
X1391667Y1957514D01*
X1391846Y1957297D01*
X1392019Y1957075D01*
X1392187Y1956849D01*
X1392350Y1956620D01*
X1392507Y1956386D01*
X1392659Y1956149D01*
X1392805Y1955908D01*
X1392944Y1955663D01*
X1393078Y1955415D01*
X1393206Y1955165D01*
X1393328Y1954911D01*
X1393443Y1954654D01*
X1393553Y1954394D01*
X1393656Y1954132D01*
X1393752Y1953868D01*
X1393843Y1953601D01*
X1393926Y1953332D01*
X1394004Y1953061D01*
X1394074Y1952789D01*
X1394138Y1952515D01*
X1394196Y1952239D01*
X1394247Y1951962D01*
X1394291Y1951684D01*
X1394328Y1951405D01*
X1394359Y1951125D01*
X1394382Y1950844D01*
X1394399Y1950563D01*
X1394410Y1950282D01*
X1394413Y1950000D01*
X1394413Y1915040D01*
X1465913Y1942231D02*
X1485336Y1934462D01*
X1465914Y1942230D02*
X1465687Y1942324D01*
X1465463Y1942423D01*
X1465241Y1942528D01*
X1465022Y1942638D01*
X1464806Y1942754D01*
X1464592Y1942874D01*
X1464382Y1943000D01*
X1464174Y1943131D01*
X1463970Y1943267D01*
X1463770Y1943408D01*
X1463572Y1943553D01*
X1463379Y1943704D01*
X1463189Y1943859D01*
X1463003Y1944019D01*
X1462820Y1944183D01*
X1462642Y1944351D01*
X1462468Y1944524D01*
X1462299Y1944701D01*
X1462133Y1944882D01*
X1461973Y1945067D01*
X1461816Y1945256D01*
X1461665Y1945449D01*
X1461518Y1945645D01*
X1461376Y1945845D01*
X1461238Y1946048D01*
X1461106Y1946255D01*
X1460979Y1946464D01*
X1460857Y1946677D01*
X1460740Y1946893D01*
X1460629Y1947111D01*
X1460523Y1947332D01*
X1460422Y1947556D01*
X1460326Y1947782D01*
X1460237Y1948010D01*
X1460153Y1948240D01*
X1460074Y1948472D01*
X1460001Y1948707D01*
X1459934Y1948942D01*
X1459873Y1949180D01*
X1459817Y1949419D01*
X1459767Y1949659D01*
X1459723Y1949900D01*
X1459685Y1950142D01*
X1459653Y1950385D01*
X1459627Y1950629D01*
X1459607Y1950873D01*
X1459593Y1951118D01*
X1459584Y1951363D01*
X1459582Y1951608D01*
X1459586Y1951854D01*
X1459595Y1952099D01*
X1459611Y1952343D01*
X1459632Y1952588D01*
X1459660Y1952831D01*
X1459693Y1953074D01*
X1459732Y1953316D01*
X1459778Y1953557D01*
X1459829Y1953797D01*
X1459885Y1954036D01*
X1459948Y1954273D01*
X1460016Y1954508D01*
X1460091Y1954742D01*
X1460170Y1954974D01*
X1460256Y1955204D01*
X1460347Y1955431D01*
X1460443Y1955657D01*
X1460545Y1955880D01*
X1460652Y1956100D01*
X1460765Y1956318D01*
X1460883Y1956533D01*
X1461006Y1956745D01*
X1461134Y1956954D01*
X1461268Y1957160D01*
X1461406Y1957362D01*
X1461549Y1957561D01*
X1461697Y1957757D01*
X1461850Y1957949D01*
X1462007Y1958137D01*
X1462169Y1958321D01*
X1462335Y1958501D01*
X1462506Y1958678D01*
X1462681Y1958849D01*
X1462860Y1959017D01*
X1463043Y1959180D01*
X1463229Y1959339D01*
X1463420Y1959493D01*
X1463615Y1959642D01*
X1463813Y1959787D01*
X1464014Y1959927D01*
X1464219Y1960062D01*
X1464427Y1960191D01*
X1464638Y1960316D01*
X1464852Y1960436D01*
X1465069Y1960550D01*
X1465289Y1960659D01*
X1465511Y1960762D01*
X1465736Y1960861D01*
X1465963Y1960953D01*
X1466192Y1961040D01*
X1466423Y1961122D01*
X1466656Y1961198D01*
X1466891Y1961268D01*
X1467128Y1961332D01*
X1467366Y1961391D01*
X1467606Y1961443D01*
X1467846Y1961490D01*
X1468088Y1961532D01*
X1468331Y1961567D01*
X1468574Y1961596D01*
X1468818Y1961619D01*
X1469063Y1961637D01*
X1469308Y1961648D01*
X1469553Y1961653D01*
X1469798Y1961653D01*
X1470858Y1961626D01*
X1471918Y1961572D01*
X1472975Y1961493D01*
X1474031Y1961389D01*
X1475084Y1961259D01*
X1476133Y1961105D01*
X1477178Y1960925D01*
X1478219Y1960719D01*
X1479254Y1960489D01*
X1480284Y1960234D01*
X1481307Y1959955D01*
X1482323Y1959651D01*
X1483331Y1959322D01*
X1484332Y1958970D01*
X1485323Y1958593D01*
X1486306Y1958193D01*
X1487278Y1957769D01*
X1485336Y1934463D02*
X1485562Y1934369D01*
X1485786Y1934269D01*
X1486008Y1934165D01*
X1486227Y1934055D01*
X1486443Y1933939D01*
X1486657Y1933819D01*
X1486867Y1933693D01*
X1487075Y1933562D01*
X1487279Y1933426D01*
X1487480Y1933285D01*
X1487677Y1933139D01*
X1487870Y1932989D01*
X1488060Y1932834D01*
X1488246Y1932674D01*
X1488429Y1932510D01*
X1488607Y1932342D01*
X1488781Y1932169D01*
X1488950Y1931992D01*
X1489116Y1931811D01*
X1489276Y1931626D01*
X1489433Y1931437D01*
X1489584Y1931244D01*
X1489731Y1931048D01*
X1489873Y1930848D01*
X1490011Y1930645D01*
X1490143Y1930438D01*
X1490270Y1930229D01*
X1490392Y1930016D01*
X1490509Y1929800D01*
X1490620Y1929582D01*
X1490727Y1929361D01*
X1490827Y1929137D01*
X1490923Y1928911D01*
X1491012Y1928683D01*
X1491096Y1928453D01*
X1491175Y1928221D01*
X1491248Y1927986D01*
X1491315Y1927751D01*
X1491376Y1927513D01*
X1491432Y1927274D01*
X1491482Y1927034D01*
X1491526Y1926793D01*
X1491564Y1926551D01*
X1491596Y1926308D01*
X1491622Y1926064D01*
X1491642Y1925820D01*
X1491656Y1925575D01*
X1491665Y1925330D01*
X1491667Y1925085D01*
X1491663Y1924839D01*
X1491654Y1924594D01*
X1491638Y1924350D01*
X1491617Y1924105D01*
X1491589Y1923862D01*
X1491556Y1923619D01*
X1491517Y1923377D01*
X1491471Y1923136D01*
X1491420Y1922896D01*
X1491364Y1922657D01*
X1491301Y1922420D01*
X1491233Y1922185D01*
X1491158Y1921951D01*
X1491079Y1921719D01*
X1490993Y1921489D01*
X1490902Y1921262D01*
X1490806Y1921036D01*
X1490704Y1920813D01*
X1490597Y1920593D01*
X1490484Y1920375D01*
X1490366Y1920160D01*
X1490243Y1919948D01*
X1490115Y1919739D01*
X1489981Y1919533D01*
X1489843Y1919331D01*
X1489700Y1919132D01*
X1489552Y1918936D01*
X1489399Y1918744D01*
X1489242Y1918556D01*
X1489080Y1918372D01*
X1488914Y1918192D01*
X1488743Y1918016D01*
X1488569Y1917844D01*
X1488390Y1917676D01*
X1488207Y1917513D01*
X1488020Y1917354D01*
X1487829Y1917200D01*
X1487635Y1917051D01*
X1487437Y1916906D01*
X1487235Y1916766D01*
X1487030Y1916631D01*
X1486822Y1916502D01*
X1486611Y1916377D01*
X1486397Y1916257D01*
X1486180Y1916143D01*
X1485960Y1916034D01*
X1485738Y1915931D01*
X1485513Y1915832D01*
X1485286Y1915740D01*
X1485057Y1915653D01*
X1484826Y1915571D01*
X1484593Y1915495D01*
X1484358Y1915425D01*
X1484121Y1915361D01*
X1483883Y1915302D01*
X1483644Y1915250D01*
X1483403Y1915203D01*
X1483161Y1915162D01*
X1482919Y1915126D01*
X1482675Y1915097D01*
X1482431Y1915074D01*
X1482187Y1915056D01*
X1481942Y1915045D01*
X1481696Y1915040D01*
X1481451Y1915040D01*
X1481452Y1915040D02*
X1479894Y1915080D01*
X1478338Y1915158D01*
X1476784Y1915272D01*
X1475233Y1915423D01*
X1473686Y1915611D01*
X1472145Y1915835D01*
X1470608Y1916096D01*
X1469079Y1916392D01*
X1467557Y1916725D01*
X1466043Y1917094D01*
X1464538Y1917499D01*
X1463043Y1917939D01*
X1461560Y1918414D01*
X1460087Y1918924D01*
X1518375Y1915040D02*
X1518375Y1961653D01*
X1516433Y1981075D02*
X1516433Y1984960D01*
X1520317Y1984960D01*
X1520317Y1981075D01*
X1516433Y1981075D01*
X1576341Y1984960D02*
X1576341Y1915040D01*
X1556919Y1915040D01*
X1556637Y1915043D01*
X1556356Y1915054D01*
X1556075Y1915071D01*
X1555794Y1915094D01*
X1555514Y1915125D01*
X1555235Y1915162D01*
X1554957Y1915206D01*
X1554680Y1915257D01*
X1554404Y1915315D01*
X1554130Y1915379D01*
X1553858Y1915449D01*
X1553587Y1915527D01*
X1553318Y1915610D01*
X1553051Y1915701D01*
X1552787Y1915797D01*
X1552525Y1915900D01*
X1552265Y1916010D01*
X1552008Y1916125D01*
X1551754Y1916247D01*
X1551504Y1916375D01*
X1551256Y1916509D01*
X1551011Y1916648D01*
X1550770Y1916794D01*
X1550533Y1916946D01*
X1550299Y1917103D01*
X1550070Y1917266D01*
X1549844Y1917434D01*
X1549622Y1917607D01*
X1549405Y1917786D01*
X1549192Y1917971D01*
X1548983Y1918160D01*
X1548779Y1918354D01*
X1548580Y1918553D01*
X1548386Y1918757D01*
X1548197Y1918966D01*
X1548012Y1919179D01*
X1547833Y1919396D01*
X1547660Y1919618D01*
X1547492Y1919844D01*
X1547329Y1920073D01*
X1547172Y1920307D01*
X1547020Y1920544D01*
X1546874Y1920785D01*
X1546735Y1921030D01*
X1546601Y1921278D01*
X1546473Y1921528D01*
X1546351Y1921782D01*
X1546236Y1922039D01*
X1546126Y1922299D01*
X1546023Y1922561D01*
X1545927Y1922825D01*
X1545836Y1923092D01*
X1545753Y1923361D01*
X1545675Y1923632D01*
X1545605Y1923904D01*
X1545541Y1924178D01*
X1545483Y1924454D01*
X1545432Y1924731D01*
X1545388Y1925009D01*
X1545351Y1925288D01*
X1545320Y1925568D01*
X1545297Y1925849D01*
X1545280Y1926130D01*
X1545269Y1926411D01*
X1545266Y1926693D01*
X1545266Y1950000D01*
X1545269Y1950282D01*
X1545280Y1950563D01*
X1545297Y1950844D01*
X1545320Y1951125D01*
X1545351Y1951405D01*
X1545388Y1951684D01*
X1545432Y1951962D01*
X1545483Y1952239D01*
X1545541Y1952515D01*
X1545605Y1952789D01*
X1545675Y1953061D01*
X1545753Y1953332D01*
X1545836Y1953601D01*
X1545927Y1953868D01*
X1546023Y1954132D01*
X1546126Y1954394D01*
X1546236Y1954654D01*
X1546351Y1954911D01*
X1546473Y1955165D01*
X1546601Y1955415D01*
X1546735Y1955663D01*
X1546874Y1955908D01*
X1547020Y1956149D01*
X1547172Y1956386D01*
X1547329Y1956620D01*
X1547492Y1956849D01*
X1547660Y1957075D01*
X1547833Y1957297D01*
X1548012Y1957514D01*
X1548197Y1957727D01*
X1548386Y1957936D01*
X1548580Y1958140D01*
X1548779Y1958339D01*
X1548983Y1958533D01*
X1549192Y1958722D01*
X1549405Y1958907D01*
X1549622Y1959086D01*
X1549844Y1959259D01*
X1550070Y1959427D01*
X1550299Y1959590D01*
X1550533Y1959747D01*
X1550770Y1959899D01*
X1551011Y1960045D01*
X1551256Y1960184D01*
X1551504Y1960318D01*
X1551754Y1960446D01*
X1552008Y1960568D01*
X1552265Y1960683D01*
X1552525Y1960793D01*
X1552787Y1960896D01*
X1553051Y1960992D01*
X1553318Y1961083D01*
X1553587Y1961166D01*
X1553858Y1961244D01*
X1554130Y1961314D01*
X1554404Y1961378D01*
X1554680Y1961436D01*
X1554957Y1961487D01*
X1555235Y1961531D01*
X1555514Y1961568D01*
X1555794Y1961599D01*
X1556075Y1961622D01*
X1556356Y1961639D01*
X1556637Y1961650D01*
X1556919Y1961653D01*
X1576341Y1961653D01*
X1617990Y1915040D02*
X1637412Y1915040D01*
X1617990Y1915040D02*
X1617708Y1915043D01*
X1617427Y1915054D01*
X1617146Y1915071D01*
X1616865Y1915094D01*
X1616585Y1915125D01*
X1616306Y1915162D01*
X1616028Y1915206D01*
X1615751Y1915257D01*
X1615475Y1915315D01*
X1615201Y1915379D01*
X1614929Y1915449D01*
X1614658Y1915527D01*
X1614389Y1915610D01*
X1614122Y1915701D01*
X1613858Y1915797D01*
X1613596Y1915900D01*
X1613336Y1916010D01*
X1613079Y1916125D01*
X1612825Y1916247D01*
X1612575Y1916375D01*
X1612327Y1916509D01*
X1612082Y1916648D01*
X1611841Y1916794D01*
X1611604Y1916946D01*
X1611370Y1917103D01*
X1611141Y1917266D01*
X1610915Y1917434D01*
X1610693Y1917607D01*
X1610476Y1917786D01*
X1610263Y1917971D01*
X1610054Y1918160D01*
X1609850Y1918354D01*
X1609651Y1918553D01*
X1609457Y1918757D01*
X1609268Y1918966D01*
X1609083Y1919179D01*
X1608904Y1919396D01*
X1608731Y1919618D01*
X1608563Y1919844D01*
X1608400Y1920073D01*
X1608243Y1920307D01*
X1608091Y1920544D01*
X1607945Y1920785D01*
X1607806Y1921030D01*
X1607672Y1921278D01*
X1607544Y1921528D01*
X1607422Y1921782D01*
X1607307Y1922039D01*
X1607197Y1922299D01*
X1607094Y1922561D01*
X1606998Y1922825D01*
X1606907Y1923092D01*
X1606824Y1923361D01*
X1606746Y1923632D01*
X1606676Y1923904D01*
X1606612Y1924178D01*
X1606554Y1924454D01*
X1606503Y1924731D01*
X1606459Y1925009D01*
X1606422Y1925288D01*
X1606391Y1925568D01*
X1606368Y1925849D01*
X1606351Y1926130D01*
X1606340Y1926411D01*
X1606337Y1926693D01*
X1606337Y1946115D01*
X1606336Y1946115D02*
X1606341Y1946493D01*
X1606354Y1946872D01*
X1606377Y1947249D01*
X1606410Y1947626D01*
X1606451Y1948002D01*
X1606502Y1948377D01*
X1606561Y1948751D01*
X1606630Y1949123D01*
X1606708Y1949493D01*
X1606794Y1949862D01*
X1606890Y1950228D01*
X1606995Y1950591D01*
X1607108Y1950952D01*
X1607230Y1951311D01*
X1607361Y1951666D01*
X1607501Y1952017D01*
X1607649Y1952366D01*
X1607805Y1952710D01*
X1607970Y1953051D01*
X1608143Y1953387D01*
X1608324Y1953720D01*
X1608513Y1954047D01*
X1608710Y1954370D01*
X1608915Y1954688D01*
X1609128Y1955001D01*
X1609348Y1955309D01*
X1609576Y1955611D01*
X1609811Y1955908D01*
X1610053Y1956199D01*
X1610302Y1956484D01*
X1610558Y1956763D01*
X1610820Y1957035D01*
X1611089Y1957301D01*
X1611365Y1957560D01*
X1611647Y1957813D01*
X1611935Y1958058D01*
X1612229Y1958297D01*
X1612528Y1958528D01*
X1612833Y1958752D01*
X1613143Y1958968D01*
X1613459Y1959177D01*
X1613780Y1959378D01*
X1614105Y1959571D01*
X1614435Y1959756D01*
X1614769Y1959934D01*
X1615108Y1960103D01*
X1615451Y1960263D01*
X1615797Y1960415D01*
X1616147Y1960559D01*
X1616500Y1960694D01*
X1616857Y1960821D01*
X1617217Y1960939D01*
X1617579Y1961048D01*
X1617944Y1961148D01*
X1618311Y1961239D01*
X1618680Y1961321D01*
X1619052Y1961395D01*
X1619425Y1961459D01*
X1619799Y1961514D01*
X1620175Y1961560D01*
X1620551Y1961597D01*
X1620929Y1961624D01*
X1621307Y1961643D01*
X1621685Y1961652D01*
X1622063Y1961652D01*
X1622441Y1961643D01*
X1622819Y1961624D01*
X1623197Y1961597D01*
X1623573Y1961560D01*
X1623949Y1961514D01*
X1624323Y1961459D01*
X1624696Y1961395D01*
X1625068Y1961321D01*
X1625437Y1961239D01*
X1625804Y1961148D01*
X1626169Y1961048D01*
X1626531Y1960939D01*
X1626891Y1960821D01*
X1627248Y1960694D01*
X1627601Y1960559D01*
X1627951Y1960415D01*
X1628297Y1960263D01*
X1628640Y1960103D01*
X1628979Y1959934D01*
X1629313Y1959756D01*
X1629643Y1959571D01*
X1629968Y1959378D01*
X1630289Y1959177D01*
X1630605Y1958968D01*
X1630915Y1958752D01*
X1631220Y1958528D01*
X1631519Y1958297D01*
X1631813Y1958058D01*
X1632101Y1957813D01*
X1632383Y1957560D01*
X1632659Y1957301D01*
X1632928Y1957035D01*
X1633190Y1956763D01*
X1633446Y1956484D01*
X1633695Y1956199D01*
X1633937Y1955908D01*
X1634172Y1955611D01*
X1634400Y1955309D01*
X1634620Y1955001D01*
X1634833Y1954688D01*
X1635038Y1954370D01*
X1635235Y1954047D01*
X1635424Y1953720D01*
X1635605Y1953387D01*
X1635778Y1953051D01*
X1635943Y1952710D01*
X1636099Y1952366D01*
X1636247Y1952017D01*
X1636387Y1951666D01*
X1636518Y1951311D01*
X1636640Y1950952D01*
X1636753Y1950591D01*
X1636858Y1950228D01*
X1636954Y1949862D01*
X1637040Y1949493D01*
X1637118Y1949123D01*
X1637187Y1948751D01*
X1637246Y1948377D01*
X1637297Y1948002D01*
X1637338Y1947626D01*
X1637371Y1947249D01*
X1637394Y1946872D01*
X1637407Y1946493D01*
X1637412Y1946115D01*
X1637412Y1938347D01*
X1606337Y1938347D01*
X381278Y384960D02*
X381278Y315040D01*
X412353Y315040D01*
X440270Y315040D02*
X440270Y384960D01*
X463576Y346115D01*
X486883Y384960D01*
X486883Y315040D01*
X521577Y315040D02*
X521577Y384960D01*
X540999Y384960D01*
X540999Y384961D02*
X541472Y384955D01*
X541945Y384938D01*
X542417Y384909D01*
X542888Y384869D01*
X543358Y384817D01*
X543827Y384754D01*
X544294Y384679D01*
X544759Y384594D01*
X545222Y384496D01*
X545683Y384388D01*
X546140Y384268D01*
X546595Y384137D01*
X547046Y383996D01*
X547494Y383843D01*
X547937Y383679D01*
X548377Y383505D01*
X548813Y383320D01*
X549243Y383125D01*
X549669Y382919D01*
X550090Y382702D01*
X550505Y382476D01*
X550915Y382239D01*
X551318Y381993D01*
X551716Y381737D01*
X552107Y381471D01*
X552492Y381196D01*
X552870Y380911D01*
X553241Y380618D01*
X553604Y380315D01*
X553960Y380004D01*
X554309Y379684D01*
X554649Y379355D01*
X554982Y379019D01*
X555306Y378675D01*
X555621Y378322D01*
X555928Y377962D01*
X556227Y377595D01*
X556516Y377221D01*
X556796Y376839D01*
X557066Y376451D01*
X557327Y376057D01*
X557578Y375656D01*
X557820Y375250D01*
X558051Y374837D01*
X558273Y374419D01*
X558484Y373996D01*
X558685Y373567D01*
X558875Y373134D01*
X559055Y372697D01*
X559224Y372255D01*
X559382Y371809D01*
X559529Y371360D01*
X559665Y370907D01*
X559790Y370451D01*
X559904Y369992D01*
X560007Y369530D01*
X560099Y369066D01*
X560179Y368600D01*
X560248Y368132D01*
X560305Y367662D01*
X560351Y367192D01*
X560386Y366720D01*
X560409Y366247D01*
X560421Y365775D01*
X560421Y365301D01*
X560409Y364829D01*
X560386Y364356D01*
X560351Y363884D01*
X560305Y363414D01*
X560248Y362944D01*
X560179Y362476D01*
X560099Y362010D01*
X560007Y361546D01*
X559904Y361084D01*
X559790Y360625D01*
X559665Y360169D01*
X559529Y359716D01*
X559382Y359267D01*
X559224Y358821D01*
X559055Y358379D01*
X558875Y357942D01*
X558685Y357509D01*
X558484Y357080D01*
X558273Y356657D01*
X558051Y356239D01*
X557820Y355827D01*
X557578Y355420D01*
X557327Y355019D01*
X557066Y354625D01*
X556796Y354237D01*
X556516Y353855D01*
X556227Y353481D01*
X555928Y353114D01*
X555621Y352754D01*
X555306Y352401D01*
X554982Y352057D01*
X554649Y351721D01*
X554309Y351392D01*
X553960Y351072D01*
X553604Y350761D01*
X553241Y350458D01*
X552870Y350165D01*
X552492Y349880D01*
X552107Y349605D01*
X551716Y349339D01*
X551318Y349083D01*
X550915Y348837D01*
X550505Y348600D01*
X550090Y348374D01*
X549669Y348157D01*
X549243Y347951D01*
X548813Y347756D01*
X548377Y347571D01*
X547937Y347397D01*
X547494Y347233D01*
X547046Y347080D01*
X546595Y346939D01*
X546140Y346808D01*
X545683Y346688D01*
X545222Y346580D01*
X544759Y346482D01*
X544294Y346397D01*
X543827Y346322D01*
X543358Y346259D01*
X542888Y346207D01*
X542417Y346167D01*
X541945Y346138D01*
X541472Y346121D01*
X540999Y346115D01*
X521577Y346115D01*
X601441Y346115D02*
X624748Y346115D01*
X601441Y346115D02*
X601066Y346120D01*
X600690Y346133D01*
X600315Y346156D01*
X599941Y346188D01*
X599568Y346228D01*
X599196Y346278D01*
X598825Y346337D01*
X598456Y346404D01*
X598088Y346481D01*
X597722Y346567D01*
X597359Y346661D01*
X596998Y346764D01*
X596639Y346876D01*
X596284Y346996D01*
X595931Y347125D01*
X595582Y347262D01*
X595236Y347408D01*
X594893Y347562D01*
X594555Y347724D01*
X594220Y347895D01*
X593890Y348073D01*
X593564Y348260D01*
X593242Y348454D01*
X592926Y348656D01*
X592614Y348866D01*
X592308Y349083D01*
X592007Y349307D01*
X591711Y349539D01*
X591421Y349777D01*
X591137Y350023D01*
X590859Y350275D01*
X590587Y350534D01*
X590322Y350800D01*
X590063Y351071D01*
X589811Y351350D01*
X589565Y351634D01*
X589326Y351923D01*
X589095Y352219D01*
X588870Y352520D01*
X588653Y352827D01*
X588444Y353138D01*
X588242Y353455D01*
X588048Y353776D01*
X587861Y354102D01*
X587683Y354432D01*
X587512Y354767D01*
X587350Y355105D01*
X587196Y355448D01*
X587050Y355794D01*
X586913Y356143D01*
X586784Y356496D01*
X586663Y356852D01*
X586552Y357210D01*
X586449Y357571D01*
X586354Y357935D01*
X586269Y358300D01*
X586192Y358668D01*
X586125Y359037D01*
X586066Y359408D01*
X586016Y359780D01*
X585976Y360154D01*
X585944Y360528D01*
X585921Y360903D01*
X585908Y361278D01*
X585903Y361653D01*
X585904Y361653D02*
X585904Y365538D01*
X585910Y366011D01*
X585927Y366484D01*
X585956Y366956D01*
X585996Y367427D01*
X586048Y367897D01*
X586111Y368366D01*
X586186Y368833D01*
X586271Y369298D01*
X586369Y369761D01*
X586477Y370221D01*
X586597Y370679D01*
X586727Y371133D01*
X586869Y371585D01*
X587022Y372032D01*
X587186Y372476D01*
X587360Y372916D01*
X587545Y373351D01*
X587740Y373782D01*
X587946Y374208D01*
X588163Y374628D01*
X588389Y375043D01*
X588626Y375453D01*
X588872Y375857D01*
X589128Y376254D01*
X589394Y376646D01*
X589669Y377030D01*
X589954Y377408D01*
X590247Y377779D01*
X590550Y378143D01*
X590861Y378499D01*
X591181Y378847D01*
X591509Y379188D01*
X591846Y379520D01*
X592190Y379844D01*
X592542Y380160D01*
X592902Y380467D01*
X593269Y380765D01*
X593644Y381054D01*
X594025Y381334D01*
X594413Y381604D01*
X594808Y381865D01*
X595208Y382116D01*
X595615Y382358D01*
X596027Y382589D01*
X596445Y382811D01*
X596869Y383022D01*
X597297Y383223D01*
X597730Y383413D01*
X598167Y383593D01*
X598609Y383762D01*
X599055Y383920D01*
X599504Y384067D01*
X599957Y384203D01*
X600414Y384328D01*
X600873Y384443D01*
X601334Y384545D01*
X601798Y384637D01*
X602264Y384717D01*
X602732Y384786D01*
X603202Y384843D01*
X603673Y384889D01*
X604144Y384924D01*
X604617Y384947D01*
X605090Y384959D01*
X605562Y384959D01*
X606035Y384947D01*
X606508Y384924D01*
X606979Y384889D01*
X607450Y384843D01*
X607920Y384786D01*
X608388Y384717D01*
X608854Y384637D01*
X609318Y384545D01*
X609779Y384443D01*
X610238Y384328D01*
X610695Y384203D01*
X611148Y384067D01*
X611597Y383920D01*
X612043Y383762D01*
X612485Y383593D01*
X612922Y383413D01*
X613355Y383223D01*
X613783Y383022D01*
X614207Y382811D01*
X614625Y382589D01*
X615037Y382358D01*
X615444Y382116D01*
X615844Y381865D01*
X616239Y381604D01*
X616627Y381334D01*
X617008Y381054D01*
X617383Y380765D01*
X617750Y380467D01*
X618110Y380160D01*
X618462Y379844D01*
X618806Y379520D01*
X619143Y379188D01*
X619471Y378847D01*
X619791Y378499D01*
X620102Y378143D01*
X620405Y377779D01*
X620698Y377408D01*
X620983Y377030D01*
X621258Y376646D01*
X621524Y376254D01*
X621780Y375857D01*
X622026Y375453D01*
X622263Y375043D01*
X622489Y374628D01*
X622706Y374208D01*
X622912Y373782D01*
X623107Y373351D01*
X623292Y372916D01*
X623466Y372476D01*
X623630Y372032D01*
X623783Y371585D01*
X623925Y371133D01*
X624055Y370679D01*
X624175Y370221D01*
X624283Y369761D01*
X624381Y369298D01*
X624466Y368833D01*
X624541Y368366D01*
X624604Y367897D01*
X624656Y367427D01*
X624696Y366956D01*
X624725Y366484D01*
X624742Y366011D01*
X624748Y365538D01*
X624748Y346115D01*
X624739Y345364D01*
X624712Y344614D01*
X624666Y343864D01*
X624603Y343116D01*
X624521Y342369D01*
X624422Y341625D01*
X624304Y340883D01*
X624169Y340145D01*
X624016Y339409D01*
X623845Y338678D01*
X623656Y337951D01*
X623450Y337229D01*
X623227Y336512D01*
X622986Y335801D01*
X622729Y335096D01*
X622454Y334397D01*
X622162Y333705D01*
X621854Y333020D01*
X621529Y332343D01*
X621189Y331674D01*
X620832Y331013D01*
X620459Y330361D01*
X620070Y329718D01*
X619666Y329085D01*
X619247Y328462D01*
X618813Y327849D01*
X618364Y327247D01*
X617901Y326656D01*
X617424Y326076D01*
X616933Y325508D01*
X616428Y324952D01*
X615910Y324409D01*
X615379Y323878D01*
X614835Y323360D01*
X614279Y322855D01*
X613711Y322364D01*
X613132Y321887D01*
X612540Y321423D01*
X611938Y320975D01*
X611325Y320541D01*
X610702Y320122D01*
X610069Y319718D01*
X609427Y319329D01*
X608775Y318956D01*
X608114Y318599D01*
X607445Y318258D01*
X606768Y317934D01*
X606083Y317626D01*
X605391Y317334D01*
X604692Y317059D01*
X603987Y316802D01*
X603275Y316561D01*
X602559Y316337D01*
X601836Y316131D01*
X601109Y315943D01*
X600378Y315772D01*
X599643Y315619D01*
X598904Y315484D01*
X598163Y315366D01*
X597418Y315267D01*
X596672Y315185D01*
X595924Y315122D01*
X595174Y315076D01*
X594424Y315049D01*
X593673Y315040D01*
X674768Y384960D02*
X675190Y384955D01*
X675613Y384940D01*
X676034Y384914D01*
X676455Y384878D01*
X676875Y384833D01*
X677294Y384777D01*
X677711Y384710D01*
X678126Y384634D01*
X678540Y384548D01*
X678951Y384452D01*
X679360Y384346D01*
X679766Y384230D01*
X680170Y384104D01*
X680570Y383969D01*
X680966Y383824D01*
X681360Y383670D01*
X681749Y383506D01*
X682134Y383332D01*
X682515Y383150D01*
X682891Y382958D01*
X683263Y382757D01*
X683630Y382547D01*
X683991Y382329D01*
X684347Y382101D01*
X684698Y381866D01*
X685042Y381622D01*
X685381Y381369D01*
X685714Y381109D01*
X686040Y380840D01*
X686359Y380564D01*
X686672Y380280D01*
X686978Y379989D01*
X687277Y379690D01*
X687568Y379384D01*
X687852Y379071D01*
X688128Y378752D01*
X688397Y378426D01*
X688657Y378093D01*
X688910Y377754D01*
X689154Y377410D01*
X689389Y377059D01*
X689617Y376703D01*
X689835Y376342D01*
X690045Y375975D01*
X690246Y375603D01*
X690438Y375227D01*
X690620Y374846D01*
X690794Y374461D01*
X690958Y374072D01*
X691112Y373678D01*
X691257Y373282D01*
X691392Y372882D01*
X691518Y372478D01*
X691634Y372072D01*
X691740Y371663D01*
X691836Y371252D01*
X691922Y370838D01*
X691998Y370423D01*
X692065Y370006D01*
X692121Y369587D01*
X692166Y369167D01*
X692202Y368746D01*
X692228Y368325D01*
X692243Y367902D01*
X692248Y367480D01*
X674768Y384960D02*
X674225Y384953D01*
X673682Y384934D01*
X673140Y384901D01*
X672599Y384855D01*
X672059Y384796D01*
X671521Y384724D01*
X670984Y384639D01*
X670450Y384541D01*
X669918Y384430D01*
X669390Y384306D01*
X668864Y384170D01*
X668342Y384021D01*
X667823Y383859D01*
X667309Y383685D01*
X666799Y383498D01*
X666293Y383300D01*
X665793Y383089D01*
X665298Y382866D01*
X664808Y382631D01*
X664324Y382384D01*
X663847Y382125D01*
X663375Y381856D01*
X662911Y381574D01*
X662453Y381282D01*
X662002Y380979D01*
X661559Y380665D01*
X661124Y380340D01*
X660697Y380005D01*
X660278Y379659D01*
X659867Y379304D01*
X659465Y378939D01*
X659072Y378564D01*
X658688Y378180D01*
X658314Y377786D01*
X657949Y377384D01*
X657594Y376973D01*
X657249Y376553D01*
X656915Y376126D01*
X656590Y375690D01*
X656277Y375246D01*
X655974Y374796D01*
X655682Y374337D01*
X655402Y373872D01*
X655132Y373401D01*
X654875Y372923D01*
X654629Y372439D01*
X654394Y371949D01*
X654172Y371453D01*
X653961Y370953D01*
X653763Y370447D01*
X653577Y369937D01*
X653403Y369422D01*
X686421Y353885D02*
X686751Y354206D01*
X687073Y354536D01*
X687386Y354874D01*
X687691Y355219D01*
X687988Y355572D01*
X688276Y355931D01*
X688555Y356298D01*
X688824Y356671D01*
X689085Y357051D01*
X689336Y357437D01*
X689578Y357830D01*
X689810Y358228D01*
X690032Y358631D01*
X690244Y359040D01*
X690446Y359454D01*
X690638Y359873D01*
X690819Y360297D01*
X690990Y360724D01*
X691151Y361156D01*
X691301Y361592D01*
X691440Y362031D01*
X691568Y362474D01*
X691686Y362919D01*
X691792Y363367D01*
X691887Y363818D01*
X691972Y364271D01*
X692045Y364726D01*
X692107Y365182D01*
X692158Y365640D01*
X692197Y366099D01*
X692225Y366559D01*
X692242Y367019D01*
X692248Y367480D01*
X686421Y353884D02*
X653404Y315040D01*
X692248Y315040D01*
X720904Y350000D02*
X720920Y351375D01*
X720970Y352750D01*
X721052Y354123D01*
X721167Y355494D01*
X721314Y356861D01*
X721494Y358225D01*
X721707Y359584D01*
X721952Y360938D01*
X722229Y362285D01*
X722538Y363625D01*
X722879Y364958D01*
X723252Y366282D01*
X723657Y367597D01*
X724092Y368901D01*
X724559Y370195D01*
X725057Y371478D01*
X725584Y372748D01*
X726143Y374005D01*
X726731Y375249D01*
X726730Y375249D02*
X726847Y375579D01*
X726973Y375905D01*
X727106Y376228D01*
X727247Y376548D01*
X727396Y376864D01*
X727552Y377177D01*
X727716Y377486D01*
X727888Y377790D01*
X728067Y378091D01*
X728253Y378387D01*
X728446Y378678D01*
X728646Y378965D01*
X728853Y379246D01*
X729067Y379523D01*
X729288Y379794D01*
X729515Y380060D01*
X729749Y380320D01*
X729989Y380574D01*
X730235Y380823D01*
X730486Y381065D01*
X730744Y381301D01*
X731008Y381531D01*
X731276Y381754D01*
X731551Y381971D01*
X731830Y382181D01*
X732115Y382384D01*
X732404Y382581D01*
X732698Y382770D01*
X732997Y382952D01*
X733299Y383126D01*
X733606Y383294D01*
X733917Y383453D01*
X734232Y383605D01*
X734551Y383750D01*
X734872Y383886D01*
X735198Y384015D01*
X735526Y384136D01*
X735857Y384248D01*
X736190Y384353D01*
X736526Y384450D01*
X736864Y384538D01*
X737205Y384618D01*
X737547Y384690D01*
X737891Y384753D01*
X738236Y384808D01*
X738582Y384855D01*
X738930Y384893D01*
X739278Y384923D01*
X739627Y384944D01*
X739976Y384957D01*
X740326Y384961D01*
X740326Y384960D02*
X740676Y384956D01*
X741025Y384943D01*
X741374Y384922D01*
X741722Y384892D01*
X742070Y384854D01*
X742416Y384807D01*
X742761Y384752D01*
X743105Y384689D01*
X743447Y384617D01*
X743788Y384537D01*
X744126Y384449D01*
X744462Y384352D01*
X744795Y384247D01*
X745126Y384135D01*
X745454Y384014D01*
X745779Y383885D01*
X746101Y383749D01*
X746419Y383604D01*
X746734Y383452D01*
X747045Y383293D01*
X747352Y383125D01*
X747655Y382951D01*
X747954Y382769D01*
X748248Y382580D01*
X748537Y382384D01*
X748821Y382180D01*
X749101Y381970D01*
X749375Y381754D01*
X749644Y381530D01*
X749907Y381300D01*
X750165Y381064D01*
X750417Y380822D01*
X750663Y380573D01*
X750903Y380319D01*
X751136Y380059D01*
X751363Y379793D01*
X751584Y379522D01*
X751798Y379245D01*
X752005Y378964D01*
X752205Y378677D01*
X752399Y378386D01*
X752585Y378090D01*
X752764Y377790D01*
X752935Y377485D01*
X753099Y377176D01*
X753255Y376864D01*
X753404Y376547D01*
X753545Y376227D01*
X753679Y375904D01*
X753804Y375578D01*
X753921Y375249D01*
X754509Y374005D01*
X755067Y372748D01*
X755595Y371478D01*
X756093Y370195D01*
X756559Y368901D01*
X756995Y367597D01*
X757400Y366282D01*
X757773Y364958D01*
X758114Y363625D01*
X758423Y362285D01*
X758700Y360938D01*
X758945Y359584D01*
X759158Y358225D01*
X759338Y356862D01*
X759485Y355494D01*
X759600Y354123D01*
X759682Y352750D01*
X759732Y351375D01*
X759748Y350000D01*
X720903Y350000D02*
X720919Y348625D01*
X720969Y347250D01*
X721051Y345877D01*
X721166Y344506D01*
X721313Y343138D01*
X721493Y341775D01*
X721706Y340416D01*
X721951Y339062D01*
X722228Y337715D01*
X722537Y336374D01*
X722878Y335042D01*
X723251Y333718D01*
X723656Y332403D01*
X724091Y331098D01*
X724558Y329804D01*
X725056Y328522D01*
X725583Y327252D01*
X726142Y325994D01*
X726730Y324751D01*
X726847Y324422D01*
X726973Y324096D01*
X727106Y323772D01*
X727247Y323453D01*
X727396Y323136D01*
X727552Y322824D01*
X727716Y322515D01*
X727888Y322210D01*
X728067Y321910D01*
X728253Y321614D01*
X728446Y321323D01*
X728646Y321036D01*
X728854Y320755D01*
X729068Y320478D01*
X729288Y320207D01*
X729515Y319941D01*
X729749Y319681D01*
X729989Y319427D01*
X730235Y319178D01*
X730487Y318936D01*
X730744Y318700D01*
X731008Y318470D01*
X731277Y318246D01*
X731551Y318030D01*
X731830Y317820D01*
X732115Y317616D01*
X732404Y317420D01*
X732698Y317231D01*
X732997Y317049D01*
X733300Y316875D01*
X733607Y316707D01*
X733918Y316548D01*
X734232Y316396D01*
X734551Y316251D01*
X734873Y316115D01*
X735198Y315986D01*
X735526Y315865D01*
X735857Y315753D01*
X736190Y315648D01*
X736526Y315551D01*
X736864Y315463D01*
X737205Y315383D01*
X737547Y315311D01*
X737891Y315248D01*
X738236Y315193D01*
X738582Y315146D01*
X738930Y315108D01*
X739278Y315078D01*
X739627Y315057D01*
X739976Y315044D01*
X740326Y315040D01*
X753921Y324751D02*
X754509Y325994D01*
X755067Y327252D01*
X755595Y328522D01*
X756093Y329804D01*
X756559Y331098D01*
X756995Y332403D01*
X757400Y333718D01*
X757773Y335042D01*
X758114Y336374D01*
X758423Y337715D01*
X758700Y339062D01*
X758945Y340416D01*
X759158Y341775D01*
X759338Y343138D01*
X759485Y344506D01*
X759600Y345877D01*
X759682Y347250D01*
X759732Y348625D01*
X759748Y350000D01*
X753921Y324751D02*
X753804Y324422D01*
X753678Y324095D01*
X753545Y323772D01*
X753404Y323452D01*
X753255Y323136D01*
X753099Y322824D01*
X752935Y322515D01*
X752763Y322210D01*
X752585Y321910D01*
X752398Y321614D01*
X752205Y321323D01*
X752005Y321036D01*
X751798Y320755D01*
X751584Y320478D01*
X751363Y320207D01*
X751136Y319941D01*
X750903Y319681D01*
X750663Y319427D01*
X750417Y319178D01*
X750165Y318936D01*
X749907Y318700D01*
X749644Y318470D01*
X749375Y318246D01*
X749101Y318030D01*
X748821Y317820D01*
X748537Y317616D01*
X748248Y317420D01*
X747954Y317231D01*
X747655Y317049D01*
X747352Y316875D01*
X747045Y316707D01*
X746734Y316548D01*
X746419Y316396D01*
X746101Y316251D01*
X745779Y316115D01*
X745454Y315986D01*
X745126Y315865D01*
X744795Y315753D01*
X744462Y315648D01*
X744126Y315551D01*
X743787Y315463D01*
X743447Y315383D01*
X743105Y315311D01*
X742761Y315248D01*
X742416Y315193D01*
X742070Y315146D01*
X741722Y315108D01*
X741374Y315078D01*
X741025Y315057D01*
X740676Y315044D01*
X740326Y315040D01*
X724788Y330578D02*
X755864Y369422D01*
X788404Y353884D02*
X811710Y353884D01*
X811710Y353885D02*
X812085Y353880D01*
X812461Y353867D01*
X812835Y353844D01*
X813210Y353812D01*
X813583Y353772D01*
X813955Y353722D01*
X814326Y353663D01*
X814695Y353596D01*
X815063Y353519D01*
X815428Y353433D01*
X815792Y353339D01*
X816153Y353236D01*
X816512Y353125D01*
X816867Y353004D01*
X817220Y352875D01*
X817569Y352738D01*
X817915Y352592D01*
X818258Y352438D01*
X818596Y352276D01*
X818931Y352105D01*
X819261Y351927D01*
X819587Y351740D01*
X819908Y351546D01*
X820225Y351344D01*
X820537Y351135D01*
X820843Y350918D01*
X821144Y350693D01*
X821440Y350462D01*
X821730Y350223D01*
X822014Y349977D01*
X822292Y349725D01*
X822563Y349466D01*
X822829Y349200D01*
X823088Y348929D01*
X823340Y348651D01*
X823586Y348367D01*
X823825Y348077D01*
X824056Y347781D01*
X824281Y347480D01*
X824498Y347174D01*
X824707Y346862D01*
X824909Y346545D01*
X825103Y346224D01*
X825290Y345898D01*
X825468Y345568D01*
X825639Y345233D01*
X825801Y344895D01*
X825955Y344552D01*
X826101Y344206D01*
X826238Y343857D01*
X826367Y343504D01*
X826488Y343149D01*
X826599Y342790D01*
X826702Y342429D01*
X826796Y342065D01*
X826882Y341700D01*
X826959Y341332D01*
X827026Y340963D01*
X827085Y340592D01*
X827135Y340220D01*
X827175Y339847D01*
X827207Y339472D01*
X827230Y339098D01*
X827243Y338722D01*
X827248Y338347D01*
X827248Y334462D01*
X827242Y333989D01*
X827225Y333516D01*
X827196Y333044D01*
X827156Y332573D01*
X827104Y332103D01*
X827041Y331634D01*
X826966Y331167D01*
X826881Y330702D01*
X826783Y330239D01*
X826675Y329779D01*
X826555Y329321D01*
X826425Y328867D01*
X826283Y328415D01*
X826130Y327968D01*
X825966Y327524D01*
X825792Y327084D01*
X825607Y326649D01*
X825412Y326218D01*
X825206Y325792D01*
X824989Y325372D01*
X824763Y324957D01*
X824526Y324547D01*
X824280Y324143D01*
X824024Y323746D01*
X823758Y323354D01*
X823483Y322970D01*
X823198Y322592D01*
X822905Y322221D01*
X822602Y321857D01*
X822291Y321501D01*
X821971Y321153D01*
X821643Y320812D01*
X821306Y320480D01*
X820962Y320156D01*
X820610Y319840D01*
X820250Y319533D01*
X819883Y319235D01*
X819508Y318946D01*
X819127Y318666D01*
X818739Y318396D01*
X818344Y318135D01*
X817944Y317884D01*
X817537Y317642D01*
X817125Y317411D01*
X816707Y317189D01*
X816283Y316978D01*
X815855Y316777D01*
X815422Y316587D01*
X814985Y316407D01*
X814543Y316238D01*
X814097Y316080D01*
X813648Y315933D01*
X813195Y315797D01*
X812738Y315672D01*
X812279Y315557D01*
X811818Y315455D01*
X811354Y315363D01*
X810888Y315283D01*
X810420Y315214D01*
X809950Y315157D01*
X809479Y315111D01*
X809008Y315076D01*
X808535Y315053D01*
X808062Y315041D01*
X807590Y315041D01*
X807117Y315053D01*
X806644Y315076D01*
X806173Y315111D01*
X805702Y315157D01*
X805232Y315214D01*
X804764Y315283D01*
X804298Y315363D01*
X803834Y315455D01*
X803373Y315557D01*
X802914Y315672D01*
X802457Y315797D01*
X802004Y315933D01*
X801555Y316080D01*
X801109Y316238D01*
X800667Y316407D01*
X800230Y316587D01*
X799797Y316777D01*
X799369Y316978D01*
X798945Y317189D01*
X798527Y317411D01*
X798115Y317642D01*
X797708Y317884D01*
X797308Y318135D01*
X796913Y318396D01*
X796525Y318666D01*
X796144Y318946D01*
X795769Y319235D01*
X795402Y319533D01*
X795042Y319840D01*
X794690Y320156D01*
X794346Y320480D01*
X794009Y320812D01*
X793681Y321153D01*
X793361Y321501D01*
X793050Y321857D01*
X792747Y322221D01*
X792454Y322592D01*
X792169Y322970D01*
X791894Y323354D01*
X791628Y323746D01*
X791372Y324143D01*
X791126Y324547D01*
X790889Y324957D01*
X790663Y325372D01*
X790446Y325792D01*
X790240Y326218D01*
X790045Y326649D01*
X789860Y327084D01*
X789686Y327524D01*
X789522Y327968D01*
X789369Y328415D01*
X789227Y328867D01*
X789097Y329321D01*
X788977Y329779D01*
X788869Y330239D01*
X788771Y330702D01*
X788686Y331167D01*
X788611Y331634D01*
X788548Y332103D01*
X788496Y332573D01*
X788456Y333044D01*
X788427Y333516D01*
X788410Y333989D01*
X788404Y334462D01*
X788404Y353884D01*
X788403Y353884D02*
X788412Y354647D01*
X788440Y355409D01*
X788487Y356170D01*
X788553Y356930D01*
X788637Y357688D01*
X788739Y358444D01*
X788861Y359197D01*
X789000Y359947D01*
X789158Y360693D01*
X789334Y361435D01*
X789529Y362172D01*
X789741Y362905D01*
X789971Y363632D01*
X790220Y364353D01*
X790485Y365068D01*
X790768Y365776D01*
X791069Y366477D01*
X791387Y367171D01*
X791721Y367856D01*
X792072Y368533D01*
X792440Y369201D01*
X792824Y369860D01*
X793224Y370509D01*
X793640Y371149D01*
X794072Y371778D01*
X794518Y372396D01*
X794980Y373003D01*
X795457Y373598D01*
X795948Y374182D01*
X796453Y374753D01*
X796972Y375312D01*
X797505Y375858D01*
X798051Y376391D01*
X798610Y376910D01*
X799181Y377415D01*
X799764Y377906D01*
X800360Y378383D01*
X800967Y378844D01*
X801585Y379291D01*
X802214Y379723D01*
X802853Y380139D01*
X803503Y380539D01*
X804162Y380923D01*
X804830Y381290D01*
X805507Y381642D01*
X806192Y381976D01*
X806886Y382294D01*
X807587Y382594D01*
X808295Y382878D01*
X809010Y383143D01*
X809731Y383391D01*
X810458Y383622D01*
X811190Y383834D01*
X811928Y384029D01*
X812670Y384205D01*
X813416Y384363D01*
X814166Y384502D01*
X814919Y384624D01*
X815675Y384726D01*
X816433Y384810D01*
X817193Y384876D01*
X817954Y384923D01*
X818716Y384951D01*
X819479Y384960D01*
X871441Y384960D02*
X855904Y330578D01*
X894748Y330578D01*
X883095Y346115D02*
X883095Y315040D01*
X944460Y315040D02*
X944835Y315045D01*
X945211Y315058D01*
X945585Y315081D01*
X945960Y315113D01*
X946333Y315153D01*
X946705Y315203D01*
X947076Y315262D01*
X947445Y315329D01*
X947813Y315406D01*
X948178Y315492D01*
X948542Y315586D01*
X948903Y315689D01*
X949262Y315800D01*
X949617Y315921D01*
X949970Y316050D01*
X950319Y316187D01*
X950665Y316333D01*
X951008Y316487D01*
X951346Y316649D01*
X951681Y316820D01*
X952011Y316998D01*
X952337Y317185D01*
X952658Y317379D01*
X952975Y317581D01*
X953287Y317790D01*
X953593Y318007D01*
X953894Y318232D01*
X954190Y318463D01*
X954480Y318702D01*
X954764Y318948D01*
X955042Y319200D01*
X955313Y319459D01*
X955579Y319725D01*
X955838Y319996D01*
X956090Y320274D01*
X956336Y320558D01*
X956575Y320848D01*
X956806Y321144D01*
X957031Y321445D01*
X957248Y321751D01*
X957457Y322063D01*
X957659Y322380D01*
X957853Y322701D01*
X958040Y323027D01*
X958218Y323357D01*
X958389Y323692D01*
X958551Y324030D01*
X958705Y324373D01*
X958851Y324719D01*
X958988Y325068D01*
X959117Y325421D01*
X959238Y325776D01*
X959349Y326135D01*
X959452Y326496D01*
X959546Y326860D01*
X959632Y327225D01*
X959709Y327593D01*
X959776Y327962D01*
X959835Y328333D01*
X959885Y328705D01*
X959925Y329078D01*
X959957Y329453D01*
X959980Y329827D01*
X959993Y330203D01*
X959998Y330578D01*
X944460Y315040D02*
X943675Y315049D01*
X942890Y315078D01*
X942106Y315125D01*
X941323Y315190D01*
X940543Y315275D01*
X939764Y315378D01*
X938988Y315499D01*
X938215Y315639D01*
X937446Y315798D01*
X936681Y315975D01*
X935920Y316170D01*
X935165Y316384D01*
X934414Y316615D01*
X933670Y316864D01*
X932931Y317131D01*
X932199Y317416D01*
X931474Y317718D01*
X930757Y318037D01*
X930047Y318374D01*
X929346Y318727D01*
X928653Y319097D01*
X927969Y319483D01*
X927295Y319886D01*
X926630Y320305D01*
X925976Y320739D01*
X925333Y321189D01*
X924700Y321654D01*
X924078Y322134D01*
X923469Y322629D01*
X922871Y323139D01*
X922286Y323662D01*
X921713Y324200D01*
X921153Y324751D01*
X923095Y369422D02*
X923100Y369797D01*
X923113Y370173D01*
X923136Y370548D01*
X923168Y370922D01*
X923208Y371295D01*
X923258Y371667D01*
X923317Y372038D01*
X923384Y372407D01*
X923461Y372775D01*
X923547Y373141D01*
X923641Y373504D01*
X923744Y373865D01*
X923856Y374224D01*
X923976Y374579D01*
X924105Y374932D01*
X924242Y375281D01*
X924388Y375627D01*
X924542Y375970D01*
X924704Y376308D01*
X924875Y376643D01*
X925053Y376973D01*
X925240Y377299D01*
X925434Y377621D01*
X925636Y377937D01*
X925846Y378249D01*
X926063Y378555D01*
X926287Y378856D01*
X926519Y379152D01*
X926757Y379442D01*
X927003Y379726D01*
X927255Y380004D01*
X927514Y380276D01*
X927780Y380541D01*
X928051Y380800D01*
X928330Y381052D01*
X928614Y381298D01*
X928903Y381537D01*
X929199Y381768D01*
X929500Y381993D01*
X929807Y382210D01*
X930118Y382419D01*
X930435Y382621D01*
X930756Y382815D01*
X931082Y383002D01*
X931412Y383180D01*
X931747Y383351D01*
X932085Y383513D01*
X932428Y383667D01*
X932774Y383813D01*
X933123Y383950D01*
X933476Y384079D01*
X933832Y384200D01*
X934190Y384311D01*
X934551Y384414D01*
X934915Y384509D01*
X935280Y384594D01*
X935648Y384671D01*
X936017Y384738D01*
X936388Y384797D01*
X936760Y384847D01*
X937134Y384887D01*
X937508Y384919D01*
X937883Y384942D01*
X938258Y384955D01*
X938633Y384960D01*
X938634Y384960D02*
X939328Y384952D01*
X940022Y384927D01*
X940715Y384886D01*
X941407Y384828D01*
X942097Y384753D01*
X942785Y384663D01*
X943471Y384555D01*
X944155Y384432D01*
X944835Y384292D01*
X945511Y384136D01*
X946184Y383964D01*
X946853Y383776D01*
X947516Y383573D01*
X948175Y383353D01*
X948828Y383118D01*
X949476Y382867D01*
X950117Y382601D01*
X950752Y382320D01*
X951380Y382024D01*
X952000Y381712D01*
X952614Y381386D01*
X953219Y381046D01*
X953816Y380691D01*
X954404Y380322D01*
X954983Y379940D01*
X955553Y379543D01*
X956113Y379133D01*
X930865Y355826D02*
X930539Y356024D01*
X930218Y356229D01*
X929902Y356442D01*
X929591Y356662D01*
X929286Y356890D01*
X928986Y357125D01*
X928692Y357368D01*
X928404Y357617D01*
X928122Y357874D01*
X927846Y358137D01*
X927577Y358406D01*
X927314Y358682D01*
X927058Y358964D01*
X926809Y359253D01*
X926567Y359547D01*
X926333Y359847D01*
X926105Y360153D01*
X925885Y360464D01*
X925672Y360780D01*
X925468Y361102D01*
X925271Y361428D01*
X925082Y361759D01*
X924901Y362094D01*
X924728Y362433D01*
X924563Y362777D01*
X924407Y363125D01*
X924259Y363476D01*
X924120Y363830D01*
X923989Y364188D01*
X923867Y364549D01*
X923754Y364913D01*
X923649Y365280D01*
X923554Y365648D01*
X923467Y366020D01*
X923390Y366393D01*
X923321Y366767D01*
X923261Y367144D01*
X923211Y367521D01*
X923170Y367900D01*
X923137Y368280D01*
X923114Y368660D01*
X923101Y369041D01*
X923096Y369422D01*
X952230Y344174D02*
X952556Y343977D01*
X952877Y343771D01*
X953193Y343558D01*
X953504Y343338D01*
X953809Y343110D01*
X954109Y342875D01*
X954403Y342632D01*
X954691Y342383D01*
X954973Y342127D01*
X955249Y341864D01*
X955518Y341594D01*
X955780Y341318D01*
X956036Y341036D01*
X956285Y340747D01*
X956527Y340453D01*
X956762Y340153D01*
X956990Y339847D01*
X957210Y339536D01*
X957422Y339220D01*
X957627Y338899D01*
X957824Y338572D01*
X958013Y338242D01*
X958194Y337906D01*
X958367Y337567D01*
X958532Y337223D01*
X958688Y336876D01*
X958836Y336524D01*
X958975Y336170D01*
X959106Y335812D01*
X959228Y335451D01*
X959341Y335087D01*
X959446Y334721D01*
X959541Y334352D01*
X959628Y333981D01*
X959705Y333608D01*
X959774Y333233D01*
X959834Y332856D01*
X959884Y332479D01*
X959925Y332100D01*
X959958Y331720D01*
X959981Y331340D01*
X959994Y330959D01*
X959999Y330578D01*
X952229Y344173D02*
X930865Y355827D01*
X988654Y384960D02*
X988654Y315040D01*
X988654Y384960D02*
X1008076Y384960D01*
X1008545Y384954D01*
X1009014Y384937D01*
X1009483Y384909D01*
X1009951Y384869D01*
X1010417Y384818D01*
X1010882Y384756D01*
X1011346Y384683D01*
X1011808Y384598D01*
X1012267Y384502D01*
X1012724Y384396D01*
X1013178Y384278D01*
X1013630Y384149D01*
X1014078Y384009D01*
X1014522Y383859D01*
X1014963Y383698D01*
X1015400Y383526D01*
X1015833Y383344D01*
X1016261Y383151D01*
X1016684Y382948D01*
X1017102Y382735D01*
X1017515Y382512D01*
X1017922Y382279D01*
X1018324Y382036D01*
X1018720Y381784D01*
X1019109Y381522D01*
X1019492Y381251D01*
X1019868Y380970D01*
X1020238Y380681D01*
X1020600Y380382D01*
X1020955Y380075D01*
X1021303Y379760D01*
X1021643Y379436D01*
X1021974Y379104D01*
X1022298Y378765D01*
X1022614Y378417D01*
X1022921Y378062D01*
X1023219Y377700D01*
X1023508Y377330D01*
X1023789Y376954D01*
X1024060Y376571D01*
X1024322Y376181D01*
X1024574Y375786D01*
X1024817Y375384D01*
X1025050Y374977D01*
X1025273Y374564D01*
X1025487Y374145D01*
X1025689Y373722D01*
X1025882Y373294D01*
X1026064Y372862D01*
X1026236Y372425D01*
X1026397Y371984D01*
X1026547Y371539D01*
X1026687Y371091D01*
X1026816Y370640D01*
X1026934Y370186D01*
X1027040Y369729D01*
X1027136Y369269D01*
X1027221Y368808D01*
X1027294Y368344D01*
X1027356Y367879D01*
X1027407Y367412D01*
X1027447Y366945D01*
X1027475Y366476D01*
X1027492Y366007D01*
X1027498Y365538D01*
X1027498Y334462D01*
X1027499Y334462D02*
X1027493Y333985D01*
X1027476Y333509D01*
X1027446Y333033D01*
X1027405Y332558D01*
X1027353Y332084D01*
X1027289Y331612D01*
X1027213Y331141D01*
X1027126Y330673D01*
X1027027Y330206D01*
X1026917Y329743D01*
X1026795Y329282D01*
X1026663Y328824D01*
X1026519Y328369D01*
X1026364Y327919D01*
X1026198Y327472D01*
X1026021Y327029D01*
X1025833Y326591D01*
X1025634Y326158D01*
X1025425Y325729D01*
X1025206Y325306D01*
X1024976Y324889D01*
X1024736Y324477D01*
X1024486Y324071D01*
X1024226Y323671D01*
X1023956Y323278D01*
X1023677Y322892D01*
X1023388Y322512D01*
X1023090Y322140D01*
X1022783Y321776D01*
X1022468Y321418D01*
X1022143Y321069D01*
X1021810Y320728D01*
X1021469Y320395D01*
X1021120Y320071D01*
X1020763Y319755D01*
X1020398Y319448D01*
X1020026Y319150D01*
X1019646Y318861D01*
X1019260Y318582D01*
X1018867Y318312D01*
X1018467Y318053D01*
X1018062Y317802D01*
X1017650Y317562D01*
X1017232Y317333D01*
X1016809Y317113D01*
X1016381Y316904D01*
X1015947Y316705D01*
X1015509Y316518D01*
X1015066Y316341D01*
X1014620Y316174D01*
X1014169Y316019D01*
X1013714Y315875D01*
X1013257Y315743D01*
X1012796Y315621D01*
X1012332Y315511D01*
X1011866Y315412D01*
X1011397Y315325D01*
X1010926Y315249D01*
X1010454Y315185D01*
X1009980Y315133D01*
X1009505Y315092D01*
X1009029Y315062D01*
X1008553Y315045D01*
X1008076Y315039D01*
X1008076Y315040D02*
X988654Y315040D01*
X1096359Y315040D02*
X1096359Y384960D01*
X1096359Y315040D02*
X1115781Y315040D01*
X1116063Y315043D01*
X1116344Y315054D01*
X1116625Y315071D01*
X1116906Y315094D01*
X1117186Y315125D01*
X1117465Y315162D01*
X1117743Y315206D01*
X1118020Y315257D01*
X1118296Y315315D01*
X1118570Y315379D01*
X1118842Y315449D01*
X1119113Y315527D01*
X1119382Y315610D01*
X1119649Y315701D01*
X1119913Y315797D01*
X1120175Y315900D01*
X1120435Y316010D01*
X1120692Y316125D01*
X1120946Y316247D01*
X1121196Y316375D01*
X1121444Y316509D01*
X1121689Y316648D01*
X1121930Y316794D01*
X1122167Y316946D01*
X1122401Y317103D01*
X1122630Y317266D01*
X1122856Y317434D01*
X1123078Y317607D01*
X1123295Y317786D01*
X1123508Y317971D01*
X1123717Y318160D01*
X1123921Y318354D01*
X1124120Y318553D01*
X1124314Y318757D01*
X1124503Y318966D01*
X1124688Y319179D01*
X1124867Y319396D01*
X1125040Y319618D01*
X1125208Y319844D01*
X1125371Y320073D01*
X1125528Y320307D01*
X1125680Y320544D01*
X1125826Y320785D01*
X1125965Y321030D01*
X1126099Y321278D01*
X1126227Y321528D01*
X1126349Y321782D01*
X1126464Y322039D01*
X1126574Y322299D01*
X1126677Y322561D01*
X1126773Y322825D01*
X1126864Y323092D01*
X1126947Y323361D01*
X1127025Y323632D01*
X1127095Y323904D01*
X1127159Y324178D01*
X1127217Y324454D01*
X1127268Y324731D01*
X1127312Y325009D01*
X1127349Y325288D01*
X1127380Y325568D01*
X1127403Y325849D01*
X1127420Y326130D01*
X1127431Y326411D01*
X1127434Y326693D01*
X1127434Y350000D01*
X1127431Y350282D01*
X1127420Y350563D01*
X1127403Y350844D01*
X1127380Y351125D01*
X1127349Y351405D01*
X1127312Y351684D01*
X1127268Y351962D01*
X1127217Y352239D01*
X1127159Y352515D01*
X1127095Y352789D01*
X1127025Y353061D01*
X1126947Y353332D01*
X1126864Y353601D01*
X1126773Y353868D01*
X1126677Y354132D01*
X1126574Y354394D01*
X1126464Y354654D01*
X1126349Y354911D01*
X1126227Y355165D01*
X1126099Y355415D01*
X1125965Y355663D01*
X1125826Y355908D01*
X1125680Y356149D01*
X1125528Y356386D01*
X1125371Y356620D01*
X1125208Y356849D01*
X1125040Y357075D01*
X1124867Y357297D01*
X1124688Y357514D01*
X1124503Y357727D01*
X1124314Y357936D01*
X1124120Y358140D01*
X1123921Y358339D01*
X1123717Y358533D01*
X1123508Y358722D01*
X1123295Y358907D01*
X1123078Y359086D01*
X1122856Y359259D01*
X1122630Y359427D01*
X1122401Y359590D01*
X1122167Y359747D01*
X1121930Y359899D01*
X1121689Y360045D01*
X1121444Y360184D01*
X1121196Y360318D01*
X1120946Y360446D01*
X1120692Y360568D01*
X1120435Y360683D01*
X1120175Y360793D01*
X1119913Y360896D01*
X1119649Y360992D01*
X1119382Y361083D01*
X1119113Y361166D01*
X1118842Y361244D01*
X1118570Y361314D01*
X1118296Y361378D01*
X1118020Y361436D01*
X1117743Y361487D01*
X1117465Y361531D01*
X1117186Y361568D01*
X1116906Y361599D01*
X1116625Y361622D01*
X1116344Y361639D01*
X1116063Y361650D01*
X1115781Y361653D01*
X1096359Y361653D01*
X1157150Y361653D02*
X1157150Y315040D01*
X1157150Y361653D02*
X1180456Y361653D01*
X1180456Y353884D01*
X1213440Y315040D02*
X1232863Y315040D01*
X1213440Y315040D02*
X1213158Y315043D01*
X1212877Y315054D01*
X1212596Y315071D01*
X1212315Y315094D01*
X1212035Y315125D01*
X1211756Y315162D01*
X1211478Y315206D01*
X1211201Y315257D01*
X1210925Y315315D01*
X1210651Y315379D01*
X1210379Y315449D01*
X1210108Y315527D01*
X1209839Y315610D01*
X1209572Y315701D01*
X1209308Y315797D01*
X1209046Y315900D01*
X1208786Y316010D01*
X1208529Y316125D01*
X1208275Y316247D01*
X1208025Y316375D01*
X1207777Y316509D01*
X1207532Y316648D01*
X1207291Y316794D01*
X1207054Y316946D01*
X1206820Y317103D01*
X1206591Y317266D01*
X1206365Y317434D01*
X1206143Y317607D01*
X1205926Y317786D01*
X1205713Y317971D01*
X1205504Y318160D01*
X1205300Y318354D01*
X1205101Y318553D01*
X1204907Y318757D01*
X1204718Y318966D01*
X1204533Y319179D01*
X1204354Y319396D01*
X1204181Y319618D01*
X1204013Y319844D01*
X1203850Y320073D01*
X1203693Y320307D01*
X1203541Y320544D01*
X1203395Y320785D01*
X1203256Y321030D01*
X1203122Y321278D01*
X1202994Y321528D01*
X1202872Y321782D01*
X1202757Y322039D01*
X1202647Y322299D01*
X1202544Y322561D01*
X1202448Y322825D01*
X1202357Y323092D01*
X1202274Y323361D01*
X1202196Y323632D01*
X1202126Y323904D01*
X1202062Y324178D01*
X1202004Y324454D01*
X1201953Y324731D01*
X1201909Y325009D01*
X1201872Y325288D01*
X1201841Y325568D01*
X1201818Y325849D01*
X1201801Y326130D01*
X1201790Y326411D01*
X1201787Y326693D01*
X1201787Y346115D01*
X1201792Y346493D01*
X1201805Y346872D01*
X1201828Y347249D01*
X1201861Y347626D01*
X1201902Y348002D01*
X1201953Y348377D01*
X1202012Y348751D01*
X1202081Y349123D01*
X1202159Y349493D01*
X1202245Y349862D01*
X1202341Y350228D01*
X1202446Y350591D01*
X1202559Y350952D01*
X1202681Y351311D01*
X1202812Y351666D01*
X1202952Y352017D01*
X1203100Y352366D01*
X1203256Y352710D01*
X1203421Y353051D01*
X1203594Y353387D01*
X1203775Y353720D01*
X1203964Y354047D01*
X1204161Y354370D01*
X1204366Y354688D01*
X1204579Y355001D01*
X1204799Y355309D01*
X1205027Y355611D01*
X1205262Y355908D01*
X1205504Y356199D01*
X1205753Y356484D01*
X1206009Y356763D01*
X1206271Y357035D01*
X1206540Y357301D01*
X1206816Y357560D01*
X1207098Y357813D01*
X1207386Y358058D01*
X1207680Y358297D01*
X1207979Y358528D01*
X1208284Y358752D01*
X1208594Y358968D01*
X1208910Y359177D01*
X1209231Y359378D01*
X1209556Y359571D01*
X1209886Y359756D01*
X1210220Y359934D01*
X1210559Y360103D01*
X1210902Y360263D01*
X1211248Y360415D01*
X1211598Y360559D01*
X1211951Y360694D01*
X1212308Y360821D01*
X1212668Y360939D01*
X1213030Y361048D01*
X1213395Y361148D01*
X1213762Y361239D01*
X1214131Y361321D01*
X1214503Y361395D01*
X1214876Y361459D01*
X1215250Y361514D01*
X1215626Y361560D01*
X1216002Y361597D01*
X1216380Y361624D01*
X1216758Y361643D01*
X1217136Y361652D01*
X1217514Y361652D01*
X1217892Y361643D01*
X1218270Y361624D01*
X1218648Y361597D01*
X1219024Y361560D01*
X1219400Y361514D01*
X1219774Y361459D01*
X1220147Y361395D01*
X1220519Y361321D01*
X1220888Y361239D01*
X1221255Y361148D01*
X1221620Y361048D01*
X1221982Y360939D01*
X1222342Y360821D01*
X1222699Y360694D01*
X1223052Y360559D01*
X1223402Y360415D01*
X1223748Y360263D01*
X1224091Y360103D01*
X1224430Y359934D01*
X1224764Y359756D01*
X1225094Y359571D01*
X1225419Y359378D01*
X1225740Y359177D01*
X1226056Y358968D01*
X1226366Y358752D01*
X1226671Y358528D01*
X1226970Y358297D01*
X1227264Y358058D01*
X1227552Y357813D01*
X1227834Y357560D01*
X1228110Y357301D01*
X1228379Y357035D01*
X1228641Y356763D01*
X1228897Y356484D01*
X1229146Y356199D01*
X1229388Y355908D01*
X1229623Y355611D01*
X1229851Y355309D01*
X1230071Y355001D01*
X1230284Y354688D01*
X1230489Y354370D01*
X1230686Y354047D01*
X1230875Y353720D01*
X1231056Y353387D01*
X1231229Y353051D01*
X1231394Y352710D01*
X1231550Y352366D01*
X1231698Y352017D01*
X1231838Y351666D01*
X1231969Y351311D01*
X1232091Y350952D01*
X1232204Y350591D01*
X1232309Y350228D01*
X1232405Y349862D01*
X1232491Y349493D01*
X1232569Y349123D01*
X1232638Y348751D01*
X1232697Y348377D01*
X1232748Y348002D01*
X1232789Y347626D01*
X1232822Y347249D01*
X1232845Y346872D01*
X1232858Y346493D01*
X1232863Y346115D01*
X1232863Y338347D01*
X1201787Y338347D01*
X1273561Y342231D02*
X1291041Y342231D01*
X1273561Y342231D02*
X1273230Y342227D01*
X1272899Y342215D01*
X1272569Y342195D01*
X1272239Y342167D01*
X1271910Y342130D01*
X1271581Y342086D01*
X1271254Y342034D01*
X1270929Y341974D01*
X1270605Y341906D01*
X1270283Y341830D01*
X1269962Y341746D01*
X1269644Y341655D01*
X1269328Y341555D01*
X1269015Y341448D01*
X1268704Y341334D01*
X1268396Y341212D01*
X1268092Y341082D01*
X1267790Y340945D01*
X1267492Y340801D01*
X1267198Y340650D01*
X1266907Y340491D01*
X1266620Y340326D01*
X1266338Y340153D01*
X1266059Y339974D01*
X1265785Y339788D01*
X1265516Y339595D01*
X1265251Y339396D01*
X1264992Y339191D01*
X1264737Y338979D01*
X1264488Y338761D01*
X1264244Y338537D01*
X1264006Y338307D01*
X1263773Y338072D01*
X1263546Y337830D01*
X1263325Y337584D01*
X1263110Y337332D01*
X1262902Y337075D01*
X1262699Y336813D01*
X1262504Y336546D01*
X1262314Y336274D01*
X1262131Y335998D01*
X1261956Y335718D01*
X1261787Y335433D01*
X1261624Y335144D01*
X1261470Y334852D01*
X1261322Y334555D01*
X1261181Y334256D01*
X1261048Y333952D01*
X1260922Y333646D01*
X1260804Y333337D01*
X1260693Y333025D01*
X1260590Y332710D01*
X1260495Y332393D01*
X1260407Y332074D01*
X1260327Y331753D01*
X1260255Y331429D01*
X1260191Y331105D01*
X1260135Y330778D01*
X1260087Y330451D01*
X1260047Y330122D01*
X1260014Y329792D01*
X1259990Y329462D01*
X1259974Y329132D01*
X1259966Y328801D01*
X1259966Y328469D01*
X1259974Y328138D01*
X1259990Y327808D01*
X1260014Y327478D01*
X1260047Y327148D01*
X1260087Y326819D01*
X1260135Y326492D01*
X1260191Y326165D01*
X1260255Y325841D01*
X1260327Y325517D01*
X1260407Y325196D01*
X1260495Y324877D01*
X1260590Y324560D01*
X1260693Y324245D01*
X1260804Y323933D01*
X1260922Y323624D01*
X1261048Y323318D01*
X1261181Y323014D01*
X1261322Y322715D01*
X1261470Y322418D01*
X1261624Y322126D01*
X1261787Y321837D01*
X1261956Y321552D01*
X1262131Y321272D01*
X1262314Y320996D01*
X1262504Y320724D01*
X1262699Y320457D01*
X1262902Y320195D01*
X1263110Y319938D01*
X1263325Y319686D01*
X1263546Y319440D01*
X1263773Y319198D01*
X1264006Y318963D01*
X1264244Y318733D01*
X1264488Y318509D01*
X1264737Y318291D01*
X1264992Y318079D01*
X1265251Y317874D01*
X1265516Y317675D01*
X1265785Y317482D01*
X1266059Y317296D01*
X1266338Y317117D01*
X1266620Y316944D01*
X1266907Y316779D01*
X1267198Y316620D01*
X1267492Y316469D01*
X1267790Y316325D01*
X1268092Y316188D01*
X1268396Y316058D01*
X1268704Y315936D01*
X1269015Y315822D01*
X1269328Y315715D01*
X1269644Y315615D01*
X1269962Y315524D01*
X1270283Y315440D01*
X1270605Y315364D01*
X1270929Y315296D01*
X1271254Y315236D01*
X1271581Y315184D01*
X1271910Y315140D01*
X1272239Y315103D01*
X1272569Y315075D01*
X1272899Y315055D01*
X1273230Y315043D01*
X1273561Y315039D01*
X1273561Y315040D02*
X1291041Y315040D01*
X1291041Y350000D01*
X1291038Y350282D01*
X1291027Y350563D01*
X1291010Y350844D01*
X1290987Y351125D01*
X1290956Y351405D01*
X1290919Y351684D01*
X1290875Y351962D01*
X1290824Y352239D01*
X1290766Y352515D01*
X1290702Y352789D01*
X1290632Y353061D01*
X1290554Y353332D01*
X1290471Y353601D01*
X1290380Y353868D01*
X1290284Y354132D01*
X1290181Y354394D01*
X1290071Y354654D01*
X1289956Y354911D01*
X1289834Y355165D01*
X1289706Y355415D01*
X1289572Y355663D01*
X1289433Y355908D01*
X1289287Y356149D01*
X1289135Y356386D01*
X1288978Y356620D01*
X1288815Y356849D01*
X1288647Y357075D01*
X1288474Y357297D01*
X1288295Y357514D01*
X1288110Y357727D01*
X1287921Y357936D01*
X1287727Y358140D01*
X1287528Y358339D01*
X1287324Y358533D01*
X1287115Y358722D01*
X1286902Y358907D01*
X1286685Y359086D01*
X1286463Y359259D01*
X1286237Y359427D01*
X1286008Y359590D01*
X1285774Y359747D01*
X1285537Y359899D01*
X1285296Y360045D01*
X1285051Y360184D01*
X1284803Y360318D01*
X1284553Y360446D01*
X1284299Y360568D01*
X1284042Y360683D01*
X1283782Y360793D01*
X1283520Y360896D01*
X1283256Y360992D01*
X1282989Y361083D01*
X1282720Y361166D01*
X1282449Y361244D01*
X1282177Y361314D01*
X1281903Y361378D01*
X1281627Y361436D01*
X1281350Y361487D01*
X1281072Y361531D01*
X1280793Y361568D01*
X1280513Y361599D01*
X1280232Y361622D01*
X1279951Y361639D01*
X1279670Y361650D01*
X1279388Y361653D01*
X1263850Y361653D01*
X1324025Y384960D02*
X1324025Y315040D01*
X1324025Y338347D02*
X1355101Y361653D01*
X1337621Y348058D02*
X1355101Y315040D01*
X1379536Y330578D02*
X1379536Y346115D01*
X1379541Y346493D01*
X1379554Y346872D01*
X1379577Y347249D01*
X1379610Y347626D01*
X1379651Y348002D01*
X1379702Y348377D01*
X1379761Y348751D01*
X1379830Y349123D01*
X1379908Y349493D01*
X1379994Y349862D01*
X1380090Y350228D01*
X1380195Y350591D01*
X1380308Y350952D01*
X1380430Y351311D01*
X1380561Y351666D01*
X1380701Y352017D01*
X1380849Y352366D01*
X1381005Y352710D01*
X1381170Y353051D01*
X1381343Y353387D01*
X1381524Y353720D01*
X1381713Y354047D01*
X1381910Y354370D01*
X1382115Y354688D01*
X1382328Y355001D01*
X1382548Y355309D01*
X1382776Y355611D01*
X1383011Y355908D01*
X1383253Y356199D01*
X1383502Y356484D01*
X1383758Y356763D01*
X1384020Y357035D01*
X1384289Y357301D01*
X1384565Y357560D01*
X1384847Y357813D01*
X1385135Y358058D01*
X1385429Y358297D01*
X1385728Y358528D01*
X1386033Y358752D01*
X1386343Y358968D01*
X1386659Y359177D01*
X1386980Y359378D01*
X1387305Y359571D01*
X1387635Y359756D01*
X1387969Y359934D01*
X1388308Y360103D01*
X1388651Y360263D01*
X1388997Y360415D01*
X1389347Y360559D01*
X1389700Y360694D01*
X1390057Y360821D01*
X1390417Y360939D01*
X1390779Y361048D01*
X1391144Y361148D01*
X1391511Y361239D01*
X1391880Y361321D01*
X1392252Y361395D01*
X1392625Y361459D01*
X1392999Y361514D01*
X1393375Y361560D01*
X1393751Y361597D01*
X1394129Y361624D01*
X1394507Y361643D01*
X1394885Y361652D01*
X1395263Y361652D01*
X1395641Y361643D01*
X1396019Y361624D01*
X1396397Y361597D01*
X1396773Y361560D01*
X1397149Y361514D01*
X1397523Y361459D01*
X1397896Y361395D01*
X1398268Y361321D01*
X1398637Y361239D01*
X1399004Y361148D01*
X1399369Y361048D01*
X1399731Y360939D01*
X1400091Y360821D01*
X1400448Y360694D01*
X1400801Y360559D01*
X1401151Y360415D01*
X1401497Y360263D01*
X1401840Y360103D01*
X1402179Y359934D01*
X1402513Y359756D01*
X1402843Y359571D01*
X1403168Y359378D01*
X1403489Y359177D01*
X1403805Y358968D01*
X1404115Y358752D01*
X1404420Y358528D01*
X1404719Y358297D01*
X1405013Y358058D01*
X1405301Y357813D01*
X1405583Y357560D01*
X1405859Y357301D01*
X1406128Y357035D01*
X1406390Y356763D01*
X1406646Y356484D01*
X1406895Y356199D01*
X1407137Y355908D01*
X1407372Y355611D01*
X1407600Y355309D01*
X1407820Y355001D01*
X1408033Y354688D01*
X1408238Y354370D01*
X1408435Y354047D01*
X1408624Y353720D01*
X1408805Y353387D01*
X1408978Y353051D01*
X1409143Y352710D01*
X1409299Y352366D01*
X1409447Y352017D01*
X1409587Y351666D01*
X1409718Y351311D01*
X1409840Y350952D01*
X1409953Y350591D01*
X1410058Y350228D01*
X1410154Y349862D01*
X1410240Y349493D01*
X1410318Y349123D01*
X1410387Y348751D01*
X1410446Y348377D01*
X1410497Y348002D01*
X1410538Y347626D01*
X1410571Y347249D01*
X1410594Y346872D01*
X1410607Y346493D01*
X1410612Y346115D01*
X1410612Y330578D01*
X1410607Y330200D01*
X1410594Y329821D01*
X1410571Y329444D01*
X1410538Y329067D01*
X1410497Y328691D01*
X1410446Y328316D01*
X1410387Y327942D01*
X1410318Y327570D01*
X1410240Y327200D01*
X1410154Y326831D01*
X1410058Y326465D01*
X1409953Y326102D01*
X1409840Y325741D01*
X1409718Y325382D01*
X1409587Y325027D01*
X1409447Y324676D01*
X1409299Y324327D01*
X1409143Y323983D01*
X1408978Y323642D01*
X1408805Y323306D01*
X1408624Y322973D01*
X1408435Y322646D01*
X1408238Y322323D01*
X1408033Y322005D01*
X1407820Y321692D01*
X1407600Y321384D01*
X1407372Y321082D01*
X1407137Y320785D01*
X1406895Y320494D01*
X1406646Y320209D01*
X1406390Y319930D01*
X1406128Y319658D01*
X1405859Y319392D01*
X1405583Y319133D01*
X1405301Y318880D01*
X1405013Y318635D01*
X1404719Y318396D01*
X1404420Y318165D01*
X1404115Y317941D01*
X1403805Y317725D01*
X1403489Y317516D01*
X1403168Y317315D01*
X1402843Y317122D01*
X1402513Y316937D01*
X1402179Y316759D01*
X1401840Y316590D01*
X1401497Y316430D01*
X1401151Y316278D01*
X1400801Y316134D01*
X1400448Y315999D01*
X1400091Y315872D01*
X1399731Y315754D01*
X1399369Y315645D01*
X1399004Y315545D01*
X1398637Y315454D01*
X1398268Y315372D01*
X1397896Y315298D01*
X1397523Y315234D01*
X1397149Y315179D01*
X1396773Y315133D01*
X1396397Y315096D01*
X1396019Y315069D01*
X1395641Y315050D01*
X1395263Y315041D01*
X1394885Y315041D01*
X1394507Y315050D01*
X1394129Y315069D01*
X1393751Y315096D01*
X1393375Y315133D01*
X1392999Y315179D01*
X1392625Y315234D01*
X1392252Y315298D01*
X1391880Y315372D01*
X1391511Y315454D01*
X1391144Y315545D01*
X1390779Y315645D01*
X1390417Y315754D01*
X1390057Y315872D01*
X1389700Y315999D01*
X1389347Y316134D01*
X1388997Y316278D01*
X1388651Y316430D01*
X1388308Y316590D01*
X1387969Y316759D01*
X1387635Y316937D01*
X1387305Y317122D01*
X1386980Y317315D01*
X1386659Y317516D01*
X1386343Y317725D01*
X1386033Y317941D01*
X1385728Y318165D01*
X1385429Y318396D01*
X1385135Y318635D01*
X1384847Y318880D01*
X1384565Y319133D01*
X1384289Y319392D01*
X1384020Y319658D01*
X1383758Y319930D01*
X1383502Y320209D01*
X1383253Y320494D01*
X1383011Y320785D01*
X1382776Y321082D01*
X1382548Y321384D01*
X1382328Y321692D01*
X1382115Y322005D01*
X1381910Y322323D01*
X1381713Y322646D01*
X1381524Y322973D01*
X1381343Y323306D01*
X1381170Y323642D01*
X1381005Y323983D01*
X1380849Y324327D01*
X1380701Y324676D01*
X1380561Y325027D01*
X1380430Y325382D01*
X1380308Y325741D01*
X1380195Y326102D01*
X1380090Y326465D01*
X1379994Y326831D01*
X1379908Y327200D01*
X1379830Y327570D01*
X1379761Y327942D01*
X1379702Y328316D01*
X1379651Y328691D01*
X1379610Y329067D01*
X1379577Y329444D01*
X1379554Y329821D01*
X1379541Y330200D01*
X1379536Y330578D01*
X1440286Y326693D02*
X1440286Y361653D01*
X1440286Y326693D02*
X1440289Y326411D01*
X1440300Y326130D01*
X1440317Y325849D01*
X1440340Y325568D01*
X1440371Y325288D01*
X1440408Y325009D01*
X1440452Y324731D01*
X1440503Y324454D01*
X1440561Y324178D01*
X1440625Y323904D01*
X1440695Y323632D01*
X1440773Y323361D01*
X1440856Y323092D01*
X1440947Y322825D01*
X1441043Y322561D01*
X1441146Y322299D01*
X1441256Y322039D01*
X1441371Y321782D01*
X1441493Y321528D01*
X1441621Y321278D01*
X1441755Y321030D01*
X1441894Y320785D01*
X1442040Y320544D01*
X1442192Y320307D01*
X1442349Y320073D01*
X1442512Y319844D01*
X1442680Y319618D01*
X1442853Y319396D01*
X1443032Y319179D01*
X1443217Y318966D01*
X1443406Y318757D01*
X1443600Y318553D01*
X1443799Y318354D01*
X1444003Y318160D01*
X1444212Y317971D01*
X1444425Y317786D01*
X1444642Y317607D01*
X1444864Y317434D01*
X1445090Y317266D01*
X1445319Y317103D01*
X1445553Y316946D01*
X1445790Y316794D01*
X1446031Y316648D01*
X1446276Y316509D01*
X1446524Y316375D01*
X1446774Y316247D01*
X1447028Y316125D01*
X1447285Y316010D01*
X1447545Y315900D01*
X1447807Y315797D01*
X1448071Y315701D01*
X1448338Y315610D01*
X1448607Y315527D01*
X1448878Y315449D01*
X1449150Y315379D01*
X1449424Y315315D01*
X1449700Y315257D01*
X1449977Y315206D01*
X1450255Y315162D01*
X1450534Y315125D01*
X1450814Y315094D01*
X1451095Y315071D01*
X1451376Y315054D01*
X1451657Y315043D01*
X1451939Y315040D01*
X1471361Y315040D01*
X1471361Y361653D01*
X1495416Y361653D02*
X1518723Y361653D01*
X1503185Y384960D02*
X1503185Y326693D01*
X1503188Y326411D01*
X1503199Y326130D01*
X1503216Y325849D01*
X1503239Y325568D01*
X1503270Y325288D01*
X1503307Y325009D01*
X1503351Y324731D01*
X1503402Y324454D01*
X1503460Y324178D01*
X1503524Y323904D01*
X1503594Y323632D01*
X1503672Y323361D01*
X1503755Y323092D01*
X1503846Y322825D01*
X1503942Y322561D01*
X1504045Y322299D01*
X1504155Y322039D01*
X1504270Y321782D01*
X1504392Y321528D01*
X1504520Y321277D01*
X1504654Y321030D01*
X1504794Y320785D01*
X1504939Y320544D01*
X1505091Y320307D01*
X1505248Y320073D01*
X1505411Y319843D01*
X1505579Y319618D01*
X1505753Y319396D01*
X1505932Y319179D01*
X1506116Y318966D01*
X1506305Y318757D01*
X1506499Y318553D01*
X1506698Y318354D01*
X1506902Y318160D01*
X1507111Y317970D01*
X1507324Y317786D01*
X1507541Y317607D01*
X1507763Y317434D01*
X1507989Y317265D01*
X1508218Y317103D01*
X1508452Y316946D01*
X1508690Y316794D01*
X1508931Y316648D01*
X1509175Y316509D01*
X1509423Y316375D01*
X1509674Y316247D01*
X1509928Y316125D01*
X1510184Y316010D01*
X1510444Y315900D01*
X1510706Y315797D01*
X1510971Y315701D01*
X1511237Y315610D01*
X1511506Y315526D01*
X1511777Y315449D01*
X1512050Y315379D01*
X1512324Y315314D01*
X1512599Y315257D01*
X1512876Y315206D01*
X1513155Y315162D01*
X1513434Y315125D01*
X1513714Y315094D01*
X1513994Y315071D01*
X1514275Y315054D01*
X1514557Y315043D01*
X1514838Y315040D01*
X1518723Y315040D01*
D13*
X1950000Y2275000D02*
X350000Y2275000D01*
X1950000Y2275000D02*
X1950000Y1800000D01*
X350000Y1800000D01*
X350000Y2275000D01*
D14*
X1050000Y1525000D02*
X1450000Y1525000D01*
X1450000Y1025000D02*
X1050000Y1025000D01*
X1450000Y1475000D02*
X1450000Y1525000D01*
X1450000Y1075000D02*
X1450000Y1025000D01*
X1050000Y1475000D02*
X1050000Y1525000D01*
X1050000Y1075000D02*
X1050000Y1025000D01*
D11*
X995000Y1575000D02*
X995002Y1575141D01*
X995008Y1575282D01*
X995018Y1575422D01*
X995032Y1575562D01*
X995050Y1575702D01*
X995071Y1575841D01*
X995097Y1575980D01*
X995126Y1576118D01*
X995160Y1576254D01*
X995197Y1576390D01*
X995238Y1576525D01*
X995283Y1576659D01*
X995332Y1576791D01*
X995384Y1576922D01*
X995440Y1577051D01*
X995500Y1577178D01*
X995563Y1577304D01*
X995629Y1577428D01*
X995700Y1577551D01*
X995773Y1577671D01*
X995850Y1577789D01*
X995930Y1577905D01*
X996014Y1578018D01*
X996100Y1578129D01*
X996190Y1578238D01*
X996283Y1578344D01*
X996378Y1578447D01*
X996477Y1578548D01*
X996578Y1578646D01*
X996682Y1578741D01*
X996789Y1578833D01*
X996898Y1578922D01*
X997010Y1579007D01*
X997124Y1579090D01*
X997240Y1579170D01*
X997359Y1579246D01*
X997480Y1579318D01*
X997602Y1579388D01*
X997727Y1579453D01*
X997853Y1579516D01*
X997981Y1579574D01*
X998111Y1579629D01*
X998242Y1579681D01*
X998375Y1579728D01*
X998509Y1579772D01*
X998644Y1579813D01*
X998780Y1579849D01*
X998917Y1579881D01*
X999055Y1579910D01*
X999193Y1579935D01*
X999333Y1579955D01*
X999473Y1579972D01*
X999613Y1579985D01*
X999754Y1579994D01*
X999894Y1579999D01*
X1000035Y1580000D01*
X1000176Y1579997D01*
X1000317Y1579990D01*
X1000457Y1579979D01*
X1000597Y1579964D01*
X1000737Y1579945D01*
X1000876Y1579923D01*
X1001014Y1579896D01*
X1001152Y1579866D01*
X1001288Y1579831D01*
X1001424Y1579793D01*
X1001558Y1579751D01*
X1001692Y1579705D01*
X1001824Y1579656D01*
X1001954Y1579602D01*
X1002083Y1579545D01*
X1002210Y1579485D01*
X1002336Y1579421D01*
X1002459Y1579353D01*
X1002581Y1579282D01*
X1002701Y1579208D01*
X1002818Y1579130D01*
X1002933Y1579049D01*
X1003046Y1578965D01*
X1003157Y1578878D01*
X1003265Y1578787D01*
X1003370Y1578694D01*
X1003473Y1578597D01*
X1003573Y1578498D01*
X1003670Y1578396D01*
X1003764Y1578291D01*
X1003855Y1578184D01*
X1003943Y1578074D01*
X1004028Y1577962D01*
X1004110Y1577847D01*
X1004189Y1577730D01*
X1004264Y1577611D01*
X1004336Y1577490D01*
X1004404Y1577367D01*
X1004469Y1577242D01*
X1004531Y1577115D01*
X1004588Y1576986D01*
X1004643Y1576856D01*
X1004693Y1576725D01*
X1004740Y1576592D01*
X1004783Y1576458D01*
X1004822Y1576322D01*
X1004857Y1576186D01*
X1004889Y1576049D01*
X1004916Y1575911D01*
X1004940Y1575772D01*
X1004960Y1575632D01*
X1004976Y1575492D01*
X1004988Y1575352D01*
X1004996Y1575211D01*
X1005000Y1575070D01*
X1005000Y1574930D01*
X1004996Y1574789D01*
X1004988Y1574648D01*
X1004976Y1574508D01*
X1004960Y1574368D01*
X1004940Y1574228D01*
X1004916Y1574089D01*
X1004889Y1573951D01*
X1004857Y1573814D01*
X1004822Y1573678D01*
X1004783Y1573542D01*
X1004740Y1573408D01*
X1004693Y1573275D01*
X1004643Y1573144D01*
X1004588Y1573014D01*
X1004531Y1572885D01*
X1004469Y1572758D01*
X1004404Y1572633D01*
X1004336Y1572510D01*
X1004264Y1572389D01*
X1004189Y1572270D01*
X1004110Y1572153D01*
X1004028Y1572038D01*
X1003943Y1571926D01*
X1003855Y1571816D01*
X1003764Y1571709D01*
X1003670Y1571604D01*
X1003573Y1571502D01*
X1003473Y1571403D01*
X1003370Y1571306D01*
X1003265Y1571213D01*
X1003157Y1571122D01*
X1003046Y1571035D01*
X1002933Y1570951D01*
X1002818Y1570870D01*
X1002701Y1570792D01*
X1002581Y1570718D01*
X1002459Y1570647D01*
X1002336Y1570579D01*
X1002210Y1570515D01*
X1002083Y1570455D01*
X1001954Y1570398D01*
X1001824Y1570344D01*
X1001692Y1570295D01*
X1001558Y1570249D01*
X1001424Y1570207D01*
X1001288Y1570169D01*
X1001152Y1570134D01*
X1001014Y1570104D01*
X1000876Y1570077D01*
X1000737Y1570055D01*
X1000597Y1570036D01*
X1000457Y1570021D01*
X1000317Y1570010D01*
X1000176Y1570003D01*
X1000035Y1570000D01*
X999894Y1570001D01*
X999754Y1570006D01*
X999613Y1570015D01*
X999473Y1570028D01*
X999333Y1570045D01*
X999193Y1570065D01*
X999055Y1570090D01*
X998917Y1570119D01*
X998780Y1570151D01*
X998644Y1570187D01*
X998509Y1570228D01*
X998375Y1570272D01*
X998242Y1570319D01*
X998111Y1570371D01*
X997981Y1570426D01*
X997853Y1570484D01*
X997727Y1570547D01*
X997602Y1570612D01*
X997480Y1570682D01*
X997359Y1570754D01*
X997240Y1570830D01*
X997124Y1570910D01*
X997010Y1570993D01*
X996898Y1571078D01*
X996789Y1571167D01*
X996682Y1571259D01*
X996578Y1571354D01*
X996477Y1571452D01*
X996378Y1571553D01*
X996283Y1571656D01*
X996190Y1571762D01*
X996100Y1571871D01*
X996014Y1571982D01*
X995930Y1572095D01*
X995850Y1572211D01*
X995773Y1572329D01*
X995700Y1572449D01*
X995629Y1572572D01*
X995563Y1572696D01*
X995500Y1572822D01*
X995440Y1572949D01*
X995384Y1573078D01*
X995332Y1573209D01*
X995283Y1573341D01*
X995238Y1573475D01*
X995197Y1573610D01*
X995160Y1573746D01*
X995126Y1573882D01*
X995097Y1574020D01*
X995071Y1574159D01*
X995050Y1574298D01*
X995032Y1574438D01*
X995018Y1574578D01*
X995008Y1574718D01*
X995002Y1574859D01*
X995000Y1575000D01*
D12*
X1189048Y1565040D02*
X1189048Y1634960D01*
X1181280Y1565040D02*
X1196817Y1565040D01*
X1196817Y1634960D02*
X1181280Y1634960D01*
X1238983Y1565040D02*
X1254521Y1565040D01*
X1238983Y1565040D02*
X1238608Y1565045D01*
X1238232Y1565058D01*
X1237858Y1565081D01*
X1237483Y1565113D01*
X1237110Y1565153D01*
X1236738Y1565203D01*
X1236367Y1565262D01*
X1235998Y1565329D01*
X1235630Y1565406D01*
X1235265Y1565492D01*
X1234901Y1565586D01*
X1234540Y1565689D01*
X1234181Y1565800D01*
X1233826Y1565921D01*
X1233473Y1566050D01*
X1233124Y1566187D01*
X1232778Y1566333D01*
X1232435Y1566487D01*
X1232097Y1566649D01*
X1231762Y1566820D01*
X1231432Y1566998D01*
X1231106Y1567185D01*
X1230785Y1567379D01*
X1230468Y1567581D01*
X1230156Y1567790D01*
X1229850Y1568007D01*
X1229549Y1568232D01*
X1229253Y1568463D01*
X1228963Y1568702D01*
X1228679Y1568948D01*
X1228401Y1569200D01*
X1228130Y1569459D01*
X1227864Y1569725D01*
X1227605Y1569996D01*
X1227353Y1570274D01*
X1227107Y1570558D01*
X1226868Y1570848D01*
X1226637Y1571144D01*
X1226412Y1571445D01*
X1226195Y1571751D01*
X1225986Y1572063D01*
X1225784Y1572380D01*
X1225590Y1572701D01*
X1225403Y1573027D01*
X1225225Y1573357D01*
X1225054Y1573692D01*
X1224892Y1574030D01*
X1224738Y1574373D01*
X1224592Y1574719D01*
X1224455Y1575068D01*
X1224326Y1575421D01*
X1224205Y1575776D01*
X1224094Y1576135D01*
X1223991Y1576496D01*
X1223897Y1576860D01*
X1223811Y1577225D01*
X1223734Y1577593D01*
X1223667Y1577962D01*
X1223608Y1578333D01*
X1223558Y1578705D01*
X1223518Y1579078D01*
X1223486Y1579453D01*
X1223463Y1579827D01*
X1223450Y1580203D01*
X1223445Y1580578D01*
X1223445Y1619422D01*
X1223450Y1619803D01*
X1223464Y1620184D01*
X1223487Y1620565D01*
X1223520Y1620945D01*
X1223562Y1621324D01*
X1223613Y1621702D01*
X1223674Y1622078D01*
X1223744Y1622453D01*
X1223823Y1622826D01*
X1223911Y1623197D01*
X1224008Y1623566D01*
X1224114Y1623932D01*
X1224229Y1624296D01*
X1224353Y1624657D01*
X1224486Y1625014D01*
X1224628Y1625368D01*
X1224778Y1625719D01*
X1224937Y1626065D01*
X1225104Y1626408D01*
X1225280Y1626746D01*
X1225464Y1627081D01*
X1225656Y1627410D01*
X1225856Y1627735D01*
X1226064Y1628054D01*
X1226279Y1628369D01*
X1226503Y1628678D01*
X1226734Y1628981D01*
X1226972Y1629279D01*
X1227217Y1629571D01*
X1227470Y1629857D01*
X1227730Y1630136D01*
X1227996Y1630409D01*
X1228269Y1630675D01*
X1228548Y1630935D01*
X1228834Y1631187D01*
X1229126Y1631433D01*
X1229423Y1631671D01*
X1229727Y1631902D01*
X1230036Y1632126D01*
X1230350Y1632341D01*
X1230670Y1632549D01*
X1230995Y1632749D01*
X1231324Y1632941D01*
X1231658Y1633125D01*
X1231997Y1633301D01*
X1232339Y1633468D01*
X1232686Y1633627D01*
X1233037Y1633777D01*
X1233391Y1633919D01*
X1233748Y1634052D01*
X1234109Y1634176D01*
X1234472Y1634291D01*
X1234839Y1634397D01*
X1235207Y1634494D01*
X1235578Y1634582D01*
X1235951Y1634661D01*
X1236326Y1634731D01*
X1236703Y1634792D01*
X1237081Y1634843D01*
X1237460Y1634885D01*
X1237840Y1634918D01*
X1238220Y1634941D01*
X1238601Y1634955D01*
X1238983Y1634960D01*
X1254521Y1634960D01*
X1279876Y1619422D02*
X1299298Y1634960D01*
X1299298Y1565040D01*
X1279876Y1565040D02*
X1318721Y1565040D01*
X784960Y1272029D02*
X715040Y1272029D01*
X715040Y1291451D01*
X715046Y1291924D01*
X715063Y1292397D01*
X715092Y1292869D01*
X715132Y1293340D01*
X715184Y1293810D01*
X715247Y1294279D01*
X715322Y1294746D01*
X715407Y1295211D01*
X715505Y1295674D01*
X715613Y1296134D01*
X715733Y1296592D01*
X715863Y1297046D01*
X716005Y1297498D01*
X716158Y1297945D01*
X716322Y1298389D01*
X716496Y1298829D01*
X716681Y1299264D01*
X716876Y1299695D01*
X717082Y1300121D01*
X717299Y1300541D01*
X717525Y1300956D01*
X717762Y1301366D01*
X718008Y1301770D01*
X718264Y1302167D01*
X718530Y1302559D01*
X718805Y1302943D01*
X719090Y1303321D01*
X719383Y1303692D01*
X719686Y1304056D01*
X719997Y1304412D01*
X720317Y1304760D01*
X720645Y1305101D01*
X720982Y1305433D01*
X721326Y1305757D01*
X721678Y1306073D01*
X722038Y1306380D01*
X722405Y1306678D01*
X722780Y1306967D01*
X723161Y1307247D01*
X723549Y1307517D01*
X723944Y1307778D01*
X724344Y1308029D01*
X724751Y1308271D01*
X725163Y1308502D01*
X725581Y1308724D01*
X726005Y1308935D01*
X726433Y1309136D01*
X726866Y1309326D01*
X727303Y1309506D01*
X727745Y1309675D01*
X728191Y1309833D01*
X728640Y1309980D01*
X729093Y1310116D01*
X729550Y1310241D01*
X730009Y1310356D01*
X730470Y1310458D01*
X730934Y1310550D01*
X731400Y1310630D01*
X731868Y1310699D01*
X732338Y1310756D01*
X732809Y1310802D01*
X733280Y1310837D01*
X733753Y1310860D01*
X734226Y1310872D01*
X734698Y1310872D01*
X735171Y1310860D01*
X735644Y1310837D01*
X736115Y1310802D01*
X736586Y1310756D01*
X737056Y1310699D01*
X737524Y1310630D01*
X737990Y1310550D01*
X738454Y1310458D01*
X738915Y1310356D01*
X739374Y1310241D01*
X739831Y1310116D01*
X740284Y1309980D01*
X740733Y1309833D01*
X741179Y1309675D01*
X741621Y1309506D01*
X742058Y1309326D01*
X742491Y1309136D01*
X742919Y1308935D01*
X743343Y1308724D01*
X743761Y1308502D01*
X744173Y1308271D01*
X744580Y1308029D01*
X744980Y1307778D01*
X745375Y1307517D01*
X745763Y1307247D01*
X746144Y1306967D01*
X746519Y1306678D01*
X746886Y1306380D01*
X747246Y1306073D01*
X747598Y1305757D01*
X747942Y1305433D01*
X748279Y1305101D01*
X748607Y1304760D01*
X748927Y1304412D01*
X749238Y1304056D01*
X749541Y1303692D01*
X749834Y1303321D01*
X750119Y1302943D01*
X750394Y1302559D01*
X750660Y1302167D01*
X750916Y1301770D01*
X751162Y1301366D01*
X751399Y1300956D01*
X751625Y1300541D01*
X751842Y1300121D01*
X752048Y1299695D01*
X752243Y1299264D01*
X752428Y1298829D01*
X752602Y1298389D01*
X752766Y1297945D01*
X752919Y1297498D01*
X753061Y1297046D01*
X753191Y1296592D01*
X753311Y1296134D01*
X753419Y1295674D01*
X753517Y1295211D01*
X753602Y1294746D01*
X753677Y1294279D01*
X753740Y1293810D01*
X753792Y1293340D01*
X753832Y1292869D01*
X753861Y1292397D01*
X753878Y1291924D01*
X753884Y1291451D01*
X753885Y1291451D02*
X753885Y1272029D01*
X753885Y1295335D02*
X784960Y1310873D01*
X730578Y1339127D02*
X715040Y1358549D01*
X784960Y1358549D01*
X784960Y1339127D02*
X784960Y1377972D01*
D14*
X1686000Y2067000D02*
X1686000Y543000D01*
X1686000Y2067000D02*
X1940000Y2067000D01*
X1940000Y543000D01*
X1686000Y543000D01*
D15*
X2003000Y676000D02*
X2003003Y676245D01*
X2003012Y676491D01*
X2003027Y676736D01*
X2003048Y676980D01*
X2003075Y677224D01*
X2003108Y677467D01*
X2003147Y677710D01*
X2003192Y677951D01*
X2003243Y678191D01*
X2003300Y678430D01*
X2003362Y678667D01*
X2003431Y678903D01*
X2003505Y679137D01*
X2003585Y679369D01*
X2003670Y679599D01*
X2003761Y679827D01*
X2003858Y680052D01*
X2003960Y680276D01*
X2004068Y680496D01*
X2004181Y680714D01*
X2004299Y680929D01*
X2004423Y681141D01*
X2004551Y681350D01*
X2004685Y681556D01*
X2004824Y681758D01*
X2004968Y681957D01*
X2005117Y682152D01*
X2005270Y682344D01*
X2005428Y682532D01*
X2005590Y682716D01*
X2005758Y682895D01*
X2005929Y683071D01*
X2006105Y683242D01*
X2006284Y683410D01*
X2006468Y683572D01*
X2006656Y683730D01*
X2006848Y683883D01*
X2007043Y684032D01*
X2007242Y684176D01*
X2007444Y684315D01*
X2007650Y684449D01*
X2007859Y684577D01*
X2008071Y684701D01*
X2008286Y684819D01*
X2008504Y684932D01*
X2008724Y685040D01*
X2008948Y685142D01*
X2009173Y685239D01*
X2009401Y685330D01*
X2009631Y685415D01*
X2009863Y685495D01*
X2010097Y685569D01*
X2010333Y685638D01*
X2010570Y685700D01*
X2010809Y685757D01*
X2011049Y685808D01*
X2011290Y685853D01*
X2011533Y685892D01*
X2011776Y685925D01*
X2012020Y685952D01*
X2012264Y685973D01*
X2012509Y685988D01*
X2012755Y685997D01*
X2013000Y686000D01*
X2013245Y685997D01*
X2013491Y685988D01*
X2013736Y685973D01*
X2013980Y685952D01*
X2014224Y685925D01*
X2014467Y685892D01*
X2014710Y685853D01*
X2014951Y685808D01*
X2015191Y685757D01*
X2015430Y685700D01*
X2015667Y685638D01*
X2015903Y685569D01*
X2016137Y685495D01*
X2016369Y685415D01*
X2016599Y685330D01*
X2016827Y685239D01*
X2017052Y685142D01*
X2017276Y685040D01*
X2017496Y684932D01*
X2017714Y684819D01*
X2017929Y684701D01*
X2018141Y684577D01*
X2018350Y684449D01*
X2018556Y684315D01*
X2018758Y684176D01*
X2018957Y684032D01*
X2019152Y683883D01*
X2019344Y683730D01*
X2019532Y683572D01*
X2019716Y683410D01*
X2019895Y683242D01*
X2020071Y683071D01*
X2020242Y682895D01*
X2020410Y682716D01*
X2020572Y682532D01*
X2020730Y682344D01*
X2020883Y682152D01*
X2021032Y681957D01*
X2021176Y681758D01*
X2021315Y681556D01*
X2021449Y681350D01*
X2021577Y681141D01*
X2021701Y680929D01*
X2021819Y680714D01*
X2021932Y680496D01*
X2022040Y680276D01*
X2022142Y680052D01*
X2022239Y679827D01*
X2022330Y679599D01*
X2022415Y679369D01*
X2022495Y679137D01*
X2022569Y678903D01*
X2022638Y678667D01*
X2022700Y678430D01*
X2022757Y678191D01*
X2022808Y677951D01*
X2022853Y677710D01*
X2022892Y677467D01*
X2022925Y677224D01*
X2022952Y676980D01*
X2022973Y676736D01*
X2022988Y676491D01*
X2022997Y676245D01*
X2023000Y676000D01*
X2022997Y675755D01*
X2022988Y675509D01*
X2022973Y675264D01*
X2022952Y675020D01*
X2022925Y674776D01*
X2022892Y674533D01*
X2022853Y674290D01*
X2022808Y674049D01*
X2022757Y673809D01*
X2022700Y673570D01*
X2022638Y673333D01*
X2022569Y673097D01*
X2022495Y672863D01*
X2022415Y672631D01*
X2022330Y672401D01*
X2022239Y672173D01*
X2022142Y671948D01*
X2022040Y671724D01*
X2021932Y671504D01*
X2021819Y671286D01*
X2021701Y671071D01*
X2021577Y670859D01*
X2021449Y670650D01*
X2021315Y670444D01*
X2021176Y670242D01*
X2021032Y670043D01*
X2020883Y669848D01*
X2020730Y669656D01*
X2020572Y669468D01*
X2020410Y669284D01*
X2020242Y669105D01*
X2020071Y668929D01*
X2019895Y668758D01*
X2019716Y668590D01*
X2019532Y668428D01*
X2019344Y668270D01*
X2019152Y668117D01*
X2018957Y667968D01*
X2018758Y667824D01*
X2018556Y667685D01*
X2018350Y667551D01*
X2018141Y667423D01*
X2017929Y667299D01*
X2017714Y667181D01*
X2017496Y667068D01*
X2017276Y666960D01*
X2017052Y666858D01*
X2016827Y666761D01*
X2016599Y666670D01*
X2016369Y666585D01*
X2016137Y666505D01*
X2015903Y666431D01*
X2015667Y666362D01*
X2015430Y666300D01*
X2015191Y666243D01*
X2014951Y666192D01*
X2014710Y666147D01*
X2014467Y666108D01*
X2014224Y666075D01*
X2013980Y666048D01*
X2013736Y666027D01*
X2013491Y666012D01*
X2013245Y666003D01*
X2013000Y666000D01*
X2012755Y666003D01*
X2012509Y666012D01*
X2012264Y666027D01*
X2012020Y666048D01*
X2011776Y666075D01*
X2011533Y666108D01*
X2011290Y666147D01*
X2011049Y666192D01*
X2010809Y666243D01*
X2010570Y666300D01*
X2010333Y666362D01*
X2010097Y666431D01*
X2009863Y666505D01*
X2009631Y666585D01*
X2009401Y666670D01*
X2009173Y666761D01*
X2008948Y666858D01*
X2008724Y666960D01*
X2008504Y667068D01*
X2008286Y667181D01*
X2008071Y667299D01*
X2007859Y667423D01*
X2007650Y667551D01*
X2007444Y667685D01*
X2007242Y667824D01*
X2007043Y667968D01*
X2006848Y668117D01*
X2006656Y668270D01*
X2006468Y668428D01*
X2006284Y668590D01*
X2006105Y668758D01*
X2005929Y668929D01*
X2005758Y669105D01*
X2005590Y669284D01*
X2005428Y669468D01*
X2005270Y669656D01*
X2005117Y669848D01*
X2004968Y670043D01*
X2004824Y670242D01*
X2004685Y670444D01*
X2004551Y670650D01*
X2004423Y670859D01*
X2004299Y671071D01*
X2004181Y671286D01*
X2004068Y671504D01*
X2003960Y671724D01*
X2003858Y671948D01*
X2003761Y672173D01*
X2003670Y672401D01*
X2003585Y672631D01*
X2003505Y672863D01*
X2003431Y673097D01*
X2003362Y673333D01*
X2003300Y673570D01*
X2003243Y673809D01*
X2003192Y674049D01*
X2003147Y674290D01*
X2003108Y674533D01*
X2003075Y674776D01*
X2003048Y675020D01*
X2003027Y675264D01*
X2003012Y675509D01*
X2003003Y675755D01*
X2003000Y676000D01*
D16*
X434609Y2091310D02*
X434609Y2158690D01*
X434609Y2091310D02*
X464556Y2091310D01*
X490708Y2110027D02*
X490708Y2139973D01*
X490707Y2139973D02*
X490713Y2140429D01*
X490729Y2140884D01*
X490757Y2141339D01*
X490796Y2141793D01*
X490846Y2142246D01*
X490906Y2142698D01*
X490978Y2143148D01*
X491061Y2143597D01*
X491155Y2144043D01*
X491259Y2144486D01*
X491375Y2144927D01*
X491501Y2145365D01*
X491637Y2145800D01*
X491784Y2146232D01*
X491942Y2146659D01*
X492110Y2147083D01*
X492288Y2147503D01*
X492477Y2147918D01*
X492675Y2148328D01*
X492884Y2148733D01*
X493102Y2149133D01*
X493330Y2149528D01*
X493567Y2149917D01*
X493814Y2150300D01*
X494070Y2150677D01*
X494335Y2151048D01*
X494610Y2151412D01*
X494893Y2151770D01*
X495184Y2152120D01*
X495484Y2152463D01*
X495792Y2152799D01*
X496109Y2153127D01*
X496433Y2153447D01*
X496765Y2153760D01*
X497104Y2154064D01*
X497451Y2154360D01*
X497805Y2154647D01*
X498166Y2154926D01*
X498533Y2155195D01*
X498907Y2155456D01*
X499287Y2155708D01*
X499674Y2155950D01*
X500066Y2156182D01*
X500463Y2156405D01*
X500866Y2156619D01*
X501274Y2156822D01*
X501686Y2157016D01*
X502104Y2157199D01*
X502525Y2157372D01*
X502951Y2157535D01*
X503381Y2157688D01*
X503814Y2157829D01*
X504250Y2157961D01*
X504690Y2158081D01*
X505132Y2158191D01*
X505577Y2158290D01*
X506024Y2158379D01*
X506474Y2158456D01*
X506924Y2158522D01*
X507377Y2158578D01*
X507831Y2158622D01*
X508285Y2158655D01*
X508740Y2158678D01*
X509196Y2158689D01*
X509652Y2158689D01*
X510108Y2158678D01*
X510563Y2158655D01*
X511017Y2158622D01*
X511471Y2158578D01*
X511924Y2158522D01*
X512374Y2158456D01*
X512824Y2158379D01*
X513271Y2158290D01*
X513716Y2158191D01*
X514158Y2158081D01*
X514598Y2157961D01*
X515034Y2157829D01*
X515467Y2157688D01*
X515897Y2157535D01*
X516323Y2157372D01*
X516744Y2157199D01*
X517162Y2157016D01*
X517574Y2156822D01*
X517982Y2156619D01*
X518385Y2156405D01*
X518783Y2156182D01*
X519174Y2155950D01*
X519561Y2155708D01*
X519941Y2155456D01*
X520315Y2155195D01*
X520682Y2154926D01*
X521043Y2154647D01*
X521397Y2154360D01*
X521744Y2154064D01*
X522083Y2153760D01*
X522415Y2153447D01*
X522739Y2153127D01*
X523056Y2152799D01*
X523364Y2152463D01*
X523664Y2152120D01*
X523955Y2151770D01*
X524238Y2151412D01*
X524513Y2151048D01*
X524778Y2150677D01*
X525034Y2150300D01*
X525281Y2149917D01*
X525518Y2149528D01*
X525746Y2149133D01*
X525964Y2148733D01*
X526173Y2148328D01*
X526371Y2147918D01*
X526560Y2147503D01*
X526738Y2147083D01*
X526906Y2146659D01*
X527064Y2146232D01*
X527211Y2145800D01*
X527347Y2145365D01*
X527473Y2144927D01*
X527589Y2144486D01*
X527693Y2144043D01*
X527787Y2143597D01*
X527870Y2143148D01*
X527942Y2142698D01*
X528002Y2142246D01*
X528052Y2141793D01*
X528091Y2141339D01*
X528119Y2140884D01*
X528135Y2140429D01*
X528141Y2139973D01*
X528141Y2110027D01*
X528135Y2109571D01*
X528119Y2109116D01*
X528091Y2108661D01*
X528052Y2108207D01*
X528002Y2107754D01*
X527942Y2107302D01*
X527870Y2106852D01*
X527787Y2106403D01*
X527693Y2105957D01*
X527589Y2105514D01*
X527473Y2105073D01*
X527347Y2104635D01*
X527211Y2104200D01*
X527064Y2103768D01*
X526906Y2103341D01*
X526738Y2102917D01*
X526560Y2102497D01*
X526371Y2102082D01*
X526173Y2101672D01*
X525964Y2101267D01*
X525746Y2100867D01*
X525518Y2100472D01*
X525281Y2100083D01*
X525034Y2099700D01*
X524778Y2099323D01*
X524513Y2098952D01*
X524238Y2098588D01*
X523955Y2098230D01*
X523664Y2097880D01*
X523364Y2097537D01*
X523056Y2097201D01*
X522739Y2096873D01*
X522415Y2096553D01*
X522083Y2096240D01*
X521744Y2095936D01*
X521397Y2095640D01*
X521043Y2095353D01*
X520682Y2095074D01*
X520315Y2094805D01*
X519941Y2094544D01*
X519561Y2094292D01*
X519174Y2094050D01*
X518783Y2093818D01*
X518385Y2093595D01*
X517982Y2093381D01*
X517574Y2093178D01*
X517162Y2092984D01*
X516744Y2092801D01*
X516323Y2092628D01*
X515897Y2092465D01*
X515467Y2092312D01*
X515034Y2092171D01*
X514598Y2092039D01*
X514158Y2091919D01*
X513716Y2091809D01*
X513271Y2091710D01*
X512824Y2091621D01*
X512374Y2091544D01*
X511924Y2091478D01*
X511471Y2091422D01*
X511017Y2091378D01*
X510563Y2091345D01*
X510108Y2091322D01*
X509652Y2091311D01*
X509196Y2091311D01*
X508740Y2091322D01*
X508285Y2091345D01*
X507831Y2091378D01*
X507377Y2091422D01*
X506924Y2091478D01*
X506474Y2091544D01*
X506024Y2091621D01*
X505577Y2091710D01*
X505132Y2091809D01*
X504690Y2091919D01*
X504250Y2092039D01*
X503814Y2092171D01*
X503381Y2092312D01*
X502951Y2092465D01*
X502525Y2092628D01*
X502104Y2092801D01*
X501686Y2092984D01*
X501274Y2093178D01*
X500866Y2093381D01*
X500463Y2093595D01*
X500066Y2093818D01*
X499674Y2094050D01*
X499287Y2094292D01*
X498907Y2094544D01*
X498533Y2094805D01*
X498166Y2095074D01*
X497805Y2095353D01*
X497451Y2095640D01*
X497104Y2095936D01*
X496765Y2096240D01*
X496433Y2096553D01*
X496109Y2096873D01*
X495792Y2097201D01*
X495484Y2097537D01*
X495184Y2097880D01*
X494893Y2098230D01*
X494610Y2098588D01*
X494335Y2098952D01*
X494070Y2099323D01*
X493814Y2099700D01*
X493567Y2100083D01*
X493330Y2100472D01*
X493102Y2100867D01*
X492884Y2101267D01*
X492675Y2101672D01*
X492477Y2102082D01*
X492288Y2102497D01*
X492110Y2102917D01*
X491942Y2103341D01*
X491784Y2103768D01*
X491637Y2104200D01*
X491501Y2104635D01*
X491375Y2105073D01*
X491259Y2105514D01*
X491155Y2105957D01*
X491061Y2106403D01*
X490978Y2106852D01*
X490906Y2107302D01*
X490846Y2107754D01*
X490796Y2108207D01*
X490757Y2108661D01*
X490729Y2109116D01*
X490713Y2109571D01*
X490707Y2110027D01*
X554464Y2091310D02*
X576924Y2158690D01*
X599384Y2091310D01*
X593769Y2108155D02*
X560079Y2108155D01*
X627958Y2091310D02*
X627958Y2158690D01*
X646674Y2158690D01*
X647126Y2158685D01*
X647578Y2158668D01*
X648030Y2158641D01*
X648480Y2158603D01*
X648930Y2158554D01*
X649378Y2158494D01*
X649825Y2158423D01*
X650270Y2158341D01*
X650713Y2158249D01*
X651153Y2158146D01*
X651591Y2158033D01*
X652026Y2157908D01*
X652458Y2157774D01*
X652886Y2157629D01*
X653311Y2157474D01*
X653732Y2157308D01*
X654149Y2157133D01*
X654561Y2156947D01*
X654969Y2156751D01*
X655372Y2156546D01*
X655770Y2156331D01*
X656163Y2156106D01*
X656550Y2155872D01*
X656931Y2155629D01*
X657307Y2155377D01*
X657676Y2155115D01*
X658038Y2154845D01*
X658394Y2154566D01*
X658744Y2154279D01*
X659086Y2153983D01*
X659421Y2153679D01*
X659748Y2153367D01*
X660068Y2153047D01*
X660380Y2152719D01*
X660684Y2152385D01*
X660980Y2152042D01*
X661267Y2151693D01*
X661546Y2151337D01*
X661816Y2150974D01*
X662078Y2150605D01*
X662330Y2150230D01*
X662574Y2149849D01*
X662808Y2149462D01*
X663032Y2149069D01*
X663247Y2148671D01*
X663453Y2148268D01*
X663648Y2147860D01*
X663834Y2147448D01*
X664009Y2147031D01*
X664175Y2146610D01*
X664330Y2146185D01*
X664475Y2145757D01*
X664610Y2145325D01*
X664734Y2144890D01*
X664847Y2144452D01*
X664950Y2144012D01*
X665042Y2143569D01*
X665124Y2143124D01*
X665195Y2142677D01*
X665255Y2142229D01*
X665304Y2141779D01*
X665342Y2141328D01*
X665369Y2140877D01*
X665386Y2140425D01*
X665391Y2139973D01*
X665391Y2110027D01*
X665385Y2109568D01*
X665368Y2109109D01*
X665340Y2108650D01*
X665301Y2108192D01*
X665250Y2107736D01*
X665188Y2107281D01*
X665115Y2106827D01*
X665031Y2106376D01*
X664936Y2105926D01*
X664830Y2105479D01*
X664713Y2105035D01*
X664585Y2104594D01*
X664446Y2104156D01*
X664297Y2103721D01*
X664137Y2103291D01*
X663966Y2102864D01*
X663785Y2102442D01*
X663594Y2102025D01*
X663393Y2101612D01*
X663181Y2101204D01*
X662959Y2100802D01*
X662728Y2100405D01*
X662487Y2100014D01*
X662237Y2099628D01*
X661977Y2099250D01*
X661708Y2098877D01*
X661430Y2098512D01*
X661143Y2098153D01*
X660847Y2097802D01*
X660542Y2097458D01*
X660230Y2097121D01*
X659909Y2096792D01*
X659580Y2096471D01*
X659244Y2096159D01*
X658900Y2095854D01*
X658548Y2095559D01*
X658189Y2095272D01*
X657824Y2094993D01*
X657452Y2094724D01*
X657073Y2094464D01*
X656688Y2094214D01*
X656297Y2093973D01*
X655900Y2093742D01*
X655497Y2093520D01*
X655090Y2093309D01*
X654677Y2093107D01*
X654259Y2092916D01*
X653837Y2092735D01*
X653410Y2092564D01*
X652980Y2092404D01*
X652545Y2092255D01*
X652108Y2092116D01*
X651666Y2091988D01*
X651222Y2091871D01*
X650775Y2091765D01*
X650326Y2091670D01*
X649874Y2091586D01*
X649421Y2091513D01*
X648965Y2091451D01*
X648509Y2091400D01*
X648051Y2091361D01*
X647593Y2091333D01*
X647134Y2091316D01*
X646674Y2091310D01*
X627958Y2091310D01*
M02*
