G04 EAGLE Gerber RS-274X export*
G75*
%MOMM*%
%FSLAX35Y35*%
%LPD*%
%INsolder_paste_bottom*%
%IPPOS*%
%AMOC8*
5,1,8,0,0,1.08239X$1,22.5*%
G01*
%ADD10C,0.010000*%
%ADD11R,0.700000X0.600000*%
%ADD12R,0.900000X0.700000*%


D10*
X2100000Y0D02*
X300000Y0D01*
X292751Y88D01*
X285506Y350D01*
X278270Y788D01*
X271046Y1401D01*
X263839Y2187D01*
X256653Y3148D01*
X249493Y4282D01*
X242362Y5589D01*
X235265Y7068D01*
X228205Y8717D01*
X221188Y10537D01*
X214216Y12526D01*
X207295Y14683D01*
X200428Y17006D01*
X193619Y19495D01*
X186872Y22148D01*
X180191Y24962D01*
X173580Y27938D01*
X167043Y31072D01*
X160583Y34363D01*
X154205Y37810D01*
X147912Y41409D01*
X141708Y45160D01*
X135596Y49059D01*
X129581Y53105D01*
X123664Y57295D01*
X117851Y61627D01*
X112144Y66098D01*
X106547Y70705D01*
X101063Y75447D01*
X95695Y80319D01*
X90447Y85320D01*
X85320Y90447D01*
X80319Y95695D01*
X75447Y101063D01*
X70705Y106547D01*
X66098Y112144D01*
X61627Y117851D01*
X57295Y123664D01*
X53105Y129581D01*
X49059Y135596D01*
X45160Y141708D01*
X41409Y147912D01*
X37810Y154205D01*
X34363Y160583D01*
X31072Y167043D01*
X27938Y173580D01*
X24962Y180191D01*
X22148Y186872D01*
X19495Y193619D01*
X17006Y200428D01*
X14683Y207295D01*
X12526Y214216D01*
X10537Y221188D01*
X8717Y228205D01*
X7068Y235265D01*
X5589Y242362D01*
X4282Y249493D01*
X3148Y256653D01*
X2187Y263839D01*
X1401Y271046D01*
X788Y278270D01*
X350Y285506D01*
X88Y292751D01*
X0Y300000D01*
X0Y2300000D01*
X88Y2307249D01*
X350Y2314494D01*
X788Y2321730D01*
X1401Y2328954D01*
X2187Y2336161D01*
X3148Y2343347D01*
X4282Y2350507D01*
X5589Y2357638D01*
X7068Y2364735D01*
X8717Y2371795D01*
X10537Y2378812D01*
X12526Y2385784D01*
X14683Y2392705D01*
X17006Y2399572D01*
X19495Y2406381D01*
X22148Y2413128D01*
X24962Y2419809D01*
X27938Y2426420D01*
X31072Y2432957D01*
X34363Y2439417D01*
X37810Y2445795D01*
X41409Y2452088D01*
X45160Y2458292D01*
X49059Y2464404D01*
X53105Y2470419D01*
X57295Y2476336D01*
X61627Y2482149D01*
X66098Y2487856D01*
X70705Y2493453D01*
X75447Y2498937D01*
X80319Y2504305D01*
X85320Y2509553D01*
X90447Y2514680D01*
X95695Y2519681D01*
X101063Y2524553D01*
X106547Y2529295D01*
X112144Y2533902D01*
X117851Y2538373D01*
X123664Y2542705D01*
X129581Y2546895D01*
X135596Y2550941D01*
X141708Y2554840D01*
X147912Y2558591D01*
X154205Y2562190D01*
X160583Y2565637D01*
X167043Y2568928D01*
X173580Y2572062D01*
X180191Y2575038D01*
X186872Y2577852D01*
X193619Y2580505D01*
X200428Y2582994D01*
X207295Y2585317D01*
X214216Y2587474D01*
X221188Y2589463D01*
X228205Y2591283D01*
X235265Y2592932D01*
X242362Y2594411D01*
X249493Y2595718D01*
X256653Y2596852D01*
X263839Y2597813D01*
X271046Y2598599D01*
X278270Y2599212D01*
X285506Y2599650D01*
X292751Y2599912D01*
X300000Y2600000D01*
X2100000Y2600000D01*
X2107249Y2599912D01*
X2114494Y2599650D01*
X2121730Y2599212D01*
X2128954Y2598599D01*
X2136161Y2597813D01*
X2143347Y2596852D01*
X2150507Y2595718D01*
X2157638Y2594411D01*
X2164735Y2592932D01*
X2171795Y2591283D01*
X2178812Y2589463D01*
X2185784Y2587474D01*
X2192705Y2585317D01*
X2199572Y2582994D01*
X2206381Y2580505D01*
X2213128Y2577852D01*
X2219809Y2575038D01*
X2226420Y2572062D01*
X2232957Y2568928D01*
X2239417Y2565637D01*
X2245795Y2562190D01*
X2252088Y2558591D01*
X2258292Y2554840D01*
X2264404Y2550941D01*
X2270419Y2546895D01*
X2276336Y2542705D01*
X2282149Y2538373D01*
X2287856Y2533902D01*
X2293453Y2529295D01*
X2298937Y2524553D01*
X2304305Y2519681D01*
X2309553Y2514680D01*
X2314680Y2509553D01*
X2319681Y2504305D01*
X2324553Y2498937D01*
X2329295Y2493453D01*
X2333902Y2487856D01*
X2338373Y2482149D01*
X2342705Y2476336D01*
X2346895Y2470419D01*
X2350941Y2464404D01*
X2354840Y2458292D01*
X2358591Y2452088D01*
X2362190Y2445795D01*
X2365637Y2439417D01*
X2368928Y2432957D01*
X2372062Y2426420D01*
X2375038Y2419809D01*
X2377852Y2413128D01*
X2380505Y2406381D01*
X2382994Y2399572D01*
X2385317Y2392705D01*
X2387474Y2385784D01*
X2389463Y2378812D01*
X2391283Y2371795D01*
X2392932Y2364735D01*
X2394411Y2357638D01*
X2395718Y2350507D01*
X2396852Y2343347D01*
X2397813Y2336161D01*
X2398599Y2328954D01*
X2399212Y2321730D01*
X2399650Y2314494D01*
X2399912Y2307249D01*
X2400000Y2300000D01*
X2400000Y300000D01*
X2399912Y292751D01*
X2399650Y285506D01*
X2399212Y278270D01*
X2398599Y271046D01*
X2397813Y263839D01*
X2396852Y256653D01*
X2395718Y249493D01*
X2394411Y242362D01*
X2392932Y235265D01*
X2391283Y228205D01*
X2389463Y221188D01*
X2387474Y214216D01*
X2385317Y207295D01*
X2382994Y200428D01*
X2380505Y193619D01*
X2377852Y186872D01*
X2375038Y180191D01*
X2372062Y173580D01*
X2368928Y167043D01*
X2365637Y160583D01*
X2362190Y154205D01*
X2358591Y147912D01*
X2354840Y141708D01*
X2350941Y135596D01*
X2346895Y129581D01*
X2342705Y123664D01*
X2338373Y117851D01*
X2333902Y112144D01*
X2329295Y106547D01*
X2324553Y101063D01*
X2319681Y95695D01*
X2314680Y90447D01*
X2309553Y85320D01*
X2304305Y80319D01*
X2298937Y75447D01*
X2293453Y70705D01*
X2287856Y66098D01*
X2282149Y61627D01*
X2276336Y57295D01*
X2270419Y53105D01*
X2264404Y49059D01*
X2258292Y45160D01*
X2252088Y41409D01*
X2245795Y37810D01*
X2239417Y34363D01*
X2232957Y31072D01*
X2226420Y27938D01*
X2219809Y24962D01*
X2213128Y22148D01*
X2206381Y19495D01*
X2199572Y17006D01*
X2192705Y14683D01*
X2185784Y12526D01*
X2178812Y10537D01*
X2171795Y8717D01*
X2164735Y7068D01*
X2157638Y5589D01*
X2150507Y4282D01*
X2143347Y3148D01*
X2136161Y2187D01*
X2128954Y1401D01*
X2121730Y788D01*
X2114494Y350D01*
X2107249Y88D01*
X2100000Y0D01*
D11*
X950000Y850000D03*
X950000Y950000D03*
X1075000Y950000D03*
X1075000Y850000D03*
D12*
X1550000Y1160000D03*
X1550000Y1290000D03*
X975000Y1160000D03*
X975000Y1290000D03*
X1425000Y1160000D03*
X1425000Y1290000D03*
X1100000Y1160000D03*
X1100000Y1290000D03*
X825000Y1535000D03*
X825000Y1665000D03*
D11*
X1975000Y1775000D03*
X1975000Y1875000D03*
M02*
