M48
;GenerationSoftware,Autodesk,EAGLE,9.6.2*%
;CreationDate,2023-10-14T21:12:45Z*%
FMAT,2
ICI,OFF
METRIC,TZ,000.00000
T4C0.35000
T3C1.00000
T2C1.01600
T1C1.32080
%
G90
M71
T1
X550000Y3650000
X4900000Y3650000
T2
X2929000Y2100000
X1371000Y2100000
X1625000Y2100000
X1879000Y2100000
X4471000Y2100000
X4725000Y2100000
X4979000Y2100000
X2421000Y2100000
X2675000Y2100000
X3471000Y2100000
X3725000Y2100000
X3979000Y2100000
X1632000Y400000
X1886000Y400000
X2140000Y400000
X2394000Y400000
X2648000Y400000
X2902000Y400000
X3156000Y400000
X3410000Y400000
X3664000Y400000
X3918000Y400000
T3
X4948000Y3200000
X5202000Y3200000
T4
X1400000Y2900000
X1600000Y2900000
X1700000Y2900000
X1800000Y2900000
X600000Y1300000
X1100000Y1300000
X1650000Y1300000
X2150000Y1300000
X2700000Y1300000
X3200000Y1300000
X3750000Y1300000
X4250000Y1300000
X4800000Y1300000
X1650000Y1100000
X2150000Y1100000
X2700000Y1100000
X3200000Y1100000
X3750000Y1100000
X4250000Y1100000
X4800000Y1100000
X5300000Y1100000
X5300000Y1300000
X600000Y1100000
X1100000Y1100000
X1600000Y2400000
X2700000Y2400000
X3700000Y2400000
X3500000Y3700000
X3400000Y3700000
X3400000Y3600000
X3400000Y3500000
X3500000Y3500000
X3500000Y3600000
X2000000Y3700000
X2100000Y3700000
X2100000Y3600000
X2000000Y3500000
X2100000Y3500000
X2000000Y3600000
X4750000Y1750000
X2450000Y3250000
X2450000Y3150000
X3050000Y3250000
X3050000Y3150000
X2600000Y2850000
X3000000Y1300000
X4050000Y1300000
X3700000Y1750000
X2650000Y1750000
X4200000Y1750000
X900000Y2950000
X825000Y2900000
X4400000Y2575000
X1150000Y2550000
X4750000Y625000
X1050000Y1750000
X2100000Y1750000
X1600000Y1750000
X900000Y1300000
X1950000Y1300000
X2475000Y1100000
X3525000Y1100000
X5000000Y775000
X500000Y850000
X1000000Y850000
X1550000Y850000
X2050000Y850000
X2600000Y850000
X3100000Y850000
X3650000Y850000
X4150000Y850000
X4700000Y850000
X5200000Y850000
X2750000Y3700000
X2750000Y3600000
X2750000Y3500000
X2650000Y3500000
X2650000Y3600000
X2650000Y3700000
X2550000Y3700000
X4575000Y2675000
X2550000Y3500000
X2850000Y3500000
X2850000Y3600000
X2850000Y3700000
X2950000Y3700000
X2950000Y3600000
X2950000Y3500000
X975000Y2900000
X2750000Y100000
X2750000Y3900000
X100000Y2000000
X100000Y3000000
X100000Y1000000
X1375000Y100000
X4125000Y3900000
X4125000Y100000
X4775000Y2775000
X5500000Y1000000
X5500000Y2000000
X5500000Y3000000
X1375000Y3900000
X4800000Y2500000
X4300000Y2800000
X2400000Y2850000
X2500000Y2850000
X2700000Y2850000
X2800000Y2850000
X2900000Y2850000
X3000000Y2850000
X3100000Y2850000
X675000Y2550000
X1500000Y2900000
X1300000Y2900000
X2550000Y3600000
M30