G04 EAGLE Gerber RS-274X export*
G75*
%MOMM*%
%FSLAX35Y35*%
%LPD*%
%INcopper_top*%
%IPPOS*%
%AMOC8*
5,1,8,0,0,1.08239X$1,22.5*%
G01*
%ADD10C,0.000000*%
%ADD11R,1.000000X1.000000*%
%ADD12C,1.500000*%
%ADD13R,0.650000X1.650000*%
%ADD14C,1.371600*%
%ADD15P,2.336880X8X22.500000*%
%ADD16P,2.336880X8X202.500000*%
%ADD17C,0.650000*%
%ADD18C,0.500000*%
%ADD19C,0.300000*%

G36*
X3000297Y1750035D02*
X3000297Y1750035D01*
X3000981Y1750033D01*
X3031654Y1752043D01*
X3032089Y1752123D01*
X3032531Y1752126D01*
X3034556Y1752522D01*
X3093813Y1768400D01*
X3094678Y1768743D01*
X3095577Y1768992D01*
X3096733Y1769557D01*
X3097028Y1769674D01*
X3097159Y1769766D01*
X3097430Y1769898D01*
X3150558Y1800572D01*
X3151308Y1801128D01*
X3152109Y1801601D01*
X3153080Y1802446D01*
X3153334Y1802635D01*
X3153437Y1802757D01*
X3153665Y1802955D01*
X3197044Y1846335D01*
X3197624Y1847067D01*
X3198276Y1847730D01*
X3198993Y1848796D01*
X3199192Y1849046D01*
X3199260Y1849192D01*
X3199428Y1849441D01*
X3230102Y1902570D01*
X3230424Y1903315D01*
X3230835Y1904016D01*
X3230871Y1904130D01*
X3230931Y1904236D01*
X3231349Y1905455D01*
X3231474Y1905744D01*
X3231502Y1905901D01*
X3231600Y1906187D01*
X3247478Y1965444D01*
X3247542Y1965880D01*
X3247681Y1966301D01*
X3247957Y1968345D01*
X3249967Y1999018D01*
X3249952Y1999315D01*
X3249999Y1999998D01*
X3249999Y6500001D01*
X3249965Y6500298D01*
X3249967Y6500982D01*
X3247957Y6531654D01*
X3247877Y6532089D01*
X3247873Y6532531D01*
X3247478Y6534556D01*
X3231600Y6593813D01*
X3231257Y6594678D01*
X3231008Y6595577D01*
X3230443Y6596733D01*
X3230326Y6597028D01*
X3230234Y6597159D01*
X3230102Y6597430D01*
X3199428Y6650558D01*
X3198871Y6651308D01*
X3198399Y6652109D01*
X3197554Y6653080D01*
X3197365Y6653334D01*
X3197243Y6653437D01*
X3197044Y6653665D01*
X3153665Y6697044D01*
X3152933Y6697624D01*
X3152270Y6698276D01*
X3151204Y6698993D01*
X3150954Y6699192D01*
X3150808Y6699260D01*
X3150558Y6699428D01*
X3097430Y6730102D01*
X3096575Y6730471D01*
X3095764Y6730930D01*
X3094548Y6731348D01*
X3094256Y6731474D01*
X3094097Y6731502D01*
X3093813Y6731600D01*
X3034556Y6747478D01*
X3034120Y6747542D01*
X3033699Y6747681D01*
X3031654Y6747957D01*
X3000981Y6749967D01*
X3000683Y6749952D01*
X3000000Y6749999D01*
X599999Y6749999D01*
X599703Y6749965D01*
X599018Y6749967D01*
X568345Y6747957D01*
X567910Y6747877D01*
X567469Y6747873D01*
X565444Y6747478D01*
X506187Y6731600D01*
X505321Y6731257D01*
X504423Y6731008D01*
X503267Y6730443D01*
X502972Y6730326D01*
X502841Y6730234D01*
X502570Y6730102D01*
X449441Y6699428D01*
X448692Y6698871D01*
X447890Y6698399D01*
X446920Y6697554D01*
X446666Y6697365D01*
X446563Y6697243D01*
X446335Y6697044D01*
X402955Y6653665D01*
X402376Y6652933D01*
X401723Y6652270D01*
X401006Y6651204D01*
X400808Y6650954D01*
X400740Y6650808D01*
X400572Y6650558D01*
X369898Y6597430D01*
X369528Y6596575D01*
X369069Y6595764D01*
X368652Y6594548D01*
X368526Y6594256D01*
X368498Y6594097D01*
X368400Y6593813D01*
X352522Y6534556D01*
X352458Y6534120D01*
X352319Y6533699D01*
X352043Y6531654D01*
X350033Y6500981D01*
X350048Y6500683D01*
X350000Y6500000D01*
X350000Y1999999D01*
X350035Y1999703D01*
X350033Y1999018D01*
X352043Y1968345D01*
X352123Y1967910D01*
X352126Y1967469D01*
X352522Y1965444D01*
X368400Y1906187D01*
X368743Y1905321D01*
X368992Y1904423D01*
X369557Y1903267D01*
X369674Y1902972D01*
X369766Y1902841D01*
X369898Y1902570D01*
X400572Y1849441D01*
X401128Y1848692D01*
X401601Y1847890D01*
X402446Y1846920D01*
X402635Y1846666D01*
X402757Y1846563D01*
X402955Y1846335D01*
X446335Y1802955D01*
X447066Y1802376D01*
X447730Y1801723D01*
X448796Y1801006D01*
X449046Y1800808D01*
X449192Y1800740D01*
X449441Y1800572D01*
X502569Y1769898D01*
X503424Y1769528D01*
X504236Y1769069D01*
X505452Y1768652D01*
X505744Y1768526D01*
X505903Y1768498D01*
X506187Y1768400D01*
X565444Y1752522D01*
X565880Y1752458D01*
X566301Y1752319D01*
X568345Y1752043D01*
X599019Y1750033D01*
X599316Y1750048D01*
X600000Y1750000D01*
X3000000Y1750000D01*
X3000297Y1750035D01*
G37*
%LPC*%
G36*
X1387568Y4937499D02*
X1387568Y4937499D01*
X1364597Y4947014D01*
X1347014Y4964597D01*
X1337499Y4987568D01*
X1337499Y5012432D01*
X1347014Y5035403D01*
X1364597Y5052985D01*
X1387568Y5062500D01*
X1412432Y5062500D01*
X1427782Y5056142D01*
X1427956Y5056093D01*
X1428116Y5056008D01*
X1429621Y5055619D01*
X1431108Y5055196D01*
X1431288Y5055188D01*
X1431464Y5055142D01*
X1433522Y5055000D01*
X2145399Y5055000D01*
X2146433Y5055120D01*
X2147476Y5055145D01*
X2148147Y5055319D01*
X2148834Y5055399D01*
X2149814Y5055753D01*
X2150823Y5056015D01*
X2151435Y5056338D01*
X2152087Y5056574D01*
X2152960Y5057143D01*
X2153882Y5057629D01*
X2154403Y5058084D01*
X2154984Y5058462D01*
X2155704Y5059217D01*
X2156489Y5059901D01*
X2156893Y5060462D01*
X2157372Y5060964D01*
X2157899Y5061863D01*
X2158507Y5062709D01*
X2158772Y5063350D01*
X2159123Y5063946D01*
X2159430Y5064940D01*
X2159829Y5065905D01*
X2159940Y5066588D01*
X2160144Y5067250D01*
X2160216Y5068291D01*
X2160383Y5069318D01*
X2160334Y5070008D01*
X2160382Y5070700D01*
X2160213Y5071731D01*
X2160141Y5072768D01*
X2159936Y5073428D01*
X2159823Y5074113D01*
X2159424Y5075076D01*
X2159115Y5076071D01*
X2158764Y5076667D01*
X2158498Y5077307D01*
X2157889Y5078153D01*
X2157360Y5079051D01*
X2156676Y5079836D01*
X2156476Y5080113D01*
X2156305Y5080262D01*
X2156005Y5080606D01*
X2147014Y5089596D01*
X2142709Y5099991D01*
X2141953Y5101347D01*
X2141222Y5102733D01*
X2141109Y5102863D01*
X2141026Y5103012D01*
X2139978Y5104162D01*
X2138951Y5105341D01*
X2138812Y5105440D01*
X2138696Y5105567D01*
X2137408Y5106449D01*
X2136143Y5107359D01*
X2135984Y5107424D01*
X2135843Y5107521D01*
X2134393Y5108082D01*
X2132947Y5108680D01*
X2132777Y5108708D01*
X2132618Y5108769D01*
X2131071Y5108985D01*
X2129533Y5109234D01*
X2129363Y5109223D01*
X2129193Y5109246D01*
X2127631Y5109101D01*
X2126083Y5108992D01*
X2125920Y5108942D01*
X2125749Y5108926D01*
X2124271Y5108429D01*
X2122781Y5107967D01*
X2122633Y5107879D01*
X2122471Y5107825D01*
X2121151Y5107007D01*
X2119801Y5106212D01*
X2119634Y5106066D01*
X2119532Y5106003D01*
X2119334Y5105805D01*
X2118245Y5104857D01*
X2110403Y5097014D01*
X2087432Y5087499D01*
X2062568Y5087499D01*
X2039597Y5097014D01*
X2022014Y5114597D01*
X2012499Y5137568D01*
X2012499Y5150795D01*
X2012379Y5151830D01*
X2012355Y5152872D01*
X2012181Y5153542D01*
X2012101Y5154230D01*
X2011746Y5155211D01*
X2011484Y5156219D01*
X2011161Y5156831D01*
X2010926Y5157483D01*
X2010356Y5158356D01*
X2009870Y5159278D01*
X2009416Y5159799D01*
X2009038Y5160380D01*
X2008282Y5161101D01*
X2007598Y5161885D01*
X2007037Y5162289D01*
X2006536Y5162767D01*
X2005637Y5163295D01*
X2004790Y5163903D01*
X2004150Y5164168D01*
X2003553Y5164518D01*
X2002558Y5164826D01*
X2001594Y5165224D01*
X2000912Y5165335D01*
X2000250Y5165540D01*
X1999209Y5165612D01*
X1998181Y5165779D01*
X1997490Y5165730D01*
X1996799Y5165778D01*
X1995770Y5165609D01*
X1994731Y5165536D01*
X1994070Y5165331D01*
X1993387Y5165219D01*
X1992423Y5164819D01*
X1991428Y5164510D01*
X1990833Y5164159D01*
X1990193Y5163894D01*
X1989347Y5163284D01*
X1988449Y5162755D01*
X1987663Y5162071D01*
X1987387Y5161872D01*
X1987239Y5161701D01*
X1986893Y5161400D01*
X1986477Y5160984D01*
X1947886Y5144999D01*
X1906113Y5144999D01*
X1867522Y5160984D01*
X1837984Y5190522D01*
X1821999Y5229113D01*
X1821999Y5270886D01*
X1837984Y5309478D01*
X1867522Y5339015D01*
X1906113Y5355000D01*
X1947886Y5355000D01*
X1986478Y5339015D01*
X1994394Y5331099D01*
X1995209Y5330453D01*
X1995964Y5329733D01*
X1996563Y5329381D01*
X1997105Y5328952D01*
X1998048Y5328509D01*
X1998947Y5327982D01*
X1999608Y5327777D01*
X2000235Y5327483D01*
X2001254Y5327268D01*
X2002250Y5326960D01*
X2002943Y5326912D01*
X2003619Y5326769D01*
X2004659Y5326794D01*
X2005701Y5326722D01*
X2006385Y5326834D01*
X2007077Y5326850D01*
X2008085Y5327112D01*
X2009113Y5327281D01*
X2009753Y5327546D01*
X2010423Y5327720D01*
X2011345Y5328207D01*
X2012308Y5328606D01*
X2012870Y5329011D01*
X2013482Y5329334D01*
X2014268Y5330018D01*
X2015113Y5330628D01*
X2015568Y5331151D01*
X2016090Y5331606D01*
X2016698Y5332453D01*
X2017381Y5333238D01*
X2017703Y5333850D01*
X2018108Y5334414D01*
X2018507Y5335378D01*
X2018991Y5336299D01*
X2019165Y5336970D01*
X2019429Y5337610D01*
X2019596Y5338637D01*
X2019858Y5339647D01*
X2019929Y5340688D01*
X2019984Y5341023D01*
X2019968Y5341249D01*
X2019999Y5341705D01*
X2019999Y5447005D01*
X2019839Y5448385D01*
X2019742Y5449773D01*
X2019640Y5450101D01*
X2019601Y5450440D01*
X2019128Y5451747D01*
X2018716Y5453076D01*
X2018543Y5453370D01*
X2018426Y5453693D01*
X2017664Y5454861D01*
X2016961Y5456056D01*
X2016662Y5456399D01*
X2016538Y5456590D01*
X2016289Y5456827D01*
X2015606Y5457611D01*
X1958611Y5514606D01*
X1957517Y5515473D01*
X1956472Y5516381D01*
X1956170Y5516540D01*
X1955900Y5516753D01*
X1954638Y5517346D01*
X1953411Y5517991D01*
X1953080Y5518077D01*
X1952770Y5518223D01*
X1951409Y5518509D01*
X1950063Y5518858D01*
X1949607Y5518889D01*
X1949386Y5518936D01*
X1949045Y5518928D01*
X1948005Y5518999D01*
X1906113Y5518999D01*
X1867522Y5534984D01*
X1837984Y5564522D01*
X1821999Y5603113D01*
X1821999Y5644886D01*
X1831681Y5668260D01*
X1832107Y5669755D01*
X1832569Y5671250D01*
X1832581Y5671423D01*
X1832628Y5671586D01*
X1832699Y5673134D01*
X1832807Y5674701D01*
X1832779Y5674871D01*
X1832787Y5675041D01*
X1832501Y5676569D01*
X1832248Y5678113D01*
X1832183Y5678272D01*
X1832151Y5678440D01*
X1831523Y5679860D01*
X1830923Y5681308D01*
X1830822Y5681448D01*
X1830753Y5681603D01*
X1829818Y5682840D01*
X1828901Y5684113D01*
X1828771Y5684226D01*
X1828668Y5684362D01*
X1827467Y5685359D01*
X1826290Y5686381D01*
X1826139Y5686461D01*
X1826007Y5686571D01*
X1824604Y5687268D01*
X1823230Y5687991D01*
X1823064Y5688034D01*
X1822910Y5688111D01*
X1821393Y5688467D01*
X1819882Y5688858D01*
X1819661Y5688873D01*
X1819543Y5688900D01*
X1819263Y5688900D01*
X1817824Y5688999D01*
X1782176Y5688999D01*
X1780630Y5688820D01*
X1779073Y5688675D01*
X1778911Y5688620D01*
X1778741Y5688601D01*
X1777273Y5688070D01*
X1775795Y5687574D01*
X1775650Y5687484D01*
X1775488Y5687426D01*
X1774176Y5686571D01*
X1772856Y5685752D01*
X1772735Y5685631D01*
X1772591Y5685538D01*
X1771511Y5684406D01*
X1770412Y5683305D01*
X1770322Y5683160D01*
X1770203Y5683036D01*
X1769415Y5681692D01*
X1768593Y5680364D01*
X1768539Y5680201D01*
X1768453Y5680053D01*
X1767993Y5678568D01*
X1767497Y5677084D01*
X1767481Y5676913D01*
X1767431Y5676750D01*
X1767323Y5675191D01*
X1767181Y5673640D01*
X1767205Y5673471D01*
X1767193Y5673299D01*
X1767446Y5671753D01*
X1767662Y5670216D01*
X1767732Y5670008D01*
X1767752Y5669887D01*
X1767861Y5669624D01*
X1768318Y5668260D01*
X1778000Y5644886D01*
X1778000Y5603113D01*
X1762015Y5564522D01*
X1732393Y5534901D01*
X1731528Y5533808D01*
X1730618Y5532761D01*
X1730459Y5532458D01*
X1730247Y5532190D01*
X1729656Y5530930D01*
X1729008Y5529700D01*
X1728923Y5529369D01*
X1728777Y5529059D01*
X1728491Y5527699D01*
X1728142Y5526353D01*
X1728111Y5525897D01*
X1728064Y5525675D01*
X1728072Y5525334D01*
X1728000Y5524294D01*
X1728000Y5349705D01*
X1728035Y5349410D01*
X1728017Y5349150D01*
X1728167Y5348230D01*
X1728258Y5346937D01*
X1728360Y5346609D01*
X1728399Y5346270D01*
X1728562Y5345819D01*
X1728575Y5345737D01*
X1728701Y5345434D01*
X1728871Y5344964D01*
X1729284Y5343634D01*
X1729458Y5343339D01*
X1729574Y5343018D01*
X1730334Y5341850D01*
X1731039Y5340655D01*
X1731338Y5340312D01*
X1731462Y5340120D01*
X1731710Y5339884D01*
X1732393Y5339099D01*
X1762015Y5309478D01*
X1778000Y5270886D01*
X1778000Y5229113D01*
X1762015Y5190522D01*
X1732478Y5160984D01*
X1693886Y5144999D01*
X1652113Y5144999D01*
X1613522Y5160984D01*
X1583984Y5190522D01*
X1567999Y5229113D01*
X1567999Y5270886D01*
X1583984Y5309478D01*
X1613606Y5339099D01*
X1614471Y5340191D01*
X1615381Y5341239D01*
X1615541Y5341542D01*
X1615753Y5341810D01*
X1616344Y5343069D01*
X1616991Y5344299D01*
X1617077Y5344630D01*
X1617223Y5344941D01*
X1617509Y5346301D01*
X1617567Y5346522D01*
X1617745Y5347101D01*
X1617756Y5347255D01*
X1617858Y5347647D01*
X1617889Y5348103D01*
X1617936Y5348325D01*
X1617928Y5348665D01*
X1617999Y5349705D01*
X1617999Y5524294D01*
X1617839Y5525674D01*
X1617742Y5527063D01*
X1617640Y5527391D01*
X1617601Y5527730D01*
X1617129Y5529036D01*
X1616716Y5530365D01*
X1616542Y5530660D01*
X1616426Y5530982D01*
X1615665Y5532149D01*
X1614961Y5533345D01*
X1614662Y5533688D01*
X1614538Y5533879D01*
X1614289Y5534116D01*
X1613606Y5534901D01*
X1583984Y5564522D01*
X1567999Y5603113D01*
X1567999Y5644886D01*
X1577681Y5668260D01*
X1578107Y5669755D01*
X1578569Y5671250D01*
X1578581Y5671423D01*
X1578628Y5671586D01*
X1578699Y5673134D01*
X1578807Y5674701D01*
X1578779Y5674871D01*
X1578787Y5675041D01*
X1578501Y5676569D01*
X1578248Y5678113D01*
X1578183Y5678272D01*
X1578151Y5678440D01*
X1577523Y5679860D01*
X1576923Y5681308D01*
X1576822Y5681448D01*
X1576753Y5681603D01*
X1575818Y5682840D01*
X1574901Y5684113D01*
X1574771Y5684226D01*
X1574668Y5684362D01*
X1573467Y5685359D01*
X1572290Y5686381D01*
X1572139Y5686461D01*
X1572007Y5686571D01*
X1570604Y5687268D01*
X1569230Y5687991D01*
X1569064Y5688034D01*
X1568910Y5688111D01*
X1567393Y5688467D01*
X1565882Y5688858D01*
X1565661Y5688873D01*
X1565543Y5688900D01*
X1565263Y5688900D01*
X1563824Y5688999D01*
X1477995Y5688999D01*
X1476614Y5688839D01*
X1475227Y5688742D01*
X1474899Y5688640D01*
X1474559Y5688601D01*
X1473253Y5688129D01*
X1471924Y5687716D01*
X1471629Y5687542D01*
X1471307Y5687426D01*
X1470141Y5686666D01*
X1468944Y5685961D01*
X1468601Y5685662D01*
X1468410Y5685538D01*
X1468173Y5685290D01*
X1467389Y5684607D01*
X1462595Y5679813D01*
X1462482Y5679671D01*
X1462343Y5679555D01*
X1461413Y5678321D01*
X1460448Y5677102D01*
X1460371Y5676938D01*
X1460262Y5676793D01*
X1459343Y5674947D01*
X1456142Y5667218D01*
X1456092Y5667043D01*
X1456008Y5666884D01*
X1455622Y5665389D01*
X1455196Y5663891D01*
X1455187Y5663710D01*
X1455142Y5663536D01*
X1455000Y5661478D01*
X1455000Y5493639D01*
X1455161Y5492255D01*
X1455258Y5490871D01*
X1455359Y5490544D01*
X1455399Y5490204D01*
X1455872Y5488895D01*
X1456284Y5487568D01*
X1456458Y5487273D01*
X1456574Y5486951D01*
X1457334Y5485784D01*
X1458039Y5484588D01*
X1458337Y5484246D01*
X1458462Y5484054D01*
X1458711Y5483817D01*
X1459394Y5483033D01*
X1480000Y5462427D01*
X1480000Y5337573D01*
X1478033Y5335606D01*
X1477814Y5335329D01*
X1477549Y5335099D01*
X1476745Y5333980D01*
X1475886Y5332895D01*
X1475736Y5332576D01*
X1475531Y5332290D01*
X1475003Y5331014D01*
X1474417Y5329764D01*
X1474344Y5329420D01*
X1474209Y5329094D01*
X1473988Y5327731D01*
X1473703Y5326380D01*
X1473712Y5326028D01*
X1473655Y5325681D01*
X1473752Y5324307D01*
X1473784Y5322923D01*
X1473873Y5322582D01*
X1473898Y5322231D01*
X1474307Y5320912D01*
X1474655Y5319576D01*
X1474818Y5319266D01*
X1474923Y5318929D01*
X1475626Y5317736D01*
X1476268Y5316518D01*
X1476499Y5316253D01*
X1476678Y5315949D01*
X1478033Y5314393D01*
X1480000Y5312426D01*
X1480000Y5187573D01*
X1462426Y5169999D01*
X1337573Y5169999D01*
X1319999Y5187573D01*
X1319999Y5312426D01*
X1321967Y5314393D01*
X1322185Y5314669D01*
X1322451Y5314900D01*
X1323256Y5316021D01*
X1324114Y5317104D01*
X1324263Y5317423D01*
X1324469Y5317709D01*
X1324995Y5318982D01*
X1325583Y5320235D01*
X1325656Y5320580D01*
X1325790Y5320904D01*
X1326011Y5322265D01*
X1326296Y5323619D01*
X1326288Y5323971D01*
X1326344Y5324318D01*
X1326248Y5325695D01*
X1326216Y5327076D01*
X1326127Y5327416D01*
X1326103Y5327768D01*
X1325693Y5329087D01*
X1325345Y5330423D01*
X1325181Y5330734D01*
X1325077Y5331070D01*
X1324377Y5332258D01*
X1323732Y5333482D01*
X1323500Y5333748D01*
X1323322Y5334050D01*
X1321967Y5335606D01*
X1319999Y5337573D01*
X1319999Y5462427D01*
X1326967Y5469394D01*
X1327613Y5470209D01*
X1328333Y5470964D01*
X1328685Y5471563D01*
X1329114Y5472105D01*
X1329557Y5473048D01*
X1330084Y5473947D01*
X1330289Y5474608D01*
X1330583Y5475235D01*
X1330798Y5476254D01*
X1331106Y5477250D01*
X1331154Y5477943D01*
X1331297Y5478619D01*
X1331272Y5479659D01*
X1331344Y5480701D01*
X1331232Y5481385D01*
X1331216Y5482077D01*
X1330954Y5483085D01*
X1330785Y5484113D01*
X1330520Y5484753D01*
X1330346Y5485423D01*
X1329859Y5486345D01*
X1329460Y5487308D01*
X1329055Y5487870D01*
X1328732Y5488482D01*
X1328048Y5489268D01*
X1327438Y5490113D01*
X1326915Y5490568D01*
X1326460Y5491090D01*
X1325613Y5491698D01*
X1324828Y5492381D01*
X1324216Y5492703D01*
X1323652Y5493108D01*
X1322688Y5493507D01*
X1321767Y5493991D01*
X1321096Y5494165D01*
X1320456Y5494429D01*
X1319429Y5494596D01*
X1318419Y5494858D01*
X1317378Y5494929D01*
X1317043Y5494984D01*
X1316817Y5494968D01*
X1316361Y5494999D01*
X1226706Y5494999D01*
X1225326Y5494839D01*
X1223938Y5494742D01*
X1223610Y5494640D01*
X1223270Y5494601D01*
X1221963Y5494128D01*
X1220635Y5493716D01*
X1220340Y5493543D01*
X1220018Y5493426D01*
X1218849Y5492664D01*
X1217655Y5491961D01*
X1217312Y5491662D01*
X1217121Y5491538D01*
X1216884Y5491289D01*
X1216099Y5490606D01*
X1186478Y5460984D01*
X1147886Y5444999D01*
X1106113Y5444999D01*
X1067522Y5460984D01*
X1037984Y5490522D01*
X1021999Y5529113D01*
X1021999Y5570886D01*
X1037984Y5609478D01*
X1067522Y5639015D01*
X1106113Y5655000D01*
X1147886Y5655000D01*
X1186478Y5639015D01*
X1216099Y5609393D01*
X1217193Y5608527D01*
X1218239Y5607618D01*
X1218541Y5607460D01*
X1218810Y5607246D01*
X1220073Y5606654D01*
X1221300Y5606008D01*
X1221631Y5605923D01*
X1221941Y5605777D01*
X1223301Y5605491D01*
X1224648Y5605142D01*
X1225103Y5605111D01*
X1225325Y5605064D01*
X1225666Y5605072D01*
X1226706Y5605000D01*
X1330000Y5605000D01*
X1330349Y5605041D01*
X1330701Y5605017D01*
X1332066Y5605240D01*
X1333435Y5605399D01*
X1333766Y5605518D01*
X1334113Y5605575D01*
X1335391Y5606105D01*
X1336688Y5606574D01*
X1336982Y5606766D01*
X1337308Y5606901D01*
X1338427Y5607707D01*
X1339585Y5608462D01*
X1339829Y5608718D01*
X1340113Y5608923D01*
X1341016Y5609962D01*
X1341973Y5610964D01*
X1342151Y5611268D01*
X1342381Y5611533D01*
X1343024Y5612755D01*
X1343723Y5613946D01*
X1343827Y5614282D01*
X1343991Y5614594D01*
X1344337Y5615930D01*
X1344745Y5617250D01*
X1344770Y5617602D01*
X1344858Y5617942D01*
X1344999Y5620000D01*
X1344999Y5661478D01*
X1344978Y5661658D01*
X1344995Y5661838D01*
X1344779Y5663373D01*
X1344601Y5664913D01*
X1344539Y5665083D01*
X1344514Y5665262D01*
X1343858Y5667218D01*
X1337499Y5682568D01*
X1337499Y5707432D01*
X1342399Y5719260D01*
X1342825Y5720758D01*
X1343287Y5722250D01*
X1343298Y5722422D01*
X1343345Y5722586D01*
X1343417Y5724135D01*
X1343524Y5725701D01*
X1343497Y5725871D01*
X1343504Y5726041D01*
X1343219Y5727568D01*
X1342966Y5729113D01*
X1342900Y5729272D01*
X1342868Y5729440D01*
X1342239Y5730865D01*
X1341640Y5732308D01*
X1341540Y5732447D01*
X1341471Y5732603D01*
X1340529Y5733849D01*
X1339618Y5735113D01*
X1339489Y5735225D01*
X1339386Y5735362D01*
X1338181Y5736362D01*
X1337008Y5737381D01*
X1336857Y5737461D01*
X1336724Y5737571D01*
X1335319Y5738270D01*
X1333947Y5738991D01*
X1333783Y5739034D01*
X1333628Y5739111D01*
X1332107Y5739468D01*
X1330599Y5739858D01*
X1330379Y5739873D01*
X1330261Y5739900D01*
X1329981Y5739900D01*
X1328541Y5739999D01*
X485502Y5739999D01*
X464999Y5760502D01*
X464999Y6456802D01*
X464914Y6457536D01*
X464927Y6458274D01*
X464715Y6459248D01*
X464601Y6460237D01*
X464350Y6460932D01*
X464193Y6461654D01*
X463774Y6462531D01*
X464942Y6475876D01*
X464933Y6476215D01*
X464999Y6477183D01*
X464999Y6481598D01*
X464865Y6482752D01*
X464820Y6483912D01*
X464667Y6484464D01*
X464601Y6485033D01*
X464206Y6486125D01*
X463904Y6487214D01*
X464488Y6489394D01*
X464624Y6490317D01*
X464838Y6491142D01*
X464974Y6491540D01*
X465113Y6491834D01*
X465172Y6492115D01*
X465379Y6492719D01*
X466579Y6497198D01*
X466620Y6497473D01*
X466713Y6497736D01*
X467033Y6499773D01*
X467748Y6507939D01*
X467733Y6508447D01*
X467802Y6508953D01*
X467685Y6510172D01*
X467678Y6510406D01*
X467997Y6510793D01*
X468996Y6512598D01*
X472460Y6520028D01*
X472548Y6520292D01*
X472685Y6520534D01*
X473355Y6522485D01*
X475477Y6530406D01*
X475551Y6530910D01*
X475706Y6531394D01*
X475802Y6532615D01*
X475836Y6532845D01*
X476218Y6533171D01*
X477515Y6534775D01*
X482218Y6541493D01*
X482350Y6541738D01*
X482528Y6541952D01*
X483526Y6543758D01*
X486990Y6551187D01*
X487150Y6551669D01*
X487387Y6552119D01*
X487693Y6553305D01*
X487768Y6553527D01*
X488200Y6553782D01*
X489756Y6555137D01*
X495554Y6560935D01*
X495727Y6561153D01*
X495938Y6561333D01*
X497234Y6562938D01*
X501936Y6569653D01*
X502178Y6570100D01*
X502489Y6570503D01*
X502998Y6571618D01*
X503108Y6571823D01*
X503580Y6571999D01*
X505347Y6573063D01*
X512062Y6577765D01*
X512270Y6577950D01*
X512509Y6578091D01*
X514065Y6579446D01*
X519863Y6585243D01*
X520178Y6585642D01*
X520555Y6585985D01*
X521249Y6586994D01*
X521394Y6587177D01*
X521888Y6587269D01*
X523813Y6588010D01*
X531243Y6591474D01*
X531479Y6591620D01*
X531741Y6591718D01*
X533508Y6592782D01*
X540224Y6597485D01*
X540604Y6597823D01*
X541035Y6598095D01*
X541157Y6598218D01*
X541221Y6598260D01*
X541913Y6598986D01*
X542068Y6599123D01*
X542569Y6599127D01*
X544593Y6599523D01*
X552514Y6601645D01*
X552773Y6601748D01*
X553046Y6601798D01*
X554971Y6602539D01*
X562401Y6606004D01*
X562836Y6606272D01*
X563306Y6606464D01*
X564303Y6607175D01*
X564501Y6607297D01*
X564999Y6607214D01*
X567061Y6607252D01*
X575227Y6607967D01*
X575498Y6608022D01*
X575776Y6608025D01*
X577800Y6608420D01*
X582280Y6609620D01*
X583359Y6610048D01*
X583577Y6610116D01*
X583580Y6610116D01*
X584844Y6610363D01*
X585158Y6610399D01*
X585309Y6610453D01*
X585605Y6610511D01*
X587815Y6611103D01*
X587996Y6611008D01*
X588549Y6610865D01*
X589076Y6610638D01*
X590220Y6610433D01*
X591343Y6610142D01*
X592161Y6610086D01*
X592480Y6610029D01*
X592765Y6610044D01*
X593402Y6610000D01*
X597816Y6610000D01*
X598155Y6610040D01*
X599124Y6610058D01*
X612393Y6611218D01*
X612792Y6611008D01*
X613755Y6610759D01*
X614691Y6610416D01*
X615425Y6610327D01*
X616140Y6610142D01*
X618033Y6610012D01*
X618124Y6610001D01*
X618151Y6610003D01*
X618198Y6610000D01*
X2956802Y6610000D01*
X2957536Y6610086D01*
X2958274Y6610073D01*
X2959248Y6610284D01*
X2960237Y6610399D01*
X2960932Y6610650D01*
X2961654Y6610807D01*
X2962531Y6611225D01*
X2975876Y6610058D01*
X2976215Y6610067D01*
X2977183Y6610000D01*
X2981598Y6610000D01*
X2982752Y6610134D01*
X2983912Y6610180D01*
X2984464Y6610333D01*
X2985033Y6610399D01*
X2986125Y6610793D01*
X2987214Y6611095D01*
X2989394Y6610511D01*
X2990317Y6610375D01*
X2991142Y6610162D01*
X2991540Y6610025D01*
X2991834Y6609887D01*
X2992115Y6609828D01*
X2992719Y6609621D01*
X2997198Y6608420D01*
X2997473Y6608380D01*
X2997736Y6608287D01*
X2999773Y6607966D01*
X3007939Y6607252D01*
X3008447Y6607266D01*
X3008953Y6607198D01*
X3010172Y6607315D01*
X3010406Y6607322D01*
X3010793Y6607003D01*
X3012598Y6606004D01*
X3020028Y6602539D01*
X3020292Y6602452D01*
X3020534Y6602315D01*
X3022485Y6601645D01*
X3030406Y6599523D01*
X3030910Y6599448D01*
X3031394Y6599294D01*
X3032615Y6599198D01*
X3032845Y6599164D01*
X3033171Y6598782D01*
X3034775Y6597486D01*
X3041493Y6592782D01*
X3041737Y6592650D01*
X3041952Y6592472D01*
X3043758Y6591474D01*
X3051187Y6588010D01*
X3051669Y6587850D01*
X3052119Y6587613D01*
X3053305Y6587306D01*
X3053528Y6587232D01*
X3053783Y6586799D01*
X3055137Y6585244D01*
X3060935Y6579446D01*
X3061153Y6579273D01*
X3061333Y6579063D01*
X3062938Y6577766D01*
X3069653Y6573064D01*
X3070100Y6572822D01*
X3070503Y6572510D01*
X3071617Y6572002D01*
X3071823Y6571891D01*
X3071999Y6571420D01*
X3073064Y6569653D01*
X3077766Y6562938D01*
X3077951Y6562730D01*
X3078092Y6562490D01*
X3079446Y6560935D01*
X3085244Y6555137D01*
X3085643Y6554821D01*
X3085985Y6554445D01*
X3086992Y6553753D01*
X3087177Y6553606D01*
X3087269Y6553112D01*
X3088010Y6551187D01*
X3091474Y6543758D01*
X3091620Y6543521D01*
X3091717Y6543260D01*
X3092171Y6542507D01*
X3092177Y6542493D01*
X3092193Y6542470D01*
X3092782Y6541493D01*
X3097486Y6534775D01*
X3097823Y6534395D01*
X3098095Y6533964D01*
X3098970Y6533104D01*
X3099123Y6532932D01*
X3099127Y6532430D01*
X3099523Y6530406D01*
X3101645Y6522485D01*
X3101748Y6522227D01*
X3101798Y6521953D01*
X3102539Y6520028D01*
X3106004Y6512598D01*
X3106272Y6512164D01*
X3106464Y6511694D01*
X3107175Y6510697D01*
X3107297Y6510499D01*
X3107214Y6510002D01*
X3107252Y6507939D01*
X3107966Y6499773D01*
X3108022Y6499501D01*
X3108025Y6499223D01*
X3108420Y6497198D01*
X3109621Y6492719D01*
X3110048Y6491640D01*
X3110116Y6491423D01*
X3110116Y6491419D01*
X3110363Y6490155D01*
X3110399Y6489841D01*
X3110453Y6489691D01*
X3110511Y6489394D01*
X3111103Y6487184D01*
X3111008Y6487004D01*
X3110865Y6486450D01*
X3110638Y6485924D01*
X3110433Y6484780D01*
X3110142Y6483656D01*
X3110086Y6482839D01*
X3110029Y6482520D01*
X3110044Y6482234D01*
X3110000Y6481598D01*
X3110000Y6477183D01*
X3110040Y6476845D01*
X3110058Y6475876D01*
X3111218Y6462607D01*
X3111008Y6462208D01*
X3110759Y6461244D01*
X3110416Y6460308D01*
X3110327Y6459575D01*
X3110142Y6458860D01*
X3110012Y6456967D01*
X3110001Y6456875D01*
X3110003Y6456849D01*
X3110000Y6456802D01*
X3110000Y5760502D01*
X3089498Y5739999D01*
X2782965Y5739999D01*
X2781324Y5739809D01*
X2779662Y5739631D01*
X2779597Y5739608D01*
X2779530Y5739601D01*
X2777964Y5739035D01*
X2776399Y5738486D01*
X2776342Y5738449D01*
X2776278Y5738426D01*
X2774870Y5737508D01*
X2773485Y5736623D01*
X2773438Y5736575D01*
X2773380Y5736538D01*
X2772225Y5735327D01*
X2771075Y5734143D01*
X2771040Y5734085D01*
X2770993Y5734036D01*
X2770156Y5732610D01*
X2769297Y5731177D01*
X2769276Y5731111D01*
X2769242Y5731053D01*
X2768751Y5729465D01*
X2768246Y5727883D01*
X2768240Y5727816D01*
X2768220Y5727750D01*
X2768105Y5726075D01*
X2767977Y5724435D01*
X2767987Y5724368D01*
X2767982Y5724299D01*
X2768252Y5722653D01*
X2768504Y5721017D01*
X2768530Y5720954D01*
X2768541Y5720887D01*
X2769181Y5719344D01*
X2769801Y5717811D01*
X2769840Y5717756D01*
X2769866Y5717693D01*
X2770835Y5716348D01*
X2771797Y5714987D01*
X2771849Y5714942D01*
X2771888Y5714887D01*
X2773132Y5713807D01*
X2774387Y5712696D01*
X2774462Y5712651D01*
X2774499Y5712619D01*
X2774635Y5712547D01*
X2776157Y5711635D01*
X2779622Y5709870D01*
X2792406Y5700581D01*
X2803581Y5689406D01*
X2812870Y5676621D01*
X2820044Y5662540D01*
X2822820Y5653998D01*
X2742001Y5653998D01*
X2741652Y5653958D01*
X2741300Y5653982D01*
X2739935Y5653758D01*
X2738566Y5653600D01*
X2738235Y5653480D01*
X2737888Y5653423D01*
X2736610Y5652893D01*
X2735313Y5652425D01*
X2735019Y5652233D01*
X2734693Y5652098D01*
X2733574Y5651292D01*
X2732416Y5650537D01*
X2732172Y5650281D01*
X2731888Y5650076D01*
X2730985Y5649037D01*
X2730028Y5648035D01*
X2729850Y5647731D01*
X2729620Y5647466D01*
X2728977Y5646244D01*
X2728278Y5645053D01*
X2728174Y5644717D01*
X2728010Y5644405D01*
X2727664Y5643069D01*
X2727256Y5641749D01*
X2727231Y5641397D01*
X2727143Y5641057D01*
X2727002Y5638999D01*
X2727002Y5609000D01*
X2727042Y5608652D01*
X2727018Y5608300D01*
X2727242Y5606934D01*
X2727400Y5605565D01*
X2727520Y5605235D01*
X2727577Y5604887D01*
X2728107Y5603610D01*
X2728575Y5602313D01*
X2728767Y5602018D01*
X2728902Y5601693D01*
X2729708Y5600573D01*
X2730463Y5599415D01*
X2730719Y5599172D01*
X2730924Y5598887D01*
X2731963Y5597984D01*
X2732965Y5597028D01*
X2733269Y5596849D01*
X2733534Y5596619D01*
X2734756Y5595977D01*
X2735948Y5595277D01*
X2736283Y5595173D01*
X2736595Y5595009D01*
X2737931Y5594663D01*
X2739251Y5594255D01*
X2739603Y5594231D01*
X2739943Y5594143D01*
X2742001Y5594001D01*
X2822820Y5594001D01*
X2820044Y5585459D01*
X2812870Y5571378D01*
X2803581Y5558594D01*
X2792406Y5547418D01*
X2779621Y5538130D01*
X2768628Y5532528D01*
X2767816Y5531989D01*
X2766955Y5531534D01*
X2766382Y5531035D01*
X2765748Y5530614D01*
X2765082Y5529903D01*
X2764347Y5529263D01*
X2763903Y5528645D01*
X2763383Y5528090D01*
X2762898Y5527247D01*
X2762329Y5526455D01*
X2762038Y5525751D01*
X2761659Y5525093D01*
X2761380Y5524161D01*
X2761007Y5523259D01*
X2760885Y5522506D01*
X2760668Y5521779D01*
X2760609Y5520807D01*
X2760453Y5519845D01*
X2760506Y5519087D01*
X2760461Y5518328D01*
X2760627Y5517366D01*
X2760695Y5516396D01*
X2760920Y5515671D01*
X2761050Y5514920D01*
X2761432Y5514022D01*
X2761721Y5513093D01*
X2762107Y5512438D01*
X2762405Y5511738D01*
X2762982Y5510952D01*
X2763476Y5510113D01*
X2764255Y5509219D01*
X2764452Y5508951D01*
X2764594Y5508829D01*
X2764831Y5508558D01*
X2782985Y5490403D01*
X2792500Y5467432D01*
X2792500Y5442568D01*
X2782985Y5419597D01*
X2765403Y5402014D01*
X2750053Y5395656D01*
X2749896Y5395569D01*
X2749722Y5395515D01*
X2748383Y5394726D01*
X2747032Y5393973D01*
X2746898Y5393852D01*
X2746743Y5393760D01*
X2745187Y5392405D01*
X2706121Y5353339D01*
X2705499Y5352992D01*
X2704693Y5352658D01*
X2703993Y5352153D01*
X2703239Y5351734D01*
X2702594Y5351146D01*
X2701887Y5350636D01*
X2701321Y5349984D01*
X2700684Y5349403D01*
X2700191Y5348684D01*
X2699619Y5348025D01*
X2699218Y5347263D01*
X2698730Y5346550D01*
X2698415Y5345736D01*
X2698009Y5344965D01*
X2697793Y5344130D01*
X2697482Y5343325D01*
X2697361Y5342461D01*
X2697143Y5341617D01*
X2697044Y5340181D01*
X2697005Y5339900D01*
X2697016Y5339778D01*
X2697001Y5339559D01*
X2697001Y5279998D01*
X2631180Y5279998D01*
X2633955Y5288540D01*
X2641130Y5302621D01*
X2650418Y5315406D01*
X2654406Y5319393D01*
X2655053Y5320211D01*
X2655773Y5320964D01*
X2656123Y5321561D01*
X2656553Y5322104D01*
X2656997Y5323049D01*
X2657524Y5323947D01*
X2657728Y5324607D01*
X2658023Y5325235D01*
X2658238Y5326255D01*
X2658546Y5327250D01*
X2658593Y5327942D01*
X2658736Y5328619D01*
X2658712Y5329659D01*
X2658783Y5330701D01*
X2658672Y5331385D01*
X2658655Y5332076D01*
X2658393Y5333084D01*
X2658225Y5334113D01*
X2657959Y5334753D01*
X2657785Y5335423D01*
X2657299Y5336344D01*
X2656899Y5337308D01*
X2656494Y5337870D01*
X2656171Y5338482D01*
X2655486Y5339268D01*
X2654878Y5340113D01*
X2654356Y5340567D01*
X2653900Y5341090D01*
X2653052Y5341699D01*
X2652267Y5342381D01*
X2651655Y5342703D01*
X2651092Y5343108D01*
X2650128Y5343507D01*
X2649206Y5343991D01*
X2648536Y5344165D01*
X2647896Y5344429D01*
X2646868Y5344596D01*
X2645858Y5344858D01*
X2644818Y5344929D01*
X2644483Y5344984D01*
X2644257Y5344968D01*
X2643800Y5344999D01*
X2562705Y5344999D01*
X2561671Y5344879D01*
X2560628Y5344855D01*
X2559957Y5344680D01*
X2559270Y5344601D01*
X2558290Y5344247D01*
X2557281Y5343984D01*
X2556669Y5343661D01*
X2556017Y5343426D01*
X2555144Y5342857D01*
X2554223Y5342371D01*
X2553701Y5341916D01*
X2553120Y5341538D01*
X2552400Y5340783D01*
X2551615Y5340099D01*
X2551211Y5339538D01*
X2550733Y5339036D01*
X2550205Y5338137D01*
X2549597Y5337291D01*
X2549332Y5336650D01*
X2548982Y5336053D01*
X2548674Y5335059D01*
X2548275Y5334095D01*
X2548164Y5333411D01*
X2547960Y5332750D01*
X2547888Y5331708D01*
X2547721Y5330682D01*
X2547770Y5329992D01*
X2547722Y5329299D01*
X2547891Y5328268D01*
X2547963Y5327232D01*
X2548168Y5326571D01*
X2548281Y5325887D01*
X2548680Y5324923D01*
X2548989Y5323929D01*
X2549340Y5323333D01*
X2549606Y5322693D01*
X2550215Y5321847D01*
X2550744Y5320949D01*
X2551428Y5320163D01*
X2551628Y5319887D01*
X2551799Y5319738D01*
X2552099Y5319394D01*
X2562015Y5309478D01*
X2578000Y5270886D01*
X2578000Y5229113D01*
X2562015Y5190522D01*
X2532478Y5160984D01*
X2493886Y5144999D01*
X2451994Y5144999D01*
X2450615Y5144839D01*
X2449226Y5144742D01*
X2448898Y5144640D01*
X2448559Y5144601D01*
X2447252Y5144128D01*
X2445924Y5143716D01*
X2445629Y5143543D01*
X2445307Y5143426D01*
X2444138Y5142664D01*
X2442944Y5141961D01*
X2442601Y5141662D01*
X2442409Y5141538D01*
X2442172Y5141289D01*
X2441388Y5140606D01*
X2359288Y5058506D01*
X2358641Y5057689D01*
X2357922Y5056935D01*
X2357571Y5056339D01*
X2357141Y5055795D01*
X2356697Y5054850D01*
X2356171Y5053953D01*
X2355966Y5053293D01*
X2355672Y5052664D01*
X2355457Y5051645D01*
X2355149Y5050649D01*
X2355101Y5049957D01*
X2354958Y5049280D01*
X2354983Y5048240D01*
X2354911Y5047199D01*
X2355023Y5046515D01*
X2355039Y5045823D01*
X2355301Y5044816D01*
X2355470Y5043786D01*
X2355736Y5043145D01*
X2355910Y5042476D01*
X2356395Y5041557D01*
X2356795Y5040592D01*
X2357201Y5040029D01*
X2357523Y5039418D01*
X2358208Y5038632D01*
X2358817Y5037787D01*
X2359339Y5037333D01*
X2359795Y5036810D01*
X2359999Y5036663D01*
X2359999Y4990001D01*
X2313313Y4990001D01*
X2312882Y4990412D01*
X2312199Y4991196D01*
X2311638Y4991599D01*
X2311136Y4992078D01*
X2310237Y4992606D01*
X2309391Y4993214D01*
X2308750Y4993479D01*
X2308153Y4993829D01*
X2307159Y4994137D01*
X2306195Y4994535D01*
X2305511Y4994646D01*
X2304850Y4994851D01*
X2303808Y4994923D01*
X2302782Y4995089D01*
X2302092Y4995041D01*
X2301399Y4995089D01*
X2300368Y4994920D01*
X2299332Y4994847D01*
X2298672Y4994642D01*
X2297987Y4994530D01*
X2297023Y4994130D01*
X2296029Y4993822D01*
X2295433Y4993470D01*
X2294793Y4993205D01*
X2293946Y4992595D01*
X2293049Y4992067D01*
X2292264Y4991383D01*
X2291987Y4991183D01*
X2291838Y4991011D01*
X2291494Y4990712D01*
X2271739Y4970957D01*
X2271737Y4970954D01*
X2254155Y4953373D01*
X2233940Y4944999D01*
X1433522Y4944999D01*
X1433342Y4944978D01*
X1433162Y4944995D01*
X1431627Y4944779D01*
X1430087Y4944601D01*
X1429917Y4944539D01*
X1429738Y4944514D01*
X1427782Y4943858D01*
X1412432Y4937499D01*
X1387568Y4937499D01*
G37*
%LPD*%
G36*
X1395266Y5770025D02*
X1395266Y5770025D01*
X1395387Y5770006D01*
X1396239Y5770222D01*
X1397097Y5770397D01*
X1397198Y5770465D01*
X1397316Y5770495D01*
X1398682Y5771465D01*
X1426218Y5799000D01*
X1999488Y5799000D01*
X2027023Y5771465D01*
X2027124Y5771398D01*
X2027197Y5771299D01*
X2027953Y5770849D01*
X2028682Y5770366D01*
X2028802Y5770344D01*
X2028906Y5770281D01*
X2030558Y5770001D01*
X2360000Y5770001D01*
X2360080Y5770017D01*
X2360160Y5770003D01*
X2361053Y5770215D01*
X2361950Y5770397D01*
X2362017Y5770443D01*
X2362096Y5770461D01*
X2362836Y5771004D01*
X2363591Y5771522D01*
X2363635Y5771590D01*
X2363701Y5771638D01*
X2364170Y5772428D01*
X2364663Y5773198D01*
X2364677Y5773278D01*
X2364719Y5773348D01*
X2364999Y5775000D01*
X2364999Y6575000D01*
X2364993Y6575034D01*
X2364997Y6575060D01*
X2364987Y6575102D01*
X2364997Y6575160D01*
X2364785Y6576053D01*
X2364603Y6576950D01*
X2364558Y6577017D01*
X2364539Y6577096D01*
X2363996Y6577836D01*
X2363478Y6578591D01*
X2363410Y6578635D01*
X2363362Y6578701D01*
X2362573Y6579170D01*
X2361802Y6579663D01*
X2361722Y6579677D01*
X2361652Y6579719D01*
X2360000Y6579999D01*
X1240000Y6579999D01*
X1239920Y6579983D01*
X1239840Y6579997D01*
X1238946Y6579785D01*
X1238050Y6579603D01*
X1237983Y6579558D01*
X1237903Y6579539D01*
X1237163Y6578996D01*
X1236408Y6578478D01*
X1236365Y6578410D01*
X1236299Y6578362D01*
X1235829Y6577573D01*
X1235336Y6576802D01*
X1235323Y6576722D01*
X1235281Y6576652D01*
X1235000Y6575000D01*
X1235000Y5775000D01*
X1235017Y5774920D01*
X1235003Y5774840D01*
X1235214Y5773947D01*
X1235396Y5773050D01*
X1235442Y5772983D01*
X1235461Y5772904D01*
X1236004Y5772164D01*
X1236522Y5771409D01*
X1236590Y5771365D01*
X1236638Y5771299D01*
X1237427Y5770830D01*
X1238198Y5770337D01*
X1238278Y5770323D01*
X1238348Y5770281D01*
X1240000Y5770001D01*
X1395147Y5770001D01*
X1395266Y5770025D01*
G37*
%LPC*%
G36*
X1112059Y3644999D02*
X1112059Y3644999D01*
X1091845Y3653373D01*
X1076373Y3668845D01*
X1067999Y3689059D01*
X1067999Y3839360D01*
X1067839Y3840740D01*
X1067742Y3842128D01*
X1067640Y3842456D01*
X1067601Y3842796D01*
X1067128Y3844103D01*
X1066716Y3845431D01*
X1066543Y3845726D01*
X1066426Y3846048D01*
X1065664Y3847217D01*
X1064961Y3848411D01*
X1064662Y3848754D01*
X1064538Y3848945D01*
X1064289Y3849182D01*
X1063606Y3849967D01*
X1060499Y3853073D01*
X1060499Y4042926D01*
X1063606Y4046033D01*
X1064473Y4047127D01*
X1065381Y4048173D01*
X1065540Y4048475D01*
X1065753Y4048744D01*
X1066346Y4050007D01*
X1066991Y4051233D01*
X1067077Y4051564D01*
X1067223Y4051875D01*
X1067509Y4053235D01*
X1067858Y4054581D01*
X1067889Y4055037D01*
X1067936Y4055259D01*
X1067928Y4055599D01*
X1067999Y4056639D01*
X1067999Y4068423D01*
X1067899Y4069288D01*
X1067898Y4070161D01*
X1067700Y4071002D01*
X1067601Y4071858D01*
X1067304Y4072678D01*
X1067104Y4073527D01*
X1066719Y4074299D01*
X1066426Y4075111D01*
X1065949Y4075842D01*
X1065560Y4076622D01*
X1065009Y4077284D01*
X1064538Y4078008D01*
X1063906Y4078611D01*
X1063349Y4079280D01*
X1062660Y4079799D01*
X1062036Y4080395D01*
X1061284Y4080837D01*
X1060587Y4081362D01*
X1059296Y4082004D01*
X1059053Y4082146D01*
X1058938Y4082182D01*
X1058740Y4082280D01*
X1021159Y4097847D01*
X993427Y4125579D01*
X978419Y4161811D01*
X978419Y4338189D01*
X993427Y4374421D01*
X1021159Y4402153D01*
X1054934Y4416143D01*
X1055389Y4416396D01*
X1055882Y4416574D01*
X1056898Y4417237D01*
X1057955Y4417825D01*
X1058341Y4418177D01*
X1058779Y4418463D01*
X1059616Y4419340D01*
X1060510Y4420155D01*
X1060805Y4420586D01*
X1061166Y4420964D01*
X1061780Y4422009D01*
X1062464Y4423009D01*
X1062653Y4423496D01*
X1062917Y4423947D01*
X1063275Y4425104D01*
X1063713Y4426234D01*
X1063784Y4426750D01*
X1063939Y4427250D01*
X1064023Y4428460D01*
X1064189Y4429659D01*
X1064141Y4430179D01*
X1064177Y4430701D01*
X1063981Y4431897D01*
X1063869Y4433103D01*
X1063703Y4433598D01*
X1063618Y4434113D01*
X1063153Y4435234D01*
X1062768Y4436381D01*
X1062493Y4436824D01*
X1062293Y4437308D01*
X1061583Y4438293D01*
X1060946Y4439320D01*
X1060577Y4439689D01*
X1060271Y4440113D01*
X1059357Y4440908D01*
X1058499Y4441764D01*
X1058054Y4442039D01*
X1057660Y4442381D01*
X1056589Y4442945D01*
X1055558Y4443583D01*
X1055062Y4443748D01*
X1054600Y4443991D01*
X1053426Y4444295D01*
X1052278Y4444679D01*
X1051758Y4444727D01*
X1051252Y4444858D01*
X1049194Y4444999D01*
X893000Y4444999D01*
X892651Y4444959D01*
X892299Y4444983D01*
X890933Y4444759D01*
X889564Y4444601D01*
X889234Y4444481D01*
X888886Y4444424D01*
X887609Y4443894D01*
X886312Y4443426D01*
X886018Y4443234D01*
X885692Y4443099D01*
X884573Y4442293D01*
X883415Y4441538D01*
X883171Y4441282D01*
X882887Y4441077D01*
X881983Y4440038D01*
X881027Y4439036D01*
X880849Y4438732D01*
X880618Y4438467D01*
X879976Y4437245D01*
X879276Y4436053D01*
X879173Y4435718D01*
X879008Y4435406D01*
X878663Y4434070D01*
X878254Y4432750D01*
X878230Y4432398D01*
X878142Y4432058D01*
X878000Y4430000D01*
X878000Y4409206D01*
X878161Y4407822D01*
X878258Y4406438D01*
X878359Y4406111D01*
X878399Y4405771D01*
X878872Y4404462D01*
X879284Y4403135D01*
X879458Y4402840D01*
X879574Y4402518D01*
X880334Y4401351D01*
X881039Y4400155D01*
X881338Y4399812D01*
X881462Y4399621D01*
X881710Y4399384D01*
X882393Y4398600D01*
X906573Y4374421D01*
X921580Y4338189D01*
X921580Y4223766D01*
X921601Y4223586D01*
X921585Y4223407D01*
X921800Y4221872D01*
X921979Y4220331D01*
X922041Y4220161D01*
X922066Y4219982D01*
X922722Y4218026D01*
X924000Y4214941D01*
X924000Y4056639D01*
X924161Y4055258D01*
X924258Y4053871D01*
X924360Y4053543D01*
X924399Y4053204D01*
X924871Y4051897D01*
X925284Y4050569D01*
X925457Y4050274D01*
X925574Y4049952D01*
X926335Y4048783D01*
X927039Y4047589D01*
X927338Y4047246D01*
X927462Y4047054D01*
X927710Y4046818D01*
X928393Y4046033D01*
X931500Y4042926D01*
X931500Y3853073D01*
X913926Y3835499D01*
X824073Y3835499D01*
X806499Y3853073D01*
X806499Y4042926D01*
X809606Y4046033D01*
X810473Y4047127D01*
X811381Y4048173D01*
X811540Y4048475D01*
X811753Y4048744D01*
X812346Y4050007D01*
X812991Y4051233D01*
X813077Y4051564D01*
X813223Y4051875D01*
X813509Y4053235D01*
X813858Y4054581D01*
X813889Y4055037D01*
X813936Y4055259D01*
X813928Y4055599D01*
X813999Y4056639D01*
X813999Y4068423D01*
X813899Y4069291D01*
X813898Y4070162D01*
X813700Y4071001D01*
X813601Y4071858D01*
X813304Y4072679D01*
X813104Y4073528D01*
X812719Y4074299D01*
X812426Y4075111D01*
X811949Y4075842D01*
X811560Y4076622D01*
X811009Y4077284D01*
X810538Y4078008D01*
X809906Y4078611D01*
X809349Y4079281D01*
X808660Y4079799D01*
X808036Y4080396D01*
X807283Y4080838D01*
X806587Y4081362D01*
X805296Y4082004D01*
X805053Y4082147D01*
X804938Y4082183D01*
X804740Y4082281D01*
X767159Y4097847D01*
X739427Y4125579D01*
X724419Y4161811D01*
X724419Y4338189D01*
X739427Y4374421D01*
X763606Y4398600D01*
X764471Y4399692D01*
X765381Y4400739D01*
X765541Y4401042D01*
X765753Y4401311D01*
X766344Y4402570D01*
X766991Y4403800D01*
X767077Y4404131D01*
X767223Y4404441D01*
X767509Y4405802D01*
X767858Y4407148D01*
X767889Y4407604D01*
X767936Y4407825D01*
X767928Y4408166D01*
X767999Y4409206D01*
X767999Y4510940D01*
X776373Y4531155D01*
X791845Y4546627D01*
X812059Y4555000D01*
X1383940Y4555000D01*
X1404155Y4546627D01*
X1419627Y4531155D01*
X1428000Y4510940D01*
X1428000Y4409206D01*
X1428161Y4407825D01*
X1428258Y4406438D01*
X1428360Y4406110D01*
X1428399Y4405771D01*
X1428871Y4404464D01*
X1429284Y4403136D01*
X1429457Y4402841D01*
X1429574Y4402518D01*
X1430335Y4401350D01*
X1431039Y4400156D01*
X1431338Y4399813D01*
X1431462Y4399621D01*
X1431710Y4399385D01*
X1432393Y4398600D01*
X1456573Y4374421D01*
X1471580Y4338189D01*
X1471580Y4161811D01*
X1456573Y4125579D01*
X1432393Y4101400D01*
X1431527Y4100306D01*
X1430618Y4099260D01*
X1430460Y4098958D01*
X1430246Y4098689D01*
X1429654Y4097426D01*
X1429008Y4096199D01*
X1428923Y4095868D01*
X1428777Y4095558D01*
X1428491Y4094198D01*
X1428142Y4092852D01*
X1428111Y4092396D01*
X1428064Y4092174D01*
X1428072Y4091833D01*
X1428000Y4090793D01*
X1428000Y4060639D01*
X1428160Y4059260D01*
X1428258Y4057871D01*
X1428360Y4057543D01*
X1428399Y4057204D01*
X1428871Y4055897D01*
X1429284Y4054569D01*
X1429457Y4054274D01*
X1429574Y4053952D01*
X1430335Y4052783D01*
X1431039Y4051589D01*
X1431338Y4051246D01*
X1431462Y4051054D01*
X1431710Y4050818D01*
X1432393Y4050033D01*
X1439500Y4042926D01*
X1439500Y3853073D01*
X1421926Y3835499D01*
X1332073Y3835499D01*
X1314499Y3853073D01*
X1314499Y4043158D01*
X1315381Y4044173D01*
X1315540Y4044475D01*
X1315753Y4044744D01*
X1316346Y4046007D01*
X1316991Y4047233D01*
X1317077Y4047564D01*
X1317223Y4047875D01*
X1317509Y4049235D01*
X1317858Y4050581D01*
X1317889Y4051037D01*
X1317936Y4051259D01*
X1317928Y4051599D01*
X1317999Y4052639D01*
X1317999Y4090793D01*
X1317839Y4092173D01*
X1317742Y4093562D01*
X1317640Y4093889D01*
X1317601Y4094229D01*
X1317128Y4095536D01*
X1316716Y4096864D01*
X1316543Y4097159D01*
X1316426Y4097481D01*
X1315664Y4098650D01*
X1314961Y4099844D01*
X1314662Y4100187D01*
X1314538Y4100378D01*
X1314289Y4100615D01*
X1313606Y4101400D01*
X1289427Y4125579D01*
X1274419Y4161811D01*
X1274419Y4338189D01*
X1289427Y4374421D01*
X1313606Y4398600D01*
X1314473Y4399694D01*
X1315381Y4400740D01*
X1315540Y4401042D01*
X1315753Y4401311D01*
X1316346Y4402573D01*
X1316991Y4403800D01*
X1317077Y4404131D01*
X1317223Y4404442D01*
X1317509Y4405802D01*
X1317858Y4407148D01*
X1317889Y4407604D01*
X1317936Y4407826D01*
X1317928Y4408166D01*
X1317999Y4409206D01*
X1317999Y4430000D01*
X1317959Y4430349D01*
X1317983Y4430701D01*
X1317759Y4432066D01*
X1317601Y4433435D01*
X1317481Y4433766D01*
X1317424Y4434113D01*
X1316894Y4435391D01*
X1316426Y4436688D01*
X1316234Y4436982D01*
X1316099Y4437308D01*
X1315293Y4438427D01*
X1314538Y4439585D01*
X1314282Y4439829D01*
X1314077Y4440113D01*
X1313038Y4441016D01*
X1312036Y4441973D01*
X1311732Y4442151D01*
X1311467Y4442381D01*
X1310245Y4443024D01*
X1309053Y4443723D01*
X1308718Y4443827D01*
X1308406Y4443991D01*
X1307070Y4444337D01*
X1305750Y4444745D01*
X1305398Y4444770D01*
X1305058Y4444858D01*
X1303000Y4444999D01*
X1104806Y4444999D01*
X1104286Y4444939D01*
X1103765Y4444963D01*
X1102574Y4444740D01*
X1101371Y4444601D01*
X1100880Y4444423D01*
X1100366Y4444327D01*
X1099258Y4443838D01*
X1098118Y4443426D01*
X1097680Y4443140D01*
X1097203Y4442929D01*
X1096237Y4442200D01*
X1095221Y4441538D01*
X1094860Y4441159D01*
X1094443Y4440844D01*
X1093670Y4439913D01*
X1092833Y4439036D01*
X1092569Y4438585D01*
X1092235Y4438183D01*
X1091695Y4437096D01*
X1091083Y4436053D01*
X1090928Y4435555D01*
X1090695Y4435087D01*
X1090419Y4433908D01*
X1090061Y4432750D01*
X1090025Y4432227D01*
X1089906Y4431720D01*
X1089906Y4430512D01*
X1089823Y4429299D01*
X1089908Y4428782D01*
X1089908Y4428262D01*
X1090185Y4427085D01*
X1090382Y4425887D01*
X1090582Y4425403D01*
X1090702Y4424896D01*
X1091242Y4423813D01*
X1091707Y4422693D01*
X1092013Y4422268D01*
X1092246Y4421801D01*
X1093020Y4420870D01*
X1093729Y4419887D01*
X1094123Y4419545D01*
X1094457Y4419143D01*
X1095426Y4418413D01*
X1096339Y4417619D01*
X1096802Y4417376D01*
X1097219Y4417061D01*
X1099066Y4416143D01*
X1132841Y4402153D01*
X1160573Y4374421D01*
X1175580Y4338189D01*
X1175580Y4223766D01*
X1175601Y4223586D01*
X1175585Y4223406D01*
X1175800Y4221870D01*
X1175979Y4220331D01*
X1176040Y4220161D01*
X1176066Y4219981D01*
X1176722Y4218026D01*
X1178000Y4214940D01*
X1178000Y4056639D01*
X1178161Y4055258D01*
X1178258Y4053871D01*
X1178360Y4053543D01*
X1178399Y4053204D01*
X1178871Y4051897D01*
X1179284Y4050569D01*
X1179457Y4050274D01*
X1179574Y4049952D01*
X1180335Y4048783D01*
X1181039Y4047589D01*
X1181338Y4047246D01*
X1181462Y4047054D01*
X1181710Y4046818D01*
X1182393Y4046033D01*
X1185500Y4042926D01*
X1185500Y3853073D01*
X1182393Y3849967D01*
X1181527Y3848873D01*
X1180618Y3847827D01*
X1180460Y3847525D01*
X1180246Y3847256D01*
X1179654Y3845993D01*
X1179008Y3844766D01*
X1178923Y3844435D01*
X1178777Y3844125D01*
X1178491Y3842765D01*
X1178142Y3841418D01*
X1178111Y3840963D01*
X1178064Y3840741D01*
X1178072Y3840400D01*
X1178000Y3839360D01*
X1178000Y3770000D01*
X1178041Y3769651D01*
X1178017Y3769299D01*
X1178240Y3767933D01*
X1178399Y3766564D01*
X1178518Y3766234D01*
X1178575Y3765886D01*
X1179105Y3764609D01*
X1179574Y3763312D01*
X1179766Y3763018D01*
X1179901Y3762692D01*
X1180707Y3761573D01*
X1181462Y3760415D01*
X1181718Y3760171D01*
X1181923Y3759887D01*
X1182962Y3758983D01*
X1183964Y3758027D01*
X1184268Y3757849D01*
X1184533Y3757618D01*
X1185755Y3756976D01*
X1186946Y3756276D01*
X1187282Y3756173D01*
X1187594Y3756008D01*
X1188930Y3755663D01*
X1190250Y3755254D01*
X1190602Y3755230D01*
X1190942Y3755142D01*
X1193000Y3755000D01*
X1899000Y3755000D01*
X1899349Y3755041D01*
X1899701Y3755017D01*
X1901066Y3755240D01*
X1902435Y3755399D01*
X1902766Y3755518D01*
X1903113Y3755575D01*
X1904391Y3756105D01*
X1905688Y3756574D01*
X1905982Y3756766D01*
X1906308Y3756901D01*
X1907427Y3757707D01*
X1908585Y3758462D01*
X1908829Y3758718D01*
X1909113Y3758923D01*
X1910016Y3759962D01*
X1910973Y3760964D01*
X1911151Y3761268D01*
X1911381Y3761533D01*
X1912024Y3762755D01*
X1912723Y3763946D01*
X1912827Y3764282D01*
X1912991Y3764594D01*
X1913337Y3765930D01*
X1913745Y3767250D01*
X1913770Y3767602D01*
X1913858Y3767942D01*
X1913999Y3770000D01*
X1913999Y3839361D01*
X1913839Y3840741D01*
X1913742Y3842129D01*
X1913640Y3842456D01*
X1913601Y3842796D01*
X1913128Y3844103D01*
X1912716Y3845432D01*
X1912542Y3845727D01*
X1912426Y3846048D01*
X1911666Y3847214D01*
X1910961Y3848412D01*
X1910662Y3848755D01*
X1910538Y3848946D01*
X1910289Y3849183D01*
X1909606Y3849967D01*
X1906499Y3853073D01*
X1906499Y4042926D01*
X1909606Y4046033D01*
X1910470Y4047124D01*
X1911381Y4048173D01*
X1911540Y4048475D01*
X1911753Y4048743D01*
X1912346Y4050006D01*
X1912991Y4051233D01*
X1913077Y4051563D01*
X1913223Y4051874D01*
X1913509Y4053236D01*
X1913858Y4054581D01*
X1913889Y4055036D01*
X1913936Y4055258D01*
X1913928Y4055599D01*
X1913999Y4056639D01*
X1913999Y4094793D01*
X1913839Y4096173D01*
X1913742Y4097562D01*
X1913640Y4097889D01*
X1913601Y4098229D01*
X1913128Y4099536D01*
X1912716Y4100864D01*
X1912543Y4101159D01*
X1912426Y4101481D01*
X1911664Y4102650D01*
X1910961Y4103844D01*
X1910662Y4104187D01*
X1910538Y4104378D01*
X1910289Y4104615D01*
X1909606Y4105400D01*
X1889427Y4125579D01*
X1874419Y4161811D01*
X1874419Y4338189D01*
X1889427Y4374421D01*
X1917159Y4402153D01*
X1953391Y4417160D01*
X1992609Y4417160D01*
X2028841Y4402153D01*
X2056573Y4374421D01*
X2071580Y4338189D01*
X2071580Y4161811D01*
X2056573Y4125579D01*
X2028393Y4097400D01*
X2027527Y4096306D01*
X2026618Y4095260D01*
X2026460Y4094958D01*
X2026246Y4094689D01*
X2025654Y4093426D01*
X2025008Y4092199D01*
X2024923Y4091868D01*
X2024777Y4091558D01*
X2024491Y4090198D01*
X2024142Y4088852D01*
X2024111Y4088396D01*
X2024064Y4088174D01*
X2024072Y4087833D01*
X2024000Y4086793D01*
X2024000Y4056639D01*
X2024161Y4055256D01*
X2024258Y4053871D01*
X2024360Y4053544D01*
X2024399Y4053204D01*
X2024871Y4051896D01*
X2025284Y4050568D01*
X2025458Y4050273D01*
X2025574Y4049951D01*
X2026333Y4048786D01*
X2027039Y4047588D01*
X2027338Y4047245D01*
X2027462Y4047054D01*
X2027710Y4046817D01*
X2028394Y4046033D01*
X2031500Y4042926D01*
X2031500Y3853073D01*
X2028394Y3849967D01*
X2027529Y3848876D01*
X2026618Y3847827D01*
X2026459Y3847525D01*
X2026247Y3847256D01*
X2025654Y3845994D01*
X2025008Y3844767D01*
X2024923Y3844436D01*
X2024777Y3844126D01*
X2024490Y3842763D01*
X2024142Y3841419D01*
X2024111Y3840963D01*
X2024064Y3840742D01*
X2024072Y3840401D01*
X2024000Y3839361D01*
X2024000Y3770000D01*
X2024041Y3769651D01*
X2024017Y3769299D01*
X2024240Y3767933D01*
X2024399Y3766564D01*
X2024518Y3766234D01*
X2024575Y3765886D01*
X2025105Y3764609D01*
X2025574Y3763312D01*
X2025766Y3763018D01*
X2025901Y3762692D01*
X2026707Y3761573D01*
X2027462Y3760415D01*
X2027718Y3760171D01*
X2027923Y3759887D01*
X2028962Y3758983D01*
X2029964Y3758027D01*
X2030268Y3757849D01*
X2030533Y3757618D01*
X2031755Y3756976D01*
X2032946Y3756276D01*
X2033282Y3756173D01*
X2033594Y3756008D01*
X2034930Y3755663D01*
X2036250Y3755254D01*
X2036602Y3755230D01*
X2036942Y3755142D01*
X2039000Y3755000D01*
X2407000Y3755000D01*
X2407349Y3755041D01*
X2407701Y3755017D01*
X2409066Y3755240D01*
X2410435Y3755399D01*
X2410766Y3755518D01*
X2411113Y3755575D01*
X2412391Y3756105D01*
X2413688Y3756574D01*
X2413982Y3756766D01*
X2414308Y3756901D01*
X2415427Y3757707D01*
X2416585Y3758462D01*
X2416829Y3758718D01*
X2417113Y3758923D01*
X2418016Y3759962D01*
X2418973Y3760964D01*
X2419151Y3761268D01*
X2419381Y3761533D01*
X2420024Y3762755D01*
X2420723Y3763946D01*
X2420827Y3764282D01*
X2420991Y3764594D01*
X2421337Y3765930D01*
X2421745Y3767250D01*
X2421770Y3767602D01*
X2421858Y3767942D01*
X2421999Y3770000D01*
X2421999Y3839361D01*
X2421839Y3840741D01*
X2421742Y3842129D01*
X2421640Y3842456D01*
X2421601Y3842796D01*
X2421128Y3844103D01*
X2420716Y3845432D01*
X2420542Y3845727D01*
X2420426Y3846048D01*
X2419666Y3847214D01*
X2418961Y3848412D01*
X2418662Y3848755D01*
X2418538Y3848946D01*
X2418289Y3849183D01*
X2417606Y3849967D01*
X2414499Y3853073D01*
X2414499Y4042926D01*
X2417606Y4046033D01*
X2418470Y4047124D01*
X2419381Y4048173D01*
X2419540Y4048475D01*
X2419753Y4048743D01*
X2420346Y4050006D01*
X2420991Y4051233D01*
X2421077Y4051563D01*
X2421223Y4051874D01*
X2421509Y4053236D01*
X2421858Y4054581D01*
X2421889Y4055036D01*
X2421936Y4055258D01*
X2421928Y4055599D01*
X2421999Y4056639D01*
X2421999Y4214940D01*
X2423278Y4218026D01*
X2423327Y4218200D01*
X2423411Y4218360D01*
X2423800Y4219861D01*
X2424224Y4221352D01*
X2424232Y4221532D01*
X2424278Y4221708D01*
X2424419Y4223766D01*
X2424419Y4338189D01*
X2439427Y4374421D01*
X2467159Y4402153D01*
X2503391Y4417160D01*
X2542609Y4417160D01*
X2578841Y4402153D01*
X2606573Y4374421D01*
X2621580Y4338189D01*
X2621580Y4161811D01*
X2606573Y4125579D01*
X2578841Y4097847D01*
X2541260Y4082280D01*
X2540499Y4081857D01*
X2539692Y4081522D01*
X2538992Y4081017D01*
X2538238Y4080598D01*
X2537594Y4080010D01*
X2536887Y4079500D01*
X2536321Y4078849D01*
X2535683Y4078268D01*
X2535190Y4077547D01*
X2534618Y4076889D01*
X2534217Y4076126D01*
X2533729Y4075414D01*
X2533414Y4074601D01*
X2533008Y4073829D01*
X2532792Y4072993D01*
X2532481Y4072189D01*
X2532361Y4071325D01*
X2532142Y4070481D01*
X2532043Y4069045D01*
X2532004Y4068764D01*
X2532015Y4068642D01*
X2532000Y4068423D01*
X2532000Y4056639D01*
X2532161Y4055256D01*
X2532258Y4053871D01*
X2532360Y4053544D01*
X2532399Y4053204D01*
X2532871Y4051896D01*
X2533284Y4050568D01*
X2533458Y4050273D01*
X2533574Y4049951D01*
X2534333Y4048786D01*
X2535039Y4047588D01*
X2535338Y4047245D01*
X2535462Y4047054D01*
X2535710Y4046817D01*
X2536394Y4046033D01*
X2539500Y4042926D01*
X2539500Y3853073D01*
X2536394Y3849967D01*
X2535529Y3848876D01*
X2534618Y3847827D01*
X2534459Y3847525D01*
X2534247Y3847256D01*
X2533654Y3845994D01*
X2533008Y3844767D01*
X2532923Y3844436D01*
X2532777Y3844126D01*
X2532490Y3842763D01*
X2532142Y3841419D01*
X2532111Y3840963D01*
X2532064Y3840742D01*
X2532072Y3840401D01*
X2532000Y3839361D01*
X2532000Y3689059D01*
X2523627Y3668845D01*
X2508155Y3653373D01*
X2487940Y3644999D01*
X1112059Y3644999D01*
G37*
%LPD*%
G36*
X1200080Y5770017D02*
X1200080Y5770017D01*
X1200160Y5770003D01*
X1201053Y5770215D01*
X1201950Y5770397D01*
X1202017Y5770443D01*
X1202096Y5770461D01*
X1202836Y5771004D01*
X1203591Y5771522D01*
X1203635Y5771590D01*
X1203701Y5771638D01*
X1204170Y5772428D01*
X1204663Y5773198D01*
X1204677Y5773278D01*
X1204719Y5773348D01*
X1204999Y5775000D01*
X1204999Y6575000D01*
X1204993Y6575034D01*
X1204997Y6575060D01*
X1204987Y6575102D01*
X1204997Y6575160D01*
X1204785Y6576053D01*
X1204603Y6576950D01*
X1204558Y6577017D01*
X1204539Y6577096D01*
X1203996Y6577836D01*
X1203478Y6578591D01*
X1203410Y6578635D01*
X1203362Y6578701D01*
X1202573Y6579170D01*
X1201802Y6579663D01*
X1201722Y6579677D01*
X1201652Y6579719D01*
X1200000Y6579999D01*
X600000Y6579999D01*
X599808Y6579961D01*
X599564Y6579980D01*
X582200Y6578461D01*
X581849Y6578357D01*
X581342Y6578310D01*
X564504Y6573798D01*
X564177Y6573635D01*
X563685Y6573500D01*
X547887Y6566133D01*
X547593Y6565916D01*
X547133Y6565698D01*
X532854Y6555700D01*
X532601Y6555434D01*
X532186Y6555139D01*
X519861Y6542814D01*
X519659Y6542509D01*
X519300Y6542146D01*
X509302Y6527868D01*
X509156Y6527532D01*
X508867Y6527113D01*
X501500Y6511315D01*
X501414Y6510959D01*
X501202Y6510496D01*
X496690Y6493658D01*
X496668Y6493293D01*
X496539Y6492800D01*
X495020Y6475436D01*
X495042Y6475242D01*
X495001Y6475000D01*
X495001Y5775000D01*
X495017Y5774920D01*
X495003Y5774840D01*
X495215Y5773947D01*
X495397Y5773050D01*
X495443Y5772983D01*
X495461Y5772904D01*
X496004Y5772164D01*
X496522Y5771409D01*
X496590Y5771365D01*
X496638Y5771299D01*
X497428Y5770830D01*
X498198Y5770337D01*
X498278Y5770323D01*
X498348Y5770281D01*
X500000Y5770001D01*
X1200000Y5770001D01*
X1200080Y5770017D01*
G37*
G36*
X3075080Y5770017D02*
X3075080Y5770017D01*
X3075160Y5770003D01*
X3076053Y5770215D01*
X3076950Y5770397D01*
X3077017Y5770443D01*
X3077096Y5770461D01*
X3077836Y5771004D01*
X3078591Y5771522D01*
X3078635Y5771590D01*
X3078701Y5771638D01*
X3079170Y5772428D01*
X3079663Y5773198D01*
X3079677Y5773278D01*
X3079719Y5773348D01*
X3079999Y5775000D01*
X3079999Y6475000D01*
X3079991Y6475040D01*
X3079997Y6475073D01*
X3079963Y6475218D01*
X3079980Y6475436D01*
X3078461Y6492800D01*
X3078357Y6493151D01*
X3078310Y6493658D01*
X3073798Y6510496D01*
X3073635Y6510823D01*
X3073500Y6511315D01*
X3066133Y6527113D01*
X3065916Y6527407D01*
X3065698Y6527868D01*
X3055700Y6542146D01*
X3055434Y6542399D01*
X3055139Y6542814D01*
X3042814Y6555139D01*
X3042509Y6555341D01*
X3042146Y6555700D01*
X3027868Y6565698D01*
X3027532Y6565844D01*
X3027113Y6566133D01*
X3011315Y6573500D01*
X3010959Y6573586D01*
X3010496Y6573798D01*
X2993658Y6578310D01*
X2993293Y6578332D01*
X2992800Y6578461D01*
X2975436Y6579980D01*
X2975242Y6579958D01*
X2975000Y6579999D01*
X2400000Y6579999D01*
X2399920Y6579983D01*
X2399840Y6579997D01*
X2398947Y6579785D01*
X2398050Y6579603D01*
X2397983Y6579558D01*
X2397904Y6579539D01*
X2397164Y6578996D01*
X2396409Y6578478D01*
X2396365Y6578410D01*
X2396299Y6578362D01*
X2395830Y6577573D01*
X2395337Y6576802D01*
X2395323Y6576722D01*
X2395281Y6576652D01*
X2395001Y6575000D01*
X2395001Y5775000D01*
X2395017Y5774920D01*
X2395003Y5774840D01*
X2395215Y5773947D01*
X2395397Y5773050D01*
X2395443Y5772983D01*
X2395461Y5772904D01*
X2396004Y5772164D01*
X2396522Y5771409D01*
X2396590Y5771365D01*
X2396638Y5771299D01*
X2397428Y5770830D01*
X2398198Y5770337D01*
X2398278Y5770323D01*
X2398348Y5770281D01*
X2400000Y5770001D01*
X3075000Y5770001D01*
X3075080Y5770017D01*
G37*
%LPC*%
G36*
X2686073Y3835499D02*
X2686073Y3835499D01*
X2668499Y3853073D01*
X2668499Y4042926D01*
X2671606Y4046033D01*
X2672473Y4047127D01*
X2673381Y4048173D01*
X2673540Y4048475D01*
X2673753Y4048744D01*
X2674346Y4050007D01*
X2674991Y4051233D01*
X2675077Y4051564D01*
X2675223Y4051875D01*
X2675509Y4053235D01*
X2675858Y4054581D01*
X2675889Y4055037D01*
X2675936Y4055259D01*
X2675928Y4055599D01*
X2675999Y4056639D01*
X2675999Y4214940D01*
X2677278Y4218026D01*
X2677327Y4218200D01*
X2677411Y4218360D01*
X2677800Y4219861D01*
X2678224Y4221352D01*
X2678232Y4221532D01*
X2678278Y4221708D01*
X2678419Y4223766D01*
X2678419Y4338189D01*
X2693427Y4374421D01*
X2717606Y4398600D01*
X2718473Y4399694D01*
X2719381Y4400740D01*
X2719540Y4401042D01*
X2719753Y4401311D01*
X2720346Y4402573D01*
X2720991Y4403800D01*
X2721077Y4404131D01*
X2721223Y4404442D01*
X2721509Y4405802D01*
X2721858Y4407148D01*
X2721889Y4407604D01*
X2721936Y4407826D01*
X2721928Y4408166D01*
X2721999Y4409206D01*
X2721999Y4519005D01*
X2721839Y4520385D01*
X2721742Y4521773D01*
X2721640Y4522101D01*
X2721601Y4522440D01*
X2721128Y4523747D01*
X2720716Y4525076D01*
X2720543Y4525370D01*
X2720426Y4525693D01*
X2719664Y4526861D01*
X2718961Y4528056D01*
X2718662Y4528399D01*
X2718538Y4528590D01*
X2718289Y4528827D01*
X2717606Y4529611D01*
X2506611Y4740606D01*
X2505517Y4741473D01*
X2504472Y4742381D01*
X2504170Y4742540D01*
X2503900Y4742753D01*
X2502638Y4743346D01*
X2501411Y4743991D01*
X2501080Y4744077D01*
X2500770Y4744223D01*
X2499409Y4744509D01*
X2498063Y4744858D01*
X2497607Y4744889D01*
X2497386Y4744936D01*
X2497045Y4744928D01*
X2496005Y4744999D01*
X1312059Y4744999D01*
X1291845Y4753373D01*
X904611Y5140606D01*
X903517Y5141473D01*
X902472Y5142381D01*
X902170Y5142540D01*
X901900Y5142753D01*
X900638Y5143346D01*
X899411Y5143991D01*
X899080Y5144077D01*
X898770Y5144223D01*
X897409Y5144509D01*
X896063Y5144858D01*
X895607Y5144889D01*
X895386Y5144936D01*
X895045Y5144928D01*
X894005Y5144999D01*
X852113Y5144999D01*
X813522Y5160984D01*
X783984Y5190522D01*
X767999Y5229113D01*
X767999Y5270886D01*
X783984Y5309478D01*
X813606Y5339099D01*
X814471Y5340191D01*
X815381Y5341239D01*
X815541Y5341542D01*
X815753Y5341810D01*
X816344Y5343069D01*
X816991Y5344299D01*
X817077Y5344630D01*
X817223Y5344941D01*
X817509Y5346301D01*
X817567Y5346522D01*
X817745Y5347101D01*
X817756Y5347255D01*
X817858Y5347647D01*
X817889Y5348103D01*
X817936Y5348325D01*
X817928Y5348665D01*
X817999Y5349705D01*
X817999Y5450294D01*
X817839Y5451674D01*
X817742Y5453062D01*
X817640Y5453390D01*
X817601Y5453729D01*
X817128Y5455036D01*
X816716Y5456365D01*
X816543Y5456659D01*
X816426Y5456982D01*
X815664Y5458150D01*
X814961Y5459345D01*
X814662Y5459688D01*
X814538Y5459879D01*
X814289Y5460116D01*
X813606Y5460900D01*
X783984Y5490522D01*
X767999Y5529113D01*
X767999Y5570886D01*
X783984Y5609478D01*
X813522Y5639015D01*
X852113Y5655000D01*
X893886Y5655000D01*
X932478Y5639015D01*
X962015Y5609478D01*
X978000Y5570886D01*
X978000Y5529113D01*
X962015Y5490522D01*
X932393Y5460900D01*
X931527Y5459806D01*
X930618Y5458761D01*
X930460Y5458459D01*
X930246Y5458189D01*
X929654Y5456927D01*
X929008Y5455700D01*
X928923Y5455369D01*
X928777Y5455059D01*
X928490Y5453695D01*
X928142Y5452352D01*
X928111Y5451896D01*
X928064Y5451675D01*
X928072Y5451334D01*
X928000Y5450294D01*
X928000Y5349705D01*
X928035Y5349410D01*
X928017Y5349150D01*
X928167Y5348230D01*
X928258Y5346937D01*
X928360Y5346609D01*
X928399Y5346270D01*
X928562Y5345819D01*
X928575Y5345737D01*
X928701Y5345434D01*
X928871Y5344964D01*
X929284Y5343634D01*
X929458Y5343339D01*
X929574Y5343018D01*
X930334Y5341850D01*
X931039Y5340655D01*
X931338Y5340312D01*
X931462Y5340120D01*
X931710Y5339884D01*
X932393Y5339099D01*
X962015Y5309478D01*
X978000Y5270886D01*
X978000Y5228995D01*
X978160Y5227615D01*
X978258Y5226227D01*
X978360Y5225899D01*
X978399Y5225559D01*
X978871Y5224253D01*
X979284Y5222924D01*
X979457Y5222629D01*
X979574Y5222307D01*
X980333Y5221142D01*
X981038Y5219944D01*
X981338Y5219600D01*
X981462Y5219410D01*
X981709Y5219174D01*
X982393Y5218388D01*
X1013357Y5187425D01*
X1014228Y5186735D01*
X1015037Y5185977D01*
X1015578Y5185666D01*
X1016068Y5185278D01*
X1017072Y5184807D01*
X1018035Y5184253D01*
X1018633Y5184074D01*
X1019198Y5183808D01*
X1020283Y5183580D01*
X1021348Y5183261D01*
X1021972Y5183224D01*
X1022583Y5183095D01*
X1023692Y5183121D01*
X1024800Y5183055D01*
X1025415Y5183161D01*
X1026040Y5183176D01*
X1027115Y5183456D01*
X1028208Y5183645D01*
X1028783Y5183889D01*
X1029387Y5184047D01*
X1030368Y5184564D01*
X1031389Y5184999D01*
X1031893Y5185369D01*
X1032445Y5185660D01*
X1033283Y5186390D01*
X1034177Y5187046D01*
X1034581Y5187520D01*
X1035053Y5187932D01*
X1035702Y5188834D01*
X1036421Y5189677D01*
X1036707Y5190233D01*
X1037071Y5190740D01*
X1037495Y5191765D01*
X1038003Y5192753D01*
X1038154Y5193359D01*
X1038393Y5193936D01*
X1038570Y5195029D01*
X1038839Y5196108D01*
X1038847Y5196734D01*
X1038947Y5197349D01*
X1038869Y5198456D01*
X1038884Y5199566D01*
X1038749Y5200176D01*
X1038705Y5200799D01*
X1038376Y5201859D01*
X1038136Y5202943D01*
X1037779Y5203781D01*
X1037679Y5204102D01*
X1037546Y5204328D01*
X1037328Y5204841D01*
X1033955Y5211458D01*
X1031180Y5220001D01*
X1097001Y5220001D01*
X1097001Y5154180D01*
X1088458Y5156955D01*
X1081841Y5160328D01*
X1080802Y5160713D01*
X1079796Y5161186D01*
X1079184Y5161315D01*
X1078599Y5161532D01*
X1077498Y5161670D01*
X1076412Y5161899D01*
X1075788Y5161884D01*
X1075168Y5161962D01*
X1074065Y5161844D01*
X1072954Y5161818D01*
X1072349Y5161661D01*
X1071729Y5161594D01*
X1070681Y5161227D01*
X1069608Y5160948D01*
X1069056Y5160657D01*
X1068466Y5160449D01*
X1067530Y5159851D01*
X1066549Y5159334D01*
X1066077Y5158923D01*
X1065552Y5158587D01*
X1064780Y5157793D01*
X1063941Y5157063D01*
X1063576Y5156554D01*
X1063141Y5156107D01*
X1062571Y5155157D01*
X1061923Y5154254D01*
X1061684Y5153677D01*
X1061363Y5153141D01*
X1061025Y5152084D01*
X1060602Y5151058D01*
X1060502Y5150443D01*
X1060311Y5149847D01*
X1060225Y5148738D01*
X1060047Y5147645D01*
X1060091Y5147022D01*
X1060042Y5146399D01*
X1060211Y5145303D01*
X1060289Y5144195D01*
X1060474Y5143598D01*
X1060570Y5142981D01*
X1060986Y5141951D01*
X1061315Y5140893D01*
X1061631Y5140356D01*
X1061866Y5139775D01*
X1062508Y5138867D01*
X1063070Y5137913D01*
X1063668Y5137225D01*
X1063862Y5136951D01*
X1064058Y5136778D01*
X1064425Y5136357D01*
X1341388Y4859393D01*
X1342483Y4858527D01*
X1343528Y4857618D01*
X1343830Y4857460D01*
X1344099Y4857246D01*
X1345362Y4856654D01*
X1346589Y4856008D01*
X1346920Y4855923D01*
X1347230Y4855777D01*
X1348590Y4855491D01*
X1349937Y4855142D01*
X1350393Y4855111D01*
X1350614Y4855064D01*
X1350955Y4855072D01*
X1351995Y4855000D01*
X2535940Y4855000D01*
X2556155Y4846627D01*
X2823627Y4579155D01*
X2832000Y4558940D01*
X2832000Y4409206D01*
X2832161Y4407825D01*
X2832258Y4406438D01*
X2832360Y4406110D01*
X2832399Y4405771D01*
X2832871Y4404464D01*
X2833284Y4403136D01*
X2833457Y4402841D01*
X2833574Y4402518D01*
X2834335Y4401350D01*
X2835039Y4400156D01*
X2835338Y4399813D01*
X2835462Y4399621D01*
X2835710Y4399385D01*
X2836393Y4398600D01*
X2860573Y4374421D01*
X2875580Y4338189D01*
X2875580Y4161811D01*
X2860573Y4125579D01*
X2832841Y4097847D01*
X2795260Y4082280D01*
X2794499Y4081857D01*
X2793692Y4081522D01*
X2792992Y4081017D01*
X2792238Y4080598D01*
X2791594Y4080010D01*
X2790887Y4079500D01*
X2790321Y4078849D01*
X2789683Y4078268D01*
X2789190Y4077547D01*
X2788618Y4076889D01*
X2788217Y4076126D01*
X2787729Y4075414D01*
X2787414Y4074601D01*
X2787008Y4073829D01*
X2786792Y4072993D01*
X2786481Y4072189D01*
X2786361Y4071325D01*
X2786142Y4070481D01*
X2786043Y4069045D01*
X2786004Y4068764D01*
X2786015Y4068642D01*
X2786000Y4068423D01*
X2786000Y4056639D01*
X2786161Y4055258D01*
X2786258Y4053871D01*
X2786360Y4053543D01*
X2786399Y4053204D01*
X2786871Y4051897D01*
X2787284Y4050569D01*
X2787457Y4050274D01*
X2787574Y4049952D01*
X2788335Y4048783D01*
X2789039Y4047589D01*
X2789338Y4047246D01*
X2789462Y4047054D01*
X2789710Y4046818D01*
X2790393Y4046033D01*
X2793500Y4042926D01*
X2793500Y3853073D01*
X2775926Y3835499D01*
X2686073Y3835499D01*
G37*
%LPD*%
%LPC*%
G36*
X2028859Y1994049D02*
X2028859Y1994049D01*
X1948049Y2074859D01*
X1948049Y2192435D01*
X1948127Y2192668D01*
X1948206Y2193526D01*
X1948383Y2194365D01*
X1948363Y2195239D01*
X1948443Y2196112D01*
X1948323Y2196963D01*
X1948304Y2197823D01*
X1948084Y2198669D01*
X1947962Y2199536D01*
X1947506Y2200894D01*
X1947435Y2201170D01*
X1947377Y2201279D01*
X1947306Y2201492D01*
X1944999Y2207059D01*
X1944999Y2409420D01*
X1944959Y2409769D01*
X1944983Y2410121D01*
X1944759Y2411486D01*
X1944601Y2412855D01*
X1944481Y2413186D01*
X1944424Y2413533D01*
X1943894Y2414811D01*
X1943426Y2416108D01*
X1943234Y2416402D01*
X1943099Y2416728D01*
X1942293Y2417847D01*
X1941538Y2419005D01*
X1941282Y2419249D01*
X1941077Y2419533D01*
X1940038Y2420436D01*
X1939036Y2421393D01*
X1938732Y2421571D01*
X1938467Y2421801D01*
X1937245Y2422444D01*
X1936053Y2423143D01*
X1935718Y2423247D01*
X1935406Y2423411D01*
X1934070Y2423757D01*
X1932750Y2424165D01*
X1932398Y2424190D01*
X1932058Y2424278D01*
X1930000Y2424419D01*
X1911811Y2424419D01*
X1875579Y2439427D01*
X1851400Y2463606D01*
X1850306Y2464473D01*
X1849260Y2465381D01*
X1848958Y2465540D01*
X1848689Y2465753D01*
X1847426Y2466346D01*
X1846199Y2466991D01*
X1845868Y2467077D01*
X1845558Y2467223D01*
X1844198Y2467509D01*
X1842852Y2467858D01*
X1842396Y2467889D01*
X1842174Y2467936D01*
X1841833Y2467928D01*
X1840793Y2467999D01*
X1509206Y2467999D01*
X1507827Y2467839D01*
X1506438Y2467742D01*
X1506110Y2467640D01*
X1505771Y2467601D01*
X1504464Y2467128D01*
X1503136Y2466716D01*
X1502841Y2466543D01*
X1502518Y2466426D01*
X1501350Y2465664D01*
X1500156Y2464961D01*
X1499813Y2464662D01*
X1499621Y2464538D01*
X1499385Y2464289D01*
X1498600Y2463606D01*
X1474421Y2439427D01*
X1438189Y2424419D01*
X1261811Y2424419D01*
X1225579Y2439427D01*
X1201400Y2463606D01*
X1200306Y2464473D01*
X1199260Y2465381D01*
X1198958Y2465540D01*
X1198689Y2465753D01*
X1197426Y2466346D01*
X1196199Y2466991D01*
X1195868Y2467077D01*
X1195558Y2467223D01*
X1194198Y2467509D01*
X1192852Y2467858D01*
X1192396Y2467889D01*
X1192174Y2467936D01*
X1191833Y2467928D01*
X1190793Y2467999D01*
X1009206Y2467999D01*
X1007827Y2467839D01*
X1006438Y2467742D01*
X1006110Y2467640D01*
X1005771Y2467601D01*
X1004464Y2467128D01*
X1003136Y2466716D01*
X1002841Y2466543D01*
X1002518Y2466426D01*
X1001350Y2465664D01*
X1000156Y2464961D01*
X999813Y2464662D01*
X999621Y2464538D01*
X999385Y2464289D01*
X998600Y2463606D01*
X974421Y2439427D01*
X938189Y2424419D01*
X761811Y2424419D01*
X725579Y2439427D01*
X697847Y2467159D01*
X682839Y2503391D01*
X682839Y2542609D01*
X697847Y2578841D01*
X725579Y2606573D01*
X761811Y2621580D01*
X938189Y2621580D01*
X974421Y2606573D01*
X998600Y2582393D01*
X999694Y2581527D01*
X1000740Y2580618D01*
X1001042Y2580460D01*
X1001311Y2580246D01*
X1002573Y2579654D01*
X1003800Y2579008D01*
X1004131Y2578923D01*
X1004442Y2578777D01*
X1005802Y2578491D01*
X1007148Y2578142D01*
X1007604Y2578111D01*
X1007826Y2578064D01*
X1008166Y2578072D01*
X1009206Y2578000D01*
X1190793Y2578000D01*
X1192173Y2578160D01*
X1193562Y2578258D01*
X1193889Y2578360D01*
X1194229Y2578399D01*
X1195536Y2578871D01*
X1196864Y2579284D01*
X1197159Y2579457D01*
X1197481Y2579574D01*
X1198650Y2580335D01*
X1199844Y2581039D01*
X1200187Y2581338D01*
X1200378Y2581462D01*
X1200615Y2581710D01*
X1201400Y2582393D01*
X1225579Y2606573D01*
X1261811Y2621580D01*
X1438189Y2621580D01*
X1474421Y2606573D01*
X1498600Y2582393D01*
X1499694Y2581527D01*
X1500740Y2580618D01*
X1501042Y2580460D01*
X1501311Y2580246D01*
X1502573Y2579654D01*
X1503800Y2579008D01*
X1504131Y2578923D01*
X1504442Y2578777D01*
X1505802Y2578491D01*
X1507148Y2578142D01*
X1507604Y2578111D01*
X1507826Y2578064D01*
X1508166Y2578072D01*
X1509206Y2578000D01*
X1840793Y2578000D01*
X1842173Y2578160D01*
X1843562Y2578258D01*
X1843889Y2578360D01*
X1844229Y2578399D01*
X1845536Y2578871D01*
X1846864Y2579284D01*
X1847159Y2579457D01*
X1847481Y2579574D01*
X1848650Y2580335D01*
X1849844Y2581039D01*
X1850187Y2581338D01*
X1850378Y2581462D01*
X1850615Y2581710D01*
X1851400Y2582393D01*
X1875579Y2606573D01*
X1911811Y2621580D01*
X2088189Y2621580D01*
X2124421Y2606573D01*
X2148600Y2582393D01*
X2149694Y2581527D01*
X2150740Y2580618D01*
X2151042Y2580460D01*
X2151311Y2580246D01*
X2152573Y2579654D01*
X2153800Y2579008D01*
X2154131Y2578923D01*
X2154442Y2578777D01*
X2155802Y2578491D01*
X2157148Y2578142D01*
X2157604Y2578111D01*
X2157826Y2578064D01*
X2158166Y2578072D01*
X2159206Y2578000D01*
X2340793Y2578000D01*
X2342173Y2578160D01*
X2343562Y2578258D01*
X2343889Y2578360D01*
X2344229Y2578399D01*
X2345536Y2578871D01*
X2346864Y2579284D01*
X2347159Y2579457D01*
X2347481Y2579574D01*
X2348650Y2580335D01*
X2349844Y2581039D01*
X2350187Y2581338D01*
X2350378Y2581462D01*
X2350615Y2581710D01*
X2351400Y2582393D01*
X2375579Y2606573D01*
X2411811Y2621580D01*
X2588189Y2621580D01*
X2624421Y2606573D01*
X2652153Y2578841D01*
X2667160Y2542609D01*
X2667160Y2503391D01*
X2652153Y2467159D01*
X2624421Y2439427D01*
X2588189Y2424419D01*
X2411811Y2424419D01*
X2375579Y2439427D01*
X2351400Y2463606D01*
X2350306Y2464473D01*
X2349260Y2465381D01*
X2348958Y2465540D01*
X2348689Y2465753D01*
X2347426Y2466346D01*
X2346199Y2466991D01*
X2345868Y2467077D01*
X2345558Y2467223D01*
X2344198Y2467509D01*
X2342852Y2467858D01*
X2342396Y2467889D01*
X2342174Y2467936D01*
X2341833Y2467928D01*
X2340793Y2467999D01*
X2159206Y2467999D01*
X2157827Y2467839D01*
X2156438Y2467742D01*
X2156110Y2467640D01*
X2155771Y2467601D01*
X2154464Y2467128D01*
X2153136Y2466716D01*
X2152841Y2466543D01*
X2152518Y2466426D01*
X2151350Y2465664D01*
X2150156Y2464961D01*
X2149813Y2464662D01*
X2149621Y2464538D01*
X2149385Y2464289D01*
X2148600Y2463606D01*
X2124421Y2439427D01*
X2088189Y2424419D01*
X2070000Y2424419D01*
X2069651Y2424379D01*
X2069299Y2424403D01*
X2067933Y2424179D01*
X2066564Y2424021D01*
X2066234Y2423901D01*
X2065886Y2423844D01*
X2064609Y2423314D01*
X2063312Y2422846D01*
X2063018Y2422654D01*
X2062692Y2422519D01*
X2061573Y2421713D01*
X2060415Y2420958D01*
X2060171Y2420702D01*
X2059887Y2420497D01*
X2058983Y2419458D01*
X2058027Y2418456D01*
X2057849Y2418152D01*
X2057618Y2417887D01*
X2056976Y2416665D01*
X2056276Y2415473D01*
X2056173Y2415138D01*
X2056008Y2414826D01*
X2055663Y2413490D01*
X2055254Y2412170D01*
X2055230Y2411818D01*
X2055142Y2411478D01*
X2055000Y2409420D01*
X2055000Y2284950D01*
X2055041Y2284601D01*
X2055017Y2284249D01*
X2055240Y2282883D01*
X2055399Y2281514D01*
X2055518Y2281184D01*
X2055575Y2280836D01*
X2056105Y2279559D01*
X2056574Y2278262D01*
X2056766Y2277968D01*
X2056901Y2277642D01*
X2057707Y2276523D01*
X2058462Y2275365D01*
X2058718Y2275120D01*
X2058923Y2274837D01*
X2059962Y2273933D01*
X2060964Y2272977D01*
X2061268Y2272799D01*
X2061533Y2272568D01*
X2062755Y2271926D01*
X2063946Y2271226D01*
X2064282Y2271123D01*
X2064594Y2270958D01*
X2065930Y2270613D01*
X2067250Y2270204D01*
X2067602Y2270180D01*
X2067942Y2270092D01*
X2070000Y2269950D01*
X2143141Y2269950D01*
X2223950Y2189141D01*
X2223950Y2074859D01*
X2143141Y1994049D01*
X2028859Y1994049D01*
G37*
%LPD*%
%LPC*%
G36*
X2178073Y3835499D02*
X2178073Y3835499D01*
X2160499Y3853073D01*
X2160499Y4042926D01*
X2163606Y4046033D01*
X2164473Y4047127D01*
X2165381Y4048173D01*
X2165540Y4048475D01*
X2165753Y4048744D01*
X2166346Y4050007D01*
X2166991Y4051233D01*
X2167077Y4051564D01*
X2167223Y4051875D01*
X2167509Y4053235D01*
X2167858Y4054581D01*
X2167889Y4055037D01*
X2167936Y4055259D01*
X2167928Y4055599D01*
X2167999Y4056639D01*
X2167999Y4094793D01*
X2167839Y4096173D01*
X2167742Y4097562D01*
X2167640Y4097889D01*
X2167601Y4098229D01*
X2167128Y4099536D01*
X2166716Y4100864D01*
X2166543Y4101159D01*
X2166426Y4101481D01*
X2165664Y4102650D01*
X2164961Y4103844D01*
X2164662Y4104187D01*
X2164538Y4104378D01*
X2164289Y4104615D01*
X2163606Y4105400D01*
X2143427Y4125579D01*
X2128419Y4161811D01*
X2128419Y4338189D01*
X2143427Y4374421D01*
X2171159Y4402153D01*
X2207391Y4417160D01*
X2246609Y4417160D01*
X2282841Y4402153D01*
X2310573Y4374421D01*
X2325580Y4338189D01*
X2325580Y4161811D01*
X2310573Y4125579D01*
X2282393Y4097400D01*
X2281527Y4096306D01*
X2280618Y4095260D01*
X2280460Y4094958D01*
X2280246Y4094689D01*
X2279654Y4093426D01*
X2279008Y4092199D01*
X2278923Y4091868D01*
X2278777Y4091558D01*
X2278491Y4090198D01*
X2278142Y4088852D01*
X2278111Y4088396D01*
X2278064Y4088174D01*
X2278072Y4087833D01*
X2278000Y4086793D01*
X2278000Y4056639D01*
X2278161Y4055258D01*
X2278258Y4053871D01*
X2278360Y4053543D01*
X2278399Y4053204D01*
X2278871Y4051897D01*
X2279284Y4050569D01*
X2279457Y4050274D01*
X2279574Y4049952D01*
X2280335Y4048783D01*
X2281039Y4047589D01*
X2281338Y4047246D01*
X2281462Y4047054D01*
X2281710Y4046818D01*
X2282393Y4046033D01*
X2285500Y4042926D01*
X2285500Y3853073D01*
X2267926Y3835499D01*
X2178073Y3835499D01*
G37*
%LPD*%
%LPC*%
G36*
X1586073Y3835499D02*
X1586073Y3835499D01*
X1568499Y3853073D01*
X1568499Y4042926D01*
X1571606Y4046033D01*
X1572473Y4047127D01*
X1573381Y4048173D01*
X1573540Y4048475D01*
X1573753Y4048744D01*
X1574346Y4050007D01*
X1574991Y4051233D01*
X1575077Y4051564D01*
X1575223Y4051875D01*
X1575509Y4053235D01*
X1575858Y4054581D01*
X1575889Y4055037D01*
X1575936Y4055259D01*
X1575928Y4055599D01*
X1575999Y4056639D01*
X1575999Y4086793D01*
X1575839Y4088173D01*
X1575742Y4089562D01*
X1575640Y4089889D01*
X1575601Y4090229D01*
X1575128Y4091536D01*
X1574716Y4092864D01*
X1574543Y4093159D01*
X1574426Y4093481D01*
X1573664Y4094650D01*
X1572961Y4095844D01*
X1572662Y4096187D01*
X1572538Y4096378D01*
X1572289Y4096615D01*
X1571606Y4097400D01*
X1543427Y4125579D01*
X1528419Y4161811D01*
X1528419Y4338189D01*
X1543427Y4374421D01*
X1571159Y4402153D01*
X1607391Y4417160D01*
X1646609Y4417160D01*
X1682841Y4402153D01*
X1710573Y4374421D01*
X1725580Y4338189D01*
X1725580Y4161811D01*
X1710573Y4125579D01*
X1690393Y4105400D01*
X1689527Y4104306D01*
X1688618Y4103260D01*
X1688460Y4102958D01*
X1688246Y4102689D01*
X1687654Y4101426D01*
X1687008Y4100199D01*
X1686923Y4099868D01*
X1686777Y4099558D01*
X1686491Y4098198D01*
X1686142Y4096852D01*
X1686111Y4096396D01*
X1686064Y4096174D01*
X1686072Y4095833D01*
X1686000Y4094793D01*
X1686000Y4056639D01*
X1686161Y4055258D01*
X1686258Y4053871D01*
X1686360Y4053543D01*
X1686399Y4053204D01*
X1686871Y4051897D01*
X1687284Y4050569D01*
X1687457Y4050274D01*
X1687574Y4049952D01*
X1688335Y4048783D01*
X1689039Y4047589D01*
X1689338Y4047246D01*
X1689462Y4047054D01*
X1689710Y4046818D01*
X1690393Y4046033D01*
X1693500Y4042926D01*
X1693500Y3853073D01*
X1675926Y3835499D01*
X1586073Y3835499D01*
G37*
%LPD*%
%LPC*%
G36*
X2536859Y1994049D02*
X2536859Y1994049D01*
X2456049Y2074859D01*
X2456049Y2189141D01*
X2536859Y2269950D01*
X2651141Y2269950D01*
X2731950Y2189141D01*
X2731950Y2074859D01*
X2651141Y1994049D01*
X2536859Y1994049D01*
G37*
%LPD*%
%LPC*%
G36*
X1466859Y1994049D02*
X1466859Y1994049D01*
X1386049Y2074859D01*
X1386049Y2189141D01*
X1466859Y2269950D01*
X1581141Y2269950D01*
X1661950Y2189141D01*
X1661950Y2074859D01*
X1581141Y1994049D01*
X1466859Y1994049D01*
G37*
%LPD*%
%LPC*%
G36*
X1924073Y2943499D02*
X1924073Y2943499D01*
X1906499Y2961073D01*
X1906499Y3150926D01*
X1919606Y3164033D01*
X1920473Y3165127D01*
X1921381Y3166173D01*
X1921540Y3166475D01*
X1921753Y3166744D01*
X1922346Y3168007D01*
X1922991Y3169233D01*
X1923077Y3169564D01*
X1923223Y3169875D01*
X1923509Y3171235D01*
X1923858Y3172581D01*
X1923889Y3173037D01*
X1923936Y3173259D01*
X1923928Y3173599D01*
X1923999Y3174639D01*
X1923999Y3437640D01*
X1933106Y3446747D01*
X1933973Y3447841D01*
X1934881Y3448886D01*
X1935040Y3449188D01*
X1935253Y3449458D01*
X1935846Y3450720D01*
X1936491Y3451947D01*
X1936577Y3452278D01*
X1936723Y3452588D01*
X1937009Y3453948D01*
X1937358Y3455295D01*
X1937389Y3455751D01*
X1937436Y3455972D01*
X1937428Y3456313D01*
X1937499Y3457353D01*
X1937499Y3462432D01*
X1947014Y3485403D01*
X1964597Y3502985D01*
X1987568Y3512500D01*
X2012432Y3512500D01*
X2035403Y3502985D01*
X2052985Y3485403D01*
X2062500Y3462432D01*
X2062500Y3437568D01*
X2052985Y3414597D01*
X2035403Y3397014D01*
X2023260Y3391984D01*
X2022499Y3391561D01*
X2021692Y3391226D01*
X2020992Y3390721D01*
X2020238Y3390302D01*
X2019594Y3389714D01*
X2018887Y3389204D01*
X2018321Y3388553D01*
X2017683Y3387972D01*
X2017190Y3387251D01*
X2016618Y3386593D01*
X2016217Y3385830D01*
X2015729Y3385118D01*
X2015414Y3384305D01*
X2015008Y3383533D01*
X2014792Y3382697D01*
X2014481Y3381893D01*
X2014361Y3381029D01*
X2014142Y3380185D01*
X2014043Y3378749D01*
X2014004Y3378468D01*
X2014015Y3378346D01*
X2014000Y3378127D01*
X2014000Y3174639D01*
X2014028Y3174403D01*
X2014017Y3174240D01*
X2014120Y3173609D01*
X2014161Y3173258D01*
X2014258Y3171871D01*
X2014360Y3171543D01*
X2014399Y3171204D01*
X2014871Y3169897D01*
X2015284Y3168569D01*
X2015457Y3168274D01*
X2015574Y3167952D01*
X2016335Y3166783D01*
X2017039Y3165589D01*
X2017338Y3165246D01*
X2017462Y3165054D01*
X2017710Y3164818D01*
X2018393Y3164033D01*
X2031500Y3150926D01*
X2031500Y2961073D01*
X2013926Y2943499D01*
X1924073Y2943499D01*
G37*
%LPD*%
%LPC*%
G36*
X1332073Y2943499D02*
X1332073Y2943499D01*
X1314499Y2961073D01*
X1314499Y3150926D01*
X1327606Y3164033D01*
X1328473Y3165127D01*
X1329381Y3166173D01*
X1329540Y3166475D01*
X1329753Y3166744D01*
X1330346Y3168007D01*
X1330991Y3169233D01*
X1331077Y3169564D01*
X1331223Y3169875D01*
X1331509Y3171235D01*
X1331858Y3172581D01*
X1331889Y3173037D01*
X1331936Y3173259D01*
X1331928Y3173599D01*
X1331999Y3174639D01*
X1331999Y3379784D01*
X1331899Y3380651D01*
X1331898Y3381522D01*
X1331700Y3382361D01*
X1331601Y3383219D01*
X1331304Y3384040D01*
X1331104Y3384888D01*
X1330719Y3385660D01*
X1330426Y3386472D01*
X1329949Y3387203D01*
X1329560Y3387983D01*
X1329009Y3388645D01*
X1328538Y3389369D01*
X1327906Y3389972D01*
X1327349Y3390641D01*
X1326660Y3391160D01*
X1326036Y3391756D01*
X1325283Y3392198D01*
X1324587Y3392723D01*
X1323296Y3393365D01*
X1323053Y3393507D01*
X1322938Y3393543D01*
X1322740Y3393641D01*
X1314597Y3397014D01*
X1297014Y3414597D01*
X1287499Y3437568D01*
X1287499Y3462432D01*
X1297014Y3485403D01*
X1314597Y3502985D01*
X1337568Y3512500D01*
X1362432Y3512500D01*
X1385403Y3502985D01*
X1402985Y3485403D01*
X1412500Y3462432D01*
X1412500Y3457353D01*
X1412661Y3455972D01*
X1412758Y3454585D01*
X1412860Y3454257D01*
X1412899Y3453918D01*
X1413371Y3452611D01*
X1413784Y3451282D01*
X1413957Y3450988D01*
X1414074Y3450665D01*
X1414835Y3449497D01*
X1415539Y3448302D01*
X1415838Y3447959D01*
X1415962Y3447768D01*
X1416210Y3447531D01*
X1416893Y3446747D01*
X1422000Y3441640D01*
X1422000Y3174639D01*
X1422028Y3174403D01*
X1422017Y3174240D01*
X1422120Y3173609D01*
X1422161Y3173258D01*
X1422258Y3171871D01*
X1422360Y3171543D01*
X1422399Y3171204D01*
X1422871Y3169897D01*
X1423284Y3168569D01*
X1423457Y3168274D01*
X1423574Y3167952D01*
X1424335Y3166783D01*
X1425039Y3165589D01*
X1425338Y3165246D01*
X1425462Y3165054D01*
X1425710Y3164818D01*
X1426393Y3164033D01*
X1439500Y3150926D01*
X1439500Y2961073D01*
X1421926Y2943499D01*
X1332073Y2943499D01*
G37*
%LPD*%
%LPC*%
G36*
X2432073Y2943499D02*
X2432073Y2943499D01*
X2414499Y2961073D01*
X2414499Y3150927D01*
X2427606Y3164033D01*
X2428469Y3165123D01*
X2429381Y3166173D01*
X2429541Y3166475D01*
X2429753Y3166744D01*
X2430344Y3168003D01*
X2430991Y3169233D01*
X2431077Y3169564D01*
X2431223Y3169874D01*
X2431509Y3171235D01*
X2431858Y3172581D01*
X2431889Y3173036D01*
X2431936Y3173258D01*
X2431928Y3173599D01*
X2431999Y3174639D01*
X2431999Y3445640D01*
X2433106Y3446747D01*
X2433973Y3447841D01*
X2434881Y3448886D01*
X2435040Y3449188D01*
X2435253Y3449458D01*
X2435846Y3450720D01*
X2436491Y3451947D01*
X2436577Y3452278D01*
X2436723Y3452588D01*
X2437009Y3453948D01*
X2437358Y3455295D01*
X2437389Y3455751D01*
X2437436Y3455972D01*
X2437428Y3456313D01*
X2437499Y3457353D01*
X2437499Y3462432D01*
X2447014Y3485403D01*
X2464597Y3502985D01*
X2487568Y3512500D01*
X2512432Y3512500D01*
X2535403Y3502985D01*
X2552985Y3485403D01*
X2562500Y3462432D01*
X2562500Y3437568D01*
X2552985Y3414597D01*
X2535404Y3397015D01*
X2531260Y3395298D01*
X2530498Y3394874D01*
X2529692Y3394540D01*
X2528991Y3394035D01*
X2528239Y3393615D01*
X2527595Y3393028D01*
X2526887Y3392518D01*
X2526321Y3391867D01*
X2525683Y3391285D01*
X2525190Y3390565D01*
X2524618Y3389907D01*
X2524217Y3389144D01*
X2523729Y3388432D01*
X2523414Y3387618D01*
X2523008Y3386847D01*
X2522792Y3386011D01*
X2522481Y3385207D01*
X2522361Y3384343D01*
X2522142Y3383499D01*
X2522043Y3382063D01*
X2522004Y3381782D01*
X2522015Y3381660D01*
X2522000Y3381441D01*
X2522000Y3174639D01*
X2522028Y3174403D01*
X2522017Y3174240D01*
X2522120Y3173610D01*
X2522161Y3173255D01*
X2522258Y3171871D01*
X2522359Y3171544D01*
X2522399Y3171204D01*
X2522872Y3169895D01*
X2523284Y3168568D01*
X2523458Y3168273D01*
X2523574Y3167951D01*
X2524334Y3166784D01*
X2525039Y3165588D01*
X2525337Y3165246D01*
X2525462Y3165054D01*
X2525711Y3164817D01*
X2526394Y3164033D01*
X2539500Y3150927D01*
X2539500Y2961073D01*
X2521926Y2943499D01*
X2432073Y2943499D01*
G37*
%LPD*%
%LPC*%
G36*
X824073Y2943499D02*
X824073Y2943499D01*
X806499Y2961073D01*
X806499Y3150926D01*
X819606Y3164033D01*
X820473Y3165127D01*
X821381Y3166173D01*
X821540Y3166475D01*
X821753Y3166744D01*
X822346Y3168007D01*
X822991Y3169233D01*
X823077Y3169564D01*
X823223Y3169875D01*
X823509Y3171235D01*
X823858Y3172581D01*
X823889Y3173037D01*
X823936Y3173259D01*
X823928Y3173599D01*
X823999Y3174639D01*
X823999Y3383098D01*
X823899Y3383964D01*
X823898Y3384837D01*
X823700Y3385676D01*
X823601Y3386533D01*
X823304Y3387353D01*
X823104Y3388202D01*
X822719Y3388974D01*
X822426Y3389785D01*
X821949Y3390517D01*
X821560Y3391297D01*
X821009Y3391958D01*
X820538Y3392683D01*
X819906Y3393286D01*
X819348Y3393955D01*
X818660Y3394474D01*
X818036Y3395070D01*
X817283Y3395512D01*
X816587Y3396037D01*
X815294Y3396679D01*
X815053Y3396821D01*
X814938Y3396857D01*
X814740Y3396955D01*
X814596Y3397015D01*
X797014Y3414597D01*
X787499Y3437568D01*
X787499Y3462432D01*
X797014Y3485403D01*
X814597Y3502985D01*
X837568Y3512500D01*
X862432Y3512500D01*
X885403Y3502985D01*
X902985Y3485403D01*
X912500Y3462432D01*
X912500Y3457353D01*
X912660Y3455974D01*
X912758Y3454583D01*
X912860Y3454256D01*
X912899Y3453917D01*
X913371Y3452610D01*
X913784Y3451280D01*
X913958Y3450986D01*
X914000Y3450868D01*
X914000Y3174639D01*
X914028Y3174403D01*
X914017Y3174240D01*
X914120Y3173609D01*
X914161Y3173258D01*
X914258Y3171871D01*
X914360Y3171543D01*
X914399Y3171204D01*
X914871Y3169897D01*
X915284Y3168569D01*
X915457Y3168274D01*
X915574Y3167952D01*
X916335Y3166783D01*
X917039Y3165589D01*
X917338Y3165246D01*
X917462Y3165054D01*
X917710Y3164818D01*
X918393Y3164033D01*
X931500Y3150926D01*
X931500Y2961073D01*
X913926Y2943499D01*
X824073Y2943499D01*
G37*
%LPD*%
%LPC*%
G36*
X2411811Y2678419D02*
X2411811Y2678419D01*
X2375579Y2693427D01*
X2347847Y2721159D01*
X2332839Y2757391D01*
X2332839Y2796609D01*
X2347847Y2832841D01*
X2375579Y2860573D01*
X2411811Y2875580D01*
X2588189Y2875580D01*
X2624421Y2860573D01*
X2652153Y2832841D01*
X2667160Y2796609D01*
X2667160Y2757391D01*
X2652153Y2721159D01*
X2624421Y2693427D01*
X2588189Y2678419D01*
X2411811Y2678419D01*
G37*
%LPD*%
%LPC*%
G36*
X761811Y2678419D02*
X761811Y2678419D01*
X725579Y2693427D01*
X697847Y2721159D01*
X682839Y2757391D01*
X682839Y2796609D01*
X697847Y2832841D01*
X725579Y2860573D01*
X761811Y2875580D01*
X938189Y2875580D01*
X974421Y2860573D01*
X1002153Y2832841D01*
X1017160Y2796609D01*
X1017160Y2757391D01*
X1002153Y2721159D01*
X974421Y2693427D01*
X938189Y2678419D01*
X761811Y2678419D01*
G37*
%LPD*%
%LPC*%
G36*
X1261811Y2678419D02*
X1261811Y2678419D01*
X1225579Y2693427D01*
X1197847Y2721159D01*
X1182839Y2757391D01*
X1182839Y2796609D01*
X1197847Y2832841D01*
X1225579Y2860573D01*
X1261811Y2875580D01*
X1438189Y2875580D01*
X1474421Y2860573D01*
X1502153Y2832841D01*
X1517160Y2796609D01*
X1517160Y2757391D01*
X1502153Y2721159D01*
X1474421Y2693427D01*
X1438189Y2678419D01*
X1261811Y2678419D01*
G37*
%LPD*%
%LPC*%
G36*
X1911811Y2678419D02*
X1911811Y2678419D01*
X1875579Y2693427D01*
X1847847Y2721159D01*
X1832839Y2757391D01*
X1832839Y2796609D01*
X1847847Y2832841D01*
X1875579Y2860573D01*
X1911811Y2875580D01*
X2088189Y2875580D01*
X2124421Y2860573D01*
X2152153Y2832841D01*
X2167160Y2796609D01*
X2167160Y2757391D01*
X2152153Y2721159D01*
X2124421Y2693427D01*
X2088189Y2678419D01*
X1911811Y2678419D01*
G37*
%LPD*%
G36*
X2647385Y5455161D02*
X2647385Y5455161D01*
X2648773Y5455258D01*
X2649101Y5455360D01*
X2649440Y5455399D01*
X2650748Y5455871D01*
X2652076Y5456284D01*
X2652370Y5456457D01*
X2652693Y5456574D01*
X2653858Y5457333D01*
X2655056Y5458038D01*
X2655399Y5458338D01*
X2655590Y5458462D01*
X2655827Y5458710D01*
X2656611Y5459393D01*
X2667405Y5470187D01*
X2667517Y5470328D01*
X2667656Y5470444D01*
X2668592Y5471685D01*
X2669552Y5472898D01*
X2669629Y5473062D01*
X2669738Y5473206D01*
X2670656Y5475053D01*
X2677014Y5490403D01*
X2693143Y5506532D01*
X2693747Y5507294D01*
X2694428Y5507994D01*
X2694819Y5508648D01*
X2695291Y5509243D01*
X2695704Y5510124D01*
X2696206Y5510961D01*
X2696437Y5511686D01*
X2696760Y5512374D01*
X2696961Y5513326D01*
X2697257Y5514255D01*
X2697317Y5515014D01*
X2697473Y5515758D01*
X2697450Y5516731D01*
X2697526Y5517703D01*
X2697410Y5518454D01*
X2697393Y5519215D01*
X2697148Y5520158D01*
X2696999Y5521121D01*
X2696714Y5521826D01*
X2696522Y5522562D01*
X2696067Y5523424D01*
X2695702Y5524327D01*
X2695263Y5524947D01*
X2694908Y5525621D01*
X2694268Y5526356D01*
X2693706Y5527151D01*
X2693136Y5527655D01*
X2692637Y5528228D01*
X2691847Y5528796D01*
X2691116Y5529443D01*
X2690099Y5530052D01*
X2689829Y5530247D01*
X2689655Y5530318D01*
X2689347Y5530503D01*
X2674378Y5538130D01*
X2661594Y5547418D01*
X2650418Y5558594D01*
X2641130Y5571378D01*
X2633955Y5585459D01*
X2631180Y5594001D01*
X2711999Y5594001D01*
X2712348Y5594042D01*
X2712699Y5594017D01*
X2714065Y5594241D01*
X2715434Y5594400D01*
X2715764Y5594519D01*
X2716112Y5594576D01*
X2717389Y5595106D01*
X2718687Y5595574D01*
X2718981Y5595766D01*
X2719306Y5595901D01*
X2720426Y5596708D01*
X2721584Y5597463D01*
X2721828Y5597718D01*
X2722112Y5597923D01*
X2723015Y5598963D01*
X2723971Y5599965D01*
X2724150Y5600269D01*
X2724380Y5600534D01*
X2725023Y5601755D01*
X2725722Y5602947D01*
X2725826Y5603283D01*
X2725990Y5603594D01*
X2726336Y5604930D01*
X2726744Y5606251D01*
X2726768Y5606602D01*
X2726856Y5606942D01*
X2726998Y5609000D01*
X2726998Y5638999D01*
X2726958Y5639348D01*
X2726982Y5639700D01*
X2726758Y5641065D01*
X2726599Y5642434D01*
X2726480Y5642765D01*
X2726423Y5643113D01*
X2725893Y5644390D01*
X2725425Y5645687D01*
X2725233Y5645981D01*
X2725098Y5646307D01*
X2724291Y5647426D01*
X2723536Y5648584D01*
X2723281Y5648828D01*
X2723076Y5649112D01*
X2722037Y5650015D01*
X2721034Y5650972D01*
X2720730Y5651150D01*
X2720465Y5651380D01*
X2719244Y5652023D01*
X2718052Y5652723D01*
X2717716Y5652826D01*
X2717405Y5652990D01*
X2716069Y5653336D01*
X2714748Y5653744D01*
X2714397Y5653769D01*
X2714057Y5653857D01*
X2711999Y5653998D01*
X2631180Y5653998D01*
X2633955Y5662540D01*
X2641130Y5676621D01*
X2650418Y5689406D01*
X2661594Y5700581D01*
X2674378Y5709870D01*
X2677843Y5711635D01*
X2679219Y5712550D01*
X2680619Y5713463D01*
X2680667Y5713512D01*
X2680723Y5713550D01*
X2681851Y5714753D01*
X2683007Y5715964D01*
X2683042Y5716023D01*
X2683088Y5716073D01*
X2683921Y5717522D01*
X2684758Y5718947D01*
X2684778Y5719010D01*
X2684812Y5719071D01*
X2685290Y5720667D01*
X2685780Y5722250D01*
X2685784Y5722319D01*
X2685804Y5722384D01*
X2685902Y5724020D01*
X2686018Y5725701D01*
X2686006Y5725769D01*
X2686010Y5725836D01*
X2685731Y5727452D01*
X2685459Y5729113D01*
X2685433Y5729177D01*
X2685421Y5729243D01*
X2684775Y5730762D01*
X2684133Y5732308D01*
X2684093Y5732363D01*
X2684067Y5732425D01*
X2683088Y5733758D01*
X2682112Y5735113D01*
X2682060Y5735158D01*
X2682020Y5735213D01*
X2680757Y5736290D01*
X2679501Y5737381D01*
X2679441Y5737413D01*
X2679389Y5737457D01*
X2677905Y5738221D01*
X2676440Y5738991D01*
X2676375Y5739008D01*
X2676314Y5739040D01*
X2674686Y5739445D01*
X2673093Y5739858D01*
X2673007Y5739863D01*
X2672958Y5739876D01*
X2672800Y5739878D01*
X2671034Y5739999D01*
X2541705Y5739999D01*
X2540671Y5739879D01*
X2539628Y5739855D01*
X2538957Y5739680D01*
X2538270Y5739601D01*
X2537290Y5739247D01*
X2536281Y5738984D01*
X2535669Y5738661D01*
X2535017Y5738426D01*
X2534143Y5737856D01*
X2533223Y5737371D01*
X2532701Y5736916D01*
X2532120Y5736538D01*
X2531400Y5735783D01*
X2530615Y5735099D01*
X2530211Y5734537D01*
X2529733Y5734036D01*
X2529205Y5733137D01*
X2528597Y5732291D01*
X2528332Y5731650D01*
X2527982Y5731053D01*
X2527674Y5730059D01*
X2527275Y5729095D01*
X2527164Y5728411D01*
X2526960Y5727750D01*
X2526888Y5726708D01*
X2526721Y5725682D01*
X2526770Y5724992D01*
X2526722Y5724299D01*
X2526890Y5723271D01*
X2526963Y5722232D01*
X2527169Y5721570D01*
X2527281Y5720887D01*
X2527680Y5719924D01*
X2527989Y5718929D01*
X2528340Y5718333D01*
X2528606Y5717693D01*
X2529216Y5716846D01*
X2529744Y5715949D01*
X2530429Y5715163D01*
X2530628Y5714887D01*
X2530752Y5714779D01*
X2530793Y5714722D01*
X2530875Y5714651D01*
X2531099Y5714394D01*
X2562015Y5683478D01*
X2578000Y5644886D01*
X2578000Y5603113D01*
X2562015Y5564522D01*
X2532393Y5534900D01*
X2531527Y5533806D01*
X2530618Y5532761D01*
X2530460Y5532459D01*
X2530246Y5532189D01*
X2529654Y5530927D01*
X2529008Y5529700D01*
X2528923Y5529369D01*
X2528777Y5529059D01*
X2528491Y5527698D01*
X2528142Y5526352D01*
X2528111Y5525896D01*
X2528064Y5525675D01*
X2528072Y5525334D01*
X2528000Y5524294D01*
X2528000Y5470000D01*
X2528041Y5469651D01*
X2528017Y5469299D01*
X2528240Y5467933D01*
X2528399Y5466564D01*
X2528518Y5466234D01*
X2528575Y5465886D01*
X2529105Y5464609D01*
X2529574Y5463312D01*
X2529766Y5463018D01*
X2529901Y5462692D01*
X2530707Y5461573D01*
X2531462Y5460415D01*
X2531718Y5460171D01*
X2531923Y5459887D01*
X2532962Y5458983D01*
X2533964Y5458027D01*
X2534268Y5457849D01*
X2534533Y5457618D01*
X2535755Y5456976D01*
X2536946Y5456276D01*
X2537282Y5456173D01*
X2537594Y5456008D01*
X2538930Y5455663D01*
X2540250Y5455254D01*
X2540602Y5455230D01*
X2540942Y5455142D01*
X2543000Y5455000D01*
X2646005Y5455000D01*
X2647385Y5455161D01*
G37*
%LPC*%
G36*
X1045999Y2161999D02*
X1045999Y2161999D01*
X1045999Y2265350D01*
X1071235Y2265350D01*
X1149350Y2187235D01*
X1149350Y2161999D01*
X1045999Y2161999D01*
G37*
%LPD*%
%LPC*%
G36*
X1045999Y1998649D02*
X1045999Y1998649D01*
X1045999Y2102001D01*
X1149350Y2102001D01*
X1149350Y2076764D01*
X1071235Y1998649D01*
X1045999Y1998649D01*
G37*
%LPD*%
%LPC*%
G36*
X882649Y2161999D02*
X882649Y2161999D01*
X882649Y2187235D01*
X960764Y2265350D01*
X986001Y2265350D01*
X986001Y2161999D01*
X882649Y2161999D01*
G37*
%LPD*%
%LPC*%
G36*
X960764Y1998649D02*
X960764Y1998649D01*
X882649Y2076764D01*
X882649Y2102001D01*
X986001Y2102001D01*
X986001Y1998649D01*
X960764Y1998649D01*
G37*
%LPD*%
%LPC*%
G36*
X1647249Y3072249D02*
X1647249Y3072249D01*
X1647249Y3163900D01*
X1666843Y3163900D01*
X1673305Y3162169D01*
X1679095Y3158826D01*
X1683826Y3154095D01*
X1687169Y3148305D01*
X1688900Y3141843D01*
X1688900Y3072249D01*
X1647249Y3072249D01*
G37*
%LPD*%
%LPC*%
G36*
X1139249Y3072249D02*
X1139249Y3072249D01*
X1139249Y3163900D01*
X1158843Y3163900D01*
X1165305Y3162169D01*
X1171095Y3158826D01*
X1175826Y3154095D01*
X1179169Y3148305D01*
X1180900Y3141843D01*
X1180900Y3072249D01*
X1139249Y3072249D01*
G37*
%LPD*%
%LPC*%
G36*
X2747249Y3072249D02*
X2747249Y3072249D01*
X2747249Y3163900D01*
X2766843Y3163900D01*
X2773305Y3162169D01*
X2779095Y3158826D01*
X2783826Y3154095D01*
X2787169Y3148305D01*
X2788900Y3141843D01*
X2788900Y3072249D01*
X2747249Y3072249D01*
G37*
%LPD*%
%LPC*%
G36*
X2239249Y3072249D02*
X2239249Y3072249D01*
X2239249Y3163900D01*
X2258843Y3163900D01*
X2265305Y3162169D01*
X2271095Y3158826D01*
X2275826Y3154095D01*
X2279169Y3148305D01*
X2280900Y3141843D01*
X2280900Y3072249D01*
X2239249Y3072249D01*
G37*
%LPD*%
%LPC*%
G36*
X2239249Y2948099D02*
X2239249Y2948099D01*
X2239249Y3039750D01*
X2280900Y3039750D01*
X2280900Y2970156D01*
X2279169Y2963694D01*
X2275826Y2957904D01*
X2271095Y2953174D01*
X2265305Y2949831D01*
X2258843Y2948099D01*
X2239249Y2948099D01*
G37*
%LPD*%
%LPC*%
G36*
X2747249Y2948099D02*
X2747249Y2948099D01*
X2747249Y3039750D01*
X2788900Y3039750D01*
X2788900Y2970156D01*
X2787169Y2963694D01*
X2783826Y2957904D01*
X2779095Y2953174D01*
X2773305Y2949831D01*
X2766843Y2948099D01*
X2747249Y2948099D01*
G37*
%LPD*%
%LPC*%
G36*
X1647249Y2948099D02*
X1647249Y2948099D01*
X1647249Y3039750D01*
X1688900Y3039750D01*
X1688900Y2970156D01*
X1687169Y2963694D01*
X1683826Y2957904D01*
X1679095Y2953174D01*
X1673305Y2949831D01*
X1666843Y2948099D01*
X1647249Y2948099D01*
G37*
%LPD*%
%LPC*%
G36*
X1139249Y2948099D02*
X1139249Y2948099D01*
X1139249Y3039750D01*
X1180900Y3039750D01*
X1180900Y2970156D01*
X1179169Y2963694D01*
X1175826Y2957904D01*
X1171095Y2953174D01*
X1165305Y2949831D01*
X1158843Y2948099D01*
X1139249Y2948099D01*
G37*
%LPD*%
%LPC*%
G36*
X1573099Y3072249D02*
X1573099Y3072249D01*
X1573099Y3141843D01*
X1574831Y3148305D01*
X1578174Y3154095D01*
X1582904Y3158826D01*
X1588694Y3162169D01*
X1595156Y3163900D01*
X1614750Y3163900D01*
X1614750Y3072249D01*
X1573099Y3072249D01*
G37*
%LPD*%
%LPC*%
G36*
X1065099Y3072249D02*
X1065099Y3072249D01*
X1065099Y3141843D01*
X1066831Y3148305D01*
X1070174Y3154095D01*
X1074904Y3158826D01*
X1080694Y3162169D01*
X1087156Y3163900D01*
X1106750Y3163900D01*
X1106750Y3072249D01*
X1065099Y3072249D01*
G37*
%LPD*%
%LPC*%
G36*
X2673099Y3072249D02*
X2673099Y3072249D01*
X2673099Y3141843D01*
X2674831Y3148305D01*
X2678174Y3154095D01*
X2682904Y3158826D01*
X2688694Y3162169D01*
X2695156Y3163900D01*
X2714750Y3163900D01*
X2714750Y3072249D01*
X2673099Y3072249D01*
G37*
%LPD*%
%LPC*%
G36*
X2165099Y3072249D02*
X2165099Y3072249D01*
X2165099Y3141843D01*
X2166831Y3148305D01*
X2170174Y3154095D01*
X2174904Y3158826D01*
X2180694Y3162169D01*
X2187156Y3163900D01*
X2206750Y3163900D01*
X2206750Y3072249D01*
X2165099Y3072249D01*
G37*
%LPD*%
%LPC*%
G36*
X2187156Y2948099D02*
X2187156Y2948099D01*
X2180694Y2949831D01*
X2174904Y2953174D01*
X2170174Y2957904D01*
X2166831Y2963694D01*
X2165099Y2970156D01*
X2165099Y3039750D01*
X2206750Y3039750D01*
X2206750Y2948099D01*
X2187156Y2948099D01*
G37*
%LPD*%
%LPC*%
G36*
X2695156Y2948099D02*
X2695156Y2948099D01*
X2688694Y2949831D01*
X2682904Y2953174D01*
X2678174Y2957904D01*
X2674831Y2963694D01*
X2673099Y2970156D01*
X2673099Y3039750D01*
X2714750Y3039750D01*
X2714750Y2948099D01*
X2695156Y2948099D01*
G37*
%LPD*%
%LPC*%
G36*
X1087156Y2948099D02*
X1087156Y2948099D01*
X1080694Y2949831D01*
X1074904Y2953174D01*
X1070174Y2957904D01*
X1066831Y2963694D01*
X1065099Y2970156D01*
X1065099Y3039750D01*
X1106750Y3039750D01*
X1106750Y2948099D01*
X1087156Y2948099D01*
G37*
%LPD*%
%LPC*%
G36*
X1595156Y2948099D02*
X1595156Y2948099D01*
X1588694Y2949831D01*
X1582904Y2953174D01*
X1578174Y2957904D01*
X1574831Y2963694D01*
X1573099Y2970156D01*
X1573099Y3039750D01*
X1614750Y3039750D01*
X1614750Y2948099D01*
X1595156Y2948099D01*
G37*
%LPD*%
%LPC*%
G36*
X1156998Y5279998D02*
X1156998Y5279998D01*
X1156998Y5345820D01*
X1165540Y5343044D01*
X1179621Y5335870D01*
X1192406Y5326581D01*
X1203581Y5315406D01*
X1212870Y5302621D01*
X1220044Y5288540D01*
X1222820Y5279998D01*
X1156998Y5279998D01*
G37*
%LPD*%
%LPC*%
G36*
X2756998Y5279998D02*
X2756998Y5279998D01*
X2756998Y5345820D01*
X2765540Y5343044D01*
X2779621Y5335870D01*
X2792406Y5326581D01*
X2803581Y5315406D01*
X2812870Y5302621D01*
X2820044Y5288540D01*
X2822820Y5279998D01*
X2756998Y5279998D01*
G37*
%LPD*%
%LPC*%
G36*
X2756998Y5220001D02*
X2756998Y5220001D01*
X2822820Y5220001D01*
X2820044Y5211459D01*
X2812870Y5197378D01*
X2803581Y5184594D01*
X2792406Y5173418D01*
X2779621Y5164130D01*
X2765540Y5156955D01*
X2756998Y5154180D01*
X2756998Y5220001D01*
G37*
%LPD*%
%LPC*%
G36*
X1156998Y5220001D02*
X1156998Y5220001D01*
X1222820Y5220001D01*
X1220044Y5211459D01*
X1212870Y5197378D01*
X1203581Y5184594D01*
X1192406Y5173418D01*
X1179621Y5164130D01*
X1165540Y5156955D01*
X1156998Y5154180D01*
X1156998Y5220001D01*
G37*
%LPD*%
%LPC*%
G36*
X1031180Y5279998D02*
X1031180Y5279998D01*
X1033955Y5288540D01*
X1041130Y5302621D01*
X1050418Y5315406D01*
X1061594Y5326581D01*
X1074378Y5335870D01*
X1088459Y5343044D01*
X1097001Y5345820D01*
X1097001Y5279998D01*
X1031180Y5279998D01*
G37*
%LPD*%
%LPC*%
G36*
X2688459Y5156955D02*
X2688459Y5156955D01*
X2674378Y5164130D01*
X2661594Y5173418D01*
X2650418Y5184594D01*
X2641130Y5197378D01*
X2633955Y5211459D01*
X2631180Y5220001D01*
X2697001Y5220001D01*
X2697001Y5154180D01*
X2688459Y5156955D01*
G37*
%LPD*%
%LPC*%
G36*
X2390001Y4990001D02*
X2390001Y4990001D01*
X2390001Y5031051D01*
X2391890Y5030675D01*
X2402426Y5026311D01*
X2411909Y5019975D01*
X2419975Y5011909D01*
X2426311Y5002426D01*
X2430675Y4991890D01*
X2431051Y4990001D01*
X2390001Y4990001D01*
G37*
%LPD*%
%LPC*%
G36*
X2390001Y4959999D02*
X2390001Y4959999D01*
X2431051Y4959999D01*
X2430675Y4958110D01*
X2426311Y4947574D01*
X2419975Y4938091D01*
X2411909Y4930025D01*
X2402426Y4923689D01*
X2391890Y4919325D01*
X2390001Y4918949D01*
X2390001Y4959999D01*
G37*
%LPD*%
%LPC*%
G36*
X2358110Y4919325D02*
X2358110Y4919325D01*
X2347574Y4923689D01*
X2338091Y4930025D01*
X2330025Y4938091D01*
X2323689Y4947574D01*
X2319325Y4958110D01*
X2318949Y4959999D01*
X2359999Y4959999D01*
X2359999Y4918949D01*
X2358110Y4919325D01*
G37*
%LPD*%
%LPC*%
G36*
X1015998Y2131998D02*
X1015998Y2131998D01*
X1015998Y2132002D01*
X1016002Y2132002D01*
X1016002Y2131998D01*
X1015998Y2131998D01*
G37*
%LPD*%
%LPC*%
G36*
X1126998Y5249998D02*
X1126998Y5249998D01*
X1126998Y5250002D01*
X1127002Y5250002D01*
X1127002Y5249998D01*
X1126998Y5249998D01*
G37*
%LPD*%
%LPC*%
G36*
X2726998Y5249998D02*
X2726998Y5249998D01*
X2726998Y5250002D01*
X2727002Y5250002D01*
X2727002Y5249998D01*
X2726998Y5249998D01*
G37*
%LPD*%
D10*
X3000000Y1700000D02*
X600000Y1700000D01*
X592751Y1700088D01*
X585506Y1700350D01*
X578270Y1700788D01*
X571046Y1701401D01*
X563839Y1702187D01*
X556653Y1703148D01*
X549493Y1704282D01*
X542362Y1705589D01*
X535265Y1707068D01*
X528205Y1708717D01*
X521188Y1710537D01*
X514216Y1712526D01*
X507295Y1714683D01*
X500428Y1717006D01*
X493619Y1719495D01*
X486872Y1722148D01*
X480191Y1724962D01*
X473580Y1727938D01*
X467043Y1731072D01*
X460583Y1734363D01*
X454205Y1737810D01*
X447912Y1741409D01*
X441708Y1745160D01*
X435596Y1749059D01*
X429581Y1753105D01*
X423664Y1757295D01*
X417851Y1761627D01*
X412144Y1766098D01*
X406547Y1770705D01*
X401063Y1775447D01*
X395695Y1780319D01*
X390447Y1785320D01*
X385320Y1790447D01*
X380319Y1795695D01*
X375447Y1801063D01*
X370705Y1806547D01*
X366098Y1812144D01*
X361627Y1817851D01*
X357295Y1823664D01*
X353105Y1829581D01*
X349059Y1835596D01*
X345160Y1841708D01*
X341409Y1847912D01*
X337810Y1854205D01*
X334363Y1860583D01*
X331072Y1867043D01*
X327938Y1873580D01*
X324962Y1880191D01*
X322148Y1886872D01*
X319495Y1893619D01*
X317006Y1900428D01*
X314683Y1907295D01*
X312526Y1914216D01*
X310537Y1921188D01*
X308717Y1928205D01*
X307068Y1935265D01*
X305589Y1942362D01*
X304282Y1949493D01*
X303148Y1956653D01*
X302187Y1963839D01*
X301401Y1971046D01*
X300788Y1978270D01*
X300350Y1985506D01*
X300088Y1992751D01*
X300000Y2000000D01*
X300000Y6500000D01*
X300088Y6507249D01*
X300350Y6514494D01*
X300788Y6521730D01*
X301401Y6528954D01*
X302187Y6536161D01*
X303148Y6543347D01*
X304282Y6550507D01*
X305589Y6557638D01*
X307068Y6564735D01*
X308717Y6571795D01*
X310537Y6578812D01*
X312526Y6585784D01*
X314683Y6592705D01*
X317006Y6599572D01*
X319495Y6606381D01*
X322148Y6613128D01*
X324962Y6619809D01*
X327938Y6626420D01*
X331072Y6632957D01*
X334363Y6639417D01*
X337810Y6645795D01*
X341409Y6652088D01*
X345160Y6658292D01*
X349059Y6664404D01*
X353105Y6670419D01*
X357295Y6676336D01*
X361627Y6682149D01*
X366098Y6687856D01*
X370705Y6693453D01*
X375447Y6698937D01*
X380319Y6704305D01*
X385320Y6709553D01*
X390447Y6714680D01*
X395695Y6719681D01*
X401063Y6724553D01*
X406547Y6729295D01*
X412144Y6733902D01*
X417851Y6738373D01*
X423664Y6742705D01*
X429581Y6746895D01*
X435596Y6750941D01*
X441708Y6754840D01*
X447912Y6758591D01*
X454205Y6762190D01*
X460583Y6765637D01*
X467043Y6768928D01*
X473580Y6772062D01*
X480191Y6775038D01*
X486872Y6777852D01*
X493619Y6780505D01*
X500428Y6782994D01*
X507295Y6785317D01*
X514216Y6787474D01*
X521188Y6789463D01*
X528205Y6791283D01*
X535265Y6792932D01*
X542362Y6794411D01*
X549493Y6795718D01*
X556653Y6796852D01*
X563839Y6797813D01*
X571046Y6798599D01*
X578270Y6799212D01*
X585506Y6799650D01*
X592751Y6799912D01*
X600000Y6800000D01*
X3000000Y6800000D01*
X3007249Y6799912D01*
X3014494Y6799650D01*
X3021730Y6799212D01*
X3028954Y6798599D01*
X3036161Y6797813D01*
X3043347Y6796852D01*
X3050507Y6795718D01*
X3057638Y6794411D01*
X3064735Y6792932D01*
X3071795Y6791283D01*
X3078812Y6789463D01*
X3085784Y6787474D01*
X3092705Y6785317D01*
X3099572Y6782994D01*
X3106381Y6780505D01*
X3113128Y6777852D01*
X3119809Y6775038D01*
X3126420Y6772062D01*
X3132957Y6768928D01*
X3139417Y6765637D01*
X3145795Y6762190D01*
X3152088Y6758591D01*
X3158292Y6754840D01*
X3164404Y6750941D01*
X3170419Y6746895D01*
X3176336Y6742705D01*
X3182149Y6738373D01*
X3187856Y6733902D01*
X3193453Y6729295D01*
X3198937Y6724553D01*
X3204305Y6719681D01*
X3209553Y6714680D01*
X3214680Y6709553D01*
X3219681Y6704305D01*
X3224553Y6698937D01*
X3229295Y6693453D01*
X3233902Y6687856D01*
X3238373Y6682149D01*
X3242705Y6676336D01*
X3246895Y6670419D01*
X3250941Y6664404D01*
X3254840Y6658292D01*
X3258591Y6652088D01*
X3262190Y6645795D01*
X3265637Y6639417D01*
X3268928Y6632957D01*
X3272062Y6626420D01*
X3275038Y6619809D01*
X3277852Y6613128D01*
X3280505Y6606381D01*
X3282994Y6599572D01*
X3285317Y6592705D01*
X3287474Y6585784D01*
X3289463Y6578812D01*
X3291283Y6571795D01*
X3292932Y6564735D01*
X3294411Y6557638D01*
X3295718Y6550507D01*
X3296852Y6543347D01*
X3297813Y6536161D01*
X3298599Y6528954D01*
X3299212Y6521730D01*
X3299650Y6514494D01*
X3299912Y6507249D01*
X3300000Y6500000D01*
X3300000Y2000000D01*
X3299912Y1992751D01*
X3299650Y1985506D01*
X3299212Y1978270D01*
X3298599Y1971046D01*
X3297813Y1963839D01*
X3296852Y1956653D01*
X3295718Y1949493D01*
X3294411Y1942362D01*
X3292932Y1935265D01*
X3291283Y1928205D01*
X3289463Y1921188D01*
X3287474Y1914216D01*
X3285317Y1907295D01*
X3282994Y1900428D01*
X3280505Y1893619D01*
X3277852Y1886872D01*
X3275038Y1880191D01*
X3272062Y1873580D01*
X3268928Y1867043D01*
X3265637Y1860583D01*
X3262190Y1854205D01*
X3258591Y1847912D01*
X3254840Y1841708D01*
X3250941Y1835596D01*
X3246895Y1829581D01*
X3242705Y1823664D01*
X3238373Y1817851D01*
X3233902Y1812144D01*
X3229295Y1806547D01*
X3224553Y1801063D01*
X3219681Y1795695D01*
X3214680Y1790447D01*
X3209553Y1785320D01*
X3204305Y1780319D01*
X3198937Y1775447D01*
X3193453Y1770705D01*
X3187856Y1766098D01*
X3182149Y1761627D01*
X3176336Y1757295D01*
X3170419Y1753105D01*
X3164404Y1749059D01*
X3158292Y1745160D01*
X3152088Y1741409D01*
X3145795Y1737810D01*
X3139417Y1734363D01*
X3132957Y1731072D01*
X3126420Y1727938D01*
X3119809Y1724962D01*
X3113128Y1722148D01*
X3106381Y1719495D01*
X3099572Y1717006D01*
X3092705Y1714683D01*
X3085784Y1712526D01*
X3078812Y1710537D01*
X3071795Y1708717D01*
X3064735Y1707068D01*
X3057638Y1705589D01*
X3050507Y1704282D01*
X3043347Y1703148D01*
X3036161Y1702187D01*
X3028954Y1701401D01*
X3021730Y1700788D01*
X3014494Y1700350D01*
X3007249Y1700088D01*
X3000000Y1700000D01*
D11*
X2200000Y5400000D03*
X2200000Y5250000D03*
X1400000Y5250000D03*
X1400000Y5400000D03*
D12*
X1673000Y5624000D03*
X1927000Y5624000D03*
X1673000Y5250000D03*
X1927000Y5250000D03*
X873000Y5250000D03*
X1127000Y5250000D03*
X2473000Y5250000D03*
X2727000Y5250000D03*
X1127000Y5550000D03*
X873000Y5550000D03*
D13*
X869000Y3056000D03*
X1123000Y3056000D03*
X1377000Y3056000D03*
X1377000Y3948000D03*
X1123000Y3948000D03*
X869000Y3948000D03*
X1631000Y3948000D03*
X1631000Y3056000D03*
X1969000Y3056000D03*
X2223000Y3056000D03*
X2477000Y3056000D03*
X2477000Y3948000D03*
X2223000Y3948000D03*
X1969000Y3948000D03*
X2731000Y3948000D03*
X2731000Y3056000D03*
D14*
X918580Y2523000D02*
X781420Y2523000D01*
X781420Y2777000D02*
X918580Y2777000D01*
X1281420Y2523000D02*
X1418580Y2523000D01*
X1418580Y2777000D02*
X1281420Y2777000D01*
X1931420Y2523000D02*
X2068580Y2523000D01*
X2068580Y2777000D02*
X1931420Y2777000D01*
X2431420Y2523000D02*
X2568580Y2523000D01*
X2568580Y2777000D02*
X2431420Y2777000D01*
X2227000Y4181420D02*
X2227000Y4318580D01*
X1973000Y4318580D02*
X1973000Y4181420D01*
X2777000Y4181420D02*
X2777000Y4318580D01*
X2523000Y4318580D02*
X2523000Y4181420D01*
X1627000Y4181420D02*
X1627000Y4318580D01*
X1373000Y4318580D02*
X1373000Y4181420D01*
X1077000Y4181420D02*
X1077000Y4318580D01*
X823000Y4318580D02*
X823000Y4181420D01*
D12*
X2473000Y5624000D03*
X2727000Y5624000D03*
D15*
X2794000Y6350000D03*
X762000Y6350000D03*
D16*
X2594000Y2132000D03*
X2086000Y2132000D03*
X1016000Y2132000D03*
X1524000Y2132000D03*
D17*
X2375000Y4975000D03*
X1800000Y6400000D03*
X1900000Y6400000D03*
X1700000Y6400000D03*
X1800000Y6500000D03*
X1800000Y6300000D03*
X1900000Y6500000D03*
X2000000Y6500000D03*
X2000000Y6400000D03*
X2000000Y6300000D03*
X1900000Y6300000D03*
X1700000Y6300000D03*
X1700000Y6500000D03*
X1600000Y6500000D03*
X1600000Y6400000D03*
X1600000Y6300000D03*
D18*
X2223000Y4246000D02*
X2223000Y3948000D01*
X2223000Y4246000D02*
X2227000Y4250000D01*
D17*
X2550000Y6400000D03*
X2550000Y6500000D03*
X2450000Y6500000D03*
X2450000Y6400000D03*
X2450000Y6300000D03*
X2550000Y6300000D03*
X2700000Y6050000D03*
D18*
X869000Y4204000D02*
X869000Y3948000D01*
X869000Y4204000D02*
X823000Y4250000D01*
X1373000Y4250000D02*
X1373000Y3952000D01*
X1377000Y3948000D01*
D17*
X1050000Y6400000D03*
X1050000Y6500000D03*
X1150000Y6500000D03*
X1150000Y6400000D03*
X1050000Y6300000D03*
X1150000Y6300000D03*
D18*
X823000Y4500000D02*
X823000Y4250000D01*
X823000Y4500000D02*
X1373000Y4500000D01*
X1373000Y4250000D01*
X1673000Y5249000D02*
X1673000Y5250000D01*
D17*
X1673000Y5249000D03*
D18*
X1673000Y5624000D01*
X2731000Y4204000D02*
X2731000Y3948000D01*
X2731000Y4204000D02*
X2777000Y4250000D01*
X873000Y5250000D02*
X873000Y5550000D01*
X873000Y5250000D02*
X1323000Y4800000D01*
X2777000Y4548000D02*
X2777000Y4250000D01*
X2525000Y4800000D02*
X1323000Y4800000D01*
X2525000Y4800000D02*
X2777000Y4548000D01*
X1400000Y5400000D02*
X1400000Y5550000D01*
D17*
X1400000Y5695000D03*
D18*
X1400000Y5550000D01*
X1127000Y5550000D01*
D17*
X2100000Y5700000D03*
D18*
X2020706Y5700000D02*
X1976706Y5744000D01*
X2020706Y5700000D02*
X2100000Y5700000D01*
X1976706Y5744000D02*
X1449000Y5744000D01*
X1400000Y5695000D01*
X2473000Y5624000D02*
X2473000Y5400000D01*
X2473000Y5250000D01*
X2473000Y5400000D02*
X2200000Y5400000D01*
X2473000Y5250000D02*
X2223000Y5000000D01*
X1400000Y5000000D01*
D17*
X1400000Y5000000D03*
D18*
X2473000Y5400000D02*
X2675000Y5400000D01*
X2730000Y5455000D01*
D17*
X2730000Y5455000D03*
D18*
X2200000Y5250000D02*
X2200000Y5125000D01*
D17*
X2200000Y5125000D03*
X1400000Y5250000D03*
D18*
X1627000Y4250000D02*
X1631000Y4246000D01*
X1631000Y3948000D01*
D17*
X1927000Y5250000D03*
X2500000Y3450000D03*
D19*
X2477000Y3427000D01*
X2477000Y3056000D01*
D17*
X1350000Y3450000D03*
D19*
X1377000Y3423000D01*
X1377000Y3056000D01*
D18*
X1123000Y4204000D02*
X1077000Y4250000D01*
X1123000Y4204000D02*
X1123000Y3948000D01*
X1969000Y3948000D02*
X1969000Y4246000D01*
X1973000Y4250000D01*
X2477000Y4204000D02*
X2477000Y3948000D01*
X2477000Y4204000D02*
X2523000Y4250000D01*
X1123000Y3948000D02*
X1123000Y3700000D01*
X1969000Y3700000D02*
X1969000Y3948000D01*
X1969000Y3700000D02*
X1123000Y3700000D01*
X2477000Y3700000D02*
X2477000Y3948000D01*
X2477000Y3700000D02*
X1969000Y3700000D01*
D17*
X2075000Y5150000D03*
D18*
X2075000Y5476000D01*
X1927000Y5624000D01*
D17*
X850000Y3450000D03*
D19*
X869000Y3431000D01*
X869000Y3056000D01*
D17*
X2000000Y3450000D03*
D19*
X1969000Y3419000D01*
X1969000Y3056000D01*
D18*
X1350000Y2523000D02*
X850000Y2523000D01*
X1350000Y2523000D02*
X2000000Y2523000D01*
X2500000Y2523000D01*
X2086000Y2132000D02*
X2000000Y2218000D01*
X2000000Y2523000D01*
M02*
