G04 EAGLE Gerber X2 export*
%TF.Part,Single*%
%TF.FileFunction,Copper,L2,Bot,Mixed*%
%TF.FilePolarity,Positive*%
%TF.GenerationSoftware,Autodesk,EAGLE,9.0.0*%
%TF.CreationDate,2018-05-01T16:53:20Z*%
G75*
%MOMM*%
%FSLAX34Y34*%
%LPD*%
%AMOC8*
5,1,8,0,0,1.08239X$1,22.5*%
G01*
%ADD10R,1.300000X1.500000*%
%ADD11R,0.900000X0.700000*%
%ADD12R,0.700000X0.900000*%
%ADD13R,1.400000X1.400000*%
%ADD14R,2.400000X1.500000*%
%ADD15R,0.350000X0.650000*%
%ADD16R,1.600000X2.700000*%
%ADD17R,0.700000X0.600000*%
%ADD18C,1.500000*%
%ADD19R,0.400000X2.000000*%
%ADD20R,0.600000X0.700000*%
%ADD21R,1.800000X1.600000*%
%ADD22R,1.600000X2.000000*%
%ADD23R,0.650000X0.350000*%
%ADD24C,2.540000*%
%ADD25C,0.508000*%
%ADD26C,1.016000*%
%ADD27C,3.000000*%
%ADD28C,0.650000*%
%ADD29C,0.250000*%
%ADD30C,0.254000*%
%ADD31C,0.350000*%
%ADD32C,0.300000*%
%ADD33C,0.800000*%
%ADD34C,0.500000*%

G36*
X24875Y5006D02*
X24875Y5006D01*
X24901Y5002D01*
X25768Y5048D01*
X25965Y5005D01*
X26032Y5008D01*
X26073Y5001D01*
X323927Y5001D01*
X324240Y5041D01*
X324255Y5047D01*
X325099Y5002D01*
X325139Y5005D01*
X325165Y5001D01*
X325660Y5001D01*
X325680Y5003D01*
X325693Y5001D01*
X328111Y5064D01*
X328364Y5103D01*
X328402Y5106D01*
X333701Y6525D01*
X333993Y6644D01*
X334030Y6672D01*
X334058Y6683D01*
X338659Y9670D01*
X338900Y9874D01*
X338927Y9912D01*
X338950Y9932D01*
X342403Y14194D01*
X342463Y14291D01*
X342497Y14333D01*
X342522Y14386D01*
X342569Y14462D01*
X342582Y14506D01*
X342598Y14532D01*
X344565Y19653D01*
X344626Y19902D01*
X344637Y19938D01*
X344989Y22600D01*
X344989Y22706D01*
X344999Y22763D01*
X344999Y327050D01*
X344979Y327206D01*
X344979Y327272D01*
X344485Y330014D01*
X344475Y330048D01*
X344474Y330056D01*
X344449Y330130D01*
X344409Y330259D01*
X344400Y330295D01*
X342025Y335702D01*
X341863Y335973D01*
X341830Y336005D01*
X341814Y336031D01*
X337885Y340439D01*
X337647Y340647D01*
X337605Y340667D01*
X337582Y340687D01*
X332483Y343665D01*
X332193Y343789D01*
X332147Y343796D01*
X332119Y343807D01*
X326349Y345064D01*
X326094Y345087D01*
X326057Y345093D01*
X323829Y345046D01*
X323819Y345044D01*
X323810Y345045D01*
X323776Y345038D01*
X323518Y344999D01*
X322812Y344999D01*
X322734Y344989D01*
X322687Y344993D01*
X322008Y344925D01*
X321939Y344946D01*
X321627Y344998D01*
X321598Y344996D01*
X321578Y344999D01*
X26073Y344999D01*
X25760Y344959D01*
X25745Y344953D01*
X24901Y344998D01*
X24861Y344995D01*
X24835Y344999D01*
X24339Y344999D01*
X24320Y344997D01*
X24307Y344999D01*
X21889Y344936D01*
X21635Y344897D01*
X21598Y344894D01*
X16299Y343475D01*
X16007Y343356D01*
X15970Y343328D01*
X15942Y343317D01*
X11341Y340330D01*
X11100Y340126D01*
X11073Y340088D01*
X11050Y340068D01*
X7597Y335806D01*
X7431Y335538D01*
X7418Y335494D01*
X7402Y335468D01*
X5435Y330347D01*
X5374Y330098D01*
X5363Y330062D01*
X5011Y327400D01*
X5011Y327294D01*
X5001Y327237D01*
X5001Y22763D01*
X5014Y22658D01*
X5011Y22600D01*
X5363Y19938D01*
X5428Y19690D01*
X5435Y19653D01*
X7402Y14532D01*
X7426Y14487D01*
X7440Y14446D01*
X7485Y14378D01*
X7551Y14254D01*
X7583Y14220D01*
X7597Y14194D01*
X11050Y9932D01*
X11278Y9713D01*
X11319Y9691D01*
X11341Y9670D01*
X15942Y6683D01*
X16226Y6546D01*
X16272Y6537D01*
X16299Y6525D01*
X21598Y5106D01*
X21852Y5072D01*
X21889Y5064D01*
X24307Y5001D01*
X24327Y5003D01*
X24340Y5001D01*
X24835Y5001D01*
X24875Y5006D01*
G37*
%LPC*%
G36*
X266456Y54749D02*
X266456Y54749D01*
X264526Y55549D01*
X263049Y57026D01*
X262249Y58956D01*
X262249Y61044D01*
X263049Y62974D01*
X264526Y64451D01*
X266456Y65251D01*
X266929Y65251D01*
X267038Y65265D01*
X267148Y65270D01*
X267194Y65284D01*
X267242Y65291D01*
X267344Y65331D01*
X267449Y65364D01*
X267480Y65386D01*
X267535Y65408D01*
X267789Y65594D01*
X267801Y65609D01*
X267812Y65617D01*
X273383Y71188D01*
X273451Y71274D01*
X273524Y71356D01*
X273547Y71399D01*
X273577Y71437D01*
X273620Y71538D01*
X273671Y71636D01*
X273678Y71672D01*
X273701Y71727D01*
X273749Y72039D01*
X273747Y72058D01*
X273749Y72071D01*
X273749Y92500D01*
X273733Y92625D01*
X273724Y92750D01*
X273713Y92781D01*
X273709Y92813D01*
X273663Y92930D01*
X273622Y93049D01*
X273604Y93076D01*
X273592Y93106D01*
X273518Y93207D01*
X273449Y93313D01*
X273425Y93334D01*
X273406Y93360D01*
X273308Y93440D01*
X273215Y93524D01*
X273186Y93539D01*
X273161Y93560D01*
X273047Y93613D01*
X272936Y93671D01*
X272910Y93675D01*
X272875Y93692D01*
X272564Y93748D01*
X272525Y93745D01*
X272500Y93749D01*
X137446Y93749D01*
X90249Y140946D01*
X90249Y162500D01*
X90233Y162625D01*
X90224Y162750D01*
X90213Y162781D01*
X90209Y162813D01*
X90163Y162930D01*
X90122Y163049D01*
X90104Y163076D01*
X90092Y163106D01*
X90018Y163207D01*
X89949Y163313D01*
X89925Y163334D01*
X89906Y163360D01*
X89808Y163440D01*
X89715Y163524D01*
X89686Y163539D01*
X89661Y163560D01*
X89547Y163613D01*
X89436Y163671D01*
X89410Y163675D01*
X89375Y163692D01*
X89064Y163748D01*
X89025Y163745D01*
X89000Y163749D01*
X60946Y163749D01*
X58749Y165946D01*
X58749Y188308D01*
X58735Y188417D01*
X58730Y188526D01*
X58716Y188573D01*
X58709Y188621D01*
X58669Y188723D01*
X58636Y188828D01*
X58614Y188858D01*
X58592Y188914D01*
X58406Y189168D01*
X58391Y189180D01*
X58383Y189191D01*
X58049Y189526D01*
X57249Y191456D01*
X57249Y192283D01*
X57235Y192392D01*
X57230Y192501D01*
X57216Y192548D01*
X57209Y192595D01*
X57169Y192698D01*
X57136Y192803D01*
X57114Y192833D01*
X57092Y192889D01*
X56906Y193143D01*
X56891Y193155D01*
X56883Y193166D01*
X53999Y196050D01*
X53999Y214250D01*
X53983Y214375D01*
X53974Y214500D01*
X53963Y214531D01*
X53959Y214563D01*
X53913Y214680D01*
X53872Y214799D01*
X53854Y214826D01*
X53842Y214856D01*
X53768Y214957D01*
X53699Y215063D01*
X53675Y215084D01*
X53656Y215110D01*
X53558Y215190D01*
X53465Y215274D01*
X53436Y215289D01*
X53411Y215310D01*
X53297Y215363D01*
X53186Y215421D01*
X53160Y215425D01*
X53125Y215442D01*
X52814Y215498D01*
X52775Y215495D01*
X52750Y215499D01*
X52171Y215499D01*
X50999Y216671D01*
X50999Y225329D01*
X51999Y226328D01*
X52079Y226432D01*
X52164Y226532D01*
X52176Y226557D01*
X52192Y226578D01*
X52244Y226698D01*
X52301Y226817D01*
X52306Y226843D01*
X52317Y226868D01*
X52336Y226998D01*
X52362Y227126D01*
X52360Y227153D01*
X52364Y227180D01*
X52351Y227310D01*
X52344Y227441D01*
X52335Y227467D01*
X52333Y227493D01*
X52287Y227617D01*
X52247Y227741D01*
X52233Y227764D01*
X52223Y227789D01*
X52148Y227897D01*
X52078Y228008D01*
X52061Y228022D01*
X52043Y228048D01*
X51804Y228254D01*
X51763Y228274D01*
X51740Y228294D01*
X51440Y228467D01*
X50967Y228940D01*
X50632Y229519D01*
X50459Y230166D01*
X50459Y232251D01*
X57000Y232251D01*
X57125Y232267D01*
X57250Y232276D01*
X57281Y232286D01*
X57313Y232291D01*
X57429Y232337D01*
X57549Y232378D01*
X57576Y232396D01*
X57606Y232408D01*
X57707Y232482D01*
X57812Y232551D01*
X57834Y232575D01*
X57860Y232594D01*
X57940Y232692D01*
X58024Y232785D01*
X58039Y232814D01*
X58060Y232839D01*
X58112Y232953D01*
X58171Y233064D01*
X58175Y233090D01*
X58192Y233125D01*
X58218Y233274D01*
X58250Y233276D01*
X58281Y233287D01*
X58313Y233291D01*
X58430Y233337D01*
X58549Y233378D01*
X58576Y233396D01*
X58606Y233408D01*
X58707Y233482D01*
X58813Y233551D01*
X58834Y233575D01*
X58860Y233594D01*
X58940Y233692D01*
X59024Y233785D01*
X59039Y233814D01*
X59060Y233839D01*
X59113Y233953D01*
X59171Y234065D01*
X59175Y234090D01*
X59192Y234125D01*
X59248Y234436D01*
X59245Y234475D01*
X59249Y234500D01*
X59249Y240041D01*
X62335Y240041D01*
X62427Y240016D01*
X62557Y239998D01*
X62686Y239975D01*
X62713Y239977D01*
X62739Y239973D01*
X62870Y239989D01*
X63000Y239999D01*
X63026Y240007D01*
X63053Y240011D01*
X63175Y240058D01*
X63299Y240101D01*
X63322Y240115D01*
X63347Y240125D01*
X63453Y240202D01*
X63563Y240274D01*
X63581Y240294D01*
X63603Y240310D01*
X63686Y240410D01*
X63774Y240508D01*
X63787Y240532D01*
X63804Y240552D01*
X63860Y240671D01*
X63921Y240787D01*
X63925Y240809D01*
X63938Y240838D01*
X63997Y241148D01*
X63994Y241193D01*
X63999Y241223D01*
X63999Y245179D01*
X63985Y245288D01*
X63980Y245398D01*
X63966Y245444D01*
X63959Y245492D01*
X63919Y245594D01*
X63886Y245699D01*
X63864Y245730D01*
X63842Y245785D01*
X63656Y246039D01*
X63641Y246051D01*
X63633Y246062D01*
X61312Y248383D01*
X61226Y248451D01*
X61144Y248524D01*
X61101Y248547D01*
X61063Y248577D01*
X60962Y248620D01*
X60864Y248671D01*
X60828Y248678D01*
X60773Y248701D01*
X60461Y248749D01*
X60442Y248747D01*
X60429Y248749D01*
X38446Y248749D01*
X31249Y255946D01*
X31249Y257307D01*
X31244Y257346D01*
X31247Y257385D01*
X31224Y257502D01*
X31209Y257620D01*
X31195Y257656D01*
X31188Y257695D01*
X31137Y257802D01*
X31092Y257913D01*
X31069Y257945D01*
X31053Y257980D01*
X30976Y258071D01*
X30906Y258167D01*
X30876Y258192D01*
X30850Y258222D01*
X30795Y258257D01*
X30661Y258367D01*
X30533Y258426D01*
X30478Y258461D01*
X26673Y260037D01*
X22537Y264173D01*
X20299Y269576D01*
X20299Y275424D01*
X22537Y280827D01*
X26673Y284963D01*
X32076Y287201D01*
X37924Y287201D01*
X43327Y284963D01*
X47463Y280827D01*
X49701Y275424D01*
X49701Y269576D01*
X47463Y264173D01*
X43327Y260037D01*
X41123Y259124D01*
X41075Y259097D01*
X41023Y259078D01*
X40939Y259019D01*
X40849Y258968D01*
X40809Y258929D01*
X40764Y258898D01*
X40697Y258819D01*
X40623Y258747D01*
X40594Y258700D01*
X40558Y258658D01*
X40513Y258566D01*
X40459Y258478D01*
X40444Y258425D01*
X40419Y258375D01*
X40398Y258274D01*
X40369Y258176D01*
X40367Y258120D01*
X40355Y258066D01*
X40361Y257963D01*
X40357Y257860D01*
X40368Y257806D01*
X40371Y257751D01*
X40402Y257653D01*
X40424Y257552D01*
X40449Y257503D01*
X40465Y257450D01*
X40502Y257396D01*
X40566Y257270D01*
X40680Y257140D01*
X40718Y257087D01*
X41188Y256617D01*
X41274Y256550D01*
X41356Y256476D01*
X41399Y256453D01*
X41437Y256423D01*
X41538Y256380D01*
X41636Y256329D01*
X41673Y256322D01*
X41727Y256299D01*
X42039Y256251D01*
X42058Y256253D01*
X42071Y256251D01*
X57097Y256251D01*
X57238Y256269D01*
X57379Y256283D01*
X57394Y256289D01*
X57410Y256291D01*
X57542Y256343D01*
X57675Y256392D01*
X57688Y256402D01*
X57703Y256408D01*
X57818Y256491D01*
X57934Y256572D01*
X57945Y256585D01*
X57958Y256594D01*
X58047Y256704D01*
X58140Y256812D01*
X58147Y256826D01*
X58157Y256839D01*
X58216Y256968D01*
X58279Y257095D01*
X58282Y257111D01*
X58289Y257125D01*
X58314Y257265D01*
X58343Y257404D01*
X58342Y257420D01*
X58345Y257436D01*
X58334Y257577D01*
X58327Y257719D01*
X58322Y257734D01*
X58321Y257750D01*
X58275Y257885D01*
X58233Y258020D01*
X58226Y258031D01*
X58219Y258049D01*
X58046Y258313D01*
X58002Y258353D01*
X57981Y258383D01*
X56746Y259618D01*
X55299Y263110D01*
X55299Y281890D01*
X56746Y285382D01*
X59134Y287770D01*
X59207Y287864D01*
X59274Y287939D01*
X59289Y287967D01*
X59313Y287997D01*
X59319Y288009D01*
X59327Y288019D01*
X59374Y288129D01*
X59421Y288218D01*
X59425Y288243D01*
X59444Y288284D01*
X59446Y288297D01*
X59452Y288309D01*
X59473Y288452D01*
X59498Y288595D01*
X59497Y288608D01*
X59499Y288621D01*
X59497Y288642D01*
X59499Y288654D01*
X59499Y305829D01*
X60671Y307001D01*
X75329Y307001D01*
X76617Y305713D01*
X76716Y305636D01*
X76812Y305554D01*
X76841Y305539D01*
X76866Y305520D01*
X76982Y305470D01*
X77095Y305414D01*
X77126Y305408D01*
X77156Y305395D01*
X77281Y305376D01*
X77404Y305351D01*
X77436Y305352D01*
X77468Y305347D01*
X77593Y305360D01*
X77719Y305366D01*
X77750Y305376D01*
X77782Y305379D01*
X77900Y305423D01*
X78020Y305460D01*
X78041Y305475D01*
X78078Y305489D01*
X78337Y305669D01*
X78362Y305698D01*
X78383Y305713D01*
X79671Y307001D01*
X94329Y307001D01*
X95501Y305829D01*
X95501Y288654D01*
X95514Y288552D01*
X95520Y288434D01*
X95523Y288422D01*
X95524Y288409D01*
X95537Y288372D01*
X95541Y288341D01*
X95578Y288247D01*
X95614Y288133D01*
X95620Y288124D01*
X95625Y288109D01*
X95646Y288077D01*
X95658Y288048D01*
X95723Y287959D01*
X95797Y287845D01*
X95826Y287819D01*
X95844Y287793D01*
X95857Y287783D01*
X95866Y287770D01*
X98254Y285382D01*
X99701Y281890D01*
X99701Y263110D01*
X98254Y259618D01*
X95582Y256946D01*
X92090Y255499D01*
X88310Y255499D01*
X85728Y256569D01*
X85675Y256583D01*
X85625Y256606D01*
X85523Y256625D01*
X85424Y256652D01*
X85368Y256653D01*
X85314Y256662D01*
X85211Y256655D01*
X85108Y256656D01*
X85055Y256643D01*
X85000Y256639D01*
X84902Y256605D01*
X84802Y256581D01*
X84753Y256555D01*
X84701Y256537D01*
X84615Y256480D01*
X84524Y256431D01*
X84483Y256394D01*
X84437Y256363D01*
X84368Y256287D01*
X84292Y256217D01*
X84263Y256171D01*
X84226Y256130D01*
X84178Y256038D01*
X84122Y255951D01*
X84105Y255899D01*
X84079Y255850D01*
X84068Y255786D01*
X84023Y255652D01*
X84012Y255479D01*
X84001Y255415D01*
X84001Y249500D01*
X84017Y249375D01*
X84026Y249250D01*
X84037Y249219D01*
X84041Y249187D01*
X84087Y249070D01*
X84128Y248951D01*
X84146Y248924D01*
X84158Y248894D01*
X84232Y248793D01*
X84301Y248687D01*
X84325Y248666D01*
X84344Y248640D01*
X84442Y248560D01*
X84535Y248476D01*
X84564Y248461D01*
X84589Y248440D01*
X84703Y248387D01*
X84814Y248329D01*
X84840Y248325D01*
X84875Y248308D01*
X85186Y248252D01*
X85225Y248255D01*
X85250Y248251D01*
X89829Y248251D01*
X91127Y246952D01*
X91128Y246951D01*
X91146Y246924D01*
X91158Y246894D01*
X91232Y246793D01*
X91301Y246687D01*
X91325Y246666D01*
X91344Y246640D01*
X91442Y246560D01*
X91535Y246476D01*
X91564Y246461D01*
X91589Y246440D01*
X91703Y246387D01*
X91814Y246329D01*
X91840Y246325D01*
X91875Y246308D01*
X92186Y246252D01*
X92225Y246255D01*
X92250Y246251D01*
X101347Y246251D01*
X103251Y244347D01*
X103251Y238750D01*
X103267Y238625D01*
X103276Y238500D01*
X103287Y238469D01*
X103291Y238437D01*
X103337Y238320D01*
X103378Y238201D01*
X103396Y238174D01*
X103408Y238144D01*
X103482Y238043D01*
X103551Y237937D01*
X103575Y237916D01*
X103594Y237890D01*
X103692Y237810D01*
X103785Y237726D01*
X103814Y237711D01*
X103839Y237690D01*
X103953Y237637D01*
X104064Y237579D01*
X104090Y237575D01*
X104125Y237558D01*
X104303Y237526D01*
X105069Y236761D01*
X105168Y236684D01*
X105264Y236602D01*
X105293Y236588D01*
X105318Y236568D01*
X105434Y236518D01*
X105547Y236463D01*
X105578Y236456D01*
X105608Y236443D01*
X105733Y236424D01*
X105856Y236399D01*
X105888Y236400D01*
X105920Y236395D01*
X106045Y236408D01*
X106171Y236414D01*
X106202Y236424D01*
X106234Y236427D01*
X106352Y236471D01*
X106472Y236508D01*
X106493Y236523D01*
X106530Y236537D01*
X106789Y236717D01*
X106814Y236746D01*
X106835Y236761D01*
X107026Y236951D01*
X108956Y237751D01*
X111044Y237751D01*
X112974Y236951D01*
X114451Y235474D01*
X115251Y233544D01*
X115251Y231456D01*
X114451Y229526D01*
X112974Y228049D01*
X111044Y227249D01*
X108956Y227249D01*
X107228Y227965D01*
X107175Y227979D01*
X107125Y228002D01*
X107023Y228021D01*
X106924Y228048D01*
X106868Y228049D01*
X106814Y228058D01*
X106711Y228051D01*
X106608Y228052D01*
X106555Y228039D01*
X106500Y228035D01*
X106402Y228001D01*
X106302Y227977D01*
X106253Y227951D01*
X106201Y227933D01*
X106115Y227876D01*
X106024Y227827D01*
X105983Y227790D01*
X105937Y227760D01*
X105868Y227683D01*
X105792Y227613D01*
X105763Y227567D01*
X105726Y227526D01*
X105678Y227434D01*
X105622Y227347D01*
X105605Y227295D01*
X105579Y227246D01*
X105568Y227182D01*
X105523Y227048D01*
X105512Y226875D01*
X105501Y226811D01*
X105501Y218671D01*
X104963Y218133D01*
X104876Y218021D01*
X104786Y217911D01*
X104780Y217897D01*
X104770Y217884D01*
X104714Y217754D01*
X104654Y217625D01*
X104652Y217609D01*
X104645Y217594D01*
X104624Y217453D01*
X104599Y217314D01*
X104600Y217298D01*
X104597Y217282D01*
X104612Y217141D01*
X104622Y217000D01*
X104627Y216984D01*
X104629Y216968D01*
X104678Y216836D01*
X104724Y216701D01*
X104733Y216687D01*
X104738Y216672D01*
X104819Y216556D01*
X104897Y216437D01*
X104909Y216426D01*
X104919Y216413D01*
X105026Y216321D01*
X105131Y216226D01*
X105145Y216218D01*
X105158Y216208D01*
X105285Y216145D01*
X105411Y216079D01*
X105424Y216077D01*
X105441Y216068D01*
X105750Y216004D01*
X105809Y216007D01*
X105846Y216001D01*
X108250Y216001D01*
X108375Y216017D01*
X108500Y216026D01*
X108531Y216037D01*
X108563Y216041D01*
X108680Y216087D01*
X108799Y216128D01*
X108826Y216146D01*
X108856Y216158D01*
X108957Y216232D01*
X109063Y216301D01*
X109084Y216325D01*
X109110Y216344D01*
X109190Y216442D01*
X109274Y216535D01*
X109289Y216564D01*
X109310Y216589D01*
X109363Y216703D01*
X109421Y216814D01*
X109425Y216840D01*
X109442Y216875D01*
X109498Y217186D01*
X109495Y217225D01*
X109499Y217250D01*
X109499Y218829D01*
X110671Y220001D01*
X117250Y220001D01*
X117375Y220017D01*
X117500Y220026D01*
X117531Y220037D01*
X117563Y220041D01*
X117680Y220087D01*
X117799Y220128D01*
X117826Y220146D01*
X117856Y220158D01*
X117957Y220232D01*
X118063Y220301D01*
X118084Y220325D01*
X118110Y220344D01*
X118190Y220442D01*
X118274Y220535D01*
X118289Y220564D01*
X118310Y220589D01*
X118363Y220703D01*
X118421Y220814D01*
X118425Y220840D01*
X118442Y220875D01*
X118498Y221186D01*
X118495Y221225D01*
X118499Y221250D01*
X118499Y249329D01*
X119671Y250501D01*
X120170Y250501D01*
X120295Y250517D01*
X120420Y250526D01*
X120451Y250537D01*
X120483Y250541D01*
X120600Y250587D01*
X120719Y250628D01*
X120746Y250646D01*
X120776Y250658D01*
X120877Y250732D01*
X120983Y250801D01*
X121004Y250825D01*
X121030Y250844D01*
X121110Y250942D01*
X121194Y251035D01*
X121209Y251064D01*
X121230Y251089D01*
X121283Y251203D01*
X121341Y251314D01*
X121345Y251340D01*
X121362Y251375D01*
X121418Y251686D01*
X121415Y251725D01*
X121419Y251750D01*
X121419Y260158D01*
X121416Y260181D01*
X121418Y260204D01*
X121406Y260258D01*
X121379Y260471D01*
X121337Y260577D01*
X121324Y260636D01*
X120299Y263110D01*
X120299Y281890D01*
X121746Y285382D01*
X122353Y285989D01*
X122421Y286076D01*
X122494Y286158D01*
X122517Y286201D01*
X122546Y286239D01*
X122590Y286340D01*
X122641Y286437D01*
X122648Y286474D01*
X122671Y286529D01*
X122719Y286841D01*
X122717Y286860D01*
X122719Y286873D01*
X122719Y298208D01*
X123797Y300811D01*
X124133Y301147D01*
X124200Y301234D01*
X124274Y301315D01*
X124297Y301358D01*
X124326Y301396D01*
X124370Y301497D01*
X124421Y301595D01*
X124428Y301632D01*
X124451Y301686D01*
X124499Y301998D01*
X124497Y302017D01*
X124499Y302030D01*
X124499Y308329D01*
X125671Y309501D01*
X140329Y309501D01*
X141328Y308501D01*
X141432Y308421D01*
X141532Y308336D01*
X141557Y308324D01*
X141578Y308308D01*
X141698Y308256D01*
X141817Y308199D01*
X141843Y308194D01*
X141868Y308183D01*
X141998Y308164D01*
X142126Y308138D01*
X142153Y308140D01*
X142180Y308136D01*
X142310Y308149D01*
X142441Y308156D01*
X142467Y308165D01*
X142493Y308167D01*
X142617Y308213D01*
X142741Y308253D01*
X142764Y308267D01*
X142789Y308277D01*
X142897Y308352D01*
X143008Y308422D01*
X143022Y308439D01*
X143048Y308457D01*
X143254Y308696D01*
X143274Y308737D01*
X143294Y308760D01*
X143467Y309060D01*
X143940Y309533D01*
X144519Y309868D01*
X145166Y310041D01*
X149501Y310041D01*
X149501Y301250D01*
X149517Y301125D01*
X149526Y301000D01*
X149537Y300969D01*
X149541Y300937D01*
X149587Y300820D01*
X149628Y300701D01*
X149646Y300674D01*
X149658Y300644D01*
X149732Y300543D01*
X149801Y300437D01*
X149825Y300416D01*
X149844Y300390D01*
X149942Y300310D01*
X150035Y300226D01*
X150064Y300211D01*
X150089Y300190D01*
X150203Y300138D01*
X150315Y300079D01*
X150340Y300075D01*
X150375Y300058D01*
X150686Y300003D01*
X150725Y300005D01*
X150750Y300001D01*
X152001Y300001D01*
X152001Y298750D01*
X152017Y298625D01*
X152026Y298500D01*
X152037Y298469D01*
X152041Y298437D01*
X152087Y298320D01*
X152128Y298201D01*
X152146Y298174D01*
X152158Y298144D01*
X152232Y298043D01*
X152301Y297937D01*
X152325Y297916D01*
X152344Y297890D01*
X152442Y297810D01*
X152535Y297726D01*
X152564Y297711D01*
X152589Y297690D01*
X152703Y297638D01*
X152815Y297579D01*
X152840Y297575D01*
X152875Y297558D01*
X153186Y297502D01*
X153225Y297505D01*
X153250Y297501D01*
X161041Y297501D01*
X161041Y292166D01*
X160868Y291519D01*
X160533Y290940D01*
X160167Y290574D01*
X160163Y290569D01*
X160158Y290565D01*
X160066Y290443D01*
X159974Y290324D01*
X159971Y290318D01*
X159967Y290313D01*
X159909Y290173D01*
X159849Y290034D01*
X159848Y290028D01*
X159846Y290022D01*
X159824Y289871D01*
X159801Y289722D01*
X159802Y289716D01*
X159801Y289710D01*
X159818Y289560D01*
X159833Y289409D01*
X159835Y289403D01*
X159836Y289397D01*
X159890Y289254D01*
X159942Y289113D01*
X159946Y289108D01*
X159948Y289102D01*
X160037Y288977D01*
X160122Y288854D01*
X160127Y288849D01*
X160131Y288844D01*
X160150Y288830D01*
X160362Y288648D01*
X160417Y288620D01*
X161741Y287659D01*
X162859Y286541D01*
X163788Y285262D01*
X164505Y283854D01*
X164993Y282351D01*
X165241Y280790D01*
X165241Y274999D01*
X156450Y274999D01*
X156325Y274983D01*
X156200Y274974D01*
X156169Y274963D01*
X156137Y274959D01*
X156020Y274913D01*
X155901Y274872D01*
X155874Y274854D01*
X155844Y274842D01*
X155743Y274768D01*
X155637Y274699D01*
X155616Y274675D01*
X155590Y274656D01*
X155510Y274558D01*
X155426Y274465D01*
X155411Y274436D01*
X155390Y274411D01*
X155338Y274297D01*
X155279Y274185D01*
X155275Y274160D01*
X155258Y274125D01*
X155203Y273814D01*
X155205Y273775D01*
X155201Y273750D01*
X155201Y272499D01*
X155199Y272499D01*
X155199Y273750D01*
X155183Y273875D01*
X155174Y274000D01*
X155163Y274031D01*
X155159Y274063D01*
X155113Y274180D01*
X155072Y274299D01*
X155054Y274326D01*
X155042Y274356D01*
X154968Y274457D01*
X154899Y274563D01*
X154875Y274584D01*
X154856Y274610D01*
X154758Y274690D01*
X154665Y274774D01*
X154636Y274789D01*
X154611Y274810D01*
X154497Y274862D01*
X154385Y274921D01*
X154360Y274925D01*
X154325Y274942D01*
X154014Y274998D01*
X153975Y274995D01*
X153950Y274999D01*
X145159Y274999D01*
X145159Y280790D01*
X145407Y282351D01*
X145895Y283854D01*
X146612Y285262D01*
X147541Y286541D01*
X148659Y287659D01*
X148715Y287699D01*
X148775Y287755D01*
X148841Y287804D01*
X148889Y287863D01*
X148945Y287915D01*
X148989Y287985D01*
X149041Y288049D01*
X149072Y288118D01*
X149113Y288182D01*
X149138Y288261D01*
X149172Y288335D01*
X149186Y288410D01*
X149209Y288483D01*
X149214Y288565D01*
X149228Y288646D01*
X149223Y288722D01*
X149227Y288798D01*
X149211Y288878D01*
X149205Y288960D01*
X149180Y289032D01*
X149165Y289107D01*
X149129Y289181D01*
X149103Y289259D01*
X149061Y289323D01*
X149028Y289391D01*
X148975Y289454D01*
X148930Y289523D01*
X148873Y289574D01*
X148824Y289632D01*
X148757Y289679D01*
X148696Y289734D01*
X148628Y289770D01*
X148566Y289814D01*
X148489Y289843D01*
X148416Y289881D01*
X148362Y289891D01*
X148271Y289925D01*
X148019Y289952D01*
X147981Y289959D01*
X145166Y289959D01*
X144519Y290132D01*
X143940Y290467D01*
X143467Y290940D01*
X143294Y291240D01*
X143214Y291344D01*
X143139Y291452D01*
X143119Y291470D01*
X143103Y291491D01*
X143000Y291572D01*
X142900Y291658D01*
X142876Y291670D01*
X142855Y291687D01*
X142735Y291739D01*
X142617Y291797D01*
X142591Y291803D01*
X142566Y291814D01*
X142437Y291835D01*
X142308Y291861D01*
X142281Y291860D01*
X142255Y291864D01*
X142124Y291852D01*
X141993Y291845D01*
X141967Y291837D01*
X141940Y291835D01*
X141817Y291791D01*
X141692Y291751D01*
X141674Y291739D01*
X141644Y291728D01*
X141383Y291550D01*
X141353Y291516D01*
X141328Y291499D01*
X140329Y290499D01*
X138130Y290499D01*
X138005Y290483D01*
X137880Y290474D01*
X137849Y290463D01*
X137817Y290459D01*
X137700Y290413D01*
X137581Y290372D01*
X137554Y290354D01*
X137524Y290342D01*
X137423Y290268D01*
X137317Y290199D01*
X137296Y290175D01*
X137270Y290156D01*
X137190Y290058D01*
X137106Y289965D01*
X137091Y289936D01*
X137070Y289911D01*
X137017Y289797D01*
X136959Y289686D01*
X136955Y289660D01*
X136938Y289625D01*
X136882Y289314D01*
X136885Y289275D01*
X136881Y289250D01*
X136881Y286873D01*
X136895Y286764D01*
X136900Y286654D01*
X136914Y286608D01*
X136921Y286560D01*
X136961Y286458D01*
X136994Y286353D01*
X137016Y286322D01*
X137038Y286267D01*
X137224Y286012D01*
X137239Y286000D01*
X137247Y285989D01*
X137854Y285382D01*
X139301Y281890D01*
X139301Y263110D01*
X137854Y259618D01*
X135947Y257711D01*
X135879Y257624D01*
X135806Y257542D01*
X135783Y257499D01*
X135754Y257461D01*
X135710Y257360D01*
X135659Y257263D01*
X135652Y257226D01*
X135629Y257171D01*
X135581Y256859D01*
X135583Y256840D01*
X135581Y256827D01*
X135581Y251750D01*
X135597Y251625D01*
X135606Y251500D01*
X135617Y251469D01*
X135621Y251437D01*
X135667Y251320D01*
X135708Y251201D01*
X135726Y251174D01*
X135738Y251144D01*
X135812Y251043D01*
X135881Y250937D01*
X135905Y250916D01*
X135924Y250890D01*
X136022Y250810D01*
X136115Y250726D01*
X136144Y250711D01*
X136169Y250690D01*
X136283Y250637D01*
X136394Y250579D01*
X136420Y250575D01*
X136455Y250558D01*
X136766Y250502D01*
X136805Y250505D01*
X136830Y250501D01*
X137329Y250501D01*
X138501Y249329D01*
X138501Y220790D01*
X138517Y220665D01*
X138526Y220540D01*
X138537Y220509D01*
X138541Y220477D01*
X138587Y220360D01*
X138628Y220241D01*
X138646Y220214D01*
X138658Y220184D01*
X138732Y220083D01*
X138801Y219977D01*
X138825Y219956D01*
X138844Y219930D01*
X138942Y219850D01*
X139035Y219766D01*
X139064Y219751D01*
X139089Y219730D01*
X139203Y219677D01*
X139314Y219619D01*
X139340Y219615D01*
X139375Y219598D01*
X139686Y219542D01*
X139725Y219545D01*
X139750Y219541D01*
X145250Y219541D01*
X145375Y219557D01*
X145500Y219566D01*
X145531Y219577D01*
X145563Y219581D01*
X145680Y219627D01*
X145799Y219668D01*
X145826Y219686D01*
X145856Y219698D01*
X145957Y219772D01*
X146063Y219841D01*
X146084Y219865D01*
X146110Y219884D01*
X146190Y219982D01*
X146274Y220075D01*
X146289Y220104D01*
X146310Y220129D01*
X146363Y220243D01*
X146421Y220354D01*
X146425Y220380D01*
X146442Y220415D01*
X146498Y220726D01*
X146495Y220765D01*
X146499Y220790D01*
X146499Y249329D01*
X147671Y250501D01*
X165329Y250501D01*
X166501Y249329D01*
X166501Y243330D01*
X166517Y243205D01*
X166526Y243080D01*
X166537Y243049D01*
X166541Y243017D01*
X166587Y242900D01*
X166628Y242781D01*
X166646Y242754D01*
X166658Y242724D01*
X166732Y242623D01*
X166801Y242517D01*
X166825Y242496D01*
X166844Y242470D01*
X166942Y242390D01*
X167035Y242306D01*
X167064Y242291D01*
X167089Y242270D01*
X167203Y242217D01*
X167314Y242159D01*
X167340Y242155D01*
X167375Y242138D01*
X167686Y242082D01*
X167725Y242085D01*
X167750Y242081D01*
X173470Y242081D01*
X173579Y242095D01*
X173688Y242100D01*
X173735Y242114D01*
X173783Y242121D01*
X173885Y242161D01*
X173990Y242194D01*
X174020Y242216D01*
X174076Y242238D01*
X174330Y242424D01*
X174342Y242439D01*
X174353Y242447D01*
X182353Y250447D01*
X182421Y250534D01*
X182494Y250615D01*
X182517Y250658D01*
X182547Y250697D01*
X182590Y250798D01*
X182641Y250895D01*
X182648Y250932D01*
X182671Y250986D01*
X182719Y251298D01*
X182717Y251317D01*
X182719Y251330D01*
X182719Y258127D01*
X182705Y258236D01*
X182700Y258346D01*
X182686Y258392D01*
X182679Y258440D01*
X182639Y258542D01*
X182606Y258647D01*
X182584Y258678D01*
X182562Y258733D01*
X182376Y258988D01*
X182361Y259000D01*
X182353Y259011D01*
X181746Y259618D01*
X180299Y263110D01*
X180299Y281890D01*
X181746Y285382D01*
X184418Y288054D01*
X187910Y289501D01*
X191690Y289501D01*
X195182Y288054D01*
X197854Y285382D01*
X199301Y281890D01*
X199301Y263110D01*
X197854Y259618D01*
X197247Y259011D01*
X197179Y258924D01*
X197106Y258842D01*
X197083Y258799D01*
X197053Y258761D01*
X197010Y258660D01*
X196959Y258563D01*
X196952Y258526D01*
X196929Y258471D01*
X196881Y258159D01*
X196883Y258140D01*
X196881Y258127D01*
X196881Y246472D01*
X195803Y243869D01*
X184607Y232673D01*
X184520Y232561D01*
X184431Y232451D01*
X184424Y232437D01*
X184414Y232424D01*
X184358Y232293D01*
X184299Y232165D01*
X184296Y232149D01*
X184289Y232134D01*
X184268Y231993D01*
X184243Y231854D01*
X184244Y231838D01*
X184242Y231822D01*
X184256Y231681D01*
X184266Y231540D01*
X184272Y231524D01*
X184273Y231508D01*
X184322Y231375D01*
X184368Y231241D01*
X184377Y231227D01*
X184383Y231212D01*
X184463Y231096D01*
X184542Y230977D01*
X184554Y230966D01*
X184563Y230953D01*
X184670Y230861D01*
X184775Y230766D01*
X184790Y230758D01*
X184802Y230748D01*
X184929Y230685D01*
X185055Y230619D01*
X185068Y230617D01*
X185085Y230608D01*
X185394Y230544D01*
X185453Y230547D01*
X185490Y230541D01*
X186001Y230541D01*
X186001Y225250D01*
X186017Y225125D01*
X186026Y225000D01*
X186036Y224969D01*
X186041Y224937D01*
X186087Y224821D01*
X186128Y224701D01*
X186146Y224674D01*
X186158Y224644D01*
X186232Y224543D01*
X186301Y224438D01*
X186325Y224416D01*
X186344Y224390D01*
X186442Y224310D01*
X186535Y224226D01*
X186564Y224211D01*
X186589Y224190D01*
X186651Y224162D01*
X186658Y224144D01*
X186732Y224043D01*
X186801Y223937D01*
X186825Y223916D01*
X186844Y223890D01*
X186942Y223810D01*
X187035Y223726D01*
X187064Y223711D01*
X187089Y223690D01*
X187203Y223637D01*
X187315Y223579D01*
X187340Y223575D01*
X187375Y223558D01*
X187686Y223502D01*
X187725Y223505D01*
X187750Y223501D01*
X193541Y223501D01*
X193541Y221666D01*
X193368Y221019D01*
X192998Y220379D01*
X192935Y220306D01*
X192921Y220278D01*
X192902Y220252D01*
X192852Y220136D01*
X192796Y220023D01*
X192790Y219992D01*
X192777Y219962D01*
X192758Y219838D01*
X192732Y219714D01*
X192734Y219682D01*
X192729Y219651D01*
X192742Y219525D01*
X192748Y219399D01*
X192758Y219369D01*
X192761Y219337D01*
X192805Y219218D01*
X192842Y219098D01*
X192857Y219077D01*
X192870Y219041D01*
X193001Y218853D01*
X193001Y215790D01*
X193017Y215665D01*
X193026Y215540D01*
X193037Y215509D01*
X193041Y215477D01*
X193087Y215360D01*
X193128Y215241D01*
X193146Y215214D01*
X193158Y215184D01*
X193232Y215083D01*
X193301Y214977D01*
X193325Y214956D01*
X193344Y214930D01*
X193442Y214850D01*
X193535Y214766D01*
X193564Y214751D01*
X193589Y214730D01*
X193703Y214677D01*
X193814Y214619D01*
X193840Y214615D01*
X193875Y214598D01*
X194186Y214542D01*
X194225Y214545D01*
X194250Y214541D01*
X207210Y214541D01*
X207335Y214557D01*
X207460Y214566D01*
X207491Y214577D01*
X207523Y214581D01*
X207640Y214627D01*
X207759Y214668D01*
X207786Y214686D01*
X207816Y214698D01*
X207917Y214772D01*
X208023Y214841D01*
X208044Y214865D01*
X208070Y214884D01*
X208150Y214982D01*
X208234Y215075D01*
X208249Y215104D01*
X208270Y215129D01*
X208323Y215243D01*
X208381Y215354D01*
X208385Y215380D01*
X208402Y215415D01*
X208458Y215726D01*
X208455Y215765D01*
X208459Y215790D01*
X208459Y216750D01*
X208443Y216875D01*
X208434Y217000D01*
X208423Y217031D01*
X208419Y217063D01*
X208373Y217180D01*
X208332Y217299D01*
X208314Y217326D01*
X208302Y217356D01*
X208228Y217457D01*
X208159Y217563D01*
X208135Y217584D01*
X208116Y217610D01*
X208018Y217690D01*
X207925Y217774D01*
X207896Y217789D01*
X207871Y217810D01*
X207757Y217863D01*
X207646Y217921D01*
X207620Y217925D01*
X207585Y217942D01*
X207274Y217998D01*
X207235Y217995D01*
X207210Y217999D01*
X205671Y217999D01*
X204499Y219171D01*
X204499Y235829D01*
X205671Y237001D01*
X220329Y237001D01*
X221328Y236001D01*
X221432Y235921D01*
X221532Y235836D01*
X221557Y235824D01*
X221578Y235808D01*
X221698Y235756D01*
X221817Y235699D01*
X221843Y235694D01*
X221868Y235683D01*
X221998Y235664D01*
X222126Y235638D01*
X222153Y235640D01*
X222180Y235636D01*
X222310Y235649D01*
X222441Y235656D01*
X222467Y235665D01*
X222493Y235667D01*
X222617Y235713D01*
X222741Y235753D01*
X222764Y235767D01*
X222789Y235777D01*
X222897Y235852D01*
X223008Y235922D01*
X223022Y235939D01*
X223048Y235957D01*
X223254Y236196D01*
X223274Y236237D01*
X223294Y236260D01*
X223467Y236560D01*
X223940Y237033D01*
X224519Y237368D01*
X225166Y237541D01*
X229501Y237541D01*
X229501Y228750D01*
X229517Y228625D01*
X229526Y228500D01*
X229537Y228469D01*
X229541Y228437D01*
X229587Y228320D01*
X229628Y228201D01*
X229646Y228174D01*
X229658Y228144D01*
X229732Y228043D01*
X229801Y227937D01*
X229825Y227916D01*
X229844Y227890D01*
X229942Y227810D01*
X230035Y227726D01*
X230064Y227711D01*
X230089Y227690D01*
X230203Y227638D01*
X230315Y227579D01*
X230340Y227575D01*
X230375Y227558D01*
X230686Y227503D01*
X230725Y227505D01*
X230750Y227501D01*
X232001Y227501D01*
X232001Y227499D01*
X230750Y227499D01*
X230625Y227483D01*
X230500Y227474D01*
X230469Y227463D01*
X230437Y227459D01*
X230320Y227413D01*
X230201Y227372D01*
X230174Y227354D01*
X230144Y227342D01*
X230043Y227268D01*
X229937Y227199D01*
X229916Y227175D01*
X229890Y227156D01*
X229810Y227058D01*
X229726Y226965D01*
X229711Y226936D01*
X229690Y226911D01*
X229638Y226797D01*
X229579Y226685D01*
X229575Y226660D01*
X229558Y226625D01*
X229502Y226314D01*
X229505Y226275D01*
X229501Y226250D01*
X229501Y217459D01*
X225166Y217459D01*
X224519Y217632D01*
X223940Y217967D01*
X223467Y218440D01*
X223294Y218740D01*
X223214Y218844D01*
X223139Y218952D01*
X223119Y218970D01*
X223103Y218991D01*
X223000Y219072D01*
X222900Y219158D01*
X222876Y219170D01*
X222855Y219187D01*
X222735Y219239D01*
X222617Y219297D01*
X222591Y219303D01*
X222566Y219314D01*
X222437Y219335D01*
X222308Y219361D01*
X222281Y219360D01*
X222255Y219364D01*
X222124Y219352D01*
X221993Y219345D01*
X221967Y219337D01*
X221940Y219335D01*
X221817Y219291D01*
X221692Y219251D01*
X221674Y219239D01*
X221644Y219228D01*
X221383Y219050D01*
X221353Y219016D01*
X221328Y218999D01*
X220329Y217999D01*
X218790Y217999D01*
X218665Y217983D01*
X218540Y217974D01*
X218509Y217963D01*
X218477Y217959D01*
X218360Y217913D01*
X218241Y217872D01*
X218214Y217854D01*
X218184Y217842D01*
X218083Y217768D01*
X217977Y217699D01*
X217956Y217675D01*
X217930Y217656D01*
X217850Y217558D01*
X217766Y217465D01*
X217751Y217436D01*
X217730Y217411D01*
X217677Y217297D01*
X217619Y217186D01*
X217615Y217160D01*
X217598Y217125D01*
X217542Y216814D01*
X217545Y216775D01*
X217541Y216750D01*
X217541Y215790D01*
X217557Y215665D01*
X217566Y215540D01*
X217577Y215509D01*
X217581Y215477D01*
X217627Y215360D01*
X217668Y215241D01*
X217686Y215214D01*
X217698Y215184D01*
X217772Y215083D01*
X217841Y214977D01*
X217865Y214956D01*
X217884Y214930D01*
X217982Y214850D01*
X218075Y214766D01*
X218104Y214751D01*
X218129Y214730D01*
X218243Y214677D01*
X218354Y214619D01*
X218380Y214615D01*
X218415Y214598D01*
X218726Y214542D01*
X218765Y214545D01*
X218790Y214541D01*
X244145Y214541D01*
X244146Y214541D01*
X244147Y214541D01*
X244160Y214541D01*
X244167Y214540D01*
X244177Y214541D01*
X244208Y214541D01*
X244289Y214551D01*
X244314Y214553D01*
X244460Y214564D01*
X244470Y214568D01*
X244481Y214569D01*
X244510Y214579D01*
X244521Y214581D01*
X244588Y214607D01*
X244620Y214619D01*
X244759Y214666D01*
X244768Y214672D01*
X244778Y214675D01*
X244804Y214694D01*
X244814Y214698D01*
X244868Y214737D01*
X244899Y214758D01*
X245023Y214839D01*
X245030Y214847D01*
X245038Y214853D01*
X245060Y214878D01*
X245069Y214884D01*
X245110Y214935D01*
X245134Y214962D01*
X245234Y215073D01*
X245239Y215083D01*
X245246Y215090D01*
X245261Y215120D01*
X245268Y215129D01*
X245297Y215192D01*
X245312Y215222D01*
X245381Y215353D01*
X245382Y215361D01*
X245388Y215372D01*
X245395Y215404D01*
X245400Y215415D01*
X245414Y215491D01*
X245455Y215681D01*
X245453Y215712D01*
X245456Y215726D01*
X245454Y215757D01*
X245459Y215788D01*
X245459Y282250D01*
X245443Y282375D01*
X245434Y282500D01*
X245423Y282531D01*
X245419Y282563D01*
X245373Y282680D01*
X245332Y282799D01*
X245314Y282826D01*
X245302Y282856D01*
X245228Y282957D01*
X245159Y283063D01*
X245135Y283084D01*
X245116Y283110D01*
X245019Y283190D01*
X244925Y283274D01*
X244896Y283289D01*
X244871Y283310D01*
X244757Y283363D01*
X244646Y283421D01*
X244620Y283425D01*
X244585Y283442D01*
X244274Y283498D01*
X244235Y283495D01*
X244210Y283499D01*
X238171Y283499D01*
X236999Y284671D01*
X236999Y300329D01*
X238171Y301501D01*
X253829Y301501D01*
X255001Y300329D01*
X255001Y284671D01*
X254907Y284577D01*
X254839Y284490D01*
X254766Y284409D01*
X254743Y284366D01*
X254713Y284328D01*
X254670Y284227D01*
X254619Y284129D01*
X254612Y284092D01*
X254589Y284038D01*
X254541Y283726D01*
X254543Y283707D01*
X254541Y283694D01*
X254541Y184521D01*
X254541Y184517D01*
X254541Y184514D01*
X254561Y184362D01*
X254581Y184208D01*
X254582Y184205D01*
X254582Y184201D01*
X254642Y184055D01*
X254698Y183915D01*
X254700Y183912D01*
X254701Y183909D01*
X254793Y183785D01*
X254884Y183660D01*
X254887Y183658D01*
X254889Y183655D01*
X255010Y183558D01*
X255129Y183461D01*
X255132Y183459D01*
X255134Y183457D01*
X255148Y183452D01*
X255415Y183329D01*
X255500Y183314D01*
X255546Y183296D01*
X256689Y183068D01*
X257743Y182632D01*
X258691Y181998D01*
X259498Y181191D01*
X260132Y180243D01*
X260568Y179189D01*
X260656Y178749D01*
X255000Y178749D01*
X249344Y178749D01*
X249432Y179189D01*
X249450Y179232D01*
X249464Y179285D01*
X249487Y179335D01*
X249505Y179437D01*
X249533Y179536D01*
X249533Y179592D01*
X249543Y179646D01*
X249535Y179749D01*
X249537Y179852D01*
X249523Y179905D01*
X249519Y179960D01*
X249486Y180058D01*
X249461Y180158D01*
X249435Y180207D01*
X249418Y180259D01*
X249361Y180345D01*
X249312Y180436D01*
X249275Y180477D01*
X249244Y180523D01*
X249168Y180592D01*
X249098Y180668D01*
X249051Y180697D01*
X249010Y180734D01*
X248919Y180782D01*
X248832Y180838D01*
X248780Y180855D01*
X248731Y180881D01*
X248667Y180892D01*
X248532Y180937D01*
X248360Y180948D01*
X248295Y180959D01*
X239929Y180959D01*
X239505Y181383D01*
X239418Y181451D01*
X239337Y181524D01*
X239294Y181547D01*
X239256Y181577D01*
X239154Y181620D01*
X239057Y181671D01*
X239020Y181678D01*
X238966Y181701D01*
X238654Y181749D01*
X238635Y181747D01*
X238622Y181749D01*
X237731Y181749D01*
X237280Y182200D01*
X237189Y182271D01*
X237103Y182347D01*
X237065Y182367D01*
X237031Y182393D01*
X236925Y182439D01*
X236823Y182491D01*
X236781Y182501D01*
X236741Y182518D01*
X236627Y182535D01*
X236515Y182560D01*
X236481Y182558D01*
X236429Y182566D01*
X236115Y182534D01*
X236091Y182525D01*
X236074Y182523D01*
X235834Y182459D01*
X229999Y182459D01*
X229999Y188071D01*
X229988Y188161D01*
X229986Y188251D01*
X229968Y188317D01*
X229959Y188384D01*
X229926Y188468D01*
X229901Y188555D01*
X229867Y188614D01*
X229842Y188677D01*
X229789Y188750D01*
X229743Y188828D01*
X229696Y188876D01*
X229656Y188931D01*
X229585Y188988D01*
X229522Y189053D01*
X229464Y189088D01*
X229411Y189131D01*
X229329Y189168D01*
X229251Y189215D01*
X229186Y189234D01*
X229125Y189262D01*
X229036Y189278D01*
X228949Y189304D01*
X228898Y189303D01*
X228814Y189318D01*
X228749Y189313D01*
X228749Y193750D01*
X228749Y193751D01*
X228750Y193751D01*
X233186Y193751D01*
X233187Y193747D01*
X233182Y193679D01*
X233199Y193590D01*
X233205Y193500D01*
X233227Y193435D01*
X233240Y193369D01*
X233278Y193287D01*
X233307Y193201D01*
X233344Y193144D01*
X233373Y193083D01*
X233431Y193013D01*
X233480Y192937D01*
X233531Y192892D01*
X233574Y192840D01*
X233647Y192787D01*
X233714Y192726D01*
X233774Y192694D01*
X233829Y192654D01*
X233913Y192621D01*
X233994Y192579D01*
X234043Y192570D01*
X234123Y192539D01*
X234415Y192503D01*
X234429Y192501D01*
X234770Y192501D01*
X234895Y192517D01*
X235020Y192526D01*
X235051Y192537D01*
X235083Y192541D01*
X235200Y192587D01*
X235319Y192628D01*
X235346Y192646D01*
X235376Y192658D01*
X235478Y192732D01*
X235583Y192801D01*
X235604Y192825D01*
X235630Y192844D01*
X235710Y192942D01*
X235794Y193035D01*
X235809Y193064D01*
X235830Y193089D01*
X235883Y193203D01*
X235941Y193315D01*
X235945Y193340D01*
X235962Y193375D01*
X236018Y193686D01*
X236015Y193725D01*
X236019Y193750D01*
X236019Y193751D01*
X241810Y193751D01*
X241934Y193766D01*
X242060Y193776D01*
X242091Y193786D01*
X242123Y193790D01*
X242239Y193837D01*
X242359Y193878D01*
X242386Y193895D01*
X242416Y193907D01*
X242517Y193982D01*
X242622Y194051D01*
X242644Y194075D01*
X242670Y194094D01*
X242750Y194191D01*
X242834Y194285D01*
X242849Y194313D01*
X242870Y194338D01*
X242922Y194453D01*
X242981Y194564D01*
X242985Y194590D01*
X243001Y194625D01*
X243057Y194936D01*
X243054Y194974D01*
X243059Y195000D01*
X243043Y195125D01*
X243034Y195251D01*
X243023Y195281D01*
X243019Y195313D01*
X242972Y195430D01*
X242932Y195549D01*
X242914Y195576D01*
X242902Y195606D01*
X242828Y195708D01*
X242758Y195813D01*
X242735Y195834D01*
X242715Y195860D01*
X242618Y195940D01*
X242525Y196025D01*
X242496Y196040D01*
X242471Y196060D01*
X242357Y196113D01*
X242245Y196171D01*
X242220Y196176D01*
X242184Y196192D01*
X241874Y196248D01*
X241835Y196245D01*
X241810Y196249D01*
X236019Y196249D01*
X236019Y196250D01*
X236003Y196375D01*
X235994Y196500D01*
X235983Y196531D01*
X235979Y196563D01*
X235933Y196680D01*
X235892Y196799D01*
X235874Y196826D01*
X235862Y196856D01*
X235788Y196957D01*
X235719Y197063D01*
X235695Y197084D01*
X235676Y197110D01*
X235578Y197190D01*
X235485Y197274D01*
X235456Y197289D01*
X235431Y197310D01*
X235317Y197362D01*
X235206Y197421D01*
X235180Y197425D01*
X235145Y197442D01*
X234834Y197498D01*
X234795Y197495D01*
X234770Y197499D01*
X234429Y197499D01*
X234339Y197488D01*
X234249Y197486D01*
X234183Y197468D01*
X234116Y197459D01*
X234032Y197426D01*
X233945Y197401D01*
X233886Y197367D01*
X233823Y197342D01*
X233750Y197289D01*
X233672Y197243D01*
X233624Y197196D01*
X233569Y197156D01*
X233512Y197085D01*
X233447Y197022D01*
X233412Y196964D01*
X233369Y196911D01*
X233332Y196829D01*
X233285Y196751D01*
X233266Y196686D01*
X233238Y196625D01*
X233222Y196536D01*
X233196Y196449D01*
X233197Y196398D01*
X233182Y196314D01*
X233187Y196249D01*
X228750Y196249D01*
X228749Y196249D01*
X228749Y196250D01*
X228749Y200686D01*
X228753Y200687D01*
X228821Y200682D01*
X228910Y200699D01*
X229000Y200705D01*
X229064Y200727D01*
X229131Y200740D01*
X229213Y200778D01*
X229299Y200807D01*
X229356Y200844D01*
X229417Y200873D01*
X229487Y200931D01*
X229563Y200980D01*
X229608Y201031D01*
X229660Y201074D01*
X229713Y201147D01*
X229774Y201214D01*
X229806Y201274D01*
X229846Y201329D01*
X229879Y201413D01*
X229921Y201494D01*
X229930Y201543D01*
X229961Y201623D01*
X229997Y201915D01*
X229999Y201929D01*
X229999Y204210D01*
X229983Y204335D01*
X229974Y204460D01*
X229963Y204491D01*
X229959Y204523D01*
X229913Y204640D01*
X229872Y204759D01*
X229854Y204786D01*
X229842Y204816D01*
X229768Y204917D01*
X229699Y205023D01*
X229675Y205044D01*
X229656Y205070D01*
X229558Y205150D01*
X229465Y205234D01*
X229436Y205249D01*
X229411Y205270D01*
X229297Y205323D01*
X229185Y205381D01*
X229160Y205385D01*
X229125Y205402D01*
X228814Y205458D01*
X228775Y205455D01*
X228750Y205459D01*
X226250Y205459D01*
X226125Y205443D01*
X226000Y205434D01*
X225969Y205423D01*
X225937Y205419D01*
X225820Y205373D01*
X225701Y205332D01*
X225674Y205314D01*
X225644Y205302D01*
X225543Y205228D01*
X225437Y205159D01*
X225416Y205135D01*
X225390Y205116D01*
X225310Y205018D01*
X225226Y204925D01*
X225211Y204896D01*
X225190Y204871D01*
X225138Y204757D01*
X225079Y204646D01*
X225075Y204620D01*
X225058Y204585D01*
X225002Y204274D01*
X225005Y204235D01*
X225001Y204210D01*
X225001Y201929D01*
X225012Y201839D01*
X225014Y201749D01*
X225032Y201683D01*
X225041Y201616D01*
X225074Y201532D01*
X225099Y201445D01*
X225132Y201386D01*
X225158Y201323D01*
X225211Y201250D01*
X225257Y201172D01*
X225304Y201124D01*
X225344Y201069D01*
X225414Y201012D01*
X225478Y200947D01*
X225536Y200912D01*
X225589Y200869D01*
X225671Y200832D01*
X225749Y200785D01*
X225814Y200766D01*
X225875Y200738D01*
X225964Y200722D01*
X226051Y200696D01*
X226102Y200697D01*
X226186Y200682D01*
X226251Y200687D01*
X226251Y196250D01*
X226251Y196249D01*
X226250Y196249D01*
X221814Y196249D01*
X221813Y196253D01*
X221818Y196321D01*
X221801Y196410D01*
X221795Y196500D01*
X221773Y196564D01*
X221760Y196631D01*
X221722Y196713D01*
X221693Y196799D01*
X221656Y196856D01*
X221627Y196917D01*
X221569Y196987D01*
X221520Y197063D01*
X221469Y197108D01*
X221426Y197160D01*
X221353Y197213D01*
X221286Y197274D01*
X221226Y197306D01*
X221171Y197346D01*
X221087Y197379D01*
X221006Y197421D01*
X220957Y197430D01*
X220877Y197461D01*
X220585Y197497D01*
X220571Y197499D01*
X219690Y197499D01*
X219565Y197483D01*
X219440Y197474D01*
X219409Y197463D01*
X219377Y197459D01*
X219260Y197413D01*
X219141Y197372D01*
X219114Y197354D01*
X219084Y197342D01*
X218983Y197268D01*
X218877Y197199D01*
X218856Y197175D01*
X218830Y197156D01*
X218750Y197058D01*
X218666Y196965D01*
X218651Y196936D01*
X218630Y196911D01*
X218577Y196797D01*
X218519Y196685D01*
X218515Y196660D01*
X218498Y196625D01*
X218442Y196314D01*
X218445Y196275D01*
X218441Y196250D01*
X218441Y193750D01*
X218457Y193625D01*
X218466Y193500D01*
X218477Y193469D01*
X218481Y193437D01*
X218527Y193320D01*
X218568Y193201D01*
X218586Y193174D01*
X218598Y193144D01*
X218672Y193043D01*
X218741Y192937D01*
X218765Y192916D01*
X218784Y192890D01*
X218882Y192810D01*
X218975Y192726D01*
X219004Y192711D01*
X219029Y192690D01*
X219143Y192638D01*
X219254Y192579D01*
X219280Y192575D01*
X219315Y192558D01*
X219626Y192502D01*
X219665Y192505D01*
X219690Y192501D01*
X220571Y192501D01*
X220661Y192512D01*
X220751Y192514D01*
X220817Y192532D01*
X220884Y192541D01*
X220968Y192574D01*
X221055Y192599D01*
X221114Y192632D01*
X221177Y192658D01*
X221250Y192711D01*
X221328Y192757D01*
X221376Y192804D01*
X221431Y192844D01*
X221488Y192914D01*
X221553Y192978D01*
X221588Y193036D01*
X221631Y193089D01*
X221668Y193171D01*
X221715Y193249D01*
X221734Y193314D01*
X221762Y193375D01*
X221778Y193464D01*
X221804Y193551D01*
X221803Y193602D01*
X221818Y193686D01*
X221813Y193751D01*
X226250Y193751D01*
X226251Y193751D01*
X226251Y193750D01*
X226251Y189314D01*
X226247Y189313D01*
X226179Y189318D01*
X226090Y189301D01*
X226000Y189295D01*
X225935Y189273D01*
X225869Y189260D01*
X225787Y189222D01*
X225701Y189193D01*
X225644Y189156D01*
X225583Y189127D01*
X225513Y189069D01*
X225437Y189020D01*
X225392Y188969D01*
X225340Y188926D01*
X225287Y188853D01*
X225226Y188786D01*
X225194Y188726D01*
X225154Y188671D01*
X225121Y188587D01*
X225079Y188506D01*
X225070Y188457D01*
X225039Y188377D01*
X225003Y188085D01*
X225001Y188071D01*
X225001Y182459D01*
X219165Y182459D01*
X218958Y182515D01*
X218844Y182530D01*
X218731Y182554D01*
X218688Y182552D01*
X218645Y182557D01*
X218531Y182544D01*
X218416Y182538D01*
X218375Y182525D01*
X218332Y182520D01*
X218224Y182479D01*
X218114Y182444D01*
X218087Y182425D01*
X218038Y182406D01*
X217782Y182221D01*
X217765Y182202D01*
X217751Y182192D01*
X217307Y181747D01*
X217239Y181660D01*
X217166Y181579D01*
X217143Y181536D01*
X217113Y181498D01*
X217070Y181397D01*
X217019Y181299D01*
X217012Y181262D01*
X216989Y181208D01*
X216941Y180896D01*
X216943Y180877D01*
X216941Y180864D01*
X216941Y168500D01*
X216957Y168375D01*
X216966Y168250D01*
X216977Y168219D01*
X216981Y168187D01*
X217027Y168070D01*
X217068Y167951D01*
X217086Y167924D01*
X217098Y167894D01*
X217172Y167793D01*
X217241Y167687D01*
X217265Y167666D01*
X217284Y167640D01*
X217382Y167560D01*
X217475Y167476D01*
X217504Y167461D01*
X217529Y167440D01*
X217643Y167387D01*
X217754Y167329D01*
X217780Y167325D01*
X217815Y167308D01*
X218126Y167252D01*
X218165Y167255D01*
X218190Y167251D01*
X265250Y167251D01*
X265375Y167267D01*
X265500Y167276D01*
X265531Y167287D01*
X265563Y167291D01*
X265680Y167337D01*
X265799Y167378D01*
X265826Y167396D01*
X265856Y167408D01*
X265957Y167482D01*
X266063Y167551D01*
X266084Y167575D01*
X266110Y167594D01*
X266190Y167692D01*
X266274Y167785D01*
X266289Y167814D01*
X266310Y167839D01*
X266363Y167953D01*
X266421Y168064D01*
X266425Y168090D01*
X266442Y168125D01*
X266498Y168436D01*
X266495Y168475D01*
X266499Y168500D01*
X266499Y172329D01*
X267671Y173501D01*
X287329Y173501D01*
X288501Y172329D01*
X288501Y154671D01*
X287329Y153499D01*
X282500Y153499D01*
X282375Y153483D01*
X282250Y153474D01*
X282219Y153463D01*
X282187Y153459D01*
X282070Y153413D01*
X281951Y153372D01*
X281924Y153354D01*
X281894Y153342D01*
X281793Y153268D01*
X281687Y153199D01*
X281666Y153175D01*
X281640Y153156D01*
X281560Y153058D01*
X281476Y152965D01*
X281461Y152936D01*
X281440Y152911D01*
X281387Y152797D01*
X281329Y152686D01*
X281325Y152660D01*
X281308Y152625D01*
X281252Y152314D01*
X281255Y152275D01*
X281251Y152250D01*
X281251Y68446D01*
X273117Y60312D01*
X273049Y60226D01*
X272976Y60144D01*
X272953Y60101D01*
X272923Y60063D01*
X272880Y59962D01*
X272829Y59864D01*
X272822Y59828D01*
X272799Y59773D01*
X272751Y59461D01*
X272753Y59442D01*
X272751Y59429D01*
X272751Y58956D01*
X271951Y57026D01*
X270474Y55549D01*
X268544Y54749D01*
X266456Y54749D01*
G37*
%LPD*%
G36*
X163776Y101269D02*
X163776Y101269D01*
X163918Y101283D01*
X163933Y101289D01*
X163949Y101291D01*
X164081Y101343D01*
X164214Y101392D01*
X164227Y101402D01*
X164242Y101408D01*
X164357Y101492D01*
X164473Y101572D01*
X164483Y101585D01*
X164496Y101594D01*
X164586Y101704D01*
X164679Y101812D01*
X164686Y101826D01*
X164696Y101839D01*
X164755Y101968D01*
X164818Y102095D01*
X164821Y102111D01*
X164828Y102125D01*
X164853Y102265D01*
X164882Y102404D01*
X164881Y102420D01*
X164884Y102436D01*
X164873Y102577D01*
X164866Y102719D01*
X164861Y102734D01*
X164860Y102750D01*
X164814Y102885D01*
X164772Y103020D01*
X164764Y103031D01*
X164758Y103049D01*
X164585Y103313D01*
X164541Y103353D01*
X164519Y103383D01*
X138519Y129383D01*
X138433Y129451D01*
X138351Y129524D01*
X138308Y129547D01*
X138270Y129577D01*
X138169Y129620D01*
X138072Y129671D01*
X138035Y129678D01*
X137980Y129701D01*
X137668Y129749D01*
X137649Y129747D01*
X137636Y129749D01*
X136456Y129749D01*
X134526Y130549D01*
X133049Y132026D01*
X132696Y132876D01*
X132626Y132999D01*
X132559Y133124D01*
X132548Y133136D01*
X132540Y133150D01*
X132441Y133252D01*
X132345Y133356D01*
X132331Y133364D01*
X132320Y133376D01*
X132198Y133450D01*
X132079Y133526D01*
X132064Y133531D01*
X132050Y133539D01*
X131914Y133580D01*
X131779Y133625D01*
X131763Y133626D01*
X131748Y133630D01*
X131606Y133636D01*
X131464Y133645D01*
X131449Y133642D01*
X131432Y133642D01*
X131294Y133612D01*
X131155Y133586D01*
X131140Y133579D01*
X131124Y133575D01*
X130997Y133511D01*
X130869Y133451D01*
X130857Y133440D01*
X130843Y133433D01*
X130736Y133340D01*
X130627Y133248D01*
X130620Y133237D01*
X130606Y133225D01*
X130428Y132964D01*
X130408Y132908D01*
X130388Y132876D01*
X130132Y132257D01*
X129498Y131309D01*
X128691Y130502D01*
X127743Y129868D01*
X126689Y129432D01*
X126249Y129344D01*
X126249Y135000D01*
X126249Y140656D01*
X126689Y140568D01*
X127743Y140132D01*
X128691Y139498D01*
X129498Y138691D01*
X130132Y137743D01*
X130388Y137124D01*
X130459Y137001D01*
X130526Y136876D01*
X130537Y136864D01*
X130545Y136850D01*
X130644Y136748D01*
X130740Y136644D01*
X130754Y136636D01*
X130765Y136624D01*
X130886Y136551D01*
X131006Y136474D01*
X131021Y136469D01*
X131035Y136461D01*
X131170Y136420D01*
X131305Y136375D01*
X131321Y136374D01*
X131337Y136370D01*
X131479Y136364D01*
X131620Y136355D01*
X131636Y136358D01*
X131652Y136358D01*
X131791Y136388D01*
X131930Y136414D01*
X131945Y136421D01*
X131960Y136425D01*
X132087Y136489D01*
X132215Y136549D01*
X132228Y136560D01*
X132242Y136567D01*
X132348Y136661D01*
X132457Y136752D01*
X132464Y136763D01*
X132479Y136775D01*
X132656Y137036D01*
X132676Y137092D01*
X132696Y137124D01*
X133049Y137974D01*
X134526Y139451D01*
X136456Y140251D01*
X138544Y140251D01*
X140474Y139451D01*
X141951Y137974D01*
X142751Y136044D01*
X142751Y134864D01*
X142765Y134755D01*
X142770Y134645D01*
X142784Y134599D01*
X142791Y134551D01*
X142831Y134449D01*
X142864Y134344D01*
X142886Y134313D01*
X142908Y134258D01*
X143094Y134004D01*
X143109Y133991D01*
X143117Y133981D01*
X154160Y122938D01*
X154203Y122904D01*
X154241Y122863D01*
X154327Y122808D01*
X154409Y122745D01*
X154460Y122723D01*
X154506Y122693D01*
X154604Y122661D01*
X154699Y122620D01*
X154753Y122612D01*
X154806Y122594D01*
X154909Y122588D01*
X155011Y122572D01*
X155066Y122578D01*
X155121Y122574D01*
X155222Y122594D01*
X155325Y122604D01*
X155376Y122623D01*
X155431Y122633D01*
X155524Y122678D01*
X155621Y122713D01*
X155666Y122745D01*
X155716Y122768D01*
X155795Y122835D01*
X155880Y122893D01*
X155916Y122935D01*
X155958Y122971D01*
X155993Y123026D01*
X156085Y123133D01*
X156162Y123288D01*
X156197Y123343D01*
X156395Y123821D01*
X157872Y125298D01*
X159802Y126097D01*
X161891Y126097D01*
X163821Y125298D01*
X165298Y123821D01*
X166097Y121891D01*
X166097Y120710D01*
X166111Y120601D01*
X166116Y120491D01*
X166131Y120445D01*
X166137Y120397D01*
X166178Y120295D01*
X166210Y120190D01*
X166232Y120159D01*
X166254Y120104D01*
X166440Y119850D01*
X166455Y119838D01*
X166463Y119827D01*
X174173Y112117D01*
X174260Y112049D01*
X174341Y111976D01*
X174384Y111953D01*
X174423Y111923D01*
X174524Y111880D01*
X174621Y111829D01*
X174658Y111822D01*
X174712Y111799D01*
X175024Y111751D01*
X175043Y111753D01*
X175056Y111751D01*
X211293Y111751D01*
X211348Y111758D01*
X211403Y111756D01*
X211504Y111778D01*
X211606Y111791D01*
X211657Y111811D01*
X211711Y111823D01*
X211803Y111869D01*
X211899Y111908D01*
X211943Y111940D01*
X211993Y111965D01*
X212070Y112033D01*
X212153Y112094D01*
X212188Y112137D01*
X212230Y112173D01*
X212287Y112259D01*
X212353Y112339D01*
X212376Y112389D01*
X212407Y112434D01*
X212441Y112531D01*
X212485Y112625D01*
X212494Y112680D01*
X212513Y112731D01*
X212522Y112834D01*
X212540Y112936D01*
X212536Y112991D01*
X212541Y113046D01*
X212527Y113109D01*
X212517Y113250D01*
X212461Y113414D01*
X212447Y113478D01*
X212249Y113956D01*
X212249Y115136D01*
X212235Y115245D01*
X212230Y115355D01*
X212216Y115401D01*
X212209Y115449D01*
X212169Y115551D01*
X212136Y115656D01*
X212114Y115687D01*
X212092Y115742D01*
X211906Y115996D01*
X211891Y116009D01*
X211883Y116019D01*
X209749Y118153D01*
X209749Y122904D01*
X209735Y123013D01*
X209730Y123123D01*
X209716Y123169D01*
X209709Y123217D01*
X209669Y123319D01*
X209636Y123424D01*
X209614Y123455D01*
X209592Y123510D01*
X209406Y123764D01*
X209391Y123776D01*
X209383Y123787D01*
X208999Y124171D01*
X208999Y145654D01*
X208985Y145763D01*
X208980Y145873D01*
X208966Y145919D01*
X208959Y145967D01*
X208919Y146069D01*
X208886Y146174D01*
X208864Y146205D01*
X208842Y146260D01*
X208656Y146514D01*
X208641Y146526D01*
X208633Y146537D01*
X207999Y147171D01*
X207999Y147500D01*
X207983Y147625D01*
X207974Y147750D01*
X207963Y147781D01*
X207959Y147813D01*
X207913Y147930D01*
X207872Y148049D01*
X207854Y148076D01*
X207842Y148106D01*
X207768Y148207D01*
X207699Y148313D01*
X207675Y148334D01*
X207656Y148360D01*
X207559Y148440D01*
X207465Y148524D01*
X207436Y148539D01*
X207411Y148560D01*
X207297Y148613D01*
X207186Y148671D01*
X207160Y148675D01*
X207125Y148692D01*
X206814Y148748D01*
X206775Y148745D01*
X206750Y148749D01*
X202071Y148749D01*
X201962Y148735D01*
X201852Y148730D01*
X201806Y148716D01*
X201758Y148709D01*
X201656Y148669D01*
X201551Y148636D01*
X201520Y148614D01*
X201465Y148592D01*
X201211Y148406D01*
X201199Y148391D01*
X201188Y148383D01*
X193075Y140271D01*
X193063Y140256D01*
X193048Y140243D01*
X192967Y140131D01*
X192882Y140022D01*
X192875Y140004D01*
X192863Y139988D01*
X192813Y139859D01*
X192758Y139732D01*
X192755Y139712D01*
X192748Y139694D01*
X192731Y139557D01*
X192710Y139420D01*
X192712Y139400D01*
X192710Y139381D01*
X192728Y139244D01*
X192742Y139106D01*
X192748Y139088D01*
X192751Y139068D01*
X192803Y138940D01*
X192851Y138810D01*
X192862Y138794D01*
X192870Y138776D01*
X192952Y138665D01*
X193031Y138551D01*
X193046Y138538D01*
X193058Y138522D01*
X193165Y138435D01*
X193270Y138345D01*
X193288Y138337D01*
X193303Y138324D01*
X193352Y138305D01*
X193554Y138206D01*
X193660Y138184D01*
X193715Y138162D01*
X194189Y138068D01*
X195243Y137632D01*
X196191Y136998D01*
X196998Y136191D01*
X197632Y135243D01*
X198068Y134189D01*
X198156Y133749D01*
X192500Y133749D01*
X192376Y133734D01*
X192250Y133724D01*
X192219Y133714D01*
X192187Y133710D01*
X192071Y133663D01*
X191951Y133622D01*
X191924Y133605D01*
X191894Y133593D01*
X191793Y133518D01*
X191688Y133449D01*
X191687Y133449D01*
X191687Y133448D01*
X191666Y133425D01*
X191640Y133406D01*
X191639Y133405D01*
X191560Y133308D01*
X191475Y133215D01*
X191460Y133186D01*
X191440Y133161D01*
X191387Y133047D01*
X191329Y132935D01*
X191324Y132910D01*
X191308Y132874D01*
X191252Y132564D01*
X191255Y132525D01*
X191251Y132500D01*
X191251Y126844D01*
X190811Y126932D01*
X189757Y127368D01*
X189444Y127577D01*
X189427Y127586D01*
X189411Y127599D01*
X189285Y127657D01*
X189162Y127718D01*
X189143Y127722D01*
X189125Y127730D01*
X188989Y127755D01*
X188853Y127784D01*
X188833Y127783D01*
X188814Y127786D01*
X188677Y127776D01*
X188538Y127770D01*
X188519Y127764D01*
X188500Y127763D01*
X188368Y127718D01*
X188236Y127677D01*
X188220Y127667D01*
X188201Y127661D01*
X188085Y127585D01*
X187967Y127512D01*
X187954Y127498D01*
X187937Y127488D01*
X187844Y127385D01*
X187748Y127285D01*
X187739Y127268D01*
X187726Y127254D01*
X187661Y127131D01*
X187593Y127011D01*
X187588Y126992D01*
X187579Y126974D01*
X187570Y126923D01*
X187512Y126706D01*
X187511Y126597D01*
X187501Y126539D01*
X187501Y125671D01*
X186329Y124499D01*
X178671Y124499D01*
X178383Y124787D01*
X178284Y124864D01*
X178188Y124946D01*
X178159Y124961D01*
X178134Y124980D01*
X178018Y125030D01*
X177905Y125086D01*
X177874Y125092D01*
X177844Y125105D01*
X177719Y125124D01*
X177596Y125149D01*
X177564Y125148D01*
X177532Y125153D01*
X177407Y125140D01*
X177281Y125134D01*
X177250Y125124D01*
X177218Y125121D01*
X177100Y125077D01*
X176980Y125040D01*
X176959Y125025D01*
X176922Y125011D01*
X176663Y124831D01*
X176638Y124802D01*
X176617Y124787D01*
X176329Y124499D01*
X168671Y124499D01*
X167499Y125671D01*
X167499Y134329D01*
X168883Y135713D01*
X168951Y135800D01*
X169024Y135881D01*
X169047Y135924D01*
X169077Y135962D01*
X169120Y136063D01*
X169171Y136161D01*
X169178Y136198D01*
X169201Y136252D01*
X169249Y136564D01*
X169247Y136583D01*
X169249Y136596D01*
X169249Y138847D01*
X169383Y138981D01*
X169451Y139067D01*
X169524Y139149D01*
X169547Y139192D01*
X169577Y139230D01*
X169620Y139331D01*
X169671Y139428D01*
X169678Y139465D01*
X169701Y139520D01*
X169749Y139832D01*
X169747Y139851D01*
X169749Y139864D01*
X169749Y141044D01*
X170568Y143022D01*
X170583Y143075D01*
X170606Y143125D01*
X170624Y143227D01*
X170651Y143326D01*
X170652Y143382D01*
X170662Y143436D01*
X170654Y143539D01*
X170655Y143642D01*
X170642Y143695D01*
X170638Y143750D01*
X170605Y143848D01*
X170580Y143948D01*
X170554Y143997D01*
X170536Y144049D01*
X170480Y144135D01*
X170431Y144226D01*
X170393Y144267D01*
X170363Y144313D01*
X170287Y144382D01*
X170217Y144458D01*
X170170Y144487D01*
X170129Y144524D01*
X170038Y144572D01*
X169951Y144628D01*
X169899Y144645D01*
X169850Y144671D01*
X169786Y144682D01*
X169651Y144727D01*
X169479Y144738D01*
X169414Y144749D01*
X168956Y144749D01*
X167026Y145549D01*
X166191Y146383D01*
X166104Y146451D01*
X166023Y146524D01*
X165980Y146547D01*
X165941Y146577D01*
X165840Y146620D01*
X165743Y146671D01*
X165706Y146678D01*
X165652Y146701D01*
X165340Y146749D01*
X165321Y146747D01*
X165308Y146749D01*
X163750Y146749D01*
X163625Y146733D01*
X163500Y146724D01*
X163469Y146713D01*
X163437Y146709D01*
X163320Y146663D01*
X163201Y146622D01*
X163174Y146604D01*
X163144Y146592D01*
X163043Y146518D01*
X162937Y146449D01*
X162916Y146425D01*
X162890Y146406D01*
X162810Y146308D01*
X162726Y146215D01*
X162711Y146186D01*
X162690Y146161D01*
X162637Y146047D01*
X162579Y145936D01*
X162575Y145910D01*
X162558Y145875D01*
X162526Y145697D01*
X161329Y144499D01*
X153671Y144499D01*
X153383Y144787D01*
X153284Y144864D01*
X153188Y144946D01*
X153159Y144961D01*
X153134Y144980D01*
X153018Y145030D01*
X152905Y145086D01*
X152874Y145092D01*
X152844Y145105D01*
X152719Y145124D01*
X152596Y145149D01*
X152564Y145148D01*
X152532Y145153D01*
X152407Y145140D01*
X152281Y145134D01*
X152250Y145124D01*
X152218Y145121D01*
X152100Y145077D01*
X151980Y145040D01*
X151959Y145025D01*
X151922Y145011D01*
X151663Y144831D01*
X151638Y144802D01*
X151617Y144787D01*
X151329Y144499D01*
X143671Y144499D01*
X142431Y145739D01*
X142332Y145816D01*
X142236Y145898D01*
X142207Y145912D01*
X142182Y145932D01*
X142066Y145982D01*
X141953Y146037D01*
X141922Y146044D01*
X141892Y146057D01*
X141767Y146076D01*
X141644Y146101D01*
X141612Y146100D01*
X141580Y146105D01*
X141455Y146092D01*
X141329Y146086D01*
X141298Y146076D01*
X141266Y146073D01*
X141148Y146029D01*
X141028Y145992D01*
X141007Y145977D01*
X140970Y145963D01*
X140711Y145783D01*
X140686Y145754D01*
X140665Y145739D01*
X140474Y145549D01*
X138544Y144749D01*
X136456Y144749D01*
X134526Y145549D01*
X133049Y147026D01*
X132249Y148956D01*
X132249Y151044D01*
X133049Y152974D01*
X134526Y154451D01*
X136456Y155251D01*
X138544Y155251D01*
X140474Y154451D01*
X140665Y154261D01*
X140764Y154184D01*
X140860Y154102D01*
X140889Y154088D01*
X140914Y154068D01*
X141030Y154018D01*
X141143Y153963D01*
X141174Y153956D01*
X141204Y153943D01*
X141329Y153924D01*
X141452Y153899D01*
X141484Y153900D01*
X141516Y153895D01*
X141641Y153908D01*
X141767Y153914D01*
X141798Y153924D01*
X141830Y153927D01*
X141948Y153971D01*
X142068Y154008D01*
X142089Y154023D01*
X142126Y154037D01*
X142385Y154217D01*
X142410Y154246D01*
X142431Y154261D01*
X143537Y155367D01*
X143614Y155466D01*
X143696Y155562D01*
X143711Y155591D01*
X143730Y155616D01*
X143780Y155732D01*
X143836Y155845D01*
X143842Y155876D01*
X143855Y155906D01*
X143874Y156031D01*
X143899Y156154D01*
X143898Y156186D01*
X143903Y156218D01*
X143890Y156343D01*
X143884Y156469D01*
X143874Y156500D01*
X143871Y156532D01*
X143827Y156650D01*
X143790Y156770D01*
X143775Y156791D01*
X143761Y156828D01*
X143581Y157087D01*
X143552Y157112D01*
X143537Y157133D01*
X142478Y158192D01*
X142474Y158250D01*
X142463Y158281D01*
X142459Y158313D01*
X142413Y158430D01*
X142372Y158549D01*
X142354Y158576D01*
X142342Y158606D01*
X142268Y158707D01*
X142199Y158813D01*
X142175Y158834D01*
X142156Y158860D01*
X142058Y158940D01*
X141965Y159024D01*
X141936Y159039D01*
X141911Y159060D01*
X141797Y159113D01*
X141686Y159171D01*
X141660Y159175D01*
X141625Y159192D01*
X141314Y159248D01*
X141275Y159245D01*
X141250Y159249D01*
X131153Y159249D01*
X124249Y166153D01*
X124249Y170308D01*
X124235Y170417D01*
X124230Y170526D01*
X124216Y170573D01*
X124209Y170621D01*
X124169Y170723D01*
X124136Y170828D01*
X124114Y170858D01*
X124092Y170914D01*
X123906Y171168D01*
X123891Y171180D01*
X123883Y171191D01*
X123049Y172026D01*
X122249Y173956D01*
X122249Y176044D01*
X123049Y177974D01*
X124526Y179451D01*
X126456Y180251D01*
X128587Y180251D01*
X128627Y180236D01*
X128678Y180231D01*
X128728Y180218D01*
X128834Y180216D01*
X128941Y180206D01*
X128992Y180214D01*
X129044Y180214D01*
X129147Y180239D01*
X129252Y180256D01*
X129300Y180276D01*
X129350Y180289D01*
X129444Y180339D01*
X129542Y180382D01*
X129582Y180414D01*
X129628Y180438D01*
X129706Y180511D01*
X129790Y180576D01*
X129821Y180617D01*
X129859Y180652D01*
X129917Y180742D01*
X129982Y180827D01*
X130002Y180874D01*
X130030Y180918D01*
X130063Y181019D01*
X130105Y181117D01*
X130112Y181169D01*
X130128Y181218D01*
X130135Y181324D01*
X130151Y181430D01*
X130145Y181481D01*
X130149Y181533D01*
X130129Y181637D01*
X130117Y181743D01*
X130101Y181780D01*
X130089Y181842D01*
X129955Y182128D01*
X129945Y182139D01*
X129941Y182149D01*
X129868Y182257D01*
X129432Y183311D01*
X129344Y183751D01*
X135000Y183751D01*
X140656Y183751D01*
X140568Y183311D01*
X140132Y182257D01*
X139583Y181436D01*
X139543Y181355D01*
X139494Y181279D01*
X139473Y181215D01*
X139443Y181154D01*
X139424Y181065D01*
X139395Y180979D01*
X139391Y180912D01*
X139377Y180845D01*
X139381Y180755D01*
X139375Y180664D01*
X139388Y180598D01*
X139391Y180530D01*
X139417Y180443D01*
X139434Y180355D01*
X139463Y180293D01*
X139483Y180229D01*
X139531Y180151D01*
X139569Y180069D01*
X139613Y180017D01*
X139648Y179960D01*
X139714Y179897D01*
X139772Y179827D01*
X139814Y179800D01*
X139876Y179741D01*
X140132Y179596D01*
X140144Y179588D01*
X140474Y179451D01*
X140665Y179261D01*
X140764Y179184D01*
X140860Y179102D01*
X140889Y179088D01*
X140914Y179068D01*
X141030Y179018D01*
X141143Y178963D01*
X141174Y178956D01*
X141204Y178943D01*
X141329Y178924D01*
X141452Y178899D01*
X141484Y178900D01*
X141516Y178895D01*
X141641Y178908D01*
X141767Y178914D01*
X141798Y178924D01*
X141830Y178927D01*
X141948Y178971D01*
X142068Y179008D01*
X142089Y179023D01*
X142126Y179037D01*
X142385Y179217D01*
X142410Y179246D01*
X142431Y179261D01*
X143671Y180501D01*
X151329Y180501D01*
X151617Y180213D01*
X151716Y180136D01*
X151812Y180054D01*
X151841Y180039D01*
X151866Y180020D01*
X151982Y179970D01*
X152095Y179914D01*
X152126Y179908D01*
X152156Y179895D01*
X152281Y179876D01*
X152404Y179851D01*
X152436Y179852D01*
X152468Y179847D01*
X152593Y179860D01*
X152719Y179866D01*
X152750Y179876D01*
X152782Y179879D01*
X152900Y179923D01*
X153020Y179960D01*
X153041Y179975D01*
X153078Y179989D01*
X153337Y180169D01*
X153362Y180198D01*
X153383Y180213D01*
X153671Y180501D01*
X161329Y180501D01*
X162522Y179308D01*
X162526Y179250D01*
X162537Y179219D01*
X162541Y179187D01*
X162587Y179070D01*
X162628Y178951D01*
X162646Y178924D01*
X162658Y178894D01*
X162732Y178793D01*
X162801Y178687D01*
X162825Y178666D01*
X162844Y178640D01*
X162942Y178560D01*
X163035Y178476D01*
X163064Y178461D01*
X163089Y178440D01*
X163203Y178387D01*
X163314Y178329D01*
X163340Y178325D01*
X163375Y178308D01*
X163686Y178252D01*
X163725Y178255D01*
X163750Y178251D01*
X165308Y178251D01*
X165417Y178265D01*
X165526Y178270D01*
X165573Y178284D01*
X165621Y178291D01*
X165723Y178331D01*
X165828Y178364D01*
X165858Y178386D01*
X165914Y178408D01*
X166168Y178594D01*
X166180Y178609D01*
X166191Y178617D01*
X167026Y179451D01*
X168956Y180251D01*
X171044Y180251D01*
X172974Y179451D01*
X174451Y177974D01*
X175251Y176044D01*
X175251Y173956D01*
X174451Y172026D01*
X172974Y170549D01*
X171418Y169904D01*
X171296Y169834D01*
X171170Y169767D01*
X171158Y169755D01*
X171144Y169748D01*
X171043Y169649D01*
X170939Y169552D01*
X170930Y169539D01*
X170919Y169527D01*
X170845Y169406D01*
X170768Y169287D01*
X170763Y169271D01*
X170755Y169258D01*
X170714Y169121D01*
X170670Y168987D01*
X170669Y168971D01*
X170664Y168955D01*
X170659Y168814D01*
X170650Y168672D01*
X170653Y168656D01*
X170652Y168640D01*
X170682Y168501D01*
X170709Y168362D01*
X170716Y168348D01*
X170719Y168332D01*
X170783Y168205D01*
X170844Y168077D01*
X170854Y168065D01*
X170862Y168050D01*
X170955Y167944D01*
X171046Y167835D01*
X171057Y167828D01*
X171070Y167813D01*
X171331Y167636D01*
X171387Y167616D01*
X171418Y167596D01*
X172974Y166951D01*
X174451Y165474D01*
X175251Y163544D01*
X175251Y161456D01*
X174451Y159526D01*
X172974Y158049D01*
X171418Y157404D01*
X171295Y157334D01*
X171170Y157267D01*
X171159Y157256D01*
X171144Y157248D01*
X171043Y157149D01*
X170939Y157052D01*
X170930Y157039D01*
X170919Y157027D01*
X170845Y156907D01*
X170768Y156787D01*
X170763Y156771D01*
X170755Y156758D01*
X170714Y156622D01*
X170670Y156487D01*
X170669Y156471D01*
X170664Y156455D01*
X170659Y156314D01*
X170650Y156172D01*
X170653Y156156D01*
X170652Y156140D01*
X170682Y156001D01*
X170709Y155862D01*
X170716Y155848D01*
X170719Y155832D01*
X170784Y155705D01*
X170844Y155577D01*
X170854Y155565D01*
X170862Y155550D01*
X170955Y155444D01*
X171046Y155335D01*
X171057Y155328D01*
X171070Y155313D01*
X171331Y155136D01*
X171387Y155116D01*
X171418Y155096D01*
X172974Y154451D01*
X173713Y153713D01*
X173812Y153636D01*
X173908Y153554D01*
X173937Y153539D01*
X173962Y153520D01*
X174078Y153470D01*
X174191Y153414D01*
X174223Y153408D01*
X174252Y153395D01*
X174377Y153376D01*
X174500Y153351D01*
X174532Y153352D01*
X174564Y153347D01*
X174689Y153360D01*
X174815Y153366D01*
X174846Y153376D01*
X174878Y153379D01*
X174996Y153423D01*
X175116Y153460D01*
X175137Y153475D01*
X175174Y153488D01*
X175433Y153669D01*
X175458Y153698D01*
X175480Y153713D01*
X175976Y154209D01*
X177906Y155008D01*
X179994Y155008D01*
X181924Y154209D01*
X183401Y152732D01*
X184201Y150802D01*
X184201Y150329D01*
X184215Y150220D01*
X184220Y150110D01*
X184234Y150064D01*
X184241Y150016D01*
X184281Y149914D01*
X184314Y149809D01*
X184336Y149778D01*
X184358Y149723D01*
X184544Y149468D01*
X184559Y149456D01*
X184567Y149445D01*
X187220Y146791D01*
X187320Y146714D01*
X187415Y146632D01*
X187444Y146618D01*
X187470Y146598D01*
X187586Y146549D01*
X187699Y146493D01*
X187730Y146487D01*
X187760Y146474D01*
X187884Y146455D01*
X188008Y146429D01*
X188040Y146431D01*
X188072Y146426D01*
X188197Y146439D01*
X188323Y146445D01*
X188353Y146455D01*
X188386Y146458D01*
X188504Y146501D01*
X188624Y146539D01*
X188645Y146554D01*
X188681Y146567D01*
X188941Y146747D01*
X188966Y146777D01*
X188987Y146791D01*
X198446Y156251D01*
X206750Y156251D01*
X206875Y156267D01*
X207000Y156276D01*
X207031Y156287D01*
X207063Y156291D01*
X207180Y156337D01*
X207299Y156378D01*
X207326Y156396D01*
X207356Y156408D01*
X207457Y156482D01*
X207563Y156551D01*
X207584Y156575D01*
X207610Y156594D01*
X207690Y156692D01*
X207774Y156785D01*
X207789Y156814D01*
X207810Y156839D01*
X207863Y156953D01*
X207921Y157064D01*
X207925Y157090D01*
X207942Y157125D01*
X207998Y157436D01*
X207995Y157475D01*
X207999Y157500D01*
X207999Y157829D01*
X209073Y158903D01*
X209141Y158990D01*
X209214Y159071D01*
X209237Y159114D01*
X209267Y159152D01*
X209310Y159253D01*
X209361Y159351D01*
X209368Y159388D01*
X209391Y159442D01*
X209439Y159754D01*
X209437Y159773D01*
X209439Y159786D01*
X209439Y180864D01*
X209425Y180973D01*
X209420Y181083D01*
X209406Y181129D01*
X209399Y181177D01*
X209359Y181279D01*
X209326Y181384D01*
X209304Y181415D01*
X209282Y181470D01*
X209096Y181724D01*
X209081Y181736D01*
X209073Y181747D01*
X207923Y182897D01*
X207811Y182984D01*
X207701Y183074D01*
X207687Y183080D01*
X207674Y183090D01*
X207543Y183146D01*
X207415Y183206D01*
X207399Y183208D01*
X207384Y183215D01*
X207243Y183236D01*
X207104Y183261D01*
X207088Y183260D01*
X207072Y183263D01*
X206931Y183248D01*
X206790Y183238D01*
X206774Y183233D01*
X206758Y183231D01*
X206625Y183182D01*
X206491Y183136D01*
X206477Y183127D01*
X206462Y183122D01*
X206346Y183041D01*
X206227Y182963D01*
X206216Y182951D01*
X206203Y182941D01*
X206111Y182834D01*
X206016Y182729D01*
X206008Y182714D01*
X205998Y182702D01*
X205935Y182575D01*
X205869Y182449D01*
X205867Y182436D01*
X205858Y182419D01*
X205794Y182110D01*
X205797Y182051D01*
X205791Y182014D01*
X205791Y181930D01*
X205568Y180811D01*
X205132Y179757D01*
X204498Y178809D01*
X203691Y178002D01*
X202743Y177368D01*
X201689Y176932D01*
X201249Y176844D01*
X201249Y182500D01*
X201249Y188156D01*
X201689Y188068D01*
X202743Y187632D01*
X203691Y186998D01*
X204498Y186191D01*
X205132Y185243D01*
X205536Y184267D01*
X205571Y184205D01*
X205598Y184139D01*
X205649Y184069D01*
X205692Y183993D01*
X205742Y183942D01*
X205784Y183885D01*
X205852Y183830D01*
X205913Y183767D01*
X205974Y183730D01*
X206029Y183685D01*
X206108Y183649D01*
X206182Y183604D01*
X206251Y183583D01*
X206315Y183553D01*
X206401Y183538D01*
X206485Y183513D01*
X206556Y183510D01*
X206626Y183498D01*
X206713Y183504D01*
X206800Y183501D01*
X206869Y183516D01*
X206940Y183521D01*
X207023Y183549D01*
X207108Y183568D01*
X207172Y183600D01*
X207239Y183623D01*
X207312Y183671D01*
X207390Y183710D01*
X207443Y183757D01*
X207503Y183796D01*
X207561Y183861D01*
X207627Y183919D01*
X207667Y183977D01*
X207714Y184030D01*
X207755Y184107D01*
X207804Y184180D01*
X207828Y184247D01*
X207861Y184310D01*
X207872Y184369D01*
X207910Y184477D01*
X207929Y184690D01*
X207939Y184745D01*
X207939Y188039D01*
X209247Y189347D01*
X209324Y189446D01*
X209406Y189542D01*
X209421Y189571D01*
X209440Y189596D01*
X209490Y189712D01*
X209546Y189825D01*
X209552Y189856D01*
X209565Y189886D01*
X209584Y190011D01*
X209609Y190134D01*
X209608Y190166D01*
X209613Y190198D01*
X209600Y190323D01*
X209594Y190449D01*
X209584Y190480D01*
X209581Y190512D01*
X209537Y190630D01*
X209500Y190750D01*
X209485Y190771D01*
X209471Y190808D01*
X209291Y191067D01*
X209262Y191092D01*
X209247Y191113D01*
X207939Y192421D01*
X207939Y197579D01*
X209247Y198887D01*
X209324Y198986D01*
X209406Y199082D01*
X209421Y199111D01*
X209440Y199136D01*
X209490Y199252D01*
X209546Y199365D01*
X209552Y199396D01*
X209565Y199426D01*
X209584Y199551D01*
X209609Y199674D01*
X209608Y199706D01*
X209613Y199738D01*
X209600Y199863D01*
X209594Y199989D01*
X209584Y200020D01*
X209581Y200052D01*
X209537Y200170D01*
X209500Y200290D01*
X209485Y200311D01*
X209471Y200348D01*
X209291Y200607D01*
X209262Y200632D01*
X209247Y200653D01*
X207939Y201961D01*
X207939Y204210D01*
X207923Y204335D01*
X207914Y204460D01*
X207903Y204491D01*
X207899Y204523D01*
X207853Y204640D01*
X207812Y204759D01*
X207794Y204786D01*
X207782Y204816D01*
X207708Y204917D01*
X207639Y205023D01*
X207615Y205044D01*
X207596Y205070D01*
X207498Y205150D01*
X207405Y205234D01*
X207376Y205249D01*
X207351Y205270D01*
X207237Y205323D01*
X207126Y205381D01*
X207100Y205385D01*
X207065Y205402D01*
X206754Y205458D01*
X206715Y205455D01*
X206690Y205459D01*
X202763Y205459D01*
X202623Y205441D01*
X202481Y205427D01*
X202466Y205421D01*
X202450Y205419D01*
X202318Y205367D01*
X202185Y205318D01*
X202172Y205308D01*
X202157Y205302D01*
X202042Y205218D01*
X201926Y205138D01*
X201916Y205125D01*
X201903Y205116D01*
X201813Y205006D01*
X201721Y204898D01*
X201713Y204884D01*
X201703Y204871D01*
X201644Y204743D01*
X201581Y204615D01*
X201578Y204599D01*
X201571Y204585D01*
X201546Y204445D01*
X201517Y204306D01*
X201518Y204290D01*
X201515Y204274D01*
X201526Y204133D01*
X201533Y203991D01*
X201538Y203976D01*
X201539Y203960D01*
X201585Y203825D01*
X201627Y203690D01*
X201635Y203679D01*
X201641Y203661D01*
X201814Y203397D01*
X201858Y203357D01*
X201880Y203327D01*
X202152Y203054D01*
X202951Y201124D01*
X202951Y199036D01*
X202152Y197106D01*
X200675Y195629D01*
X198745Y194829D01*
X196656Y194829D01*
X194726Y195629D01*
X193912Y196443D01*
X193825Y196511D01*
X193743Y196584D01*
X193700Y196607D01*
X193662Y196637D01*
X193561Y196680D01*
X193464Y196731D01*
X193427Y196738D01*
X193372Y196761D01*
X193060Y196809D01*
X193041Y196807D01*
X193028Y196809D01*
X182832Y196809D01*
X182723Y196795D01*
X182614Y196790D01*
X182567Y196776D01*
X182519Y196769D01*
X182417Y196729D01*
X182312Y196696D01*
X182282Y196674D01*
X182226Y196652D01*
X181972Y196466D01*
X181960Y196451D01*
X181949Y196443D01*
X180474Y194969D01*
X178544Y194169D01*
X176456Y194169D01*
X174526Y194969D01*
X173049Y196446D01*
X172249Y198376D01*
X172249Y200464D01*
X172447Y200942D01*
X172462Y200995D01*
X172485Y201045D01*
X172503Y201147D01*
X172530Y201246D01*
X172531Y201302D01*
X172541Y201356D01*
X172533Y201459D01*
X172534Y201562D01*
X172521Y201615D01*
X172517Y201670D01*
X172484Y201768D01*
X172459Y201868D01*
X172433Y201917D01*
X172415Y201969D01*
X172358Y202055D01*
X172310Y202146D01*
X172272Y202187D01*
X172242Y202233D01*
X172165Y202302D01*
X172095Y202378D01*
X172049Y202407D01*
X172008Y202444D01*
X171916Y202492D01*
X171830Y202548D01*
X171777Y202565D01*
X171728Y202591D01*
X171664Y202602D01*
X171530Y202647D01*
X171357Y202658D01*
X171293Y202669D01*
X164892Y202669D01*
X157468Y210093D01*
X157382Y210161D01*
X157300Y210234D01*
X157257Y210257D01*
X157219Y210287D01*
X157118Y210330D01*
X157020Y210381D01*
X156984Y210388D01*
X156929Y210411D01*
X156617Y210459D01*
X156598Y210457D01*
X156585Y210459D01*
X133410Y210459D01*
X133301Y210445D01*
X133192Y210440D01*
X133145Y210426D01*
X133097Y210419D01*
X132995Y210379D01*
X132890Y210346D01*
X132860Y210324D01*
X132804Y210302D01*
X132550Y210116D01*
X132538Y210101D01*
X132527Y210093D01*
X131431Y208997D01*
X128828Y207919D01*
X126012Y207919D01*
X123409Y208997D01*
X122633Y209773D01*
X122521Y209860D01*
X122411Y209949D01*
X122397Y209956D01*
X122384Y209966D01*
X122254Y210022D01*
X122125Y210081D01*
X122109Y210084D01*
X122094Y210091D01*
X121953Y210112D01*
X121814Y210137D01*
X121798Y210136D01*
X121782Y210138D01*
X121641Y210124D01*
X121500Y210114D01*
X121484Y210108D01*
X121468Y210107D01*
X121336Y210058D01*
X121201Y210012D01*
X121187Y210003D01*
X121172Y209997D01*
X121056Y209917D01*
X120937Y209838D01*
X120926Y209826D01*
X120913Y209817D01*
X120821Y209710D01*
X120726Y209605D01*
X120718Y209590D01*
X120708Y209578D01*
X120645Y209451D01*
X120579Y209325D01*
X120577Y209312D01*
X120568Y209295D01*
X120504Y208986D01*
X120507Y208927D01*
X120501Y208890D01*
X120501Y201171D01*
X119261Y199931D01*
X119184Y199832D01*
X119102Y199736D01*
X119088Y199707D01*
X119068Y199682D01*
X119018Y199566D01*
X118963Y199453D01*
X118956Y199422D01*
X118943Y199392D01*
X118924Y199267D01*
X118899Y199144D01*
X118900Y199112D01*
X118895Y199080D01*
X118908Y198955D01*
X118914Y198829D01*
X118924Y198798D01*
X118927Y198766D01*
X118971Y198648D01*
X119008Y198528D01*
X119023Y198507D01*
X119037Y198470D01*
X119217Y198211D01*
X119246Y198186D01*
X119261Y198165D01*
X119451Y197974D01*
X120251Y196044D01*
X120251Y193956D01*
X119451Y192026D01*
X117974Y190549D01*
X116014Y189737D01*
X115952Y189727D01*
X115815Y189709D01*
X115797Y189702D01*
X115778Y189699D01*
X115651Y189644D01*
X115522Y189592D01*
X115506Y189581D01*
X115489Y189573D01*
X115380Y189488D01*
X115268Y189406D01*
X115256Y189391D01*
X115240Y189379D01*
X115156Y189269D01*
X115068Y189161D01*
X115060Y189144D01*
X115048Y189128D01*
X114995Y189001D01*
X114937Y188875D01*
X114933Y188855D01*
X114925Y188837D01*
X114905Y188700D01*
X114881Y188564D01*
X114882Y188545D01*
X114879Y188525D01*
X114894Y188388D01*
X114904Y188250D01*
X114911Y188231D01*
X114913Y188212D01*
X114934Y188164D01*
X115006Y187951D01*
X115066Y187860D01*
X115090Y187806D01*
X115132Y187743D01*
X115568Y186689D01*
X115656Y186249D01*
X110000Y186249D01*
X104344Y186249D01*
X104432Y186689D01*
X104868Y187743D01*
X105502Y188691D01*
X106309Y189498D01*
X107257Y190132D01*
X108311Y190568D01*
X109443Y190793D01*
X109529Y190822D01*
X109617Y190841D01*
X109678Y190872D01*
X109742Y190894D01*
X109818Y190943D01*
X109899Y190984D01*
X109950Y191029D01*
X110007Y191065D01*
X110068Y191132D01*
X110136Y191192D01*
X110174Y191248D01*
X110220Y191298D01*
X110262Y191378D01*
X110313Y191453D01*
X110336Y191517D01*
X110368Y191577D01*
X110389Y191665D01*
X110419Y191750D01*
X110426Y191818D01*
X110441Y191884D01*
X110440Y191974D01*
X110448Y192064D01*
X110437Y192113D01*
X110436Y192199D01*
X110357Y192482D01*
X110354Y192497D01*
X109749Y193956D01*
X109749Y196044D01*
X110549Y197974D01*
X110739Y198165D01*
X110816Y198264D01*
X110898Y198360D01*
X110912Y198389D01*
X110932Y198414D01*
X110982Y198530D01*
X111037Y198643D01*
X111044Y198675D01*
X111057Y198704D01*
X111076Y198829D01*
X111101Y198952D01*
X111100Y198984D01*
X111105Y199016D01*
X111092Y199141D01*
X111086Y199267D01*
X111076Y199298D01*
X111073Y199330D01*
X111029Y199448D01*
X110992Y199568D01*
X110977Y199589D01*
X110963Y199626D01*
X110783Y199885D01*
X110754Y199910D01*
X110739Y199931D01*
X110302Y200369D01*
X110299Y200371D01*
X110297Y200374D01*
X110175Y200467D01*
X110052Y200562D01*
X110049Y200563D01*
X110046Y200565D01*
X109905Y200625D01*
X109762Y200686D01*
X109759Y200687D01*
X109756Y200688D01*
X109604Y200711D01*
X109450Y200734D01*
X109447Y200734D01*
X109444Y200734D01*
X109291Y200718D01*
X109137Y200702D01*
X109133Y200701D01*
X109130Y200701D01*
X109117Y200695D01*
X108841Y200593D01*
X108770Y200544D01*
X108724Y200524D01*
X107743Y199868D01*
X106689Y199432D01*
X106249Y199344D01*
X106249Y205000D01*
X106234Y205124D01*
X106224Y205250D01*
X106214Y205281D01*
X106210Y205313D01*
X106163Y205429D01*
X106122Y205549D01*
X106105Y205576D01*
X106093Y205606D01*
X106018Y205707D01*
X105949Y205812D01*
X105925Y205834D01*
X105906Y205860D01*
X105809Y205940D01*
X105715Y206024D01*
X105686Y206039D01*
X105661Y206060D01*
X105547Y206112D01*
X105436Y206171D01*
X105410Y206175D01*
X105375Y206191D01*
X105064Y206247D01*
X105025Y206244D01*
X105000Y206249D01*
X104875Y206233D01*
X104749Y206224D01*
X104719Y206213D01*
X104687Y206209D01*
X104570Y206162D01*
X104451Y206122D01*
X104424Y206104D01*
X104394Y206092D01*
X104292Y206018D01*
X104187Y205948D01*
X104165Y205925D01*
X104139Y205905D01*
X104060Y205808D01*
X103975Y205715D01*
X103960Y205686D01*
X103940Y205661D01*
X103887Y205547D01*
X103829Y205435D01*
X103824Y205410D01*
X103808Y205374D01*
X103752Y205064D01*
X103755Y205025D01*
X103751Y205000D01*
X103751Y199344D01*
X103311Y199432D01*
X102257Y199868D01*
X101309Y200502D01*
X100633Y201177D01*
X100521Y201264D01*
X100411Y201354D01*
X100397Y201361D01*
X100384Y201370D01*
X100254Y201426D01*
X100125Y201486D01*
X100109Y201489D01*
X100094Y201495D01*
X99953Y201517D01*
X99814Y201542D01*
X99798Y201540D01*
X99782Y201543D01*
X99641Y201529D01*
X99500Y201518D01*
X99484Y201513D01*
X99468Y201511D01*
X99336Y201462D01*
X99201Y201416D01*
X99187Y201407D01*
X99172Y201402D01*
X99056Y201321D01*
X98937Y201243D01*
X98926Y201231D01*
X98913Y201222D01*
X98821Y201114D01*
X98726Y201009D01*
X98718Y200995D01*
X98708Y200982D01*
X98645Y200855D01*
X98579Y200729D01*
X98577Y200717D01*
X98568Y200699D01*
X98504Y200390D01*
X98507Y200331D01*
X98501Y200294D01*
X98501Y196942D01*
X98515Y196833D01*
X98520Y196724D01*
X98534Y196677D01*
X98541Y196629D01*
X98581Y196527D01*
X98614Y196422D01*
X98636Y196392D01*
X98658Y196336D01*
X98844Y196082D01*
X98859Y196070D01*
X98867Y196059D01*
X99451Y195474D01*
X100251Y193544D01*
X100251Y191456D01*
X99436Y189488D01*
X99434Y189486D01*
X99352Y189390D01*
X99338Y189361D01*
X99318Y189336D01*
X99268Y189220D01*
X99213Y189107D01*
X99206Y189076D01*
X99193Y189046D01*
X99174Y188922D01*
X99149Y188798D01*
X99150Y188766D01*
X99145Y188734D01*
X99158Y188609D01*
X99164Y188483D01*
X99174Y188452D01*
X99177Y188420D01*
X99221Y188302D01*
X99258Y188182D01*
X99273Y188161D01*
X99287Y188124D01*
X99467Y187865D01*
X99496Y187840D01*
X99501Y187833D01*
X99501Y177171D01*
X98117Y175787D01*
X98049Y175700D01*
X97976Y175619D01*
X97953Y175576D01*
X97940Y175560D01*
X97939Y175558D01*
X97924Y175538D01*
X97880Y175437D01*
X97829Y175339D01*
X97823Y175306D01*
X97808Y175273D01*
X97807Y175266D01*
X97799Y175248D01*
X97772Y175073D01*
X97752Y174963D01*
X97753Y174950D01*
X97751Y174936D01*
X97753Y174917D01*
X97751Y174904D01*
X97751Y144571D01*
X97765Y144462D01*
X97770Y144352D01*
X97784Y144306D01*
X97791Y144258D01*
X97831Y144156D01*
X97864Y144051D01*
X97886Y144020D01*
X97908Y143965D01*
X98094Y143711D01*
X98109Y143699D01*
X98117Y143688D01*
X140188Y101617D01*
X140274Y101549D01*
X140356Y101476D01*
X140399Y101453D01*
X140437Y101423D01*
X140538Y101380D01*
X140636Y101329D01*
X140672Y101322D01*
X140727Y101299D01*
X141039Y101251D01*
X141058Y101253D01*
X141071Y101251D01*
X163636Y101251D01*
X163776Y101269D01*
G37*
G36*
X272625Y101267D02*
X272625Y101267D01*
X272750Y101276D01*
X272781Y101287D01*
X272813Y101291D01*
X272930Y101337D01*
X273049Y101378D01*
X273076Y101396D01*
X273106Y101408D01*
X273207Y101482D01*
X273313Y101551D01*
X273334Y101575D01*
X273360Y101594D01*
X273440Y101692D01*
X273524Y101785D01*
X273539Y101814D01*
X273560Y101839D01*
X273613Y101953D01*
X273671Y102064D01*
X273675Y102090D01*
X273692Y102125D01*
X273748Y102436D01*
X273745Y102475D01*
X273749Y102500D01*
X273749Y152250D01*
X273733Y152375D01*
X273724Y152500D01*
X273713Y152531D01*
X273709Y152563D01*
X273663Y152680D01*
X273622Y152799D01*
X273604Y152826D01*
X273592Y152856D01*
X273518Y152957D01*
X273449Y153063D01*
X273425Y153084D01*
X273406Y153110D01*
X273308Y153190D01*
X273215Y153274D01*
X273186Y153289D01*
X273161Y153310D01*
X273047Y153363D01*
X272936Y153421D01*
X272910Y153425D01*
X272875Y153442D01*
X272564Y153498D01*
X272525Y153495D01*
X272500Y153499D01*
X267671Y153499D01*
X266499Y154671D01*
X266499Y158500D01*
X266483Y158625D01*
X266474Y158750D01*
X266463Y158781D01*
X266459Y158813D01*
X266413Y158930D01*
X266372Y159049D01*
X266354Y159076D01*
X266342Y159106D01*
X266268Y159207D01*
X266199Y159313D01*
X266175Y159334D01*
X266156Y159360D01*
X266058Y159440D01*
X265965Y159524D01*
X265936Y159539D01*
X265911Y159560D01*
X265797Y159613D01*
X265686Y159671D01*
X265660Y159675D01*
X265625Y159692D01*
X265314Y159748D01*
X265275Y159745D01*
X265250Y159749D01*
X233510Y159749D01*
X233374Y159732D01*
X233238Y159719D01*
X233218Y159712D01*
X233197Y159709D01*
X233070Y159659D01*
X232941Y159612D01*
X232924Y159600D01*
X232904Y159592D01*
X232794Y159511D01*
X232681Y159434D01*
X232667Y159418D01*
X232650Y159406D01*
X232563Y159300D01*
X232473Y159197D01*
X232464Y159178D01*
X232450Y159161D01*
X232393Y159037D01*
X232332Y158915D01*
X232327Y158894D01*
X232319Y158875D01*
X232294Y158740D01*
X232265Y158606D01*
X232266Y158585D01*
X232263Y158564D01*
X232273Y158428D01*
X232279Y158291D01*
X232284Y158275D01*
X232286Y158250D01*
X232329Y158123D01*
X232541Y157334D01*
X232541Y155711D01*
X232544Y155688D01*
X232542Y155665D01*
X232554Y155610D01*
X232581Y155398D01*
X232623Y155292D01*
X232636Y155233D01*
X233068Y154189D01*
X233156Y153749D01*
X227500Y153749D01*
X227000Y153749D01*
X226875Y153734D01*
X226750Y153724D01*
X226719Y153714D01*
X226687Y153710D01*
X226571Y153663D01*
X226498Y153638D01*
X226435Y153671D01*
X226410Y153676D01*
X226375Y153692D01*
X226064Y153748D01*
X226025Y153745D01*
X226000Y153749D01*
X221450Y153749D01*
X221409Y153813D01*
X221385Y153834D01*
X221366Y153860D01*
X221268Y153940D01*
X221175Y154024D01*
X221146Y154039D01*
X221121Y154060D01*
X221007Y154113D01*
X220896Y154171D01*
X220870Y154175D01*
X220835Y154192D01*
X220524Y154248D01*
X220485Y154245D01*
X220460Y154249D01*
X220250Y154249D01*
X220125Y154233D01*
X220000Y154224D01*
X219969Y154213D01*
X219937Y154209D01*
X219820Y154163D01*
X219701Y154122D01*
X219674Y154104D01*
X219644Y154092D01*
X219543Y154018D01*
X219437Y153949D01*
X219416Y153925D01*
X219390Y153906D01*
X219310Y153808D01*
X219226Y153715D01*
X219211Y153686D01*
X219190Y153661D01*
X219137Y153547D01*
X219079Y153436D01*
X219075Y153410D01*
X219058Y153375D01*
X219002Y153064D01*
X219005Y153025D01*
X219001Y153000D01*
X219001Y152000D01*
X219017Y151875D01*
X219026Y151750D01*
X219037Y151719D01*
X219041Y151687D01*
X219087Y151570D01*
X219128Y151451D01*
X219146Y151424D01*
X219158Y151394D01*
X219232Y151293D01*
X219301Y151187D01*
X219325Y151166D01*
X219344Y151140D01*
X219442Y151060D01*
X219535Y150976D01*
X219564Y150961D01*
X219589Y150940D01*
X219703Y150887D01*
X219814Y150829D01*
X219840Y150825D01*
X219875Y150808D01*
X220186Y150752D01*
X220225Y150755D01*
X220250Y150751D01*
X220460Y150751D01*
X220585Y150767D01*
X220710Y150776D01*
X220741Y150786D01*
X220773Y150791D01*
X220890Y150837D01*
X221009Y150878D01*
X221036Y150896D01*
X221066Y150908D01*
X221167Y150982D01*
X221273Y151051D01*
X221294Y151075D01*
X221320Y151094D01*
X221400Y151192D01*
X221453Y151251D01*
X226000Y151251D01*
X226125Y151266D01*
X226250Y151276D01*
X226281Y151286D01*
X226313Y151290D01*
X226429Y151337D01*
X226502Y151362D01*
X226565Y151329D01*
X226590Y151324D01*
X226625Y151308D01*
X226936Y151252D01*
X226975Y151255D01*
X227000Y151251D01*
X227500Y151251D01*
X233156Y151251D01*
X233068Y150811D01*
X232636Y149767D01*
X232630Y149745D01*
X232619Y149724D01*
X232609Y149669D01*
X232553Y149463D01*
X232551Y149348D01*
X232541Y149289D01*
X232541Y148250D01*
X232557Y148125D01*
X232566Y148000D01*
X232576Y147969D01*
X232581Y147937D01*
X232627Y147820D01*
X232668Y147701D01*
X232686Y147674D01*
X232698Y147644D01*
X232772Y147543D01*
X232841Y147437D01*
X232865Y147416D01*
X232884Y147390D01*
X232982Y147310D01*
X233075Y147226D01*
X233104Y147211D01*
X233129Y147190D01*
X233243Y147137D01*
X233354Y147079D01*
X233380Y147075D01*
X233415Y147058D01*
X233726Y147002D01*
X233765Y147005D01*
X233790Y147001D01*
X239829Y147001D01*
X241001Y145829D01*
X241001Y124171D01*
X240617Y123787D01*
X240549Y123700D01*
X240476Y123619D01*
X240453Y123576D01*
X240424Y123538D01*
X240380Y123437D01*
X240329Y123339D01*
X240322Y123302D01*
X240299Y123248D01*
X240251Y122936D01*
X240253Y122917D01*
X240251Y122904D01*
X240251Y121500D01*
X240267Y121375D01*
X240276Y121250D01*
X240287Y121219D01*
X240291Y121187D01*
X240337Y121070D01*
X240378Y120951D01*
X240396Y120924D01*
X240408Y120894D01*
X240482Y120793D01*
X240551Y120687D01*
X240575Y120666D01*
X240594Y120640D01*
X240692Y120560D01*
X240785Y120476D01*
X240814Y120461D01*
X240839Y120440D01*
X240953Y120387D01*
X241064Y120329D01*
X241090Y120325D01*
X241125Y120308D01*
X241436Y120252D01*
X241475Y120255D01*
X241500Y120251D01*
X243544Y120251D01*
X245474Y119451D01*
X246617Y118309D01*
X246716Y118232D01*
X246812Y118150D01*
X246841Y118136D01*
X246866Y118116D01*
X246982Y118066D01*
X247095Y118011D01*
X247126Y118004D01*
X247156Y117991D01*
X247281Y117972D01*
X247404Y117947D01*
X247436Y117948D01*
X247468Y117944D01*
X247593Y117956D01*
X247719Y117962D01*
X247750Y117972D01*
X247782Y117975D01*
X247900Y118019D01*
X248020Y118056D01*
X248041Y118071D01*
X248078Y118085D01*
X248337Y118265D01*
X248362Y118294D01*
X248383Y118309D01*
X249526Y119451D01*
X251456Y120251D01*
X253544Y120251D01*
X255474Y119451D01*
X256951Y117974D01*
X257751Y116044D01*
X257751Y113956D01*
X256951Y112026D01*
X255474Y110549D01*
X253544Y109749D01*
X252364Y109749D01*
X252255Y109735D01*
X252145Y109730D01*
X252099Y109716D01*
X252051Y109709D01*
X251949Y109669D01*
X251844Y109636D01*
X251813Y109615D01*
X251758Y109592D01*
X251504Y109406D01*
X251491Y109391D01*
X251481Y109383D01*
X245481Y103383D01*
X245394Y103271D01*
X245304Y103161D01*
X245297Y103147D01*
X245287Y103134D01*
X245231Y103003D01*
X245172Y102875D01*
X245169Y102859D01*
X245163Y102844D01*
X245141Y102703D01*
X245116Y102564D01*
X245118Y102548D01*
X245115Y102532D01*
X245129Y102391D01*
X245140Y102250D01*
X245145Y102234D01*
X245147Y102218D01*
X245196Y102085D01*
X245242Y101951D01*
X245251Y101937D01*
X245256Y101922D01*
X245337Y101806D01*
X245415Y101687D01*
X245427Y101676D01*
X245436Y101663D01*
X245543Y101571D01*
X245649Y101476D01*
X245663Y101468D01*
X245676Y101458D01*
X245802Y101395D01*
X245928Y101329D01*
X245941Y101327D01*
X245959Y101318D01*
X246268Y101254D01*
X246327Y101257D01*
X246364Y101251D01*
X272500Y101251D01*
X272625Y101267D01*
G37*
%LPC*%
G36*
X290342Y215419D02*
X290342Y215419D01*
X287739Y216497D01*
X285747Y218489D01*
X284669Y221092D01*
X284669Y282250D01*
X284653Y282375D01*
X284644Y282500D01*
X284633Y282531D01*
X284629Y282563D01*
X284583Y282680D01*
X284542Y282799D01*
X284524Y282826D01*
X284512Y282856D01*
X284438Y282957D01*
X284369Y283063D01*
X284345Y283084D01*
X284326Y283110D01*
X284229Y283190D01*
X284135Y283274D01*
X284106Y283289D01*
X284081Y283310D01*
X283967Y283363D01*
X283856Y283421D01*
X283830Y283425D01*
X283795Y283442D01*
X283484Y283498D01*
X283445Y283495D01*
X283420Y283499D01*
X276171Y283499D01*
X274999Y284671D01*
X274999Y300329D01*
X276171Y301501D01*
X291829Y301501D01*
X293021Y300308D01*
X293026Y300286D01*
X293041Y300168D01*
X293055Y300131D01*
X293062Y300093D01*
X293113Y299986D01*
X293158Y299875D01*
X293181Y299843D01*
X293197Y299808D01*
X293274Y299717D01*
X293344Y299620D01*
X293374Y299596D01*
X293400Y299566D01*
X293455Y299530D01*
X293589Y299421D01*
X293717Y299362D01*
X293772Y299327D01*
X295761Y298503D01*
X297753Y296511D01*
X298831Y293908D01*
X298831Y221092D01*
X297753Y218489D01*
X295761Y216497D01*
X293158Y215419D01*
X290342Y215419D01*
G37*
%LPD*%
%LPC*%
G36*
X213310Y255499D02*
X213310Y255499D01*
X209818Y256946D01*
X207146Y259618D01*
X205699Y263110D01*
X205699Y281890D01*
X207146Y285382D01*
X209818Y288054D01*
X213310Y289501D01*
X217090Y289501D01*
X220582Y288054D01*
X223254Y285382D01*
X224701Y281890D01*
X224701Y263110D01*
X223254Y259618D01*
X220582Y256946D01*
X217090Y255499D01*
X213310Y255499D01*
G37*
%LPD*%
G36*
X226348Y111758D02*
X226348Y111758D01*
X226403Y111756D01*
X226504Y111778D01*
X226606Y111791D01*
X226657Y111811D01*
X226711Y111823D01*
X226803Y111869D01*
X226899Y111908D01*
X226943Y111940D01*
X226993Y111965D01*
X227070Y112033D01*
X227153Y112094D01*
X227188Y112137D01*
X227230Y112173D01*
X227287Y112259D01*
X227353Y112339D01*
X227376Y112389D01*
X227407Y112434D01*
X227441Y112531D01*
X227485Y112625D01*
X227494Y112680D01*
X227513Y112731D01*
X227522Y112834D01*
X227540Y112936D01*
X227536Y112991D01*
X227541Y113046D01*
X227527Y113109D01*
X227517Y113250D01*
X227461Y113414D01*
X227447Y113478D01*
X227249Y113956D01*
X227249Y116044D01*
X228049Y117974D01*
X229526Y119451D01*
X231456Y120251D01*
X232500Y120251D01*
X232625Y120267D01*
X232750Y120276D01*
X232781Y120287D01*
X232813Y120291D01*
X232930Y120337D01*
X233049Y120378D01*
X233076Y120396D01*
X233106Y120408D01*
X233207Y120482D01*
X233313Y120551D01*
X233334Y120575D01*
X233360Y120594D01*
X233440Y120692D01*
X233524Y120785D01*
X233539Y120814D01*
X233560Y120839D01*
X233613Y120953D01*
X233671Y121064D01*
X233675Y121090D01*
X233692Y121125D01*
X233748Y121436D01*
X233745Y121475D01*
X233749Y121500D01*
X233749Y122904D01*
X233735Y123013D01*
X233730Y123123D01*
X233716Y123169D01*
X233709Y123217D01*
X233669Y123319D01*
X233636Y123424D01*
X233614Y123455D01*
X233592Y123510D01*
X233406Y123764D01*
X233391Y123776D01*
X233383Y123787D01*
X232999Y124171D01*
X232999Y144634D01*
X232982Y144769D01*
X232969Y144906D01*
X232962Y144926D01*
X232959Y144947D01*
X232909Y145074D01*
X232863Y145202D01*
X232850Y145220D01*
X232842Y145240D01*
X232762Y145350D01*
X232685Y145463D01*
X232669Y145477D01*
X232656Y145494D01*
X232550Y145581D01*
X232447Y145671D01*
X232428Y145680D01*
X232411Y145694D01*
X232287Y145751D01*
X232165Y145812D01*
X232144Y145817D01*
X232125Y145826D01*
X231991Y145850D01*
X231857Y145879D01*
X231835Y145878D01*
X231814Y145882D01*
X231678Y145871D01*
X231542Y145866D01*
X231525Y145860D01*
X231500Y145858D01*
X231201Y145756D01*
X231157Y145727D01*
X231125Y145716D01*
X230981Y145632D01*
X230467Y145495D01*
X230355Y145449D01*
X230241Y145410D01*
X230209Y145389D01*
X230175Y145375D01*
X230078Y145303D01*
X229977Y145237D01*
X229952Y145209D01*
X229922Y145186D01*
X229846Y145092D01*
X229766Y145003D01*
X229748Y144970D01*
X229725Y144940D01*
X229675Y144830D01*
X229619Y144724D01*
X229614Y144694D01*
X229595Y144653D01*
X229542Y144342D01*
X229545Y144309D01*
X229541Y144288D01*
X229541Y136249D01*
X225000Y136249D01*
X220459Y136249D01*
X220459Y145336D01*
X220479Y145478D01*
X220501Y145624D01*
X220500Y145635D01*
X220501Y145645D01*
X220484Y145791D01*
X220469Y145938D01*
X220465Y145948D01*
X220464Y145958D01*
X220411Y146096D01*
X220360Y146234D01*
X220354Y146242D01*
X220350Y146252D01*
X220264Y146372D01*
X220180Y146493D01*
X220172Y146500D01*
X220165Y146508D01*
X220052Y146603D01*
X219940Y146698D01*
X219931Y146703D01*
X219923Y146710D01*
X219789Y146773D01*
X219657Y146838D01*
X219647Y146840D01*
X219637Y146844D01*
X219493Y146872D01*
X219348Y146901D01*
X219338Y146901D01*
X219327Y146903D01*
X219180Y146893D01*
X219033Y146886D01*
X219023Y146883D01*
X219012Y146882D01*
X218872Y146836D01*
X218732Y146792D01*
X218725Y146787D01*
X218713Y146783D01*
X218448Y146612D01*
X218403Y146563D01*
X218369Y146539D01*
X217702Y145873D01*
X217701Y145872D01*
X217674Y145854D01*
X217644Y145842D01*
X217543Y145768D01*
X217437Y145699D01*
X217416Y145675D01*
X217390Y145656D01*
X217310Y145558D01*
X217226Y145465D01*
X217211Y145436D01*
X217190Y145411D01*
X217137Y145297D01*
X217079Y145186D01*
X217075Y145160D01*
X217058Y145125D01*
X217002Y144814D01*
X217005Y144775D01*
X217001Y144750D01*
X217001Y124171D01*
X216617Y123787D01*
X216549Y123700D01*
X216476Y123619D01*
X216453Y123576D01*
X216424Y123538D01*
X216380Y123437D01*
X216329Y123339D01*
X216322Y123302D01*
X216299Y123248D01*
X216251Y122936D01*
X216253Y122917D01*
X216251Y122904D01*
X216251Y121500D01*
X216267Y121375D01*
X216276Y121250D01*
X216287Y121219D01*
X216291Y121187D01*
X216337Y121070D01*
X216378Y120951D01*
X216396Y120924D01*
X216408Y120894D01*
X216482Y120793D01*
X216551Y120687D01*
X216575Y120666D01*
X216594Y120640D01*
X216692Y120560D01*
X216785Y120476D01*
X216814Y120461D01*
X216839Y120440D01*
X216953Y120387D01*
X217064Y120329D01*
X217090Y120325D01*
X217125Y120308D01*
X217436Y120252D01*
X217475Y120255D01*
X217500Y120251D01*
X218544Y120251D01*
X220474Y119451D01*
X221951Y117974D01*
X222751Y116044D01*
X222751Y113956D01*
X222553Y113478D01*
X222538Y113425D01*
X222515Y113375D01*
X222497Y113273D01*
X222470Y113174D01*
X222469Y113118D01*
X222460Y113064D01*
X222467Y112961D01*
X222466Y112858D01*
X222479Y112805D01*
X222483Y112750D01*
X222517Y112652D01*
X222541Y112552D01*
X222567Y112503D01*
X222585Y112451D01*
X222642Y112365D01*
X222691Y112274D01*
X222728Y112233D01*
X222758Y112187D01*
X222835Y112118D01*
X222905Y112042D01*
X222951Y112013D01*
X222992Y111976D01*
X223084Y111928D01*
X223170Y111872D01*
X223223Y111855D01*
X223272Y111829D01*
X223336Y111818D01*
X223470Y111773D01*
X223643Y111762D01*
X223707Y111751D01*
X226293Y111751D01*
X226348Y111758D01*
G37*
%LPC*%
G36*
X264814Y131498D02*
X264814Y131498D01*
X264775Y131495D01*
X264750Y131499D01*
X258959Y131499D01*
X258959Y133334D01*
X259094Y133837D01*
X259102Y133897D01*
X259120Y133955D01*
X259123Y134053D01*
X259136Y134150D01*
X259129Y134210D01*
X259132Y134270D01*
X259111Y134366D01*
X259099Y134463D01*
X259077Y134519D01*
X259064Y134579D01*
X259020Y134666D01*
X258985Y134757D01*
X258949Y134806D01*
X258922Y134860D01*
X258858Y134934D01*
X258800Y135013D01*
X258754Y135052D01*
X258714Y135097D01*
X258633Y135152D01*
X258558Y135215D01*
X258503Y135240D01*
X258453Y135274D01*
X258361Y135307D01*
X258272Y135349D01*
X258213Y135360D01*
X258156Y135380D01*
X258058Y135389D01*
X257962Y135407D01*
X257902Y135403D01*
X257842Y135409D01*
X257779Y135395D01*
X257647Y135386D01*
X257472Y135328D01*
X257409Y135315D01*
X256044Y134749D01*
X253956Y134749D01*
X252026Y135549D01*
X250549Y137026D01*
X249749Y138956D01*
X249749Y141044D01*
X250549Y142974D01*
X252026Y144451D01*
X253956Y145251D01*
X256044Y145251D01*
X257974Y144451D01*
X258165Y144261D01*
X258264Y144184D01*
X258360Y144102D01*
X258389Y144088D01*
X258414Y144068D01*
X258530Y144018D01*
X258643Y143963D01*
X258674Y143956D01*
X258704Y143943D01*
X258829Y143924D01*
X258952Y143899D01*
X258984Y143900D01*
X259016Y143895D01*
X259141Y143908D01*
X259267Y143914D01*
X259298Y143924D01*
X259330Y143927D01*
X259448Y143971D01*
X259568Y144008D01*
X259589Y144023D01*
X259626Y144037D01*
X259885Y144217D01*
X259910Y144246D01*
X259931Y144261D01*
X260671Y145001D01*
X269329Y145001D01*
X270501Y143829D01*
X270501Y136146D01*
X270435Y136070D01*
X270421Y136041D01*
X270402Y136016D01*
X270352Y135900D01*
X270296Y135787D01*
X270290Y135755D01*
X270277Y135726D01*
X270258Y135601D01*
X270232Y135478D01*
X270234Y135446D01*
X270229Y135414D01*
X270242Y135289D01*
X270248Y135163D01*
X270258Y135132D01*
X270261Y135100D01*
X270305Y134982D01*
X270342Y134862D01*
X270357Y134840D01*
X270370Y134804D01*
X270499Y134618D01*
X270868Y133981D01*
X271041Y133334D01*
X271041Y131499D01*
X265250Y131499D01*
X265125Y131483D01*
X265000Y131474D01*
X264981Y131468D01*
X264814Y131498D01*
G37*
%LPD*%
%LPC*%
G36*
X322499Y322499D02*
X322499Y322499D01*
X322499Y337363D01*
X323429Y337241D01*
X325650Y336645D01*
X327775Y335766D01*
X329766Y334616D01*
X331590Y333216D01*
X333216Y331590D01*
X334616Y329766D01*
X335766Y327775D01*
X336645Y325650D01*
X337241Y323429D01*
X337363Y322499D01*
X322499Y322499D01*
G37*
%LPD*%
%LPC*%
G36*
X32499Y322499D02*
X32499Y322499D01*
X32499Y337363D01*
X33429Y337241D01*
X35650Y336645D01*
X37775Y335766D01*
X39766Y334616D01*
X41590Y333216D01*
X43216Y331590D01*
X44616Y329766D01*
X45766Y327775D01*
X46645Y325650D01*
X47241Y323429D01*
X47363Y322499D01*
X32499Y322499D01*
G37*
%LPD*%
%LPC*%
G36*
X322499Y32499D02*
X322499Y32499D01*
X322499Y47363D01*
X323429Y47241D01*
X325650Y46645D01*
X327775Y45766D01*
X329766Y44616D01*
X331590Y43216D01*
X333216Y41590D01*
X334616Y39766D01*
X335766Y37775D01*
X336645Y35650D01*
X337241Y33429D01*
X337363Y32499D01*
X322499Y32499D01*
G37*
%LPD*%
%LPC*%
G36*
X32499Y32499D02*
X32499Y32499D01*
X32499Y47363D01*
X33429Y47241D01*
X35650Y46645D01*
X37775Y45766D01*
X39766Y44616D01*
X41590Y43216D01*
X43216Y41590D01*
X44616Y39766D01*
X45766Y37775D01*
X46645Y35650D01*
X47241Y33429D01*
X47363Y32499D01*
X32499Y32499D01*
G37*
%LPD*%
%LPC*%
G36*
X302637Y322499D02*
X302637Y322499D01*
X302759Y323429D01*
X303355Y325650D01*
X304234Y327775D01*
X305384Y329766D01*
X306784Y331590D01*
X308410Y333216D01*
X310234Y334616D01*
X312225Y335766D01*
X314350Y336645D01*
X316571Y337241D01*
X317501Y337363D01*
X317501Y322499D01*
X302637Y322499D01*
G37*
%LPD*%
%LPC*%
G36*
X12637Y322499D02*
X12637Y322499D01*
X12759Y323429D01*
X13355Y325650D01*
X14234Y327775D01*
X15384Y329766D01*
X16784Y331590D01*
X18410Y333216D01*
X20234Y334616D01*
X22225Y335766D01*
X24350Y336645D01*
X26571Y337241D01*
X27501Y337363D01*
X27501Y322499D01*
X12637Y322499D01*
G37*
%LPD*%
%LPC*%
G36*
X322499Y27501D02*
X322499Y27501D01*
X337363Y27501D01*
X337241Y26571D01*
X336645Y24350D01*
X335766Y22225D01*
X334616Y20234D01*
X333216Y18410D01*
X331590Y16784D01*
X329766Y15384D01*
X327775Y14234D01*
X325650Y13355D01*
X323429Y12759D01*
X322499Y12637D01*
X322499Y27501D01*
G37*
%LPD*%
%LPC*%
G36*
X302637Y32499D02*
X302637Y32499D01*
X302759Y33429D01*
X303355Y35650D01*
X304234Y37775D01*
X305384Y39766D01*
X306784Y41590D01*
X308410Y43216D01*
X310234Y44616D01*
X312225Y45766D01*
X314350Y46645D01*
X316571Y47241D01*
X317501Y47363D01*
X317501Y32499D01*
X302637Y32499D01*
G37*
%LPD*%
%LPC*%
G36*
X322499Y317501D02*
X322499Y317501D01*
X337363Y317501D01*
X337241Y316571D01*
X336645Y314350D01*
X335766Y312225D01*
X334616Y310234D01*
X333216Y308410D01*
X331590Y306784D01*
X329766Y305384D01*
X327775Y304234D01*
X325650Y303355D01*
X323429Y302759D01*
X322499Y302637D01*
X322499Y317501D01*
G37*
%LPD*%
%LPC*%
G36*
X32499Y317501D02*
X32499Y317501D01*
X47363Y317501D01*
X47241Y316571D01*
X46645Y314350D01*
X45766Y312225D01*
X44616Y310234D01*
X43216Y308410D01*
X41590Y306784D01*
X39766Y305384D01*
X37775Y304234D01*
X35650Y303355D01*
X33429Y302759D01*
X32499Y302637D01*
X32499Y317501D01*
G37*
%LPD*%
%LPC*%
G36*
X12637Y32499D02*
X12637Y32499D01*
X12759Y33429D01*
X13355Y35650D01*
X14234Y37775D01*
X15384Y39766D01*
X16784Y41590D01*
X18410Y43216D01*
X20234Y44616D01*
X22225Y45766D01*
X24350Y46645D01*
X26571Y47241D01*
X27501Y47363D01*
X27501Y32499D01*
X12637Y32499D01*
G37*
%LPD*%
%LPC*%
G36*
X32499Y27501D02*
X32499Y27501D01*
X47363Y27501D01*
X47241Y26571D01*
X46645Y24350D01*
X45766Y22225D01*
X44616Y20234D01*
X43216Y18410D01*
X41590Y16784D01*
X39766Y15384D01*
X37775Y14234D01*
X35650Y13355D01*
X33429Y12759D01*
X32499Y12637D01*
X32499Y27501D01*
G37*
%LPD*%
%LPC*%
G36*
X316571Y302759D02*
X316571Y302759D01*
X314350Y303355D01*
X312225Y304234D01*
X310234Y305384D01*
X308410Y306784D01*
X306784Y308410D01*
X305384Y310234D01*
X304234Y312225D01*
X303355Y314350D01*
X302759Y316571D01*
X302637Y317501D01*
X317501Y317501D01*
X317501Y302637D01*
X316571Y302759D01*
G37*
%LPD*%
%LPC*%
G36*
X26571Y12759D02*
X26571Y12759D01*
X24350Y13355D01*
X22225Y14234D01*
X20234Y15384D01*
X18410Y16784D01*
X16784Y18410D01*
X15384Y20234D01*
X14234Y22225D01*
X13355Y24350D01*
X12759Y26571D01*
X12637Y27501D01*
X27501Y27501D01*
X27501Y12637D01*
X26571Y12759D01*
G37*
%LPD*%
%LPC*%
G36*
X26571Y302759D02*
X26571Y302759D01*
X24350Y303355D01*
X22225Y304234D01*
X20234Y305384D01*
X18410Y306784D01*
X16784Y308410D01*
X15384Y310234D01*
X14234Y312225D01*
X13355Y314350D01*
X12759Y316571D01*
X12637Y317501D01*
X27501Y317501D01*
X27501Y302637D01*
X26571Y302759D01*
G37*
%LPD*%
%LPC*%
G36*
X316571Y12759D02*
X316571Y12759D01*
X314350Y13355D01*
X312225Y14234D01*
X310234Y15384D01*
X308410Y16784D01*
X306784Y18410D01*
X305384Y20234D01*
X304234Y22225D01*
X303355Y24350D01*
X302759Y26571D01*
X302637Y27501D01*
X317501Y27501D01*
X317501Y12637D01*
X316571Y12759D01*
G37*
%LPD*%
G36*
X89125Y171267D02*
X89125Y171267D01*
X89250Y171276D01*
X89281Y171287D01*
X89313Y171291D01*
X89430Y171337D01*
X89549Y171378D01*
X89576Y171396D01*
X89606Y171408D01*
X89707Y171482D01*
X89813Y171551D01*
X89834Y171575D01*
X89860Y171594D01*
X89940Y171692D01*
X90024Y171785D01*
X90039Y171814D01*
X90060Y171839D01*
X90113Y171953D01*
X90171Y172064D01*
X90175Y172090D01*
X90192Y172125D01*
X90248Y172436D01*
X90245Y172475D01*
X90249Y172500D01*
X90249Y174904D01*
X90235Y175013D01*
X90230Y175123D01*
X90225Y175140D01*
X90224Y175149D01*
X90215Y175177D01*
X90209Y175217D01*
X90169Y175319D01*
X90136Y175424D01*
X90125Y175440D01*
X90122Y175448D01*
X90110Y175467D01*
X90092Y175510D01*
X89986Y175655D01*
X89949Y175711D01*
X89936Y175723D01*
X89906Y175764D01*
X89891Y175776D01*
X89883Y175787D01*
X88672Y176999D01*
X88568Y177079D01*
X88468Y177164D01*
X88443Y177176D01*
X88422Y177192D01*
X88301Y177244D01*
X88183Y177301D01*
X88157Y177306D01*
X88132Y177317D01*
X88002Y177336D01*
X87874Y177362D01*
X87847Y177360D01*
X87820Y177364D01*
X87690Y177351D01*
X87559Y177344D01*
X87533Y177335D01*
X87507Y177333D01*
X87383Y177287D01*
X87259Y177247D01*
X87236Y177233D01*
X87211Y177223D01*
X87103Y177148D01*
X86992Y177078D01*
X86978Y177062D01*
X86952Y177043D01*
X86746Y176804D01*
X86726Y176763D01*
X86706Y176740D01*
X86533Y176440D01*
X86060Y175967D01*
X85481Y175632D01*
X84834Y175459D01*
X82749Y175459D01*
X82749Y182000D01*
X82733Y182125D01*
X82724Y182250D01*
X82713Y182281D01*
X82709Y182313D01*
X82663Y182429D01*
X82622Y182549D01*
X82604Y182576D01*
X82592Y182606D01*
X82518Y182707D01*
X82449Y182812D01*
X82425Y182834D01*
X82406Y182860D01*
X82308Y182940D01*
X82215Y183024D01*
X82186Y183039D01*
X82161Y183060D01*
X82047Y183112D01*
X81936Y183171D01*
X81910Y183175D01*
X81875Y183192D01*
X81564Y183247D01*
X81525Y183244D01*
X81500Y183249D01*
X80500Y183249D01*
X80375Y183233D01*
X80250Y183224D01*
X80219Y183213D01*
X80187Y183209D01*
X80070Y183163D01*
X79951Y183122D01*
X79924Y183104D01*
X79894Y183092D01*
X79792Y183018D01*
X79687Y182949D01*
X79666Y182925D01*
X79640Y182906D01*
X79560Y182808D01*
X79476Y182715D01*
X79461Y182686D01*
X79440Y182661D01*
X79387Y182547D01*
X79329Y182435D01*
X79325Y182410D01*
X79308Y182375D01*
X79252Y182064D01*
X79255Y182025D01*
X79251Y182000D01*
X79251Y175459D01*
X77166Y175459D01*
X76519Y175632D01*
X75940Y175967D01*
X75932Y175975D01*
X75832Y176052D01*
X75736Y176135D01*
X75708Y176149D01*
X75682Y176168D01*
X75566Y176218D01*
X75453Y176274D01*
X75422Y176280D01*
X75392Y176293D01*
X75268Y176312D01*
X75144Y176338D01*
X75112Y176336D01*
X75080Y176341D01*
X74955Y176328D01*
X74829Y176322D01*
X74798Y176312D01*
X74766Y176309D01*
X74648Y176266D01*
X74528Y176228D01*
X74507Y176213D01*
X74471Y176200D01*
X74211Y176020D01*
X74186Y175990D01*
X74165Y175975D01*
X73691Y175502D01*
X72743Y174868D01*
X71689Y174432D01*
X71249Y174344D01*
X71249Y180000D01*
X71234Y180124D01*
X71224Y180250D01*
X71214Y180281D01*
X71210Y180313D01*
X71163Y180429D01*
X71122Y180549D01*
X71105Y180576D01*
X71093Y180606D01*
X71018Y180707D01*
X70949Y180812D01*
X70925Y180834D01*
X70906Y180860D01*
X70809Y180940D01*
X70715Y181024D01*
X70686Y181039D01*
X70661Y181060D01*
X70547Y181112D01*
X70436Y181171D01*
X70410Y181175D01*
X70375Y181191D01*
X70064Y181247D01*
X70025Y181244D01*
X70000Y181249D01*
X69875Y181233D01*
X69749Y181224D01*
X69719Y181213D01*
X69687Y181209D01*
X69570Y181162D01*
X69451Y181122D01*
X69424Y181104D01*
X69394Y181092D01*
X69292Y181018D01*
X69187Y180948D01*
X69165Y180925D01*
X69139Y180905D01*
X69060Y180808D01*
X68975Y180715D01*
X68960Y180686D01*
X68940Y180661D01*
X68887Y180547D01*
X68829Y180435D01*
X68824Y180410D01*
X68808Y180374D01*
X68752Y180064D01*
X68755Y180025D01*
X68751Y180000D01*
X68751Y174344D01*
X68311Y174432D01*
X67978Y174570D01*
X67925Y174584D01*
X67875Y174607D01*
X67773Y174625D01*
X67674Y174653D01*
X67618Y174653D01*
X67564Y174663D01*
X67461Y174655D01*
X67358Y174657D01*
X67305Y174644D01*
X67250Y174639D01*
X67152Y174606D01*
X67052Y174582D01*
X67003Y174556D01*
X66951Y174538D01*
X66865Y174481D01*
X66774Y174432D01*
X66733Y174395D01*
X66687Y174364D01*
X66618Y174288D01*
X66542Y174218D01*
X66513Y174171D01*
X66476Y174130D01*
X66428Y174039D01*
X66372Y173952D01*
X66355Y173900D01*
X66329Y173851D01*
X66318Y173787D01*
X66273Y173653D01*
X66262Y173480D01*
X66251Y173416D01*
X66251Y172500D01*
X66267Y172375D01*
X66276Y172250D01*
X66287Y172219D01*
X66291Y172187D01*
X66337Y172070D01*
X66378Y171951D01*
X66396Y171924D01*
X66408Y171894D01*
X66482Y171793D01*
X66551Y171687D01*
X66575Y171666D01*
X66594Y171640D01*
X66692Y171560D01*
X66785Y171476D01*
X66814Y171461D01*
X66839Y171440D01*
X66953Y171387D01*
X67064Y171329D01*
X67090Y171325D01*
X67125Y171308D01*
X67436Y171252D01*
X67475Y171255D01*
X67500Y171251D01*
X89000Y171251D01*
X89125Y171267D01*
G37*
%LPC*%
G36*
X157699Y270001D02*
X157699Y270001D01*
X165241Y270001D01*
X165241Y264210D01*
X164993Y262649D01*
X164505Y261146D01*
X163788Y259738D01*
X162859Y258459D01*
X161741Y257341D01*
X160462Y256412D01*
X159054Y255695D01*
X157699Y255255D01*
X157699Y270001D01*
G37*
%LPD*%
%LPC*%
G36*
X151346Y255695D02*
X151346Y255695D01*
X149938Y256412D01*
X148659Y257341D01*
X147541Y258459D01*
X146612Y259738D01*
X145895Y261146D01*
X145407Y262649D01*
X145159Y264210D01*
X145159Y270001D01*
X152701Y270001D01*
X152701Y255255D01*
X151346Y255695D01*
G37*
%LPD*%
G36*
X93375Y225017D02*
X93375Y225017D01*
X93500Y225026D01*
X93531Y225037D01*
X93563Y225041D01*
X93680Y225087D01*
X93799Y225128D01*
X93826Y225146D01*
X93856Y225158D01*
X93957Y225232D01*
X94063Y225301D01*
X94084Y225325D01*
X94110Y225344D01*
X94190Y225442D01*
X94274Y225535D01*
X94289Y225564D01*
X94310Y225589D01*
X94363Y225703D01*
X94421Y225815D01*
X94425Y225840D01*
X94442Y225875D01*
X94498Y226186D01*
X94495Y226225D01*
X94499Y226250D01*
X94499Y226329D01*
X94787Y226617D01*
X94864Y226716D01*
X94946Y226812D01*
X94961Y226841D01*
X94980Y226866D01*
X95030Y226982D01*
X95086Y227095D01*
X95092Y227126D01*
X95105Y227156D01*
X95124Y227281D01*
X95149Y227404D01*
X95148Y227436D01*
X95153Y227468D01*
X95140Y227593D01*
X95134Y227719D01*
X95124Y227750D01*
X95121Y227782D01*
X95077Y227900D01*
X95040Y228020D01*
X95025Y228041D01*
X95011Y228078D01*
X94831Y228337D01*
X94802Y228362D01*
X94787Y228383D01*
X94499Y228671D01*
X94499Y228750D01*
X94483Y228875D01*
X94474Y229000D01*
X94463Y229031D01*
X94459Y229063D01*
X94413Y229180D01*
X94372Y229299D01*
X94354Y229326D01*
X94342Y229356D01*
X94268Y229457D01*
X94199Y229563D01*
X94175Y229584D01*
X94156Y229610D01*
X94058Y229690D01*
X93965Y229774D01*
X93936Y229789D01*
X93911Y229810D01*
X93797Y229862D01*
X93686Y229921D01*
X93660Y229925D01*
X93625Y229942D01*
X93314Y229998D01*
X93275Y229995D01*
X93250Y229999D01*
X78750Y229999D01*
X78625Y229983D01*
X78500Y229974D01*
X78469Y229963D01*
X78437Y229959D01*
X78320Y229913D01*
X78201Y229872D01*
X78174Y229854D01*
X78144Y229842D01*
X78043Y229768D01*
X77937Y229699D01*
X77916Y229675D01*
X77890Y229656D01*
X77810Y229558D01*
X77726Y229465D01*
X77711Y229436D01*
X77690Y229411D01*
X77638Y229297D01*
X77579Y229185D01*
X77575Y229160D01*
X77558Y229125D01*
X77503Y228814D01*
X77505Y228775D01*
X77501Y228750D01*
X77501Y226250D01*
X77517Y226125D01*
X77526Y226000D01*
X77537Y225969D01*
X77541Y225937D01*
X77587Y225820D01*
X77628Y225701D01*
X77646Y225674D01*
X77658Y225644D01*
X77732Y225543D01*
X77801Y225437D01*
X77825Y225416D01*
X77844Y225390D01*
X77942Y225310D01*
X78035Y225226D01*
X78064Y225211D01*
X78089Y225190D01*
X78203Y225138D01*
X78315Y225079D01*
X78340Y225075D01*
X78375Y225058D01*
X78686Y225002D01*
X78725Y225005D01*
X78750Y225001D01*
X93250Y225001D01*
X93375Y225017D01*
G37*
%LPC*%
G36*
X279999Y193999D02*
X279999Y193999D01*
X279999Y202041D01*
X286834Y202041D01*
X287481Y201868D01*
X288060Y201533D01*
X288533Y201060D01*
X288868Y200481D01*
X289041Y199834D01*
X289041Y193999D01*
X279999Y193999D01*
G37*
%LPD*%
%LPC*%
G36*
X265959Y193999D02*
X265959Y193999D01*
X265959Y199834D01*
X266132Y200481D01*
X266467Y201060D01*
X266940Y201533D01*
X267519Y201868D01*
X268166Y202041D01*
X275001Y202041D01*
X275001Y193999D01*
X265959Y193999D01*
G37*
%LPD*%
%LPC*%
G36*
X279999Y180959D02*
X279999Y180959D01*
X279999Y189001D01*
X289041Y189001D01*
X289041Y183166D01*
X288868Y182519D01*
X288533Y181940D01*
X288060Y181467D01*
X287481Y181132D01*
X286834Y180959D01*
X279999Y180959D01*
G37*
%LPD*%
%LPC*%
G36*
X268166Y180959D02*
X268166Y180959D01*
X267519Y181132D01*
X266940Y181467D01*
X266467Y181940D01*
X266132Y182519D01*
X265959Y183166D01*
X265959Y189001D01*
X275001Y189001D01*
X275001Y180959D01*
X268166Y180959D01*
G37*
%LPD*%
%LPC*%
G36*
X154499Y302499D02*
X154499Y302499D01*
X154499Y310041D01*
X158834Y310041D01*
X159481Y309868D01*
X160060Y309533D01*
X160533Y309060D01*
X160868Y308481D01*
X161041Y307834D01*
X161041Y302499D01*
X154499Y302499D01*
G37*
%LPD*%
%LPC*%
G36*
X234499Y229999D02*
X234499Y229999D01*
X234499Y237541D01*
X238834Y237541D01*
X239481Y237368D01*
X240060Y237033D01*
X240533Y236560D01*
X240868Y235981D01*
X241041Y235334D01*
X241041Y229999D01*
X234499Y229999D01*
G37*
%LPD*%
%LPC*%
G36*
X234499Y217459D02*
X234499Y217459D01*
X234499Y225001D01*
X241041Y225001D01*
X241041Y219666D01*
X240868Y219019D01*
X240533Y218440D01*
X240060Y217967D01*
X239481Y217632D01*
X238834Y217459D01*
X234499Y217459D01*
G37*
%LPD*%
%LPC*%
G36*
X226249Y122459D02*
X226249Y122459D01*
X226249Y133751D01*
X229541Y133751D01*
X229541Y124666D01*
X229368Y124019D01*
X229033Y123440D01*
X228560Y122967D01*
X227981Y122632D01*
X227334Y122459D01*
X226249Y122459D01*
G37*
%LPD*%
%LPC*%
G36*
X222666Y122459D02*
X222666Y122459D01*
X222019Y122632D01*
X221440Y122967D01*
X220967Y123440D01*
X220632Y124019D01*
X220459Y124666D01*
X220459Y133751D01*
X223751Y133751D01*
X223751Y122459D01*
X222666Y122459D01*
G37*
%LPD*%
%LPC*%
G36*
X50459Y235749D02*
X50459Y235749D01*
X50459Y237834D01*
X50632Y238481D01*
X50967Y239060D01*
X51440Y239533D01*
X52019Y239868D01*
X52666Y240041D01*
X55751Y240041D01*
X55751Y235749D01*
X50459Y235749D01*
G37*
%LPD*%
%LPC*%
G36*
X188999Y226499D02*
X188999Y226499D01*
X188999Y230541D01*
X191334Y230541D01*
X191981Y230368D01*
X192560Y230033D01*
X193033Y229560D01*
X193368Y228981D01*
X193541Y228334D01*
X193541Y226499D01*
X188999Y226499D01*
G37*
%LPD*%
%LPC*%
G36*
X266499Y124459D02*
X266499Y124459D01*
X266499Y128501D01*
X271041Y128501D01*
X271041Y126666D01*
X270868Y126019D01*
X270533Y125440D01*
X270060Y124967D01*
X269481Y124632D01*
X268834Y124459D01*
X266499Y124459D01*
G37*
%LPD*%
%LPC*%
G36*
X261166Y124459D02*
X261166Y124459D01*
X260519Y124632D01*
X259940Y124967D01*
X259467Y125440D01*
X259132Y126019D01*
X258959Y126666D01*
X258959Y128501D01*
X263501Y128501D01*
X263501Y124459D01*
X261166Y124459D01*
G37*
%LPD*%
%LPC*%
G36*
X136249Y186249D02*
X136249Y186249D01*
X136249Y190656D01*
X136689Y190568D01*
X137743Y190132D01*
X138691Y189498D01*
X139498Y188691D01*
X140132Y187743D01*
X140568Y186689D01*
X140656Y186249D01*
X136249Y186249D01*
G37*
%LPD*%
%LPC*%
G36*
X193749Y131251D02*
X193749Y131251D01*
X198156Y131251D01*
X198068Y130811D01*
X197632Y129757D01*
X196998Y128809D01*
X196191Y128002D01*
X195243Y127368D01*
X194189Y126932D01*
X193749Y126844D01*
X193749Y131251D01*
G37*
%LPD*%
%LPC*%
G36*
X194344Y183749D02*
X194344Y183749D01*
X194432Y184189D01*
X194868Y185243D01*
X195502Y186191D01*
X196309Y186998D01*
X197257Y187632D01*
X198311Y188068D01*
X198751Y188156D01*
X198751Y183749D01*
X194344Y183749D01*
G37*
%LPD*%
%LPC*%
G36*
X111249Y183751D02*
X111249Y183751D01*
X115656Y183751D01*
X115568Y183311D01*
X115132Y182257D01*
X114498Y181309D01*
X113691Y180502D01*
X112743Y179868D01*
X111689Y179432D01*
X111249Y179344D01*
X111249Y183751D01*
G37*
%LPD*%
%LPC*%
G36*
X256249Y176251D02*
X256249Y176251D01*
X260656Y176251D01*
X260568Y175811D01*
X260132Y174757D01*
X259498Y173809D01*
X258691Y173002D01*
X257743Y172368D01*
X256689Y171932D01*
X256249Y171844D01*
X256249Y176251D01*
G37*
%LPD*%
%LPC*%
G36*
X129344Y186249D02*
X129344Y186249D01*
X129432Y186689D01*
X129868Y187743D01*
X130502Y188691D01*
X131309Y189498D01*
X132257Y190132D01*
X133311Y190568D01*
X133751Y190656D01*
X133751Y186249D01*
X129344Y186249D01*
G37*
%LPD*%
%LPC*%
G36*
X119344Y136249D02*
X119344Y136249D01*
X119432Y136689D01*
X119868Y137743D01*
X120502Y138691D01*
X121309Y139498D01*
X122257Y140132D01*
X123311Y140568D01*
X123751Y140656D01*
X123751Y136249D01*
X119344Y136249D01*
G37*
%LPD*%
%LPC*%
G36*
X108311Y179432D02*
X108311Y179432D01*
X107257Y179868D01*
X106309Y180502D01*
X105502Y181309D01*
X104868Y182257D01*
X104432Y183311D01*
X104344Y183751D01*
X108751Y183751D01*
X108751Y179344D01*
X108311Y179432D01*
G37*
%LPD*%
%LPC*%
G36*
X123311Y129432D02*
X123311Y129432D01*
X122257Y129868D01*
X121309Y130502D01*
X120502Y131309D01*
X119868Y132257D01*
X119432Y133311D01*
X119344Y133751D01*
X123751Y133751D01*
X123751Y129344D01*
X123311Y129432D01*
G37*
%LPD*%
%LPC*%
G36*
X253311Y171932D02*
X253311Y171932D01*
X252257Y172368D01*
X251309Y173002D01*
X250502Y173809D01*
X249868Y174757D01*
X249432Y175811D01*
X249344Y176251D01*
X253751Y176251D01*
X253751Y171844D01*
X253311Y171932D01*
G37*
%LPD*%
%LPC*%
G36*
X198311Y176932D02*
X198311Y176932D01*
X197257Y177368D01*
X196309Y178002D01*
X195502Y178809D01*
X194868Y179757D01*
X194432Y180811D01*
X194344Y181251D01*
X198751Y181251D01*
X198751Y176844D01*
X198311Y176932D01*
G37*
%LPD*%
%LPC*%
G36*
X227500Y194999D02*
X227500Y194999D01*
X227499Y194999D01*
X227499Y195000D01*
X227499Y195001D01*
X227500Y195001D01*
X227501Y195001D01*
X227501Y195000D01*
X227501Y194999D01*
X227500Y194999D01*
G37*
%LPD*%
%LPC*%
G36*
X29999Y319999D02*
X29999Y319999D01*
X29999Y320001D01*
X30001Y320001D01*
X30001Y319999D01*
X29999Y319999D01*
G37*
%LPD*%
%LPC*%
G36*
X319999Y29999D02*
X319999Y29999D01*
X319999Y30001D01*
X320001Y30001D01*
X320001Y29999D01*
X319999Y29999D01*
G37*
%LPD*%
%LPC*%
G36*
X29999Y29999D02*
X29999Y29999D01*
X29999Y30001D01*
X30001Y30001D01*
X30001Y29999D01*
X29999Y29999D01*
G37*
%LPD*%
%LPC*%
G36*
X319999Y319999D02*
X319999Y319999D01*
X319999Y320001D01*
X320001Y320001D01*
X320001Y319999D01*
X319999Y319999D01*
G37*
%LPD*%
%LPC*%
G36*
X277499Y191499D02*
X277499Y191499D01*
X277499Y191501D01*
X277501Y191501D01*
X277501Y191499D01*
X277499Y191499D01*
G37*
%LPD*%
D10*
X133000Y300000D03*
X152000Y300000D03*
D11*
X57500Y221000D03*
X57500Y234000D03*
D12*
X213500Y152500D03*
X226500Y152500D03*
X94000Y182500D03*
X81000Y182500D03*
D13*
X246000Y292500D03*
X284000Y292500D03*
D14*
X77500Y227500D03*
D15*
X87250Y212000D03*
X80750Y212000D03*
X74250Y212000D03*
X67750Y212000D03*
X87250Y243000D03*
X80750Y243000D03*
X74250Y243000D03*
X67750Y243000D03*
D16*
X156500Y235000D03*
X128500Y235000D03*
D10*
X68000Y297500D03*
X87000Y297500D03*
D17*
X115000Y215000D03*
X115000Y205000D03*
D18*
X155200Y265000D02*
X155200Y280000D01*
X129800Y280000D02*
X129800Y265000D01*
X90200Y265000D02*
X90200Y280000D01*
X64800Y280000D02*
X64800Y265000D01*
D19*
X237000Y135000D03*
X225000Y135000D03*
X213000Y135000D03*
D20*
X147500Y162500D03*
X157500Y162500D03*
X147500Y175000D03*
X157500Y175000D03*
X147500Y150000D03*
X157500Y150000D03*
D17*
X100000Y222500D03*
X100000Y232500D03*
X265000Y140000D03*
X265000Y130000D03*
D18*
X215200Y265000D02*
X215200Y280000D01*
X189800Y280000D02*
X189800Y265000D01*
D21*
X277500Y163500D03*
X277500Y191500D03*
D22*
X227500Y195000D03*
D23*
X213190Y204540D03*
X213190Y195000D03*
X213190Y185460D03*
X241810Y204500D03*
X241810Y195000D03*
X241810Y185500D03*
D10*
X232000Y227500D03*
X213000Y227500D03*
D20*
X172500Y130000D03*
X182500Y130000D03*
D17*
X187500Y215000D03*
X187500Y225000D03*
D24*
X35000Y272500D03*
D25*
X241810Y185500D02*
X250000Y185500D01*
X241810Y204500D02*
X241810Y210000D01*
X212500Y210000D01*
X241810Y204500D02*
X250000Y204500D01*
X250000Y185500D01*
X250000Y204500D02*
X250000Y292500D01*
X246000Y292500D01*
D26*
X128500Y235000D02*
X128500Y223080D01*
X127420Y223080D01*
X127420Y215000D01*
D25*
X195421Y210000D02*
X212500Y210000D01*
X213190Y209310D02*
X213190Y204540D01*
X213000Y209500D02*
X212500Y210000D01*
X195421Y210000D02*
X192631Y207210D01*
D26*
X128500Y235000D02*
X128500Y271200D01*
X129800Y272500D01*
X129800Y296800D01*
X133000Y300000D01*
D25*
X158983Y215000D02*
X166773Y207210D01*
X192631Y207210D01*
X158983Y215000D02*
X127420Y215000D01*
X213000Y209500D02*
X213000Y227500D01*
X213000Y209500D02*
X213190Y209310D01*
D27*
X30000Y320000D03*
X30000Y30000D03*
X320000Y30000D03*
X320000Y320000D03*
D28*
X70000Y180000D03*
X255000Y177500D03*
X192500Y132500D03*
X200000Y182500D03*
D29*
X225000Y151000D02*
X225000Y135000D01*
X225000Y151000D02*
X226500Y152500D01*
X80750Y212000D02*
X80750Y224250D01*
X78750Y226250D01*
D28*
X125000Y135000D03*
X135000Y185000D03*
X110000Y185000D03*
X105000Y205000D03*
D29*
X78750Y226250D02*
X77500Y227500D01*
D30*
X71000Y234000D02*
X57500Y234000D01*
X71000Y234000D02*
X78750Y226250D01*
D28*
X227500Y195000D03*
D29*
X81000Y182500D02*
X72500Y182500D01*
X70000Y180000D01*
D28*
X227500Y152500D03*
X170000Y215000D03*
D29*
X187500Y215000D01*
D28*
X178950Y149758D03*
D31*
X200000Y152500D02*
X213500Y152500D01*
X178950Y150000D02*
X178950Y149758D01*
X182500Y135000D02*
X182500Y130000D01*
X182500Y135000D02*
X187500Y140000D01*
X200000Y152500D01*
X187500Y141208D02*
X178950Y149758D01*
X187500Y141208D02*
X187500Y140000D01*
D28*
X267500Y60000D03*
D31*
X277500Y70000D01*
X277500Y95000D01*
X277500Y97500D01*
D32*
X74250Y205750D02*
X74250Y212000D01*
X74250Y205750D02*
X77500Y202500D01*
D28*
X77500Y202500D03*
D32*
X100000Y212500D02*
X100000Y222500D01*
D28*
X62500Y192500D03*
D31*
X62750Y192500D01*
D32*
X57500Y197500D02*
X57500Y221000D01*
X57500Y197500D02*
X62500Y192500D01*
D28*
X95000Y192500D03*
D32*
X95000Y183500D01*
X94000Y182500D01*
X100000Y212500D02*
X112500Y212500D01*
X115000Y215000D01*
X95000Y207500D02*
X95000Y192500D01*
X95000Y207500D02*
X100000Y212500D01*
D31*
X62500Y192500D02*
X62500Y167500D01*
X94000Y167500D01*
X94000Y182500D01*
X94000Y167500D02*
X94000Y142500D01*
X139000Y97500D01*
X277500Y97500D01*
X213190Y163500D02*
X213190Y185460D01*
X213190Y163500D02*
X213190Y152810D01*
X213500Y152500D01*
X213190Y163500D02*
X277500Y163500D01*
X277500Y97500D01*
D33*
X175000Y225000D03*
D26*
X172500Y235000D02*
X156500Y235000D01*
D34*
X172500Y227500D02*
X175000Y225000D01*
X172500Y227500D02*
X172500Y235000D01*
D26*
X176920Y235000D01*
X189800Y247880D02*
X189800Y272500D01*
X189800Y247880D02*
X176920Y235000D01*
X175000Y233080D02*
X175000Y225000D01*
X175000Y233080D02*
X176920Y235000D01*
D28*
X170000Y162500D03*
D29*
X157500Y162500D01*
D28*
X170000Y175000D03*
D29*
X157500Y175000D01*
D28*
X170000Y150000D03*
D29*
X157500Y150000D01*
D28*
X115000Y195000D03*
D32*
X115000Y205000D01*
D29*
X90200Y272500D02*
X90200Y297500D01*
X87000Y297500D01*
X80750Y263050D02*
X80750Y243000D01*
X80750Y263050D02*
X90200Y272500D01*
X64800Y272500D02*
X64800Y297500D01*
X68000Y297500D01*
X74250Y263050D02*
X74250Y243000D01*
X74250Y263050D02*
X64800Y272500D01*
D28*
X82500Y192500D03*
D29*
X87250Y197250D02*
X87250Y212000D01*
X87250Y197250D02*
X82500Y192500D01*
D28*
X72500Y192500D03*
D29*
X67750Y197250D02*
X67750Y212000D01*
X67750Y197250D02*
X72500Y192500D01*
D28*
X291750Y222500D03*
D26*
X289250Y292500D02*
X284000Y292500D01*
X291750Y292500D02*
X291750Y222500D01*
X291750Y292500D02*
X284000Y292500D01*
D28*
X137500Y135000D03*
D29*
X170000Y102500D01*
D28*
X252500Y115000D03*
D29*
X240000Y102500D01*
X170000Y102500D01*
D28*
X242500Y115000D03*
D29*
X241692Y115000D01*
X235192Y108500D01*
X173192Y108500D01*
D28*
X160846Y120846D03*
D29*
X173192Y108500D01*
D28*
X232500Y115000D03*
D29*
X237000Y119500D02*
X237000Y135000D01*
X237000Y119500D02*
X232500Y115000D01*
D28*
X217500Y115000D03*
D29*
X213000Y119500D02*
X213000Y135000D01*
X213000Y119500D02*
X217500Y115000D01*
X100000Y232500D02*
X100000Y233000D01*
D28*
X110000Y232500D03*
D29*
X100000Y232500D01*
X100000Y243000D02*
X87250Y243000D01*
X100000Y243000D02*
X100000Y232500D01*
D28*
X177500Y199420D03*
D30*
X178160Y200080D01*
X197701Y200080D01*
D28*
X197701Y200080D03*
X127500Y175000D03*
D29*
X132500Y162500D02*
X147500Y162500D01*
X132500Y162500D02*
X127500Y167500D01*
X127500Y175000D01*
X137500Y175000D02*
X147500Y175000D01*
D28*
X137500Y175000D03*
X137500Y150000D03*
D29*
X147500Y150000D01*
D28*
X255000Y140000D03*
D29*
X265000Y140000D01*
D28*
X175000Y140000D03*
D29*
X172500Y137500D02*
X172500Y130000D01*
X172500Y137500D02*
X175000Y140000D01*
D31*
X67750Y243000D02*
X67750Y247250D01*
X62500Y252500D01*
X35000Y257500D02*
X35000Y272500D01*
X40000Y252500D02*
X62500Y252500D01*
X40000Y252500D02*
X35000Y257500D01*
M02*
