G04 EAGLE Gerber X2 export*
%TF.Part,Single*%
%TF.FileFunction,Copper,L1,Top,Mixed*%
%TF.FilePolarity,Positive*%
%TF.GenerationSoftware,Autodesk,EAGLE,9.0.0*%
%TF.CreationDate,2018-04-30T11:42:59Z*%
G75*
%MOMM*%
%FSLAX34Y34*%
%LPD*%
%AMOC8*
5,1,8,0,0,1.08239X$1,22.5*%
G01*
%ADD10R,1.500000X2.300000*%
%ADD11R,0.710000X0.460000*%
%ADD12R,2.500000X2.500000*%
%ADD13R,0.300000X0.750000*%
%ADD14R,0.750000X0.300000*%
%ADD15R,2.500000X6.000000*%
%ADD16R,1.400000X1.000000*%
%ADD17R,0.700000X0.600000*%
%ADD18C,1.500000*%
%ADD19R,1.100000X1.100000*%
%ADD20R,0.250000X0.800000*%
%ADD21R,0.800000X0.250000*%
%ADD22R,0.550000X0.250000*%
%ADD23R,0.250000X0.550000*%
%ADD24R,2.540000X1.270000*%
%ADD25R,1.200000X0.600000*%
%ADD26R,0.700000X0.300000*%
%ADD27R,1.000000X0.600000*%
%ADD28C,0.450000*%
%ADD29C,3.000000*%
%ADD30C,0.650000*%
%ADD31C,0.250000*%
%ADD32C,0.350000*%
%ADD33C,0.800000*%
%ADD34C,0.500000*%
%ADD35C,1.016000*%
%ADD36C,1.400000*%
%ADD37C,0.300000*%

G36*
X24875Y5006D02*
X24875Y5006D01*
X24901Y5002D01*
X25768Y5048D01*
X25965Y5005D01*
X26032Y5008D01*
X26073Y5001D01*
X323927Y5001D01*
X324240Y5041D01*
X324255Y5047D01*
X325099Y5002D01*
X325139Y5005D01*
X325165Y5001D01*
X325660Y5001D01*
X325680Y5003D01*
X325693Y5001D01*
X328111Y5064D01*
X328364Y5103D01*
X328402Y5106D01*
X333701Y6525D01*
X333993Y6644D01*
X334030Y6672D01*
X334058Y6683D01*
X338659Y9670D01*
X338900Y9874D01*
X338927Y9912D01*
X338950Y9932D01*
X342403Y14194D01*
X342463Y14291D01*
X342497Y14333D01*
X342522Y14386D01*
X342569Y14462D01*
X342582Y14506D01*
X342598Y14532D01*
X344565Y19653D01*
X344626Y19902D01*
X344637Y19938D01*
X344989Y22600D01*
X344989Y22706D01*
X344999Y22763D01*
X344999Y327050D01*
X344979Y327206D01*
X344979Y327272D01*
X344485Y330014D01*
X344475Y330048D01*
X344474Y330056D01*
X344449Y330130D01*
X344409Y330259D01*
X344400Y330295D01*
X342025Y335702D01*
X341863Y335973D01*
X341830Y336005D01*
X341814Y336031D01*
X337885Y340439D01*
X337647Y340647D01*
X337605Y340667D01*
X337582Y340687D01*
X332483Y343665D01*
X332193Y343789D01*
X332147Y343796D01*
X332119Y343807D01*
X326349Y345064D01*
X326094Y345087D01*
X326057Y345093D01*
X323829Y345046D01*
X323819Y345044D01*
X323810Y345045D01*
X323776Y345038D01*
X323518Y344999D01*
X322812Y344999D01*
X322734Y344989D01*
X322687Y344993D01*
X322008Y344925D01*
X321939Y344946D01*
X321627Y344998D01*
X321598Y344996D01*
X321578Y344999D01*
X26073Y344999D01*
X25760Y344959D01*
X25745Y344953D01*
X24901Y344998D01*
X24861Y344995D01*
X24835Y344999D01*
X24339Y344999D01*
X24320Y344997D01*
X24307Y344999D01*
X21889Y344936D01*
X21635Y344897D01*
X21598Y344894D01*
X16299Y343475D01*
X16007Y343356D01*
X15970Y343328D01*
X15942Y343317D01*
X11341Y340330D01*
X11100Y340126D01*
X11073Y340088D01*
X11050Y340068D01*
X7597Y335806D01*
X7431Y335538D01*
X7418Y335494D01*
X7402Y335468D01*
X5435Y330347D01*
X5374Y330098D01*
X5363Y330062D01*
X5011Y327400D01*
X5011Y327294D01*
X5001Y327237D01*
X5001Y22763D01*
X5014Y22658D01*
X5011Y22600D01*
X5363Y19938D01*
X5428Y19690D01*
X5435Y19653D01*
X7402Y14532D01*
X7426Y14487D01*
X7440Y14446D01*
X7485Y14378D01*
X7551Y14254D01*
X7583Y14220D01*
X7597Y14194D01*
X11050Y9932D01*
X11278Y9713D01*
X11319Y9691D01*
X11341Y9670D01*
X15942Y6683D01*
X16226Y6546D01*
X16272Y6537D01*
X16299Y6525D01*
X21598Y5106D01*
X21852Y5072D01*
X21889Y5064D01*
X24307Y5001D01*
X24327Y5003D01*
X24340Y5001D01*
X24835Y5001D01*
X24875Y5006D01*
G37*
%LPC*%
G36*
X252761Y73239D02*
X252761Y73239D01*
X251589Y74411D01*
X251589Y88769D01*
X252761Y89941D01*
X261790Y89941D01*
X261915Y89957D01*
X262040Y89966D01*
X262071Y89977D01*
X262103Y89981D01*
X262220Y90027D01*
X262339Y90068D01*
X262366Y90086D01*
X262396Y90098D01*
X262497Y90172D01*
X262603Y90241D01*
X262624Y90265D01*
X262650Y90284D01*
X262730Y90382D01*
X262814Y90475D01*
X262829Y90504D01*
X262850Y90529D01*
X262903Y90643D01*
X262961Y90754D01*
X262965Y90780D01*
X262982Y90815D01*
X263038Y91126D01*
X263037Y91132D01*
X263038Y91135D01*
X263035Y91167D01*
X263039Y91190D01*
X263039Y126846D01*
X263025Y126955D01*
X263020Y127065D01*
X263006Y127111D01*
X262999Y127159D01*
X262959Y127261D01*
X262926Y127366D01*
X262904Y127397D01*
X262882Y127452D01*
X262696Y127706D01*
X262681Y127719D01*
X262673Y127729D01*
X256019Y134383D01*
X255933Y134451D01*
X255851Y134524D01*
X255808Y134547D01*
X255770Y134577D01*
X255669Y134620D01*
X255572Y134671D01*
X255535Y134678D01*
X255480Y134701D01*
X255168Y134749D01*
X255149Y134747D01*
X255136Y134749D01*
X253956Y134749D01*
X252026Y135549D01*
X250549Y137026D01*
X249749Y138956D01*
X249749Y139000D01*
X249733Y139125D01*
X249724Y139250D01*
X249713Y139281D01*
X249709Y139313D01*
X249663Y139430D01*
X249622Y139549D01*
X249604Y139576D01*
X249592Y139606D01*
X249518Y139707D01*
X249449Y139813D01*
X249425Y139834D01*
X249406Y139860D01*
X249308Y139940D01*
X249215Y140024D01*
X249186Y140039D01*
X249161Y140060D01*
X249047Y140113D01*
X248936Y140171D01*
X248910Y140175D01*
X248875Y140192D01*
X248564Y140248D01*
X248525Y140245D01*
X248500Y140249D01*
X241000Y140249D01*
X240875Y140233D01*
X240750Y140224D01*
X240719Y140213D01*
X240687Y140209D01*
X240570Y140163D01*
X240451Y140122D01*
X240424Y140104D01*
X240394Y140092D01*
X240293Y140018D01*
X240187Y139949D01*
X240166Y139925D01*
X240140Y139906D01*
X240060Y139808D01*
X239976Y139715D01*
X239961Y139686D01*
X239940Y139661D01*
X239887Y139547D01*
X239829Y139436D01*
X239825Y139410D01*
X239808Y139375D01*
X239752Y139064D01*
X239755Y139025D01*
X239751Y139000D01*
X239751Y135364D01*
X239765Y135255D01*
X239770Y135145D01*
X239784Y135099D01*
X239791Y135051D01*
X239831Y134949D01*
X239864Y134844D01*
X239886Y134813D01*
X239908Y134758D01*
X240094Y134504D01*
X240109Y134491D01*
X240117Y134481D01*
X253481Y121117D01*
X254738Y119859D01*
X254756Y119845D01*
X254771Y119828D01*
X254818Y119797D01*
X254987Y119666D01*
X255093Y119621D01*
X255143Y119589D01*
X255474Y119451D01*
X256951Y117974D01*
X257751Y116044D01*
X257751Y113956D01*
X256951Y112026D01*
X255474Y110549D01*
X253544Y109749D01*
X251456Y109749D01*
X249526Y110549D01*
X248383Y111691D01*
X248284Y111768D01*
X248188Y111850D01*
X248159Y111864D01*
X248134Y111884D01*
X248018Y111934D01*
X247905Y111989D01*
X247874Y111996D01*
X247844Y112009D01*
X247719Y112028D01*
X247596Y112053D01*
X247564Y112052D01*
X247532Y112056D01*
X247407Y112044D01*
X247281Y112038D01*
X247250Y112028D01*
X247218Y112025D01*
X247100Y111981D01*
X246980Y111944D01*
X246959Y111929D01*
X246922Y111915D01*
X246663Y111735D01*
X246638Y111706D01*
X246617Y111691D01*
X245474Y110549D01*
X243544Y109749D01*
X241456Y109749D01*
X239526Y110549D01*
X238383Y111691D01*
X238284Y111768D01*
X238188Y111850D01*
X238159Y111864D01*
X238134Y111884D01*
X238018Y111934D01*
X237905Y111989D01*
X237874Y111996D01*
X237844Y112009D01*
X237719Y112028D01*
X237596Y112053D01*
X237564Y112052D01*
X237532Y112056D01*
X237407Y112044D01*
X237281Y112038D01*
X237250Y112028D01*
X237218Y112025D01*
X237100Y111981D01*
X236980Y111944D01*
X236959Y111929D01*
X236922Y111915D01*
X236663Y111735D01*
X236638Y111706D01*
X236617Y111691D01*
X235474Y110549D01*
X233544Y109749D01*
X231456Y109749D01*
X229526Y110549D01*
X228049Y112026D01*
X227249Y113956D01*
X227249Y115136D01*
X227235Y115245D01*
X227230Y115355D01*
X227216Y115401D01*
X227209Y115449D01*
X227169Y115551D01*
X227136Y115656D01*
X227114Y115687D01*
X227092Y115742D01*
X226906Y115996D01*
X226891Y116009D01*
X226883Y116019D01*
X225883Y117019D01*
X225784Y117097D01*
X225688Y117179D01*
X225659Y117193D01*
X225634Y117213D01*
X225518Y117262D01*
X225405Y117318D01*
X225374Y117324D01*
X225344Y117337D01*
X225219Y117356D01*
X225096Y117382D01*
X225064Y117380D01*
X225032Y117385D01*
X224907Y117372D01*
X224781Y117366D01*
X224750Y117356D01*
X224718Y117353D01*
X224600Y117309D01*
X224480Y117272D01*
X224459Y117257D01*
X224422Y117244D01*
X224163Y117064D01*
X224138Y117034D01*
X224117Y117019D01*
X223117Y116019D01*
X223049Y115933D01*
X222976Y115851D01*
X222953Y115808D01*
X222923Y115770D01*
X222880Y115669D01*
X222829Y115572D01*
X222822Y115535D01*
X222799Y115480D01*
X222751Y115168D01*
X222753Y115149D01*
X222751Y115136D01*
X222751Y113956D01*
X221951Y112026D01*
X220474Y110549D01*
X218544Y109749D01*
X216456Y109749D01*
X214526Y110549D01*
X213049Y112026D01*
X212249Y113956D01*
X212249Y116044D01*
X212750Y117254D01*
X212769Y117323D01*
X212797Y117388D01*
X212810Y117475D01*
X212833Y117559D01*
X212834Y117630D01*
X212845Y117700D01*
X212836Y117787D01*
X212837Y117874D01*
X212820Y117943D01*
X212813Y118014D01*
X212783Y118096D01*
X212762Y118181D01*
X212729Y118243D01*
X212704Y118310D01*
X212654Y118382D01*
X212613Y118458D01*
X212564Y118511D01*
X212524Y118569D01*
X212458Y118626D01*
X212399Y118690D01*
X212339Y118728D01*
X212285Y118775D01*
X212207Y118813D01*
X212133Y118860D01*
X212065Y118883D01*
X212001Y118914D01*
X211916Y118932D01*
X211833Y118959D01*
X211762Y118963D01*
X211693Y118978D01*
X211605Y118974D01*
X211518Y118979D01*
X211449Y118966D01*
X211377Y118962D01*
X211294Y118936D01*
X211209Y118920D01*
X211144Y118889D01*
X211076Y118868D01*
X211027Y118834D01*
X210923Y118785D01*
X210759Y118648D01*
X210713Y118616D01*
X201547Y109449D01*
X200596Y109449D01*
X200487Y109435D01*
X200377Y109430D01*
X200331Y109416D01*
X200283Y109409D01*
X200181Y109369D01*
X200076Y109336D01*
X200045Y109314D01*
X199990Y109292D01*
X199736Y109106D01*
X199724Y109091D01*
X199713Y109083D01*
X198329Y107699D01*
X184671Y107699D01*
X183383Y108987D01*
X183284Y109064D01*
X183188Y109146D01*
X183159Y109161D01*
X183134Y109180D01*
X183018Y109230D01*
X182905Y109286D01*
X182874Y109292D01*
X182844Y109305D01*
X182719Y109324D01*
X182596Y109349D01*
X182564Y109348D01*
X182532Y109353D01*
X182407Y109340D01*
X182281Y109334D01*
X182250Y109324D01*
X182218Y109321D01*
X182100Y109277D01*
X181980Y109240D01*
X181959Y109225D01*
X181922Y109211D01*
X181663Y109031D01*
X181638Y109002D01*
X181617Y108987D01*
X180329Y107699D01*
X166671Y107699D01*
X165499Y108871D01*
X165499Y115221D01*
X165492Y115275D01*
X165494Y115330D01*
X165472Y115431D01*
X165459Y115534D01*
X165439Y115585D01*
X165427Y115639D01*
X165381Y115731D01*
X165342Y115827D01*
X165310Y115871D01*
X165285Y115920D01*
X165217Y115998D01*
X165156Y116081D01*
X165113Y116116D01*
X165077Y116157D01*
X164991Y116215D01*
X164911Y116280D01*
X164861Y116304D01*
X164816Y116334D01*
X164719Y116369D01*
X164625Y116412D01*
X164570Y116422D01*
X164519Y116441D01*
X164416Y116450D01*
X164314Y116468D01*
X164259Y116464D01*
X164204Y116469D01*
X164141Y116455D01*
X164000Y116445D01*
X163836Y116389D01*
X163772Y116375D01*
X161891Y115595D01*
X159802Y115595D01*
X157872Y116395D01*
X156395Y117872D01*
X156144Y118478D01*
X156124Y118512D01*
X156112Y118549D01*
X156046Y118649D01*
X155987Y118752D01*
X155960Y118780D01*
X155938Y118813D01*
X155850Y118893D01*
X155767Y118978D01*
X155734Y118998D01*
X155705Y119024D01*
X155599Y119080D01*
X155497Y119141D01*
X155460Y119153D01*
X155425Y119171D01*
X155361Y119182D01*
X155195Y119232D01*
X155054Y119238D01*
X154990Y119249D01*
X88653Y119249D01*
X81749Y126153D01*
X81749Y133000D01*
X81733Y133125D01*
X81724Y133250D01*
X81713Y133281D01*
X81709Y133313D01*
X81663Y133430D01*
X81622Y133549D01*
X81604Y133576D01*
X81592Y133606D01*
X81518Y133707D01*
X81449Y133813D01*
X81425Y133834D01*
X81406Y133860D01*
X81308Y133940D01*
X81215Y134024D01*
X81186Y134039D01*
X81161Y134060D01*
X81047Y134113D01*
X80936Y134171D01*
X80910Y134175D01*
X80875Y134192D01*
X80564Y134248D01*
X80525Y134245D01*
X80500Y134249D01*
X77671Y134249D01*
X76499Y135421D01*
X76499Y144423D01*
X76485Y144537D01*
X76478Y144652D01*
X76465Y144693D01*
X76459Y144736D01*
X76417Y144843D01*
X76381Y144953D01*
X76358Y144989D01*
X76342Y145029D01*
X76274Y145122D01*
X76212Y145219D01*
X76187Y145241D01*
X76156Y145283D01*
X75981Y145425D01*
X75424Y145983D01*
X75372Y146063D01*
X75340Y146091D01*
X75314Y146126D01*
X75223Y146197D01*
X75138Y146274D01*
X75100Y146294D01*
X75066Y146321D01*
X74960Y146367D01*
X74858Y146421D01*
X74825Y146427D01*
X74777Y146448D01*
X74466Y146499D01*
X74440Y146496D01*
X74423Y146499D01*
X65421Y146499D01*
X64249Y147671D01*
X64249Y172329D01*
X65440Y173519D01*
X65576Y173533D01*
X65591Y173539D01*
X65607Y173541D01*
X65739Y173593D01*
X65872Y173642D01*
X65885Y173652D01*
X65900Y173658D01*
X66015Y173742D01*
X66131Y173822D01*
X66141Y173835D01*
X66154Y173844D01*
X66244Y173954D01*
X66336Y174062D01*
X66344Y174076D01*
X66354Y174089D01*
X66413Y174218D01*
X66476Y174345D01*
X66479Y174360D01*
X66486Y174375D01*
X66511Y174515D01*
X66540Y174654D01*
X66539Y174670D01*
X66542Y174686D01*
X66531Y174827D01*
X66524Y174969D01*
X66519Y174984D01*
X66518Y175000D01*
X66472Y175135D01*
X66430Y175270D01*
X66422Y175281D01*
X66416Y175299D01*
X66243Y175563D01*
X66199Y175603D01*
X66177Y175633D01*
X65502Y176309D01*
X64868Y177257D01*
X64432Y178311D01*
X64344Y178751D01*
X70000Y178751D01*
X70124Y178766D01*
X70250Y178776D01*
X70281Y178786D01*
X70313Y178790D01*
X70429Y178837D01*
X70549Y178878D01*
X70576Y178895D01*
X70606Y178907D01*
X70707Y178982D01*
X70812Y179051D01*
X70834Y179075D01*
X70860Y179094D01*
X70940Y179191D01*
X71024Y179285D01*
X71039Y179313D01*
X71060Y179338D01*
X71112Y179453D01*
X71171Y179564D01*
X71175Y179590D01*
X71191Y179625D01*
X71247Y179936D01*
X71244Y179974D01*
X71249Y180000D01*
X71233Y180125D01*
X71224Y180251D01*
X71213Y180281D01*
X71209Y180313D01*
X71162Y180430D01*
X71122Y180549D01*
X71104Y180576D01*
X71092Y180606D01*
X71018Y180708D01*
X70948Y180813D01*
X70925Y180834D01*
X70905Y180860D01*
X70808Y180940D01*
X70715Y181025D01*
X70686Y181040D01*
X70661Y181060D01*
X70547Y181113D01*
X70435Y181171D01*
X70410Y181176D01*
X70374Y181192D01*
X70064Y181248D01*
X70025Y181245D01*
X70000Y181249D01*
X64344Y181249D01*
X64432Y181689D01*
X64868Y182743D01*
X65502Y183691D01*
X66309Y184498D01*
X67257Y185132D01*
X68311Y185568D01*
X69138Y185733D01*
X69239Y185767D01*
X69343Y185792D01*
X69388Y185816D01*
X69437Y185833D01*
X69527Y185891D01*
X69621Y185942D01*
X69659Y185977D01*
X69702Y186005D01*
X69774Y186083D01*
X69852Y186156D01*
X69880Y186199D01*
X69915Y186237D01*
X69965Y186332D01*
X70023Y186421D01*
X70039Y186470D01*
X70063Y186516D01*
X70088Y186620D01*
X70121Y186721D01*
X70124Y186773D01*
X70136Y186823D01*
X70134Y186930D01*
X70141Y187036D01*
X70131Y187087D01*
X70131Y187138D01*
X70102Y187241D01*
X70082Y187346D01*
X70060Y187393D01*
X70046Y187442D01*
X69992Y187535D01*
X69947Y187631D01*
X69914Y187671D01*
X69888Y187715D01*
X69813Y187791D01*
X69745Y187873D01*
X69711Y187895D01*
X69666Y187940D01*
X69586Y187988D01*
X68383Y189191D01*
X68284Y189268D01*
X68188Y189350D01*
X68159Y189364D01*
X68134Y189384D01*
X68018Y189434D01*
X67905Y189489D01*
X67874Y189496D01*
X67844Y189509D01*
X67719Y189528D01*
X67596Y189553D01*
X67564Y189552D01*
X67532Y189556D01*
X67407Y189544D01*
X67281Y189538D01*
X67250Y189528D01*
X67218Y189525D01*
X67100Y189481D01*
X66980Y189444D01*
X66959Y189429D01*
X66922Y189415D01*
X66663Y189235D01*
X66638Y189206D01*
X66617Y189191D01*
X65474Y188049D01*
X63544Y187249D01*
X61456Y187249D01*
X59526Y188049D01*
X58049Y189526D01*
X57249Y191456D01*
X57249Y193544D01*
X58049Y195474D01*
X59526Y196951D01*
X61456Y197751D01*
X62282Y197751D01*
X62391Y197765D01*
X62501Y197770D01*
X62548Y197784D01*
X62595Y197791D01*
X62698Y197831D01*
X62802Y197864D01*
X62833Y197886D01*
X62888Y197908D01*
X63143Y198094D01*
X63155Y198109D01*
X63166Y198117D01*
X71050Y206001D01*
X73058Y206001D01*
X73167Y206015D01*
X73276Y206020D01*
X73323Y206034D01*
X73371Y206041D01*
X73473Y206081D01*
X73578Y206114D01*
X73608Y206136D01*
X73664Y206158D01*
X73918Y206344D01*
X73930Y206359D01*
X73941Y206367D01*
X74526Y206951D01*
X76456Y207751D01*
X78544Y207751D01*
X80474Y206951D01*
X81059Y206367D01*
X81146Y206299D01*
X81227Y206226D01*
X81270Y206203D01*
X81309Y206173D01*
X81410Y206130D01*
X81507Y206079D01*
X81544Y206072D01*
X81598Y206049D01*
X81910Y206001D01*
X81929Y206003D01*
X81942Y206001D01*
X91450Y206001D01*
X93501Y203950D01*
X93501Y199000D01*
X93517Y198875D01*
X93526Y198750D01*
X93537Y198719D01*
X93541Y198687D01*
X93587Y198570D01*
X93628Y198451D01*
X93646Y198424D01*
X93658Y198394D01*
X93732Y198293D01*
X93801Y198187D01*
X93825Y198166D01*
X93844Y198140D01*
X93942Y198060D01*
X94035Y197976D01*
X94064Y197961D01*
X94089Y197940D01*
X94203Y197887D01*
X94314Y197829D01*
X94340Y197825D01*
X94375Y197808D01*
X94686Y197752D01*
X94725Y197755D01*
X94750Y197751D01*
X96044Y197751D01*
X97974Y196951D01*
X99451Y195474D01*
X99886Y194426D01*
X99913Y194378D01*
X99932Y194326D01*
X99991Y194241D01*
X100042Y194152D01*
X100081Y194112D01*
X100112Y194067D01*
X100190Y194000D01*
X100262Y193926D01*
X100310Y193897D01*
X100351Y193861D01*
X100444Y193816D01*
X100532Y193762D01*
X100585Y193746D01*
X100635Y193722D01*
X100736Y193701D01*
X100834Y193672D01*
X100890Y193669D01*
X100944Y193658D01*
X101047Y193663D01*
X101150Y193659D01*
X101204Y193671D01*
X101259Y193674D01*
X101357Y193705D01*
X101458Y193727D01*
X101507Y193751D01*
X101560Y193768D01*
X101613Y193805D01*
X101740Y193869D01*
X101870Y193983D01*
X101923Y194020D01*
X105014Y197112D01*
X105026Y197127D01*
X105042Y197140D01*
X105123Y197252D01*
X105208Y197361D01*
X105215Y197379D01*
X105227Y197395D01*
X105277Y197523D01*
X105332Y197651D01*
X105335Y197670D01*
X105342Y197689D01*
X105359Y197826D01*
X105380Y197963D01*
X105378Y197982D01*
X105380Y198002D01*
X105362Y198139D01*
X105348Y198277D01*
X105341Y198295D01*
X105339Y198315D01*
X105287Y198443D01*
X105239Y198573D01*
X105227Y198589D01*
X105220Y198607D01*
X105138Y198718D01*
X105059Y198832D01*
X105044Y198845D01*
X105032Y198860D01*
X104924Y198947D01*
X104819Y199037D01*
X104802Y199046D01*
X104787Y199058D01*
X104738Y199078D01*
X104536Y199177D01*
X104429Y199199D01*
X104375Y199220D01*
X103311Y199432D01*
X102257Y199868D01*
X101309Y200502D01*
X100502Y201309D01*
X99868Y202257D01*
X99432Y203311D01*
X99344Y203751D01*
X105000Y203751D01*
X110656Y203751D01*
X110568Y203311D01*
X110132Y202257D01*
X109498Y201309D01*
X108637Y200448D01*
X108580Y200406D01*
X108547Y200366D01*
X108508Y200332D01*
X108448Y200244D01*
X108380Y200161D01*
X108359Y200115D01*
X108330Y200072D01*
X108293Y199972D01*
X108249Y199875D01*
X108239Y199824D01*
X108222Y199776D01*
X108212Y199669D01*
X108193Y199564D01*
X108197Y199513D01*
X108192Y199462D01*
X108208Y199356D01*
X108216Y199250D01*
X108233Y199201D01*
X108241Y199150D01*
X108284Y199052D01*
X108318Y198951D01*
X108346Y198908D01*
X108367Y198861D01*
X108433Y198777D01*
X108491Y198687D01*
X108530Y198653D01*
X108561Y198612D01*
X108646Y198547D01*
X108725Y198476D01*
X108771Y198452D01*
X108812Y198420D01*
X108910Y198379D01*
X109005Y198329D01*
X109044Y198322D01*
X109102Y198297D01*
X109414Y198251D01*
X109430Y198253D01*
X109440Y198251D01*
X110308Y198251D01*
X110417Y198265D01*
X110526Y198270D01*
X110573Y198284D01*
X110621Y198291D01*
X110723Y198331D01*
X110828Y198364D01*
X110858Y198386D01*
X110914Y198408D01*
X111168Y198594D01*
X111180Y198609D01*
X111191Y198617D01*
X112026Y199451D01*
X113956Y200251D01*
X116044Y200251D01*
X117974Y199451D01*
X118809Y198617D01*
X118896Y198549D01*
X118977Y198476D01*
X119020Y198453D01*
X119058Y198424D01*
X119160Y198380D01*
X119257Y198329D01*
X119294Y198322D01*
X119348Y198299D01*
X119660Y198251D01*
X119679Y198253D01*
X119692Y198251D01*
X141308Y198251D01*
X141448Y198269D01*
X141589Y198283D01*
X141605Y198289D01*
X141621Y198291D01*
X141752Y198343D01*
X141885Y198392D01*
X141899Y198402D01*
X141914Y198408D01*
X142028Y198491D01*
X142144Y198572D01*
X142155Y198585D01*
X142168Y198594D01*
X142258Y198704D01*
X142350Y198812D01*
X142357Y198826D01*
X142368Y198839D01*
X142427Y198968D01*
X142489Y199095D01*
X142493Y199111D01*
X142499Y199125D01*
X142525Y199265D01*
X142553Y199404D01*
X142552Y199420D01*
X142555Y199436D01*
X142545Y199577D01*
X142538Y199719D01*
X142533Y199734D01*
X142532Y199750D01*
X142486Y199885D01*
X142444Y200020D01*
X142436Y200031D01*
X142430Y200049D01*
X142256Y200313D01*
X142212Y200353D01*
X142191Y200383D01*
X140549Y202026D01*
X139749Y203956D01*
X139749Y206044D01*
X140549Y207974D01*
X142026Y209451D01*
X143074Y209886D01*
X143122Y209913D01*
X143174Y209932D01*
X143259Y209991D01*
X143348Y210042D01*
X143388Y210081D01*
X143433Y210112D01*
X143500Y210190D01*
X143574Y210262D01*
X143603Y210310D01*
X143639Y210351D01*
X143684Y210444D01*
X143738Y210532D01*
X143754Y210585D01*
X143778Y210635D01*
X143799Y210736D01*
X143828Y210834D01*
X143831Y210890D01*
X143842Y210944D01*
X143837Y211047D01*
X143841Y211150D01*
X143829Y211204D01*
X143826Y211259D01*
X143795Y211357D01*
X143773Y211458D01*
X143749Y211507D01*
X143732Y211560D01*
X143695Y211613D01*
X143631Y211740D01*
X143517Y211870D01*
X143480Y211923D01*
X126519Y228883D01*
X126433Y228951D01*
X126351Y229024D01*
X126308Y229047D01*
X126270Y229077D01*
X126169Y229120D01*
X126072Y229171D01*
X126035Y229178D01*
X125980Y229201D01*
X125668Y229249D01*
X125649Y229247D01*
X125636Y229249D01*
X114692Y229249D01*
X114583Y229235D01*
X114474Y229230D01*
X114427Y229216D01*
X114379Y229209D01*
X114277Y229169D01*
X114172Y229136D01*
X114142Y229114D01*
X114086Y229092D01*
X113832Y228906D01*
X113820Y228891D01*
X113809Y228883D01*
X112974Y228049D01*
X111044Y227249D01*
X108956Y227249D01*
X107026Y228049D01*
X105549Y229526D01*
X104749Y231456D01*
X104749Y233544D01*
X105549Y235474D01*
X107026Y236951D01*
X108956Y237751D01*
X111044Y237751D01*
X112974Y236951D01*
X113809Y236117D01*
X113896Y236049D01*
X113977Y235976D01*
X114020Y235953D01*
X114059Y235923D01*
X114160Y235880D01*
X114257Y235829D01*
X114294Y235822D01*
X114348Y235799D01*
X114660Y235751D01*
X114679Y235753D01*
X114692Y235751D01*
X128847Y235751D01*
X159481Y205117D01*
X159567Y205049D01*
X159649Y204976D01*
X159692Y204953D01*
X159730Y204923D01*
X159831Y204880D01*
X159928Y204829D01*
X159965Y204822D01*
X160020Y204799D01*
X160332Y204751D01*
X160351Y204753D01*
X160364Y204751D01*
X187636Y204751D01*
X187776Y204769D01*
X187918Y204783D01*
X187933Y204789D01*
X187949Y204791D01*
X188081Y204843D01*
X188214Y204892D01*
X188227Y204902D01*
X188242Y204908D01*
X188357Y204992D01*
X188473Y205072D01*
X188483Y205085D01*
X188496Y205094D01*
X188586Y205204D01*
X188679Y205312D01*
X188686Y205326D01*
X188696Y205339D01*
X188755Y205468D01*
X188818Y205595D01*
X188821Y205611D01*
X188828Y205625D01*
X188853Y205765D01*
X188882Y205904D01*
X188881Y205920D01*
X188884Y205936D01*
X188873Y206077D01*
X188866Y206219D01*
X188861Y206234D01*
X188860Y206250D01*
X188814Y206385D01*
X188772Y206520D01*
X188764Y206531D01*
X188758Y206549D01*
X188585Y206813D01*
X188541Y206853D01*
X188519Y206883D01*
X184469Y210933D01*
X184383Y211001D01*
X184301Y211074D01*
X184258Y211097D01*
X184220Y211127D01*
X184119Y211170D01*
X184022Y211221D01*
X183985Y211228D01*
X183930Y211251D01*
X183618Y211299D01*
X183599Y211297D01*
X183586Y211299D01*
X183321Y211299D01*
X183237Y211383D01*
X183150Y211451D01*
X183069Y211524D01*
X183026Y211547D01*
X182988Y211577D01*
X182887Y211620D01*
X182789Y211671D01*
X182752Y211678D01*
X182698Y211701D01*
X182386Y211749D01*
X182367Y211747D01*
X182354Y211749D01*
X174692Y211749D01*
X174583Y211735D01*
X174474Y211730D01*
X174427Y211716D01*
X174379Y211709D01*
X174277Y211669D01*
X174172Y211636D01*
X174142Y211614D01*
X174086Y211592D01*
X173832Y211406D01*
X173820Y211391D01*
X173809Y211383D01*
X172974Y210549D01*
X171044Y209749D01*
X168956Y209749D01*
X167026Y210549D01*
X165549Y212026D01*
X164749Y213956D01*
X164749Y216044D01*
X165549Y217974D01*
X167026Y219451D01*
X169096Y220309D01*
X169205Y220371D01*
X169317Y220428D01*
X169342Y220449D01*
X169370Y220465D01*
X169460Y220553D01*
X169554Y220636D01*
X169573Y220663D01*
X169596Y220686D01*
X169661Y220793D01*
X169732Y220897D01*
X169743Y220928D01*
X169759Y220955D01*
X169795Y221076D01*
X169838Y221194D01*
X169841Y221227D01*
X169850Y221258D01*
X169855Y221383D01*
X169866Y221509D01*
X169861Y221534D01*
X169862Y221573D01*
X169795Y221881D01*
X169777Y221916D01*
X169772Y221941D01*
X168999Y223806D01*
X168999Y226194D01*
X169922Y228422D01*
X169937Y228475D01*
X169960Y228525D01*
X169978Y228627D01*
X170005Y228726D01*
X170006Y228782D01*
X170016Y228836D01*
X170008Y228939D01*
X170009Y229042D01*
X169996Y229095D01*
X169992Y229150D01*
X169959Y229248D01*
X169934Y229348D01*
X169908Y229397D01*
X169890Y229449D01*
X169834Y229535D01*
X169785Y229626D01*
X169747Y229667D01*
X169717Y229713D01*
X169640Y229782D01*
X169570Y229858D01*
X169524Y229887D01*
X169483Y229924D01*
X169392Y229972D01*
X169305Y230028D01*
X169252Y230045D01*
X169204Y230071D01*
X169140Y230082D01*
X169005Y230127D01*
X168832Y230138D01*
X168768Y230149D01*
X141139Y230149D01*
X125549Y245739D01*
X125549Y255642D01*
X125544Y255681D01*
X125547Y255720D01*
X125524Y255837D01*
X125509Y255955D01*
X125495Y255992D01*
X125488Y256030D01*
X125437Y256138D01*
X125392Y256248D01*
X125369Y256280D01*
X125353Y256315D01*
X125276Y256407D01*
X125206Y256503D01*
X125175Y256528D01*
X125150Y256558D01*
X125096Y256593D01*
X124961Y256702D01*
X124833Y256761D01*
X124778Y256797D01*
X124418Y256946D01*
X121746Y259618D01*
X120299Y263110D01*
X120299Y281890D01*
X121746Y285382D01*
X124418Y288054D01*
X127910Y289501D01*
X131690Y289501D01*
X135182Y288054D01*
X137854Y285382D01*
X139301Y281890D01*
X139301Y263110D01*
X137854Y259618D01*
X135182Y256946D01*
X134822Y256797D01*
X134788Y256777D01*
X134751Y256765D01*
X134651Y256699D01*
X134548Y256640D01*
X134520Y256613D01*
X134487Y256591D01*
X134407Y256503D01*
X134322Y256420D01*
X134302Y256386D01*
X134276Y256357D01*
X134220Y256252D01*
X134159Y256150D01*
X134147Y256113D01*
X134129Y256078D01*
X134118Y256014D01*
X134068Y255848D01*
X134062Y255707D01*
X134051Y255642D01*
X134051Y249778D01*
X134065Y249669D01*
X134070Y249559D01*
X134084Y249513D01*
X134091Y249465D01*
X134131Y249363D01*
X134164Y249258D01*
X134186Y249227D01*
X134208Y249172D01*
X134394Y248918D01*
X134409Y248906D01*
X134417Y248895D01*
X144295Y239017D01*
X144382Y238949D01*
X144463Y238876D01*
X144506Y238853D01*
X144544Y238823D01*
X144645Y238780D01*
X144743Y238729D01*
X144780Y238722D01*
X144834Y238699D01*
X145146Y238651D01*
X145165Y238653D01*
X145178Y238651D01*
X182754Y238651D01*
X182863Y238665D01*
X182973Y238670D01*
X183019Y238684D01*
X183067Y238691D01*
X183092Y238701D01*
X192100Y238701D01*
X192101Y238700D01*
X192192Y238621D01*
X192225Y238604D01*
X192255Y238581D01*
X192366Y238533D01*
X192473Y238479D01*
X192510Y238471D01*
X192545Y238456D01*
X192664Y238438D01*
X192782Y238413D01*
X192819Y238414D01*
X192857Y238409D01*
X192977Y238421D01*
X193097Y238426D01*
X193125Y238436D01*
X193171Y238440D01*
X193466Y238550D01*
X193493Y238568D01*
X193513Y238576D01*
X194019Y238868D01*
X194666Y239041D01*
X200001Y239041D01*
X200001Y226250D01*
X200017Y226125D01*
X200026Y226000D01*
X200037Y225969D01*
X200041Y225937D01*
X200087Y225820D01*
X200128Y225701D01*
X200146Y225674D01*
X200158Y225644D01*
X200232Y225543D01*
X200301Y225437D01*
X200325Y225416D01*
X200344Y225390D01*
X200442Y225310D01*
X200535Y225226D01*
X200564Y225211D01*
X200589Y225190D01*
X200703Y225138D01*
X200815Y225079D01*
X200840Y225075D01*
X200875Y225058D01*
X201186Y225003D01*
X201225Y225005D01*
X201250Y225001D01*
X203750Y225001D01*
X203875Y225017D01*
X204000Y225026D01*
X204031Y225037D01*
X204063Y225041D01*
X204180Y225087D01*
X204299Y225128D01*
X204326Y225146D01*
X204356Y225158D01*
X204457Y225232D01*
X204563Y225301D01*
X204584Y225325D01*
X204610Y225344D01*
X204690Y225442D01*
X204774Y225535D01*
X204789Y225564D01*
X204810Y225589D01*
X204862Y225703D01*
X204921Y225815D01*
X204925Y225840D01*
X204942Y225875D01*
X204998Y226186D01*
X204995Y226225D01*
X204999Y226250D01*
X204999Y239041D01*
X210334Y239041D01*
X210981Y238868D01*
X211423Y238612D01*
X211534Y238566D01*
X211643Y238512D01*
X211679Y238505D01*
X211714Y238490D01*
X211834Y238473D01*
X211952Y238448D01*
X211989Y238450D01*
X212026Y238445D01*
X212146Y238458D01*
X212267Y238464D01*
X212303Y238475D01*
X212340Y238479D01*
X212453Y238522D01*
X212568Y238558D01*
X212592Y238575D01*
X212635Y238591D01*
X212893Y238774D01*
X212913Y238798D01*
X212917Y238801D01*
X221679Y238801D01*
X222851Y237629D01*
X222851Y231371D01*
X222113Y230633D01*
X222036Y230534D01*
X221954Y230438D01*
X221939Y230409D01*
X221920Y230384D01*
X221870Y230268D01*
X221814Y230155D01*
X221808Y230124D01*
X221795Y230094D01*
X221776Y229969D01*
X221751Y229846D01*
X221752Y229814D01*
X221747Y229782D01*
X221760Y229657D01*
X221766Y229531D01*
X221776Y229500D01*
X221779Y229468D01*
X221823Y229350D01*
X221860Y229230D01*
X221875Y229209D01*
X221889Y229172D01*
X222069Y228913D01*
X222098Y228888D01*
X222113Y228867D01*
X222363Y228617D01*
X222450Y228549D01*
X222531Y228476D01*
X222574Y228453D01*
X222612Y228423D01*
X222713Y228380D01*
X222811Y228329D01*
X222848Y228322D01*
X222902Y228299D01*
X223214Y228251D01*
X223233Y228253D01*
X223246Y228251D01*
X228847Y228251D01*
X230501Y226597D01*
X230600Y226520D01*
X230696Y226438D01*
X230724Y226423D01*
X230750Y226404D01*
X230866Y226354D01*
X230979Y226298D01*
X231010Y226292D01*
X231040Y226279D01*
X231165Y226260D01*
X231288Y226235D01*
X231320Y226236D01*
X231352Y226231D01*
X231477Y226244D01*
X231603Y226250D01*
X231634Y226260D01*
X231666Y226263D01*
X231784Y226307D01*
X231904Y226344D01*
X231925Y226359D01*
X231962Y226372D01*
X232221Y226552D01*
X232234Y226568D01*
X232241Y226572D01*
X232253Y226587D01*
X232267Y226597D01*
X232287Y226617D01*
X232364Y226716D01*
X232446Y226812D01*
X232461Y226841D01*
X232480Y226866D01*
X232530Y226982D01*
X232586Y227095D01*
X232592Y227126D01*
X232605Y227156D01*
X232624Y227281D01*
X232649Y227404D01*
X232648Y227436D01*
X232653Y227468D01*
X232640Y227593D01*
X232634Y227719D01*
X232624Y227750D01*
X232621Y227782D01*
X232577Y227900D01*
X232540Y228020D01*
X232525Y228041D01*
X232511Y228078D01*
X232331Y228337D01*
X232302Y228362D01*
X232287Y228383D01*
X231999Y228671D01*
X231999Y236329D01*
X233171Y237501D01*
X241829Y237501D01*
X243213Y236117D01*
X243300Y236049D01*
X243381Y235976D01*
X243424Y235953D01*
X243462Y235924D01*
X243563Y235880D01*
X243661Y235829D01*
X243698Y235822D01*
X243752Y235799D01*
X244064Y235751D01*
X244083Y235753D01*
X244096Y235751D01*
X246250Y235751D01*
X246375Y235767D01*
X246500Y235776D01*
X246531Y235787D01*
X246563Y235791D01*
X246680Y235837D01*
X246799Y235878D01*
X246826Y235896D01*
X246856Y235908D01*
X246957Y235982D01*
X247063Y236051D01*
X247084Y236075D01*
X247110Y236094D01*
X247190Y236192D01*
X247274Y236285D01*
X247289Y236314D01*
X247310Y236339D01*
X247363Y236453D01*
X247421Y236564D01*
X247425Y236590D01*
X247442Y236625D01*
X247498Y236936D01*
X247495Y236975D01*
X247499Y237000D01*
X247499Y237829D01*
X248037Y238367D01*
X248124Y238479D01*
X248214Y238589D01*
X248220Y238603D01*
X248230Y238616D01*
X248286Y238746D01*
X248346Y238875D01*
X248348Y238891D01*
X248355Y238906D01*
X248376Y239047D01*
X248401Y239186D01*
X248400Y239202D01*
X248403Y239218D01*
X248388Y239359D01*
X248378Y239500D01*
X248373Y239516D01*
X248371Y239532D01*
X248322Y239664D01*
X248276Y239799D01*
X248267Y239813D01*
X248262Y239828D01*
X248181Y239944D01*
X248103Y240063D01*
X248091Y240074D01*
X248081Y240087D01*
X247974Y240179D01*
X247869Y240274D01*
X247855Y240282D01*
X247842Y240292D01*
X247715Y240355D01*
X247589Y240421D01*
X247576Y240423D01*
X247559Y240432D01*
X247250Y240496D01*
X247191Y240493D01*
X247154Y240499D01*
X232921Y240499D01*
X231749Y241671D01*
X231749Y262250D01*
X231733Y262375D01*
X231724Y262500D01*
X231713Y262531D01*
X231709Y262563D01*
X231663Y262680D01*
X231622Y262799D01*
X231604Y262826D01*
X231592Y262856D01*
X231518Y262957D01*
X231449Y263063D01*
X231425Y263084D01*
X231406Y263110D01*
X231308Y263190D01*
X231215Y263274D01*
X231186Y263289D01*
X231161Y263310D01*
X231047Y263363D01*
X230936Y263421D01*
X230910Y263425D01*
X230875Y263442D01*
X230564Y263498D01*
X230525Y263495D01*
X230500Y263499D01*
X225697Y263499D01*
X225658Y263494D01*
X225619Y263497D01*
X225502Y263474D01*
X225384Y263459D01*
X225347Y263445D01*
X225309Y263438D01*
X225201Y263387D01*
X225091Y263342D01*
X225059Y263319D01*
X225024Y263303D01*
X224932Y263226D01*
X224836Y263156D01*
X224812Y263126D01*
X224782Y263100D01*
X224746Y263045D01*
X224637Y262911D01*
X224578Y262783D01*
X224542Y262728D01*
X223254Y259618D01*
X220582Y256946D01*
X217090Y255499D01*
X213310Y255499D01*
X209818Y256946D01*
X207146Y259618D01*
X205699Y263110D01*
X205699Y281890D01*
X207146Y285382D01*
X209818Y288054D01*
X213310Y289501D01*
X217090Y289501D01*
X220582Y288054D01*
X223254Y285382D01*
X224542Y282272D01*
X224562Y282238D01*
X224574Y282201D01*
X224640Y282101D01*
X224699Y281998D01*
X224726Y281970D01*
X224748Y281937D01*
X224836Y281857D01*
X224919Y281772D01*
X224953Y281752D01*
X224982Y281726D01*
X225087Y281670D01*
X225189Y281609D01*
X225226Y281597D01*
X225261Y281579D01*
X225325Y281568D01*
X225491Y281518D01*
X225632Y281512D01*
X225697Y281501D01*
X230500Y281501D01*
X230625Y281517D01*
X230750Y281526D01*
X230781Y281537D01*
X230813Y281541D01*
X230930Y281587D01*
X231049Y281628D01*
X231076Y281646D01*
X231106Y281658D01*
X231207Y281732D01*
X231313Y281801D01*
X231334Y281825D01*
X231360Y281844D01*
X231440Y281942D01*
X231524Y282035D01*
X231539Y282064D01*
X231560Y282089D01*
X231613Y282203D01*
X231671Y282314D01*
X231675Y282340D01*
X231692Y282375D01*
X231748Y282686D01*
X231745Y282725D01*
X231749Y282750D01*
X231749Y303329D01*
X232921Y304501D01*
X259579Y304501D01*
X260751Y303329D01*
X260751Y241671D01*
X260213Y241133D01*
X260126Y241021D01*
X260036Y240911D01*
X260030Y240897D01*
X260020Y240884D01*
X259964Y240754D01*
X259904Y240625D01*
X259902Y240609D01*
X259895Y240594D01*
X259874Y240453D01*
X259849Y240314D01*
X259850Y240298D01*
X259847Y240282D01*
X259862Y240141D01*
X259872Y240000D01*
X259877Y239984D01*
X259879Y239968D01*
X259928Y239836D01*
X259974Y239701D01*
X259983Y239687D01*
X259988Y239672D01*
X260069Y239556D01*
X260147Y239437D01*
X260159Y239426D01*
X260169Y239413D01*
X260276Y239321D01*
X260381Y239226D01*
X260395Y239218D01*
X260408Y239208D01*
X260535Y239145D01*
X260661Y239079D01*
X260674Y239077D01*
X260691Y239068D01*
X261000Y239004D01*
X261059Y239007D01*
X261096Y239001D01*
X264329Y239001D01*
X265501Y237829D01*
X265501Y226171D01*
X264329Y224999D01*
X248671Y224999D01*
X247499Y226171D01*
X247499Y228000D01*
X247483Y228125D01*
X247474Y228250D01*
X247463Y228281D01*
X247459Y228313D01*
X247413Y228430D01*
X247372Y228549D01*
X247354Y228576D01*
X247342Y228606D01*
X247268Y228707D01*
X247199Y228813D01*
X247175Y228834D01*
X247156Y228860D01*
X247058Y228940D01*
X246965Y229024D01*
X246936Y229039D01*
X246911Y229060D01*
X246797Y229113D01*
X246686Y229171D01*
X246660Y229175D01*
X246625Y229192D01*
X246314Y229248D01*
X246275Y229245D01*
X246250Y229249D01*
X244096Y229249D01*
X243987Y229235D01*
X243877Y229230D01*
X243831Y229216D01*
X243783Y229209D01*
X243681Y229169D01*
X243576Y229136D01*
X243545Y229114D01*
X243490Y229092D01*
X243236Y228906D01*
X243224Y228891D01*
X243213Y228883D01*
X242713Y228383D01*
X242636Y228284D01*
X242554Y228188D01*
X242539Y228159D01*
X242520Y228134D01*
X242470Y228018D01*
X242414Y227905D01*
X242408Y227874D01*
X242395Y227844D01*
X242376Y227719D01*
X242351Y227596D01*
X242352Y227564D01*
X242347Y227532D01*
X242360Y227407D01*
X242366Y227281D01*
X242376Y227250D01*
X242379Y227218D01*
X242423Y227100D01*
X242460Y226980D01*
X242475Y226959D01*
X242489Y226922D01*
X242669Y226663D01*
X242698Y226638D01*
X242713Y226617D01*
X243001Y226329D01*
X243001Y218671D01*
X241829Y217499D01*
X233171Y217499D01*
X231787Y218883D01*
X231700Y218951D01*
X231619Y219024D01*
X231576Y219047D01*
X231538Y219076D01*
X231437Y219120D01*
X231339Y219171D01*
X231302Y219178D01*
X231248Y219201D01*
X230936Y219249D01*
X230917Y219247D01*
X230904Y219249D01*
X228653Y219249D01*
X226519Y221383D01*
X226433Y221451D01*
X226351Y221524D01*
X226308Y221547D01*
X226270Y221577D01*
X226169Y221620D01*
X226072Y221671D01*
X226035Y221678D01*
X225980Y221701D01*
X225668Y221749D01*
X225649Y221747D01*
X225636Y221749D01*
X223510Y221749D01*
X223369Y221731D01*
X223228Y221717D01*
X223213Y221711D01*
X223197Y221709D01*
X223065Y221657D01*
X222932Y221608D01*
X222919Y221598D01*
X222904Y221592D01*
X222789Y221508D01*
X222673Y221428D01*
X222662Y221415D01*
X222649Y221406D01*
X222560Y221296D01*
X222467Y221188D01*
X222460Y221174D01*
X222450Y221161D01*
X222391Y221033D01*
X222328Y220905D01*
X222325Y220889D01*
X222318Y220875D01*
X222293Y220735D01*
X222264Y220596D01*
X222265Y220580D01*
X222262Y220564D01*
X222273Y220423D01*
X222280Y220281D01*
X222285Y220266D01*
X222286Y220250D01*
X222332Y220115D01*
X222374Y219980D01*
X222381Y219969D01*
X222388Y219951D01*
X222561Y219687D01*
X222605Y219647D01*
X222626Y219617D01*
X222883Y219360D01*
X223218Y218781D01*
X223391Y218134D01*
X223391Y216749D01*
X217300Y216749D01*
X217176Y216734D01*
X217050Y216724D01*
X217019Y216714D01*
X216987Y216710D01*
X216871Y216663D01*
X216751Y216622D01*
X216724Y216605D01*
X216694Y216593D01*
X216593Y216518D01*
X216488Y216449D01*
X216466Y216425D01*
X216440Y216406D01*
X216360Y216309D01*
X216276Y216215D01*
X216261Y216186D01*
X216240Y216161D01*
X216188Y216047D01*
X216129Y215936D01*
X216125Y215910D01*
X216109Y215875D01*
X216053Y215564D01*
X216056Y215525D01*
X216051Y215500D01*
X216067Y215375D01*
X216076Y215249D01*
X216087Y215219D01*
X216091Y215187D01*
X216138Y215070D01*
X216178Y214951D01*
X216196Y214924D01*
X216208Y214894D01*
X216282Y214792D01*
X216352Y214687D01*
X216375Y214665D01*
X216395Y214639D01*
X216492Y214560D01*
X216585Y214475D01*
X216614Y214460D01*
X216639Y214440D01*
X216753Y214387D01*
X216865Y214329D01*
X216890Y214324D01*
X216926Y214308D01*
X217236Y214252D01*
X217275Y214255D01*
X217300Y214251D01*
X223391Y214251D01*
X223391Y212866D01*
X223245Y212323D01*
X223228Y212193D01*
X223205Y212064D01*
X223207Y212037D01*
X223203Y212011D01*
X223218Y211880D01*
X223228Y211750D01*
X223237Y211724D01*
X223240Y211697D01*
X223288Y211575D01*
X223330Y211451D01*
X223345Y211428D01*
X223355Y211403D01*
X223431Y211297D01*
X223503Y211187D01*
X223523Y211169D01*
X223539Y211147D01*
X223640Y211064D01*
X223737Y210976D01*
X223761Y210963D01*
X223782Y210946D01*
X223900Y210890D01*
X224017Y210829D01*
X224038Y210825D01*
X224067Y210812D01*
X224377Y210753D01*
X224423Y210756D01*
X224452Y210751D01*
X238847Y210751D01*
X263251Y186347D01*
X263251Y156153D01*
X260981Y153883D01*
X254481Y147383D01*
X254394Y147271D01*
X254304Y147161D01*
X254297Y147147D01*
X254287Y147134D01*
X254231Y147003D01*
X254172Y146875D01*
X254169Y146859D01*
X254163Y146844D01*
X254141Y146703D01*
X254116Y146564D01*
X254118Y146548D01*
X254115Y146532D01*
X254129Y146391D01*
X254140Y146250D01*
X254145Y146234D01*
X254147Y146218D01*
X254196Y146085D01*
X254242Y145951D01*
X254251Y145937D01*
X254256Y145922D01*
X254337Y145806D01*
X254415Y145687D01*
X254427Y145676D01*
X254436Y145663D01*
X254543Y145571D01*
X254649Y145476D01*
X254663Y145468D01*
X254676Y145458D01*
X254802Y145395D01*
X254928Y145329D01*
X254941Y145327D01*
X254959Y145318D01*
X255268Y145254D01*
X255327Y145257D01*
X255364Y145251D01*
X256044Y145251D01*
X257974Y144451D01*
X259451Y142974D01*
X260251Y141044D01*
X260251Y139864D01*
X260265Y139755D01*
X260270Y139645D01*
X260284Y139599D01*
X260291Y139551D01*
X260331Y139449D01*
X260364Y139344D01*
X260386Y139313D01*
X260408Y139258D01*
X260594Y139004D01*
X260609Y138991D01*
X260617Y138981D01*
X269541Y130057D01*
X269541Y91190D01*
X269557Y91065D01*
X269566Y90940D01*
X269577Y90909D01*
X269581Y90877D01*
X269627Y90760D01*
X269668Y90641D01*
X269686Y90614D01*
X269698Y90584D01*
X269772Y90483D01*
X269841Y90377D01*
X269865Y90356D01*
X269884Y90330D01*
X269982Y90250D01*
X270075Y90166D01*
X270104Y90151D01*
X270129Y90130D01*
X270243Y90077D01*
X270354Y90019D01*
X270380Y90015D01*
X270415Y89998D01*
X270726Y89942D01*
X270765Y89945D01*
X270790Y89941D01*
X279819Y89941D01*
X280991Y88769D01*
X280991Y74411D01*
X279819Y73239D01*
X252761Y73239D01*
G37*
%LPD*%
%LPC*%
G36*
X277089Y215419D02*
X277089Y215419D01*
X277085Y215421D01*
X277030Y215431D01*
X276824Y215487D01*
X276709Y215489D01*
X276650Y215499D01*
X270671Y215499D01*
X269499Y216671D01*
X269499Y228329D01*
X270671Y229501D01*
X276650Y229501D01*
X276673Y229504D01*
X276696Y229502D01*
X276751Y229514D01*
X276963Y229541D01*
X277063Y229581D01*
X283420Y229581D01*
X283545Y229597D01*
X283670Y229606D01*
X283701Y229617D01*
X283733Y229621D01*
X283850Y229667D01*
X283969Y229708D01*
X283996Y229726D01*
X284026Y229738D01*
X284127Y229812D01*
X284233Y229881D01*
X284254Y229905D01*
X284280Y229924D01*
X284360Y230022D01*
X284444Y230115D01*
X284459Y230144D01*
X284480Y230169D01*
X284533Y230283D01*
X284591Y230394D01*
X284595Y230420D01*
X284612Y230455D01*
X284668Y230766D01*
X284665Y230805D01*
X284669Y230830D01*
X284669Y239250D01*
X284653Y239375D01*
X284644Y239500D01*
X284633Y239531D01*
X284629Y239563D01*
X284583Y239680D01*
X284542Y239799D01*
X284524Y239826D01*
X284512Y239856D01*
X284438Y239957D01*
X284369Y240063D01*
X284345Y240084D01*
X284326Y240110D01*
X284228Y240190D01*
X284135Y240274D01*
X284106Y240289D01*
X284081Y240310D01*
X283967Y240363D01*
X283856Y240421D01*
X283830Y240425D01*
X283795Y240442D01*
X283484Y240498D01*
X283445Y240495D01*
X283420Y240499D01*
X275921Y240499D01*
X274749Y241671D01*
X274749Y303329D01*
X275921Y304501D01*
X302579Y304501D01*
X303751Y303329D01*
X303751Y241671D01*
X302579Y240499D01*
X300080Y240499D01*
X299955Y240483D01*
X299830Y240474D01*
X299799Y240463D01*
X299767Y240459D01*
X299650Y240413D01*
X299531Y240372D01*
X299504Y240354D01*
X299474Y240342D01*
X299373Y240268D01*
X299267Y240199D01*
X299246Y240175D01*
X299220Y240156D01*
X299140Y240058D01*
X299056Y239965D01*
X299041Y239936D01*
X299020Y239911D01*
X298967Y239797D01*
X298909Y239686D01*
X298905Y239660D01*
X298888Y239625D01*
X298832Y239314D01*
X298835Y239275D01*
X298831Y239250D01*
X298831Y221092D01*
X297753Y218489D01*
X295761Y216497D01*
X293158Y215419D01*
X277089Y215419D01*
G37*
%LPD*%
G36*
X164289Y125232D02*
X164289Y125232D01*
X164392Y125231D01*
X164445Y125244D01*
X164500Y125248D01*
X164598Y125281D01*
X164698Y125306D01*
X164747Y125332D01*
X164799Y125350D01*
X164885Y125406D01*
X164976Y125455D01*
X165017Y125493D01*
X165063Y125523D01*
X165132Y125600D01*
X165208Y125670D01*
X165237Y125716D01*
X165274Y125757D01*
X165322Y125848D01*
X165378Y125935D01*
X165395Y125987D01*
X165421Y126036D01*
X165424Y126053D01*
X166671Y127301D01*
X169000Y127301D01*
X169125Y127317D01*
X169250Y127326D01*
X169281Y127337D01*
X169313Y127341D01*
X169430Y127387D01*
X169549Y127428D01*
X169576Y127446D01*
X169606Y127458D01*
X169707Y127532D01*
X169813Y127601D01*
X169834Y127625D01*
X169860Y127644D01*
X169940Y127742D01*
X170024Y127835D01*
X170039Y127864D01*
X170060Y127889D01*
X170113Y128003D01*
X170171Y128114D01*
X170175Y128140D01*
X170192Y128175D01*
X170248Y128486D01*
X170245Y128525D01*
X170249Y128550D01*
X170249Y137500D01*
X170246Y137523D01*
X170248Y137546D01*
X170236Y137601D01*
X170209Y137813D01*
X170167Y137919D01*
X170154Y137978D01*
X169749Y138956D01*
X169749Y141044D01*
X170568Y143022D01*
X170583Y143075D01*
X170606Y143125D01*
X170624Y143227D01*
X170651Y143326D01*
X170652Y143382D01*
X170662Y143436D01*
X170654Y143539D01*
X170655Y143642D01*
X170642Y143695D01*
X170638Y143750D01*
X170605Y143848D01*
X170580Y143948D01*
X170554Y143997D01*
X170536Y144049D01*
X170480Y144135D01*
X170431Y144226D01*
X170393Y144267D01*
X170363Y144313D01*
X170287Y144382D01*
X170217Y144458D01*
X170170Y144487D01*
X170129Y144524D01*
X170038Y144572D01*
X169951Y144628D01*
X169899Y144645D01*
X169850Y144671D01*
X169786Y144682D01*
X169651Y144727D01*
X169479Y144738D01*
X169414Y144749D01*
X168956Y144749D01*
X167026Y145549D01*
X165549Y147026D01*
X164749Y148956D01*
X164749Y151044D01*
X165549Y152974D01*
X167026Y154451D01*
X168582Y155096D01*
X168705Y155166D01*
X168830Y155233D01*
X168841Y155244D01*
X168856Y155252D01*
X168957Y155351D01*
X169061Y155448D01*
X169070Y155461D01*
X169081Y155473D01*
X169155Y155594D01*
X169232Y155713D01*
X169237Y155729D01*
X169245Y155742D01*
X169286Y155878D01*
X169330Y156013D01*
X169331Y156029D01*
X169336Y156045D01*
X169341Y156186D01*
X169350Y156328D01*
X169347Y156344D01*
X169348Y156360D01*
X169318Y156499D01*
X169291Y156638D01*
X169284Y156652D01*
X169281Y156668D01*
X169217Y156794D01*
X169156Y156923D01*
X169146Y156935D01*
X169138Y156950D01*
X169045Y157056D01*
X168954Y157165D01*
X168943Y157172D01*
X168930Y157187D01*
X168669Y157364D01*
X168613Y157384D01*
X168582Y157404D01*
X167026Y158049D01*
X165549Y159526D01*
X164749Y161456D01*
X164749Y163544D01*
X165549Y165474D01*
X167026Y166951D01*
X168582Y167596D01*
X168705Y167666D01*
X168830Y167733D01*
X168841Y167744D01*
X168856Y167752D01*
X168957Y167852D01*
X169061Y167948D01*
X169070Y167961D01*
X169081Y167973D01*
X169155Y168094D01*
X169232Y168213D01*
X169237Y168229D01*
X169245Y168242D01*
X169286Y168378D01*
X169330Y168513D01*
X169331Y168529D01*
X169336Y168545D01*
X169341Y168686D01*
X169350Y168828D01*
X169347Y168844D01*
X169348Y168860D01*
X169318Y168999D01*
X169291Y169138D01*
X169284Y169152D01*
X169281Y169168D01*
X169217Y169295D01*
X169156Y169423D01*
X169146Y169435D01*
X169139Y169450D01*
X169045Y169556D01*
X168954Y169665D01*
X168943Y169672D01*
X168930Y169687D01*
X168669Y169864D01*
X168613Y169884D01*
X168582Y169904D01*
X167026Y170549D01*
X165549Y172026D01*
X164749Y173956D01*
X164749Y176044D01*
X165630Y178171D01*
X165644Y178223D01*
X165667Y178272D01*
X165669Y178283D01*
X165674Y178295D01*
X165689Y178386D01*
X165713Y178475D01*
X165714Y178534D01*
X165722Y178582D01*
X165722Y178590D01*
X165724Y178606D01*
X165716Y178698D01*
X165717Y178791D01*
X165702Y178852D01*
X165699Y178897D01*
X165697Y178902D01*
X165695Y178921D01*
X165664Y179008D01*
X165642Y179097D01*
X165638Y179105D01*
X165672Y179088D01*
X165677Y179087D01*
X165682Y179085D01*
X165832Y179055D01*
X165981Y179024D01*
X165986Y179024D01*
X165992Y179023D01*
X166144Y179032D01*
X166296Y179040D01*
X166301Y179041D01*
X166307Y179042D01*
X166453Y179089D01*
X166597Y179134D01*
X166601Y179136D01*
X166607Y179138D01*
X166873Y179307D01*
X166912Y179352D01*
X166961Y179386D01*
X167026Y179451D01*
X168956Y180251D01*
X171044Y180251D01*
X172974Y179451D01*
X174451Y177974D01*
X175251Y176044D01*
X175251Y174864D01*
X175265Y174755D01*
X175270Y174645D01*
X175284Y174599D01*
X175291Y174551D01*
X175331Y174449D01*
X175364Y174344D01*
X175386Y174313D01*
X175408Y174258D01*
X175594Y174004D01*
X175609Y173991D01*
X175617Y173981D01*
X178481Y171117D01*
X178567Y171049D01*
X178649Y170976D01*
X178692Y170953D01*
X178730Y170923D01*
X178831Y170880D01*
X178928Y170829D01*
X178965Y170822D01*
X179020Y170799D01*
X179332Y170751D01*
X179351Y170753D01*
X179364Y170751D01*
X180410Y170751D01*
X180535Y170767D01*
X180660Y170776D01*
X180691Y170787D01*
X180723Y170791D01*
X180840Y170837D01*
X180959Y170878D01*
X180986Y170896D01*
X181016Y170908D01*
X181117Y170982D01*
X181223Y171051D01*
X181244Y171075D01*
X181270Y171094D01*
X181350Y171192D01*
X181403Y171251D01*
X187700Y171251D01*
X194000Y171251D01*
X194041Y171187D01*
X194065Y171166D01*
X194084Y171140D01*
X194182Y171060D01*
X194275Y170976D01*
X194304Y170961D01*
X194329Y170940D01*
X194443Y170887D01*
X194554Y170829D01*
X194580Y170825D01*
X194615Y170808D01*
X194926Y170752D01*
X194965Y170755D01*
X194990Y170751D01*
X214204Y170751D01*
X214313Y170765D01*
X214423Y170770D01*
X214469Y170784D01*
X214517Y170791D01*
X214619Y170831D01*
X214724Y170864D01*
X214755Y170886D01*
X214810Y170908D01*
X215064Y171094D01*
X215076Y171109D01*
X215087Y171117D01*
X216421Y172451D01*
X218500Y172451D01*
X218625Y172467D01*
X218750Y172476D01*
X218781Y172487D01*
X218813Y172491D01*
X218930Y172537D01*
X219049Y172578D01*
X219076Y172596D01*
X219106Y172608D01*
X219207Y172682D01*
X219313Y172751D01*
X219334Y172775D01*
X219360Y172794D01*
X219440Y172892D01*
X219524Y172985D01*
X219539Y173014D01*
X219560Y173039D01*
X219613Y173153D01*
X219671Y173264D01*
X219675Y173290D01*
X219692Y173325D01*
X219748Y173636D01*
X219745Y173675D01*
X219749Y173700D01*
X219749Y177636D01*
X219735Y177745D01*
X219730Y177855D01*
X219716Y177901D01*
X219709Y177949D01*
X219669Y178051D01*
X219636Y178156D01*
X219614Y178187D01*
X219592Y178242D01*
X219406Y178496D01*
X219391Y178509D01*
X219383Y178519D01*
X209019Y188883D01*
X208933Y188951D01*
X208851Y189024D01*
X208808Y189047D01*
X208770Y189077D01*
X208669Y189120D01*
X208572Y189171D01*
X208535Y189178D01*
X208480Y189201D01*
X208168Y189249D01*
X208149Y189247D01*
X208136Y189249D01*
X204440Y189249D01*
X204334Y189236D01*
X204228Y189231D01*
X204178Y189216D01*
X204127Y189209D01*
X204028Y189170D01*
X203926Y189138D01*
X203882Y189112D01*
X203834Y189092D01*
X203748Y189029D01*
X203657Y188973D01*
X203621Y188936D01*
X203580Y188906D01*
X203512Y188823D01*
X203438Y188746D01*
X203413Y188701D01*
X203380Y188661D01*
X203336Y188564D01*
X203283Y188471D01*
X203270Y188422D01*
X203249Y188375D01*
X203230Y188270D01*
X203202Y188166D01*
X203202Y188115D01*
X203193Y188064D01*
X203201Y187958D01*
X203200Y187851D01*
X203212Y187801D01*
X203216Y187750D01*
X203251Y187648D01*
X203277Y187545D01*
X203301Y187500D01*
X203318Y187451D01*
X203377Y187361D01*
X203428Y187268D01*
X203457Y187241D01*
X203491Y187187D01*
X203604Y187085D01*
X204498Y186191D01*
X205132Y185243D01*
X205568Y184189D01*
X205656Y183749D01*
X200000Y183749D01*
X194344Y183749D01*
X194432Y184189D01*
X194868Y185243D01*
X195502Y186191D01*
X196363Y187052D01*
X196420Y187094D01*
X196453Y187134D01*
X196492Y187168D01*
X196552Y187256D01*
X196620Y187339D01*
X196641Y187385D01*
X196670Y187428D01*
X196707Y187528D01*
X196751Y187625D01*
X196761Y187676D01*
X196778Y187724D01*
X196788Y187831D01*
X196807Y187936D01*
X196803Y187987D01*
X196808Y188038D01*
X196792Y188144D01*
X196784Y188250D01*
X196767Y188299D01*
X196759Y188350D01*
X196716Y188448D01*
X196682Y188549D01*
X196654Y188592D01*
X196633Y188639D01*
X196567Y188723D01*
X196509Y188813D01*
X196470Y188847D01*
X196439Y188888D01*
X196354Y188953D01*
X196275Y189024D01*
X196229Y189048D01*
X196188Y189080D01*
X196090Y189121D01*
X195995Y189171D01*
X195956Y189178D01*
X195898Y189203D01*
X195586Y189249D01*
X195570Y189247D01*
X195560Y189249D01*
X166490Y189249D01*
X166365Y189233D01*
X166240Y189224D01*
X166209Y189213D01*
X166177Y189209D01*
X166060Y189163D01*
X165941Y189122D01*
X165914Y189104D01*
X165884Y189092D01*
X165783Y189018D01*
X165677Y188949D01*
X165656Y188925D01*
X165630Y188906D01*
X165550Y188808D01*
X165466Y188715D01*
X165451Y188686D01*
X165430Y188661D01*
X165377Y188547D01*
X165319Y188436D01*
X165315Y188410D01*
X165298Y188375D01*
X165242Y188064D01*
X165245Y188025D01*
X165241Y188000D01*
X165241Y186499D01*
X157950Y186499D01*
X157825Y186483D01*
X157700Y186474D01*
X157669Y186463D01*
X157637Y186459D01*
X157521Y186413D01*
X157401Y186372D01*
X157374Y186354D01*
X157344Y186342D01*
X157243Y186268D01*
X157138Y186199D01*
X157116Y186175D01*
X157090Y186156D01*
X157010Y186058D01*
X156926Y185965D01*
X156911Y185936D01*
X156890Y185911D01*
X156862Y185849D01*
X156844Y185842D01*
X156743Y185768D01*
X156637Y185699D01*
X156616Y185675D01*
X156590Y185656D01*
X156510Y185558D01*
X156426Y185465D01*
X156411Y185436D01*
X156390Y185411D01*
X156337Y185297D01*
X156279Y185185D01*
X156275Y185160D01*
X156258Y185125D01*
X156202Y184814D01*
X156205Y184775D01*
X156201Y184750D01*
X156201Y179459D01*
X152366Y179459D01*
X151719Y179632D01*
X151140Y179967D01*
X150667Y180440D01*
X150582Y180587D01*
X150493Y180704D01*
X150406Y180823D01*
X150397Y180830D01*
X150391Y180838D01*
X150276Y180929D01*
X150161Y181023D01*
X150152Y181027D01*
X150143Y181034D01*
X150009Y181093D01*
X149875Y181154D01*
X149864Y181156D01*
X149854Y181161D01*
X149710Y181184D01*
X149564Y181210D01*
X149553Y181209D01*
X149543Y181211D01*
X149397Y181198D01*
X149250Y181187D01*
X149239Y181183D01*
X149229Y181182D01*
X149091Y181133D01*
X148951Y181085D01*
X148942Y181079D01*
X148932Y181075D01*
X148811Y180993D01*
X148687Y180911D01*
X148680Y180903D01*
X148671Y180897D01*
X148574Y180787D01*
X148476Y180678D01*
X148471Y180668D01*
X148463Y180660D01*
X148397Y180528D01*
X148329Y180398D01*
X148328Y180389D01*
X148322Y180378D01*
X148255Y180070D01*
X148258Y180003D01*
X148251Y179963D01*
X148251Y140037D01*
X148269Y139892D01*
X148285Y139745D01*
X148289Y139735D01*
X148291Y139724D01*
X148345Y139588D01*
X148397Y139450D01*
X148404Y139441D01*
X148408Y139431D01*
X148495Y139313D01*
X148580Y139193D01*
X148588Y139186D01*
X148594Y139177D01*
X148709Y139084D01*
X148821Y138989D01*
X148830Y138984D01*
X148839Y138977D01*
X148973Y138916D01*
X149105Y138852D01*
X149116Y138850D01*
X149125Y138846D01*
X149270Y138820D01*
X149414Y138791D01*
X149425Y138792D01*
X149436Y138790D01*
X149583Y138801D01*
X149729Y138809D01*
X149740Y138813D01*
X149750Y138813D01*
X149890Y138861D01*
X150030Y138906D01*
X150039Y138912D01*
X150049Y138915D01*
X150173Y138996D01*
X150296Y139075D01*
X150302Y139082D01*
X150313Y139089D01*
X150524Y139322D01*
X150555Y139381D01*
X150582Y139413D01*
X150667Y139560D01*
X151140Y140033D01*
X151719Y140368D01*
X152366Y140541D01*
X155550Y140541D01*
X155729Y140564D01*
X155794Y140565D01*
X156251Y140656D01*
X156251Y136249D01*
X151203Y136249D01*
X151175Y136274D01*
X151146Y136289D01*
X151121Y136310D01*
X151007Y136363D01*
X150896Y136421D01*
X150870Y136425D01*
X150835Y136442D01*
X150524Y136498D01*
X150485Y136495D01*
X150460Y136499D01*
X149500Y136499D01*
X149375Y136483D01*
X149250Y136474D01*
X149219Y136463D01*
X149187Y136459D01*
X149070Y136413D01*
X148951Y136372D01*
X148924Y136354D01*
X148894Y136342D01*
X148793Y136268D01*
X148687Y136199D01*
X148666Y136175D01*
X148640Y136156D01*
X148560Y136058D01*
X148476Y135965D01*
X148461Y135936D01*
X148440Y135911D01*
X148387Y135797D01*
X148329Y135686D01*
X148325Y135660D01*
X148308Y135625D01*
X148252Y135314D01*
X148255Y135275D01*
X148251Y135250D01*
X148251Y134750D01*
X148267Y134625D01*
X148276Y134500D01*
X148287Y134469D01*
X148291Y134437D01*
X148337Y134320D01*
X148378Y134201D01*
X148396Y134174D01*
X148408Y134144D01*
X148482Y134043D01*
X148551Y133937D01*
X148575Y133916D01*
X148594Y133890D01*
X148692Y133810D01*
X148785Y133726D01*
X148814Y133711D01*
X148839Y133690D01*
X148953Y133637D01*
X149064Y133579D01*
X149090Y133575D01*
X149125Y133558D01*
X149436Y133502D01*
X149475Y133505D01*
X149500Y133501D01*
X150460Y133501D01*
X150585Y133517D01*
X150710Y133526D01*
X150741Y133536D01*
X150773Y133541D01*
X150890Y133587D01*
X151009Y133628D01*
X151036Y133646D01*
X151066Y133658D01*
X151167Y133732D01*
X151196Y133751D01*
X156251Y133751D01*
X156251Y129344D01*
X155794Y129435D01*
X155613Y129448D01*
X155550Y129459D01*
X152366Y129459D01*
X151719Y129632D01*
X151140Y129967D01*
X150667Y130440D01*
X150332Y131019D01*
X150254Y131314D01*
X150202Y131440D01*
X150154Y131568D01*
X150142Y131586D01*
X150134Y131606D01*
X150052Y131715D01*
X149974Y131827D01*
X149958Y131841D01*
X149945Y131859D01*
X149839Y131944D01*
X149735Y132033D01*
X149716Y132042D01*
X149699Y132056D01*
X149575Y132112D01*
X149452Y132172D01*
X149431Y132177D01*
X149411Y132185D01*
X149277Y132208D01*
X149143Y132236D01*
X149122Y132235D01*
X149100Y132239D01*
X148964Y132227D01*
X148828Y132220D01*
X148807Y132214D01*
X148786Y132212D01*
X148657Y132167D01*
X148527Y132126D01*
X148512Y132116D01*
X148488Y132108D01*
X148226Y131932D01*
X148191Y131893D01*
X148163Y131874D01*
X145981Y129691D01*
X144173Y127883D01*
X144086Y127771D01*
X143996Y127661D01*
X143990Y127647D01*
X143980Y127634D01*
X143924Y127504D01*
X143865Y127375D01*
X143862Y127359D01*
X143855Y127344D01*
X143834Y127203D01*
X143809Y127064D01*
X143810Y127048D01*
X143807Y127032D01*
X143822Y126891D01*
X143832Y126750D01*
X143838Y126734D01*
X143839Y126718D01*
X143888Y126586D01*
X143934Y126451D01*
X143943Y126437D01*
X143949Y126422D01*
X144029Y126307D01*
X144108Y126187D01*
X144120Y126176D01*
X144129Y126163D01*
X144235Y126071D01*
X144341Y125976D01*
X144356Y125968D01*
X144368Y125958D01*
X144495Y125895D01*
X144621Y125829D01*
X144634Y125827D01*
X144651Y125818D01*
X144960Y125754D01*
X145019Y125757D01*
X145056Y125751D01*
X158717Y125751D01*
X158740Y125754D01*
X158763Y125752D01*
X158818Y125764D01*
X159030Y125791D01*
X159137Y125833D01*
X159196Y125846D01*
X159802Y126097D01*
X161891Y126097D01*
X163772Y125318D01*
X163825Y125303D01*
X163875Y125280D01*
X163977Y125262D01*
X164076Y125235D01*
X164132Y125234D01*
X164186Y125224D01*
X164289Y125232D01*
G37*
G36*
X233335Y150017D02*
X233335Y150017D01*
X233460Y150026D01*
X233491Y150037D01*
X233523Y150041D01*
X233640Y150087D01*
X233759Y150128D01*
X233786Y150146D01*
X233816Y150158D01*
X233917Y150232D01*
X234023Y150301D01*
X234044Y150325D01*
X234070Y150344D01*
X234150Y150442D01*
X234234Y150535D01*
X234249Y150564D01*
X234270Y150589D01*
X234323Y150703D01*
X234381Y150815D01*
X234385Y150840D01*
X234402Y150875D01*
X234458Y151186D01*
X234455Y151225D01*
X234459Y151250D01*
X234459Y151251D01*
X235654Y151251D01*
X235655Y151251D01*
X241000Y151251D01*
X248636Y151251D01*
X248689Y151258D01*
X248743Y151255D01*
X248845Y151277D01*
X248949Y151291D01*
X248999Y151310D01*
X249051Y151322D01*
X249108Y151354D01*
X249242Y151408D01*
X249379Y151508D01*
X249436Y151540D01*
X249464Y151570D01*
X249496Y151594D01*
X249497Y151594D01*
X249569Y151683D01*
X249603Y151705D01*
X249643Y151749D01*
X249673Y151771D01*
X256383Y158481D01*
X256451Y158567D01*
X256524Y158649D01*
X256547Y158692D01*
X256577Y158730D01*
X256620Y158831D01*
X256671Y158928D01*
X256678Y158965D01*
X256701Y159020D01*
X256749Y159332D01*
X256747Y159351D01*
X256749Y159364D01*
X256749Y183136D01*
X256735Y183245D01*
X256730Y183355D01*
X256716Y183401D01*
X256709Y183449D01*
X256669Y183551D01*
X256636Y183656D01*
X256614Y183687D01*
X256592Y183742D01*
X256406Y183996D01*
X256391Y184009D01*
X256383Y184019D01*
X236519Y203883D01*
X236433Y203951D01*
X236351Y204024D01*
X236308Y204047D01*
X236270Y204077D01*
X236169Y204120D01*
X236072Y204171D01*
X236035Y204178D01*
X235980Y204201D01*
X235668Y204249D01*
X235649Y204247D01*
X235636Y204249D01*
X218592Y204249D01*
X218452Y204231D01*
X218310Y204217D01*
X218295Y204211D01*
X218279Y204209D01*
X218147Y204157D01*
X218014Y204108D01*
X218001Y204098D01*
X217986Y204092D01*
X217871Y204008D01*
X217755Y203928D01*
X217745Y203915D01*
X217732Y203906D01*
X217642Y203796D01*
X217549Y203688D01*
X217542Y203674D01*
X217532Y203661D01*
X217473Y203532D01*
X217410Y203405D01*
X217407Y203389D01*
X217400Y203375D01*
X217375Y203235D01*
X217346Y203096D01*
X217347Y203080D01*
X217344Y203064D01*
X217355Y202923D01*
X217362Y202781D01*
X217367Y202766D01*
X217368Y202750D01*
X217414Y202615D01*
X217456Y202480D01*
X217464Y202469D01*
X217470Y202451D01*
X217643Y202187D01*
X217687Y202147D01*
X217709Y202117D01*
X235251Y184575D01*
X235251Y173700D01*
X235267Y173575D01*
X235276Y173450D01*
X235287Y173419D01*
X235291Y173387D01*
X235337Y173270D01*
X235378Y173151D01*
X235396Y173124D01*
X235408Y173094D01*
X235482Y172993D01*
X235551Y172887D01*
X235575Y172866D01*
X235594Y172840D01*
X235692Y172760D01*
X235785Y172676D01*
X235814Y172661D01*
X235839Y172640D01*
X235953Y172587D01*
X236064Y172529D01*
X236090Y172525D01*
X236125Y172508D01*
X236436Y172452D01*
X236475Y172455D01*
X236500Y172451D01*
X239072Y172451D01*
X239092Y172453D01*
X239111Y172451D01*
X239248Y172473D01*
X239385Y172491D01*
X239403Y172498D01*
X239423Y172501D01*
X239550Y172556D01*
X239678Y172608D01*
X239694Y172619D01*
X239712Y172627D01*
X239821Y172712D01*
X239933Y172794D01*
X239945Y172809D01*
X239960Y172821D01*
X240044Y172931D01*
X240132Y173039D01*
X240140Y173056D01*
X240152Y173072D01*
X240206Y173199D01*
X240264Y173325D01*
X240267Y173345D01*
X240275Y173363D01*
X240295Y173500D01*
X240320Y173636D01*
X240318Y173655D01*
X240321Y173675D01*
X240306Y173812D01*
X240296Y173950D01*
X240290Y173969D01*
X240288Y173988D01*
X240267Y174036D01*
X240194Y174249D01*
X240134Y174340D01*
X240111Y174394D01*
X239868Y174757D01*
X239432Y175811D01*
X239344Y176251D01*
X243751Y176251D01*
X243751Y171844D01*
X243311Y171932D01*
X242257Y172368D01*
X241694Y172744D01*
X241677Y172753D01*
X241661Y172766D01*
X241535Y172824D01*
X241412Y172885D01*
X241393Y172889D01*
X241375Y172898D01*
X241239Y172922D01*
X241103Y172951D01*
X241083Y172950D01*
X241064Y172953D01*
X240927Y172943D01*
X240788Y172937D01*
X240769Y172931D01*
X240750Y172930D01*
X240619Y172885D01*
X240486Y172845D01*
X240470Y172834D01*
X240451Y172828D01*
X240335Y172752D01*
X240217Y172679D01*
X240204Y172665D01*
X240187Y172655D01*
X240094Y172552D01*
X239998Y172452D01*
X239989Y172435D01*
X239976Y172421D01*
X239911Y172298D01*
X239843Y172178D01*
X239838Y172159D01*
X239829Y172141D01*
X239820Y172090D01*
X239762Y171873D01*
X239761Y171764D01*
X239751Y171706D01*
X239751Y166000D01*
X239767Y165875D01*
X239776Y165750D01*
X239787Y165719D01*
X239791Y165687D01*
X239837Y165570D01*
X239878Y165451D01*
X239896Y165424D01*
X239908Y165394D01*
X239982Y165293D01*
X240051Y165187D01*
X240075Y165166D01*
X240094Y165140D01*
X240192Y165060D01*
X240285Y164976D01*
X240314Y164961D01*
X240339Y164940D01*
X240453Y164887D01*
X240564Y164829D01*
X240590Y164825D01*
X240625Y164808D01*
X240936Y164752D01*
X240975Y164755D01*
X241000Y164751D01*
X245879Y164751D01*
X247051Y163579D01*
X247051Y159202D01*
X247049Y159198D01*
X247001Y158886D01*
X247003Y158867D01*
X247001Y158854D01*
X247001Y155701D01*
X247014Y155597D01*
X247018Y155493D01*
X247032Y155454D01*
X247041Y155388D01*
X247158Y155095D01*
X247165Y155085D01*
X247168Y155076D01*
X247368Y154731D01*
X247541Y154084D01*
X247541Y153749D01*
X246346Y153749D01*
X246345Y153749D01*
X241000Y153749D01*
X235654Y153749D01*
X234459Y153749D01*
X234459Y153750D01*
X234443Y153875D01*
X234434Y154000D01*
X234423Y154031D01*
X234419Y154063D01*
X234373Y154180D01*
X234332Y154299D01*
X234314Y154326D01*
X234302Y154356D01*
X234228Y154457D01*
X234159Y154563D01*
X234135Y154584D01*
X234116Y154610D01*
X234018Y154690D01*
X233925Y154774D01*
X233896Y154789D01*
X233871Y154810D01*
X233757Y154862D01*
X233646Y154921D01*
X233620Y154925D01*
X233585Y154942D01*
X233274Y154998D01*
X233235Y154995D01*
X233210Y154999D01*
X228750Y154999D01*
X228625Y154983D01*
X228500Y154974D01*
X228469Y154963D01*
X228437Y154959D01*
X228320Y154913D01*
X228201Y154872D01*
X228174Y154854D01*
X228144Y154842D01*
X228043Y154768D01*
X227937Y154699D01*
X227916Y154675D01*
X227890Y154656D01*
X227810Y154558D01*
X227726Y154465D01*
X227711Y154436D01*
X227690Y154411D01*
X227638Y154297D01*
X227579Y154185D01*
X227575Y154160D01*
X227558Y154125D01*
X227503Y153814D01*
X227505Y153775D01*
X227501Y153750D01*
X227501Y151250D01*
X227517Y151125D01*
X227526Y151000D01*
X227537Y150969D01*
X227541Y150937D01*
X227587Y150820D01*
X227628Y150701D01*
X227646Y150674D01*
X227658Y150644D01*
X227732Y150543D01*
X227801Y150437D01*
X227825Y150416D01*
X227844Y150390D01*
X227942Y150310D01*
X228035Y150226D01*
X228064Y150211D01*
X228089Y150190D01*
X228203Y150138D01*
X228315Y150079D01*
X228340Y150075D01*
X228375Y150058D01*
X228686Y150002D01*
X228725Y150005D01*
X228750Y150001D01*
X233210Y150001D01*
X233335Y150017D01*
G37*
%LPC*%
G36*
X252761Y30059D02*
X252761Y30059D01*
X251589Y31231D01*
X251589Y45589D01*
X252761Y46761D01*
X262500Y46761D01*
X262625Y46777D01*
X262750Y46786D01*
X262781Y46797D01*
X262813Y46801D01*
X262930Y46847D01*
X263049Y46888D01*
X263076Y46906D01*
X263106Y46918D01*
X263207Y46992D01*
X263313Y47061D01*
X263334Y47085D01*
X263360Y47104D01*
X263440Y47202D01*
X263524Y47295D01*
X263539Y47324D01*
X263560Y47349D01*
X263613Y47463D01*
X263671Y47574D01*
X263675Y47600D01*
X263692Y47635D01*
X263748Y47946D01*
X263745Y47985D01*
X263749Y48010D01*
X263749Y48308D01*
X263735Y48417D01*
X263730Y48526D01*
X263716Y48573D01*
X263709Y48621D01*
X263669Y48723D01*
X263636Y48828D01*
X263614Y48858D01*
X263592Y48914D01*
X263406Y49168D01*
X263391Y49180D01*
X263383Y49191D01*
X263049Y49526D01*
X262249Y51456D01*
X262249Y53544D01*
X263049Y55474D01*
X264526Y56951D01*
X266456Y57751D01*
X268544Y57751D01*
X270474Y56951D01*
X271951Y55474D01*
X272751Y53544D01*
X272751Y51456D01*
X271951Y49526D01*
X271617Y49191D01*
X271549Y49104D01*
X271476Y49023D01*
X271453Y48980D01*
X271423Y48941D01*
X271380Y48840D01*
X271329Y48743D01*
X271322Y48706D01*
X271299Y48652D01*
X271251Y48340D01*
X271253Y48321D01*
X271251Y48308D01*
X271251Y48010D01*
X271267Y47885D01*
X271276Y47760D01*
X271287Y47729D01*
X271291Y47697D01*
X271337Y47580D01*
X271378Y47461D01*
X271396Y47434D01*
X271408Y47404D01*
X271482Y47303D01*
X271551Y47197D01*
X271575Y47176D01*
X271594Y47150D01*
X271692Y47070D01*
X271785Y46986D01*
X271814Y46971D01*
X271839Y46950D01*
X271953Y46897D01*
X272064Y46839D01*
X272090Y46835D01*
X272125Y46818D01*
X272436Y46762D01*
X272475Y46765D01*
X272500Y46761D01*
X279819Y46761D01*
X280991Y45589D01*
X280991Y31231D01*
X279819Y30059D01*
X252761Y30059D01*
G37*
%LPD*%
%LPC*%
G36*
X88310Y255499D02*
X88310Y255499D01*
X84818Y256946D01*
X82146Y259618D01*
X80699Y263110D01*
X80699Y281890D01*
X82146Y285382D01*
X84818Y288054D01*
X88310Y289501D01*
X92090Y289501D01*
X95582Y288054D01*
X98254Y285382D01*
X99701Y281890D01*
X99701Y263110D01*
X98254Y259618D01*
X95582Y256946D01*
X92090Y255499D01*
X88310Y255499D01*
G37*
%LPD*%
%LPC*%
G36*
X62910Y255499D02*
X62910Y255499D01*
X59418Y256946D01*
X56746Y259618D01*
X55299Y263110D01*
X55299Y281890D01*
X56746Y285382D01*
X59418Y288054D01*
X62910Y289501D01*
X66690Y289501D01*
X70182Y288054D01*
X72854Y285382D01*
X74301Y281890D01*
X74301Y263110D01*
X72854Y259618D01*
X70182Y256946D01*
X66690Y255499D01*
X62910Y255499D01*
G37*
%LPD*%
%LPC*%
G36*
X187910Y255499D02*
X187910Y255499D01*
X184418Y256946D01*
X181746Y259618D01*
X180299Y263110D01*
X180299Y281890D01*
X181746Y285382D01*
X184418Y288054D01*
X187910Y289501D01*
X191690Y289501D01*
X195182Y288054D01*
X197854Y285382D01*
X199301Y281890D01*
X199301Y263110D01*
X197854Y259618D01*
X195182Y256946D01*
X191690Y255499D01*
X187910Y255499D01*
G37*
%LPD*%
%LPC*%
G36*
X170181Y30059D02*
X170181Y30059D01*
X169009Y31231D01*
X169009Y45589D01*
X170181Y46761D01*
X197239Y46761D01*
X198411Y45589D01*
X198411Y31231D01*
X197239Y30059D01*
X170181Y30059D01*
G37*
%LPD*%
%LPC*%
G36*
X170181Y73239D02*
X170181Y73239D01*
X169009Y74411D01*
X169009Y88769D01*
X170181Y89941D01*
X197239Y89941D01*
X198411Y88769D01*
X198411Y74411D01*
X197239Y73239D01*
X170181Y73239D01*
G37*
%LPD*%
G36*
X182593Y125660D02*
X182593Y125660D01*
X182719Y125666D01*
X182750Y125676D01*
X182782Y125679D01*
X182900Y125723D01*
X183020Y125760D01*
X183041Y125775D01*
X183078Y125789D01*
X183337Y125969D01*
X183362Y125998D01*
X183383Y126013D01*
X184671Y127301D01*
X186672Y127301D01*
X186692Y127303D01*
X186711Y127301D01*
X186848Y127323D01*
X186985Y127341D01*
X187004Y127348D01*
X187023Y127351D01*
X187150Y127406D01*
X187278Y127458D01*
X187294Y127469D01*
X187312Y127477D01*
X187421Y127562D01*
X187533Y127644D01*
X187545Y127659D01*
X187561Y127671D01*
X187644Y127781D01*
X187732Y127889D01*
X187740Y127907D01*
X187752Y127922D01*
X187806Y128049D01*
X187864Y128175D01*
X187868Y128195D01*
X187875Y128213D01*
X187895Y128349D01*
X187920Y128486D01*
X187919Y128505D01*
X187921Y128525D01*
X187907Y128662D01*
X187896Y128800D01*
X187890Y128819D01*
X187888Y128838D01*
X187867Y128886D01*
X187795Y129099D01*
X187734Y129190D01*
X187711Y129244D01*
X187368Y129757D01*
X186932Y130811D01*
X186844Y131251D01*
X192500Y131251D01*
X198156Y131251D01*
X198068Y130811D01*
X197632Y129757D01*
X197289Y129244D01*
X197280Y129227D01*
X197268Y129211D01*
X197210Y129085D01*
X197148Y128962D01*
X197144Y128943D01*
X197136Y128925D01*
X197111Y128789D01*
X197083Y128653D01*
X197083Y128633D01*
X197080Y128614D01*
X197090Y128477D01*
X197096Y128338D01*
X197102Y128319D01*
X197104Y128300D01*
X197148Y128168D01*
X197189Y128036D01*
X197199Y128020D01*
X197205Y128001D01*
X197282Y127885D01*
X197354Y127767D01*
X197368Y127754D01*
X197379Y127737D01*
X197482Y127644D01*
X197581Y127548D01*
X197598Y127539D01*
X197613Y127526D01*
X197735Y127461D01*
X197856Y127393D01*
X197875Y127388D01*
X197892Y127379D01*
X197944Y127370D01*
X198161Y127312D01*
X198270Y127311D01*
X198328Y127301D01*
X198329Y127301D01*
X198383Y127247D01*
X198482Y127170D01*
X198578Y127088D01*
X198607Y127073D01*
X198632Y127054D01*
X198748Y127004D01*
X198861Y126948D01*
X198893Y126942D01*
X198922Y126929D01*
X199046Y126910D01*
X199170Y126885D01*
X199202Y126886D01*
X199234Y126881D01*
X199359Y126894D01*
X199485Y126900D01*
X199516Y126910D01*
X199548Y126913D01*
X199666Y126957D01*
X199786Y126994D01*
X199807Y127009D01*
X199844Y127022D01*
X200103Y127202D01*
X200128Y127232D01*
X200149Y127247D01*
X201383Y128481D01*
X201451Y128567D01*
X201524Y128649D01*
X201547Y128692D01*
X201577Y128730D01*
X201620Y128831D01*
X201671Y128928D01*
X201678Y128965D01*
X201701Y129020D01*
X201749Y129332D01*
X201747Y129351D01*
X201749Y129364D01*
X201749Y141346D01*
X203019Y142617D01*
X203106Y142729D01*
X203196Y142839D01*
X203203Y142853D01*
X203213Y142866D01*
X203268Y142996D01*
X203328Y143125D01*
X203331Y143141D01*
X203337Y143156D01*
X203359Y143297D01*
X203384Y143436D01*
X203382Y143452D01*
X203385Y143468D01*
X203371Y143609D01*
X203360Y143750D01*
X203355Y143766D01*
X203353Y143782D01*
X203304Y143914D01*
X203258Y144049D01*
X203249Y144063D01*
X203244Y144078D01*
X203163Y144193D01*
X203085Y144313D01*
X203073Y144324D01*
X203064Y144337D01*
X202957Y144429D01*
X202851Y144524D01*
X202837Y144532D01*
X202824Y144542D01*
X202697Y144605D01*
X202572Y144671D01*
X202559Y144673D01*
X202541Y144682D01*
X202232Y144746D01*
X202173Y144743D01*
X202136Y144749D01*
X201672Y144749D01*
X201563Y144735D01*
X201453Y144730D01*
X201406Y144716D01*
X201359Y144709D01*
X201256Y144669D01*
X201152Y144636D01*
X201121Y144614D01*
X201066Y144592D01*
X200811Y144406D01*
X200799Y144391D01*
X200788Y144383D01*
X200654Y144249D01*
X192796Y144249D01*
X192687Y144235D01*
X192577Y144230D01*
X192531Y144216D01*
X192483Y144209D01*
X192381Y144169D01*
X192276Y144136D01*
X192245Y144114D01*
X192190Y144092D01*
X192063Y143999D01*
X183371Y143999D01*
X182614Y144757D01*
X182583Y144781D01*
X182557Y144810D01*
X182458Y144877D01*
X182364Y144950D01*
X182328Y144966D01*
X182296Y144988D01*
X182184Y145028D01*
X182074Y145075D01*
X182036Y145081D01*
X181999Y145094D01*
X181880Y145104D01*
X181762Y145122D01*
X181723Y145119D01*
X181684Y145122D01*
X181621Y145108D01*
X181448Y145091D01*
X181316Y145042D01*
X181252Y145028D01*
X180143Y144568D01*
X180034Y144506D01*
X179922Y144449D01*
X179897Y144428D01*
X179869Y144412D01*
X179779Y144324D01*
X179685Y144241D01*
X179666Y144214D01*
X179643Y144192D01*
X179578Y144084D01*
X179507Y143980D01*
X179497Y143950D01*
X179480Y143922D01*
X179444Y143801D01*
X179401Y143683D01*
X179398Y143651D01*
X179389Y143620D01*
X179384Y143494D01*
X179373Y143369D01*
X179378Y143343D01*
X179377Y143304D01*
X179444Y142996D01*
X179462Y142961D01*
X179467Y142936D01*
X180251Y141044D01*
X180251Y138956D01*
X179451Y137026D01*
X177974Y135549D01*
X177522Y135361D01*
X177488Y135342D01*
X177451Y135329D01*
X177351Y135264D01*
X177248Y135205D01*
X177220Y135177D01*
X177187Y135156D01*
X177107Y135067D01*
X177022Y134984D01*
X177002Y134951D01*
X176976Y134922D01*
X176920Y134816D01*
X176859Y134715D01*
X176847Y134677D01*
X176829Y134643D01*
X176818Y134578D01*
X176768Y134413D01*
X176762Y134271D01*
X176751Y134207D01*
X176751Y128550D01*
X176767Y128425D01*
X176776Y128300D01*
X176787Y128269D01*
X176791Y128237D01*
X176837Y128120D01*
X176878Y128001D01*
X176896Y127974D01*
X176908Y127944D01*
X176982Y127843D01*
X177051Y127737D01*
X177075Y127716D01*
X177094Y127690D01*
X177192Y127610D01*
X177285Y127526D01*
X177314Y127511D01*
X177339Y127490D01*
X177453Y127437D01*
X177564Y127379D01*
X177590Y127375D01*
X177625Y127358D01*
X177936Y127302D01*
X177975Y127305D01*
X178000Y127301D01*
X180329Y127301D01*
X181617Y126013D01*
X181716Y125936D01*
X181812Y125854D01*
X181841Y125839D01*
X181866Y125820D01*
X181982Y125770D01*
X182095Y125714D01*
X182126Y125708D01*
X182156Y125695D01*
X182281Y125676D01*
X182404Y125651D01*
X182436Y125652D01*
X182468Y125647D01*
X182593Y125660D01*
G37*
G36*
X120745Y173265D02*
X120745Y173265D01*
X120855Y173270D01*
X120901Y173284D01*
X120949Y173291D01*
X121051Y173331D01*
X121156Y173364D01*
X121187Y173386D01*
X121242Y173408D01*
X121496Y173594D01*
X121509Y173609D01*
X121519Y173617D01*
X121883Y173981D01*
X121951Y174067D01*
X122024Y174149D01*
X122047Y174192D01*
X122077Y174230D01*
X122120Y174331D01*
X122171Y174428D01*
X122178Y174465D01*
X122201Y174520D01*
X122249Y174832D01*
X122247Y174851D01*
X122249Y174864D01*
X122249Y176044D01*
X123049Y177974D01*
X124526Y179451D01*
X126456Y180251D01*
X128587Y180251D01*
X128627Y180236D01*
X128678Y180231D01*
X128728Y180218D01*
X128834Y180216D01*
X128941Y180206D01*
X128992Y180214D01*
X129044Y180214D01*
X129147Y180239D01*
X129252Y180256D01*
X129300Y180276D01*
X129350Y180289D01*
X129444Y180339D01*
X129542Y180382D01*
X129582Y180414D01*
X129628Y180438D01*
X129706Y180511D01*
X129790Y180576D01*
X129821Y180617D01*
X129859Y180652D01*
X129917Y180742D01*
X129982Y180827D01*
X130002Y180874D01*
X130030Y180918D01*
X130063Y181019D01*
X130105Y181117D01*
X130112Y181169D01*
X130128Y181218D01*
X130135Y181324D01*
X130151Y181430D01*
X130145Y181481D01*
X130149Y181533D01*
X130129Y181637D01*
X130117Y181743D01*
X130101Y181780D01*
X130089Y181842D01*
X129955Y182128D01*
X129945Y182139D01*
X129941Y182149D01*
X129868Y182257D01*
X129432Y183311D01*
X129344Y183751D01*
X135000Y183751D01*
X135124Y183766D01*
X135250Y183776D01*
X135281Y183786D01*
X135313Y183790D01*
X135429Y183837D01*
X135549Y183878D01*
X135576Y183895D01*
X135606Y183907D01*
X135707Y183982D01*
X135812Y184051D01*
X135834Y184075D01*
X135860Y184094D01*
X135940Y184191D01*
X136024Y184285D01*
X136039Y184313D01*
X136060Y184338D01*
X136112Y184453D01*
X136171Y184564D01*
X136175Y184590D01*
X136191Y184625D01*
X136247Y184936D01*
X136244Y184974D01*
X136249Y185000D01*
X136233Y185125D01*
X136224Y185251D01*
X136213Y185281D01*
X136209Y185313D01*
X136162Y185430D01*
X136122Y185549D01*
X136104Y185576D01*
X136092Y185606D01*
X136018Y185708D01*
X135948Y185813D01*
X135925Y185834D01*
X135905Y185860D01*
X135808Y185940D01*
X135715Y186025D01*
X135686Y186040D01*
X135661Y186060D01*
X135547Y186113D01*
X135435Y186171D01*
X135410Y186176D01*
X135374Y186192D01*
X135064Y186248D01*
X135025Y186245D01*
X135000Y186249D01*
X129344Y186249D01*
X129432Y186689D01*
X129868Y187743D01*
X130502Y188691D01*
X131363Y189552D01*
X131420Y189594D01*
X131453Y189634D01*
X131492Y189668D01*
X131552Y189756D01*
X131620Y189839D01*
X131641Y189885D01*
X131670Y189928D01*
X131707Y190028D01*
X131751Y190125D01*
X131761Y190176D01*
X131778Y190224D01*
X131788Y190331D01*
X131807Y190436D01*
X131803Y190487D01*
X131808Y190538D01*
X131792Y190644D01*
X131784Y190750D01*
X131767Y190799D01*
X131759Y190850D01*
X131716Y190948D01*
X131682Y191049D01*
X131654Y191092D01*
X131633Y191139D01*
X131567Y191223D01*
X131509Y191313D01*
X131470Y191347D01*
X131439Y191388D01*
X131354Y191453D01*
X131275Y191524D01*
X131229Y191548D01*
X131188Y191580D01*
X131090Y191621D01*
X130995Y191671D01*
X130956Y191678D01*
X130898Y191703D01*
X130586Y191749D01*
X130570Y191747D01*
X130560Y191749D01*
X119692Y191749D01*
X119583Y191735D01*
X119474Y191730D01*
X119427Y191716D01*
X119379Y191709D01*
X119277Y191669D01*
X119172Y191636D01*
X119142Y191614D01*
X119086Y191592D01*
X118832Y191406D01*
X118820Y191391D01*
X118809Y191383D01*
X117974Y190549D01*
X116014Y189737D01*
X115952Y189727D01*
X115815Y189709D01*
X115797Y189702D01*
X115778Y189699D01*
X115651Y189644D01*
X115522Y189592D01*
X115506Y189581D01*
X115489Y189573D01*
X115380Y189488D01*
X115268Y189406D01*
X115256Y189391D01*
X115240Y189379D01*
X115156Y189269D01*
X115068Y189161D01*
X115060Y189144D01*
X115048Y189128D01*
X114995Y189001D01*
X114937Y188875D01*
X114933Y188855D01*
X114925Y188837D01*
X114905Y188700D01*
X114881Y188564D01*
X114882Y188545D01*
X114879Y188525D01*
X114894Y188388D01*
X114904Y188250D01*
X114911Y188231D01*
X114913Y188212D01*
X114934Y188164D01*
X115006Y187951D01*
X115066Y187860D01*
X115090Y187806D01*
X115132Y187743D01*
X115568Y186689D01*
X115656Y186249D01*
X110000Y186249D01*
X109876Y186234D01*
X109750Y186224D01*
X109719Y186214D01*
X109687Y186210D01*
X109571Y186163D01*
X109451Y186122D01*
X109424Y186105D01*
X109394Y186093D01*
X109293Y186018D01*
X109188Y185949D01*
X109187Y185949D01*
X109187Y185948D01*
X109166Y185925D01*
X109140Y185906D01*
X109139Y185905D01*
X109060Y185808D01*
X108975Y185715D01*
X108960Y185686D01*
X108940Y185661D01*
X108887Y185547D01*
X108829Y185435D01*
X108824Y185410D01*
X108808Y185374D01*
X108752Y185064D01*
X108755Y185025D01*
X108751Y185000D01*
X108751Y179344D01*
X108311Y179432D01*
X107257Y179868D01*
X106309Y180502D01*
X105633Y181177D01*
X105521Y181264D01*
X105411Y181354D01*
X105397Y181361D01*
X105384Y181370D01*
X105254Y181426D01*
X105125Y181486D01*
X105109Y181489D01*
X105094Y181495D01*
X104953Y181517D01*
X104814Y181542D01*
X104798Y181540D01*
X104782Y181543D01*
X104641Y181529D01*
X104500Y181518D01*
X104484Y181513D01*
X104468Y181511D01*
X104336Y181462D01*
X104201Y181416D01*
X104187Y181407D01*
X104172Y181402D01*
X104056Y181321D01*
X103937Y181243D01*
X103926Y181231D01*
X103913Y181222D01*
X103821Y181114D01*
X103726Y181009D01*
X103718Y180995D01*
X103708Y180982D01*
X103645Y180855D01*
X103579Y180729D01*
X103577Y180717D01*
X103568Y180699D01*
X103504Y180390D01*
X103507Y180331D01*
X103501Y180294D01*
X103501Y175577D01*
X103515Y175463D01*
X103522Y175348D01*
X103535Y175307D01*
X103541Y175264D01*
X103583Y175157D01*
X103619Y175047D01*
X103642Y175011D01*
X103658Y174971D01*
X103726Y174878D01*
X103788Y174781D01*
X103813Y174759D01*
X103844Y174717D01*
X104019Y174575D01*
X104576Y174017D01*
X104628Y173937D01*
X104660Y173909D01*
X104686Y173874D01*
X104777Y173803D01*
X104862Y173726D01*
X104900Y173706D01*
X104934Y173679D01*
X105040Y173633D01*
X105142Y173579D01*
X105175Y173573D01*
X105223Y173552D01*
X105534Y173501D01*
X105560Y173504D01*
X105577Y173501D01*
X114603Y173501D01*
X114631Y173476D01*
X114674Y173453D01*
X114712Y173423D01*
X114813Y173380D01*
X114911Y173329D01*
X114948Y173322D01*
X115002Y173299D01*
X115314Y173251D01*
X115333Y173253D01*
X115346Y173251D01*
X120636Y173251D01*
X120745Y173265D01*
G37*
G36*
X118310Y131762D02*
X118310Y131762D01*
X118400Y131764D01*
X118466Y131782D01*
X118533Y131791D01*
X118617Y131824D01*
X118704Y131848D01*
X118763Y131882D01*
X118826Y131908D01*
X118899Y131961D01*
X118977Y132007D01*
X119026Y132054D01*
X119080Y132094D01*
X119138Y132164D01*
X119202Y132228D01*
X119237Y132286D01*
X119280Y132339D01*
X119318Y132421D01*
X119364Y132499D01*
X119383Y132564D01*
X119412Y132625D01*
X119428Y132714D01*
X119453Y132801D01*
X119452Y132851D01*
X119468Y132936D01*
X119445Y133229D01*
X119445Y133244D01*
X119344Y133751D01*
X125000Y133751D01*
X125124Y133766D01*
X125250Y133776D01*
X125281Y133786D01*
X125313Y133790D01*
X125429Y133837D01*
X125549Y133878D01*
X125576Y133895D01*
X125606Y133907D01*
X125707Y133982D01*
X125812Y134051D01*
X125834Y134075D01*
X125860Y134094D01*
X125940Y134191D01*
X126024Y134285D01*
X126039Y134313D01*
X126060Y134338D01*
X126112Y134453D01*
X126171Y134564D01*
X126175Y134590D01*
X126191Y134625D01*
X126247Y134936D01*
X126244Y134974D01*
X126249Y135000D01*
X126233Y135125D01*
X126224Y135251D01*
X126213Y135281D01*
X126209Y135313D01*
X126162Y135430D01*
X126122Y135549D01*
X126104Y135576D01*
X126092Y135606D01*
X126018Y135708D01*
X125948Y135813D01*
X125925Y135834D01*
X125905Y135860D01*
X125808Y135940D01*
X125715Y136025D01*
X125686Y136040D01*
X125661Y136060D01*
X125547Y136113D01*
X125435Y136171D01*
X125410Y136176D01*
X125374Y136192D01*
X125064Y136248D01*
X125025Y136245D01*
X125000Y136249D01*
X119344Y136249D01*
X119432Y136689D01*
X119868Y137743D01*
X120502Y138691D01*
X121309Y139498D01*
X122257Y140132D01*
X123311Y140568D01*
X124375Y140780D01*
X124393Y140786D01*
X124413Y140788D01*
X124543Y140836D01*
X124674Y140880D01*
X124690Y140891D01*
X124709Y140897D01*
X124823Y140977D01*
X124938Y141052D01*
X124952Y141066D01*
X124968Y141077D01*
X125058Y141183D01*
X125152Y141285D01*
X125161Y141302D01*
X125173Y141317D01*
X125234Y141441D01*
X125300Y141563D01*
X125304Y141582D01*
X125313Y141600D01*
X125341Y141735D01*
X125373Y141870D01*
X125373Y141890D01*
X125377Y141909D01*
X125370Y142047D01*
X125367Y142185D01*
X125362Y142204D01*
X125361Y142224D01*
X125320Y142356D01*
X125283Y142489D01*
X125273Y142506D01*
X125267Y142525D01*
X125237Y142568D01*
X125124Y142762D01*
X125048Y142840D01*
X125014Y142888D01*
X121519Y146383D01*
X121433Y146451D01*
X121351Y146524D01*
X121308Y146547D01*
X121270Y146577D01*
X121169Y146620D01*
X121072Y146671D01*
X121035Y146678D01*
X120980Y146701D01*
X120668Y146749D01*
X120649Y146747D01*
X120636Y146749D01*
X115346Y146749D01*
X115237Y146735D01*
X115127Y146730D01*
X115081Y146716D01*
X115033Y146709D01*
X114931Y146669D01*
X114826Y146636D01*
X114795Y146614D01*
X114740Y146592D01*
X114613Y146499D01*
X105577Y146499D01*
X105463Y146485D01*
X105348Y146478D01*
X105307Y146465D01*
X105264Y146459D01*
X105157Y146417D01*
X105047Y146381D01*
X105011Y146358D01*
X104971Y146342D01*
X104878Y146274D01*
X104781Y146212D01*
X104759Y146187D01*
X104717Y146156D01*
X104575Y145981D01*
X104017Y145424D01*
X103937Y145372D01*
X103909Y145340D01*
X103874Y145314D01*
X103803Y145223D01*
X103726Y145138D01*
X103706Y145100D01*
X103679Y145066D01*
X103633Y144960D01*
X103579Y144858D01*
X103573Y144825D01*
X103552Y144777D01*
X103501Y144466D01*
X103504Y144440D01*
X103501Y144423D01*
X103501Y135421D01*
X102329Y134249D01*
X100793Y134249D01*
X100652Y134231D01*
X100511Y134217D01*
X100496Y134211D01*
X100480Y134209D01*
X100348Y134157D01*
X100215Y134108D01*
X100202Y134098D01*
X100187Y134092D01*
X100072Y134008D01*
X99956Y133928D01*
X99946Y133915D01*
X99933Y133906D01*
X99843Y133796D01*
X99750Y133688D01*
X99743Y133674D01*
X99733Y133661D01*
X99674Y133532D01*
X99611Y133405D01*
X99608Y133389D01*
X99601Y133375D01*
X99576Y133235D01*
X99547Y133096D01*
X99548Y133080D01*
X99545Y133064D01*
X99556Y132923D01*
X99563Y132781D01*
X99568Y132766D01*
X99569Y132750D01*
X99615Y132615D01*
X99657Y132480D01*
X99664Y132469D01*
X99671Y132451D01*
X99844Y132187D01*
X99871Y132163D01*
X99888Y132147D01*
X99910Y132117D01*
X99996Y132049D01*
X100078Y131976D01*
X100121Y131953D01*
X100159Y131923D01*
X100260Y131880D01*
X100357Y131829D01*
X100394Y131822D01*
X100449Y131799D01*
X100761Y131751D01*
X100780Y131753D01*
X100793Y131751D01*
X118220Y131751D01*
X118310Y131762D01*
G37*
%LPC*%
G36*
X32499Y322499D02*
X32499Y322499D01*
X32499Y337363D01*
X33429Y337241D01*
X35650Y336645D01*
X37775Y335766D01*
X39766Y334616D01*
X41590Y333216D01*
X43216Y331590D01*
X44616Y329766D01*
X45766Y327775D01*
X46645Y325650D01*
X47241Y323429D01*
X47363Y322499D01*
X32499Y322499D01*
G37*
%LPD*%
%LPC*%
G36*
X322499Y322499D02*
X322499Y322499D01*
X322499Y337363D01*
X323429Y337241D01*
X325650Y336645D01*
X327775Y335766D01*
X329766Y334616D01*
X331590Y333216D01*
X333216Y331590D01*
X334616Y329766D01*
X335766Y327775D01*
X336645Y325650D01*
X337241Y323429D01*
X337363Y322499D01*
X322499Y322499D01*
G37*
%LPD*%
%LPC*%
G36*
X322499Y32499D02*
X322499Y32499D01*
X322499Y47363D01*
X323429Y47241D01*
X325650Y46645D01*
X327775Y45766D01*
X329766Y44616D01*
X331590Y43216D01*
X333216Y41590D01*
X334616Y39766D01*
X335766Y37775D01*
X336645Y35650D01*
X337241Y33429D01*
X337363Y32499D01*
X322499Y32499D01*
G37*
%LPD*%
%LPC*%
G36*
X32499Y32499D02*
X32499Y32499D01*
X32499Y47363D01*
X33429Y47241D01*
X35650Y46645D01*
X37775Y45766D01*
X39766Y44616D01*
X41590Y43216D01*
X43216Y41590D01*
X44616Y39766D01*
X45766Y37775D01*
X46645Y35650D01*
X47241Y33429D01*
X47363Y32499D01*
X32499Y32499D01*
G37*
%LPD*%
%LPC*%
G36*
X302637Y322499D02*
X302637Y322499D01*
X302759Y323429D01*
X303355Y325650D01*
X304234Y327775D01*
X305384Y329766D01*
X306784Y331590D01*
X308410Y333216D01*
X310234Y334616D01*
X312225Y335766D01*
X314350Y336645D01*
X316571Y337241D01*
X317501Y337363D01*
X317501Y322499D01*
X302637Y322499D01*
G37*
%LPD*%
%LPC*%
G36*
X12637Y322499D02*
X12637Y322499D01*
X12759Y323429D01*
X13355Y325650D01*
X14234Y327775D01*
X15384Y329766D01*
X16784Y331590D01*
X18410Y333216D01*
X20234Y334616D01*
X22225Y335766D01*
X24350Y336645D01*
X26571Y337241D01*
X27501Y337363D01*
X27501Y322499D01*
X12637Y322499D01*
G37*
%LPD*%
%LPC*%
G36*
X32499Y27501D02*
X32499Y27501D01*
X47363Y27501D01*
X47241Y26571D01*
X46645Y24350D01*
X45766Y22225D01*
X44616Y20234D01*
X43216Y18410D01*
X41590Y16784D01*
X39766Y15384D01*
X37775Y14234D01*
X35650Y13355D01*
X33429Y12759D01*
X32499Y12637D01*
X32499Y27501D01*
G37*
%LPD*%
%LPC*%
G36*
X302637Y32499D02*
X302637Y32499D01*
X302759Y33429D01*
X303355Y35650D01*
X304234Y37775D01*
X305384Y39766D01*
X306784Y41590D01*
X308410Y43216D01*
X310234Y44616D01*
X312225Y45766D01*
X314350Y46645D01*
X316571Y47241D01*
X317501Y47363D01*
X317501Y32499D01*
X302637Y32499D01*
G37*
%LPD*%
%LPC*%
G36*
X322499Y317501D02*
X322499Y317501D01*
X337363Y317501D01*
X337241Y316571D01*
X336645Y314350D01*
X335766Y312225D01*
X334616Y310234D01*
X333216Y308410D01*
X331590Y306784D01*
X329766Y305384D01*
X327775Y304234D01*
X325650Y303355D01*
X323429Y302759D01*
X322499Y302637D01*
X322499Y317501D01*
G37*
%LPD*%
%LPC*%
G36*
X12637Y32499D02*
X12637Y32499D01*
X12759Y33429D01*
X13355Y35650D01*
X14234Y37775D01*
X15384Y39766D01*
X16784Y41590D01*
X18410Y43216D01*
X20234Y44616D01*
X22225Y45766D01*
X24350Y46645D01*
X26571Y47241D01*
X27501Y47363D01*
X27501Y32499D01*
X12637Y32499D01*
G37*
%LPD*%
%LPC*%
G36*
X32499Y317501D02*
X32499Y317501D01*
X47363Y317501D01*
X47241Y316571D01*
X46645Y314350D01*
X45766Y312225D01*
X44616Y310234D01*
X43216Y308410D01*
X41590Y306784D01*
X39766Y305384D01*
X37775Y304234D01*
X35650Y303355D01*
X33429Y302759D01*
X32499Y302637D01*
X32499Y317501D01*
G37*
%LPD*%
%LPC*%
G36*
X322499Y27501D02*
X322499Y27501D01*
X337363Y27501D01*
X337241Y26571D01*
X336645Y24350D01*
X335766Y22225D01*
X334616Y20234D01*
X333216Y18410D01*
X331590Y16784D01*
X329766Y15384D01*
X327775Y14234D01*
X325650Y13355D01*
X323429Y12759D01*
X322499Y12637D01*
X322499Y27501D01*
G37*
%LPD*%
%LPC*%
G36*
X316571Y12759D02*
X316571Y12759D01*
X314350Y13355D01*
X312225Y14234D01*
X310234Y15384D01*
X308410Y16784D01*
X306784Y18410D01*
X305384Y20234D01*
X304234Y22225D01*
X303355Y24350D01*
X302759Y26571D01*
X302637Y27501D01*
X317501Y27501D01*
X317501Y12637D01*
X316571Y12759D01*
G37*
%LPD*%
%LPC*%
G36*
X316571Y302759D02*
X316571Y302759D01*
X314350Y303355D01*
X312225Y304234D01*
X310234Y305384D01*
X308410Y306784D01*
X306784Y308410D01*
X305384Y310234D01*
X304234Y312225D01*
X303355Y314350D01*
X302759Y316571D01*
X302637Y317501D01*
X317501Y317501D01*
X317501Y302637D01*
X316571Y302759D01*
G37*
%LPD*%
%LPC*%
G36*
X26571Y302759D02*
X26571Y302759D01*
X24350Y303355D01*
X22225Y304234D01*
X20234Y305384D01*
X18410Y306784D01*
X16784Y308410D01*
X15384Y310234D01*
X14234Y312225D01*
X13355Y314350D01*
X12759Y316571D01*
X12637Y317501D01*
X27501Y317501D01*
X27501Y302637D01*
X26571Y302759D01*
G37*
%LPD*%
%LPC*%
G36*
X26571Y12759D02*
X26571Y12759D01*
X24350Y13355D01*
X22225Y14234D01*
X20234Y15384D01*
X18410Y16784D01*
X16784Y18410D01*
X15384Y20234D01*
X14234Y22225D01*
X13355Y24350D01*
X12759Y26571D01*
X12637Y27501D01*
X27501Y27501D01*
X27501Y12637D01*
X26571Y12759D01*
G37*
%LPD*%
%LPC*%
G36*
X157699Y274999D02*
X157699Y274999D01*
X157699Y289745D01*
X159054Y289305D01*
X160462Y288588D01*
X161741Y287659D01*
X162859Y286541D01*
X163788Y285262D01*
X164505Y283854D01*
X164993Y282351D01*
X165241Y280790D01*
X165241Y274999D01*
X157699Y274999D01*
G37*
%LPD*%
%LPC*%
G36*
X157699Y270001D02*
X157699Y270001D01*
X165241Y270001D01*
X165241Y264210D01*
X164993Y262649D01*
X164505Y261146D01*
X163788Y259738D01*
X162859Y258459D01*
X161741Y257341D01*
X160462Y256412D01*
X159054Y255695D01*
X157699Y255255D01*
X157699Y270001D01*
G37*
%LPD*%
%LPC*%
G36*
X145159Y274999D02*
X145159Y274999D01*
X145159Y280790D01*
X145407Y282351D01*
X145895Y283854D01*
X146612Y285262D01*
X147541Y286541D01*
X148659Y287659D01*
X149938Y288588D01*
X151346Y289305D01*
X152701Y289745D01*
X152701Y274999D01*
X145159Y274999D01*
G37*
%LPD*%
%LPC*%
G36*
X151346Y255695D02*
X151346Y255695D01*
X149938Y256412D01*
X148659Y257341D01*
X147541Y258459D01*
X146612Y259738D01*
X145895Y261146D01*
X145407Y262649D01*
X145159Y264210D01*
X145159Y270001D01*
X152701Y270001D01*
X152701Y255255D01*
X151346Y255695D01*
G37*
%LPD*%
G36*
X90125Y138767D02*
X90125Y138767D01*
X90251Y138776D01*
X90281Y138787D01*
X90313Y138791D01*
X90430Y138838D01*
X90549Y138878D01*
X90576Y138896D01*
X90606Y138908D01*
X90708Y138982D01*
X90813Y139052D01*
X90834Y139075D01*
X90860Y139095D01*
X90940Y139192D01*
X91025Y139285D01*
X91040Y139314D01*
X91060Y139339D01*
X91113Y139453D01*
X91171Y139565D01*
X91176Y139590D01*
X91192Y139626D01*
X91248Y139936D01*
X91245Y139975D01*
X91249Y140000D01*
X91249Y146291D01*
X91250Y146291D01*
X91375Y146307D01*
X91500Y146316D01*
X91531Y146327D01*
X91563Y146331D01*
X91680Y146377D01*
X91799Y146418D01*
X91826Y146436D01*
X91856Y146448D01*
X91957Y146522D01*
X92063Y146591D01*
X92084Y146615D01*
X92110Y146634D01*
X92190Y146732D01*
X92274Y146825D01*
X92289Y146854D01*
X92310Y146879D01*
X92362Y146993D01*
X92421Y147104D01*
X92425Y147130D01*
X92442Y147165D01*
X92498Y147476D01*
X92495Y147515D01*
X92499Y147540D01*
X92499Y148071D01*
X92488Y148161D01*
X92486Y148251D01*
X92468Y148317D01*
X92459Y148384D01*
X92426Y148468D01*
X92401Y148555D01*
X92367Y148614D01*
X92342Y148677D01*
X92289Y148750D01*
X92243Y148828D01*
X92196Y148876D01*
X92156Y148931D01*
X92085Y148988D01*
X92022Y149053D01*
X91964Y149088D01*
X91911Y149131D01*
X91829Y149168D01*
X91751Y149215D01*
X91686Y149234D01*
X91625Y149262D01*
X91536Y149278D01*
X91449Y149304D01*
X91398Y149303D01*
X91314Y149318D01*
X91249Y149313D01*
X91249Y155000D01*
X91249Y158750D01*
X91234Y158875D01*
X91224Y159000D01*
X91214Y159031D01*
X91210Y159063D01*
X91163Y159180D01*
X91122Y159299D01*
X91105Y159326D01*
X91093Y159356D01*
X91018Y159457D01*
X90949Y159563D01*
X90925Y159584D01*
X90906Y159610D01*
X90809Y159690D01*
X90715Y159774D01*
X90686Y159789D01*
X90661Y159810D01*
X90547Y159862D01*
X90436Y159921D01*
X90410Y159925D01*
X90375Y159942D01*
X90064Y159997D01*
X90025Y159995D01*
X90000Y159999D01*
X89875Y159983D01*
X89749Y159974D01*
X89719Y159963D01*
X89687Y159959D01*
X89570Y159913D01*
X89451Y159872D01*
X89424Y159854D01*
X89394Y159842D01*
X89292Y159768D01*
X89187Y159699D01*
X89165Y159675D01*
X89139Y159656D01*
X89060Y159558D01*
X88975Y159465D01*
X88960Y159436D01*
X88940Y159411D01*
X88887Y159297D01*
X88829Y159185D01*
X88824Y159160D01*
X88808Y159125D01*
X88752Y158814D01*
X88755Y158775D01*
X88751Y158750D01*
X88751Y155000D01*
X88751Y149314D01*
X88747Y149313D01*
X88679Y149318D01*
X88590Y149301D01*
X88500Y149295D01*
X88435Y149273D01*
X88369Y149260D01*
X88287Y149222D01*
X88201Y149193D01*
X88144Y149156D01*
X88083Y149127D01*
X88013Y149069D01*
X87937Y149020D01*
X87892Y148969D01*
X87840Y148926D01*
X87787Y148853D01*
X87726Y148786D01*
X87694Y148726D01*
X87654Y148671D01*
X87621Y148587D01*
X87579Y148506D01*
X87570Y148457D01*
X87539Y148377D01*
X87503Y148085D01*
X87501Y148071D01*
X87501Y147540D01*
X87517Y147415D01*
X87526Y147290D01*
X87537Y147259D01*
X87541Y147227D01*
X87587Y147110D01*
X87628Y146991D01*
X87646Y146964D01*
X87658Y146934D01*
X87732Y146833D01*
X87801Y146727D01*
X87825Y146706D01*
X87844Y146680D01*
X87942Y146600D01*
X88035Y146516D01*
X88064Y146501D01*
X88089Y146480D01*
X88203Y146427D01*
X88315Y146369D01*
X88340Y146365D01*
X88375Y146348D01*
X88686Y146292D01*
X88725Y146295D01*
X88750Y146291D01*
X88751Y146291D01*
X88751Y140000D01*
X88766Y139876D01*
X88776Y139750D01*
X88786Y139719D01*
X88790Y139687D01*
X88837Y139571D01*
X88878Y139451D01*
X88895Y139424D01*
X88907Y139394D01*
X88982Y139293D01*
X89051Y139188D01*
X89075Y139166D01*
X89094Y139140D01*
X89191Y139060D01*
X89285Y138976D01*
X89313Y138961D01*
X89338Y138940D01*
X89453Y138888D01*
X89564Y138829D01*
X89590Y138825D01*
X89625Y138809D01*
X89936Y138753D01*
X89974Y138756D01*
X90000Y138751D01*
X90125Y138767D01*
G37*
%LPC*%
G36*
X258999Y215499D02*
X258999Y215499D01*
X258999Y220541D01*
X263834Y220541D01*
X264481Y220368D01*
X265060Y220033D01*
X265533Y219560D01*
X265868Y218981D01*
X266041Y218334D01*
X266041Y215499D01*
X258999Y215499D01*
G37*
%LPD*%
%LPC*%
G36*
X246959Y215499D02*
X246959Y215499D01*
X246959Y218334D01*
X247132Y218981D01*
X247467Y219560D01*
X247940Y220033D01*
X248519Y220368D01*
X249166Y220541D01*
X254001Y220541D01*
X254001Y215499D01*
X246959Y215499D01*
G37*
%LPD*%
%LPC*%
G36*
X258999Y205459D02*
X258999Y205459D01*
X258999Y210501D01*
X266041Y210501D01*
X266041Y207666D01*
X265868Y207019D01*
X265533Y206440D01*
X265060Y205967D01*
X264481Y205632D01*
X263834Y205459D01*
X258999Y205459D01*
G37*
%LPD*%
%LPC*%
G36*
X249166Y205459D02*
X249166Y205459D01*
X248519Y205632D01*
X247940Y205967D01*
X247467Y206440D01*
X247132Y207019D01*
X246959Y207666D01*
X246959Y210501D01*
X254001Y210501D01*
X254001Y205459D01*
X249166Y205459D01*
G37*
%LPD*%
%LPC*%
G36*
X158749Y136249D02*
X158749Y136249D01*
X158749Y140656D01*
X159207Y140565D01*
X159387Y140552D01*
X159450Y140541D01*
X163034Y140541D01*
X163681Y140368D01*
X164260Y140033D01*
X164733Y139560D01*
X165068Y138981D01*
X165241Y138334D01*
X165241Y136499D01*
X164540Y136499D01*
X164415Y136483D01*
X164290Y136474D01*
X164259Y136463D01*
X164227Y136459D01*
X164110Y136413D01*
X163991Y136372D01*
X163964Y136354D01*
X163934Y136342D01*
X163833Y136268D01*
X163804Y136249D01*
X158749Y136249D01*
G37*
%LPD*%
%LPC*%
G36*
X158749Y133751D02*
X158749Y133751D01*
X163797Y133751D01*
X163825Y133726D01*
X163854Y133711D01*
X163879Y133690D01*
X163993Y133637D01*
X164104Y133579D01*
X164130Y133575D01*
X164165Y133558D01*
X164476Y133502D01*
X164515Y133505D01*
X164540Y133501D01*
X165241Y133501D01*
X165241Y131666D01*
X165068Y131019D01*
X164733Y130440D01*
X164260Y129967D01*
X163681Y129632D01*
X163034Y129459D01*
X159450Y129459D01*
X159271Y129436D01*
X159207Y129435D01*
X158749Y129344D01*
X158749Y133751D01*
G37*
%LPD*%
%LPC*%
G36*
X159199Y179459D02*
X159199Y179459D01*
X159199Y183501D01*
X165241Y183501D01*
X165241Y181666D01*
X165068Y181019D01*
X164995Y180894D01*
X164936Y180754D01*
X164876Y180614D01*
X164875Y180608D01*
X164873Y180603D01*
X164852Y180453D01*
X164828Y180302D01*
X164829Y180296D01*
X164828Y180291D01*
X164845Y180140D01*
X164860Y179988D01*
X164862Y179983D01*
X164863Y179978D01*
X164917Y179834D01*
X164926Y179810D01*
X164891Y179827D01*
X164801Y179847D01*
X164713Y179876D01*
X164647Y179880D01*
X164583Y179894D01*
X164504Y179891D01*
X164475Y179896D01*
X164471Y179896D01*
X164448Y179893D01*
X164398Y179896D01*
X164333Y179884D01*
X164268Y179881D01*
X164220Y179864D01*
X164158Y179856D01*
X164130Y179845D01*
X164088Y179837D01*
X163970Y179781D01*
X163865Y179739D01*
X163858Y179733D01*
X163851Y179731D01*
X163681Y179632D01*
X163034Y179459D01*
X159199Y179459D01*
G37*
%LPD*%
%LPC*%
G36*
X246249Y178749D02*
X246249Y178749D01*
X246249Y183156D01*
X246689Y183068D01*
X247743Y182632D01*
X248691Y181998D01*
X249498Y181191D01*
X250132Y180243D01*
X250568Y179189D01*
X250656Y178749D01*
X246249Y178749D01*
G37*
%LPD*%
%LPC*%
G36*
X193749Y133749D02*
X193749Y133749D01*
X193749Y138156D01*
X194189Y138068D01*
X195243Y137632D01*
X196191Y136998D01*
X196998Y136191D01*
X197632Y135243D01*
X198068Y134189D01*
X198156Y133749D01*
X193749Y133749D01*
G37*
%LPD*%
%LPC*%
G36*
X106249Y206249D02*
X106249Y206249D01*
X106249Y210656D01*
X106689Y210568D01*
X107743Y210132D01*
X108691Y209498D01*
X109498Y208691D01*
X110132Y207743D01*
X110568Y206689D01*
X110656Y206249D01*
X106249Y206249D01*
G37*
%LPD*%
%LPC*%
G36*
X111249Y183751D02*
X111249Y183751D01*
X115656Y183751D01*
X115568Y183311D01*
X115132Y182257D01*
X114498Y181309D01*
X113691Y180502D01*
X112743Y179868D01*
X111689Y179432D01*
X111249Y179344D01*
X111249Y183751D01*
G37*
%LPD*%
%LPC*%
G36*
X246249Y176251D02*
X246249Y176251D01*
X250656Y176251D01*
X250568Y175811D01*
X250132Y174757D01*
X249498Y173809D01*
X248691Y173002D01*
X247743Y172368D01*
X246689Y171932D01*
X246249Y171844D01*
X246249Y176251D01*
G37*
%LPD*%
%LPC*%
G36*
X99344Y206249D02*
X99344Y206249D01*
X99432Y206689D01*
X99868Y207743D01*
X100502Y208691D01*
X101309Y209498D01*
X102257Y210132D01*
X103311Y210568D01*
X103751Y210656D01*
X103751Y206249D01*
X99344Y206249D01*
G37*
%LPD*%
%LPC*%
G36*
X186844Y133749D02*
X186844Y133749D01*
X186932Y134189D01*
X187368Y135243D01*
X188002Y136191D01*
X188809Y136998D01*
X189757Y137632D01*
X190811Y138068D01*
X191251Y138156D01*
X191251Y133749D01*
X186844Y133749D01*
G37*
%LPD*%
%LPC*%
G36*
X201249Y181251D02*
X201249Y181251D01*
X205656Y181251D01*
X205568Y180811D01*
X205132Y179757D01*
X204498Y178809D01*
X203691Y178002D01*
X202743Y177368D01*
X201689Y176932D01*
X201249Y176844D01*
X201249Y181251D01*
G37*
%LPD*%
%LPC*%
G36*
X239344Y178749D02*
X239344Y178749D01*
X239432Y179189D01*
X239868Y180243D01*
X240502Y181191D01*
X241309Y181998D01*
X242257Y182632D01*
X243311Y183068D01*
X243751Y183156D01*
X243751Y178749D01*
X239344Y178749D01*
G37*
%LPD*%
%LPC*%
G36*
X198311Y176932D02*
X198311Y176932D01*
X197257Y177368D01*
X196309Y178002D01*
X195502Y178809D01*
X194868Y179757D01*
X194432Y180811D01*
X194344Y181251D01*
X198751Y181251D01*
X198751Y176844D01*
X198311Y176932D01*
G37*
%LPD*%
%LPC*%
G36*
X188949Y173749D02*
X188949Y173749D01*
X188949Y176541D01*
X191534Y176541D01*
X192181Y176368D01*
X192760Y176033D01*
X193233Y175560D01*
X193568Y174981D01*
X193741Y174334D01*
X193741Y173749D01*
X188949Y173749D01*
G37*
%LPD*%
%LPC*%
G36*
X181659Y173749D02*
X181659Y173749D01*
X181659Y174334D01*
X181832Y174981D01*
X182167Y175560D01*
X182640Y176033D01*
X183219Y176368D01*
X183866Y176541D01*
X186451Y176541D01*
X186451Y173749D01*
X181659Y173749D01*
G37*
%LPD*%
%LPC*%
G36*
X319999Y29999D02*
X319999Y29999D01*
X319999Y30001D01*
X320001Y30001D01*
X320001Y29999D01*
X319999Y29999D01*
G37*
%LPD*%
%LPC*%
G36*
X29999Y29999D02*
X29999Y29999D01*
X29999Y30001D01*
X30001Y30001D01*
X30001Y29999D01*
X29999Y29999D01*
G37*
%LPD*%
%LPC*%
G36*
X155199Y272499D02*
X155199Y272499D01*
X155199Y272501D01*
X155201Y272501D01*
X155201Y272499D01*
X155199Y272499D01*
G37*
%LPD*%
%LPC*%
G36*
X29999Y319999D02*
X29999Y319999D01*
X29999Y320001D01*
X30001Y320001D01*
X30001Y319999D01*
X29999Y319999D01*
G37*
%LPD*%
%LPC*%
G36*
X319999Y319999D02*
X319999Y319999D01*
X319999Y320001D01*
X320001Y320001D01*
X320001Y319999D01*
X319999Y319999D01*
G37*
%LPD*%
%LPC*%
G36*
X256499Y212999D02*
X256499Y212999D01*
X256499Y213001D01*
X256501Y213001D01*
X256501Y212999D01*
X256499Y212999D01*
G37*
%LPD*%
D10*
X202500Y225000D03*
D11*
X187700Y234400D03*
X187700Y225000D03*
X187700Y215600D03*
X217300Y225000D03*
X217300Y215500D03*
X217300Y234500D03*
D12*
X90000Y160000D03*
D13*
X80000Y180000D03*
X85000Y180000D03*
X90000Y180000D03*
X95000Y180000D03*
X100000Y180000D03*
X100000Y140000D03*
X95000Y140000D03*
X90000Y140000D03*
X85000Y140000D03*
X80000Y140000D03*
D14*
X110000Y150000D03*
X110000Y155000D03*
X110000Y160000D03*
X110000Y165000D03*
X110000Y170000D03*
X70000Y170000D03*
X70000Y165000D03*
X70000Y160000D03*
X70000Y155000D03*
X70000Y150000D03*
D15*
X289250Y272500D03*
X246250Y272500D03*
D16*
X278500Y222500D03*
X256500Y213000D03*
X256500Y232000D03*
D17*
X237500Y222500D03*
X237500Y232500D03*
D18*
X155200Y265000D02*
X155200Y280000D01*
X129800Y280000D02*
X129800Y265000D01*
X90200Y265000D02*
X90200Y280000D01*
X64800Y280000D02*
X64800Y265000D01*
D19*
X227500Y152500D03*
D20*
X223000Y166500D03*
X227500Y166500D03*
X232000Y166500D03*
X223000Y138500D03*
X227500Y138500D03*
X232000Y138500D03*
D21*
X241000Y148000D03*
X241000Y152500D03*
X241000Y157000D03*
X213500Y148000D03*
X213500Y152500D03*
X213500Y157000D03*
D22*
X212300Y143500D03*
D23*
X218500Y137300D03*
X218500Y167700D03*
D22*
X212300Y161500D03*
D23*
X236500Y167700D03*
X236500Y137300D03*
D22*
X242300Y143500D03*
X242300Y161500D03*
D24*
X183710Y81590D03*
X183710Y38410D03*
X266290Y38410D03*
X266290Y81590D03*
D18*
X215200Y265000D02*
X215200Y280000D01*
X189800Y280000D02*
X189800Y265000D01*
D25*
X191500Y112700D03*
X191500Y122300D03*
X173500Y122300D03*
X173500Y112700D03*
D26*
X187700Y157500D03*
X187700Y162500D03*
X187700Y167500D03*
X187700Y152500D03*
X187700Y147500D03*
X187700Y172500D03*
D27*
X157700Y185000D03*
X157700Y135000D03*
D28*
X129800Y247500D02*
X129800Y272500D01*
X129800Y247500D02*
X142900Y234400D01*
X187700Y234400D01*
D29*
X30000Y320000D03*
X30000Y30000D03*
X320000Y30000D03*
X320000Y320000D03*
D30*
X70000Y180000D03*
X245000Y177500D03*
X192500Y132500D03*
X200000Y182500D03*
X157500Y135000D03*
X90000Y155000D03*
D31*
X241000Y152500D02*
X248636Y152500D01*
X251818Y155682D01*
X251818Y170682D01*
X245000Y177500D01*
D30*
X125000Y135000D03*
X135000Y185000D03*
X110000Y185000D03*
X105000Y205000D03*
X170000Y215000D03*
D31*
X241000Y148000D02*
X250500Y148000D01*
X260000Y157500D01*
X260000Y185000D01*
X237500Y207500D01*
X192500Y207500D01*
X187700Y215000D02*
X187700Y215600D01*
X187700Y215000D02*
X187700Y212300D01*
X192500Y207500D01*
X187700Y215000D02*
X170000Y215000D01*
X187700Y152500D02*
X213500Y152500D01*
D30*
X178950Y149758D03*
D31*
X181692Y152500D01*
X187700Y152500D01*
D32*
X267500Y39620D02*
X266290Y38410D01*
X267500Y39620D02*
X267500Y52500D01*
D30*
X267500Y52500D03*
D28*
X187700Y225000D02*
X175000Y225000D01*
D33*
X175000Y225000D03*
D31*
X205000Y161500D02*
X212300Y161500D01*
X187700Y162500D02*
X170000Y162500D01*
D30*
X170000Y162500D03*
D31*
X204000Y162500D02*
X205000Y161500D01*
X204000Y162500D02*
X187700Y162500D01*
X218300Y167500D02*
X218500Y167700D01*
X218300Y167500D02*
X187700Y167500D01*
D30*
X170000Y175000D03*
D31*
X177500Y167500D01*
X187700Y167500D01*
X202500Y157000D02*
X213500Y157000D01*
D30*
X170000Y150000D03*
D31*
X177500Y157500D01*
X187700Y157500D01*
X202000Y157500D01*
X202500Y157000D01*
X223000Y166500D02*
X223000Y179500D01*
X210000Y192500D01*
D30*
X115000Y195000D03*
D31*
X100000Y187500D02*
X100000Y180000D01*
X150000Y192500D02*
X210000Y192500D01*
X115000Y195000D02*
X107500Y195000D01*
X100000Y187500D01*
X115000Y195000D02*
X147500Y195000D01*
X150000Y192500D01*
X85000Y190000D02*
X85000Y180000D01*
X85000Y190000D02*
X82500Y192500D01*
D30*
X82500Y192500D03*
D31*
X80000Y185000D02*
X80000Y180000D01*
X80000Y185000D02*
X72500Y192500D01*
D30*
X72500Y192500D03*
D31*
X237500Y232500D02*
X256000Y232500D01*
X256500Y232000D01*
D34*
X289250Y257500D02*
X289250Y272500D01*
D35*
X291750Y222500D02*
X278500Y222500D01*
D30*
X291750Y222500D03*
D35*
X291750Y270000D01*
X289250Y272500D01*
D31*
X227500Y225000D02*
X217300Y225000D01*
X230000Y222500D02*
X237500Y222500D01*
X230000Y222500D02*
X227500Y225000D01*
D36*
X215200Y272500D02*
X246250Y272500D01*
D31*
X199308Y147500D02*
X187700Y147500D01*
X199308Y147500D02*
X199808Y148000D01*
X213500Y148000D01*
X122500Y150000D02*
X110000Y150000D01*
X122500Y150000D02*
X137500Y135000D01*
D30*
X137500Y135000D03*
X252500Y115000D03*
D31*
X236500Y133500D02*
X236500Y137300D01*
X252500Y117500D02*
X252500Y115000D01*
X252500Y117500D02*
X236500Y133500D01*
D30*
X242500Y115000D03*
D31*
X232000Y131636D02*
X232000Y138500D01*
X242500Y121136D02*
X242500Y115000D01*
X242500Y121136D02*
X232000Y131636D01*
X160846Y120846D02*
X159192Y122500D01*
D30*
X160846Y120846D03*
D31*
X85000Y127500D02*
X85000Y140000D01*
X85000Y127500D02*
X90000Y122500D01*
X159192Y122500D01*
X227500Y120000D02*
X227500Y138500D01*
X227500Y120000D02*
X232500Y115000D01*
D30*
X232500Y115000D03*
D31*
X223000Y120500D02*
X223000Y138500D01*
X223000Y120500D02*
X217500Y115000D01*
D30*
X217500Y115000D03*
D31*
X232000Y166500D02*
X232000Y183228D01*
X213728Y201500D01*
D30*
X110000Y232500D03*
D31*
X127500Y232500D01*
X158500Y201500D01*
X213728Y201500D01*
D30*
X127500Y175000D03*
D31*
X122500Y170000D02*
X110000Y170000D01*
X122500Y170000D02*
X127500Y175000D01*
D30*
X137500Y175000D03*
D31*
X127500Y165000D02*
X110000Y165000D01*
X127500Y165000D02*
X137500Y175000D01*
D30*
X137500Y150000D03*
D31*
X132500Y155000D02*
X110000Y155000D01*
X132500Y155000D02*
X137500Y150000D01*
D37*
X90000Y192500D02*
X90000Y202500D01*
D30*
X77500Y202500D03*
D37*
X72500Y202500D01*
X62500Y192500D01*
D30*
X62500Y192500D03*
D37*
X77500Y202500D02*
X90000Y202500D01*
X90000Y192500D02*
X90000Y180000D01*
X90000Y192500D02*
X95000Y192500D01*
D30*
X95000Y192500D03*
D31*
X227500Y181364D02*
X227500Y166500D01*
X227500Y181364D02*
X211864Y197000D01*
X153000Y197000D01*
D30*
X95000Y130000D03*
X145000Y185000D03*
D31*
X145000Y133308D02*
X140192Y128500D01*
X145000Y133308D02*
X145000Y185000D01*
D30*
X145000Y205000D03*
D31*
X153000Y197000D01*
X95000Y130000D02*
X96500Y128500D01*
X140192Y128500D01*
X242300Y143500D02*
X251500Y143500D01*
X255000Y140000D01*
D30*
X255000Y140000D03*
D31*
X266290Y128710D01*
X266290Y81590D01*
X218500Y131000D02*
X218500Y137300D01*
X200200Y112700D02*
X191500Y112700D01*
X200200Y112700D02*
X218500Y131000D01*
X199800Y122300D02*
X191500Y122300D01*
X199800Y122300D02*
X205000Y127500D01*
X205000Y140000D01*
X208500Y143500D01*
X212300Y143500D01*
X173500Y122300D02*
X173500Y112700D01*
D30*
X175000Y140000D03*
D31*
X173500Y138500D02*
X173500Y122300D01*
X173500Y138500D02*
X175000Y140000D01*
M02*
