M48
;GenerationSoftware,Autodesk,EAGLE,9.0.0*%
;CreationDate,2018-04-30T13:02:46Z*%
FMAT,2
ICI,OFF
METRIC,TZ,000.000
T4C0.350
T3C0.500
T2C1.000
T1C2.000
%
G90
M71
T1
X3000Y32000
X3000Y3000
X32000Y3000
X32000Y32000
T2
X18980Y27250
X15520Y27250
X12980Y27250
X9020Y27250
X6480Y27250
X21520Y27250
T3
X17500Y22500
T4
X13500Y18500
X11000Y18500
X10500Y20500
X22750Y19500
X22750Y15250
X17000Y21500
X17895Y14976
X26750Y6000
X17000Y16250
X17000Y17500
X17000Y15000
X11500Y19500
X8250Y19250
X7250Y19250
X29175Y22250
X13750Y13500
X25250Y11500
X24250Y11500
X16085Y12085
X23250Y11500
X21750Y11500
X11000Y23250
X17750Y19942
X19770Y20008
X12750Y17500
X13750Y17500
X7000Y18000
X7750Y20250
X6250Y19250
X9500Y19250
X25250Y16250
X25500Y14000
X13750Y15000
X25500Y17750
X19250Y13250
X20000Y18250
X9000Y15500
X12500Y13500
X17500Y14000
M30