M48
;GenerationSoftware,Autodesk,EAGLE,9.0.0*%
;CreationDate,2018-04-27T20:10:21Z*%
FMAT,2
ICI,OFF
METRIC,TZ,000.000
T4C0.350
T3C0.600
T2C1.000
T1C2.000
%
G90
M71
T1
X33000Y33000
X2500Y33000
X2500Y2500
X33000Y2500
T2
X2500Y16980
X2500Y26730
X2500Y29270
X31020Y10250
X28480Y10250
X2500Y19520
T3
X24000Y25500
X19750Y29000
X21750Y29000
X21750Y27250
T4
X24750Y33250
X13000Y31000
X10750Y23250
X8750Y21500
X29750Y23200
X26050Y24450
X11450Y17200
X11500Y25500
X7000Y25000
X17810Y13510
X14450Y16950
X10250Y19000
X18250Y29000
X24750Y27500
X11750Y24000
X14500Y20750
X11750Y19750
X15909Y13659
X26000Y9500
X18500Y27000
X17750Y25750
X28400Y19900
X28851Y19149
X30925Y20250
X11000Y31000
X14500Y22000
X24500Y24000
X27750Y25750
X27500Y31750
X28000Y30300
X27248Y29850
X31000Y13000
X22000Y20750
X22000Y24540
X26000Y5500
X26000Y23500
X25625Y20125
X29425Y18499
X29575Y20250
X33165Y15585
X12500Y9250
X6750Y19000
X9000Y19000
X34675Y20000
X32085Y13165
X33500Y10000
X29250Y26750
X31750Y28000
X27750Y15500
X31750Y15500
X22000Y19500
M30