G75*
%MOIN*%
%OFA0B0*%
%FSLAX25Y25*%
%IPPOS*%
%LPD*%
%AMOC8*
5,1,8,0,0,1.08239X$1,22.5*
%
%ADD10C,0.00000*%
%ADD11R,0.05906X0.05118*%
%ADD12R,0.03543X0.02756*%
%ADD13R,0.05512X0.05512*%
%ADD14R,0.08661X0.06299*%
%ADD15R,0.06299X0.07098*%
%ADD16R,0.05118X0.05906*%
%ADD17R,0.01575X0.07874*%
%ADD18R,0.02756X0.03543*%
%ADD19R,0.06299X0.03937*%
%ADD20R,0.00984X0.02559*%
D10*
X0036492Y0045350D02*
X0156571Y0045350D01*
X0156809Y0045353D01*
X0157047Y0045361D01*
X0157284Y0045376D01*
X0157521Y0045396D01*
X0157757Y0045422D01*
X0157993Y0045453D01*
X0158228Y0045490D01*
X0158462Y0045533D01*
X0158695Y0045582D01*
X0158927Y0045636D01*
X0159157Y0045696D01*
X0159386Y0045761D01*
X0159613Y0045832D01*
X0159838Y0045908D01*
X0160061Y0045990D01*
X0160283Y0046077D01*
X0160502Y0046169D01*
X0160719Y0046267D01*
X0160933Y0046369D01*
X0161145Y0046477D01*
X0161355Y0046591D01*
X0161561Y0046709D01*
X0161765Y0046832D01*
X0161965Y0046960D01*
X0162162Y0047092D01*
X0162357Y0047230D01*
X0162547Y0047372D01*
X0162735Y0047519D01*
X0162918Y0047670D01*
X0163098Y0047825D01*
X0163274Y0047985D01*
X0163446Y0048149D01*
X0163615Y0048318D01*
X0163779Y0048490D01*
X0163939Y0048666D01*
X0164094Y0048846D01*
X0164245Y0049029D01*
X0164392Y0049217D01*
X0164534Y0049407D01*
X0164672Y0049602D01*
X0164804Y0049799D01*
X0164932Y0049999D01*
X0165055Y0050203D01*
X0165173Y0050409D01*
X0165287Y0050619D01*
X0165395Y0050831D01*
X0165497Y0051045D01*
X0165595Y0051262D01*
X0165687Y0051481D01*
X0165774Y0051703D01*
X0165856Y0051926D01*
X0165932Y0052151D01*
X0166003Y0052378D01*
X0166068Y0052607D01*
X0166128Y0052837D01*
X0166182Y0053069D01*
X0166231Y0053302D01*
X0166274Y0053536D01*
X0166311Y0053771D01*
X0166342Y0054007D01*
X0166368Y0054243D01*
X0166388Y0054480D01*
X0166403Y0054717D01*
X0166411Y0054955D01*
X0166414Y0055193D01*
X0166413Y0055193D02*
X0166413Y0175272D01*
X0166398Y0175522D01*
X0166377Y0175771D01*
X0166350Y0176019D01*
X0166318Y0176267D01*
X0166279Y0176514D01*
X0166234Y0176760D01*
X0166183Y0177005D01*
X0166126Y0177248D01*
X0166064Y0177490D01*
X0165995Y0177731D01*
X0165921Y0177970D01*
X0165841Y0178207D01*
X0165755Y0178441D01*
X0165664Y0178674D01*
X0165567Y0178905D01*
X0165465Y0179133D01*
X0165357Y0179358D01*
X0165244Y0179581D01*
X0165125Y0179801D01*
X0165001Y0180018D01*
X0164872Y0180232D01*
X0164737Y0180443D01*
X0164598Y0180651D01*
X0164454Y0180855D01*
X0164304Y0181056D01*
X0164150Y0181252D01*
X0163992Y0181446D01*
X0163828Y0181635D01*
X0163660Y0181820D01*
X0163488Y0182001D01*
X0163311Y0182178D01*
X0163130Y0182351D01*
X0162945Y0182519D01*
X0162756Y0182683D01*
X0162564Y0182842D01*
X0162367Y0182996D01*
X0162166Y0183146D01*
X0161963Y0183290D01*
X0161755Y0183430D01*
X0161545Y0183565D01*
X0161331Y0183694D01*
X0161114Y0183818D01*
X0160894Y0183937D01*
X0160671Y0184051D01*
X0160446Y0184159D01*
X0160218Y0184262D01*
X0159988Y0184359D01*
X0159755Y0184451D01*
X0159520Y0184537D01*
X0159283Y0184617D01*
X0159045Y0184692D01*
X0158804Y0184761D01*
X0158562Y0184824D01*
X0158319Y0184881D01*
X0158074Y0184932D01*
X0157828Y0184977D01*
X0157582Y0185016D01*
X0157334Y0185050D01*
X0157085Y0185077D01*
X0156836Y0185098D01*
X0156587Y0185114D01*
X0156337Y0185123D01*
X0156087Y0185126D01*
X0155837Y0185123D01*
X0155587Y0185114D01*
X0036492Y0185114D01*
X0036492Y0185115D02*
X0036254Y0185112D01*
X0036016Y0185104D01*
X0035779Y0185089D01*
X0035542Y0185069D01*
X0035306Y0185043D01*
X0035070Y0185012D01*
X0034835Y0184975D01*
X0034601Y0184932D01*
X0034368Y0184883D01*
X0034136Y0184829D01*
X0033906Y0184769D01*
X0033677Y0184704D01*
X0033450Y0184633D01*
X0033225Y0184557D01*
X0033002Y0184475D01*
X0032780Y0184388D01*
X0032561Y0184296D01*
X0032344Y0184198D01*
X0032130Y0184096D01*
X0031918Y0183988D01*
X0031708Y0183874D01*
X0031502Y0183756D01*
X0031298Y0183633D01*
X0031098Y0183505D01*
X0030901Y0183373D01*
X0030706Y0183235D01*
X0030516Y0183093D01*
X0030328Y0182946D01*
X0030145Y0182795D01*
X0029965Y0182640D01*
X0029789Y0182480D01*
X0029617Y0182316D01*
X0029448Y0182147D01*
X0029284Y0181975D01*
X0029124Y0181799D01*
X0028969Y0181619D01*
X0028818Y0181436D01*
X0028671Y0181248D01*
X0028529Y0181058D01*
X0028391Y0180863D01*
X0028259Y0180666D01*
X0028131Y0180466D01*
X0028008Y0180262D01*
X0027890Y0180056D01*
X0027776Y0179846D01*
X0027668Y0179634D01*
X0027566Y0179420D01*
X0027468Y0179203D01*
X0027376Y0178984D01*
X0027289Y0178762D01*
X0027207Y0178539D01*
X0027131Y0178314D01*
X0027060Y0178087D01*
X0026995Y0177858D01*
X0026935Y0177628D01*
X0026881Y0177396D01*
X0026832Y0177163D01*
X0026789Y0176929D01*
X0026752Y0176694D01*
X0026721Y0176458D01*
X0026695Y0176222D01*
X0026675Y0175985D01*
X0026660Y0175748D01*
X0026652Y0175510D01*
X0026649Y0175272D01*
X0026650Y0175272D02*
X0026650Y0055193D01*
X0026649Y0055193D02*
X0026652Y0054955D01*
X0026660Y0054717D01*
X0026675Y0054480D01*
X0026695Y0054243D01*
X0026721Y0054007D01*
X0026752Y0053771D01*
X0026789Y0053536D01*
X0026832Y0053302D01*
X0026881Y0053069D01*
X0026935Y0052837D01*
X0026995Y0052607D01*
X0027060Y0052378D01*
X0027131Y0052151D01*
X0027207Y0051926D01*
X0027289Y0051703D01*
X0027376Y0051481D01*
X0027468Y0051262D01*
X0027566Y0051045D01*
X0027668Y0050831D01*
X0027776Y0050619D01*
X0027890Y0050409D01*
X0028008Y0050203D01*
X0028131Y0049999D01*
X0028259Y0049799D01*
X0028391Y0049602D01*
X0028529Y0049407D01*
X0028671Y0049217D01*
X0028818Y0049029D01*
X0028969Y0048846D01*
X0029124Y0048666D01*
X0029284Y0048490D01*
X0029448Y0048318D01*
X0029617Y0048149D01*
X0029789Y0047985D01*
X0029965Y0047825D01*
X0030145Y0047670D01*
X0030328Y0047519D01*
X0030516Y0047372D01*
X0030706Y0047230D01*
X0030901Y0047092D01*
X0031098Y0046960D01*
X0031298Y0046832D01*
X0031502Y0046709D01*
X0031708Y0046591D01*
X0031918Y0046477D01*
X0032130Y0046369D01*
X0032344Y0046267D01*
X0032561Y0046169D01*
X0032780Y0046077D01*
X0033002Y0045990D01*
X0033225Y0045908D01*
X0033450Y0045832D01*
X0033677Y0045761D01*
X0033906Y0045696D01*
X0034136Y0045636D01*
X0034368Y0045582D01*
X0034601Y0045533D01*
X0034835Y0045490D01*
X0035070Y0045453D01*
X0035306Y0045422D01*
X0035542Y0045396D01*
X0035779Y0045376D01*
X0036016Y0045361D01*
X0036254Y0045353D01*
X0036492Y0045350D01*
D11*
X0048303Y0151846D03*
X0048303Y0159327D03*
D12*
X0053224Y0132555D03*
X0053224Y0127437D03*
X0068972Y0127437D03*
X0068972Y0132555D03*
X0075862Y0076453D03*
X0075862Y0071335D03*
X0133933Y0118579D03*
X0133933Y0123697D03*
X0143776Y0134327D03*
X0143776Y0139445D03*
X0122122Y0159917D03*
X0122122Y0165035D03*
X0139839Y0108933D03*
X0139839Y0103815D03*
X0147713Y0103815D03*
X0147713Y0108933D03*
D13*
X0058146Y0148106D03*
X0058146Y0163067D03*
D14*
X0070941Y0160114D03*
X0070941Y0149091D03*
D15*
X0064728Y0108343D03*
X0053531Y0108343D03*
D16*
X0140035Y0067988D03*
X0147516Y0067988D03*
D17*
X0139642Y0156571D03*
X0134917Y0156571D03*
X0130193Y0156571D03*
D18*
X0108933Y0141807D03*
X0103815Y0141807D03*
X0103815Y0127043D03*
X0103815Y0122122D03*
X0108933Y0122122D03*
X0108933Y0127043D03*
D19*
X0154602Y0115232D03*
D20*
X0154602Y0111098D03*
X0157161Y0111098D03*
X0152043Y0111098D03*
X0152043Y0119366D03*
X0154602Y0119366D03*
X0157161Y0119366D03*
M02*
