G75*
%MOIN*%
%OFA0B0*%
%FSLAX25Y25*%
%IPPOS*%
%LPD*%
%AMOC8*
5,1,8,0,0,1.08239X$1,22.5*
%
%ADD10C,0.00000*%
%ADD11R,0.09855X0.06706*%
%ADD12R,0.02611X0.03595*%
%ADD13R,0.10643X0.10643*%
%ADD14R,0.01981X0.03753*%
%ADD15R,0.03753X0.01981*%
%ADD16R,0.10249X0.06902*%
%ADD17R,0.02178X0.03359*%
%ADD18OC8,0.09300*%
%ADD19R,0.04737X0.06312*%
%ADD20R,0.04343X0.03556*%
%ADD21C,0.06706*%
%ADD22R,0.05918X0.05918*%
%ADD23R,0.03950X0.01784*%
%ADD24R,0.01784X0.03950*%
%ADD25R,0.01784X0.02965*%
%ADD26R,0.02965X0.01784*%
%ADD27C,0.04800*%
%ADD28R,0.10249X0.03792*%
%ADD29R,0.05524X0.05524*%
%ADD30R,0.05800X0.10800*%
%ADD31C,0.12611*%
D10*
X0036492Y0045350D02*
X0156571Y0045350D01*
X0156809Y0045353D01*
X0157047Y0045361D01*
X0157284Y0045376D01*
X0157521Y0045396D01*
X0157757Y0045422D01*
X0157993Y0045453D01*
X0158228Y0045490D01*
X0158462Y0045533D01*
X0158695Y0045582D01*
X0158927Y0045636D01*
X0159157Y0045696D01*
X0159386Y0045761D01*
X0159613Y0045832D01*
X0159838Y0045908D01*
X0160061Y0045990D01*
X0160283Y0046077D01*
X0160502Y0046169D01*
X0160719Y0046267D01*
X0160933Y0046369D01*
X0161145Y0046477D01*
X0161355Y0046591D01*
X0161561Y0046709D01*
X0161765Y0046832D01*
X0161965Y0046960D01*
X0162162Y0047092D01*
X0162357Y0047230D01*
X0162547Y0047372D01*
X0162735Y0047519D01*
X0162918Y0047670D01*
X0163098Y0047825D01*
X0163274Y0047985D01*
X0163446Y0048149D01*
X0163615Y0048318D01*
X0163779Y0048490D01*
X0163939Y0048666D01*
X0164094Y0048846D01*
X0164245Y0049029D01*
X0164392Y0049217D01*
X0164534Y0049407D01*
X0164672Y0049602D01*
X0164804Y0049799D01*
X0164932Y0049999D01*
X0165055Y0050203D01*
X0165173Y0050409D01*
X0165287Y0050619D01*
X0165395Y0050831D01*
X0165497Y0051045D01*
X0165595Y0051262D01*
X0165687Y0051481D01*
X0165774Y0051703D01*
X0165856Y0051926D01*
X0165932Y0052151D01*
X0166003Y0052378D01*
X0166068Y0052607D01*
X0166128Y0052837D01*
X0166182Y0053069D01*
X0166231Y0053302D01*
X0166274Y0053536D01*
X0166311Y0053771D01*
X0166342Y0054007D01*
X0166368Y0054243D01*
X0166388Y0054480D01*
X0166403Y0054717D01*
X0166411Y0054955D01*
X0166414Y0055193D01*
X0166413Y0055193D02*
X0166413Y0175272D01*
X0166398Y0175522D01*
X0166377Y0175771D01*
X0166350Y0176019D01*
X0166318Y0176267D01*
X0166279Y0176514D01*
X0166234Y0176760D01*
X0166183Y0177005D01*
X0166126Y0177248D01*
X0166064Y0177490D01*
X0165995Y0177731D01*
X0165921Y0177970D01*
X0165841Y0178207D01*
X0165755Y0178441D01*
X0165664Y0178674D01*
X0165567Y0178905D01*
X0165465Y0179133D01*
X0165357Y0179358D01*
X0165244Y0179581D01*
X0165125Y0179801D01*
X0165001Y0180018D01*
X0164872Y0180232D01*
X0164737Y0180443D01*
X0164598Y0180651D01*
X0164454Y0180855D01*
X0164304Y0181056D01*
X0164150Y0181252D01*
X0163992Y0181446D01*
X0163828Y0181635D01*
X0163660Y0181820D01*
X0163488Y0182001D01*
X0163311Y0182178D01*
X0163130Y0182351D01*
X0162945Y0182519D01*
X0162756Y0182683D01*
X0162564Y0182842D01*
X0162367Y0182996D01*
X0162166Y0183146D01*
X0161963Y0183290D01*
X0161755Y0183430D01*
X0161545Y0183565D01*
X0161331Y0183694D01*
X0161114Y0183818D01*
X0160894Y0183937D01*
X0160671Y0184051D01*
X0160446Y0184159D01*
X0160218Y0184262D01*
X0159988Y0184359D01*
X0159755Y0184451D01*
X0159520Y0184537D01*
X0159283Y0184617D01*
X0159045Y0184692D01*
X0158804Y0184761D01*
X0158562Y0184824D01*
X0158319Y0184881D01*
X0158074Y0184932D01*
X0157828Y0184977D01*
X0157582Y0185016D01*
X0157334Y0185050D01*
X0157085Y0185077D01*
X0156836Y0185098D01*
X0156587Y0185114D01*
X0156337Y0185123D01*
X0156087Y0185126D01*
X0155837Y0185123D01*
X0155587Y0185114D01*
X0036492Y0185114D01*
X0036492Y0185115D02*
X0036254Y0185112D01*
X0036016Y0185104D01*
X0035779Y0185089D01*
X0035542Y0185069D01*
X0035306Y0185043D01*
X0035070Y0185012D01*
X0034835Y0184975D01*
X0034601Y0184932D01*
X0034368Y0184883D01*
X0034136Y0184829D01*
X0033906Y0184769D01*
X0033677Y0184704D01*
X0033450Y0184633D01*
X0033225Y0184557D01*
X0033002Y0184475D01*
X0032780Y0184388D01*
X0032561Y0184296D01*
X0032344Y0184198D01*
X0032130Y0184096D01*
X0031918Y0183988D01*
X0031708Y0183874D01*
X0031502Y0183756D01*
X0031298Y0183633D01*
X0031098Y0183505D01*
X0030901Y0183373D01*
X0030706Y0183235D01*
X0030516Y0183093D01*
X0030328Y0182946D01*
X0030145Y0182795D01*
X0029965Y0182640D01*
X0029789Y0182480D01*
X0029617Y0182316D01*
X0029448Y0182147D01*
X0029284Y0181975D01*
X0029124Y0181799D01*
X0028969Y0181619D01*
X0028818Y0181436D01*
X0028671Y0181248D01*
X0028529Y0181058D01*
X0028391Y0180863D01*
X0028259Y0180666D01*
X0028131Y0180466D01*
X0028008Y0180262D01*
X0027890Y0180056D01*
X0027776Y0179846D01*
X0027668Y0179634D01*
X0027566Y0179420D01*
X0027468Y0179203D01*
X0027376Y0178984D01*
X0027289Y0178762D01*
X0027207Y0178539D01*
X0027131Y0178314D01*
X0027060Y0178087D01*
X0026995Y0177858D01*
X0026935Y0177628D01*
X0026881Y0177396D01*
X0026832Y0177163D01*
X0026789Y0176929D01*
X0026752Y0176694D01*
X0026721Y0176458D01*
X0026695Y0176222D01*
X0026675Y0175985D01*
X0026660Y0175748D01*
X0026652Y0175510D01*
X0026649Y0175272D01*
X0026650Y0175272D02*
X0026650Y0055193D01*
X0026649Y0055193D02*
X0026652Y0054955D01*
X0026660Y0054717D01*
X0026675Y0054480D01*
X0026695Y0054243D01*
X0026721Y0054007D01*
X0026752Y0053771D01*
X0026789Y0053536D01*
X0026832Y0053302D01*
X0026881Y0053069D01*
X0026935Y0052837D01*
X0026995Y0052607D01*
X0027060Y0052378D01*
X0027131Y0052151D01*
X0027207Y0051926D01*
X0027289Y0051703D01*
X0027376Y0051481D01*
X0027468Y0051262D01*
X0027566Y0051045D01*
X0027668Y0050831D01*
X0027776Y0050619D01*
X0027890Y0050409D01*
X0028008Y0050203D01*
X0028131Y0049999D01*
X0028259Y0049799D01*
X0028391Y0049602D01*
X0028529Y0049407D01*
X0028671Y0049217D01*
X0028818Y0049029D01*
X0028969Y0048846D01*
X0029124Y0048666D01*
X0029284Y0048490D01*
X0029448Y0048318D01*
X0029617Y0048149D01*
X0029789Y0047985D01*
X0029965Y0047825D01*
X0030145Y0047670D01*
X0030328Y0047519D01*
X0030516Y0047372D01*
X0030706Y0047230D01*
X0030901Y0047092D01*
X0031098Y0046960D01*
X0031298Y0046832D01*
X0031502Y0046709D01*
X0031708Y0046591D01*
X0031918Y0046477D01*
X0032130Y0046369D01*
X0032344Y0046267D01*
X0032561Y0046169D01*
X0032780Y0046077D01*
X0033002Y0045990D01*
X0033225Y0045908D01*
X0033450Y0045832D01*
X0033677Y0045761D01*
X0033906Y0045696D01*
X0034136Y0045636D01*
X0034368Y0045582D01*
X0034601Y0045533D01*
X0034835Y0045490D01*
X0035070Y0045453D01*
X0035306Y0045422D01*
X0035542Y0045396D01*
X0035779Y0045376D01*
X0036016Y0045361D01*
X0036254Y0045353D01*
X0036492Y0045350D01*
D11*
X0061098Y0129996D03*
D12*
X0061098Y0124169D03*
X0057398Y0124169D03*
X0064799Y0124169D03*
X0064839Y0135823D03*
X0061098Y0135823D03*
X0057358Y0135823D03*
D13*
X0143776Y0136925D03*
X0143776Y0136925D03*
D14*
X0143776Y0129051D03*
X0145744Y0129051D03*
X0147713Y0129051D03*
X0141807Y0129051D03*
X0139839Y0129051D03*
X0139839Y0144799D03*
X0141807Y0144799D03*
X0143776Y0144799D03*
X0145744Y0144799D03*
X0147713Y0144799D03*
D15*
X0151650Y0140862D03*
X0151650Y0138894D03*
X0151650Y0136925D03*
X0151650Y0134957D03*
X0151650Y0132988D03*
X0135902Y0132988D03*
X0135902Y0134957D03*
X0135902Y0136925D03*
X0135902Y0138894D03*
X0135902Y0140862D03*
D16*
X0143776Y0106374D03*
D17*
X0145055Y0112476D03*
X0147614Y0112476D03*
X0142496Y0112476D03*
X0139937Y0112476D03*
X0139937Y0100272D03*
X0142496Y0100272D03*
X0145055Y0100272D03*
X0147614Y0100272D03*
D18*
X0032555Y0126059D03*
X0032555Y0138854D03*
D19*
X0061295Y0159130D03*
X0068776Y0159130D03*
X0065035Y0167791D03*
D20*
X0061098Y0149287D03*
X0061098Y0144169D03*
X0067004Y0090232D03*
X0067004Y0085114D03*
X0100469Y0085114D03*
X0100469Y0090232D03*
D21*
X0138776Y0088657D02*
X0138776Y0082752D01*
X0148776Y0082752D02*
X0148776Y0088657D01*
X0039445Y0150587D02*
X0033539Y0150587D01*
X0033539Y0160587D02*
X0039445Y0160587D01*
D22*
X0124091Y0165429D03*
D23*
X0118579Y0165429D03*
X0118579Y0163657D03*
X0118579Y0167201D03*
X0129602Y0167201D03*
X0129602Y0165429D03*
X0129602Y0163657D03*
D24*
X0125862Y0159917D03*
X0124091Y0159917D03*
X0122319Y0159917D03*
X0122319Y0170744D03*
X0124091Y0170744D03*
X0125862Y0170744D03*
D25*
X0127634Y0171256D03*
X0120547Y0171256D03*
X0120547Y0159445D03*
X0127634Y0159445D03*
D26*
X0130075Y0161886D03*
X0130075Y0168972D03*
X0118106Y0168972D03*
X0118106Y0161886D03*
D27*
X0112280Y0159524D03*
X0112280Y0152634D03*
X0104406Y0159524D03*
X0121138Y0145744D03*
D28*
X0106177Y0141965D03*
X0106177Y0136965D03*
X0106177Y0131965D03*
X0106177Y0126965D03*
X0106138Y0121965D03*
X0090803Y0121965D03*
X0090823Y0126965D03*
X0090823Y0131965D03*
X0090823Y0136965D03*
X0090823Y0141965D03*
D29*
X0100469Y0078028D03*
X0100469Y0069760D03*
X0067004Y0069760D03*
X0067004Y0078028D03*
D30*
X0075236Y0090150D03*
X0092236Y0090150D03*
X0092236Y0057638D03*
X0075236Y0057638D03*
D31*
X0036492Y0055193D03*
X0036492Y0175272D03*
X0156571Y0175272D03*
X0156571Y0055193D03*
M02*
