G75*
%MOIN*%
%OFA0B0*%
%FSLAX25Y25*%
%IPPOS*%
%LPD*%
%AMOC8*
5,1,8,0,0,1.08239X$1,22.5*
%
%ADD10R,0.09855X0.06706*%
%ADD11R,0.02611X0.03595*%
%ADD12R,0.10643X0.10643*%
%ADD13R,0.01981X0.03753*%
%ADD14R,0.03753X0.01981*%
%ADD15R,0.10249X0.06902*%
%ADD16R,0.02178X0.03359*%
%ADD17OC8,0.09300*%
%ADD18R,0.04737X0.06312*%
%ADD19R,0.04343X0.03556*%
%ADD20C,0.06706*%
%ADD21R,0.05918X0.05918*%
%ADD22R,0.03950X0.01784*%
%ADD23R,0.01784X0.03950*%
%ADD24R,0.01784X0.02965*%
%ADD25R,0.02965X0.01784*%
%ADD26C,0.04800*%
%ADD27R,0.10249X0.03792*%
%ADD28R,0.05524X0.05524*%
%ADD29R,0.05800X0.10800*%
%ADD30C,0.12611*%
D10*
X0061098Y0129996D03*
D11*
X0061098Y0124169D03*
X0057398Y0124169D03*
X0064799Y0124169D03*
X0064839Y0135823D03*
X0061098Y0135823D03*
X0057358Y0135823D03*
D12*
X0143776Y0136925D03*
X0143776Y0136925D03*
D13*
X0143776Y0129051D03*
X0145744Y0129051D03*
X0147713Y0129051D03*
X0141807Y0129051D03*
X0139839Y0129051D03*
X0139839Y0144799D03*
X0141807Y0144799D03*
X0143776Y0144799D03*
X0145744Y0144799D03*
X0147713Y0144799D03*
D14*
X0151650Y0140862D03*
X0151650Y0138894D03*
X0151650Y0136925D03*
X0151650Y0134957D03*
X0151650Y0132988D03*
X0135902Y0132988D03*
X0135902Y0134957D03*
X0135902Y0136925D03*
X0135902Y0138894D03*
X0135902Y0140862D03*
D15*
X0143776Y0106374D03*
D16*
X0145055Y0112476D03*
X0147614Y0112476D03*
X0142496Y0112476D03*
X0139937Y0112476D03*
X0139937Y0100272D03*
X0142496Y0100272D03*
X0145055Y0100272D03*
X0147614Y0100272D03*
D17*
X0032555Y0126059D03*
X0032555Y0138854D03*
D18*
X0061295Y0159130D03*
X0068776Y0159130D03*
X0065035Y0167791D03*
D19*
X0061098Y0149287D03*
X0061098Y0144169D03*
X0067004Y0090232D03*
X0067004Y0085114D03*
X0100469Y0085114D03*
X0100469Y0090232D03*
D20*
X0138776Y0088657D02*
X0138776Y0082752D01*
X0148776Y0082752D02*
X0148776Y0088657D01*
X0039445Y0150587D02*
X0033539Y0150587D01*
X0033539Y0160587D02*
X0039445Y0160587D01*
D21*
X0124091Y0165429D03*
D22*
X0118579Y0165429D03*
X0118579Y0163657D03*
X0118579Y0167201D03*
X0129602Y0167201D03*
X0129602Y0165429D03*
X0129602Y0163657D03*
D23*
X0125862Y0159917D03*
X0124091Y0159917D03*
X0122319Y0159917D03*
X0122319Y0170744D03*
X0124091Y0170744D03*
X0125862Y0170744D03*
D24*
X0127634Y0171256D03*
X0120547Y0171256D03*
X0120547Y0159445D03*
X0127634Y0159445D03*
D25*
X0130075Y0161886D03*
X0130075Y0168972D03*
X0118106Y0168972D03*
X0118106Y0161886D03*
D26*
X0112280Y0159524D03*
X0112280Y0152634D03*
X0104406Y0159524D03*
X0121138Y0145744D03*
D27*
X0106177Y0141965D03*
X0106177Y0136965D03*
X0106177Y0131965D03*
X0106177Y0126965D03*
X0106138Y0121965D03*
X0090803Y0121965D03*
X0090823Y0126965D03*
X0090823Y0131965D03*
X0090823Y0136965D03*
X0090823Y0141965D03*
D28*
X0100469Y0078028D03*
X0100469Y0069760D03*
X0067004Y0069760D03*
X0067004Y0078028D03*
D29*
X0075236Y0090150D03*
X0092236Y0090150D03*
X0092236Y0057638D03*
X0075236Y0057638D03*
D30*
X0036492Y0055193D03*
X0036492Y0175272D03*
X0156571Y0175272D03*
X0156571Y0055193D03*
M02*
