M48
;GenerationSoftware,Autodesk,EAGLE,9.4.0*%
;CreationDate,2019-06-09T16:41:01Z*%
FMAT,2
ICI,OFF
METRIC,TZ,000.00000
T3C0.20000
T2C0.35000
T1C0.60000
%
G90
M71
T1
X0Y940000
X350000Y-375000
X-650000Y-750000
X-510000Y-840000
X595000Y760000
X550000Y-375000
T2
X0Y-1090000
X170000Y-170000
X-700000Y230000
X-120000Y-170000
X125000Y215000
X270000Y810000
X680000Y150000
X-680000Y-150000
X-590000Y770000
X660000Y-250000
X-590000Y-70000
X-220000Y770000
X-590000Y-160000
X-840000Y-70000
X850000Y-395000
X1100000Y0
X-750000Y545000
X370000Y810000
X-797500Y-667500
X-170000Y550000
X650000Y310000
X-220000Y630000
X-460000Y490000
X-240000Y250000
X-530000Y420000
X-510000Y-110000
X-400000Y420000
X45000Y715000
X650000Y450000
X0Y1100000
X-1100000Y-10000
X-170000Y700000
T3
X280000Y260000
X420000Y260000
X200000Y260000
X350000Y280000
M30