G04 EAGLE Gerber RS-274X export*
G75*
%MOMM*%
%FSLAX35Y35*%
%LPD*%
%INcopper_bottom*%
%IPPOS*%
%AMOC8*
5,1,8,0,0,1.08239X$1,22.5*%
G01*
%ADD10C,0.127000*%
%ADD11R,0.700000X0.900000*%
%ADD12R,1.400000X1.400000*%
%ADD13R,0.400000X2.000000*%
%ADD14R,2.500000X2.500000*%
%ADD15R,0.300000X0.750000*%
%ADD16R,0.750000X0.300000*%
%ADD17R,2.400000X1.500000*%
%ADD18R,0.350000X0.650000*%
%ADD19R,6.000000X2.500000*%
%ADD20C,1.016000*%
%ADD21R,0.600000X1.200000*%
%ADD22R,0.950000X2.500000*%
%ADD23R,0.300000X1.770000*%
%ADD24R,0.300000X0.650000*%
%ADD25R,0.650000X0.300000*%
%ADD26C,0.254000*%
%ADD27C,0.650000*%
%ADD28C,0.250000*%
%ADD29C,1.000000*%
%ADD30C,0.500000*%
%ADD31C,1.400000*%
%ADD32C,0.508000*%

G36*
X1181Y-1090234D02*
X1181Y-1090234D01*
X2366Y-1090161D01*
X2753Y-1090036D01*
X3157Y-1089985D01*
X4263Y-1089547D01*
X5393Y-1089182D01*
X5737Y-1088964D01*
X6115Y-1088814D01*
X7075Y-1088118D01*
X8081Y-1087482D01*
X8361Y-1087184D01*
X8690Y-1086946D01*
X9447Y-1086032D01*
X10262Y-1085166D01*
X10459Y-1084810D01*
X10719Y-1084496D01*
X11226Y-1083422D01*
X11800Y-1082381D01*
X11902Y-1081986D01*
X12076Y-1081618D01*
X12299Y-1080453D01*
X12597Y-1079302D01*
X12636Y-1078697D01*
X12675Y-1078494D01*
X12662Y-1078288D01*
X12701Y-1077684D01*
X12701Y-1033491D01*
X16888Y-1034324D01*
X27427Y-1038689D01*
X36910Y-1045026D01*
X44974Y-1053090D01*
X51310Y-1062573D01*
X55675Y-1073111D01*
X56462Y-1077066D01*
X56534Y-1077282D01*
X56558Y-1077511D01*
X57037Y-1078789D01*
X57468Y-1080084D01*
X57593Y-1080277D01*
X57673Y-1080490D01*
X58450Y-1081606D01*
X59193Y-1082757D01*
X59361Y-1082913D01*
X59492Y-1083100D01*
X60523Y-1083988D01*
X61528Y-1084917D01*
X61730Y-1085026D01*
X61903Y-1085175D01*
X63124Y-1085780D01*
X64327Y-1086429D01*
X64549Y-1086485D01*
X64754Y-1086586D01*
X66090Y-1086869D01*
X67413Y-1087199D01*
X67641Y-1087197D01*
X67866Y-1087245D01*
X69487Y-1087275D01*
X145669Y-1083854D01*
X145995Y-1083798D01*
X146325Y-1083807D01*
X147925Y-1083548D01*
X336858Y-1040425D01*
X337168Y-1040312D01*
X337495Y-1040263D01*
X339023Y-1039722D01*
X517220Y-963557D01*
X517505Y-963390D01*
X517817Y-963283D01*
X519224Y-962478D01*
X680957Y-855719D01*
X681208Y-855504D01*
X681496Y-855343D01*
X682737Y-854300D01*
X822808Y-720378D01*
X823017Y-720122D01*
X823272Y-719911D01*
X824307Y-718663D01*
X938214Y-561883D01*
X938373Y-561593D01*
X938587Y-561341D01*
X939382Y-559928D01*
X1023465Y-385328D01*
X1023570Y-385015D01*
X1023735Y-384729D01*
X1024265Y-383197D01*
X1075821Y-196389D01*
X1075868Y-196062D01*
X1075979Y-195752D01*
X1076227Y-194149D01*
X1087653Y-67202D01*
X1087622Y-66341D01*
X1087690Y-65483D01*
X1087565Y-64758D01*
X1087539Y-64023D01*
X1087295Y-63196D01*
X1087148Y-62348D01*
X1086847Y-61678D01*
X1086638Y-60971D01*
X1086196Y-60231D01*
X1085844Y-59447D01*
X1085385Y-58872D01*
X1085008Y-58240D01*
X1084397Y-57633D01*
X1083859Y-56960D01*
X1083272Y-56518D01*
X1082750Y-55999D01*
X1082007Y-55564D01*
X1081319Y-55045D01*
X1080109Y-54451D01*
X1080006Y-54390D01*
X1079958Y-54376D01*
X1079864Y-54330D01*
X1072573Y-51310D01*
X1063090Y-44974D01*
X1055026Y-36910D01*
X1048689Y-27427D01*
X1044324Y-16888D01*
X1043491Y-12701D01*
X1080950Y-12701D01*
X1082130Y-12552D01*
X1083314Y-12478D01*
X1083701Y-12353D01*
X1084106Y-12302D01*
X1085212Y-11865D01*
X1086341Y-11499D01*
X1086686Y-11282D01*
X1087064Y-11132D01*
X1088023Y-10436D01*
X1089030Y-9799D01*
X1089310Y-9502D01*
X1089638Y-9263D01*
X1090395Y-8350D01*
X1091211Y-7484D01*
X1091408Y-7128D01*
X1091668Y-6813D01*
X1092174Y-5739D01*
X1092749Y-4699D01*
X1092851Y-4304D01*
X1093024Y-3936D01*
X1093248Y-2771D01*
X1093546Y-1619D01*
X1093585Y-1014D01*
X1093623Y-812D01*
X1093623Y-809D01*
X1093611Y-605D01*
X1093649Y-1D01*
X1093649Y1D01*
X1093500Y1181D01*
X1093427Y2366D01*
X1093302Y2753D01*
X1093251Y3157D01*
X1092813Y4263D01*
X1092448Y5393D01*
X1092230Y5737D01*
X1092081Y6115D01*
X1091384Y7075D01*
X1090748Y8081D01*
X1090450Y8361D01*
X1090212Y8690D01*
X1089298Y9447D01*
X1088433Y10262D01*
X1088076Y10459D01*
X1087762Y10719D01*
X1086688Y11226D01*
X1085648Y11800D01*
X1085253Y11902D01*
X1084885Y12076D01*
X1083720Y12299D01*
X1082568Y12597D01*
X1081963Y12636D01*
X1081761Y12675D01*
X1081555Y12662D01*
X1080950Y12701D01*
X1043491Y12701D01*
X1044324Y16888D01*
X1048689Y27427D01*
X1055026Y36910D01*
X1063090Y44974D01*
X1072573Y51310D01*
X1079864Y54330D01*
X1080613Y54757D01*
X1081404Y55094D01*
X1081988Y55542D01*
X1082628Y55906D01*
X1083246Y56505D01*
X1083930Y57029D01*
X1084384Y57608D01*
X1084913Y58119D01*
X1085363Y58854D01*
X1085895Y59531D01*
X1086191Y60203D01*
X1086576Y60831D01*
X1086830Y61655D01*
X1087177Y62442D01*
X1087296Y63168D01*
X1087513Y63871D01*
X1087554Y64731D01*
X1087695Y65581D01*
X1087660Y66925D01*
X1087666Y67048D01*
X1087655Y67099D01*
X1087653Y67202D01*
X1076227Y194150D01*
X1076157Y194471D01*
X1076151Y194803D01*
X1075821Y196390D01*
X1025342Y379297D01*
X1024771Y380667D01*
X1024230Y382033D01*
X1024163Y382126D01*
X1024118Y382233D01*
X1023224Y383419D01*
X1022362Y384607D01*
X1022273Y384680D01*
X1022203Y384774D01*
X1021045Y385698D01*
X1019912Y386637D01*
X1019807Y386686D01*
X1019717Y386758D01*
X1018370Y387363D01*
X1017034Y387993D01*
X1016921Y388015D01*
X1016815Y388063D01*
X1015361Y388314D01*
X1013910Y388592D01*
X1013794Y388585D01*
X1013681Y388605D01*
X1012206Y388487D01*
X1010735Y388396D01*
X1010626Y388361D01*
X1010509Y388351D01*
X1009101Y387867D01*
X1007708Y387417D01*
X1007611Y387355D01*
X1007501Y387318D01*
X1006265Y386504D01*
X1005020Y385717D01*
X1004940Y385632D01*
X1004844Y385568D01*
X1003850Y384474D01*
X1002839Y383401D01*
X1002783Y383300D01*
X1002705Y383214D01*
X1002014Y381908D01*
X1001301Y380616D01*
X1001272Y380504D01*
X1001218Y380402D01*
X1000875Y378969D01*
X1000504Y377537D01*
X1000494Y377380D01*
X1000477Y377308D01*
X1000479Y377151D01*
X1000400Y375919D01*
X1000400Y367499D01*
X957499Y367499D01*
X957499Y420400D01*
X978343Y420400D01*
X984018Y418880D01*
X984929Y418755D01*
X985818Y418534D01*
X986496Y418540D01*
X987169Y418448D01*
X988082Y418553D01*
X988999Y418560D01*
X989654Y418734D01*
X990329Y418812D01*
X991187Y419141D01*
X992073Y419376D01*
X992666Y419708D01*
X993300Y419951D01*
X994047Y420481D01*
X994849Y420930D01*
X995341Y421399D01*
X995894Y421792D01*
X996487Y422493D01*
X997151Y423126D01*
X997511Y423702D01*
X997949Y424220D01*
X998349Y425045D01*
X998836Y425824D01*
X999041Y426473D01*
X999337Y427083D01*
X999519Y427981D01*
X999796Y428857D01*
X999834Y429535D01*
X999969Y430200D01*
X999922Y431116D01*
X999973Y432033D01*
X999842Y432700D01*
X999807Y433377D01*
X999534Y434253D01*
X999356Y435154D01*
X998911Y436250D01*
X998860Y436414D01*
X998816Y436486D01*
X998747Y436656D01*
X939382Y559928D01*
X939203Y560206D01*
X939082Y560513D01*
X938214Y561883D01*
X824307Y718663D01*
X824081Y718903D01*
X823907Y719185D01*
X822808Y720378D01*
X682737Y854300D01*
X682472Y854496D01*
X682251Y854742D01*
X680957Y855719D01*
X519224Y962478D01*
X518928Y962624D01*
X518666Y962826D01*
X517219Y963557D01*
X339023Y1039722D01*
X338705Y1039813D01*
X338412Y1039964D01*
X336858Y1040425D01*
X147925Y1083548D01*
X147597Y1083581D01*
X147281Y1083678D01*
X145669Y1083854D01*
X66516Y1087408D01*
X65940Y1087362D01*
X65365Y1087408D01*
X64363Y1087234D01*
X63345Y1087152D01*
X62799Y1086964D01*
X62230Y1086866D01*
X61300Y1086447D01*
X60338Y1086116D01*
X59856Y1085798D01*
X59329Y1085561D01*
X58532Y1084925D01*
X57682Y1084364D01*
X57294Y1083937D01*
X56843Y1083577D01*
X56230Y1082763D01*
X55545Y1082008D01*
X55275Y1081498D01*
X54928Y1081037D01*
X54213Y1079581D01*
X51311Y1072573D01*
X44974Y1063090D01*
X36910Y1055026D01*
X27427Y1048689D01*
X16888Y1044324D01*
X12701Y1043491D01*
X12701Y1077684D01*
X12552Y1078864D01*
X12478Y1080048D01*
X12353Y1080435D01*
X12302Y1080840D01*
X11865Y1081945D01*
X11499Y1083075D01*
X11282Y1083419D01*
X11132Y1083798D01*
X10436Y1084757D01*
X9799Y1085763D01*
X9502Y1086044D01*
X9263Y1086372D01*
X8350Y1087129D01*
X7484Y1087945D01*
X7128Y1088142D01*
X6813Y1088402D01*
X5739Y1088908D01*
X4699Y1089483D01*
X4304Y1089585D01*
X3936Y1089758D01*
X2771Y1089982D01*
X1619Y1090280D01*
X1014Y1090318D01*
X812Y1090357D01*
X809Y1090357D01*
X605Y1090345D01*
X1Y1090383D01*
X-1Y1090383D01*
X-1181Y1090234D01*
X-2366Y1090161D01*
X-2753Y1090036D01*
X-3157Y1089985D01*
X-4263Y1089547D01*
X-5393Y1089182D01*
X-5737Y1088964D01*
X-6115Y1088814D01*
X-7075Y1088118D01*
X-8081Y1087482D01*
X-8361Y1087184D01*
X-8690Y1086946D01*
X-9447Y1086032D01*
X-10262Y1085166D01*
X-10459Y1084810D01*
X-10719Y1084496D01*
X-11226Y1083422D01*
X-11800Y1082381D01*
X-11902Y1081986D01*
X-12076Y1081618D01*
X-12299Y1080453D01*
X-12597Y1079302D01*
X-12636Y1078697D01*
X-12675Y1078494D01*
X-12662Y1078288D01*
X-12701Y1077684D01*
X-12701Y1043491D01*
X-16888Y1044324D01*
X-27427Y1048689D01*
X-36910Y1055026D01*
X-44974Y1063090D01*
X-51310Y1072573D01*
X-55302Y1082210D01*
X-55869Y1083204D01*
X-56364Y1084236D01*
X-56655Y1084582D01*
X-56878Y1084973D01*
X-57674Y1085796D01*
X-58410Y1086672D01*
X-58777Y1086934D01*
X-59091Y1087258D01*
X-60068Y1087858D01*
X-60998Y1088523D01*
X-61418Y1088686D01*
X-61803Y1088922D01*
X-62897Y1089259D01*
X-63963Y1089673D01*
X-64411Y1089726D01*
X-64842Y1089859D01*
X-65987Y1089914D01*
X-67122Y1090049D01*
X-67803Y1090001D01*
X-68020Y1090012D01*
X-68211Y1089972D01*
X-68739Y1089935D01*
X-242238Y1066433D01*
X-242557Y1066348D01*
X-242888Y1066328D01*
X-244458Y1065926D01*
X-428765Y1006041D01*
X-429064Y1005900D01*
X-429384Y1005822D01*
X-430858Y1005147D01*
X-601510Y913315D01*
X-601779Y913123D01*
X-602080Y912988D01*
X-603410Y912061D01*
X-754922Y791234D01*
X-755152Y790997D01*
X-755425Y790811D01*
X-756568Y789660D01*
X-884070Y643722D01*
X-884254Y643448D01*
X-884490Y643216D01*
X-885409Y641880D01*
X-984804Y475520D01*
X-984937Y475217D01*
X-985126Y474947D01*
X-985792Y473469D01*
X-1053885Y292034D01*
X-1053962Y291713D01*
X-1054100Y291413D01*
X-1054491Y289840D01*
X-1089094Y99163D01*
X-1089112Y98833D01*
X-1089194Y98513D01*
X-1089298Y96895D01*
X-1089298Y56723D01*
X-1089261Y56433D01*
X-1089284Y56143D01*
X-1089063Y54861D01*
X-1088899Y53568D01*
X-1088792Y53296D01*
X-1088742Y53008D01*
X-1088208Y51820D01*
X-1087729Y50609D01*
X-1087558Y50373D01*
X-1087438Y50107D01*
X-1086626Y49089D01*
X-1085860Y48035D01*
X-1085636Y47849D01*
X-1085453Y47621D01*
X-1084416Y46838D01*
X-1083411Y46006D01*
X-1083146Y45881D01*
X-1082913Y45706D01*
X-1081458Y44991D01*
X-1072573Y41310D01*
X-1063090Y34974D01*
X-1055026Y26910D01*
X-1048689Y17427D01*
X-1044324Y6888D01*
X-1043492Y2701D01*
X-1076598Y2701D01*
X-1077778Y2552D01*
X-1078963Y2479D01*
X-1079350Y2354D01*
X-1079754Y2303D01*
X-1080860Y1865D01*
X-1081990Y1500D01*
X-1082334Y1282D01*
X-1082713Y1133D01*
X-1083672Y436D01*
X-1084678Y-200D01*
X-1084958Y-498D01*
X-1085287Y-736D01*
X-1086044Y-1650D01*
X-1086859Y-2516D01*
X-1087056Y-2872D01*
X-1087316Y-3186D01*
X-1087823Y-4261D01*
X-1088397Y-5301D01*
X-1088499Y-5696D01*
X-1088673Y-6063D01*
X-1088896Y-7228D01*
X-1089194Y-8380D01*
X-1089233Y-8985D01*
X-1089272Y-9188D01*
X-1089272Y-9191D01*
X-1089259Y-9395D01*
X-1089298Y-9998D01*
X-1089298Y-10001D01*
X-1089149Y-11181D01*
X-1089076Y-12366D01*
X-1088950Y-12753D01*
X-1088899Y-13157D01*
X-1088462Y-14263D01*
X-1088097Y-15393D01*
X-1087879Y-15737D01*
X-1087729Y-16115D01*
X-1087033Y-17075D01*
X-1086396Y-18081D01*
X-1086099Y-18361D01*
X-1085860Y-18690D01*
X-1084947Y-19447D01*
X-1084081Y-20262D01*
X-1083725Y-20459D01*
X-1083411Y-20719D01*
X-1082336Y-21226D01*
X-1081296Y-21800D01*
X-1080901Y-21902D01*
X-1080533Y-22076D01*
X-1079368Y-22299D01*
X-1078216Y-22597D01*
X-1077612Y-22636D01*
X-1077409Y-22675D01*
X-1077203Y-22662D01*
X-1076598Y-22701D01*
X-1043491Y-22701D01*
X-1044324Y-26888D01*
X-1048689Y-37427D01*
X-1055026Y-46910D01*
X-1063090Y-54974D01*
X-1072573Y-61310D01*
X-1081458Y-64991D01*
X-1081713Y-65136D01*
X-1081990Y-65225D01*
X-1083091Y-65922D01*
X-1084222Y-66567D01*
X-1084431Y-66769D01*
X-1084678Y-66926D01*
X-1085573Y-67875D01*
X-1086507Y-68780D01*
X-1086659Y-69028D01*
X-1086859Y-69241D01*
X-1087491Y-70385D01*
X-1088170Y-71491D01*
X-1088256Y-71770D01*
X-1088397Y-72026D01*
X-1088724Y-73287D01*
X-1089107Y-74531D01*
X-1089121Y-74823D01*
X-1089194Y-75106D01*
X-1089298Y-76723D01*
X-1089298Y-96896D01*
X-1089257Y-97223D01*
X-1089281Y-97553D01*
X-1089094Y-99163D01*
X-1054491Y-289840D01*
X-1054392Y-290155D01*
X-1054357Y-290484D01*
X-1053885Y-292035D01*
X-985792Y-473469D01*
X-985638Y-473761D01*
X-985545Y-474078D01*
X-984804Y-475520D01*
X-885409Y-641880D01*
X-885204Y-642141D01*
X-885057Y-642435D01*
X-884070Y-643722D01*
X-870675Y-659053D01*
X-869988Y-659665D01*
X-869368Y-660348D01*
X-868802Y-660720D01*
X-868299Y-661168D01*
X-867482Y-661589D01*
X-866711Y-662097D01*
X-866070Y-662317D01*
X-865471Y-662626D01*
X-864576Y-662831D01*
X-863702Y-663131D01*
X-863028Y-663184D01*
X-862370Y-663335D01*
X-861449Y-663311D01*
X-860531Y-663384D01*
X-859866Y-663269D01*
X-859190Y-663251D01*
X-858304Y-662999D01*
X-857397Y-662842D01*
X-856781Y-662565D01*
X-856131Y-662380D01*
X-855335Y-661915D01*
X-854495Y-661538D01*
X-853967Y-661116D01*
X-853384Y-660776D01*
X-852729Y-660128D01*
X-852009Y-659553D01*
X-851602Y-659013D01*
X-851122Y-658539D01*
X-850649Y-657750D01*
X-850094Y-657013D01*
X-849576Y-655958D01*
X-849487Y-655810D01*
X-849462Y-655728D01*
X-849379Y-655558D01*
X-842008Y-637761D01*
X-838720Y-634473D01*
X-838115Y-633694D01*
X-837439Y-632976D01*
X-837144Y-632443D01*
X-836770Y-631960D01*
X-836378Y-631055D01*
X-835901Y-630191D01*
X-835748Y-629600D01*
X-835506Y-629041D01*
X-835351Y-628068D01*
X-835104Y-627111D01*
X-835039Y-626104D01*
X-835007Y-625899D01*
X-835018Y-625777D01*
X-835000Y-625493D01*
X-835000Y-539216D01*
X-834833Y-539048D01*
X-834105Y-538109D01*
X-833318Y-537219D01*
X-833132Y-536856D01*
X-832883Y-536535D01*
X-832412Y-535447D01*
X-831870Y-534386D01*
X-831780Y-533989D01*
X-831619Y-533616D01*
X-831433Y-532444D01*
X-831171Y-531283D01*
X-831183Y-530875D01*
X-831120Y-530474D01*
X-831231Y-529293D01*
X-831266Y-528103D01*
X-831379Y-527712D01*
X-831417Y-527307D01*
X-831818Y-526192D01*
X-832148Y-525047D01*
X-832355Y-524695D01*
X-832492Y-524313D01*
X-833158Y-523332D01*
X-833762Y-522305D01*
X-834162Y-521850D01*
X-834278Y-521680D01*
X-834432Y-521544D01*
X-834833Y-521088D01*
X-840326Y-515596D01*
X-843669Y-509804D01*
X-845400Y-503344D01*
X-845400Y-450398D01*
X-813970Y-450398D01*
X-812790Y-450249D01*
X-811605Y-450176D01*
X-811218Y-450051D01*
X-810814Y-450000D01*
X-809708Y-449563D01*
X-808578Y-449197D01*
X-808234Y-448979D01*
X-807856Y-448830D01*
X-806896Y-448133D01*
X-805890Y-447497D01*
X-805610Y-447199D01*
X-805281Y-446961D01*
X-804524Y-446048D01*
X-803709Y-445182D01*
X-803512Y-444825D01*
X-803252Y-444511D01*
X-802745Y-443437D01*
X-802171Y-442397D01*
X-802069Y-442002D01*
X-801895Y-441634D01*
X-801672Y-440469D01*
X-801374Y-439317D01*
X-801335Y-438712D01*
X-801296Y-438510D01*
X-801309Y-438304D01*
X-801270Y-437699D01*
X-801270Y-412300D01*
X-801419Y-411120D01*
X-801493Y-409936D01*
X-801618Y-409549D01*
X-801669Y-409144D01*
X-802106Y-408039D01*
X-802472Y-406909D01*
X-802689Y-406565D01*
X-802839Y-406186D01*
X-803535Y-405227D01*
X-804172Y-404221D01*
X-804469Y-403940D01*
X-804708Y-403612D01*
X-805621Y-402855D01*
X-806487Y-402039D01*
X-806843Y-401843D01*
X-807158Y-401583D01*
X-808232Y-401076D01*
X-809272Y-400502D01*
X-809667Y-400399D01*
X-810035Y-400226D01*
X-811200Y-400003D01*
X-812352Y-399704D01*
X-812957Y-399666D01*
X-813159Y-399627D01*
X-813365Y-399640D01*
X-813970Y-399601D01*
X-845400Y-399601D01*
X-845400Y-346655D01*
X-843669Y-340195D01*
X-840326Y-334404D01*
X-834833Y-328912D01*
X-834104Y-327972D01*
X-833318Y-327082D01*
X-833133Y-326720D01*
X-832883Y-326398D01*
X-832411Y-325308D01*
X-831870Y-324249D01*
X-831780Y-323852D01*
X-831619Y-323479D01*
X-831433Y-322308D01*
X-831171Y-321146D01*
X-831183Y-320739D01*
X-831120Y-320338D01*
X-831231Y-319154D01*
X-831266Y-317966D01*
X-831379Y-317576D01*
X-831417Y-317170D01*
X-831819Y-316051D01*
X-832148Y-314910D01*
X-832355Y-314559D01*
X-832492Y-314176D01*
X-833159Y-313193D01*
X-833762Y-312168D01*
X-834161Y-311715D01*
X-834278Y-311543D01*
X-834433Y-311406D01*
X-834833Y-310951D01*
X-835000Y-310784D01*
X-835000Y-229215D01*
X-833920Y-228135D01*
X-833317Y-227357D01*
X-832639Y-226638D01*
X-832344Y-226103D01*
X-831970Y-225622D01*
X-831578Y-224717D01*
X-831101Y-223853D01*
X-830948Y-223261D01*
X-830706Y-222702D01*
X-830552Y-221730D01*
X-830304Y-220773D01*
X-830239Y-219765D01*
X-830207Y-219561D01*
X-830218Y-219438D01*
X-830200Y-219155D01*
X-830200Y-135200D01*
X-830349Y-134020D01*
X-830423Y-132835D01*
X-830548Y-132448D01*
X-830599Y-132044D01*
X-831036Y-130938D01*
X-831402Y-129808D01*
X-831619Y-129464D01*
X-831769Y-129086D01*
X-832465Y-128126D01*
X-833102Y-127120D01*
X-833399Y-126840D01*
X-833638Y-126511D01*
X-834551Y-125754D01*
X-835417Y-124939D01*
X-835773Y-124742D01*
X-836088Y-124482D01*
X-837162Y-123975D01*
X-838202Y-123401D01*
X-838597Y-123299D01*
X-838965Y-123125D01*
X-840130Y-122902D01*
X-841282Y-122604D01*
X-841887Y-122565D01*
X-842089Y-122526D01*
X-842295Y-122539D01*
X-842900Y-122500D01*
X-850443Y-122500D01*
X-869739Y-114508D01*
X-884508Y-99739D01*
X-892500Y-80443D01*
X-892500Y-59557D01*
X-884508Y-40260D01*
X-869739Y-25492D01*
X-850443Y-17499D01*
X-847700Y-17499D01*
X-846520Y-17350D01*
X-845335Y-17277D01*
X-844948Y-17152D01*
X-844544Y-17101D01*
X-843438Y-16663D01*
X-842308Y-16298D01*
X-841964Y-16080D01*
X-841586Y-15931D01*
X-840626Y-15234D01*
X-839620Y-14598D01*
X-839340Y-14300D01*
X-839011Y-14062D01*
X-838254Y-13148D01*
X-837439Y-12283D01*
X-837242Y-11926D01*
X-836982Y-11612D01*
X-836475Y-10538D01*
X-835901Y-9498D01*
X-835799Y-9103D01*
X-835625Y-8735D01*
X-835402Y-7570D01*
X-835104Y-6418D01*
X-835065Y-5813D01*
X-835026Y-5611D01*
X-835039Y-5405D01*
X-835000Y-4800D01*
X-835000Y69112D01*
X-835132Y70158D01*
X-835175Y71211D01*
X-835331Y71731D01*
X-835399Y72268D01*
X-835786Y73247D01*
X-836090Y74258D01*
X-836370Y74723D01*
X-836569Y75226D01*
X-837189Y76079D01*
X-837733Y76982D01*
X-838119Y77362D01*
X-838438Y77800D01*
X-839251Y78474D01*
X-840002Y79212D01*
X-840397Y79475D01*
X-845726Y84804D01*
X-846090Y85380D01*
X-846485Y85752D01*
X-846812Y86183D01*
X-847638Y86838D01*
X-848405Y87561D01*
X-848880Y87823D01*
X-849304Y88160D01*
X-850267Y88589D01*
X-851190Y89099D01*
X-851716Y89235D01*
X-852210Y89455D01*
X-853248Y89632D01*
X-854270Y89896D01*
X-855128Y89951D01*
X-855346Y89988D01*
X-855503Y89975D01*
X-855888Y89999D01*
X-945785Y89999D01*
X-957500Y101715D01*
X-957500Y348285D01*
X-945785Y360000D01*
X-855888Y360000D01*
X-854842Y360132D01*
X-853788Y360175D01*
X-853269Y360331D01*
X-852732Y360399D01*
X-851753Y360786D01*
X-850742Y361090D01*
X-850277Y361370D01*
X-849774Y361569D01*
X-848920Y362189D01*
X-848018Y362733D01*
X-847638Y363119D01*
X-847199Y363438D01*
X-846526Y364251D01*
X-845788Y365002D01*
X-845524Y365397D01*
X-840196Y370726D01*
X-839620Y371090D01*
X-839248Y371485D01*
X-838817Y371812D01*
X-838162Y372638D01*
X-837439Y373405D01*
X-837177Y373880D01*
X-836840Y374304D01*
X-836411Y375267D01*
X-835901Y376190D01*
X-835765Y376716D01*
X-835545Y377210D01*
X-835368Y378248D01*
X-835104Y379270D01*
X-835049Y380128D01*
X-835012Y380346D01*
X-835025Y380503D01*
X-835000Y380888D01*
X-835000Y470785D01*
X-823285Y482500D01*
X-795400Y482500D01*
X-794220Y482649D01*
X-793035Y482723D01*
X-792648Y482848D01*
X-792244Y482899D01*
X-791138Y483336D01*
X-790008Y483702D01*
X-789664Y483919D01*
X-789286Y484069D01*
X-788326Y484765D01*
X-787320Y485402D01*
X-787040Y485699D01*
X-786711Y485938D01*
X-785954Y486851D01*
X-785139Y487717D01*
X-784942Y488073D01*
X-784682Y488388D01*
X-784175Y489462D01*
X-783601Y490502D01*
X-783499Y490897D01*
X-783325Y491265D01*
X-783102Y492430D01*
X-782804Y493582D01*
X-782765Y494187D01*
X-782726Y494389D01*
X-782739Y494595D01*
X-782700Y495200D01*
X-782700Y498193D01*
X-782824Y499171D01*
X-782853Y500158D01*
X-783023Y500745D01*
X-783099Y501349D01*
X-783461Y502265D01*
X-783735Y503214D01*
X-784045Y503741D01*
X-784269Y504307D01*
X-784848Y505105D01*
X-785349Y505956D01*
X-786016Y506713D01*
X-786138Y506882D01*
X-786233Y506961D01*
X-786420Y507173D01*
X-794508Y515260D01*
X-802500Y534557D01*
X-802500Y555443D01*
X-794508Y574739D01*
X-779739Y589508D01*
X-760443Y597500D01*
X-739557Y597500D01*
X-720260Y589508D01*
X-705492Y574739D01*
X-697499Y555443D01*
X-697499Y534557D01*
X-705492Y515261D01*
X-711173Y509580D01*
X-712025Y508482D01*
X-712912Y507412D01*
X-712999Y507227D01*
X-713123Y507066D01*
X-713675Y505792D01*
X-714268Y504534D01*
X-714307Y504334D01*
X-714388Y504147D01*
X-714607Y502767D01*
X-714867Y501410D01*
X-714855Y501207D01*
X-714887Y501006D01*
X-714757Y499619D01*
X-714671Y498235D01*
X-714608Y498042D01*
X-714589Y497838D01*
X-714118Y496527D01*
X-713692Y495208D01*
X-713583Y495036D01*
X-713514Y494844D01*
X-712735Y493696D01*
X-712701Y493641D01*
X-712701Y425003D01*
X-712700Y425001D01*
X-712701Y424997D01*
X-712701Y362099D01*
X-713879Y361950D01*
X-715063Y361877D01*
X-715450Y361752D01*
X-715855Y361701D01*
X-716961Y361263D01*
X-718090Y360898D01*
X-718435Y360680D01*
X-718813Y360531D01*
X-719773Y359834D01*
X-720779Y359198D01*
X-721059Y358900D01*
X-721388Y358662D01*
X-722144Y357748D01*
X-722960Y356883D01*
X-723157Y356526D01*
X-723417Y356212D01*
X-723923Y355138D01*
X-724498Y354098D01*
X-724600Y353703D01*
X-724773Y353335D01*
X-724997Y352170D01*
X-725295Y351018D01*
X-725334Y350413D01*
X-725373Y350211D01*
X-725360Y350005D01*
X-725398Y349400D01*
X-725398Y299457D01*
X-725293Y298621D01*
X-725287Y297779D01*
X-725094Y297048D01*
X-725000Y296301D01*
X-724691Y295519D01*
X-724475Y294703D01*
X-724107Y294043D01*
X-723830Y293343D01*
X-723336Y292662D01*
X-722924Y291925D01*
X-722403Y291378D01*
X-721961Y290768D01*
X-721313Y290231D01*
X-720732Y289621D01*
X-720093Y289221D01*
X-719511Y288739D01*
X-718748Y288379D01*
X-718035Y287933D01*
X-717317Y287704D01*
X-716634Y287382D01*
X-715807Y287224D01*
X-715004Y286968D01*
X-714251Y286925D01*
X-713510Y286783D01*
X-712701Y286833D01*
X-712701Y242701D01*
X-758827Y242701D01*
X-758953Y243090D01*
X-759356Y243728D01*
X-759671Y244412D01*
X-760202Y245065D01*
X-760653Y245779D01*
X-761203Y246297D01*
X-761678Y246880D01*
X-762355Y247382D01*
X-762969Y247960D01*
X-763629Y248325D01*
X-764235Y248773D01*
X-765015Y249090D01*
X-765754Y249498D01*
X-766485Y249687D01*
X-767182Y249970D01*
X-768016Y250083D01*
X-768833Y250295D01*
X-770238Y250385D01*
X-770334Y250398D01*
X-770372Y250393D01*
X-770451Y250398D01*
X-829800Y250398D01*
X-830980Y250249D01*
X-832164Y250176D01*
X-832551Y250051D01*
X-832956Y250000D01*
X-834062Y249563D01*
X-835191Y249197D01*
X-835536Y248979D01*
X-835914Y248830D01*
X-836873Y248133D01*
X-837880Y247497D01*
X-838160Y247199D01*
X-838488Y246961D01*
X-839245Y246048D01*
X-840061Y245182D01*
X-840258Y244825D01*
X-840518Y244511D01*
X-841024Y243437D01*
X-841599Y242397D01*
X-841701Y242002D01*
X-841874Y241634D01*
X-842098Y240469D01*
X-842396Y239317D01*
X-842435Y238712D01*
X-842473Y238510D01*
X-842461Y238304D01*
X-842499Y237699D01*
X-842499Y212300D01*
X-842350Y211120D01*
X-842277Y209936D01*
X-842152Y209549D01*
X-842101Y209144D01*
X-841663Y208039D01*
X-841298Y206909D01*
X-841080Y206565D01*
X-840931Y206186D01*
X-840234Y205226D01*
X-839598Y204221D01*
X-839300Y203940D01*
X-839062Y203612D01*
X-838148Y202855D01*
X-837283Y202039D01*
X-836926Y201843D01*
X-836612Y201583D01*
X-835538Y201076D01*
X-834498Y200502D01*
X-834103Y200399D01*
X-833735Y200226D01*
X-832570Y200003D01*
X-831418Y199704D01*
X-830813Y199666D01*
X-830611Y199627D01*
X-830405Y199640D01*
X-829800Y199601D01*
X-768462Y199601D01*
X-767627Y199706D01*
X-766784Y199712D01*
X-766054Y199905D01*
X-765306Y199999D01*
X-764524Y200309D01*
X-763708Y200524D01*
X-763049Y200892D01*
X-762348Y201170D01*
X-761667Y201664D01*
X-760931Y202075D01*
X-760384Y202595D01*
X-759773Y203038D01*
X-759236Y203687D01*
X-758626Y204268D01*
X-758226Y204906D01*
X-757744Y205488D01*
X-757385Y206250D01*
X-756938Y206964D01*
X-756709Y207683D01*
X-756388Y208366D01*
X-756229Y209192D01*
X-755973Y209995D01*
X-755931Y210749D01*
X-755788Y211490D01*
X-755840Y212330D01*
X-755793Y213171D01*
X-755979Y214570D01*
X-755985Y214665D01*
X-755996Y214700D01*
X-756007Y214778D01*
X-756508Y217299D01*
X-712701Y217299D01*
X-711553Y217444D01*
X-711800Y216996D01*
X-711902Y216601D01*
X-712076Y216233D01*
X-712299Y215068D01*
X-712597Y213917D01*
X-712636Y213312D01*
X-712675Y213109D01*
X-712662Y212903D01*
X-712701Y212299D01*
X-712701Y173174D01*
X-713394Y173223D01*
X-714223Y173072D01*
X-715063Y173020D01*
X-715781Y172788D01*
X-716524Y172653D01*
X-717289Y172300D01*
X-718090Y172041D01*
X-718728Y171638D01*
X-719413Y171323D01*
X-720066Y170792D01*
X-720779Y170341D01*
X-721297Y169791D01*
X-721882Y169316D01*
X-722382Y168639D01*
X-722960Y168026D01*
X-723325Y167364D01*
X-723773Y166758D01*
X-724090Y165979D01*
X-724498Y165241D01*
X-724687Y164509D01*
X-724971Y163811D01*
X-725083Y162978D01*
X-725295Y162161D01*
X-725385Y160753D01*
X-725398Y160659D01*
X-725393Y160621D01*
X-725398Y160543D01*
X-725398Y95200D01*
X-725249Y94020D01*
X-725176Y92835D01*
X-725051Y92448D01*
X-725000Y92044D01*
X-724563Y90938D01*
X-724197Y89808D01*
X-723979Y89464D01*
X-723830Y89086D01*
X-723133Y88126D01*
X-722497Y87120D01*
X-722199Y86840D01*
X-721961Y86511D01*
X-721048Y85754D01*
X-720182Y84939D01*
X-719825Y84742D01*
X-719511Y84482D01*
X-718437Y83975D01*
X-717397Y83401D01*
X-717002Y83299D01*
X-716634Y83125D01*
X-715469Y82902D01*
X-714317Y82604D01*
X-713712Y82565D01*
X-713510Y82526D01*
X-713304Y82539D01*
X-712699Y82500D01*
X-687300Y82500D01*
X-686120Y82649D01*
X-684936Y82723D01*
X-684549Y82848D01*
X-684144Y82899D01*
X-683039Y83336D01*
X-681909Y83702D01*
X-681565Y83919D01*
X-681186Y84069D01*
X-680227Y84765D01*
X-679221Y85402D01*
X-678940Y85699D01*
X-678612Y85938D01*
X-677855Y86851D01*
X-677039Y87717D01*
X-676843Y88073D01*
X-676583Y88388D01*
X-676076Y89462D01*
X-675502Y90502D01*
X-675399Y90897D01*
X-675226Y91265D01*
X-675003Y92430D01*
X-674704Y93582D01*
X-674666Y94187D01*
X-674627Y94389D01*
X-674640Y94595D01*
X-674601Y95200D01*
X-674601Y160543D01*
X-674706Y161378D01*
X-674712Y162221D01*
X-674905Y162951D01*
X-674999Y163699D01*
X-675309Y164481D01*
X-675524Y165297D01*
X-675892Y165956D01*
X-676170Y166657D01*
X-676664Y167338D01*
X-677075Y168074D01*
X-677595Y168621D01*
X-678038Y169232D01*
X-678687Y169769D01*
X-679268Y170379D01*
X-679906Y170779D01*
X-680488Y171261D01*
X-681250Y171620D01*
X-681964Y172067D01*
X-682683Y172296D01*
X-683366Y172618D01*
X-684192Y172776D01*
X-684995Y173032D01*
X-685749Y173074D01*
X-686490Y173217D01*
X-687299Y173167D01*
X-687299Y212299D01*
X-687448Y213479D01*
X-687521Y214663D01*
X-687646Y215050D01*
X-687697Y215455D01*
X-688135Y216560D01*
X-688396Y217369D01*
X-688312Y217363D01*
X-688109Y217325D01*
X-687903Y217338D01*
X-687299Y217299D01*
X-643492Y217299D01*
X-643993Y214778D01*
X-644053Y213938D01*
X-644211Y213111D01*
X-644165Y212358D01*
X-644218Y211605D01*
X-644067Y210776D01*
X-644015Y209936D01*
X-643783Y209219D01*
X-643648Y208476D01*
X-643295Y207710D01*
X-643036Y206909D01*
X-642633Y206272D01*
X-642317Y205586D01*
X-641786Y204933D01*
X-641336Y204221D01*
X-640786Y203703D01*
X-640310Y203118D01*
X-639633Y202617D01*
X-639020Y202039D01*
X-638359Y201674D01*
X-637753Y201226D01*
X-636973Y200909D01*
X-636235Y200502D01*
X-635505Y200313D01*
X-634806Y200028D01*
X-633971Y199915D01*
X-633156Y199704D01*
X-631748Y199614D01*
X-631653Y199602D01*
X-631616Y199606D01*
X-631538Y199601D01*
X-570200Y199601D01*
X-569020Y199750D01*
X-567835Y199823D01*
X-567448Y199948D01*
X-567044Y199999D01*
X-565938Y200437D01*
X-564808Y200802D01*
X-564464Y201020D01*
X-564086Y201170D01*
X-563126Y201866D01*
X-562120Y202503D01*
X-561840Y202800D01*
X-561511Y203038D01*
X-560754Y203952D01*
X-559939Y204818D01*
X-559742Y205174D01*
X-559482Y205488D01*
X-558975Y206563D01*
X-558401Y207603D01*
X-558299Y207998D01*
X-558125Y208366D01*
X-557902Y209531D01*
X-557604Y210683D01*
X-557565Y211287D01*
X-557526Y211490D01*
X-557539Y211696D01*
X-557500Y212300D01*
X-557500Y237699D01*
X-557649Y238879D01*
X-557723Y240063D01*
X-557848Y240450D01*
X-557899Y240855D01*
X-558336Y241961D01*
X-558702Y243090D01*
X-558919Y243435D01*
X-559069Y243813D01*
X-559765Y244773D01*
X-560402Y245779D01*
X-560699Y246059D01*
X-560938Y246388D01*
X-561851Y247144D01*
X-562717Y247960D01*
X-563073Y248157D01*
X-563388Y248417D01*
X-564462Y248923D01*
X-565502Y249498D01*
X-565897Y249600D01*
X-566265Y249773D01*
X-567430Y249997D01*
X-568582Y250295D01*
X-569187Y250334D01*
X-569389Y250373D01*
X-569595Y250360D01*
X-570200Y250398D01*
X-629548Y250398D01*
X-630385Y250293D01*
X-631228Y250287D01*
X-631957Y250094D01*
X-632704Y250000D01*
X-633488Y249690D01*
X-634303Y249475D01*
X-634962Y249107D01*
X-635663Y248830D01*
X-636344Y248335D01*
X-637081Y247923D01*
X-637628Y247403D01*
X-638237Y246961D01*
X-638775Y246312D01*
X-639385Y245731D01*
X-639784Y245093D01*
X-640266Y244511D01*
X-640626Y243748D01*
X-641073Y243034D01*
X-641179Y242701D01*
X-687299Y242701D01*
X-687299Y286825D01*
X-686605Y286776D01*
X-685776Y286928D01*
X-684936Y286979D01*
X-684219Y287211D01*
X-683476Y287347D01*
X-682710Y287699D01*
X-681909Y287958D01*
X-681272Y288361D01*
X-680586Y288677D01*
X-679933Y289208D01*
X-679221Y289659D01*
X-678703Y290208D01*
X-678118Y290684D01*
X-677617Y291361D01*
X-677039Y291974D01*
X-676675Y292634D01*
X-676226Y293241D01*
X-675909Y294022D01*
X-675502Y294759D01*
X-675312Y295491D01*
X-675029Y296189D01*
X-674916Y297022D01*
X-674704Y297839D01*
X-674614Y299246D01*
X-674602Y299341D01*
X-674606Y299378D01*
X-674601Y299457D01*
X-674601Y349400D01*
X-674750Y350580D01*
X-674823Y351764D01*
X-674948Y352151D01*
X-674999Y352556D01*
X-675437Y353662D01*
X-675802Y354791D01*
X-676020Y355136D01*
X-676170Y355514D01*
X-676866Y356473D01*
X-677503Y357480D01*
X-677800Y357760D01*
X-678038Y358088D01*
X-678952Y358845D01*
X-679818Y359661D01*
X-680174Y359858D01*
X-680488Y360118D01*
X-681563Y360624D01*
X-682603Y361199D01*
X-682998Y361301D01*
X-683366Y361474D01*
X-684531Y361698D01*
X-685683Y361996D01*
X-686287Y362035D01*
X-686490Y362073D01*
X-686696Y362061D01*
X-687299Y362099D01*
X-687299Y424997D01*
X-687299Y424999D01*
X-687299Y425003D01*
X-687299Y487900D01*
X-681655Y487900D01*
X-675195Y486169D01*
X-671788Y484202D01*
X-670942Y483846D01*
X-670136Y483401D01*
X-669479Y483231D01*
X-668855Y482969D01*
X-667947Y482834D01*
X-667056Y482604D01*
X-665881Y482529D01*
X-665708Y482503D01*
X-665623Y482512D01*
X-665438Y482500D01*
X-635400Y482500D01*
X-634220Y482649D01*
X-633035Y482723D01*
X-632648Y482848D01*
X-632244Y482899D01*
X-631138Y483336D01*
X-630008Y483702D01*
X-629664Y483919D01*
X-629286Y484069D01*
X-628326Y484765D01*
X-627320Y485402D01*
X-627040Y485699D01*
X-626711Y485938D01*
X-625954Y486851D01*
X-625139Y487717D01*
X-624942Y488073D01*
X-624682Y488388D01*
X-624175Y489462D01*
X-623601Y490502D01*
X-623499Y490897D01*
X-623325Y491265D01*
X-623102Y492430D01*
X-622804Y493582D01*
X-622765Y494187D01*
X-622726Y494389D01*
X-622739Y494595D01*
X-622700Y495200D01*
X-622700Y683545D01*
X-605611Y700634D01*
X-605309Y701024D01*
X-604941Y701358D01*
X-604335Y702279D01*
X-603661Y703148D01*
X-603465Y703601D01*
X-603192Y704015D01*
X-602833Y705059D01*
X-602397Y706067D01*
X-602320Y706554D01*
X-602158Y707024D01*
X-602071Y708123D01*
X-601898Y709208D01*
X-601944Y709701D01*
X-601905Y710195D01*
X-602093Y711280D01*
X-602196Y712376D01*
X-602363Y712841D01*
X-602447Y713329D01*
X-602898Y714333D01*
X-603271Y715370D01*
X-603549Y715780D01*
X-603752Y716231D01*
X-604437Y717089D01*
X-605056Y718003D01*
X-605428Y718331D01*
X-605736Y718717D01*
X-606615Y719379D01*
X-607440Y720109D01*
X-607880Y720334D01*
X-608276Y720632D01*
X-609731Y721347D01*
X-619739Y725492D01*
X-634508Y740260D01*
X-642500Y759557D01*
X-642500Y780443D01*
X-634508Y799739D01*
X-619739Y814508D01*
X-600443Y822500D01*
X-579557Y822500D01*
X-560260Y814508D01*
X-552173Y806420D01*
X-551395Y805817D01*
X-550676Y805139D01*
X-550141Y804844D01*
X-549660Y804470D01*
X-548755Y804078D01*
X-547891Y803601D01*
X-547299Y803448D01*
X-546740Y803206D01*
X-545768Y803052D01*
X-544811Y802804D01*
X-543803Y802739D01*
X-543599Y802707D01*
X-543476Y802718D01*
X-543193Y802700D01*
X-498345Y802700D01*
X-497367Y802824D01*
X-496380Y802853D01*
X-495793Y803023D01*
X-495189Y803099D01*
X-494273Y803461D01*
X-493323Y803735D01*
X-492797Y804045D01*
X-492231Y804269D01*
X-491433Y804848D01*
X-491174Y805000D01*
X-409216Y805000D01*
X-408980Y804765D01*
X-408042Y804037D01*
X-407151Y803250D01*
X-406788Y803064D01*
X-406467Y802815D01*
X-405377Y802343D01*
X-404318Y801802D01*
X-403922Y801713D01*
X-403548Y801551D01*
X-402375Y801364D01*
X-401215Y801103D01*
X-400807Y801115D01*
X-400406Y801052D01*
X-399225Y801163D01*
X-398035Y801198D01*
X-397644Y801311D01*
X-397239Y801349D01*
X-396123Y801750D01*
X-394979Y802080D01*
X-394627Y802287D01*
X-394245Y802424D01*
X-393263Y803090D01*
X-392238Y803694D01*
X-391783Y804093D01*
X-391612Y804209D01*
X-391475Y804365D01*
X-391020Y804765D01*
X-390785Y805000D01*
X-308887Y805000D01*
X-308603Y804844D01*
X-308122Y804470D01*
X-307217Y804078D01*
X-306353Y803601D01*
X-305761Y803448D01*
X-305202Y803206D01*
X-304230Y803052D01*
X-303273Y802804D01*
X-302265Y802739D01*
X-302061Y802707D01*
X-301938Y802718D01*
X-301655Y802700D01*
X-266807Y802700D01*
X-265829Y802824D01*
X-264842Y802853D01*
X-264255Y803023D01*
X-263651Y803099D01*
X-262735Y803461D01*
X-261785Y803735D01*
X-261259Y804045D01*
X-260693Y804269D01*
X-259895Y804848D01*
X-259044Y805349D01*
X-258287Y806016D01*
X-258118Y806138D01*
X-258039Y806233D01*
X-257827Y806420D01*
X-249739Y814508D01*
X-230443Y822500D01*
X-209557Y822500D01*
X-190260Y814508D01*
X-175492Y799739D01*
X-167499Y780443D01*
X-167499Y764276D01*
X-167463Y763985D01*
X-167486Y763695D01*
X-167264Y762413D01*
X-167101Y761120D01*
X-166993Y760848D01*
X-166944Y760560D01*
X-166410Y759372D01*
X-165931Y758162D01*
X-165759Y757925D01*
X-165639Y757659D01*
X-164827Y756641D01*
X-164062Y755587D01*
X-163837Y755401D01*
X-163655Y755173D01*
X-162617Y754390D01*
X-161612Y753558D01*
X-161347Y753433D01*
X-161115Y753258D01*
X-159660Y752543D01*
X-140260Y744508D01*
X-125492Y729739D01*
X-117499Y710443D01*
X-117499Y689557D01*
X-125492Y670260D01*
X-140260Y655492D01*
X-159660Y647457D01*
X-159914Y647312D01*
X-160191Y647222D01*
X-161292Y646526D01*
X-162423Y645881D01*
X-162632Y645678D01*
X-162880Y645522D01*
X-163774Y644572D01*
X-164708Y643668D01*
X-164861Y643419D01*
X-165061Y643207D01*
X-165690Y642067D01*
X-166372Y640956D01*
X-166458Y640677D01*
X-166599Y640422D01*
X-166925Y639160D01*
X-167309Y637916D01*
X-167323Y637625D01*
X-167396Y637342D01*
X-167499Y635724D01*
X-167499Y619557D01*
X-167507Y619539D01*
X-167821Y618391D01*
X-168207Y617269D01*
X-168239Y616864D01*
X-168347Y616471D01*
X-168366Y615281D01*
X-168460Y614098D01*
X-168391Y613698D01*
X-168397Y613290D01*
X-168120Y612135D01*
X-167918Y610964D01*
X-167751Y610592D01*
X-167656Y610197D01*
X-167101Y609146D01*
X-166613Y608063D01*
X-166360Y607744D01*
X-166169Y607384D01*
X-165370Y606504D01*
X-164629Y605576D01*
X-164304Y605331D01*
X-164030Y605030D01*
X-163038Y604377D01*
X-162089Y603661D01*
X-161545Y603394D01*
X-161373Y603281D01*
X-161178Y603214D01*
X-160634Y602946D01*
X-140260Y594508D01*
X-125492Y579739D01*
X-117499Y560443D01*
X-117499Y539557D01*
X-125492Y520260D01*
X-140260Y505492D01*
X-159557Y497499D01*
X-180443Y497499D01*
X-199739Y505492D01*
X-207827Y513580D01*
X-208605Y514183D01*
X-209324Y514861D01*
X-209858Y515156D01*
X-210340Y515530D01*
X-211244Y515921D01*
X-212109Y516399D01*
X-212701Y516552D01*
X-213259Y516794D01*
X-214232Y516948D01*
X-215189Y517196D01*
X-216197Y517260D01*
X-216401Y517293D01*
X-216524Y517281D01*
X-216807Y517299D01*
X-263545Y517299D01*
X-327526Y581280D01*
X-328303Y581883D01*
X-329023Y582561D01*
X-329557Y582856D01*
X-330039Y583230D01*
X-330943Y583621D01*
X-331808Y584099D01*
X-332400Y584252D01*
X-332958Y584494D01*
X-333931Y584648D01*
X-334888Y584896D01*
X-335896Y584960D01*
X-336100Y584993D01*
X-336223Y584981D01*
X-336505Y584999D01*
X-358095Y584999D01*
X-359477Y584825D01*
X-360857Y584695D01*
X-361048Y584627D01*
X-361251Y584601D01*
X-362542Y584090D01*
X-363851Y583620D01*
X-364020Y583505D01*
X-364209Y583431D01*
X-365329Y582618D01*
X-366483Y581835D01*
X-366619Y581681D01*
X-366783Y581562D01*
X-367669Y580493D01*
X-368590Y579451D01*
X-368682Y579270D01*
X-368813Y579112D01*
X-369406Y577853D01*
X-370038Y576618D01*
X-370082Y576419D01*
X-370169Y576235D01*
X-370431Y574873D01*
X-370736Y573515D01*
X-370730Y573310D01*
X-370768Y573111D01*
X-370683Y571730D01*
X-370642Y570335D01*
X-370585Y570138D01*
X-370572Y569936D01*
X-370145Y568615D01*
X-369759Y567279D01*
X-369656Y567103D01*
X-369593Y566909D01*
X-368848Y565730D01*
X-368146Y564538D01*
X-367960Y564327D01*
X-367893Y564220D01*
X-367739Y564076D01*
X-367075Y563320D01*
X-302099Y498345D01*
X-302099Y316654D01*
X-376454Y242299D01*
X-429800Y242299D01*
X-430980Y242150D01*
X-432164Y242077D01*
X-432551Y241952D01*
X-432956Y241901D01*
X-434062Y241463D01*
X-435191Y241098D01*
X-435536Y240880D01*
X-435914Y240731D01*
X-436873Y240034D01*
X-437880Y239398D01*
X-438160Y239100D01*
X-438488Y238862D01*
X-439245Y237948D01*
X-440061Y237083D01*
X-440258Y236726D01*
X-440518Y236412D01*
X-441026Y235335D01*
X-441599Y234298D01*
X-441701Y233903D01*
X-441874Y233535D01*
X-442098Y232370D01*
X-442396Y231218D01*
X-442435Y230613D01*
X-442473Y230411D01*
X-442461Y230205D01*
X-442499Y229600D01*
X-442499Y220400D01*
X-442350Y219220D01*
X-442277Y218035D01*
X-442152Y217648D01*
X-442101Y217244D01*
X-441663Y216138D01*
X-441298Y215008D01*
X-441080Y214664D01*
X-440931Y214286D01*
X-440234Y213326D01*
X-439598Y212320D01*
X-439300Y212039D01*
X-439062Y211711D01*
X-438148Y210954D01*
X-437283Y210139D01*
X-436926Y209942D01*
X-436612Y209682D01*
X-435538Y209175D01*
X-434498Y208601D01*
X-434103Y208499D01*
X-433735Y208325D01*
X-432570Y208102D01*
X-431418Y207804D01*
X-430813Y207765D01*
X-430611Y207726D01*
X-430405Y207739D01*
X-429800Y207700D01*
X-333805Y207700D01*
X-332828Y207824D01*
X-331841Y207853D01*
X-331254Y208023D01*
X-330649Y208099D01*
X-329734Y208461D01*
X-328784Y208735D01*
X-328258Y209045D01*
X-327691Y209269D01*
X-326893Y209848D01*
X-326043Y210349D01*
X-325285Y211016D01*
X-325117Y211138D01*
X-325038Y211233D01*
X-324826Y211420D01*
X-296220Y240026D01*
X-295617Y240803D01*
X-294939Y241523D01*
X-294644Y242057D01*
X-294270Y242539D01*
X-293878Y243443D01*
X-293401Y244308D01*
X-293248Y244900D01*
X-293006Y245458D01*
X-292852Y246431D01*
X-292604Y247388D01*
X-292539Y248396D01*
X-292507Y248600D01*
X-292518Y248723D01*
X-292500Y249005D01*
X-292500Y260443D01*
X-284508Y279739D01*
X-269739Y294508D01*
X-250443Y302500D01*
X-229557Y302500D01*
X-210260Y294508D01*
X-195492Y279739D01*
X-187499Y260443D01*
X-187499Y239557D01*
X-195492Y220260D01*
X-210260Y205492D01*
X-229557Y197499D01*
X-240994Y197499D01*
X-241972Y197376D01*
X-242959Y197347D01*
X-243546Y197177D01*
X-244150Y197101D01*
X-245066Y196739D01*
X-246016Y196465D01*
X-246542Y196155D01*
X-247108Y195931D01*
X-247906Y195352D01*
X-248757Y194851D01*
X-249514Y194184D01*
X-249683Y194062D01*
X-249762Y193966D01*
X-249974Y193780D01*
X-301454Y142299D01*
X-429800Y142299D01*
X-430980Y142150D01*
X-432164Y142077D01*
X-432551Y141952D01*
X-432956Y141901D01*
X-434062Y141463D01*
X-435191Y141098D01*
X-435536Y140880D01*
X-435914Y140731D01*
X-436873Y140034D01*
X-437880Y139398D01*
X-438160Y139100D01*
X-438488Y138862D01*
X-439245Y137948D01*
X-440061Y137083D01*
X-440258Y136726D01*
X-440518Y136412D01*
X-441026Y135335D01*
X-441599Y134298D01*
X-441701Y133903D01*
X-441874Y133535D01*
X-442098Y132370D01*
X-442396Y131218D01*
X-442435Y130613D01*
X-442473Y130411D01*
X-442461Y130205D01*
X-442499Y129600D01*
X-442499Y101715D01*
X-454215Y89999D01*
X-454600Y89999D01*
X-455780Y89850D01*
X-456964Y89777D01*
X-457351Y89652D01*
X-457756Y89601D01*
X-458862Y89163D01*
X-459991Y88798D01*
X-460336Y88580D01*
X-460714Y88431D01*
X-461673Y87734D01*
X-462680Y87098D01*
X-462960Y86800D01*
X-463288Y86562D01*
X-464045Y85648D01*
X-464861Y84783D01*
X-465058Y84426D01*
X-465318Y84112D01*
X-465824Y83038D01*
X-466399Y81998D01*
X-466501Y81603D01*
X-466674Y81235D01*
X-466898Y80070D01*
X-467196Y78918D01*
X-467235Y78313D01*
X-467273Y78111D01*
X-467261Y77905D01*
X-467299Y77300D01*
X-467299Y-73371D01*
X-467288Y-73459D01*
X-467298Y-73546D01*
X-467089Y-75034D01*
X-466901Y-76527D01*
X-466868Y-76609D01*
X-466856Y-76697D01*
X-466333Y-78231D01*
X-462152Y-88324D01*
X-461907Y-88754D01*
X-461740Y-89220D01*
X-461121Y-90133D01*
X-460576Y-91088D01*
X-460232Y-91443D01*
X-459954Y-91853D01*
X-459128Y-92582D01*
X-458363Y-93373D01*
X-457941Y-93631D01*
X-457570Y-93959D01*
X-456591Y-94460D01*
X-455652Y-95036D01*
X-455178Y-95182D01*
X-454738Y-95407D01*
X-453664Y-95648D01*
X-452612Y-95973D01*
X-452118Y-95997D01*
X-451634Y-96106D01*
X-450534Y-96073D01*
X-449434Y-96126D01*
X-448949Y-96026D01*
X-448455Y-96011D01*
X-447397Y-95706D01*
X-446318Y-95483D01*
X-445874Y-95266D01*
X-445398Y-95129D01*
X-444450Y-94571D01*
X-443460Y-94087D01*
X-443083Y-93766D01*
X-442657Y-93515D01*
X-441440Y-92444D01*
X-88720Y260275D01*
X-88117Y261053D01*
X-87439Y261773D01*
X-87144Y262307D01*
X-86770Y262788D01*
X-86378Y263693D01*
X-85901Y264558D01*
X-85748Y265149D01*
X-85506Y265708D01*
X-85352Y266680D01*
X-85104Y267637D01*
X-85039Y268645D01*
X-85007Y268849D01*
X-85018Y268972D01*
X-85000Y269255D01*
X-85000Y423923D01*
X-74343Y449653D01*
X-52866Y471130D01*
X48870Y572866D01*
X70347Y594343D01*
X96076Y605000D01*
X335744Y605000D01*
X336722Y605124D01*
X337709Y605153D01*
X338296Y605323D01*
X338900Y605399D01*
X339816Y605761D01*
X340766Y606035D01*
X341292Y606345D01*
X341858Y606569D01*
X342656Y607148D01*
X343507Y607649D01*
X344264Y608316D01*
X344433Y608438D01*
X344512Y608533D01*
X344724Y608720D01*
X532392Y796388D01*
X532446Y796458D01*
X532516Y796513D01*
X533424Y797718D01*
X534342Y798901D01*
X534378Y798983D01*
X534431Y799054D01*
X534918Y800045D01*
X554894Y820021D01*
X580917Y830800D01*
X609083Y830800D01*
X635106Y820021D01*
X655021Y800106D01*
X665313Y775260D01*
X665356Y775184D01*
X665381Y775099D01*
X666145Y773801D01*
X666888Y772497D01*
X666950Y772433D01*
X666995Y772358D01*
X668066Y771140D01*
X825400Y613806D01*
X825400Y427700D01*
X825549Y426520D01*
X825623Y425335D01*
X825748Y424948D01*
X825799Y424544D01*
X826236Y423438D01*
X826602Y422308D01*
X826819Y421964D01*
X826969Y421586D01*
X827665Y420626D01*
X828302Y419620D01*
X828599Y419340D01*
X828838Y419011D01*
X829751Y418254D01*
X830617Y417439D01*
X830973Y417242D01*
X831288Y416982D01*
X832362Y416475D01*
X833402Y415901D01*
X833797Y415799D01*
X834165Y415625D01*
X835330Y415402D01*
X836482Y415104D01*
X837087Y415065D01*
X837289Y415026D01*
X837495Y415039D01*
X838100Y415000D01*
X853284Y415000D01*
X863094Y405190D01*
X864087Y404420D01*
X865036Y403600D01*
X865339Y403449D01*
X865608Y403240D01*
X866759Y402742D01*
X867883Y402182D01*
X868216Y402111D01*
X868527Y401976D01*
X869763Y401780D01*
X870994Y401517D01*
X871334Y401530D01*
X871668Y401477D01*
X872919Y401595D01*
X874173Y401645D01*
X874497Y401743D01*
X874836Y401774D01*
X876019Y402200D01*
X877219Y402560D01*
X877510Y402735D01*
X877829Y402850D01*
X878868Y403554D01*
X879943Y404203D01*
X880182Y404445D01*
X880462Y404635D01*
X881293Y405575D01*
X882174Y406471D01*
X882446Y406880D01*
X882569Y407019D01*
X882669Y407215D01*
X883072Y407821D01*
X884675Y410597D01*
X889403Y415325D01*
X895195Y418669D01*
X901655Y420400D01*
X922500Y420400D01*
X922500Y354802D01*
X922649Y353622D01*
X922722Y352438D01*
X922848Y352051D01*
X922898Y351646D01*
X923336Y350540D01*
X923491Y350060D01*
X923401Y349895D01*
X923298Y349500D01*
X923125Y349133D01*
X922902Y347968D01*
X922603Y346816D01*
X922565Y346211D01*
X922526Y346008D01*
X922539Y345803D01*
X922500Y345198D01*
X922500Y254802D01*
X922649Y253622D01*
X922722Y252438D01*
X922848Y252051D01*
X922898Y251646D01*
X923337Y250537D01*
X923701Y249411D01*
X923919Y249066D01*
X924069Y248688D01*
X924765Y247728D01*
X925402Y246722D01*
X925699Y246442D01*
X925938Y246113D01*
X926851Y245357D01*
X927717Y244541D01*
X928073Y244344D01*
X928387Y244084D01*
X929462Y243578D01*
X930502Y243003D01*
X930897Y242901D01*
X931265Y242728D01*
X932430Y242504D01*
X932432Y242503D01*
X932450Y242448D01*
X932501Y242043D01*
X932938Y240938D01*
X933304Y239808D01*
X933522Y239464D01*
X933671Y239085D01*
X934368Y238126D01*
X935004Y237120D01*
X935302Y236839D01*
X935540Y236511D01*
X936453Y235754D01*
X937319Y234938D01*
X937676Y234742D01*
X937990Y234482D01*
X939064Y233975D01*
X940104Y233401D01*
X940499Y233298D01*
X940867Y233125D01*
X942032Y232902D01*
X943184Y232603D01*
X943789Y232565D01*
X943991Y232526D01*
X944197Y232539D01*
X944802Y232500D01*
X1000400Y232500D01*
X1000400Y207700D01*
X1000549Y206520D01*
X1000623Y205335D01*
X1000748Y204948D01*
X1000799Y204544D01*
X1001236Y203438D01*
X1001602Y202308D01*
X1001819Y201964D01*
X1001969Y201586D01*
X1002665Y200626D01*
X1003302Y199620D01*
X1003599Y199340D01*
X1003838Y199011D01*
X1004751Y198254D01*
X1005617Y197439D01*
X1005973Y197242D01*
X1006288Y196982D01*
X1007362Y196475D01*
X1008402Y195901D01*
X1008797Y195799D01*
X1009165Y195625D01*
X1010330Y195402D01*
X1011482Y195104D01*
X1012087Y195065D01*
X1012289Y195026D01*
X1012495Y195039D01*
X1013100Y195000D01*
X1013285Y195000D01*
X1025000Y183285D01*
X1025000Y46715D01*
X1011420Y33135D01*
X1010817Y32357D01*
X1010139Y31638D01*
X1009844Y31103D01*
X1009470Y30622D01*
X1009078Y29717D01*
X1008601Y28853D01*
X1008448Y28261D01*
X1008206Y27702D01*
X1008052Y26730D01*
X1007804Y25773D01*
X1007739Y24765D01*
X1007707Y24561D01*
X1007718Y24438D01*
X1007700Y24155D01*
X1007700Y-13610D01*
X1007074Y-14417D01*
X1006187Y-15488D01*
X1006100Y-15673D01*
X1005975Y-15833D01*
X1005424Y-17107D01*
X1004830Y-18365D01*
X1004792Y-18565D01*
X1004711Y-18752D01*
X1004493Y-20125D01*
X1004231Y-21489D01*
X1004244Y-21693D01*
X1004212Y-21894D01*
X1004342Y-23280D01*
X1004428Y-24664D01*
X1004490Y-24858D01*
X1004509Y-25061D01*
X1004981Y-26375D01*
X1005407Y-27691D01*
X1005515Y-27863D01*
X1005584Y-28055D01*
X1006363Y-29204D01*
X1007107Y-30380D01*
X1007256Y-30520D01*
X1007370Y-30688D01*
X1008407Y-31604D01*
X1009422Y-32561D01*
X1009601Y-32660D01*
X1009753Y-32794D01*
X1010990Y-33427D01*
X1012207Y-34099D01*
X1012404Y-34150D01*
X1012467Y-34182D01*
X1025000Y-46715D01*
X1025000Y-183285D01*
X1013285Y-195000D01*
X1013100Y-195000D01*
X1011920Y-195149D01*
X1010735Y-195223D01*
X1010348Y-195348D01*
X1009944Y-195399D01*
X1008838Y-195836D01*
X1007708Y-196202D01*
X1007364Y-196419D01*
X1006986Y-196569D01*
X1006026Y-197265D01*
X1005020Y-197902D01*
X1004740Y-198199D01*
X1004411Y-198438D01*
X1003654Y-199351D01*
X1002839Y-200217D01*
X1002642Y-200573D01*
X1002382Y-200888D01*
X1001875Y-201962D01*
X1001301Y-203002D01*
X1001199Y-203397D01*
X1001025Y-203765D01*
X1000802Y-204930D01*
X1000504Y-206082D01*
X1000465Y-206687D01*
X1000426Y-206889D01*
X1000439Y-207095D01*
X1000400Y-207700D01*
X1000400Y-232500D01*
X944802Y-232500D01*
X943622Y-232649D01*
X942438Y-232722D01*
X942051Y-232848D01*
X941646Y-232898D01*
X940540Y-233336D01*
X939411Y-233701D01*
X939066Y-233919D01*
X938688Y-234069D01*
X937728Y-234766D01*
X936722Y-235402D01*
X936442Y-235699D01*
X936113Y-235938D01*
X935357Y-236851D01*
X934541Y-237717D01*
X934344Y-238073D01*
X934084Y-238387D01*
X933578Y-239462D01*
X933003Y-240502D01*
X932901Y-240897D01*
X932728Y-241265D01*
X932504Y-242430D01*
X932503Y-242432D01*
X932448Y-242450D01*
X932043Y-242501D01*
X930938Y-242938D01*
X929808Y-243304D01*
X929464Y-243522D01*
X929085Y-243671D01*
X928126Y-244368D01*
X927120Y-245004D01*
X926839Y-245302D01*
X926511Y-245540D01*
X925754Y-246453D01*
X924938Y-247319D01*
X924742Y-247676D01*
X924482Y-247990D01*
X923975Y-249064D01*
X923401Y-250104D01*
X923298Y-250499D01*
X923125Y-250867D01*
X922902Y-252032D01*
X922603Y-253184D01*
X922565Y-253789D01*
X922526Y-253991D01*
X922539Y-254197D01*
X922500Y-254802D01*
X922500Y-320400D01*
X901655Y-320400D01*
X895195Y-318669D01*
X889403Y-315325D01*
X884675Y-310597D01*
X883072Y-307821D01*
X882315Y-306823D01*
X881609Y-305782D01*
X881354Y-305556D01*
X881149Y-305287D01*
X880166Y-304507D01*
X879225Y-303675D01*
X878923Y-303521D01*
X878657Y-303310D01*
X877508Y-302798D01*
X876392Y-302228D01*
X876062Y-302153D01*
X875751Y-302015D01*
X874514Y-301805D01*
X873289Y-301529D01*
X872949Y-301539D01*
X872615Y-301482D01*
X871365Y-301586D01*
X870109Y-301623D01*
X869783Y-301718D01*
X869445Y-301746D01*
X868257Y-302158D01*
X867053Y-302506D01*
X866761Y-302678D01*
X866440Y-302789D01*
X865394Y-303482D01*
X864311Y-304119D01*
X863942Y-304444D01*
X863788Y-304546D01*
X863642Y-304709D01*
X863094Y-305190D01*
X853284Y-315000D01*
X766715Y-315000D01*
X754999Y-303285D01*
X754999Y-295400D01*
X754850Y-294220D01*
X754777Y-293035D01*
X754652Y-292648D01*
X754601Y-292244D01*
X754163Y-291138D01*
X753798Y-290008D01*
X753580Y-289664D01*
X753431Y-289286D01*
X752734Y-288326D01*
X752098Y-287320D01*
X751800Y-287040D01*
X751562Y-286711D01*
X750648Y-285954D01*
X749783Y-285139D01*
X749426Y-284942D01*
X749112Y-284682D01*
X748038Y-284175D01*
X746998Y-283601D01*
X746603Y-283499D01*
X746235Y-283325D01*
X745070Y-283102D01*
X743918Y-282804D01*
X743313Y-282765D01*
X743111Y-282726D01*
X742905Y-282739D01*
X742300Y-282700D01*
X706807Y-282700D01*
X705829Y-282824D01*
X704842Y-282853D01*
X704255Y-283023D01*
X703651Y-283099D01*
X702735Y-283461D01*
X701785Y-283735D01*
X701259Y-284045D01*
X700693Y-284269D01*
X699895Y-284848D01*
X699044Y-285349D01*
X698287Y-286016D01*
X698118Y-286138D01*
X698039Y-286233D01*
X697827Y-286420D01*
X689739Y-294508D01*
X670443Y-302500D01*
X649557Y-302500D01*
X637560Y-297531D01*
X637083Y-297400D01*
X636634Y-297189D01*
X635554Y-296982D01*
X634491Y-296691D01*
X633996Y-296683D01*
X633510Y-296590D01*
X632413Y-296658D01*
X631311Y-296640D01*
X630829Y-296756D01*
X630335Y-296786D01*
X629288Y-297125D01*
X628217Y-297382D01*
X627780Y-297613D01*
X627308Y-297765D01*
X626377Y-298354D01*
X625405Y-298868D01*
X625039Y-299201D01*
X624620Y-299466D01*
X623863Y-300269D01*
X623050Y-301008D01*
X622779Y-301420D01*
X622439Y-301781D01*
X621906Y-302746D01*
X621301Y-303664D01*
X621140Y-304132D01*
X620901Y-304566D01*
X620625Y-305632D01*
X620267Y-306673D01*
X620228Y-307167D01*
X620104Y-307646D01*
X620000Y-309263D01*
X620000Y-356460D01*
X620012Y-356548D01*
X620002Y-356636D01*
X620210Y-358124D01*
X620399Y-359616D01*
X620431Y-359698D01*
X620444Y-359786D01*
X620800Y-360831D01*
X620800Y-389083D01*
X610021Y-415106D01*
X590106Y-435021D01*
X564083Y-445800D01*
X535917Y-445800D01*
X509894Y-435021D01*
X489979Y-415106D01*
X479199Y-389083D01*
X479199Y-360768D01*
X479478Y-359690D01*
X479872Y-358252D01*
X479874Y-358164D01*
X479896Y-358078D01*
X479999Y-356460D01*
X479999Y198923D01*
X490657Y224653D01*
X576280Y310276D01*
X576883Y311053D01*
X577561Y311773D01*
X577760Y312134D01*
X578010Y312435D01*
X578094Y312614D01*
X578230Y312789D01*
X578621Y313693D01*
X579099Y314558D01*
X579206Y314973D01*
X579367Y315313D01*
X579402Y315495D01*
X579494Y315708D01*
X579648Y316681D01*
X579896Y317638D01*
X579938Y318292D01*
X579966Y318437D01*
X579957Y318585D01*
X579960Y318646D01*
X579993Y318850D01*
X579981Y318973D01*
X579999Y319255D01*
X579999Y323923D01*
X590657Y349653D01*
X610347Y369343D01*
X623559Y374816D01*
X624767Y375504D01*
X625996Y376154D01*
X626147Y376291D01*
X626323Y376392D01*
X627320Y377358D01*
X628350Y378294D01*
X628462Y378463D01*
X628608Y378605D01*
X629334Y379789D01*
X630099Y380951D01*
X630165Y381143D01*
X630271Y381317D01*
X630681Y382645D01*
X631132Y383960D01*
X631148Y384162D01*
X631208Y384356D01*
X631275Y385744D01*
X631385Y387131D01*
X631351Y387331D01*
X631360Y387534D01*
X631079Y388897D01*
X630843Y390265D01*
X630760Y390450D01*
X630718Y390649D01*
X630105Y391904D01*
X629538Y393167D01*
X629412Y393324D01*
X629322Y393508D01*
X628417Y394570D01*
X627553Y395653D01*
X627391Y395774D01*
X627259Y395929D01*
X626120Y396733D01*
X625013Y397567D01*
X624761Y397691D01*
X624659Y397763D01*
X624464Y397837D01*
X623558Y398282D01*
X622572Y398690D01*
X613090Y405026D01*
X605026Y413090D01*
X598689Y422573D01*
X594324Y433111D01*
X593491Y437299D01*
X649997Y437299D01*
X649999Y437299D01*
X650003Y437299D01*
X706508Y437299D01*
X705675Y433111D01*
X701310Y422573D01*
X694974Y413090D01*
X686910Y405026D01*
X677428Y398690D01*
X676442Y398282D01*
X675236Y397594D01*
X674005Y396943D01*
X673855Y396807D01*
X673679Y396706D01*
X672680Y395739D01*
X671651Y394804D01*
X671540Y394635D01*
X671393Y394493D01*
X670664Y393305D01*
X669902Y392147D01*
X669836Y391955D01*
X669730Y391782D01*
X669320Y390455D01*
X668868Y389139D01*
X668852Y388936D01*
X668792Y388743D01*
X668725Y387358D01*
X668614Y385968D01*
X668649Y385767D01*
X668639Y385565D01*
X668920Y384202D01*
X669157Y382833D01*
X669239Y382649D01*
X669281Y382449D01*
X669894Y381194D01*
X670461Y379932D01*
X670587Y379774D01*
X670677Y379591D01*
X671580Y378529D01*
X672445Y377446D01*
X672607Y377323D01*
X672739Y377169D01*
X673877Y376366D01*
X674985Y375531D01*
X675238Y375407D01*
X675339Y375335D01*
X675533Y375262D01*
X676441Y374816D01*
X689653Y369343D01*
X709343Y349653D01*
X710167Y347663D01*
X710513Y347057D01*
X710769Y346408D01*
X711297Y345681D01*
X711743Y344899D01*
X712229Y344398D01*
X712638Y343834D01*
X713330Y343260D01*
X713956Y342614D01*
X714550Y342250D01*
X715088Y341804D01*
X715902Y341421D01*
X716668Y340951D01*
X717334Y340745D01*
X717965Y340448D01*
X718848Y340279D01*
X719708Y340013D01*
X720405Y339980D01*
X721089Y339849D01*
X721985Y339904D01*
X722885Y339861D01*
X723570Y340002D01*
X724264Y340045D01*
X725119Y340321D01*
X726001Y340503D01*
X726628Y340809D01*
X727291Y341024D01*
X728051Y341504D01*
X728859Y341899D01*
X729389Y342351D01*
X729980Y342724D01*
X730597Y343379D01*
X731281Y343962D01*
X731683Y344532D01*
X732161Y345040D01*
X732596Y345827D01*
X733114Y346562D01*
X733361Y347213D01*
X733699Y347825D01*
X733924Y348696D01*
X734243Y349536D01*
X734321Y350228D01*
X734496Y350904D01*
X734599Y352522D01*
X734599Y570934D01*
X734476Y571912D01*
X734447Y572899D01*
X734277Y573486D01*
X734201Y574090D01*
X733839Y575006D01*
X733565Y575955D01*
X733255Y576482D01*
X733031Y577048D01*
X732452Y577846D01*
X731951Y578697D01*
X731284Y579454D01*
X731162Y579623D01*
X731066Y579702D01*
X730880Y579914D01*
X631374Y679419D01*
X630438Y680146D01*
X629546Y680934D01*
X629183Y681120D01*
X628861Y681369D01*
X627771Y681841D01*
X626713Y682382D01*
X626315Y682472D01*
X625942Y682633D01*
X624771Y682819D01*
X623610Y683081D01*
X623202Y683069D01*
X622800Y683133D01*
X621621Y683022D01*
X620430Y682986D01*
X620038Y682873D01*
X619633Y682835D01*
X618518Y682434D01*
X617373Y682104D01*
X617022Y681898D01*
X616639Y681760D01*
X615655Y681092D01*
X614632Y680490D01*
X614179Y680091D01*
X614006Y679974D01*
X613868Y679818D01*
X613415Y679419D01*
X431130Y497134D01*
X409653Y475657D01*
X383923Y464999D01*
X144255Y464999D01*
X143278Y464876D01*
X142291Y464847D01*
X141704Y464677D01*
X141099Y464601D01*
X140184Y464239D01*
X139234Y463965D01*
X138708Y463655D01*
X138141Y463431D01*
X137343Y462852D01*
X136493Y462351D01*
X135735Y461684D01*
X135567Y461562D01*
X135488Y461466D01*
X135276Y461280D01*
X58720Y384724D01*
X58117Y383946D01*
X57439Y383227D01*
X57144Y382693D01*
X56770Y382211D01*
X56378Y381307D01*
X55901Y380442D01*
X55748Y379850D01*
X55506Y379292D01*
X55352Y378319D01*
X55104Y377362D01*
X55039Y376354D01*
X55007Y376150D01*
X55018Y376027D01*
X55000Y375744D01*
X55000Y256320D01*
X55131Y255285D01*
X55172Y254241D01*
X55330Y253712D01*
X55399Y253164D01*
X55783Y252194D01*
X56082Y251193D01*
X56366Y250720D01*
X56569Y250206D01*
X57182Y249362D01*
X57720Y248466D01*
X58114Y248078D01*
X58438Y247632D01*
X59243Y246965D01*
X59985Y246233D01*
X60461Y245956D01*
X60888Y245603D01*
X61832Y245157D01*
X62734Y244632D01*
X63266Y244481D01*
X63765Y244246D01*
X64790Y244049D01*
X65795Y243765D01*
X66347Y243751D01*
X66889Y243647D01*
X67930Y243711D01*
X68975Y243685D01*
X69514Y243809D01*
X70064Y243843D01*
X71055Y244164D01*
X72075Y244398D01*
X72566Y244653D01*
X73091Y244822D01*
X73974Y245381D01*
X74901Y245860D01*
X75312Y246227D01*
X75779Y246523D01*
X76496Y247283D01*
X77274Y247978D01*
X77810Y248678D01*
X77961Y248838D01*
X78035Y248972D01*
X78259Y249265D01*
X80026Y251910D01*
X88090Y259974D01*
X97573Y266310D01*
X108111Y270675D01*
X112299Y271508D01*
X112299Y215003D01*
X112448Y213823D01*
X112521Y212639D01*
X112646Y212252D01*
X112697Y211847D01*
X113135Y210742D01*
X113500Y209612D01*
X113718Y209268D01*
X113868Y208889D01*
X114564Y207930D01*
X115200Y206923D01*
X115498Y206643D01*
X115736Y206315D01*
X116650Y205558D01*
X117516Y204742D01*
X117872Y204545D01*
X118186Y204285D01*
X119260Y203779D01*
X120301Y203204D01*
X120696Y203102D01*
X121063Y202929D01*
X122228Y202705D01*
X123380Y202407D01*
X123985Y202368D01*
X124188Y202330D01*
X124191Y202330D01*
X124395Y202342D01*
X124998Y202304D01*
X125001Y202304D01*
X126181Y202453D01*
X127366Y202526D01*
X127753Y202651D01*
X128157Y202702D01*
X129263Y203140D01*
X130393Y203505D01*
X130737Y203723D01*
X131115Y203873D01*
X132075Y204569D01*
X133081Y205205D01*
X133361Y205503D01*
X133690Y205741D01*
X134447Y206655D01*
X135262Y207521D01*
X135459Y207877D01*
X135719Y208191D01*
X136226Y209265D01*
X136800Y210306D01*
X136902Y210701D01*
X137076Y211068D01*
X137299Y212233D01*
X137597Y213385D01*
X137636Y213990D01*
X137675Y214193D01*
X137662Y214398D01*
X137701Y215003D01*
X137701Y271508D01*
X139823Y271086D01*
X140663Y271027D01*
X141489Y270868D01*
X142242Y270915D01*
X142996Y270861D01*
X143825Y271013D01*
X144664Y271064D01*
X145381Y271296D01*
X146125Y271432D01*
X146891Y271785D01*
X147691Y272043D01*
X148329Y272447D01*
X149015Y272763D01*
X149668Y273293D01*
X150380Y273744D01*
X150898Y274294D01*
X151483Y274769D01*
X151983Y275446D01*
X152561Y276059D01*
X152737Y276377D01*
X181360Y305000D01*
X218640Y305000D01*
X231020Y292620D01*
X231957Y291893D01*
X232849Y291105D01*
X233212Y290920D01*
X233533Y290670D01*
X234625Y290198D01*
X235682Y289657D01*
X236079Y289568D01*
X236453Y289406D01*
X237624Y289220D01*
X238785Y288958D01*
X239193Y288971D01*
X239594Y288907D01*
X240774Y289018D01*
X241965Y289053D01*
X242358Y289167D01*
X242762Y289204D01*
X243879Y289606D01*
X245021Y289935D01*
X245372Y290142D01*
X245756Y290279D01*
X246740Y290947D01*
X247763Y291549D01*
X248217Y291949D01*
X248388Y292065D01*
X248525Y292220D01*
X248980Y292620D01*
X261360Y305000D01*
X300010Y305000D01*
X300682Y304657D01*
X301079Y304568D01*
X301453Y304406D01*
X302624Y304220D01*
X303785Y303958D01*
X304193Y303971D01*
X304594Y303907D01*
X305774Y304018D01*
X306965Y304053D01*
X307358Y304167D01*
X307762Y304204D01*
X308879Y304606D01*
X310021Y304935D01*
X310371Y305141D01*
X310756Y305279D01*
X311742Y305948D01*
X312763Y306549D01*
X313216Y306948D01*
X313388Y307065D01*
X313526Y307221D01*
X313980Y307620D01*
X331360Y325000D01*
X368640Y325000D01*
X386020Y307620D01*
X386959Y306892D01*
X387851Y306104D01*
X388212Y305919D01*
X388533Y305670D01*
X389625Y305197D01*
X390683Y304657D01*
X391080Y304568D01*
X391453Y304406D01*
X392626Y304220D01*
X393787Y303958D01*
X394193Y303971D01*
X394594Y303907D01*
X395776Y304018D01*
X396967Y304053D01*
X397358Y304167D01*
X397762Y304204D01*
X398880Y304606D01*
X400023Y304936D01*
X400132Y305000D01*
X438640Y305000D01*
X465000Y278640D01*
X465000Y241360D01*
X438640Y214999D01*
X401360Y214999D01*
X383980Y232380D01*
X383042Y233108D01*
X382151Y233895D01*
X381788Y234080D01*
X381467Y234330D01*
X380376Y234802D01*
X379318Y235343D01*
X378921Y235432D01*
X378548Y235594D01*
X377376Y235780D01*
X376215Y236041D01*
X375807Y236029D01*
X375406Y236093D01*
X374224Y235982D01*
X373035Y235947D01*
X372644Y235834D01*
X372238Y235796D01*
X371120Y235394D01*
X369979Y235065D01*
X369868Y234999D01*
X329494Y234999D01*
X329334Y235075D01*
X329136Y235113D01*
X328950Y235193D01*
X327574Y235412D01*
X326210Y235674D01*
X326008Y235661D01*
X325808Y235693D01*
X324423Y235563D01*
X323035Y235478D01*
X322843Y235415D01*
X322641Y235396D01*
X321331Y234926D01*
X320008Y234498D01*
X319838Y234390D01*
X319647Y234322D01*
X318496Y233542D01*
X317320Y232798D01*
X317181Y232650D01*
X317013Y232537D01*
X316094Y231497D01*
X315139Y230483D01*
X315041Y230305D01*
X314907Y230153D01*
X314275Y228919D01*
X313601Y227698D01*
X313550Y227501D01*
X313458Y227321D01*
X313153Y225967D01*
X312804Y224618D01*
X312786Y224338D01*
X312759Y224218D01*
X312765Y224010D01*
X312700Y223000D01*
X312700Y218805D01*
X312824Y217828D01*
X312853Y216841D01*
X313023Y216254D01*
X313099Y215649D01*
X313461Y214734D01*
X313735Y213784D01*
X314045Y213258D01*
X314269Y212691D01*
X314848Y211893D01*
X315349Y211043D01*
X316016Y210285D01*
X316138Y210117D01*
X316233Y210038D01*
X316420Y209826D01*
X403033Y123213D01*
X403099Y122688D01*
X403462Y121772D01*
X403735Y120823D01*
X404045Y120297D01*
X404269Y119730D01*
X404848Y118933D01*
X405349Y118082D01*
X406017Y117323D01*
X406138Y117156D01*
X406233Y117078D01*
X406420Y116864D01*
X410000Y113284D01*
X410000Y-103285D01*
X398285Y-115000D01*
X341715Y-115000D01*
X329999Y-103285D01*
X329999Y98494D01*
X329876Y99472D01*
X329847Y100459D01*
X329677Y101046D01*
X329601Y101650D01*
X329238Y102567D01*
X328965Y103515D01*
X328655Y104042D01*
X328431Y104608D01*
X327852Y105405D01*
X327351Y106257D01*
X326683Y107016D01*
X326562Y107183D01*
X326468Y107261D01*
X326280Y107474D01*
X317080Y116675D01*
X315982Y117527D01*
X314912Y118413D01*
X314727Y118500D01*
X314566Y118625D01*
X313292Y119177D01*
X312034Y119769D01*
X311834Y119808D01*
X311647Y119889D01*
X310276Y120107D01*
X308910Y120368D01*
X308707Y120356D01*
X308505Y120388D01*
X307118Y120258D01*
X305735Y120172D01*
X305543Y120110D01*
X305338Y120091D01*
X304025Y119619D01*
X302708Y119193D01*
X302536Y119084D01*
X302344Y119015D01*
X301198Y118238D01*
X300020Y117493D01*
X299879Y117343D01*
X299712Y117230D01*
X298795Y116193D01*
X297839Y115178D01*
X297740Y114999D01*
X297605Y114846D01*
X296974Y113611D01*
X296301Y112393D01*
X296250Y112194D01*
X296157Y112013D01*
X295852Y110659D01*
X295504Y109313D01*
X295486Y109031D01*
X295458Y108910D01*
X295465Y108701D01*
X295400Y107695D01*
X295400Y17701D01*
X262701Y17701D01*
X262701Y130400D01*
X272695Y130400D01*
X274077Y130575D01*
X275457Y130704D01*
X275648Y130773D01*
X275851Y130799D01*
X277142Y131309D01*
X278451Y131779D01*
X278620Y131894D01*
X278809Y131969D01*
X279929Y132782D01*
X281083Y133565D01*
X281219Y133718D01*
X281383Y133838D01*
X282269Y134906D01*
X283190Y135949D01*
X283282Y136130D01*
X283413Y136288D01*
X284006Y137546D01*
X284638Y138781D01*
X284682Y138980D01*
X284769Y139165D01*
X285031Y140527D01*
X285336Y141885D01*
X285330Y142089D01*
X285368Y142289D01*
X285283Y143670D01*
X285242Y145064D01*
X285185Y145262D01*
X285172Y145464D01*
X284747Y146779D01*
X284360Y148121D01*
X284256Y148298D01*
X284193Y148491D01*
X283450Y149666D01*
X282746Y150862D01*
X282560Y151073D01*
X282493Y151179D01*
X282339Y151324D01*
X281675Y152079D01*
X254379Y179375D01*
X253284Y180224D01*
X252212Y181113D01*
X252027Y181200D01*
X251866Y181325D01*
X250593Y181876D01*
X249334Y182469D01*
X249134Y182508D01*
X248947Y182589D01*
X247577Y182806D01*
X246210Y183068D01*
X246007Y183056D01*
X245805Y183088D01*
X244423Y182958D01*
X243035Y182872D01*
X242841Y182809D01*
X242638Y182790D01*
X241329Y182320D01*
X240008Y181893D01*
X239837Y181784D01*
X239644Y181715D01*
X238494Y180935D01*
X237320Y180193D01*
X237180Y180044D01*
X237011Y179930D01*
X236092Y178889D01*
X235139Y177878D01*
X235040Y177699D01*
X234905Y177546D01*
X234274Y176311D01*
X233601Y175093D01*
X233550Y174894D01*
X233457Y174713D01*
X233152Y173359D01*
X232804Y172013D01*
X232786Y171731D01*
X232758Y171610D01*
X232765Y171401D01*
X232700Y170395D01*
X232700Y161455D01*
X223325Y152080D01*
X222473Y150982D01*
X221587Y149912D01*
X221500Y149727D01*
X221375Y149566D01*
X220823Y148292D01*
X220230Y147034D01*
X220192Y146834D01*
X220111Y146647D01*
X219893Y145276D01*
X219631Y143910D01*
X219644Y143707D01*
X219612Y143505D01*
X219742Y142118D01*
X219828Y140735D01*
X219890Y140543D01*
X219909Y140338D01*
X220381Y139025D01*
X220807Y137708D01*
X220915Y137536D01*
X220984Y137344D01*
X221762Y136198D01*
X222507Y135020D01*
X222656Y134879D01*
X222770Y134712D01*
X223807Y133795D01*
X224822Y132839D01*
X225001Y132740D01*
X225154Y132605D01*
X226388Y131974D01*
X227607Y131301D01*
X227805Y131250D01*
X227986Y131157D01*
X229340Y130852D01*
X230687Y130504D01*
X230968Y130486D01*
X231090Y130458D01*
X231298Y130465D01*
X232305Y130400D01*
X237299Y130400D01*
X237299Y17701D01*
X204599Y17701D01*
X204599Y102695D01*
X204425Y104077D01*
X204295Y105457D01*
X204227Y105648D01*
X204201Y105851D01*
X203690Y107142D01*
X203220Y108451D01*
X203105Y108620D01*
X203031Y108809D01*
X202218Y109929D01*
X201435Y111083D01*
X201281Y111219D01*
X201162Y111383D01*
X200093Y112269D01*
X199051Y113190D01*
X198870Y113282D01*
X198712Y113413D01*
X197453Y114006D01*
X196218Y114638D01*
X196019Y114682D01*
X195835Y114769D01*
X194473Y115031D01*
X193115Y115336D01*
X192910Y115330D01*
X192711Y115368D01*
X191330Y115283D01*
X189935Y115242D01*
X189738Y115185D01*
X189536Y115172D01*
X188221Y114747D01*
X186879Y114360D01*
X186702Y114256D01*
X186509Y114193D01*
X185333Y113450D01*
X184138Y112746D01*
X183927Y112560D01*
X183820Y112493D01*
X183676Y112339D01*
X182920Y111675D01*
X173720Y102474D01*
X173117Y101697D01*
X172439Y100977D01*
X172144Y100443D01*
X171770Y99961D01*
X171378Y99057D01*
X170901Y98192D01*
X170748Y97600D01*
X170506Y97042D01*
X170352Y96069D01*
X170104Y95113D01*
X170039Y94104D01*
X170007Y93900D01*
X170018Y93778D01*
X170000Y93495D01*
X170000Y-100543D01*
X170193Y-102073D01*
X170371Y-103588D01*
X170392Y-103642D01*
X170399Y-103699D01*
X170960Y-105117D01*
X171514Y-106556D01*
X171548Y-106604D01*
X171569Y-106657D01*
X172459Y-107883D01*
X173359Y-109148D01*
X173404Y-109185D01*
X173438Y-109232D01*
X174608Y-110201D01*
X175791Y-111199D01*
X175843Y-111224D01*
X175888Y-111261D01*
X177277Y-111916D01*
X178656Y-112581D01*
X178730Y-112601D01*
X178765Y-112618D01*
X178861Y-112636D01*
X180222Y-112998D01*
X186889Y-114324D01*
X187836Y-114717D01*
X188378Y-114865D01*
X188891Y-115100D01*
X189909Y-115284D01*
X190904Y-115556D01*
X191466Y-115565D01*
X192021Y-115666D01*
X193054Y-115591D01*
X194084Y-115607D01*
X194631Y-115476D01*
X195194Y-115435D01*
X196175Y-115106D01*
X197178Y-114866D01*
X197675Y-114603D01*
X198210Y-114424D01*
X199077Y-113862D01*
X199990Y-113379D01*
X200408Y-113001D01*
X200880Y-112694D01*
X201580Y-111935D01*
X202345Y-111240D01*
X202655Y-110770D01*
X203037Y-110356D01*
X203526Y-109446D01*
X204094Y-108583D01*
X204277Y-108051D01*
X204544Y-107555D01*
X204793Y-106550D01*
X205128Y-105575D01*
X205173Y-105014D01*
X205308Y-104467D01*
X205299Y-103434D01*
X205382Y-102404D01*
X205286Y-101848D01*
X205281Y-101286D01*
X204962Y-99696D01*
X204599Y-98344D01*
X204599Y-7701D01*
X237299Y-7701D01*
X237299Y-120400D01*
X230253Y-120400D01*
X230108Y-120419D01*
X229962Y-120404D01*
X228534Y-120618D01*
X227098Y-120799D01*
X226961Y-120853D01*
X226816Y-120874D01*
X225481Y-121438D01*
X224139Y-121969D01*
X224021Y-122055D01*
X223886Y-122112D01*
X222730Y-122992D01*
X221565Y-123838D01*
X221472Y-123950D01*
X221355Y-124039D01*
X220457Y-125176D01*
X219536Y-126288D01*
X219473Y-126421D01*
X219382Y-126535D01*
X218795Y-127859D01*
X218179Y-129165D01*
X218152Y-129308D01*
X218092Y-129443D01*
X217852Y-130873D01*
X217580Y-132289D01*
X217589Y-132435D01*
X217565Y-132580D01*
X217687Y-134023D01*
X217776Y-135464D01*
X217821Y-135603D01*
X217834Y-135750D01*
X218311Y-137117D01*
X218755Y-138491D01*
X218833Y-138615D01*
X218882Y-138753D01*
X219695Y-140156D01*
X221310Y-142573D01*
X225675Y-153111D01*
X226508Y-157299D01*
X170003Y-157299D01*
X170001Y-157299D01*
X169997Y-157299D01*
X113491Y-157299D01*
X114324Y-153111D01*
X118689Y-142573D01*
X123913Y-134755D01*
X123978Y-134625D01*
X124072Y-134512D01*
X124690Y-133201D01*
X125335Y-131910D01*
X125366Y-131766D01*
X125428Y-131634D01*
X125701Y-130215D01*
X126006Y-128800D01*
X126000Y-128654D01*
X126028Y-128510D01*
X125938Y-127069D01*
X125882Y-125621D01*
X125840Y-125481D01*
X125831Y-125335D01*
X125387Y-123962D01*
X124973Y-122573D01*
X124897Y-122448D01*
X124852Y-122308D01*
X124079Y-121086D01*
X123334Y-119846D01*
X123230Y-119744D01*
X123152Y-119620D01*
X122096Y-118625D01*
X121069Y-117613D01*
X120943Y-117539D01*
X120837Y-117439D01*
X119569Y-116739D01*
X118320Y-116012D01*
X118180Y-115972D01*
X118052Y-115901D01*
X116650Y-115538D01*
X115260Y-115144D01*
X115113Y-115140D01*
X114972Y-115104D01*
X113354Y-115000D01*
X101715Y-115000D01*
X89999Y-103285D01*
X89999Y113285D01*
X102416Y125702D01*
X102566Y125761D01*
X103516Y126035D01*
X104043Y126345D01*
X104609Y126569D01*
X105407Y127148D01*
X106257Y127649D01*
X107015Y128316D01*
X107183Y128438D01*
X107263Y128533D01*
X107474Y128720D01*
X116307Y137553D01*
X116396Y137667D01*
X116510Y137760D01*
X117371Y138924D01*
X118257Y140066D01*
X118315Y140200D01*
X118402Y140318D01*
X118947Y141660D01*
X119521Y142985D01*
X119544Y143128D01*
X119599Y143265D01*
X119793Y144696D01*
X120020Y146127D01*
X120006Y146272D01*
X120026Y146417D01*
X119858Y147857D01*
X119723Y149294D01*
X119673Y149431D01*
X119656Y149577D01*
X119137Y150926D01*
X118648Y152288D01*
X118565Y152409D01*
X118513Y152545D01*
X117678Y153717D01*
X116862Y154921D01*
X116752Y155018D01*
X116668Y155136D01*
X115564Y156068D01*
X114478Y157027D01*
X114348Y157093D01*
X114236Y157188D01*
X112932Y157817D01*
X111646Y158475D01*
X111503Y158507D01*
X111371Y158570D01*
X109805Y158988D01*
X108111Y159324D01*
X97573Y163689D01*
X88090Y170026D01*
X80026Y178090D01*
X73689Y187573D01*
X69139Y198559D01*
X68451Y199765D01*
X67801Y200994D01*
X67664Y201146D01*
X67563Y201322D01*
X66600Y202317D01*
X65662Y203349D01*
X65492Y203462D01*
X65350Y203608D01*
X64171Y204331D01*
X63005Y205098D01*
X62811Y205165D01*
X62638Y205271D01*
X61316Y205678D01*
X59997Y206132D01*
X59793Y206148D01*
X59599Y206208D01*
X58207Y206275D01*
X56826Y206385D01*
X56626Y206351D01*
X56421Y206361D01*
X55056Y206079D01*
X53691Y205843D01*
X53505Y205760D01*
X53306Y205718D01*
X52057Y205108D01*
X50790Y204539D01*
X50631Y204412D01*
X50447Y204322D01*
X49390Y203421D01*
X48303Y202554D01*
X48180Y202391D01*
X48026Y202259D01*
X47228Y201128D01*
X46388Y200014D01*
X46263Y199760D01*
X46193Y199660D01*
X46119Y199467D01*
X45673Y198559D01*
X44343Y195347D01*
X22868Y173872D01*
X22866Y173870D01*
X-336280Y-185276D01*
X-336883Y-186053D01*
X-337561Y-186773D01*
X-337857Y-187308D01*
X-338230Y-187789D01*
X-338621Y-188692D01*
X-339099Y-189558D01*
X-339252Y-190150D01*
X-339494Y-190708D01*
X-339648Y-191681D01*
X-339896Y-192638D01*
X-339960Y-193646D01*
X-339993Y-193850D01*
X-339981Y-193973D01*
X-339999Y-194255D01*
X-339999Y-243556D01*
X-339825Y-244937D01*
X-339695Y-246318D01*
X-339627Y-246509D01*
X-339601Y-246712D01*
X-339091Y-248001D01*
X-338620Y-249311D01*
X-338505Y-249481D01*
X-338431Y-249670D01*
X-337618Y-250790D01*
X-336835Y-251944D01*
X-336681Y-252080D01*
X-336562Y-252244D01*
X-335491Y-253132D01*
X-334451Y-254050D01*
X-334270Y-254143D01*
X-334112Y-254273D01*
X-332849Y-254869D01*
X-331618Y-255498D01*
X-331420Y-255543D01*
X-331235Y-255630D01*
X-329871Y-255892D01*
X-328515Y-256197D01*
X-328310Y-256191D01*
X-328111Y-256229D01*
X-326730Y-256144D01*
X-325335Y-256102D01*
X-325138Y-256045D01*
X-324936Y-256033D01*
X-323617Y-255606D01*
X-322279Y-255220D01*
X-322103Y-255117D01*
X-321909Y-255054D01*
X-320733Y-254310D01*
X-319537Y-253606D01*
X-319325Y-253420D01*
X-319220Y-253353D01*
X-319077Y-253202D01*
X-318320Y-252535D01*
X-308284Y-242499D01*
X-157579Y-242499D01*
X-156543Y-242369D01*
X-155500Y-242328D01*
X-154970Y-242170D01*
X-154423Y-242101D01*
X-153453Y-241718D01*
X-152452Y-241418D01*
X-151978Y-241133D01*
X-151465Y-240931D01*
X-150621Y-240318D01*
X-149725Y-239780D01*
X-149337Y-239386D01*
X-148890Y-239062D01*
X-148225Y-238258D01*
X-147491Y-237515D01*
X-147214Y-237038D01*
X-146861Y-236612D01*
X-146415Y-235666D01*
X-145891Y-234766D01*
X-145740Y-234235D01*
X-145504Y-233735D01*
X-145308Y-232710D01*
X-145023Y-231705D01*
X-145009Y-231153D01*
X-144905Y-230611D01*
X-144970Y-229570D01*
X-144943Y-228525D01*
X-145068Y-227986D01*
X-145102Y-227436D01*
X-145423Y-226443D01*
X-145657Y-225425D01*
X-145911Y-224934D01*
X-146081Y-224409D01*
X-146639Y-223526D01*
X-147118Y-222599D01*
X-147485Y-222188D01*
X-147781Y-221720D01*
X-148543Y-221003D01*
X-149236Y-220226D01*
X-149935Y-219691D01*
X-150096Y-219539D01*
X-150230Y-219465D01*
X-150524Y-219241D01*
X-156910Y-214974D01*
X-164974Y-206910D01*
X-171310Y-197427D01*
X-175675Y-186888D01*
X-176508Y-182701D01*
X-120003Y-182701D01*
X-120001Y-182700D01*
X-119997Y-182701D01*
X-63491Y-182701D01*
X-64324Y-186888D01*
X-68689Y-197427D01*
X-75026Y-206910D01*
X-83090Y-214974D01*
X-89476Y-219241D01*
X-90265Y-219926D01*
X-91109Y-220538D01*
X-91461Y-220963D01*
X-91879Y-221325D01*
X-92473Y-222184D01*
X-93139Y-222988D01*
X-93374Y-223487D01*
X-93688Y-223942D01*
X-94050Y-224922D01*
X-94495Y-225865D01*
X-94599Y-226408D01*
X-94791Y-226926D01*
X-94898Y-227963D01*
X-95094Y-228989D01*
X-95060Y-229541D01*
X-95117Y-230090D01*
X-94963Y-231123D01*
X-94898Y-232164D01*
X-94728Y-232689D01*
X-94647Y-233236D01*
X-94240Y-234199D01*
X-93919Y-235191D01*
X-93624Y-235658D01*
X-93409Y-236167D01*
X-92778Y-236996D01*
X-92219Y-237880D01*
X-91817Y-238259D01*
X-91482Y-238698D01*
X-90663Y-239346D01*
X-89903Y-240061D01*
X-89420Y-240328D01*
X-88987Y-240671D01*
X-88032Y-241095D01*
X-87118Y-241599D01*
X-86584Y-241737D01*
X-86079Y-241961D01*
X-85049Y-242134D01*
X-84039Y-242396D01*
X-83160Y-242452D01*
X-82942Y-242489D01*
X-82789Y-242476D01*
X-82421Y-242499D01*
X132421Y-242499D01*
X133456Y-242369D01*
X134499Y-242328D01*
X135029Y-242170D01*
X135577Y-242101D01*
X136547Y-241717D01*
X137548Y-241418D01*
X138021Y-241134D01*
X138535Y-240931D01*
X139380Y-240317D01*
X140274Y-239780D01*
X140662Y-239387D01*
X141109Y-239062D01*
X141775Y-238258D01*
X142508Y-237515D01*
X142785Y-237038D01*
X143138Y-236612D01*
X143584Y-235667D01*
X144109Y-234766D01*
X144259Y-234234D01*
X144495Y-233735D01*
X144692Y-232710D01*
X144976Y-231705D01*
X144990Y-231153D01*
X145094Y-230611D01*
X145030Y-229570D01*
X145056Y-228525D01*
X144932Y-227986D01*
X144898Y-227436D01*
X144578Y-226445D01*
X144343Y-225425D01*
X144088Y-224934D01*
X143919Y-224409D01*
X143360Y-223525D01*
X142881Y-222600D01*
X142515Y-222189D01*
X142218Y-221720D01*
X141458Y-221003D01*
X140764Y-220226D01*
X140064Y-219690D01*
X139903Y-219539D01*
X139769Y-219465D01*
X139476Y-219241D01*
X133090Y-214974D01*
X125026Y-206910D01*
X118689Y-197427D01*
X114324Y-186888D01*
X113491Y-182701D01*
X169997Y-182701D01*
X169999Y-182700D01*
X170003Y-182701D01*
X226508Y-182701D01*
X225675Y-186888D01*
X221310Y-197427D01*
X214974Y-206910D01*
X206910Y-214974D01*
X200524Y-219241D01*
X199736Y-219925D01*
X198891Y-220538D01*
X198538Y-220964D01*
X198121Y-221326D01*
X197528Y-222183D01*
X196861Y-222988D01*
X196625Y-223488D01*
X196312Y-223942D01*
X195950Y-224922D01*
X195505Y-225865D01*
X195401Y-226407D01*
X195209Y-226926D01*
X195102Y-227965D01*
X194906Y-228989D01*
X194940Y-229541D01*
X194883Y-230090D01*
X195038Y-231123D01*
X195102Y-232164D01*
X195272Y-232689D01*
X195353Y-233236D01*
X195760Y-234199D01*
X196081Y-235191D01*
X196376Y-235658D01*
X196591Y-236167D01*
X197223Y-236997D01*
X197781Y-237880D01*
X198184Y-238259D01*
X198518Y-238698D01*
X199336Y-239344D01*
X200097Y-240061D01*
X200581Y-240328D01*
X201014Y-240671D01*
X201967Y-241094D01*
X202882Y-241599D01*
X203417Y-241737D01*
X203921Y-241961D01*
X204951Y-242134D01*
X205961Y-242396D01*
X206841Y-242452D01*
X207058Y-242489D01*
X207211Y-242476D01*
X207579Y-242499D01*
X308285Y-242499D01*
X320000Y-254215D01*
X320000Y-291787D01*
X320063Y-292281D01*
X320039Y-292778D01*
X320261Y-293854D01*
X320399Y-294943D01*
X320582Y-295405D01*
X320683Y-295893D01*
X321166Y-296881D01*
X321569Y-297901D01*
X321861Y-298303D01*
X322080Y-298751D01*
X322793Y-299587D01*
X323438Y-300475D01*
X323821Y-300793D01*
X324144Y-301171D01*
X325041Y-301803D01*
X325888Y-302504D01*
X326338Y-302717D01*
X326745Y-303003D01*
X327772Y-303393D01*
X328765Y-303861D01*
X329253Y-303955D01*
X329719Y-304131D01*
X330812Y-304253D01*
X331889Y-304460D01*
X332385Y-304429D01*
X332881Y-304485D01*
X333969Y-304332D01*
X335064Y-304264D01*
X335263Y-304199D01*
X364083Y-304199D01*
X390106Y-314979D01*
X410021Y-334894D01*
X420800Y-360917D01*
X420800Y-389083D01*
X410021Y-415106D01*
X390106Y-435021D01*
X364083Y-445800D01*
X335076Y-445800D01*
X334497Y-445642D01*
X333999Y-445633D01*
X333510Y-445540D01*
X332415Y-445608D01*
X331316Y-445589D01*
X330832Y-445705D01*
X330335Y-445736D01*
X329293Y-446073D01*
X328223Y-446329D01*
X327781Y-446562D01*
X327308Y-446715D01*
X326381Y-447302D01*
X325409Y-447815D01*
X325041Y-448149D01*
X324620Y-448415D01*
X323865Y-449216D01*
X323054Y-449953D01*
X322781Y-450368D01*
X322439Y-450731D01*
X321907Y-451693D01*
X321304Y-452609D01*
X321142Y-453079D01*
X320901Y-453516D01*
X320625Y-454580D01*
X320268Y-455617D01*
X320228Y-456113D01*
X320104Y-456595D01*
X320000Y-458213D01*
X320000Y-520785D01*
X308285Y-532500D01*
X-308285Y-532500D01*
X-320000Y-520785D01*
X-320000Y-363944D01*
X-320175Y-362563D01*
X-320304Y-361182D01*
X-320373Y-360991D01*
X-320399Y-360788D01*
X-320909Y-359499D01*
X-321379Y-358188D01*
X-321494Y-358019D01*
X-321569Y-357830D01*
X-322382Y-356710D01*
X-323165Y-355556D01*
X-323318Y-355420D01*
X-323438Y-355256D01*
X-324509Y-354368D01*
X-325549Y-353449D01*
X-325729Y-353357D01*
X-325888Y-353226D01*
X-327150Y-352631D01*
X-328382Y-352002D01*
X-328580Y-351957D01*
X-328765Y-351870D01*
X-330129Y-351608D01*
X-331485Y-351303D01*
X-331689Y-351309D01*
X-331889Y-351271D01*
X-333270Y-351356D01*
X-334665Y-351398D01*
X-334862Y-351454D01*
X-335064Y-351467D01*
X-336383Y-351893D01*
X-337721Y-352280D01*
X-337897Y-352383D01*
X-338091Y-352446D01*
X-339267Y-353190D01*
X-340463Y-353893D01*
X-340674Y-354080D01*
X-340779Y-354146D01*
X-340923Y-354298D01*
X-341680Y-354964D01*
X-351715Y-365000D01*
X-508285Y-365000D01*
X-520000Y-353285D01*
X-520000Y-192040D01*
X-520088Y-191348D01*
X-520077Y-190650D01*
X-520286Y-189776D01*
X-520399Y-188884D01*
X-520655Y-188235D01*
X-520818Y-187557D01*
X-521238Y-186762D01*
X-521569Y-185926D01*
X-521978Y-185362D01*
X-522305Y-184744D01*
X-522911Y-184078D01*
X-523438Y-183352D01*
X-523974Y-182908D01*
X-524444Y-182390D01*
X-525195Y-181896D01*
X-525888Y-181322D01*
X-526520Y-181024D01*
X-527102Y-180641D01*
X-527951Y-180349D01*
X-528765Y-179966D01*
X-529450Y-179834D01*
X-530110Y-179608D01*
X-531006Y-179536D01*
X-531889Y-179367D01*
X-532586Y-179410D01*
X-533281Y-179354D01*
X-534167Y-179508D01*
X-535064Y-179563D01*
X-535727Y-179777D01*
X-536415Y-179896D01*
X-537237Y-180266D01*
X-538091Y-180542D01*
X-538681Y-180915D01*
X-539317Y-181201D01*
X-540018Y-181761D01*
X-540779Y-182242D01*
X-541259Y-182751D01*
X-541803Y-183185D01*
X-542343Y-183902D01*
X-542961Y-184558D01*
X-543298Y-185169D01*
X-543718Y-185726D01*
X-544433Y-187181D01*
X-545492Y-189739D01*
X-560260Y-204508D01*
X-561959Y-205211D01*
X-562213Y-205356D01*
X-562491Y-205446D01*
X-563592Y-206142D01*
X-564723Y-206787D01*
X-564933Y-206990D01*
X-565180Y-207146D01*
X-566073Y-208094D01*
X-567008Y-209000D01*
X-567161Y-209249D01*
X-567361Y-209462D01*
X-567991Y-210603D01*
X-568671Y-211712D01*
X-568757Y-211990D01*
X-568899Y-212247D01*
X-569226Y-213509D01*
X-569609Y-214752D01*
X-569623Y-215043D01*
X-569696Y-215326D01*
X-569799Y-216944D01*
X-569799Y-219155D01*
X-569676Y-220133D01*
X-569647Y-221120D01*
X-569477Y-221707D01*
X-569401Y-222311D01*
X-569039Y-223227D01*
X-568765Y-224176D01*
X-568455Y-224703D01*
X-568231Y-225269D01*
X-567652Y-226067D01*
X-567151Y-226918D01*
X-566484Y-227675D01*
X-566362Y-227843D01*
X-566266Y-227923D01*
X-566080Y-228135D01*
X-564999Y-229215D01*
X-564999Y-310784D01*
X-565167Y-310951D01*
X-565895Y-311890D01*
X-566682Y-312781D01*
X-566868Y-313144D01*
X-567117Y-313465D01*
X-567588Y-314553D01*
X-568130Y-315613D01*
X-568219Y-316011D01*
X-568381Y-316384D01*
X-568567Y-317555D01*
X-568828Y-318717D01*
X-568816Y-319125D01*
X-568880Y-319526D01*
X-568769Y-320707D01*
X-568734Y-321897D01*
X-568621Y-322288D01*
X-568583Y-322693D01*
X-568181Y-323811D01*
X-567852Y-324953D01*
X-567645Y-325304D01*
X-567508Y-325687D01*
X-566842Y-326668D01*
X-566238Y-327694D01*
X-565838Y-328149D01*
X-565722Y-328319D01*
X-565568Y-328456D01*
X-565167Y-328912D01*
X-559674Y-334404D01*
X-556330Y-340195D01*
X-554599Y-346655D01*
X-554599Y-399601D01*
X-586030Y-399601D01*
X-587210Y-399750D01*
X-588394Y-399823D01*
X-588781Y-399948D01*
X-589186Y-399999D01*
X-590292Y-400437D01*
X-591421Y-400802D01*
X-591766Y-401020D01*
X-592144Y-401170D01*
X-593103Y-401866D01*
X-594110Y-402503D01*
X-594390Y-402800D01*
X-594718Y-403038D01*
X-595475Y-403952D01*
X-596291Y-404818D01*
X-596488Y-405174D01*
X-596748Y-405488D01*
X-597254Y-406563D01*
X-597829Y-407603D01*
X-597931Y-407998D01*
X-598104Y-408366D01*
X-598328Y-409531D01*
X-598626Y-410683D01*
X-598665Y-411287D01*
X-598703Y-411490D01*
X-598691Y-411696D01*
X-598729Y-412300D01*
X-598729Y-437699D01*
X-598580Y-438879D01*
X-598507Y-440063D01*
X-598382Y-440450D01*
X-598331Y-440855D01*
X-597893Y-441961D01*
X-597528Y-443090D01*
X-597310Y-443435D01*
X-597161Y-443813D01*
X-596464Y-444773D01*
X-595828Y-445779D01*
X-595530Y-446059D01*
X-595292Y-446388D01*
X-594378Y-447144D01*
X-593513Y-447960D01*
X-593156Y-448157D01*
X-592842Y-448417D01*
X-591768Y-448923D01*
X-590728Y-449498D01*
X-590333Y-449600D01*
X-589965Y-449773D01*
X-588800Y-449997D01*
X-587648Y-450295D01*
X-587043Y-450334D01*
X-586841Y-450373D01*
X-586635Y-450360D01*
X-586030Y-450398D01*
X-554599Y-450398D01*
X-554599Y-503344D01*
X-556330Y-509804D01*
X-559674Y-515596D01*
X-565167Y-521088D01*
X-565896Y-522028D01*
X-566682Y-522918D01*
X-566867Y-523280D01*
X-567117Y-523602D01*
X-567589Y-524692D01*
X-568130Y-525750D01*
X-568219Y-526148D01*
X-568381Y-526521D01*
X-568567Y-527693D01*
X-568828Y-528854D01*
X-568816Y-529261D01*
X-568880Y-529662D01*
X-568769Y-530846D01*
X-568733Y-532033D01*
X-568621Y-532423D01*
X-568583Y-532829D01*
X-568181Y-533949D01*
X-567852Y-535090D01*
X-567645Y-535441D01*
X-567508Y-535823D01*
X-566840Y-536807D01*
X-566238Y-537831D01*
X-565838Y-538285D01*
X-565722Y-538456D01*
X-565567Y-538594D01*
X-565167Y-539048D01*
X-564999Y-539216D01*
X-564999Y-620785D01*
X-580146Y-635932D01*
X-580873Y-636868D01*
X-581661Y-637760D01*
X-581847Y-638123D01*
X-582096Y-638445D01*
X-582568Y-639535D01*
X-583109Y-640593D01*
X-583199Y-640991D01*
X-583360Y-641364D01*
X-583546Y-642535D01*
X-583808Y-643696D01*
X-583796Y-644104D01*
X-583859Y-644506D01*
X-583748Y-645685D01*
X-583713Y-646876D01*
X-583600Y-647268D01*
X-583562Y-647673D01*
X-583161Y-648788D01*
X-582831Y-649933D01*
X-582624Y-650284D01*
X-582487Y-650667D01*
X-581819Y-651651D01*
X-581217Y-652674D01*
X-580818Y-653127D01*
X-580701Y-653300D01*
X-580545Y-653438D01*
X-580146Y-653891D01*
X-541679Y-692358D01*
X-540584Y-693208D01*
X-539512Y-694096D01*
X-539327Y-694183D01*
X-539166Y-694308D01*
X-537893Y-694859D01*
X-536634Y-695453D01*
X-536434Y-695491D01*
X-536247Y-695572D01*
X-534877Y-695789D01*
X-533510Y-696052D01*
X-533307Y-696039D01*
X-533105Y-696071D01*
X-531723Y-695941D01*
X-530335Y-695855D01*
X-530141Y-695793D01*
X-529938Y-695773D01*
X-528629Y-695303D01*
X-527308Y-694876D01*
X-527137Y-694768D01*
X-526944Y-694698D01*
X-525794Y-693919D01*
X-524620Y-693176D01*
X-524480Y-693027D01*
X-524311Y-692913D01*
X-523392Y-691873D01*
X-522439Y-690861D01*
X-522340Y-690682D01*
X-522205Y-690529D01*
X-521574Y-689294D01*
X-520901Y-688076D01*
X-520850Y-687878D01*
X-520757Y-687697D01*
X-520452Y-686343D01*
X-520104Y-684996D01*
X-520086Y-684714D01*
X-520058Y-684593D01*
X-520065Y-684384D01*
X-520000Y-683378D01*
X-520000Y-576715D01*
X-508285Y-564999D01*
X-351715Y-564999D01*
X-339999Y-576715D01*
X-339999Y-640744D01*
X-339876Y-641722D01*
X-339847Y-642709D01*
X-339677Y-643296D01*
X-339601Y-643900D01*
X-339239Y-644816D01*
X-338965Y-645766D01*
X-338655Y-646292D01*
X-338431Y-646858D01*
X-337852Y-647656D01*
X-337351Y-648507D01*
X-336683Y-649266D01*
X-336562Y-649433D01*
X-336467Y-649511D01*
X-336280Y-649724D01*
X-317225Y-668780D01*
X-316446Y-669384D01*
X-315727Y-670061D01*
X-315193Y-670356D01*
X-314711Y-670730D01*
X-313807Y-671122D01*
X-312942Y-671599D01*
X-312351Y-671752D01*
X-311792Y-671994D01*
X-310819Y-672148D01*
X-309863Y-672396D01*
X-308854Y-672460D01*
X-308650Y-672493D01*
X-308528Y-672481D01*
X-308245Y-672499D01*
X308285Y-672499D01*
X320000Y-684215D01*
X320000Y-734800D01*
X320149Y-735980D01*
X320223Y-737164D01*
X320348Y-737551D01*
X320399Y-737956D01*
X320836Y-739062D01*
X321202Y-740191D01*
X321419Y-740536D01*
X321569Y-740914D01*
X322265Y-741873D01*
X322902Y-742880D01*
X323199Y-743160D01*
X323438Y-743488D01*
X324351Y-744245D01*
X325217Y-745061D01*
X325573Y-745258D01*
X325888Y-745518D01*
X326962Y-746024D01*
X328002Y-746599D01*
X328397Y-746701D01*
X328765Y-746874D01*
X329930Y-747098D01*
X331082Y-747396D01*
X331687Y-747435D01*
X331889Y-747473D01*
X332095Y-747461D01*
X332700Y-747499D01*
X340279Y-747499D01*
X341257Y-747376D01*
X342244Y-747347D01*
X342831Y-747177D01*
X343435Y-747101D01*
X344351Y-746739D01*
X345301Y-746465D01*
X345827Y-746155D01*
X346393Y-745931D01*
X347191Y-745352D01*
X348042Y-744851D01*
X348799Y-744184D01*
X348968Y-744062D01*
X349047Y-743966D01*
X349259Y-743780D01*
X471220Y-621819D01*
X471823Y-621041D01*
X472501Y-620322D01*
X472796Y-619788D01*
X473170Y-619306D01*
X473561Y-618402D01*
X474039Y-617537D01*
X474192Y-616945D01*
X474434Y-616387D01*
X474588Y-615414D01*
X474836Y-614457D01*
X474900Y-613449D01*
X474933Y-613245D01*
X474921Y-613122D01*
X474939Y-612839D01*
X474939Y-516310D01*
X486655Y-504594D01*
X586960Y-504594D01*
X588140Y-504445D01*
X589324Y-504372D01*
X589711Y-504247D01*
X590116Y-504196D01*
X591222Y-503758D01*
X592351Y-503393D01*
X592696Y-503175D01*
X593074Y-503026D01*
X594033Y-502329D01*
X595040Y-501693D01*
X595320Y-501396D01*
X595648Y-501157D01*
X596405Y-500243D01*
X597221Y-499378D01*
X597418Y-499021D01*
X597678Y-498707D01*
X597785Y-498479D01*
X611375Y-484889D01*
X657945Y-484889D01*
X671144Y-498088D01*
X671229Y-498304D01*
X671925Y-499263D01*
X672562Y-500270D01*
X672859Y-500550D01*
X673098Y-500878D01*
X674011Y-501635D01*
X674877Y-502451D01*
X675233Y-502648D01*
X675548Y-502908D01*
X676622Y-503414D01*
X677662Y-503989D01*
X678057Y-504091D01*
X678425Y-504264D01*
X679590Y-504488D01*
X680742Y-504786D01*
X681347Y-504825D01*
X681549Y-504863D01*
X681755Y-504851D01*
X682360Y-504889D01*
X688888Y-504889D01*
X689865Y-504766D01*
X690852Y-504737D01*
X691439Y-504567D01*
X692043Y-504491D01*
X692959Y-504129D01*
X693909Y-503855D01*
X694435Y-503545D01*
X695002Y-503321D01*
X695799Y-502742D01*
X696650Y-502241D01*
X697408Y-501574D01*
X697576Y-501452D01*
X697655Y-501356D01*
X697867Y-501170D01*
X793780Y-405257D01*
X794383Y-404479D01*
X795061Y-403760D01*
X795356Y-403226D01*
X795730Y-402744D01*
X796121Y-401840D01*
X796599Y-400975D01*
X796752Y-400383D01*
X796994Y-399825D01*
X797148Y-398852D01*
X797396Y-397895D01*
X797460Y-396887D01*
X797493Y-396683D01*
X797481Y-396560D01*
X797499Y-396278D01*
X797499Y-384557D01*
X805492Y-365260D01*
X820260Y-350492D01*
X839557Y-342499D01*
X860443Y-342499D01*
X879739Y-350492D01*
X894508Y-365260D01*
X902500Y-384557D01*
X902500Y-405443D01*
X894508Y-424739D01*
X879739Y-439508D01*
X860443Y-447500D01*
X848722Y-447500D01*
X847745Y-447624D01*
X846758Y-447653D01*
X846171Y-447823D01*
X845566Y-447899D01*
X844651Y-448261D01*
X843701Y-448535D01*
X843174Y-448845D01*
X842608Y-449069D01*
X841810Y-449648D01*
X840960Y-450149D01*
X840202Y-450816D01*
X840034Y-450938D01*
X839954Y-451033D01*
X839743Y-451220D01*
X721072Y-569890D01*
X682360Y-569890D01*
X681180Y-570039D01*
X679995Y-570113D01*
X679608Y-570238D01*
X679204Y-570289D01*
X678098Y-570726D01*
X676968Y-571092D01*
X676624Y-571309D01*
X676246Y-571459D01*
X675286Y-572155D01*
X674280Y-572792D01*
X674000Y-573089D01*
X673671Y-573328D01*
X672914Y-574241D01*
X672099Y-575107D01*
X671902Y-575463D01*
X671642Y-575778D01*
X671135Y-576852D01*
X671067Y-576976D01*
X670406Y-577708D01*
X670185Y-578129D01*
X669895Y-578503D01*
X669450Y-579531D01*
X668928Y-580525D01*
X668819Y-580988D01*
X668631Y-581423D01*
X668455Y-582528D01*
X668197Y-583621D01*
X668206Y-584096D01*
X668132Y-584564D01*
X668236Y-585680D01*
X668258Y-586801D01*
X668385Y-587259D01*
X668429Y-587732D01*
X668808Y-588787D01*
X669107Y-589867D01*
X669429Y-590518D01*
X669504Y-590726D01*
X669609Y-590880D01*
X669827Y-591320D01*
X673669Y-597975D01*
X675400Y-604435D01*
X675400Y-683579D01*
X635003Y-683579D01*
X633823Y-683728D01*
X632639Y-683801D01*
X632252Y-683926D01*
X631847Y-683977D01*
X630742Y-684415D01*
X629612Y-684780D01*
X629268Y-684998D01*
X628889Y-685148D01*
X627930Y-685844D01*
X626923Y-686480D01*
X626919Y-686485D01*
X626918Y-686485D01*
X626642Y-686778D01*
X626315Y-687016D01*
X626312Y-687020D01*
X626310Y-687021D01*
X625553Y-687935D01*
X624737Y-688801D01*
X624540Y-689157D01*
X624280Y-689471D01*
X623774Y-690545D01*
X623199Y-691586D01*
X623097Y-691981D01*
X622924Y-692348D01*
X622700Y-693513D01*
X622402Y-694665D01*
X622363Y-695270D01*
X622325Y-695473D01*
X622338Y-695678D01*
X622299Y-696283D01*
X622299Y-810180D01*
X616655Y-810180D01*
X610195Y-808449D01*
X604403Y-805105D01*
X599301Y-800003D01*
X598803Y-799215D01*
X598407Y-798842D01*
X598080Y-798411D01*
X597257Y-797758D01*
X596488Y-797034D01*
X596012Y-796771D01*
X595588Y-796435D01*
X594627Y-796007D01*
X593703Y-795496D01*
X593177Y-795360D01*
X592682Y-795139D01*
X591644Y-794963D01*
X590623Y-794699D01*
X589763Y-794644D01*
X589546Y-794607D01*
X589389Y-794620D01*
X589005Y-794595D01*
X501695Y-794595D01*
X500718Y-794719D01*
X499731Y-794748D01*
X499144Y-794918D01*
X498539Y-794994D01*
X497624Y-795356D01*
X496674Y-795630D01*
X496148Y-795940D01*
X495581Y-796164D01*
X494783Y-796743D01*
X493933Y-797244D01*
X493175Y-797911D01*
X493007Y-798033D01*
X492928Y-798128D01*
X492716Y-798315D01*
X414188Y-876843D01*
X388458Y-887500D01*
X332700Y-887500D01*
X331520Y-887649D01*
X330335Y-887723D01*
X329948Y-887848D01*
X329544Y-887899D01*
X328438Y-888336D01*
X327308Y-888702D01*
X326964Y-888919D01*
X326586Y-889069D01*
X325626Y-889765D01*
X324620Y-890402D01*
X324340Y-890699D01*
X324011Y-890938D01*
X323254Y-891851D01*
X322439Y-892717D01*
X322242Y-893073D01*
X321982Y-893388D01*
X321475Y-894462D01*
X320901Y-895502D01*
X320799Y-895897D01*
X320625Y-896265D01*
X320402Y-897430D01*
X320104Y-898582D01*
X320065Y-899187D01*
X320026Y-899389D01*
X320039Y-899595D01*
X320000Y-900200D01*
X320000Y-950785D01*
X308285Y-962500D01*
X-308285Y-962500D01*
X-320000Y-950785D01*
X-320000Y-869255D01*
X-320124Y-868278D01*
X-320153Y-867290D01*
X-320323Y-866704D01*
X-320399Y-866099D01*
X-320762Y-865181D01*
X-321035Y-864234D01*
X-321344Y-863708D01*
X-321569Y-863141D01*
X-322149Y-862342D01*
X-322649Y-861493D01*
X-323316Y-860735D01*
X-323438Y-860567D01*
X-323533Y-860487D01*
X-323720Y-860275D01*
X-435276Y-748720D01*
X-436053Y-748117D01*
X-436773Y-747439D01*
X-437308Y-747143D01*
X-437789Y-746770D01*
X-438691Y-746379D01*
X-439558Y-745901D01*
X-440150Y-745748D01*
X-440708Y-745506D01*
X-441681Y-745352D01*
X-442638Y-745104D01*
X-443646Y-745039D01*
X-443850Y-745007D01*
X-443973Y-745018D01*
X-444255Y-745000D01*
X-464800Y-745000D01*
X-465980Y-745149D01*
X-467164Y-745223D01*
X-467551Y-745348D01*
X-467956Y-745399D01*
X-469062Y-745836D01*
X-470191Y-746202D01*
X-470536Y-746419D01*
X-470914Y-746569D01*
X-471873Y-747265D01*
X-472880Y-747902D01*
X-473160Y-748199D01*
X-473488Y-748438D01*
X-474245Y-749351D01*
X-475061Y-750217D01*
X-475258Y-750573D01*
X-475518Y-750888D01*
X-476024Y-751962D01*
X-476599Y-753002D01*
X-476701Y-753397D01*
X-476874Y-753765D01*
X-477098Y-754930D01*
X-477396Y-756082D01*
X-477435Y-756687D01*
X-477473Y-756889D01*
X-477461Y-757095D01*
X-477499Y-757700D01*
X-477499Y-768343D01*
X-477463Y-768633D01*
X-477486Y-768924D01*
X-477264Y-770206D01*
X-477101Y-771499D01*
X-476994Y-771770D01*
X-476944Y-772058D01*
X-476408Y-773249D01*
X-475931Y-774457D01*
X-475759Y-774693D01*
X-475639Y-774960D01*
X-474826Y-775979D01*
X-474062Y-777031D01*
X-473837Y-777218D01*
X-473655Y-777446D01*
X-472616Y-778229D01*
X-471612Y-779061D01*
X-471348Y-779185D01*
X-471115Y-779361D01*
X-469930Y-779943D01*
X-449979Y-799894D01*
X-439199Y-825917D01*
X-439199Y-854083D01*
X-449979Y-880106D01*
X-469894Y-900021D01*
X-495917Y-910800D01*
X-524083Y-910800D01*
X-550106Y-900021D01*
X-570021Y-880106D01*
X-580800Y-854083D01*
X-580800Y-825917D01*
X-573420Y-808099D01*
X-573235Y-807425D01*
X-572958Y-806786D01*
X-572818Y-805898D01*
X-572580Y-805030D01*
X-572569Y-804332D01*
X-572460Y-803644D01*
X-572544Y-802750D01*
X-572529Y-801850D01*
X-572692Y-801171D01*
X-572757Y-800477D01*
X-573061Y-799631D01*
X-573271Y-798756D01*
X-573596Y-798140D01*
X-573832Y-797483D01*
X-574338Y-796738D01*
X-574758Y-795944D01*
X-575226Y-795428D01*
X-575618Y-794850D01*
X-576293Y-794254D01*
X-576897Y-793589D01*
X-577478Y-793207D01*
X-578002Y-792744D01*
X-578803Y-792334D01*
X-579554Y-791840D01*
X-580214Y-791613D01*
X-580834Y-791296D01*
X-581711Y-791099D01*
X-582562Y-790806D01*
X-583258Y-790751D01*
X-583938Y-790598D01*
X-584836Y-790624D01*
X-585733Y-790553D01*
X-586420Y-790672D01*
X-587118Y-790692D01*
X-587982Y-790942D01*
X-588868Y-791095D01*
X-589503Y-791381D01*
X-590174Y-791574D01*
X-590949Y-792031D01*
X-591769Y-792399D01*
X-592313Y-792834D01*
X-592915Y-793188D01*
X-594133Y-794259D01*
X-609894Y-810021D01*
X-635917Y-820800D01*
X-664083Y-820800D01*
X-690106Y-810021D01*
X-710021Y-790106D01*
X-720800Y-764083D01*
X-720800Y-735868D01*
X-720771Y-735810D01*
X-720485Y-734540D01*
X-720141Y-733283D01*
X-720136Y-732991D01*
X-720072Y-732707D01*
X-720111Y-731403D01*
X-720090Y-730102D01*
X-720158Y-729819D01*
X-720167Y-729527D01*
X-720528Y-728274D01*
X-720831Y-727008D01*
X-720968Y-726751D01*
X-721048Y-726470D01*
X-721708Y-725350D01*
X-722318Y-724196D01*
X-722515Y-723980D01*
X-722663Y-723729D01*
X-723733Y-722512D01*
X-742019Y-704226D01*
X-742956Y-703499D01*
X-743848Y-702711D01*
X-744211Y-702526D01*
X-744533Y-702276D01*
X-745623Y-701804D01*
X-746681Y-701263D01*
X-747078Y-701173D01*
X-747452Y-701012D01*
X-748623Y-700826D01*
X-749784Y-700564D01*
X-750192Y-700577D01*
X-750593Y-700513D01*
X-751773Y-700624D01*
X-752964Y-700659D01*
X-753356Y-700772D01*
X-753761Y-700810D01*
X-754876Y-701211D01*
X-756020Y-701541D01*
X-756372Y-701748D01*
X-756755Y-701885D01*
X-757739Y-702553D01*
X-758762Y-703155D01*
X-759215Y-703554D01*
X-759388Y-703671D01*
X-759526Y-703827D01*
X-759979Y-704226D01*
X-767760Y-712008D01*
X-787057Y-720000D01*
X-789470Y-720000D01*
X-790427Y-720121D01*
X-791391Y-720147D01*
X-791999Y-720320D01*
X-792626Y-720399D01*
X-793522Y-720753D01*
X-794451Y-721018D01*
X-794997Y-721337D01*
X-795584Y-721569D01*
X-796365Y-722136D01*
X-797198Y-722623D01*
X-797647Y-723067D01*
X-798158Y-723438D01*
X-798773Y-724181D01*
X-799460Y-724859D01*
X-799784Y-725401D01*
X-800188Y-725888D01*
X-800599Y-726761D01*
X-801095Y-727588D01*
X-801274Y-728193D01*
X-801544Y-728765D01*
X-801726Y-729713D01*
X-802000Y-730637D01*
X-802024Y-731268D01*
X-802143Y-731889D01*
X-802084Y-732851D01*
X-802120Y-733816D01*
X-801986Y-734435D01*
X-801947Y-735064D01*
X-801651Y-735980D01*
X-801446Y-736925D01*
X-801162Y-737491D01*
X-800968Y-738091D01*
X-800452Y-738906D01*
X-800020Y-739769D01*
X-799375Y-740609D01*
X-799268Y-740779D01*
X-799185Y-740858D01*
X-799033Y-741055D01*
X-756568Y-789660D01*
X-756321Y-789879D01*
X-756123Y-790144D01*
X-754922Y-791234D01*
X-603410Y-912061D01*
X-603128Y-912233D01*
X-602885Y-912457D01*
X-601510Y-913315D01*
X-430858Y-1005147D01*
X-430550Y-1005266D01*
X-430272Y-1005443D01*
X-428765Y-1006041D01*
X-244458Y-1065926D01*
X-244133Y-1065988D01*
X-243828Y-1066113D01*
X-242238Y-1066433D01*
X-71108Y-1089614D01*
X-70309Y-1089621D01*
X-69518Y-1089728D01*
X-68724Y-1089636D01*
X-67927Y-1089643D01*
X-67152Y-1089452D01*
X-66358Y-1089359D01*
X-65613Y-1089072D01*
X-64838Y-1088880D01*
X-64135Y-1088503D01*
X-63390Y-1088215D01*
X-62739Y-1087752D01*
X-62036Y-1087374D01*
X-61449Y-1086833D01*
X-60799Y-1086370D01*
X-60284Y-1085760D01*
X-59697Y-1085219D01*
X-59263Y-1084550D01*
X-58747Y-1083939D01*
X-58400Y-1083219D01*
X-57966Y-1082550D01*
X-57712Y-1081793D01*
X-57365Y-1081074D01*
X-56962Y-1079561D01*
X-56953Y-1079534D01*
X-56952Y-1079524D01*
X-56948Y-1079507D01*
X-55675Y-1073111D01*
X-51310Y-1062573D01*
X-44974Y-1053090D01*
X-36910Y-1045026D01*
X-27427Y-1038689D01*
X-16888Y-1034324D01*
X-12701Y-1033491D01*
X-12701Y-1077684D01*
X-12552Y-1078864D01*
X-12478Y-1080048D01*
X-12353Y-1080435D01*
X-12302Y-1080840D01*
X-11865Y-1081945D01*
X-11499Y-1083075D01*
X-11282Y-1083419D01*
X-11132Y-1083798D01*
X-10436Y-1084757D01*
X-9799Y-1085763D01*
X-9502Y-1086044D01*
X-9263Y-1086372D01*
X-8350Y-1087129D01*
X-7484Y-1087945D01*
X-7128Y-1088142D01*
X-6813Y-1088402D01*
X-5739Y-1088908D01*
X-4699Y-1089483D01*
X-4304Y-1089585D01*
X-3936Y-1089758D01*
X-2771Y-1089982D01*
X-1619Y-1090280D01*
X-1014Y-1090318D01*
X-812Y-1090357D01*
X-809Y-1090357D01*
X-605Y-1090345D01*
X-1Y-1090383D01*
X1Y-1090383D01*
X1181Y-1090234D01*
G37*
%LPC*%
G36*
X259557Y757499D02*
X259557Y757499D01*
X240260Y765492D01*
X225492Y780260D01*
X217499Y799557D01*
X217499Y820443D01*
X225492Y839739D01*
X240260Y854508D01*
X259557Y862500D01*
X280443Y862500D01*
X299739Y854508D01*
X311020Y843227D01*
X311943Y842511D01*
X312103Y842360D01*
X312136Y842342D01*
X312849Y841712D01*
X313211Y841527D01*
X313533Y841277D01*
X314626Y840804D01*
X315682Y840264D01*
X316079Y840174D01*
X316453Y840013D01*
X317624Y839826D01*
X318785Y839565D01*
X319193Y839577D01*
X319594Y839513D01*
X320774Y839624D01*
X321965Y839660D01*
X322358Y839773D01*
X322762Y839811D01*
X323879Y840212D01*
X325021Y840542D01*
X325372Y840748D01*
X325756Y840886D01*
X326740Y841554D01*
X327763Y842156D01*
X328217Y842555D01*
X328388Y842672D01*
X328525Y842827D01*
X328980Y843227D01*
X340261Y854508D01*
X359557Y862500D01*
X380443Y862500D01*
X399739Y854508D01*
X414508Y839739D01*
X422500Y820443D01*
X422500Y799557D01*
X414508Y780260D01*
X399739Y765492D01*
X380443Y757499D01*
X359557Y757499D01*
X340261Y765492D01*
X328980Y776773D01*
X328042Y777501D01*
X327151Y778288D01*
X326788Y778473D01*
X326467Y778723D01*
X325376Y779195D01*
X324318Y779736D01*
X323921Y779825D01*
X323548Y779987D01*
X322376Y780173D01*
X321215Y780435D01*
X320807Y780423D01*
X320406Y780486D01*
X319224Y780375D01*
X318035Y780340D01*
X317644Y780227D01*
X317238Y780189D01*
X316121Y779788D01*
X314979Y779458D01*
X314627Y779251D01*
X314245Y779114D01*
X313262Y778448D01*
X312238Y777844D01*
X311783Y777444D01*
X311612Y777328D01*
X311475Y777173D01*
X311020Y776773D01*
X299739Y765492D01*
X280443Y757499D01*
X259557Y757499D01*
G37*
%LPD*%
G36*
X-731318Y-282547D02*
X-731318Y-282547D01*
X-730134Y-282474D01*
X-729747Y-282348D01*
X-729342Y-282298D01*
X-728237Y-281860D01*
X-727107Y-281495D01*
X-726763Y-281277D01*
X-726384Y-281127D01*
X-725425Y-280431D01*
X-724418Y-279794D01*
X-724138Y-279497D01*
X-723810Y-279258D01*
X-723053Y-278345D01*
X-722237Y-277479D01*
X-722040Y-277123D01*
X-721780Y-276809D01*
X-721274Y-275734D01*
X-720699Y-274694D01*
X-720597Y-274299D01*
X-720424Y-273931D01*
X-720200Y-272766D01*
X-719902Y-271614D01*
X-719863Y-271010D01*
X-719825Y-270807D01*
X-719838Y-270601D01*
X-719799Y-269997D01*
X-719799Y-211720D01*
X-719651Y-211701D01*
X-718359Y-211190D01*
X-717051Y-210720D01*
X-716882Y-210606D01*
X-716693Y-210531D01*
X-715570Y-209716D01*
X-714418Y-208935D01*
X-714283Y-208782D01*
X-714118Y-208662D01*
X-713233Y-207594D01*
X-712312Y-206551D01*
X-712219Y-206369D01*
X-712089Y-206213D01*
X-711495Y-204954D01*
X-710864Y-203718D01*
X-710819Y-203520D01*
X-710732Y-203335D01*
X-710470Y-201970D01*
X-710165Y-200615D01*
X-710171Y-200411D01*
X-710133Y-200211D01*
X-710218Y-198826D01*
X-710260Y-197435D01*
X-710316Y-197239D01*
X-710329Y-197036D01*
X-710756Y-195716D01*
X-711142Y-194379D01*
X-711245Y-194203D01*
X-711308Y-194009D01*
X-712050Y-192837D01*
X-712756Y-191638D01*
X-712942Y-191426D01*
X-713008Y-191321D01*
X-713160Y-191178D01*
X-713827Y-190420D01*
X-724508Y-179739D01*
X-732500Y-160443D01*
X-732500Y-149005D01*
X-732624Y-148028D01*
X-732653Y-147041D01*
X-732700Y-146877D01*
X-732700Y-134605D01*
X-732875Y-133224D01*
X-733004Y-131843D01*
X-733073Y-131651D01*
X-733099Y-131449D01*
X-733610Y-130156D01*
X-734080Y-128849D01*
X-734194Y-128680D01*
X-734269Y-128491D01*
X-735086Y-127366D01*
X-735865Y-126216D01*
X-736018Y-126081D01*
X-736138Y-125916D01*
X-737208Y-125030D01*
X-738249Y-124110D01*
X-738431Y-124017D01*
X-738588Y-123887D01*
X-739842Y-123295D01*
X-741082Y-122662D01*
X-741281Y-122617D01*
X-741465Y-122530D01*
X-742825Y-122270D01*
X-744185Y-121963D01*
X-744389Y-121969D01*
X-744589Y-121931D01*
X-745970Y-122017D01*
X-747365Y-122058D01*
X-747562Y-122115D01*
X-747764Y-122128D01*
X-749082Y-122554D01*
X-750421Y-122940D01*
X-750597Y-123044D01*
X-750791Y-123107D01*
X-751965Y-123849D01*
X-753163Y-124554D01*
X-753374Y-124740D01*
X-753479Y-124807D01*
X-753623Y-124959D01*
X-754380Y-125625D01*
X-761080Y-132326D01*
X-761685Y-133105D01*
X-762361Y-133823D01*
X-762656Y-134357D01*
X-763030Y-134839D01*
X-763422Y-135744D01*
X-763899Y-136608D01*
X-764052Y-137199D01*
X-764294Y-137758D01*
X-764449Y-138732D01*
X-764696Y-139688D01*
X-764760Y-140696D01*
X-764793Y-140900D01*
X-764781Y-141023D01*
X-764799Y-141305D01*
X-764799Y-199400D01*
X-764650Y-200580D01*
X-764577Y-201764D01*
X-764452Y-202151D01*
X-764401Y-202556D01*
X-763963Y-203662D01*
X-763598Y-204791D01*
X-763380Y-205136D01*
X-763231Y-205514D01*
X-762534Y-206473D01*
X-761898Y-207480D01*
X-761600Y-207760D01*
X-761362Y-208088D01*
X-760448Y-208845D01*
X-759583Y-209661D01*
X-759226Y-209858D01*
X-758912Y-210118D01*
X-757838Y-210624D01*
X-756798Y-211199D01*
X-756403Y-211301D01*
X-756035Y-211474D01*
X-754870Y-211698D01*
X-753718Y-211996D01*
X-753113Y-212035D01*
X-752911Y-212073D01*
X-752705Y-212061D01*
X-752100Y-212099D01*
X-745201Y-212099D01*
X-745201Y-269997D01*
X-745052Y-271177D01*
X-744978Y-272361D01*
X-744853Y-272748D01*
X-744802Y-273153D01*
X-744365Y-274258D01*
X-743999Y-275388D01*
X-743782Y-275732D01*
X-743632Y-276111D01*
X-742936Y-277070D01*
X-742299Y-278076D01*
X-742002Y-278357D01*
X-741763Y-278685D01*
X-740850Y-279442D01*
X-739984Y-280258D01*
X-739628Y-280454D01*
X-739313Y-280714D01*
X-738239Y-281221D01*
X-737199Y-281795D01*
X-736804Y-281898D01*
X-736436Y-282071D01*
X-735271Y-282294D01*
X-734119Y-282593D01*
X-733514Y-282631D01*
X-733312Y-282670D01*
X-733309Y-282670D01*
X-733104Y-282658D01*
X-732501Y-282696D01*
X-732498Y-282696D01*
X-731318Y-282547D01*
G37*
%LPC*%
G36*
X262701Y-120400D02*
X262701Y-120400D01*
X262701Y-7701D01*
X295400Y-7701D01*
X295400Y-98344D01*
X293669Y-104804D01*
X290325Y-110596D01*
X285596Y-115325D01*
X279804Y-118669D01*
X273344Y-120400D01*
X262701Y-120400D01*
G37*
%LPD*%
%LPC*%
G36*
X957499Y267499D02*
X957499Y267499D01*
X957499Y332500D01*
X1000400Y332500D01*
X1000400Y267499D01*
X957499Y267499D01*
G37*
%LPD*%
%LPC*%
G36*
X647701Y-810180D02*
X647701Y-810180D01*
X647701Y-708981D01*
X675400Y-708981D01*
X675400Y-788124D01*
X673669Y-794584D01*
X670325Y-800376D01*
X665596Y-805105D01*
X659804Y-808449D01*
X653344Y-810180D01*
X647701Y-810180D01*
G37*
%LPD*%
%LPC*%
G36*
X-74710Y954999D02*
X-74710Y954999D01*
X-73273Y962226D01*
X-67527Y976096D01*
X-59188Y988575D01*
X-48575Y999188D01*
X-36096Y1007527D01*
X-22226Y1013273D01*
X-14999Y1014710D01*
X-14999Y954999D01*
X-74710Y954999D01*
G37*
%LPD*%
%LPC*%
G36*
X14999Y954999D02*
X14999Y954999D01*
X14999Y1014710D01*
X22226Y1013273D01*
X36096Y1007527D01*
X48575Y999188D01*
X59188Y988575D01*
X67527Y976096D01*
X73273Y962226D01*
X74710Y954999D01*
X14999Y954999D01*
G37*
%LPD*%
%LPC*%
G36*
X-22226Y866727D02*
X-22226Y866727D01*
X-36096Y872473D01*
X-48575Y880811D01*
X-59188Y891424D01*
X-67527Y903904D01*
X-73273Y917774D01*
X-74710Y925000D01*
X-14999Y925000D01*
X-14999Y865290D01*
X-22226Y866727D01*
G37*
%LPD*%
%LPC*%
G36*
X14999Y925000D02*
X14999Y925000D01*
X74710Y925000D01*
X73273Y917774D01*
X67527Y903904D01*
X59188Y891424D01*
X48575Y880811D01*
X36096Y872473D01*
X22226Y866727D01*
X14999Y865290D01*
X14999Y925000D01*
G37*
%LPD*%
%LPC*%
G36*
X957499Y-320400D02*
X957499Y-320400D01*
X957499Y-267499D01*
X1000400Y-267499D01*
X1000400Y-298344D01*
X998669Y-304804D01*
X995325Y-310596D01*
X990596Y-315325D01*
X984804Y-318669D01*
X978344Y-320400D01*
X957499Y-320400D01*
G37*
%LPD*%
%LPC*%
G36*
X57701Y727701D02*
X57701Y727701D01*
X57701Y771508D01*
X61888Y770675D01*
X72427Y766310D01*
X81910Y759974D01*
X89974Y751910D01*
X96310Y742427D01*
X100675Y731888D01*
X101508Y727701D01*
X57701Y727701D01*
G37*
%LPD*%
%LPC*%
G36*
X662701Y462701D02*
X662701Y462701D01*
X662701Y506508D01*
X666888Y505675D01*
X677427Y501310D01*
X686910Y494974D01*
X694974Y486910D01*
X701310Y477427D01*
X705675Y466888D01*
X706508Y462701D01*
X662701Y462701D01*
G37*
%LPD*%
%LPC*%
G36*
X57701Y702299D02*
X57701Y702299D01*
X101508Y702299D01*
X100675Y698111D01*
X96310Y687573D01*
X89974Y678090D01*
X81910Y670026D01*
X72427Y663689D01*
X61888Y659324D01*
X57701Y658491D01*
X57701Y702299D01*
G37*
%LPD*%
%LPC*%
G36*
X593491Y462701D02*
X593491Y462701D01*
X594324Y466888D01*
X598689Y477427D01*
X605026Y486910D01*
X613090Y494974D01*
X622573Y501310D01*
X633111Y505675D01*
X637299Y506508D01*
X637299Y462701D01*
X593491Y462701D01*
G37*
%LPD*%
%LPC*%
G36*
X-176508Y-157299D02*
X-176508Y-157299D01*
X-175675Y-153111D01*
X-171310Y-142573D01*
X-164974Y-133090D01*
X-156910Y-125026D01*
X-147427Y-118689D01*
X-136888Y-114324D01*
X-132701Y-113491D01*
X-132701Y-157299D01*
X-176508Y-157299D01*
G37*
%LPD*%
%LPC*%
G36*
X-107299Y-157299D02*
X-107299Y-157299D01*
X-107299Y-113491D01*
X-103111Y-114324D01*
X-92573Y-118689D01*
X-83090Y-125026D01*
X-75026Y-133090D01*
X-68689Y-142573D01*
X-64324Y-153111D01*
X-63491Y-157299D01*
X-107299Y-157299D01*
G37*
%LPD*%
%LPC*%
G36*
X-11508Y727701D02*
X-11508Y727701D01*
X-10675Y731888D01*
X-6310Y742427D01*
X26Y751910D01*
X8090Y759973D01*
X17574Y766311D01*
X28111Y770675D01*
X32299Y771508D01*
X32299Y727701D01*
X-11508Y727701D01*
G37*
%LPD*%
%LPC*%
G36*
X28111Y659324D02*
X28111Y659324D01*
X17574Y663689D01*
X8090Y670026D01*
X26Y678090D01*
X-6310Y687573D01*
X-10675Y698111D01*
X-11508Y702299D01*
X32299Y702299D01*
X32299Y658491D01*
X28111Y659324D01*
G37*
%LPD*%
%LPC*%
G36*
X-701031Y225068D02*
X-701031Y225068D01*
X-701014Y225066D01*
X-700812Y225028D01*
X-700809Y225028D01*
X-700604Y225040D01*
X-700001Y225002D01*
X-699998Y225002D01*
X-698967Y225132D01*
X-698901Y224928D01*
X-698985Y224933D01*
X-699188Y224972D01*
X-699191Y224972D01*
X-699395Y224960D01*
X-699998Y224998D01*
X-700001Y224998D01*
X-701149Y224853D01*
X-701031Y225068D01*
G37*
%LPD*%
D10*
X-1150000Y0D02*
X-1149654Y28222D01*
X-1148615Y56428D01*
X-1146884Y84599D01*
X-1144462Y112720D01*
X-1141351Y140772D01*
X-1137553Y168740D01*
X-1133069Y196606D01*
X-1127903Y224354D01*
X-1122057Y251966D01*
X-1115536Y279427D01*
X-1108342Y306720D01*
X-1100481Y333827D01*
X-1091957Y360734D01*
X-1082776Y387423D01*
X-1072942Y413879D01*
X-1062461Y440086D01*
X-1051341Y466028D01*
X-1039588Y491688D01*
X-1027208Y517053D01*
X-1014209Y542106D01*
X-1000600Y566833D01*
X-986388Y591218D01*
X-971582Y615247D01*
X-956190Y638906D01*
X-940223Y662179D01*
X-923689Y685054D01*
X-906598Y707516D01*
X-888962Y729552D01*
X-870790Y751149D01*
X-852094Y772293D01*
X-832884Y792972D01*
X-813173Y813173D01*
X-792972Y832884D01*
X-772293Y852094D01*
X-751149Y870790D01*
X-729552Y888962D01*
X-707516Y906598D01*
X-685054Y923689D01*
X-662179Y940223D01*
X-638906Y956190D01*
X-615247Y971582D01*
X-591218Y986388D01*
X-566833Y1000600D01*
X-542106Y1014209D01*
X-517053Y1027208D01*
X-491688Y1039588D01*
X-466028Y1051341D01*
X-440086Y1062461D01*
X-413879Y1072942D01*
X-387423Y1082776D01*
X-360734Y1091957D01*
X-333827Y1100481D01*
X-306720Y1108342D01*
X-279427Y1115536D01*
X-251966Y1122057D01*
X-224354Y1127903D01*
X-196606Y1133069D01*
X-168740Y1137553D01*
X-140772Y1141351D01*
X-112720Y1144462D01*
X-84599Y1146884D01*
X-56428Y1148615D01*
X-28222Y1149654D01*
X0Y1150000D01*
X28222Y1149654D01*
X56428Y1148615D01*
X84599Y1146884D01*
X112720Y1144462D01*
X140772Y1141351D01*
X168740Y1137553D01*
X196606Y1133069D01*
X224354Y1127903D01*
X251966Y1122057D01*
X279427Y1115536D01*
X306720Y1108342D01*
X333827Y1100481D01*
X360734Y1091957D01*
X387423Y1082776D01*
X413879Y1072942D01*
X440086Y1062461D01*
X466028Y1051341D01*
X491688Y1039588D01*
X517053Y1027208D01*
X542106Y1014209D01*
X566833Y1000600D01*
X591218Y986388D01*
X615247Y971582D01*
X638906Y956190D01*
X662179Y940223D01*
X685054Y923689D01*
X707516Y906598D01*
X729552Y888962D01*
X751149Y870790D01*
X772293Y852094D01*
X792972Y832884D01*
X813173Y813173D01*
X832884Y792972D01*
X852094Y772293D01*
X870790Y751149D01*
X888962Y729552D01*
X906598Y707516D01*
X923689Y685054D01*
X940223Y662179D01*
X956190Y638906D01*
X971582Y615247D01*
X986388Y591218D01*
X1000600Y566833D01*
X1014209Y542106D01*
X1027208Y517053D01*
X1039588Y491688D01*
X1051341Y466028D01*
X1062461Y440086D01*
X1072942Y413879D01*
X1082776Y387423D01*
X1091957Y360734D01*
X1100481Y333827D01*
X1108342Y306720D01*
X1115536Y279427D01*
X1122057Y251966D01*
X1127903Y224354D01*
X1133069Y196606D01*
X1137553Y168740D01*
X1141351Y140772D01*
X1144462Y112720D01*
X1146884Y84599D01*
X1148615Y56428D01*
X1149654Y28222D01*
X1150000Y0D01*
X1149654Y-28222D01*
X1148615Y-56428D01*
X1146884Y-84599D01*
X1144462Y-112720D01*
X1141351Y-140772D01*
X1137553Y-168740D01*
X1133069Y-196606D01*
X1127903Y-224354D01*
X1122057Y-251966D01*
X1115536Y-279427D01*
X1108342Y-306720D01*
X1100481Y-333827D01*
X1091957Y-360734D01*
X1082776Y-387423D01*
X1072942Y-413879D01*
X1062461Y-440086D01*
X1051341Y-466028D01*
X1039588Y-491688D01*
X1027208Y-517053D01*
X1014209Y-542106D01*
X1000600Y-566833D01*
X986388Y-591218D01*
X971582Y-615247D01*
X956190Y-638906D01*
X940223Y-662179D01*
X923689Y-685054D01*
X906598Y-707516D01*
X888962Y-729552D01*
X870790Y-751149D01*
X852094Y-772293D01*
X832884Y-792972D01*
X813173Y-813173D01*
X792972Y-832884D01*
X772293Y-852094D01*
X751149Y-870790D01*
X729552Y-888962D01*
X707516Y-906598D01*
X685054Y-923689D01*
X662179Y-940223D01*
X638906Y-956190D01*
X615247Y-971582D01*
X591218Y-986388D01*
X566833Y-1000600D01*
X542106Y-1014209D01*
X517053Y-1027208D01*
X491688Y-1039588D01*
X466028Y-1051341D01*
X440086Y-1062461D01*
X413879Y-1072942D01*
X387423Y-1082776D01*
X360734Y-1091957D01*
X333827Y-1100481D01*
X306720Y-1108342D01*
X279427Y-1115536D01*
X251966Y-1122057D01*
X224354Y-1127903D01*
X196606Y-1133069D01*
X168740Y-1137553D01*
X140772Y-1141351D01*
X112720Y-1144462D01*
X84599Y-1146884D01*
X56428Y-1148615D01*
X28222Y-1149654D01*
X0Y-1150000D01*
X-28222Y-1149654D01*
X-56428Y-1148615D01*
X-84599Y-1146884D01*
X-112720Y-1144462D01*
X-140772Y-1141351D01*
X-168740Y-1137553D01*
X-196606Y-1133069D01*
X-224354Y-1127903D01*
X-251966Y-1122057D01*
X-279427Y-1115536D01*
X-306720Y-1108342D01*
X-333827Y-1100481D01*
X-360734Y-1091957D01*
X-387423Y-1082776D01*
X-413879Y-1072942D01*
X-440086Y-1062461D01*
X-466028Y-1051341D01*
X-491688Y-1039588D01*
X-517053Y-1027208D01*
X-542106Y-1014209D01*
X-566833Y-1000600D01*
X-591218Y-986388D01*
X-615247Y-971582D01*
X-638906Y-956190D01*
X-662179Y-940223D01*
X-685054Y-923689D01*
X-707516Y-906598D01*
X-729552Y-888962D01*
X-751149Y-870790D01*
X-772293Y-852094D01*
X-792972Y-832884D01*
X-813173Y-813173D01*
X-832884Y-792972D01*
X-852094Y-772293D01*
X-870790Y-751149D01*
X-888962Y-729552D01*
X-906598Y-707516D01*
X-923689Y-685054D01*
X-940223Y-662179D01*
X-956190Y-638906D01*
X-971582Y-615247D01*
X-986388Y-591218D01*
X-1000600Y-566833D01*
X-1014209Y-542106D01*
X-1027208Y-517053D01*
X-1039588Y-491688D01*
X-1051341Y-466028D01*
X-1062461Y-440086D01*
X-1072942Y-413879D01*
X-1082776Y-387423D01*
X-1091957Y-360734D01*
X-1100481Y-333827D01*
X-1108342Y-306720D01*
X-1115536Y-279427D01*
X-1122057Y-251966D01*
X-1127903Y-224354D01*
X-1133069Y-196606D01*
X-1137553Y-168740D01*
X-1141351Y-140772D01*
X-1144462Y-112720D01*
X-1146884Y-84599D01*
X-1148615Y-56428D01*
X-1149654Y-28222D01*
X-1150000Y0D01*
D11*
X810000Y350000D03*
X940000Y350000D03*
D12*
X-430000Y-275000D03*
X-430000Y-655000D03*
D13*
X370000Y5000D03*
X250000Y5000D03*
X130000Y5000D03*
D14*
X-700000Y225000D03*
D15*
X-800000Y25000D03*
X-750000Y25000D03*
X-700000Y25000D03*
X-650000Y25000D03*
X-600000Y25000D03*
X-600000Y425000D03*
X-650000Y425000D03*
X-700000Y425000D03*
X-750000Y425000D03*
X-800000Y425000D03*
D16*
X-500000Y325000D03*
X-500000Y275000D03*
X-500000Y225000D03*
X-500000Y175000D03*
X-500000Y125000D03*
X-900000Y125000D03*
X-900000Y175000D03*
X-900000Y225000D03*
X-900000Y275000D03*
X-900000Y325000D03*
D17*
X-700000Y-425000D03*
D18*
X-797500Y-270000D03*
X-732500Y-270000D03*
X-667500Y-270000D03*
X-602500Y-270000D03*
X-797500Y-580000D03*
X-732500Y-580000D03*
X-667500Y-580000D03*
X-602500Y-580000D03*
D19*
X0Y-817500D03*
X0Y-387500D03*
D20*
X0Y940000D03*
X-650000Y-750000D03*
X-510000Y-840000D03*
X595000Y760000D03*
X550000Y-375000D03*
X350000Y-375000D03*
D11*
X810000Y250000D03*
X940000Y250000D03*
X940000Y-250000D03*
X810000Y-250000D03*
D21*
X880000Y115000D03*
X785000Y115000D03*
X975000Y115000D03*
X975000Y-115000D03*
X785000Y-115000D03*
D22*
X542440Y-649595D03*
D23*
X635000Y-696280D03*
D24*
X634660Y-537390D03*
D25*
X-450000Y620000D03*
X-450000Y670000D03*
X-450000Y720000D03*
X-450000Y770000D03*
X-350000Y770000D03*
X-350000Y720000D03*
X-350000Y670000D03*
X-350000Y620000D03*
D26*
X-732500Y-392500D02*
X-700000Y-425000D01*
X-732500Y-392500D02*
X-732500Y-270000D01*
D27*
X45000Y715000D03*
X650000Y450000D03*
D26*
X-700000Y425000D02*
X-700000Y225000D01*
D27*
X0Y1100000D03*
X-1100000Y-10000D03*
X0Y-1090000D03*
X1100000Y0D03*
X170000Y-170000D03*
X-700000Y230000D03*
X-120000Y-170000D03*
D26*
X880000Y115000D02*
X880000Y190000D01*
X940000Y250000D01*
D27*
X125000Y215000D03*
X270000Y810000D03*
X680000Y150000D03*
X-680000Y-150000D03*
D26*
X-590000Y770000D02*
X-450000Y770000D01*
D27*
X-590000Y770000D03*
X660000Y-250000D03*
D26*
X785000Y-155000D02*
X785000Y-115000D01*
X780000Y-250000D02*
X660000Y-250000D01*
X780000Y-250000D02*
X810000Y-250000D01*
X785000Y-245000D02*
X785000Y-115000D01*
X785000Y-245000D02*
X780000Y-250000D01*
X-700000Y-130000D02*
X-700000Y25000D01*
X-700000Y-130000D02*
X-680000Y-150000D01*
X-667500Y-162500D01*
X-667500Y-270000D01*
D27*
X-590000Y-70000D03*
X-220000Y770000D03*
D26*
X-350000Y770000D01*
X-600000Y-60000D02*
X-590000Y-70000D01*
X-600000Y-60000D02*
X-600000Y25000D01*
D28*
X-732500Y-580000D02*
X-732500Y-647500D01*
D26*
X-732500Y-667500D02*
X-650000Y-750000D01*
X-732500Y-667500D02*
X-732500Y-647500D01*
D28*
X-667500Y-612500D02*
X-667500Y-580000D01*
X-667500Y-612500D02*
X-510000Y-770000D01*
X-510000Y-840000D01*
D26*
X-797500Y-270000D02*
X-797500Y-122500D01*
X-750000Y-75000D01*
X-750000Y25000D01*
D27*
X-590000Y-160000D03*
X-840000Y-70000D03*
D26*
X-800000Y-30000D02*
X-800000Y25000D01*
X-800000Y-30000D02*
X-840000Y-70000D01*
X-602500Y-172500D02*
X-602500Y-270000D01*
X-602500Y-172500D02*
X-590000Y-160000D01*
D29*
X-267500Y-817500D02*
X0Y-817500D01*
X-267500Y-817500D02*
X-430000Y-655000D01*
X0Y-817500D02*
X374535Y-817500D01*
X542440Y-649595D01*
D27*
X850000Y-395000D03*
D28*
X707610Y-537390D02*
X634660Y-537390D01*
X707610Y-537390D02*
X850000Y-395000D01*
D30*
X420000Y260000D03*
D27*
X-400000Y420000D03*
D26*
X-450000Y325000D02*
X-500000Y325000D01*
X-400000Y375000D02*
X-400000Y420000D01*
X-400000Y375000D02*
X-450000Y325000D01*
D30*
X350000Y280000D03*
D27*
X-750000Y545000D03*
D26*
X-750000Y425000D01*
D30*
X280000Y260000D03*
D26*
X280000Y200000D01*
X370000Y110000D02*
X370000Y5000D01*
X370000Y110000D02*
X280000Y200000D01*
D30*
X200000Y260000D03*
D26*
X200000Y175000D01*
X130000Y105000D02*
X130000Y5000D01*
X130000Y105000D02*
X200000Y175000D01*
D27*
X370000Y810000D03*
X-797500Y-667500D03*
D26*
X-797500Y-580000D01*
D27*
X-170000Y550000D03*
D26*
X-250000Y550000D01*
X-320000Y620000D02*
X-350000Y620000D01*
X-320000Y620000D02*
X-250000Y550000D01*
D29*
X12500Y-375000D02*
X350000Y-375000D01*
D31*
X12500Y-375000D02*
X0Y-387500D01*
D29*
X-430000Y-275000D02*
X-430000Y-180000D01*
X-15000Y235000D01*
D26*
X612500Y742500D02*
X632500Y742500D01*
X612500Y742500D02*
X595000Y760000D01*
D32*
X780000Y250000D02*
X780000Y120000D01*
X785000Y115000D01*
X780000Y250000D02*
X780000Y350000D01*
X780000Y595000D01*
X632500Y742500D01*
X780000Y250000D02*
X810000Y250000D01*
X810000Y350000D02*
X780000Y350000D01*
D29*
X110000Y535000D02*
X-15000Y410000D01*
X-15000Y235000D01*
X370000Y535000D02*
X595000Y760000D01*
X370000Y535000D02*
X110000Y535000D01*
D26*
X785000Y115000D02*
X785000Y0D01*
X975000Y0D01*
X975000Y115000D01*
D29*
X650000Y285000D02*
X650000Y310000D01*
X650000Y285000D02*
X550000Y185000D01*
X550000Y-375000D01*
D27*
X650000Y310000D03*
X-220000Y630000D03*
D26*
X-282877Y670000D02*
X-350000Y670000D01*
X-282877Y670000D02*
X-242877Y630000D01*
X-220000Y630000D01*
D27*
X-170000Y700000D03*
D26*
X-248671Y700000D01*
X-268671Y720000D02*
X-350000Y720000D01*
D28*
X-268671Y720000D02*
X-248671Y700000D01*
D26*
X-450000Y620000D02*
X-450000Y600000D01*
X-500000Y275000D02*
X-390000Y275000D01*
X-334800Y330200D02*
X-334800Y484800D01*
X-334800Y330200D02*
X-390000Y275000D01*
X-334800Y484800D02*
X-450000Y600000D01*
D27*
X-460000Y490000D03*
X-240000Y250000D03*
D26*
X-315000Y175000D01*
X-500000Y175000D01*
X-500000Y670000D02*
X-450000Y670000D01*
X-530000Y560000D02*
X-460000Y490000D01*
X-530000Y640000D02*
X-500000Y670000D01*
X-530000Y640000D02*
X-530000Y560000D01*
D27*
X-530000Y420000D03*
X-510000Y-110000D03*
D26*
X-500000Y-100000D01*
X-500000Y125000D01*
X-540000Y720000D02*
X-450000Y720000D01*
X-540000Y720000D02*
X-590000Y670000D01*
X-590000Y513745D01*
X-530000Y453745D02*
X-530000Y420000D01*
X-530000Y453745D02*
X-590000Y513745D01*
M02*
