M48
;GenerationSoftware,Autodesk,EAGLE,9.6.2*%
;CreationDate,2023-10-21T09:09:38Z*%
FMAT,2
ICI,OFF
METRIC,TZ,000.00000
T7C0.35000
T6C0.75000
T5C0.81280
T4C1.00000
T3C1.10000
T2C1.32080
T1C2.00000
%
G90
M71
T1
X4900000Y300000
X300000Y300000
X300000Y3900000
X4900000Y3900000
T2
X4411250Y2247000
X3761250Y2247000
X4414000Y2640000
X4414000Y3298000
X933000Y2336000
X325000Y2640000
X933000Y2640000
X325000Y2334750
T3
X2537000Y525000
X325000Y3194000
X325000Y2940000
X4693000Y2840000
X4693000Y3094000
X1266250Y1789750
X1266250Y1535750
X1266250Y1281750
X1266250Y1027750
X1013000Y525000
X1267000Y525000
X1521000Y525000
X1775000Y525000
X2029000Y525000
X2283000Y525000
T4
X4750000Y1727000
X4750000Y1473000
X4750000Y2252000
X4750000Y1998000
T5
X3873000Y1850000
X4127000Y1850000
T6
X2700000Y1300000
X1850000Y2487500
X2450000Y1300000
X3900000Y850000
T7
X3565000Y975000
X3715000Y1075000
X3715000Y1225000
X3715000Y1475000
X3715000Y1625000
X3515000Y1625000
X3315000Y1625000
X3215000Y1475000
X3915000Y1625000
X4115000Y1625000
X4215000Y1475000
X4215000Y1275000
X4215000Y1075000
X4215000Y875000
X4215000Y675000
X3215000Y1275000
X4115000Y525000
X3715000Y525000
X3515000Y525000
X2940000Y1175000
X2815000Y1075000
X2850000Y3140500
X2850000Y3331000
X2850000Y3521500
X2850000Y3712000
X2850000Y3902500
X3040500Y3902500
X3231000Y3902500
X3358000Y3712000
X3358000Y3521500
X3231000Y3331000
X2659500Y3902500
X2469000Y3902500
X2342000Y3712000
X2342000Y3521500
X2469000Y3331000
X4414000Y1370000
X4414000Y1497000
X4414000Y1624000
X2850000Y2850000
X4731500Y2449500
X198000Y3402000
X325000Y3402000
X452000Y3402000
X200000Y2050000
X625000Y2050000
X200000Y1050000
X625000Y1050000
X3175000Y2175000
X2650000Y1725000
X2950000Y1700000
X1475000Y1425000
X3915000Y525000
X2500000Y2925000
X2300000Y2925000
X2150000Y1075000
X1750000Y1075000
X2925000Y625000
X2925000Y425000
X652000Y2477000
X1950000Y1425000
X2100000Y2075000
X2000000Y1875000
X1750000Y1650000
X1900000Y725000
X2150000Y725000
X1425000Y700000
X3825000Y2575000
X3975000Y2575000
X4125000Y2575000
X3275000Y2575000
X3272500Y2475000
X3125000Y2000000
X2525000Y2075000
X1230000Y2950000
X2775000Y2325000
X2950000Y2750000
X3075000Y3625000
X2538750Y2310000
X2475000Y2375000
X3075000Y3500000
X3736500Y823500
X3615000Y825000
X3190000Y825000
X2450000Y2150000
X2815000Y675000
X3015000Y675000
X3075000Y3750000
X2950000Y2850000
X2750000Y2750000
X2625000Y3625000
X2625000Y3750000
X2625000Y3500000
X2750000Y2850000
X2750000Y2450000
X2950000Y2450000
X4604500Y2449500
X2925000Y2325000
X2300000Y2590000
X2765000Y1987500
X3200000Y2425000
X2850000Y2450000
X2850000Y2950000
X2750000Y2950000
X2950000Y2950000
X2850000Y2775000
X3200000Y2925000
X3400000Y2925000
X3600000Y2925000
X3800000Y2925000
X4000000Y2925000
X2100000Y2925000
X2000000Y2250000
X2200000Y2250000
X3315000Y975000
X2375000Y2225000
M30