G04 EAGLE Gerber RS-274X export*
G75*
%MOMM*%
%FSLAX35Y35*%
%LPD*%
%INsilk_bottom*%
%IPPOS*%
%AMOC8*
5,1,8,0,0,1.08239X$1,22.5*%
G01*
%ADD10C,0.010000*%
%ADD11C,0.050800*%
%ADD12C,0.127000*%
%ADD13C,0.101600*%
%ADD14C,0.300000*%
%ADD15C,0.152400*%


D10*
X-1150000Y0D02*
X-1149654Y28222D01*
X-1148615Y56428D01*
X-1146884Y84599D01*
X-1144462Y112720D01*
X-1141351Y140772D01*
X-1137553Y168740D01*
X-1133069Y196606D01*
X-1127903Y224354D01*
X-1122057Y251966D01*
X-1115536Y279427D01*
X-1108342Y306720D01*
X-1100481Y333827D01*
X-1091957Y360734D01*
X-1082776Y387423D01*
X-1072942Y413879D01*
X-1062461Y440086D01*
X-1051341Y466028D01*
X-1039588Y491688D01*
X-1027208Y517053D01*
X-1014209Y542106D01*
X-1000600Y566833D01*
X-986388Y591218D01*
X-971582Y615247D01*
X-956190Y638906D01*
X-940223Y662179D01*
X-923689Y685054D01*
X-906598Y707516D01*
X-888962Y729552D01*
X-870790Y751149D01*
X-852094Y772293D01*
X-832884Y792972D01*
X-813173Y813173D01*
X-792972Y832884D01*
X-772293Y852094D01*
X-751149Y870790D01*
X-729552Y888962D01*
X-707516Y906598D01*
X-685054Y923689D01*
X-662179Y940223D01*
X-638906Y956190D01*
X-615247Y971582D01*
X-591218Y986388D01*
X-566833Y1000600D01*
X-542106Y1014209D01*
X-517053Y1027208D01*
X-491688Y1039588D01*
X-466028Y1051341D01*
X-440086Y1062461D01*
X-413879Y1072942D01*
X-387423Y1082776D01*
X-360734Y1091957D01*
X-333827Y1100481D01*
X-306720Y1108342D01*
X-279427Y1115536D01*
X-251966Y1122057D01*
X-224354Y1127903D01*
X-196606Y1133069D01*
X-168740Y1137553D01*
X-140772Y1141351D01*
X-112720Y1144462D01*
X-84599Y1146884D01*
X-56428Y1148615D01*
X-28222Y1149654D01*
X0Y1150000D01*
X28222Y1149654D01*
X56428Y1148615D01*
X84599Y1146884D01*
X112720Y1144462D01*
X140772Y1141351D01*
X168740Y1137553D01*
X196606Y1133069D01*
X224354Y1127903D01*
X251966Y1122057D01*
X279427Y1115536D01*
X306720Y1108342D01*
X333827Y1100481D01*
X360734Y1091957D01*
X387423Y1082776D01*
X413879Y1072942D01*
X440086Y1062461D01*
X466028Y1051341D01*
X491688Y1039588D01*
X517053Y1027208D01*
X542106Y1014209D01*
X566833Y1000600D01*
X591218Y986388D01*
X615247Y971582D01*
X638906Y956190D01*
X662179Y940223D01*
X685054Y923689D01*
X707516Y906598D01*
X729552Y888962D01*
X751149Y870790D01*
X772293Y852094D01*
X792972Y832884D01*
X813173Y813173D01*
X832884Y792972D01*
X852094Y772293D01*
X870790Y751149D01*
X888962Y729552D01*
X906598Y707516D01*
X923689Y685054D01*
X940223Y662179D01*
X956190Y638906D01*
X971582Y615247D01*
X986388Y591218D01*
X1000600Y566833D01*
X1014209Y542106D01*
X1027208Y517053D01*
X1039588Y491688D01*
X1051341Y466028D01*
X1062461Y440086D01*
X1072942Y413879D01*
X1082776Y387423D01*
X1091957Y360734D01*
X1100481Y333827D01*
X1108342Y306720D01*
X1115536Y279427D01*
X1122057Y251966D01*
X1127903Y224354D01*
X1133069Y196606D01*
X1137553Y168740D01*
X1141351Y140772D01*
X1144462Y112720D01*
X1146884Y84599D01*
X1148615Y56428D01*
X1149654Y28222D01*
X1150000Y0D01*
X1149654Y-28222D01*
X1148615Y-56428D01*
X1146884Y-84599D01*
X1144462Y-112720D01*
X1141351Y-140772D01*
X1137553Y-168740D01*
X1133069Y-196606D01*
X1127903Y-224354D01*
X1122057Y-251966D01*
X1115536Y-279427D01*
X1108342Y-306720D01*
X1100481Y-333827D01*
X1091957Y-360734D01*
X1082776Y-387423D01*
X1072942Y-413879D01*
X1062461Y-440086D01*
X1051341Y-466028D01*
X1039588Y-491688D01*
X1027208Y-517053D01*
X1014209Y-542106D01*
X1000600Y-566833D01*
X986388Y-591218D01*
X971582Y-615247D01*
X956190Y-638906D01*
X940223Y-662179D01*
X923689Y-685054D01*
X906598Y-707516D01*
X888962Y-729552D01*
X870790Y-751149D01*
X852094Y-772293D01*
X832884Y-792972D01*
X813173Y-813173D01*
X792972Y-832884D01*
X772293Y-852094D01*
X751149Y-870790D01*
X729552Y-888962D01*
X707516Y-906598D01*
X685054Y-923689D01*
X662179Y-940223D01*
X638906Y-956190D01*
X615247Y-971582D01*
X591218Y-986388D01*
X566833Y-1000600D01*
X542106Y-1014209D01*
X517053Y-1027208D01*
X491688Y-1039588D01*
X466028Y-1051341D01*
X440086Y-1062461D01*
X413879Y-1072942D01*
X387423Y-1082776D01*
X360734Y-1091957D01*
X333827Y-1100481D01*
X306720Y-1108342D01*
X279427Y-1115536D01*
X251966Y-1122057D01*
X224354Y-1127903D01*
X196606Y-1133069D01*
X168740Y-1137553D01*
X140772Y-1141351D01*
X112720Y-1144462D01*
X84599Y-1146884D01*
X56428Y-1148615D01*
X28222Y-1149654D01*
X0Y-1150000D01*
X-28222Y-1149654D01*
X-56428Y-1148615D01*
X-84599Y-1146884D01*
X-112720Y-1144462D01*
X-140772Y-1141351D01*
X-168740Y-1137553D01*
X-196606Y-1133069D01*
X-224354Y-1127903D01*
X-251966Y-1122057D01*
X-279427Y-1115536D01*
X-306720Y-1108342D01*
X-333827Y-1100481D01*
X-360734Y-1091957D01*
X-387423Y-1082776D01*
X-413879Y-1072942D01*
X-440086Y-1062461D01*
X-466028Y-1051341D01*
X-491688Y-1039588D01*
X-517053Y-1027208D01*
X-542106Y-1014209D01*
X-566833Y-1000600D01*
X-591218Y-986388D01*
X-615247Y-971582D01*
X-638906Y-956190D01*
X-662179Y-940223D01*
X-685054Y-923689D01*
X-707516Y-906598D01*
X-729552Y-888962D01*
X-751149Y-870790D01*
X-772293Y-852094D01*
X-792972Y-832884D01*
X-813173Y-813173D01*
X-832884Y-792972D01*
X-852094Y-772293D01*
X-870790Y-751149D01*
X-888962Y-729552D01*
X-906598Y-707516D01*
X-923689Y-685054D01*
X-940223Y-662179D01*
X-956190Y-638906D01*
X-971582Y-615247D01*
X-986388Y-591218D01*
X-1000600Y-566833D01*
X-1014209Y-542106D01*
X-1027208Y-517053D01*
X-1039588Y-491688D01*
X-1051341Y-466028D01*
X-1062461Y-440086D01*
X-1072942Y-413879D01*
X-1082776Y-387423D01*
X-1091957Y-360734D01*
X-1100481Y-333827D01*
X-1108342Y-306720D01*
X-1115536Y-279427D01*
X-1122057Y-251966D01*
X-1127903Y-224354D01*
X-1133069Y-196606D01*
X-1137553Y-168740D01*
X-1141351Y-140772D01*
X-1144462Y-112720D01*
X-1146884Y-84599D01*
X-1148615Y-56428D01*
X-1149654Y-28222D01*
X-1150000Y0D01*
D11*
X891562Y515040D02*
X907100Y515040D01*
X907475Y515045D01*
X907851Y515058D01*
X908225Y515081D01*
X908600Y515113D01*
X908973Y515153D01*
X909345Y515203D01*
X909716Y515262D01*
X910085Y515329D01*
X910453Y515406D01*
X910818Y515492D01*
X911182Y515586D01*
X911543Y515689D01*
X911902Y515800D01*
X912257Y515921D01*
X912610Y516050D01*
X912959Y516187D01*
X913305Y516333D01*
X913648Y516487D01*
X913986Y516649D01*
X914321Y516820D01*
X914651Y516998D01*
X914977Y517185D01*
X915298Y517379D01*
X915615Y517581D01*
X915927Y517790D01*
X916233Y518007D01*
X916534Y518232D01*
X916830Y518463D01*
X917120Y518702D01*
X917404Y518948D01*
X917682Y519200D01*
X917953Y519459D01*
X918219Y519725D01*
X918478Y519996D01*
X918730Y520274D01*
X918976Y520558D01*
X919215Y520848D01*
X919446Y521144D01*
X919671Y521445D01*
X919888Y521751D01*
X920097Y522063D01*
X920299Y522380D01*
X920493Y522701D01*
X920680Y523027D01*
X920858Y523357D01*
X921029Y523692D01*
X921191Y524030D01*
X921345Y524373D01*
X921491Y524719D01*
X921628Y525068D01*
X921757Y525421D01*
X921878Y525776D01*
X921989Y526135D01*
X922092Y526496D01*
X922186Y526860D01*
X922272Y527225D01*
X922349Y527593D01*
X922416Y527962D01*
X922475Y528333D01*
X922525Y528705D01*
X922565Y529078D01*
X922597Y529453D01*
X922620Y529827D01*
X922633Y530203D01*
X922638Y530578D01*
X922638Y569422D01*
X922633Y569797D01*
X922620Y570173D01*
X922597Y570547D01*
X922565Y570922D01*
X922525Y571295D01*
X922475Y571667D01*
X922416Y572038D01*
X922349Y572407D01*
X922272Y572775D01*
X922186Y573140D01*
X922092Y573504D01*
X921989Y573865D01*
X921878Y574224D01*
X921757Y574579D01*
X921628Y574932D01*
X921491Y575281D01*
X921345Y575627D01*
X921191Y575970D01*
X921029Y576308D01*
X920858Y576643D01*
X920680Y576973D01*
X920493Y577299D01*
X920299Y577620D01*
X920097Y577937D01*
X919888Y578249D01*
X919671Y578555D01*
X919446Y578856D01*
X919215Y579152D01*
X918976Y579442D01*
X918730Y579726D01*
X918478Y580004D01*
X918219Y580275D01*
X917953Y580541D01*
X917682Y580800D01*
X917404Y581052D01*
X917120Y581298D01*
X916830Y581537D01*
X916534Y581768D01*
X916233Y581993D01*
X915927Y582210D01*
X915615Y582419D01*
X915298Y582621D01*
X914977Y582815D01*
X914651Y583002D01*
X914321Y583180D01*
X913986Y583351D01*
X913648Y583513D01*
X913305Y583667D01*
X912959Y583813D01*
X912610Y583950D01*
X912257Y584079D01*
X911902Y584200D01*
X911543Y584311D01*
X911182Y584414D01*
X910818Y584508D01*
X910453Y584594D01*
X910085Y584671D01*
X909716Y584738D01*
X909345Y584797D01*
X908973Y584847D01*
X908600Y584887D01*
X908225Y584919D01*
X907851Y584942D01*
X907475Y584955D01*
X907100Y584960D01*
X891562Y584960D01*
X866207Y553884D02*
X842900Y553884D01*
X842519Y553879D01*
X842138Y553865D01*
X841757Y553842D01*
X841377Y553809D01*
X840998Y553767D01*
X840620Y553716D01*
X840244Y553655D01*
X839869Y553585D01*
X839496Y553506D01*
X839125Y553418D01*
X838756Y553321D01*
X838390Y553215D01*
X838026Y553100D01*
X837665Y552976D01*
X837308Y552843D01*
X836954Y552701D01*
X836603Y552551D01*
X836257Y552392D01*
X835914Y552225D01*
X835576Y552049D01*
X835241Y551865D01*
X834912Y551673D01*
X834587Y551473D01*
X834268Y551265D01*
X833953Y551050D01*
X833644Y550826D01*
X833341Y550595D01*
X833043Y550357D01*
X832751Y550112D01*
X832465Y549859D01*
X832186Y549599D01*
X831913Y549333D01*
X831647Y549060D01*
X831387Y548781D01*
X831135Y548495D01*
X830889Y548203D01*
X830651Y547906D01*
X830420Y547602D01*
X830196Y547293D01*
X829981Y546979D01*
X829773Y546659D01*
X829573Y546334D01*
X829381Y546005D01*
X829197Y545671D01*
X829021Y545332D01*
X828854Y544990D01*
X828695Y544643D01*
X828545Y544292D01*
X828403Y543938D01*
X828270Y543581D01*
X828146Y543220D01*
X828031Y542857D01*
X827925Y542490D01*
X827828Y542122D01*
X827740Y541751D01*
X827661Y541378D01*
X827591Y541003D01*
X827530Y540626D01*
X827479Y540248D01*
X827437Y539869D01*
X827404Y539489D01*
X827381Y539109D01*
X827367Y538728D01*
X827362Y538346D01*
X827362Y538347D02*
X827362Y534462D01*
X827368Y533989D01*
X827385Y533516D01*
X827414Y533044D01*
X827454Y532573D01*
X827506Y532103D01*
X827569Y531634D01*
X827644Y531167D01*
X827729Y530702D01*
X827827Y530239D01*
X827935Y529779D01*
X828055Y529321D01*
X828185Y528867D01*
X828327Y528415D01*
X828480Y527968D01*
X828644Y527524D01*
X828818Y527084D01*
X829003Y526649D01*
X829198Y526218D01*
X829404Y525792D01*
X829621Y525372D01*
X829847Y524957D01*
X830084Y524547D01*
X830330Y524143D01*
X830586Y523746D01*
X830852Y523354D01*
X831127Y522970D01*
X831412Y522592D01*
X831705Y522221D01*
X832008Y521857D01*
X832319Y521501D01*
X832639Y521153D01*
X832967Y520812D01*
X833304Y520480D01*
X833648Y520156D01*
X834000Y519840D01*
X834360Y519533D01*
X834727Y519235D01*
X835102Y518946D01*
X835483Y518666D01*
X835871Y518396D01*
X836266Y518135D01*
X836666Y517884D01*
X837073Y517642D01*
X837485Y517411D01*
X837903Y517189D01*
X838327Y516978D01*
X838755Y516777D01*
X839188Y516587D01*
X839625Y516407D01*
X840067Y516238D01*
X840513Y516080D01*
X840962Y515933D01*
X841415Y515797D01*
X841872Y515672D01*
X842331Y515557D01*
X842792Y515455D01*
X843256Y515363D01*
X843722Y515283D01*
X844190Y515214D01*
X844660Y515157D01*
X845131Y515111D01*
X845602Y515076D01*
X846075Y515053D01*
X846548Y515041D01*
X847020Y515041D01*
X847493Y515053D01*
X847966Y515076D01*
X848437Y515111D01*
X848908Y515157D01*
X849378Y515214D01*
X849846Y515283D01*
X850312Y515363D01*
X850776Y515455D01*
X851237Y515557D01*
X851696Y515672D01*
X852153Y515797D01*
X852606Y515933D01*
X853055Y516080D01*
X853501Y516238D01*
X853943Y516407D01*
X854380Y516587D01*
X854813Y516777D01*
X855241Y516978D01*
X855665Y517189D01*
X856083Y517411D01*
X856495Y517642D01*
X856902Y517884D01*
X857302Y518135D01*
X857697Y518396D01*
X858085Y518666D01*
X858466Y518946D01*
X858841Y519235D01*
X859208Y519533D01*
X859568Y519840D01*
X859920Y520156D01*
X860264Y520480D01*
X860601Y520812D01*
X860929Y521153D01*
X861249Y521501D01*
X861560Y521857D01*
X861863Y522221D01*
X862156Y522592D01*
X862441Y522970D01*
X862716Y523354D01*
X862982Y523746D01*
X863238Y524143D01*
X863484Y524547D01*
X863721Y524957D01*
X863947Y525372D01*
X864164Y525792D01*
X864370Y526218D01*
X864565Y526649D01*
X864750Y527084D01*
X864924Y527524D01*
X865088Y527968D01*
X865241Y528415D01*
X865383Y528867D01*
X865513Y529321D01*
X865633Y529779D01*
X865741Y530239D01*
X865839Y530702D01*
X865924Y531167D01*
X865999Y531634D01*
X866062Y532103D01*
X866114Y532573D01*
X866154Y533044D01*
X866183Y533516D01*
X866200Y533989D01*
X866206Y534462D01*
X866207Y534462D02*
X866207Y553884D01*
X866198Y554647D01*
X866170Y555409D01*
X866123Y556170D01*
X866057Y556930D01*
X865973Y557688D01*
X865871Y558444D01*
X865749Y559197D01*
X865610Y559947D01*
X865452Y560693D01*
X865276Y561435D01*
X865081Y562172D01*
X864869Y562905D01*
X864639Y563632D01*
X864390Y564353D01*
X864125Y565068D01*
X863842Y565776D01*
X863541Y566477D01*
X863223Y567171D01*
X862889Y567856D01*
X862538Y568533D01*
X862170Y569201D01*
X861786Y569860D01*
X861386Y570509D01*
X860970Y571149D01*
X860538Y571778D01*
X860092Y572396D01*
X859630Y573003D01*
X859153Y573598D01*
X858662Y574182D01*
X858157Y574753D01*
X857638Y575312D01*
X857105Y575858D01*
X856559Y576390D01*
X856001Y576910D01*
X855429Y577415D01*
X854846Y577906D01*
X854250Y578382D01*
X853643Y578844D01*
X853025Y579291D01*
X852396Y579723D01*
X851757Y580138D01*
X851108Y580539D01*
X850449Y580923D01*
X849781Y581290D01*
X849104Y581642D01*
X848418Y581976D01*
X847725Y582294D01*
X847024Y582594D01*
X846316Y582878D01*
X845601Y583143D01*
X844879Y583391D01*
X844152Y583622D01*
X843420Y583834D01*
X842682Y584029D01*
X841940Y584205D01*
X841194Y584363D01*
X840444Y584502D01*
X839691Y584624D01*
X838936Y584726D01*
X838178Y584810D01*
X837418Y584876D01*
X836656Y584923D01*
X835894Y584951D01*
X835132Y584960D01*
X-390040Y-179297D02*
X-459960Y-179297D01*
X-390040Y-179297D02*
X-390040Y-159875D01*
X-390046Y-159406D01*
X-390063Y-158937D01*
X-390091Y-158468D01*
X-390131Y-158000D01*
X-390182Y-157534D01*
X-390244Y-157069D01*
X-390317Y-156605D01*
X-390402Y-156143D01*
X-390498Y-155684D01*
X-390604Y-155227D01*
X-390722Y-154772D01*
X-390851Y-154321D01*
X-390991Y-153873D01*
X-391141Y-153428D01*
X-391302Y-152988D01*
X-391474Y-152551D01*
X-391656Y-152118D01*
X-391849Y-151690D01*
X-392052Y-151267D01*
X-392265Y-150849D01*
X-392488Y-150436D01*
X-392721Y-150028D01*
X-392964Y-149627D01*
X-393216Y-149231D01*
X-393478Y-148841D01*
X-393749Y-148458D01*
X-394030Y-148082D01*
X-394319Y-147713D01*
X-394618Y-147350D01*
X-394925Y-146995D01*
X-395240Y-146648D01*
X-395564Y-146308D01*
X-395896Y-145976D01*
X-396236Y-145652D01*
X-396583Y-145337D01*
X-396938Y-145030D01*
X-397301Y-144731D01*
X-397670Y-144442D01*
X-398046Y-144161D01*
X-398429Y-143890D01*
X-398819Y-143628D01*
X-399215Y-143376D01*
X-399616Y-143133D01*
X-400024Y-142900D01*
X-400437Y-142677D01*
X-400855Y-142464D01*
X-401278Y-142261D01*
X-401706Y-142068D01*
X-402139Y-141886D01*
X-402576Y-141714D01*
X-403016Y-141553D01*
X-403461Y-141403D01*
X-403909Y-141263D01*
X-404360Y-141134D01*
X-404815Y-141016D01*
X-405272Y-140910D01*
X-405731Y-140814D01*
X-406193Y-140729D01*
X-406657Y-140656D01*
X-407122Y-140594D01*
X-407588Y-140543D01*
X-408056Y-140503D01*
X-408525Y-140475D01*
X-408994Y-140458D01*
X-409463Y-140452D01*
X-409463Y-140453D02*
X-440538Y-140453D01*
X-441007Y-140459D01*
X-441476Y-140476D01*
X-441945Y-140504D01*
X-442413Y-140544D01*
X-442879Y-140595D01*
X-443344Y-140657D01*
X-443808Y-140730D01*
X-444270Y-140815D01*
X-444729Y-140911D01*
X-445186Y-141017D01*
X-445640Y-141135D01*
X-446092Y-141264D01*
X-446540Y-141404D01*
X-446984Y-141554D01*
X-447425Y-141715D01*
X-447862Y-141887D01*
X-448295Y-142069D01*
X-448723Y-142262D01*
X-449146Y-142465D01*
X-449564Y-142678D01*
X-449977Y-142901D01*
X-450384Y-143134D01*
X-450786Y-143377D01*
X-451182Y-143629D01*
X-451571Y-143891D01*
X-451954Y-144162D01*
X-452330Y-144443D01*
X-452700Y-144732D01*
X-453062Y-145031D01*
X-453417Y-145338D01*
X-453765Y-145653D01*
X-454105Y-145977D01*
X-454436Y-146309D01*
X-454760Y-146648D01*
X-455076Y-146996D01*
X-455383Y-147351D01*
X-455681Y-147713D01*
X-455970Y-148083D01*
X-456251Y-148459D01*
X-456522Y-148842D01*
X-456784Y-149232D01*
X-457036Y-149627D01*
X-457279Y-150029D01*
X-457512Y-150436D01*
X-457735Y-150849D01*
X-457949Y-151268D01*
X-458151Y-151691D01*
X-458344Y-152119D01*
X-458526Y-152551D01*
X-458698Y-152988D01*
X-458859Y-153429D01*
X-459009Y-153874D01*
X-459149Y-154322D01*
X-459278Y-154773D01*
X-459396Y-155227D01*
X-459502Y-155684D01*
X-459598Y-156144D01*
X-459683Y-156605D01*
X-459756Y-157069D01*
X-459818Y-157534D01*
X-459869Y-158001D01*
X-459909Y-158468D01*
X-459937Y-158937D01*
X-459954Y-159406D01*
X-459960Y-159875D01*
X-459960Y-179297D01*
X-405578Y-109547D02*
X-390040Y-90125D01*
X-459960Y-90125D01*
X-459960Y-109547D02*
X-459960Y-70703D01*
D12*
X70000Y-75000D02*
X70000Y85000D01*
X430000Y85000D02*
X430000Y-75000D01*
D11*
X34960Y-60952D02*
X-34960Y-60952D01*
X-34960Y-68721D02*
X-34960Y-53183D01*
X34960Y-53183D02*
X34960Y-68721D01*
X-34960Y-11018D02*
X-34960Y4520D01*
X-34961Y-11018D02*
X-34956Y-11393D01*
X-34943Y-11769D01*
X-34920Y-12143D01*
X-34888Y-12518D01*
X-34848Y-12891D01*
X-34798Y-13263D01*
X-34739Y-13634D01*
X-34672Y-14003D01*
X-34595Y-14371D01*
X-34509Y-14736D01*
X-34415Y-15100D01*
X-34312Y-15461D01*
X-34201Y-15820D01*
X-34080Y-16175D01*
X-33951Y-16528D01*
X-33814Y-16877D01*
X-33668Y-17223D01*
X-33514Y-17566D01*
X-33352Y-17904D01*
X-33181Y-18239D01*
X-33003Y-18569D01*
X-32816Y-18895D01*
X-32622Y-19216D01*
X-32420Y-19533D01*
X-32211Y-19845D01*
X-31994Y-20151D01*
X-31769Y-20452D01*
X-31538Y-20748D01*
X-31299Y-21038D01*
X-31053Y-21322D01*
X-30801Y-21600D01*
X-30542Y-21871D01*
X-30276Y-22137D01*
X-30005Y-22396D01*
X-29727Y-22648D01*
X-29443Y-22894D01*
X-29153Y-23133D01*
X-28857Y-23364D01*
X-28556Y-23589D01*
X-28250Y-23806D01*
X-27938Y-24015D01*
X-27621Y-24217D01*
X-27300Y-24411D01*
X-26974Y-24598D01*
X-26644Y-24776D01*
X-26309Y-24947D01*
X-25971Y-25109D01*
X-25628Y-25263D01*
X-25282Y-25409D01*
X-24933Y-25546D01*
X-24580Y-25675D01*
X-24225Y-25796D01*
X-23866Y-25907D01*
X-23505Y-26010D01*
X-23141Y-26104D01*
X-22776Y-26190D01*
X-22408Y-26267D01*
X-22039Y-26334D01*
X-21668Y-26393D01*
X-21296Y-26443D01*
X-20923Y-26483D01*
X-20548Y-26515D01*
X-20174Y-26538D01*
X-19798Y-26551D01*
X-19423Y-26556D01*
X-19423Y-26555D02*
X19422Y-26555D01*
X19803Y-26550D01*
X20184Y-26536D01*
X20565Y-26513D01*
X20945Y-26480D01*
X21324Y-26438D01*
X21702Y-26387D01*
X22078Y-26326D01*
X22453Y-26256D01*
X22826Y-26177D01*
X23197Y-26089D01*
X23566Y-25992D01*
X23932Y-25886D01*
X24296Y-25771D01*
X24657Y-25647D01*
X25014Y-25514D01*
X25368Y-25372D01*
X25719Y-25222D01*
X26065Y-25063D01*
X26408Y-24896D01*
X26746Y-24720D01*
X27081Y-24536D01*
X27410Y-24344D01*
X27735Y-24144D01*
X28054Y-23936D01*
X28369Y-23721D01*
X28678Y-23497D01*
X28981Y-23266D01*
X29279Y-23028D01*
X29571Y-22783D01*
X29857Y-22530D01*
X30136Y-22270D01*
X30409Y-22004D01*
X30675Y-21731D01*
X30935Y-21452D01*
X31187Y-21166D01*
X31433Y-20874D01*
X31671Y-20577D01*
X31902Y-20273D01*
X32126Y-19964D01*
X32341Y-19650D01*
X32549Y-19330D01*
X32749Y-19005D01*
X32941Y-18676D01*
X33125Y-18342D01*
X33301Y-18003D01*
X33468Y-17661D01*
X33627Y-17314D01*
X33777Y-16963D01*
X33919Y-16609D01*
X34052Y-16252D01*
X34176Y-15891D01*
X34291Y-15528D01*
X34397Y-15161D01*
X34494Y-14793D01*
X34582Y-14422D01*
X34661Y-14049D01*
X34731Y-13674D01*
X34792Y-13297D01*
X34843Y-12919D01*
X34885Y-12540D01*
X34918Y-12160D01*
X34941Y-11780D01*
X34955Y-11399D01*
X34960Y-11017D01*
X34960Y-11018D02*
X34960Y4520D01*
X34960Y51240D02*
X34955Y51662D01*
X34940Y52085D01*
X34914Y52506D01*
X34878Y52927D01*
X34833Y53347D01*
X34777Y53766D01*
X34710Y54183D01*
X34634Y54598D01*
X34548Y55012D01*
X34452Y55423D01*
X34346Y55832D01*
X34230Y56238D01*
X34104Y56642D01*
X33969Y57042D01*
X33824Y57438D01*
X33670Y57832D01*
X33506Y58221D01*
X33332Y58606D01*
X33150Y58987D01*
X32958Y59363D01*
X32757Y59735D01*
X32547Y60102D01*
X32329Y60463D01*
X32101Y60819D01*
X31866Y61170D01*
X31622Y61514D01*
X31369Y61853D01*
X31109Y62186D01*
X30840Y62512D01*
X30564Y62831D01*
X30280Y63144D01*
X29989Y63450D01*
X29690Y63749D01*
X29384Y64040D01*
X29071Y64324D01*
X28752Y64600D01*
X28426Y64869D01*
X28093Y65129D01*
X27754Y65382D01*
X27410Y65626D01*
X27059Y65861D01*
X26703Y66089D01*
X26342Y66307D01*
X25975Y66517D01*
X25603Y66718D01*
X25227Y66910D01*
X24846Y67092D01*
X24461Y67266D01*
X24072Y67430D01*
X23678Y67584D01*
X23282Y67729D01*
X22882Y67864D01*
X22478Y67990D01*
X22072Y68106D01*
X21663Y68212D01*
X21252Y68308D01*
X20838Y68394D01*
X20423Y68470D01*
X20006Y68537D01*
X19587Y68593D01*
X19167Y68638D01*
X18746Y68674D01*
X18325Y68700D01*
X17902Y68715D01*
X17480Y68720D01*
X34960Y51240D02*
X34953Y50697D01*
X34934Y50154D01*
X34901Y49612D01*
X34855Y49071D01*
X34796Y48531D01*
X34724Y47993D01*
X34639Y47456D01*
X34541Y46922D01*
X34430Y46390D01*
X34306Y45862D01*
X34170Y45336D01*
X34021Y44814D01*
X33859Y44295D01*
X33685Y43781D01*
X33498Y43271D01*
X33300Y42765D01*
X33089Y42265D01*
X32866Y41770D01*
X32631Y41280D01*
X32384Y40796D01*
X32125Y40319D01*
X31856Y39847D01*
X31574Y39383D01*
X31282Y38925D01*
X30979Y38474D01*
X30665Y38031D01*
X30340Y37596D01*
X30005Y37169D01*
X29659Y36750D01*
X29304Y36339D01*
X28939Y35937D01*
X28564Y35544D01*
X28180Y35160D01*
X27786Y34786D01*
X27384Y34421D01*
X26973Y34066D01*
X26553Y33721D01*
X26126Y33387D01*
X25690Y33062D01*
X25246Y32749D01*
X24796Y32446D01*
X24337Y32154D01*
X23872Y31874D01*
X23401Y31604D01*
X22923Y31347D01*
X22439Y31101D01*
X21949Y30866D01*
X21453Y30644D01*
X20953Y30433D01*
X20447Y30235D01*
X19937Y30049D01*
X19422Y29875D01*
X3885Y62893D02*
X4206Y63223D01*
X4536Y63545D01*
X4874Y63858D01*
X5219Y64163D01*
X5572Y64460D01*
X5931Y64748D01*
X6298Y65027D01*
X6671Y65296D01*
X7051Y65557D01*
X7437Y65808D01*
X7830Y66050D01*
X8228Y66282D01*
X8631Y66504D01*
X9040Y66716D01*
X9454Y66918D01*
X9873Y67110D01*
X10297Y67291D01*
X10724Y67462D01*
X11156Y67623D01*
X11592Y67773D01*
X12031Y67912D01*
X12474Y68040D01*
X12919Y68158D01*
X13367Y68264D01*
X13818Y68359D01*
X14271Y68444D01*
X14726Y68517D01*
X15182Y68579D01*
X15640Y68630D01*
X16099Y68669D01*
X16559Y68697D01*
X17019Y68714D01*
X17480Y68720D01*
X3884Y62893D02*
X-34960Y29876D01*
X-34960Y68720D01*
D13*
X-850000Y25000D02*
X-900000Y25000D01*
X-900000Y75000D01*
X-900000Y425000D02*
X-850000Y425000D01*
X-900000Y425000D02*
X-900000Y375000D01*
X-550000Y425000D02*
X-500000Y425000D01*
X-500000Y375000D01*
X-500000Y25000D02*
X-550000Y25000D01*
X-500000Y25000D02*
X-500000Y75000D01*
D14*
X-960000Y-25000D02*
X-959997Y-24755D01*
X-959988Y-24509D01*
X-959973Y-24264D01*
X-959952Y-24020D01*
X-959925Y-23776D01*
X-959892Y-23533D01*
X-959853Y-23290D01*
X-959808Y-23049D01*
X-959757Y-22809D01*
X-959700Y-22570D01*
X-959638Y-22333D01*
X-959569Y-22097D01*
X-959495Y-21863D01*
X-959415Y-21631D01*
X-959330Y-21401D01*
X-959239Y-21173D01*
X-959142Y-20948D01*
X-959040Y-20724D01*
X-958932Y-20504D01*
X-958819Y-20286D01*
X-958701Y-20071D01*
X-958577Y-19859D01*
X-958449Y-19650D01*
X-958315Y-19444D01*
X-958176Y-19242D01*
X-958032Y-19043D01*
X-957883Y-18848D01*
X-957730Y-18656D01*
X-957572Y-18468D01*
X-957410Y-18284D01*
X-957242Y-18105D01*
X-957071Y-17929D01*
X-956895Y-17758D01*
X-956716Y-17590D01*
X-956532Y-17428D01*
X-956344Y-17270D01*
X-956152Y-17117D01*
X-955957Y-16968D01*
X-955758Y-16824D01*
X-955556Y-16685D01*
X-955350Y-16551D01*
X-955141Y-16423D01*
X-954929Y-16299D01*
X-954714Y-16181D01*
X-954496Y-16068D01*
X-954276Y-15960D01*
X-954052Y-15858D01*
X-953827Y-15761D01*
X-953599Y-15670D01*
X-953369Y-15585D01*
X-953137Y-15505D01*
X-952903Y-15431D01*
X-952667Y-15362D01*
X-952430Y-15300D01*
X-952191Y-15243D01*
X-951951Y-15192D01*
X-951710Y-15147D01*
X-951467Y-15108D01*
X-951224Y-15075D01*
X-950980Y-15048D01*
X-950736Y-15027D01*
X-950491Y-15012D01*
X-950245Y-15003D01*
X-950000Y-15000D01*
X-949755Y-15003D01*
X-949509Y-15012D01*
X-949264Y-15027D01*
X-949020Y-15048D01*
X-948776Y-15075D01*
X-948533Y-15108D01*
X-948290Y-15147D01*
X-948049Y-15192D01*
X-947809Y-15243D01*
X-947570Y-15300D01*
X-947333Y-15362D01*
X-947097Y-15431D01*
X-946863Y-15505D01*
X-946631Y-15585D01*
X-946401Y-15670D01*
X-946173Y-15761D01*
X-945948Y-15858D01*
X-945724Y-15960D01*
X-945504Y-16068D01*
X-945286Y-16181D01*
X-945071Y-16299D01*
X-944859Y-16423D01*
X-944650Y-16551D01*
X-944444Y-16685D01*
X-944242Y-16824D01*
X-944043Y-16968D01*
X-943848Y-17117D01*
X-943656Y-17270D01*
X-943468Y-17428D01*
X-943284Y-17590D01*
X-943105Y-17758D01*
X-942929Y-17929D01*
X-942758Y-18105D01*
X-942590Y-18284D01*
X-942428Y-18468D01*
X-942270Y-18656D01*
X-942117Y-18848D01*
X-941968Y-19043D01*
X-941824Y-19242D01*
X-941685Y-19444D01*
X-941551Y-19650D01*
X-941423Y-19859D01*
X-941299Y-20071D01*
X-941181Y-20286D01*
X-941068Y-20504D01*
X-940960Y-20724D01*
X-940858Y-20948D01*
X-940761Y-21173D01*
X-940670Y-21401D01*
X-940585Y-21631D01*
X-940505Y-21863D01*
X-940431Y-22097D01*
X-940362Y-22333D01*
X-940300Y-22570D01*
X-940243Y-22809D01*
X-940192Y-23049D01*
X-940147Y-23290D01*
X-940108Y-23533D01*
X-940075Y-23776D01*
X-940048Y-24020D01*
X-940027Y-24264D01*
X-940012Y-24509D01*
X-940003Y-24755D01*
X-940000Y-25000D01*
X-940003Y-25245D01*
X-940012Y-25491D01*
X-940027Y-25736D01*
X-940048Y-25980D01*
X-940075Y-26224D01*
X-940108Y-26467D01*
X-940147Y-26710D01*
X-940192Y-26951D01*
X-940243Y-27191D01*
X-940300Y-27430D01*
X-940362Y-27667D01*
X-940431Y-27903D01*
X-940505Y-28137D01*
X-940585Y-28369D01*
X-940670Y-28599D01*
X-940761Y-28827D01*
X-940858Y-29052D01*
X-940960Y-29276D01*
X-941068Y-29496D01*
X-941181Y-29714D01*
X-941299Y-29929D01*
X-941423Y-30141D01*
X-941551Y-30350D01*
X-941685Y-30556D01*
X-941824Y-30758D01*
X-941968Y-30957D01*
X-942117Y-31152D01*
X-942270Y-31344D01*
X-942428Y-31532D01*
X-942590Y-31716D01*
X-942758Y-31895D01*
X-942929Y-32071D01*
X-943105Y-32242D01*
X-943284Y-32410D01*
X-943468Y-32572D01*
X-943656Y-32730D01*
X-943848Y-32883D01*
X-944043Y-33032D01*
X-944242Y-33176D01*
X-944444Y-33315D01*
X-944650Y-33449D01*
X-944859Y-33577D01*
X-945071Y-33701D01*
X-945286Y-33819D01*
X-945504Y-33932D01*
X-945724Y-34040D01*
X-945948Y-34142D01*
X-946173Y-34239D01*
X-946401Y-34330D01*
X-946631Y-34415D01*
X-946863Y-34495D01*
X-947097Y-34569D01*
X-947333Y-34638D01*
X-947570Y-34700D01*
X-947809Y-34757D01*
X-948049Y-34808D01*
X-948290Y-34853D01*
X-948533Y-34892D01*
X-948776Y-34925D01*
X-949020Y-34952D01*
X-949264Y-34973D01*
X-949509Y-34988D01*
X-949755Y-34997D01*
X-950000Y-35000D01*
X-950245Y-34997D01*
X-950491Y-34988D01*
X-950736Y-34973D01*
X-950980Y-34952D01*
X-951224Y-34925D01*
X-951467Y-34892D01*
X-951710Y-34853D01*
X-951951Y-34808D01*
X-952191Y-34757D01*
X-952430Y-34700D01*
X-952667Y-34638D01*
X-952903Y-34569D01*
X-953137Y-34495D01*
X-953369Y-34415D01*
X-953599Y-34330D01*
X-953827Y-34239D01*
X-954052Y-34142D01*
X-954276Y-34040D01*
X-954496Y-33932D01*
X-954714Y-33819D01*
X-954929Y-33701D01*
X-955141Y-33577D01*
X-955350Y-33449D01*
X-955556Y-33315D01*
X-955758Y-33176D01*
X-955957Y-33032D01*
X-956152Y-32883D01*
X-956344Y-32730D01*
X-956532Y-32572D01*
X-956716Y-32410D01*
X-956895Y-32242D01*
X-957071Y-32071D01*
X-957242Y-31895D01*
X-957410Y-31716D01*
X-957572Y-31532D01*
X-957730Y-31344D01*
X-957883Y-31152D01*
X-958032Y-30957D01*
X-958176Y-30758D01*
X-958315Y-30556D01*
X-958449Y-30350D01*
X-958577Y-30141D01*
X-958701Y-29929D01*
X-958819Y-29714D01*
X-958932Y-29496D01*
X-959040Y-29276D01*
X-959142Y-29052D01*
X-959239Y-28827D01*
X-959330Y-28599D01*
X-959415Y-28369D01*
X-959495Y-28137D01*
X-959569Y-27903D01*
X-959638Y-27667D01*
X-959700Y-27430D01*
X-959757Y-27191D01*
X-959808Y-26951D01*
X-959853Y-26710D01*
X-959892Y-26467D01*
X-959925Y-26224D01*
X-959952Y-25980D01*
X-959973Y-25736D01*
X-959988Y-25491D01*
X-959997Y-25245D01*
X-960000Y-25000D01*
D11*
X-965040Y164048D02*
X-1034960Y164048D01*
X-1034960Y156280D02*
X-1034960Y171817D01*
X-965040Y171817D02*
X-965040Y156280D01*
X-1034960Y213983D02*
X-1034960Y229521D01*
X-1034961Y213983D02*
X-1034956Y213608D01*
X-1034943Y213232D01*
X-1034920Y212858D01*
X-1034888Y212483D01*
X-1034848Y212110D01*
X-1034798Y211738D01*
X-1034739Y211367D01*
X-1034672Y210998D01*
X-1034595Y210630D01*
X-1034509Y210265D01*
X-1034415Y209901D01*
X-1034312Y209540D01*
X-1034201Y209181D01*
X-1034080Y208826D01*
X-1033951Y208473D01*
X-1033814Y208124D01*
X-1033668Y207778D01*
X-1033514Y207435D01*
X-1033352Y207097D01*
X-1033181Y206762D01*
X-1033003Y206432D01*
X-1032816Y206106D01*
X-1032622Y205785D01*
X-1032420Y205468D01*
X-1032211Y205156D01*
X-1031994Y204850D01*
X-1031769Y204549D01*
X-1031538Y204253D01*
X-1031299Y203963D01*
X-1031053Y203679D01*
X-1030801Y203401D01*
X-1030542Y203130D01*
X-1030276Y202864D01*
X-1030005Y202605D01*
X-1029727Y202353D01*
X-1029443Y202107D01*
X-1029153Y201868D01*
X-1028857Y201637D01*
X-1028556Y201412D01*
X-1028250Y201195D01*
X-1027938Y200986D01*
X-1027621Y200784D01*
X-1027300Y200590D01*
X-1026974Y200403D01*
X-1026644Y200225D01*
X-1026309Y200054D01*
X-1025971Y199892D01*
X-1025628Y199738D01*
X-1025282Y199592D01*
X-1024933Y199455D01*
X-1024580Y199326D01*
X-1024225Y199205D01*
X-1023866Y199094D01*
X-1023505Y198991D01*
X-1023141Y198897D01*
X-1022776Y198811D01*
X-1022408Y198734D01*
X-1022039Y198667D01*
X-1021668Y198608D01*
X-1021296Y198558D01*
X-1020923Y198518D01*
X-1020548Y198486D01*
X-1020174Y198463D01*
X-1019798Y198450D01*
X-1019423Y198445D01*
X-980578Y198445D01*
X-980197Y198450D01*
X-979816Y198464D01*
X-979435Y198487D01*
X-979055Y198520D01*
X-978676Y198562D01*
X-978298Y198613D01*
X-977922Y198674D01*
X-977547Y198744D01*
X-977174Y198823D01*
X-976803Y198911D01*
X-976434Y199008D01*
X-976068Y199114D01*
X-975704Y199229D01*
X-975344Y199353D01*
X-974986Y199486D01*
X-974632Y199628D01*
X-974282Y199778D01*
X-973935Y199937D01*
X-973592Y200104D01*
X-973254Y200280D01*
X-972920Y200463D01*
X-972590Y200656D01*
X-972265Y200856D01*
X-971946Y201063D01*
X-971631Y201279D01*
X-971322Y201503D01*
X-971019Y201734D01*
X-970721Y201972D01*
X-970429Y202217D01*
X-970144Y202470D01*
X-969864Y202729D01*
X-969591Y202996D01*
X-969325Y203269D01*
X-969065Y203548D01*
X-968813Y203834D01*
X-968567Y204126D01*
X-968329Y204423D01*
X-968098Y204727D01*
X-967875Y205036D01*
X-967659Y205350D01*
X-967451Y205670D01*
X-967251Y205995D01*
X-967059Y206324D01*
X-966875Y206658D01*
X-966699Y206997D01*
X-966532Y207339D01*
X-966373Y207686D01*
X-966223Y208036D01*
X-966081Y208391D01*
X-965948Y208748D01*
X-965824Y209109D01*
X-965709Y209472D01*
X-965603Y209838D01*
X-965506Y210207D01*
X-965418Y210578D01*
X-965339Y210951D01*
X-965269Y211326D01*
X-965208Y211703D01*
X-965157Y212080D01*
X-965115Y212459D01*
X-965082Y212839D01*
X-965059Y213220D01*
X-965045Y213601D01*
X-965040Y213982D01*
X-965040Y213983D02*
X-965040Y229521D01*
X-1034960Y254876D02*
X-1034960Y274298D01*
X-1034954Y274771D01*
X-1034937Y275244D01*
X-1034908Y275716D01*
X-1034868Y276187D01*
X-1034816Y276657D01*
X-1034753Y277126D01*
X-1034678Y277593D01*
X-1034593Y278058D01*
X-1034495Y278521D01*
X-1034387Y278981D01*
X-1034267Y279439D01*
X-1034137Y279893D01*
X-1033995Y280345D01*
X-1033842Y280792D01*
X-1033678Y281236D01*
X-1033504Y281676D01*
X-1033319Y282111D01*
X-1033124Y282542D01*
X-1032918Y282968D01*
X-1032701Y283388D01*
X-1032475Y283803D01*
X-1032238Y284213D01*
X-1031992Y284617D01*
X-1031736Y285014D01*
X-1031470Y285406D01*
X-1031195Y285790D01*
X-1030910Y286168D01*
X-1030617Y286539D01*
X-1030314Y286903D01*
X-1030003Y287259D01*
X-1029683Y287607D01*
X-1029355Y287948D01*
X-1029018Y288280D01*
X-1028674Y288604D01*
X-1028322Y288920D01*
X-1027962Y289227D01*
X-1027595Y289525D01*
X-1027220Y289814D01*
X-1026839Y290094D01*
X-1026451Y290364D01*
X-1026056Y290625D01*
X-1025656Y290876D01*
X-1025249Y291118D01*
X-1024837Y291349D01*
X-1024419Y291571D01*
X-1023995Y291782D01*
X-1023567Y291983D01*
X-1023134Y292173D01*
X-1022697Y292353D01*
X-1022255Y292522D01*
X-1021809Y292680D01*
X-1021360Y292827D01*
X-1020907Y292963D01*
X-1020450Y293088D01*
X-1019991Y293203D01*
X-1019530Y293305D01*
X-1019066Y293397D01*
X-1018600Y293477D01*
X-1018132Y293546D01*
X-1017662Y293603D01*
X-1017191Y293649D01*
X-1016720Y293684D01*
X-1016247Y293707D01*
X-1015774Y293719D01*
X-1015302Y293719D01*
X-1014829Y293707D01*
X-1014356Y293684D01*
X-1013885Y293649D01*
X-1013414Y293603D01*
X-1012944Y293546D01*
X-1012476Y293477D01*
X-1012010Y293397D01*
X-1011546Y293305D01*
X-1011085Y293203D01*
X-1010626Y293088D01*
X-1010169Y292963D01*
X-1009716Y292827D01*
X-1009267Y292680D01*
X-1008821Y292522D01*
X-1008379Y292353D01*
X-1007942Y292173D01*
X-1007509Y291983D01*
X-1007081Y291782D01*
X-1006657Y291571D01*
X-1006239Y291349D01*
X-1005827Y291118D01*
X-1005420Y290876D01*
X-1005020Y290625D01*
X-1004625Y290364D01*
X-1004237Y290094D01*
X-1003856Y289814D01*
X-1003481Y289525D01*
X-1003114Y289227D01*
X-1002754Y288920D01*
X-1002402Y288604D01*
X-1002058Y288280D01*
X-1001721Y287948D01*
X-1001393Y287607D01*
X-1001073Y287259D01*
X-1000762Y286903D01*
X-1000459Y286539D01*
X-1000166Y286168D01*
X-999881Y285790D01*
X-999606Y285406D01*
X-999340Y285014D01*
X-999084Y284617D01*
X-998838Y284213D01*
X-998601Y283803D01*
X-998375Y283388D01*
X-998158Y282968D01*
X-997952Y282542D01*
X-997757Y282111D01*
X-997572Y281676D01*
X-997398Y281236D01*
X-997234Y280792D01*
X-997081Y280345D01*
X-996939Y279893D01*
X-996809Y279439D01*
X-996689Y278981D01*
X-996581Y278521D01*
X-996483Y278058D01*
X-996398Y277593D01*
X-996323Y277126D01*
X-996260Y276657D01*
X-996208Y276187D01*
X-996168Y275716D01*
X-996139Y275244D01*
X-996122Y274771D01*
X-996116Y274298D01*
X-965040Y278183D02*
X-965040Y254876D01*
X-965040Y278183D02*
X-965045Y278561D01*
X-965058Y278940D01*
X-965081Y279317D01*
X-965114Y279694D01*
X-965155Y280070D01*
X-965206Y280445D01*
X-965265Y280819D01*
X-965334Y281191D01*
X-965412Y281561D01*
X-965498Y281930D01*
X-965594Y282296D01*
X-965699Y282659D01*
X-965812Y283020D01*
X-965934Y283379D01*
X-966065Y283734D01*
X-966205Y284085D01*
X-966353Y284434D01*
X-966509Y284778D01*
X-966674Y285119D01*
X-966847Y285455D01*
X-967028Y285788D01*
X-967217Y286115D01*
X-967414Y286438D01*
X-967619Y286756D01*
X-967832Y287069D01*
X-968052Y287377D01*
X-968280Y287679D01*
X-968515Y287976D01*
X-968757Y288267D01*
X-969006Y288552D01*
X-969262Y288831D01*
X-969524Y289103D01*
X-969793Y289369D01*
X-970069Y289628D01*
X-970351Y289881D01*
X-970639Y290126D01*
X-970933Y290365D01*
X-971232Y290596D01*
X-971537Y290820D01*
X-971847Y291036D01*
X-972163Y291245D01*
X-972484Y291446D01*
X-972809Y291639D01*
X-973139Y291824D01*
X-973473Y292002D01*
X-973812Y292171D01*
X-974155Y292331D01*
X-974501Y292483D01*
X-974851Y292627D01*
X-975204Y292762D01*
X-975561Y292889D01*
X-975921Y293007D01*
X-976283Y293116D01*
X-976648Y293216D01*
X-977015Y293307D01*
X-977384Y293389D01*
X-977756Y293463D01*
X-978129Y293527D01*
X-978503Y293582D01*
X-978879Y293628D01*
X-979255Y293665D01*
X-979633Y293692D01*
X-980011Y293711D01*
X-980389Y293720D01*
X-980767Y293720D01*
X-981145Y293711D01*
X-981523Y293692D01*
X-981901Y293665D01*
X-982277Y293628D01*
X-982653Y293582D01*
X-983027Y293527D01*
X-983400Y293463D01*
X-983772Y293389D01*
X-984141Y293307D01*
X-984508Y293216D01*
X-984873Y293116D01*
X-985235Y293007D01*
X-985595Y292889D01*
X-985952Y292762D01*
X-986305Y292627D01*
X-986655Y292483D01*
X-987001Y292331D01*
X-987344Y292171D01*
X-987683Y292002D01*
X-988017Y291824D01*
X-988347Y291639D01*
X-988672Y291446D01*
X-988993Y291245D01*
X-989309Y291036D01*
X-989619Y290820D01*
X-989924Y290596D01*
X-990223Y290365D01*
X-990517Y290126D01*
X-990805Y289881D01*
X-991087Y289628D01*
X-991363Y289369D01*
X-991632Y289103D01*
X-991894Y288831D01*
X-992150Y288552D01*
X-992399Y288267D01*
X-992641Y287976D01*
X-992876Y287679D01*
X-993104Y287377D01*
X-993324Y287069D01*
X-993537Y286756D01*
X-993742Y286438D01*
X-993939Y286115D01*
X-994128Y285788D01*
X-994309Y285455D01*
X-994482Y285119D01*
X-994647Y284778D01*
X-994803Y284434D01*
X-994951Y284085D01*
X-995091Y283734D01*
X-995222Y283379D01*
X-995344Y283020D01*
X-995457Y282659D01*
X-995562Y282296D01*
X-995658Y281930D01*
X-995744Y281561D01*
X-995822Y281191D01*
X-995891Y280819D01*
X-995950Y280445D01*
X-996001Y280070D01*
X-996042Y279694D01*
X-996075Y279317D01*
X-996098Y278940D01*
X-996111Y278561D01*
X-996116Y278183D01*
X-996116Y262645D01*
D13*
X-550000Y-275000D02*
X-550000Y-575000D01*
X-850000Y-575000D02*
X-850000Y-275000D01*
D14*
X-885000Y-250000D02*
X-884997Y-249755D01*
X-884988Y-249509D01*
X-884973Y-249264D01*
X-884952Y-249020D01*
X-884925Y-248776D01*
X-884892Y-248533D01*
X-884853Y-248290D01*
X-884808Y-248049D01*
X-884757Y-247809D01*
X-884700Y-247570D01*
X-884638Y-247333D01*
X-884569Y-247097D01*
X-884495Y-246863D01*
X-884415Y-246631D01*
X-884330Y-246401D01*
X-884239Y-246173D01*
X-884142Y-245948D01*
X-884040Y-245724D01*
X-883932Y-245504D01*
X-883819Y-245286D01*
X-883701Y-245071D01*
X-883577Y-244859D01*
X-883449Y-244650D01*
X-883315Y-244444D01*
X-883176Y-244242D01*
X-883032Y-244043D01*
X-882883Y-243848D01*
X-882730Y-243656D01*
X-882572Y-243468D01*
X-882410Y-243284D01*
X-882242Y-243105D01*
X-882071Y-242929D01*
X-881895Y-242758D01*
X-881716Y-242590D01*
X-881532Y-242428D01*
X-881344Y-242270D01*
X-881152Y-242117D01*
X-880957Y-241968D01*
X-880758Y-241824D01*
X-880556Y-241685D01*
X-880350Y-241551D01*
X-880141Y-241423D01*
X-879929Y-241299D01*
X-879714Y-241181D01*
X-879496Y-241068D01*
X-879276Y-240960D01*
X-879052Y-240858D01*
X-878827Y-240761D01*
X-878599Y-240670D01*
X-878369Y-240585D01*
X-878137Y-240505D01*
X-877903Y-240431D01*
X-877667Y-240362D01*
X-877430Y-240300D01*
X-877191Y-240243D01*
X-876951Y-240192D01*
X-876710Y-240147D01*
X-876467Y-240108D01*
X-876224Y-240075D01*
X-875980Y-240048D01*
X-875736Y-240027D01*
X-875491Y-240012D01*
X-875245Y-240003D01*
X-875000Y-240000D01*
X-874755Y-240003D01*
X-874509Y-240012D01*
X-874264Y-240027D01*
X-874020Y-240048D01*
X-873776Y-240075D01*
X-873533Y-240108D01*
X-873290Y-240147D01*
X-873049Y-240192D01*
X-872809Y-240243D01*
X-872570Y-240300D01*
X-872333Y-240362D01*
X-872097Y-240431D01*
X-871863Y-240505D01*
X-871631Y-240585D01*
X-871401Y-240670D01*
X-871173Y-240761D01*
X-870948Y-240858D01*
X-870724Y-240960D01*
X-870504Y-241068D01*
X-870286Y-241181D01*
X-870071Y-241299D01*
X-869859Y-241423D01*
X-869650Y-241551D01*
X-869444Y-241685D01*
X-869242Y-241824D01*
X-869043Y-241968D01*
X-868848Y-242117D01*
X-868656Y-242270D01*
X-868468Y-242428D01*
X-868284Y-242590D01*
X-868105Y-242758D01*
X-867929Y-242929D01*
X-867758Y-243105D01*
X-867590Y-243284D01*
X-867428Y-243468D01*
X-867270Y-243656D01*
X-867117Y-243848D01*
X-866968Y-244043D01*
X-866824Y-244242D01*
X-866685Y-244444D01*
X-866551Y-244650D01*
X-866423Y-244859D01*
X-866299Y-245071D01*
X-866181Y-245286D01*
X-866068Y-245504D01*
X-865960Y-245724D01*
X-865858Y-245948D01*
X-865761Y-246173D01*
X-865670Y-246401D01*
X-865585Y-246631D01*
X-865505Y-246863D01*
X-865431Y-247097D01*
X-865362Y-247333D01*
X-865300Y-247570D01*
X-865243Y-247809D01*
X-865192Y-248049D01*
X-865147Y-248290D01*
X-865108Y-248533D01*
X-865075Y-248776D01*
X-865048Y-249020D01*
X-865027Y-249264D01*
X-865012Y-249509D01*
X-865003Y-249755D01*
X-865000Y-250000D01*
X-865003Y-250245D01*
X-865012Y-250491D01*
X-865027Y-250736D01*
X-865048Y-250980D01*
X-865075Y-251224D01*
X-865108Y-251467D01*
X-865147Y-251710D01*
X-865192Y-251951D01*
X-865243Y-252191D01*
X-865300Y-252430D01*
X-865362Y-252667D01*
X-865431Y-252903D01*
X-865505Y-253137D01*
X-865585Y-253369D01*
X-865670Y-253599D01*
X-865761Y-253827D01*
X-865858Y-254052D01*
X-865960Y-254276D01*
X-866068Y-254496D01*
X-866181Y-254714D01*
X-866299Y-254929D01*
X-866423Y-255141D01*
X-866551Y-255350D01*
X-866685Y-255556D01*
X-866824Y-255758D01*
X-866968Y-255957D01*
X-867117Y-256152D01*
X-867270Y-256344D01*
X-867428Y-256532D01*
X-867590Y-256716D01*
X-867758Y-256895D01*
X-867929Y-257071D01*
X-868105Y-257242D01*
X-868284Y-257410D01*
X-868468Y-257572D01*
X-868656Y-257730D01*
X-868848Y-257883D01*
X-869043Y-258032D01*
X-869242Y-258176D01*
X-869444Y-258315D01*
X-869650Y-258449D01*
X-869859Y-258577D01*
X-870071Y-258701D01*
X-870286Y-258819D01*
X-870504Y-258932D01*
X-870724Y-259040D01*
X-870948Y-259142D01*
X-871173Y-259239D01*
X-871401Y-259330D01*
X-871631Y-259415D01*
X-871863Y-259495D01*
X-872097Y-259569D01*
X-872333Y-259638D01*
X-872570Y-259700D01*
X-872809Y-259757D01*
X-873049Y-259808D01*
X-873290Y-259853D01*
X-873533Y-259892D01*
X-873776Y-259925D01*
X-874020Y-259952D01*
X-874264Y-259973D01*
X-874509Y-259988D01*
X-874755Y-259997D01*
X-875000Y-260000D01*
X-875245Y-259997D01*
X-875491Y-259988D01*
X-875736Y-259973D01*
X-875980Y-259952D01*
X-876224Y-259925D01*
X-876467Y-259892D01*
X-876710Y-259853D01*
X-876951Y-259808D01*
X-877191Y-259757D01*
X-877430Y-259700D01*
X-877667Y-259638D01*
X-877903Y-259569D01*
X-878137Y-259495D01*
X-878369Y-259415D01*
X-878599Y-259330D01*
X-878827Y-259239D01*
X-879052Y-259142D01*
X-879276Y-259040D01*
X-879496Y-258932D01*
X-879714Y-258819D01*
X-879929Y-258701D01*
X-880141Y-258577D01*
X-880350Y-258449D01*
X-880556Y-258315D01*
X-880758Y-258176D01*
X-880957Y-258032D01*
X-881152Y-257883D01*
X-881344Y-257730D01*
X-881532Y-257572D01*
X-881716Y-257410D01*
X-881895Y-257242D01*
X-882071Y-257071D01*
X-882242Y-256895D01*
X-882410Y-256716D01*
X-882572Y-256532D01*
X-882730Y-256344D01*
X-882883Y-256152D01*
X-883032Y-255957D01*
X-883176Y-255758D01*
X-883315Y-255556D01*
X-883449Y-255350D01*
X-883577Y-255141D01*
X-883701Y-254929D01*
X-883819Y-254714D01*
X-883932Y-254496D01*
X-884040Y-254276D01*
X-884142Y-254052D01*
X-884239Y-253827D01*
X-884330Y-253599D01*
X-884415Y-253369D01*
X-884495Y-253137D01*
X-884569Y-252903D01*
X-884638Y-252667D01*
X-884700Y-252430D01*
X-884757Y-252191D01*
X-884808Y-251951D01*
X-884853Y-251710D01*
X-884892Y-251467D01*
X-884925Y-251224D01*
X-884952Y-250980D01*
X-884973Y-250736D01*
X-884988Y-250491D01*
X-884997Y-250245D01*
X-885000Y-250000D01*
D13*
X-550000Y-575000D02*
X-520000Y-575000D01*
X-850000Y-575000D02*
X-880000Y-575000D01*
X-880000Y-275000D02*
X-850000Y-275000D01*
X-550000Y-275000D02*
X-520000Y-275000D01*
D11*
X-890040Y-485952D02*
X-959960Y-485952D01*
X-959960Y-493720D02*
X-959960Y-478183D01*
X-890040Y-478183D02*
X-890040Y-493720D01*
X-959960Y-436017D02*
X-959960Y-420479D01*
X-959961Y-436017D02*
X-959956Y-436392D01*
X-959943Y-436768D01*
X-959920Y-437142D01*
X-959888Y-437517D01*
X-959848Y-437890D01*
X-959798Y-438262D01*
X-959739Y-438633D01*
X-959672Y-439002D01*
X-959595Y-439370D01*
X-959509Y-439735D01*
X-959415Y-440099D01*
X-959312Y-440460D01*
X-959201Y-440819D01*
X-959080Y-441174D01*
X-958951Y-441527D01*
X-958814Y-441876D01*
X-958668Y-442222D01*
X-958514Y-442565D01*
X-958352Y-442903D01*
X-958181Y-443238D01*
X-958003Y-443568D01*
X-957816Y-443894D01*
X-957622Y-444215D01*
X-957420Y-444532D01*
X-957211Y-444844D01*
X-956994Y-445150D01*
X-956769Y-445451D01*
X-956538Y-445747D01*
X-956299Y-446037D01*
X-956053Y-446321D01*
X-955801Y-446599D01*
X-955542Y-446870D01*
X-955276Y-447136D01*
X-955005Y-447395D01*
X-954727Y-447647D01*
X-954443Y-447893D01*
X-954153Y-448132D01*
X-953857Y-448363D01*
X-953556Y-448588D01*
X-953250Y-448805D01*
X-952938Y-449014D01*
X-952621Y-449216D01*
X-952300Y-449410D01*
X-951974Y-449597D01*
X-951644Y-449775D01*
X-951309Y-449946D01*
X-950971Y-450108D01*
X-950628Y-450262D01*
X-950282Y-450408D01*
X-949933Y-450545D01*
X-949580Y-450674D01*
X-949225Y-450795D01*
X-948866Y-450906D01*
X-948505Y-451009D01*
X-948141Y-451103D01*
X-947776Y-451189D01*
X-947408Y-451266D01*
X-947039Y-451333D01*
X-946668Y-451392D01*
X-946296Y-451442D01*
X-945923Y-451482D01*
X-945548Y-451514D01*
X-945174Y-451537D01*
X-944798Y-451550D01*
X-944423Y-451555D01*
X-905578Y-451555D01*
X-905197Y-451550D01*
X-904816Y-451536D01*
X-904435Y-451513D01*
X-904055Y-451480D01*
X-903676Y-451438D01*
X-903298Y-451387D01*
X-902922Y-451326D01*
X-902547Y-451256D01*
X-902174Y-451177D01*
X-901803Y-451089D01*
X-901434Y-450992D01*
X-901068Y-450886D01*
X-900704Y-450771D01*
X-900344Y-450647D01*
X-899986Y-450514D01*
X-899632Y-450372D01*
X-899282Y-450222D01*
X-898935Y-450063D01*
X-898592Y-449896D01*
X-898254Y-449720D01*
X-897920Y-449537D01*
X-897590Y-449344D01*
X-897265Y-449144D01*
X-896946Y-448937D01*
X-896631Y-448721D01*
X-896322Y-448497D01*
X-896019Y-448266D01*
X-895721Y-448028D01*
X-895429Y-447783D01*
X-895144Y-447530D01*
X-894864Y-447271D01*
X-894591Y-447004D01*
X-894325Y-446731D01*
X-894065Y-446452D01*
X-893813Y-446166D01*
X-893567Y-445874D01*
X-893329Y-445577D01*
X-893098Y-445273D01*
X-892875Y-444964D01*
X-892659Y-444650D01*
X-892451Y-444330D01*
X-892251Y-444005D01*
X-892059Y-443676D01*
X-891875Y-443342D01*
X-891699Y-443003D01*
X-891532Y-442661D01*
X-891373Y-442314D01*
X-891223Y-441964D01*
X-891081Y-441609D01*
X-890948Y-441252D01*
X-890824Y-440891D01*
X-890709Y-440528D01*
X-890603Y-440162D01*
X-890506Y-439793D01*
X-890418Y-439422D01*
X-890339Y-439049D01*
X-890269Y-438674D01*
X-890208Y-438297D01*
X-890157Y-437920D01*
X-890115Y-437541D01*
X-890082Y-437161D01*
X-890059Y-436780D01*
X-890045Y-436399D01*
X-890040Y-436018D01*
X-890040Y-436017D02*
X-890040Y-420479D01*
X-959960Y-395124D02*
X-959960Y-371817D01*
X-959955Y-371436D01*
X-959941Y-371055D01*
X-959918Y-370674D01*
X-959885Y-370294D01*
X-959843Y-369915D01*
X-959792Y-369537D01*
X-959731Y-369161D01*
X-959661Y-368786D01*
X-959582Y-368413D01*
X-959494Y-368042D01*
X-959397Y-367673D01*
X-959291Y-367307D01*
X-959176Y-366943D01*
X-959052Y-366583D01*
X-958919Y-366225D01*
X-958777Y-365871D01*
X-958627Y-365521D01*
X-958468Y-365174D01*
X-958301Y-364831D01*
X-958125Y-364493D01*
X-957942Y-364159D01*
X-957749Y-363829D01*
X-957549Y-363504D01*
X-957342Y-363185D01*
X-957126Y-362870D01*
X-956902Y-362561D01*
X-956671Y-362258D01*
X-956433Y-361960D01*
X-956188Y-361668D01*
X-955935Y-361383D01*
X-955676Y-361103D01*
X-955409Y-360830D01*
X-955136Y-360564D01*
X-954857Y-360304D01*
X-954571Y-360052D01*
X-954279Y-359806D01*
X-953982Y-359568D01*
X-953678Y-359337D01*
X-953369Y-359114D01*
X-953055Y-358898D01*
X-952735Y-358690D01*
X-952410Y-358490D01*
X-952081Y-358298D01*
X-951747Y-358114D01*
X-951408Y-357938D01*
X-951066Y-357771D01*
X-950719Y-357612D01*
X-950369Y-357462D01*
X-950014Y-357320D01*
X-949657Y-357187D01*
X-949296Y-357063D01*
X-948933Y-356948D01*
X-948567Y-356842D01*
X-948198Y-356745D01*
X-947827Y-356657D01*
X-947454Y-356578D01*
X-947079Y-356508D01*
X-946702Y-356447D01*
X-946325Y-356396D01*
X-945946Y-356354D01*
X-945566Y-356321D01*
X-945185Y-356298D01*
X-944804Y-356284D01*
X-944423Y-356279D01*
X-936653Y-356279D01*
X-936278Y-356284D01*
X-935902Y-356297D01*
X-935528Y-356320D01*
X-935153Y-356352D01*
X-934780Y-356392D01*
X-934408Y-356442D01*
X-934037Y-356501D01*
X-933668Y-356568D01*
X-933300Y-356645D01*
X-932935Y-356731D01*
X-932571Y-356825D01*
X-932210Y-356928D01*
X-931851Y-357039D01*
X-931496Y-357160D01*
X-931143Y-357289D01*
X-930794Y-357426D01*
X-930448Y-357572D01*
X-930105Y-357726D01*
X-929767Y-357888D01*
X-929432Y-358059D01*
X-929102Y-358237D01*
X-928776Y-358424D01*
X-928455Y-358618D01*
X-928138Y-358820D01*
X-927826Y-359029D01*
X-927520Y-359246D01*
X-927219Y-359471D01*
X-926923Y-359702D01*
X-926633Y-359941D01*
X-926349Y-360187D01*
X-926071Y-360439D01*
X-925800Y-360698D01*
X-925534Y-360964D01*
X-925275Y-361235D01*
X-925023Y-361513D01*
X-924777Y-361797D01*
X-924538Y-362087D01*
X-924307Y-362383D01*
X-924082Y-362684D01*
X-923865Y-362990D01*
X-923656Y-363302D01*
X-923454Y-363619D01*
X-923260Y-363940D01*
X-923073Y-364266D01*
X-922895Y-364596D01*
X-922724Y-364931D01*
X-922562Y-365269D01*
X-922408Y-365612D01*
X-922262Y-365958D01*
X-922125Y-366307D01*
X-921996Y-366660D01*
X-921875Y-367015D01*
X-921764Y-367374D01*
X-921661Y-367735D01*
X-921567Y-368099D01*
X-921481Y-368464D01*
X-921404Y-368832D01*
X-921337Y-369201D01*
X-921278Y-369572D01*
X-921228Y-369944D01*
X-921188Y-370317D01*
X-921156Y-370692D01*
X-921133Y-371066D01*
X-921120Y-371442D01*
X-921115Y-371817D01*
X-921116Y-371817D02*
X-921116Y-395124D01*
X-890040Y-395124D01*
X-890040Y-356279D01*
D15*
X296900Y-523800D02*
X296900Y-676200D01*
X-300000Y-676200D02*
X-300000Y-523800D01*
D11*
X197486Y-990040D02*
X197486Y-1059960D01*
X166410Y-1059960D01*
X141359Y-1005578D02*
X121937Y-990040D01*
X121937Y-1059960D01*
X141359Y-1059960D02*
X102515Y-1059960D01*
D14*
X510000Y-375000D02*
X510029Y-372669D01*
X510114Y-370339D01*
X510257Y-368011D01*
X510457Y-365688D01*
X510714Y-363371D01*
X511028Y-361061D01*
X511399Y-358759D01*
X511825Y-356466D01*
X512308Y-354185D01*
X512847Y-351917D01*
X513441Y-349662D01*
X514091Y-347423D01*
X514795Y-345200D01*
X515553Y-342995D01*
X516366Y-340810D01*
X517231Y-338645D01*
X518150Y-336502D01*
X519121Y-334382D01*
X520144Y-332287D01*
X521217Y-330217D01*
X522342Y-328175D01*
X523516Y-326160D01*
X524739Y-324175D01*
X526010Y-322221D01*
X527329Y-320298D01*
X528695Y-318409D01*
X530107Y-316553D01*
X531564Y-314733D01*
X533065Y-312949D01*
X534610Y-311202D01*
X536197Y-309494D01*
X537825Y-307825D01*
X539494Y-306197D01*
X541202Y-304610D01*
X542949Y-303065D01*
X544733Y-301564D01*
X546553Y-300107D01*
X548409Y-298695D01*
X550298Y-297329D01*
X552221Y-296010D01*
X554175Y-294739D01*
X556160Y-293516D01*
X558175Y-292342D01*
X560217Y-291217D01*
X562287Y-290144D01*
X564382Y-289121D01*
X566502Y-288150D01*
X568645Y-287231D01*
X570810Y-286366D01*
X572995Y-285553D01*
X575200Y-284795D01*
X577423Y-284091D01*
X579662Y-283441D01*
X581917Y-282847D01*
X584185Y-282308D01*
X586466Y-281825D01*
X588759Y-281399D01*
X591061Y-281028D01*
X593371Y-280714D01*
X595688Y-280457D01*
X598011Y-280257D01*
X600339Y-280114D01*
X602669Y-280029D01*
X605000Y-280000D01*
X607331Y-280029D01*
X609661Y-280114D01*
X611989Y-280257D01*
X614312Y-280457D01*
X616629Y-280714D01*
X618939Y-281028D01*
X621241Y-281399D01*
X623534Y-281825D01*
X625815Y-282308D01*
X628083Y-282847D01*
X630338Y-283441D01*
X632577Y-284091D01*
X634800Y-284795D01*
X637005Y-285553D01*
X639190Y-286366D01*
X641355Y-287231D01*
X643498Y-288150D01*
X645618Y-289121D01*
X647713Y-290144D01*
X649783Y-291217D01*
X651825Y-292342D01*
X653840Y-293516D01*
X655825Y-294739D01*
X657779Y-296010D01*
X659702Y-297329D01*
X661591Y-298695D01*
X663447Y-300107D01*
X665267Y-301564D01*
X667051Y-303065D01*
X668798Y-304610D01*
X670506Y-306197D01*
X672175Y-307825D01*
X673803Y-309494D01*
X675390Y-311202D01*
X676935Y-312949D01*
X678436Y-314733D01*
X679893Y-316553D01*
X681305Y-318409D01*
X682671Y-320298D01*
X683990Y-322221D01*
X685261Y-324175D01*
X686484Y-326160D01*
X687658Y-328175D01*
X688783Y-330217D01*
X689856Y-332287D01*
X690879Y-334382D01*
X691850Y-336502D01*
X692769Y-338645D01*
X693634Y-340810D01*
X694447Y-342995D01*
X695205Y-345200D01*
X695909Y-347423D01*
X696559Y-349662D01*
X697153Y-351917D01*
X697692Y-354185D01*
X698175Y-356466D01*
X698601Y-358759D01*
X698972Y-361061D01*
X699286Y-363371D01*
X699543Y-365688D01*
X699743Y-368011D01*
X699886Y-370339D01*
X699971Y-372669D01*
X700000Y-375000D01*
X699971Y-377331D01*
X699886Y-379661D01*
X699743Y-381989D01*
X699543Y-384312D01*
X699286Y-386629D01*
X698972Y-388939D01*
X698601Y-391241D01*
X698175Y-393534D01*
X697692Y-395815D01*
X697153Y-398083D01*
X696559Y-400338D01*
X695909Y-402577D01*
X695205Y-404800D01*
X694447Y-407005D01*
X693634Y-409190D01*
X692769Y-411355D01*
X691850Y-413498D01*
X690879Y-415618D01*
X689856Y-417713D01*
X688783Y-419783D01*
X687658Y-421825D01*
X686484Y-423840D01*
X685261Y-425825D01*
X683990Y-427779D01*
X682671Y-429702D01*
X681305Y-431591D01*
X679893Y-433447D01*
X678436Y-435267D01*
X676935Y-437051D01*
X675390Y-438798D01*
X673803Y-440506D01*
X672175Y-442175D01*
X670506Y-443803D01*
X668798Y-445390D01*
X667051Y-446935D01*
X665267Y-448436D01*
X663447Y-449893D01*
X661591Y-451305D01*
X659702Y-452671D01*
X657779Y-453990D01*
X655825Y-455261D01*
X653840Y-456484D01*
X651825Y-457658D01*
X649783Y-458783D01*
X647713Y-459856D01*
X645618Y-460879D01*
X643498Y-461850D01*
X641355Y-462769D01*
X639190Y-463634D01*
X637005Y-464447D01*
X634800Y-465205D01*
X632577Y-465909D01*
X630338Y-466559D01*
X628083Y-467153D01*
X625815Y-467692D01*
X623534Y-468175D01*
X621241Y-468601D01*
X618939Y-468972D01*
X616629Y-469286D01*
X614312Y-469543D01*
X611989Y-469743D01*
X609661Y-469886D01*
X607331Y-469971D01*
X605000Y-470000D01*
X602669Y-469971D01*
X600339Y-469886D01*
X598011Y-469743D01*
X595688Y-469543D01*
X593371Y-469286D01*
X591061Y-468972D01*
X588759Y-468601D01*
X586466Y-468175D01*
X584185Y-467692D01*
X581917Y-467153D01*
X579662Y-466559D01*
X577423Y-465909D01*
X575200Y-465205D01*
X572995Y-464447D01*
X570810Y-463634D01*
X568645Y-462769D01*
X566502Y-461850D01*
X564382Y-460879D01*
X562287Y-459856D01*
X560217Y-458783D01*
X558175Y-457658D01*
X556160Y-456484D01*
X554175Y-455261D01*
X552221Y-453990D01*
X550298Y-452671D01*
X548409Y-451305D01*
X546553Y-449893D01*
X544733Y-448436D01*
X542949Y-446935D01*
X541202Y-445390D01*
X539494Y-443803D01*
X537825Y-442175D01*
X536197Y-440506D01*
X534610Y-438798D01*
X533065Y-437051D01*
X531564Y-435267D01*
X530107Y-433447D01*
X528695Y-431591D01*
X527329Y-429702D01*
X526010Y-427779D01*
X524739Y-425825D01*
X523516Y-423840D01*
X522342Y-421825D01*
X521217Y-419783D01*
X520144Y-417713D01*
X519121Y-415618D01*
X518150Y-413498D01*
X517231Y-411355D01*
X516366Y-409190D01*
X515553Y-407005D01*
X514795Y-404800D01*
X514091Y-402577D01*
X513441Y-400338D01*
X512847Y-398083D01*
X512308Y-395815D01*
X511825Y-393534D01*
X511399Y-391241D01*
X511028Y-388939D01*
X510714Y-386629D01*
X510457Y-384312D01*
X510257Y-381989D01*
X510114Y-379661D01*
X510029Y-377331D01*
X510000Y-375000D01*
D11*
X911395Y-475040D02*
X911395Y-544960D01*
X880320Y-544960D01*
X852895Y-544960D02*
X821820Y-544960D01*
X852895Y-544960D02*
X852895Y-475040D01*
X821820Y-475040D01*
X829589Y-506116D02*
X852895Y-506116D01*
X794519Y-475040D02*
X794519Y-544960D01*
X794519Y-475040D02*
X775097Y-475040D01*
X774628Y-475046D01*
X774159Y-475063D01*
X773690Y-475091D01*
X773222Y-475131D01*
X772756Y-475182D01*
X772291Y-475244D01*
X771827Y-475317D01*
X771365Y-475402D01*
X770906Y-475498D01*
X770449Y-475604D01*
X769994Y-475722D01*
X769543Y-475851D01*
X769095Y-475991D01*
X768650Y-476141D01*
X768210Y-476302D01*
X767773Y-476474D01*
X767340Y-476656D01*
X766912Y-476849D01*
X766489Y-477052D01*
X766071Y-477265D01*
X765658Y-477488D01*
X765250Y-477721D01*
X764849Y-477964D01*
X764453Y-478216D01*
X764063Y-478478D01*
X763680Y-478749D01*
X763304Y-479030D01*
X762935Y-479319D01*
X762572Y-479618D01*
X762217Y-479925D01*
X761870Y-480240D01*
X761530Y-480564D01*
X761198Y-480896D01*
X760874Y-481236D01*
X760559Y-481583D01*
X760252Y-481938D01*
X759953Y-482301D01*
X759664Y-482670D01*
X759383Y-483046D01*
X759112Y-483429D01*
X758850Y-483819D01*
X758598Y-484215D01*
X758355Y-484616D01*
X758122Y-485024D01*
X757899Y-485437D01*
X757686Y-485855D01*
X757483Y-486278D01*
X757290Y-486706D01*
X757108Y-487139D01*
X756936Y-487576D01*
X756775Y-488016D01*
X756625Y-488461D01*
X756485Y-488909D01*
X756356Y-489360D01*
X756238Y-489815D01*
X756132Y-490272D01*
X756036Y-490731D01*
X755951Y-491193D01*
X755878Y-491657D01*
X755816Y-492122D01*
X755765Y-492588D01*
X755725Y-493056D01*
X755697Y-493525D01*
X755680Y-493994D01*
X755674Y-494463D01*
X755674Y-525538D01*
X755680Y-526007D01*
X755697Y-526476D01*
X755725Y-526945D01*
X755765Y-527413D01*
X755816Y-527879D01*
X755878Y-528344D01*
X755951Y-528808D01*
X756036Y-529270D01*
X756132Y-529729D01*
X756238Y-530186D01*
X756356Y-530640D01*
X756485Y-531092D01*
X756625Y-531540D01*
X756775Y-531984D01*
X756936Y-532425D01*
X757108Y-532862D01*
X757290Y-533295D01*
X757483Y-533723D01*
X757686Y-534146D01*
X757899Y-534564D01*
X758122Y-534977D01*
X758355Y-535384D01*
X758598Y-535786D01*
X758850Y-536182D01*
X759112Y-536571D01*
X759383Y-536954D01*
X759664Y-537330D01*
X759953Y-537700D01*
X760252Y-538062D01*
X760559Y-538417D01*
X760874Y-538765D01*
X761198Y-539105D01*
X761530Y-539436D01*
X761869Y-539760D01*
X762217Y-540076D01*
X762572Y-540383D01*
X762934Y-540681D01*
X763304Y-540970D01*
X763680Y-541251D01*
X764063Y-541522D01*
X764453Y-541784D01*
X764848Y-542036D01*
X765250Y-542279D01*
X765657Y-542512D01*
X766070Y-542735D01*
X766489Y-542949D01*
X766912Y-543151D01*
X767340Y-543344D01*
X767772Y-543526D01*
X768209Y-543698D01*
X768650Y-543859D01*
X769095Y-544009D01*
X769543Y-544149D01*
X769994Y-544278D01*
X770448Y-544396D01*
X770905Y-544502D01*
X771365Y-544598D01*
X771826Y-544683D01*
X772290Y-544756D01*
X772755Y-544818D01*
X773222Y-544869D01*
X773689Y-544909D01*
X774158Y-544937D01*
X774627Y-544954D01*
X775096Y-544960D01*
X775097Y-544960D02*
X794519Y-544960D01*
X724153Y-517769D02*
X677540Y-517769D01*
X700847Y-494463D02*
X700847Y-541076D01*
D14*
X275000Y-375000D02*
X275029Y-372669D01*
X275114Y-370339D01*
X275257Y-368011D01*
X275457Y-365688D01*
X275714Y-363371D01*
X276028Y-361061D01*
X276399Y-358759D01*
X276825Y-356466D01*
X277308Y-354185D01*
X277847Y-351917D01*
X278441Y-349662D01*
X279091Y-347423D01*
X279795Y-345200D01*
X280553Y-342995D01*
X281366Y-340810D01*
X282231Y-338645D01*
X283150Y-336502D01*
X284121Y-334382D01*
X285144Y-332287D01*
X286217Y-330217D01*
X287342Y-328175D01*
X288516Y-326160D01*
X289739Y-324175D01*
X291010Y-322221D01*
X292329Y-320298D01*
X293695Y-318409D01*
X295107Y-316553D01*
X296564Y-314733D01*
X298065Y-312949D01*
X299610Y-311202D01*
X301197Y-309494D01*
X302825Y-307825D01*
X304494Y-306197D01*
X306202Y-304610D01*
X307949Y-303065D01*
X309733Y-301564D01*
X311553Y-300107D01*
X313409Y-298695D01*
X315298Y-297329D01*
X317221Y-296010D01*
X319175Y-294739D01*
X321160Y-293516D01*
X323175Y-292342D01*
X325217Y-291217D01*
X327287Y-290144D01*
X329382Y-289121D01*
X331502Y-288150D01*
X333645Y-287231D01*
X335810Y-286366D01*
X337995Y-285553D01*
X340200Y-284795D01*
X342423Y-284091D01*
X344662Y-283441D01*
X346917Y-282847D01*
X349185Y-282308D01*
X351466Y-281825D01*
X353759Y-281399D01*
X356061Y-281028D01*
X358371Y-280714D01*
X360688Y-280457D01*
X363011Y-280257D01*
X365339Y-280114D01*
X367669Y-280029D01*
X370000Y-280000D01*
X372331Y-280029D01*
X374661Y-280114D01*
X376989Y-280257D01*
X379312Y-280457D01*
X381629Y-280714D01*
X383939Y-281028D01*
X386241Y-281399D01*
X388534Y-281825D01*
X390815Y-282308D01*
X393083Y-282847D01*
X395338Y-283441D01*
X397577Y-284091D01*
X399800Y-284795D01*
X402005Y-285553D01*
X404190Y-286366D01*
X406355Y-287231D01*
X408498Y-288150D01*
X410618Y-289121D01*
X412713Y-290144D01*
X414783Y-291217D01*
X416825Y-292342D01*
X418840Y-293516D01*
X420825Y-294739D01*
X422779Y-296010D01*
X424702Y-297329D01*
X426591Y-298695D01*
X428447Y-300107D01*
X430267Y-301564D01*
X432051Y-303065D01*
X433798Y-304610D01*
X435506Y-306197D01*
X437175Y-307825D01*
X438803Y-309494D01*
X440390Y-311202D01*
X441935Y-312949D01*
X443436Y-314733D01*
X444893Y-316553D01*
X446305Y-318409D01*
X447671Y-320298D01*
X448990Y-322221D01*
X450261Y-324175D01*
X451484Y-326160D01*
X452658Y-328175D01*
X453783Y-330217D01*
X454856Y-332287D01*
X455879Y-334382D01*
X456850Y-336502D01*
X457769Y-338645D01*
X458634Y-340810D01*
X459447Y-342995D01*
X460205Y-345200D01*
X460909Y-347423D01*
X461559Y-349662D01*
X462153Y-351917D01*
X462692Y-354185D01*
X463175Y-356466D01*
X463601Y-358759D01*
X463972Y-361061D01*
X464286Y-363371D01*
X464543Y-365688D01*
X464743Y-368011D01*
X464886Y-370339D01*
X464971Y-372669D01*
X465000Y-375000D01*
X464971Y-377331D01*
X464886Y-379661D01*
X464743Y-381989D01*
X464543Y-384312D01*
X464286Y-386629D01*
X463972Y-388939D01*
X463601Y-391241D01*
X463175Y-393534D01*
X462692Y-395815D01*
X462153Y-398083D01*
X461559Y-400338D01*
X460909Y-402577D01*
X460205Y-404800D01*
X459447Y-407005D01*
X458634Y-409190D01*
X457769Y-411355D01*
X456850Y-413498D01*
X455879Y-415618D01*
X454856Y-417713D01*
X453783Y-419783D01*
X452658Y-421825D01*
X451484Y-423840D01*
X450261Y-425825D01*
X448990Y-427779D01*
X447671Y-429702D01*
X446305Y-431591D01*
X444893Y-433447D01*
X443436Y-435267D01*
X441935Y-437051D01*
X440390Y-438798D01*
X438803Y-440506D01*
X437175Y-442175D01*
X435506Y-443803D01*
X433798Y-445390D01*
X432051Y-446935D01*
X430267Y-448436D01*
X428447Y-449893D01*
X426591Y-451305D01*
X424702Y-452671D01*
X422779Y-453990D01*
X420825Y-455261D01*
X418840Y-456484D01*
X416825Y-457658D01*
X414783Y-458783D01*
X412713Y-459856D01*
X410618Y-460879D01*
X408498Y-461850D01*
X406355Y-462769D01*
X404190Y-463634D01*
X402005Y-464447D01*
X399800Y-465205D01*
X397577Y-465909D01*
X395338Y-466559D01*
X393083Y-467153D01*
X390815Y-467692D01*
X388534Y-468175D01*
X386241Y-468601D01*
X383939Y-468972D01*
X381629Y-469286D01*
X379312Y-469543D01*
X376989Y-469743D01*
X374661Y-469886D01*
X372331Y-469971D01*
X370000Y-470000D01*
X367669Y-469971D01*
X365339Y-469886D01*
X363011Y-469743D01*
X360688Y-469543D01*
X358371Y-469286D01*
X356061Y-468972D01*
X353759Y-468601D01*
X351466Y-468175D01*
X349185Y-467692D01*
X346917Y-467153D01*
X344662Y-466559D01*
X342423Y-465909D01*
X340200Y-465205D01*
X337995Y-464447D01*
X335810Y-463634D01*
X333645Y-462769D01*
X331502Y-461850D01*
X329382Y-460879D01*
X327287Y-459856D01*
X325217Y-458783D01*
X323175Y-457658D01*
X321160Y-456484D01*
X319175Y-455261D01*
X317221Y-453990D01*
X315298Y-452671D01*
X313409Y-451305D01*
X311553Y-449893D01*
X309733Y-448436D01*
X307949Y-446935D01*
X306202Y-445390D01*
X304494Y-443803D01*
X302825Y-442175D01*
X301197Y-440506D01*
X299610Y-438798D01*
X298065Y-437051D01*
X296564Y-435267D01*
X295107Y-433447D01*
X293695Y-431591D01*
X292329Y-429702D01*
X291010Y-427779D01*
X289739Y-425825D01*
X288516Y-423840D01*
X287342Y-421825D01*
X286217Y-419783D01*
X285144Y-417713D01*
X284121Y-415618D01*
X283150Y-413498D01*
X282231Y-411355D01*
X281366Y-409190D01*
X280553Y-407005D01*
X279795Y-404800D01*
X279091Y-402577D01*
X278441Y-400338D01*
X277847Y-398083D01*
X277308Y-395815D01*
X276825Y-393534D01*
X276399Y-391241D01*
X276028Y-388939D01*
X275714Y-386629D01*
X275457Y-384312D01*
X275257Y-381989D01*
X275114Y-379661D01*
X275029Y-377331D01*
X275000Y-375000D01*
D11*
X446395Y-244960D02*
X446395Y-175040D01*
X446395Y-244960D02*
X415320Y-244960D01*
X387895Y-244960D02*
X356820Y-244960D01*
X387895Y-244960D02*
X387895Y-175040D01*
X356820Y-175040D01*
X364589Y-206116D02*
X387895Y-206116D01*
X329519Y-175040D02*
X329519Y-244960D01*
X329519Y-175040D02*
X310097Y-175040D01*
X309628Y-175046D01*
X309159Y-175063D01*
X308690Y-175091D01*
X308222Y-175131D01*
X307756Y-175182D01*
X307291Y-175244D01*
X306827Y-175317D01*
X306365Y-175402D01*
X305906Y-175498D01*
X305449Y-175604D01*
X304994Y-175722D01*
X304543Y-175851D01*
X304095Y-175991D01*
X303650Y-176141D01*
X303210Y-176302D01*
X302773Y-176474D01*
X302340Y-176656D01*
X301912Y-176849D01*
X301489Y-177052D01*
X301071Y-177265D01*
X300658Y-177488D01*
X300250Y-177721D01*
X299849Y-177964D01*
X299453Y-178216D01*
X299063Y-178478D01*
X298680Y-178749D01*
X298304Y-179030D01*
X297935Y-179319D01*
X297572Y-179618D01*
X297217Y-179925D01*
X296870Y-180240D01*
X296530Y-180564D01*
X296198Y-180896D01*
X295874Y-181236D01*
X295559Y-181583D01*
X295252Y-181938D01*
X294953Y-182301D01*
X294664Y-182670D01*
X294383Y-183046D01*
X294112Y-183429D01*
X293850Y-183819D01*
X293598Y-184215D01*
X293355Y-184616D01*
X293122Y-185024D01*
X292899Y-185437D01*
X292686Y-185855D01*
X292483Y-186278D01*
X292290Y-186706D01*
X292108Y-187139D01*
X291936Y-187576D01*
X291775Y-188016D01*
X291625Y-188461D01*
X291485Y-188909D01*
X291356Y-189360D01*
X291238Y-189815D01*
X291132Y-190272D01*
X291036Y-190731D01*
X290951Y-191193D01*
X290878Y-191657D01*
X290816Y-192122D01*
X290765Y-192588D01*
X290725Y-193056D01*
X290697Y-193525D01*
X290680Y-193994D01*
X290674Y-194463D01*
X290674Y-225538D01*
X290680Y-226007D01*
X290697Y-226476D01*
X290725Y-226945D01*
X290765Y-227413D01*
X290816Y-227879D01*
X290878Y-228344D01*
X290951Y-228808D01*
X291036Y-229270D01*
X291132Y-229729D01*
X291238Y-230186D01*
X291356Y-230640D01*
X291485Y-231092D01*
X291625Y-231540D01*
X291775Y-231984D01*
X291936Y-232425D01*
X292108Y-232862D01*
X292290Y-233295D01*
X292483Y-233723D01*
X292686Y-234146D01*
X292899Y-234564D01*
X293122Y-234977D01*
X293355Y-235384D01*
X293598Y-235786D01*
X293850Y-236182D01*
X294112Y-236571D01*
X294383Y-236954D01*
X294664Y-237330D01*
X294953Y-237700D01*
X295252Y-238062D01*
X295559Y-238417D01*
X295874Y-238765D01*
X296198Y-239105D01*
X296530Y-239436D01*
X296869Y-239760D01*
X297217Y-240076D01*
X297572Y-240383D01*
X297934Y-240681D01*
X298304Y-240970D01*
X298680Y-241251D01*
X299063Y-241522D01*
X299453Y-241784D01*
X299848Y-242036D01*
X300250Y-242279D01*
X300657Y-242512D01*
X301070Y-242735D01*
X301489Y-242949D01*
X301912Y-243151D01*
X302340Y-243344D01*
X302772Y-243526D01*
X303209Y-243698D01*
X303650Y-243859D01*
X304095Y-244009D01*
X304543Y-244149D01*
X304994Y-244278D01*
X305448Y-244396D01*
X305905Y-244502D01*
X306365Y-244598D01*
X306826Y-244683D01*
X307290Y-244756D01*
X307755Y-244818D01*
X308222Y-244869D01*
X308689Y-244909D01*
X309158Y-244937D01*
X309627Y-244954D01*
X310096Y-244960D01*
X310097Y-244960D02*
X329519Y-244960D01*
X259153Y-217769D02*
X212540Y-217769D01*
X891562Y415040D02*
X907100Y415040D01*
X907475Y415045D01*
X907851Y415058D01*
X908225Y415081D01*
X908600Y415113D01*
X908973Y415153D01*
X909345Y415203D01*
X909716Y415262D01*
X910085Y415329D01*
X910453Y415406D01*
X910818Y415492D01*
X911182Y415586D01*
X911543Y415689D01*
X911902Y415800D01*
X912257Y415921D01*
X912610Y416050D01*
X912959Y416187D01*
X913305Y416333D01*
X913648Y416487D01*
X913986Y416649D01*
X914321Y416820D01*
X914651Y416998D01*
X914977Y417185D01*
X915298Y417379D01*
X915615Y417581D01*
X915927Y417790D01*
X916233Y418007D01*
X916534Y418232D01*
X916830Y418463D01*
X917120Y418702D01*
X917404Y418948D01*
X917682Y419200D01*
X917953Y419459D01*
X918219Y419725D01*
X918478Y419996D01*
X918730Y420274D01*
X918976Y420558D01*
X919215Y420848D01*
X919446Y421144D01*
X919671Y421445D01*
X919888Y421751D01*
X920097Y422063D01*
X920299Y422380D01*
X920493Y422701D01*
X920680Y423027D01*
X920858Y423357D01*
X921029Y423692D01*
X921191Y424030D01*
X921345Y424373D01*
X921491Y424719D01*
X921628Y425068D01*
X921757Y425421D01*
X921878Y425776D01*
X921989Y426135D01*
X922092Y426496D01*
X922186Y426860D01*
X922272Y427225D01*
X922349Y427593D01*
X922416Y427962D01*
X922475Y428333D01*
X922525Y428705D01*
X922565Y429078D01*
X922597Y429453D01*
X922620Y429827D01*
X922633Y430203D01*
X922638Y430578D01*
X922638Y469422D01*
X922633Y469797D01*
X922620Y470173D01*
X922597Y470547D01*
X922565Y470922D01*
X922525Y471295D01*
X922475Y471667D01*
X922416Y472038D01*
X922349Y472407D01*
X922272Y472775D01*
X922186Y473140D01*
X922092Y473504D01*
X921989Y473865D01*
X921878Y474224D01*
X921757Y474579D01*
X921628Y474932D01*
X921491Y475281D01*
X921345Y475627D01*
X921191Y475970D01*
X921029Y476308D01*
X920858Y476643D01*
X920680Y476973D01*
X920493Y477299D01*
X920299Y477620D01*
X920097Y477937D01*
X919888Y478249D01*
X919671Y478555D01*
X919446Y478856D01*
X919215Y479152D01*
X918976Y479442D01*
X918730Y479726D01*
X918478Y480004D01*
X918219Y480275D01*
X917953Y480541D01*
X917682Y480800D01*
X917404Y481052D01*
X917120Y481298D01*
X916830Y481537D01*
X916534Y481768D01*
X916233Y481993D01*
X915927Y482210D01*
X915615Y482419D01*
X915298Y482621D01*
X914977Y482815D01*
X914651Y483002D01*
X914321Y483180D01*
X913986Y483351D01*
X913648Y483513D01*
X913305Y483667D01*
X912959Y483813D01*
X912610Y483950D01*
X912257Y484079D01*
X911902Y484200D01*
X911543Y484311D01*
X911182Y484414D01*
X910818Y484508D01*
X910453Y484594D01*
X910085Y484671D01*
X909716Y484738D01*
X909345Y484797D01*
X908973Y484847D01*
X908600Y484887D01*
X908225Y484919D01*
X907851Y484942D01*
X907475Y484955D01*
X907100Y484960D01*
X891562Y484960D01*
X866207Y484960D02*
X866207Y477191D01*
X866207Y484960D02*
X827362Y484960D01*
X846784Y415040D01*
X986563Y-409960D02*
X1002100Y-409960D01*
X1002100Y-409961D02*
X1002475Y-409956D01*
X1002851Y-409943D01*
X1003225Y-409920D01*
X1003600Y-409888D01*
X1003973Y-409848D01*
X1004345Y-409798D01*
X1004716Y-409739D01*
X1005085Y-409672D01*
X1005453Y-409595D01*
X1005818Y-409509D01*
X1006182Y-409415D01*
X1006543Y-409312D01*
X1006902Y-409201D01*
X1007257Y-409080D01*
X1007610Y-408951D01*
X1007959Y-408814D01*
X1008305Y-408668D01*
X1008648Y-408514D01*
X1008986Y-408352D01*
X1009321Y-408181D01*
X1009651Y-408003D01*
X1009977Y-407816D01*
X1010298Y-407622D01*
X1010615Y-407420D01*
X1010927Y-407211D01*
X1011233Y-406994D01*
X1011534Y-406769D01*
X1011830Y-406538D01*
X1012120Y-406299D01*
X1012404Y-406053D01*
X1012682Y-405801D01*
X1012953Y-405542D01*
X1013219Y-405276D01*
X1013478Y-405005D01*
X1013730Y-404727D01*
X1013976Y-404443D01*
X1014215Y-404153D01*
X1014446Y-403857D01*
X1014671Y-403556D01*
X1014888Y-403250D01*
X1015097Y-402938D01*
X1015299Y-402621D01*
X1015493Y-402300D01*
X1015680Y-401974D01*
X1015858Y-401644D01*
X1016029Y-401309D01*
X1016191Y-400971D01*
X1016345Y-400628D01*
X1016491Y-400282D01*
X1016628Y-399933D01*
X1016757Y-399580D01*
X1016878Y-399225D01*
X1016989Y-398866D01*
X1017092Y-398505D01*
X1017186Y-398141D01*
X1017272Y-397776D01*
X1017349Y-397408D01*
X1017416Y-397039D01*
X1017475Y-396668D01*
X1017525Y-396296D01*
X1017565Y-395923D01*
X1017597Y-395548D01*
X1017620Y-395174D01*
X1017633Y-394798D01*
X1017638Y-394423D01*
X1017638Y-355578D01*
X1017633Y-355197D01*
X1017619Y-354816D01*
X1017596Y-354435D01*
X1017563Y-354055D01*
X1017521Y-353676D01*
X1017470Y-353298D01*
X1017409Y-352922D01*
X1017339Y-352547D01*
X1017260Y-352174D01*
X1017172Y-351803D01*
X1017075Y-351434D01*
X1016969Y-351068D01*
X1016854Y-350704D01*
X1016730Y-350344D01*
X1016597Y-349986D01*
X1016455Y-349632D01*
X1016305Y-349282D01*
X1016146Y-348935D01*
X1015979Y-348592D01*
X1015803Y-348254D01*
X1015620Y-347920D01*
X1015427Y-347590D01*
X1015227Y-347265D01*
X1015020Y-346946D01*
X1014804Y-346631D01*
X1014580Y-346322D01*
X1014349Y-346019D01*
X1014111Y-345721D01*
X1013866Y-345429D01*
X1013613Y-345144D01*
X1013354Y-344864D01*
X1013087Y-344591D01*
X1012814Y-344325D01*
X1012535Y-344065D01*
X1012249Y-343813D01*
X1011957Y-343567D01*
X1011660Y-343329D01*
X1011356Y-343098D01*
X1011047Y-342875D01*
X1010733Y-342659D01*
X1010413Y-342451D01*
X1010088Y-342251D01*
X1009759Y-342059D01*
X1009425Y-341875D01*
X1009086Y-341699D01*
X1008744Y-341532D01*
X1008397Y-341373D01*
X1008047Y-341223D01*
X1007692Y-341081D01*
X1007335Y-340948D01*
X1006974Y-340824D01*
X1006611Y-340709D01*
X1006245Y-340603D01*
X1005876Y-340506D01*
X1005505Y-340418D01*
X1005132Y-340339D01*
X1004757Y-340269D01*
X1004380Y-340208D01*
X1004003Y-340157D01*
X1003624Y-340115D01*
X1003244Y-340082D01*
X1002863Y-340059D01*
X1002482Y-340045D01*
X1002101Y-340040D01*
X1002100Y-340040D02*
X986563Y-340040D01*
X961207Y-390538D02*
X961201Y-390065D01*
X961184Y-389592D01*
X961155Y-389120D01*
X961115Y-388649D01*
X961063Y-388179D01*
X961000Y-387710D01*
X960925Y-387243D01*
X960840Y-386778D01*
X960742Y-386315D01*
X960634Y-385855D01*
X960514Y-385397D01*
X960384Y-384943D01*
X960242Y-384491D01*
X960089Y-384044D01*
X959925Y-383600D01*
X959751Y-383160D01*
X959566Y-382725D01*
X959371Y-382294D01*
X959165Y-381868D01*
X958948Y-381448D01*
X958722Y-381033D01*
X958485Y-380623D01*
X958239Y-380219D01*
X957983Y-379822D01*
X957717Y-379430D01*
X957442Y-379046D01*
X957157Y-378668D01*
X956864Y-378297D01*
X956561Y-377933D01*
X956250Y-377577D01*
X955930Y-377229D01*
X955602Y-376888D01*
X955265Y-376556D01*
X954921Y-376232D01*
X954569Y-375916D01*
X954209Y-375609D01*
X953842Y-375311D01*
X953467Y-375022D01*
X953086Y-374742D01*
X952698Y-374472D01*
X952303Y-374211D01*
X951903Y-373960D01*
X951496Y-373718D01*
X951084Y-373487D01*
X950666Y-373265D01*
X950242Y-373054D01*
X949814Y-372853D01*
X949381Y-372663D01*
X948944Y-372483D01*
X948502Y-372314D01*
X948056Y-372156D01*
X947607Y-372009D01*
X947154Y-371873D01*
X946697Y-371748D01*
X946238Y-371633D01*
X945777Y-371531D01*
X945313Y-371439D01*
X944847Y-371359D01*
X944379Y-371290D01*
X943909Y-371233D01*
X943438Y-371187D01*
X942967Y-371152D01*
X942494Y-371129D01*
X942021Y-371117D01*
X941549Y-371117D01*
X941076Y-371129D01*
X940603Y-371152D01*
X940132Y-371187D01*
X939661Y-371233D01*
X939191Y-371290D01*
X938723Y-371359D01*
X938257Y-371439D01*
X937793Y-371531D01*
X937332Y-371633D01*
X936873Y-371748D01*
X936416Y-371873D01*
X935963Y-372009D01*
X935514Y-372156D01*
X935068Y-372314D01*
X934626Y-372483D01*
X934189Y-372663D01*
X933756Y-372853D01*
X933328Y-373054D01*
X932904Y-373265D01*
X932486Y-373487D01*
X932074Y-373718D01*
X931667Y-373960D01*
X931267Y-374211D01*
X930872Y-374472D01*
X930484Y-374742D01*
X930103Y-375022D01*
X929728Y-375311D01*
X929361Y-375609D01*
X929001Y-375916D01*
X928649Y-376232D01*
X928305Y-376556D01*
X927968Y-376888D01*
X927640Y-377229D01*
X927320Y-377577D01*
X927009Y-377933D01*
X926706Y-378297D01*
X926413Y-378668D01*
X926128Y-379046D01*
X925853Y-379430D01*
X925587Y-379822D01*
X925331Y-380219D01*
X925085Y-380623D01*
X924848Y-381033D01*
X924622Y-381448D01*
X924405Y-381868D01*
X924199Y-382294D01*
X924004Y-382725D01*
X923819Y-383160D01*
X923645Y-383600D01*
X923481Y-384044D01*
X923328Y-384491D01*
X923186Y-384943D01*
X923056Y-385397D01*
X922936Y-385855D01*
X922828Y-386315D01*
X922730Y-386778D01*
X922645Y-387243D01*
X922570Y-387710D01*
X922507Y-388179D01*
X922455Y-388649D01*
X922415Y-389120D01*
X922386Y-389592D01*
X922369Y-390065D01*
X922363Y-390538D01*
X922369Y-391011D01*
X922386Y-391484D01*
X922415Y-391956D01*
X922455Y-392427D01*
X922507Y-392897D01*
X922570Y-393366D01*
X922645Y-393833D01*
X922730Y-394298D01*
X922828Y-394761D01*
X922936Y-395221D01*
X923056Y-395679D01*
X923186Y-396133D01*
X923328Y-396585D01*
X923481Y-397032D01*
X923645Y-397476D01*
X923819Y-397916D01*
X924004Y-398351D01*
X924199Y-398782D01*
X924405Y-399208D01*
X924622Y-399628D01*
X924848Y-400043D01*
X925085Y-400453D01*
X925331Y-400857D01*
X925587Y-401254D01*
X925853Y-401646D01*
X926128Y-402030D01*
X926413Y-402408D01*
X926706Y-402779D01*
X927009Y-403143D01*
X927320Y-403499D01*
X927640Y-403847D01*
X927968Y-404188D01*
X928305Y-404520D01*
X928649Y-404844D01*
X929001Y-405160D01*
X929361Y-405467D01*
X929728Y-405765D01*
X930103Y-406054D01*
X930484Y-406334D01*
X930872Y-406604D01*
X931267Y-406865D01*
X931667Y-407116D01*
X932074Y-407358D01*
X932486Y-407589D01*
X932904Y-407811D01*
X933328Y-408022D01*
X933756Y-408223D01*
X934189Y-408413D01*
X934626Y-408593D01*
X935068Y-408762D01*
X935514Y-408920D01*
X935963Y-409067D01*
X936416Y-409203D01*
X936873Y-409328D01*
X937332Y-409443D01*
X937793Y-409545D01*
X938257Y-409637D01*
X938723Y-409717D01*
X939191Y-409786D01*
X939661Y-409843D01*
X940132Y-409889D01*
X940603Y-409924D01*
X941076Y-409947D01*
X941549Y-409959D01*
X942021Y-409959D01*
X942494Y-409947D01*
X942967Y-409924D01*
X943438Y-409889D01*
X943909Y-409843D01*
X944379Y-409786D01*
X944847Y-409717D01*
X945313Y-409637D01*
X945777Y-409545D01*
X946238Y-409443D01*
X946697Y-409328D01*
X947154Y-409203D01*
X947607Y-409067D01*
X948056Y-408920D01*
X948502Y-408762D01*
X948944Y-408593D01*
X949381Y-408413D01*
X949814Y-408223D01*
X950242Y-408022D01*
X950666Y-407811D01*
X951084Y-407589D01*
X951496Y-407358D01*
X951903Y-407116D01*
X952303Y-406865D01*
X952698Y-406604D01*
X953086Y-406334D01*
X953467Y-406054D01*
X953842Y-405765D01*
X954209Y-405467D01*
X954569Y-405160D01*
X954921Y-404844D01*
X955265Y-404520D01*
X955602Y-404188D01*
X955930Y-403847D01*
X956250Y-403499D01*
X956561Y-403143D01*
X956864Y-402779D01*
X957157Y-402408D01*
X957442Y-402030D01*
X957717Y-401646D01*
X957983Y-401254D01*
X958239Y-400857D01*
X958485Y-400453D01*
X958722Y-400043D01*
X958948Y-399628D01*
X959165Y-399208D01*
X959371Y-398782D01*
X959566Y-398351D01*
X959751Y-397916D01*
X959925Y-397476D01*
X960089Y-397032D01*
X960242Y-396585D01*
X960384Y-396133D01*
X960514Y-395679D01*
X960634Y-395221D01*
X960742Y-394761D01*
X960840Y-394298D01*
X960925Y-393833D01*
X961000Y-393366D01*
X961063Y-392897D01*
X961115Y-392427D01*
X961155Y-391956D01*
X961184Y-391484D01*
X961201Y-391011D01*
X961207Y-390538D01*
X957323Y-355578D02*
X957318Y-355200D01*
X957305Y-354821D01*
X957282Y-354444D01*
X957249Y-354067D01*
X957208Y-353691D01*
X957157Y-353316D01*
X957098Y-352942D01*
X957029Y-352570D01*
X956951Y-352200D01*
X956865Y-351831D01*
X956769Y-351465D01*
X956664Y-351102D01*
X956551Y-350741D01*
X956429Y-350382D01*
X956298Y-350027D01*
X956158Y-349676D01*
X956010Y-349327D01*
X955854Y-348983D01*
X955689Y-348642D01*
X955516Y-348306D01*
X955335Y-347973D01*
X955146Y-347646D01*
X954949Y-347323D01*
X954744Y-347005D01*
X954531Y-346692D01*
X954311Y-346384D01*
X954083Y-346082D01*
X953848Y-345785D01*
X953606Y-345494D01*
X953357Y-345209D01*
X953101Y-344930D01*
X952839Y-344658D01*
X952570Y-344392D01*
X952294Y-344133D01*
X952012Y-343880D01*
X951724Y-343635D01*
X951430Y-343396D01*
X951131Y-343165D01*
X950826Y-342941D01*
X950516Y-342725D01*
X950200Y-342516D01*
X949879Y-342315D01*
X949554Y-342122D01*
X949224Y-341937D01*
X948890Y-341759D01*
X948551Y-341590D01*
X948208Y-341430D01*
X947862Y-341278D01*
X947512Y-341134D01*
X947159Y-340999D01*
X946802Y-340872D01*
X946442Y-340754D01*
X946080Y-340645D01*
X945715Y-340545D01*
X945348Y-340454D01*
X944979Y-340372D01*
X944607Y-340298D01*
X944234Y-340234D01*
X943860Y-340179D01*
X943484Y-340133D01*
X943108Y-340096D01*
X942730Y-340069D01*
X942352Y-340050D01*
X941974Y-340041D01*
X941596Y-340041D01*
X941218Y-340050D01*
X940840Y-340069D01*
X940462Y-340096D01*
X940086Y-340133D01*
X939710Y-340179D01*
X939336Y-340234D01*
X938963Y-340298D01*
X938591Y-340372D01*
X938222Y-340454D01*
X937855Y-340545D01*
X937490Y-340645D01*
X937128Y-340754D01*
X936768Y-340872D01*
X936411Y-340999D01*
X936058Y-341134D01*
X935708Y-341278D01*
X935362Y-341430D01*
X935019Y-341590D01*
X934680Y-341759D01*
X934346Y-341937D01*
X934016Y-342122D01*
X933691Y-342315D01*
X933370Y-342516D01*
X933054Y-342725D01*
X932744Y-342941D01*
X932439Y-343165D01*
X932140Y-343396D01*
X931846Y-343635D01*
X931558Y-343880D01*
X931276Y-344133D01*
X931000Y-344392D01*
X930731Y-344658D01*
X930469Y-344930D01*
X930213Y-345209D01*
X929964Y-345494D01*
X929722Y-345785D01*
X929487Y-346082D01*
X929259Y-346384D01*
X929039Y-346692D01*
X928826Y-347005D01*
X928621Y-347323D01*
X928424Y-347646D01*
X928235Y-347973D01*
X928054Y-348306D01*
X927881Y-348642D01*
X927716Y-348983D01*
X927560Y-349327D01*
X927412Y-349676D01*
X927272Y-350027D01*
X927141Y-350382D01*
X927019Y-350741D01*
X926906Y-351102D01*
X926801Y-351465D01*
X926705Y-351831D01*
X926619Y-352200D01*
X926541Y-352570D01*
X926472Y-352942D01*
X926413Y-353316D01*
X926362Y-353691D01*
X926321Y-354067D01*
X926288Y-354444D01*
X926265Y-354821D01*
X926252Y-355200D01*
X926247Y-355578D01*
X926252Y-355956D01*
X926265Y-356335D01*
X926288Y-356712D01*
X926321Y-357089D01*
X926362Y-357465D01*
X926413Y-357840D01*
X926472Y-358214D01*
X926541Y-358586D01*
X926619Y-358956D01*
X926705Y-359325D01*
X926801Y-359691D01*
X926906Y-360054D01*
X927019Y-360415D01*
X927141Y-360774D01*
X927272Y-361129D01*
X927412Y-361480D01*
X927560Y-361829D01*
X927716Y-362173D01*
X927881Y-362514D01*
X928054Y-362850D01*
X928235Y-363183D01*
X928424Y-363510D01*
X928621Y-363833D01*
X928826Y-364151D01*
X929039Y-364464D01*
X929259Y-364772D01*
X929487Y-365074D01*
X929722Y-365371D01*
X929964Y-365662D01*
X930213Y-365947D01*
X930469Y-366226D01*
X930731Y-366498D01*
X931000Y-366764D01*
X931276Y-367023D01*
X931558Y-367276D01*
X931846Y-367521D01*
X932140Y-367760D01*
X932439Y-367991D01*
X932744Y-368215D01*
X933054Y-368431D01*
X933370Y-368640D01*
X933691Y-368841D01*
X934016Y-369034D01*
X934346Y-369219D01*
X934680Y-369397D01*
X935019Y-369566D01*
X935362Y-369726D01*
X935708Y-369878D01*
X936058Y-370022D01*
X936411Y-370157D01*
X936768Y-370284D01*
X937128Y-370402D01*
X937490Y-370511D01*
X937855Y-370611D01*
X938222Y-370702D01*
X938591Y-370784D01*
X938963Y-370858D01*
X939336Y-370922D01*
X939710Y-370977D01*
X940086Y-371023D01*
X940462Y-371060D01*
X940840Y-371087D01*
X941218Y-371106D01*
X941596Y-371115D01*
X941974Y-371115D01*
X942352Y-371106D01*
X942730Y-371087D01*
X943108Y-371060D01*
X943484Y-371023D01*
X943860Y-370977D01*
X944234Y-370922D01*
X944607Y-370858D01*
X944979Y-370784D01*
X945348Y-370702D01*
X945715Y-370611D01*
X946080Y-370511D01*
X946442Y-370402D01*
X946802Y-370284D01*
X947159Y-370157D01*
X947512Y-370022D01*
X947862Y-369878D01*
X948208Y-369726D01*
X948551Y-369566D01*
X948890Y-369397D01*
X949224Y-369219D01*
X949554Y-369034D01*
X949879Y-368841D01*
X950200Y-368640D01*
X950516Y-368431D01*
X950826Y-368215D01*
X951131Y-367991D01*
X951430Y-367760D01*
X951724Y-367521D01*
X952012Y-367276D01*
X952294Y-367023D01*
X952570Y-366764D01*
X952839Y-366498D01*
X953101Y-366226D01*
X953357Y-365947D01*
X953606Y-365662D01*
X953848Y-365371D01*
X954083Y-365074D01*
X954311Y-364772D01*
X954531Y-364464D01*
X954744Y-364151D01*
X954949Y-363833D01*
X955146Y-363510D01*
X955335Y-363183D01*
X955516Y-362850D01*
X955689Y-362514D01*
X955854Y-362173D01*
X956010Y-361829D01*
X956158Y-361480D01*
X956298Y-361129D01*
X956429Y-360774D01*
X956551Y-360415D01*
X956664Y-360054D01*
X956769Y-359691D01*
X956865Y-359325D01*
X956951Y-358956D01*
X957029Y-358586D01*
X957098Y-358214D01*
X957157Y-357840D01*
X957208Y-357465D01*
X957249Y-357089D01*
X957282Y-356712D01*
X957305Y-356335D01*
X957318Y-355956D01*
X957323Y-355578D01*
D12*
X1040000Y-80000D02*
X1040000Y80000D01*
X720000Y80000D02*
X720000Y-80000D01*
D11*
X684960Y-60952D02*
X615040Y-60952D01*
X615040Y-68720D02*
X615040Y-53183D01*
X684960Y-53183D02*
X684960Y-68720D01*
X615040Y-11017D02*
X615040Y4521D01*
X615040Y-11017D02*
X615045Y-11392D01*
X615058Y-11768D01*
X615081Y-12142D01*
X615113Y-12517D01*
X615153Y-12890D01*
X615203Y-13262D01*
X615262Y-13633D01*
X615329Y-14002D01*
X615406Y-14370D01*
X615492Y-14735D01*
X615586Y-15099D01*
X615689Y-15460D01*
X615800Y-15819D01*
X615921Y-16174D01*
X616050Y-16527D01*
X616187Y-16876D01*
X616333Y-17222D01*
X616487Y-17565D01*
X616649Y-17903D01*
X616820Y-18238D01*
X616998Y-18568D01*
X617185Y-18894D01*
X617379Y-19215D01*
X617581Y-19532D01*
X617790Y-19844D01*
X618007Y-20150D01*
X618232Y-20451D01*
X618463Y-20747D01*
X618702Y-21037D01*
X618948Y-21321D01*
X619200Y-21599D01*
X619459Y-21870D01*
X619725Y-22136D01*
X619996Y-22395D01*
X620274Y-22647D01*
X620558Y-22893D01*
X620848Y-23132D01*
X621144Y-23363D01*
X621445Y-23588D01*
X621751Y-23805D01*
X622063Y-24014D01*
X622380Y-24216D01*
X622701Y-24410D01*
X623027Y-24597D01*
X623357Y-24775D01*
X623692Y-24946D01*
X624030Y-25108D01*
X624373Y-25262D01*
X624719Y-25408D01*
X625068Y-25545D01*
X625421Y-25674D01*
X625776Y-25795D01*
X626135Y-25906D01*
X626496Y-26009D01*
X626860Y-26103D01*
X627225Y-26189D01*
X627593Y-26266D01*
X627962Y-26333D01*
X628333Y-26392D01*
X628705Y-26442D01*
X629078Y-26482D01*
X629453Y-26514D01*
X629827Y-26537D01*
X630203Y-26550D01*
X630578Y-26555D01*
X669422Y-26555D01*
X669803Y-26550D01*
X670184Y-26536D01*
X670565Y-26513D01*
X670945Y-26480D01*
X671324Y-26438D01*
X671702Y-26387D01*
X672078Y-26326D01*
X672453Y-26256D01*
X672826Y-26177D01*
X673197Y-26089D01*
X673566Y-25992D01*
X673932Y-25886D01*
X674296Y-25771D01*
X674657Y-25647D01*
X675014Y-25514D01*
X675368Y-25372D01*
X675719Y-25222D01*
X676065Y-25063D01*
X676408Y-24896D01*
X676746Y-24720D01*
X677081Y-24536D01*
X677410Y-24344D01*
X677735Y-24144D01*
X678054Y-23936D01*
X678369Y-23721D01*
X678678Y-23497D01*
X678981Y-23266D01*
X679279Y-23028D01*
X679571Y-22783D01*
X679857Y-22530D01*
X680136Y-22270D01*
X680409Y-22004D01*
X680675Y-21731D01*
X680935Y-21452D01*
X681187Y-21166D01*
X681433Y-20874D01*
X681671Y-20577D01*
X681902Y-20273D01*
X682126Y-19964D01*
X682341Y-19650D01*
X682549Y-19330D01*
X682749Y-19005D01*
X682941Y-18676D01*
X683125Y-18342D01*
X683301Y-18003D01*
X683468Y-17661D01*
X683627Y-17314D01*
X683777Y-16963D01*
X683919Y-16609D01*
X684052Y-16252D01*
X684176Y-15891D01*
X684291Y-15528D01*
X684397Y-15161D01*
X684494Y-14793D01*
X684582Y-14422D01*
X684661Y-14049D01*
X684731Y-13674D01*
X684792Y-13297D01*
X684843Y-12919D01*
X684885Y-12540D01*
X684918Y-12160D01*
X684941Y-11780D01*
X684955Y-11399D01*
X684960Y-11017D01*
X684960Y4521D01*
X684960Y29876D02*
X677191Y29876D01*
X684960Y29876D02*
X684960Y68721D01*
X615040Y49298D01*
D12*
X675000Y-600000D02*
X675000Y-800000D01*
X475000Y-800000D02*
X475000Y-600000D01*
D11*
X734462Y-752478D02*
X765538Y-752478D01*
X766011Y-752472D01*
X766484Y-752455D01*
X766956Y-752426D01*
X767427Y-752386D01*
X767897Y-752334D01*
X768366Y-752271D01*
X768833Y-752196D01*
X769298Y-752111D01*
X769761Y-752013D01*
X770221Y-751905D01*
X770679Y-751785D01*
X771133Y-751655D01*
X771585Y-751513D01*
X772032Y-751360D01*
X772476Y-751196D01*
X772916Y-751022D01*
X773351Y-750837D01*
X773782Y-750642D01*
X774208Y-750436D01*
X774628Y-750219D01*
X775043Y-749993D01*
X775453Y-749756D01*
X775857Y-749510D01*
X776254Y-749254D01*
X776646Y-748988D01*
X777030Y-748713D01*
X777408Y-748428D01*
X777779Y-748135D01*
X778143Y-747832D01*
X778499Y-747521D01*
X778847Y-747201D01*
X779188Y-746873D01*
X779520Y-746536D01*
X779844Y-746192D01*
X780160Y-745840D01*
X780467Y-745480D01*
X780765Y-745113D01*
X781054Y-744738D01*
X781334Y-744357D01*
X781604Y-743969D01*
X781865Y-743574D01*
X782116Y-743174D01*
X782358Y-742767D01*
X782589Y-742355D01*
X782811Y-741937D01*
X783022Y-741513D01*
X783223Y-741085D01*
X783413Y-740652D01*
X783593Y-740215D01*
X783762Y-739773D01*
X783920Y-739327D01*
X784067Y-738878D01*
X784203Y-738425D01*
X784328Y-737968D01*
X784443Y-737509D01*
X784545Y-737048D01*
X784637Y-736584D01*
X784717Y-736118D01*
X784786Y-735650D01*
X784843Y-735180D01*
X784889Y-734709D01*
X784924Y-734238D01*
X784947Y-733765D01*
X784959Y-733292D01*
X784959Y-732820D01*
X784947Y-732347D01*
X784924Y-731874D01*
X784889Y-731403D01*
X784843Y-730932D01*
X784786Y-730462D01*
X784717Y-729994D01*
X784637Y-729528D01*
X784545Y-729064D01*
X784443Y-728603D01*
X784328Y-728144D01*
X784203Y-727687D01*
X784067Y-727234D01*
X783920Y-726785D01*
X783762Y-726339D01*
X783593Y-725897D01*
X783413Y-725460D01*
X783223Y-725027D01*
X783022Y-724599D01*
X782811Y-724175D01*
X782589Y-723757D01*
X782358Y-723345D01*
X782116Y-722938D01*
X781865Y-722538D01*
X781604Y-722143D01*
X781334Y-721755D01*
X781054Y-721374D01*
X780765Y-720999D01*
X780467Y-720632D01*
X780160Y-720272D01*
X779844Y-719920D01*
X779520Y-719576D01*
X779188Y-719239D01*
X778847Y-718911D01*
X778499Y-718591D01*
X778143Y-718280D01*
X777779Y-717977D01*
X777408Y-717684D01*
X777030Y-717399D01*
X776646Y-717124D01*
X776254Y-716858D01*
X775857Y-716602D01*
X775453Y-716356D01*
X775043Y-716119D01*
X774628Y-715893D01*
X774208Y-715676D01*
X773782Y-715470D01*
X773351Y-715275D01*
X772916Y-715090D01*
X772476Y-714916D01*
X772032Y-714752D01*
X771585Y-714599D01*
X771133Y-714457D01*
X770679Y-714327D01*
X770221Y-714207D01*
X769761Y-714099D01*
X769298Y-714001D01*
X768833Y-713916D01*
X768366Y-713841D01*
X767897Y-713778D01*
X767427Y-713726D01*
X766956Y-713686D01*
X766484Y-713657D01*
X766011Y-713640D01*
X765538Y-713634D01*
X734462Y-713634D01*
X733989Y-713640D01*
X733516Y-713657D01*
X733044Y-713686D01*
X732573Y-713726D01*
X732103Y-713778D01*
X731634Y-713841D01*
X731167Y-713916D01*
X730702Y-714001D01*
X730239Y-714099D01*
X729779Y-714207D01*
X729321Y-714327D01*
X728867Y-714457D01*
X728415Y-714599D01*
X727968Y-714752D01*
X727524Y-714916D01*
X727084Y-715090D01*
X726649Y-715275D01*
X726218Y-715470D01*
X725792Y-715676D01*
X725372Y-715893D01*
X724957Y-716119D01*
X724547Y-716356D01*
X724143Y-716602D01*
X723746Y-716858D01*
X723354Y-717124D01*
X722970Y-717399D01*
X722592Y-717684D01*
X722221Y-717977D01*
X721857Y-718280D01*
X721501Y-718591D01*
X721153Y-718911D01*
X720812Y-719239D01*
X720480Y-719576D01*
X720156Y-719920D01*
X719840Y-720272D01*
X719533Y-720632D01*
X719235Y-720999D01*
X718946Y-721374D01*
X718666Y-721755D01*
X718396Y-722143D01*
X718135Y-722538D01*
X717884Y-722938D01*
X717642Y-723345D01*
X717411Y-723757D01*
X717189Y-724175D01*
X716978Y-724599D01*
X716777Y-725027D01*
X716587Y-725460D01*
X716407Y-725897D01*
X716238Y-726339D01*
X716080Y-726785D01*
X715933Y-727234D01*
X715797Y-727687D01*
X715672Y-728144D01*
X715557Y-728603D01*
X715455Y-729064D01*
X715363Y-729528D01*
X715283Y-729994D01*
X715214Y-730462D01*
X715157Y-730932D01*
X715111Y-731403D01*
X715076Y-731874D01*
X715053Y-732347D01*
X715041Y-732820D01*
X715041Y-733292D01*
X715053Y-733765D01*
X715076Y-734238D01*
X715111Y-734709D01*
X715157Y-735180D01*
X715214Y-735650D01*
X715283Y-736118D01*
X715363Y-736584D01*
X715455Y-737048D01*
X715557Y-737509D01*
X715672Y-737968D01*
X715797Y-738425D01*
X715933Y-738878D01*
X716080Y-739327D01*
X716238Y-739773D01*
X716407Y-740215D01*
X716587Y-740652D01*
X716777Y-741085D01*
X716978Y-741513D01*
X717189Y-741937D01*
X717411Y-742355D01*
X717642Y-742767D01*
X717884Y-743174D01*
X718135Y-743574D01*
X718396Y-743969D01*
X718666Y-744357D01*
X718946Y-744738D01*
X719235Y-745113D01*
X719533Y-745480D01*
X719840Y-745840D01*
X720156Y-746192D01*
X720480Y-746536D01*
X720812Y-746873D01*
X721153Y-747201D01*
X721501Y-747521D01*
X721857Y-747832D01*
X722221Y-748135D01*
X722592Y-748428D01*
X722970Y-748713D01*
X723354Y-748988D01*
X723746Y-749254D01*
X724143Y-749510D01*
X724547Y-749756D01*
X724957Y-749993D01*
X725372Y-750219D01*
X725792Y-750436D01*
X726218Y-750642D01*
X726649Y-750837D01*
X727084Y-751022D01*
X727524Y-751196D01*
X727968Y-751360D01*
X728415Y-751513D01*
X728867Y-751655D01*
X729321Y-751785D01*
X729779Y-751905D01*
X730239Y-752013D01*
X730702Y-752111D01*
X731167Y-752196D01*
X731634Y-752271D01*
X732103Y-752334D01*
X732573Y-752386D01*
X733044Y-752426D01*
X733516Y-752455D01*
X733989Y-752472D01*
X734462Y-752478D01*
X730578Y-721403D02*
X715040Y-705865D01*
X767480Y-647522D02*
X767902Y-647527D01*
X768325Y-647542D01*
X768746Y-647568D01*
X769167Y-647604D01*
X769587Y-647649D01*
X770006Y-647705D01*
X770423Y-647772D01*
X770838Y-647848D01*
X771252Y-647934D01*
X771663Y-648030D01*
X772072Y-648136D01*
X772478Y-648252D01*
X772882Y-648378D01*
X773282Y-648513D01*
X773678Y-648658D01*
X774072Y-648812D01*
X774461Y-648976D01*
X774846Y-649150D01*
X775227Y-649332D01*
X775603Y-649524D01*
X775975Y-649725D01*
X776342Y-649935D01*
X776703Y-650153D01*
X777059Y-650381D01*
X777410Y-650616D01*
X777754Y-650860D01*
X778093Y-651113D01*
X778426Y-651373D01*
X778752Y-651642D01*
X779071Y-651918D01*
X779384Y-652202D01*
X779690Y-652493D01*
X779989Y-652792D01*
X780280Y-653098D01*
X780564Y-653411D01*
X780840Y-653730D01*
X781109Y-654056D01*
X781369Y-654389D01*
X781622Y-654728D01*
X781866Y-655072D01*
X782101Y-655423D01*
X782329Y-655779D01*
X782547Y-656140D01*
X782757Y-656507D01*
X782958Y-656879D01*
X783150Y-657255D01*
X783332Y-657636D01*
X783506Y-658021D01*
X783670Y-658410D01*
X783824Y-658804D01*
X783969Y-659200D01*
X784104Y-659600D01*
X784230Y-660004D01*
X784346Y-660410D01*
X784452Y-660819D01*
X784548Y-661230D01*
X784634Y-661644D01*
X784710Y-662059D01*
X784777Y-662476D01*
X784833Y-662895D01*
X784878Y-663315D01*
X784914Y-663736D01*
X784940Y-664157D01*
X784955Y-664580D01*
X784960Y-665002D01*
X784953Y-665545D01*
X784934Y-666088D01*
X784901Y-666630D01*
X784855Y-667171D01*
X784796Y-667711D01*
X784724Y-668249D01*
X784639Y-668786D01*
X784541Y-669320D01*
X784430Y-669852D01*
X784306Y-670380D01*
X784170Y-670906D01*
X784021Y-671428D01*
X783859Y-671947D01*
X783685Y-672461D01*
X783498Y-672971D01*
X783300Y-673477D01*
X783089Y-673977D01*
X782866Y-674472D01*
X782631Y-674962D01*
X782384Y-675446D01*
X782125Y-675923D01*
X781856Y-676395D01*
X781574Y-676859D01*
X781282Y-677317D01*
X780979Y-677768D01*
X780665Y-678211D01*
X780340Y-678646D01*
X780005Y-679073D01*
X779659Y-679492D01*
X779304Y-679903D01*
X778939Y-680305D01*
X778564Y-680698D01*
X778180Y-681082D01*
X777786Y-681456D01*
X777384Y-681821D01*
X776973Y-682176D01*
X776553Y-682521D01*
X776126Y-682855D01*
X775690Y-683180D01*
X775246Y-683493D01*
X774796Y-683796D01*
X774337Y-684088D01*
X773872Y-684368D01*
X773401Y-684638D01*
X772923Y-684895D01*
X772439Y-685141D01*
X771949Y-685376D01*
X771453Y-685598D01*
X770953Y-685809D01*
X770447Y-686007D01*
X769937Y-686193D01*
X769422Y-686367D01*
X753885Y-653349D02*
X754206Y-653019D01*
X754536Y-652697D01*
X754874Y-652384D01*
X755219Y-652079D01*
X755572Y-651782D01*
X755931Y-651494D01*
X756298Y-651215D01*
X756671Y-650946D01*
X757051Y-650685D01*
X757437Y-650434D01*
X757830Y-650192D01*
X758228Y-649960D01*
X758631Y-649738D01*
X759040Y-649526D01*
X759454Y-649324D01*
X759873Y-649132D01*
X760297Y-648951D01*
X760724Y-648780D01*
X761156Y-648619D01*
X761592Y-648469D01*
X762031Y-648330D01*
X762474Y-648202D01*
X762919Y-648084D01*
X763367Y-647978D01*
X763818Y-647883D01*
X764271Y-647798D01*
X764726Y-647725D01*
X765182Y-647663D01*
X765640Y-647612D01*
X766099Y-647573D01*
X766559Y-647545D01*
X767019Y-647528D01*
X767480Y-647522D01*
X753884Y-653348D02*
X715040Y-686366D01*
X715040Y-647522D01*
D12*
X-325000Y595000D02*
X-325000Y795000D01*
X-525000Y795000D01*
X-525000Y595000D01*
X-325000Y595000D01*
D11*
X-338279Y840040D02*
X-338279Y909960D01*
X-357701Y909960D01*
X-357701Y909961D02*
X-358174Y909955D01*
X-358647Y909938D01*
X-359119Y909909D01*
X-359590Y909869D01*
X-360060Y909817D01*
X-360529Y909754D01*
X-360996Y909679D01*
X-361461Y909594D01*
X-361924Y909496D01*
X-362385Y909388D01*
X-362842Y909268D01*
X-363297Y909137D01*
X-363748Y908996D01*
X-364196Y908843D01*
X-364639Y908679D01*
X-365079Y908505D01*
X-365515Y908320D01*
X-365945Y908125D01*
X-366371Y907919D01*
X-366792Y907702D01*
X-367207Y907476D01*
X-367617Y907239D01*
X-368020Y906993D01*
X-368418Y906737D01*
X-368809Y906471D01*
X-369194Y906196D01*
X-369572Y905911D01*
X-369943Y905618D01*
X-370306Y905315D01*
X-370662Y905004D01*
X-371011Y904684D01*
X-371351Y904355D01*
X-371684Y904019D01*
X-372008Y903675D01*
X-372323Y903322D01*
X-372630Y902962D01*
X-372929Y902595D01*
X-373218Y902221D01*
X-373498Y901839D01*
X-373768Y901451D01*
X-374029Y901057D01*
X-374280Y900656D01*
X-374522Y900250D01*
X-374753Y899837D01*
X-374975Y899419D01*
X-375186Y898996D01*
X-375387Y898567D01*
X-375577Y898134D01*
X-375757Y897697D01*
X-375926Y897255D01*
X-376084Y896809D01*
X-376231Y896360D01*
X-376367Y895907D01*
X-376492Y895451D01*
X-376606Y894992D01*
X-376709Y894530D01*
X-376801Y894066D01*
X-376881Y893600D01*
X-376950Y893132D01*
X-377007Y892662D01*
X-377053Y892192D01*
X-377088Y891720D01*
X-377111Y891247D01*
X-377123Y890775D01*
X-377123Y890301D01*
X-377111Y889829D01*
X-377088Y889356D01*
X-377053Y888884D01*
X-377007Y888414D01*
X-376950Y887944D01*
X-376881Y887476D01*
X-376801Y887010D01*
X-376709Y886546D01*
X-376606Y886084D01*
X-376492Y885625D01*
X-376367Y885169D01*
X-376231Y884716D01*
X-376084Y884267D01*
X-375926Y883821D01*
X-375757Y883379D01*
X-375577Y882942D01*
X-375387Y882509D01*
X-375186Y882080D01*
X-374975Y881657D01*
X-374753Y881239D01*
X-374522Y880826D01*
X-374280Y880420D01*
X-374029Y880019D01*
X-373768Y879625D01*
X-373498Y879237D01*
X-373218Y878855D01*
X-372929Y878481D01*
X-372630Y878114D01*
X-372323Y877754D01*
X-372008Y877401D01*
X-371684Y877057D01*
X-371351Y876721D01*
X-371011Y876392D01*
X-370662Y876072D01*
X-370306Y875761D01*
X-369943Y875458D01*
X-369572Y875165D01*
X-369194Y874880D01*
X-368809Y874605D01*
X-368418Y874339D01*
X-368020Y874083D01*
X-367617Y873837D01*
X-367207Y873600D01*
X-366792Y873374D01*
X-366371Y873157D01*
X-365945Y872951D01*
X-365515Y872756D01*
X-365079Y872571D01*
X-364639Y872397D01*
X-364196Y872233D01*
X-363748Y872080D01*
X-363297Y871939D01*
X-362842Y871808D01*
X-362385Y871688D01*
X-361924Y871580D01*
X-361461Y871482D01*
X-360996Y871397D01*
X-360529Y871322D01*
X-360060Y871259D01*
X-359590Y871207D01*
X-359119Y871167D01*
X-358647Y871138D01*
X-358174Y871121D01*
X-357701Y871115D01*
X-338279Y871115D01*
X-361585Y871115D02*
X-377123Y840040D01*
X-405377Y894422D02*
X-424799Y909960D01*
X-424799Y840040D01*
X-405377Y840040D02*
X-444222Y840040D01*
X-472877Y840040D02*
X-492299Y840040D01*
X-492772Y840046D01*
X-493245Y840063D01*
X-493717Y840092D01*
X-494188Y840132D01*
X-494658Y840184D01*
X-495127Y840247D01*
X-495594Y840322D01*
X-496059Y840407D01*
X-496522Y840505D01*
X-496982Y840613D01*
X-497440Y840733D01*
X-497894Y840863D01*
X-498346Y841005D01*
X-498793Y841158D01*
X-499237Y841322D01*
X-499677Y841496D01*
X-500112Y841681D01*
X-500543Y841876D01*
X-500969Y842082D01*
X-501389Y842299D01*
X-501804Y842525D01*
X-502214Y842762D01*
X-502618Y843008D01*
X-503015Y843264D01*
X-503407Y843530D01*
X-503791Y843805D01*
X-504169Y844090D01*
X-504540Y844383D01*
X-504904Y844686D01*
X-505260Y844997D01*
X-505608Y845317D01*
X-505949Y845645D01*
X-506281Y845982D01*
X-506605Y846326D01*
X-506921Y846678D01*
X-507228Y847038D01*
X-507526Y847405D01*
X-507815Y847780D01*
X-508095Y848161D01*
X-508365Y848549D01*
X-508626Y848944D01*
X-508877Y849344D01*
X-509119Y849751D01*
X-509350Y850163D01*
X-509572Y850581D01*
X-509783Y851005D01*
X-509984Y851433D01*
X-510174Y851866D01*
X-510354Y852303D01*
X-510523Y852745D01*
X-510681Y853191D01*
X-510828Y853640D01*
X-510964Y854093D01*
X-511089Y854550D01*
X-511204Y855009D01*
X-511306Y855470D01*
X-511398Y855934D01*
X-511478Y856400D01*
X-511547Y856868D01*
X-511604Y857338D01*
X-511650Y857809D01*
X-511685Y858280D01*
X-511708Y858753D01*
X-511720Y859226D01*
X-511720Y859698D01*
X-511708Y860171D01*
X-511685Y860644D01*
X-511650Y861115D01*
X-511604Y861586D01*
X-511547Y862056D01*
X-511478Y862524D01*
X-511398Y862990D01*
X-511306Y863454D01*
X-511204Y863915D01*
X-511089Y864374D01*
X-510964Y864831D01*
X-510828Y865284D01*
X-510681Y865733D01*
X-510523Y866179D01*
X-510354Y866621D01*
X-510174Y867058D01*
X-509984Y867491D01*
X-509783Y867919D01*
X-509572Y868343D01*
X-509350Y868761D01*
X-509119Y869173D01*
X-508877Y869580D01*
X-508626Y869980D01*
X-508365Y870375D01*
X-508095Y870763D01*
X-507815Y871144D01*
X-507526Y871519D01*
X-507228Y871886D01*
X-506921Y872246D01*
X-506605Y872598D01*
X-506281Y872942D01*
X-505949Y873279D01*
X-505608Y873607D01*
X-505260Y873927D01*
X-504904Y874238D01*
X-504540Y874541D01*
X-504169Y874834D01*
X-503791Y875119D01*
X-503407Y875394D01*
X-503015Y875660D01*
X-502618Y875916D01*
X-502214Y876162D01*
X-501804Y876399D01*
X-501389Y876625D01*
X-500969Y876842D01*
X-500543Y877048D01*
X-500112Y877243D01*
X-499677Y877428D01*
X-499237Y877602D01*
X-498793Y877766D01*
X-498346Y877919D01*
X-497894Y878061D01*
X-497440Y878191D01*
X-496982Y878311D01*
X-496522Y878419D01*
X-496059Y878517D01*
X-495594Y878602D01*
X-495127Y878677D01*
X-494658Y878740D01*
X-494188Y878792D01*
X-493717Y878832D01*
X-493245Y878861D01*
X-492772Y878878D01*
X-492299Y878884D01*
X-496184Y909960D02*
X-472877Y909960D01*
X-496184Y909960D02*
X-496562Y909955D01*
X-496941Y909942D01*
X-497318Y909919D01*
X-497695Y909886D01*
X-498071Y909845D01*
X-498446Y909794D01*
X-498820Y909735D01*
X-499192Y909666D01*
X-499562Y909588D01*
X-499931Y909502D01*
X-500297Y909406D01*
X-500660Y909301D01*
X-501021Y909188D01*
X-501380Y909066D01*
X-501735Y908935D01*
X-502086Y908795D01*
X-502435Y908647D01*
X-502779Y908491D01*
X-503120Y908326D01*
X-503456Y908153D01*
X-503789Y907972D01*
X-504116Y907783D01*
X-504439Y907586D01*
X-504757Y907381D01*
X-505070Y907168D01*
X-505378Y906948D01*
X-505680Y906720D01*
X-505977Y906485D01*
X-506268Y906243D01*
X-506553Y905994D01*
X-506832Y905738D01*
X-507104Y905476D01*
X-507370Y905207D01*
X-507629Y904931D01*
X-507882Y904649D01*
X-508127Y904361D01*
X-508366Y904067D01*
X-508597Y903768D01*
X-508821Y903463D01*
X-509037Y903153D01*
X-509246Y902837D01*
X-509447Y902516D01*
X-509640Y902191D01*
X-509825Y901861D01*
X-510003Y901527D01*
X-510172Y901188D01*
X-510332Y900845D01*
X-510484Y900499D01*
X-510628Y900149D01*
X-510763Y899796D01*
X-510890Y899439D01*
X-511008Y899079D01*
X-511117Y898717D01*
X-511217Y898352D01*
X-511308Y897985D01*
X-511390Y897616D01*
X-511464Y897244D01*
X-511528Y896871D01*
X-511583Y896497D01*
X-511629Y896121D01*
X-511666Y895745D01*
X-511693Y895367D01*
X-511712Y894989D01*
X-511721Y894611D01*
X-511721Y894233D01*
X-511712Y893855D01*
X-511693Y893477D01*
X-511666Y893099D01*
X-511629Y892723D01*
X-511583Y892347D01*
X-511528Y891973D01*
X-511464Y891600D01*
X-511390Y891228D01*
X-511308Y890859D01*
X-511217Y890492D01*
X-511117Y890127D01*
X-511008Y889765D01*
X-510890Y889405D01*
X-510763Y889048D01*
X-510628Y888695D01*
X-510484Y888345D01*
X-510332Y887999D01*
X-510172Y887656D01*
X-510003Y887317D01*
X-509825Y886983D01*
X-509640Y886653D01*
X-509447Y886328D01*
X-509246Y886007D01*
X-509037Y885691D01*
X-508821Y885381D01*
X-508597Y885076D01*
X-508366Y884777D01*
X-508127Y884483D01*
X-507882Y884195D01*
X-507629Y883913D01*
X-507370Y883637D01*
X-507104Y883368D01*
X-506832Y883106D01*
X-506553Y882850D01*
X-506268Y882601D01*
X-505977Y882359D01*
X-505680Y882124D01*
X-505378Y881896D01*
X-505070Y881676D01*
X-504757Y881463D01*
X-504439Y881258D01*
X-504116Y881061D01*
X-503789Y880872D01*
X-503456Y880691D01*
X-503120Y880518D01*
X-502779Y880353D01*
X-502435Y880197D01*
X-502086Y880049D01*
X-501735Y879909D01*
X-501380Y879778D01*
X-501021Y879656D01*
X-500660Y879543D01*
X-500297Y879438D01*
X-499931Y879342D01*
X-499562Y879256D01*
X-499192Y879178D01*
X-498820Y879109D01*
X-498446Y879050D01*
X-498071Y878999D01*
X-497695Y878958D01*
X-497318Y878925D01*
X-496941Y878902D01*
X-496562Y878889D01*
X-496184Y878884D01*
X-480646Y878884D01*
M02*
