G04 EAGLE Gerber RS-274X export*
G75*
%MOMM*%
%FSLAX35Y35*%
%LPD*%
%INcopper_top*%
%IPPOS*%
%AMOC8*
5,1,8,0,0,1.08239X$1,22.5*%
G01*
%ADD10C,0.010000*%
%ADD11R,0.700000X0.900000*%
%ADD12R,1.500000X1.500000*%
%ADD13R,0.250000X0.800000*%
%ADD14R,0.800000X0.250000*%
%ADD15R,0.550000X0.250000*%
%ADD16R,0.250000X0.550000*%
%ADD17R,2.300000X1.500000*%
%ADD18R,0.460000X0.710000*%
%ADD19R,2.700000X1.800000*%
%ADD20R,1.300000X1.500000*%
%ADD21R,1.600000X1.400000*%
%ADD22R,0.700000X0.300000*%
%ADD23R,1.000000X0.600000*%
%ADD24R,0.700000X0.600000*%
%ADD25C,1.800000*%
%ADD26R,0.600000X1.200000*%
%ADD27R,0.300000X0.650000*%
%ADD28C,0.553200*%
%ADD29C,0.254000*%
%ADD30C,0.508000*%
%ADD31C,0.300000*%
%ADD32C,0.250000*%
%ADD33C,0.500000*%
%ADD34C,0.450000*%

G36*
X-337907Y-987593D02*
X-337907Y-987593D01*
X-337710Y-987615D01*
X-336850Y-987429D01*
X-335978Y-987323D01*
X-335830Y-987253D01*
X-335671Y-987227D01*
X-335499Y-987136D01*
X-335305Y-987094D01*
X-334551Y-986644D01*
X-333756Y-986266D01*
X-333638Y-986152D01*
X-333496Y-986077D01*
X-333361Y-985935D01*
X-333192Y-985834D01*
X-332619Y-985166D01*
X-331987Y-984554D01*
X-331913Y-984410D01*
X-331801Y-984293D01*
X-331718Y-984115D01*
X-331590Y-983966D01*
X-331260Y-983148D01*
X-330856Y-982369D01*
X-330832Y-982208D01*
X-330763Y-982062D01*
X-330741Y-981867D01*
X-330668Y-981684D01*
X-330480Y-980006D01*
X-330480Y-853025D01*
X-330596Y-852318D01*
X-330614Y-851603D01*
X-330793Y-851112D01*
X-330878Y-850596D01*
X-331212Y-849964D01*
X-331458Y-849291D01*
X-331784Y-848883D01*
X-332028Y-848421D01*
X-332548Y-847928D01*
X-332994Y-847369D01*
X-333433Y-847087D01*
X-333812Y-846726D01*
X-334463Y-846423D01*
X-335063Y-846037D01*
X-335570Y-845908D01*
X-336043Y-845688D01*
X-336755Y-845609D01*
X-337449Y-845433D01*
X-337970Y-845473D01*
X-338489Y-845415D01*
X-339188Y-845567D01*
X-339903Y-845622D01*
X-340384Y-845826D01*
X-340894Y-845936D01*
X-341509Y-846303D01*
X-342168Y-846583D01*
X-342728Y-847030D01*
X-343008Y-847197D01*
X-343162Y-847377D01*
X-343488Y-847637D01*
X-363256Y-867406D01*
X-403318Y-884000D01*
X-446682Y-884000D01*
X-486743Y-867406D01*
X-517406Y-836743D01*
X-534000Y-796682D01*
X-534000Y-752046D01*
X-534074Y-751595D01*
X-534055Y-751138D01*
X-534272Y-750388D01*
X-534398Y-749618D01*
X-534611Y-749215D01*
X-534738Y-748774D01*
X-535184Y-748132D01*
X-535548Y-747443D01*
X-535880Y-747128D01*
X-536140Y-746752D01*
X-536765Y-746286D01*
X-537332Y-745748D01*
X-537747Y-745554D01*
X-538113Y-745282D01*
X-538856Y-745039D01*
X-539563Y-744710D01*
X-540018Y-744659D01*
X-540453Y-744517D01*
X-541233Y-744523D01*
X-542009Y-744437D01*
X-542456Y-744534D01*
X-542913Y-744538D01*
X-544223Y-744916D01*
X-544414Y-744958D01*
X-544459Y-744985D01*
X-544536Y-745007D01*
X-578318Y-759000D01*
X-621682Y-759000D01*
X-661743Y-742406D01*
X-692406Y-711743D01*
X-709000Y-671682D01*
X-709000Y-643383D01*
X-709116Y-642676D01*
X-709134Y-641961D01*
X-709313Y-641470D01*
X-709398Y-640954D01*
X-709732Y-640323D01*
X-709978Y-639649D01*
X-710305Y-639240D01*
X-710548Y-638779D01*
X-711067Y-638287D01*
X-711514Y-637727D01*
X-711954Y-637444D01*
X-712332Y-637084D01*
X-712981Y-636782D01*
X-713583Y-636394D01*
X-714091Y-636266D01*
X-714563Y-636046D01*
X-715274Y-635967D01*
X-715969Y-635791D01*
X-716490Y-635831D01*
X-717009Y-635773D01*
X-717708Y-635925D01*
X-718423Y-635980D01*
X-718904Y-636184D01*
X-719414Y-636294D01*
X-720029Y-636661D01*
X-720688Y-636941D01*
X-721247Y-637388D01*
X-721528Y-637555D01*
X-721683Y-637736D01*
X-722008Y-637995D01*
X-730672Y-646660D01*
X-769327Y-646660D01*
X-796660Y-619327D01*
X-796660Y-580673D01*
X-769327Y-553339D01*
X-730673Y-553339D01*
X-703339Y-580673D01*
X-703339Y-580795D01*
X-703224Y-581502D01*
X-703205Y-582217D01*
X-703026Y-582708D01*
X-702942Y-583223D01*
X-702608Y-583856D01*
X-702362Y-584529D01*
X-702035Y-584937D01*
X-701791Y-585399D01*
X-701272Y-585892D01*
X-700825Y-586451D01*
X-700387Y-586733D01*
X-700008Y-587094D01*
X-699357Y-587396D01*
X-698756Y-587783D01*
X-698250Y-587911D01*
X-697776Y-588132D01*
X-697065Y-588211D01*
X-696371Y-588387D01*
X-695849Y-588347D01*
X-695331Y-588404D01*
X-694632Y-588253D01*
X-693917Y-588198D01*
X-693436Y-587994D01*
X-692926Y-587883D01*
X-692311Y-587517D01*
X-691652Y-587237D01*
X-691092Y-586790D01*
X-690812Y-586623D01*
X-690658Y-586443D01*
X-690332Y-586183D01*
X-661743Y-557594D01*
X-621682Y-540999D01*
X-606492Y-540999D01*
X-606175Y-540948D01*
X-605854Y-540973D01*
X-604967Y-540750D01*
X-604064Y-540602D01*
X-603780Y-540452D01*
X-603468Y-540373D01*
X-602697Y-539879D01*
X-601888Y-539451D01*
X-601667Y-539218D01*
X-601397Y-539045D01*
X-600274Y-537783D01*
X-523201Y-428929D01*
X-507686Y-426278D01*
X-388742Y-510495D01*
X-386090Y-526010D01*
X-481864Y-661277D01*
X-484664Y-661756D01*
X-485406Y-662011D01*
X-486174Y-662178D01*
X-486563Y-662409D01*
X-486991Y-662556D01*
X-487614Y-663036D01*
X-488288Y-663438D01*
X-488582Y-663781D01*
X-488941Y-664057D01*
X-489378Y-664709D01*
X-489890Y-665306D01*
X-490060Y-665726D01*
X-490311Y-666101D01*
X-490517Y-666858D01*
X-490812Y-667588D01*
X-490879Y-668184D01*
X-490958Y-668475D01*
X-490942Y-668752D01*
X-490999Y-669266D01*
X-490999Y-672953D01*
X-490926Y-673405D01*
X-490945Y-673861D01*
X-490728Y-674612D01*
X-490602Y-675382D01*
X-490388Y-675785D01*
X-490261Y-676225D01*
X-489816Y-676868D01*
X-489451Y-677557D01*
X-489120Y-677872D01*
X-488859Y-678248D01*
X-488234Y-678714D01*
X-487668Y-679252D01*
X-487253Y-679445D01*
X-486886Y-679718D01*
X-486144Y-679961D01*
X-485436Y-680290D01*
X-484982Y-680341D01*
X-484547Y-680483D01*
X-483767Y-680476D01*
X-482991Y-680563D01*
X-482544Y-680466D01*
X-482087Y-680462D01*
X-480777Y-680083D01*
X-480586Y-680042D01*
X-480540Y-680015D01*
X-480464Y-679993D01*
X-465086Y-673623D01*
X-465036Y-673592D01*
X-464978Y-673577D01*
X-463993Y-672946D01*
X-462995Y-672327D01*
X-462957Y-672281D01*
X-462907Y-672248D01*
X-461784Y-670987D01*
X-368135Y-538722D01*
X-352620Y-536070D01*
X-329504Y-552438D01*
X-328798Y-552782D01*
X-328137Y-553208D01*
X-327698Y-553319D01*
X-327292Y-553517D01*
X-326513Y-553618D01*
X-325751Y-553811D01*
X-325300Y-553776D01*
X-324852Y-553835D01*
X-324080Y-553683D01*
X-323298Y-553622D01*
X-322882Y-553446D01*
X-322438Y-553358D01*
X-321755Y-552968D01*
X-321032Y-552662D01*
X-320564Y-552288D01*
X-320301Y-552137D01*
X-320117Y-551930D01*
X-319713Y-551607D01*
X-312626Y-544519D01*
X-293423Y-544519D01*
X-292716Y-544404D01*
X-292001Y-544385D01*
X-291510Y-544206D01*
X-290995Y-544122D01*
X-290363Y-543788D01*
X-289689Y-543542D01*
X-289281Y-543215D01*
X-288819Y-542971D01*
X-288326Y-542452D01*
X-287767Y-542005D01*
X-287485Y-541567D01*
X-287124Y-541188D01*
X-286822Y-540537D01*
X-286435Y-539936D01*
X-286307Y-539430D01*
X-286087Y-538956D01*
X-286007Y-538245D01*
X-285832Y-537551D01*
X-285872Y-537029D01*
X-285814Y-536511D01*
X-285965Y-535812D01*
X-286020Y-535097D01*
X-286224Y-534615D01*
X-286335Y-534106D01*
X-286701Y-533491D01*
X-286981Y-532832D01*
X-287428Y-532272D01*
X-287595Y-531992D01*
X-287775Y-531838D01*
X-288035Y-531512D01*
X-306500Y-513048D01*
X-306500Y-484120D01*
X-306532Y-483926D01*
X-306510Y-483730D01*
X-306730Y-482715D01*
X-306898Y-481691D01*
X-306990Y-481518D01*
X-307031Y-481325D01*
X-307563Y-480433D01*
X-308048Y-479516D01*
X-308191Y-479380D01*
X-308292Y-479212D01*
X-309079Y-478537D01*
X-309832Y-477821D01*
X-310010Y-477738D01*
X-310160Y-477610D01*
X-311124Y-477220D01*
X-312063Y-476783D01*
X-312258Y-476761D01*
X-312441Y-476688D01*
X-314120Y-476500D01*
X-347870Y-476500D01*
X-359000Y-465370D01*
X-359000Y-463987D01*
X-359147Y-463092D01*
X-359217Y-462184D01*
X-359345Y-461881D01*
X-359398Y-461558D01*
X-359822Y-460756D01*
X-360178Y-459918D01*
X-360437Y-459593D01*
X-360548Y-459383D01*
X-360785Y-459158D01*
X-361232Y-458599D01*
X-431700Y-388131D01*
X-431700Y-387443D01*
X-431847Y-386548D01*
X-431917Y-385641D01*
X-432045Y-385338D01*
X-432098Y-385015D01*
X-432522Y-384213D01*
X-432878Y-383375D01*
X-433137Y-383050D01*
X-433248Y-382840D01*
X-433485Y-382615D01*
X-433932Y-382056D01*
X-446660Y-369327D01*
X-446660Y-330673D01*
X-419327Y-303339D01*
X-380672Y-303339D01*
X-372008Y-312004D01*
X-371427Y-312422D01*
X-370907Y-312916D01*
X-370433Y-313136D01*
X-370009Y-313441D01*
X-369325Y-313652D01*
X-368676Y-313953D01*
X-368158Y-314011D01*
X-367658Y-314165D01*
X-366941Y-314147D01*
X-366230Y-314226D01*
X-365721Y-314116D01*
X-365198Y-314103D01*
X-364524Y-313857D01*
X-363825Y-313705D01*
X-363377Y-313438D01*
X-362886Y-313259D01*
X-362326Y-312812D01*
X-361712Y-312445D01*
X-361372Y-312048D01*
X-360964Y-311722D01*
X-360577Y-311121D01*
X-360110Y-310577D01*
X-359914Y-310092D01*
X-359632Y-309653D01*
X-359456Y-308960D01*
X-359188Y-308295D01*
X-359108Y-307584D01*
X-359028Y-307268D01*
X-359046Y-307030D01*
X-359000Y-306617D01*
X-359000Y-236320D01*
X-359032Y-236126D01*
X-359010Y-235930D01*
X-359230Y-234915D01*
X-359398Y-233891D01*
X-359490Y-233718D01*
X-359531Y-233525D01*
X-360063Y-232633D01*
X-360548Y-231716D01*
X-360691Y-231580D01*
X-360792Y-231412D01*
X-361579Y-230737D01*
X-362332Y-230021D01*
X-362510Y-229938D01*
X-362660Y-229810D01*
X-363624Y-229420D01*
X-364563Y-228983D01*
X-364758Y-228961D01*
X-364941Y-228888D01*
X-366620Y-228700D01*
X-378653Y-228700D01*
X-379548Y-228847D01*
X-380456Y-228917D01*
X-380758Y-229045D01*
X-381081Y-229098D01*
X-381884Y-229522D01*
X-382721Y-229878D01*
X-383046Y-230137D01*
X-383257Y-230248D01*
X-383481Y-230485D01*
X-384041Y-230932D01*
X-522509Y-369400D01*
X-623380Y-369400D01*
X-623574Y-369432D01*
X-623769Y-369410D01*
X-624785Y-369630D01*
X-625808Y-369798D01*
X-625982Y-369890D01*
X-626174Y-369931D01*
X-627067Y-370463D01*
X-627984Y-370948D01*
X-628119Y-371091D01*
X-628288Y-371192D01*
X-628963Y-371979D01*
X-629679Y-372732D01*
X-629762Y-372910D01*
X-629890Y-373060D01*
X-630279Y-374024D01*
X-630717Y-374963D01*
X-630738Y-375158D01*
X-630812Y-375341D01*
X-630999Y-377020D01*
X-630999Y-377870D01*
X-642130Y-389000D01*
X-727870Y-389000D01*
X-739000Y-377870D01*
X-739000Y-272130D01*
X-734758Y-267888D01*
X-734643Y-267728D01*
X-734490Y-267605D01*
X-733927Y-266731D01*
X-733322Y-265889D01*
X-733264Y-265702D01*
X-733158Y-265536D01*
X-732903Y-264530D01*
X-732598Y-263538D01*
X-732603Y-263341D01*
X-732554Y-263150D01*
X-732634Y-262115D01*
X-732661Y-261078D01*
X-732728Y-260893D01*
X-732743Y-260697D01*
X-733148Y-259742D01*
X-733504Y-258766D01*
X-733627Y-258612D01*
X-733704Y-258431D01*
X-734758Y-257112D01*
X-739000Y-252870D01*
X-739000Y-147130D01*
X-727594Y-135723D01*
X-726851Y-135602D01*
X-726678Y-135510D01*
X-726485Y-135468D01*
X-725593Y-134936D01*
X-724676Y-134451D01*
X-724540Y-134309D01*
X-724372Y-134208D01*
X-723697Y-133421D01*
X-722981Y-132668D01*
X-722898Y-132489D01*
X-722770Y-132340D01*
X-722380Y-131376D01*
X-721943Y-130436D01*
X-721921Y-130241D01*
X-721848Y-130058D01*
X-721660Y-128380D01*
X-721660Y-105673D01*
X-721633Y-105645D01*
X-721103Y-104908D01*
X-720510Y-104217D01*
X-720387Y-103912D01*
X-720196Y-103647D01*
X-719928Y-102777D01*
X-719588Y-101935D01*
X-719542Y-101523D01*
X-719471Y-101295D01*
X-719480Y-100968D01*
X-719400Y-100257D01*
X-719400Y93391D01*
X-691161Y121631D01*
X-691159Y121632D01*
X-646632Y166159D01*
X-646102Y166898D01*
X-645510Y167587D01*
X-645387Y167892D01*
X-645196Y168158D01*
X-644928Y169027D01*
X-644588Y169869D01*
X-644542Y170281D01*
X-644471Y170509D01*
X-644480Y170836D01*
X-644400Y171547D01*
X-644400Y343453D01*
X-644547Y344348D01*
X-644617Y345255D01*
X-644745Y345558D01*
X-644798Y345881D01*
X-645222Y346683D01*
X-645578Y347521D01*
X-645837Y347846D01*
X-645948Y348056D01*
X-646185Y348281D01*
X-646632Y348840D01*
X-656559Y358768D01*
X-657296Y359297D01*
X-657987Y359890D01*
X-658292Y360013D01*
X-658557Y360204D01*
X-659425Y360471D01*
X-660268Y360812D01*
X-660681Y360858D01*
X-660909Y360928D01*
X-661236Y360920D01*
X-661947Y360999D01*
X-702870Y360999D01*
X-714000Y372130D01*
X-714000Y477870D01*
X-702870Y489000D01*
X-701620Y489000D01*
X-701426Y489032D01*
X-701230Y489010D01*
X-700215Y489230D01*
X-699191Y489398D01*
X-699018Y489490D01*
X-698825Y489531D01*
X-697933Y490063D01*
X-697016Y490548D01*
X-696880Y490691D01*
X-696712Y490792D01*
X-696037Y491579D01*
X-695321Y492332D01*
X-695238Y492510D01*
X-695110Y492660D01*
X-694720Y493624D01*
X-694283Y494563D01*
X-694261Y494758D01*
X-694188Y494941D01*
X-694000Y496620D01*
X-694000Y504083D01*
X-673892Y524191D01*
X-673361Y524930D01*
X-672770Y525619D01*
X-672647Y525923D01*
X-672456Y526189D01*
X-672188Y527059D01*
X-671848Y527901D01*
X-671802Y528313D01*
X-671731Y528541D01*
X-671740Y528868D01*
X-671660Y529579D01*
X-671660Y544327D01*
X-644327Y571660D01*
X-629579Y571660D01*
X-628684Y571807D01*
X-627776Y571877D01*
X-627473Y572005D01*
X-627151Y572058D01*
X-626349Y572482D01*
X-625511Y572838D01*
X-625186Y573097D01*
X-624975Y573208D01*
X-624750Y573446D01*
X-624191Y573892D01*
X-614083Y584000D01*
X-528383Y584000D01*
X-527676Y584116D01*
X-526961Y584134D01*
X-526470Y584313D01*
X-525954Y584398D01*
X-525323Y584732D01*
X-524649Y584978D01*
X-524240Y585305D01*
X-523779Y585548D01*
X-523287Y586067D01*
X-522727Y586514D01*
X-522444Y586954D01*
X-522084Y587332D01*
X-521782Y587981D01*
X-521394Y588583D01*
X-521266Y589091D01*
X-521046Y589563D01*
X-520967Y590274D01*
X-520791Y590969D01*
X-520831Y591490D01*
X-520773Y592009D01*
X-520925Y592708D01*
X-520980Y593423D01*
X-521184Y593904D01*
X-521294Y594414D01*
X-521661Y595029D01*
X-521941Y595688D01*
X-522388Y596247D01*
X-522555Y596528D01*
X-522736Y596683D01*
X-522995Y597008D01*
X-531660Y605672D01*
X-531660Y644327D01*
X-504327Y671660D01*
X-465673Y671660D01*
X-438339Y644327D01*
X-438339Y605672D01*
X-447004Y597008D01*
X-447422Y596427D01*
X-447916Y595907D01*
X-448136Y595433D01*
X-448441Y595009D01*
X-448652Y594325D01*
X-448953Y593676D01*
X-449011Y593158D01*
X-449165Y592658D01*
X-449147Y591941D01*
X-449226Y591230D01*
X-449116Y590721D01*
X-449103Y590198D01*
X-448857Y589524D01*
X-448705Y588825D01*
X-448438Y588377D01*
X-448259Y587886D01*
X-447812Y587326D01*
X-447445Y586712D01*
X-447048Y586372D01*
X-446722Y585964D01*
X-446121Y585577D01*
X-445577Y585110D01*
X-445092Y584914D01*
X-444653Y584632D01*
X-443960Y584456D01*
X-443295Y584188D01*
X-442584Y584108D01*
X-442268Y584028D01*
X-442030Y584046D01*
X-441617Y584000D01*
X-265917Y584000D01*
X-234668Y552751D01*
X-234086Y552333D01*
X-233567Y551840D01*
X-233094Y551620D01*
X-232669Y551315D01*
X-231984Y551103D01*
X-231336Y550802D01*
X-230818Y550744D01*
X-230318Y550590D01*
X-229601Y550609D01*
X-228890Y550529D01*
X-228381Y550640D01*
X-227858Y550653D01*
X-227184Y550899D01*
X-226485Y551050D01*
X-226037Y551318D01*
X-225546Y551497D01*
X-224986Y551944D01*
X-224372Y552311D01*
X-224032Y552707D01*
X-223624Y553033D01*
X-223237Y553634D01*
X-222770Y554179D01*
X-222574Y554664D01*
X-222292Y555103D01*
X-222116Y555796D01*
X-221848Y556460D01*
X-221768Y557172D01*
X-221688Y557488D01*
X-221706Y557726D01*
X-221660Y558139D01*
X-221660Y569327D01*
X-221376Y569612D01*
X-221260Y569772D01*
X-221107Y569894D01*
X-220548Y570764D01*
X-219939Y571610D01*
X-219881Y571798D01*
X-219775Y571963D01*
X-219521Y572967D01*
X-219215Y573962D01*
X-219220Y574159D01*
X-219172Y574349D01*
X-219251Y575383D01*
X-219278Y576422D01*
X-219345Y576606D01*
X-219360Y576803D01*
X-219766Y577759D01*
X-220121Y578733D01*
X-220244Y578887D01*
X-220321Y579068D01*
X-221375Y580388D01*
X-246660Y605673D01*
X-246660Y644327D01*
X-221375Y669612D01*
X-221260Y669772D01*
X-221107Y669894D01*
X-220548Y670763D01*
X-219939Y671610D01*
X-219881Y671799D01*
X-219775Y671963D01*
X-219521Y672966D01*
X-219215Y673962D01*
X-219220Y674159D01*
X-219172Y674349D01*
X-219251Y675383D01*
X-219278Y676422D01*
X-219345Y676607D01*
X-219360Y676803D01*
X-219765Y677757D01*
X-220121Y678733D01*
X-220244Y678887D01*
X-220321Y679068D01*
X-221375Y680388D01*
X-221660Y680673D01*
X-221660Y719327D01*
X-221375Y719612D01*
X-221260Y719773D01*
X-221107Y719895D01*
X-220547Y720765D01*
X-219939Y721611D01*
X-219881Y721799D01*
X-219775Y721964D01*
X-219521Y722967D01*
X-219215Y723962D01*
X-219220Y724159D01*
X-219172Y724349D01*
X-219251Y725387D01*
X-219278Y726422D01*
X-219345Y726606D01*
X-219360Y726803D01*
X-219766Y727759D01*
X-220121Y728734D01*
X-220244Y728888D01*
X-220321Y729068D01*
X-221375Y730388D01*
X-246660Y755673D01*
X-246660Y794327D01*
X-219327Y821660D01*
X-180673Y821660D01*
X-167744Y808732D01*
X-167006Y808202D01*
X-166316Y807610D01*
X-166012Y807487D01*
X-165746Y807296D01*
X-164877Y807028D01*
X-164035Y806688D01*
X-163622Y806642D01*
X-163394Y806571D01*
X-163068Y806580D01*
X-162356Y806500D01*
X-88096Y806500D01*
X-87389Y806616D01*
X-86673Y806634D01*
X-86183Y806813D01*
X-85667Y806898D01*
X-85034Y807233D01*
X-84362Y807478D01*
X-83954Y807804D01*
X-83492Y808048D01*
X-82998Y808568D01*
X-82439Y809015D01*
X-82157Y809453D01*
X-81797Y809832D01*
X-81495Y810481D01*
X-81107Y811083D01*
X-80979Y811591D01*
X-80759Y812063D01*
X-80680Y812774D01*
X-80504Y813469D01*
X-80544Y813990D01*
X-80486Y814509D01*
X-80638Y815209D01*
X-80693Y815923D01*
X-80897Y816403D01*
X-81007Y816914D01*
X-81374Y817529D01*
X-81653Y818188D01*
X-82101Y818748D01*
X-82268Y819028D01*
X-82448Y819183D01*
X-82708Y819508D01*
X-88023Y824822D01*
X-98698Y839515D01*
X-106946Y855701D01*
X-112559Y872978D01*
X-114425Y884761D01*
X-7621Y884761D01*
X-7427Y884793D01*
X-7232Y884771D01*
X-6217Y884991D01*
X-5193Y885158D01*
X-5019Y885250D01*
X-4827Y885292D01*
X-3935Y885824D01*
X-3018Y886309D01*
X-2882Y886451D01*
X-2713Y886552D01*
X-2038Y887339D01*
X-1323Y888093D01*
X-1240Y888271D01*
X-1112Y888420D01*
X-722Y889384D01*
X-285Y890324D01*
X-263Y890519D01*
X-189Y890702D01*
X-2Y892380D01*
X-2Y900002D01*
X2Y900002D01*
X2Y892380D01*
X34Y892186D01*
X12Y891991D01*
X232Y890975D01*
X399Y889952D01*
X491Y889778D01*
X533Y889586D01*
X1065Y888693D01*
X1550Y887776D01*
X1693Y887641D01*
X1793Y887472D01*
X2580Y886797D01*
X3334Y886081D01*
X3512Y885998D01*
X3661Y885870D01*
X4625Y885481D01*
X5565Y885043D01*
X5760Y885022D01*
X5943Y884948D01*
X7621Y884761D01*
X114425Y884761D01*
X112559Y872978D01*
X106946Y855701D01*
X98698Y839515D01*
X88023Y824822D01*
X82708Y819508D01*
X82291Y818927D01*
X81797Y818407D01*
X81576Y817933D01*
X81272Y817509D01*
X81061Y816825D01*
X80759Y816176D01*
X80701Y815658D01*
X80547Y815158D01*
X80566Y814441D01*
X80486Y813730D01*
X80597Y813221D01*
X80610Y812698D01*
X80856Y812024D01*
X81007Y811325D01*
X81274Y810877D01*
X81454Y810386D01*
X81901Y809826D01*
X82268Y809212D01*
X82664Y808872D01*
X82990Y808464D01*
X83591Y808077D01*
X84136Y807610D01*
X84621Y807414D01*
X85059Y807132D01*
X85753Y806956D01*
X86417Y806688D01*
X87128Y806608D01*
X87445Y806528D01*
X87683Y806546D01*
X88096Y806500D01*
X170720Y806500D01*
X170914Y806532D01*
X171109Y806510D01*
X172125Y806730D01*
X173148Y806898D01*
X173322Y806990D01*
X173514Y807031D01*
X174407Y807563D01*
X175324Y808048D01*
X175459Y808191D01*
X175628Y808292D01*
X176303Y809079D01*
X177019Y809832D01*
X177102Y810010D01*
X177230Y810160D01*
X177619Y811124D01*
X178057Y812063D01*
X178078Y812258D01*
X178152Y812441D01*
X178339Y814120D01*
X178339Y819327D01*
X205673Y846660D01*
X244327Y846660D01*
X269612Y821375D01*
X269772Y821260D01*
X269894Y821107D01*
X270763Y820548D01*
X271610Y819939D01*
X271799Y819881D01*
X271963Y819775D01*
X272966Y819521D01*
X273962Y819215D01*
X274159Y819220D01*
X274349Y819172D01*
X275383Y819251D01*
X276422Y819278D01*
X276607Y819345D01*
X276803Y819360D01*
X277757Y819765D01*
X278733Y820121D01*
X278887Y820244D01*
X279068Y820321D01*
X280388Y821375D01*
X305673Y846660D01*
X344327Y846660D01*
X371660Y819327D01*
X371660Y780672D01*
X369156Y778168D01*
X369041Y778009D01*
X368887Y777885D01*
X368323Y777009D01*
X367719Y776170D01*
X367662Y775983D01*
X367555Y775816D01*
X367300Y774809D01*
X366995Y773818D01*
X367000Y773621D01*
X366952Y773430D01*
X367031Y772399D01*
X367058Y771358D01*
X367125Y771173D01*
X367140Y770977D01*
X367544Y770024D01*
X367901Y769046D01*
X368024Y768892D01*
X368101Y768712D01*
X369156Y767392D01*
X375616Y760932D01*
X376353Y760402D01*
X376885Y759946D01*
X377992Y758839D01*
X378573Y758422D01*
X379093Y757928D01*
X379566Y757707D01*
X379990Y757403D01*
X380675Y757191D01*
X381324Y756890D01*
X381842Y756832D01*
X382342Y756678D01*
X383059Y756696D01*
X383769Y756617D01*
X384279Y756727D01*
X384802Y756741D01*
X385475Y756986D01*
X386174Y757138D01*
X386622Y757405D01*
X387113Y757584D01*
X387674Y758032D01*
X388288Y758398D01*
X388628Y758795D01*
X389036Y759121D01*
X389423Y759722D01*
X389890Y760266D01*
X390086Y760751D01*
X390368Y761189D01*
X390544Y761884D01*
X390812Y762548D01*
X390891Y763258D01*
X390972Y763575D01*
X390953Y763813D01*
X390999Y764226D01*
X390999Y771682D01*
X407594Y811743D01*
X438256Y842406D01*
X478318Y859000D01*
X521682Y859000D01*
X561743Y842406D01*
X592406Y811743D01*
X604020Y783704D01*
X604637Y782710D01*
X605232Y781712D01*
X605282Y781669D01*
X605317Y781612D01*
X606213Y780870D01*
X607100Y780110D01*
X607162Y780085D01*
X607212Y780043D01*
X608298Y779626D01*
X609381Y779188D01*
X609459Y779179D01*
X609509Y779160D01*
X609706Y779151D01*
X611060Y779000D01*
X674950Y779000D01*
X676040Y779179D01*
X677147Y779324D01*
X677258Y779378D01*
X677378Y779398D01*
X678356Y779915D01*
X679358Y780405D01*
X679445Y780491D01*
X679554Y780548D01*
X680318Y781353D01*
X681109Y782133D01*
X681164Y782243D01*
X681249Y782332D01*
X681716Y783338D01*
X682218Y784331D01*
X682235Y784453D01*
X682287Y784563D01*
X682409Y785666D01*
X682568Y786766D01*
X682546Y786887D01*
X682559Y787009D01*
X682324Y788094D01*
X682124Y789187D01*
X682064Y789294D01*
X682038Y789414D01*
X681470Y790367D01*
X680932Y791339D01*
X680828Y791445D01*
X680778Y791528D01*
X680567Y791708D01*
X679745Y792541D01*
X614622Y845276D01*
X614380Y845414D01*
X613977Y845745D01*
X522900Y904891D01*
X522645Y905003D01*
X522209Y905290D01*
X425448Y954593D01*
X425183Y954678D01*
X424720Y954917D01*
X323336Y993835D01*
X323062Y993892D01*
X322577Y994081D01*
X217681Y1022188D01*
X217403Y1022216D01*
X216900Y1022354D01*
X109640Y1039342D01*
X109361Y1039341D01*
X108847Y1039426D01*
X399Y1045109D01*
X122Y1045078D01*
X-399Y1045109D01*
X-108847Y1039426D01*
X-109120Y1039366D01*
X-109640Y1039342D01*
X-216900Y1022354D01*
X-217165Y1022266D01*
X-217681Y1022188D01*
X-322577Y994081D01*
X-322831Y993966D01*
X-323336Y993835D01*
X-424720Y954917D01*
X-424961Y954776D01*
X-425448Y954593D01*
X-522209Y905290D01*
X-522435Y905124D01*
X-522900Y904891D01*
X-613977Y845745D01*
X-614183Y845558D01*
X-614622Y845276D01*
X-699018Y776934D01*
X-699203Y776727D01*
X-699611Y776401D01*
X-776401Y699611D01*
X-776564Y699383D01*
X-776934Y699018D01*
X-845276Y614622D01*
X-845414Y614380D01*
X-845745Y613977D01*
X-904891Y522900D01*
X-905003Y522645D01*
X-905290Y522209D01*
X-954593Y425448D01*
X-954678Y425183D01*
X-954917Y424720D01*
X-993835Y323336D01*
X-993892Y323062D01*
X-994081Y322577D01*
X-1022188Y217681D01*
X-1022216Y217403D01*
X-1022354Y216900D01*
X-1039342Y109640D01*
X-1039341Y109361D01*
X-1039426Y108847D01*
X-1045109Y399D01*
X-1045078Y122D01*
X-1045109Y-399D01*
X-1039426Y-108847D01*
X-1039366Y-109120D01*
X-1039342Y-109640D01*
X-1022354Y-216900D01*
X-1022266Y-217165D01*
X-1022188Y-217681D01*
X-994081Y-322577D01*
X-993966Y-322831D01*
X-993835Y-323336D01*
X-954917Y-424720D01*
X-954775Y-424962D01*
X-954592Y-425448D01*
X-911068Y-510868D01*
X-910668Y-511413D01*
X-910351Y-512013D01*
X-909943Y-512400D01*
X-909612Y-512851D01*
X-909059Y-513240D01*
X-908567Y-513708D01*
X-908058Y-513944D01*
X-907599Y-514267D01*
X-906950Y-514460D01*
X-906336Y-514745D01*
X-905778Y-514808D01*
X-905240Y-514967D01*
X-904563Y-514943D01*
X-903890Y-515018D01*
X-903342Y-514899D01*
X-902781Y-514879D01*
X-902147Y-514640D01*
X-901485Y-514497D01*
X-901003Y-514210D01*
X-900478Y-514012D01*
X-899954Y-513584D01*
X-899372Y-513237D01*
X-899006Y-512811D01*
X-898572Y-512456D01*
X-898212Y-511884D01*
X-897770Y-511369D01*
X-897559Y-510848D01*
X-897261Y-510373D01*
X-897101Y-509715D01*
X-896848Y-509087D01*
X-896760Y-508306D01*
X-896682Y-507982D01*
X-896700Y-507769D01*
X-896660Y-507409D01*
X-896660Y-480673D01*
X-869327Y-453339D01*
X-830673Y-453339D01*
X-803339Y-480673D01*
X-803339Y-519327D01*
X-830673Y-546660D01*
X-869327Y-546660D01*
X-875494Y-540493D01*
X-875852Y-540236D01*
X-876148Y-539911D01*
X-876844Y-539523D01*
X-877493Y-539057D01*
X-877914Y-538928D01*
X-878298Y-538714D01*
X-879080Y-538568D01*
X-879844Y-538333D01*
X-880285Y-538344D01*
X-880717Y-538264D01*
X-881506Y-538375D01*
X-882304Y-538396D01*
X-882718Y-538547D01*
X-883153Y-538608D01*
X-883865Y-538966D01*
X-884616Y-539239D01*
X-884960Y-539514D01*
X-885353Y-539712D01*
X-885915Y-540278D01*
X-886538Y-540776D01*
X-886776Y-541146D01*
X-887086Y-541458D01*
X-887439Y-542175D01*
X-887870Y-542845D01*
X-887978Y-543272D01*
X-888172Y-543667D01*
X-888278Y-544457D01*
X-888473Y-545231D01*
X-888440Y-545670D01*
X-888498Y-546106D01*
X-888346Y-546888D01*
X-888285Y-547684D01*
X-888113Y-548089D01*
X-888029Y-548521D01*
X-887387Y-549803D01*
X-887324Y-549950D01*
X-887293Y-549988D01*
X-887272Y-550031D01*
X-845745Y-613977D01*
X-845558Y-614183D01*
X-845276Y-614622D01*
X-776934Y-699018D01*
X-776727Y-699203D01*
X-776401Y-699611D01*
X-699611Y-776401D01*
X-699383Y-776564D01*
X-699018Y-776934D01*
X-614622Y-845276D01*
X-614380Y-845414D01*
X-613977Y-845745D01*
X-522900Y-904891D01*
X-522645Y-905003D01*
X-522209Y-905290D01*
X-425448Y-954593D01*
X-425183Y-954678D01*
X-424720Y-954917D01*
X-340830Y-987119D01*
X-340479Y-987192D01*
X-340156Y-987342D01*
X-339961Y-987364D01*
X-339779Y-987438D01*
X-338726Y-987555D01*
X-338421Y-987618D01*
X-338295Y-987603D01*
X-338100Y-987625D01*
X-337907Y-987593D01*
G37*
G36*
X-103039Y-544404D02*
X-103039Y-544404D01*
X-102322Y-544385D01*
X-101831Y-544206D01*
X-101317Y-544122D01*
X-100685Y-543788D01*
X-100011Y-543541D01*
X-99603Y-543215D01*
X-99142Y-542971D01*
X-98648Y-542452D01*
X-98089Y-542004D01*
X-97807Y-541566D01*
X-97447Y-541188D01*
X-97144Y-540537D01*
X-96757Y-539935D01*
X-96629Y-539429D01*
X-96409Y-538956D01*
X-96330Y-538244D01*
X-96154Y-537549D01*
X-96194Y-537029D01*
X-96136Y-536511D01*
X-96288Y-535811D01*
X-96343Y-535096D01*
X-96547Y-534615D01*
X-96657Y-534106D01*
X-97000Y-533530D01*
X-97000Y-397130D01*
X-85870Y-385999D01*
X-10129Y-385999D01*
X-5388Y-390741D01*
X-5229Y-390856D01*
X-5105Y-391010D01*
X-4229Y-391574D01*
X-3390Y-392178D01*
X-3203Y-392235D01*
X-3036Y-392342D01*
X-2028Y-392597D01*
X-1038Y-392902D01*
X-841Y-392897D01*
X-650Y-392945D01*
X381Y-392866D01*
X1422Y-392839D01*
X1608Y-392772D01*
X1803Y-392757D01*
X2756Y-392353D01*
X3734Y-391996D01*
X3888Y-391873D01*
X4068Y-391796D01*
X5388Y-390741D01*
X10129Y-385999D01*
X85870Y-385999D01*
X97000Y-397130D01*
X97000Y-425880D01*
X97032Y-426074D01*
X97010Y-426269D01*
X97230Y-427285D01*
X97398Y-428308D01*
X97490Y-428482D01*
X97531Y-428674D01*
X98063Y-429567D01*
X98548Y-430484D01*
X98691Y-430619D01*
X98792Y-430788D01*
X99579Y-431463D01*
X100332Y-432179D01*
X100510Y-432262D01*
X100660Y-432390D01*
X101624Y-432779D01*
X102563Y-433217D01*
X102758Y-433238D01*
X102941Y-433312D01*
X104620Y-433499D01*
X113380Y-433499D01*
X113574Y-433468D01*
X113769Y-433489D01*
X114785Y-433269D01*
X115808Y-433102D01*
X115982Y-433010D01*
X116174Y-432968D01*
X117067Y-432436D01*
X117984Y-431951D01*
X118119Y-431809D01*
X118288Y-431708D01*
X118963Y-430921D01*
X119679Y-430168D01*
X119762Y-429989D01*
X119890Y-429840D01*
X120279Y-428876D01*
X120717Y-427936D01*
X120738Y-427741D01*
X120812Y-427558D01*
X120999Y-425880D01*
X120999Y-387129D01*
X127741Y-380388D01*
X127856Y-380228D01*
X128010Y-380105D01*
X128571Y-379233D01*
X129178Y-378390D01*
X129236Y-378202D01*
X129342Y-378036D01*
X129596Y-377031D01*
X129902Y-376038D01*
X129897Y-375841D01*
X129945Y-375651D01*
X129866Y-374617D01*
X129839Y-373578D01*
X129772Y-373393D01*
X129757Y-373197D01*
X129352Y-372243D01*
X128996Y-371266D01*
X128873Y-371113D01*
X128796Y-370932D01*
X127742Y-369612D01*
X120999Y-362870D01*
X120999Y-287130D01*
X132130Y-275999D01*
X133380Y-275999D01*
X133574Y-275968D01*
X133769Y-275989D01*
X134785Y-275769D01*
X135808Y-275602D01*
X135982Y-275510D01*
X136174Y-275468D01*
X137067Y-274936D01*
X137984Y-274451D01*
X138119Y-274309D01*
X138288Y-274208D01*
X138963Y-273421D01*
X139679Y-272668D01*
X139762Y-272489D01*
X139890Y-272340D01*
X140279Y-271376D01*
X140717Y-270436D01*
X140738Y-270241D01*
X140812Y-270058D01*
X140999Y-268380D01*
X140999Y-210917D01*
X163147Y-188769D01*
X163148Y-188768D01*
X246217Y-105699D01*
X248980Y-105699D01*
X249174Y-105668D01*
X249369Y-105689D01*
X250385Y-105469D01*
X251408Y-105302D01*
X251582Y-105210D01*
X251774Y-105168D01*
X252667Y-104636D01*
X253584Y-104151D01*
X253719Y-104009D01*
X253888Y-103908D01*
X254563Y-103121D01*
X255279Y-102368D01*
X255362Y-102189D01*
X255490Y-102040D01*
X255879Y-101076D01*
X256317Y-100136D01*
X256338Y-99941D01*
X256412Y-99758D01*
X256599Y-98080D01*
X256599Y-61830D01*
X267730Y-50699D01*
X443470Y-50699D01*
X454600Y-61830D01*
X454600Y-87680D01*
X454632Y-87874D01*
X454610Y-88069D01*
X454830Y-89085D01*
X454998Y-90108D01*
X455090Y-90282D01*
X455131Y-90474D01*
X455663Y-91367D01*
X456148Y-92284D01*
X456291Y-92419D01*
X456392Y-92588D01*
X457179Y-93263D01*
X457932Y-93979D01*
X458110Y-94062D01*
X458260Y-94190D01*
X459224Y-94579D01*
X460163Y-95017D01*
X460358Y-95038D01*
X460541Y-95112D01*
X462220Y-95299D01*
X588091Y-95299D01*
X668899Y-176108D01*
X669638Y-176639D01*
X670327Y-177230D01*
X670632Y-177353D01*
X670898Y-177544D01*
X671767Y-177812D01*
X672609Y-178152D01*
X673021Y-178198D01*
X673249Y-178268D01*
X673576Y-178260D01*
X674287Y-178339D01*
X674327Y-178339D01*
X701660Y-205673D01*
X701660Y-244327D01*
X674327Y-271660D01*
X635673Y-271660D01*
X608339Y-244327D01*
X608339Y-244287D01*
X608193Y-243392D01*
X608123Y-242484D01*
X607995Y-242182D01*
X607942Y-241859D01*
X607518Y-241056D01*
X607162Y-240219D01*
X606903Y-239894D01*
X606791Y-239683D01*
X606555Y-239459D01*
X606108Y-238899D01*
X553540Y-186332D01*
X552802Y-185802D01*
X552113Y-185210D01*
X551808Y-185087D01*
X551542Y-184896D01*
X550673Y-184628D01*
X549831Y-184288D01*
X549418Y-184242D01*
X549190Y-184171D01*
X548864Y-184180D01*
X548153Y-184100D01*
X462220Y-184100D01*
X462026Y-184132D01*
X461830Y-184110D01*
X460815Y-184330D01*
X459791Y-184498D01*
X459618Y-184590D01*
X459425Y-184631D01*
X458533Y-185163D01*
X457616Y-185648D01*
X457480Y-185791D01*
X457312Y-185892D01*
X456637Y-186679D01*
X455921Y-187432D01*
X455838Y-187610D01*
X455710Y-187760D01*
X455320Y-188724D01*
X454883Y-189663D01*
X454861Y-189858D01*
X454788Y-190041D01*
X454600Y-191720D01*
X454600Y-217570D01*
X443470Y-228700D01*
X267730Y-228700D01*
X256599Y-217570D01*
X256599Y-209879D01*
X256484Y-209172D01*
X256465Y-208457D01*
X256286Y-207966D01*
X256202Y-207450D01*
X255868Y-206818D01*
X255622Y-206145D01*
X255295Y-205737D01*
X255051Y-205275D01*
X254532Y-204782D01*
X254085Y-204223D01*
X253647Y-203941D01*
X253268Y-203580D01*
X252617Y-203278D01*
X252016Y-202891D01*
X251510Y-202763D01*
X251036Y-202542D01*
X250325Y-202463D01*
X249631Y-202287D01*
X249109Y-202327D01*
X248591Y-202269D01*
X247892Y-202421D01*
X247177Y-202476D01*
X246696Y-202680D01*
X246186Y-202790D01*
X245571Y-203157D01*
X244912Y-203437D01*
X244352Y-203884D01*
X244072Y-204051D01*
X243918Y-204231D01*
X243592Y-204491D01*
X211232Y-236851D01*
X210702Y-237589D01*
X210110Y-238279D01*
X209987Y-238583D01*
X209796Y-238850D01*
X209528Y-239718D01*
X209188Y-240561D01*
X209142Y-240973D01*
X209071Y-241201D01*
X209080Y-241528D01*
X209000Y-242239D01*
X209000Y-268380D01*
X209032Y-268574D01*
X209010Y-268769D01*
X209230Y-269785D01*
X209398Y-270808D01*
X209490Y-270982D01*
X209531Y-271174D01*
X210063Y-272067D01*
X210548Y-272984D01*
X210691Y-273119D01*
X210792Y-273288D01*
X211579Y-273963D01*
X212332Y-274679D01*
X212510Y-274762D01*
X212660Y-274890D01*
X213624Y-275279D01*
X214563Y-275717D01*
X214758Y-275738D01*
X214941Y-275812D01*
X216620Y-275999D01*
X217870Y-275999D01*
X229000Y-287130D01*
X229000Y-362870D01*
X222258Y-369612D01*
X222143Y-369772D01*
X221990Y-369895D01*
X221427Y-370769D01*
X220822Y-371611D01*
X220764Y-371798D01*
X220658Y-371964D01*
X220403Y-372971D01*
X220098Y-373962D01*
X220103Y-374159D01*
X220054Y-374349D01*
X220134Y-375384D01*
X220161Y-376422D01*
X220228Y-376607D01*
X220243Y-376803D01*
X220648Y-377758D01*
X221004Y-378734D01*
X221127Y-378888D01*
X221204Y-379068D01*
X222258Y-380388D01*
X229000Y-387129D01*
X229000Y-462870D01*
X217870Y-474000D01*
X173704Y-474000D01*
X172808Y-474147D01*
X171901Y-474217D01*
X171598Y-474345D01*
X171275Y-474398D01*
X170473Y-474822D01*
X169635Y-475178D01*
X169310Y-475437D01*
X169100Y-475548D01*
X168875Y-475785D01*
X168316Y-476232D01*
X148048Y-496500D01*
X104620Y-496500D01*
X104426Y-496532D01*
X104230Y-496510D01*
X103215Y-496730D01*
X102191Y-496898D01*
X102018Y-496990D01*
X101825Y-497031D01*
X100933Y-497563D01*
X100016Y-498048D01*
X99880Y-498191D01*
X99712Y-498292D01*
X99037Y-499079D01*
X98321Y-499832D01*
X98238Y-500010D01*
X98110Y-500160D01*
X97720Y-501124D01*
X97283Y-502063D01*
X97261Y-502258D01*
X97188Y-502441D01*
X97000Y-504120D01*
X97000Y-533401D01*
X96922Y-533509D01*
X96711Y-534194D01*
X96409Y-534844D01*
X96351Y-535362D01*
X96198Y-535861D01*
X96216Y-536577D01*
X96136Y-537289D01*
X96247Y-537799D01*
X96260Y-538321D01*
X96506Y-538994D01*
X96657Y-539694D01*
X96924Y-540142D01*
X97103Y-540633D01*
X97551Y-541193D01*
X97918Y-541808D01*
X98314Y-542148D01*
X98639Y-542555D01*
X99241Y-542943D01*
X99786Y-543410D01*
X100270Y-543606D01*
X100708Y-543888D01*
X101403Y-544064D01*
X102067Y-544332D01*
X102777Y-544411D01*
X103094Y-544492D01*
X103332Y-544473D01*
X103746Y-544519D01*
X456336Y-544519D01*
X457232Y-544373D01*
X458139Y-544303D01*
X458442Y-544175D01*
X458765Y-544122D01*
X459567Y-543698D01*
X460405Y-543342D01*
X460730Y-543083D01*
X460940Y-542971D01*
X461165Y-542735D01*
X461724Y-542288D01*
X490673Y-513339D01*
X529327Y-513339D01*
X558276Y-542288D01*
X559014Y-542818D01*
X559703Y-543410D01*
X560008Y-543533D01*
X560274Y-543724D01*
X561143Y-543992D01*
X561985Y-544332D01*
X562398Y-544378D01*
X562626Y-544448D01*
X562952Y-544440D01*
X563663Y-544519D01*
X886714Y-544519D01*
X887182Y-544443D01*
X887656Y-544461D01*
X888390Y-544245D01*
X889143Y-544122D01*
X889561Y-543901D01*
X890017Y-543767D01*
X890643Y-543328D01*
X891318Y-542971D01*
X891645Y-542627D01*
X892033Y-542356D01*
X892855Y-541354D01*
X893013Y-541188D01*
X893041Y-541127D01*
X893104Y-541050D01*
X904891Y-522900D01*
X905003Y-522645D01*
X905290Y-522209D01*
X954593Y-425448D01*
X954678Y-425183D01*
X954917Y-424720D01*
X993835Y-323336D01*
X993892Y-323061D01*
X994081Y-322577D01*
X1003589Y-287092D01*
X1003706Y-285922D01*
X1003839Y-284730D01*
X1003829Y-284687D01*
X1003834Y-284643D01*
X1003572Y-283498D01*
X1003318Y-282325D01*
X1003295Y-282287D01*
X1003285Y-282244D01*
X1002665Y-281230D01*
X1002058Y-280212D01*
X1002024Y-280183D01*
X1002001Y-280145D01*
X1001097Y-279388D01*
X1000189Y-278610D01*
X1000148Y-278593D01*
X1000114Y-278565D01*
X999017Y-278136D01*
X997908Y-277688D01*
X997856Y-277682D01*
X997823Y-277669D01*
X997676Y-277662D01*
X996229Y-277500D01*
X939130Y-277500D01*
X927888Y-266258D01*
X927728Y-266143D01*
X927605Y-265990D01*
X926731Y-265427D01*
X925889Y-264822D01*
X925702Y-264764D01*
X925536Y-264658D01*
X924529Y-264403D01*
X923538Y-264098D01*
X923341Y-264103D01*
X923150Y-264054D01*
X922115Y-264134D01*
X921078Y-264161D01*
X920893Y-264228D01*
X920697Y-264243D01*
X919742Y-264648D01*
X918766Y-265004D01*
X918612Y-265127D01*
X918431Y-265204D01*
X917112Y-266258D01*
X908932Y-274439D01*
X908402Y-275176D01*
X907810Y-275866D01*
X907687Y-276171D01*
X907496Y-276437D01*
X907228Y-277305D01*
X906888Y-278148D01*
X906842Y-278561D01*
X906771Y-278789D01*
X906780Y-279115D01*
X906700Y-279826D01*
X906700Y-408131D01*
X898892Y-415939D01*
X898362Y-416677D01*
X897770Y-417367D01*
X897647Y-417671D01*
X897456Y-417938D01*
X897188Y-418806D01*
X896848Y-419648D01*
X896802Y-420061D01*
X896731Y-420289D01*
X896740Y-420616D01*
X896660Y-421327D01*
X896660Y-439327D01*
X869327Y-466660D01*
X830673Y-466660D01*
X803339Y-439327D01*
X803339Y-400673D01*
X830673Y-373339D01*
X835680Y-373339D01*
X835874Y-373308D01*
X836069Y-373329D01*
X837085Y-373109D01*
X838108Y-372942D01*
X838282Y-372850D01*
X838474Y-372808D01*
X839367Y-372276D01*
X840284Y-371791D01*
X840419Y-371649D01*
X840588Y-371548D01*
X841263Y-370761D01*
X841979Y-370008D01*
X842062Y-369829D01*
X842190Y-369680D01*
X842579Y-368716D01*
X843017Y-367776D01*
X843038Y-367581D01*
X843112Y-367398D01*
X843299Y-365720D01*
X843299Y-279826D01*
X843153Y-278931D01*
X843083Y-278023D01*
X842955Y-277721D01*
X842902Y-277398D01*
X842478Y-276597D01*
X842123Y-275758D01*
X841863Y-275433D01*
X841751Y-275223D01*
X841514Y-274998D01*
X841068Y-274439D01*
X836716Y-270086D01*
X835754Y-269395D01*
X834795Y-268689D01*
X834753Y-268676D01*
X834718Y-268650D01*
X833571Y-268297D01*
X832452Y-267938D01*
X832408Y-267938D01*
X832366Y-267925D01*
X831167Y-267956D01*
X829991Y-267973D01*
X829950Y-267987D01*
X829906Y-267988D01*
X828790Y-268395D01*
X827670Y-268790D01*
X827635Y-268817D01*
X827594Y-268832D01*
X826669Y-269571D01*
X825730Y-270304D01*
X825699Y-270346D01*
X825672Y-270368D01*
X825593Y-270491D01*
X824729Y-271664D01*
X823325Y-274096D01*
X818596Y-278825D01*
X812803Y-282169D01*
X806344Y-283900D01*
X791499Y-283900D01*
X791499Y-226882D01*
X791468Y-226688D01*
X791489Y-226493D01*
X791269Y-225477D01*
X791102Y-224453D01*
X791010Y-224280D01*
X790968Y-224088D01*
X790436Y-223195D01*
X789951Y-222278D01*
X789809Y-222143D01*
X789708Y-221974D01*
X788921Y-221299D01*
X788168Y-220583D01*
X787989Y-220500D01*
X787840Y-220372D01*
X786876Y-219983D01*
X785936Y-219545D01*
X785741Y-219523D01*
X785558Y-219450D01*
X783880Y-219263D01*
X783737Y-219263D01*
X783737Y-219119D01*
X783705Y-218925D01*
X783727Y-218730D01*
X783507Y-217715D01*
X783340Y-216691D01*
X783248Y-216518D01*
X783206Y-216325D01*
X782674Y-215433D01*
X782189Y-214516D01*
X782047Y-214380D01*
X781946Y-214212D01*
X781159Y-213537D01*
X780405Y-212821D01*
X780227Y-212738D01*
X780078Y-212610D01*
X779114Y-212220D01*
X778174Y-211783D01*
X777979Y-211761D01*
X777796Y-211687D01*
X776118Y-211500D01*
X731599Y-211500D01*
X731599Y-184156D01*
X733330Y-177696D01*
X736675Y-171903D01*
X736750Y-171828D01*
X737005Y-171474D01*
X737328Y-171181D01*
X737719Y-170481D01*
X738187Y-169830D01*
X738315Y-169414D01*
X738528Y-169033D01*
X738676Y-168243D01*
X738912Y-167479D01*
X738901Y-167043D01*
X738981Y-166614D01*
X738869Y-165818D01*
X738849Y-165019D01*
X738700Y-164609D01*
X738639Y-164177D01*
X738057Y-162846D01*
X738006Y-162707D01*
X737983Y-162679D01*
X737962Y-162629D01*
X736330Y-159804D01*
X734599Y-153344D01*
X734599Y-90238D01*
X867379Y-90238D01*
X867573Y-90207D01*
X867768Y-90228D01*
X868783Y-90008D01*
X869807Y-89841D01*
X869981Y-89749D01*
X870173Y-89708D01*
X871065Y-89175D01*
X871983Y-88690D01*
X872118Y-88548D01*
X872287Y-88447D01*
X872962Y-87660D01*
X873678Y-86907D01*
X873760Y-86728D01*
X873888Y-86579D01*
X874278Y-85615D01*
X874715Y-84675D01*
X874737Y-84480D01*
X874811Y-84298D01*
X874998Y-82619D01*
X874998Y-67380D01*
X874966Y-67186D01*
X874988Y-66991D01*
X874768Y-65976D01*
X874601Y-64952D01*
X874509Y-64778D01*
X874467Y-64586D01*
X873935Y-63694D01*
X873450Y-62777D01*
X873308Y-62641D01*
X873207Y-62473D01*
X872420Y-61798D01*
X871666Y-61082D01*
X871488Y-60999D01*
X871339Y-60871D01*
X870375Y-60481D01*
X869435Y-60044D01*
X869240Y-60022D01*
X869057Y-59948D01*
X867379Y-59761D01*
X734599Y-59761D01*
X734599Y3344D01*
X736330Y9803D01*
X739675Y15597D01*
X740966Y16887D01*
X741081Y17047D01*
X741235Y17170D01*
X741796Y18043D01*
X742402Y18885D01*
X742460Y19074D01*
X742567Y19239D01*
X742821Y20243D01*
X743127Y21237D01*
X743122Y21434D01*
X743170Y21625D01*
X743091Y22657D01*
X743064Y23697D01*
X742996Y23883D01*
X742981Y24078D01*
X742577Y25032D01*
X742221Y26009D01*
X742098Y26163D01*
X742021Y26344D01*
X740966Y27663D01*
X738999Y29630D01*
X738999Y35680D01*
X738968Y35874D01*
X738989Y36069D01*
X738769Y37085D01*
X738602Y38108D01*
X738510Y38282D01*
X738468Y38474D01*
X737936Y39367D01*
X737451Y40284D01*
X737309Y40419D01*
X737208Y40588D01*
X736421Y41263D01*
X735668Y41979D01*
X735489Y42062D01*
X735340Y42190D01*
X734376Y42579D01*
X733436Y43017D01*
X733241Y43038D01*
X733058Y43112D01*
X731380Y43299D01*
X687443Y43299D01*
X686548Y43153D01*
X685641Y43083D01*
X685338Y42955D01*
X685015Y42902D01*
X684213Y42478D01*
X683375Y42122D01*
X683050Y41863D01*
X682840Y41751D01*
X682615Y41515D01*
X682056Y41068D01*
X669327Y28339D01*
X630673Y28339D01*
X603339Y55673D01*
X603339Y94327D01*
X617005Y107992D01*
X617423Y108573D01*
X617916Y109093D01*
X618136Y109567D01*
X618441Y109990D01*
X618652Y110674D01*
X618953Y111324D01*
X619011Y111842D01*
X619165Y112342D01*
X619147Y113059D01*
X619226Y113769D01*
X619116Y114278D01*
X619103Y114802D01*
X618857Y115476D01*
X618705Y116174D01*
X618438Y116623D01*
X618259Y117114D01*
X617812Y117673D01*
X617445Y118288D01*
X617048Y118628D01*
X616722Y119036D01*
X616122Y119423D01*
X615577Y119890D01*
X615091Y120086D01*
X614653Y120368D01*
X613960Y120543D01*
X613295Y120812D01*
X612584Y120892D01*
X612268Y120972D01*
X612030Y120953D01*
X611617Y120999D01*
X507130Y120999D01*
X495999Y132130D01*
X495999Y167757D01*
X495884Y168463D01*
X495865Y169179D01*
X495686Y169669D01*
X495602Y170185D01*
X495268Y170817D01*
X495022Y171490D01*
X494695Y171899D01*
X494451Y172360D01*
X493932Y172854D01*
X493485Y173413D01*
X493047Y173695D01*
X492668Y174055D01*
X492017Y174358D01*
X491416Y174745D01*
X490910Y174873D01*
X490436Y175093D01*
X489725Y175173D01*
X489031Y175348D01*
X488509Y175308D01*
X487991Y175366D01*
X487292Y175215D01*
X486577Y175160D01*
X486096Y174956D01*
X485586Y174845D01*
X484971Y174478D01*
X484312Y174199D01*
X483752Y173752D01*
X483472Y173585D01*
X483318Y173404D01*
X482992Y173144D01*
X456832Y146984D01*
X456302Y146246D01*
X455710Y145556D01*
X455587Y145252D01*
X455396Y144986D01*
X455128Y144117D01*
X454788Y143275D01*
X454742Y142862D01*
X454671Y142634D01*
X454680Y142308D01*
X454600Y141596D01*
X454600Y61830D01*
X443470Y50699D01*
X267730Y50699D01*
X256599Y61830D01*
X256599Y122217D01*
X256484Y122923D01*
X256465Y123640D01*
X256286Y124131D01*
X256202Y124645D01*
X255867Y125278D01*
X255621Y125952D01*
X255295Y126359D01*
X255051Y126821D01*
X254532Y127314D01*
X254085Y127873D01*
X253647Y128156D01*
X253268Y128516D01*
X252617Y128818D01*
X252016Y129205D01*
X251510Y129333D01*
X251036Y129553D01*
X250324Y129633D01*
X249630Y129808D01*
X249109Y129768D01*
X248591Y129826D01*
X247891Y129675D01*
X247176Y129620D01*
X246696Y129416D01*
X246186Y129305D01*
X245571Y128939D01*
X244911Y128659D01*
X244512Y128339D01*
X205673Y128339D01*
X180388Y153624D01*
X180228Y153740D01*
X180105Y153893D01*
X179237Y154452D01*
X178390Y155061D01*
X178201Y155119D01*
X178036Y155225D01*
X177033Y155478D01*
X176038Y155785D01*
X175841Y155780D01*
X175651Y155828D01*
X174617Y155749D01*
X173578Y155722D01*
X173393Y155655D01*
X173197Y155640D01*
X172243Y155235D01*
X171266Y154878D01*
X171113Y154755D01*
X170932Y154679D01*
X169612Y153624D01*
X144327Y128339D01*
X105673Y128339D01*
X92508Y141505D01*
X91926Y141923D01*
X91407Y142416D01*
X90933Y142636D01*
X90509Y142941D01*
X89825Y143152D01*
X89176Y143453D01*
X88658Y143511D01*
X88158Y143665D01*
X87441Y143647D01*
X86730Y143726D01*
X86221Y143616D01*
X85698Y143603D01*
X85024Y143357D01*
X84325Y143205D01*
X83877Y142938D01*
X83386Y142759D01*
X82826Y142312D01*
X82212Y141945D01*
X81872Y141548D01*
X81464Y141222D01*
X81077Y140622D01*
X80610Y140077D01*
X80414Y139591D01*
X80132Y139153D01*
X79956Y138460D01*
X79688Y137795D01*
X79608Y137084D01*
X79528Y136768D01*
X79546Y136530D01*
X79500Y136117D01*
X79500Y-198380D01*
X79532Y-198574D01*
X79510Y-198769D01*
X79730Y-199785D01*
X79898Y-200808D01*
X79990Y-200982D01*
X80031Y-201174D01*
X80563Y-202067D01*
X81048Y-202984D01*
X81191Y-203119D01*
X81292Y-203288D01*
X82079Y-203963D01*
X82832Y-204679D01*
X83010Y-204762D01*
X83160Y-204890D01*
X84124Y-205279D01*
X85063Y-205717D01*
X85258Y-205738D01*
X85441Y-205812D01*
X85713Y-205843D01*
X97000Y-217130D01*
X97000Y-352870D01*
X85870Y-364000D01*
X10129Y-364000D01*
X5388Y-359258D01*
X5229Y-359144D01*
X5105Y-358990D01*
X4229Y-358425D01*
X3390Y-357822D01*
X3203Y-357764D01*
X3036Y-357658D01*
X2028Y-357403D01*
X1038Y-357098D01*
X841Y-357103D01*
X650Y-357054D01*
X-381Y-357134D01*
X-1422Y-357160D01*
X-1608Y-357228D01*
X-1803Y-357243D01*
X-2756Y-357647D01*
X-3734Y-358004D01*
X-3888Y-358127D01*
X-4068Y-358204D01*
X-5388Y-359258D01*
X-10129Y-364000D01*
X-85870Y-364000D01*
X-97000Y-352870D01*
X-97000Y-217130D01*
X-85625Y-205755D01*
X-84691Y-205602D01*
X-84518Y-205510D01*
X-84325Y-205468D01*
X-83433Y-204936D01*
X-82516Y-204451D01*
X-82380Y-204309D01*
X-82212Y-204208D01*
X-81537Y-203421D01*
X-80821Y-202668D01*
X-80738Y-202489D01*
X-80610Y-202340D01*
X-80220Y-201376D01*
X-79783Y-200436D01*
X-79761Y-200241D01*
X-79688Y-200058D01*
X-79500Y-198380D01*
X-79500Y295048D01*
X30744Y405292D01*
X31162Y405873D01*
X31655Y406393D01*
X31876Y406866D01*
X32181Y407291D01*
X32392Y407975D01*
X32693Y408624D01*
X32751Y409142D01*
X32905Y409642D01*
X32887Y410358D01*
X32966Y411069D01*
X32855Y411580D01*
X32842Y412102D01*
X32597Y412774D01*
X32445Y413474D01*
X32178Y413923D01*
X31998Y414414D01*
X31551Y414973D01*
X31185Y415588D01*
X30788Y415928D01*
X30462Y416336D01*
X29861Y416723D01*
X29317Y417190D01*
X28831Y417386D01*
X28393Y417668D01*
X27700Y417843D01*
X27035Y418112D01*
X26324Y418192D01*
X26007Y418272D01*
X25770Y418253D01*
X25357Y418299D01*
X-24673Y418299D01*
X-25569Y418153D01*
X-26476Y418083D01*
X-26779Y417955D01*
X-27102Y417902D01*
X-27904Y417478D01*
X-28742Y417122D01*
X-29067Y416863D01*
X-29277Y416751D01*
X-29502Y416515D01*
X-30061Y416068D01*
X-30130Y415999D01*
X-115870Y415999D01*
X-127000Y427130D01*
X-127000Y441766D01*
X-127116Y442473D01*
X-127134Y443188D01*
X-127313Y443679D01*
X-127398Y444194D01*
X-127733Y444827D01*
X-127978Y445500D01*
X-128304Y445908D01*
X-128548Y446370D01*
X-129067Y446863D01*
X-129514Y447422D01*
X-129954Y447705D01*
X-130332Y448065D01*
X-130981Y448367D01*
X-131583Y448754D01*
X-132091Y448883D01*
X-132563Y449103D01*
X-133274Y449182D01*
X-133969Y449358D01*
X-134490Y449318D01*
X-135009Y449375D01*
X-135709Y449224D01*
X-136423Y449169D01*
X-136903Y448965D01*
X-137414Y448854D01*
X-138029Y448488D01*
X-138688Y448208D01*
X-139247Y447761D01*
X-139528Y447594D01*
X-139683Y447413D01*
X-140008Y447153D01*
X-143861Y443299D01*
X-221383Y443299D01*
X-291852Y513768D01*
X-292590Y514298D01*
X-293279Y514890D01*
X-293584Y515013D01*
X-293850Y515204D01*
X-294719Y515472D01*
X-295561Y515812D01*
X-295973Y515858D01*
X-296202Y515928D01*
X-296528Y515920D01*
X-297239Y515999D01*
X-481617Y515999D01*
X-482324Y515884D01*
X-483039Y515865D01*
X-483530Y515686D01*
X-484045Y515602D01*
X-484677Y515268D01*
X-485351Y515022D01*
X-485760Y514695D01*
X-486221Y514451D01*
X-486713Y513933D01*
X-487273Y513485D01*
X-487556Y513046D01*
X-487916Y512668D01*
X-488218Y512019D01*
X-488605Y511416D01*
X-488733Y510909D01*
X-488953Y510436D01*
X-489033Y509726D01*
X-489208Y509031D01*
X-489168Y508509D01*
X-489226Y507991D01*
X-489075Y507292D01*
X-489020Y506577D01*
X-488816Y506095D01*
X-488705Y505586D01*
X-488339Y504971D01*
X-488059Y504312D01*
X-487612Y503753D01*
X-487445Y503472D01*
X-487264Y503317D01*
X-487004Y502992D01*
X-478339Y494328D01*
X-478339Y454280D01*
X-478308Y454086D01*
X-478329Y453890D01*
X-478109Y452875D01*
X-477942Y451851D01*
X-477850Y451678D01*
X-477808Y451485D01*
X-477276Y450593D01*
X-476791Y449676D01*
X-476649Y449540D01*
X-476548Y449372D01*
X-475761Y448697D01*
X-475008Y447981D01*
X-474829Y447898D01*
X-474680Y447770D01*
X-473716Y447380D01*
X-472776Y446943D01*
X-472581Y446921D01*
X-472398Y446848D01*
X-470720Y446660D01*
X-430673Y446660D01*
X-403339Y419327D01*
X-403339Y388020D01*
X-403308Y387826D01*
X-403329Y387630D01*
X-403109Y386615D01*
X-402942Y385591D01*
X-402850Y385418D01*
X-402808Y385225D01*
X-402276Y384333D01*
X-401791Y383416D01*
X-401649Y383280D01*
X-401548Y383112D01*
X-400761Y382437D01*
X-400008Y381721D01*
X-399829Y381638D01*
X-399680Y381510D01*
X-398716Y381120D01*
X-397776Y380683D01*
X-397581Y380661D01*
X-397398Y380588D01*
X-395720Y380400D01*
X-387999Y380400D01*
X-387999Y339999D01*
X-448400Y339999D01*
X-448400Y345720D01*
X-448432Y345914D01*
X-448410Y346109D01*
X-448630Y347125D01*
X-448798Y348148D01*
X-448889Y348322D01*
X-448931Y348514D01*
X-449463Y349407D01*
X-449948Y350324D01*
X-450091Y350459D01*
X-450191Y350628D01*
X-450978Y351303D01*
X-451732Y352019D01*
X-451910Y352102D01*
X-452059Y352230D01*
X-453023Y352619D01*
X-453963Y353057D01*
X-454158Y353078D01*
X-454341Y353152D01*
X-456019Y353339D01*
X-469327Y353339D01*
X-496660Y380673D01*
X-496660Y420720D01*
X-496692Y420914D01*
X-496670Y421109D01*
X-496890Y422125D01*
X-497058Y423148D01*
X-497150Y423322D01*
X-497191Y423514D01*
X-497723Y424407D01*
X-498208Y425324D01*
X-498351Y425459D01*
X-498452Y425628D01*
X-499239Y426303D01*
X-499992Y427019D01*
X-500170Y427102D01*
X-500320Y427230D01*
X-501284Y427619D01*
X-502223Y428057D01*
X-502418Y428078D01*
X-502601Y428152D01*
X-504280Y428339D01*
X-544327Y428339D01*
X-571660Y455673D01*
X-571660Y493957D01*
X-571776Y494664D01*
X-571794Y495379D01*
X-571973Y495870D01*
X-572058Y496385D01*
X-572392Y497018D01*
X-572638Y497691D01*
X-572964Y498099D01*
X-573208Y498561D01*
X-573728Y499054D01*
X-574174Y499613D01*
X-574613Y499895D01*
X-574992Y500256D01*
X-575643Y500558D01*
X-576243Y500945D01*
X-576750Y501073D01*
X-577223Y501293D01*
X-577935Y501373D01*
X-578629Y501548D01*
X-579150Y501508D01*
X-579669Y501566D01*
X-580368Y501415D01*
X-581083Y501360D01*
X-581564Y501156D01*
X-582074Y501045D01*
X-582689Y500679D01*
X-583348Y500399D01*
X-583908Y499952D01*
X-584188Y499785D01*
X-584342Y499605D01*
X-584668Y499345D01*
X-603768Y480244D01*
X-604298Y479506D01*
X-604890Y478817D01*
X-605013Y478512D01*
X-605204Y478246D01*
X-605472Y477377D01*
X-605812Y476535D01*
X-605858Y476123D01*
X-605928Y475894D01*
X-605920Y475568D01*
X-605999Y474857D01*
X-605999Y436947D01*
X-605984Y436855D01*
X-605989Y436809D01*
X-605938Y436572D01*
X-605853Y436052D01*
X-605783Y435144D01*
X-605655Y434841D01*
X-605602Y434518D01*
X-605178Y433716D01*
X-604822Y432878D01*
X-604563Y432553D01*
X-604451Y432343D01*
X-604215Y432118D01*
X-603768Y431559D01*
X-555599Y383391D01*
X-555599Y131609D01*
X-583840Y103368D01*
X-628368Y58841D01*
X-628899Y58102D01*
X-629490Y57413D01*
X-629613Y57109D01*
X-629804Y56843D01*
X-630072Y55973D01*
X-630412Y55131D01*
X-630458Y54719D01*
X-630528Y54491D01*
X-630520Y54164D01*
X-630599Y53453D01*
X-630599Y-21217D01*
X-630483Y-21924D01*
X-630465Y-22642D01*
X-630286Y-23132D01*
X-630202Y-23645D01*
X-629867Y-24278D01*
X-629621Y-24953D01*
X-629295Y-25360D01*
X-629051Y-25821D01*
X-628531Y-26315D01*
X-628083Y-26874D01*
X-627646Y-27156D01*
X-627268Y-27516D01*
X-626616Y-27819D01*
X-626014Y-28206D01*
X-625509Y-28333D01*
X-625036Y-28553D01*
X-624324Y-28633D01*
X-623628Y-28809D01*
X-623108Y-28768D01*
X-622591Y-28826D01*
X-621891Y-28675D01*
X-621175Y-28619D01*
X-620695Y-28416D01*
X-620343Y-28339D01*
X-579280Y-28339D01*
X-579086Y-28308D01*
X-578890Y-28329D01*
X-577875Y-28109D01*
X-576851Y-27942D01*
X-576678Y-27850D01*
X-576485Y-27808D01*
X-575593Y-27276D01*
X-574676Y-26791D01*
X-574540Y-26649D01*
X-574372Y-26548D01*
X-573697Y-25761D01*
X-572981Y-25008D01*
X-572898Y-24829D01*
X-572770Y-24680D01*
X-572380Y-23716D01*
X-571943Y-22776D01*
X-571921Y-22581D01*
X-571848Y-22398D01*
X-571660Y-20720D01*
X-571660Y-5673D01*
X-544327Y21660D01*
X-505673Y21660D01*
X-505388Y21376D01*
X-505228Y21260D01*
X-505105Y21107D01*
X-504236Y20548D01*
X-503390Y19939D01*
X-503201Y19881D01*
X-503036Y19775D01*
X-502033Y19521D01*
X-501038Y19215D01*
X-500841Y19220D01*
X-500651Y19172D01*
X-499617Y19251D01*
X-498578Y19278D01*
X-498393Y19345D01*
X-498197Y19360D01*
X-497241Y19766D01*
X-496267Y20121D01*
X-496113Y20244D01*
X-495932Y20321D01*
X-494612Y21375D01*
X-469327Y46660D01*
X-457826Y46660D01*
X-457119Y46776D01*
X-456403Y46794D01*
X-455913Y46973D01*
X-455397Y47058D01*
X-454764Y47393D01*
X-454092Y47638D01*
X-453684Y47964D01*
X-453222Y48208D01*
X-452728Y48728D01*
X-452169Y49175D01*
X-451887Y49613D01*
X-451527Y49992D01*
X-451225Y50642D01*
X-450837Y51244D01*
X-450709Y51750D01*
X-450489Y52223D01*
X-450410Y52934D01*
X-450234Y53629D01*
X-450274Y54150D01*
X-450216Y54669D01*
X-450368Y55369D01*
X-450423Y56083D01*
X-450627Y56563D01*
X-450737Y57074D01*
X-451104Y57689D01*
X-451383Y58348D01*
X-451831Y58908D01*
X-451998Y59188D01*
X-452178Y59343D01*
X-452438Y59668D01*
X-454600Y61830D01*
X-454600Y217570D01*
X-443470Y228700D01*
X-265443Y228700D01*
X-264548Y228847D01*
X-263641Y228917D01*
X-263338Y229045D01*
X-263015Y229098D01*
X-262213Y229522D01*
X-261375Y229878D01*
X-261050Y230137D01*
X-260840Y230248D01*
X-260615Y230485D01*
X-260056Y230932D01*
X-244327Y246660D01*
X-205673Y246660D01*
X-178339Y219327D01*
X-178339Y180673D01*
X-205673Y153339D01*
X-244507Y153339D01*
X-244693Y153516D01*
X-245167Y153736D01*
X-245590Y154040D01*
X-246274Y154251D01*
X-246924Y154553D01*
X-247443Y154611D01*
X-247942Y154765D01*
X-248657Y154747D01*
X-249369Y154826D01*
X-249879Y154716D01*
X-250402Y154703D01*
X-251075Y154457D01*
X-251774Y154305D01*
X-252223Y154038D01*
X-252713Y153859D01*
X-253273Y153412D01*
X-253888Y153045D01*
X-254227Y152649D01*
X-254636Y152323D01*
X-255023Y151721D01*
X-255490Y151177D01*
X-255686Y150692D01*
X-255968Y150254D01*
X-256143Y149560D01*
X-256412Y148895D01*
X-256491Y148185D01*
X-256572Y147868D01*
X-256553Y147630D01*
X-256599Y147217D01*
X-256599Y61830D01*
X-267730Y50699D01*
X-303657Y50699D01*
X-304363Y50584D01*
X-305079Y50565D01*
X-305570Y50386D01*
X-306085Y50302D01*
X-306717Y49968D01*
X-307391Y49722D01*
X-307800Y49395D01*
X-308260Y49151D01*
X-308753Y48633D01*
X-309313Y48185D01*
X-309596Y47746D01*
X-309955Y47368D01*
X-310257Y46719D01*
X-310645Y46116D01*
X-310773Y45609D01*
X-310993Y45136D01*
X-311073Y44426D01*
X-311248Y43731D01*
X-311208Y43209D01*
X-311266Y42691D01*
X-311115Y41992D01*
X-311060Y41277D01*
X-310855Y40795D01*
X-310745Y40286D01*
X-310378Y39671D01*
X-310099Y39012D01*
X-309652Y38453D01*
X-309485Y38172D01*
X-309304Y38017D01*
X-309044Y37692D01*
X-297133Y25782D01*
X-296397Y25252D01*
X-295706Y24660D01*
X-295401Y24537D01*
X-295135Y24346D01*
X-294267Y24078D01*
X-293424Y23738D01*
X-293012Y23692D01*
X-292784Y23621D01*
X-292457Y23630D01*
X-291746Y23550D01*
X-261952Y23550D01*
X-196559Y-41842D01*
X-196559Y-120720D01*
X-196528Y-120914D01*
X-196549Y-121109D01*
X-196329Y-122125D01*
X-196162Y-123148D01*
X-196070Y-123322D01*
X-196028Y-123514D01*
X-195496Y-124407D01*
X-195011Y-125324D01*
X-194869Y-125459D01*
X-194768Y-125628D01*
X-193981Y-126303D01*
X-193228Y-127019D01*
X-193049Y-127102D01*
X-192900Y-127230D01*
X-191936Y-127619D01*
X-190996Y-128057D01*
X-190801Y-128078D01*
X-190618Y-128152D01*
X-188940Y-128339D01*
X-155673Y-128339D01*
X-128339Y-155673D01*
X-128339Y-194328D01*
X-141068Y-207055D01*
X-141597Y-207792D01*
X-142190Y-208483D01*
X-142313Y-208788D01*
X-142504Y-209053D01*
X-142771Y-209921D01*
X-143112Y-210765D01*
X-143158Y-211178D01*
X-143228Y-211405D01*
X-143220Y-211732D01*
X-143299Y-212443D01*
X-143299Y-279173D01*
X-143278Y-279307D01*
X-143289Y-279412D01*
X-143170Y-279962D01*
X-143153Y-280069D01*
X-143083Y-280976D01*
X-142955Y-281279D01*
X-142902Y-281602D01*
X-142478Y-282404D01*
X-142122Y-283242D01*
X-141862Y-283567D01*
X-141751Y-283777D01*
X-141515Y-284002D01*
X-141068Y-284561D01*
X-140999Y-284630D01*
X-140999Y-365392D01*
X-141269Y-365811D01*
X-141608Y-366168D01*
X-141819Y-366621D01*
X-142152Y-367084D01*
X-142210Y-367273D01*
X-142317Y-367439D01*
X-142457Y-367993D01*
X-142646Y-368399D01*
X-142696Y-368850D01*
X-142877Y-369436D01*
X-142872Y-369634D01*
X-142920Y-369824D01*
X-142873Y-370435D01*
X-142919Y-370845D01*
X-142831Y-371252D01*
X-142814Y-371896D01*
X-142746Y-372082D01*
X-142731Y-372278D01*
X-142480Y-372870D01*
X-142398Y-373250D01*
X-142198Y-373585D01*
X-141971Y-374208D01*
X-141847Y-374362D01*
X-141770Y-374543D01*
X-141204Y-375252D01*
X-141138Y-375363D01*
X-141066Y-375425D01*
X-140716Y-375863D01*
X-139675Y-376903D01*
X-136330Y-382696D01*
X-134599Y-389156D01*
X-134599Y-417379D01*
X-174997Y-417379D01*
X-174999Y-417379D01*
X-175003Y-417379D01*
X-224997Y-417379D01*
X-225191Y-417411D01*
X-225386Y-417389D01*
X-226401Y-417609D01*
X-227425Y-417776D01*
X-227598Y-417868D01*
X-227791Y-417910D01*
X-228683Y-418442D01*
X-229600Y-418927D01*
X-229736Y-419069D01*
X-229904Y-419170D01*
X-229908Y-419174D01*
X-229909Y-419175D01*
X-230583Y-419962D01*
X-231295Y-420711D01*
X-231300Y-420716D01*
X-231383Y-420894D01*
X-231511Y-421043D01*
X-231901Y-422007D01*
X-232338Y-422947D01*
X-232360Y-423142D01*
X-232433Y-423325D01*
X-232621Y-425003D01*
X-232621Y-483779D01*
X-232890Y-483878D01*
X-233299Y-484204D01*
X-233760Y-484448D01*
X-234254Y-484968D01*
X-234813Y-485414D01*
X-235095Y-485853D01*
X-235455Y-486232D01*
X-235758Y-486883D01*
X-236145Y-487483D01*
X-236273Y-487990D01*
X-236493Y-488463D01*
X-236573Y-489175D01*
X-236748Y-489869D01*
X-236708Y-490390D01*
X-236766Y-490909D01*
X-236615Y-491608D01*
X-236560Y-492323D01*
X-236356Y-492804D01*
X-236245Y-493314D01*
X-235878Y-493929D01*
X-235599Y-494588D01*
X-235152Y-495148D01*
X-234985Y-495428D01*
X-234804Y-495582D01*
X-234544Y-495908D01*
X-204344Y-526108D01*
X-203606Y-526638D01*
X-202916Y-527230D01*
X-202612Y-527353D01*
X-202345Y-527544D01*
X-201477Y-527812D01*
X-200634Y-528152D01*
X-200222Y-528198D01*
X-199994Y-528268D01*
X-199667Y-528260D01*
X-198956Y-528339D01*
X-180673Y-528339D01*
X-166724Y-542288D01*
X-165987Y-542818D01*
X-165297Y-543410D01*
X-164992Y-543533D01*
X-164726Y-543724D01*
X-163858Y-543991D01*
X-163015Y-544332D01*
X-162602Y-544378D01*
X-162374Y-544448D01*
X-162048Y-544440D01*
X-161337Y-544519D01*
X-103746Y-544519D01*
X-103039Y-544404D01*
G37*
G36*
X148733Y-1101382D02*
X148733Y-1101382D01*
X149135Y-1101282D01*
X149635Y-1101259D01*
X343002Y-1057125D01*
X343378Y-1056955D01*
X343868Y-1056843D01*
X350483Y-1054016D01*
X445553Y-1013381D01*
X457437Y-1008302D01*
X469320Y-1003223D01*
X469321Y-1003223D01*
X469321Y-1003222D01*
X481204Y-998143D01*
X481205Y-998143D01*
X493088Y-993064D01*
X493088Y-993063D01*
X526247Y-978891D01*
X526588Y-978657D01*
X527049Y-978459D01*
X692578Y-869195D01*
X692871Y-868904D01*
X693290Y-868627D01*
X836648Y-731562D01*
X836695Y-731494D01*
X836764Y-731448D01*
X836953Y-731158D01*
X837248Y-730876D01*
X948329Y-577986D01*
X948594Y-577408D01*
X948940Y-576876D01*
X949008Y-576505D01*
X949165Y-576162D01*
X949185Y-575527D01*
X949298Y-574902D01*
X949217Y-574534D01*
X949229Y-574157D01*
X949002Y-573564D01*
X948865Y-572944D01*
X948647Y-572636D01*
X948512Y-572284D01*
X948073Y-571824D01*
X947706Y-571306D01*
X947386Y-571106D01*
X947126Y-570834D01*
X946543Y-570581D01*
X946004Y-570244D01*
X945603Y-570172D01*
X945287Y-570034D01*
X944810Y-570028D01*
X944220Y-569921D01*
X-141860Y-569921D01*
X-141909Y-569930D01*
X-141958Y-569922D01*
X-142891Y-570128D01*
X-143826Y-570317D01*
X-143868Y-570344D01*
X-143916Y-570355D01*
X-144695Y-570907D01*
X-145486Y-571443D01*
X-145513Y-571485D01*
X-145554Y-571514D01*
X-146059Y-572324D01*
X-146580Y-573124D01*
X-146589Y-573173D01*
X-146616Y-573216D01*
X-146939Y-575000D01*
X-146939Y-596978D01*
X-178021Y-628060D01*
X-219833Y-628060D01*
X-220304Y-628155D01*
X-220785Y-628150D01*
X-221278Y-628351D01*
X-221799Y-628456D01*
X-222198Y-628727D01*
X-222643Y-628908D01*
X-223018Y-629283D01*
X-223459Y-629583D01*
X-223722Y-629986D01*
X-224062Y-630326D01*
X-224264Y-630819D01*
X-224553Y-631264D01*
X-224639Y-631737D01*
X-224822Y-632182D01*
X-224828Y-632775D01*
X-224912Y-633238D01*
X-224836Y-633580D01*
X-224840Y-633996D01*
X-224268Y-637338D01*
X-304145Y-750151D01*
X-304410Y-750748D01*
X-304756Y-751302D01*
X-304825Y-751684D01*
X-304958Y-751985D01*
X-304968Y-752474D01*
X-305079Y-753087D01*
X-305079Y-1061095D01*
X-305027Y-1061354D01*
X-305053Y-1061615D01*
X-304831Y-1062328D01*
X-304683Y-1063061D01*
X-304535Y-1063279D01*
X-304457Y-1063531D01*
X-303977Y-1064103D01*
X-303557Y-1064721D01*
X-303336Y-1064865D01*
X-303167Y-1065067D01*
X-302357Y-1065502D01*
X-301876Y-1065815D01*
X-301723Y-1065843D01*
X-301570Y-1065926D01*
X-247749Y-1083413D01*
X-247339Y-1083460D01*
X-246861Y-1083616D01*
X-50317Y-1110239D01*
X-49904Y-1110213D01*
X-49407Y-1110280D01*
X148733Y-1101382D01*
G37*
G36*
X918279Y194586D02*
X918279Y194586D01*
X918802Y194600D01*
X919476Y194846D01*
X920174Y194997D01*
X920623Y195264D01*
X921114Y195443D01*
X921673Y195891D01*
X922288Y196257D01*
X922628Y196654D01*
X923036Y196980D01*
X923423Y197581D01*
X923890Y198125D01*
X924086Y198611D01*
X924368Y199049D01*
X924543Y199742D01*
X924812Y200407D01*
X924892Y201118D01*
X924972Y201435D01*
X924953Y201672D01*
X924999Y202085D01*
X924999Y286033D01*
X924893Y286682D01*
X924887Y287340D01*
X924696Y287889D01*
X924602Y288462D01*
X924295Y289042D01*
X924079Y289664D01*
X923608Y290341D01*
X923451Y290637D01*
X923306Y290775D01*
X923114Y291051D01*
X689186Y558398D01*
X688292Y559135D01*
X687412Y559890D01*
X687343Y559917D01*
X687288Y559963D01*
X686209Y560376D01*
X685130Y560812D01*
X685043Y560822D01*
X684989Y560843D01*
X684782Y560851D01*
X683452Y560999D01*
X507130Y560999D01*
X495999Y572130D01*
X495999Y633380D01*
X495968Y633574D01*
X495989Y633769D01*
X495769Y634785D01*
X495602Y635808D01*
X495510Y635982D01*
X495468Y636174D01*
X494936Y637067D01*
X494451Y637984D01*
X494309Y638119D01*
X494208Y638288D01*
X493421Y638963D01*
X492668Y639679D01*
X492489Y639762D01*
X492340Y639890D01*
X491376Y640279D01*
X490436Y640717D01*
X490241Y640738D01*
X490058Y640812D01*
X488380Y640999D01*
X478318Y640999D01*
X438256Y657594D01*
X409708Y686143D01*
X409126Y686561D01*
X408607Y687054D01*
X408134Y687274D01*
X407709Y687579D01*
X407024Y687790D01*
X406376Y688092D01*
X405858Y688149D01*
X405358Y688303D01*
X404641Y688285D01*
X403930Y688364D01*
X403421Y688254D01*
X402898Y688241D01*
X402224Y687995D01*
X401525Y687843D01*
X401077Y687576D01*
X400586Y687397D01*
X400026Y686950D01*
X399412Y686583D01*
X399072Y686187D01*
X398664Y685860D01*
X398277Y685260D01*
X397810Y684715D01*
X397614Y684229D01*
X397332Y683791D01*
X397156Y683098D01*
X396888Y682433D01*
X396808Y681722D01*
X396728Y681406D01*
X396746Y681168D01*
X396700Y680755D01*
X396700Y637223D01*
X396688Y637191D01*
X396642Y636779D01*
X396571Y636551D01*
X396580Y636224D01*
X396500Y635513D01*
X396500Y629120D01*
X396532Y628926D01*
X396510Y628730D01*
X396730Y627715D01*
X396898Y626691D01*
X396990Y626518D01*
X397031Y626325D01*
X397563Y625433D01*
X398048Y624516D01*
X398191Y624380D01*
X398292Y624212D01*
X399079Y623537D01*
X399832Y622821D01*
X400010Y622738D01*
X400160Y622610D01*
X401124Y622220D01*
X402063Y621783D01*
X402258Y621761D01*
X402441Y621688D01*
X404120Y621500D01*
X458370Y621500D01*
X469500Y610370D01*
X469500Y568426D01*
X469188Y567652D01*
X469142Y567239D01*
X469071Y567011D01*
X469080Y566685D01*
X469000Y565973D01*
X469000Y532433D01*
X469185Y531306D01*
X469344Y530170D01*
X469387Y530073D01*
X469398Y530004D01*
X469507Y529797D01*
X470021Y528623D01*
X473669Y522304D01*
X475400Y515844D01*
X475400Y507621D01*
X410003Y507621D01*
X410000Y507620D01*
X409997Y507621D01*
X344599Y507621D01*
X344568Y507813D01*
X344589Y508008D01*
X344369Y509024D01*
X344202Y510048D01*
X344110Y510221D01*
X344068Y510413D01*
X343536Y511306D01*
X343051Y512223D01*
X342909Y512358D01*
X342808Y512527D01*
X342021Y513202D01*
X341268Y513918D01*
X341089Y514001D01*
X340940Y514129D01*
X339976Y514518D01*
X339036Y514956D01*
X338841Y514978D01*
X338658Y515051D01*
X336980Y515238D01*
X290238Y515238D01*
X290238Y573380D01*
X290207Y573574D01*
X290228Y573769D01*
X290008Y574785D01*
X289841Y575808D01*
X289749Y575982D01*
X289708Y576174D01*
X289175Y577067D01*
X288690Y577984D01*
X288548Y578119D01*
X288447Y578288D01*
X287660Y578963D01*
X286907Y579679D01*
X286728Y579762D01*
X286579Y579890D01*
X285615Y580279D01*
X284675Y580717D01*
X284480Y580738D01*
X284298Y580812D01*
X282619Y580999D01*
X267380Y580999D01*
X267186Y580968D01*
X266991Y580989D01*
X265976Y580769D01*
X264952Y580602D01*
X264778Y580510D01*
X264586Y580468D01*
X263694Y579936D01*
X262777Y579451D01*
X262641Y579309D01*
X262473Y579208D01*
X261798Y578421D01*
X261082Y577668D01*
X260999Y577489D01*
X260871Y577340D01*
X260481Y576376D01*
X260044Y575436D01*
X260022Y575241D01*
X259948Y575058D01*
X259761Y573380D01*
X259761Y515238D01*
X201620Y515238D01*
X201426Y515207D01*
X201230Y515228D01*
X200215Y515008D01*
X199191Y514841D01*
X199018Y514749D01*
X198825Y514708D01*
X197933Y514175D01*
X197016Y513690D01*
X196880Y513548D01*
X196712Y513447D01*
X196037Y512660D01*
X195321Y511907D01*
X195238Y511728D01*
X195110Y511579D01*
X194720Y510615D01*
X194283Y509675D01*
X194261Y509480D01*
X194188Y509298D01*
X194000Y507619D01*
X194000Y492380D01*
X194032Y492186D01*
X194010Y491991D01*
X194230Y490976D01*
X194398Y489952D01*
X194490Y489778D01*
X194531Y489586D01*
X195063Y488694D01*
X195548Y487777D01*
X195691Y487641D01*
X195792Y487473D01*
X196579Y486798D01*
X197332Y486082D01*
X197510Y485999D01*
X197660Y485871D01*
X198624Y485481D01*
X199563Y485044D01*
X199758Y485022D01*
X199941Y484948D01*
X201620Y484761D01*
X259761Y484761D01*
X259761Y426620D01*
X259793Y426426D01*
X259771Y426230D01*
X259991Y425215D01*
X260158Y424191D01*
X260250Y424018D01*
X260292Y423825D01*
X260824Y422933D01*
X261309Y422016D01*
X261452Y421880D01*
X261552Y421712D01*
X262339Y421037D01*
X263093Y420321D01*
X263271Y420238D01*
X263420Y420110D01*
X264384Y419720D01*
X265324Y419283D01*
X265519Y419261D01*
X265702Y419188D01*
X267380Y419000D01*
X282619Y419000D01*
X282813Y419032D01*
X283008Y419010D01*
X284024Y419230D01*
X285048Y419398D01*
X285221Y419490D01*
X285413Y419531D01*
X286306Y420063D01*
X287223Y420548D01*
X287358Y420691D01*
X287527Y420792D01*
X288202Y421579D01*
X288918Y422332D01*
X289001Y422510D01*
X289129Y422660D01*
X289518Y423624D01*
X289956Y424563D01*
X289978Y424758D01*
X290051Y424941D01*
X290238Y426620D01*
X290238Y484761D01*
X336980Y484761D01*
X337174Y484793D01*
X337369Y484771D01*
X338385Y484991D01*
X339408Y485158D01*
X339582Y485250D01*
X339774Y485292D01*
X340667Y485824D01*
X341584Y486309D01*
X341719Y486452D01*
X341888Y486552D01*
X342563Y487339D01*
X343279Y488093D01*
X343362Y488271D01*
X343490Y488420D01*
X343879Y489384D01*
X344317Y490324D01*
X344338Y490519D01*
X344412Y490702D01*
X344599Y492379D01*
X409997Y492379D01*
X409999Y492379D01*
X410003Y492379D01*
X475400Y492379D01*
X475400Y484156D01*
X473669Y477695D01*
X470021Y471377D01*
X469633Y470350D01*
X469346Y469732D01*
X469331Y469600D01*
X469188Y469246D01*
X469176Y469141D01*
X469151Y469075D01*
X469142Y468840D01*
X469000Y467567D01*
X469000Y434026D01*
X469147Y433131D01*
X469217Y432223D01*
X469345Y431921D01*
X469398Y431598D01*
X469500Y431404D01*
X469500Y389630D01*
X461597Y381726D01*
X461482Y381566D01*
X461329Y381444D01*
X460769Y380574D01*
X460161Y379728D01*
X460103Y379539D01*
X459997Y379375D01*
X459743Y378371D01*
X459436Y377376D01*
X459441Y377179D01*
X459393Y376989D01*
X459473Y375952D01*
X459474Y375891D01*
X459470Y375854D01*
X459476Y375828D01*
X459499Y374916D01*
X459567Y374733D01*
X459582Y374536D01*
X459938Y373696D01*
X459991Y373449D01*
X460103Y373261D01*
X460343Y372605D01*
X460466Y372451D01*
X460543Y372270D01*
X461141Y371521D01*
X461252Y371336D01*
X461371Y371233D01*
X461597Y370951D01*
X490816Y341732D01*
X490818Y341730D01*
X494951Y337597D01*
X495110Y337483D01*
X495233Y337329D01*
X496106Y336767D01*
X496949Y336161D01*
X497137Y336103D01*
X497302Y335997D01*
X498306Y335743D01*
X499300Y335436D01*
X499498Y335441D01*
X499688Y335393D01*
X500722Y335473D01*
X501760Y335499D01*
X501945Y335567D01*
X502141Y335582D01*
X503097Y335987D01*
X504072Y336343D01*
X504226Y336466D01*
X504407Y336543D01*
X505726Y337597D01*
X507130Y339000D01*
X792870Y339000D01*
X804000Y327870D01*
X804000Y299120D01*
X804032Y298926D01*
X804010Y298730D01*
X804230Y297715D01*
X804398Y296691D01*
X804490Y296518D01*
X804531Y296325D01*
X805063Y295433D01*
X805548Y294516D01*
X805691Y294380D01*
X805792Y294212D01*
X806579Y293537D01*
X807332Y292821D01*
X807510Y292738D01*
X807660Y292610D01*
X808624Y292220D01*
X809563Y291783D01*
X809758Y291761D01*
X809941Y291688D01*
X811620Y291500D01*
X817190Y291500D01*
X843731Y264959D01*
X843732Y264958D01*
X889958Y218732D01*
X889959Y218731D01*
X911992Y196698D01*
X912574Y196279D01*
X913093Y195787D01*
X913566Y195567D01*
X913990Y195261D01*
X914676Y195050D01*
X915324Y194749D01*
X915842Y194691D01*
X916342Y194537D01*
X917059Y194555D01*
X917769Y194476D01*
X918279Y194586D01*
G37*
%LPC*%
G36*
X353318Y-509000D02*
X353318Y-509000D01*
X313256Y-492406D01*
X282594Y-461743D01*
X265999Y-421682D01*
X265999Y-378318D01*
X282594Y-338256D01*
X313256Y-307594D01*
X353318Y-290999D01*
X396682Y-290999D01*
X436743Y-307594D01*
X467406Y-338256D01*
X484000Y-378318D01*
X484000Y-421682D01*
X467406Y-461743D01*
X436743Y-492406D01*
X396682Y-509000D01*
X353318Y-509000D01*
G37*
%LPD*%
%LPC*%
G36*
X628318Y-509000D02*
X628318Y-509000D01*
X588256Y-492406D01*
X557594Y-461743D01*
X540999Y-421682D01*
X540999Y-378318D01*
X557594Y-338256D01*
X588256Y-307594D01*
X628318Y-290999D01*
X671682Y-290999D01*
X711743Y-307594D01*
X742406Y-338256D01*
X759000Y-378318D01*
X759000Y-421682D01*
X742406Y-461743D01*
X711743Y-492406D01*
X671682Y-509000D01*
X628318Y-509000D01*
G37*
%LPD*%
G36*
X1020633Y-192930D02*
X1020633Y-192930D01*
X1021271Y-192894D01*
X1021828Y-192671D01*
X1022414Y-192544D01*
X1022962Y-192217D01*
X1023556Y-191979D01*
X1024013Y-191590D01*
X1024528Y-191283D01*
X1024943Y-190799D01*
X1025430Y-190385D01*
X1025738Y-189871D01*
X1026129Y-189415D01*
X1026369Y-188823D01*
X1026698Y-188276D01*
X1026926Y-187444D01*
X1027052Y-187134D01*
X1027079Y-186887D01*
X1027145Y-186647D01*
X1039342Y-109640D01*
X1039341Y-109361D01*
X1039426Y-108847D01*
X1045109Y-399D01*
X1045078Y-122D01*
X1045109Y399D01*
X1039426Y108847D01*
X1039366Y109120D01*
X1039342Y109640D01*
X1028145Y180333D01*
X1027945Y180941D01*
X1027842Y181570D01*
X1027561Y182100D01*
X1027373Y182670D01*
X1026989Y183181D01*
X1026691Y183745D01*
X1026256Y184159D01*
X1025896Y184638D01*
X1025370Y185000D01*
X1024907Y185440D01*
X1024363Y185693D01*
X1023869Y186033D01*
X1023254Y186209D01*
X1022676Y186478D01*
X1022081Y186544D01*
X1021503Y186710D01*
X1020864Y186680D01*
X1020230Y186751D01*
X1019644Y186624D01*
X1019045Y186596D01*
X1018450Y186365D01*
X1017825Y186230D01*
X1017310Y185923D01*
X1016751Y185706D01*
X1016259Y185296D01*
X1015712Y184970D01*
X1015322Y184514D01*
X1014860Y184130D01*
X1014526Y183587D01*
X1014110Y183102D01*
X1013885Y182544D01*
X1013571Y182034D01*
X1013427Y181413D01*
X1013188Y180820D01*
X1013092Y179963D01*
X1013017Y179637D01*
X1013028Y179389D01*
X1013000Y179142D01*
X1013000Y106143D01*
X1013147Y105248D01*
X1013217Y104341D01*
X1013345Y104038D01*
X1013398Y103715D01*
X1013822Y102913D01*
X1014178Y102075D01*
X1014437Y101750D01*
X1014548Y101540D01*
X1014785Y101315D01*
X1015232Y100756D01*
X1021660Y94327D01*
X1021660Y55673D01*
X1013232Y47244D01*
X1012702Y46506D01*
X1012110Y45816D01*
X1011987Y45512D01*
X1011796Y45246D01*
X1011528Y44377D01*
X1011188Y43535D01*
X1011142Y43122D01*
X1011071Y42894D01*
X1011080Y42568D01*
X1011000Y41856D01*
X1011000Y29630D01*
X1009034Y27663D01*
X1008919Y27504D01*
X1008765Y27380D01*
X1008202Y26505D01*
X1007598Y25665D01*
X1007539Y25477D01*
X1007433Y25311D01*
X1007179Y24307D01*
X1006873Y23313D01*
X1006878Y23116D01*
X1006830Y22925D01*
X1006909Y21893D01*
X1006936Y20853D01*
X1007003Y20668D01*
X1007018Y20472D01*
X1007423Y19518D01*
X1007779Y18542D01*
X1007903Y18388D01*
X1007979Y18206D01*
X1009034Y16887D01*
X1010325Y15597D01*
X1013669Y9803D01*
X1015400Y3344D01*
X1015400Y-59761D01*
X882621Y-59761D01*
X882427Y-59793D01*
X882232Y-59771D01*
X881216Y-59991D01*
X880193Y-60158D01*
X880019Y-60250D01*
X879827Y-60292D01*
X878934Y-60824D01*
X878017Y-61309D01*
X877882Y-61452D01*
X877713Y-61552D01*
X877038Y-62339D01*
X876322Y-63093D01*
X876239Y-63271D01*
X876111Y-63420D01*
X875722Y-64384D01*
X875284Y-65324D01*
X875263Y-65519D01*
X875189Y-65702D01*
X875002Y-67380D01*
X875002Y-82619D01*
X875033Y-82813D01*
X875012Y-83008D01*
X875232Y-84024D01*
X875399Y-85048D01*
X875491Y-85221D01*
X875533Y-85413D01*
X876065Y-86306D01*
X876550Y-87223D01*
X876692Y-87358D01*
X876793Y-87527D01*
X877580Y-88202D01*
X878333Y-88918D01*
X878512Y-89001D01*
X878661Y-89129D01*
X879625Y-89518D01*
X880565Y-89956D01*
X880760Y-89978D01*
X880943Y-90051D01*
X882621Y-90238D01*
X1015400Y-90238D01*
X1015400Y-153344D01*
X1013669Y-159803D01*
X1010325Y-165597D01*
X1009534Y-166387D01*
X1009419Y-166547D01*
X1009265Y-166670D01*
X1008703Y-167543D01*
X1008098Y-168385D01*
X1008040Y-168573D01*
X1007933Y-168739D01*
X1007678Y-169748D01*
X1007373Y-170737D01*
X1007378Y-170933D01*
X1007330Y-171125D01*
X1007409Y-172159D01*
X1007436Y-173197D01*
X1007503Y-173383D01*
X1007518Y-173578D01*
X1007923Y-174533D01*
X1008279Y-175508D01*
X1008402Y-175662D01*
X1008479Y-175844D01*
X1009534Y-177163D01*
X1012000Y-179629D01*
X1012000Y-185455D01*
X1012103Y-186085D01*
X1012107Y-186724D01*
X1012301Y-187293D01*
X1012398Y-187884D01*
X1012696Y-188447D01*
X1012903Y-189053D01*
X1013268Y-189529D01*
X1013548Y-190059D01*
X1014012Y-190499D01*
X1014400Y-191006D01*
X1014897Y-191340D01*
X1015332Y-191754D01*
X1015912Y-192023D01*
X1016441Y-192380D01*
X1017020Y-192539D01*
X1017563Y-192792D01*
X1018198Y-192863D01*
X1018814Y-193032D01*
X1019413Y-192998D01*
X1020009Y-193065D01*
X1020633Y-192930D01*
G37*
%LPC*%
G36*
X-790002Y424998D02*
X-790002Y424998D01*
X-790002Y432619D01*
X-790033Y432813D01*
X-790012Y433008D01*
X-790232Y434024D01*
X-790399Y435048D01*
X-790491Y435221D01*
X-790533Y435413D01*
X-791065Y436306D01*
X-791550Y437223D01*
X-791692Y437358D01*
X-791793Y437527D01*
X-792580Y438202D01*
X-793333Y438918D01*
X-793512Y439001D01*
X-793661Y439129D01*
X-794625Y439518D01*
X-795565Y439956D01*
X-795760Y439978D01*
X-795943Y440051D01*
X-797621Y440238D01*
X-850400Y440238D01*
X-850400Y473344D01*
X-848669Y479803D01*
X-845325Y485596D01*
X-840596Y490325D01*
X-834803Y493669D01*
X-827375Y495660D01*
X-827194Y495742D01*
X-826851Y495798D01*
X-826678Y495890D01*
X-826485Y495931D01*
X-825593Y496463D01*
X-825579Y496471D01*
X-825132Y496673D01*
X-825046Y496753D01*
X-824676Y496948D01*
X-824540Y497091D01*
X-824372Y497192D01*
X-823697Y497979D01*
X-823482Y498205D01*
X-823329Y498347D01*
X-823305Y498391D01*
X-822981Y498732D01*
X-822898Y498910D01*
X-822770Y499060D01*
X-822380Y500024D01*
X-822162Y500494D01*
X-822153Y500509D01*
X-822153Y500513D01*
X-821943Y500963D01*
X-821922Y501158D01*
X-821848Y501341D01*
X-821660Y503020D01*
X-821660Y544327D01*
X-794327Y571660D01*
X-755673Y571660D01*
X-728339Y544327D01*
X-728339Y505672D01*
X-736157Y497855D01*
X-736272Y497695D01*
X-736426Y497572D01*
X-736987Y496700D01*
X-737593Y495857D01*
X-737652Y495668D01*
X-737758Y495503D01*
X-738012Y494498D01*
X-738318Y493505D01*
X-738313Y493308D01*
X-738361Y493118D01*
X-738282Y492082D01*
X-738255Y491045D01*
X-738188Y490860D01*
X-738173Y490664D01*
X-737767Y489707D01*
X-737412Y488733D01*
X-737288Y488579D01*
X-737212Y488398D01*
X-736158Y487079D01*
X-734675Y485596D01*
X-731330Y479803D01*
X-729599Y473344D01*
X-729599Y440238D01*
X-782379Y440238D01*
X-782573Y440207D01*
X-782768Y440228D01*
X-783783Y440008D01*
X-784807Y439841D01*
X-784981Y439749D01*
X-785173Y439708D01*
X-786065Y439175D01*
X-786983Y438690D01*
X-787118Y438548D01*
X-787287Y438447D01*
X-787962Y437660D01*
X-788678Y436907D01*
X-788760Y436728D01*
X-788888Y436579D01*
X-789278Y435615D01*
X-789715Y434675D01*
X-789737Y434480D01*
X-789811Y434298D01*
X-789998Y432619D01*
X-789998Y424998D01*
X-790002Y424998D01*
G37*
%LPD*%
G36*
X146074Y681732D02*
X146074Y681732D01*
X146269Y681710D01*
X147285Y681930D01*
X148308Y682098D01*
X148482Y682190D01*
X148674Y682231D01*
X149567Y682763D01*
X150484Y683248D01*
X150619Y683391D01*
X150788Y683492D01*
X151463Y684279D01*
X152179Y685032D01*
X152262Y685210D01*
X152390Y685360D01*
X152779Y686324D01*
X153063Y686934D01*
X164630Y698500D01*
X173557Y698500D01*
X174263Y698616D01*
X174979Y698634D01*
X175469Y698813D01*
X175985Y698898D01*
X176617Y699232D01*
X177290Y699478D01*
X177699Y699804D01*
X178160Y700048D01*
X178654Y700568D01*
X179213Y701014D01*
X179495Y701453D01*
X179855Y701832D01*
X180158Y702483D01*
X180545Y703083D01*
X180673Y703590D01*
X180893Y704063D01*
X180973Y704775D01*
X181148Y705469D01*
X181108Y705990D01*
X181166Y706509D01*
X181015Y707208D01*
X180960Y707923D01*
X180756Y708404D01*
X180645Y708914D01*
X180278Y709529D01*
X179999Y710188D01*
X179552Y710748D01*
X179385Y711028D01*
X179204Y711182D01*
X178944Y711508D01*
X149184Y741268D01*
X148446Y741798D01*
X147756Y742390D01*
X147452Y742513D01*
X147185Y742704D01*
X146317Y742972D01*
X145474Y743312D01*
X145062Y743358D01*
X144834Y743428D01*
X144507Y743420D01*
X143796Y743499D01*
X-12183Y743499D01*
X-12891Y743383D01*
X-13607Y743365D01*
X-14097Y743186D01*
X-14612Y743102D01*
X-15244Y742767D01*
X-15919Y742521D01*
X-16327Y742195D01*
X-16787Y741951D01*
X-17281Y741432D01*
X-17841Y740984D01*
X-18123Y740546D01*
X-18482Y740168D01*
X-18784Y739517D01*
X-19172Y738914D01*
X-19300Y738409D01*
X-19520Y737936D01*
X-19599Y737224D01*
X-19775Y736529D01*
X-19735Y736009D01*
X-19793Y735491D01*
X-19641Y734790D01*
X-19586Y734075D01*
X-19382Y733595D01*
X-19272Y733086D01*
X-18904Y732470D01*
X-18624Y731810D01*
X-18178Y731252D01*
X-18011Y730972D01*
X-17830Y730817D01*
X-17729Y730691D01*
X-14330Y724803D01*
X-12599Y718344D01*
X-12599Y707621D01*
X-72997Y707621D01*
X-73191Y707589D01*
X-73386Y707611D01*
X-74401Y707391D01*
X-75425Y707223D01*
X-75598Y707131D01*
X-75791Y707090D01*
X-76683Y706558D01*
X-77600Y706073D01*
X-77736Y705930D01*
X-77904Y705829D01*
X-78579Y705042D01*
X-79295Y704289D01*
X-79378Y704111D01*
X-79506Y703961D01*
X-79896Y702997D01*
X-80333Y702058D01*
X-80355Y701863D01*
X-80429Y701680D01*
X-80616Y700001D01*
X-80616Y699998D01*
X-80584Y699805D01*
X-80606Y699612D01*
X-80606Y699611D01*
X-80606Y699609D01*
X-80386Y698593D01*
X-80218Y697570D01*
X-80127Y697396D01*
X-80085Y697204D01*
X-79553Y696312D01*
X-79068Y695394D01*
X-78925Y695259D01*
X-78825Y695090D01*
X-78038Y694415D01*
X-77284Y693699D01*
X-77106Y693617D01*
X-76957Y693488D01*
X-75993Y693099D01*
X-75053Y692662D01*
X-74858Y692640D01*
X-74675Y692566D01*
X-72997Y692379D01*
X-12599Y692379D01*
X-12599Y689320D01*
X-12568Y689126D01*
X-12589Y688930D01*
X-12370Y687918D01*
X-12202Y686891D01*
X-12110Y686717D01*
X-12068Y686525D01*
X-11538Y685636D01*
X-11052Y684716D01*
X-10909Y684581D01*
X-10808Y684412D01*
X-10019Y683735D01*
X-9268Y683021D01*
X-9090Y682939D01*
X-8940Y682810D01*
X-7975Y682420D01*
X-7037Y681983D01*
X-6841Y681961D01*
X-6658Y681888D01*
X-4980Y681700D01*
X145880Y681700D01*
X146074Y681732D01*
G37*
%LPC*%
G36*
X-869327Y-96660D02*
X-869327Y-96660D01*
X-896660Y-69327D01*
X-896660Y-30673D01*
X-869327Y-3340D01*
X-830673Y-3340D01*
X-803339Y-30673D01*
X-803339Y-69327D01*
X-830673Y-96660D01*
X-869327Y-96660D01*
G37*
%LPD*%
%LPC*%
G36*
X630673Y-96660D02*
X630673Y-96660D01*
X603339Y-69327D01*
X603339Y-30673D01*
X630673Y-3340D01*
X669327Y-3340D01*
X696660Y-30673D01*
X696660Y-69327D01*
X669327Y-96660D01*
X630673Y-96660D01*
G37*
%LPD*%
%LPC*%
G36*
X15239Y915239D02*
X15239Y915239D01*
X15239Y1014425D01*
X27022Y1012559D01*
X44298Y1006946D01*
X60484Y998698D01*
X75177Y988024D01*
X88024Y975177D01*
X98698Y960484D01*
X106946Y944298D01*
X112559Y927022D01*
X114425Y915239D01*
X15239Y915239D01*
G37*
%LPD*%
%LPC*%
G36*
X-114425Y915239D02*
X-114425Y915239D01*
X-112559Y927022D01*
X-106946Y944298D01*
X-98698Y960484D01*
X-88024Y975177D01*
X-75177Y988024D01*
X-60484Y998698D01*
X-44298Y1006946D01*
X-27022Y1012559D01*
X-15239Y1014425D01*
X-15239Y915239D01*
X-114425Y915239D01*
G37*
%LPD*%
%LPC*%
G36*
X-875400Y-309761D02*
X-875400Y-309761D01*
X-875400Y-276656D01*
X-873669Y-270195D01*
X-871426Y-266309D01*
X-871188Y-265681D01*
X-870859Y-265093D01*
X-870755Y-264536D01*
X-870555Y-264008D01*
X-870531Y-263336D01*
X-870407Y-262674D01*
X-870485Y-262113D01*
X-870464Y-261548D01*
X-870655Y-260904D01*
X-870748Y-260237D01*
X-871067Y-259509D01*
X-871162Y-259188D01*
X-871283Y-259016D01*
X-871426Y-258690D01*
X-873669Y-254804D01*
X-875400Y-248344D01*
X-875400Y-215238D01*
X-830238Y-215238D01*
X-830238Y-309761D01*
X-875400Y-309761D01*
G37*
%LPD*%
%LPC*%
G36*
X-799761Y-309761D02*
X-799761Y-309761D01*
X-799761Y-215238D01*
X-754599Y-215238D01*
X-754599Y-248344D01*
X-756330Y-254804D01*
X-758574Y-258690D01*
X-758812Y-259319D01*
X-759140Y-259906D01*
X-759244Y-260462D01*
X-759444Y-260992D01*
X-759469Y-261664D01*
X-759593Y-262325D01*
X-759514Y-262886D01*
X-759535Y-263451D01*
X-759345Y-264096D01*
X-759251Y-264762D01*
X-758933Y-265489D01*
X-758838Y-265811D01*
X-758716Y-265984D01*
X-758574Y-266309D01*
X-756331Y-270195D01*
X-754599Y-276656D01*
X-754599Y-309761D01*
X-799761Y-309761D01*
G37*
%LPD*%
%LPC*%
G36*
X-859803Y-393669D02*
X-859803Y-393669D01*
X-865596Y-390325D01*
X-870325Y-385596D01*
X-873669Y-379803D01*
X-875400Y-373344D01*
X-875400Y-340238D01*
X-830238Y-340238D01*
X-830238Y-395400D01*
X-853344Y-395400D01*
X-859803Y-393669D01*
G37*
%LPD*%
%LPC*%
G36*
X-799761Y-395400D02*
X-799761Y-395400D01*
X-799761Y-340238D01*
X-754599Y-340238D01*
X-754599Y-373344D01*
X-756330Y-379803D01*
X-759675Y-385596D01*
X-764403Y-390325D01*
X-770196Y-393669D01*
X-776656Y-395400D01*
X-799761Y-395400D01*
G37*
%LPD*%
%LPC*%
G36*
X-828344Y354599D02*
X-828344Y354599D01*
X-834803Y356330D01*
X-840596Y359675D01*
X-845325Y364403D01*
X-848669Y370196D01*
X-850400Y376656D01*
X-850400Y409761D01*
X-805238Y409761D01*
X-805238Y354599D01*
X-828344Y354599D01*
G37*
%LPD*%
%LPC*%
G36*
X-875400Y-184761D02*
X-875400Y-184761D01*
X-875400Y-151656D01*
X-873669Y-145196D01*
X-870325Y-139403D01*
X-865596Y-134675D01*
X-859803Y-131330D01*
X-853344Y-129599D01*
X-830238Y-129599D01*
X-830238Y-184761D01*
X-875400Y-184761D01*
G37*
%LPD*%
%LPC*%
G36*
X-774761Y354599D02*
X-774761Y354599D01*
X-774761Y409761D01*
X-729599Y409761D01*
X-729599Y376656D01*
X-731330Y370196D01*
X-734675Y364403D01*
X-739403Y359675D01*
X-745196Y356330D01*
X-751656Y354599D01*
X-774761Y354599D01*
G37*
%LPD*%
%LPC*%
G36*
X-799761Y-184761D02*
X-799761Y-184761D01*
X-799761Y-129599D01*
X-776656Y-129599D01*
X-770196Y-131330D01*
X-764403Y-134675D01*
X-759675Y-139403D01*
X-756330Y-145196D01*
X-754599Y-151656D01*
X-754599Y-184761D01*
X-799761Y-184761D01*
G37*
%LPD*%
%LPC*%
G36*
X-448400Y839999D02*
X-448400Y839999D01*
X-448400Y858344D01*
X-446669Y864803D01*
X-443325Y870596D01*
X-438596Y875325D01*
X-432803Y878669D01*
X-426344Y880400D01*
X-387999Y880400D01*
X-387999Y839999D01*
X-448400Y839999D01*
G37*
%LPD*%
%LPC*%
G36*
X-358000Y839999D02*
X-358000Y839999D01*
X-358000Y880400D01*
X-319656Y880400D01*
X-313196Y878669D01*
X-307403Y875325D01*
X-302675Y870596D01*
X-299330Y864803D01*
X-297599Y858344D01*
X-297599Y839999D01*
X-358000Y839999D01*
G37*
%LPD*%
%LPC*%
G36*
X-358000Y339999D02*
X-358000Y339999D01*
X-358000Y380400D01*
X-319656Y380400D01*
X-313196Y378669D01*
X-307403Y375325D01*
X-302675Y370596D01*
X-299330Y364803D01*
X-297599Y358344D01*
X-297599Y339999D01*
X-358000Y339999D01*
G37*
%LPD*%
%LPC*%
G36*
X-426344Y769599D02*
X-426344Y769599D01*
X-432803Y771330D01*
X-438596Y774675D01*
X-443325Y779403D01*
X-446669Y785196D01*
X-448400Y791656D01*
X-448400Y810000D01*
X-387999Y810000D01*
X-387999Y769599D01*
X-426344Y769599D01*
G37*
%LPD*%
%LPC*%
G36*
X-426344Y269599D02*
X-426344Y269599D01*
X-432803Y271330D01*
X-438596Y274675D01*
X-443325Y279403D01*
X-446669Y285196D01*
X-448400Y291656D01*
X-448400Y310000D01*
X-387999Y310000D01*
X-387999Y269599D01*
X-426344Y269599D01*
G37*
%LPD*%
%LPC*%
G36*
X-358000Y769599D02*
X-358000Y769599D01*
X-358000Y810000D01*
X-297599Y810000D01*
X-297599Y791656D01*
X-299330Y785196D01*
X-302675Y779403D01*
X-307403Y774675D01*
X-313196Y771330D01*
X-319656Y769599D01*
X-358000Y769599D01*
G37*
%LPD*%
%LPC*%
G36*
X-358000Y269599D02*
X-358000Y269599D01*
X-358000Y310000D01*
X-297599Y310000D01*
X-297599Y291656D01*
X-299330Y285196D01*
X-302675Y279403D01*
X-307403Y274675D01*
X-313196Y271330D01*
X-319656Y269599D01*
X-358000Y269599D01*
G37*
%LPD*%
%LPC*%
G36*
X-217379Y-482900D02*
X-217379Y-482900D01*
X-217379Y-432621D01*
X-182621Y-432621D01*
X-182621Y-482900D01*
X-193344Y-482900D01*
X-198028Y-481645D01*
X-199163Y-481532D01*
X-200303Y-481391D01*
X-200408Y-481407D01*
X-200476Y-481400D01*
X-200702Y-481452D01*
X-201973Y-481645D01*
X-206656Y-482900D01*
X-217379Y-482900D01*
G37*
%LPD*%
%LPC*%
G36*
X753656Y-283900D02*
X753656Y-283900D01*
X747196Y-282169D01*
X741403Y-278825D01*
X736675Y-274096D01*
X733330Y-268303D01*
X731599Y-261844D01*
X731599Y-234499D01*
X768500Y-234499D01*
X768500Y-283900D01*
X753656Y-283900D01*
G37*
%LPD*%
%LPC*%
G36*
X-167379Y-482900D02*
X-167379Y-482900D01*
X-167379Y-432621D01*
X-134599Y-432621D01*
X-134599Y-460844D01*
X-136330Y-467303D01*
X-139675Y-473096D01*
X-144403Y-477825D01*
X-150196Y-481169D01*
X-156656Y-482900D01*
X-167379Y-482900D01*
G37*
%LPD*%
%LPC*%
G36*
X274998Y499998D02*
X274998Y499998D01*
X274998Y500002D01*
X275002Y500002D01*
X275002Y499998D01*
X274998Y499998D01*
G37*
%LPD*%
%LPC*%
G36*
X-815002Y-200002D02*
X-815002Y-200002D01*
X-815002Y-199998D01*
X-814998Y-199998D01*
X-814998Y-200002D01*
X-815002Y-200002D01*
G37*
%LPD*%
%LPC*%
G36*
X-815002Y-325002D02*
X-815002Y-325002D01*
X-815002Y-324998D01*
X-814998Y-324998D01*
X-814998Y-325002D01*
X-815002Y-325002D01*
G37*
%LPD*%
D10*
X-1150000Y0D02*
X-1149654Y28222D01*
X-1148615Y56428D01*
X-1146884Y84599D01*
X-1144462Y112720D01*
X-1141351Y140772D01*
X-1137553Y168740D01*
X-1133069Y196606D01*
X-1127903Y224354D01*
X-1122057Y251966D01*
X-1115536Y279427D01*
X-1108342Y306720D01*
X-1100481Y333827D01*
X-1091957Y360734D01*
X-1082776Y387423D01*
X-1072942Y413879D01*
X-1062461Y440086D01*
X-1051341Y466028D01*
X-1039588Y491688D01*
X-1027208Y517053D01*
X-1014209Y542106D01*
X-1000600Y566833D01*
X-986388Y591218D01*
X-971582Y615247D01*
X-956190Y638906D01*
X-940223Y662179D01*
X-923689Y685054D01*
X-906598Y707516D01*
X-888962Y729552D01*
X-870790Y751149D01*
X-852094Y772293D01*
X-832884Y792972D01*
X-813173Y813173D01*
X-792972Y832884D01*
X-772293Y852094D01*
X-751149Y870790D01*
X-729552Y888962D01*
X-707516Y906598D01*
X-685054Y923689D01*
X-662179Y940223D01*
X-638906Y956190D01*
X-615247Y971582D01*
X-591218Y986388D01*
X-566833Y1000600D01*
X-542106Y1014209D01*
X-517053Y1027208D01*
X-491688Y1039588D01*
X-466028Y1051341D01*
X-440086Y1062461D01*
X-413879Y1072942D01*
X-387423Y1082776D01*
X-360734Y1091957D01*
X-333827Y1100481D01*
X-306720Y1108342D01*
X-279427Y1115536D01*
X-251966Y1122057D01*
X-224354Y1127903D01*
X-196606Y1133069D01*
X-168740Y1137553D01*
X-140772Y1141351D01*
X-112720Y1144462D01*
X-84599Y1146884D01*
X-56428Y1148615D01*
X-28222Y1149654D01*
X0Y1150000D01*
X28222Y1149654D01*
X56428Y1148615D01*
X84599Y1146884D01*
X112720Y1144462D01*
X140772Y1141351D01*
X168740Y1137553D01*
X196606Y1133069D01*
X224354Y1127903D01*
X251966Y1122057D01*
X279427Y1115536D01*
X306720Y1108342D01*
X333827Y1100481D01*
X360734Y1091957D01*
X387423Y1082776D01*
X413879Y1072942D01*
X440086Y1062461D01*
X466028Y1051341D01*
X491688Y1039588D01*
X517053Y1027208D01*
X542106Y1014209D01*
X566833Y1000600D01*
X591218Y986388D01*
X615247Y971582D01*
X638906Y956190D01*
X662179Y940223D01*
X685054Y923689D01*
X707516Y906598D01*
X729552Y888962D01*
X751149Y870790D01*
X772293Y852094D01*
X792972Y832884D01*
X813173Y813173D01*
X832884Y792972D01*
X852094Y772293D01*
X870790Y751149D01*
X888962Y729552D01*
X906598Y707516D01*
X923689Y685054D01*
X940223Y662179D01*
X956190Y638906D01*
X971582Y615247D01*
X986388Y591218D01*
X1000600Y566833D01*
X1014209Y542106D01*
X1027208Y517053D01*
X1039588Y491688D01*
X1051341Y466028D01*
X1062461Y440086D01*
X1072942Y413879D01*
X1082776Y387423D01*
X1091957Y360734D01*
X1100481Y333827D01*
X1108342Y306720D01*
X1115536Y279427D01*
X1122057Y251966D01*
X1127903Y224354D01*
X1133069Y196606D01*
X1137553Y168740D01*
X1141351Y140772D01*
X1144462Y112720D01*
X1146884Y84599D01*
X1148615Y56428D01*
X1149654Y28222D01*
X1150000Y0D01*
X1149654Y-28222D01*
X1148615Y-56428D01*
X1146884Y-84599D01*
X1144462Y-112720D01*
X1141351Y-140772D01*
X1137553Y-168740D01*
X1133069Y-196606D01*
X1127903Y-224354D01*
X1122057Y-251966D01*
X1115536Y-279427D01*
X1108342Y-306720D01*
X1100481Y-333827D01*
X1091957Y-360734D01*
X1082776Y-387423D01*
X1072942Y-413879D01*
X1062461Y-440086D01*
X1051341Y-466028D01*
X1039588Y-491688D01*
X1027208Y-517053D01*
X1014209Y-542106D01*
X1000600Y-566833D01*
X986388Y-591218D01*
X971582Y-615247D01*
X956190Y-638906D01*
X940223Y-662179D01*
X923689Y-685054D01*
X906598Y-707516D01*
X888962Y-729552D01*
X870790Y-751149D01*
X852094Y-772293D01*
X832884Y-792972D01*
X813173Y-813173D01*
X792972Y-832884D01*
X772293Y-852094D01*
X751149Y-870790D01*
X729552Y-888962D01*
X707516Y-906598D01*
X685054Y-923689D01*
X662179Y-940223D01*
X638906Y-956190D01*
X615247Y-971582D01*
X591218Y-986388D01*
X566833Y-1000600D01*
X542106Y-1014209D01*
X517053Y-1027208D01*
X491688Y-1039588D01*
X466028Y-1051341D01*
X440086Y-1062461D01*
X413879Y-1072942D01*
X387423Y-1082776D01*
X360734Y-1091957D01*
X333827Y-1100481D01*
X306720Y-1108342D01*
X279427Y-1115536D01*
X251966Y-1122057D01*
X224354Y-1127903D01*
X196606Y-1133069D01*
X168740Y-1137553D01*
X140772Y-1141351D01*
X112720Y-1144462D01*
X84599Y-1146884D01*
X56428Y-1148615D01*
X28222Y-1149654D01*
X0Y-1150000D01*
X-28222Y-1149654D01*
X-56428Y-1148615D01*
X-84599Y-1146884D01*
X-112720Y-1144462D01*
X-140772Y-1141351D01*
X-168740Y-1137553D01*
X-196606Y-1133069D01*
X-224354Y-1127903D01*
X-251966Y-1122057D01*
X-279427Y-1115536D01*
X-306720Y-1108342D01*
X-333827Y-1100481D01*
X-360734Y-1091957D01*
X-387423Y-1082776D01*
X-413879Y-1072942D01*
X-440086Y-1062461D01*
X-466028Y-1051341D01*
X-491688Y-1039588D01*
X-517053Y-1027208D01*
X-542106Y-1014209D01*
X-566833Y-1000600D01*
X-591218Y-986388D01*
X-615247Y-971582D01*
X-638906Y-956190D01*
X-662179Y-940223D01*
X-685054Y-923689D01*
X-707516Y-906598D01*
X-729552Y-888962D01*
X-751149Y-870790D01*
X-772293Y-852094D01*
X-792972Y-832884D01*
X-813173Y-813173D01*
X-832884Y-792972D01*
X-852094Y-772293D01*
X-870790Y-751149D01*
X-888962Y-729552D01*
X-906598Y-707516D01*
X-923689Y-685054D01*
X-940223Y-662179D01*
X-956190Y-638906D01*
X-971582Y-615247D01*
X-986388Y-591218D01*
X-1000600Y-566833D01*
X-1014209Y-542106D01*
X-1027208Y-517053D01*
X-1039588Y-491688D01*
X-1051341Y-466028D01*
X-1062461Y-440086D01*
X-1072942Y-413879D01*
X-1082776Y-387423D01*
X-1091957Y-360734D01*
X-1100481Y-333827D01*
X-1108342Y-306720D01*
X-1115536Y-279427D01*
X-1122057Y-251966D01*
X-1127903Y-224354D01*
X-1133069Y-196606D01*
X-1137553Y-168740D01*
X-1141351Y-140772D01*
X-1144462Y-112720D01*
X-1146884Y-84599D01*
X-1148615Y-56428D01*
X-1149654Y-28222D01*
X-1150000Y0D01*
D11*
X-660000Y425000D03*
X-790000Y425000D03*
D12*
X275000Y500000D03*
D13*
X230000Y640000D03*
X275000Y640000D03*
X320000Y640000D03*
X230000Y360000D03*
X275000Y360000D03*
X320000Y360000D03*
D14*
X410000Y455000D03*
X410000Y500000D03*
X410000Y545000D03*
X135000Y455000D03*
X135000Y500000D03*
X135000Y545000D03*
D15*
X123000Y410000D03*
D16*
X185000Y348000D03*
X185000Y652000D03*
D15*
X123000Y590000D03*
D16*
X365000Y652000D03*
X365000Y348000D03*
D15*
X423000Y410000D03*
X423000Y590000D03*
D17*
X875000Y-75000D03*
D18*
X969000Y73000D03*
X875000Y73000D03*
X781000Y73000D03*
X875000Y-223000D03*
X780000Y-223000D03*
X970000Y-223000D03*
D19*
X650000Y230000D03*
X650000Y670000D03*
D20*
G36*
X-492824Y-643874D02*
X-598921Y-568752D01*
X-512242Y-446332D01*
X-406145Y-521454D01*
X-492824Y-643874D01*
G37*
G36*
X-337758Y-753667D02*
X-443855Y-678545D01*
X-357176Y-556125D01*
X-251079Y-631247D01*
X-337758Y-753667D01*
G37*
D21*
X355600Y139700D03*
X355600Y-139700D03*
X-355600Y-139700D03*
X-355600Y139700D03*
D22*
X-73000Y550000D03*
X-73000Y600000D03*
X-73000Y650000D03*
X-73000Y500000D03*
X-73000Y450000D03*
X-73000Y700000D03*
D23*
X-373000Y825000D03*
X-373000Y325000D03*
D24*
X175000Y-425000D03*
X175000Y-325000D03*
D25*
X0Y900000D03*
X-425000Y-775000D03*
X-600000Y-650000D03*
X500000Y750000D03*
X650000Y-400000D03*
X375000Y-400000D03*
D26*
X48000Y-285000D03*
X-48000Y-285000D03*
X-48000Y-465000D03*
X48000Y-465000D03*
D11*
X-685000Y-200000D03*
X-815000Y-200000D03*
X-685000Y-325000D03*
X-815000Y-325000D03*
D27*
X-175000Y-325000D03*
X-225000Y-325000D03*
X-275000Y-325000D03*
X-325000Y-325000D03*
X-325000Y-425000D03*
X-275000Y-425000D03*
X-225000Y-425000D03*
X-175000Y-425000D03*
D28*
X50000Y713000D03*
D29*
X40000Y713000D01*
X27000Y700000D01*
X-73000Y700000D01*
D28*
X-700000Y650000D03*
D29*
X410000Y500000D02*
X575000Y500000D01*
X600000Y475000D01*
D28*
X175000Y0D03*
X-900000Y-425000D03*
X-148000Y336000D03*
X275000Y500000D03*
X-700000Y225000D03*
X825000Y-75000D03*
X600000Y475000D03*
X-950000Y50000D03*
X425000Y0D03*
X225000Y800000D03*
X-175000Y-175000D03*
D29*
X320000Y640000D02*
X320000Y705000D01*
X225000Y800000D01*
D28*
X650000Y75000D03*
D29*
X779000Y75000D02*
X781000Y73000D01*
X779000Y75000D02*
X650000Y75000D01*
X-175000Y-175000D02*
X-175000Y-325000D01*
D28*
X-675000Y-125000D03*
D29*
X-73000Y500000D02*
X135000Y500000D01*
D28*
X-625000Y525000D03*
X655000Y-225000D03*
D30*
X569700Y-139700D01*
X355600Y-139700D01*
D31*
X-73000Y500000D02*
X-135245Y500000D01*
X-157945Y477300D01*
X-207300Y477300D01*
D30*
X355600Y-139700D02*
X355600Y-144400D01*
D31*
X-207300Y477300D02*
X-280000Y550000D01*
D30*
X-675000Y75000D02*
X-675000Y-125000D01*
D31*
X-325000Y-325000D02*
X-275000Y-325000D01*
X-325000Y-325000D02*
X-325000Y-170300D01*
X-355600Y-139700D01*
X175000Y-225000D02*
X175000Y-325000D01*
X260300Y-139700D02*
X355600Y-139700D01*
X260300Y-139700D02*
X175000Y-225000D01*
D30*
X-685000Y-200000D02*
X-685000Y-325000D01*
X-540900Y-325000D01*
X-355600Y-139700D01*
X-675000Y-190000D02*
X-685000Y-200000D01*
X-675000Y-190000D02*
X-675000Y-125000D01*
D31*
X-660000Y425000D02*
X-660000Y490000D01*
X-625000Y525000D01*
X-600000Y550000D01*
X-280000Y550000D01*
D30*
X-600000Y150000D02*
X-675000Y75000D01*
X-600000Y150000D02*
X-600000Y365000D01*
X-660000Y425000D01*
D28*
X-525000Y-25000D03*
X-200000Y775000D03*
D32*
X230000Y705000D02*
X230000Y640000D01*
D29*
X-195039Y775000D02*
X-200000Y775000D01*
D32*
X-195039Y775000D02*
X160000Y775000D01*
X230000Y705000D01*
D28*
X-750000Y-600000D03*
D32*
X-425000Y-775000D02*
X-352226Y-702226D01*
X-347467Y-654896D01*
X-497773Y-547773D02*
X-600000Y-650000D01*
X-502533Y-545103D02*
X-497773Y-547773D01*
D28*
X-550000Y-175000D03*
X-850000Y-50000D03*
X510000Y-650000D03*
X510000Y-740000D03*
X510000Y-560000D03*
X250000Y-750000D03*
X250000Y-900000D03*
X0Y-900000D03*
X0Y-750000D03*
X-250000Y-750000D03*
X-250000Y-900000D03*
X850000Y-420000D03*
D29*
X875000Y-395000D02*
X875000Y-223000D01*
X875000Y-395000D02*
X850000Y-420000D01*
X25000Y450000D02*
X-73000Y450000D01*
X30000Y455000D02*
X135000Y455000D01*
X30000Y455000D02*
X25000Y450000D01*
D28*
X417000Y260000D03*
X-450000Y400000D03*
D32*
X417000Y271000D02*
X417000Y260000D01*
X417000Y271000D02*
X365000Y323000D01*
X365000Y348000D01*
D28*
X340000Y259000D03*
X-775000Y525000D03*
D32*
X320000Y279000D02*
X340000Y259000D01*
X320000Y279000D02*
X320000Y360000D01*
D28*
X225000Y175000D03*
D32*
X275000Y284000D02*
X275000Y360000D01*
X275000Y284000D02*
X225000Y234000D01*
X225000Y175000D01*
D28*
X125000Y175000D03*
D32*
X125000Y202000D02*
X230000Y307000D01*
X125000Y202000D02*
X125000Y175000D01*
X230000Y307000D02*
X230000Y360000D01*
D28*
X325000Y800000D03*
X-850000Y-500000D03*
D29*
X365000Y652000D02*
X365000Y727000D01*
D32*
X325000Y767000D01*
X325000Y800000D01*
D28*
X-400000Y-350000D03*
D29*
X-400000Y-375000D02*
X-350000Y-425000D01*
X-325000Y-425000D01*
X-400000Y-375000D02*
X-400000Y-350000D01*
D28*
X-175000Y550000D03*
D32*
X32000Y545000D02*
X135000Y545000D01*
X32000Y545000D02*
X27000Y550000D01*
X-73000Y550000D01*
X-175000Y550000D01*
X423000Y410000D02*
X423000Y365000D01*
X480000Y308000D01*
X480000Y214700D02*
X405000Y139700D01*
X355600Y139700D01*
X480000Y214700D02*
X480000Y308000D01*
X-228060Y-54890D02*
X-228060Y-125000D01*
X-307950Y-7950D02*
X-355600Y39700D01*
X-355600Y139700D01*
X-307950Y-7950D02*
X-275000Y-7950D01*
X-228060Y-54890D01*
X-235160Y-132100D02*
X-235160Y-199919D01*
X-235160Y-132100D02*
X-228060Y-125000D01*
X-235160Y-199919D02*
X-225000Y-210079D01*
X-225000Y-325000D01*
X93000Y348000D02*
X185000Y348000D01*
X93000Y348000D02*
X48000Y303000D01*
X48000Y-285000D01*
X-48000Y282000D02*
X80000Y410000D01*
X-48000Y282000D02*
X-48000Y-285000D01*
X80000Y410000D02*
X123000Y410000D01*
D33*
X969000Y305428D02*
X969000Y73000D01*
X969000Y305428D02*
X650000Y670000D01*
D30*
X650000Y725000D02*
X525000Y725000D01*
X500000Y750000D01*
X650000Y725000D02*
X650000Y650000D01*
D33*
X650000Y670000D01*
D28*
X975000Y75000D03*
D33*
X973000Y73000D01*
X969000Y73000D01*
D28*
X650000Y-50000D03*
D34*
X875000Y73000D02*
X875000Y175000D01*
X800000Y250000D01*
D28*
X625000Y250000D03*
D34*
X800000Y250000D01*
D29*
X650000Y230000D02*
X630000Y250000D01*
X625000Y250000D01*
D28*
X550000Y250000D03*
D32*
X48000Y-465000D02*
X-48000Y-465000D01*
X48000Y-465000D02*
X135000Y-465000D01*
X175000Y-425000D01*
D28*
X-600000Y-75000D03*
X-200000Y-575000D03*
D32*
X-275000Y-500000D02*
X-275000Y-425000D01*
X-275000Y-500000D02*
X-200000Y-575000D01*
D28*
X-200000Y625000D03*
D29*
X-73000Y600000D02*
X40000Y600000D01*
X50000Y590000D02*
X123000Y590000D01*
X50000Y590000D02*
X40000Y600000D01*
D32*
X-158451Y625000D02*
X-200000Y625000D01*
X-158451Y625000D02*
X-133451Y600000D01*
X-73000Y600000D01*
D28*
X-175000Y700000D03*
D29*
X183000Y650000D02*
X185000Y652000D01*
X183000Y650000D02*
X-73000Y650000D01*
X-73664Y649336D01*
D32*
X-118581Y649336D02*
X-169245Y700000D01*
X-175000Y700000D01*
X-118581Y649336D02*
X-73664Y649336D01*
D28*
X-485000Y625000D03*
X-225000Y200000D03*
X-525000Y475000D03*
X-450000Y0D03*
M02*
