G04 EAGLE Gerber RS-274X export*
G75*
%MOMM*%
%FSLAX35Y35*%
%LPD*%
%INcopper_bottom*%
%IPPOS*%
%AMOC8*
5,1,8,0,0,1.08239X$1,22.5*%
G01*
%ADD10C,0.000000*%
%ADD11C,1.500000*%
%ADD12R,0.800000X1.000000*%
%ADD13C,0.604000*%
%ADD14C,0.508000*%

G36*
X1500509Y-61854D02*
X1500509Y-61854D01*
X1501425Y-61859D01*
X1561493Y-58486D01*
X1562056Y-58404D01*
X1562626Y-58397D01*
X1565721Y-57889D01*
X1682846Y-31156D01*
X1684064Y-30762D01*
X1685311Y-30461D01*
X1686542Y-29959D01*
X1687131Y-29769D01*
X1687520Y-29561D01*
X1688215Y-29278D01*
X1796455Y22848D01*
X1797555Y23504D01*
X1798703Y24074D01*
X1799794Y24838D01*
X1800323Y25154D01*
X1800655Y25442D01*
X1801271Y25874D01*
X1895199Y100779D01*
X1896127Y101664D01*
X1897118Y102474D01*
X1898008Y103459D01*
X1898457Y103888D01*
X1898718Y104244D01*
X1899221Y104801D01*
X1974126Y198728D01*
X1974832Y199796D01*
X1975619Y200808D01*
X1976270Y201970D01*
X1976610Y202484D01*
X1976784Y202888D01*
X1977152Y203544D01*
X2029278Y311785D01*
X2029729Y312984D01*
X2030271Y314144D01*
X2030646Y315419D01*
X2030864Y315999D01*
X2030944Y316434D01*
X2031156Y317153D01*
X2057889Y434279D01*
X2057966Y434842D01*
X2058117Y435392D01*
X2058486Y438507D01*
X2061859Y498574D01*
X2061843Y499084D01*
X2061899Y499998D01*
X2061899Y2100001D01*
X2061849Y2100566D01*
X2061845Y2101662D01*
X2059822Y2132530D01*
X2059679Y2133444D01*
X2059634Y2134369D01*
X2059213Y2136445D01*
X2059130Y2136980D01*
X2059068Y2137159D01*
X2059011Y2137443D01*
X2043032Y2197078D01*
X2042428Y2198728D01*
X2041892Y2200396D01*
X2041615Y2200952D01*
X2041485Y2201308D01*
X2041165Y2201856D01*
X2040494Y2203204D01*
X2009625Y2256672D01*
X2008615Y2258108D01*
X2007665Y2259582D01*
X2007255Y2260046D01*
X2007036Y2260357D01*
X2006584Y2260805D01*
X2005588Y2261932D01*
X1961932Y2305588D01*
X1960588Y2306713D01*
X1959286Y2307892D01*
X1958768Y2308235D01*
X1958478Y2308478D01*
X1957927Y2308793D01*
X1956672Y2309625D01*
X1903204Y2340494D01*
X1901616Y2341232D01*
X1900052Y2342034D01*
X1899461Y2342233D01*
X1899120Y2342391D01*
X1898510Y2342551D01*
X1897078Y2343032D01*
X1837443Y2359011D01*
X1836531Y2359170D01*
X1835641Y2359424D01*
X1833547Y2359692D01*
X1833007Y2359786D01*
X1832816Y2359785D01*
X1832530Y2359822D01*
X1801661Y2361845D01*
X1801093Y2361832D01*
X1800000Y2361899D01*
X1569719Y2361899D01*
X1569602Y2361889D01*
X1569484Y2361898D01*
X1567363Y2361690D01*
X1565233Y2361500D01*
X1565118Y2361469D01*
X1565002Y2361458D01*
X1562962Y2360881D01*
X1560889Y2360315D01*
X1560782Y2360264D01*
X1560669Y2360232D01*
X1558756Y2359301D01*
X1556822Y2358381D01*
X1556725Y2358313D01*
X1556620Y2358261D01*
X1554899Y2357005D01*
X1553160Y2355760D01*
X1553078Y2355675D01*
X1552983Y2355606D01*
X1551513Y2354067D01*
X1550019Y2352533D01*
X1549953Y2352435D01*
X1549872Y2352350D01*
X1548699Y2350580D01*
X1547497Y2348802D01*
X1547449Y2348693D01*
X1547384Y2348596D01*
X1546540Y2346641D01*
X1545674Y2344684D01*
X1545646Y2344569D01*
X1545599Y2344461D01*
X1545114Y2342391D01*
X1544607Y2340309D01*
X1544599Y2340191D01*
X1544573Y2340077D01*
X1544460Y2337939D01*
X1544329Y2335815D01*
X1544342Y2335699D01*
X1544336Y2335580D01*
X1544604Y2333445D01*
X1544849Y2331342D01*
X1544883Y2331229D01*
X1544898Y2331112D01*
X1545532Y2329078D01*
X1546151Y2327030D01*
X1546205Y2326924D01*
X1546239Y2326813D01*
X1547223Y2324923D01*
X1548193Y2323017D01*
X1548264Y2322924D01*
X1548319Y2322818D01*
X1549632Y2321118D01*
X1550913Y2319428D01*
X1550999Y2319348D01*
X1551072Y2319254D01*
X1552668Y2317809D01*
X1554223Y2316375D01*
X1554322Y2316312D01*
X1554410Y2316232D01*
X1555238Y2315684D01*
X1560325Y2310597D01*
X1563669Y2304805D01*
X1565400Y2298343D01*
X1565400Y2270401D01*
X1525401Y2270401D01*
X1525401Y2336500D01*
X1525370Y2336843D01*
X1525391Y2337185D01*
X1525172Y2339076D01*
X1525002Y2340986D01*
X1524911Y2341318D01*
X1524871Y2341658D01*
X1524319Y2343487D01*
X1523816Y2345330D01*
X1523669Y2345640D01*
X1523569Y2345970D01*
X1522701Y2347675D01*
X1521883Y2349397D01*
X1521683Y2349677D01*
X1521527Y2349983D01*
X1520374Y2351504D01*
X1519261Y2353059D01*
X1519014Y2353299D01*
X1518807Y2353572D01*
X1517407Y2354864D01*
X1516034Y2356200D01*
X1515748Y2356393D01*
X1515497Y2356625D01*
X1513890Y2357649D01*
X1512303Y2358722D01*
X1511988Y2358861D01*
X1511699Y2359045D01*
X1509932Y2359771D01*
X1508185Y2360545D01*
X1507852Y2360626D01*
X1507533Y2360757D01*
X1505669Y2361159D01*
X1503811Y2361612D01*
X1503466Y2361633D01*
X1503132Y2361706D01*
X1500001Y2361899D01*
X1499998Y2361899D01*
X1499656Y2361869D01*
X1499316Y2361890D01*
X1499313Y2361890D01*
X1497422Y2361670D01*
X1495513Y2361500D01*
X1495180Y2361410D01*
X1494840Y2361370D01*
X1493012Y2360818D01*
X1491168Y2360315D01*
X1490858Y2360168D01*
X1490528Y2360068D01*
X1488823Y2359200D01*
X1487101Y2358381D01*
X1486822Y2358181D01*
X1486515Y2358025D01*
X1484994Y2356873D01*
X1483439Y2355760D01*
X1483199Y2355513D01*
X1482926Y2355306D01*
X1481634Y2353905D01*
X1480298Y2352533D01*
X1480105Y2352247D01*
X1479873Y2351995D01*
X1478849Y2350389D01*
X1477777Y2348802D01*
X1477637Y2348487D01*
X1477453Y2348198D01*
X1476727Y2346431D01*
X1475953Y2344684D01*
X1475872Y2344351D01*
X1475741Y2344032D01*
X1475339Y2342168D01*
X1474886Y2340309D01*
X1474865Y2339965D01*
X1474793Y2339630D01*
X1474599Y2336500D01*
X1474599Y2270401D01*
X1434599Y2270401D01*
X1434599Y2298343D01*
X1436331Y2304805D01*
X1439674Y2310597D01*
X1445000Y2315922D01*
X1446662Y2317089D01*
X1446744Y2317173D01*
X1446839Y2317240D01*
X1448326Y2318768D01*
X1449833Y2320287D01*
X1449899Y2320384D01*
X1449980Y2320467D01*
X1451177Y2322238D01*
X1452388Y2323995D01*
X1452437Y2324101D01*
X1452502Y2324198D01*
X1453367Y2326152D01*
X1454249Y2328096D01*
X1454278Y2328209D01*
X1454325Y2328316D01*
X1454831Y2330389D01*
X1455357Y2332461D01*
X1455365Y2332577D01*
X1455393Y2332691D01*
X1455524Y2334818D01*
X1455676Y2336953D01*
X1455663Y2337069D01*
X1455671Y2337185D01*
X1455425Y2339299D01*
X1455197Y2341430D01*
X1455164Y2341543D01*
X1455151Y2341658D01*
X1454530Y2343713D01*
X1453934Y2345753D01*
X1453883Y2345857D01*
X1453849Y2345970D01*
X1452878Y2347877D01*
X1451929Y2349785D01*
X1451858Y2349879D01*
X1451806Y2349983D01*
X1450524Y2351674D01*
X1449242Y2353399D01*
X1449157Y2353480D01*
X1449087Y2353572D01*
X1447522Y2355015D01*
X1445960Y2356482D01*
X1445862Y2356546D01*
X1445776Y2356625D01*
X1443974Y2357773D01*
X1442184Y2358937D01*
X1442077Y2358983D01*
X1441978Y2359045D01*
X1440007Y2359855D01*
X1438035Y2360687D01*
X1437920Y2360713D01*
X1437813Y2360757D01*
X1435729Y2361206D01*
X1433642Y2361676D01*
X1433525Y2361681D01*
X1433411Y2361706D01*
X1430281Y2361899D01*
X1029080Y2361899D01*
X942899Y2385048D01*
X865673Y2429762D01*
X802693Y2492975D01*
X786768Y2520716D01*
X786765Y2520720D01*
X223224Y3502373D01*
X222862Y3502891D01*
X222125Y3504118D01*
X204985Y3529047D01*
X204014Y3530220D01*
X203111Y3531450D01*
X202445Y3532118D01*
X202114Y3532517D01*
X201678Y3532886D01*
X200896Y3533670D01*
X155750Y3573657D01*
X155507Y3573837D01*
X155295Y3574050D01*
X153697Y3575173D01*
X152128Y3576332D01*
X151858Y3576465D01*
X151610Y3576639D01*
X148802Y3578037D01*
X93256Y3601526D01*
X92968Y3601618D01*
X92699Y3601753D01*
X90829Y3602307D01*
X88970Y3602905D01*
X88671Y3602945D01*
X88381Y3603031D01*
X85274Y3603459D01*
X25137Y3607995D01*
X24835Y3607991D01*
X24536Y3608033D01*
X22591Y3607961D01*
X20634Y3607935D01*
X20337Y3607877D01*
X20036Y3607866D01*
X16955Y3607281D01*
X-41485Y3592389D01*
X-42922Y3591883D01*
X-44388Y3591461D01*
X-45244Y3591067D01*
X-45733Y3590894D01*
X-46231Y3590612D01*
X-47237Y3590149D01*
X-73886Y3575828D01*
X-74412Y3575483D01*
X-75663Y3574778D01*
X-76500Y3574237D01*
X-76501Y3574236D01*
X-79648Y3572199D01*
X-80133Y3571820D01*
X-81228Y3571090D01*
X-103779Y3553934D01*
X-104761Y3553039D01*
X-105805Y3552218D01*
X-106659Y3551308D01*
X-107107Y3550901D01*
X-107393Y3550528D01*
X-107952Y3549933D01*
X-144023Y3506435D01*
X-144044Y3506403D01*
X-144072Y3506375D01*
X-145329Y3504539D01*
X-146578Y3502727D01*
X-146595Y3502692D01*
X-146617Y3502659D01*
X-147981Y3499835D01*
X-169368Y3447531D01*
X-169380Y3447494D01*
X-169398Y3447459D01*
X-170028Y3445395D01*
X-170697Y3443228D01*
X-170702Y3443188D01*
X-170713Y3443152D01*
X-171168Y3440049D01*
X-175910Y3383740D01*
X-175910Y3383702D01*
X-175917Y3383662D01*
X-175899Y3381443D01*
X-175889Y3379237D01*
X-175882Y3379198D01*
X-175881Y3379159D01*
X-175387Y3376062D01*
X-163046Y3320918D01*
X-162642Y3319653D01*
X-162332Y3318361D01*
X-161861Y3317205D01*
X-161677Y3316628D01*
X-161457Y3316212D01*
X-161149Y3315457D01*
X-148868Y3289921D01*
X-148553Y3289391D01*
X-147966Y3288213D01*
X-141644Y3277283D01*
X-141642Y3277279D01*
X886358Y1499694D01*
X886359Y1499694D01*
X889983Y1493425D01*
X889984Y1493424D01*
X889984Y1493423D01*
X899005Y1477826D01*
X914996Y1450175D01*
X938100Y1364073D01*
X938100Y499999D01*
X938146Y499491D01*
X938140Y498575D01*
X941514Y438507D01*
X941596Y437943D01*
X941603Y437374D01*
X942111Y434279D01*
X968844Y317153D01*
X969238Y315936D01*
X969538Y314689D01*
X970040Y313458D01*
X970231Y312869D01*
X970439Y312479D01*
X970722Y311785D01*
X1022848Y203544D01*
X1023504Y202444D01*
X1024074Y201297D01*
X1024838Y200206D01*
X1025154Y199676D01*
X1025442Y199344D01*
X1025874Y198728D01*
X1100779Y104801D01*
X1101664Y103873D01*
X1102474Y102882D01*
X1103459Y101991D01*
X1103888Y101543D01*
X1104244Y101282D01*
X1104801Y100779D01*
X1198728Y25874D01*
X1199797Y25168D01*
X1200808Y24381D01*
X1201970Y23730D01*
X1202484Y23390D01*
X1202888Y23216D01*
X1203544Y22848D01*
X1311785Y-29278D01*
X1312984Y-29729D01*
X1314145Y-30271D01*
X1315420Y-30646D01*
X1316000Y-30864D01*
X1316434Y-30944D01*
X1317153Y-31156D01*
X1434279Y-57889D01*
X1434843Y-57966D01*
X1435392Y-58117D01*
X1438507Y-58486D01*
X1498576Y-61859D01*
X1498997Y-61846D01*
X1499144Y-61847D01*
X1500000Y-61899D01*
X1500001Y-61899D01*
X1500509Y-61854D01*
G37*
%LPC*%
G36*
X1761459Y806955D02*
X1761459Y806955D01*
X1747378Y814130D01*
X1734593Y823419D01*
X1723419Y834593D01*
X1715143Y845984D01*
X1715089Y846046D01*
X1715045Y846118D01*
X1713614Y847737D01*
X1712184Y849378D01*
X1712118Y849431D01*
X1712063Y849493D01*
X1710371Y850833D01*
X1708671Y852196D01*
X1708598Y852236D01*
X1708533Y852288D01*
X1706615Y853316D01*
X1704717Y854350D01*
X1704637Y854377D01*
X1704563Y854416D01*
X1702501Y855087D01*
X1700443Y855772D01*
X1700361Y855783D01*
X1700281Y855809D01*
X1698143Y856104D01*
X1695987Y856416D01*
X1695902Y856413D01*
X1695820Y856424D01*
X1693666Y856337D01*
X1691486Y856263D01*
X1691404Y856246D01*
X1691321Y856242D01*
X1689196Y855772D01*
X1687083Y855318D01*
X1687006Y855286D01*
X1686924Y855268D01*
X1684914Y854429D01*
X1682916Y853610D01*
X1682846Y853566D01*
X1682768Y853533D01*
X1680944Y852356D01*
X1679116Y851193D01*
X1679055Y851136D01*
X1678985Y851091D01*
X1676634Y849015D01*
X1651118Y823498D01*
X1617950Y809759D01*
X1582050Y809759D01*
X1548882Y823498D01*
X1523498Y848882D01*
X1523467Y848958D01*
X1522865Y850110D01*
X1522351Y851304D01*
X1521823Y852103D01*
X1521381Y852950D01*
X1520586Y853977D01*
X1519869Y855062D01*
X1519210Y855753D01*
X1518624Y856510D01*
X1517660Y857381D01*
X1516763Y858322D01*
X1515990Y858888D01*
X1515281Y859528D01*
X1514179Y860214D01*
X1513129Y860983D01*
X1512270Y861403D01*
X1511458Y861908D01*
X1510251Y862389D01*
X1509083Y862959D01*
X1508164Y863221D01*
X1507275Y863575D01*
X1506000Y863836D01*
X1504752Y864191D01*
X1503801Y864285D01*
X1502863Y864477D01*
X1501562Y864509D01*
X1500270Y864638D01*
X1499319Y864563D01*
X1498361Y864586D01*
X1497075Y864388D01*
X1495781Y864286D01*
X1494856Y864045D01*
X1493911Y863898D01*
X1492681Y863476D01*
X1491424Y863148D01*
X1490556Y862746D01*
X1489652Y862435D01*
X1488517Y861803D01*
X1487337Y861257D01*
X1486554Y860709D01*
X1485718Y860243D01*
X1484710Y859419D01*
X1483648Y858675D01*
X1482974Y857998D01*
X1482233Y857391D01*
X1481387Y856402D01*
X1480472Y855481D01*
X1479929Y854696D01*
X1479307Y853968D01*
X1478649Y852845D01*
X1477911Y851778D01*
X1477341Y850611D01*
X1477031Y850082D01*
X1476875Y849658D01*
X1476534Y848960D01*
X1476502Y848882D01*
X1451118Y823498D01*
X1417950Y809759D01*
X1382050Y809759D01*
X1348882Y823498D01*
X1323498Y848882D01*
X1323467Y848958D01*
X1322865Y850110D01*
X1322351Y851304D01*
X1321823Y852103D01*
X1321381Y852950D01*
X1320586Y853977D01*
X1319869Y855062D01*
X1319210Y855753D01*
X1318624Y856510D01*
X1317660Y857381D01*
X1316763Y858322D01*
X1315990Y858888D01*
X1315281Y859528D01*
X1314179Y860214D01*
X1313129Y860983D01*
X1312270Y861403D01*
X1311458Y861908D01*
X1310251Y862389D01*
X1309083Y862959D01*
X1308164Y863221D01*
X1307275Y863575D01*
X1306000Y863836D01*
X1304752Y864191D01*
X1303801Y864285D01*
X1302863Y864477D01*
X1301562Y864509D01*
X1300270Y864638D01*
X1299319Y864563D01*
X1298361Y864586D01*
X1297075Y864388D01*
X1295781Y864286D01*
X1294856Y864045D01*
X1293911Y863898D01*
X1292681Y863476D01*
X1291424Y863148D01*
X1290556Y862746D01*
X1289652Y862435D01*
X1288517Y861803D01*
X1287337Y861257D01*
X1286554Y860709D01*
X1285718Y860243D01*
X1284710Y859419D01*
X1283648Y858675D01*
X1282974Y857998D01*
X1282233Y857391D01*
X1281387Y856402D01*
X1280472Y855481D01*
X1279929Y854696D01*
X1279307Y853968D01*
X1278649Y852845D01*
X1277911Y851778D01*
X1277341Y850611D01*
X1277031Y850082D01*
X1276875Y849658D01*
X1276534Y848960D01*
X1276502Y848882D01*
X1251118Y823498D01*
X1217950Y809759D01*
X1182050Y809759D01*
X1148882Y823498D01*
X1123498Y848882D01*
X1109759Y882050D01*
X1109759Y917950D01*
X1123498Y951118D01*
X1148882Y976502D01*
X1182050Y990240D01*
X1217950Y990240D01*
X1251118Y976502D01*
X1276502Y951118D01*
X1276534Y951040D01*
X1277137Y949887D01*
X1277650Y948694D01*
X1278176Y947897D01*
X1278619Y947049D01*
X1279415Y946022D01*
X1280132Y944937D01*
X1280792Y944243D01*
X1281377Y943488D01*
X1282342Y942618D01*
X1283238Y941677D01*
X1284009Y941113D01*
X1284720Y940471D01*
X1285824Y939783D01*
X1286872Y939017D01*
X1287731Y938597D01*
X1288543Y938092D01*
X1289749Y937611D01*
X1290918Y937040D01*
X1291838Y936778D01*
X1292726Y936424D01*
X1293999Y936164D01*
X1295250Y935809D01*
X1296203Y935714D01*
X1297138Y935523D01*
X1298437Y935491D01*
X1299731Y935362D01*
X1300684Y935437D01*
X1301640Y935414D01*
X1302925Y935612D01*
X1304221Y935714D01*
X1305145Y935955D01*
X1306091Y936102D01*
X1307321Y936524D01*
X1308578Y936853D01*
X1309445Y937254D01*
X1310350Y937565D01*
X1311485Y938198D01*
X1312665Y938743D01*
X1313448Y939292D01*
X1314283Y939757D01*
X1315289Y940581D01*
X1316354Y941326D01*
X1317028Y942004D01*
X1317768Y942610D01*
X1318613Y943598D01*
X1319529Y944519D01*
X1320073Y945306D01*
X1320694Y946033D01*
X1321351Y947154D01*
X1322090Y948223D01*
X1322660Y949391D01*
X1322969Y949919D01*
X1323125Y950342D01*
X1323467Y951041D01*
X1323498Y951118D01*
X1351920Y979540D01*
X1352974Y980800D01*
X1354085Y982004D01*
X1354415Y982522D01*
X1354810Y982994D01*
X1355625Y984420D01*
X1356505Y985802D01*
X1356739Y986370D01*
X1357044Y986904D01*
X1357594Y988451D01*
X1358217Y989968D01*
X1358346Y990567D01*
X1358552Y991147D01*
X1358821Y992768D01*
X1359166Y994369D01*
X1359213Y995143D01*
X1359288Y995590D01*
X1359279Y996204D01*
X1359359Y997500D01*
X1359359Y1924567D01*
X1359214Y1926203D01*
X1359148Y1927841D01*
X1359015Y1928439D01*
X1358960Y1929052D01*
X1358528Y1930636D01*
X1358173Y1932237D01*
X1357937Y1932804D01*
X1357775Y1933397D01*
X1357071Y1934878D01*
X1356438Y1936393D01*
X1356105Y1936909D01*
X1355841Y1937464D01*
X1354885Y1938799D01*
X1353996Y1940177D01*
X1353483Y1940758D01*
X1353220Y1941125D01*
X1352780Y1941553D01*
X1351920Y1942527D01*
X1346759Y1947688D01*
X1346759Y2060313D01*
X1355687Y2069240D01*
X1448313Y2069240D01*
X1457240Y2060313D01*
X1457240Y1947687D01*
X1448080Y1938527D01*
X1447024Y1937265D01*
X1445915Y1936062D01*
X1445585Y1935545D01*
X1445190Y1935073D01*
X1444376Y1933648D01*
X1443494Y1932264D01*
X1443261Y1931696D01*
X1442956Y1931163D01*
X1442407Y1929618D01*
X1441783Y1928099D01*
X1441653Y1927498D01*
X1441448Y1926920D01*
X1441180Y1925301D01*
X1440834Y1923697D01*
X1440786Y1922924D01*
X1440712Y1922477D01*
X1440721Y1921862D01*
X1440640Y1920567D01*
X1440640Y997500D01*
X1440786Y995863D01*
X1440852Y994226D01*
X1440985Y993627D01*
X1441039Y993014D01*
X1441472Y991429D01*
X1441826Y989829D01*
X1442063Y989263D01*
X1442225Y988670D01*
X1442928Y987190D01*
X1443561Y985674D01*
X1443895Y985157D01*
X1444158Y984603D01*
X1445113Y983269D01*
X1446003Y981890D01*
X1446517Y981309D01*
X1446780Y980941D01*
X1447220Y980512D01*
X1448080Y979540D01*
X1476502Y951118D01*
X1476534Y951040D01*
X1477137Y949887D01*
X1477650Y948694D01*
X1478176Y947897D01*
X1478619Y947049D01*
X1479415Y946022D01*
X1480132Y944937D01*
X1480792Y944243D01*
X1481377Y943488D01*
X1482342Y942618D01*
X1483238Y941677D01*
X1484009Y941113D01*
X1484720Y940471D01*
X1485824Y939783D01*
X1486872Y939017D01*
X1487731Y938597D01*
X1488543Y938092D01*
X1489749Y937611D01*
X1490918Y937040D01*
X1491838Y936778D01*
X1492726Y936424D01*
X1493999Y936164D01*
X1495250Y935809D01*
X1496203Y935714D01*
X1497138Y935523D01*
X1498437Y935491D01*
X1499731Y935362D01*
X1500684Y935437D01*
X1501640Y935414D01*
X1502925Y935612D01*
X1504221Y935714D01*
X1505145Y935955D01*
X1506091Y936102D01*
X1507321Y936524D01*
X1508578Y936853D01*
X1509445Y937254D01*
X1510350Y937565D01*
X1511485Y938198D01*
X1512665Y938743D01*
X1513448Y939292D01*
X1514283Y939757D01*
X1515289Y940581D01*
X1516354Y941326D01*
X1517028Y942004D01*
X1517768Y942610D01*
X1518613Y943598D01*
X1519529Y944519D01*
X1520073Y945306D01*
X1520694Y946033D01*
X1521351Y947154D01*
X1522090Y948223D01*
X1522660Y949391D01*
X1522969Y949919D01*
X1523125Y950342D01*
X1523467Y951041D01*
X1523498Y951118D01*
X1551920Y979540D01*
X1552974Y980800D01*
X1554085Y982004D01*
X1554415Y982522D01*
X1554810Y982994D01*
X1555625Y984420D01*
X1556505Y985802D01*
X1556739Y986370D01*
X1557044Y986904D01*
X1557594Y988451D01*
X1558217Y989968D01*
X1558346Y990567D01*
X1558552Y991147D01*
X1558821Y992768D01*
X1559166Y994369D01*
X1559213Y995143D01*
X1559288Y995590D01*
X1559279Y996204D01*
X1559359Y997500D01*
X1559359Y1924566D01*
X1559214Y1926203D01*
X1559148Y1927840D01*
X1559015Y1928439D01*
X1558960Y1929052D01*
X1558528Y1930637D01*
X1558173Y1932237D01*
X1557937Y1932803D01*
X1557775Y1933396D01*
X1557072Y1934876D01*
X1556438Y1936392D01*
X1556105Y1936909D01*
X1555841Y1937463D01*
X1554887Y1938797D01*
X1553997Y1940176D01*
X1553483Y1940757D01*
X1553220Y1941125D01*
X1552779Y1941554D01*
X1551920Y1942526D01*
X1546759Y1947687D01*
X1546759Y2060313D01*
X1555687Y2069240D01*
X1648313Y2069240D01*
X1657240Y2060313D01*
X1657240Y1947687D01*
X1648080Y1938526D01*
X1647026Y1937266D01*
X1645915Y1936062D01*
X1645585Y1935544D01*
X1645190Y1935072D01*
X1644375Y1933646D01*
X1643494Y1932264D01*
X1643261Y1931696D01*
X1642956Y1931162D01*
X1642406Y1929615D01*
X1641783Y1928098D01*
X1641653Y1927499D01*
X1641448Y1926919D01*
X1641179Y1925298D01*
X1640834Y1923697D01*
X1640786Y1922923D01*
X1640712Y1922476D01*
X1640721Y1921862D01*
X1640640Y1920566D01*
X1640640Y997500D01*
X1640786Y995863D01*
X1640852Y994226D01*
X1640985Y993627D01*
X1641039Y993014D01*
X1641472Y991429D01*
X1641826Y989829D01*
X1642063Y989263D01*
X1642225Y988670D01*
X1642928Y987190D01*
X1643561Y985674D01*
X1643895Y985157D01*
X1644158Y984603D01*
X1645113Y983269D01*
X1646003Y981890D01*
X1646517Y981309D01*
X1646780Y980941D01*
X1647220Y980512D01*
X1648080Y979540D01*
X1676634Y950985D01*
X1676698Y950932D01*
X1676753Y950868D01*
X1678424Y949488D01*
X1680088Y948095D01*
X1680162Y948053D01*
X1680225Y948001D01*
X1682091Y946951D01*
X1683998Y945861D01*
X1684078Y945833D01*
X1684150Y945793D01*
X1686173Y945088D01*
X1688242Y944353D01*
X1688325Y944339D01*
X1688403Y944312D01*
X1690527Y943975D01*
X1692684Y943618D01*
X1692768Y943619D01*
X1692850Y943606D01*
X1695014Y943649D01*
X1697187Y943678D01*
X1697269Y943694D01*
X1697353Y943696D01*
X1699503Y944126D01*
X1701608Y944533D01*
X1701685Y944563D01*
X1701768Y944580D01*
X1703800Y945380D01*
X1705809Y946156D01*
X1705881Y946199D01*
X1705958Y946230D01*
X1707788Y947358D01*
X1709658Y948494D01*
X1709721Y948550D01*
X1709792Y948594D01*
X1711398Y950032D01*
X1713033Y951476D01*
X1713084Y951542D01*
X1713147Y951598D01*
X1715143Y954016D01*
X1723419Y965407D01*
X1734593Y976581D01*
X1747378Y985870D01*
X1761459Y993044D01*
X1774599Y997314D01*
X1774599Y900003D01*
X1774599Y900000D01*
X1774599Y899997D01*
X1774599Y802686D01*
X1761459Y806955D01*
G37*
%LPD*%
%LPC*%
G36*
X1468653Y261899D02*
X1468653Y261899D01*
X1408097Y278125D01*
X1353802Y309473D01*
X1309473Y353802D01*
X1278125Y408097D01*
X1261899Y468653D01*
X1261899Y531347D01*
X1278125Y591903D01*
X1309473Y646198D01*
X1353802Y690527D01*
X1408097Y721874D01*
X1468653Y738100D01*
X1531347Y738100D01*
X1591903Y721874D01*
X1646198Y690527D01*
X1690527Y646198D01*
X1721874Y591903D01*
X1738100Y531347D01*
X1738100Y468653D01*
X1721874Y408097D01*
X1690527Y353802D01*
X1646198Y309473D01*
X1591903Y278125D01*
X1531347Y261899D01*
X1468653Y261899D01*
G37*
%LPD*%
%LPC*%
G36*
X1825401Y925401D02*
X1825401Y925401D01*
X1825401Y997314D01*
X1838541Y993044D01*
X1852622Y985870D01*
X1865407Y976581D01*
X1876581Y965407D01*
X1885870Y952622D01*
X1893044Y938541D01*
X1897314Y925401D01*
X1825401Y925401D01*
G37*
%LPD*%
%LPC*%
G36*
X1825401Y874599D02*
X1825401Y874599D01*
X1897314Y874599D01*
X1893044Y861459D01*
X1885870Y847378D01*
X1876581Y834593D01*
X1865407Y823419D01*
X1852622Y814130D01*
X1838541Y806955D01*
X1825401Y802686D01*
X1825401Y874599D01*
G37*
%LPD*%
%LPC*%
G36*
X1525401Y2169599D02*
X1525401Y2169599D01*
X1525401Y2219599D01*
X1565400Y2219599D01*
X1565400Y2191656D01*
X1563669Y2185195D01*
X1560325Y2179403D01*
X1555597Y2174674D01*
X1549805Y2171331D01*
X1543343Y2169599D01*
X1525401Y2169599D01*
G37*
%LPD*%
%LPC*%
G36*
X1456656Y2169599D02*
X1456656Y2169599D01*
X1450195Y2171331D01*
X1444403Y2174674D01*
X1439674Y2179403D01*
X1436331Y2185195D01*
X1434599Y2191656D01*
X1434599Y2219599D01*
X1474599Y2219599D01*
X1474599Y2169599D01*
X1456656Y2169599D01*
G37*
%LPD*%
D10*
X1500000Y-100000D02*
X1514498Y-99825D01*
X1528988Y-99299D01*
X1543461Y-98424D01*
X1557908Y-97199D01*
X1572322Y-95625D01*
X1586693Y-93704D01*
X1601014Y-91436D01*
X1615276Y-88822D01*
X1629471Y-85865D01*
X1643589Y-82565D01*
X1657624Y-78925D01*
X1671567Y-74947D01*
X1685410Y-70634D01*
X1699145Y-65987D01*
X1712763Y-61010D01*
X1726257Y-55705D01*
X1739619Y-50075D01*
X1752841Y-44125D01*
X1765915Y-37856D01*
X1778834Y-31274D01*
X1791590Y-24381D01*
X1804176Y-17182D01*
X1816584Y-9681D01*
X1828808Y-1882D01*
X1840839Y6210D01*
X1852671Y14590D01*
X1864298Y23253D01*
X1875711Y32195D01*
X1886905Y41411D01*
X1897874Y50894D01*
X1908610Y60639D01*
X1919107Y70641D01*
X1929359Y80893D01*
X1939361Y91390D01*
X1949106Y102126D01*
X1958589Y113095D01*
X1967805Y124289D01*
X1976747Y135702D01*
X1985410Y147329D01*
X1993790Y159161D01*
X2001882Y171192D01*
X2009681Y183416D01*
X2017182Y195824D01*
X2024381Y208410D01*
X2031274Y221166D01*
X2037856Y234085D01*
X2044125Y247159D01*
X2050075Y260381D01*
X2055705Y273743D01*
X2061010Y287237D01*
X2065987Y300855D01*
X2070634Y314590D01*
X2074947Y328433D01*
X2078925Y342376D01*
X2082565Y356411D01*
X2085865Y370529D01*
X2088822Y384724D01*
X2091436Y398986D01*
X2093704Y413307D01*
X2095625Y427678D01*
X2097199Y442092D01*
X2098424Y456539D01*
X2099299Y471012D01*
X2099825Y485502D01*
X2100000Y500000D01*
X1500000Y-100000D02*
X1485502Y-99825D01*
X1471012Y-99299D01*
X1456539Y-98424D01*
X1442092Y-97199D01*
X1427678Y-95625D01*
X1413307Y-93704D01*
X1398986Y-91436D01*
X1384724Y-88822D01*
X1370529Y-85865D01*
X1356411Y-82565D01*
X1342376Y-78925D01*
X1328433Y-74947D01*
X1314590Y-70634D01*
X1300855Y-65987D01*
X1287237Y-61010D01*
X1273743Y-55705D01*
X1260381Y-50075D01*
X1247159Y-44125D01*
X1234085Y-37856D01*
X1221166Y-31274D01*
X1208410Y-24381D01*
X1195824Y-17182D01*
X1183416Y-9681D01*
X1171192Y-1882D01*
X1159161Y6210D01*
X1147329Y14590D01*
X1135702Y23253D01*
X1124289Y32195D01*
X1113095Y41411D01*
X1102126Y50894D01*
X1091390Y60639D01*
X1080893Y70641D01*
X1070641Y80893D01*
X1060639Y91390D01*
X1050894Y102126D01*
X1041411Y113095D01*
X1032195Y124289D01*
X1023253Y135702D01*
X1014590Y147329D01*
X1006210Y159161D01*
X998118Y171192D01*
X990319Y183416D01*
X982818Y195824D01*
X975619Y208410D01*
X968726Y221166D01*
X962144Y234085D01*
X955875Y247159D01*
X949925Y260381D01*
X944295Y273743D01*
X938990Y287237D01*
X934013Y300855D01*
X929366Y314590D01*
X925053Y328433D01*
X921075Y342376D01*
X917435Y356411D01*
X914135Y370529D01*
X911178Y384724D01*
X908564Y398986D01*
X906296Y413307D01*
X904375Y427678D01*
X902801Y442092D01*
X901576Y456539D01*
X900701Y471012D01*
X900175Y485502D01*
X900000Y500000D01*
X1300000Y500000D02*
X1300060Y504908D01*
X1300241Y509814D01*
X1300542Y514713D01*
X1300963Y519603D01*
X1301504Y524482D01*
X1302165Y529346D01*
X1302944Y534192D01*
X1303843Y539018D01*
X1304860Y543820D01*
X1305994Y548596D01*
X1307245Y553343D01*
X1308612Y558057D01*
X1310094Y562736D01*
X1311691Y567378D01*
X1313401Y571979D01*
X1315224Y576537D01*
X1317158Y581048D01*
X1319202Y585511D01*
X1321355Y589922D01*
X1323616Y594279D01*
X1325983Y598580D01*
X1328454Y602821D01*
X1331029Y607000D01*
X1333706Y611114D01*
X1336483Y615162D01*
X1339358Y619140D01*
X1342331Y623046D01*
X1345398Y626879D01*
X1348558Y630635D01*
X1351810Y634312D01*
X1355151Y637908D01*
X1358579Y641421D01*
X1362092Y644849D01*
X1365688Y648190D01*
X1369365Y651442D01*
X1373121Y654602D01*
X1376954Y657669D01*
X1380860Y660642D01*
X1384838Y663517D01*
X1388886Y666294D01*
X1393000Y668971D01*
X1397179Y671546D01*
X1401420Y674017D01*
X1405721Y676384D01*
X1410078Y678645D01*
X1414489Y680798D01*
X1418952Y682842D01*
X1423463Y684776D01*
X1428021Y686599D01*
X1432622Y688309D01*
X1437264Y689906D01*
X1441943Y691388D01*
X1446657Y692755D01*
X1451404Y694006D01*
X1456180Y695140D01*
X1460982Y696157D01*
X1465808Y697056D01*
X1470654Y697835D01*
X1475518Y698496D01*
X1480397Y699037D01*
X1485287Y699458D01*
X1490186Y699759D01*
X1495092Y699940D01*
X1500000Y700000D01*
X1504908Y699940D01*
X1509814Y699759D01*
X1514713Y699458D01*
X1519603Y699037D01*
X1524482Y698496D01*
X1529346Y697835D01*
X1534192Y697056D01*
X1539018Y696157D01*
X1543820Y695140D01*
X1548596Y694006D01*
X1553343Y692755D01*
X1558057Y691388D01*
X1562736Y689906D01*
X1567378Y688309D01*
X1571979Y686599D01*
X1576537Y684776D01*
X1581048Y682842D01*
X1585511Y680798D01*
X1589922Y678645D01*
X1594279Y676384D01*
X1598580Y674017D01*
X1602821Y671546D01*
X1607000Y668971D01*
X1611114Y666294D01*
X1615162Y663517D01*
X1619140Y660642D01*
X1623046Y657669D01*
X1626879Y654602D01*
X1630635Y651442D01*
X1634312Y648190D01*
X1637908Y644849D01*
X1641421Y641421D01*
X1644849Y637908D01*
X1648190Y634312D01*
X1651442Y630635D01*
X1654602Y626879D01*
X1657669Y623046D01*
X1660642Y619140D01*
X1663517Y615162D01*
X1666294Y611114D01*
X1668971Y607000D01*
X1671546Y602821D01*
X1674017Y598580D01*
X1676384Y594279D01*
X1678645Y589922D01*
X1680798Y585511D01*
X1682842Y581048D01*
X1684776Y576537D01*
X1686599Y571979D01*
X1688309Y567378D01*
X1689906Y562736D01*
X1691388Y558057D01*
X1692755Y553343D01*
X1694006Y548596D01*
X1695140Y543820D01*
X1696157Y539018D01*
X1697056Y534192D01*
X1697835Y529346D01*
X1698496Y524482D01*
X1699037Y519603D01*
X1699458Y514713D01*
X1699759Y509814D01*
X1699940Y504908D01*
X1700000Y500000D01*
X1699940Y495092D01*
X1699759Y490186D01*
X1699458Y485287D01*
X1699037Y480397D01*
X1698496Y475518D01*
X1697835Y470654D01*
X1697056Y465808D01*
X1696157Y460982D01*
X1695140Y456180D01*
X1694006Y451404D01*
X1692755Y446657D01*
X1691388Y441943D01*
X1689906Y437264D01*
X1688309Y432622D01*
X1686599Y428021D01*
X1684776Y423463D01*
X1682842Y418952D01*
X1680798Y414489D01*
X1678645Y410078D01*
X1676384Y405721D01*
X1674017Y401420D01*
X1671546Y397179D01*
X1668971Y393000D01*
X1666294Y388886D01*
X1663517Y384838D01*
X1660642Y380860D01*
X1657669Y376954D01*
X1654602Y373121D01*
X1651442Y369365D01*
X1648190Y365688D01*
X1644849Y362092D01*
X1641421Y358579D01*
X1637908Y355151D01*
X1634312Y351810D01*
X1630635Y348558D01*
X1626879Y345398D01*
X1623046Y342331D01*
X1619140Y339358D01*
X1615162Y336483D01*
X1611114Y333706D01*
X1607000Y331029D01*
X1602821Y328454D01*
X1598580Y325983D01*
X1594279Y323616D01*
X1589922Y321355D01*
X1585511Y319202D01*
X1581048Y317158D01*
X1576537Y315224D01*
X1571979Y313401D01*
X1567378Y311691D01*
X1562736Y310094D01*
X1558057Y308612D01*
X1553343Y307245D01*
X1548596Y305994D01*
X1543820Y304860D01*
X1539018Y303843D01*
X1534192Y302944D01*
X1529346Y302165D01*
X1524482Y301504D01*
X1519603Y300963D01*
X1514713Y300542D01*
X1509814Y300241D01*
X1504908Y300060D01*
X1500000Y300000D01*
X1495092Y300060D01*
X1490186Y300241D01*
X1485287Y300542D01*
X1480397Y300963D01*
X1475518Y301504D01*
X1470654Y302165D01*
X1465808Y302944D01*
X1460982Y303843D01*
X1456180Y304860D01*
X1451404Y305994D01*
X1446657Y307245D01*
X1441943Y308612D01*
X1437264Y310094D01*
X1432622Y311691D01*
X1428021Y313401D01*
X1423463Y315224D01*
X1418952Y317158D01*
X1414489Y319202D01*
X1410078Y321355D01*
X1405721Y323616D01*
X1401420Y325983D01*
X1397179Y328454D01*
X1393000Y331029D01*
X1388886Y333706D01*
X1384838Y336483D01*
X1380860Y339358D01*
X1376954Y342331D01*
X1373121Y345398D01*
X1369365Y348558D01*
X1365688Y351810D01*
X1362092Y355151D01*
X1358579Y358579D01*
X1355151Y362092D01*
X1351810Y365688D01*
X1348558Y369365D01*
X1345398Y373121D01*
X1342331Y376954D01*
X1339358Y380860D01*
X1336483Y384838D01*
X1333706Y388886D01*
X1331029Y393000D01*
X1328454Y397179D01*
X1325983Y401420D01*
X1323616Y405721D01*
X1321355Y410078D01*
X1319202Y414489D01*
X1317158Y418952D01*
X1315224Y423463D01*
X1313401Y428021D01*
X1311691Y432622D01*
X1310094Y437264D01*
X1308612Y441943D01*
X1307245Y446657D01*
X1305994Y451404D01*
X1304860Y456180D01*
X1303843Y460982D01*
X1302944Y465808D01*
X1302165Y470654D01*
X1301504Y475518D01*
X1300963Y480397D01*
X1300542Y485287D01*
X1300241Y490186D01*
X1300060Y495092D01*
X1300000Y500000D01*
X-100345Y3604188D02*
X-96359Y3606768D01*
X-96360Y3606768D02*
X-91233Y3609997D01*
X-86029Y3613102D01*
X-80752Y3616080D01*
X-75404Y3618929D01*
X-69989Y3621647D01*
X-64509Y3624234D01*
X-58968Y3626686D01*
X-53370Y3629004D01*
X-47717Y3631186D01*
X-42012Y3633229D01*
X-36260Y3635134D01*
X-30463Y3636899D01*
X-24626Y3638523D01*
X-18750Y3640005D01*
X-12841Y3641345D01*
X-6900Y3642540D01*
X-933Y3643591D01*
X5058Y3644498D01*
X11070Y3645259D01*
X17098Y3645874D01*
X23139Y3646342D01*
X29190Y3646664D01*
X35247Y3646840D01*
X41306Y3646868D01*
X47365Y3646750D01*
X53418Y3646485D01*
X59464Y3646073D01*
X65497Y3645515D01*
X71516Y3644810D01*
X77515Y3643961D01*
X83492Y3642965D01*
X89444Y3641826D01*
X95366Y3640542D01*
X101255Y3639116D01*
X107107Y3637547D01*
X112920Y3635836D01*
X118690Y3633986D01*
X124414Y3631996D01*
X130087Y3629867D01*
X135707Y3627602D01*
X141271Y3625202D01*
X146775Y3622667D01*
X152215Y3620000D01*
X157590Y3617201D01*
X162895Y3614273D01*
X168128Y3611218D01*
X173285Y3608036D01*
X178363Y3604731D01*
X183360Y3601303D01*
X188272Y3597755D01*
X193097Y3594090D01*
X197831Y3590308D01*
X202473Y3586413D01*
X207019Y3582406D01*
X211466Y3578291D01*
X215812Y3574068D01*
X220055Y3569742D01*
X224191Y3565314D01*
X228219Y3560787D01*
X232136Y3556164D01*
X235940Y3551448D01*
X239629Y3546640D01*
X243200Y3541745D01*
X246651Y3536764D01*
X249980Y3531702D01*
X253186Y3526560D01*
X256266Y3521342D01*
X256267Y3521342D02*
X813522Y2550640D01*
X817245Y2544334D01*
X821121Y2538121D01*
X825147Y2532004D01*
X829322Y2525987D01*
X833642Y2520074D01*
X838105Y2514269D01*
X842709Y2508574D01*
X847450Y2502993D01*
X852326Y2497529D01*
X857334Y2492186D01*
X862471Y2486967D01*
X867734Y2481875D01*
X873119Y2476912D01*
X878624Y2472083D01*
X884245Y2467390D01*
X889979Y2462835D01*
X895823Y2458421D01*
X901772Y2454152D01*
X907824Y2450028D01*
X913975Y2446054D01*
X920221Y2442231D01*
X926558Y2438562D01*
X932983Y2435048D01*
X939492Y2431693D01*
X946081Y2428497D01*
X952746Y2425463D01*
X959483Y2422592D01*
X966288Y2419887D01*
X973157Y2417349D01*
X980086Y2414979D01*
X987071Y2412779D01*
X994107Y2410750D01*
X1001191Y2408894D01*
X1008318Y2407211D01*
X1015484Y2405702D01*
X1022684Y2404369D01*
X1029916Y2403212D01*
X1037173Y2402232D01*
X1044452Y2401429D01*
X1051748Y2400804D01*
X1059057Y2400357D01*
X1066375Y2400089D01*
X1073698Y2400000D01*
X1800000Y2400000D01*
X859699Y1469687D02*
X-180948Y3269139D01*
X-180948Y3269140D02*
X-183953Y3274485D01*
X-186825Y3279903D01*
X-189564Y3285389D01*
X-192167Y3290942D01*
X-194634Y3296556D01*
X-196962Y3302229D01*
X-199150Y3307957D01*
X-201197Y3313738D01*
X-203102Y3319567D01*
X-204863Y3325440D01*
X-206479Y3331356D01*
X-207950Y3337309D01*
X-209275Y3343296D01*
X-210452Y3349314D01*
X-211481Y3355359D01*
X-212362Y3361428D01*
X-213094Y3367516D01*
X-213676Y3373621D01*
X-214108Y3379738D01*
X-214390Y3385863D01*
X-214521Y3391994D01*
X-214503Y3398126D01*
X-214334Y3404256D01*
X-214014Y3410380D01*
X-213545Y3416494D01*
X-212925Y3422595D01*
X-212156Y3428679D01*
X-211239Y3434742D01*
X-210172Y3440781D01*
X-208958Y3446791D01*
X-207597Y3452770D01*
X-206090Y3458715D01*
X-204437Y3464620D01*
X-202640Y3470483D01*
X-200700Y3476300D01*
X-198618Y3482068D01*
X-196395Y3487783D01*
X-194032Y3493441D01*
X-191531Y3499040D01*
X-188894Y3504576D01*
X-186122Y3510046D01*
X-183216Y3515446D01*
X-180179Y3520773D01*
X-177012Y3526024D01*
X-173717Y3531196D01*
X-170296Y3536286D01*
X-166752Y3541290D01*
X-163086Y3546205D01*
X-159300Y3551029D01*
X-155397Y3555759D01*
X-151380Y3560392D01*
X-147250Y3564925D01*
X-143010Y3569355D01*
X-138662Y3573680D01*
X-134210Y3577897D01*
X-129656Y3582003D01*
X-125003Y3585997D01*
X-120253Y3589875D01*
X-115409Y3593635D01*
X-110474Y3597276D01*
X-105452Y3600794D01*
X-100345Y3604189D01*
X859699Y1469686D02*
X863205Y1463455D01*
X866560Y1457142D01*
X869765Y1450750D01*
X872816Y1444284D01*
X875712Y1437748D01*
X878452Y1431144D01*
X881033Y1424476D01*
X883455Y1417749D01*
X885716Y1410967D01*
X887815Y1404132D01*
X889750Y1397249D01*
X891520Y1390322D01*
X893125Y1383355D01*
X894564Y1376352D01*
X895835Y1369316D01*
X896938Y1362252D01*
X897873Y1355163D01*
X898638Y1348055D01*
X899234Y1340930D01*
X899659Y1333793D01*
X899915Y1326648D01*
X900000Y1319499D01*
X900000Y500000D01*
X2100000Y2100000D02*
X2099912Y2107249D01*
X2099650Y2114494D01*
X2099212Y2121730D01*
X2098599Y2128954D01*
X2097813Y2136161D01*
X2096852Y2143347D01*
X2095718Y2150507D01*
X2094411Y2157638D01*
X2092932Y2164735D01*
X2091283Y2171795D01*
X2089463Y2178812D01*
X2087474Y2185784D01*
X2085317Y2192705D01*
X2082994Y2199572D01*
X2080505Y2206381D01*
X2077852Y2213128D01*
X2075038Y2219809D01*
X2072062Y2226420D01*
X2068928Y2232957D01*
X2065637Y2239417D01*
X2062190Y2245795D01*
X2058591Y2252088D01*
X2054840Y2258292D01*
X2050941Y2264404D01*
X2046895Y2270419D01*
X2042705Y2276336D01*
X2038373Y2282149D01*
X2033902Y2287856D01*
X2029295Y2293453D01*
X2024553Y2298937D01*
X2019681Y2304305D01*
X2014680Y2309553D01*
X2009553Y2314680D01*
X2004305Y2319681D01*
X1998937Y2324553D01*
X1993453Y2329295D01*
X1987856Y2333902D01*
X1982149Y2338373D01*
X1976336Y2342705D01*
X1970419Y2346895D01*
X1964404Y2350941D01*
X1958292Y2354840D01*
X1952088Y2358591D01*
X1945795Y2362190D01*
X1939417Y2365637D01*
X1932957Y2368928D01*
X1926420Y2372062D01*
X1919809Y2375038D01*
X1913128Y2377852D01*
X1906381Y2380505D01*
X1899572Y2382994D01*
X1892705Y2385317D01*
X1885784Y2387474D01*
X1878812Y2389463D01*
X1871795Y2391283D01*
X1864735Y2392932D01*
X1857638Y2394411D01*
X1850507Y2395718D01*
X1843347Y2396852D01*
X1836161Y2397813D01*
X1828954Y2398599D01*
X1821730Y2399212D01*
X1814494Y2399650D01*
X1807249Y2399912D01*
X1800000Y2400000D01*
X2100000Y2100000D02*
X2100000Y500000D01*
D11*
X1800000Y900000D03*
X1600000Y900000D03*
X1400000Y900000D03*
X1200000Y900000D03*
D12*
X1602000Y2004000D03*
X1402000Y2004000D03*
X1500000Y2245000D03*
D13*
X1500000Y2250000D03*
X212500Y3362500D03*
X1275000Y1475000D03*
D14*
X1400000Y2002000D02*
X1400000Y900000D01*
X1400000Y2002000D02*
X1402000Y2004000D01*
X1600000Y2002000D02*
X1600000Y900000D01*
X1600000Y2002000D02*
X1602000Y2004000D01*
M02*
