G04 EAGLE Gerber RS-274X export*
G75*
%MOMM*%
%FSLAX35Y35*%
%LPD*%
%INcopper_top*%
%IPPOS*%
%AMOC8*
5,1,8,0,0,1.08239X$1,22.5*%
G01*
%ADD10C,0.010000*%
%ADD11C,0.076200*%
%ADD12R,0.250000X0.800000*%
%ADD13R,0.800000X0.250000*%
%ADD14R,0.250000X1.900000*%
%ADD15R,0.250000X1.550000*%
%ADD16R,0.250000X0.600000*%
%ADD17R,1.000000X3.400000*%
%ADD18P,2.336880X8X22.500000*%
%ADD19C,1.300000*%
%ADD20C,0.650000*%
%ADD21C,0.254000*%
%ADD22C,0.300000*%
%ADD23C,0.250000*%
%ADD24C,0.400000*%
%ADD25C,0.406400*%
%ADD26C,0.500000*%

G36*
X2800219Y2950536D02*
X2800219Y2950536D01*
X2800598Y2950524D01*
X2838436Y2953502D01*
X2838487Y2953514D01*
X2838538Y2953510D01*
X2840193Y2953851D01*
X2912166Y2977237D01*
X2912480Y2977399D01*
X2912822Y2977484D01*
X2914289Y2978319D01*
X2975513Y3022800D01*
X2975762Y3023051D01*
X2976061Y3023238D01*
X2977199Y3024486D01*
X3021681Y3085710D01*
X3021839Y3086025D01*
X3022066Y3086295D01*
X3022763Y3087834D01*
X3046149Y3159807D01*
X3046157Y3159859D01*
X3046180Y3159905D01*
X3046498Y3161563D01*
X3049476Y3199402D01*
X3049458Y3199623D01*
X3049499Y3200000D01*
X3049499Y4100000D01*
X3049463Y4100218D01*
X3049476Y4100598D01*
X3046498Y4138436D01*
X3046486Y4138487D01*
X3046489Y4138538D01*
X3046149Y4140193D01*
X3022763Y4212166D01*
X3022601Y4212480D01*
X3022516Y4212822D01*
X3021681Y4214289D01*
X2977199Y4275513D01*
X2976948Y4275762D01*
X2976762Y4276061D01*
X2975513Y4277199D01*
X2914289Y4321681D01*
X2913974Y4321840D01*
X2913704Y4322066D01*
X2912166Y4322763D01*
X2840193Y4346149D01*
X2840141Y4346157D01*
X2840095Y4346180D01*
X2838436Y4346498D01*
X2800598Y4349476D01*
X2800377Y4349458D01*
X2800000Y4349499D01*
X1499999Y4349499D01*
X1499781Y4349463D01*
X1499402Y4349476D01*
X1461564Y4346498D01*
X1461513Y4346486D01*
X1461461Y4346489D01*
X1459807Y4346149D01*
X1387834Y4322763D01*
X1387520Y4322601D01*
X1387178Y4322516D01*
X1385710Y4321681D01*
X1324486Y4277199D01*
X1324238Y4276948D01*
X1323938Y4276762D01*
X1322800Y4275513D01*
X1278319Y4214289D01*
X1278160Y4213974D01*
X1277933Y4213704D01*
X1277237Y4212166D01*
X1253851Y4140193D01*
X1253843Y4140141D01*
X1253820Y4140095D01*
X1253502Y4138436D01*
X1250524Y4100598D01*
X1250542Y4100377D01*
X1250500Y4100000D01*
X1250500Y3199999D01*
X1250536Y3199781D01*
X1250524Y3199402D01*
X1253502Y3161564D01*
X1253514Y3161513D01*
X1253510Y3161461D01*
X1253851Y3159807D01*
X1277237Y3087834D01*
X1277399Y3087520D01*
X1277484Y3087178D01*
X1278319Y3085710D01*
X1322800Y3024486D01*
X1323051Y3024238D01*
X1323238Y3023938D01*
X1324486Y3022800D01*
X1385710Y2978319D01*
X1386026Y2978160D01*
X1386296Y2977933D01*
X1387834Y2977237D01*
X1459807Y2953851D01*
X1459859Y2953843D01*
X1459905Y2953820D01*
X1461564Y2953502D01*
X1499402Y2950524D01*
X1499623Y2950542D01*
X1500000Y2950500D01*
X2800000Y2950500D01*
X2800219Y2950536D01*
G37*
%LPC*%
G36*
X2231103Y3079999D02*
X2231103Y3079999D01*
X2196187Y3094462D01*
X2187881Y3102768D01*
X2187143Y3103298D01*
X2186453Y3103890D01*
X2186149Y3104013D01*
X2185883Y3104204D01*
X2185014Y3104472D01*
X2184172Y3104812D01*
X2183759Y3104858D01*
X2183531Y3104928D01*
X2183204Y3104920D01*
X2182493Y3104999D01*
X2021544Y3104999D01*
X2020647Y3104853D01*
X2019741Y3104783D01*
X2019439Y3104655D01*
X2019116Y3104602D01*
X2018313Y3104177D01*
X2017476Y3103822D01*
X2017151Y3103563D01*
X2016941Y3103451D01*
X2016715Y3103214D01*
X2016157Y3102768D01*
X2010404Y3097014D01*
X1987432Y3087499D01*
X1962568Y3087499D01*
X1939596Y3097014D01*
X1922014Y3114596D01*
X1912499Y3137568D01*
X1912499Y3162432D01*
X1922014Y3185403D01*
X1939597Y3202986D01*
X1952796Y3208453D01*
X1953788Y3209068D01*
X1954788Y3209664D01*
X1954831Y3209714D01*
X1954887Y3209749D01*
X1955628Y3210644D01*
X1956390Y3211532D01*
X1956415Y3211594D01*
X1956457Y3211644D01*
X1956874Y3212730D01*
X1957312Y3213813D01*
X1957321Y3213892D01*
X1957340Y3213941D01*
X1957348Y3214138D01*
X1957499Y3215492D01*
X1957499Y3229000D01*
X1957384Y3229706D01*
X1957365Y3230422D01*
X1957186Y3230913D01*
X1957102Y3231428D01*
X1956768Y3232061D01*
X1956522Y3232734D01*
X1956195Y3233142D01*
X1955951Y3233604D01*
X1955432Y3234097D01*
X1954985Y3234656D01*
X1954547Y3234938D01*
X1954168Y3235299D01*
X1953517Y3235601D01*
X1952916Y3235988D01*
X1952410Y3236116D01*
X1951936Y3236337D01*
X1951225Y3236416D01*
X1950531Y3236592D01*
X1950009Y3236552D01*
X1949491Y3236609D01*
X1948792Y3236458D01*
X1948077Y3236403D01*
X1947596Y3236199D01*
X1947086Y3236088D01*
X1946471Y3235722D01*
X1945812Y3235442D01*
X1945252Y3234995D01*
X1944972Y3234828D01*
X1944818Y3234648D01*
X1944492Y3234388D01*
X1894732Y3184627D01*
X1867604Y3157499D01*
X1865314Y3157499D01*
X1864162Y3157311D01*
X1863010Y3157143D01*
X1862951Y3157113D01*
X1862886Y3157102D01*
X1861857Y3156558D01*
X1860816Y3156029D01*
X1860769Y3155982D01*
X1860711Y3155951D01*
X1859899Y3155098D01*
X1859090Y3154275D01*
X1859053Y3154207D01*
X1859016Y3154168D01*
X1858931Y3153986D01*
X1858275Y3152796D01*
X1855538Y3146187D01*
X1828813Y3119462D01*
X1793897Y3104999D01*
X1756103Y3104999D01*
X1721187Y3119462D01*
X1694462Y3146187D01*
X1679999Y3181103D01*
X1679999Y3218897D01*
X1694462Y3253813D01*
X1721187Y3280538D01*
X1756103Y3295000D01*
X1793897Y3295000D01*
X1828813Y3280538D01*
X1844235Y3265115D01*
X1844396Y3265000D01*
X1844518Y3264847D01*
X1845126Y3264456D01*
X1845652Y3264004D01*
X1845947Y3263885D01*
X1846234Y3263679D01*
X1846422Y3263621D01*
X1846587Y3263515D01*
X1847323Y3263329D01*
X1847934Y3263082D01*
X1848308Y3263040D01*
X1848585Y3262955D01*
X1848782Y3262960D01*
X1848973Y3262912D01*
X1849262Y3262934D01*
X1849612Y3262895D01*
X1849634Y3262895D01*
X1850264Y3262998D01*
X1851045Y3263018D01*
X1851229Y3263085D01*
X1851426Y3263100D01*
X1851764Y3263243D01*
X1852063Y3263292D01*
X1852652Y3263604D01*
X1853357Y3263861D01*
X1853511Y3263984D01*
X1853692Y3264061D01*
X1854036Y3264336D01*
X1854238Y3264443D01*
X1854454Y3264670D01*
X1855011Y3265115D01*
X1905268Y3315372D01*
X1905798Y3316110D01*
X1906390Y3316800D01*
X1906513Y3317104D01*
X1906704Y3317371D01*
X1906972Y3318239D01*
X1907312Y3319082D01*
X1907358Y3319494D01*
X1907428Y3319722D01*
X1907420Y3320049D01*
X1907499Y3320760D01*
X1907499Y3379480D01*
X1907468Y3379674D01*
X1907489Y3379869D01*
X1907269Y3380885D01*
X1907102Y3381908D01*
X1907010Y3382082D01*
X1906968Y3382274D01*
X1906436Y3383168D01*
X1905951Y3384084D01*
X1905809Y3384219D01*
X1905708Y3384388D01*
X1904920Y3385063D01*
X1904168Y3385779D01*
X1903989Y3385862D01*
X1903840Y3385990D01*
X1902877Y3386379D01*
X1901936Y3386817D01*
X1901741Y3386838D01*
X1901558Y3386912D01*
X1899880Y3387099D01*
X1872621Y3387099D01*
X1872621Y3424680D01*
X1872589Y3424874D01*
X1872611Y3425069D01*
X1872391Y3426085D01*
X1872223Y3427108D01*
X1872131Y3427282D01*
X1872090Y3427474D01*
X1871558Y3428367D01*
X1871073Y3429284D01*
X1870930Y3429419D01*
X1870829Y3429588D01*
X1870042Y3430263D01*
X1869289Y3430979D01*
X1869111Y3431062D01*
X1868961Y3431190D01*
X1867997Y3431579D01*
X1867058Y3432017D01*
X1866863Y3432038D01*
X1866680Y3432112D01*
X1865001Y3432299D01*
X1864998Y3432299D01*
X1864805Y3432268D01*
X1864612Y3432289D01*
X1864611Y3432289D01*
X1864609Y3432289D01*
X1863593Y3432069D01*
X1862570Y3431902D01*
X1862396Y3431810D01*
X1862204Y3431768D01*
X1861312Y3431236D01*
X1860394Y3430751D01*
X1860259Y3430609D01*
X1860090Y3430508D01*
X1859415Y3429721D01*
X1858699Y3428968D01*
X1858617Y3428789D01*
X1858488Y3428640D01*
X1858099Y3427676D01*
X1857662Y3426736D01*
X1857640Y3426541D01*
X1857566Y3426358D01*
X1857379Y3424680D01*
X1857379Y3387099D01*
X1821656Y3387099D01*
X1815196Y3388830D01*
X1809403Y3392175D01*
X1804675Y3396903D01*
X1801330Y3402696D01*
X1799599Y3409156D01*
X1799599Y3417816D01*
X1799484Y3418523D01*
X1799465Y3419238D01*
X1799286Y3419729D01*
X1799202Y3420244D01*
X1798868Y3420876D01*
X1798622Y3421550D01*
X1798295Y3421958D01*
X1798051Y3422419D01*
X1797532Y3422913D01*
X1797085Y3423472D01*
X1796647Y3423754D01*
X1796268Y3424114D01*
X1795618Y3424417D01*
X1795016Y3424804D01*
X1794509Y3424932D01*
X1794036Y3425152D01*
X1793325Y3425232D01*
X1792630Y3425407D01*
X1792109Y3425367D01*
X1791591Y3425425D01*
X1790891Y3425273D01*
X1790177Y3425218D01*
X1789696Y3425015D01*
X1789186Y3424904D01*
X1788570Y3424537D01*
X1787911Y3424258D01*
X1787353Y3423811D01*
X1787072Y3423644D01*
X1786917Y3423463D01*
X1786592Y3423203D01*
X1785404Y3422014D01*
X1762432Y3412499D01*
X1737568Y3412499D01*
X1714596Y3422014D01*
X1708843Y3427768D01*
X1708105Y3428298D01*
X1707415Y3428890D01*
X1707111Y3429013D01*
X1706844Y3429204D01*
X1705976Y3429472D01*
X1705133Y3429812D01*
X1704721Y3429858D01*
X1704493Y3429928D01*
X1704166Y3429920D01*
X1703455Y3429999D01*
X1681360Y3429999D01*
X1556309Y3555050D01*
X1555358Y3555734D01*
X1554428Y3556427D01*
X1554365Y3556448D01*
X1554311Y3556486D01*
X1553190Y3556832D01*
X1552089Y3557192D01*
X1552023Y3557191D01*
X1551959Y3557211D01*
X1550793Y3557181D01*
X1549628Y3557171D01*
X1549552Y3557149D01*
X1549499Y3557148D01*
X1549317Y3557081D01*
X1548006Y3556702D01*
X1543897Y3554999D01*
X1506103Y3554999D01*
X1471187Y3569462D01*
X1444462Y3596187D01*
X1429999Y3631103D01*
X1429999Y3668897D01*
X1444462Y3703813D01*
X1471187Y3730538D01*
X1506103Y3745000D01*
X1543897Y3745000D01*
X1578813Y3730538D01*
X1605538Y3703813D01*
X1620000Y3668897D01*
X1620000Y3631103D01*
X1618298Y3626994D01*
X1618031Y3625855D01*
X1617746Y3624729D01*
X1617751Y3624663D01*
X1617736Y3624598D01*
X1617845Y3623444D01*
X1617934Y3622275D01*
X1617960Y3622214D01*
X1617967Y3622148D01*
X1618441Y3621082D01*
X1618895Y3620010D01*
X1618944Y3619948D01*
X1618966Y3619900D01*
X1619099Y3619754D01*
X1619950Y3618690D01*
X1708209Y3530431D01*
X1709158Y3529749D01*
X1710090Y3529054D01*
X1710154Y3529033D01*
X1710208Y3528994D01*
X1711323Y3528651D01*
X1712429Y3528289D01*
X1712495Y3528290D01*
X1712559Y3528270D01*
X1713725Y3528300D01*
X1714890Y3528310D01*
X1714966Y3528332D01*
X1715019Y3528333D01*
X1715203Y3528400D01*
X1716513Y3528779D01*
X1720572Y3530460D01*
X1721181Y3530838D01*
X1721835Y3531128D01*
X1722219Y3531481D01*
X1722663Y3531757D01*
X1723121Y3532309D01*
X1723648Y3532793D01*
X1723899Y3533249D01*
X1724233Y3533652D01*
X1724491Y3534322D01*
X1724835Y3534948D01*
X1724928Y3535460D01*
X1725116Y3535949D01*
X1725147Y3536666D01*
X1725274Y3537369D01*
X1725199Y3537885D01*
X1725221Y3538407D01*
X1725022Y3539095D01*
X1724919Y3539804D01*
X1724683Y3540269D01*
X1724538Y3540771D01*
X1724129Y3541360D01*
X1723806Y3541998D01*
X1723433Y3542364D01*
X1723136Y3542794D01*
X1722562Y3543222D01*
X1722051Y3543724D01*
X1721425Y3544069D01*
X1721163Y3544264D01*
X1720936Y3544338D01*
X1720572Y3544539D01*
X1714596Y3547014D01*
X1697014Y3564596D01*
X1687499Y3587568D01*
X1687499Y3612432D01*
X1696675Y3634584D01*
X1696883Y3635469D01*
X1697165Y3636333D01*
X1697162Y3636660D01*
X1697237Y3636980D01*
X1697152Y3637885D01*
X1697144Y3638793D01*
X1697029Y3639193D01*
X1697007Y3639429D01*
X1696874Y3639728D01*
X1696675Y3640416D01*
X1687499Y3662568D01*
X1687499Y3687432D01*
X1696675Y3709584D01*
X1696776Y3710016D01*
X1696947Y3710382D01*
X1696994Y3710811D01*
X1697165Y3711333D01*
X1697162Y3711660D01*
X1697237Y3711980D01*
X1697186Y3712526D01*
X1697219Y3712827D01*
X1697150Y3713148D01*
X1697144Y3713793D01*
X1697029Y3714193D01*
X1697007Y3714429D01*
X1696874Y3714728D01*
X1696675Y3715416D01*
X1687499Y3737568D01*
X1687499Y3762432D01*
X1697014Y3785403D01*
X1714596Y3802985D01*
X1737568Y3812500D01*
X1762432Y3812500D01*
X1785403Y3802985D01*
X1802986Y3785403D01*
X1811841Y3764025D01*
X1812353Y3763198D01*
X1812809Y3762337D01*
X1812999Y3762155D01*
X1813137Y3761933D01*
X1813885Y3761314D01*
X1814593Y3760642D01*
X1814831Y3760531D01*
X1815033Y3760364D01*
X1815941Y3760014D01*
X1816824Y3759604D01*
X1817084Y3759575D01*
X1817329Y3759480D01*
X1818303Y3759439D01*
X1819269Y3759331D01*
X1819526Y3759387D01*
X1819788Y3759375D01*
X1820723Y3759646D01*
X1821674Y3759852D01*
X1821900Y3759986D01*
X1822152Y3760059D01*
X1822952Y3760614D01*
X1823788Y3761112D01*
X1823959Y3761312D01*
X1824174Y3761461D01*
X1824755Y3762240D01*
X1825390Y3762980D01*
X1825488Y3763224D01*
X1825645Y3763434D01*
X1825947Y3764359D01*
X1826312Y3765262D01*
X1826348Y3765586D01*
X1826409Y3765773D01*
X1826407Y3766108D01*
X1826499Y3766940D01*
X1826499Y4107426D01*
X1844073Y4125000D01*
X1968926Y4125000D01*
X1986561Y4107366D01*
X1986555Y4107219D01*
X1986772Y4106468D01*
X1986898Y4105698D01*
X1987111Y4105295D01*
X1987238Y4104855D01*
X1987684Y4104213D01*
X1988048Y4103523D01*
X1988380Y4103208D01*
X1988640Y4102833D01*
X1989265Y4102367D01*
X1989832Y4101828D01*
X1990247Y4101635D01*
X1990613Y4101362D01*
X1991356Y4101120D01*
X1992063Y4100790D01*
X1992518Y4100740D01*
X1992953Y4100598D01*
X1993733Y4100604D01*
X1994509Y4100518D01*
X1994956Y4100614D01*
X1995413Y4100618D01*
X1996723Y4100997D01*
X1996914Y4101038D01*
X1996959Y4101065D01*
X1997036Y4101088D01*
X2008110Y4105675D01*
X2016250Y4107294D01*
X2016250Y4051132D01*
X2016282Y4050938D01*
X2016260Y4050743D01*
X2016392Y4050136D01*
X2016250Y4048868D01*
X2016250Y3992706D01*
X2008110Y3994325D01*
X1997036Y3998912D01*
X1996590Y3999017D01*
X1996176Y3999209D01*
X1995401Y3999296D01*
X1994640Y3999474D01*
X1994185Y3999432D01*
X1993730Y3999482D01*
X1992967Y3999317D01*
X1992190Y3999244D01*
X1991772Y3999058D01*
X1991325Y3998961D01*
X1990655Y3998562D01*
X1989941Y3998244D01*
X1989604Y3997935D01*
X1989212Y3997701D01*
X1988704Y3997109D01*
X1988128Y3996580D01*
X1987908Y3996180D01*
X1987610Y3995833D01*
X1987317Y3995108D01*
X1986941Y3994425D01*
X1986859Y3993976D01*
X1986688Y3993551D01*
X1986536Y3992195D01*
X1986502Y3992004D01*
X1986509Y3991952D01*
X1986500Y3991873D01*
X1986500Y3858127D01*
X1986574Y3857676D01*
X1986555Y3857219D01*
X1986772Y3856468D01*
X1986898Y3855698D01*
X1987111Y3855295D01*
X1987238Y3854855D01*
X1987684Y3854213D01*
X1988048Y3853523D01*
X1988380Y3853208D01*
X1988640Y3852833D01*
X1989265Y3852367D01*
X1989832Y3851828D01*
X1990247Y3851635D01*
X1990613Y3851362D01*
X1991356Y3851120D01*
X1992063Y3850790D01*
X1992518Y3850740D01*
X1992953Y3850598D01*
X1993733Y3850604D01*
X1994509Y3850518D01*
X1994956Y3850614D01*
X1995413Y3850618D01*
X1996723Y3850997D01*
X1996914Y3851038D01*
X1996959Y3851065D01*
X1997036Y3851088D01*
X2008110Y3855675D01*
X2016250Y3857294D01*
X2016250Y3801132D01*
X2016282Y3800938D01*
X2016260Y3800743D01*
X2016480Y3799727D01*
X2016648Y3798703D01*
X2016739Y3798530D01*
X2016781Y3798338D01*
X2017313Y3797445D01*
X2017798Y3796528D01*
X2017941Y3796393D01*
X2018041Y3796224D01*
X2018828Y3795549D01*
X2019582Y3794833D01*
X2019760Y3794750D01*
X2019909Y3794622D01*
X2020873Y3794233D01*
X2021813Y3793795D01*
X2022008Y3793773D01*
X2022191Y3793700D01*
X2023869Y3793513D01*
X2026130Y3793513D01*
X2026324Y3793544D01*
X2026519Y3793523D01*
X2027535Y3793743D01*
X2028558Y3793910D01*
X2028732Y3794002D01*
X2028924Y3794043D01*
X2029817Y3794576D01*
X2030734Y3795061D01*
X2030869Y3795203D01*
X2031038Y3795304D01*
X2031713Y3796091D01*
X2032429Y3796844D01*
X2032512Y3797023D01*
X2032640Y3797172D01*
X2033029Y3798136D01*
X2033467Y3799076D01*
X2033488Y3799271D01*
X2033562Y3799453D01*
X2033749Y3801132D01*
X2033749Y3857294D01*
X2041890Y3855675D01*
X2052964Y3851088D01*
X2053409Y3850983D01*
X2053824Y3850791D01*
X2054600Y3850704D01*
X2055360Y3850526D01*
X2055815Y3850568D01*
X2056269Y3850518D01*
X2057032Y3850683D01*
X2057810Y3850756D01*
X2058228Y3850942D01*
X2058674Y3851039D01*
X2059345Y3851439D01*
X2060058Y3851756D01*
X2060395Y3852065D01*
X2060788Y3852299D01*
X2061297Y3852893D01*
X2061871Y3853420D01*
X2062092Y3853819D01*
X2062390Y3854167D01*
X2062683Y3854892D01*
X2063059Y3855575D01*
X2063141Y3856025D01*
X2063312Y3856449D01*
X2063463Y3857805D01*
X2063498Y3857996D01*
X2063491Y3858048D01*
X2063499Y3858127D01*
X2063499Y3991873D01*
X2063426Y3992324D01*
X2063445Y3992781D01*
X2063228Y3993532D01*
X2063102Y3994301D01*
X2062888Y3994704D01*
X2062761Y3995145D01*
X2062316Y3995787D01*
X2061951Y3996477D01*
X2061620Y3996792D01*
X2061359Y3997167D01*
X2060734Y3997633D01*
X2060168Y3998172D01*
X2059753Y3998365D01*
X2059386Y3998638D01*
X2058644Y3998880D01*
X2057936Y3999209D01*
X2057482Y3999260D01*
X2057047Y3999402D01*
X2056267Y3999396D01*
X2055491Y3999482D01*
X2055044Y3999385D01*
X2054587Y3999382D01*
X2053277Y3999003D01*
X2053086Y3998961D01*
X2053040Y3998934D01*
X2052964Y3998912D01*
X2041889Y3994325D01*
X2033749Y3992706D01*
X2033749Y4048868D01*
X2033718Y4049062D01*
X2033739Y4049257D01*
X2033608Y4049864D01*
X2033749Y4051132D01*
X2033749Y4107294D01*
X2041889Y4105675D01*
X2052964Y4101088D01*
X2053410Y4100983D01*
X2053824Y4100790D01*
X2054599Y4100704D01*
X2055360Y4100525D01*
X2055815Y4100568D01*
X2056269Y4100518D01*
X2057033Y4100683D01*
X2057810Y4100756D01*
X2058228Y4100942D01*
X2058674Y4101038D01*
X2059344Y4101438D01*
X2060058Y4101755D01*
X2060396Y4102065D01*
X2060788Y4102299D01*
X2061296Y4102891D01*
X2061871Y4103419D01*
X2062092Y4103819D01*
X2062390Y4104167D01*
X2062683Y4104892D01*
X2063059Y4105575D01*
X2063141Y4106024D01*
X2063312Y4106448D01*
X2063412Y4107338D01*
X2081073Y4125000D01*
X2205926Y4125000D01*
X2223500Y4107426D01*
X2223500Y3766940D01*
X2223658Y3765980D01*
X2223749Y3765010D01*
X2223856Y3764770D01*
X2223898Y3764512D01*
X2224352Y3763652D01*
X2224748Y3762761D01*
X2224926Y3762568D01*
X2225048Y3762336D01*
X2225755Y3761664D01*
X2226413Y3760949D01*
X2226641Y3760823D01*
X2226832Y3760641D01*
X2227715Y3760231D01*
X2228568Y3759761D01*
X2228826Y3759714D01*
X2229063Y3759603D01*
X2230030Y3759496D01*
X2230989Y3759322D01*
X2231248Y3759360D01*
X2231509Y3759331D01*
X2232462Y3759537D01*
X2233424Y3759678D01*
X2233657Y3759796D01*
X2233914Y3759852D01*
X2234751Y3760351D01*
X2235618Y3760791D01*
X2235802Y3760978D01*
X2236028Y3761112D01*
X2236662Y3761851D01*
X2237344Y3762545D01*
X2237501Y3762830D01*
X2237629Y3762980D01*
X2237756Y3763293D01*
X2238159Y3764024D01*
X2247014Y3785403D01*
X2264596Y3802985D01*
X2287568Y3812500D01*
X2312432Y3812500D01*
X2329138Y3805580D01*
X2329772Y3805432D01*
X2330376Y3805188D01*
X2331208Y3805095D01*
X2331534Y3805018D01*
X2331730Y3805037D01*
X2332054Y3805000D01*
X2454062Y3805000D01*
X2454957Y3805147D01*
X2455864Y3805217D01*
X2456167Y3805345D01*
X2456490Y3805398D01*
X2457293Y3805822D01*
X2458130Y3806178D01*
X2458455Y3806437D01*
X2458665Y3806548D01*
X2458890Y3806785D01*
X2459449Y3807232D01*
X2581518Y3929300D01*
X2582048Y3930038D01*
X2582640Y3930728D01*
X2582763Y3931032D01*
X2582954Y3931298D01*
X2583222Y3932167D01*
X2583562Y3933009D01*
X2583608Y3933422D01*
X2583678Y3933650D01*
X2583670Y3933977D01*
X2583749Y3934688D01*
X2583749Y3991250D01*
X2640312Y3991250D01*
X2641209Y3991397D01*
X2642115Y3991467D01*
X2642417Y3991595D01*
X2642740Y3991648D01*
X2643543Y3992072D01*
X2644380Y3992427D01*
X2644705Y3992687D01*
X2644915Y3992798D01*
X2645141Y3993035D01*
X2645699Y3993482D01*
X2653818Y4001601D01*
X2654348Y4002338D01*
X2654940Y4003028D01*
X2655063Y4003333D01*
X2655254Y4003599D01*
X2655522Y4004467D01*
X2655862Y4005310D01*
X2655908Y4005723D01*
X2655978Y4005951D01*
X2655970Y4006277D01*
X2656049Y4006988D01*
X2656049Y4121141D01*
X2736859Y4201950D01*
X2851141Y4201950D01*
X2931950Y4121141D01*
X2931950Y4006859D01*
X2851141Y3926049D01*
X2736988Y3926049D01*
X2736093Y3925903D01*
X2735185Y3925833D01*
X2734883Y3925705D01*
X2734560Y3925652D01*
X2733757Y3925228D01*
X2732920Y3924872D01*
X2732595Y3924613D01*
X2732384Y3924501D01*
X2732160Y3924265D01*
X2732126Y3924238D01*
X2732115Y3924232D01*
X2732104Y3924221D01*
X2731600Y3923818D01*
X2511155Y3703372D01*
X2490941Y3694999D01*
X2370120Y3694999D01*
X2369926Y3694968D01*
X2369730Y3694989D01*
X2368715Y3694769D01*
X2367691Y3694602D01*
X2367518Y3694510D01*
X2367325Y3694468D01*
X2366433Y3693936D01*
X2365516Y3693451D01*
X2365380Y3693309D01*
X2365212Y3693208D01*
X2364537Y3692421D01*
X2363821Y3691668D01*
X2363738Y3691489D01*
X2363610Y3691340D01*
X2363220Y3690376D01*
X2362783Y3689436D01*
X2362761Y3689241D01*
X2362688Y3689058D01*
X2362500Y3687380D01*
X2362500Y3662568D01*
X2355580Y3645861D01*
X2355432Y3645228D01*
X2355188Y3644624D01*
X2355095Y3643792D01*
X2355018Y3643465D01*
X2355037Y3643270D01*
X2355000Y3642945D01*
X2355000Y3632055D01*
X2355106Y3631412D01*
X2355111Y3630761D01*
X2355344Y3629957D01*
X2355398Y3629626D01*
X2355489Y3629453D01*
X2355580Y3629139D01*
X2362500Y3612433D01*
X2362500Y3587567D01*
X2355580Y3570861D01*
X2355432Y3570228D01*
X2355188Y3569623D01*
X2355095Y3568791D01*
X2355018Y3568465D01*
X2355037Y3568270D01*
X2355000Y3567945D01*
X2355000Y3407055D01*
X2355106Y3406412D01*
X2355111Y3405761D01*
X2355344Y3404957D01*
X2355398Y3404626D01*
X2355489Y3404453D01*
X2355580Y3404139D01*
X2362500Y3387433D01*
X2362500Y3362568D01*
X2352985Y3339596D01*
X2335403Y3322014D01*
X2312432Y3312499D01*
X2287568Y3312499D01*
X2264596Y3322014D01*
X2247014Y3339596D01*
X2237499Y3362568D01*
X2237499Y3374880D01*
X2237468Y3375074D01*
X2237489Y3375269D01*
X2237269Y3376285D01*
X2237102Y3377308D01*
X2237010Y3377482D01*
X2236968Y3377674D01*
X2236436Y3378567D01*
X2235951Y3379484D01*
X2235809Y3379619D01*
X2235708Y3379788D01*
X2234921Y3380463D01*
X2234168Y3381179D01*
X2233989Y3381262D01*
X2233840Y3381390D01*
X2232876Y3381779D01*
X2231936Y3382217D01*
X2231741Y3382238D01*
X2231558Y3382312D01*
X2229880Y3382499D01*
X2145520Y3382499D01*
X2145326Y3382468D01*
X2145130Y3382489D01*
X2144115Y3382269D01*
X2143091Y3382102D01*
X2142918Y3382010D01*
X2142725Y3381968D01*
X2141833Y3381436D01*
X2140916Y3380951D01*
X2140780Y3380809D01*
X2140612Y3380708D01*
X2139937Y3379921D01*
X2139221Y3379168D01*
X2139138Y3378989D01*
X2139010Y3378840D01*
X2138620Y3377876D01*
X2138183Y3376936D01*
X2138161Y3376741D01*
X2138088Y3376558D01*
X2137900Y3374880D01*
X2137900Y3372621D01*
X2100320Y3372621D01*
X2100126Y3372589D01*
X2099930Y3372611D01*
X2098915Y3372391D01*
X2097891Y3372223D01*
X2097718Y3372131D01*
X2097525Y3372090D01*
X2096633Y3371558D01*
X2095716Y3371073D01*
X2095580Y3370930D01*
X2095412Y3370829D01*
X2094737Y3370042D01*
X2094021Y3369289D01*
X2093938Y3369111D01*
X2093810Y3368961D01*
X2093420Y3367997D01*
X2092983Y3367058D01*
X2092961Y3366863D01*
X2092888Y3366680D01*
X2092700Y3365001D01*
X2092700Y3364998D01*
X2092732Y3364805D01*
X2092710Y3364612D01*
X2092711Y3364611D01*
X2092710Y3364609D01*
X2092930Y3363593D01*
X2093098Y3362570D01*
X2093190Y3362396D01*
X2093231Y3362204D01*
X2093763Y3361312D01*
X2094248Y3360394D01*
X2094391Y3360259D01*
X2094492Y3360090D01*
X2095279Y3359415D01*
X2096032Y3358699D01*
X2096210Y3358617D01*
X2096360Y3358488D01*
X2097324Y3358099D01*
X2098263Y3357662D01*
X2098458Y3357640D01*
X2098641Y3357566D01*
X2100320Y3357379D01*
X2137900Y3357379D01*
X2137900Y3321656D01*
X2137375Y3319695D01*
X2137282Y3318769D01*
X2137116Y3317853D01*
X2137160Y3317551D01*
X2137130Y3317247D01*
X2137338Y3316338D01*
X2137472Y3315418D01*
X2137610Y3315147D01*
X2137678Y3314848D01*
X2138165Y3314052D01*
X2138585Y3313224D01*
X2138803Y3313010D01*
X2138963Y3312748D01*
X2139677Y3312150D01*
X2140339Y3311498D01*
X2140676Y3311313D01*
X2140849Y3311168D01*
X2141159Y3311047D01*
X2141819Y3310683D01*
X2160403Y3302986D01*
X2177985Y3285403D01*
X2187683Y3261991D01*
X2187772Y3261684D01*
X2187898Y3260914D01*
X2188111Y3260511D01*
X2188238Y3260071D01*
X2188684Y3259428D01*
X2189048Y3258739D01*
X2189380Y3258424D01*
X2189640Y3258048D01*
X2190265Y3257582D01*
X2190832Y3257044D01*
X2191247Y3256851D01*
X2191613Y3256578D01*
X2192356Y3256335D01*
X2193063Y3256006D01*
X2193518Y3255955D01*
X2193953Y3255813D01*
X2194733Y3255820D01*
X2195509Y3255733D01*
X2195956Y3255830D01*
X2196413Y3255834D01*
X2197723Y3256213D01*
X2197914Y3256254D01*
X2197959Y3256281D01*
X2198036Y3256303D01*
X2231103Y3270000D01*
X2268897Y3270000D01*
X2303813Y3255538D01*
X2330538Y3228813D01*
X2345000Y3193897D01*
X2345000Y3156103D01*
X2330538Y3121187D01*
X2303813Y3094462D01*
X2268897Y3079999D01*
X2231103Y3079999D01*
G37*
%LPD*%
%LPC*%
G36*
X1466859Y3926049D02*
X1466859Y3926049D01*
X1386049Y4006859D01*
X1386049Y4121141D01*
X1466859Y4201950D01*
X1581141Y4201950D01*
X1661950Y4121141D01*
X1661950Y4006859D01*
X1581141Y3926049D01*
X1466859Y3926049D01*
G37*
%LPD*%
%LPC*%
G36*
X1539239Y3317239D02*
X1539239Y3317239D01*
X1539239Y3435350D01*
X1579235Y3435350D01*
X1657350Y3357235D01*
X1657350Y3317239D01*
X1539239Y3317239D01*
G37*
%LPD*%
%LPC*%
G36*
X1390649Y3317239D02*
X1390649Y3317239D01*
X1390649Y3357235D01*
X1468765Y3435350D01*
X1508761Y3435350D01*
X1508761Y3317239D01*
X1390649Y3317239D01*
G37*
%LPD*%
%LPC*%
G36*
X1539239Y3168649D02*
X1539239Y3168649D01*
X1539239Y3286761D01*
X1657350Y3286761D01*
X1657350Y3246765D01*
X1579235Y3168649D01*
X1539239Y3168649D01*
G37*
%LPD*%
%LPC*%
G36*
X1468765Y3168649D02*
X1468765Y3168649D01*
X1390649Y3246765D01*
X1390649Y3286761D01*
X1508761Y3286761D01*
X1508761Y3168649D01*
X1468765Y3168649D01*
G37*
%LPD*%
G36*
X2100724Y3413163D02*
X2100724Y3413163D01*
X2101066Y3413156D01*
X2101922Y3413423D01*
X2102796Y3413612D01*
X2103089Y3413787D01*
X2103415Y3413889D01*
X2104141Y3414414D01*
X2104909Y3414873D01*
X2105131Y3415132D01*
X2105408Y3415332D01*
X2105928Y3416060D01*
X2106511Y3416741D01*
X2106639Y3417058D01*
X2106837Y3417335D01*
X2107098Y3418191D01*
X2107433Y3419022D01*
X2107482Y3419455D01*
X2107553Y3419690D01*
X2107544Y3420012D01*
X2107621Y3420701D01*
X2107621Y3430427D01*
X2107769Y3430410D01*
X2108785Y3430630D01*
X2109808Y3430798D01*
X2109982Y3430890D01*
X2110174Y3430931D01*
X2111067Y3431463D01*
X2111984Y3431948D01*
X2112119Y3432091D01*
X2112288Y3432192D01*
X2112963Y3432979D01*
X2113679Y3433732D01*
X2113762Y3433910D01*
X2113890Y3434060D01*
X2114279Y3435024D01*
X2114717Y3435963D01*
X2114738Y3436158D01*
X2114812Y3436341D01*
X2114999Y3438020D01*
X2114999Y3449926D01*
X2117467Y3452394D01*
X2117860Y3452941D01*
X2118329Y3453424D01*
X2118573Y3453933D01*
X2118903Y3454393D01*
X2119102Y3455036D01*
X2119393Y3455643D01*
X2119462Y3456204D01*
X2119628Y3456744D01*
X2119611Y3457417D01*
X2119693Y3458085D01*
X2119599Y3458699D01*
X2119599Y3467379D01*
X2129296Y3467379D01*
X2129854Y3467470D01*
X2130421Y3467462D01*
X2130572Y3467511D01*
X2130720Y3467514D01*
X2131204Y3467691D01*
X2131724Y3467776D01*
X2132224Y3468041D01*
X2132764Y3468214D01*
X2132921Y3468318D01*
X2133031Y3468358D01*
X2133266Y3468546D01*
X2133619Y3468778D01*
X2133899Y3468927D01*
X2133993Y3469026D01*
X2134173Y3469145D01*
X2134175Y3469146D01*
X2134531Y3469556D01*
X2134953Y3469894D01*
X2135237Y3470334D01*
X2135594Y3470711D01*
X2135668Y3470870D01*
X2135787Y3471006D01*
X2135993Y3471508D01*
X2136286Y3471963D01*
X2136415Y3472475D01*
X2136632Y3472942D01*
X2136651Y3473113D01*
X2136721Y3473283D01*
X2136756Y3473824D01*
X2136889Y3474349D01*
X2136848Y3474880D01*
X2136905Y3475391D01*
X2136869Y3475558D01*
X2136881Y3475738D01*
X2136742Y3476262D01*
X2136701Y3476803D01*
X2136494Y3477290D01*
X2136384Y3477796D01*
X2136296Y3477944D01*
X2136250Y3478117D01*
X2135951Y3478569D01*
X2135740Y3479068D01*
X2135290Y3479631D01*
X2135124Y3479909D01*
X2134992Y3480023D01*
X2134894Y3480170D01*
X2134801Y3480243D01*
X2134685Y3480388D01*
X2134684Y3480389D01*
X2133946Y3480919D01*
X2133256Y3481511D01*
X2133091Y3481578D01*
X2132954Y3481684D01*
X2132812Y3481734D01*
X2132685Y3481825D01*
X2131817Y3482093D01*
X2130974Y3482433D01*
X2130757Y3482458D01*
X2130633Y3482501D01*
X2130484Y3482503D01*
X2130334Y3482550D01*
X2130007Y3482541D01*
X2129296Y3482621D01*
X2119599Y3482621D01*
X2119599Y3491282D01*
X2119671Y3491563D01*
X2119628Y3492128D01*
X2119684Y3492693D01*
X2119534Y3493349D01*
X2119483Y3494017D01*
X2119263Y3494538D01*
X2119136Y3495092D01*
X2118785Y3495666D01*
X2118523Y3496283D01*
X2118026Y3496907D01*
X2117852Y3497191D01*
X2117691Y3497326D01*
X2117470Y3497603D01*
X2117140Y3497933D01*
X2116979Y3498049D01*
X2116855Y3498203D01*
X2115986Y3498763D01*
X2115143Y3499370D01*
X2114953Y3499428D01*
X2114786Y3499536D01*
X2113781Y3499790D01*
X2112791Y3500095D01*
X2112593Y3500090D01*
X2112401Y3500139D01*
X2111367Y3500060D01*
X2110331Y3500034D01*
X2110145Y3499966D01*
X2109947Y3499951D01*
X2108993Y3499546D01*
X2108019Y3499191D01*
X2107864Y3499067D01*
X2107682Y3498990D01*
X2106362Y3497935D01*
X2099926Y3491499D01*
X2090037Y3491499D01*
X2089109Y3491348D01*
X2088170Y3491267D01*
X2087899Y3491149D01*
X2087608Y3491102D01*
X2086777Y3490662D01*
X2085913Y3490287D01*
X2085694Y3490089D01*
X2085433Y3489951D01*
X2084784Y3489269D01*
X2084086Y3488638D01*
X2083941Y3488382D01*
X2083738Y3488168D01*
X2083341Y3487314D01*
X2082880Y3486493D01*
X2082824Y3486203D01*
X2082700Y3485936D01*
X2082596Y3485003D01*
X2082420Y3484076D01*
X2082448Y3483749D01*
X2068906Y3483749D01*
X2068477Y3483679D01*
X2068042Y3483700D01*
X2067268Y3483481D01*
X2066478Y3483352D01*
X2066093Y3483149D01*
X2065674Y3483030D01*
X2065011Y3482576D01*
X2064302Y3482201D01*
X2064003Y3481886D01*
X2063643Y3481640D01*
X2063160Y3480999D01*
X2062607Y3480418D01*
X2062423Y3480023D01*
X2062162Y3479676D01*
X2061630Y3478316D01*
X2061569Y3478186D01*
X2061566Y3478152D01*
X2061546Y3478103D01*
X2060940Y3475842D01*
X2060822Y3474654D01*
X2060691Y3473480D01*
X2060700Y3473437D01*
X2060696Y3473393D01*
X2060960Y3472235D01*
X2061212Y3471075D01*
X2061234Y3471038D01*
X2061244Y3470994D01*
X2061869Y3469972D01*
X2062472Y3468962D01*
X2062505Y3468933D01*
X2062528Y3468895D01*
X2063436Y3468134D01*
X2064340Y3467360D01*
X2064381Y3467343D01*
X2064414Y3467315D01*
X2065519Y3466883D01*
X2066622Y3466437D01*
X2066673Y3466432D01*
X2066706Y3466418D01*
X2066854Y3466411D01*
X2068300Y3466250D01*
X2082294Y3466250D01*
X2080675Y3458110D01*
X2076310Y3447573D01*
X2074194Y3444406D01*
X2073911Y3443784D01*
X2073541Y3443209D01*
X2073405Y3442671D01*
X2073175Y3442166D01*
X2073105Y3441485D01*
X2072938Y3440823D01*
X2072980Y3440271D01*
X2072923Y3439718D01*
X2073074Y3439050D01*
X2073126Y3438369D01*
X2073343Y3437859D01*
X2073465Y3437318D01*
X2073820Y3436733D01*
X2074087Y3436104D01*
X2074570Y3435500D01*
X2074743Y3435215D01*
X2074910Y3435075D01*
X2075142Y3434785D01*
X2077395Y3432532D01*
X2077941Y3432140D01*
X2078424Y3431670D01*
X2078934Y3431426D01*
X2079393Y3431096D01*
X2080035Y3430898D01*
X2080643Y3430607D01*
X2081205Y3430538D01*
X2081745Y3430372D01*
X2082417Y3430389D01*
X2083085Y3430307D01*
X2083699Y3430400D01*
X2092379Y3430400D01*
X2092379Y3420704D01*
X2092497Y3419984D01*
X2092518Y3419255D01*
X2092694Y3418778D01*
X2092776Y3418276D01*
X2093117Y3417632D01*
X2093370Y3416947D01*
X2093776Y3416386D01*
X2093927Y3416100D01*
X2093929Y3416098D01*
X2093930Y3416097D01*
X2094107Y3415929D01*
X2094360Y3415579D01*
X2094363Y3415575D01*
X2095064Y3415020D01*
X2095714Y3414402D01*
X2096024Y3414258D01*
X2096291Y3414046D01*
X2097133Y3413742D01*
X2097945Y3413364D01*
X2098284Y3413326D01*
X2098606Y3413210D01*
X2099501Y3413191D01*
X2100391Y3413091D01*
X2100724Y3413163D01*
G37*
G36*
X1969019Y3435194D02*
X1969019Y3435194D01*
X1970203Y3435378D01*
X1970232Y3435393D01*
X1970264Y3435398D01*
X1971323Y3435958D01*
X1972388Y3436510D01*
X1972411Y3436533D01*
X1972439Y3436548D01*
X1973267Y3437420D01*
X1974098Y3438279D01*
X1974112Y3438308D01*
X1974134Y3438332D01*
X1974639Y3439418D01*
X1975155Y3440502D01*
X1975159Y3440534D01*
X1975172Y3440563D01*
X1975303Y3441740D01*
X1975448Y3442945D01*
X1975442Y3442977D01*
X1975445Y3443009D01*
X1975193Y3444171D01*
X1974948Y3445354D01*
X1974930Y3445389D01*
X1974924Y3445414D01*
X1974866Y3445512D01*
X1974170Y3446854D01*
X1973689Y3447574D01*
X1969325Y3458110D01*
X1967706Y3466250D01*
X1981700Y3466250D01*
X1982875Y3466442D01*
X1984046Y3466620D01*
X1984085Y3466640D01*
X1984128Y3466648D01*
X1985178Y3467203D01*
X1986234Y3467746D01*
X1986264Y3467778D01*
X1986303Y3467798D01*
X1987131Y3468669D01*
X1987949Y3469511D01*
X1987968Y3469550D01*
X1987998Y3469582D01*
X1988503Y3470668D01*
X1989013Y3471730D01*
X1989018Y3471774D01*
X1989036Y3471813D01*
X1989167Y3472984D01*
X1989313Y3474172D01*
X1989305Y3474224D01*
X1989309Y3474259D01*
X1989279Y3474399D01*
X1989059Y3475842D01*
X1988453Y3478103D01*
X1988274Y3478500D01*
X1988182Y3478924D01*
X1987771Y3479613D01*
X1987441Y3480346D01*
X1987145Y3480664D01*
X1986922Y3481038D01*
X1986312Y3481561D01*
X1985766Y3482148D01*
X1985385Y3482356D01*
X1985054Y3482640D01*
X1984309Y3482941D01*
X1983604Y3483324D01*
X1983175Y3483399D01*
X1982772Y3483562D01*
X1981322Y3483724D01*
X1981180Y3483749D01*
X1981146Y3483743D01*
X1981094Y3483749D01*
X1967514Y3483749D01*
X1967572Y3484269D01*
X1967510Y3484557D01*
X1967520Y3484853D01*
X1967250Y3485756D01*
X1967051Y3486674D01*
X1966900Y3486928D01*
X1966816Y3487211D01*
X1966273Y3487980D01*
X1965791Y3488788D01*
X1965567Y3488980D01*
X1965397Y3489221D01*
X1964639Y3489776D01*
X1963923Y3490390D01*
X1963648Y3490501D01*
X1963411Y3490674D01*
X1962516Y3490959D01*
X1961641Y3491312D01*
X1961273Y3491353D01*
X1961066Y3491419D01*
X1960733Y3491413D01*
X1959963Y3491499D01*
X1950073Y3491499D01*
X1948008Y3493565D01*
X1947427Y3493983D01*
X1946907Y3494477D01*
X1946433Y3494697D01*
X1946009Y3495002D01*
X1945325Y3495213D01*
X1944676Y3495514D01*
X1944158Y3495572D01*
X1943658Y3495726D01*
X1942941Y3495708D01*
X1942230Y3495787D01*
X1941721Y3495677D01*
X1941198Y3495663D01*
X1940524Y3495418D01*
X1939825Y3495266D01*
X1939377Y3494999D01*
X1938886Y3494820D01*
X1938326Y3494372D01*
X1937712Y3494006D01*
X1937373Y3493610D01*
X1936964Y3493283D01*
X1936576Y3492682D01*
X1936110Y3492138D01*
X1935914Y3491653D01*
X1935632Y3491214D01*
X1935456Y3490520D01*
X1935188Y3489856D01*
X1935108Y3489145D01*
X1935028Y3488829D01*
X1935046Y3488591D01*
X1935000Y3488178D01*
X1935000Y3450073D01*
X1932934Y3448008D01*
X1932517Y3447427D01*
X1932023Y3446907D01*
X1931803Y3446433D01*
X1931498Y3446009D01*
X1931287Y3445325D01*
X1930985Y3444676D01*
X1930928Y3444158D01*
X1930773Y3443658D01*
X1930792Y3442941D01*
X1930713Y3442230D01*
X1930823Y3441721D01*
X1930836Y3441198D01*
X1931082Y3440524D01*
X1931233Y3439825D01*
X1931501Y3439377D01*
X1931680Y3438886D01*
X1932128Y3438326D01*
X1932494Y3437712D01*
X1932890Y3437373D01*
X1933216Y3436964D01*
X1933818Y3436576D01*
X1934362Y3436110D01*
X1934847Y3435914D01*
X1935285Y3435632D01*
X1935979Y3435456D01*
X1936643Y3435188D01*
X1937354Y3435108D01*
X1937671Y3435028D01*
X1937909Y3435046D01*
X1938322Y3435000D01*
X1967836Y3435000D01*
X1969019Y3435194D01*
G37*
%LPC*%
G36*
X2583749Y4008749D02*
X2583749Y4008749D01*
X2583749Y4057294D01*
X2591889Y4055675D01*
X2602426Y4051311D01*
X2611909Y4044974D01*
X2619974Y4036909D01*
X2626311Y4027426D01*
X2630675Y4016889D01*
X2632294Y4008749D01*
X2583749Y4008749D01*
G37*
%LPD*%
%LPC*%
G36*
X2383749Y4008749D02*
X2383749Y4008749D01*
X2383749Y4057294D01*
X2391889Y4055675D01*
X2402426Y4051311D01*
X2411909Y4044974D01*
X2419974Y4036909D01*
X2426311Y4027426D01*
X2430675Y4016889D01*
X2432294Y4008749D01*
X2383749Y4008749D01*
G37*
%LPD*%
%LPC*%
G36*
X2317706Y4008749D02*
X2317706Y4008749D01*
X2319325Y4016889D01*
X2323689Y4027426D01*
X2330025Y4036909D01*
X2338091Y4044974D01*
X2347573Y4051311D01*
X2358110Y4055675D01*
X2366250Y4057294D01*
X2366250Y4008749D01*
X2317706Y4008749D01*
G37*
%LPD*%
%LPC*%
G36*
X2517706Y4008749D02*
X2517706Y4008749D01*
X2519325Y4016889D01*
X2523689Y4027426D01*
X2530025Y4036909D01*
X2538091Y4044974D01*
X2547573Y4051311D01*
X2558110Y4055675D01*
X2566250Y4057294D01*
X2566250Y4008749D01*
X2517706Y4008749D01*
G37*
%LPD*%
%LPC*%
G36*
X2383749Y3991250D02*
X2383749Y3991250D01*
X2432294Y3991250D01*
X2430675Y3983110D01*
X2426311Y3972573D01*
X2419974Y3963091D01*
X2411909Y3955025D01*
X2402426Y3948689D01*
X2391889Y3944325D01*
X2383749Y3942706D01*
X2383749Y3991250D01*
G37*
%LPD*%
%LPC*%
G36*
X2558110Y3944325D02*
X2558110Y3944325D01*
X2547573Y3948689D01*
X2538091Y3955025D01*
X2530025Y3963091D01*
X2523689Y3972573D01*
X2519325Y3983110D01*
X2517706Y3991250D01*
X2566250Y3991250D01*
X2566250Y3942706D01*
X2558110Y3944325D01*
G37*
%LPD*%
%LPC*%
G36*
X2358110Y3944325D02*
X2358110Y3944325D01*
X2347573Y3948689D01*
X2338091Y3955025D01*
X2330025Y3963091D01*
X2323689Y3972573D01*
X2319325Y3983110D01*
X2317706Y3991250D01*
X2366250Y3991250D01*
X2366250Y3942706D01*
X2358110Y3944325D01*
G37*
%LPD*%
G36*
X2025194Y3468544D02*
X2025194Y3468544D01*
X2025388Y3468523D01*
X2025391Y3468523D01*
X2026406Y3468743D01*
X2027430Y3468910D01*
X2027603Y3469002D01*
X2027796Y3469043D01*
X2028688Y3469576D01*
X2029605Y3470061D01*
X2029741Y3470203D01*
X2029909Y3470304D01*
X2030584Y3471091D01*
X2031300Y3471844D01*
X2031383Y3472023D01*
X2031511Y3472172D01*
X2031901Y3473136D01*
X2032338Y3474076D01*
X2032360Y3474271D01*
X2032433Y3474453D01*
X2032621Y3476132D01*
X2032621Y3505796D01*
X2032474Y3506691D01*
X2032404Y3507599D01*
X2032343Y3507744D01*
X2032326Y3507892D01*
X2032252Y3508048D01*
X2032223Y3508224D01*
X2031799Y3509027D01*
X2031443Y3509864D01*
X2031326Y3510011D01*
X2031276Y3510117D01*
X2031155Y3510243D01*
X2031073Y3510400D01*
X2030836Y3510624D01*
X2030389Y3511184D01*
X2030388Y3511185D01*
X2029947Y3511502D01*
X2029572Y3511893D01*
X2029416Y3511974D01*
X2029289Y3512095D01*
X2028817Y3512314D01*
X2028389Y3512622D01*
X2027871Y3512781D01*
X2027391Y3513032D01*
X2027213Y3513060D01*
X2027058Y3513133D01*
X2026545Y3513190D01*
X2026038Y3513346D01*
X2025496Y3513332D01*
X2024960Y3513417D01*
X2024781Y3513387D01*
X2024612Y3513405D01*
X2024610Y3513405D01*
X2024609Y3513405D01*
X2024108Y3513297D01*
X2023578Y3513283D01*
X2023069Y3513097D01*
X2022534Y3513007D01*
X2022373Y3512921D01*
X2022204Y3512884D01*
X2021761Y3512620D01*
X2021266Y3512439D01*
X2020843Y3512101D01*
X2020365Y3511845D01*
X2020206Y3511693D01*
X2020090Y3511624D01*
X2019886Y3511385D01*
X2019580Y3511092D01*
X2019344Y3510903D01*
X2019280Y3510803D01*
X2019146Y3510675D01*
X2019145Y3510673D01*
X2018857Y3510186D01*
X2018488Y3509756D01*
X2018292Y3509268D01*
X2018012Y3508834D01*
X2017975Y3508688D01*
X2017895Y3508553D01*
X2017778Y3507999D01*
X2017566Y3507474D01*
X2017486Y3506755D01*
X2017408Y3506448D01*
X2017419Y3506300D01*
X2017387Y3506146D01*
X2017403Y3506010D01*
X2017379Y3505796D01*
X2017379Y3476132D01*
X2017403Y3475980D01*
X2017389Y3475848D01*
X2017397Y3475812D01*
X2017389Y3475743D01*
X2017609Y3474727D01*
X2017776Y3473703D01*
X2017868Y3473530D01*
X2017910Y3473338D01*
X2018442Y3472445D01*
X2018927Y3471528D01*
X2019069Y3471393D01*
X2019170Y3471224D01*
X2019957Y3470549D01*
X2020711Y3469833D01*
X2020889Y3469750D01*
X2021038Y3469622D01*
X2022002Y3469233D01*
X2022942Y3468795D01*
X2023137Y3468773D01*
X2023320Y3468700D01*
X2024998Y3468513D01*
X2025001Y3468513D01*
X2025194Y3468544D01*
G37*
%LPC*%
G36*
X1523998Y3301998D02*
X1523998Y3301998D01*
X1523998Y3302002D01*
X1524002Y3302002D01*
X1524002Y3301998D01*
X1523998Y3301998D01*
G37*
%LPD*%
D10*
X3100000Y4100000D02*
X3100000Y3200000D01*
X3099912Y3192751D01*
X3099650Y3185506D01*
X3099212Y3178270D01*
X3098599Y3171046D01*
X3097813Y3163839D01*
X3096852Y3156653D01*
X3095718Y3149493D01*
X3094411Y3142362D01*
X3092932Y3135265D01*
X3091283Y3128205D01*
X3089463Y3121188D01*
X3087474Y3114216D01*
X3085317Y3107295D01*
X3082994Y3100428D01*
X3080505Y3093619D01*
X3077852Y3086872D01*
X3075038Y3080191D01*
X3072062Y3073580D01*
X3068928Y3067043D01*
X3065637Y3060583D01*
X3062190Y3054205D01*
X3058591Y3047912D01*
X3054840Y3041708D01*
X3050941Y3035596D01*
X3046895Y3029581D01*
X3042705Y3023664D01*
X3038373Y3017851D01*
X3033902Y3012144D01*
X3029295Y3006547D01*
X3024553Y3001063D01*
X3019681Y2995695D01*
X3014680Y2990447D01*
X3009553Y2985320D01*
X3004305Y2980319D01*
X2998937Y2975447D01*
X2993453Y2970705D01*
X2987856Y2966098D01*
X2982149Y2961627D01*
X2976336Y2957295D01*
X2970419Y2953105D01*
X2964404Y2949059D01*
X2958292Y2945160D01*
X2952088Y2941409D01*
X2945795Y2937810D01*
X2939417Y2934363D01*
X2932957Y2931072D01*
X2926420Y2927938D01*
X2919809Y2924962D01*
X2913128Y2922148D01*
X2906381Y2919495D01*
X2899572Y2917006D01*
X2892705Y2914683D01*
X2885784Y2912526D01*
X2878812Y2910537D01*
X2871795Y2908717D01*
X2864735Y2907068D01*
X2857638Y2905589D01*
X2850507Y2904282D01*
X2843347Y2903148D01*
X2836161Y2902187D01*
X2828954Y2901401D01*
X2821730Y2900788D01*
X2814494Y2900350D01*
X2807249Y2900088D01*
X2800000Y2900000D01*
X1500000Y2900000D01*
X1492751Y2900088D01*
X1485506Y2900350D01*
X1478270Y2900788D01*
X1471046Y2901401D01*
X1463839Y2902187D01*
X1456653Y2903148D01*
X1449493Y2904282D01*
X1442362Y2905589D01*
X1435265Y2907068D01*
X1428205Y2908717D01*
X1421188Y2910537D01*
X1414216Y2912526D01*
X1407295Y2914683D01*
X1400428Y2917006D01*
X1393619Y2919495D01*
X1386872Y2922148D01*
X1380191Y2924962D01*
X1373580Y2927938D01*
X1367043Y2931072D01*
X1360583Y2934363D01*
X1354205Y2937810D01*
X1347912Y2941409D01*
X1341708Y2945160D01*
X1335596Y2949059D01*
X1329581Y2953105D01*
X1323664Y2957295D01*
X1317851Y2961627D01*
X1312144Y2966098D01*
X1306547Y2970705D01*
X1301063Y2975447D01*
X1295695Y2980319D01*
X1290447Y2985320D01*
X1285320Y2990447D01*
X1280319Y2995695D01*
X1275447Y3001063D01*
X1270705Y3006547D01*
X1266098Y3012144D01*
X1261627Y3017851D01*
X1257295Y3023664D01*
X1253105Y3029581D01*
X1249059Y3035596D01*
X1245160Y3041708D01*
X1241409Y3047912D01*
X1237810Y3054205D01*
X1234363Y3060583D01*
X1231072Y3067043D01*
X1227938Y3073580D01*
X1224962Y3080191D01*
X1222148Y3086872D01*
X1219495Y3093619D01*
X1217006Y3100428D01*
X1214683Y3107295D01*
X1212526Y3114216D01*
X1210537Y3121188D01*
X1208717Y3128205D01*
X1207068Y3135265D01*
X1205589Y3142362D01*
X1204282Y3149493D01*
X1203148Y3156653D01*
X1202187Y3163839D01*
X1201401Y3171046D01*
X1200788Y3178270D01*
X1200350Y3185506D01*
X1200088Y3192751D01*
X1200000Y3200000D01*
X1200000Y4100000D01*
X1200088Y4107249D01*
X1200350Y4114494D01*
X1200788Y4121730D01*
X1201401Y4128954D01*
X1202187Y4136161D01*
X1203148Y4143347D01*
X1204282Y4150507D01*
X1205589Y4157638D01*
X1207068Y4164735D01*
X1208717Y4171795D01*
X1210537Y4178812D01*
X1212526Y4185784D01*
X1214683Y4192705D01*
X1217006Y4199572D01*
X1219495Y4206381D01*
X1222148Y4213128D01*
X1224962Y4219809D01*
X1227938Y4226420D01*
X1231072Y4232957D01*
X1234363Y4239417D01*
X1237810Y4245795D01*
X1241409Y4252088D01*
X1245160Y4258292D01*
X1249059Y4264404D01*
X1253105Y4270419D01*
X1257295Y4276336D01*
X1261627Y4282149D01*
X1266098Y4287856D01*
X1270705Y4293453D01*
X1275447Y4298937D01*
X1280319Y4304305D01*
X1285320Y4309553D01*
X1290447Y4314680D01*
X1295695Y4319681D01*
X1301063Y4324553D01*
X1306547Y4329295D01*
X1312144Y4333902D01*
X1317851Y4338373D01*
X1323664Y4342705D01*
X1329581Y4346895D01*
X1335596Y4350941D01*
X1341708Y4354840D01*
X1347912Y4358591D01*
X1354205Y4362190D01*
X1360583Y4365637D01*
X1367043Y4368928D01*
X1373580Y4372062D01*
X1380191Y4375038D01*
X1386872Y4377852D01*
X1393619Y4380505D01*
X1400428Y4382994D01*
X1407295Y4385317D01*
X1414216Y4387474D01*
X1421188Y4389463D01*
X1428205Y4391283D01*
X1435265Y4392932D01*
X1442362Y4394411D01*
X1449493Y4395718D01*
X1456653Y4396852D01*
X1463839Y4397813D01*
X1471046Y4398599D01*
X1478270Y4399212D01*
X1485506Y4399650D01*
X1492751Y4399912D01*
X1500000Y4400000D01*
X2800000Y4400000D01*
X2807249Y4399912D01*
X2814494Y4399650D01*
X2821730Y4399212D01*
X2828954Y4398599D01*
X2836161Y4397813D01*
X2843347Y4396852D01*
X2850507Y4395718D01*
X2857638Y4394411D01*
X2864735Y4392932D01*
X2871795Y4391283D01*
X2878812Y4389463D01*
X2885784Y4387474D01*
X2892705Y4385317D01*
X2899572Y4382994D01*
X2906381Y4380505D01*
X2913128Y4377852D01*
X2919809Y4375038D01*
X2926420Y4372062D01*
X2932957Y4368928D01*
X2939417Y4365637D01*
X2945795Y4362190D01*
X2952088Y4358591D01*
X2958292Y4354840D01*
X2964404Y4350941D01*
X2970419Y4346895D01*
X2976336Y4342705D01*
X2982149Y4338373D01*
X2987856Y4333902D01*
X2993453Y4329295D01*
X2998937Y4324553D01*
X3004305Y4319681D01*
X3009553Y4314680D01*
X3014680Y4309553D01*
X3019681Y4304305D01*
X3024553Y4298937D01*
X3029295Y4293453D01*
X3033902Y4287856D01*
X3038373Y4282149D01*
X3042705Y4276336D01*
X3046895Y4270419D01*
X3050941Y4264404D01*
X3054840Y4258292D01*
X3058591Y4252088D01*
X3062190Y4245795D01*
X3065637Y4239417D01*
X3068928Y4232957D01*
X3072062Y4226420D01*
X3075038Y4219809D01*
X3077852Y4213128D01*
X3080505Y4206381D01*
X3082994Y4199572D01*
X3085317Y4192705D01*
X3087474Y4185784D01*
X3089463Y4178812D01*
X3091283Y4171795D01*
X3092932Y4164735D01*
X3094411Y4157638D01*
X3095718Y4150507D01*
X3096852Y4143347D01*
X3097813Y4136161D01*
X3098599Y4128954D01*
X3099212Y4121730D01*
X3099650Y4114494D01*
X3099912Y4107249D01*
X3100000Y4100000D01*
D11*
X2094868Y2604191D02*
X2094868Y2588794D01*
X2094868Y2604191D02*
X2146190Y2604191D01*
X2146190Y2573397D01*
X2146184Y2572901D01*
X2146166Y2572405D01*
X2146136Y2571910D01*
X2146094Y2571416D01*
X2146040Y2570923D01*
X2145975Y2570431D01*
X2145897Y2569941D01*
X2145808Y2569453D01*
X2145706Y2568967D01*
X2145593Y2568484D01*
X2145469Y2568004D01*
X2145333Y2567527D01*
X2145185Y2567053D01*
X2145026Y2566583D01*
X2144856Y2566117D01*
X2144674Y2565656D01*
X2144482Y2565198D01*
X2144278Y2564746D01*
X2144064Y2564299D01*
X2143839Y2563857D01*
X2143603Y2563420D01*
X2143356Y2562990D01*
X2143100Y2562565D01*
X2142833Y2562147D01*
X2142556Y2561735D01*
X2142269Y2561330D01*
X2141973Y2560933D01*
X2141667Y2560542D01*
X2141352Y2560159D01*
X2141027Y2559784D01*
X2140694Y2559416D01*
X2140352Y2559057D01*
X2140001Y2558706D01*
X2139642Y2558364D01*
X2139274Y2558031D01*
X2138899Y2557706D01*
X2138516Y2557391D01*
X2138125Y2557085D01*
X2137728Y2556789D01*
X2137323Y2556502D01*
X2136911Y2556225D01*
X2136493Y2555958D01*
X2136068Y2555702D01*
X2135638Y2555455D01*
X2135201Y2555219D01*
X2134759Y2554994D01*
X2134312Y2554780D01*
X2133860Y2554576D01*
X2133402Y2554384D01*
X2132941Y2554202D01*
X2132475Y2554032D01*
X2132005Y2553873D01*
X2131531Y2553725D01*
X2131054Y2553589D01*
X2130574Y2553465D01*
X2130091Y2553352D01*
X2129605Y2553250D01*
X2129117Y2553161D01*
X2128627Y2553083D01*
X2128135Y2553018D01*
X2127642Y2552964D01*
X2127148Y2552922D01*
X2126653Y2552892D01*
X2126157Y2552874D01*
X2125661Y2552868D01*
X2074339Y2552868D01*
X2074339Y2552869D02*
X2073835Y2552875D01*
X2073332Y2552894D01*
X2072829Y2552925D01*
X2072327Y2552968D01*
X2071826Y2553023D01*
X2071327Y2553091D01*
X2070829Y2553171D01*
X2070334Y2553263D01*
X2069841Y2553368D01*
X2069351Y2553484D01*
X2068864Y2553613D01*
X2068380Y2553753D01*
X2067900Y2553905D01*
X2067423Y2554069D01*
X2066951Y2554245D01*
X2066483Y2554432D01*
X2066020Y2554630D01*
X2065562Y2554840D01*
X2065109Y2555061D01*
X2064662Y2555293D01*
X2064220Y2555536D01*
X2063785Y2555790D01*
X2063356Y2556054D01*
X2062934Y2556329D01*
X2062518Y2556614D01*
X2062110Y2556909D01*
X2061709Y2557214D01*
X2061316Y2557529D01*
X2060930Y2557853D01*
X2060553Y2558187D01*
X2060184Y2558530D01*
X2059823Y2558882D01*
X2059471Y2559242D01*
X2059128Y2559611D01*
X2058794Y2559989D01*
X2058470Y2560374D01*
X2058155Y2560768D01*
X2057850Y2561169D01*
X2057555Y2561577D01*
X2057270Y2561992D01*
X2056995Y2562415D01*
X2056731Y2562844D01*
X2056477Y2563279D01*
X2056234Y2563720D01*
X2056002Y2564168D01*
X2055781Y2564620D01*
X2055571Y2565078D01*
X2055373Y2565541D01*
X2055186Y2566009D01*
X2055010Y2566482D01*
X2054846Y2566958D01*
X2054694Y2567438D01*
X2054554Y2567922D01*
X2054425Y2568409D01*
X2054309Y2568900D01*
X2054205Y2569392D01*
X2054112Y2569888D01*
X2054032Y2570385D01*
X2053964Y2570884D01*
X2053909Y2571385D01*
X2053866Y2571887D01*
X2053835Y2572390D01*
X2053816Y2572894D01*
X2053810Y2573397D01*
X2053810Y2604191D01*
X2053810Y2648868D02*
X2146190Y2648868D01*
X2146190Y2700190D02*
X2053810Y2648868D01*
X2053810Y2700190D02*
X2146190Y2700190D01*
X2146190Y2744868D02*
X2053810Y2744868D01*
X2053810Y2770529D01*
X2053817Y2771149D01*
X2053840Y2771769D01*
X2053877Y2772388D01*
X2053930Y2773006D01*
X2053997Y2773622D01*
X2054079Y2774237D01*
X2054176Y2774849D01*
X2054288Y2775459D01*
X2054415Y2776066D01*
X2054556Y2776670D01*
X2054711Y2777270D01*
X2054881Y2777867D01*
X2055066Y2778459D01*
X2055265Y2779046D01*
X2055478Y2779629D01*
X2055704Y2780206D01*
X2055945Y2780777D01*
X2056200Y2781343D01*
X2056468Y2781902D01*
X2056749Y2782454D01*
X2057044Y2783000D01*
X2057352Y2783538D01*
X2057673Y2784069D01*
X2058006Y2784592D01*
X2058352Y2785106D01*
X2058711Y2785612D01*
X2059081Y2786109D01*
X2059464Y2786598D01*
X2059858Y2787076D01*
X2060263Y2787545D01*
X2060680Y2788005D01*
X2061108Y2788454D01*
X2061546Y2788892D01*
X2061995Y2789320D01*
X2062455Y2789737D01*
X2062924Y2790142D01*
X2063402Y2790536D01*
X2063891Y2790919D01*
X2064388Y2791289D01*
X2064894Y2791648D01*
X2065408Y2791994D01*
X2065931Y2792327D01*
X2066462Y2792648D01*
X2067000Y2792956D01*
X2067546Y2793251D01*
X2068098Y2793532D01*
X2068657Y2793800D01*
X2069223Y2794055D01*
X2069794Y2794296D01*
X2070371Y2794522D01*
X2070954Y2794735D01*
X2071541Y2794934D01*
X2072133Y2795119D01*
X2072730Y2795289D01*
X2073330Y2795444D01*
X2073934Y2795585D01*
X2074541Y2795712D01*
X2075151Y2795824D01*
X2075763Y2795921D01*
X2076378Y2796003D01*
X2076994Y2796070D01*
X2077612Y2796123D01*
X2078231Y2796160D01*
X2078851Y2796183D01*
X2079471Y2796190D01*
X2120529Y2796190D01*
X2121149Y2796183D01*
X2121769Y2796160D01*
X2122388Y2796123D01*
X2123006Y2796070D01*
X2123622Y2796003D01*
X2124237Y2795921D01*
X2124849Y2795824D01*
X2125459Y2795712D01*
X2126066Y2795585D01*
X2126670Y2795444D01*
X2127270Y2795289D01*
X2127867Y2795119D01*
X2128459Y2794934D01*
X2129046Y2794735D01*
X2129629Y2794522D01*
X2130206Y2794296D01*
X2130777Y2794055D01*
X2131343Y2793800D01*
X2131902Y2793532D01*
X2132454Y2793251D01*
X2133000Y2792956D01*
X2133538Y2792648D01*
X2134069Y2792327D01*
X2134592Y2791994D01*
X2135106Y2791648D01*
X2135612Y2791289D01*
X2136110Y2790919D01*
X2136598Y2790536D01*
X2137076Y2790142D01*
X2137545Y2789736D01*
X2138005Y2789320D01*
X2138454Y2788892D01*
X2138892Y2788453D01*
X2139320Y2788004D01*
X2139737Y2787545D01*
X2140142Y2787076D01*
X2140536Y2786597D01*
X2140919Y2786109D01*
X2141289Y2785612D01*
X2141648Y2785106D01*
X2141994Y2784591D01*
X2142327Y2784069D01*
X2142648Y2783538D01*
X2142956Y2783000D01*
X2143251Y2782454D01*
X2143532Y2781902D01*
X2143800Y2781342D01*
X2144055Y2780777D01*
X2144296Y2780205D01*
X2144523Y2779628D01*
X2144735Y2779046D01*
X2144934Y2778458D01*
X2145119Y2777866D01*
X2145289Y2777270D01*
X2145444Y2776670D01*
X2145586Y2776066D01*
X2145712Y2775459D01*
X2145824Y2774849D01*
X2145921Y2774236D01*
X2146003Y2773622D01*
X2146070Y2773005D01*
X2146123Y2772387D01*
X2146160Y2771768D01*
X2146183Y2771149D01*
X2146190Y2770529D01*
X2146190Y2744868D01*
X904191Y3805132D02*
X888794Y3805132D01*
X904191Y3805132D02*
X904191Y3753810D01*
X873397Y3753810D01*
X872901Y3753816D01*
X872405Y3753834D01*
X871910Y3753864D01*
X871416Y3753906D01*
X870923Y3753960D01*
X870431Y3754025D01*
X869941Y3754103D01*
X869453Y3754192D01*
X868967Y3754294D01*
X868484Y3754407D01*
X868004Y3754531D01*
X867527Y3754667D01*
X867053Y3754815D01*
X866583Y3754974D01*
X866117Y3755144D01*
X865656Y3755326D01*
X865198Y3755518D01*
X864746Y3755722D01*
X864299Y3755936D01*
X863857Y3756161D01*
X863420Y3756397D01*
X862990Y3756644D01*
X862565Y3756900D01*
X862147Y3757167D01*
X861735Y3757444D01*
X861330Y3757731D01*
X860933Y3758027D01*
X860542Y3758333D01*
X860159Y3758648D01*
X859784Y3758973D01*
X859416Y3759306D01*
X859057Y3759648D01*
X858706Y3759999D01*
X858364Y3760358D01*
X858031Y3760726D01*
X857706Y3761101D01*
X857391Y3761484D01*
X857085Y3761875D01*
X856789Y3762272D01*
X856502Y3762677D01*
X856225Y3763089D01*
X855958Y3763507D01*
X855702Y3763932D01*
X855455Y3764362D01*
X855219Y3764799D01*
X854994Y3765241D01*
X854780Y3765688D01*
X854576Y3766140D01*
X854384Y3766598D01*
X854202Y3767059D01*
X854032Y3767525D01*
X853873Y3767995D01*
X853725Y3768469D01*
X853589Y3768946D01*
X853465Y3769426D01*
X853352Y3769909D01*
X853250Y3770395D01*
X853161Y3770883D01*
X853083Y3771373D01*
X853018Y3771865D01*
X852964Y3772358D01*
X852922Y3772852D01*
X852892Y3773347D01*
X852874Y3773843D01*
X852868Y3774339D01*
X852868Y3825661D01*
X852869Y3825661D02*
X852875Y3826165D01*
X852894Y3826668D01*
X852925Y3827171D01*
X852968Y3827673D01*
X853023Y3828174D01*
X853091Y3828673D01*
X853171Y3829171D01*
X853263Y3829666D01*
X853368Y3830159D01*
X853484Y3830649D01*
X853613Y3831136D01*
X853753Y3831620D01*
X853905Y3832101D01*
X854069Y3832577D01*
X854245Y3833049D01*
X854432Y3833517D01*
X854630Y3833980D01*
X854840Y3834438D01*
X855061Y3834891D01*
X855293Y3835338D01*
X855536Y3835780D01*
X855790Y3836215D01*
X856054Y3836644D01*
X856329Y3837066D01*
X856614Y3837482D01*
X856909Y3837890D01*
X857214Y3838291D01*
X857529Y3838684D01*
X857853Y3839070D01*
X858187Y3839447D01*
X858530Y3839816D01*
X858882Y3840177D01*
X859242Y3840529D01*
X859611Y3840872D01*
X859989Y3841206D01*
X860374Y3841530D01*
X860768Y3841845D01*
X861169Y3842150D01*
X861577Y3842445D01*
X861993Y3842730D01*
X862415Y3843005D01*
X862844Y3843269D01*
X863279Y3843523D01*
X863721Y3843766D01*
X864168Y3843998D01*
X864621Y3844219D01*
X865079Y3844429D01*
X865542Y3844627D01*
X866009Y3844814D01*
X866482Y3844990D01*
X866958Y3845154D01*
X867439Y3845306D01*
X867922Y3845446D01*
X868410Y3845575D01*
X868900Y3845691D01*
X869393Y3845795D01*
X869888Y3845888D01*
X870385Y3845968D01*
X870885Y3846036D01*
X871386Y3846091D01*
X871887Y3846134D01*
X872390Y3846165D01*
X872894Y3846184D01*
X873398Y3846190D01*
X873397Y3846190D02*
X904191Y3846190D01*
X948868Y3846190D02*
X948868Y3753810D01*
X1000190Y3753810D02*
X948868Y3846190D01*
X1000190Y3846190D02*
X1000190Y3753810D01*
X1044868Y3753810D02*
X1044868Y3846190D01*
X1070529Y3846190D01*
X1071149Y3846183D01*
X1071769Y3846160D01*
X1072388Y3846123D01*
X1073006Y3846070D01*
X1073622Y3846003D01*
X1074237Y3845921D01*
X1074849Y3845824D01*
X1075459Y3845712D01*
X1076066Y3845585D01*
X1076670Y3845444D01*
X1077270Y3845289D01*
X1077867Y3845119D01*
X1078459Y3844934D01*
X1079046Y3844735D01*
X1079629Y3844522D01*
X1080206Y3844296D01*
X1080777Y3844055D01*
X1081343Y3843800D01*
X1081902Y3843532D01*
X1082454Y3843251D01*
X1083000Y3842956D01*
X1083538Y3842648D01*
X1084069Y3842327D01*
X1084592Y3841994D01*
X1085106Y3841648D01*
X1085612Y3841289D01*
X1086109Y3840919D01*
X1086598Y3840536D01*
X1087076Y3840142D01*
X1087545Y3839737D01*
X1088005Y3839320D01*
X1088454Y3838892D01*
X1088892Y3838454D01*
X1089320Y3838005D01*
X1089737Y3837545D01*
X1090142Y3837076D01*
X1090536Y3836598D01*
X1090919Y3836109D01*
X1091289Y3835612D01*
X1091648Y3835106D01*
X1091994Y3834592D01*
X1092327Y3834069D01*
X1092648Y3833538D01*
X1092956Y3833000D01*
X1093251Y3832454D01*
X1093532Y3831902D01*
X1093800Y3831343D01*
X1094055Y3830777D01*
X1094296Y3830206D01*
X1094522Y3829629D01*
X1094735Y3829046D01*
X1094934Y3828459D01*
X1095119Y3827867D01*
X1095289Y3827270D01*
X1095444Y3826670D01*
X1095585Y3826066D01*
X1095712Y3825459D01*
X1095824Y3824849D01*
X1095921Y3824237D01*
X1096003Y3823622D01*
X1096070Y3823006D01*
X1096123Y3822388D01*
X1096160Y3821769D01*
X1096183Y3821149D01*
X1096190Y3820529D01*
X1096190Y3779471D01*
X1096183Y3778851D01*
X1096160Y3778231D01*
X1096123Y3777612D01*
X1096070Y3776994D01*
X1096003Y3776378D01*
X1095921Y3775763D01*
X1095824Y3775151D01*
X1095712Y3774541D01*
X1095585Y3773934D01*
X1095444Y3773330D01*
X1095289Y3772730D01*
X1095119Y3772133D01*
X1094934Y3771541D01*
X1094735Y3770954D01*
X1094522Y3770371D01*
X1094296Y3769794D01*
X1094055Y3769223D01*
X1093800Y3768657D01*
X1093532Y3768098D01*
X1093251Y3767546D01*
X1092956Y3767000D01*
X1092648Y3766462D01*
X1092327Y3765931D01*
X1091994Y3765408D01*
X1091648Y3764894D01*
X1091289Y3764388D01*
X1090919Y3763890D01*
X1090536Y3763402D01*
X1090142Y3762924D01*
X1089736Y3762455D01*
X1089320Y3761995D01*
X1088892Y3761546D01*
X1088453Y3761108D01*
X1088004Y3760680D01*
X1087545Y3760263D01*
X1087076Y3759858D01*
X1086597Y3759464D01*
X1086109Y3759081D01*
X1085612Y3758711D01*
X1085106Y3758352D01*
X1084591Y3758006D01*
X1084069Y3757673D01*
X1083538Y3757352D01*
X1083000Y3757044D01*
X1082454Y3756749D01*
X1081902Y3756468D01*
X1081342Y3756200D01*
X1080777Y3755945D01*
X1080205Y3755704D01*
X1079628Y3755477D01*
X1079046Y3755265D01*
X1078458Y3755066D01*
X1077866Y3754881D01*
X1077270Y3754711D01*
X1076670Y3754556D01*
X1076066Y3754414D01*
X1075459Y3754288D01*
X1074849Y3754176D01*
X1074236Y3754079D01*
X1073622Y3753997D01*
X1073005Y3753930D01*
X1072387Y3753877D01*
X1071768Y3753840D01*
X1071149Y3753817D01*
X1070529Y3753810D01*
X1044868Y3753810D01*
X3239735Y3405132D02*
X3255132Y3405132D01*
X3255132Y3353810D01*
X3224339Y3353810D01*
X3223843Y3353816D01*
X3223347Y3353834D01*
X3222852Y3353864D01*
X3222358Y3353906D01*
X3221865Y3353960D01*
X3221373Y3354025D01*
X3220883Y3354103D01*
X3220395Y3354192D01*
X3219909Y3354294D01*
X3219426Y3354407D01*
X3218946Y3354531D01*
X3218469Y3354667D01*
X3217995Y3354815D01*
X3217525Y3354974D01*
X3217059Y3355144D01*
X3216598Y3355326D01*
X3216140Y3355518D01*
X3215688Y3355722D01*
X3215241Y3355936D01*
X3214799Y3356161D01*
X3214362Y3356397D01*
X3213932Y3356644D01*
X3213507Y3356900D01*
X3213089Y3357167D01*
X3212677Y3357444D01*
X3212272Y3357731D01*
X3211875Y3358027D01*
X3211484Y3358333D01*
X3211101Y3358648D01*
X3210726Y3358973D01*
X3210358Y3359306D01*
X3209999Y3359648D01*
X3209648Y3359999D01*
X3209306Y3360358D01*
X3208973Y3360726D01*
X3208648Y3361101D01*
X3208333Y3361484D01*
X3208027Y3361875D01*
X3207731Y3362272D01*
X3207444Y3362677D01*
X3207167Y3363089D01*
X3206900Y3363507D01*
X3206644Y3363932D01*
X3206397Y3364362D01*
X3206161Y3364799D01*
X3205936Y3365241D01*
X3205722Y3365688D01*
X3205518Y3366140D01*
X3205326Y3366598D01*
X3205144Y3367059D01*
X3204974Y3367525D01*
X3204815Y3367995D01*
X3204667Y3368469D01*
X3204531Y3368946D01*
X3204407Y3369426D01*
X3204294Y3369909D01*
X3204192Y3370395D01*
X3204103Y3370883D01*
X3204025Y3371373D01*
X3203960Y3371865D01*
X3203906Y3372358D01*
X3203864Y3372852D01*
X3203834Y3373347D01*
X3203816Y3373843D01*
X3203810Y3374339D01*
X3203810Y3425661D01*
X3203816Y3426165D01*
X3203835Y3426668D01*
X3203866Y3427171D01*
X3203909Y3427673D01*
X3203964Y3428174D01*
X3204032Y3428673D01*
X3204112Y3429171D01*
X3204204Y3429666D01*
X3204309Y3430159D01*
X3204425Y3430649D01*
X3204554Y3431136D01*
X3204694Y3431620D01*
X3204846Y3432101D01*
X3205010Y3432577D01*
X3205186Y3433049D01*
X3205373Y3433517D01*
X3205571Y3433980D01*
X3205781Y3434438D01*
X3206002Y3434891D01*
X3206234Y3435338D01*
X3206477Y3435780D01*
X3206731Y3436215D01*
X3206995Y3436644D01*
X3207270Y3437066D01*
X3207555Y3437482D01*
X3207850Y3437890D01*
X3208155Y3438291D01*
X3208470Y3438684D01*
X3208794Y3439070D01*
X3209128Y3439447D01*
X3209471Y3439816D01*
X3209823Y3440177D01*
X3210183Y3440529D01*
X3210552Y3440872D01*
X3210930Y3441206D01*
X3211315Y3441530D01*
X3211709Y3441845D01*
X3212110Y3442150D01*
X3212518Y3442445D01*
X3212934Y3442730D01*
X3213356Y3443005D01*
X3213785Y3443269D01*
X3214220Y3443523D01*
X3214662Y3443766D01*
X3215109Y3443998D01*
X3215562Y3444219D01*
X3216020Y3444429D01*
X3216483Y3444627D01*
X3216950Y3444814D01*
X3217423Y3444990D01*
X3217899Y3445154D01*
X3218380Y3445306D01*
X3218863Y3445446D01*
X3219351Y3445575D01*
X3219841Y3445691D01*
X3220334Y3445795D01*
X3220829Y3445888D01*
X3221326Y3445968D01*
X3221826Y3446036D01*
X3222327Y3446091D01*
X3222828Y3446134D01*
X3223331Y3446165D01*
X3223835Y3446184D01*
X3224339Y3446190D01*
X3255132Y3446190D01*
X3299810Y3446190D02*
X3299810Y3353810D01*
X3351132Y3353810D02*
X3299810Y3446190D01*
X3351132Y3446190D02*
X3351132Y3353810D01*
X3395809Y3353810D02*
X3395809Y3446190D01*
X3421470Y3446190D01*
X3422090Y3446183D01*
X3422710Y3446160D01*
X3423329Y3446123D01*
X3423947Y3446070D01*
X3424563Y3446003D01*
X3425178Y3445921D01*
X3425790Y3445824D01*
X3426400Y3445712D01*
X3427007Y3445585D01*
X3427611Y3445444D01*
X3428211Y3445289D01*
X3428808Y3445119D01*
X3429400Y3444934D01*
X3429987Y3444735D01*
X3430570Y3444522D01*
X3431147Y3444296D01*
X3431718Y3444055D01*
X3432284Y3443800D01*
X3432843Y3443532D01*
X3433395Y3443251D01*
X3433941Y3442956D01*
X3434479Y3442648D01*
X3435010Y3442327D01*
X3435533Y3441994D01*
X3436047Y3441648D01*
X3436553Y3441289D01*
X3437050Y3440919D01*
X3437539Y3440536D01*
X3438017Y3440142D01*
X3438486Y3439737D01*
X3438946Y3439320D01*
X3439395Y3438892D01*
X3439833Y3438454D01*
X3440261Y3438005D01*
X3440678Y3437545D01*
X3441083Y3437076D01*
X3441477Y3436598D01*
X3441860Y3436109D01*
X3442230Y3435612D01*
X3442589Y3435106D01*
X3442935Y3434592D01*
X3443268Y3434069D01*
X3443589Y3433538D01*
X3443897Y3433000D01*
X3444192Y3432454D01*
X3444473Y3431902D01*
X3444741Y3431343D01*
X3444996Y3430777D01*
X3445237Y3430206D01*
X3445463Y3429629D01*
X3445676Y3429046D01*
X3445875Y3428459D01*
X3446060Y3427867D01*
X3446230Y3427270D01*
X3446385Y3426670D01*
X3446526Y3426066D01*
X3446653Y3425459D01*
X3446765Y3424849D01*
X3446862Y3424237D01*
X3446944Y3423622D01*
X3447011Y3423006D01*
X3447064Y3422388D01*
X3447101Y3421769D01*
X3447124Y3421149D01*
X3447131Y3420529D01*
X3447132Y3420529D02*
X3447132Y3379471D01*
X3447125Y3378851D01*
X3447102Y3378231D01*
X3447065Y3377612D01*
X3447012Y3376994D01*
X3446945Y3376378D01*
X3446863Y3375763D01*
X3446766Y3375151D01*
X3446654Y3374541D01*
X3446527Y3373934D01*
X3446386Y3373330D01*
X3446231Y3372730D01*
X3446061Y3372133D01*
X3445876Y3371541D01*
X3445677Y3370954D01*
X3445464Y3370371D01*
X3445238Y3369794D01*
X3444997Y3369223D01*
X3444742Y3368657D01*
X3444474Y3368098D01*
X3444193Y3367546D01*
X3443898Y3367000D01*
X3443590Y3366462D01*
X3443269Y3365931D01*
X3442936Y3365408D01*
X3442590Y3364894D01*
X3442231Y3364388D01*
X3441861Y3363890D01*
X3441478Y3363402D01*
X3441084Y3362924D01*
X3440678Y3362455D01*
X3440262Y3361995D01*
X3439834Y3361546D01*
X3439395Y3361108D01*
X3438946Y3360680D01*
X3438487Y3360263D01*
X3438018Y3359858D01*
X3437539Y3359464D01*
X3437051Y3359081D01*
X3436554Y3358711D01*
X3436048Y3358352D01*
X3435533Y3358006D01*
X3435011Y3357673D01*
X3434480Y3357352D01*
X3433942Y3357044D01*
X3433396Y3356749D01*
X3432844Y3356468D01*
X3432284Y3356200D01*
X3431719Y3355945D01*
X3431147Y3355704D01*
X3430570Y3355477D01*
X3429988Y3355265D01*
X3429400Y3355066D01*
X3428808Y3354881D01*
X3428212Y3354711D01*
X3427612Y3354556D01*
X3427008Y3354414D01*
X3426401Y3354288D01*
X3425791Y3354176D01*
X3425178Y3354079D01*
X3424564Y3353997D01*
X3423947Y3353930D01*
X3423329Y3353877D01*
X3422710Y3353840D01*
X3422091Y3353817D01*
X3421471Y3353810D01*
X3421470Y3353810D02*
X3395809Y3353810D01*
X2294868Y4539735D02*
X2294868Y4555132D01*
X2346190Y4555132D01*
X2346190Y4524339D01*
X2346184Y4523843D01*
X2346166Y4523347D01*
X2346136Y4522852D01*
X2346094Y4522358D01*
X2346040Y4521865D01*
X2345975Y4521373D01*
X2345897Y4520883D01*
X2345808Y4520395D01*
X2345706Y4519909D01*
X2345593Y4519426D01*
X2345469Y4518946D01*
X2345333Y4518469D01*
X2345185Y4517995D01*
X2345026Y4517525D01*
X2344856Y4517059D01*
X2344674Y4516598D01*
X2344482Y4516140D01*
X2344278Y4515688D01*
X2344064Y4515241D01*
X2343839Y4514799D01*
X2343603Y4514362D01*
X2343356Y4513932D01*
X2343100Y4513507D01*
X2342833Y4513089D01*
X2342556Y4512677D01*
X2342269Y4512272D01*
X2341973Y4511875D01*
X2341667Y4511484D01*
X2341352Y4511101D01*
X2341027Y4510726D01*
X2340694Y4510358D01*
X2340352Y4509999D01*
X2340001Y4509648D01*
X2339642Y4509306D01*
X2339274Y4508973D01*
X2338899Y4508648D01*
X2338516Y4508333D01*
X2338125Y4508027D01*
X2337728Y4507731D01*
X2337323Y4507444D01*
X2336911Y4507167D01*
X2336493Y4506900D01*
X2336068Y4506644D01*
X2335638Y4506397D01*
X2335201Y4506161D01*
X2334759Y4505936D01*
X2334312Y4505722D01*
X2333860Y4505518D01*
X2333402Y4505326D01*
X2332941Y4505144D01*
X2332475Y4504974D01*
X2332005Y4504815D01*
X2331531Y4504667D01*
X2331054Y4504531D01*
X2330574Y4504407D01*
X2330091Y4504294D01*
X2329605Y4504192D01*
X2329117Y4504103D01*
X2328627Y4504025D01*
X2328135Y4503960D01*
X2327642Y4503906D01*
X2327148Y4503864D01*
X2326653Y4503834D01*
X2326157Y4503816D01*
X2325661Y4503810D01*
X2274339Y4503810D01*
X2273835Y4503816D01*
X2273332Y4503835D01*
X2272829Y4503866D01*
X2272327Y4503909D01*
X2271826Y4503964D01*
X2271327Y4504032D01*
X2270829Y4504112D01*
X2270334Y4504204D01*
X2269841Y4504309D01*
X2269351Y4504425D01*
X2268864Y4504554D01*
X2268380Y4504694D01*
X2267900Y4504846D01*
X2267423Y4505010D01*
X2266951Y4505186D01*
X2266483Y4505373D01*
X2266020Y4505571D01*
X2265562Y4505781D01*
X2265109Y4506002D01*
X2264662Y4506234D01*
X2264220Y4506477D01*
X2263785Y4506731D01*
X2263356Y4506995D01*
X2262934Y4507270D01*
X2262518Y4507555D01*
X2262110Y4507850D01*
X2261709Y4508155D01*
X2261316Y4508470D01*
X2260930Y4508794D01*
X2260553Y4509128D01*
X2260184Y4509471D01*
X2259823Y4509823D01*
X2259471Y4510183D01*
X2259128Y4510552D01*
X2258794Y4510930D01*
X2258470Y4511315D01*
X2258155Y4511709D01*
X2257850Y4512110D01*
X2257555Y4512518D01*
X2257270Y4512933D01*
X2256995Y4513356D01*
X2256731Y4513785D01*
X2256477Y4514220D01*
X2256234Y4514661D01*
X2256002Y4515109D01*
X2255781Y4515561D01*
X2255571Y4516019D01*
X2255373Y4516482D01*
X2255186Y4516950D01*
X2255010Y4517423D01*
X2254846Y4517899D01*
X2254694Y4518379D01*
X2254554Y4518863D01*
X2254425Y4519350D01*
X2254309Y4519841D01*
X2254205Y4520333D01*
X2254112Y4520829D01*
X2254032Y4521326D01*
X2253964Y4521825D01*
X2253909Y4522326D01*
X2253866Y4522828D01*
X2253835Y4523331D01*
X2253816Y4523835D01*
X2253810Y4524338D01*
X2253810Y4524339D02*
X2253810Y4555132D01*
X2253810Y4599810D02*
X2346190Y4599810D01*
X2346190Y4651132D02*
X2253810Y4599810D01*
X2253810Y4651132D02*
X2346190Y4651132D01*
X2346190Y4695809D02*
X2253810Y4695809D01*
X2253810Y4721470D01*
X2253817Y4722090D01*
X2253840Y4722710D01*
X2253877Y4723329D01*
X2253930Y4723947D01*
X2253997Y4724563D01*
X2254079Y4725178D01*
X2254176Y4725790D01*
X2254288Y4726400D01*
X2254415Y4727007D01*
X2254556Y4727611D01*
X2254711Y4728211D01*
X2254881Y4728808D01*
X2255066Y4729400D01*
X2255265Y4729987D01*
X2255478Y4730570D01*
X2255704Y4731147D01*
X2255945Y4731718D01*
X2256200Y4732284D01*
X2256468Y4732843D01*
X2256749Y4733395D01*
X2257044Y4733941D01*
X2257352Y4734479D01*
X2257673Y4735010D01*
X2258006Y4735533D01*
X2258352Y4736047D01*
X2258711Y4736553D01*
X2259081Y4737050D01*
X2259464Y4737539D01*
X2259858Y4738017D01*
X2260263Y4738486D01*
X2260680Y4738946D01*
X2261108Y4739395D01*
X2261546Y4739833D01*
X2261995Y4740261D01*
X2262455Y4740678D01*
X2262924Y4741083D01*
X2263402Y4741477D01*
X2263891Y4741860D01*
X2264388Y4742230D01*
X2264894Y4742589D01*
X2265408Y4742935D01*
X2265931Y4743268D01*
X2266462Y4743589D01*
X2267000Y4743897D01*
X2267546Y4744192D01*
X2268098Y4744473D01*
X2268657Y4744741D01*
X2269223Y4744996D01*
X2269794Y4745237D01*
X2270371Y4745463D01*
X2270954Y4745676D01*
X2271541Y4745875D01*
X2272133Y4746060D01*
X2272730Y4746230D01*
X2273330Y4746385D01*
X2273934Y4746526D01*
X2274541Y4746653D01*
X2275151Y4746765D01*
X2275763Y4746862D01*
X2276378Y4746944D01*
X2276994Y4747011D01*
X2277612Y4747064D01*
X2278231Y4747101D01*
X2278851Y4747124D01*
X2279471Y4747131D01*
X2279471Y4747132D02*
X2320529Y4747132D01*
X2321149Y4747125D01*
X2321769Y4747102D01*
X2322388Y4747065D01*
X2323006Y4747012D01*
X2323622Y4746945D01*
X2324237Y4746863D01*
X2324849Y4746766D01*
X2325459Y4746654D01*
X2326066Y4746527D01*
X2326670Y4746386D01*
X2327270Y4746231D01*
X2327867Y4746061D01*
X2328459Y4745876D01*
X2329046Y4745677D01*
X2329629Y4745464D01*
X2330206Y4745238D01*
X2330777Y4744997D01*
X2331343Y4744742D01*
X2331902Y4744474D01*
X2332454Y4744193D01*
X2333000Y4743898D01*
X2333538Y4743590D01*
X2334069Y4743269D01*
X2334592Y4742936D01*
X2335106Y4742590D01*
X2335612Y4742231D01*
X2336110Y4741861D01*
X2336598Y4741478D01*
X2337076Y4741084D01*
X2337545Y4740678D01*
X2338005Y4740262D01*
X2338454Y4739834D01*
X2338892Y4739395D01*
X2339320Y4738946D01*
X2339737Y4738487D01*
X2340142Y4738018D01*
X2340536Y4737539D01*
X2340919Y4737051D01*
X2341289Y4736554D01*
X2341648Y4736048D01*
X2341994Y4735533D01*
X2342327Y4735011D01*
X2342648Y4734480D01*
X2342956Y4733942D01*
X2343251Y4733396D01*
X2343532Y4732844D01*
X2343800Y4732284D01*
X2344055Y4731719D01*
X2344296Y4731147D01*
X2344523Y4730570D01*
X2344735Y4729988D01*
X2344934Y4729400D01*
X2345119Y4728808D01*
X2345289Y4728212D01*
X2345444Y4727612D01*
X2345586Y4727008D01*
X2345712Y4726401D01*
X2345824Y4725791D01*
X2345921Y4725178D01*
X2346003Y4724564D01*
X2346070Y4723947D01*
X2346123Y4723329D01*
X2346160Y4722710D01*
X2346183Y4722091D01*
X2346190Y4721471D01*
X2346190Y4721470D02*
X2346190Y4695809D01*
D12*
X2050000Y3365000D03*
X2100000Y3365000D03*
X1950000Y3365000D03*
X2000000Y3365000D03*
D13*
X1865000Y3425000D03*
X1865000Y3475000D03*
X1865000Y3525000D03*
X1865000Y3575000D03*
X2185000Y3425000D03*
X2185000Y3475000D03*
X2185000Y3525000D03*
X2185000Y3575000D03*
D14*
X2025000Y3581500D03*
D15*
X1975000Y3599000D03*
D16*
X1892500Y3550000D03*
D15*
X2075000Y3599000D03*
D16*
X2157500Y3550500D03*
D17*
X1906500Y3925000D03*
X2143500Y3925000D03*
D18*
X1524000Y4064000D03*
X1524000Y3302000D03*
X2794000Y4064000D03*
D19*
X1775000Y3200000D03*
X2250000Y3175000D03*
X1525000Y3650000D03*
D20*
X1750000Y3475000D03*
D21*
X1865000Y3475000D01*
D22*
X1750000Y3475000D02*
X1700000Y3475000D01*
X1525000Y3650000D01*
D20*
X2025000Y3475000D03*
D23*
X2025000Y3581500D01*
D21*
X2100000Y3475000D02*
X2185000Y3475000D01*
X2100000Y3475000D02*
X2025000Y3475000D01*
X1962255Y3475000D01*
D20*
X2375000Y4000000D03*
X2575000Y4000000D03*
X2025000Y4050000D03*
X2025000Y3800000D03*
D22*
X2100000Y3475000D02*
X2100000Y3365000D01*
D23*
X2025000Y3581500D02*
X2025000Y3800000D01*
X1950000Y3365000D02*
X1950000Y3300000D01*
X1850000Y3200000D01*
X1775000Y3200000D01*
D20*
X1975000Y3150000D03*
D23*
X2000000Y3175000D02*
X2000000Y3365000D01*
X2000000Y3175000D02*
X1975000Y3150000D01*
D22*
X2225000Y3150000D01*
X2250000Y3175000D01*
D20*
X2125000Y3250000D03*
D23*
X2075000Y3250000D01*
X2050000Y3275000D01*
D21*
X2050000Y3365000D01*
X1975000Y3599000D02*
X1975000Y3731500D01*
X1915750Y3790750D01*
D22*
X1906500Y3790750D02*
X1906500Y3925000D01*
X1906500Y3790750D02*
X1915750Y3790750D01*
D21*
X2075000Y3731500D02*
X2075000Y3599000D01*
X2075000Y3731500D02*
X2143500Y3800000D01*
D22*
X2143500Y3925000D01*
D20*
X1750000Y3600000D03*
D23*
X1865000Y3525000D02*
X1892500Y3525000D01*
X1892500Y3550000D01*
X1892500Y3575000D02*
X1865000Y3575000D01*
X1892500Y3575000D02*
X1892500Y3550000D01*
D24*
X1800000Y3550000D02*
X1750000Y3600000D01*
X1800000Y3550000D02*
X1892500Y3550000D01*
D20*
X1750000Y3675000D03*
X1750000Y3750000D03*
D25*
X1750000Y3600000D01*
D20*
X2300000Y3600000D03*
X2300000Y3375000D03*
D23*
X2300000Y3425000D01*
X2185000Y3425000D01*
X2185000Y3525000D02*
X2207500Y3547500D01*
X2207500Y3550500D01*
X2157500Y3550500D01*
X2185000Y3575000D02*
X2209500Y3550500D01*
X2157500Y3550500D01*
D24*
X2300000Y3550500D01*
X2300000Y3600000D01*
D20*
X2300000Y3675000D03*
X2300000Y3750000D03*
D26*
X2300000Y3751000D02*
X2300000Y3600000D01*
X2300000Y3375000D01*
X2300000Y3750000D02*
X2480000Y3750000D01*
X2794000Y4064000D01*
M02*
