M48
;GenerationSoftware,Autodesk,EAGLE,9.6.2*%
;CreationDate,2022-12-16T09:46:32Z*%
FMAT,2
ICI,OFF
METRIC,TZ,000.00000
T6C0.35000
T5C0.60000
T4C0.99060
T3C1.01600
T2C1.32080
T1C2.50000
%
G90
M71
T1
X300000Y3200000
X3200000Y3200000
X3200000Y300000
X300000Y300000
T2
X575000Y2825000
X1225000Y2825000
T3
X773000Y3125000
X1877000Y3125000
X1623000Y3125000
X1027000Y3125000
T4
X551600Y1492000
X450000Y2000000
X348400Y1492000
T5
X2286000Y3175000
X2540000Y3175000
X2794000Y3175000
T6
X2250000Y100000
X2750000Y100000
X1250000Y100000
X750000Y100000
X3400000Y1250000
X3400000Y750000
X3400000Y2250000
X3400000Y2750000
X1750000Y3400000
X2250000Y3400000
X2750000Y3400000
X1250000Y3400000
X750000Y3400000
X2300000Y2000000
X1450000Y2100000
X1750000Y2775000
X1875000Y2775000
X1051000Y2744000
X386500Y1873000
X950000Y2237500
X2250000Y1200000
X1875000Y2525000
X3400000Y1750000
X1275000Y2025000
X514000Y1873000
X386000Y1746000
X1850000Y2050000
X514000Y1746000
X825000Y1875000
X1725000Y1900000
X1650000Y850000
X1775000Y2250000
X1550000Y2250000
X1880000Y1315500
X2550000Y2200000
X2400000Y1175000
X2025000Y2500000
X1750000Y2050000
X1150000Y2050000
X2325000Y1700000
X2850000Y1550000
X386000Y1619000
X1400000Y850000
X2750000Y1050000
X2950000Y2200000
X2550000Y2450000
X2550000Y800000
X2950000Y1950000
X1750000Y2525000
X950000Y2000000
X2075000Y2000000
X1400000Y550000
X1450000Y2025000
X100000Y1750000
X100000Y1250000
X100000Y750000
X100000Y2250000
X100000Y2750000
X1750000Y100000
X776000Y2744000
M30