G04 EAGLE Gerber RS-274X export*
G75*
%MOMM*%
%FSLAX35Y35*%
%LPD*%
%INcopper_bottom*%
%IPPOS*%
%AMOC8*
5,1,8,0,0,1.08239X$1,22.5*%
G01*
%ADD10C,0.000000*%
%ADD11R,0.700000X0.900000*%
%ADD12R,0.900000X0.700000*%
%ADD13R,1.310000X0.940000*%
%ADD14R,1.310000X0.550000*%
%ADD15R,1.300000X1.500000*%
%ADD16R,0.650000X0.300000*%
%ADD17R,0.700000X0.600000*%
%ADD18C,1.016000*%
%ADD19P,2.336880X8X22.500000*%
%ADD20C,1.524000*%
%ADD21C,3.516000*%
%ADD22C,0.650000*%
%ADD23C,0.250000*%
%ADD24C,0.500000*%

G36*
X299815Y50004D02*
X299815Y50004D01*
X299851Y50001D01*
X322030Y50176D01*
X322383Y50137D01*
X322627Y50064D01*
X322945Y50074D01*
X323608Y50000D01*
X699721Y50000D01*
X700429Y50116D01*
X701145Y50135D01*
X701635Y50314D01*
X702150Y50398D01*
X702782Y50733D01*
X703457Y50979D01*
X703865Y51305D01*
X704325Y51548D01*
X704819Y52069D01*
X705378Y52516D01*
X705660Y52953D01*
X706020Y53332D01*
X706323Y53983D01*
X706710Y54585D01*
X706838Y55091D01*
X707058Y55563D01*
X707137Y56276D01*
X707313Y56971D01*
X707273Y57491D01*
X707331Y58009D01*
X707179Y58710D01*
X707124Y59424D01*
X706920Y59904D01*
X706810Y60414D01*
X706443Y61030D01*
X706163Y61690D01*
X705716Y62248D01*
X705549Y62528D01*
X705368Y62683D01*
X705108Y63009D01*
X705025Y63091D01*
X698689Y72573D01*
X694325Y83110D01*
X692706Y91250D01*
X748868Y91250D01*
X749062Y91282D01*
X749257Y91260D01*
X749864Y91392D01*
X751132Y91250D01*
X807294Y91250D01*
X805675Y83110D01*
X801311Y72573D01*
X794974Y63091D01*
X794892Y63009D01*
X794474Y62428D01*
X793980Y61907D01*
X793760Y61434D01*
X793455Y61011D01*
X793244Y60325D01*
X792942Y59676D01*
X792884Y59158D01*
X792730Y58659D01*
X792748Y57942D01*
X792669Y57230D01*
X792779Y56721D01*
X792793Y56199D01*
X793038Y55525D01*
X793190Y54825D01*
X793457Y54378D01*
X793636Y53888D01*
X794084Y53327D01*
X794450Y52712D01*
X794846Y52373D01*
X795172Y51965D01*
X795774Y51577D01*
X796318Y51110D01*
X796803Y50914D01*
X797240Y50632D01*
X797935Y50456D01*
X798600Y50188D01*
X799311Y50108D01*
X799626Y50028D01*
X799863Y50047D01*
X800278Y50000D01*
X1199721Y50000D01*
X1200429Y50116D01*
X1201145Y50135D01*
X1201635Y50314D01*
X1202150Y50398D01*
X1202782Y50733D01*
X1203457Y50979D01*
X1203865Y51305D01*
X1204325Y51548D01*
X1204819Y52069D01*
X1205378Y52516D01*
X1205660Y52953D01*
X1206020Y53332D01*
X1206323Y53983D01*
X1206710Y54585D01*
X1206838Y55091D01*
X1207058Y55563D01*
X1207137Y56276D01*
X1207313Y56971D01*
X1207273Y57491D01*
X1207331Y58009D01*
X1207179Y58710D01*
X1207124Y59424D01*
X1206920Y59904D01*
X1206810Y60414D01*
X1206443Y61030D01*
X1206163Y61690D01*
X1205716Y62248D01*
X1205549Y62528D01*
X1205368Y62683D01*
X1205108Y63009D01*
X1205025Y63091D01*
X1198689Y72573D01*
X1194325Y83110D01*
X1192706Y91250D01*
X1248868Y91250D01*
X1249062Y91282D01*
X1249257Y91260D01*
X1249864Y91392D01*
X1251132Y91250D01*
X1307294Y91250D01*
X1305675Y83110D01*
X1301311Y72573D01*
X1294974Y63091D01*
X1294892Y63009D01*
X1294474Y62428D01*
X1293980Y61907D01*
X1293760Y61434D01*
X1293455Y61011D01*
X1293244Y60325D01*
X1292942Y59676D01*
X1292884Y59158D01*
X1292730Y58659D01*
X1292748Y57942D01*
X1292669Y57230D01*
X1292779Y56721D01*
X1292793Y56199D01*
X1293038Y55525D01*
X1293190Y54825D01*
X1293457Y54378D01*
X1293636Y53888D01*
X1294084Y53327D01*
X1294450Y52712D01*
X1294846Y52373D01*
X1295172Y51965D01*
X1295774Y51577D01*
X1296318Y51110D01*
X1296803Y50914D01*
X1297240Y50632D01*
X1297935Y50456D01*
X1298600Y50188D01*
X1299311Y50108D01*
X1299626Y50028D01*
X1299863Y50047D01*
X1300278Y50000D01*
X1699721Y50000D01*
X1700429Y50116D01*
X1701145Y50135D01*
X1701635Y50314D01*
X1702150Y50398D01*
X1702782Y50733D01*
X1703457Y50979D01*
X1703865Y51305D01*
X1704325Y51548D01*
X1704819Y52069D01*
X1705378Y52516D01*
X1705660Y52953D01*
X1706020Y53332D01*
X1706323Y53983D01*
X1706710Y54585D01*
X1706838Y55091D01*
X1707058Y55563D01*
X1707137Y56276D01*
X1707313Y56971D01*
X1707273Y57491D01*
X1707331Y58009D01*
X1707179Y58710D01*
X1707124Y59424D01*
X1706920Y59904D01*
X1706810Y60414D01*
X1706443Y61030D01*
X1706163Y61690D01*
X1705716Y62248D01*
X1705549Y62528D01*
X1705368Y62683D01*
X1705108Y63009D01*
X1705025Y63091D01*
X1698689Y72573D01*
X1694325Y83110D01*
X1692706Y91250D01*
X1748868Y91250D01*
X1749062Y91282D01*
X1749257Y91260D01*
X1749864Y91392D01*
X1751132Y91250D01*
X1807294Y91250D01*
X1805675Y83110D01*
X1801311Y72573D01*
X1794974Y63091D01*
X1794892Y63009D01*
X1794474Y62428D01*
X1793980Y61907D01*
X1793760Y61434D01*
X1793455Y61011D01*
X1793244Y60325D01*
X1792942Y59676D01*
X1792884Y59158D01*
X1792730Y58659D01*
X1792748Y57942D01*
X1792669Y57230D01*
X1792779Y56721D01*
X1792793Y56199D01*
X1793038Y55525D01*
X1793190Y54825D01*
X1793457Y54378D01*
X1793636Y53888D01*
X1794084Y53327D01*
X1794450Y52712D01*
X1794846Y52373D01*
X1795172Y51965D01*
X1795774Y51577D01*
X1796318Y51110D01*
X1796803Y50914D01*
X1797240Y50632D01*
X1797935Y50456D01*
X1798600Y50188D01*
X1799311Y50108D01*
X1799626Y50028D01*
X1799863Y50047D01*
X1800278Y50000D01*
X2199721Y50000D01*
X2200429Y50116D01*
X2201145Y50135D01*
X2201635Y50314D01*
X2202150Y50398D01*
X2202782Y50733D01*
X2203457Y50979D01*
X2203865Y51305D01*
X2204325Y51548D01*
X2204819Y52069D01*
X2205378Y52516D01*
X2205660Y52953D01*
X2206020Y53332D01*
X2206323Y53983D01*
X2206710Y54585D01*
X2206838Y55091D01*
X2207058Y55563D01*
X2207137Y56276D01*
X2207313Y56971D01*
X2207273Y57491D01*
X2207331Y58009D01*
X2207179Y58710D01*
X2207124Y59424D01*
X2206920Y59904D01*
X2206810Y60414D01*
X2206443Y61030D01*
X2206163Y61690D01*
X2205716Y62248D01*
X2205549Y62528D01*
X2205368Y62683D01*
X2205108Y63009D01*
X2205025Y63091D01*
X2198689Y72573D01*
X2194325Y83110D01*
X2192706Y91250D01*
X2248868Y91250D01*
X2249062Y91282D01*
X2249257Y91260D01*
X2249864Y91392D01*
X2251132Y91250D01*
X2307294Y91250D01*
X2305675Y83110D01*
X2301311Y72573D01*
X2294974Y63091D01*
X2294892Y63009D01*
X2294474Y62428D01*
X2293980Y61907D01*
X2293760Y61434D01*
X2293455Y61011D01*
X2293244Y60325D01*
X2292942Y59676D01*
X2292884Y59158D01*
X2292730Y58659D01*
X2292748Y57942D01*
X2292669Y57230D01*
X2292779Y56721D01*
X2292793Y56199D01*
X2293038Y55525D01*
X2293190Y54825D01*
X2293457Y54378D01*
X2293636Y53888D01*
X2294084Y53327D01*
X2294450Y52712D01*
X2294846Y52373D01*
X2295172Y51965D01*
X2295774Y51577D01*
X2296318Y51110D01*
X2296803Y50914D01*
X2297240Y50632D01*
X2297935Y50456D01*
X2298600Y50188D01*
X2299311Y50108D01*
X2299626Y50028D01*
X2299863Y50047D01*
X2300278Y50000D01*
X2699721Y50000D01*
X2700429Y50116D01*
X2701145Y50135D01*
X2701635Y50314D01*
X2702150Y50398D01*
X2702782Y50733D01*
X2703457Y50979D01*
X2703865Y51305D01*
X2704325Y51548D01*
X2704819Y52069D01*
X2705378Y52516D01*
X2705660Y52953D01*
X2706020Y53332D01*
X2706323Y53983D01*
X2706710Y54585D01*
X2706838Y55091D01*
X2707058Y55563D01*
X2707137Y56276D01*
X2707313Y56971D01*
X2707273Y57491D01*
X2707331Y58009D01*
X2707179Y58710D01*
X2707124Y59424D01*
X2706920Y59904D01*
X2706810Y60414D01*
X2706443Y61030D01*
X2706163Y61690D01*
X2705716Y62248D01*
X2705549Y62528D01*
X2705368Y62683D01*
X2705108Y63009D01*
X2705025Y63091D01*
X2698689Y72573D01*
X2694325Y83110D01*
X2692706Y91250D01*
X2748868Y91250D01*
X2749062Y91282D01*
X2749257Y91260D01*
X2749864Y91392D01*
X2751132Y91250D01*
X2807294Y91250D01*
X2805675Y83110D01*
X2801311Y72573D01*
X2794974Y63091D01*
X2794892Y63009D01*
X2794474Y62428D01*
X2793980Y61907D01*
X2793760Y61434D01*
X2793455Y61011D01*
X2793244Y60325D01*
X2792942Y59676D01*
X2792884Y59158D01*
X2792730Y58659D01*
X2792748Y57942D01*
X2792669Y57230D01*
X2792779Y56721D01*
X2792793Y56199D01*
X2793038Y55525D01*
X2793190Y54825D01*
X2793457Y54378D01*
X2793636Y53888D01*
X2794084Y53327D01*
X2794450Y52712D01*
X2794846Y52373D01*
X2795172Y51965D01*
X2795774Y51577D01*
X2796318Y51110D01*
X2796803Y50914D01*
X2797240Y50632D01*
X2797935Y50456D01*
X2798600Y50188D01*
X2799311Y50108D01*
X2799626Y50028D01*
X2799863Y50047D01*
X2800278Y50000D01*
X3200000Y50000D01*
X3200219Y50036D01*
X3200598Y50024D01*
X3238514Y53008D01*
X3238565Y53020D01*
X3238617Y53017D01*
X3240271Y53357D01*
X3312393Y76791D01*
X3312706Y76953D01*
X3313049Y77038D01*
X3314517Y77873D01*
X3375867Y122447D01*
X3376114Y122697D01*
X3376415Y122885D01*
X3377553Y124133D01*
X3422126Y185483D01*
X3422285Y185798D01*
X3422512Y186068D01*
X3423209Y187607D01*
X3446643Y259729D01*
X3446650Y259781D01*
X3446673Y259827D01*
X3446992Y261486D01*
X3449976Y299402D01*
X3449958Y299623D01*
X3449999Y300000D01*
X3449999Y699721D01*
X3449883Y700429D01*
X3449865Y701145D01*
X3449686Y701635D01*
X3449602Y702150D01*
X3449267Y702782D01*
X3449021Y703457D01*
X3448695Y703864D01*
X3448451Y704325D01*
X3447931Y704819D01*
X3447484Y705378D01*
X3447046Y705660D01*
X3446668Y706020D01*
X3446017Y706323D01*
X3445415Y706710D01*
X3444909Y706838D01*
X3444436Y707058D01*
X3443724Y707137D01*
X3443029Y707313D01*
X3442509Y707273D01*
X3441991Y707331D01*
X3441290Y707179D01*
X3440575Y707124D01*
X3440095Y706920D01*
X3439586Y706810D01*
X3438970Y706443D01*
X3438310Y706163D01*
X3437752Y705716D01*
X3437472Y705549D01*
X3437317Y705368D01*
X3436991Y705108D01*
X3436909Y705025D01*
X3427426Y698689D01*
X3416889Y694325D01*
X3408749Y692706D01*
X3408749Y748868D01*
X3408718Y749062D01*
X3408739Y749257D01*
X3408608Y749864D01*
X3408749Y751132D01*
X3408749Y807294D01*
X3416889Y805675D01*
X3427426Y801311D01*
X3436909Y794974D01*
X3436991Y794892D01*
X3437572Y794474D01*
X3438093Y793980D01*
X3438566Y793760D01*
X3438989Y793455D01*
X3439674Y793244D01*
X3440324Y792942D01*
X3440841Y792884D01*
X3441340Y792730D01*
X3442058Y792748D01*
X3442769Y792669D01*
X3443278Y792779D01*
X3443800Y792793D01*
X3444475Y793038D01*
X3445174Y793190D01*
X3445622Y793457D01*
X3446112Y793636D01*
X3446673Y794084D01*
X3447288Y794450D01*
X3447627Y794846D01*
X3448035Y795172D01*
X3448423Y795774D01*
X3448890Y796318D01*
X3449085Y796803D01*
X3449368Y797240D01*
X3449543Y797935D01*
X3449812Y798600D01*
X3449892Y799311D01*
X3449971Y799626D01*
X3449953Y799863D01*
X3449999Y800278D01*
X3449999Y1199721D01*
X3449883Y1200429D01*
X3449865Y1201145D01*
X3449686Y1201635D01*
X3449602Y1202150D01*
X3449267Y1202782D01*
X3449021Y1203457D01*
X3448695Y1203865D01*
X3448451Y1204325D01*
X3447931Y1204819D01*
X3447484Y1205378D01*
X3447046Y1205660D01*
X3446668Y1206020D01*
X3446017Y1206323D01*
X3445415Y1206710D01*
X3444909Y1206838D01*
X3444436Y1207058D01*
X3443724Y1207137D01*
X3443029Y1207313D01*
X3442509Y1207273D01*
X3441991Y1207331D01*
X3441290Y1207179D01*
X3440575Y1207124D01*
X3440095Y1206920D01*
X3439586Y1206810D01*
X3438970Y1206443D01*
X3438310Y1206163D01*
X3437752Y1205716D01*
X3437472Y1205549D01*
X3437317Y1205368D01*
X3436991Y1205108D01*
X3436909Y1205025D01*
X3427426Y1198689D01*
X3416889Y1194325D01*
X3408749Y1192706D01*
X3408749Y1248868D01*
X3408718Y1249062D01*
X3408739Y1249257D01*
X3408608Y1249864D01*
X3408749Y1251132D01*
X3408749Y1307294D01*
X3416889Y1305675D01*
X3427426Y1301311D01*
X3436909Y1294974D01*
X3436991Y1294892D01*
X3437572Y1294474D01*
X3438093Y1293980D01*
X3438566Y1293760D01*
X3438989Y1293455D01*
X3439674Y1293244D01*
X3440324Y1292942D01*
X3440841Y1292884D01*
X3441340Y1292730D01*
X3442058Y1292748D01*
X3442769Y1292669D01*
X3443278Y1292779D01*
X3443800Y1292793D01*
X3444475Y1293038D01*
X3445174Y1293190D01*
X3445622Y1293457D01*
X3446112Y1293636D01*
X3446673Y1294084D01*
X3447288Y1294450D01*
X3447627Y1294846D01*
X3448035Y1295172D01*
X3448423Y1295774D01*
X3448890Y1296318D01*
X3449085Y1296803D01*
X3449368Y1297240D01*
X3449543Y1297935D01*
X3449812Y1298600D01*
X3449892Y1299311D01*
X3449971Y1299626D01*
X3449953Y1299863D01*
X3449999Y1300278D01*
X3449999Y1699721D01*
X3449883Y1700429D01*
X3449865Y1701145D01*
X3449686Y1701635D01*
X3449602Y1702150D01*
X3449267Y1702782D01*
X3449021Y1703457D01*
X3448695Y1703865D01*
X3448451Y1704325D01*
X3447931Y1704819D01*
X3447484Y1705378D01*
X3447046Y1705660D01*
X3446668Y1706020D01*
X3446017Y1706323D01*
X3445415Y1706710D01*
X3444909Y1706838D01*
X3444436Y1707058D01*
X3443724Y1707137D01*
X3443029Y1707313D01*
X3442509Y1707273D01*
X3441991Y1707331D01*
X3441290Y1707179D01*
X3440575Y1707124D01*
X3440095Y1706920D01*
X3439586Y1706810D01*
X3438970Y1706443D01*
X3438310Y1706163D01*
X3437752Y1705716D01*
X3437472Y1705549D01*
X3437317Y1705368D01*
X3436991Y1705108D01*
X3436909Y1705025D01*
X3427426Y1698689D01*
X3416889Y1694325D01*
X3408749Y1692706D01*
X3408749Y1748868D01*
X3408718Y1749062D01*
X3408739Y1749257D01*
X3408608Y1749864D01*
X3408749Y1751132D01*
X3408749Y1807294D01*
X3416889Y1805675D01*
X3427426Y1801311D01*
X3436909Y1794974D01*
X3436991Y1794892D01*
X3437572Y1794474D01*
X3438093Y1793980D01*
X3438566Y1793760D01*
X3438989Y1793455D01*
X3439674Y1793244D01*
X3440324Y1792942D01*
X3440841Y1792884D01*
X3441340Y1792730D01*
X3442058Y1792748D01*
X3442769Y1792669D01*
X3443278Y1792779D01*
X3443800Y1792793D01*
X3444475Y1793038D01*
X3445174Y1793190D01*
X3445622Y1793457D01*
X3446112Y1793636D01*
X3446673Y1794084D01*
X3447288Y1794450D01*
X3447627Y1794846D01*
X3448035Y1795172D01*
X3448423Y1795774D01*
X3448890Y1796318D01*
X3449085Y1796803D01*
X3449368Y1797240D01*
X3449543Y1797935D01*
X3449812Y1798600D01*
X3449892Y1799311D01*
X3449971Y1799626D01*
X3449953Y1799863D01*
X3449999Y1800278D01*
X3449999Y2199721D01*
X3449883Y2200429D01*
X3449865Y2201145D01*
X3449686Y2201635D01*
X3449602Y2202150D01*
X3449267Y2202782D01*
X3449021Y2203457D01*
X3448695Y2203865D01*
X3448451Y2204325D01*
X3447931Y2204819D01*
X3447484Y2205378D01*
X3447046Y2205660D01*
X3446668Y2206020D01*
X3446017Y2206323D01*
X3445415Y2206710D01*
X3444909Y2206838D01*
X3444436Y2207058D01*
X3443724Y2207137D01*
X3443029Y2207313D01*
X3442509Y2207273D01*
X3441991Y2207331D01*
X3441290Y2207179D01*
X3440575Y2207124D01*
X3440095Y2206920D01*
X3439586Y2206810D01*
X3438970Y2206443D01*
X3438310Y2206163D01*
X3437752Y2205716D01*
X3437472Y2205549D01*
X3437317Y2205368D01*
X3436991Y2205108D01*
X3436909Y2205025D01*
X3427426Y2198689D01*
X3416889Y2194325D01*
X3408749Y2192706D01*
X3408749Y2248868D01*
X3408718Y2249062D01*
X3408739Y2249257D01*
X3408608Y2249864D01*
X3408749Y2251132D01*
X3408749Y2307294D01*
X3416889Y2305675D01*
X3427426Y2301311D01*
X3436909Y2294974D01*
X3436991Y2294892D01*
X3437572Y2294474D01*
X3438093Y2293980D01*
X3438566Y2293760D01*
X3438989Y2293455D01*
X3439674Y2293244D01*
X3440324Y2292942D01*
X3440841Y2292884D01*
X3441340Y2292730D01*
X3442058Y2292748D01*
X3442769Y2292669D01*
X3443278Y2292779D01*
X3443800Y2292793D01*
X3444475Y2293038D01*
X3445174Y2293190D01*
X3445622Y2293457D01*
X3446112Y2293636D01*
X3446673Y2294084D01*
X3447288Y2294450D01*
X3447627Y2294846D01*
X3448035Y2295172D01*
X3448423Y2295774D01*
X3448890Y2296318D01*
X3449085Y2296803D01*
X3449368Y2297240D01*
X3449543Y2297935D01*
X3449812Y2298600D01*
X3449892Y2299311D01*
X3449971Y2299626D01*
X3449953Y2299863D01*
X3449999Y2300278D01*
X3449999Y2699721D01*
X3449883Y2700429D01*
X3449865Y2701145D01*
X3449686Y2701635D01*
X3449602Y2702150D01*
X3449267Y2702782D01*
X3449021Y2703457D01*
X3448695Y2703865D01*
X3448451Y2704325D01*
X3447931Y2704819D01*
X3447484Y2705378D01*
X3447046Y2705660D01*
X3446668Y2706020D01*
X3446017Y2706323D01*
X3445415Y2706710D01*
X3444909Y2706838D01*
X3444436Y2707058D01*
X3443724Y2707137D01*
X3443029Y2707313D01*
X3442509Y2707273D01*
X3441991Y2707331D01*
X3441290Y2707179D01*
X3440575Y2707124D01*
X3440095Y2706920D01*
X3439586Y2706810D01*
X3438970Y2706443D01*
X3438310Y2706163D01*
X3437752Y2705716D01*
X3437472Y2705549D01*
X3437317Y2705368D01*
X3436991Y2705108D01*
X3436909Y2705025D01*
X3427426Y2698689D01*
X3416889Y2694325D01*
X3408749Y2692706D01*
X3408749Y2748868D01*
X3408718Y2749062D01*
X3408739Y2749257D01*
X3408608Y2749864D01*
X3408749Y2751132D01*
X3408749Y2807294D01*
X3416889Y2805675D01*
X3427426Y2801311D01*
X3436909Y2794974D01*
X3436991Y2794892D01*
X3437572Y2794474D01*
X3438093Y2793980D01*
X3438566Y2793760D01*
X3438989Y2793455D01*
X3439674Y2793244D01*
X3440324Y2792942D01*
X3440841Y2792884D01*
X3441340Y2792730D01*
X3442058Y2792748D01*
X3442769Y2792669D01*
X3443278Y2792779D01*
X3443800Y2792793D01*
X3444475Y2793038D01*
X3445174Y2793190D01*
X3445622Y2793457D01*
X3446112Y2793636D01*
X3446673Y2794084D01*
X3447288Y2794450D01*
X3447627Y2794846D01*
X3448035Y2795172D01*
X3448423Y2795774D01*
X3448890Y2796318D01*
X3449085Y2796803D01*
X3449368Y2797240D01*
X3449543Y2797935D01*
X3449812Y2798600D01*
X3449892Y2799311D01*
X3449971Y2799626D01*
X3449953Y2799863D01*
X3449999Y2800278D01*
X3449999Y3199983D01*
X3449963Y3200202D01*
X3449976Y3200581D01*
X3446992Y3238498D01*
X3446979Y3238549D01*
X3446983Y3238601D01*
X3446642Y3240255D01*
X3423207Y3312379D01*
X3423045Y3312693D01*
X3422960Y3313035D01*
X3422124Y3314503D01*
X3377548Y3375855D01*
X3377297Y3376103D01*
X3377110Y3376403D01*
X3375862Y3377541D01*
X3314508Y3422114D01*
X3314193Y3422272D01*
X3313922Y3422499D01*
X3312383Y3423196D01*
X3240258Y3446627D01*
X3240208Y3446635D01*
X3240160Y3446658D01*
X3238502Y3446977D01*
X3200584Y3449959D01*
X3200363Y3449940D01*
X3199986Y3449982D01*
X2800318Y3449959D01*
X2799611Y3449843D01*
X2798894Y3449825D01*
X2798405Y3449646D01*
X2797889Y3449562D01*
X2797255Y3449226D01*
X2796583Y3448981D01*
X2796176Y3448655D01*
X2795714Y3448411D01*
X2795221Y3447892D01*
X2794661Y3447444D01*
X2794379Y3447005D01*
X2794019Y3446627D01*
X2793717Y3445977D01*
X2793329Y3445374D01*
X2793202Y3444869D01*
X2792982Y3444396D01*
X2792902Y3443684D01*
X2792727Y3442988D01*
X2792767Y3442468D01*
X2792709Y3441950D01*
X2792861Y3441250D01*
X2792916Y3440535D01*
X2793120Y3440055D01*
X2793230Y3439545D01*
X2793597Y3438930D01*
X2793877Y3438270D01*
X2794323Y3437712D01*
X2794491Y3437432D01*
X2794672Y3437276D01*
X2794932Y3436951D01*
X2794974Y3436909D01*
X2801311Y3427426D01*
X2805675Y3416889D01*
X2807294Y3408749D01*
X2751132Y3408749D01*
X2750938Y3408718D01*
X2750743Y3408739D01*
X2750136Y3408608D01*
X2748868Y3408749D01*
X2692706Y3408749D01*
X2694325Y3416889D01*
X2698689Y3427426D01*
X2705025Y3436909D01*
X2705062Y3436945D01*
X2705480Y3437527D01*
X2705975Y3438048D01*
X2706195Y3438520D01*
X2706499Y3438943D01*
X2706710Y3439628D01*
X2707013Y3440278D01*
X2707070Y3440797D01*
X2707224Y3441294D01*
X2707206Y3442012D01*
X2707285Y3442724D01*
X2707175Y3443233D01*
X2707162Y3443754D01*
X2706916Y3444428D01*
X2706764Y3445129D01*
X2706497Y3445577D01*
X2706318Y3446066D01*
X2705871Y3446626D01*
X2705503Y3447243D01*
X2705108Y3447582D01*
X2704783Y3447989D01*
X2704179Y3448378D01*
X2703635Y3448844D01*
X2703153Y3449039D01*
X2702714Y3449322D01*
X2702018Y3449498D01*
X2701354Y3449767D01*
X2700644Y3449846D01*
X2700328Y3449926D01*
X2700091Y3449908D01*
X2699675Y3449954D01*
X2300347Y3449931D01*
X2299639Y3449815D01*
X2298923Y3449797D01*
X2298433Y3449618D01*
X2297918Y3449533D01*
X2297283Y3449198D01*
X2296611Y3448952D01*
X2296204Y3448627D01*
X2295743Y3448383D01*
X2295249Y3447863D01*
X2294689Y3447415D01*
X2294407Y3446977D01*
X2294048Y3446598D01*
X2293745Y3445948D01*
X2293358Y3445346D01*
X2293230Y3444841D01*
X2293010Y3444368D01*
X2292931Y3443655D01*
X2292755Y3442960D01*
X2292795Y3442439D01*
X2292738Y3441922D01*
X2292889Y3441221D01*
X2292944Y3440507D01*
X2293148Y3440027D01*
X2293258Y3439517D01*
X2293626Y3438902D01*
X2293906Y3438241D01*
X2294352Y3437683D01*
X2294519Y3437403D01*
X2294700Y3437248D01*
X2294961Y3436922D01*
X2294975Y3436908D01*
X2301311Y3427426D01*
X2305675Y3416889D01*
X2307294Y3408749D01*
X2251132Y3408749D01*
X2250938Y3408718D01*
X2250743Y3408739D01*
X2250136Y3408608D01*
X2248868Y3408749D01*
X2192706Y3408749D01*
X2194325Y3416889D01*
X2198689Y3427426D01*
X2205025Y3436908D01*
X2205033Y3436917D01*
X2205453Y3437499D01*
X2205946Y3438019D01*
X2206166Y3438492D01*
X2206470Y3438914D01*
X2206681Y3439599D01*
X2206984Y3440250D01*
X2207042Y3440768D01*
X2207195Y3441266D01*
X2207177Y3441983D01*
X2207257Y3442696D01*
X2207146Y3443205D01*
X2207133Y3443726D01*
X2206888Y3444399D01*
X2206736Y3445101D01*
X2206468Y3445549D01*
X2206290Y3446038D01*
X2205843Y3446598D01*
X2205475Y3447214D01*
X2205079Y3447553D01*
X2204754Y3447961D01*
X2204150Y3448350D01*
X2203607Y3448816D01*
X2203125Y3449010D01*
X2202686Y3449293D01*
X2201989Y3449470D01*
X2201325Y3449738D01*
X2200616Y3449817D01*
X2200300Y3449897D01*
X2200062Y3449879D01*
X2199647Y3449925D01*
X1800375Y3449903D01*
X1799668Y3449787D01*
X1798953Y3449768D01*
X1798463Y3449590D01*
X1797947Y3449505D01*
X1797314Y3449170D01*
X1796642Y3448925D01*
X1796233Y3448598D01*
X1795772Y3448354D01*
X1795279Y3447835D01*
X1794720Y3447388D01*
X1794437Y3446949D01*
X1794077Y3446570D01*
X1793774Y3445920D01*
X1793388Y3445319D01*
X1793260Y3444814D01*
X1793039Y3444339D01*
X1792959Y3443627D01*
X1792784Y3442934D01*
X1792824Y3442413D01*
X1792766Y3441893D01*
X1792918Y3441194D01*
X1792973Y3440480D01*
X1793177Y3439999D01*
X1793287Y3439488D01*
X1793654Y3438873D01*
X1793933Y3438215D01*
X1794380Y3437655D01*
X1794548Y3437375D01*
X1794728Y3437220D01*
X1794961Y3436929D01*
X1801311Y3427426D01*
X1805675Y3416889D01*
X1807294Y3408749D01*
X1751132Y3408749D01*
X1750938Y3408718D01*
X1750743Y3408739D01*
X1750136Y3408608D01*
X1748868Y3408749D01*
X1692706Y3408749D01*
X1694325Y3416889D01*
X1698689Y3427426D01*
X1705102Y3437024D01*
X1705423Y3437470D01*
X1705918Y3437990D01*
X1706138Y3438463D01*
X1706441Y3438886D01*
X1706652Y3439570D01*
X1706955Y3440221D01*
X1707013Y3440739D01*
X1707167Y3441237D01*
X1707148Y3441955D01*
X1707228Y3442667D01*
X1707118Y3443176D01*
X1707104Y3443697D01*
X1706859Y3444371D01*
X1706707Y3445072D01*
X1706440Y3445520D01*
X1706261Y3446009D01*
X1705814Y3446569D01*
X1705446Y3447186D01*
X1705051Y3447525D01*
X1704726Y3447932D01*
X1704122Y3448320D01*
X1703578Y3448787D01*
X1703095Y3448982D01*
X1702657Y3449264D01*
X1701962Y3449440D01*
X1701297Y3449709D01*
X1700587Y3449788D01*
X1700271Y3449868D01*
X1700033Y3449850D01*
X1699618Y3449897D01*
X1300404Y3449874D01*
X1299696Y3449758D01*
X1298979Y3449739D01*
X1298490Y3449561D01*
X1297975Y3449476D01*
X1297341Y3449141D01*
X1296668Y3448895D01*
X1296261Y3448569D01*
X1295800Y3448325D01*
X1295307Y3447806D01*
X1294746Y3447358D01*
X1294464Y3446919D01*
X1294105Y3446541D01*
X1293803Y3445892D01*
X1293415Y3445288D01*
X1293287Y3444783D01*
X1293067Y3444310D01*
X1292988Y3443598D01*
X1292812Y3442903D01*
X1292853Y3442382D01*
X1292795Y3441864D01*
X1292946Y3441164D01*
X1293002Y3440449D01*
X1293205Y3439969D01*
X1293316Y3439460D01*
X1293683Y3438844D01*
X1293963Y3438184D01*
X1294409Y3437627D01*
X1294576Y3437346D01*
X1294758Y3437190D01*
X1294930Y3436975D01*
X1301311Y3427426D01*
X1305675Y3416889D01*
X1307294Y3408749D01*
X1251132Y3408749D01*
X1250938Y3408718D01*
X1250743Y3408739D01*
X1250136Y3408608D01*
X1248868Y3408749D01*
X1192706Y3408749D01*
X1194325Y3416889D01*
X1198689Y3427426D01*
X1205206Y3437179D01*
X1205395Y3437442D01*
X1205889Y3437962D01*
X1206109Y3438434D01*
X1206413Y3438857D01*
X1206624Y3439542D01*
X1206927Y3440193D01*
X1206985Y3440711D01*
X1207138Y3441208D01*
X1207120Y3441926D01*
X1207199Y3442639D01*
X1207089Y3443148D01*
X1207076Y3443668D01*
X1206830Y3444342D01*
X1206678Y3445043D01*
X1206412Y3445491D01*
X1206233Y3445980D01*
X1205785Y3446541D01*
X1205418Y3447157D01*
X1205022Y3447496D01*
X1204697Y3447903D01*
X1204094Y3448292D01*
X1203549Y3448758D01*
X1203067Y3448954D01*
X1202628Y3449236D01*
X1201933Y3449412D01*
X1201268Y3449681D01*
X1200559Y3449760D01*
X1200243Y3449840D01*
X1200005Y3449822D01*
X1199590Y3449868D01*
X800432Y3449845D01*
X799725Y3449729D01*
X799008Y3449711D01*
X798518Y3449532D01*
X798003Y3449448D01*
X797370Y3449113D01*
X796696Y3448867D01*
X796288Y3448540D01*
X795828Y3448297D01*
X795335Y3447778D01*
X794775Y3447329D01*
X794492Y3446891D01*
X794133Y3446513D01*
X793831Y3445863D01*
X793443Y3445260D01*
X793315Y3444754D01*
X793096Y3444282D01*
X793016Y3443569D01*
X792841Y3442874D01*
X792881Y3442354D01*
X792823Y3441836D01*
X792975Y3441136D01*
X793030Y3440421D01*
X793234Y3439941D01*
X793344Y3439431D01*
X793712Y3438815D01*
X793992Y3438155D01*
X794438Y3437598D01*
X794605Y3437318D01*
X794786Y3437162D01*
X794903Y3437017D01*
X801311Y3427426D01*
X805675Y3416889D01*
X807294Y3408749D01*
X751132Y3408749D01*
X750938Y3408718D01*
X750743Y3408739D01*
X750136Y3408608D01*
X748868Y3408749D01*
X692706Y3408749D01*
X694325Y3416889D01*
X698689Y3427426D01*
X705308Y3437332D01*
X705367Y3437414D01*
X705861Y3437933D01*
X706080Y3438406D01*
X706384Y3438828D01*
X706595Y3439513D01*
X706898Y3440164D01*
X706956Y3440682D01*
X707110Y3441180D01*
X707092Y3441898D01*
X707171Y3442610D01*
X707061Y3443119D01*
X707048Y3443640D01*
X706802Y3444313D01*
X706650Y3445015D01*
X706383Y3445463D01*
X706205Y3445952D01*
X705757Y3446512D01*
X705389Y3447129D01*
X704994Y3447468D01*
X704669Y3447875D01*
X704065Y3448264D01*
X703521Y3448730D01*
X703039Y3448925D01*
X702600Y3449208D01*
X701904Y3449384D01*
X701240Y3449653D01*
X700531Y3449732D01*
X700215Y3449812D01*
X699977Y3449793D01*
X699561Y3449840D01*
X300243Y3449817D01*
X300232Y3449815D01*
X300216Y3449817D01*
X300128Y3449817D01*
X299916Y3449781D01*
X299554Y3449793D01*
X262015Y3446821D01*
X261975Y3446811D01*
X261933Y3446814D01*
X260278Y3446477D01*
X188814Y3423438D01*
X188512Y3423283D01*
X188183Y3423203D01*
X186710Y3422377D01*
X125701Y3378608D01*
X125461Y3378368D01*
X125172Y3378192D01*
X124022Y3376955D01*
X79300Y3316640D01*
X79145Y3316338D01*
X78924Y3316082D01*
X78207Y3314553D01*
X54049Y3243459D01*
X54043Y3243417D01*
X54024Y3243381D01*
X53678Y3241728D01*
X50126Y3204328D01*
X50143Y3204070D01*
X50092Y3203608D01*
X50080Y2800359D01*
X50097Y2800260D01*
X50090Y2800205D01*
X50152Y2799921D01*
X50196Y2799651D01*
X50215Y2798934D01*
X50393Y2798445D01*
X50478Y2797930D01*
X50813Y2797295D01*
X51059Y2796623D01*
X51384Y2796216D01*
X51628Y2795755D01*
X52148Y2795261D01*
X52596Y2794701D01*
X53035Y2794418D01*
X53412Y2794060D01*
X54062Y2793758D01*
X54665Y2793369D01*
X55171Y2793242D01*
X55643Y2793022D01*
X56355Y2792943D01*
X57051Y2792767D01*
X57572Y2792807D01*
X58089Y2792749D01*
X58789Y2792901D01*
X59505Y2792956D01*
X59985Y2793160D01*
X60494Y2793270D01*
X61110Y2793638D01*
X61770Y2793918D01*
X62328Y2794363D01*
X62608Y2794530D01*
X62763Y2794711D01*
X63089Y2794972D01*
X63092Y2794975D01*
X72573Y2801311D01*
X83110Y2805675D01*
X91250Y2807294D01*
X91250Y2751132D01*
X91282Y2750938D01*
X91260Y2750743D01*
X91392Y2750136D01*
X91250Y2748868D01*
X91250Y2692706D01*
X83110Y2694325D01*
X72573Y2698689D01*
X63091Y2705025D01*
X63084Y2705032D01*
X62502Y2705450D01*
X61984Y2705943D01*
X61511Y2706163D01*
X61086Y2706468D01*
X60401Y2706679D01*
X59753Y2706981D01*
X59234Y2707038D01*
X58734Y2707193D01*
X58018Y2707174D01*
X57308Y2707253D01*
X56797Y2707143D01*
X56274Y2707129D01*
X55602Y2706884D01*
X54902Y2706733D01*
X54454Y2706465D01*
X53963Y2706286D01*
X53403Y2705839D01*
X52789Y2705472D01*
X52449Y2705076D01*
X52041Y2704749D01*
X51653Y2704148D01*
X51187Y2703604D01*
X50991Y2703119D01*
X50708Y2702680D01*
X50533Y2701987D01*
X50264Y2701323D01*
X50185Y2700611D01*
X50105Y2700295D01*
X50123Y2700057D01*
X50077Y2699644D01*
X50066Y2300344D01*
X50182Y2299636D01*
X50200Y2298920D01*
X50379Y2298431D01*
X50463Y2297916D01*
X50799Y2297280D01*
X51045Y2296608D01*
X51370Y2296202D01*
X51614Y2295741D01*
X52134Y2295247D01*
X52582Y2294687D01*
X53020Y2294404D01*
X53398Y2294046D01*
X54048Y2293743D01*
X54651Y2293355D01*
X55157Y2293227D01*
X55629Y2293008D01*
X56341Y2292928D01*
X57037Y2292752D01*
X57558Y2292793D01*
X58074Y2292735D01*
X58774Y2292886D01*
X59490Y2292942D01*
X59971Y2293145D01*
X60480Y2293256D01*
X61095Y2293622D01*
X61756Y2293903D01*
X62314Y2294350D01*
X62593Y2294516D01*
X62748Y2294696D01*
X63075Y2294958D01*
X63092Y2294975D01*
X72573Y2301311D01*
X83110Y2305675D01*
X91250Y2307294D01*
X91250Y2251132D01*
X91282Y2250938D01*
X91260Y2250743D01*
X91392Y2250136D01*
X91250Y2248868D01*
X91250Y2192706D01*
X83110Y2194325D01*
X72573Y2198689D01*
X63092Y2205025D01*
X63072Y2205045D01*
X62488Y2205464D01*
X61970Y2205957D01*
X61498Y2206176D01*
X61074Y2206482D01*
X60388Y2206693D01*
X59739Y2206995D01*
X59222Y2207053D01*
X58723Y2207207D01*
X58005Y2207188D01*
X57293Y2207268D01*
X56784Y2207158D01*
X56263Y2207144D01*
X55588Y2206898D01*
X54888Y2206747D01*
X54440Y2206480D01*
X53951Y2206301D01*
X53390Y2205854D01*
X52775Y2205487D01*
X52436Y2205091D01*
X52028Y2204765D01*
X51639Y2204162D01*
X51173Y2203618D01*
X50978Y2203136D01*
X50695Y2202697D01*
X50519Y2202001D01*
X50250Y2201337D01*
X50171Y2200627D01*
X50091Y2200311D01*
X50109Y2200074D01*
X50063Y2199659D01*
X50052Y1800330D01*
X50167Y1799623D01*
X50186Y1798908D01*
X50364Y1798418D01*
X50449Y1797902D01*
X50784Y1797268D01*
X51029Y1796596D01*
X51355Y1796188D01*
X51599Y1795727D01*
X52119Y1795233D01*
X52566Y1794674D01*
X53005Y1794391D01*
X53383Y1794032D01*
X54033Y1793729D01*
X54635Y1793342D01*
X55141Y1793214D01*
X55614Y1792993D01*
X56326Y1792914D01*
X57020Y1792738D01*
X57542Y1792778D01*
X58060Y1792721D01*
X58759Y1792872D01*
X59474Y1792927D01*
X59955Y1793131D01*
X60465Y1793242D01*
X61080Y1793608D01*
X61739Y1793888D01*
X62299Y1794335D01*
X62579Y1794502D01*
X62733Y1794682D01*
X63059Y1794942D01*
X63091Y1794974D01*
X72573Y1801311D01*
X83110Y1805675D01*
X91250Y1807294D01*
X91250Y1751132D01*
X91282Y1750938D01*
X91260Y1750743D01*
X91392Y1750136D01*
X91250Y1748868D01*
X91250Y1692706D01*
X83110Y1694325D01*
X72573Y1698689D01*
X63091Y1705025D01*
X63056Y1705060D01*
X62473Y1705479D01*
X61956Y1705971D01*
X61483Y1706191D01*
X61058Y1706497D01*
X60373Y1706708D01*
X59725Y1707009D01*
X59206Y1707067D01*
X58706Y1707221D01*
X57990Y1707203D01*
X57279Y1707282D01*
X56768Y1707171D01*
X56246Y1707158D01*
X55574Y1706913D01*
X54874Y1706761D01*
X54425Y1706493D01*
X53934Y1706314D01*
X53375Y1705867D01*
X52760Y1705501D01*
X52420Y1705104D01*
X52012Y1704778D01*
X51625Y1704176D01*
X51159Y1703633D01*
X50963Y1703148D01*
X50680Y1702709D01*
X50505Y1702016D01*
X50236Y1701351D01*
X50157Y1700639D01*
X50077Y1700323D01*
X50095Y1700086D01*
X50049Y1699673D01*
X50038Y1300316D01*
X50153Y1299608D01*
X50172Y1298891D01*
X50350Y1298403D01*
X50435Y1297887D01*
X50771Y1297252D01*
X51016Y1296580D01*
X51341Y1296174D01*
X51585Y1295712D01*
X52105Y1295218D01*
X52553Y1294658D01*
X52992Y1294376D01*
X53369Y1294017D01*
X54019Y1293715D01*
X54623Y1293327D01*
X55128Y1293199D01*
X55600Y1292979D01*
X56312Y1292900D01*
X57008Y1292724D01*
X57529Y1292764D01*
X58046Y1292706D01*
X58746Y1292858D01*
X59462Y1292913D01*
X59942Y1293117D01*
X60451Y1293227D01*
X61066Y1293594D01*
X61727Y1293874D01*
X62285Y1294321D01*
X62565Y1294488D01*
X62720Y1294668D01*
X63046Y1294929D01*
X63091Y1294974D01*
X72573Y1301311D01*
X83110Y1305675D01*
X91250Y1307294D01*
X91250Y1251132D01*
X91282Y1250938D01*
X91260Y1250743D01*
X91392Y1250136D01*
X91250Y1248868D01*
X91250Y1192706D01*
X83110Y1194325D01*
X72573Y1198689D01*
X63091Y1205025D01*
X63043Y1205073D01*
X62461Y1205492D01*
X61941Y1205986D01*
X61469Y1206205D01*
X61045Y1206510D01*
X60360Y1206722D01*
X59710Y1207024D01*
X59192Y1207082D01*
X58693Y1207235D01*
X57976Y1207217D01*
X57265Y1207297D01*
X56756Y1207186D01*
X56233Y1207173D01*
X55559Y1206927D01*
X54859Y1206776D01*
X54412Y1206509D01*
X53922Y1206330D01*
X53361Y1205882D01*
X52746Y1205515D01*
X52407Y1205120D01*
X51999Y1204794D01*
X51610Y1204191D01*
X51144Y1203647D01*
X50949Y1203164D01*
X50666Y1202725D01*
X50490Y1202030D01*
X50222Y1201366D01*
X50142Y1200655D01*
X50063Y1200340D01*
X50081Y1200103D01*
X50034Y1199688D01*
X50023Y800302D01*
X50139Y799593D01*
X50158Y798877D01*
X50336Y798388D01*
X50420Y797873D01*
X50756Y797238D01*
X51002Y796566D01*
X51327Y796158D01*
X51571Y795698D01*
X52090Y795204D01*
X52539Y794644D01*
X52978Y794361D01*
X53355Y794003D01*
X54005Y793701D01*
X54608Y793312D01*
X55113Y793185D01*
X55586Y792965D01*
X56299Y792885D01*
X56994Y792710D01*
X57513Y792750D01*
X58032Y792692D01*
X58732Y792844D01*
X59448Y792899D01*
X59928Y793103D01*
X60437Y793213D01*
X61052Y793580D01*
X61713Y793860D01*
X62270Y794306D01*
X62550Y794473D01*
X62706Y794654D01*
X63032Y794915D01*
X63091Y794974D01*
X72573Y801311D01*
X83110Y805675D01*
X91250Y807294D01*
X91250Y751132D01*
X91282Y750938D01*
X91260Y750743D01*
X91392Y750136D01*
X91250Y748868D01*
X91250Y692706D01*
X83110Y694325D01*
X72573Y698689D01*
X63091Y705025D01*
X63029Y705088D01*
X62447Y705506D01*
X61927Y706000D01*
X61455Y706219D01*
X61031Y706524D01*
X60346Y706736D01*
X59696Y707038D01*
X59178Y707096D01*
X58679Y707249D01*
X57962Y707231D01*
X57251Y707311D01*
X56742Y707200D01*
X56219Y707187D01*
X55545Y706941D01*
X54845Y706790D01*
X54398Y706523D01*
X53908Y706344D01*
X53347Y705896D01*
X52732Y705529D01*
X52393Y705134D01*
X51985Y704808D01*
X51596Y704205D01*
X51130Y703661D01*
X50935Y703178D01*
X50652Y702739D01*
X50476Y702045D01*
X50208Y701380D01*
X50128Y700669D01*
X50048Y700354D01*
X50067Y700117D01*
X50020Y699702D01*
X50009Y295728D01*
X50048Y295491D01*
X50037Y295070D01*
X53287Y257567D01*
X53300Y257516D01*
X53297Y257464D01*
X53650Y255813D01*
X77421Y184574D01*
X77484Y184453D01*
X77505Y184355D01*
X77603Y184191D01*
X77673Y183920D01*
X78519Y182458D01*
X123141Y122051D01*
X123394Y121804D01*
X123583Y121507D01*
X124840Y120379D01*
X185944Y76718D01*
X186261Y76562D01*
X186533Y76337D01*
X188077Y75653D01*
X259683Y53011D01*
X259735Y53003D01*
X259781Y52981D01*
X261442Y52676D01*
X298988Y50019D01*
X299189Y50038D01*
X299525Y50000D01*
X299790Y50000D01*
X299815Y50004D01*
G37*
%LPC*%
G36*
X1532216Y556499D02*
X1532216Y556499D01*
X1520499Y568216D01*
X1520499Y639784D01*
X1532216Y651500D01*
X1679784Y651500D01*
X1692552Y638732D01*
X1693289Y638203D01*
X1693980Y637610D01*
X1694285Y637487D01*
X1694550Y637296D01*
X1695418Y637028D01*
X1696262Y636688D01*
X1696674Y636642D01*
X1696902Y636571D01*
X1697229Y636580D01*
X1697940Y636500D01*
X1789382Y636500D01*
X1790277Y636647D01*
X1791184Y636717D01*
X1791487Y636845D01*
X1791810Y636898D01*
X1792613Y637322D01*
X1793450Y637678D01*
X1793775Y637937D01*
X1793985Y638048D01*
X1794158Y638230D01*
X1794177Y638240D01*
X1794249Y638317D01*
X1794769Y638732D01*
X2215268Y1059230D01*
X2215798Y1059968D01*
X2216390Y1060658D01*
X2216513Y1060963D01*
X2216704Y1061229D01*
X2216972Y1062098D01*
X2217312Y1062940D01*
X2217358Y1063352D01*
X2217428Y1063580D01*
X2217420Y1063907D01*
X2217499Y1064618D01*
X2217499Y1155098D01*
X2217487Y1155175D01*
X2217489Y1155199D01*
X2217462Y1155324D01*
X2217353Y1155993D01*
X2217283Y1156901D01*
X2217155Y1157203D01*
X2217102Y1157526D01*
X2216678Y1158328D01*
X2216322Y1159166D01*
X2216063Y1159491D01*
X2215951Y1159701D01*
X2215715Y1159926D01*
X2215268Y1160485D01*
X2197499Y1178253D01*
X2197499Y1221746D01*
X2215268Y1239514D01*
X2215798Y1240252D01*
X2216390Y1240942D01*
X2216513Y1241247D01*
X2216704Y1241513D01*
X2216971Y1242380D01*
X2217312Y1243224D01*
X2217358Y1243637D01*
X2217428Y1243864D01*
X2217420Y1244191D01*
X2217499Y1244902D01*
X2217499Y1258382D01*
X2217353Y1259277D01*
X2217283Y1260184D01*
X2217155Y1260487D01*
X2217102Y1260810D01*
X2216678Y1261613D01*
X2216322Y1262450D01*
X2216063Y1262775D01*
X2215951Y1262985D01*
X2215715Y1263210D01*
X2215268Y1263769D01*
X2077499Y1401538D01*
X2077499Y1927380D01*
X2077468Y1927574D01*
X2077489Y1927769D01*
X2077269Y1928785D01*
X2077102Y1929808D01*
X2077010Y1929982D01*
X2076968Y1930174D01*
X2076438Y1931063D01*
X2075951Y1931984D01*
X2075809Y1932119D01*
X2075708Y1932288D01*
X2074921Y1932963D01*
X2074168Y1933679D01*
X2073989Y1933762D01*
X2073840Y1933890D01*
X2072876Y1934279D01*
X2071936Y1934717D01*
X2071741Y1934738D01*
X2071558Y1934812D01*
X2069880Y1934999D01*
X2066716Y1934999D01*
X2056447Y1945268D01*
X2055709Y1945798D01*
X2055019Y1946390D01*
X2054715Y1946513D01*
X2054449Y1946704D01*
X2053871Y1946882D01*
X2022499Y1978253D01*
X2022499Y2021746D01*
X2053834Y2053081D01*
X2054290Y2053322D01*
X2055128Y2053678D01*
X2055453Y2053937D01*
X2055663Y2054048D01*
X2055888Y2054285D01*
X2056447Y2054732D01*
X2066716Y2065000D01*
X2069880Y2065000D01*
X2070074Y2065032D01*
X2070269Y2065010D01*
X2071285Y2065230D01*
X2072308Y2065398D01*
X2072482Y2065490D01*
X2072674Y2065531D01*
X2073567Y2066063D01*
X2074484Y2066548D01*
X2074619Y2066691D01*
X2074788Y2066792D01*
X2075463Y2067579D01*
X2076179Y2068332D01*
X2076262Y2068510D01*
X2076390Y2068660D01*
X2076779Y2069624D01*
X2077217Y2070563D01*
X2077238Y2070758D01*
X2077312Y2070941D01*
X2077499Y2072620D01*
X2077499Y2384880D01*
X2077468Y2385074D01*
X2077489Y2385269D01*
X2077269Y2386285D01*
X2077102Y2387308D01*
X2077010Y2387482D01*
X2076968Y2387674D01*
X2076436Y2388567D01*
X2075951Y2389484D01*
X2075809Y2389619D01*
X2075708Y2389788D01*
X2074921Y2390463D01*
X2074168Y2391179D01*
X2073989Y2391262D01*
X2073840Y2391390D01*
X2072876Y2391779D01*
X2071936Y2392217D01*
X2071741Y2392238D01*
X2071558Y2392312D01*
X2069880Y2392499D01*
X1340120Y2392499D01*
X1339926Y2392468D01*
X1339730Y2392489D01*
X1338715Y2392269D01*
X1337691Y2392102D01*
X1337518Y2392010D01*
X1337325Y2391968D01*
X1336433Y2391436D01*
X1335516Y2390951D01*
X1335380Y2390809D01*
X1335212Y2390708D01*
X1334537Y2389921D01*
X1333821Y2389168D01*
X1333738Y2388989D01*
X1333610Y2388840D01*
X1333220Y2387876D01*
X1332783Y2386936D01*
X1332761Y2386741D01*
X1332688Y2386558D01*
X1332500Y2384880D01*
X1332500Y2160120D01*
X1332532Y2159926D01*
X1332510Y2159730D01*
X1332730Y2158715D01*
X1332898Y2157691D01*
X1332990Y2157518D01*
X1333031Y2157325D01*
X1333563Y2156433D01*
X1334048Y2155516D01*
X1334191Y2155380D01*
X1334292Y2155212D01*
X1335079Y2154537D01*
X1335832Y2153821D01*
X1336010Y2153738D01*
X1336160Y2153610D01*
X1337124Y2153220D01*
X1338063Y2152783D01*
X1338258Y2152761D01*
X1338441Y2152688D01*
X1340120Y2152500D01*
X1340784Y2152500D01*
X1352500Y2140784D01*
X1352500Y2139233D01*
X1352539Y2138996D01*
X1352515Y2138757D01*
X1352737Y2137786D01*
X1352898Y2136805D01*
X1353010Y2136593D01*
X1353064Y2136358D01*
X1353584Y2135508D01*
X1354048Y2134630D01*
X1354223Y2134464D01*
X1354348Y2134259D01*
X1355111Y2133620D01*
X1355832Y2132935D01*
X1356050Y2132833D01*
X1356235Y2132679D01*
X1357163Y2132316D01*
X1358063Y2131897D01*
X1358302Y2131870D01*
X1358527Y2131783D01*
X1359520Y2131734D01*
X1360509Y2131624D01*
X1360744Y2131675D01*
X1360984Y2131663D01*
X1361941Y2131934D01*
X1362914Y2132145D01*
X1363121Y2132268D01*
X1363352Y2132334D01*
X1364174Y2132897D01*
X1365028Y2133405D01*
X1365184Y2133588D01*
X1365383Y2133724D01*
X1365982Y2134518D01*
X1366629Y2135273D01*
X1366720Y2135497D01*
X1366864Y2135689D01*
X1367479Y2137262D01*
X1368830Y2142303D01*
X1372175Y2148096D01*
X1376903Y2152825D01*
X1382696Y2156169D01*
X1389156Y2157900D01*
X1412331Y2157900D01*
X1412315Y2157534D01*
X1412533Y2156784D01*
X1412658Y2156014D01*
X1412872Y2155610D01*
X1412999Y2155170D01*
X1413444Y2154528D01*
X1413809Y2153838D01*
X1414141Y2153523D01*
X1414401Y2153148D01*
X1415026Y2152682D01*
X1415593Y2152143D01*
X1416008Y2151950D01*
X1416374Y2151678D01*
X1417116Y2151435D01*
X1417824Y2151106D01*
X1418278Y2151055D01*
X1418713Y2150913D01*
X1419494Y2150919D01*
X1420270Y2150833D01*
X1420717Y2150930D01*
X1421174Y2150933D01*
X1422483Y2151312D01*
X1422675Y2151354D01*
X1422720Y2151381D01*
X1422796Y2151403D01*
X1433112Y2155676D01*
X1436606Y2156371D01*
X1437245Y2156610D01*
X1437913Y2156755D01*
X1438390Y2157039D01*
X1438910Y2157234D01*
X1439441Y2157666D01*
X1439833Y2157900D01*
X1443545Y2157900D01*
X1443547Y2157900D01*
X1448867Y2157900D01*
X1448869Y2157900D01*
X1451130Y2157900D01*
X1451132Y2157900D01*
X1456451Y2157900D01*
X1456454Y2157900D01*
X1465844Y2157900D01*
X1472303Y2156169D01*
X1478097Y2152825D01*
X1483479Y2147442D01*
X1483682Y2147297D01*
X1484634Y2146494D01*
X1486908Y2144975D01*
X1494974Y2136909D01*
X1501311Y2127426D01*
X1505675Y2116889D01*
X1507294Y2108749D01*
X1495520Y2108749D01*
X1495326Y2108718D01*
X1495130Y2108739D01*
X1494115Y2108519D01*
X1493091Y2108352D01*
X1492918Y2108260D01*
X1492725Y2108218D01*
X1491833Y2107686D01*
X1490916Y2107201D01*
X1490780Y2107059D01*
X1490612Y2106958D01*
X1489937Y2106171D01*
X1489221Y2105418D01*
X1489138Y2105239D01*
X1489010Y2105090D01*
X1488620Y2104126D01*
X1488183Y2103186D01*
X1488161Y2102991D01*
X1488088Y2102808D01*
X1487900Y2101130D01*
X1487900Y2098869D01*
X1487932Y2098675D01*
X1487910Y2098480D01*
X1488130Y2097465D01*
X1488298Y2096441D01*
X1488390Y2096268D01*
X1488431Y2096075D01*
X1488963Y2095183D01*
X1489448Y2094266D01*
X1489591Y2094130D01*
X1489692Y2093962D01*
X1490479Y2093287D01*
X1491232Y2092571D01*
X1491410Y2092488D01*
X1491560Y2092360D01*
X1492524Y2091970D01*
X1493463Y2091533D01*
X1493658Y2091511D01*
X1493841Y2091437D01*
X1495520Y2091250D01*
X1507294Y2091250D01*
X1505675Y2083110D01*
X1501311Y2072573D01*
X1497408Y2066733D01*
X1496924Y2065669D01*
X1496424Y2064619D01*
X1496417Y2064553D01*
X1496389Y2064493D01*
X1496269Y2063328D01*
X1496131Y2062175D01*
X1496144Y2062111D01*
X1496137Y2062045D01*
X1496393Y2060913D01*
X1496631Y2059766D01*
X1496668Y2059695D01*
X1496679Y2059645D01*
X1496779Y2059481D01*
X1497408Y2058266D01*
X1501310Y2052427D01*
X1505675Y2041889D01*
X1507294Y2033749D01*
X1491177Y2033749D01*
X1490513Y2033641D01*
X1489841Y2033631D01*
X1489307Y2033443D01*
X1488748Y2033352D01*
X1488154Y2033038D01*
X1487519Y2032814D01*
X1487073Y2032466D01*
X1486573Y2032201D01*
X1486109Y2031713D01*
X1485580Y2031300D01*
X1485109Y2030661D01*
X1484878Y2030418D01*
X1484789Y2030226D01*
X1484578Y2029940D01*
X1483926Y2028810D01*
X1483688Y2028180D01*
X1483359Y2027593D01*
X1483255Y2027036D01*
X1483056Y2026508D01*
X1483031Y2025838D01*
X1482907Y2025174D01*
X1482985Y2024613D01*
X1482964Y2024049D01*
X1483155Y2023405D01*
X1483248Y2022738D01*
X1483567Y2022010D01*
X1483662Y2021689D01*
X1483783Y2021517D01*
X1483926Y2021190D01*
X1484578Y2020059D01*
X1485005Y2019538D01*
X1485349Y2018962D01*
X1485778Y2018593D01*
X1486137Y2018155D01*
X1486706Y2017798D01*
X1487217Y2017360D01*
X1487742Y2017148D01*
X1488221Y2016847D01*
X1488875Y2016689D01*
X1489498Y2016437D01*
X1490289Y2016349D01*
X1490613Y2016271D01*
X1490823Y2016289D01*
X1491177Y2016250D01*
X1507294Y2016250D01*
X1505675Y2008110D01*
X1501311Y1997573D01*
X1494974Y1988091D01*
X1490132Y1983248D01*
X1489602Y1982510D01*
X1489010Y1981821D01*
X1488887Y1981516D01*
X1488696Y1981250D01*
X1488428Y1980381D01*
X1488088Y1979539D01*
X1488042Y1979127D01*
X1487971Y1978898D01*
X1487980Y1978572D01*
X1487900Y1977861D01*
X1487900Y1977738D01*
X1485798Y1977738D01*
X1485636Y1977712D01*
X1485473Y1977732D01*
X1484422Y1977513D01*
X1483369Y1977341D01*
X1483225Y1977265D01*
X1483064Y1977231D01*
X1481564Y1976454D01*
X1477426Y1973689D01*
X1466889Y1969325D01*
X1458749Y1967706D01*
X1458749Y1970119D01*
X1458720Y1970298D01*
X1458739Y1970472D01*
X1458737Y1970484D01*
X1458739Y1970508D01*
X1458519Y1971524D01*
X1458352Y1972548D01*
X1458260Y1972721D01*
X1458218Y1972913D01*
X1457686Y1973806D01*
X1457201Y1974723D01*
X1457059Y1974858D01*
X1456958Y1975027D01*
X1456171Y1975702D01*
X1455418Y1976418D01*
X1455239Y1976501D01*
X1455090Y1976629D01*
X1454126Y1977018D01*
X1453186Y1977456D01*
X1452991Y1977478D01*
X1452808Y1977551D01*
X1451130Y1977738D01*
X1448869Y1977738D01*
X1448675Y1977707D01*
X1448480Y1977728D01*
X1447465Y1977508D01*
X1446441Y1977341D01*
X1446268Y1977249D01*
X1446075Y1977208D01*
X1445183Y1976675D01*
X1444266Y1976190D01*
X1444130Y1976048D01*
X1443962Y1975947D01*
X1443287Y1975160D01*
X1442571Y1974407D01*
X1442488Y1974228D01*
X1442360Y1974079D01*
X1441970Y1973115D01*
X1441533Y1972175D01*
X1441511Y1971980D01*
X1441437Y1971798D01*
X1441250Y1970119D01*
X1441250Y1967706D01*
X1436608Y1968629D01*
X1435665Y1968661D01*
X1434732Y1968765D01*
X1434443Y1968703D01*
X1434148Y1968713D01*
X1433247Y1968444D01*
X1432327Y1968244D01*
X1432073Y1968093D01*
X1431790Y1968009D01*
X1431020Y1967465D01*
X1430213Y1966984D01*
X1430021Y1966760D01*
X1429780Y1966590D01*
X1429224Y1965831D01*
X1428611Y1965116D01*
X1428501Y1964842D01*
X1428326Y1964604D01*
X1428042Y1963707D01*
X1427689Y1962834D01*
X1427648Y1962466D01*
X1427582Y1962258D01*
X1427588Y1961926D01*
X1427502Y1961156D01*
X1427502Y1954880D01*
X1427533Y1954686D01*
X1427512Y1954491D01*
X1427732Y1953476D01*
X1427899Y1952452D01*
X1427991Y1952278D01*
X1428033Y1952086D01*
X1428565Y1951194D01*
X1429050Y1950277D01*
X1429192Y1950141D01*
X1429293Y1949973D01*
X1430080Y1949298D01*
X1430833Y1948582D01*
X1431012Y1948499D01*
X1431161Y1948371D01*
X1432125Y1947981D01*
X1433065Y1947544D01*
X1433260Y1947522D01*
X1433443Y1947448D01*
X1435121Y1947261D01*
X1487900Y1947261D01*
X1487900Y1920120D01*
X1487932Y1919926D01*
X1487910Y1919730D01*
X1488130Y1918715D01*
X1488298Y1917691D01*
X1488390Y1917518D01*
X1488431Y1917325D01*
X1488963Y1916433D01*
X1489448Y1915516D01*
X1489591Y1915380D01*
X1489692Y1915212D01*
X1490479Y1914537D01*
X1491232Y1913821D01*
X1491410Y1913738D01*
X1491560Y1913610D01*
X1492524Y1913220D01*
X1493463Y1912783D01*
X1493658Y1912761D01*
X1493841Y1912688D01*
X1495520Y1912500D01*
X1563382Y1912500D01*
X1564277Y1912647D01*
X1565184Y1912717D01*
X1565487Y1912845D01*
X1565810Y1912898D01*
X1566613Y1913322D01*
X1567450Y1913678D01*
X1567775Y1913937D01*
X1567985Y1914048D01*
X1568210Y1914285D01*
X1568769Y1914732D01*
X1695268Y2041230D01*
X1695738Y2041885D01*
X1695837Y2041989D01*
X1695862Y2042043D01*
X1696390Y2042658D01*
X1696513Y2042963D01*
X1696704Y2043229D01*
X1696972Y2044098D01*
X1697312Y2044940D01*
X1697358Y2045352D01*
X1697428Y2045580D01*
X1697420Y2045906D01*
X1697499Y2046618D01*
X1697499Y2071746D01*
X1728253Y2102500D01*
X1771746Y2102500D01*
X1794612Y2079634D01*
X1794773Y2079519D01*
X1794895Y2079366D01*
X1795765Y2078806D01*
X1796611Y2078198D01*
X1796799Y2078140D01*
X1796964Y2078034D01*
X1797967Y2077780D01*
X1798962Y2077474D01*
X1799159Y2077479D01*
X1799349Y2077431D01*
X1800387Y2077510D01*
X1801422Y2077537D01*
X1801606Y2077604D01*
X1801803Y2077619D01*
X1802761Y2078025D01*
X1803734Y2078380D01*
X1803888Y2078503D01*
X1804068Y2078580D01*
X1805388Y2079634D01*
X1828253Y2102500D01*
X1858142Y2102500D01*
X1858849Y2102616D01*
X1859564Y2102634D01*
X1860055Y2102813D01*
X1860571Y2102898D01*
X1861203Y2103232D01*
X1861876Y2103478D01*
X1862284Y2103804D01*
X1862746Y2104048D01*
X1863239Y2104568D01*
X1863798Y2105014D01*
X1864080Y2105453D01*
X1864441Y2105832D01*
X1864743Y2106483D01*
X1865130Y2107083D01*
X1865258Y2107590D01*
X1865479Y2108063D01*
X1865558Y2108775D01*
X1865734Y2109469D01*
X1865694Y2109990D01*
X1865752Y2110509D01*
X1865600Y2111208D01*
X1865545Y2111923D01*
X1865341Y2112404D01*
X1865231Y2112914D01*
X1864864Y2113529D01*
X1864584Y2114188D01*
X1864137Y2114748D01*
X1863970Y2115028D01*
X1863790Y2115182D01*
X1863530Y2115508D01*
X1783769Y2195268D01*
X1783031Y2195798D01*
X1782342Y2196390D01*
X1782037Y2196513D01*
X1781771Y2196704D01*
X1780902Y2196972D01*
X1780060Y2197312D01*
X1779648Y2197358D01*
X1779419Y2197428D01*
X1779093Y2197420D01*
X1778382Y2197499D01*
X1753253Y2197499D01*
X1722499Y2228253D01*
X1722499Y2271747D01*
X1730245Y2279492D01*
X1730663Y2280073D01*
X1731157Y2280593D01*
X1731377Y2281067D01*
X1731682Y2281490D01*
X1731893Y2282174D01*
X1732194Y2282824D01*
X1732252Y2283342D01*
X1732406Y2283842D01*
X1732388Y2284559D01*
X1732467Y2285269D01*
X1732357Y2285779D01*
X1732343Y2286302D01*
X1732098Y2286976D01*
X1731946Y2287674D01*
X1731679Y2288123D01*
X1731500Y2288614D01*
X1731053Y2289173D01*
X1730686Y2289788D01*
X1730289Y2290128D01*
X1729963Y2290536D01*
X1729362Y2290923D01*
X1728818Y2291390D01*
X1728333Y2291586D01*
X1727894Y2291868D01*
X1727201Y2292044D01*
X1726536Y2292312D01*
X1725825Y2292392D01*
X1725508Y2292472D01*
X1725271Y2292453D01*
X1724858Y2292499D01*
X1641618Y2292499D01*
X1640723Y2292353D01*
X1639815Y2292283D01*
X1639513Y2292155D01*
X1639190Y2292102D01*
X1638387Y2291678D01*
X1637550Y2291322D01*
X1637225Y2291063D01*
X1637014Y2290951D01*
X1636790Y2290715D01*
X1636230Y2290268D01*
X1604732Y2258769D01*
X1604202Y2258031D01*
X1603610Y2257342D01*
X1603487Y2257037D01*
X1603296Y2256771D01*
X1603028Y2255902D01*
X1602688Y2255060D01*
X1602642Y2254648D01*
X1602571Y2254419D01*
X1602580Y2254093D01*
X1602500Y2253382D01*
X1602500Y2228253D01*
X1571746Y2197499D01*
X1528253Y2197499D01*
X1497499Y2228253D01*
X1497499Y2271746D01*
X1528253Y2302500D01*
X1553382Y2302500D01*
X1554277Y2302647D01*
X1555184Y2302717D01*
X1555487Y2302845D01*
X1555810Y2302898D01*
X1556613Y2303322D01*
X1557450Y2303678D01*
X1557775Y2303937D01*
X1557985Y2304048D01*
X1558210Y2304285D01*
X1558769Y2304732D01*
X1611538Y2357500D01*
X1813462Y2357500D01*
X1992500Y2178462D01*
X1992500Y1382038D01*
X1934732Y1324269D01*
X1934202Y1323531D01*
X1933610Y1322842D01*
X1933487Y1322537D01*
X1933296Y1322271D01*
X1933028Y1321402D01*
X1932688Y1320560D01*
X1932642Y1320148D01*
X1932571Y1319919D01*
X1932580Y1319593D01*
X1932500Y1318882D01*
X1932500Y1293753D01*
X1901746Y1262999D01*
X1858253Y1262999D01*
X1827499Y1293753D01*
X1827499Y1337246D01*
X1858253Y1368000D01*
X1883382Y1368000D01*
X1884277Y1368147D01*
X1885184Y1368217D01*
X1885487Y1368345D01*
X1885810Y1368398D01*
X1886613Y1368822D01*
X1887450Y1369178D01*
X1887775Y1369437D01*
X1887985Y1369548D01*
X1888122Y1369692D01*
X1888137Y1369700D01*
X1888241Y1369810D01*
X1888769Y1370232D01*
X1925268Y1406730D01*
X1925798Y1407468D01*
X1926390Y1408158D01*
X1926513Y1408463D01*
X1926704Y1408729D01*
X1926972Y1409598D01*
X1927312Y1410440D01*
X1927358Y1410852D01*
X1927428Y1411080D01*
X1927420Y1411407D01*
X1927499Y1412118D01*
X1927499Y1732578D01*
X1927384Y1733285D01*
X1927365Y1734000D01*
X1927186Y1734491D01*
X1927102Y1735006D01*
X1926768Y1735638D01*
X1926522Y1736312D01*
X1926195Y1736720D01*
X1925951Y1737182D01*
X1925433Y1737674D01*
X1924985Y1738234D01*
X1924547Y1738516D01*
X1924168Y1738877D01*
X1923517Y1739179D01*
X1922916Y1739566D01*
X1922410Y1739694D01*
X1921936Y1739914D01*
X1921225Y1739994D01*
X1920531Y1740169D01*
X1920009Y1740129D01*
X1919491Y1740187D01*
X1918792Y1740036D01*
X1918077Y1739981D01*
X1917596Y1739777D01*
X1917086Y1739666D01*
X1916471Y1739300D01*
X1915812Y1739020D01*
X1915252Y1738573D01*
X1914972Y1738406D01*
X1914818Y1738226D01*
X1914492Y1737966D01*
X1684732Y1508205D01*
X1684202Y1507467D01*
X1683610Y1506777D01*
X1683487Y1506473D01*
X1683296Y1506207D01*
X1683028Y1505338D01*
X1682688Y1504496D01*
X1682642Y1504083D01*
X1682571Y1503855D01*
X1682580Y1503528D01*
X1682500Y1502817D01*
X1682500Y894903D01*
X1682647Y894007D01*
X1682717Y893100D01*
X1682845Y892797D01*
X1682898Y892474D01*
X1683322Y891672D01*
X1683678Y890834D01*
X1683937Y890509D01*
X1684048Y890299D01*
X1684285Y890074D01*
X1684732Y889515D01*
X1702500Y871746D01*
X1702500Y828253D01*
X1693732Y819485D01*
X1693202Y818747D01*
X1692610Y818057D01*
X1692487Y817753D01*
X1692296Y817487D01*
X1692028Y816618D01*
X1691688Y815776D01*
X1691642Y815363D01*
X1691571Y815135D01*
X1691580Y814808D01*
X1691500Y814097D01*
X1691500Y760216D01*
X1679784Y748499D01*
X1532216Y748499D01*
X1520499Y760216D01*
X1520499Y831784D01*
X1532216Y843500D01*
X1589880Y843500D01*
X1590074Y843532D01*
X1590269Y843510D01*
X1591285Y843730D01*
X1592308Y843898D01*
X1592482Y843990D01*
X1592674Y844031D01*
X1593567Y844563D01*
X1594484Y845048D01*
X1594619Y845191D01*
X1594788Y845292D01*
X1595463Y846079D01*
X1596179Y846832D01*
X1596262Y847010D01*
X1596390Y847160D01*
X1596779Y848124D01*
X1597217Y849063D01*
X1597238Y849258D01*
X1597312Y849441D01*
X1597499Y851120D01*
X1597499Y871746D01*
X1615268Y889515D01*
X1615798Y890253D01*
X1616390Y890943D01*
X1616513Y891247D01*
X1616704Y891513D01*
X1616972Y892382D01*
X1617312Y893224D01*
X1617358Y893637D01*
X1617428Y893865D01*
X1617420Y894191D01*
X1617499Y894903D01*
X1617499Y1532898D01*
X1880268Y1795666D01*
X1880798Y1796404D01*
X1881390Y1797094D01*
X1881513Y1797398D01*
X1881704Y1797664D01*
X1881972Y1798533D01*
X1882312Y1799375D01*
X1882358Y1799788D01*
X1882428Y1800016D01*
X1882420Y1800343D01*
X1882499Y1801054D01*
X1882499Y1851218D01*
X1882384Y1851925D01*
X1882365Y1852640D01*
X1882186Y1853131D01*
X1882102Y1853646D01*
X1881768Y1854278D01*
X1881522Y1854952D01*
X1881195Y1855360D01*
X1880951Y1855822D01*
X1880432Y1856315D01*
X1879985Y1856874D01*
X1879547Y1857156D01*
X1879168Y1857517D01*
X1878517Y1857819D01*
X1877916Y1858206D01*
X1877410Y1858334D01*
X1876936Y1858554D01*
X1876225Y1858634D01*
X1875531Y1858809D01*
X1875009Y1858769D01*
X1874491Y1858827D01*
X1873792Y1858676D01*
X1873077Y1858621D01*
X1872596Y1858417D01*
X1872086Y1858306D01*
X1871471Y1857940D01*
X1870812Y1857660D01*
X1870252Y1857213D01*
X1869972Y1857046D01*
X1869818Y1856866D01*
X1869492Y1856606D01*
X1676656Y1663769D01*
X1655386Y1642499D01*
X465520Y1642499D01*
X465326Y1642468D01*
X465130Y1642489D01*
X464115Y1642269D01*
X463091Y1642102D01*
X462918Y1642010D01*
X462725Y1641968D01*
X461833Y1641436D01*
X460916Y1640951D01*
X460780Y1640809D01*
X460612Y1640708D01*
X459937Y1639921D01*
X459221Y1639168D01*
X459138Y1638989D01*
X459010Y1638840D01*
X458620Y1637876D01*
X458556Y1637738D01*
X450592Y1637738D01*
X449663Y1637587D01*
X448725Y1637506D01*
X448454Y1637388D01*
X448163Y1637341D01*
X447333Y1636902D01*
X446468Y1636526D01*
X446248Y1636328D01*
X445988Y1636190D01*
X445340Y1635509D01*
X444641Y1634878D01*
X444497Y1634621D01*
X444293Y1634407D01*
X443895Y1633552D01*
X443435Y1632733D01*
X443380Y1632443D01*
X443255Y1632175D01*
X443151Y1631240D01*
X442975Y1630315D01*
X443006Y1629946D01*
X442982Y1629730D01*
X443053Y1629404D01*
X443119Y1628633D01*
X443294Y1627749D01*
X395121Y1627749D01*
X394927Y1627718D01*
X394732Y1627739D01*
X394269Y1627639D01*
X394467Y1628065D01*
X394488Y1628260D01*
X394562Y1628443D01*
X394749Y1630121D01*
X394749Y1676465D01*
X395508Y1676380D01*
X395797Y1676443D01*
X396092Y1676433D01*
X396993Y1676702D01*
X397913Y1676901D01*
X398167Y1677052D01*
X398450Y1677137D01*
X399219Y1677679D01*
X400027Y1678161D01*
X400219Y1678385D01*
X400460Y1678556D01*
X401015Y1679314D01*
X401629Y1680029D01*
X401740Y1680304D01*
X401913Y1680541D01*
X402198Y1681436D01*
X402551Y1682311D01*
X402593Y1682680D01*
X402658Y1682887D01*
X402653Y1683219D01*
X402738Y1683989D01*
X402738Y1685880D01*
X402707Y1686074D01*
X402728Y1686269D01*
X402508Y1687285D01*
X402341Y1688308D01*
X402249Y1688482D01*
X402208Y1688674D01*
X401675Y1689567D01*
X401190Y1690484D01*
X401048Y1690619D01*
X400947Y1690788D01*
X400161Y1691462D01*
X399407Y1692179D01*
X399228Y1692262D01*
X399079Y1692390D01*
X398115Y1692779D01*
X397175Y1693217D01*
X396980Y1693238D01*
X396798Y1693312D01*
X395119Y1693499D01*
X379880Y1693499D01*
X379686Y1693468D01*
X379491Y1693489D01*
X378476Y1693269D01*
X377452Y1693102D01*
X377278Y1693010D01*
X377086Y1692968D01*
X376194Y1692436D01*
X375277Y1691951D01*
X375141Y1691809D01*
X374973Y1691708D01*
X374298Y1690921D01*
X373582Y1690168D01*
X373499Y1689989D01*
X373371Y1689840D01*
X372981Y1688876D01*
X372544Y1687936D01*
X372522Y1687741D01*
X372448Y1687558D01*
X372261Y1685880D01*
X372261Y1684520D01*
X372293Y1684326D01*
X372271Y1684130D01*
X372491Y1683115D01*
X372658Y1682091D01*
X372750Y1681918D01*
X372792Y1681725D01*
X373324Y1680833D01*
X373809Y1679916D01*
X373952Y1679780D01*
X374052Y1679612D01*
X374839Y1678937D01*
X375593Y1678221D01*
X375771Y1678138D01*
X375920Y1678010D01*
X376884Y1677620D01*
X377250Y1677450D01*
X377250Y1630121D01*
X377282Y1629927D01*
X377260Y1629732D01*
X377480Y1628716D01*
X377638Y1627749D01*
X328705Y1627749D01*
X328881Y1628633D01*
X328913Y1629572D01*
X329018Y1630508D01*
X328955Y1630797D01*
X328965Y1631092D01*
X328696Y1631993D01*
X328497Y1632913D01*
X328345Y1633167D01*
X328261Y1633450D01*
X327718Y1634219D01*
X327236Y1635027D01*
X327012Y1635219D01*
X326842Y1635460D01*
X326083Y1636016D01*
X325368Y1636629D01*
X325094Y1636739D01*
X324856Y1636914D01*
X323959Y1637198D01*
X323087Y1637551D01*
X322718Y1637593D01*
X322511Y1637658D01*
X322178Y1637653D01*
X321408Y1637738D01*
X317099Y1637738D01*
X317099Y1660844D01*
X318830Y1667303D01*
X322175Y1673096D01*
X326903Y1677825D01*
X332696Y1681169D01*
X337738Y1682520D01*
X337957Y1682619D01*
X338194Y1682658D01*
X339071Y1683122D01*
X339981Y1683533D01*
X340157Y1683697D01*
X340369Y1683809D01*
X341056Y1684531D01*
X341784Y1685207D01*
X341898Y1685418D01*
X342064Y1685593D01*
X342485Y1686496D01*
X342959Y1687369D01*
X343001Y1687606D01*
X343102Y1687824D01*
X343213Y1688813D01*
X343384Y1689793D01*
X343348Y1690030D01*
X343375Y1690269D01*
X343164Y1691242D01*
X343015Y1692226D01*
X342905Y1692440D01*
X342854Y1692674D01*
X342345Y1693528D01*
X341889Y1694414D01*
X341717Y1694582D01*
X341594Y1694788D01*
X340840Y1695434D01*
X340125Y1696129D01*
X339909Y1696233D01*
X339726Y1696390D01*
X338800Y1696764D01*
X337906Y1697193D01*
X337668Y1697222D01*
X337444Y1697312D01*
X335766Y1697499D01*
X334216Y1697499D01*
X322499Y1709216D01*
X322499Y1795784D01*
X334216Y1807500D01*
X359358Y1807500D01*
X360065Y1807616D01*
X360780Y1807634D01*
X361271Y1807813D01*
X361786Y1807898D01*
X362418Y1808232D01*
X363092Y1808478D01*
X363501Y1808805D01*
X363962Y1809048D01*
X364455Y1809568D01*
X365014Y1810014D01*
X365296Y1810453D01*
X365657Y1810832D01*
X365959Y1811483D01*
X366346Y1812083D01*
X366474Y1812590D01*
X366694Y1813063D01*
X366774Y1813775D01*
X366949Y1814469D01*
X366909Y1814990D01*
X366967Y1815509D01*
X366816Y1816208D01*
X366761Y1816923D01*
X366557Y1817404D01*
X366446Y1817914D01*
X366080Y1818529D01*
X365800Y1819188D01*
X365353Y1819748D01*
X365186Y1820028D01*
X365006Y1820182D01*
X364746Y1820508D01*
X346985Y1838268D01*
X346247Y1838798D01*
X345557Y1839390D01*
X345253Y1839513D01*
X344987Y1839704D01*
X344118Y1839972D01*
X343276Y1840312D01*
X342863Y1840358D01*
X342635Y1840428D01*
X342308Y1840420D01*
X341597Y1840499D01*
X286538Y1840499D01*
X267499Y1859538D01*
X267499Y2197462D01*
X286538Y2216500D01*
X876380Y2216500D01*
X876574Y2216532D01*
X876769Y2216510D01*
X877785Y2216730D01*
X878808Y2216898D01*
X878982Y2216990D01*
X879174Y2217031D01*
X880067Y2217563D01*
X880984Y2218048D01*
X881119Y2218191D01*
X881288Y2218292D01*
X881963Y2219079D01*
X882679Y2219832D01*
X882762Y2220010D01*
X882890Y2220160D01*
X883279Y2221124D01*
X883717Y2222063D01*
X883738Y2222258D01*
X883812Y2222441D01*
X883999Y2224120D01*
X883999Y2227284D01*
X895268Y2238553D01*
X895798Y2239291D01*
X896390Y2239980D01*
X896513Y2240285D01*
X896704Y2240551D01*
X896972Y2241420D01*
X897312Y2242262D01*
X897358Y2242674D01*
X897428Y2242903D01*
X897420Y2243229D01*
X897499Y2243940D01*
X897499Y2259246D01*
X928253Y2290000D01*
X971746Y2290000D01*
X1002500Y2259246D01*
X1002500Y2241940D01*
X1002647Y2241045D01*
X1002717Y2240138D01*
X1002845Y2239835D01*
X1002898Y2239512D01*
X1003322Y2238709D01*
X1003678Y2237872D01*
X1003937Y2237547D01*
X1004048Y2237337D01*
X1004285Y2237112D01*
X1004732Y2236553D01*
X1014000Y2227284D01*
X1014000Y2224120D01*
X1014032Y2223926D01*
X1014010Y2223730D01*
X1014230Y2222715D01*
X1014398Y2221691D01*
X1014490Y2221518D01*
X1014531Y2221325D01*
X1015063Y2220433D01*
X1015548Y2219516D01*
X1015691Y2219380D01*
X1015792Y2219212D01*
X1016579Y2218537D01*
X1017332Y2217821D01*
X1017510Y2217738D01*
X1017660Y2217610D01*
X1018624Y2217220D01*
X1019563Y2216783D01*
X1019758Y2216761D01*
X1019941Y2216688D01*
X1021620Y2216500D01*
X1259880Y2216500D01*
X1260074Y2216532D01*
X1260269Y2216510D01*
X1261285Y2216730D01*
X1262308Y2216898D01*
X1262482Y2216990D01*
X1262674Y2217031D01*
X1263567Y2217563D01*
X1264484Y2218048D01*
X1264619Y2218191D01*
X1264788Y2218292D01*
X1265463Y2219079D01*
X1266179Y2219832D01*
X1266262Y2220010D01*
X1266390Y2220160D01*
X1266779Y2221124D01*
X1267217Y2222063D01*
X1267238Y2222258D01*
X1267312Y2222441D01*
X1267499Y2224120D01*
X1267499Y2438462D01*
X1286538Y2457500D01*
X1695463Y2457500D01*
X1696402Y2457654D01*
X1697351Y2457738D01*
X1697612Y2457852D01*
X1697892Y2457898D01*
X1698732Y2458342D01*
X1699605Y2458725D01*
X1699816Y2458916D01*
X1700067Y2459048D01*
X1700723Y2459739D01*
X1701428Y2460378D01*
X1701566Y2460626D01*
X1701762Y2460832D01*
X1702163Y2461695D01*
X1702628Y2462527D01*
X1702680Y2462807D01*
X1702800Y2463063D01*
X1702905Y2464008D01*
X1703081Y2464946D01*
X1703041Y2465228D01*
X1703073Y2465509D01*
X1702871Y2466438D01*
X1702739Y2467383D01*
X1702596Y2467708D01*
X1702552Y2467914D01*
X1702425Y2468126D01*
X1702423Y2468137D01*
X1702370Y2468226D01*
X1702062Y2468930D01*
X1701330Y2470196D01*
X1699599Y2476656D01*
X1699599Y2493900D01*
X1699571Y2494075D01*
X1699591Y2494251D01*
X1699448Y2494927D01*
X1699446Y2495258D01*
X1699288Y2495803D01*
X1699202Y2496329D01*
X1699119Y2496485D01*
X1699083Y2496658D01*
X1698988Y2496839D01*
X1698976Y2496880D01*
X1694325Y2508110D01*
X1692706Y2516250D01*
X1748868Y2516250D01*
X1749062Y2516282D01*
X1749257Y2516260D01*
X1749864Y2516392D01*
X1751132Y2516250D01*
X1752379Y2516250D01*
X1752573Y2516282D01*
X1752768Y2516260D01*
X1753783Y2516480D01*
X1754807Y2516648D01*
X1754981Y2516739D01*
X1755173Y2516781D01*
X1756065Y2517313D01*
X1756983Y2517798D01*
X1757118Y2517941D01*
X1757287Y2518041D01*
X1757962Y2518828D01*
X1758678Y2519582D01*
X1758760Y2519760D01*
X1758888Y2519909D01*
X1759278Y2520873D01*
X1759715Y2521813D01*
X1759737Y2522008D01*
X1759811Y2522191D01*
X1759998Y2523869D01*
X1759998Y2526130D01*
X1759966Y2526324D01*
X1759988Y2526519D01*
X1759768Y2527535D01*
X1759601Y2528558D01*
X1759509Y2528732D01*
X1759467Y2528924D01*
X1758935Y2529817D01*
X1758450Y2530734D01*
X1758308Y2530869D01*
X1758207Y2531038D01*
X1757420Y2531713D01*
X1756666Y2532429D01*
X1756488Y2532512D01*
X1756339Y2532640D01*
X1755375Y2533029D01*
X1754435Y2533467D01*
X1754240Y2533488D01*
X1754057Y2533562D01*
X1752379Y2533749D01*
X1751132Y2533749D01*
X1750938Y2533718D01*
X1750743Y2533739D01*
X1750136Y2533608D01*
X1748868Y2533749D01*
X1692706Y2533749D01*
X1694325Y2541889D01*
X1698976Y2553119D01*
X1699071Y2553523D01*
X1699327Y2554081D01*
X1699346Y2554257D01*
X1699412Y2554421D01*
X1699530Y2555481D01*
X1699538Y2555515D01*
X1699537Y2555536D01*
X1699599Y2556099D01*
X1699599Y2573344D01*
X1701330Y2579803D01*
X1704675Y2585596D01*
X1709403Y2590325D01*
X1715196Y2593669D01*
X1721656Y2595400D01*
X1744761Y2595400D01*
X1744761Y2590520D01*
X1744793Y2590326D01*
X1744771Y2590130D01*
X1744991Y2589115D01*
X1745158Y2588091D01*
X1745250Y2587918D01*
X1745292Y2587725D01*
X1745824Y2586833D01*
X1746309Y2585916D01*
X1746452Y2585780D01*
X1746552Y2585612D01*
X1747339Y2584937D01*
X1748093Y2584221D01*
X1748271Y2584138D01*
X1748420Y2584010D01*
X1749384Y2583620D01*
X1750324Y2583183D01*
X1750519Y2583161D01*
X1750702Y2583088D01*
X1752380Y2582900D01*
X1755703Y2582900D01*
X1766133Y2580826D01*
X1767072Y2580793D01*
X1768008Y2580689D01*
X1768297Y2580752D01*
X1768592Y2580742D01*
X1769493Y2581011D01*
X1770413Y2581210D01*
X1770667Y2581361D01*
X1770950Y2581446D01*
X1771719Y2581988D01*
X1772527Y2582470D01*
X1772719Y2582694D01*
X1772960Y2582865D01*
X1773515Y2583623D01*
X1774129Y2584338D01*
X1774240Y2584613D01*
X1774413Y2584850D01*
X1774698Y2585746D01*
X1775051Y2586620D01*
X1775092Y2586988D01*
X1775158Y2587196D01*
X1775153Y2587528D01*
X1775238Y2588298D01*
X1775238Y2595400D01*
X1798344Y2595400D01*
X1804803Y2593669D01*
X1810596Y2590325D01*
X1815325Y2585596D01*
X1818670Y2579803D01*
X1820020Y2574762D01*
X1820119Y2574542D01*
X1820158Y2574305D01*
X1820623Y2573426D01*
X1821033Y2572519D01*
X1821196Y2572343D01*
X1821309Y2572130D01*
X1822030Y2571444D01*
X1822707Y2570715D01*
X1822918Y2570601D01*
X1823093Y2570435D01*
X1823994Y2570015D01*
X1824869Y2569540D01*
X1825106Y2569498D01*
X1825324Y2569397D01*
X1826312Y2569287D01*
X1827293Y2569115D01*
X1827530Y2569151D01*
X1827769Y2569124D01*
X1828743Y2569335D01*
X1829725Y2569484D01*
X1829939Y2569594D01*
X1830174Y2569645D01*
X1831029Y2570154D01*
X1831914Y2570610D01*
X1832082Y2570783D01*
X1832288Y2570905D01*
X1832936Y2571661D01*
X1833629Y2572374D01*
X1833733Y2572590D01*
X1833890Y2572773D01*
X1834263Y2573698D01*
X1834693Y2574593D01*
X1834722Y2574832D01*
X1834812Y2575055D01*
X1834999Y2576733D01*
X1834999Y2578284D01*
X1846716Y2590000D01*
X1933284Y2590000D01*
X1945000Y2578284D01*
X1945000Y2471716D01*
X1943792Y2470508D01*
X1943375Y2469927D01*
X1942881Y2469407D01*
X1942660Y2468933D01*
X1942356Y2468509D01*
X1942145Y2467825D01*
X1941843Y2467176D01*
X1941785Y2466658D01*
X1941631Y2466158D01*
X1941650Y2465441D01*
X1941570Y2464730D01*
X1941681Y2464221D01*
X1941694Y2463698D01*
X1941940Y2463025D01*
X1942091Y2462325D01*
X1942359Y2461877D01*
X1942538Y2461386D01*
X1942985Y2460827D01*
X1943352Y2460212D01*
X1943748Y2459872D01*
X1944074Y2459464D01*
X1944676Y2459076D01*
X1945220Y2458610D01*
X1945704Y2458414D01*
X1946143Y2458132D01*
X1946837Y2457956D01*
X1947501Y2457688D01*
X1948212Y2457608D01*
X1948529Y2457528D01*
X1948767Y2457546D01*
X1949180Y2457500D01*
X1974858Y2457500D01*
X1975565Y2457616D01*
X1976280Y2457634D01*
X1976771Y2457813D01*
X1977286Y2457898D01*
X1977918Y2458232D01*
X1978592Y2458478D01*
X1979001Y2458805D01*
X1979462Y2459048D01*
X1979954Y2459567D01*
X1980514Y2460014D01*
X1980797Y2460454D01*
X1981157Y2460832D01*
X1981458Y2461481D01*
X1981846Y2462083D01*
X1981974Y2462591D01*
X1982194Y2463063D01*
X1982274Y2463774D01*
X1982449Y2464469D01*
X1982409Y2464990D01*
X1982467Y2465509D01*
X1982316Y2466209D01*
X1982261Y2466923D01*
X1982057Y2467403D01*
X1981946Y2467914D01*
X1981579Y2468529D01*
X1981300Y2469188D01*
X1980853Y2469747D01*
X1980686Y2470028D01*
X1980505Y2470183D01*
X1980498Y2470191D01*
X1980463Y2470250D01*
X1980425Y2470283D01*
X1980245Y2470508D01*
X1972499Y2478253D01*
X1972499Y2521746D01*
X2002768Y2552015D01*
X2003298Y2552753D01*
X2003890Y2553443D01*
X2004013Y2553747D01*
X2004204Y2554013D01*
X2004472Y2554882D01*
X2004812Y2555724D01*
X2004858Y2556137D01*
X2004928Y2556365D01*
X2004920Y2556691D01*
X2004999Y2557403D01*
X2004999Y2617380D01*
X2004968Y2617574D01*
X2004989Y2617769D01*
X2004769Y2618785D01*
X2004602Y2619808D01*
X2004510Y2619982D01*
X2004468Y2620174D01*
X2003936Y2621067D01*
X2003451Y2621984D01*
X2003309Y2622119D01*
X2003208Y2622288D01*
X2002421Y2622963D01*
X2001668Y2623679D01*
X2001489Y2623762D01*
X2001340Y2623890D01*
X2000376Y2624279D01*
X1999436Y2624717D01*
X1999241Y2624738D01*
X1999058Y2624812D01*
X1997380Y2624999D01*
X1994216Y2624999D01*
X1982499Y2636716D01*
X1982499Y2713284D01*
X1986208Y2716992D01*
X1986625Y2717573D01*
X1987119Y2718093D01*
X1987339Y2718567D01*
X1987644Y2718990D01*
X1987855Y2719675D01*
X1988157Y2720324D01*
X1988214Y2720842D01*
X1988368Y2721342D01*
X1988350Y2722059D01*
X1988429Y2722769D01*
X1988319Y2723279D01*
X1988306Y2723802D01*
X1988060Y2724475D01*
X1987908Y2725174D01*
X1987641Y2725623D01*
X1987462Y2726114D01*
X1987015Y2726673D01*
X1986648Y2727288D01*
X1986252Y2727628D01*
X1985925Y2728036D01*
X1985324Y2728423D01*
X1984780Y2728890D01*
X1984295Y2729086D01*
X1983857Y2729368D01*
X1983163Y2729544D01*
X1982498Y2729812D01*
X1981788Y2729892D01*
X1981471Y2729972D01*
X1981233Y2729953D01*
X1980820Y2729999D01*
X1952620Y2729999D01*
X1952426Y2729968D01*
X1952230Y2729989D01*
X1951215Y2729769D01*
X1950191Y2729602D01*
X1950018Y2729510D01*
X1949825Y2729468D01*
X1948933Y2728936D01*
X1948016Y2728451D01*
X1947880Y2728309D01*
X1947712Y2728208D01*
X1947037Y2727421D01*
X1946321Y2726668D01*
X1946238Y2726489D01*
X1946110Y2726340D01*
X1945720Y2725376D01*
X1945283Y2724436D01*
X1945261Y2724241D01*
X1945188Y2724058D01*
X1945000Y2722380D01*
X1945000Y2721716D01*
X1933284Y2709999D01*
X1846716Y2709999D01*
X1834999Y2721716D01*
X1834999Y2723266D01*
X1834961Y2723504D01*
X1834984Y2723743D01*
X1834763Y2724714D01*
X1834602Y2725695D01*
X1834490Y2725907D01*
X1834436Y2726142D01*
X1833916Y2726992D01*
X1833451Y2727870D01*
X1833277Y2728036D01*
X1833151Y2728241D01*
X1832389Y2728880D01*
X1831668Y2729565D01*
X1831449Y2729666D01*
X1831265Y2729821D01*
X1830337Y2730184D01*
X1829436Y2730603D01*
X1829198Y2730629D01*
X1828973Y2730717D01*
X1827979Y2730765D01*
X1826991Y2730876D01*
X1826755Y2730825D01*
X1826515Y2730836D01*
X1825559Y2730566D01*
X1824586Y2730355D01*
X1824379Y2730232D01*
X1824148Y2730166D01*
X1823325Y2729603D01*
X1822472Y2729094D01*
X1822316Y2728912D01*
X1822117Y2728776D01*
X1821518Y2727981D01*
X1820870Y2727226D01*
X1820780Y2727003D01*
X1820635Y2726811D01*
X1820020Y2725238D01*
X1818670Y2720197D01*
X1815325Y2714403D01*
X1810596Y2709675D01*
X1804803Y2706330D01*
X1798344Y2704599D01*
X1775238Y2704599D01*
X1775238Y2711701D01*
X1775087Y2712629D01*
X1775006Y2713568D01*
X1774888Y2713839D01*
X1774841Y2714130D01*
X1774401Y2714961D01*
X1774026Y2715825D01*
X1773828Y2716044D01*
X1773690Y2716305D01*
X1773008Y2716953D01*
X1772378Y2717652D01*
X1772121Y2717796D01*
X1771907Y2718000D01*
X1771053Y2718397D01*
X1770233Y2718858D01*
X1769942Y2718914D01*
X1769675Y2719038D01*
X1768742Y2719142D01*
X1767815Y2719318D01*
X1767446Y2719287D01*
X1767230Y2719311D01*
X1766904Y2719240D01*
X1766133Y2719174D01*
X1755703Y2717099D01*
X1752380Y2717099D01*
X1752186Y2717068D01*
X1751991Y2717089D01*
X1750976Y2716869D01*
X1749952Y2716702D01*
X1749778Y2716610D01*
X1749586Y2716568D01*
X1748694Y2716036D01*
X1747777Y2715551D01*
X1747641Y2715409D01*
X1747473Y2715308D01*
X1746798Y2714521D01*
X1746082Y2713768D01*
X1745999Y2713589D01*
X1745871Y2713440D01*
X1745481Y2712476D01*
X1745044Y2711536D01*
X1745022Y2711341D01*
X1744948Y2711158D01*
X1744761Y2709480D01*
X1744761Y2704599D01*
X1721656Y2704599D01*
X1715196Y2706330D01*
X1709403Y2709675D01*
X1704675Y2714403D01*
X1701330Y2720196D01*
X1699599Y2726656D01*
X1699599Y2743900D01*
X1699572Y2744066D01*
X1699592Y2744233D01*
X1699448Y2744921D01*
X1699446Y2745258D01*
X1699288Y2745803D01*
X1699202Y2746328D01*
X1699124Y2746476D01*
X1699089Y2746642D01*
X1698990Y2746832D01*
X1698976Y2746880D01*
X1694325Y2758110D01*
X1692706Y2766250D01*
X1748868Y2766250D01*
X1749062Y2766282D01*
X1749257Y2766260D01*
X1749864Y2766392D01*
X1751132Y2766250D01*
X1752379Y2766250D01*
X1752573Y2766282D01*
X1752768Y2766260D01*
X1753783Y2766480D01*
X1754807Y2766648D01*
X1754981Y2766739D01*
X1755173Y2766781D01*
X1756065Y2767313D01*
X1756983Y2767798D01*
X1757118Y2767941D01*
X1757287Y2768041D01*
X1757962Y2768828D01*
X1758678Y2769582D01*
X1758760Y2769760D01*
X1758888Y2769909D01*
X1759278Y2770873D01*
X1759715Y2771813D01*
X1759737Y2772008D01*
X1759811Y2772191D01*
X1759998Y2773869D01*
X1759998Y2776130D01*
X1759966Y2776324D01*
X1759988Y2776519D01*
X1759768Y2777535D01*
X1759601Y2778558D01*
X1759509Y2778732D01*
X1759467Y2778924D01*
X1758935Y2779817D01*
X1758450Y2780734D01*
X1758308Y2780869D01*
X1758207Y2781038D01*
X1757420Y2781713D01*
X1756666Y2782429D01*
X1756488Y2782512D01*
X1756339Y2782640D01*
X1755375Y2783029D01*
X1754435Y2783467D01*
X1754240Y2783488D01*
X1754057Y2783562D01*
X1752379Y2783749D01*
X1751132Y2783749D01*
X1750938Y2783718D01*
X1750743Y2783739D01*
X1750136Y2783608D01*
X1748868Y2783749D01*
X1692706Y2783749D01*
X1694325Y2791889D01*
X1698976Y2803119D01*
X1699073Y2803530D01*
X1699332Y2804098D01*
X1699349Y2804265D01*
X1699412Y2804421D01*
X1699530Y2805481D01*
X1699538Y2805515D01*
X1699537Y2805536D01*
X1699599Y2806100D01*
X1699599Y2823344D01*
X1701330Y2829803D01*
X1704675Y2835596D01*
X1709403Y2840325D01*
X1715196Y2843669D01*
X1721656Y2845400D01*
X1744761Y2845400D01*
X1744761Y2840520D01*
X1744793Y2840326D01*
X1744771Y2840130D01*
X1744991Y2839115D01*
X1745158Y2838091D01*
X1745250Y2837918D01*
X1745292Y2837725D01*
X1745824Y2836833D01*
X1746309Y2835916D01*
X1746452Y2835780D01*
X1746552Y2835612D01*
X1747339Y2834937D01*
X1748093Y2834221D01*
X1748271Y2834138D01*
X1748420Y2834010D01*
X1749384Y2833620D01*
X1750324Y2833183D01*
X1750519Y2833161D01*
X1750702Y2833088D01*
X1752380Y2832900D01*
X1755703Y2832900D01*
X1766133Y2830826D01*
X1767072Y2830793D01*
X1768008Y2830689D01*
X1768297Y2830752D01*
X1768592Y2830742D01*
X1769493Y2831011D01*
X1770413Y2831210D01*
X1770667Y2831361D01*
X1770950Y2831446D01*
X1771719Y2831988D01*
X1772527Y2832470D01*
X1772719Y2832694D01*
X1772960Y2832865D01*
X1773515Y2833623D01*
X1774129Y2834338D01*
X1774240Y2834613D01*
X1774413Y2834850D01*
X1774698Y2835746D01*
X1775051Y2836620D01*
X1775092Y2836988D01*
X1775158Y2837196D01*
X1775153Y2837528D01*
X1775238Y2838298D01*
X1775238Y2845400D01*
X1798344Y2845400D01*
X1804803Y2843669D01*
X1810596Y2840325D01*
X1815325Y2835596D01*
X1817781Y2831342D01*
X1818085Y2830971D01*
X1818309Y2830547D01*
X1818859Y2830024D01*
X1819339Y2829437D01*
X1819745Y2829183D01*
X1820093Y2828852D01*
X1820781Y2828532D01*
X1821423Y2828128D01*
X1821890Y2828016D01*
X1822324Y2827814D01*
X1823077Y2827730D01*
X1823816Y2827553D01*
X1824293Y2827595D01*
X1824769Y2827542D01*
X1825511Y2827702D01*
X1826267Y2827769D01*
X1826706Y2827961D01*
X1827174Y2828063D01*
X1827826Y2828451D01*
X1828522Y2828755D01*
X1828877Y2829078D01*
X1829288Y2829323D01*
X1829782Y2829899D01*
X1830344Y2830409D01*
X1830578Y2830827D01*
X1830890Y2831191D01*
X1831174Y2831895D01*
X1831544Y2832557D01*
X1831633Y2833028D01*
X1831812Y2833473D01*
X1831954Y2834743D01*
X1831998Y2834976D01*
X1831988Y2835046D01*
X1831999Y2835151D01*
X1831999Y2958222D01*
X1831813Y2959363D01*
X1831643Y2960526D01*
X1831613Y2960586D01*
X1831602Y2960650D01*
X1831063Y2961668D01*
X1830530Y2962721D01*
X1830482Y2962768D01*
X1830451Y2962826D01*
X1829607Y2963628D01*
X1828775Y2964446D01*
X1828706Y2964484D01*
X1828668Y2964521D01*
X1828488Y2964604D01*
X1827296Y2965261D01*
X1822507Y2967245D01*
X1795445Y2994307D01*
X1780799Y3029664D01*
X1780799Y3220335D01*
X1795445Y3255693D01*
X1822507Y3282755D01*
X1857864Y3297400D01*
X1896135Y3297400D01*
X1931493Y3282755D01*
X1958555Y3255693D01*
X1973200Y3220335D01*
X1973200Y3029664D01*
X1958555Y2994307D01*
X1931493Y2967245D01*
X1926704Y2965261D01*
X1925710Y2964645D01*
X1924712Y2964050D01*
X1924669Y2964000D01*
X1924612Y2963965D01*
X1923870Y2963069D01*
X1923110Y2962182D01*
X1923085Y2962120D01*
X1923043Y2962069D01*
X1922626Y2960984D01*
X1922188Y2959900D01*
X1922179Y2959822D01*
X1922160Y2959773D01*
X1922151Y2959576D01*
X1922000Y2958222D01*
X1922000Y2847620D01*
X1922032Y2847426D01*
X1922010Y2847230D01*
X1922230Y2846215D01*
X1922398Y2845191D01*
X1922490Y2845018D01*
X1922531Y2844825D01*
X1923063Y2843933D01*
X1923548Y2843016D01*
X1923691Y2842880D01*
X1923792Y2842712D01*
X1924579Y2842037D01*
X1925332Y2841321D01*
X1925510Y2841238D01*
X1925660Y2841110D01*
X1926624Y2840720D01*
X1927563Y2840283D01*
X1927758Y2840261D01*
X1927941Y2840188D01*
X1929620Y2840000D01*
X1933284Y2840000D01*
X1945000Y2828284D01*
X1945000Y2827620D01*
X1945032Y2827426D01*
X1945010Y2827230D01*
X1945230Y2826215D01*
X1945398Y2825191D01*
X1945490Y2825018D01*
X1945531Y2824825D01*
X1946063Y2823933D01*
X1946548Y2823016D01*
X1946691Y2822880D01*
X1946792Y2822712D01*
X1947579Y2822037D01*
X1948332Y2821321D01*
X1948510Y2821238D01*
X1948660Y2821110D01*
X1949624Y2820720D01*
X1950563Y2820283D01*
X1950758Y2820261D01*
X1950941Y2820188D01*
X1952620Y2820000D01*
X1986059Y2820000D01*
X1986955Y2820147D01*
X1987862Y2820217D01*
X1988165Y2820345D01*
X1988488Y2820398D01*
X1989290Y2820822D01*
X1990128Y2821178D01*
X1990453Y2821437D01*
X1990663Y2821548D01*
X1990888Y2821785D01*
X1991447Y2822232D01*
X1994216Y2825000D01*
X2080784Y2825000D01*
X2092106Y2813679D01*
X2093068Y2812987D01*
X2094026Y2812282D01*
X2094068Y2812268D01*
X2094104Y2812243D01*
X2095246Y2811890D01*
X2096370Y2811530D01*
X2096413Y2811531D01*
X2096456Y2811518D01*
X2097655Y2811548D01*
X2098830Y2811565D01*
X2098872Y2811579D01*
X2098916Y2811581D01*
X2100031Y2811988D01*
X2101151Y2812382D01*
X2101186Y2812409D01*
X2101227Y2812424D01*
X2102153Y2813164D01*
X2103091Y2813897D01*
X2103122Y2813939D01*
X2103149Y2813961D01*
X2103228Y2814083D01*
X2104092Y2815257D01*
X2107174Y2820596D01*
X2111903Y2825325D01*
X2117696Y2828669D01*
X2124156Y2830400D01*
X2147500Y2830400D01*
X2147500Y2782382D01*
X2147532Y2782188D01*
X2147510Y2781993D01*
X2147730Y2780977D01*
X2147898Y2779953D01*
X2147989Y2779780D01*
X2148031Y2779588D01*
X2148563Y2778695D01*
X2149048Y2777778D01*
X2149191Y2777643D01*
X2149291Y2777474D01*
X2150078Y2776799D01*
X2150832Y2776083D01*
X2151010Y2776000D01*
X2151159Y2775872D01*
X2152123Y2775483D01*
X2153063Y2775045D01*
X2153258Y2775023D01*
X2153441Y2774950D01*
X2155119Y2774763D01*
X2162263Y2774763D01*
X2162263Y2767619D01*
X2162294Y2767425D01*
X2162273Y2767230D01*
X2162493Y2766215D01*
X2162660Y2765191D01*
X2162752Y2765018D01*
X2162793Y2764825D01*
X2163326Y2763933D01*
X2163811Y2763016D01*
X2163953Y2762880D01*
X2164054Y2762712D01*
X2164841Y2762037D01*
X2165594Y2761321D01*
X2165773Y2761238D01*
X2165922Y2761110D01*
X2166886Y2760720D01*
X2167826Y2760283D01*
X2168021Y2760261D01*
X2168203Y2760187D01*
X2169882Y2760000D01*
X2222900Y2760000D01*
X2222900Y2741656D01*
X2221169Y2735196D01*
X2217825Y2729403D01*
X2214991Y2726569D01*
X2214875Y2726409D01*
X2214722Y2726286D01*
X2214161Y2725414D01*
X2213554Y2724571D01*
X2213497Y2724383D01*
X2213390Y2724218D01*
X2213136Y2723211D01*
X2212830Y2722219D01*
X2212835Y2722022D01*
X2212787Y2721832D01*
X2212867Y2720797D01*
X2212893Y2719759D01*
X2212961Y2719574D01*
X2212976Y2719378D01*
X2213381Y2718423D01*
X2213737Y2717448D01*
X2213859Y2717294D01*
X2213936Y2717113D01*
X2214991Y2715793D01*
X2217500Y2713284D01*
X2217500Y2636716D01*
X2205784Y2624999D01*
X2119216Y2624999D01*
X2105388Y2638828D01*
X2105228Y2638943D01*
X2105105Y2639096D01*
X2104235Y2639656D01*
X2103390Y2640263D01*
X2103202Y2640322D01*
X2103036Y2640428D01*
X2102031Y2640682D01*
X2101038Y2640988D01*
X2100841Y2640983D01*
X2100651Y2641031D01*
X2099617Y2640952D01*
X2098578Y2640925D01*
X2098393Y2640858D01*
X2098197Y2640843D01*
X2097243Y2640438D01*
X2096266Y2640082D01*
X2096113Y2639958D01*
X2095932Y2639882D01*
X2094612Y2638828D01*
X2080784Y2624999D01*
X2077620Y2624999D01*
X2077426Y2624968D01*
X2077230Y2624989D01*
X2076215Y2624769D01*
X2075191Y2624602D01*
X2075018Y2624510D01*
X2074825Y2624468D01*
X2073933Y2623936D01*
X2073016Y2623451D01*
X2072880Y2623309D01*
X2072712Y2623208D01*
X2072037Y2622421D01*
X2071321Y2621668D01*
X2071238Y2621489D01*
X2071110Y2621340D01*
X2070720Y2620376D01*
X2070283Y2619436D01*
X2070261Y2619241D01*
X2070188Y2619058D01*
X2070000Y2617380D01*
X2070000Y2532403D01*
X2070147Y2531507D01*
X2070217Y2530600D01*
X2070345Y2530297D01*
X2070398Y2529974D01*
X2070822Y2529172D01*
X2071178Y2528334D01*
X2071437Y2528009D01*
X2071548Y2527799D01*
X2071785Y2527574D01*
X2072232Y2527015D01*
X2077500Y2521746D01*
X2077500Y2478253D01*
X2069754Y2470508D01*
X2069337Y2469927D01*
X2068843Y2469407D01*
X2068623Y2468933D01*
X2068318Y2468509D01*
X2068107Y2467825D01*
X2067805Y2467176D01*
X2067748Y2466658D01*
X2067593Y2466158D01*
X2067612Y2465441D01*
X2067533Y2464730D01*
X2067643Y2464221D01*
X2067656Y2463698D01*
X2067902Y2463024D01*
X2068053Y2462325D01*
X2068321Y2461877D01*
X2068500Y2461386D01*
X2068947Y2460826D01*
X2069314Y2460212D01*
X2069710Y2459872D01*
X2070037Y2459464D01*
X2070638Y2459077D01*
X2071182Y2458610D01*
X2071667Y2458414D01*
X2072105Y2458132D01*
X2072799Y2457956D01*
X2073463Y2457688D01*
X2074175Y2457608D01*
X2074491Y2457528D01*
X2074729Y2457546D01*
X2075142Y2457500D01*
X2245880Y2457500D01*
X2246074Y2457532D01*
X2246269Y2457510D01*
X2247285Y2457730D01*
X2248308Y2457898D01*
X2248482Y2457990D01*
X2248674Y2458031D01*
X2249567Y2458563D01*
X2250484Y2459048D01*
X2250619Y2459191D01*
X2250788Y2459292D01*
X2251463Y2460079D01*
X2252179Y2460832D01*
X2252262Y2461010D01*
X2252390Y2461160D01*
X2252779Y2462124D01*
X2253217Y2463063D01*
X2253238Y2463258D01*
X2253312Y2463441D01*
X2253499Y2465120D01*
X2253499Y3106737D01*
X2253311Y3107890D01*
X2253143Y3109042D01*
X2253113Y3109101D01*
X2253102Y3109166D01*
X2252560Y3110191D01*
X2252029Y3111236D01*
X2251982Y3111283D01*
X2251951Y3111341D01*
X2251107Y3112143D01*
X2250275Y3112962D01*
X2250206Y3112999D01*
X2250168Y3113036D01*
X2249989Y3113119D01*
X2248796Y3113777D01*
X2245895Y3114978D01*
X2225978Y3134895D01*
X2215199Y3160917D01*
X2215199Y3189083D01*
X2225978Y3215105D01*
X2245895Y3235022D01*
X2271917Y3245800D01*
X2300083Y3245800D01*
X2326105Y3235022D01*
X2346022Y3215105D01*
X2356800Y3189083D01*
X2356800Y3160917D01*
X2346022Y3134895D01*
X2326105Y3114978D01*
X2323204Y3113777D01*
X2322212Y3113162D01*
X2321212Y3112565D01*
X2321169Y3112515D01*
X2321113Y3112480D01*
X2320368Y3111581D01*
X2319610Y3110697D01*
X2319585Y3110636D01*
X2319543Y3110585D01*
X2319123Y3109493D01*
X2318688Y3108416D01*
X2318679Y3108338D01*
X2318660Y3108288D01*
X2318651Y3108091D01*
X2318500Y3106737D01*
X2318500Y2411538D01*
X2299462Y2392499D01*
X2150120Y2392499D01*
X2149926Y2392468D01*
X2149730Y2392489D01*
X2148715Y2392269D01*
X2147691Y2392102D01*
X2147518Y2392010D01*
X2147325Y2391968D01*
X2146433Y2391436D01*
X2145516Y2390951D01*
X2145380Y2390809D01*
X2145212Y2390708D01*
X2144537Y2389921D01*
X2143821Y2389168D01*
X2143738Y2388989D01*
X2143610Y2388840D01*
X2143220Y2387876D01*
X2142783Y2386936D01*
X2142761Y2386741D01*
X2142688Y2386558D01*
X2142500Y2384880D01*
X2142500Y2072620D01*
X2142532Y2072426D01*
X2142510Y2072230D01*
X2142730Y2071215D01*
X2142898Y2070191D01*
X2142990Y2070018D01*
X2143031Y2069825D01*
X2143563Y2068933D01*
X2144048Y2068016D01*
X2144191Y2067880D01*
X2144292Y2067712D01*
X2145079Y2067037D01*
X2145832Y2066321D01*
X2146010Y2066238D01*
X2146160Y2066110D01*
X2147124Y2065720D01*
X2148063Y2065283D01*
X2148258Y2065261D01*
X2148441Y2065188D01*
X2150120Y2065000D01*
X2153284Y2065000D01*
X2165000Y2053284D01*
X2165000Y2051734D01*
X2165039Y2051496D01*
X2165015Y2051257D01*
X2165237Y2050287D01*
X2165398Y2049305D01*
X2165510Y2049093D01*
X2165564Y2048858D01*
X2166084Y2048008D01*
X2166548Y2047130D01*
X2166723Y2046964D01*
X2166848Y2046759D01*
X2167611Y2046121D01*
X2168332Y2045435D01*
X2168550Y2045333D01*
X2168735Y2045179D01*
X2169663Y2044816D01*
X2170563Y2044397D01*
X2170802Y2044371D01*
X2171027Y2044283D01*
X2172020Y2044235D01*
X2173009Y2044124D01*
X2173244Y2044175D01*
X2173484Y2044164D01*
X2174441Y2044434D01*
X2175414Y2044645D01*
X2175621Y2044768D01*
X2175852Y2044834D01*
X2176673Y2045396D01*
X2177528Y2045906D01*
X2177684Y2046088D01*
X2177883Y2046224D01*
X2178481Y2047018D01*
X2179129Y2047774D01*
X2179219Y2047997D01*
X2179364Y2048189D01*
X2179979Y2049762D01*
X2181330Y2054803D01*
X2184675Y2060596D01*
X2189403Y2065325D01*
X2195196Y2068669D01*
X2201656Y2070400D01*
X2224761Y2070400D01*
X2224761Y2007621D01*
X2224793Y2007427D01*
X2224771Y2007232D01*
X2224991Y2006216D01*
X2225158Y2005193D01*
X2225250Y2005019D01*
X2225292Y2004827D01*
X2225824Y2003934D01*
X2226309Y2003017D01*
X2226452Y2002882D01*
X2226552Y2002713D01*
X2227339Y2002038D01*
X2228093Y2001322D01*
X2228271Y2001239D01*
X2228420Y2001111D01*
X2229384Y2000722D01*
X2230324Y2000284D01*
X2230519Y2000263D01*
X2230702Y2000189D01*
X2232380Y2000002D01*
X2234713Y2000002D01*
X2235387Y2000112D01*
X2236071Y2000123D01*
X2236594Y2000310D01*
X2237141Y2000399D01*
X2237744Y2000718D01*
X2238389Y2000948D01*
X2238826Y2001290D01*
X2239316Y2001550D01*
X2239787Y2002045D01*
X2240134Y2002318D01*
X2240002Y2001130D01*
X2240002Y1998869D01*
X2240033Y1998675D01*
X2240012Y1998480D01*
X2240208Y1997572D01*
X2240120Y1997648D01*
X2239769Y1998078D01*
X2239192Y1998443D01*
X2238673Y1998888D01*
X2238158Y1999097D01*
X2237689Y1999393D01*
X2237025Y1999555D01*
X2236391Y1999811D01*
X2235622Y1999897D01*
X2235298Y1999976D01*
X2235081Y1999957D01*
X2234713Y1999998D01*
X2232380Y1999998D01*
X2232186Y1999966D01*
X2231991Y1999988D01*
X2230976Y1999768D01*
X2229952Y1999601D01*
X2229778Y1999509D01*
X2229586Y1999467D01*
X2228694Y1998935D01*
X2227777Y1998450D01*
X2227641Y1998308D01*
X2227473Y1998207D01*
X2226798Y1997420D01*
X2226082Y1996666D01*
X2225999Y1996488D01*
X2225871Y1996339D01*
X2225481Y1995375D01*
X2225044Y1994435D01*
X2225022Y1994240D01*
X2224948Y1994057D01*
X2224761Y1992379D01*
X2224761Y1929599D01*
X2201656Y1929599D01*
X2195196Y1931330D01*
X2189403Y1934675D01*
X2184675Y1939403D01*
X2181330Y1945197D01*
X2179979Y1950238D01*
X2179880Y1950457D01*
X2179842Y1950694D01*
X2179377Y1951572D01*
X2178967Y1952481D01*
X2178803Y1952658D01*
X2178691Y1952870D01*
X2177970Y1953554D01*
X2177293Y1954284D01*
X2177082Y1954399D01*
X2176907Y1954565D01*
X2176006Y1954984D01*
X2175131Y1955460D01*
X2174893Y1955501D01*
X2174676Y1955603D01*
X2173688Y1955713D01*
X2172707Y1955885D01*
X2172470Y1955849D01*
X2172230Y1955875D01*
X2171258Y1955665D01*
X2170274Y1955515D01*
X2170060Y1955405D01*
X2169825Y1955354D01*
X2168972Y1954845D01*
X2168086Y1954390D01*
X2167918Y1954217D01*
X2167712Y1954094D01*
X2167064Y1953339D01*
X2166371Y1952625D01*
X2166267Y1952409D01*
X2166110Y1952226D01*
X2165736Y1951302D01*
X2165307Y1950406D01*
X2165278Y1950168D01*
X2165188Y1949944D01*
X2165000Y1948266D01*
X2165000Y1946716D01*
X2153284Y1934999D01*
X2150120Y1934999D01*
X2149926Y1934968D01*
X2149730Y1934989D01*
X2148715Y1934769D01*
X2147691Y1934602D01*
X2147518Y1934510D01*
X2147325Y1934468D01*
X2146433Y1933936D01*
X2145516Y1933451D01*
X2145380Y1933309D01*
X2145212Y1933208D01*
X2144537Y1932421D01*
X2143821Y1931668D01*
X2143738Y1931489D01*
X2143610Y1931340D01*
X2143220Y1930376D01*
X2142783Y1929436D01*
X2142761Y1929241D01*
X2142688Y1929058D01*
X2142500Y1927380D01*
X2142500Y1431618D01*
X2142647Y1430723D01*
X2142717Y1429815D01*
X2142845Y1429513D01*
X2142898Y1429190D01*
X2143322Y1428387D01*
X2143678Y1427550D01*
X2143937Y1427225D01*
X2144048Y1427014D01*
X2144285Y1426790D01*
X2144732Y1426230D01*
X2282500Y1288462D01*
X2282500Y1244902D01*
X2282647Y1244007D01*
X2282717Y1243099D01*
X2282845Y1242796D01*
X2282898Y1242474D01*
X2283322Y1241672D01*
X2283678Y1240834D01*
X2283937Y1240509D01*
X2284048Y1240298D01*
X2284285Y1240074D01*
X2284732Y1239514D01*
X2302500Y1221746D01*
X2302500Y1178253D01*
X2284732Y1160485D01*
X2284202Y1159748D01*
X2283610Y1159058D01*
X2283487Y1158753D01*
X2283296Y1158487D01*
X2283028Y1157619D01*
X2282688Y1156776D01*
X2282642Y1156363D01*
X2282571Y1156135D01*
X2282580Y1155808D01*
X2282500Y1155098D01*
X2282500Y1034538D01*
X1819462Y571499D01*
X1697940Y571499D01*
X1697045Y571353D01*
X1696137Y571283D01*
X1695834Y571155D01*
X1695512Y571102D01*
X1694710Y570678D01*
X1693872Y570322D01*
X1693547Y570063D01*
X1693336Y569951D01*
X1693111Y569714D01*
X1692552Y569268D01*
X1679784Y556499D01*
X1532216Y556499D01*
G37*
%LPD*%
%LPC*%
G36*
X2528253Y747499D02*
X2528253Y747499D01*
X2497499Y778253D01*
X2497499Y821746D01*
X2528253Y852500D01*
X2553382Y852500D01*
X2554277Y852647D01*
X2555184Y852717D01*
X2555487Y852845D01*
X2555810Y852898D01*
X2556613Y853322D01*
X2557450Y853678D01*
X2557775Y853937D01*
X2557985Y854048D01*
X2558210Y854285D01*
X2558769Y854732D01*
X2590268Y886230D01*
X2590798Y886968D01*
X2591390Y887658D01*
X2591513Y887963D01*
X2591704Y888229D01*
X2591972Y889098D01*
X2592312Y889940D01*
X2592358Y890352D01*
X2592428Y890580D01*
X2592420Y890907D01*
X2592499Y891618D01*
X2592499Y1032380D01*
X2592468Y1032574D01*
X2592489Y1032769D01*
X2592269Y1033785D01*
X2592102Y1034808D01*
X2592010Y1034982D01*
X2591968Y1035174D01*
X2591436Y1036067D01*
X2590951Y1036984D01*
X2590809Y1037119D01*
X2590708Y1037288D01*
X2589921Y1037963D01*
X2589168Y1038679D01*
X2588989Y1038762D01*
X2588840Y1038890D01*
X2587876Y1039279D01*
X2586936Y1039717D01*
X2586741Y1039738D01*
X2586558Y1039812D01*
X2584880Y1039999D01*
X2584216Y1039999D01*
X2580388Y1043828D01*
X2580228Y1043942D01*
X2580105Y1044096D01*
X2579231Y1044659D01*
X2578389Y1045264D01*
X2578202Y1045322D01*
X2578036Y1045428D01*
X2577030Y1045683D01*
X2576038Y1045988D01*
X2575841Y1045983D01*
X2575650Y1046031D01*
X2574615Y1045952D01*
X2573578Y1045925D01*
X2573393Y1045858D01*
X2573197Y1045843D01*
X2572241Y1045437D01*
X2571266Y1045082D01*
X2571113Y1044959D01*
X2570931Y1044882D01*
X2569612Y1043827D01*
X2565784Y1039999D01*
X2484216Y1039999D01*
X2472499Y1051716D01*
X2472499Y1134880D01*
X2472468Y1135074D01*
X2472489Y1135269D01*
X2472269Y1136285D01*
X2472102Y1137308D01*
X2472010Y1137482D01*
X2471968Y1137674D01*
X2471436Y1138567D01*
X2470951Y1139484D01*
X2470809Y1139619D01*
X2470708Y1139788D01*
X2469921Y1140463D01*
X2469168Y1141179D01*
X2468989Y1141262D01*
X2468840Y1141390D01*
X2467876Y1141779D01*
X2466936Y1142217D01*
X2466741Y1142238D01*
X2466558Y1142312D01*
X2464880Y1142499D01*
X2444903Y1142499D01*
X2444007Y1142353D01*
X2443100Y1142283D01*
X2442797Y1142155D01*
X2442474Y1142102D01*
X2441672Y1141678D01*
X2440834Y1141322D01*
X2440509Y1141063D01*
X2440299Y1140951D01*
X2440074Y1140715D01*
X2439515Y1140268D01*
X2421746Y1122499D01*
X2378253Y1122499D01*
X2347499Y1153253D01*
X2347499Y1196746D01*
X2378253Y1227500D01*
X2421746Y1227500D01*
X2439515Y1209732D01*
X2440253Y1209202D01*
X2440943Y1208610D01*
X2441247Y1208487D01*
X2441513Y1208296D01*
X2442382Y1208028D01*
X2443224Y1207688D01*
X2443637Y1207642D01*
X2443865Y1207571D01*
X2444191Y1207580D01*
X2444903Y1207500D01*
X2464880Y1207500D01*
X2465074Y1207532D01*
X2465269Y1207510D01*
X2466285Y1207730D01*
X2467308Y1207898D01*
X2467482Y1207990D01*
X2467674Y1208031D01*
X2468567Y1208563D01*
X2469484Y1209048D01*
X2469619Y1209191D01*
X2469788Y1209292D01*
X2470463Y1210079D01*
X2471179Y1210832D01*
X2471262Y1211010D01*
X2471390Y1211160D01*
X2471779Y1212124D01*
X2472217Y1213063D01*
X2472238Y1213258D01*
X2472312Y1213441D01*
X2472499Y1215120D01*
X2472499Y1248284D01*
X2484216Y1260000D01*
X2565784Y1260000D01*
X2569612Y1256173D01*
X2569772Y1256058D01*
X2569894Y1255904D01*
X2570767Y1255343D01*
X2571610Y1254736D01*
X2571798Y1254678D01*
X2571963Y1254572D01*
X2572968Y1254318D01*
X2573962Y1254012D01*
X2574159Y1254017D01*
X2574349Y1253968D01*
X2575383Y1254048D01*
X2576422Y1254074D01*
X2576606Y1254142D01*
X2576803Y1254157D01*
X2577758Y1254562D01*
X2578733Y1254918D01*
X2578887Y1255041D01*
X2579068Y1255118D01*
X2580388Y1256172D01*
X2584216Y1260000D01*
X2665784Y1260000D01*
X2677500Y1248284D01*
X2677500Y1215120D01*
X2677532Y1214926D01*
X2677510Y1214730D01*
X2677730Y1213715D01*
X2677898Y1212691D01*
X2677990Y1212518D01*
X2678031Y1212325D01*
X2678563Y1211433D01*
X2679048Y1210516D01*
X2679191Y1210380D01*
X2679292Y1210212D01*
X2680079Y1209537D01*
X2680832Y1208821D01*
X2681010Y1208738D01*
X2681160Y1208610D01*
X2682124Y1208220D01*
X2683063Y1207783D01*
X2683258Y1207761D01*
X2683441Y1207688D01*
X2685120Y1207500D01*
X2833382Y1207500D01*
X2834277Y1207647D01*
X2835184Y1207717D01*
X2835487Y1207845D01*
X2835810Y1207898D01*
X2836613Y1208322D01*
X2837450Y1208678D01*
X2837775Y1208937D01*
X2837985Y1209048D01*
X2838210Y1209285D01*
X2838769Y1209732D01*
X2915268Y1286230D01*
X2915798Y1286968D01*
X2916390Y1287658D01*
X2916513Y1287963D01*
X2916704Y1288229D01*
X2916972Y1289098D01*
X2917312Y1289940D01*
X2917358Y1290352D01*
X2917428Y1290580D01*
X2917420Y1290907D01*
X2917499Y1291618D01*
X2917499Y1524858D01*
X2917384Y1525565D01*
X2917365Y1526280D01*
X2917186Y1526771D01*
X2917102Y1527286D01*
X2916768Y1527918D01*
X2916522Y1528592D01*
X2916195Y1529000D01*
X2915951Y1529462D01*
X2915432Y1529955D01*
X2914985Y1530514D01*
X2914547Y1530796D01*
X2914168Y1531157D01*
X2913517Y1531459D01*
X2912916Y1531846D01*
X2912410Y1531974D01*
X2911936Y1532194D01*
X2911225Y1532274D01*
X2910531Y1532449D01*
X2910009Y1532409D01*
X2909491Y1532467D01*
X2908792Y1532316D01*
X2908077Y1532261D01*
X2907596Y1532057D01*
X2907086Y1531946D01*
X2906471Y1531580D01*
X2905812Y1531300D01*
X2905252Y1530853D01*
X2904972Y1530686D01*
X2904818Y1530506D01*
X2904492Y1530246D01*
X2871746Y1497499D01*
X2828253Y1497499D01*
X2797499Y1528253D01*
X2797499Y1553382D01*
X2797353Y1554277D01*
X2797283Y1555184D01*
X2797155Y1555487D01*
X2797102Y1555810D01*
X2796678Y1556613D01*
X2796322Y1557450D01*
X2796063Y1557775D01*
X2795951Y1557985D01*
X2795715Y1558210D01*
X2795268Y1558769D01*
X2663769Y1690268D01*
X2663031Y1690798D01*
X2662342Y1691390D01*
X2662037Y1691513D01*
X2661771Y1691704D01*
X2660902Y1691972D01*
X2660060Y1692312D01*
X2659648Y1692358D01*
X2659419Y1692428D01*
X2659093Y1692420D01*
X2658382Y1692499D01*
X2385120Y1692499D01*
X2384926Y1692468D01*
X2384730Y1692489D01*
X2383715Y1692269D01*
X2382691Y1692102D01*
X2382518Y1692010D01*
X2382325Y1691968D01*
X2381433Y1691436D01*
X2380516Y1690951D01*
X2380380Y1690809D01*
X2380212Y1690708D01*
X2379537Y1689921D01*
X2378821Y1689168D01*
X2378738Y1688989D01*
X2378610Y1688840D01*
X2378220Y1687876D01*
X2377783Y1686936D01*
X2377761Y1686741D01*
X2377688Y1686558D01*
X2377500Y1684880D01*
X2377500Y1678253D01*
X2346746Y1647499D01*
X2303253Y1647499D01*
X2272499Y1678253D01*
X2272499Y1721746D01*
X2303253Y1752500D01*
X2328382Y1752500D01*
X2329277Y1752647D01*
X2330184Y1752717D01*
X2330487Y1752845D01*
X2330810Y1752898D01*
X2331613Y1753322D01*
X2332450Y1753678D01*
X2332775Y1753937D01*
X2332985Y1754048D01*
X2333210Y1754285D01*
X2333769Y1754732D01*
X2336538Y1757500D01*
X2634880Y1757500D01*
X2635074Y1757532D01*
X2635269Y1757510D01*
X2636285Y1757730D01*
X2637308Y1757898D01*
X2637482Y1757990D01*
X2637674Y1758031D01*
X2638567Y1758563D01*
X2639484Y1759048D01*
X2639619Y1759191D01*
X2639788Y1759292D01*
X2640463Y1760079D01*
X2641179Y1760832D01*
X2641262Y1761010D01*
X2641390Y1761160D01*
X2641779Y1762124D01*
X2642217Y1763063D01*
X2642238Y1763258D01*
X2642312Y1763441D01*
X2642499Y1765120D01*
X2642499Y2157380D01*
X2642468Y2157574D01*
X2642489Y2157769D01*
X2642269Y2158785D01*
X2642102Y2159808D01*
X2642010Y2159982D01*
X2641968Y2160174D01*
X2641436Y2161067D01*
X2640951Y2161984D01*
X2640809Y2162119D01*
X2640708Y2162288D01*
X2639921Y2162963D01*
X2639168Y2163679D01*
X2638989Y2163762D01*
X2638840Y2163890D01*
X2637876Y2164279D01*
X2636936Y2164717D01*
X2636741Y2164738D01*
X2636558Y2164812D01*
X2634880Y2164999D01*
X2634216Y2164999D01*
X2622499Y2176716D01*
X2622499Y2308142D01*
X2622384Y2308849D01*
X2622365Y2309564D01*
X2622186Y2310055D01*
X2622102Y2310571D01*
X2621768Y2311203D01*
X2621522Y2311876D01*
X2621195Y2312284D01*
X2620951Y2312746D01*
X2620432Y2313239D01*
X2619985Y2313798D01*
X2619547Y2314080D01*
X2619168Y2314441D01*
X2618517Y2314743D01*
X2617916Y2315130D01*
X2617410Y2315258D01*
X2616936Y2315479D01*
X2616225Y2315558D01*
X2615531Y2315734D01*
X2615009Y2315694D01*
X2614491Y2315752D01*
X2613792Y2315600D01*
X2613077Y2315545D01*
X2612596Y2315341D01*
X2612086Y2315231D01*
X2611471Y2314864D01*
X2610812Y2314584D01*
X2610252Y2314137D01*
X2609972Y2313970D01*
X2609818Y2313790D01*
X2609492Y2313530D01*
X2584732Y2288770D01*
X2584202Y2288032D01*
X2583610Y2287342D01*
X2583487Y2287038D01*
X2583296Y2286771D01*
X2583028Y2285903D01*
X2582688Y2285060D01*
X2582642Y2284648D01*
X2582571Y2284420D01*
X2582580Y2284093D01*
X2582500Y2283382D01*
X2582500Y2244903D01*
X2582647Y2244007D01*
X2582717Y2243100D01*
X2582845Y2242797D01*
X2582898Y2242474D01*
X2583322Y2241672D01*
X2583678Y2240834D01*
X2583937Y2240509D01*
X2584048Y2240299D01*
X2584285Y2240074D01*
X2584732Y2239515D01*
X2602500Y2221746D01*
X2602500Y2178253D01*
X2571746Y2147499D01*
X2528253Y2147499D01*
X2497499Y2178253D01*
X2497499Y2221746D01*
X2515268Y2239515D01*
X2515798Y2240253D01*
X2516390Y2240943D01*
X2516513Y2241247D01*
X2516704Y2241513D01*
X2516972Y2242382D01*
X2517312Y2243224D01*
X2517358Y2243637D01*
X2517428Y2243865D01*
X2517420Y2244191D01*
X2517499Y2244903D01*
X2517499Y2313462D01*
X2538768Y2334731D01*
X2538770Y2334732D01*
X2586538Y2382500D01*
X2628559Y2382500D01*
X2629455Y2382647D01*
X2630362Y2382717D01*
X2630665Y2382845D01*
X2630988Y2382898D01*
X2631790Y2383322D01*
X2632628Y2383678D01*
X2632953Y2383937D01*
X2633163Y2384048D01*
X2633388Y2384285D01*
X2633947Y2384732D01*
X2634216Y2385000D01*
X2715784Y2385000D01*
X2719612Y2381173D01*
X2719772Y2381058D01*
X2719894Y2380904D01*
X2720767Y2380343D01*
X2721610Y2379736D01*
X2721798Y2379678D01*
X2721963Y2379572D01*
X2722968Y2379318D01*
X2723962Y2379012D01*
X2724159Y2379017D01*
X2724349Y2378968D01*
X2725383Y2379048D01*
X2726422Y2379074D01*
X2726606Y2379142D01*
X2726803Y2379157D01*
X2727758Y2379562D01*
X2728733Y2379918D01*
X2728887Y2380041D01*
X2729068Y2380118D01*
X2730388Y2381172D01*
X2734216Y2385000D01*
X2734880Y2385000D01*
X2735074Y2385032D01*
X2735269Y2385010D01*
X2736285Y2385230D01*
X2737308Y2385398D01*
X2737482Y2385490D01*
X2737674Y2385531D01*
X2738567Y2386063D01*
X2739484Y2386548D01*
X2739619Y2386691D01*
X2739788Y2386792D01*
X2740463Y2387579D01*
X2741179Y2388332D01*
X2741262Y2388510D01*
X2741390Y2388660D01*
X2741779Y2389624D01*
X2742217Y2390563D01*
X2742238Y2390758D01*
X2742312Y2390941D01*
X2742499Y2392620D01*
X2742499Y2408382D01*
X2742353Y2409277D01*
X2742283Y2410184D01*
X2742155Y2410487D01*
X2742102Y2410810D01*
X2741678Y2411613D01*
X2741322Y2412450D01*
X2741063Y2412775D01*
X2740951Y2412985D01*
X2740715Y2413210D01*
X2740268Y2413769D01*
X2738769Y2415268D01*
X2738031Y2415798D01*
X2737342Y2416390D01*
X2737037Y2416513D01*
X2736771Y2416704D01*
X2735902Y2416972D01*
X2735060Y2417312D01*
X2734648Y2417358D01*
X2734419Y2417428D01*
X2734093Y2417420D01*
X2733382Y2417499D01*
X2594903Y2417499D01*
X2594007Y2417353D01*
X2593100Y2417283D01*
X2592797Y2417155D01*
X2592474Y2417102D01*
X2591672Y2416678D01*
X2590834Y2416322D01*
X2590509Y2416063D01*
X2590299Y2415951D01*
X2590074Y2415715D01*
X2589515Y2415268D01*
X2571746Y2397499D01*
X2528253Y2397499D01*
X2497499Y2428253D01*
X2497499Y2471746D01*
X2528253Y2502500D01*
X2571746Y2502500D01*
X2589515Y2484732D01*
X2590253Y2484202D01*
X2590943Y2483610D01*
X2591247Y2483487D01*
X2591513Y2483296D01*
X2592382Y2483028D01*
X2593224Y2482688D01*
X2593637Y2482642D01*
X2593865Y2482571D01*
X2594191Y2482580D01*
X2594903Y2482500D01*
X2763462Y2482500D01*
X2807500Y2438462D01*
X2807500Y2392620D01*
X2807532Y2392426D01*
X2807510Y2392230D01*
X2807730Y2391215D01*
X2807898Y2390191D01*
X2807990Y2390018D01*
X2808031Y2389825D01*
X2808563Y2388933D01*
X2809048Y2388016D01*
X2809191Y2387880D01*
X2809292Y2387712D01*
X2810079Y2387037D01*
X2810832Y2386321D01*
X2811010Y2386238D01*
X2811160Y2386110D01*
X2812124Y2385720D01*
X2813063Y2385283D01*
X2813258Y2385261D01*
X2813441Y2385188D01*
X2815120Y2385000D01*
X2815784Y2385000D01*
X2827500Y2373284D01*
X2827500Y2240120D01*
X2827532Y2239926D01*
X2827510Y2239730D01*
X2827730Y2238715D01*
X2827898Y2237691D01*
X2827990Y2237518D01*
X2828031Y2237325D01*
X2828563Y2236433D01*
X2829048Y2235516D01*
X2829191Y2235380D01*
X2829292Y2235212D01*
X2830079Y2234537D01*
X2830832Y2233821D01*
X2831010Y2233738D01*
X2831160Y2233610D01*
X2832124Y2233220D01*
X2833063Y2232783D01*
X2833258Y2232761D01*
X2833441Y2232688D01*
X2835120Y2232500D01*
X2905097Y2232500D01*
X2905993Y2232647D01*
X2906900Y2232717D01*
X2907203Y2232845D01*
X2907526Y2232898D01*
X2908328Y2233322D01*
X2909166Y2233678D01*
X2909491Y2233937D01*
X2909701Y2234048D01*
X2909926Y2234285D01*
X2910485Y2234732D01*
X2928253Y2252500D01*
X2971746Y2252500D01*
X3002500Y2221746D01*
X3002500Y2178253D01*
X2971746Y2147499D01*
X2928253Y2147499D01*
X2910485Y2165268D01*
X2909747Y2165798D01*
X2909057Y2166390D01*
X2908753Y2166513D01*
X2908487Y2166704D01*
X2907618Y2166972D01*
X2906776Y2167312D01*
X2906363Y2167358D01*
X2906135Y2167428D01*
X2905808Y2167420D01*
X2905097Y2167499D01*
X2821440Y2167499D01*
X2820543Y2167353D01*
X2819637Y2167283D01*
X2819335Y2167155D01*
X2819012Y2167102D01*
X2818208Y2166677D01*
X2817371Y2166322D01*
X2817047Y2166063D01*
X2816836Y2165951D01*
X2816612Y2165715D01*
X2816052Y2165268D01*
X2815784Y2164999D01*
X2734216Y2164999D01*
X2730388Y2168828D01*
X2730228Y2168942D01*
X2730105Y2169096D01*
X2729231Y2169659D01*
X2728389Y2170264D01*
X2728202Y2170322D01*
X2728036Y2170428D01*
X2727030Y2170683D01*
X2726038Y2170988D01*
X2725841Y2170983D01*
X2725650Y2171031D01*
X2724615Y2170952D01*
X2723578Y2170925D01*
X2723393Y2170858D01*
X2723197Y2170843D01*
X2722241Y2170437D01*
X2721266Y2170082D01*
X2721113Y2169959D01*
X2720931Y2169882D01*
X2719612Y2168827D01*
X2715784Y2164999D01*
X2715120Y2164999D01*
X2714926Y2164968D01*
X2714730Y2164989D01*
X2713715Y2164769D01*
X2712691Y2164602D01*
X2712518Y2164510D01*
X2712325Y2164468D01*
X2711433Y2163936D01*
X2710516Y2163451D01*
X2710380Y2163309D01*
X2710212Y2163208D01*
X2709537Y2162421D01*
X2708821Y2161668D01*
X2708738Y2161489D01*
X2708610Y2161340D01*
X2708220Y2160376D01*
X2707783Y2159436D01*
X2707761Y2159241D01*
X2707688Y2159058D01*
X2707500Y2157380D01*
X2707500Y1741618D01*
X2707647Y1740723D01*
X2707717Y1739815D01*
X2707845Y1739513D01*
X2707898Y1739190D01*
X2708144Y1738724D01*
X2708148Y1738707D01*
X2708194Y1738630D01*
X2708322Y1738387D01*
X2708678Y1737550D01*
X2708937Y1737225D01*
X2709048Y1737014D01*
X2709285Y1736790D01*
X2709310Y1736758D01*
X2709408Y1736594D01*
X2709514Y1736503D01*
X2709732Y1736230D01*
X2841230Y1604732D01*
X2841968Y1604202D01*
X2842658Y1603610D01*
X2842963Y1603487D01*
X2843229Y1603296D01*
X2844098Y1603028D01*
X2844940Y1602688D01*
X2845352Y1602642D01*
X2845580Y1602571D01*
X2845907Y1602580D01*
X2846618Y1602500D01*
X2871746Y1602500D01*
X2904492Y1569754D01*
X2905074Y1569336D01*
X2905593Y1568843D01*
X2906066Y1568623D01*
X2906490Y1568318D01*
X2907176Y1568107D01*
X2907824Y1567805D01*
X2908342Y1567748D01*
X2908842Y1567593D01*
X2909559Y1567612D01*
X2910269Y1567533D01*
X2910779Y1567643D01*
X2911302Y1567656D01*
X2911976Y1567902D01*
X2912674Y1568053D01*
X2913123Y1568321D01*
X2913614Y1568500D01*
X2914173Y1568947D01*
X2914788Y1569314D01*
X2915128Y1569710D01*
X2915536Y1570037D01*
X2915923Y1570637D01*
X2916390Y1571182D01*
X2916586Y1571668D01*
X2916868Y1572106D01*
X2917043Y1572799D01*
X2917312Y1573463D01*
X2917392Y1574175D01*
X2917472Y1574491D01*
X2917453Y1574729D01*
X2917499Y1575142D01*
X2917499Y1905098D01*
X2917353Y1905993D01*
X2917283Y1906901D01*
X2917155Y1907203D01*
X2917102Y1907526D01*
X2916678Y1908328D01*
X2916322Y1909166D01*
X2916063Y1909491D01*
X2915951Y1909701D01*
X2915715Y1909926D01*
X2915268Y1910485D01*
X2897499Y1928253D01*
X2897499Y1971746D01*
X2928253Y2002500D01*
X2971746Y2002500D01*
X3002500Y1971746D01*
X3002500Y1928253D01*
X2984732Y1910485D01*
X2984202Y1909748D01*
X2983610Y1909058D01*
X2983487Y1908753D01*
X2983296Y1908487D01*
X2983028Y1907619D01*
X2982688Y1906776D01*
X2982642Y1906363D01*
X2982571Y1906135D01*
X2982580Y1905808D01*
X2982500Y1905098D01*
X2982500Y1261538D01*
X2863462Y1142499D01*
X2721858Y1142499D01*
X2721151Y1142384D01*
X2720435Y1142365D01*
X2719945Y1142186D01*
X2719429Y1142102D01*
X2718797Y1141768D01*
X2718124Y1141522D01*
X2717715Y1141195D01*
X2717254Y1140951D01*
X2716760Y1140432D01*
X2716202Y1139985D01*
X2715919Y1139547D01*
X2715559Y1139168D01*
X2715256Y1138517D01*
X2714869Y1137916D01*
X2714741Y1137410D01*
X2714521Y1136936D01*
X2714442Y1136225D01*
X2714266Y1135531D01*
X2714306Y1135009D01*
X2714248Y1134491D01*
X2714399Y1133792D01*
X2714454Y1133077D01*
X2714659Y1132595D01*
X2714769Y1132086D01*
X2715136Y1131471D01*
X2715415Y1130812D01*
X2715863Y1130252D01*
X2716029Y1129972D01*
X2716210Y1129818D01*
X2716470Y1129492D01*
X2741230Y1104732D01*
X2741968Y1104202D01*
X2742658Y1103610D01*
X2742963Y1103487D01*
X2743229Y1103296D01*
X2744098Y1103028D01*
X2744940Y1102688D01*
X2745352Y1102642D01*
X2745580Y1102571D01*
X2745907Y1102580D01*
X2746618Y1102500D01*
X2771746Y1102500D01*
X2802500Y1071746D01*
X2802500Y1028253D01*
X2771746Y997499D01*
X2728253Y997499D01*
X2697499Y1028253D01*
X2697499Y1053382D01*
X2697353Y1054277D01*
X2697283Y1055184D01*
X2697155Y1055487D01*
X2697102Y1055810D01*
X2696678Y1056611D01*
X2696323Y1057450D01*
X2696063Y1057775D01*
X2695951Y1057985D01*
X2695714Y1058210D01*
X2695268Y1058769D01*
X2690508Y1063530D01*
X2689927Y1063947D01*
X2689407Y1064441D01*
X2688933Y1064662D01*
X2688509Y1064966D01*
X2687825Y1065177D01*
X2687176Y1065479D01*
X2686658Y1065537D01*
X2686158Y1065691D01*
X2685441Y1065672D01*
X2684730Y1065752D01*
X2684221Y1065641D01*
X2683698Y1065628D01*
X2683024Y1065382D01*
X2682325Y1065231D01*
X2681877Y1064963D01*
X2681386Y1064784D01*
X2680826Y1064337D01*
X2680212Y1063970D01*
X2679873Y1063574D01*
X2679464Y1063248D01*
X2679076Y1062646D01*
X2678610Y1062102D01*
X2678414Y1061618D01*
X2678132Y1061179D01*
X2677956Y1060485D01*
X2677688Y1059821D01*
X2677608Y1059110D01*
X2677528Y1058793D01*
X2677546Y1058555D01*
X2677500Y1058142D01*
X2677500Y1051716D01*
X2665784Y1039999D01*
X2665120Y1039999D01*
X2664926Y1039968D01*
X2664730Y1039989D01*
X2663715Y1039769D01*
X2662691Y1039602D01*
X2662518Y1039510D01*
X2662325Y1039468D01*
X2661433Y1038936D01*
X2660516Y1038451D01*
X2660380Y1038309D01*
X2660212Y1038208D01*
X2659537Y1037421D01*
X2658821Y1036668D01*
X2658738Y1036489D01*
X2658610Y1036340D01*
X2658220Y1035376D01*
X2657783Y1034436D01*
X2657761Y1034241D01*
X2657688Y1034058D01*
X2657500Y1032380D01*
X2657500Y861538D01*
X2604732Y808769D01*
X2604202Y808031D01*
X2603610Y807342D01*
X2603487Y807037D01*
X2603296Y806771D01*
X2603028Y805902D01*
X2602688Y805060D01*
X2602642Y804648D01*
X2602571Y804419D01*
X2602580Y804093D01*
X2602500Y803382D01*
X2602500Y778253D01*
X2571746Y747499D01*
X2528253Y747499D01*
G37*
%LPD*%
G36*
X1626201Y1707647D02*
X1626201Y1707647D01*
X1627109Y1707717D01*
X1627412Y1707845D01*
X1627734Y1707898D01*
X1628537Y1708322D01*
X1629374Y1708678D01*
X1629699Y1708937D01*
X1629910Y1709048D01*
X1630134Y1709285D01*
X1630694Y1709732D01*
X1815268Y1894306D01*
X1815798Y1895044D01*
X1816390Y1895734D01*
X1816513Y1896038D01*
X1816704Y1896304D01*
X1816972Y1897173D01*
X1817312Y1898015D01*
X1817358Y1898428D01*
X1817428Y1898656D01*
X1817420Y1898983D01*
X1817499Y1899694D01*
X1817499Y2005098D01*
X1817353Y2005993D01*
X1817283Y2006900D01*
X1817155Y2007203D01*
X1817102Y2007526D01*
X1816678Y2008328D01*
X1816322Y2009166D01*
X1816063Y2009491D01*
X1815951Y2009701D01*
X1815715Y2009926D01*
X1815268Y2010485D01*
X1805388Y2020365D01*
X1805228Y2020480D01*
X1805105Y2020633D01*
X1804235Y2021193D01*
X1803389Y2021802D01*
X1803201Y2021860D01*
X1803036Y2021966D01*
X1802033Y2022219D01*
X1801038Y2022526D01*
X1800841Y2022521D01*
X1800651Y2022569D01*
X1799613Y2022489D01*
X1798578Y2022463D01*
X1798394Y2022396D01*
X1798197Y2022381D01*
X1797241Y2021975D01*
X1796266Y2021619D01*
X1796113Y2021496D01*
X1795932Y2021420D01*
X1794612Y2020365D01*
X1771746Y1997499D01*
X1746618Y1997499D01*
X1745723Y1997353D01*
X1744815Y1997283D01*
X1744513Y1997155D01*
X1744190Y1997102D01*
X1743387Y1996678D01*
X1742550Y1996322D01*
X1742225Y1996063D01*
X1742014Y1995951D01*
X1741790Y1995715D01*
X1741230Y1995268D01*
X1711470Y1965508D01*
X1711052Y1964926D01*
X1710559Y1964407D01*
X1710339Y1963934D01*
X1710033Y1963509D01*
X1709822Y1962824D01*
X1709521Y1962176D01*
X1709463Y1961658D01*
X1709309Y1961158D01*
X1709328Y1960441D01*
X1709248Y1959730D01*
X1709358Y1959221D01*
X1709372Y1958698D01*
X1709618Y1958024D01*
X1709769Y1957325D01*
X1710036Y1956877D01*
X1710216Y1956386D01*
X1710663Y1955826D01*
X1711029Y1955212D01*
X1711426Y1954872D01*
X1711752Y1954464D01*
X1712353Y1954077D01*
X1712898Y1953610D01*
X1713383Y1953414D01*
X1713821Y1953132D01*
X1714514Y1952956D01*
X1715179Y1952688D01*
X1715890Y1952608D01*
X1716207Y1952528D01*
X1716444Y1952546D01*
X1716858Y1952500D01*
X1746746Y1952500D01*
X1777500Y1921746D01*
X1777500Y1878253D01*
X1746746Y1847499D01*
X1721618Y1847499D01*
X1720723Y1847353D01*
X1719815Y1847283D01*
X1719513Y1847155D01*
X1719190Y1847102D01*
X1718387Y1846678D01*
X1717550Y1846322D01*
X1717225Y1846063D01*
X1717014Y1845951D01*
X1716790Y1845715D01*
X1716230Y1845268D01*
X1613462Y1742499D01*
X911538Y1742499D01*
X833769Y1820268D01*
X833031Y1820798D01*
X832342Y1821390D01*
X832037Y1821513D01*
X831771Y1821704D01*
X830902Y1821972D01*
X830060Y1822312D01*
X829648Y1822358D01*
X829419Y1822428D01*
X829093Y1822420D01*
X828382Y1822499D01*
X803253Y1822499D01*
X772499Y1853253D01*
X772499Y1896746D01*
X803253Y1927500D01*
X846746Y1927500D01*
X877500Y1896746D01*
X877500Y1871618D01*
X877647Y1870723D01*
X877717Y1869815D01*
X877845Y1869513D01*
X877898Y1869190D01*
X878322Y1868387D01*
X878678Y1867550D01*
X878937Y1867225D01*
X879048Y1867014D01*
X879285Y1866790D01*
X879732Y1866230D01*
X936230Y1809732D01*
X936968Y1809202D01*
X937658Y1808610D01*
X937963Y1808487D01*
X938229Y1808296D01*
X939098Y1808028D01*
X939940Y1807688D01*
X940352Y1807642D01*
X940580Y1807571D01*
X940907Y1807580D01*
X941618Y1807500D01*
X1583382Y1807500D01*
X1584277Y1807647D01*
X1585184Y1807717D01*
X1585487Y1807845D01*
X1585810Y1807898D01*
X1586613Y1808322D01*
X1587450Y1808678D01*
X1587775Y1808937D01*
X1587985Y1809048D01*
X1588210Y1809285D01*
X1588769Y1809732D01*
X1670268Y1891230D01*
X1670798Y1891968D01*
X1671390Y1892658D01*
X1671513Y1892963D01*
X1671704Y1893229D01*
X1671972Y1894098D01*
X1672312Y1894940D01*
X1672358Y1895352D01*
X1672428Y1895580D01*
X1672420Y1895907D01*
X1672499Y1896618D01*
X1672499Y1908142D01*
X1672384Y1908849D01*
X1672365Y1909564D01*
X1672186Y1910055D01*
X1672102Y1910571D01*
X1671768Y1911203D01*
X1671522Y1911876D01*
X1671195Y1912284D01*
X1670951Y1912746D01*
X1670432Y1913239D01*
X1669985Y1913798D01*
X1669547Y1914080D01*
X1669168Y1914441D01*
X1668517Y1914743D01*
X1667916Y1915130D01*
X1667410Y1915258D01*
X1666936Y1915479D01*
X1666225Y1915558D01*
X1665531Y1915734D01*
X1665009Y1915694D01*
X1664491Y1915752D01*
X1663792Y1915600D01*
X1663077Y1915545D01*
X1662596Y1915341D01*
X1662086Y1915231D01*
X1661471Y1914864D01*
X1660812Y1914584D01*
X1660252Y1914137D01*
X1659972Y1913970D01*
X1659818Y1913790D01*
X1659492Y1913530D01*
X1614732Y1868769D01*
X1593462Y1847499D01*
X1233505Y1847499D01*
X1117499Y1963505D01*
X1117499Y2005097D01*
X1117353Y2005993D01*
X1117283Y2006900D01*
X1117155Y2007203D01*
X1117102Y2007526D01*
X1116678Y2008328D01*
X1116322Y2009166D01*
X1116063Y2009491D01*
X1115951Y2009701D01*
X1115715Y2009926D01*
X1115268Y2010485D01*
X1097499Y2028253D01*
X1097499Y2071746D01*
X1128253Y2102500D01*
X1171746Y2102500D01*
X1202500Y2071746D01*
X1202500Y2028253D01*
X1184732Y2010485D01*
X1184202Y2009747D01*
X1183610Y2009057D01*
X1183487Y2008753D01*
X1183296Y2008487D01*
X1183028Y2007618D01*
X1182688Y2006776D01*
X1182642Y2006363D01*
X1182571Y2006135D01*
X1182580Y2005808D01*
X1182500Y2005097D01*
X1182500Y1993585D01*
X1182647Y1992690D01*
X1182717Y1991782D01*
X1182845Y1991479D01*
X1182898Y1991157D01*
X1183322Y1990354D01*
X1183678Y1989517D01*
X1183937Y1989192D01*
X1184048Y1988981D01*
X1184285Y1988757D01*
X1184732Y1988197D01*
X1229492Y1943437D01*
X1230074Y1943018D01*
X1230593Y1942526D01*
X1231066Y1942306D01*
X1231490Y1942000D01*
X1232176Y1941789D01*
X1232824Y1941488D01*
X1233342Y1941430D01*
X1233842Y1941276D01*
X1234559Y1941294D01*
X1235269Y1941215D01*
X1235779Y1941325D01*
X1236302Y1941339D01*
X1236976Y1941585D01*
X1237674Y1941736D01*
X1238123Y1942003D01*
X1238614Y1942183D01*
X1239173Y1942630D01*
X1239788Y1942996D01*
X1240128Y1943393D01*
X1240536Y1943719D01*
X1240923Y1944320D01*
X1241390Y1944864D01*
X1241586Y1945350D01*
X1241868Y1945788D01*
X1242043Y1946481D01*
X1242312Y1947146D01*
X1242392Y1947857D01*
X1242472Y1948174D01*
X1242453Y1948411D01*
X1242499Y1948824D01*
X1242499Y1980098D01*
X1242353Y1980993D01*
X1242283Y1981901D01*
X1242155Y1982203D01*
X1242102Y1982526D01*
X1241678Y1983328D01*
X1241322Y1984166D01*
X1241063Y1984491D01*
X1240951Y1984701D01*
X1240715Y1984926D01*
X1240268Y1985485D01*
X1222499Y2003253D01*
X1222499Y2046746D01*
X1240268Y2064515D01*
X1240798Y2065253D01*
X1241390Y2065943D01*
X1241513Y2066247D01*
X1241704Y2066513D01*
X1241972Y2067382D01*
X1242312Y2068224D01*
X1242358Y2068637D01*
X1242428Y2068865D01*
X1242420Y2069191D01*
X1242499Y2069903D01*
X1242499Y2143880D01*
X1242468Y2144074D01*
X1242489Y2144269D01*
X1242269Y2145285D01*
X1242102Y2146308D01*
X1242010Y2146482D01*
X1241968Y2146674D01*
X1241436Y2147567D01*
X1240951Y2148484D01*
X1240809Y2148619D01*
X1240708Y2148788D01*
X1239921Y2149463D01*
X1239168Y2150179D01*
X1238989Y2150262D01*
X1238840Y2150390D01*
X1237876Y2150779D01*
X1236936Y2151217D01*
X1236741Y2151238D01*
X1236558Y2151312D01*
X1234880Y2151499D01*
X1021620Y2151499D01*
X1021426Y2151468D01*
X1021230Y2151489D01*
X1020215Y2151269D01*
X1019191Y2151102D01*
X1019018Y2151010D01*
X1018825Y2150968D01*
X1017933Y2150436D01*
X1017016Y2149951D01*
X1016880Y2149809D01*
X1016712Y2149708D01*
X1016037Y2148921D01*
X1015321Y2148168D01*
X1015238Y2147989D01*
X1015110Y2147840D01*
X1014720Y2146876D01*
X1014283Y2145936D01*
X1014261Y2145741D01*
X1014188Y2145558D01*
X1014000Y2143880D01*
X1014000Y2140716D01*
X1002284Y2128999D01*
X1000733Y2128999D01*
X1000496Y2128961D01*
X1000257Y2128984D01*
X999286Y2128763D01*
X998305Y2128602D01*
X998093Y2128490D01*
X997858Y2128436D01*
X997008Y2127916D01*
X996130Y2127451D01*
X995964Y2127277D01*
X995759Y2127151D01*
X995120Y2126389D01*
X994435Y2125668D01*
X994333Y2125449D01*
X994179Y2125265D01*
X993816Y2124337D01*
X993397Y2123436D01*
X993370Y2123198D01*
X993283Y2122973D01*
X993234Y2121979D01*
X993124Y2120991D01*
X993175Y2120755D01*
X993163Y2120515D01*
X993434Y2119559D01*
X993645Y2118586D01*
X993768Y2118378D01*
X993834Y2118148D01*
X994397Y2117325D01*
X994905Y2116472D01*
X995088Y2116316D01*
X995224Y2116117D01*
X996018Y2115518D01*
X996773Y2114870D01*
X996997Y2114780D01*
X997189Y2114635D01*
X998762Y2114020D01*
X1003803Y2112670D01*
X1009596Y2109325D01*
X1014325Y2104596D01*
X1017669Y2098803D01*
X1019400Y2092344D01*
X1019400Y2069238D01*
X972449Y2069238D01*
X971489Y2069081D01*
X970519Y2068990D01*
X970279Y2068883D01*
X970021Y2068841D01*
X969161Y2068387D01*
X968270Y2067990D01*
X968077Y2067813D01*
X967845Y2067690D01*
X967175Y2066985D01*
X966458Y2066326D01*
X966331Y2066097D01*
X966150Y2065907D01*
X965740Y2065024D01*
X965270Y2064171D01*
X965223Y2063913D01*
X965113Y2063675D01*
X965005Y2062708D01*
X964831Y2061750D01*
X964869Y2061491D01*
X964840Y2061230D01*
X965046Y2060278D01*
X965187Y2059315D01*
X965305Y2059081D01*
X965361Y2058825D01*
X965859Y2057988D01*
X966300Y2057120D01*
X966487Y2056937D01*
X966621Y2056711D01*
X967362Y2056076D01*
X968054Y2055395D01*
X968339Y2055238D01*
X968489Y2055109D01*
X968734Y2055010D01*
X968740Y2055006D01*
X968819Y2054974D01*
X969533Y2054580D01*
X977426Y2051311D01*
X986909Y2044974D01*
X990891Y2040993D01*
X991629Y2040462D01*
X992318Y2039871D01*
X992623Y2039748D01*
X992889Y2039556D01*
X993758Y2039289D01*
X994600Y2038948D01*
X995013Y2038902D01*
X995241Y2038832D01*
X995567Y2038840D01*
X996278Y2038761D01*
X1019400Y2038761D01*
X1019400Y2015656D01*
X1017669Y2009196D01*
X1014325Y2003403D01*
X1010132Y1999211D01*
X1009603Y1998474D01*
X1009010Y1997783D01*
X1008887Y1997478D01*
X1008696Y1997213D01*
X1008428Y1996344D01*
X1008088Y1995501D01*
X1008042Y1995089D01*
X1007971Y1994861D01*
X1007976Y1994678D01*
X1005675Y1983110D01*
X1001311Y1972573D01*
X994974Y1963091D01*
X986909Y1955025D01*
X977426Y1948689D01*
X966889Y1944325D01*
X958749Y1942706D01*
X958749Y1998868D01*
X958718Y1999062D01*
X958739Y1999257D01*
X958608Y1999864D01*
X958749Y2001132D01*
X958749Y2046379D01*
X958724Y2046532D01*
X958739Y2046666D01*
X958732Y2046701D01*
X958739Y2046768D01*
X958519Y2047783D01*
X958352Y2048807D01*
X958260Y2048981D01*
X958218Y2049173D01*
X957686Y2050065D01*
X957201Y2050983D01*
X957059Y2051118D01*
X956958Y2051287D01*
X956171Y2051962D01*
X955418Y2052678D01*
X955239Y2052760D01*
X955090Y2052888D01*
X954126Y2053278D01*
X953186Y2053715D01*
X952991Y2053737D01*
X952808Y2053811D01*
X951130Y2053998D01*
X948869Y2053998D01*
X948675Y2053966D01*
X948480Y2053988D01*
X947465Y2053768D01*
X946441Y2053601D01*
X946268Y2053509D01*
X946075Y2053467D01*
X945183Y2052935D01*
X944266Y2052450D01*
X944130Y2052308D01*
X943962Y2052207D01*
X943287Y2051420D01*
X942571Y2050666D01*
X942488Y2050488D01*
X942360Y2050339D01*
X941970Y2049375D01*
X941533Y2048435D01*
X941511Y2048240D01*
X941437Y2048057D01*
X941250Y2046379D01*
X941250Y2001132D01*
X941282Y2000938D01*
X941260Y2000743D01*
X941392Y2000136D01*
X941250Y1998868D01*
X941250Y1942706D01*
X933110Y1944325D01*
X922573Y1948689D01*
X913091Y1955025D01*
X905025Y1963091D01*
X898689Y1972573D01*
X894325Y1983111D01*
X892269Y1993446D01*
X891863Y1994528D01*
X891480Y1995618D01*
X891433Y1995678D01*
X891406Y1995750D01*
X890676Y1996647D01*
X889965Y1997557D01*
X889891Y1997612D01*
X889853Y1997659D01*
X889670Y1997775D01*
X888605Y1998558D01*
X888404Y1998674D01*
X883675Y2003403D01*
X880330Y2009196D01*
X878599Y2015656D01*
X878599Y2038761D01*
X903721Y2038761D01*
X904617Y2038908D01*
X905524Y2038977D01*
X905827Y2039106D01*
X906150Y2039158D01*
X906952Y2039583D01*
X907790Y2039938D01*
X908115Y2040198D01*
X908325Y2040309D01*
X908550Y2040545D01*
X909109Y2040993D01*
X913091Y2044974D01*
X922574Y2051311D01*
X930466Y2054580D01*
X931294Y2055093D01*
X932154Y2055548D01*
X932335Y2055738D01*
X932558Y2055876D01*
X933178Y2056625D01*
X933849Y2057332D01*
X933960Y2057570D01*
X934127Y2057772D01*
X934477Y2058681D01*
X934887Y2059563D01*
X934916Y2059823D01*
X935011Y2060068D01*
X935052Y2061042D01*
X935160Y2062008D01*
X935104Y2062265D01*
X935116Y2062527D01*
X934845Y2063462D01*
X934639Y2064413D01*
X934505Y2064639D01*
X934432Y2064891D01*
X933877Y2065691D01*
X933379Y2066527D01*
X933180Y2066698D01*
X933030Y2066913D01*
X932250Y2067494D01*
X931511Y2068129D01*
X931267Y2068227D01*
X931057Y2068384D01*
X930132Y2068687D01*
X929229Y2069051D01*
X928905Y2069088D01*
X928718Y2069148D01*
X928383Y2069146D01*
X927551Y2069238D01*
X878599Y2069238D01*
X878599Y2092344D01*
X880330Y2098803D01*
X883675Y2104596D01*
X888403Y2109325D01*
X894197Y2112670D01*
X899238Y2114020D01*
X899458Y2114119D01*
X899695Y2114158D01*
X900573Y2114623D01*
X901481Y2115033D01*
X901657Y2115196D01*
X901870Y2115309D01*
X902556Y2116030D01*
X903284Y2116707D01*
X903399Y2116918D01*
X903565Y2117093D01*
X903984Y2117994D01*
X904460Y2118869D01*
X904502Y2119106D01*
X904603Y2119324D01*
X904713Y2120312D01*
X904885Y2121293D01*
X904849Y2121530D01*
X904876Y2121769D01*
X904665Y2122743D01*
X904516Y2123725D01*
X904406Y2123939D01*
X904355Y2124174D01*
X903845Y2125029D01*
X903390Y2125914D01*
X903217Y2126082D01*
X903094Y2126288D01*
X902341Y2126934D01*
X901626Y2127629D01*
X901409Y2127733D01*
X901226Y2127890D01*
X900302Y2128263D01*
X899407Y2128693D01*
X899168Y2128722D01*
X898945Y2128812D01*
X897266Y2128999D01*
X895716Y2128999D01*
X883999Y2140716D01*
X883999Y2143880D01*
X883968Y2144074D01*
X883989Y2144269D01*
X883769Y2145285D01*
X883602Y2146308D01*
X883510Y2146482D01*
X883468Y2146674D01*
X882936Y2147567D01*
X882451Y2148484D01*
X882309Y2148619D01*
X882208Y2148788D01*
X881421Y2149463D01*
X880668Y2150179D01*
X880489Y2150262D01*
X880340Y2150390D01*
X879376Y2150779D01*
X878436Y2151217D01*
X878241Y2151238D01*
X878058Y2151312D01*
X876380Y2151499D01*
X340120Y2151499D01*
X339926Y2151468D01*
X339730Y2151489D01*
X338715Y2151269D01*
X337691Y2151102D01*
X337518Y2151010D01*
X337325Y2150968D01*
X336433Y2150436D01*
X335516Y2149951D01*
X335380Y2149809D01*
X335212Y2149708D01*
X334537Y2148921D01*
X333821Y2148168D01*
X333738Y2147989D01*
X333610Y2147840D01*
X333220Y2146876D01*
X332783Y2145936D01*
X332761Y2145741D01*
X332688Y2145558D01*
X332500Y2143880D01*
X332500Y1913120D01*
X332532Y1912926D01*
X332510Y1912730D01*
X332730Y1911715D01*
X332898Y1910691D01*
X332990Y1910518D01*
X333031Y1910325D01*
X333563Y1909433D01*
X334048Y1908516D01*
X334191Y1908380D01*
X334292Y1908212D01*
X335079Y1907537D01*
X335832Y1906821D01*
X336010Y1906738D01*
X336160Y1906610D01*
X337124Y1906220D01*
X338063Y1905783D01*
X338258Y1905761D01*
X338441Y1905688D01*
X340120Y1905500D01*
X341597Y1905500D01*
X342493Y1905647D01*
X343400Y1905717D01*
X343703Y1905845D01*
X344026Y1905898D01*
X344828Y1906322D01*
X345666Y1906678D01*
X345991Y1906937D01*
X346201Y1907048D01*
X346426Y1907285D01*
X346985Y1907732D01*
X364753Y1925500D01*
X365348Y1925500D01*
X366054Y1925616D01*
X366770Y1925634D01*
X367261Y1925813D01*
X367776Y1925898D01*
X368409Y1926233D01*
X369082Y1926478D01*
X369490Y1926804D01*
X369951Y1927048D01*
X370444Y1927567D01*
X371004Y1928014D01*
X371287Y1928454D01*
X371646Y1928832D01*
X371948Y1929481D01*
X372336Y1930083D01*
X372464Y1930591D01*
X372684Y1931063D01*
X372763Y1931774D01*
X372939Y1932469D01*
X372899Y1932990D01*
X372957Y1933509D01*
X372805Y1934209D01*
X372750Y1934923D01*
X372547Y1935403D01*
X372436Y1935914D01*
X372069Y1936529D01*
X371790Y1937188D01*
X371343Y1937747D01*
X371176Y1938028D01*
X370995Y1938183D01*
X370735Y1938508D01*
X365622Y1943620D01*
X350469Y1980202D01*
X350469Y2019798D01*
X365622Y2056379D01*
X393621Y2084378D01*
X430202Y2099530D01*
X469798Y2099530D01*
X506379Y2084378D01*
X534378Y2056379D01*
X549530Y2019798D01*
X549530Y1980202D01*
X534378Y1943620D01*
X529265Y1938508D01*
X528848Y1937927D01*
X528353Y1937407D01*
X528133Y1936933D01*
X527828Y1936509D01*
X527618Y1935825D01*
X527316Y1935176D01*
X527258Y1934658D01*
X527104Y1934158D01*
X527122Y1933441D01*
X527043Y1932730D01*
X527153Y1932221D01*
X527167Y1931698D01*
X527412Y1931024D01*
X527564Y1930325D01*
X527831Y1929877D01*
X528010Y1929386D01*
X528458Y1928826D01*
X528824Y1928212D01*
X529221Y1927872D01*
X529547Y1927464D01*
X530148Y1927077D01*
X530692Y1926610D01*
X531177Y1926414D01*
X531616Y1926132D01*
X532310Y1925956D01*
X532974Y1925688D01*
X533685Y1925608D01*
X534001Y1925528D01*
X534239Y1925546D01*
X534652Y1925500D01*
X535746Y1925500D01*
X566500Y1894746D01*
X566500Y1851253D01*
X535746Y1820499D01*
X492253Y1820499D01*
X461499Y1851253D01*
X461499Y1892850D01*
X461468Y1893044D01*
X461489Y1893239D01*
X461269Y1894255D01*
X461102Y1895278D01*
X461010Y1895452D01*
X460968Y1895644D01*
X460436Y1896537D01*
X459951Y1897454D01*
X459809Y1897589D01*
X459708Y1897758D01*
X458921Y1898433D01*
X458168Y1899149D01*
X457989Y1899232D01*
X457840Y1899360D01*
X456876Y1899749D01*
X455936Y1900187D01*
X455741Y1900208D01*
X455558Y1900282D01*
X453880Y1900469D01*
X446620Y1900469D01*
X446426Y1900438D01*
X446230Y1900459D01*
X445215Y1900239D01*
X444191Y1900072D01*
X444018Y1899980D01*
X443825Y1899938D01*
X442933Y1899406D01*
X442016Y1898921D01*
X441880Y1898779D01*
X441712Y1898678D01*
X441037Y1897891D01*
X440321Y1897138D01*
X440238Y1896959D01*
X440110Y1896810D01*
X439720Y1895846D01*
X439283Y1894906D01*
X439261Y1894711D01*
X439188Y1894528D01*
X439000Y1892850D01*
X439000Y1851253D01*
X408254Y1820508D01*
X407836Y1819926D01*
X407343Y1819407D01*
X407123Y1818934D01*
X406818Y1818509D01*
X406607Y1817824D01*
X406305Y1817176D01*
X406248Y1816658D01*
X406093Y1816158D01*
X406112Y1815441D01*
X406033Y1814730D01*
X406143Y1814221D01*
X406156Y1813698D01*
X406402Y1813024D01*
X406553Y1812325D01*
X406821Y1811877D01*
X407000Y1811386D01*
X407447Y1810826D01*
X407814Y1810212D01*
X408210Y1809872D01*
X408537Y1809464D01*
X409137Y1809077D01*
X409682Y1808610D01*
X410168Y1808414D01*
X410606Y1808132D01*
X411299Y1807956D01*
X411963Y1807688D01*
X412675Y1807608D01*
X412991Y1807528D01*
X413229Y1807546D01*
X413642Y1807500D01*
X440784Y1807500D01*
X452500Y1795784D01*
X452500Y1777142D01*
X452616Y1776435D01*
X452634Y1775720D01*
X452813Y1775229D01*
X452898Y1774713D01*
X453232Y1774081D01*
X453478Y1773408D01*
X453804Y1773000D01*
X454048Y1772538D01*
X454568Y1772045D01*
X455014Y1771486D01*
X455453Y1771204D01*
X455832Y1770843D01*
X456483Y1770541D01*
X457083Y1770154D01*
X457590Y1770026D01*
X458063Y1769805D01*
X458775Y1769726D01*
X459469Y1769550D01*
X459990Y1769590D01*
X460509Y1769533D01*
X461208Y1769684D01*
X461923Y1769739D01*
X462404Y1769943D01*
X462914Y1770053D01*
X463529Y1770420D01*
X464188Y1770700D01*
X464748Y1771147D01*
X465028Y1771314D01*
X465182Y1771494D01*
X465508Y1771754D01*
X492253Y1798500D01*
X535746Y1798500D01*
X566500Y1767746D01*
X566500Y1724253D01*
X562754Y1720508D01*
X562337Y1719927D01*
X561843Y1719407D01*
X561623Y1718933D01*
X561318Y1718509D01*
X561107Y1717825D01*
X560805Y1717176D01*
X560748Y1716658D01*
X560593Y1716158D01*
X560612Y1715441D01*
X560533Y1714730D01*
X560643Y1714221D01*
X560656Y1713698D01*
X560902Y1713024D01*
X561053Y1712325D01*
X561321Y1711877D01*
X561500Y1711386D01*
X561947Y1710826D01*
X562314Y1710212D01*
X562710Y1709872D01*
X563037Y1709464D01*
X563638Y1709077D01*
X564182Y1708610D01*
X564667Y1708414D01*
X565105Y1708132D01*
X565799Y1707956D01*
X566463Y1707688D01*
X567174Y1707608D01*
X567491Y1707528D01*
X567729Y1707546D01*
X568142Y1707500D01*
X1625306Y1707500D01*
X1626201Y1707647D01*
G37*
%LPC*%
G36*
X947716Y2648999D02*
X947716Y2648999D01*
X935999Y2660716D01*
X935999Y2827284D01*
X947716Y2839000D01*
X1089430Y2839000D01*
X1089624Y2839032D01*
X1089819Y2839010D01*
X1090835Y2839230D01*
X1091858Y2839398D01*
X1092032Y2839490D01*
X1092224Y2839531D01*
X1093117Y2840063D01*
X1094034Y2840548D01*
X1094169Y2840691D01*
X1094338Y2840792D01*
X1095013Y2841579D01*
X1095729Y2842332D01*
X1095812Y2842510D01*
X1095940Y2842660D01*
X1096329Y2843624D01*
X1096767Y2844563D01*
X1096788Y2844758D01*
X1096862Y2844941D01*
X1097049Y2846620D01*
X1097049Y2877998D01*
X1172001Y2952950D01*
X1277998Y2952950D01*
X1352950Y2877998D01*
X1352950Y2772001D01*
X1277998Y2697049D01*
X1172001Y2697049D01*
X1159783Y2709268D01*
X1159045Y2709798D01*
X1158355Y2710390D01*
X1158051Y2710513D01*
X1157784Y2710704D01*
X1156916Y2710972D01*
X1156073Y2711312D01*
X1155661Y2711358D01*
X1155433Y2711428D01*
X1155106Y2711420D01*
X1154395Y2711499D01*
X1113620Y2711499D01*
X1113426Y2711468D01*
X1113230Y2711489D01*
X1112215Y2711269D01*
X1111191Y2711102D01*
X1111018Y2711010D01*
X1110825Y2710968D01*
X1109933Y2710436D01*
X1109016Y2709951D01*
X1108880Y2709809D01*
X1108712Y2709708D01*
X1108037Y2708921D01*
X1107321Y2708168D01*
X1107238Y2707989D01*
X1107110Y2707840D01*
X1106720Y2706876D01*
X1106283Y2705936D01*
X1106261Y2705741D01*
X1106188Y2705558D01*
X1106000Y2703880D01*
X1106000Y2660716D01*
X1094284Y2648999D01*
X947716Y2648999D01*
G37*
%LPD*%
%LPC*%
G36*
X328602Y1392469D02*
X328602Y1392469D01*
X292021Y1407622D01*
X264022Y1435621D01*
X248869Y1472202D01*
X248869Y1511798D01*
X264022Y1548379D01*
X292021Y1576378D01*
X312396Y1584818D01*
X313390Y1585434D01*
X314388Y1586029D01*
X314431Y1586079D01*
X314488Y1586114D01*
X315229Y1587010D01*
X315990Y1587897D01*
X316015Y1587959D01*
X316057Y1588009D01*
X316474Y1589095D01*
X316912Y1590178D01*
X316921Y1590257D01*
X316940Y1590306D01*
X316948Y1590503D01*
X317099Y1591857D01*
X317099Y1607261D01*
X320480Y1607261D01*
X320674Y1607293D01*
X320869Y1607271D01*
X321885Y1607491D01*
X322908Y1607658D01*
X323082Y1607750D01*
X323274Y1607792D01*
X324167Y1608324D01*
X325084Y1608809D01*
X325219Y1608952D01*
X325388Y1609052D01*
X326063Y1609839D01*
X326453Y1610250D01*
X379879Y1610250D01*
X380073Y1610282D01*
X380268Y1610260D01*
X381283Y1610480D01*
X382307Y1610648D01*
X382481Y1610739D01*
X382673Y1610781D01*
X383565Y1611313D01*
X384483Y1611798D01*
X384618Y1611941D01*
X384787Y1612041D01*
X385462Y1612828D01*
X386178Y1613582D01*
X386260Y1613760D01*
X386388Y1613909D01*
X386778Y1614873D01*
X387215Y1615813D01*
X387237Y1616008D01*
X387311Y1616191D01*
X387498Y1617869D01*
X387498Y1620130D01*
X387466Y1620324D01*
X387488Y1620519D01*
X387268Y1621535D01*
X387110Y1622502D01*
X387130Y1622502D01*
X387324Y1622533D01*
X387519Y1622512D01*
X387982Y1622612D01*
X387784Y1622186D01*
X387763Y1621991D01*
X387689Y1621808D01*
X387502Y1620130D01*
X387502Y1617869D01*
X387533Y1617675D01*
X387512Y1617480D01*
X387732Y1616465D01*
X387899Y1615441D01*
X387991Y1615268D01*
X388033Y1615075D01*
X388565Y1614183D01*
X389050Y1613266D01*
X389192Y1613130D01*
X389293Y1612962D01*
X390080Y1612287D01*
X390833Y1611571D01*
X391012Y1611488D01*
X391161Y1611360D01*
X392125Y1610970D01*
X393065Y1610533D01*
X393260Y1610511D01*
X393443Y1610437D01*
X395121Y1610250D01*
X445476Y1610250D01*
X445591Y1610141D01*
X445692Y1609973D01*
X446479Y1609298D01*
X447232Y1608582D01*
X447410Y1608499D01*
X447560Y1608371D01*
X448524Y1607981D01*
X449463Y1607544D01*
X449658Y1607522D01*
X449841Y1607448D01*
X451520Y1607261D01*
X457900Y1607261D01*
X457900Y1584156D01*
X456169Y1577696D01*
X452825Y1571903D01*
X448096Y1567175D01*
X442303Y1563830D01*
X435352Y1561968D01*
X434486Y1561576D01*
X433590Y1561249D01*
X433368Y1561072D01*
X433109Y1560955D01*
X432413Y1560309D01*
X431668Y1559713D01*
X431514Y1559474D01*
X431306Y1559281D01*
X430851Y1558443D01*
X430336Y1557643D01*
X430267Y1557368D01*
X430131Y1557119D01*
X429966Y1556181D01*
X429733Y1555258D01*
X429755Y1554974D01*
X429706Y1554695D01*
X429848Y1553754D01*
X429922Y1552804D01*
X430032Y1552543D01*
X430075Y1552262D01*
X430511Y1551415D01*
X430883Y1550539D01*
X431105Y1550261D01*
X431201Y1550074D01*
X431441Y1549841D01*
X431937Y1549220D01*
X432778Y1548379D01*
X442960Y1523796D01*
X443337Y1523189D01*
X443628Y1522533D01*
X443982Y1522148D01*
X444257Y1521704D01*
X444808Y1521248D01*
X445293Y1520720D01*
X445750Y1520468D01*
X446152Y1520135D01*
X446821Y1519878D01*
X447448Y1519533D01*
X447961Y1519439D01*
X448449Y1519252D01*
X449166Y1519221D01*
X449869Y1519093D01*
X450386Y1519169D01*
X450908Y1519147D01*
X451594Y1519345D01*
X452304Y1519449D01*
X452770Y1519685D01*
X453271Y1519830D01*
X453860Y1520238D01*
X454498Y1520562D01*
X454864Y1520934D01*
X455294Y1521232D01*
X455723Y1521807D01*
X456224Y1522317D01*
X456569Y1522944D01*
X456764Y1523205D01*
X456838Y1523432D01*
X457039Y1523796D01*
X467222Y1548379D01*
X495221Y1576378D01*
X531802Y1591530D01*
X571398Y1591530D01*
X607979Y1576378D01*
X635978Y1548379D01*
X651130Y1511798D01*
X651130Y1472202D01*
X635978Y1435621D01*
X607979Y1407622D01*
X571398Y1392469D01*
X531802Y1392469D01*
X495221Y1407622D01*
X467222Y1435621D01*
X457039Y1460204D01*
X456661Y1460813D01*
X456371Y1461467D01*
X456018Y1461851D01*
X455743Y1462296D01*
X455190Y1462753D01*
X454707Y1463279D01*
X454250Y1463531D01*
X453847Y1463865D01*
X453179Y1464122D01*
X452552Y1464468D01*
X452038Y1464561D01*
X451550Y1464748D01*
X450835Y1464779D01*
X450131Y1464906D01*
X449614Y1464831D01*
X449092Y1464853D01*
X448403Y1464654D01*
X447696Y1464551D01*
X447231Y1464315D01*
X446728Y1464169D01*
X446138Y1463761D01*
X445501Y1463438D01*
X445135Y1463065D01*
X444705Y1462768D01*
X444278Y1462194D01*
X443776Y1461683D01*
X443430Y1461056D01*
X443235Y1460794D01*
X443161Y1460568D01*
X442960Y1460204D01*
X432778Y1435621D01*
X404779Y1407622D01*
X368198Y1392469D01*
X328602Y1392469D01*
G37*
%LPD*%
%LPC*%
G36*
X753864Y2952599D02*
X753864Y2952599D01*
X718507Y2967245D01*
X691445Y2994307D01*
X676799Y3029664D01*
X676799Y3220335D01*
X691445Y3255693D01*
X718507Y3282755D01*
X753864Y3297400D01*
X792135Y3297400D01*
X827493Y3282755D01*
X854555Y3255693D01*
X869200Y3220335D01*
X869200Y3029664D01*
X854555Y2994307D01*
X827493Y2967245D01*
X792135Y2952599D01*
X753864Y2952599D01*
G37*
%LPD*%
%LPC*%
G36*
X1007864Y2952599D02*
X1007864Y2952599D01*
X972507Y2967245D01*
X945445Y2994307D01*
X930799Y3029664D01*
X930799Y3220335D01*
X945445Y3255693D01*
X972507Y3282755D01*
X1007864Y3297400D01*
X1046135Y3297400D01*
X1081493Y3282755D01*
X1108555Y3255693D01*
X1123200Y3220335D01*
X1123200Y3029664D01*
X1108555Y2994307D01*
X1081493Y2967245D01*
X1046135Y2952599D01*
X1007864Y2952599D01*
G37*
%LPD*%
%LPC*%
G36*
X522001Y2697049D02*
X522001Y2697049D01*
X447049Y2772001D01*
X447049Y2877998D01*
X522001Y2952950D01*
X627998Y2952950D01*
X702950Y2877998D01*
X702950Y2772001D01*
X627998Y2697049D01*
X522001Y2697049D01*
G37*
%LPD*%
%LPC*%
G36*
X757716Y2648999D02*
X757716Y2648999D01*
X745999Y2660716D01*
X745999Y2696597D01*
X745853Y2697493D01*
X745783Y2698400D01*
X745655Y2698703D01*
X745602Y2699026D01*
X745178Y2699828D01*
X744822Y2700666D01*
X744563Y2700991D01*
X744451Y2701201D01*
X744215Y2701426D01*
X743768Y2701985D01*
X723499Y2722253D01*
X723499Y2765746D01*
X743768Y2786015D01*
X744298Y2786753D01*
X744890Y2787443D01*
X745013Y2787747D01*
X745204Y2788013D01*
X745472Y2788882D01*
X745812Y2789724D01*
X745858Y2790137D01*
X745928Y2790365D01*
X745920Y2790691D01*
X745999Y2791403D01*
X745999Y2827284D01*
X757716Y2839000D01*
X904284Y2839000D01*
X916000Y2827284D01*
X916000Y2660716D01*
X904284Y2648999D01*
X757716Y2648999D01*
G37*
%LPD*%
%LPC*%
G36*
X3215239Y3215239D02*
X3215239Y3215239D01*
X3215239Y3400930D01*
X3239336Y3397758D01*
X3264813Y3390931D01*
X3289180Y3380838D01*
X3312019Y3367652D01*
X3332945Y3351595D01*
X3351595Y3332945D01*
X3367652Y3312019D01*
X3380838Y3289180D01*
X3390931Y3264813D01*
X3397758Y3239336D01*
X3400930Y3215239D01*
X3215239Y3215239D01*
G37*
%LPD*%
%LPC*%
G36*
X315239Y3215239D02*
X315239Y3215239D01*
X315239Y3400930D01*
X339336Y3397758D01*
X364813Y3390931D01*
X389180Y3380838D01*
X412019Y3367652D01*
X432945Y3351595D01*
X451595Y3332945D01*
X467652Y3312019D01*
X480838Y3289180D01*
X490931Y3264813D01*
X497758Y3239336D01*
X500930Y3215239D01*
X315239Y3215239D01*
G37*
%LPD*%
%LPC*%
G36*
X315239Y315239D02*
X315239Y315239D01*
X315239Y500930D01*
X339336Y497758D01*
X364813Y490931D01*
X389180Y480838D01*
X412019Y467652D01*
X432945Y451595D01*
X451595Y432945D01*
X467652Y412019D01*
X480838Y389180D01*
X490931Y364813D01*
X497758Y339336D01*
X500930Y315239D01*
X315239Y315239D01*
G37*
%LPD*%
%LPC*%
G36*
X3215239Y315239D02*
X3215239Y315239D01*
X3215239Y500930D01*
X3239336Y497758D01*
X3264813Y490931D01*
X3289180Y480838D01*
X3312019Y467652D01*
X3332945Y451595D01*
X3351595Y432945D01*
X3367652Y412019D01*
X3380838Y389180D01*
X3390931Y364813D01*
X3397758Y339336D01*
X3400930Y315239D01*
X3215239Y315239D01*
G37*
%LPD*%
%LPC*%
G36*
X2999069Y3215239D02*
X2999069Y3215239D01*
X3002242Y3239336D01*
X3009068Y3264813D01*
X3019162Y3289180D01*
X3032348Y3312019D01*
X3048405Y3332945D01*
X3067055Y3351595D01*
X3087981Y3367652D01*
X3110820Y3380838D01*
X3135187Y3390931D01*
X3160664Y3397758D01*
X3184761Y3400930D01*
X3184761Y3215239D01*
X2999069Y3215239D01*
G37*
%LPD*%
%LPC*%
G36*
X99069Y3215239D02*
X99069Y3215239D01*
X102242Y3239336D01*
X109068Y3264813D01*
X119162Y3289180D01*
X132348Y3312019D01*
X148405Y3332945D01*
X167055Y3351595D01*
X187981Y3367652D01*
X210820Y3380838D01*
X235187Y3390931D01*
X260664Y3397758D01*
X284761Y3400930D01*
X284761Y3215239D01*
X99069Y3215239D01*
G37*
%LPD*%
%LPC*%
G36*
X315239Y3184761D02*
X315239Y3184761D01*
X500930Y3184761D01*
X497758Y3160664D01*
X490931Y3135187D01*
X480838Y3110820D01*
X467652Y3087981D01*
X451595Y3067055D01*
X432945Y3048405D01*
X412019Y3032348D01*
X389180Y3019162D01*
X364813Y3009068D01*
X339336Y3002242D01*
X315239Y2999069D01*
X315239Y3184761D01*
G37*
%LPD*%
%LPC*%
G36*
X3215239Y3184761D02*
X3215239Y3184761D01*
X3400930Y3184761D01*
X3397758Y3160664D01*
X3390931Y3135187D01*
X3380838Y3110820D01*
X3367652Y3087981D01*
X3351595Y3067055D01*
X3332945Y3048405D01*
X3312019Y3032348D01*
X3289180Y3019162D01*
X3264813Y3009068D01*
X3239336Y3002242D01*
X3215239Y2999069D01*
X3215239Y3184761D01*
G37*
%LPD*%
%LPC*%
G36*
X3215239Y284761D02*
X3215239Y284761D01*
X3400930Y284761D01*
X3397758Y260664D01*
X3390931Y235187D01*
X3380838Y210820D01*
X3367652Y187981D01*
X3351595Y167055D01*
X3332945Y148405D01*
X3312019Y132348D01*
X3289180Y119162D01*
X3264813Y109068D01*
X3239336Y102242D01*
X3215239Y99069D01*
X3215239Y284761D01*
G37*
%LPD*%
%LPC*%
G36*
X2999069Y315239D02*
X2999069Y315239D01*
X3002242Y339336D01*
X3009068Y364813D01*
X3019162Y389180D01*
X3032348Y412019D01*
X3048405Y432945D01*
X3067055Y451595D01*
X3087981Y467652D01*
X3110820Y480838D01*
X3135187Y490931D01*
X3160664Y497758D01*
X3184761Y500930D01*
X3184761Y315239D01*
X2999069Y315239D01*
G37*
%LPD*%
%LPC*%
G36*
X99069Y315239D02*
X99069Y315239D01*
X102242Y339336D01*
X109068Y364813D01*
X119162Y389180D01*
X132348Y412019D01*
X148405Y432945D01*
X167055Y451595D01*
X187981Y467652D01*
X210820Y480838D01*
X235187Y490931D01*
X260664Y497758D01*
X284761Y500930D01*
X284761Y315239D01*
X99069Y315239D01*
G37*
%LPD*%
%LPC*%
G36*
X315239Y284761D02*
X315239Y284761D01*
X500930Y284761D01*
X497758Y260664D01*
X490931Y235187D01*
X480838Y210820D01*
X467652Y187981D01*
X451595Y167055D01*
X432945Y148405D01*
X412019Y132348D01*
X389180Y119162D01*
X364813Y109068D01*
X339336Y102242D01*
X315239Y99069D01*
X315239Y284761D01*
G37*
%LPD*%
%LPC*%
G36*
X260664Y3002242D02*
X260664Y3002242D01*
X235187Y3009068D01*
X210820Y3019162D01*
X187981Y3032348D01*
X167055Y3048405D01*
X148405Y3067055D01*
X132348Y3087981D01*
X119162Y3110820D01*
X109068Y3135187D01*
X102242Y3160664D01*
X99069Y3184761D01*
X284761Y3184761D01*
X284761Y2999069D01*
X260664Y3002242D01*
G37*
%LPD*%
%LPC*%
G36*
X260664Y102242D02*
X260664Y102242D01*
X235187Y109068D01*
X210820Y119162D01*
X187981Y132348D01*
X167055Y148405D01*
X148405Y167055D01*
X132348Y187981D01*
X119162Y210820D01*
X109068Y235187D01*
X102242Y260664D01*
X99069Y284761D01*
X284761Y284761D01*
X284761Y99069D01*
X260664Y102242D01*
G37*
%LPD*%
%LPC*%
G36*
X3160664Y102242D02*
X3160664Y102242D01*
X3135187Y109068D01*
X3110820Y119162D01*
X3087981Y132348D01*
X3067055Y148405D01*
X3048405Y167055D01*
X3032348Y187981D01*
X3019162Y210820D01*
X3009068Y235187D01*
X3002242Y260664D01*
X2999069Y284761D01*
X3184761Y284761D01*
X3184761Y99069D01*
X3160664Y102242D01*
G37*
%LPD*%
%LPC*%
G36*
X3160664Y3002242D02*
X3160664Y3002242D01*
X3135187Y3009068D01*
X3110820Y3019162D01*
X3087981Y3032348D01*
X3067055Y3048405D01*
X3048405Y3067055D01*
X3032348Y3087981D01*
X3019162Y3110820D01*
X3009068Y3135187D01*
X3002242Y3160664D01*
X2999069Y3184761D01*
X3184761Y3184761D01*
X3184761Y2999069D01*
X3160664Y3002242D01*
G37*
%LPD*%
%LPC*%
G36*
X1320216Y748499D02*
X1320216Y748499D01*
X1308499Y760216D01*
X1308499Y831784D01*
X1320216Y843500D01*
X1339880Y843500D01*
X1340074Y843532D01*
X1340269Y843510D01*
X1341285Y843730D01*
X1342308Y843898D01*
X1342482Y843990D01*
X1342674Y844031D01*
X1343567Y844563D01*
X1344484Y845048D01*
X1344619Y845191D01*
X1344788Y845292D01*
X1345463Y846079D01*
X1346179Y846832D01*
X1346262Y847010D01*
X1346390Y847160D01*
X1346779Y848124D01*
X1347217Y849063D01*
X1347238Y849258D01*
X1347312Y849441D01*
X1347499Y851120D01*
X1347499Y871746D01*
X1378253Y902500D01*
X1421746Y902500D01*
X1452500Y871746D01*
X1452500Y851120D01*
X1452532Y850926D01*
X1452510Y850730D01*
X1452730Y849715D01*
X1452898Y848691D01*
X1452990Y848518D01*
X1453031Y848325D01*
X1453563Y847433D01*
X1454048Y846516D01*
X1454191Y846380D01*
X1454292Y846212D01*
X1455079Y845537D01*
X1455832Y844821D01*
X1456010Y844738D01*
X1456160Y844610D01*
X1457124Y844220D01*
X1458063Y843783D01*
X1458258Y843761D01*
X1458441Y843688D01*
X1460120Y843500D01*
X1467784Y843500D01*
X1479500Y831784D01*
X1479500Y760216D01*
X1467784Y748499D01*
X1320216Y748499D01*
G37*
%LPD*%
%LPC*%
G36*
X2525917Y3104199D02*
X2525917Y3104199D01*
X2499895Y3114978D01*
X2479978Y3134895D01*
X2469199Y3160917D01*
X2469199Y3189083D01*
X2479978Y3215105D01*
X2499895Y3235022D01*
X2525917Y3245800D01*
X2554083Y3245800D01*
X2580105Y3235022D01*
X2600022Y3215105D01*
X2610800Y3189083D01*
X2610800Y3160917D01*
X2600022Y3134895D01*
X2580105Y3114978D01*
X2554083Y3104199D01*
X2525917Y3104199D01*
G37*
%LPD*%
%LPC*%
G36*
X2779917Y3104199D02*
X2779917Y3104199D01*
X2753895Y3114978D01*
X2733978Y3134895D01*
X2723199Y3160917D01*
X2723199Y3189083D01*
X2733978Y3215105D01*
X2753895Y3235022D01*
X2779917Y3245800D01*
X2808083Y3245800D01*
X2834105Y3235022D01*
X2854022Y3215105D01*
X2864800Y3189083D01*
X2864800Y3160917D01*
X2854022Y3134895D01*
X2834105Y3114978D01*
X2808083Y3104199D01*
X2779917Y3104199D01*
G37*
%LPD*%
%LPC*%
G36*
X1638239Y3140239D02*
X1638239Y3140239D01*
X1638239Y3301653D01*
X1646791Y3300298D01*
X1662001Y3295357D01*
X1676250Y3288096D01*
X1689188Y3278697D01*
X1700497Y3267388D01*
X1709896Y3254450D01*
X1717157Y3240201D01*
X1722098Y3224991D01*
X1724600Y3209196D01*
X1724600Y3140239D01*
X1638239Y3140239D01*
G37*
%LPD*%
%LPC*%
G36*
X1638239Y3109761D02*
X1638239Y3109761D01*
X1724600Y3109761D01*
X1724600Y3040804D01*
X1722098Y3025008D01*
X1717157Y3009799D01*
X1709896Y2995549D01*
X1700497Y2982612D01*
X1689188Y2971303D01*
X1676250Y2961903D01*
X1662001Y2954643D01*
X1646791Y2949701D01*
X1638239Y2948347D01*
X1638239Y3109761D01*
G37*
%LPD*%
%LPC*%
G36*
X1521399Y3140239D02*
X1521399Y3140239D01*
X1521399Y3209196D01*
X1523901Y3224991D01*
X1528843Y3240201D01*
X1536103Y3254450D01*
X1545503Y3267388D01*
X1556812Y3278697D01*
X1569749Y3288096D01*
X1583999Y3295357D01*
X1599208Y3300298D01*
X1607761Y3301653D01*
X1607761Y3140239D01*
X1521399Y3140239D01*
G37*
%LPD*%
%LPC*%
G36*
X1599208Y2949701D02*
X1599208Y2949701D01*
X1583999Y2954643D01*
X1569749Y2961903D01*
X1556812Y2971303D01*
X1545503Y2982612D01*
X1536103Y2995549D01*
X1528843Y3009799D01*
X1523901Y3025008D01*
X1521399Y3040804D01*
X1521399Y3109761D01*
X1607761Y3109761D01*
X1607761Y2948347D01*
X1599208Y2949701D01*
G37*
%LPD*%
%LPC*%
G36*
X1383110Y494325D02*
X1383110Y494325D01*
X1372573Y498689D01*
X1363091Y505025D01*
X1355025Y513091D01*
X1348689Y522573D01*
X1344325Y533110D01*
X1342088Y544356D01*
X1342089Y544369D01*
X1342038Y544608D01*
X1341953Y545033D01*
X1341935Y545081D01*
X1341869Y545385D01*
X1341702Y546408D01*
X1341610Y546582D01*
X1341568Y546774D01*
X1341036Y547667D01*
X1340551Y548584D01*
X1340409Y548719D01*
X1340308Y548888D01*
X1339521Y549563D01*
X1338768Y550279D01*
X1338589Y550362D01*
X1338440Y550490D01*
X1337476Y550879D01*
X1336536Y551317D01*
X1336341Y551338D01*
X1336158Y551412D01*
X1334480Y551599D01*
X1325156Y551599D01*
X1318696Y553330D01*
X1312903Y556675D01*
X1308175Y561403D01*
X1304830Y567196D01*
X1303099Y573656D01*
X1303099Y608761D01*
X1381065Y608761D01*
X1381622Y608143D01*
X1381878Y607999D01*
X1382093Y607795D01*
X1382946Y607398D01*
X1383767Y606937D01*
X1384057Y606882D01*
X1384324Y606758D01*
X1385258Y606653D01*
X1386184Y606477D01*
X1386553Y606509D01*
X1386770Y606485D01*
X1387095Y606555D01*
X1387867Y606621D01*
X1391250Y607294D01*
X1391250Y551132D01*
X1391282Y550938D01*
X1391260Y550743D01*
X1391392Y550136D01*
X1391250Y548868D01*
X1391250Y492706D01*
X1383110Y494325D01*
G37*
%LPD*%
%LPC*%
G36*
X1408749Y548868D02*
X1408749Y548868D01*
X1408718Y549062D01*
X1408739Y549257D01*
X1408608Y549864D01*
X1408749Y551132D01*
X1408749Y608761D01*
X1484900Y608761D01*
X1484900Y573656D01*
X1483169Y567196D01*
X1479825Y561403D01*
X1475096Y556675D01*
X1469303Y553330D01*
X1463548Y551788D01*
X1463151Y551609D01*
X1462725Y551517D01*
X1462036Y551106D01*
X1461305Y550776D01*
X1460986Y550479D01*
X1460612Y550257D01*
X1460090Y549648D01*
X1459502Y549102D01*
X1459294Y548719D01*
X1459010Y548388D01*
X1458709Y547644D01*
X1458326Y546940D01*
X1458251Y546510D01*
X1458088Y546107D01*
X1457926Y544659D01*
X1457901Y544516D01*
X1457906Y544481D01*
X1457900Y544428D01*
X1457900Y544298D01*
X1455675Y533110D01*
X1451311Y522573D01*
X1444974Y513091D01*
X1436909Y505025D01*
X1427426Y498689D01*
X1416889Y494325D01*
X1408749Y492706D01*
X1408749Y548868D01*
G37*
%LPD*%
%LPC*%
G36*
X2244325Y2016889D02*
X2244325Y2016889D01*
X2248689Y2027426D01*
X2253954Y2035306D01*
X2254022Y2035454D01*
X2254129Y2035579D01*
X2254531Y2036573D01*
X2254973Y2037546D01*
X2254990Y2037709D01*
X2255051Y2037861D01*
X2255238Y2039539D01*
X2255238Y2070400D01*
X2278344Y2070400D01*
X2284803Y2068669D01*
X2290596Y2065325D01*
X2295789Y2060132D01*
X2296528Y2059602D01*
X2297217Y2059010D01*
X2297522Y2058887D01*
X2297788Y2058696D01*
X2298657Y2058428D01*
X2299499Y2058088D01*
X2299911Y2058042D01*
X2300139Y2057971D01*
X2300466Y2057980D01*
X2301177Y2057900D01*
X2305702Y2057900D01*
X2316889Y2055675D01*
X2327426Y2051311D01*
X2336909Y2044974D01*
X2344974Y2036909D01*
X2351311Y2027426D01*
X2355675Y2016889D01*
X2357294Y2008749D01*
X2301132Y2008749D01*
X2300938Y2008718D01*
X2300743Y2008739D01*
X2300136Y2008608D01*
X2298868Y2008749D01*
X2247621Y2008749D01*
X2247427Y2008718D01*
X2247232Y2008739D01*
X2246216Y2008519D01*
X2245193Y2008352D01*
X2245019Y2008260D01*
X2244827Y2008218D01*
X2243934Y2007686D01*
X2243017Y2007201D01*
X2242882Y2007059D01*
X2242713Y2006958D01*
X2242240Y2006406D01*
X2244325Y2016889D01*
G37*
%LPD*%
%LPC*%
G36*
X2255238Y1929599D02*
X2255238Y1929599D01*
X2255238Y1960461D01*
X2255212Y1960622D01*
X2255232Y1960785D01*
X2255013Y1961835D01*
X2254841Y1962889D01*
X2254765Y1963033D01*
X2254731Y1963194D01*
X2253954Y1964694D01*
X2248689Y1972573D01*
X2244325Y1983111D01*
X2242243Y1993575D01*
X2242580Y1993287D01*
X2243333Y1992571D01*
X2243512Y1992488D01*
X2243661Y1992360D01*
X2244625Y1991970D01*
X2245565Y1991533D01*
X2245760Y1991511D01*
X2245943Y1991437D01*
X2247621Y1991250D01*
X2298868Y1991250D01*
X2299062Y1991282D01*
X2299257Y1991260D01*
X2299864Y1991392D01*
X2301132Y1991250D01*
X2357294Y1991250D01*
X2355675Y1983110D01*
X2351311Y1972573D01*
X2344974Y1963091D01*
X2336909Y1955025D01*
X2327426Y1948689D01*
X2316889Y1944325D01*
X2305702Y1942099D01*
X2301177Y1942099D01*
X2300282Y1941953D01*
X2299374Y1941883D01*
X2299072Y1941755D01*
X2298749Y1941702D01*
X2297946Y1941278D01*
X2297109Y1940922D01*
X2296784Y1940663D01*
X2296573Y1940551D01*
X2296349Y1940315D01*
X2295789Y1939868D01*
X2290596Y1934675D01*
X2284803Y1931330D01*
X2278344Y1929599D01*
X2255238Y1929599D01*
G37*
%LPD*%
%LPC*%
G36*
X1409238Y639238D02*
X1409238Y639238D01*
X1409238Y696400D01*
X1462844Y696400D01*
X1469303Y694669D01*
X1475096Y691325D01*
X1479825Y686596D01*
X1483169Y680803D01*
X1484900Y674344D01*
X1484900Y639238D01*
X1409238Y639238D01*
G37*
%LPD*%
%LPC*%
G36*
X1303099Y639238D02*
X1303099Y639238D01*
X1303099Y674344D01*
X1304830Y680803D01*
X1308175Y686596D01*
X1312903Y691325D01*
X1318696Y694669D01*
X1325156Y696400D01*
X1378761Y696400D01*
X1378761Y639238D01*
X1303099Y639238D01*
G37*
%LPD*%
%LPC*%
G36*
X108749Y1758749D02*
X108749Y1758749D01*
X108749Y1807294D01*
X116889Y1805675D01*
X127426Y1801311D01*
X136909Y1794974D01*
X144974Y1786909D01*
X151311Y1777426D01*
X155675Y1766889D01*
X157294Y1758749D01*
X108749Y1758749D01*
G37*
%LPD*%
%LPC*%
G36*
X108749Y2758749D02*
X108749Y2758749D01*
X108749Y2807294D01*
X116889Y2805675D01*
X127426Y2801311D01*
X136909Y2794974D01*
X144974Y2786909D01*
X151311Y2777426D01*
X155675Y2766889D01*
X157294Y2758749D01*
X108749Y2758749D01*
G37*
%LPD*%
%LPC*%
G36*
X108749Y758749D02*
X108749Y758749D01*
X108749Y807294D01*
X116889Y805675D01*
X127426Y801311D01*
X136909Y794974D01*
X144974Y786909D01*
X151311Y777426D01*
X155675Y766889D01*
X157294Y758749D01*
X108749Y758749D01*
G37*
%LPD*%
%LPC*%
G36*
X108749Y2258749D02*
X108749Y2258749D01*
X108749Y2307294D01*
X116889Y2305675D01*
X127426Y2301311D01*
X136909Y2294974D01*
X144974Y2286909D01*
X151311Y2277426D01*
X155675Y2266889D01*
X157294Y2258749D01*
X108749Y2258749D01*
G37*
%LPD*%
%LPC*%
G36*
X2758749Y108749D02*
X2758749Y108749D01*
X2758749Y157294D01*
X2766889Y155675D01*
X2777426Y151311D01*
X2786909Y144974D01*
X2794974Y136909D01*
X2801311Y127426D01*
X2805675Y116889D01*
X2807294Y108749D01*
X2758749Y108749D01*
G37*
%LPD*%
%LPC*%
G36*
X108749Y1258749D02*
X108749Y1258749D01*
X108749Y1307294D01*
X116889Y1305675D01*
X127426Y1301311D01*
X136909Y1294974D01*
X144974Y1286909D01*
X151311Y1277426D01*
X155675Y1266889D01*
X157294Y1258749D01*
X108749Y1258749D01*
G37*
%LPD*%
%LPC*%
G36*
X758749Y108749D02*
X758749Y108749D01*
X758749Y157294D01*
X766889Y155675D01*
X777426Y151311D01*
X786909Y144974D01*
X794974Y136909D01*
X801311Y127426D01*
X805675Y116889D01*
X807294Y108749D01*
X758749Y108749D01*
G37*
%LPD*%
%LPC*%
G36*
X1758749Y108749D02*
X1758749Y108749D01*
X1758749Y157294D01*
X1766889Y155675D01*
X1777426Y151311D01*
X1786909Y144974D01*
X1794974Y136909D01*
X1801311Y127426D01*
X1805675Y116889D01*
X1807294Y108749D01*
X1758749Y108749D01*
G37*
%LPD*%
%LPC*%
G36*
X2258749Y108749D02*
X2258749Y108749D01*
X2258749Y157294D01*
X2266889Y155675D01*
X2277426Y151311D01*
X2286909Y144974D01*
X2294974Y136909D01*
X2301311Y127426D01*
X2305675Y116889D01*
X2307294Y108749D01*
X2258749Y108749D01*
G37*
%LPD*%
%LPC*%
G36*
X1258749Y108749D02*
X1258749Y108749D01*
X1258749Y157294D01*
X1266889Y155675D01*
X1277426Y151311D01*
X1286909Y144974D01*
X1294974Y136909D01*
X1301311Y127426D01*
X1305675Y116889D01*
X1307294Y108749D01*
X1258749Y108749D01*
G37*
%LPD*%
%LPC*%
G36*
X3342706Y758749D02*
X3342706Y758749D01*
X3344325Y766889D01*
X3348689Y777426D01*
X3355025Y786909D01*
X3363091Y794974D01*
X3372573Y801311D01*
X3383110Y805675D01*
X3391250Y807294D01*
X3391250Y758749D01*
X3342706Y758749D01*
G37*
%LPD*%
%LPC*%
G36*
X108749Y741250D02*
X108749Y741250D01*
X157294Y741250D01*
X155675Y733110D01*
X151311Y722573D01*
X144974Y713091D01*
X136909Y705025D01*
X127426Y698689D01*
X116889Y694325D01*
X108749Y692706D01*
X108749Y741250D01*
G37*
%LPD*%
%LPC*%
G36*
X2258749Y3391250D02*
X2258749Y3391250D01*
X2307294Y3391250D01*
X2305675Y3383110D01*
X2301311Y3372573D01*
X2294974Y3363091D01*
X2286909Y3355025D01*
X2277426Y3348689D01*
X2266889Y3344325D01*
X2258749Y3342706D01*
X2258749Y3391250D01*
G37*
%LPD*%
%LPC*%
G36*
X1258749Y3391250D02*
X1258749Y3391250D01*
X1307294Y3391250D01*
X1305675Y3383110D01*
X1301311Y3372573D01*
X1294974Y3363091D01*
X1286909Y3355025D01*
X1277426Y3348689D01*
X1266889Y3344325D01*
X1258749Y3342706D01*
X1258749Y3391250D01*
G37*
%LPD*%
%LPC*%
G36*
X1758749Y3391250D02*
X1758749Y3391250D01*
X1807294Y3391250D01*
X1805675Y3383110D01*
X1801311Y3372573D01*
X1794974Y3363091D01*
X1786909Y3355025D01*
X1777426Y3348689D01*
X1766889Y3344325D01*
X1758749Y3342706D01*
X1758749Y3391250D01*
G37*
%LPD*%
%LPC*%
G36*
X2758749Y3391250D02*
X2758749Y3391250D01*
X2807294Y3391250D01*
X2805675Y3383110D01*
X2801311Y3372573D01*
X2794974Y3363091D01*
X2786909Y3355025D01*
X2777426Y3348689D01*
X2766889Y3344325D01*
X2758749Y3342706D01*
X2758749Y3391250D01*
G37*
%LPD*%
%LPC*%
G36*
X758749Y3391250D02*
X758749Y3391250D01*
X807294Y3391250D01*
X805675Y3383110D01*
X801311Y3372573D01*
X794974Y3363091D01*
X786909Y3355025D01*
X777426Y3348689D01*
X766889Y3344325D01*
X758749Y3342706D01*
X758749Y3391250D01*
G37*
%LPD*%
%LPC*%
G36*
X3342706Y2758749D02*
X3342706Y2758749D01*
X3344325Y2766889D01*
X3348689Y2777426D01*
X3355025Y2786909D01*
X3363091Y2794974D01*
X3372573Y2801311D01*
X3383110Y2805675D01*
X3391250Y2807294D01*
X3391250Y2758749D01*
X3342706Y2758749D01*
G37*
%LPD*%
%LPC*%
G36*
X108749Y2741250D02*
X108749Y2741250D01*
X157294Y2741250D01*
X155675Y2733110D01*
X151311Y2722573D01*
X144974Y2713091D01*
X136909Y2705025D01*
X127426Y2698689D01*
X116889Y2694325D01*
X108749Y2692706D01*
X108749Y2741250D01*
G37*
%LPD*%
%LPC*%
G36*
X3342706Y2258749D02*
X3342706Y2258749D01*
X3344325Y2266889D01*
X3348689Y2277426D01*
X3355025Y2286909D01*
X3363091Y2294974D01*
X3372573Y2301311D01*
X3383110Y2305675D01*
X3391250Y2307294D01*
X3391250Y2258749D01*
X3342706Y2258749D01*
G37*
%LPD*%
%LPC*%
G36*
X108749Y2241250D02*
X108749Y2241250D01*
X157294Y2241250D01*
X155675Y2233110D01*
X151311Y2222573D01*
X144974Y2213091D01*
X136909Y2205025D01*
X127426Y2198689D01*
X116889Y2194325D01*
X108749Y2192706D01*
X108749Y2241250D01*
G37*
%LPD*%
%LPC*%
G36*
X1192706Y108749D02*
X1192706Y108749D01*
X1194325Y116889D01*
X1198689Y127426D01*
X1205025Y136909D01*
X1213091Y144974D01*
X1222573Y151311D01*
X1233110Y155675D01*
X1241250Y157294D01*
X1241250Y108749D01*
X1192706Y108749D01*
G37*
%LPD*%
%LPC*%
G36*
X692706Y108749D02*
X692706Y108749D01*
X694325Y116889D01*
X698689Y127426D01*
X705025Y136909D01*
X713091Y144974D01*
X722573Y151311D01*
X733110Y155675D01*
X741250Y157294D01*
X741250Y108749D01*
X692706Y108749D01*
G37*
%LPD*%
%LPC*%
G36*
X1692706Y108749D02*
X1692706Y108749D01*
X1694325Y116889D01*
X1698689Y127426D01*
X1705025Y136909D01*
X1713091Y144974D01*
X1722573Y151311D01*
X1733110Y155675D01*
X1741250Y157294D01*
X1741250Y108749D01*
X1692706Y108749D01*
G37*
%LPD*%
%LPC*%
G36*
X2192706Y108749D02*
X2192706Y108749D01*
X2194325Y116889D01*
X2198689Y127426D01*
X2205025Y136909D01*
X2213091Y144974D01*
X2222573Y151311D01*
X2233110Y155675D01*
X2241250Y157294D01*
X2241250Y108749D01*
X2192706Y108749D01*
G37*
%LPD*%
%LPC*%
G36*
X2692706Y108749D02*
X2692706Y108749D01*
X2694325Y116889D01*
X2698689Y127426D01*
X2705025Y136909D01*
X2713091Y144974D01*
X2722573Y151311D01*
X2733110Y155675D01*
X2741250Y157294D01*
X2741250Y108749D01*
X2692706Y108749D01*
G37*
%LPD*%
%LPC*%
G36*
X3342706Y1758749D02*
X3342706Y1758749D01*
X3344325Y1766889D01*
X3348689Y1777426D01*
X3355025Y1786909D01*
X3363091Y1794974D01*
X3372573Y1801311D01*
X3383110Y1805675D01*
X3391250Y1807294D01*
X3391250Y1758749D01*
X3342706Y1758749D01*
G37*
%LPD*%
%LPC*%
G36*
X108749Y1741250D02*
X108749Y1741250D01*
X157294Y1741250D01*
X155675Y1733110D01*
X151311Y1722573D01*
X144974Y1713091D01*
X136909Y1705025D01*
X127426Y1698689D01*
X116889Y1694325D01*
X108749Y1692706D01*
X108749Y1741250D01*
G37*
%LPD*%
%LPC*%
G36*
X3342706Y1258749D02*
X3342706Y1258749D01*
X3344325Y1266889D01*
X3348689Y1277426D01*
X3355025Y1286909D01*
X3363091Y1294974D01*
X3372573Y1301311D01*
X3383110Y1305675D01*
X3391250Y1307294D01*
X3391250Y1258749D01*
X3342706Y1258749D01*
G37*
%LPD*%
%LPC*%
G36*
X108749Y1241250D02*
X108749Y1241250D01*
X157294Y1241250D01*
X155675Y1233110D01*
X151311Y1222573D01*
X144974Y1213091D01*
X136909Y1205025D01*
X127426Y1198689D01*
X116889Y1194325D01*
X108749Y1192706D01*
X108749Y1241250D01*
G37*
%LPD*%
%LPC*%
G36*
X3383110Y2694325D02*
X3383110Y2694325D01*
X3372573Y2698689D01*
X3363091Y2705025D01*
X3355025Y2713091D01*
X3348689Y2722573D01*
X3344325Y2733110D01*
X3342706Y2741250D01*
X3391250Y2741250D01*
X3391250Y2692706D01*
X3383110Y2694325D01*
G37*
%LPD*%
%LPC*%
G36*
X3383110Y1194325D02*
X3383110Y1194325D01*
X3372573Y1198689D01*
X3363091Y1205025D01*
X3355025Y1213091D01*
X3348689Y1222573D01*
X3344325Y1233110D01*
X3342706Y1241250D01*
X3391250Y1241250D01*
X3391250Y1192706D01*
X3383110Y1194325D01*
G37*
%LPD*%
%LPC*%
G36*
X2233110Y3344325D02*
X2233110Y3344325D01*
X2222573Y3348689D01*
X2213091Y3355025D01*
X2205025Y3363091D01*
X2198689Y3372573D01*
X2194325Y3383110D01*
X2192706Y3391250D01*
X2241250Y3391250D01*
X2241250Y3342706D01*
X2233110Y3344325D01*
G37*
%LPD*%
%LPC*%
G36*
X1733110Y3344325D02*
X1733110Y3344325D01*
X1722573Y3348689D01*
X1713091Y3355025D01*
X1705025Y3363091D01*
X1698689Y3372573D01*
X1694325Y3383110D01*
X1692706Y3391250D01*
X1741250Y3391250D01*
X1741250Y3342706D01*
X1733110Y3344325D01*
G37*
%LPD*%
%LPC*%
G36*
X3383110Y694325D02*
X3383110Y694325D01*
X3372573Y698689D01*
X3363091Y705025D01*
X3355025Y713091D01*
X3348689Y722573D01*
X3344325Y733110D01*
X3342706Y741250D01*
X3391250Y741250D01*
X3391250Y692706D01*
X3383110Y694325D01*
G37*
%LPD*%
%LPC*%
G36*
X1233110Y3344325D02*
X1233110Y3344325D01*
X1222573Y3348689D01*
X1213091Y3355025D01*
X1205025Y3363091D01*
X1198689Y3372573D01*
X1194325Y3383110D01*
X1192706Y3391250D01*
X1241250Y3391250D01*
X1241250Y3342706D01*
X1233110Y3344325D01*
G37*
%LPD*%
%LPC*%
G36*
X733110Y3344325D02*
X733110Y3344325D01*
X722573Y3348689D01*
X713091Y3355025D01*
X705025Y3363091D01*
X698689Y3372573D01*
X694325Y3383110D01*
X692706Y3391250D01*
X741250Y3391250D01*
X741250Y3342706D01*
X733110Y3344325D01*
G37*
%LPD*%
%LPC*%
G36*
X2733110Y3344325D02*
X2733110Y3344325D01*
X2722573Y3348689D01*
X2713091Y3355025D01*
X2705025Y3363091D01*
X2698689Y3372573D01*
X2694325Y3383110D01*
X2692706Y3391250D01*
X2741250Y3391250D01*
X2741250Y3342706D01*
X2733110Y3344325D01*
G37*
%LPD*%
%LPC*%
G36*
X3383110Y2194325D02*
X3383110Y2194325D01*
X3372573Y2198689D01*
X3363091Y2205025D01*
X3355025Y2213091D01*
X3348689Y2222573D01*
X3344325Y2233110D01*
X3342706Y2241250D01*
X3391250Y2241250D01*
X3391250Y2192706D01*
X3383110Y2194325D01*
G37*
%LPD*%
%LPC*%
G36*
X3383110Y1694325D02*
X3383110Y1694325D01*
X3372573Y1698689D01*
X3363091Y1705025D01*
X3355025Y1713091D01*
X3348689Y1722573D01*
X3344325Y1733110D01*
X3342706Y1741250D01*
X3391250Y1741250D01*
X3391250Y1692706D01*
X3383110Y1694325D01*
G37*
%LPD*%
%LPC*%
G36*
X2177499Y2789999D02*
X2177499Y2789999D01*
X2177499Y2830400D01*
X2200844Y2830400D01*
X2207303Y2828669D01*
X2213096Y2825325D01*
X2217825Y2820596D01*
X2221169Y2814803D01*
X2222900Y2808344D01*
X2222900Y2789999D01*
X2177499Y2789999D01*
G37*
%LPD*%
G36*
X1815074Y2516282D02*
X1815074Y2516282D01*
X1815269Y2516260D01*
X1816285Y2516480D01*
X1817308Y2516648D01*
X1817482Y2516739D01*
X1817674Y2516781D01*
X1818567Y2517313D01*
X1819484Y2517798D01*
X1819619Y2517941D01*
X1819788Y2518041D01*
X1820463Y2518828D01*
X1821179Y2519582D01*
X1821262Y2519760D01*
X1821390Y2519909D01*
X1821779Y2520873D01*
X1822217Y2521813D01*
X1822238Y2522008D01*
X1822312Y2522191D01*
X1822499Y2523869D01*
X1822499Y2526130D01*
X1822468Y2526324D01*
X1822489Y2526519D01*
X1822269Y2527535D01*
X1822102Y2528558D01*
X1822010Y2528732D01*
X1821968Y2528924D01*
X1821436Y2529817D01*
X1820951Y2530734D01*
X1820809Y2530869D01*
X1820708Y2531038D01*
X1819921Y2531713D01*
X1819168Y2532429D01*
X1818989Y2532512D01*
X1818840Y2532640D01*
X1817876Y2533029D01*
X1816936Y2533467D01*
X1816741Y2533488D01*
X1816558Y2533562D01*
X1814880Y2533749D01*
X1767621Y2533749D01*
X1767427Y2533718D01*
X1767232Y2533739D01*
X1766216Y2533519D01*
X1765193Y2533352D01*
X1765019Y2533260D01*
X1764827Y2533218D01*
X1763934Y2532686D01*
X1763017Y2532201D01*
X1762882Y2532059D01*
X1762713Y2531958D01*
X1762038Y2531171D01*
X1761322Y2530418D01*
X1761239Y2530239D01*
X1761111Y2530090D01*
X1760722Y2529126D01*
X1760284Y2528186D01*
X1760263Y2527991D01*
X1760189Y2527808D01*
X1760002Y2526130D01*
X1760002Y2523869D01*
X1760033Y2523675D01*
X1760012Y2523480D01*
X1760232Y2522465D01*
X1760399Y2521441D01*
X1760491Y2521268D01*
X1760533Y2521075D01*
X1761065Y2520183D01*
X1761550Y2519266D01*
X1761692Y2519130D01*
X1761793Y2518962D01*
X1762580Y2518287D01*
X1763333Y2517571D01*
X1763512Y2517488D01*
X1763661Y2517360D01*
X1764625Y2516970D01*
X1765565Y2516533D01*
X1765760Y2516511D01*
X1765943Y2516437D01*
X1767621Y2516250D01*
X1814880Y2516250D01*
X1815074Y2516282D01*
G37*
G36*
X1815074Y2766282D02*
X1815074Y2766282D01*
X1815269Y2766260D01*
X1816285Y2766480D01*
X1817308Y2766648D01*
X1817482Y2766739D01*
X1817674Y2766781D01*
X1818567Y2767313D01*
X1819484Y2767798D01*
X1819619Y2767941D01*
X1819788Y2768041D01*
X1820463Y2768828D01*
X1821179Y2769582D01*
X1821262Y2769760D01*
X1821390Y2769909D01*
X1821779Y2770873D01*
X1822217Y2771813D01*
X1822238Y2772008D01*
X1822312Y2772191D01*
X1822499Y2773869D01*
X1822499Y2776130D01*
X1822468Y2776324D01*
X1822489Y2776519D01*
X1822269Y2777535D01*
X1822102Y2778558D01*
X1822010Y2778732D01*
X1821968Y2778924D01*
X1821436Y2779817D01*
X1820951Y2780734D01*
X1820809Y2780869D01*
X1820708Y2781038D01*
X1819921Y2781713D01*
X1819168Y2782429D01*
X1818989Y2782512D01*
X1818840Y2782640D01*
X1817876Y2783029D01*
X1816936Y2783467D01*
X1816741Y2783488D01*
X1816558Y2783562D01*
X1814880Y2783749D01*
X1767621Y2783749D01*
X1767427Y2783718D01*
X1767232Y2783739D01*
X1766216Y2783519D01*
X1765193Y2783352D01*
X1765019Y2783260D01*
X1764827Y2783218D01*
X1763934Y2782686D01*
X1763017Y2782201D01*
X1762882Y2782059D01*
X1762713Y2781958D01*
X1762038Y2781171D01*
X1761322Y2780418D01*
X1761239Y2780239D01*
X1761111Y2780090D01*
X1760722Y2779126D01*
X1760284Y2778186D01*
X1760263Y2777991D01*
X1760189Y2777808D01*
X1760002Y2776130D01*
X1760002Y2773869D01*
X1760033Y2773675D01*
X1760012Y2773480D01*
X1760232Y2772465D01*
X1760399Y2771441D01*
X1760491Y2771268D01*
X1760533Y2771075D01*
X1761065Y2770183D01*
X1761550Y2769266D01*
X1761692Y2769130D01*
X1761793Y2768962D01*
X1762580Y2768287D01*
X1763333Y2767571D01*
X1763512Y2767488D01*
X1763661Y2767360D01*
X1764625Y2766970D01*
X1765565Y2766533D01*
X1765760Y2766511D01*
X1765943Y2766437D01*
X1767621Y2766250D01*
X1814880Y2766250D01*
X1815074Y2766282D01*
G37*
G36*
X1435313Y2091282D02*
X1435313Y2091282D01*
X1435508Y2091260D01*
X1436524Y2091480D01*
X1437548Y2091648D01*
X1437721Y2091739D01*
X1437913Y2091781D01*
X1438806Y2092313D01*
X1439723Y2092798D01*
X1439858Y2092941D01*
X1440027Y2093041D01*
X1440702Y2093828D01*
X1441418Y2094582D01*
X1441501Y2094760D01*
X1441629Y2094909D01*
X1442018Y2095873D01*
X1442456Y2096813D01*
X1442478Y2097008D01*
X1442551Y2097191D01*
X1442738Y2098869D01*
X1442738Y2101130D01*
X1442707Y2101324D01*
X1442728Y2101519D01*
X1442508Y2102535D01*
X1442341Y2103558D01*
X1442249Y2103732D01*
X1442208Y2103924D01*
X1441675Y2104817D01*
X1441190Y2105734D01*
X1441048Y2105869D01*
X1440947Y2106038D01*
X1440160Y2106713D01*
X1439407Y2107429D01*
X1439228Y2107512D01*
X1439079Y2107640D01*
X1438115Y2108029D01*
X1437175Y2108467D01*
X1436980Y2108488D01*
X1436798Y2108562D01*
X1435119Y2108749D01*
X1419880Y2108749D01*
X1419686Y2108718D01*
X1419491Y2108739D01*
X1418476Y2108519D01*
X1417452Y2108352D01*
X1417278Y2108260D01*
X1417086Y2108218D01*
X1416194Y2107686D01*
X1415277Y2107201D01*
X1415141Y2107059D01*
X1414973Y2106958D01*
X1414298Y2106171D01*
X1413582Y2105418D01*
X1413499Y2105239D01*
X1413371Y2105090D01*
X1412981Y2104126D01*
X1412544Y2103186D01*
X1412522Y2102991D01*
X1412448Y2102808D01*
X1412261Y2101130D01*
X1412261Y2098869D01*
X1412293Y2098675D01*
X1412271Y2098480D01*
X1412491Y2097465D01*
X1412658Y2096441D01*
X1412750Y2096268D01*
X1412792Y2096075D01*
X1413324Y2095183D01*
X1413809Y2094266D01*
X1413952Y2094130D01*
X1414052Y2093962D01*
X1414839Y2093287D01*
X1415593Y2092571D01*
X1415771Y2092488D01*
X1415920Y2092360D01*
X1416884Y2091970D01*
X1417824Y2091533D01*
X1418019Y2091511D01*
X1418202Y2091437D01*
X1419880Y2091250D01*
X1435119Y2091250D01*
X1435313Y2091282D01*
G37*
%LPC*%
G36*
X1622998Y3124998D02*
X1622998Y3124998D01*
X1622998Y3125002D01*
X1623002Y3125002D01*
X1623002Y3124998D01*
X1622998Y3124998D01*
G37*
%LPD*%
%LPC*%
G36*
X3199998Y3199998D02*
X3199998Y3199998D01*
X3199998Y3200002D01*
X3200002Y3200002D01*
X3200002Y3199998D01*
X3199998Y3199998D01*
G37*
%LPD*%
%LPC*%
G36*
X299998Y299998D02*
X299998Y299998D01*
X299998Y300002D01*
X300002Y300002D01*
X300002Y299998D01*
X299998Y299998D01*
G37*
%LPD*%
%LPC*%
G36*
X3199998Y299998D02*
X3199998Y299998D01*
X3199998Y300002D01*
X3200002Y300002D01*
X3200002Y299998D01*
X3199998Y299998D01*
G37*
%LPD*%
%LPC*%
G36*
X299998Y3199998D02*
X299998Y3199998D01*
X299998Y3200002D01*
X300002Y3200002D01*
X300002Y3199998D01*
X299998Y3199998D01*
G37*
%LPD*%
%LPC*%
G36*
X1393998Y623998D02*
X1393998Y623998D01*
X1393998Y624002D01*
X1394002Y624002D01*
X1394002Y623998D01*
X1393998Y623998D01*
G37*
%LPD*%
D10*
X3199983Y3499983D02*
X300074Y3499817D01*
X300074Y3499818D02*
X292788Y3499719D01*
X285506Y3499444D01*
X278233Y3498992D01*
X270973Y3498364D01*
X263730Y3497560D01*
X256509Y3496581D01*
X249314Y3495427D01*
X242149Y3494098D01*
X235018Y3492596D01*
X227926Y3490922D01*
X220876Y3489077D01*
X213874Y3487060D01*
X206922Y3484875D01*
X200025Y3482522D01*
X193188Y3480002D01*
X186413Y3477317D01*
X179706Y3474468D01*
X173070Y3471458D01*
X166509Y3468288D01*
X160026Y3464959D01*
X153626Y3461474D01*
X147313Y3457835D01*
X141089Y3454044D01*
X134960Y3450103D01*
X128928Y3446015D01*
X122996Y3441781D01*
X117170Y3437405D01*
X111451Y3432889D01*
X105843Y3428236D01*
X100349Y3423448D01*
X94974Y3418528D01*
X89719Y3413479D01*
X84589Y3408304D01*
X79585Y3403006D01*
X74711Y3397589D01*
X69970Y3392055D01*
X65365Y3386407D01*
X60898Y3380650D01*
X56572Y3374786D01*
X52390Y3368818D01*
X48353Y3362751D01*
X44465Y3356588D01*
X40727Y3350333D01*
X37143Y3343988D01*
X33713Y3337559D01*
X30440Y3331048D01*
X27326Y3324460D01*
X24372Y3317798D01*
X21581Y3311067D01*
X18954Y3304270D01*
X16493Y3297411D01*
X14199Y3290494D01*
X12073Y3283524D01*
X10117Y3276504D01*
X8332Y3269439D01*
X6718Y3262333D01*
X5278Y3255190D01*
X4011Y3248013D01*
X2918Y3240809D01*
X2001Y3233580D01*
X1259Y3226330D01*
X693Y3219065D01*
X304Y3211789D01*
X91Y3204505D01*
X92Y3204504D02*
X8Y295296D01*
X8Y295295D02*
X152Y288103D01*
X469Y280917D01*
X960Y273741D01*
X1624Y266579D01*
X2462Y259435D01*
X3471Y252313D01*
X4652Y245217D01*
X6005Y238152D01*
X7527Y231122D01*
X9219Y224131D01*
X11080Y217183D01*
X13108Y210282D01*
X15302Y203431D01*
X17661Y196636D01*
X20184Y189900D01*
X22868Y183227D01*
X25713Y176620D01*
X28717Y170084D01*
X31878Y163623D01*
X35194Y157240D01*
X38663Y150939D01*
X42284Y144723D01*
X46054Y138597D01*
X49970Y132564D01*
X54032Y126627D01*
X58235Y120790D01*
X62579Y115056D01*
X67059Y109429D01*
X71675Y103912D01*
X76422Y98508D01*
X81299Y93221D01*
X86301Y88052D01*
X91428Y83006D01*
X96674Y78086D01*
X102039Y73294D01*
X107517Y68632D01*
X113106Y64105D01*
X118803Y59713D01*
X124605Y55461D01*
X130508Y51350D01*
X136508Y47383D01*
X142602Y43562D01*
X148787Y39890D01*
X155059Y36368D01*
X161414Y32999D01*
X167849Y29784D01*
X174359Y26726D01*
X180942Y23825D01*
X187593Y21085D01*
X194308Y18506D01*
X201083Y16091D01*
X207914Y13839D01*
X214799Y11754D01*
X221731Y9835D01*
X228708Y8085D01*
X235725Y6503D01*
X242778Y5092D01*
X249863Y3851D01*
X256977Y2782D01*
X264114Y1886D01*
X271270Y1161D01*
X278442Y611D01*
X285625Y233D01*
X292815Y29D01*
X300008Y-1D01*
X300008Y0D02*
X3200000Y0D01*
X3207249Y88D01*
X3214494Y350D01*
X3221730Y788D01*
X3228954Y1401D01*
X3236161Y2187D01*
X3243347Y3148D01*
X3250507Y4282D01*
X3257638Y5589D01*
X3264735Y7068D01*
X3271795Y8717D01*
X3278812Y10537D01*
X3285784Y12526D01*
X3292705Y14683D01*
X3299572Y17006D01*
X3306381Y19495D01*
X3313128Y22148D01*
X3319809Y24962D01*
X3326420Y27938D01*
X3332957Y31072D01*
X3339417Y34363D01*
X3345795Y37810D01*
X3352088Y41409D01*
X3358292Y45160D01*
X3364404Y49059D01*
X3370419Y53105D01*
X3376336Y57295D01*
X3382149Y61627D01*
X3387856Y66098D01*
X3393453Y70705D01*
X3398937Y75447D01*
X3404305Y80319D01*
X3409553Y85320D01*
X3414680Y90447D01*
X3419681Y95695D01*
X3424553Y101063D01*
X3429295Y106547D01*
X3433902Y112144D01*
X3438373Y117851D01*
X3442705Y123664D01*
X3446895Y129581D01*
X3450941Y135596D01*
X3454840Y141708D01*
X3458591Y147912D01*
X3462190Y154205D01*
X3465637Y160583D01*
X3468928Y167043D01*
X3472062Y173580D01*
X3475038Y180191D01*
X3477852Y186872D01*
X3480505Y193619D01*
X3482994Y200428D01*
X3485317Y207295D01*
X3487474Y214216D01*
X3489463Y221188D01*
X3491283Y228205D01*
X3492932Y235265D01*
X3494411Y242362D01*
X3495718Y249493D01*
X3496852Y256653D01*
X3497813Y263839D01*
X3498599Y271046D01*
X3499212Y278270D01*
X3499650Y285506D01*
X3499912Y292751D01*
X3500000Y300000D01*
X3500000Y3199983D01*
X3499912Y3207232D01*
X3499650Y3214478D01*
X3499212Y3221714D01*
X3498599Y3228938D01*
X3497813Y3236145D01*
X3496852Y3243331D01*
X3495718Y3250492D01*
X3494411Y3257623D01*
X3492932Y3264721D01*
X3491282Y3271780D01*
X3489462Y3278798D01*
X3487473Y3285770D01*
X3485316Y3292691D01*
X3482992Y3299559D01*
X3480503Y3306368D01*
X3477851Y3313115D01*
X3475036Y3319796D01*
X3472060Y3326408D01*
X3468926Y3332945D01*
X3465634Y3339405D01*
X3462188Y3345783D01*
X3458588Y3352076D01*
X3454837Y3358280D01*
X3450938Y3364392D01*
X3446891Y3370408D01*
X3442701Y3376324D01*
X3438369Y3382137D01*
X3433898Y3387844D01*
X3429290Y3393442D01*
X3424548Y3398926D01*
X3419675Y3404294D01*
X3414674Y3409542D01*
X3409547Y3414669D01*
X3404298Y3419670D01*
X3398930Y3424542D01*
X3393445Y3429284D01*
X3387848Y3433891D01*
X3382141Y3438362D01*
X3376327Y3442694D01*
X3370411Y3446884D01*
X3364395Y3450930D01*
X3358283Y3454829D01*
X3352078Y3458580D01*
X3345785Y3462179D01*
X3339406Y3465625D01*
X3332947Y3468916D01*
X3326409Y3472051D01*
X3319798Y3475026D01*
X3313116Y3477840D01*
X3306369Y3480493D01*
X3299560Y3482981D01*
X3292692Y3485304D01*
X3285770Y3487461D01*
X3278798Y3489449D01*
X3271781Y3491269D01*
X3264721Y3492919D01*
X3257623Y3494397D01*
X3250492Y3495703D01*
X3243331Y3496837D01*
X3236145Y3497798D01*
X3228938Y3498584D01*
X3221714Y3499196D01*
X3214477Y3499633D01*
X3207232Y3499896D01*
X3199983Y3499983D01*
D11*
X1890000Y2775000D03*
X1760000Y2775000D03*
X1760000Y2525000D03*
X1890000Y2525000D03*
X1427500Y2087500D03*
X1297500Y2087500D03*
X2240000Y2000000D03*
X2110000Y2000000D03*
X1427500Y1962500D03*
X1297500Y1962500D03*
D12*
X387500Y1622500D03*
X387500Y1752500D03*
X949000Y2184000D03*
X949000Y2054000D03*
D13*
X1394000Y624000D03*
D14*
X1394000Y796000D03*
X1606000Y796000D03*
X1606000Y604000D03*
D15*
X1021000Y2744000D03*
X831000Y2744000D03*
D16*
X2675000Y2200000D03*
X2675000Y2250000D03*
X2675000Y2300000D03*
X2675000Y2350000D03*
X2775000Y2350000D03*
X2775000Y2300000D03*
X2775000Y2250000D03*
X2775000Y2200000D03*
X2525000Y1075000D03*
X2525000Y1125000D03*
X2525000Y1175000D03*
X2525000Y1225000D03*
X2625000Y1225000D03*
X2625000Y1175000D03*
X2625000Y1125000D03*
X2625000Y1075000D03*
D17*
X2162500Y2775000D03*
X2162500Y2675000D03*
X2037500Y2675000D03*
X2037500Y2775000D03*
D10*
X400470Y2000000D02*
X400485Y2001216D01*
X400530Y2002430D01*
X400604Y2003644D01*
X400709Y2004855D01*
X400842Y2006063D01*
X401006Y2007268D01*
X401199Y2008468D01*
X401422Y2009663D01*
X401673Y2010852D01*
X401954Y2012035D01*
X402264Y2013210D01*
X402603Y2014378D01*
X402970Y2015537D01*
X403365Y2016686D01*
X403789Y2017826D01*
X404240Y2018954D01*
X404719Y2020072D01*
X405225Y2021177D01*
X405759Y2022269D01*
X406318Y2023348D01*
X406905Y2024413D01*
X407517Y2025464D01*
X408154Y2026498D01*
X408817Y2027517D01*
X409505Y2028520D01*
X410217Y2029505D01*
X410953Y2030472D01*
X411713Y2031421D01*
X412495Y2032352D01*
X413301Y2033262D01*
X414128Y2034153D01*
X414977Y2035023D01*
X415847Y2035872D01*
X416738Y2036699D01*
X417648Y2037505D01*
X418579Y2038287D01*
X419528Y2039047D01*
X420495Y2039783D01*
X421480Y2040495D01*
X422483Y2041183D01*
X423502Y2041846D01*
X424536Y2042483D01*
X425587Y2043095D01*
X426652Y2043682D01*
X427731Y2044241D01*
X428823Y2044775D01*
X429928Y2045281D01*
X431046Y2045760D01*
X432174Y2046211D01*
X433314Y2046635D01*
X434463Y2047030D01*
X435622Y2047397D01*
X436790Y2047736D01*
X437965Y2048046D01*
X439148Y2048327D01*
X440337Y2048578D01*
X441532Y2048801D01*
X442732Y2048994D01*
X443937Y2049158D01*
X445145Y2049291D01*
X446356Y2049396D01*
X447570Y2049470D01*
X448784Y2049515D01*
X450000Y2049530D01*
X451216Y2049515D01*
X452430Y2049470D01*
X453644Y2049396D01*
X454855Y2049291D01*
X456063Y2049158D01*
X457268Y2048994D01*
X458468Y2048801D01*
X459663Y2048578D01*
X460852Y2048327D01*
X462035Y2048046D01*
X463210Y2047736D01*
X464378Y2047397D01*
X465537Y2047030D01*
X466686Y2046635D01*
X467826Y2046211D01*
X468954Y2045760D01*
X470072Y2045281D01*
X471177Y2044775D01*
X472269Y2044241D01*
X473348Y2043682D01*
X474413Y2043095D01*
X475464Y2042483D01*
X476498Y2041846D01*
X477517Y2041183D01*
X478520Y2040495D01*
X479505Y2039783D01*
X480472Y2039047D01*
X481421Y2038287D01*
X482352Y2037505D01*
X483262Y2036699D01*
X484153Y2035872D01*
X485023Y2035023D01*
X485872Y2034153D01*
X486699Y2033262D01*
X487505Y2032352D01*
X488287Y2031421D01*
X489047Y2030472D01*
X489783Y2029505D01*
X490495Y2028520D01*
X491183Y2027517D01*
X491846Y2026498D01*
X492483Y2025464D01*
X493095Y2024413D01*
X493682Y2023348D01*
X494241Y2022269D01*
X494775Y2021177D01*
X495281Y2020072D01*
X495760Y2018954D01*
X496211Y2017826D01*
X496635Y2016686D01*
X497030Y2015537D01*
X497397Y2014378D01*
X497736Y2013210D01*
X498046Y2012035D01*
X498327Y2010852D01*
X498578Y2009663D01*
X498801Y2008468D01*
X498994Y2007268D01*
X499158Y2006063D01*
X499291Y2004855D01*
X499396Y2003644D01*
X499470Y2002430D01*
X499515Y2001216D01*
X499530Y2000000D01*
X499515Y1998784D01*
X499470Y1997570D01*
X499396Y1996356D01*
X499291Y1995145D01*
X499158Y1993937D01*
X498994Y1992732D01*
X498801Y1991532D01*
X498578Y1990337D01*
X498327Y1989148D01*
X498046Y1987965D01*
X497736Y1986790D01*
X497397Y1985622D01*
X497030Y1984463D01*
X496635Y1983314D01*
X496211Y1982174D01*
X495760Y1981046D01*
X495281Y1979928D01*
X494775Y1978823D01*
X494241Y1977731D01*
X493682Y1976652D01*
X493095Y1975587D01*
X492483Y1974536D01*
X491846Y1973502D01*
X491183Y1972483D01*
X490495Y1971480D01*
X489783Y1970495D01*
X489047Y1969528D01*
X488287Y1968579D01*
X487505Y1967648D01*
X486699Y1966738D01*
X485872Y1965847D01*
X485023Y1964977D01*
X484153Y1964128D01*
X483262Y1963301D01*
X482352Y1962495D01*
X481421Y1961713D01*
X480472Y1960953D01*
X479505Y1960217D01*
X478520Y1959505D01*
X477517Y1958817D01*
X476498Y1958154D01*
X475464Y1957517D01*
X474413Y1956905D01*
X473348Y1956318D01*
X472269Y1955759D01*
X471177Y1955225D01*
X470072Y1954719D01*
X468954Y1954240D01*
X467826Y1953789D01*
X466686Y1953365D01*
X465537Y1952970D01*
X464378Y1952603D01*
X463210Y1952264D01*
X462035Y1951954D01*
X460852Y1951673D01*
X459663Y1951422D01*
X458468Y1951199D01*
X457268Y1951006D01*
X456063Y1950842D01*
X454855Y1950709D01*
X453644Y1950604D01*
X452430Y1950530D01*
X451216Y1950485D01*
X450000Y1950470D01*
X448784Y1950485D01*
X447570Y1950530D01*
X446356Y1950604D01*
X445145Y1950709D01*
X443937Y1950842D01*
X442732Y1951006D01*
X441532Y1951199D01*
X440337Y1951422D01*
X439148Y1951673D01*
X437965Y1951954D01*
X436790Y1952264D01*
X435622Y1952603D01*
X434463Y1952970D01*
X433314Y1953365D01*
X432174Y1953789D01*
X431046Y1954240D01*
X429928Y1954719D01*
X428823Y1955225D01*
X427731Y1955759D01*
X426652Y1956318D01*
X425587Y1956905D01*
X424536Y1957517D01*
X423502Y1958154D01*
X422483Y1958817D01*
X421480Y1959505D01*
X420495Y1960217D01*
X419528Y1960953D01*
X418579Y1961713D01*
X417648Y1962495D01*
X416738Y1963301D01*
X415847Y1964128D01*
X414977Y1964977D01*
X414128Y1965847D01*
X413301Y1966738D01*
X412495Y1967648D01*
X411713Y1968579D01*
X410953Y1969528D01*
X410217Y1970495D01*
X409505Y1971480D01*
X408817Y1972483D01*
X408154Y1973502D01*
X407517Y1974536D01*
X406905Y1975587D01*
X406318Y1976652D01*
X405759Y1977731D01*
X405225Y1978823D01*
X404719Y1979928D01*
X404240Y1981046D01*
X403789Y1982174D01*
X403365Y1983314D01*
X402970Y1984463D01*
X402603Y1985622D01*
X402264Y1986790D01*
X401954Y1987965D01*
X401673Y1989148D01*
X401422Y1990337D01*
X401199Y1991532D01*
X401006Y1992732D01*
X400842Y1993937D01*
X400709Y1995145D01*
X400604Y1996356D01*
X400530Y1997570D01*
X400485Y1998784D01*
X400470Y2000000D01*
X298870Y1492000D02*
X298885Y1493216D01*
X298930Y1494430D01*
X299004Y1495644D01*
X299109Y1496855D01*
X299242Y1498063D01*
X299406Y1499268D01*
X299599Y1500468D01*
X299822Y1501663D01*
X300073Y1502852D01*
X300354Y1504035D01*
X300664Y1505210D01*
X301003Y1506378D01*
X301370Y1507537D01*
X301765Y1508686D01*
X302189Y1509826D01*
X302640Y1510954D01*
X303119Y1512072D01*
X303625Y1513177D01*
X304159Y1514269D01*
X304718Y1515348D01*
X305305Y1516413D01*
X305917Y1517464D01*
X306554Y1518498D01*
X307217Y1519517D01*
X307905Y1520520D01*
X308617Y1521505D01*
X309353Y1522472D01*
X310113Y1523421D01*
X310895Y1524352D01*
X311701Y1525262D01*
X312528Y1526153D01*
X313377Y1527023D01*
X314247Y1527872D01*
X315138Y1528699D01*
X316048Y1529505D01*
X316979Y1530287D01*
X317928Y1531047D01*
X318895Y1531783D01*
X319880Y1532495D01*
X320883Y1533183D01*
X321902Y1533846D01*
X322936Y1534483D01*
X323987Y1535095D01*
X325052Y1535682D01*
X326131Y1536241D01*
X327223Y1536775D01*
X328328Y1537281D01*
X329446Y1537760D01*
X330574Y1538211D01*
X331714Y1538635D01*
X332863Y1539030D01*
X334022Y1539397D01*
X335190Y1539736D01*
X336365Y1540046D01*
X337548Y1540327D01*
X338737Y1540578D01*
X339932Y1540801D01*
X341132Y1540994D01*
X342337Y1541158D01*
X343545Y1541291D01*
X344756Y1541396D01*
X345970Y1541470D01*
X347184Y1541515D01*
X348400Y1541530D01*
X349616Y1541515D01*
X350830Y1541470D01*
X352044Y1541396D01*
X353255Y1541291D01*
X354463Y1541158D01*
X355668Y1540994D01*
X356868Y1540801D01*
X358063Y1540578D01*
X359252Y1540327D01*
X360435Y1540046D01*
X361610Y1539736D01*
X362778Y1539397D01*
X363937Y1539030D01*
X365086Y1538635D01*
X366226Y1538211D01*
X367354Y1537760D01*
X368472Y1537281D01*
X369577Y1536775D01*
X370669Y1536241D01*
X371748Y1535682D01*
X372813Y1535095D01*
X373864Y1534483D01*
X374898Y1533846D01*
X375917Y1533183D01*
X376920Y1532495D01*
X377905Y1531783D01*
X378872Y1531047D01*
X379821Y1530287D01*
X380752Y1529505D01*
X381662Y1528699D01*
X382553Y1527872D01*
X383423Y1527023D01*
X384272Y1526153D01*
X385099Y1525262D01*
X385905Y1524352D01*
X386687Y1523421D01*
X387447Y1522472D01*
X388183Y1521505D01*
X388895Y1520520D01*
X389583Y1519517D01*
X390246Y1518498D01*
X390883Y1517464D01*
X391495Y1516413D01*
X392082Y1515348D01*
X392641Y1514269D01*
X393175Y1513177D01*
X393681Y1512072D01*
X394160Y1510954D01*
X394611Y1509826D01*
X395035Y1508686D01*
X395430Y1507537D01*
X395797Y1506378D01*
X396136Y1505210D01*
X396446Y1504035D01*
X396727Y1502852D01*
X396978Y1501663D01*
X397201Y1500468D01*
X397394Y1499268D01*
X397558Y1498063D01*
X397691Y1496855D01*
X397796Y1495644D01*
X397870Y1494430D01*
X397915Y1493216D01*
X397930Y1492000D01*
X397915Y1490784D01*
X397870Y1489570D01*
X397796Y1488356D01*
X397691Y1487145D01*
X397558Y1485937D01*
X397394Y1484732D01*
X397201Y1483532D01*
X396978Y1482337D01*
X396727Y1481148D01*
X396446Y1479965D01*
X396136Y1478790D01*
X395797Y1477622D01*
X395430Y1476463D01*
X395035Y1475314D01*
X394611Y1474174D01*
X394160Y1473046D01*
X393681Y1471928D01*
X393175Y1470823D01*
X392641Y1469731D01*
X392082Y1468652D01*
X391495Y1467587D01*
X390883Y1466536D01*
X390246Y1465502D01*
X389583Y1464483D01*
X388895Y1463480D01*
X388183Y1462495D01*
X387447Y1461528D01*
X386687Y1460579D01*
X385905Y1459648D01*
X385099Y1458738D01*
X384272Y1457847D01*
X383423Y1456977D01*
X382553Y1456128D01*
X381662Y1455301D01*
X380752Y1454495D01*
X379821Y1453713D01*
X378872Y1452953D01*
X377905Y1452217D01*
X376920Y1451505D01*
X375917Y1450817D01*
X374898Y1450154D01*
X373864Y1449517D01*
X372813Y1448905D01*
X371748Y1448318D01*
X370669Y1447759D01*
X369577Y1447225D01*
X368472Y1446719D01*
X367354Y1446240D01*
X366226Y1445789D01*
X365086Y1445365D01*
X363937Y1444970D01*
X362778Y1444603D01*
X361610Y1444264D01*
X360435Y1443954D01*
X359252Y1443673D01*
X358063Y1443422D01*
X356868Y1443199D01*
X355668Y1443006D01*
X354463Y1442842D01*
X353255Y1442709D01*
X352044Y1442604D01*
X350830Y1442530D01*
X349616Y1442485D01*
X348400Y1442470D01*
X347184Y1442485D01*
X345970Y1442530D01*
X344756Y1442604D01*
X343545Y1442709D01*
X342337Y1442842D01*
X341132Y1443006D01*
X339932Y1443199D01*
X338737Y1443422D01*
X337548Y1443673D01*
X336365Y1443954D01*
X335190Y1444264D01*
X334022Y1444603D01*
X332863Y1444970D01*
X331714Y1445365D01*
X330574Y1445789D01*
X329446Y1446240D01*
X328328Y1446719D01*
X327223Y1447225D01*
X326131Y1447759D01*
X325052Y1448318D01*
X323987Y1448905D01*
X322936Y1449517D01*
X321902Y1450154D01*
X320883Y1450817D01*
X319880Y1451505D01*
X318895Y1452217D01*
X317928Y1452953D01*
X316979Y1453713D01*
X316048Y1454495D01*
X315138Y1455301D01*
X314247Y1456128D01*
X313377Y1456977D01*
X312528Y1457847D01*
X311701Y1458738D01*
X310895Y1459648D01*
X310113Y1460579D01*
X309353Y1461528D01*
X308617Y1462495D01*
X307905Y1463480D01*
X307217Y1464483D01*
X306554Y1465502D01*
X305917Y1466536D01*
X305305Y1467587D01*
X304718Y1468652D01*
X304159Y1469731D01*
X303625Y1470823D01*
X303119Y1471928D01*
X302640Y1473046D01*
X302189Y1474174D01*
X301765Y1475314D01*
X301370Y1476463D01*
X301003Y1477622D01*
X300664Y1478790D01*
X300354Y1479965D01*
X300073Y1481148D01*
X299822Y1482337D01*
X299599Y1483532D01*
X299406Y1484732D01*
X299242Y1485937D01*
X299109Y1487145D01*
X299004Y1488356D01*
X298930Y1489570D01*
X298885Y1490784D01*
X298870Y1492000D01*
X502070Y1492000D02*
X502085Y1493216D01*
X502130Y1494430D01*
X502204Y1495644D01*
X502309Y1496855D01*
X502442Y1498063D01*
X502606Y1499268D01*
X502799Y1500468D01*
X503022Y1501663D01*
X503273Y1502852D01*
X503554Y1504035D01*
X503864Y1505210D01*
X504203Y1506378D01*
X504570Y1507537D01*
X504965Y1508686D01*
X505389Y1509826D01*
X505840Y1510954D01*
X506319Y1512072D01*
X506825Y1513177D01*
X507359Y1514269D01*
X507918Y1515348D01*
X508505Y1516413D01*
X509117Y1517464D01*
X509754Y1518498D01*
X510417Y1519517D01*
X511105Y1520520D01*
X511817Y1521505D01*
X512553Y1522472D01*
X513313Y1523421D01*
X514095Y1524352D01*
X514901Y1525262D01*
X515728Y1526153D01*
X516577Y1527023D01*
X517447Y1527872D01*
X518338Y1528699D01*
X519248Y1529505D01*
X520179Y1530287D01*
X521128Y1531047D01*
X522095Y1531783D01*
X523080Y1532495D01*
X524083Y1533183D01*
X525102Y1533846D01*
X526136Y1534483D01*
X527187Y1535095D01*
X528252Y1535682D01*
X529331Y1536241D01*
X530423Y1536775D01*
X531528Y1537281D01*
X532646Y1537760D01*
X533774Y1538211D01*
X534914Y1538635D01*
X536063Y1539030D01*
X537222Y1539397D01*
X538390Y1539736D01*
X539565Y1540046D01*
X540748Y1540327D01*
X541937Y1540578D01*
X543132Y1540801D01*
X544332Y1540994D01*
X545537Y1541158D01*
X546745Y1541291D01*
X547956Y1541396D01*
X549170Y1541470D01*
X550384Y1541515D01*
X551600Y1541530D01*
X552816Y1541515D01*
X554030Y1541470D01*
X555244Y1541396D01*
X556455Y1541291D01*
X557663Y1541158D01*
X558868Y1540994D01*
X560068Y1540801D01*
X561263Y1540578D01*
X562452Y1540327D01*
X563635Y1540046D01*
X564810Y1539736D01*
X565978Y1539397D01*
X567137Y1539030D01*
X568286Y1538635D01*
X569426Y1538211D01*
X570554Y1537760D01*
X571672Y1537281D01*
X572777Y1536775D01*
X573869Y1536241D01*
X574948Y1535682D01*
X576013Y1535095D01*
X577064Y1534483D01*
X578098Y1533846D01*
X579117Y1533183D01*
X580120Y1532495D01*
X581105Y1531783D01*
X582072Y1531047D01*
X583021Y1530287D01*
X583952Y1529505D01*
X584862Y1528699D01*
X585753Y1527872D01*
X586623Y1527023D01*
X587472Y1526153D01*
X588299Y1525262D01*
X589105Y1524352D01*
X589887Y1523421D01*
X590647Y1522472D01*
X591383Y1521505D01*
X592095Y1520520D01*
X592783Y1519517D01*
X593446Y1518498D01*
X594083Y1517464D01*
X594695Y1516413D01*
X595282Y1515348D01*
X595841Y1514269D01*
X596375Y1513177D01*
X596881Y1512072D01*
X597360Y1510954D01*
X597811Y1509826D01*
X598235Y1508686D01*
X598630Y1507537D01*
X598997Y1506378D01*
X599336Y1505210D01*
X599646Y1504035D01*
X599927Y1502852D01*
X600178Y1501663D01*
X600401Y1500468D01*
X600594Y1499268D01*
X600758Y1498063D01*
X600891Y1496855D01*
X600996Y1495644D01*
X601070Y1494430D01*
X601115Y1493216D01*
X601130Y1492000D01*
X601115Y1490784D01*
X601070Y1489570D01*
X600996Y1488356D01*
X600891Y1487145D01*
X600758Y1485937D01*
X600594Y1484732D01*
X600401Y1483532D01*
X600178Y1482337D01*
X599927Y1481148D01*
X599646Y1479965D01*
X599336Y1478790D01*
X598997Y1477622D01*
X598630Y1476463D01*
X598235Y1475314D01*
X597811Y1474174D01*
X597360Y1473046D01*
X596881Y1471928D01*
X596375Y1470823D01*
X595841Y1469731D01*
X595282Y1468652D01*
X594695Y1467587D01*
X594083Y1466536D01*
X593446Y1465502D01*
X592783Y1464483D01*
X592095Y1463480D01*
X591383Y1462495D01*
X590647Y1461528D01*
X589887Y1460579D01*
X589105Y1459648D01*
X588299Y1458738D01*
X587472Y1457847D01*
X586623Y1456977D01*
X585753Y1456128D01*
X584862Y1455301D01*
X583952Y1454495D01*
X583021Y1453713D01*
X582072Y1452953D01*
X581105Y1452217D01*
X580120Y1451505D01*
X579117Y1450817D01*
X578098Y1450154D01*
X577064Y1449517D01*
X576013Y1448905D01*
X574948Y1448318D01*
X573869Y1447759D01*
X572777Y1447225D01*
X571672Y1446719D01*
X570554Y1446240D01*
X569426Y1445789D01*
X568286Y1445365D01*
X567137Y1444970D01*
X565978Y1444603D01*
X564810Y1444264D01*
X563635Y1443954D01*
X562452Y1443673D01*
X561263Y1443422D01*
X560068Y1443199D01*
X558868Y1443006D01*
X557663Y1442842D01*
X556455Y1442709D01*
X555244Y1442604D01*
X554030Y1442530D01*
X552816Y1442485D01*
X551600Y1442470D01*
X550384Y1442485D01*
X549170Y1442530D01*
X547956Y1442604D01*
X546745Y1442709D01*
X545537Y1442842D01*
X544332Y1443006D01*
X543132Y1443199D01*
X541937Y1443422D01*
X540748Y1443673D01*
X539565Y1443954D01*
X538390Y1444264D01*
X537222Y1444603D01*
X536063Y1444970D01*
X534914Y1445365D01*
X533774Y1445789D01*
X532646Y1446240D01*
X531528Y1446719D01*
X530423Y1447225D01*
X529331Y1447759D01*
X528252Y1448318D01*
X527187Y1448905D01*
X526136Y1449517D01*
X525102Y1450154D01*
X524083Y1450817D01*
X523080Y1451505D01*
X522095Y1452217D01*
X521128Y1452953D01*
X520179Y1453713D01*
X519248Y1454495D01*
X518338Y1455301D01*
X517447Y1456128D01*
X516577Y1456977D01*
X515728Y1457847D01*
X514901Y1458738D01*
X514095Y1459648D01*
X513313Y1460579D01*
X512553Y1461528D01*
X511817Y1462495D01*
X511105Y1463480D01*
X510417Y1464483D01*
X509754Y1465502D01*
X509117Y1466536D01*
X508505Y1467587D01*
X507918Y1468652D01*
X507359Y1469731D01*
X506825Y1470823D01*
X506319Y1471928D01*
X505840Y1473046D01*
X505389Y1474174D01*
X504965Y1475314D01*
X504570Y1476463D01*
X504203Y1477622D01*
X503864Y1478790D01*
X503554Y1479965D01*
X503273Y1481148D01*
X503022Y1482337D01*
X502799Y1483532D01*
X502606Y1484732D01*
X502442Y1485937D01*
X502309Y1487145D01*
X502204Y1488356D01*
X502130Y1489570D01*
X502085Y1490784D01*
X502070Y1492000D01*
D18*
X2286000Y3175000D03*
X2540000Y3175000D03*
X2794000Y3175000D03*
D19*
X575000Y2825000D03*
X1225000Y2825000D03*
D20*
X1877000Y3048800D02*
X1877000Y3201200D01*
X1623000Y3201200D02*
X1623000Y3048800D01*
X1027000Y3048800D02*
X1027000Y3201200D01*
X773000Y3201200D02*
X773000Y3048800D01*
D21*
X300000Y3200000D03*
X3200000Y3200000D03*
X3200000Y300000D03*
X300000Y300000D03*
D22*
X386000Y1619000D03*
X1750000Y2525000D03*
X950000Y2000000D03*
X1400000Y550000D03*
X1450000Y2025000D03*
D23*
X1450000Y1962500D02*
X1427500Y1962500D01*
X1450000Y1962500D02*
X1450000Y2025000D01*
X387500Y1622500D02*
X387500Y1620500D01*
X386000Y1619000D01*
D22*
X3400000Y1750000D03*
X100000Y1750000D03*
X100000Y1250000D03*
X100000Y750000D03*
X100000Y2250000D03*
X100000Y2750000D03*
X1750000Y100000D03*
X2250000Y100000D03*
X2750000Y100000D03*
X1250000Y100000D03*
X750000Y100000D03*
X3400000Y1250000D03*
X3400000Y750000D03*
X3400000Y2250000D03*
X3400000Y2750000D03*
X1750000Y3400000D03*
X2250000Y3400000D03*
X2750000Y3400000D03*
X1250000Y3400000D03*
X750000Y3400000D03*
X2300000Y2000000D03*
X1450000Y2100000D03*
D23*
X1427500Y2100000D02*
X1427500Y2087500D01*
X1427500Y2100000D02*
X1550000Y2100000D01*
X1550000Y2025000D01*
X1450000Y2025000D01*
X1427500Y2087500D02*
X1427500Y2175000D01*
D22*
X1750000Y2775000D03*
X1875000Y2775000D03*
D24*
X2037500Y2775000D01*
X1877000Y2777000D02*
X1877000Y3125000D01*
X1877000Y2777000D02*
X1875000Y2775000D01*
X1890000Y2775000D01*
D22*
X1051000Y2744000D03*
D23*
X1021000Y2744000D01*
X1144000Y2744000D02*
X1225000Y2825000D01*
X1144000Y2744000D02*
X1051000Y2744000D01*
D22*
X386500Y1873000D03*
X950000Y2237500D03*
X2250000Y1200000D03*
X1875000Y2525000D03*
X2075000Y2000000D03*
D23*
X2110000Y2000000D02*
X2110000Y2425000D01*
D22*
X1275000Y2025000D03*
D23*
X1300000Y2425000D02*
X1875000Y2425000D01*
X2110000Y2425000D01*
X1297500Y2025000D02*
X1297500Y1962500D01*
X1297500Y2025000D02*
X1275000Y2025000D01*
X1297500Y2025000D02*
X1297500Y2087500D01*
X1300000Y2087500D01*
X1300000Y2184000D01*
X1300000Y2425000D01*
X2250000Y1200000D02*
X2250000Y1048000D01*
X1806000Y604000D02*
X1606000Y604000D01*
X1806000Y604000D02*
X2250000Y1048000D01*
X950000Y2185000D02*
X950000Y2237500D01*
X950000Y2185000D02*
X949000Y2184000D01*
X2110000Y2000000D02*
X2110000Y1415000D01*
X2110000Y2000000D02*
X2075000Y2000000D01*
X2250000Y1275000D02*
X2250000Y1200000D01*
X2250000Y1275000D02*
X2110000Y1415000D01*
X1890000Y2525000D02*
X1875000Y2525000D01*
X1875000Y2425000D01*
X2286000Y2425000D02*
X2286000Y3175000D01*
X2286000Y2425000D02*
X2110000Y2425000D01*
X1300000Y2184000D02*
X949000Y2184000D01*
X386500Y1873000D02*
X300000Y1873000D01*
X300000Y2184000D01*
X949000Y2184000D01*
D22*
X514000Y1873000D03*
X386000Y1746000D03*
X1850000Y2050000D03*
D23*
X465000Y1675000D02*
X387500Y1752500D01*
X387500Y1747500D01*
X386000Y1746000D01*
X1850000Y1883076D02*
X1850000Y2050000D01*
X1850000Y1883076D02*
X1641924Y1675000D01*
X465000Y1675000D01*
D22*
X514000Y1746000D03*
X825000Y1875000D03*
X1725000Y1900000D03*
D23*
X1600000Y1775000D01*
X925000Y1775000D01*
X825000Y1875000D01*
D22*
X1650000Y850000D03*
D23*
X1650000Y800000D02*
X1646000Y796000D01*
X1606000Y796000D01*
X1650000Y800000D02*
X1650000Y850000D01*
D22*
X1775000Y2250000D03*
D23*
X1915000Y1784436D02*
X1650000Y1519436D01*
X1650000Y850000D01*
X1915000Y1784436D02*
X1915000Y2110000D01*
X1775000Y2250000D01*
D22*
X1550000Y2250000D03*
X1880000Y1315500D03*
D23*
X1550000Y2250000D02*
X1625000Y2325000D01*
X1800000Y2325000D01*
X1960000Y2165000D01*
X1960000Y1395500D02*
X1880000Y1315500D01*
X1960000Y1395500D02*
X1960000Y2165000D01*
D22*
X2550000Y2200000D03*
D23*
X2600000Y2350000D02*
X2675000Y2350000D01*
X2600000Y2350000D02*
X2550000Y2300000D01*
X2550000Y2200000D01*
X2525000Y1125000D02*
X2525000Y1075000D01*
X2525000Y1125000D02*
X2525000Y1175000D01*
X2400000Y1175000D01*
D22*
X2400000Y1175000D03*
X2025000Y2500000D03*
D23*
X2037500Y2675000D02*
X2162500Y2675000D01*
X2037500Y2512500D02*
X2025000Y2500000D01*
X2037500Y2512500D02*
X2037500Y2675000D01*
D22*
X1750000Y2050000D03*
X1150000Y2050000D03*
D23*
X1580000Y1880000D02*
X1750000Y2050000D01*
X1246967Y1880000D02*
X1150000Y1976967D01*
X1150000Y2050000D01*
X1246967Y1880000D02*
X1580000Y1880000D01*
D22*
X2325000Y1700000D03*
X2850000Y1550000D03*
D23*
X2675000Y1725000D02*
X2675000Y2200000D01*
X2350000Y1725000D02*
X2325000Y1700000D01*
X2350000Y1725000D02*
X2675000Y1725000D01*
X2850000Y1550000D01*
D22*
X776000Y2744000D03*
D23*
X831000Y2744000D01*
D22*
X1400000Y850000D03*
D23*
X1394000Y844000D02*
X1394000Y796000D01*
X1394000Y844000D02*
X1400000Y850000D01*
D22*
X2750000Y1050000D03*
D23*
X2675000Y1125000D02*
X2625000Y1125000D01*
X2675000Y1125000D02*
X2750000Y1050000D01*
D22*
X2950000Y2200000D03*
D23*
X2775000Y2200000D01*
D22*
X2550000Y2450000D03*
D23*
X2750000Y2450000D01*
X2775000Y2425000D01*
X2775000Y2350000D01*
D22*
X2550000Y800000D03*
D23*
X2625000Y875000D01*
X2625000Y1075000D01*
D22*
X2950000Y1950000D03*
D23*
X2850000Y1175000D02*
X2625000Y1175000D01*
X2850000Y1175000D02*
X2950000Y1275000D01*
X2950000Y1950000D01*
M02*
